0
SECTION
2
HEADER
9
$INSUNITS
70
4
9
$ACADVER
1
AC1014
9
$HANDSEED
5
FFFF
0
ENDSEC
0
SECTION
2
TABLES
0
TABLE
2
VPORT
5
8
100
AcDbSymbolTable
0
ENDTAB
0
TABLE
2
LTYPE
5
5
100
AcDbSymbolTable
0
LTYPE
5
14
100
AcDbSymbolTableRecord
100
AcDbLinetypeTableRecord
2
BYBLOCK
70
0
0
LTYPE
5
15
100
AcDbSymbolTableRecord
100
AcDbLinetypeTableRecord
2
BYLAYER
70
0
0
ENDTAB
0
TABLE
2
LAYER
5
2
100
AcDbSymbolTable
70
2
0
LAYER
5
50
100
AcDbSymbolTableRecord
100
AcDbLayerTableRecord
2
0
70
0
6
CONTINUOUS
0
ENDTAB
0
TABLE
2
STYLE
5
3
100
AcDbSymbolTable
70
1
0
STYLE
5
11
100
AcDbSymbolTableRecord
100
AcDbTextStyleTableRecord
2
STANDARD
70
0
0
ENDTAB
0
TABLE
2
VIEW
5
6
100
AcDbSymbolTable
70
0
0
ENDTAB
0
TABLE
2
UCS
5
7
100
AcDbSymbolTable
70
0
0
ENDTAB
0
TABLE
2
APPID
5
9
100
AcDbSymbolTable
70
2
0
APPID
5
12
100
AcDbSymbolTableRecord
100
AcDbRegAppTableRecord
2
ACAD
70
0
0
ENDTAB
0
TABLE
2
DIMSTYLE
5
A
100
AcDbSymbolTable
70
1
0
ENDTAB
0
TABLE
2
BLOCK_RECORD
5
1
100
AcDbSymbolTable
70
1
0
BLOCK_RECORD
5
1F
100
AcDbSymbolTableRecord
100
AcDbBlockTableRecord
2
*MODEL_SPACE
0
BLOCK_RECORD
5
1B
100
AcDbSymbolTableRecord
100
AcDbBlockTableRecord
2
*PAPER_SPACE
0
ENDTAB
0
ENDSEC
0
SECTION
2
BLOCKS
0
BLOCK
5
20
100
AcDbEntity
100
AcDbBlockBegin
2
*MODEL_SPACE
0
ENDBLK
5
21
100
AcDbEntity
100
AcDbBlockEnd
0
BLOCK
5
1C
100
AcDbEntity
100
AcDbBlockBegin
2
*PAPER_SPACE
0
ENDBLK
5
1D
100
AcDbEntity
100
AcDbBlockEnd
0
ENDSEC
0
SECTION
2
ENTITIES
0
LWPOLYLINE
5
100
100
AcDbEntity
8
0
100
AcDbPolyline
90
4
70
1
43
0.0
10
69.049999999999983
20
200
10
69.049999999999983
20
180.94999999999999
10
50
20
180.94999999999999
10
50
20
200
0
LWPOLYLINE
5
101
100
AcDbEntity
8
0
100
AcDbPolyline
90
4
70
1
43
0.0
10
66.524999999999991
20
197.47499999999999
10
66.524999999999991
20
183.47499999999999
10
52.525000000000006
20
183.47499999999999
10
52.525000000000006
20
197.47499999999999
0
LWPOLYLINE
5
102
100
AcDbEntity
8
0
100
AcDbPolyline
90
4
70
1
43
0.0
10
87.956250000000011
20
197.47499999999999
10
87.956250000000011
20
183.47499999999999
10
73.956250000000011
20
183.47499999999999
10
73.956250000000011
20
197.47499999999999
0
LWPOLYLINE
5
103
100
AcDbEntity
8
0
100
AcDbPolyline
90
4
70
1
43
0.0
10
90.481250000000003
20
200
10
90.481250000000003
20
180.94999999999999
10
71.431250000000006
20
180.94999999999999
10
71.431250000000006
20
200
0
LWPOLYLINE
5
104
100
AcDbEntity
8
0
100
AcDbPolyline
90
4
70
1
43
0.0
10
111.31370598227531
20
198.62473433262406
10
109.98484515744966
20
179.62113917517442
10
90.981250000000017
20
180.94999999999999
10
92.3101108248255
20
199.95359515744963
0
LWPOLYLINE
5
105
100
AcDbEntity
8
0
100
AcDbPolyline
90
4
70
1
43
0.0
10
107.64213102674758
20
182.31612349828441
10
93.676234323109995
20
183.29271413070211
10
94.652824955527791
20
197.25861083433961
10
108.61872165916535
20
196.28202020192185
0
LWPOLYLINE
5
106
100
AcDbEntity
8
0
100
AcDbPolyline
90
4
70
1
43
0.0
10
127.20043707332832
20
179.82173055538186
10
113.33668411094629
20
181.77015396882271
10
115.2851075243872
20
195.63390693120471
10
129.14886048676919
20
193.68548351776386
0
LWPOLYLINE
5
107
100
AcDbEntity
8
0
100
AcDbPolyline
90
4
70
1
43
0.0
10
132.00069944026583
20
195.83449831141212
10
129.34945186697658
20
176.96989160188525
10
110.48484515744967
20
179.62113917517442
10
113.13609273073891
20
198.4857458847014
0
LWPOLYLINE
5
108
100
AcDbEntity
8
0
100
AcDbPolyline
90
4
70
1
43
0.0
10
146.53831798841762
20
176.00397360297453
10
132.84425157814425
20
178.91473727442317
10
135.75501524959296
20
192.60880368469643
10
149.44908165986629
20
189.69804001324786
0
LWPOLYLINE
5
109
100
AcDbEntity
8
0
100
AcDbPolyline
90
4
70
1
43
0.0
10
168.24602918950711
20
172.72716963013761
10
154.35038306652876
20
174.43334043780951
10
156.05655387420083
20
188.32898656078805
10
169.95219999717932
20
186.6228157531159
0
LWPOLYLINE
5
110
100
AcDbEntity
8
0
100
AcDbPolyline
90
4
70
1
43
0.0
10
129.84945186697658
20
176.96989160188525
10
133.81016957705481
20
195.60360339586413
10
152.44388137103408
20
191.64288568578621
10
148.48316366095565
20
173.00917389180685
0
LWPOLYLINE
5
111
100
AcDbEntity
8
0
100
AcDbPolyline
90
4
70
1
43
0.0
10
172.76609912217094
20
188.82127469391219
10
170.44448813030215
20
169.91327050514542
10
151.53648394153643
20
172.23488149701319
10
153.85809493340497
20
191.14288568578033
0
LWPOLYLINE
5
112
100
AcDbEntity
8
0
100
AcDbPolyline
90
4
70
1
43
0.0
10
188.28796785923839
20
170.91890865904301
10
174.34124208595358
20
172.13908905750804
10
175.56142248441842
20
186.08581483079274
10
189.50814825770308
20
184.86563443232794
0
LWPOLYLINE
5
113
100
AcDbEntity
8
0
100
AcDbPolyline
90
4
70
1
43
0.0
10
192.24360812083148
20
187.16095779457106
10
190.58329122148453
20
168.18344879592371
10
171.60578222283436
20
169.84376569526336
10
173.26609912217083
20
188.82127469391219
0
LWPOLYLINE
5
114
100
AcDbEntity
8
0
100
AcDbPolyline
90
4
70
1
43
0.0
10
211.72111711946803
20
188.82127469391378
10
213.38143401881359
20
169.84376569526916
10
194.40392502016638
20
168.18344879592303
10
192.74360812082216
20
187.16095779457106
0
LWPOLYLINE
5
115
100
AcDbEntity
8
0
100
AcDbPolyline
90
4
70
1
43
0.0
10
209.42579375722437
20
186.08581483079683
10
210.64597415569386
20
172.13908905751256
10
196.69924838240976
20
170.91890865904327
10
195.47906798394013
20
184.86563443232751
0
LWPOLYLINE
5
116
100
AcDbEntity
8
0
100
AcDbPolyline
90
4
70
1
43
0.0
10
212.22111711946803
20
188.82127469391378
10
231.12912130825828
20
191.14288568578621
10
233.45073230008325
20
172.23488149701433
10
214.54272811133802
20
169.91327050514707
0
LWPOLYLINE
5
117
100
AcDbEntity
8
0
100
AcDbPolyline
90
4
70
1
43
0.0
10
215.03501624446099
20
186.62281575311789
10
228.93066236743937
20
188.32898656079118
10
230.63683317511232
20
174.43334043781289
10
216.74118705213399
20
172.72716963013946
0
LWPOLYLINE
5
118
100
AcDbEntity
8
0
100
AcDbPolyline
90
4
70
1
43
0.0
10
251.17704666460145
20
195.60360339585341
10
255.1377643746647
20
176.96989160187957
10
236.50405258067821
20
173.00917389181313
10
232.54333487063136
20
191.64288568578624
0
LWPOLYLINE
5
119
100
AcDbEntity
8
0
100
AcDbPolyline
90
4
70
1
43
0.0
10
249.23220099207646
20
192.60880368469225
10
252.14296466349961
20
178.91473727441775
10
238.44889825323918
20
176.00397360298177
10
235.53813458180031
20
189.69804001325713
0
LWPOLYLINE
5
120
100
AcDbEntity
8
0
100
AcDbPolyline
90
4
70
1
43
0.0
10
271.85112351093068
20
198.48574588468375
10
274.50237108420151
20
179.62113917514864
10
255.6377643746647
20
176.96989160187957
10
252.98651680139
20
195.83449831140848
0
LWPOLYLINE
5
121
100
AcDbEntity
8
0
100
AcDbPolyline
90
4
70
1
43
0.0
10
269.70210871726601
20
195.63390693119032
10
271.65053213069649
20
181.7701539688066
10
257.78677916831253
20
179.82173055537623
10
255.83835575488257
20
193.68548351775974
0
LWPOLYLINE
5
122
100
AcDbEntity
8
0
100
AcDbPolyline
90
4
70
1
43
0.0
10
290.33439128585252
20
197.25861083429515
10
291.31098191827078
20
183.29271413065715
10
277.34508521463295
20
182.31612349823968
10
276.36849458221502
20
196.28202020187723
0
LWPOLYLINE
5
123
100
AcDbEntity
8
0
100
AcDbPolyline
90
4
70
1
43
0.0
10
292.67710541655435
20
199.95359515740483
10
294.00596624138086
20
180.94999999995542
10
275.00237108420157
20
179.62113917514864
10
273.67351025940729
20
198.62473433260016
0
LWPOLYLINE
5
124
100
AcDbEntity
8
0
100
AcDbPolyline
90
4
70
1
43
0.0
10
313.55596624137991
20
199.99999999995978
10
313.55596624138025
20
180.94999999995795
10
294.50596624138092
20
180.94999999995542
10
294.50596624138007
20
199.99999999995913
0
LWPOLYLINE
5
125
100
AcDbEntity
8
0
100
AcDbPolyline
90
4
70
1
43
0.0
10
311.03096624138021
20
197.47499999995961
10
311.03096624138072
20
183.47499999995756
10
297.0309662413805
20
183.47499999995719
10
297.03096624138021
20
197.47499999995949
0
LWPOLYLINE
5
126
100
AcDbEntity
8
0
100
AcDbPolyline
90
4
70
1
43
0.0
10
334.98721624138182
20
199.99999999996047
10
334.98721624138199
20
180.94999999995997
10
315.93721624138266
20
180.9499999999598
10
315.93721624138288
20
199.99999999995987
0
LWPOLYLINE
5
127
100
AcDbEntity
8
0
100
AcDbPolyline
90
4
70
1
43
0.0
10
318.46221624138218
20
197.47499999996018
10
332.46221624138224
20
197.47499999995762
10
332.46221624138309
20
183.47499999995966
10
318.46221624138235
20
183.47499999996089
0
LWPOLYLINE
5
128
100
AcDbEntity
8
0
100
AcDbPolyline
90
4
70
1
43
0.0
10
337.36846624138241
20
199.99999999995987
10
356.4184662413823
20
199.99999999995987
10
356.4184662413823
20
180.94999999995986
10
337.36846624138241
20
180.94999999995986
0
LWPOLYLINE
5
129
100
AcDbEntity
8
0
100
AcDbPolyline
90
4
70
1
43
0.0
10
339.89346624138238
20
197.47499999995983
10
353.89346624138233
20
197.47499999995983
10
353.89346624138233
20
183.47499999995986
10
339.89346624138238
20
183.47499999995986
0
LWPOLYLINE
5
130
100
AcDbEntity
8
0
100
AcDbPolyline
90
4
70
1
43
0.0
10
356.4184662413823
20
199.99999999995987
10
375.46846624138226
20
199.99999999995987
10
375.46846624138226
20
180.94999999995986
10
356.4184662413823
20
180.94999999995986
0
LWPOLYLINE
5
131
100
AcDbEntity
8
0
100
AcDbPolyline
90
4
70
1
43
0.0
10
358.94346624138228
20
197.47499999995983
10
372.94346624138228
20
197.47499999995983
10
372.94346624138228
20
183.47499999995986
10
358.94346624138228
20
183.47499999995986
0
LWPOLYLINE
5
132
100
AcDbEntity
8
0
100
AcDbPolyline
90
4
70
1
43
0.0
10
370.56221624138243
20
159.66249999999857
10
356.56221624138249
20
159.66249999999857
10
356.56221624138249
20
173.6624999999986
10
370.56221624138243
20
173.6624999999986
0
LWPOLYLINE
5
133
100
AcDbEntity
8
0
100
AcDbPolyline
90
4
70
1
43
0.0
10
373.08721624138241
20
157.1374999999986
10
354.03721624138251
20
157.1374999999986
10
354.03721624138251
20
176.18749999999861
10
373.08721624138241
20
176.18749999999861
0
LWPOLYLINE
5
134
100
AcDbEntity
8
0
100
AcDbPolyline
90
4
70
1
43
0.0
10
354.03721624138245
20
157.13749999999891
10
315.93721624138243
20
157.13749999999891
10
315.93721624138237
20
176.18749999999892
10
354.03721624138245
20
176.18749999999903
0
LWPOLYLINE
5
135
100
AcDbEntity
8
0
100
AcDbPolyline
90
4
70
1
43
0.0
10
341.98721624138261
20
159.66249999999891
10
327.98721624138244
20
159.66249999999891
10
327.98721624138244
20
173.66249999999891
10
341.98721624138244
20
173.66249999999891
0
LWPOLYLINE
5
136
100
AcDbEntity
8
0
100
AcDbPolyline
90
4
70
1
43
0.0
10
313.41221624138251
20
159.662499999999
10
299.41221624138245
20
159.66249999999889
10
299.41221624138245
20
173.66249999999891
10
313.41221624138245
20
173.66249999999891
0
LWPOLYLINE
5
137
100
AcDbEntity
8
0
100
AcDbPolyline
90
4
70
1
43
0.0
10
294.36221624138244
20
162.04374999999891
10
280.36221624138244
20
162.04374999999891
10
280.36221624138244
20
176.04374999999891
10
294.36221624138244
20
176.04374999999897
0
LWPOLYLINE
5
138
100
AcDbEntity
8
0
100
AcDbPolyline
90
4
70
1
43
0.0
10
277.83721624138241
20
178.56874999999891
10
296.88721624138248
20
178.56874999999883
10
296.88721624138236
20
159.5187499999989
10
277.83721624138246
20
159.51874999999893
0
LWPOLYLINE
5
139
100
AcDbEntity
8
0
100
AcDbPolyline
90
4
70
1
43
0.0
10
315.93721624138243
20
176.18749999999892
10
315.93721624138243
20
157.13749999999899
10
296.88721624138242
20
157.13749999999865
10
296.88721624138248
20
176.18749999999892
0
LWPOLYLINE
5
140
100
AcDbEntity
8
0
100
AcDbPolyline
90
4
70
1
43
0.0
10
259.03502991165607
20
153.94577549101464
10
255.07431220162343
20
172.57948728500378
10
273.70802399558966
20
176.54020499507138
10
277.66874170566712
20
157.90649320108724
0
LWPOLYLINE
5
141
100
AcDbEntity
8
0
100
AcDbPolyline
90
4
70
1
43
0.0
10
259.035029911663
20
153.94577549098278
10
240.40131811767239
20
149.98505778091368
10
236.44060040763009
20
168.61876957491239
10
255.07431220162346
20
172.57948728500361
0
LWPOLYLINE
5
142
100
AcDbEntity
8
0
100
AcDbPolyline
90
4
70
1
43
0.0
10
240.40131811767816
20
149.98505778088631
10
221.76760632367518
20
146.02434007084972
10
217.80688861363654
20
164.65805186482095
10
236.44060040762906
20
168.61876957491222
0
LWPOLYLINE
5
143
100
AcDbEntity
8
0
100
AcDbPolyline
90
4
70
1
43
0.0
10
221.76760632368502
20
146.02434007080376
10
203.13389452990839
20
142.06362236079264
10
199.173176819812
20
160.69733415476551
10
217.80688861363686
20
164.65805186482103
0
LWPOLYLINE
5
144
100
AcDbEntity
8
0
100
AcDbPolyline
90
4
70
1
43
0.0
10
218.77280661234084
20
147.96918574330522
10
205.07874020242093
20
145.05842207195403
10
202.16797653100539
20
158.75248848223433
10
215.86204294127964
20
161.66325215367834
0
LWPOLYLINE
5
145
100
AcDbEntity
8
0
100
AcDbPolyline
90
4
70
1
43
0.0
10
237.40651840653683
20
151.92990345344555
10
223.71245199622098
20
149.01913978200358
10
220.8016883247995
20
162.71320619228263
10
234.49575473507304
20
165.62396986373003
0
LWPOLYLINE
5
146
100
AcDbEntity
8
0
100
AcDbPolyline
90
4
70
1
43
0.0
10
256.04023020050499
20
155.89062116350476
10
242.34616379020929
20
152.97985749209286
10
239.43540011879668
20
166.67392390237384
10
253.12946652907056
20
169.58468757381939
0
LWPOLYLINE
5
147
100
AcDbEntity
8
0
100
AcDbPolyline
90
4
70
1
43
0.0
10
274.6739419944978
20
159.85133887362559
10
260.97987558421545
20
156.94057520218564
10
258.06911191277493
20
170.63464161246216
10
271.76317832305102
20
173.54540528389751
0
LWPOLYLINE
5
148
100
AcDbEntity
8
0
100
AcDbPolyline
90
4
70
1
43
0.0
10
306.41221624138245
20
138.08749999999915
10
287.36221624138244
20
138.08749999999915
10
287.3622162413825
20
157.13749999999851
10
306.41221624138251
20
157.1374999999986
0
LWPOLYLINE
5
149
100
AcDbEntity
8
0
100
AcDbPolyline
90
4
70
1
43
0.0
10
303.8872162413823
20
140.61249999999916
10
289.88721624138248
20
140.61249999999885
10
289.88721624138248
20
154.61249999999851
10
303.88721624138248
20
154.61249999999845
0
LWPOLYLINE
5
150
100
AcDbEntity
8
0
100
AcDbPolyline
90
4
70
1
43
0.0
10
306.41221624138251
20
138.08749999999858
10
306.41221624138251
20
157.1374999999986
10
325.46221624138252
20
157.1374999999986
10
325.46221624138252
20
138.08749999999858
0
LWPOLYLINE
5
151
100
AcDbEntity
8
0
100
AcDbPolyline
90
4
70
1
43
0.0
10
373.08721624138241
20
157.1374999999986
10
373.08721624138241
20
138.08749999999858
10
344.51221624138248
20
138.08749999999858
10
344.51221624138248
20
157.1374999999986
0
LWPOLYLINE
5
152
100
AcDbEntity
8
0
100
AcDbPolyline
90
4
70
1
43
0.0
10
325.46221624138252
20
157.1374999999986
10
344.51221624138248
20
157.1374999999986
10
344.51221624138248
20
138.08749999999856
10
325.46221624138252
20
138.08749999999856
0
LWPOLYLINE
5
153
100
AcDbEntity
8
0
100
AcDbPolyline
90
4
70
1
43
0.0
10
327.9872162413825
20
154.61249999999859
10
341.9872162413825
20
154.61249999999859
10
341.9872162413825
20
140.61249999999856
10
327.9872162413825
20
140.61249999999859
0
LWPOLYLINE
5
154
100
AcDbEntity
8
0
100
AcDbPolyline
90
4
70
1
43
0.0
10
351.7997162413825
20
154.61249999999859
10
365.79971624138244
20
154.61249999999859
10
365.79971624138244
20
140.61249999999859
10
351.7997162413825
20
140.61249999999859
0
LWPOLYLINE
5
155
100
AcDbEntity
8
0
100
AcDbPolyline
90
4
70
1
43
0.0
10
308.93721624138254
20
154.61249999999859
10
322.93721624138254
20
154.61249999999859
10
322.93721624138254
20
140.61249999999856
10
308.93721624138254
20
140.61249999999859
0
LWPOLYLINE
5
156
100
AcDbEntity
8
0
100
AcDbPolyline
90
4
70
1
43
0.0
10
268.22850444739856
20
136.42432049599202
10
264.26778673734339
20
155.05803228993508
10
282.9014985313126
20
159.01874999999808
10
286.86221624138238
20
140.38503820605919
0
LWPOLYLINE
5
157
100
AcDbEntity
8
0
100
AcDbPolyline
90
4
70
1
43
0.0
10
270.17335011994572
20
139.41912020711911
10
267.26258644850407
20
153.11318661739386
10
280.95665285877516
20
156.0239502888337
10
283.86741653020556
20
142.32988387860158
0
LWPOLYLINE
5
158
100
AcDbEntity
8
0
100
AcDbPolyline
90
4
70
1
43
0.0
10
251.53963832597304
20
135.4584024970541
10
248.62887465453053
20
149.15246890732868
10
262.32294106480146
20
152.06323257876616
10
265.23370473624175
20
138.36916616849717
0
LWPOLYLINE
5
159
100
AcDbEntity
8
0
100
AcDbPolyline
90
4
70
1
43
0.0
10
264.26778673733986
20
155.05803228993435
10
268.2285044474059
20
136.42432049595786
10
249.59479265343489
20
132.46360278588637
10
245.6340749433667
20
151.09731457986953
0
LWPOLYLINE
5
160
100
AcDbEntity
8
0
100
AcDbPolyline
90
4
70
1
43
0.0
10
245.63407494336644
20
151.09731457986854
10
249.59479265344072
20
132.46360278588986
10
230.96108085946085
20
128.50288507582175
10
227.00036314939501
20
147.13659686980418
0
LWPOLYLINE
5
161
100
AcDbEntity
8
0
100
AcDbPolyline
90
4
70
1
43
0.0
10
243.68922927082733
20
148.10251486870342
10
246.5999929422787
20
134.40844845843085
10
232.90592653199266
20
131.49768478698834
10
229.99516286055223
20
145.19175119726336
0
LWPOLYLINE
5
162
100
AcDbEntity
8
0
100
AcDbPolyline
90
4
70
1
43
0.0
10
227.00036314939587
20
147.13659686980418
10
230.9610808594619
20
128.50288507581737
10
212.32736906567479
20
124.54216736578387
10
208.36665135559474
20
143.17587915977035
0
LWPOLYLINE
5
163
100
AcDbEntity
8
0
100
AcDbPolyline
90
4
70
1
43
0.0
10
225.05551747703961
20
144.14179715866925
10
227.96628114812444
20
130.44773074830945
10
214.27221473821177
20
127.53696707695865
10
211.36145106676392
20
141.23103348723208
0
LWPOLYLINE
5
164
100
AcDbEntity
8
0
100
AcDbPolyline
90
4
70
1
43
0.0
10
304.03096624138237
20
138.08749999999915
10
304.03096624138237
20
119.03749999999917
10
284.98096624138242
20
119.03749999999917
10
284.98096624138242
20
138.08749999999915
0
LWPOLYLINE
5
165
100
AcDbEntity
8
0
100
AcDbPolyline
90
4
70
1
43
0.0
10
304.03096624138237
20
119.03749999999917
10
304.03096624138232
20
138.08749999999915
10
323.08096624138244
20
138.08749999999915
10
323.08096624138244
20
119.03749999999917
0
LWPOLYLINE
5
166
100
AcDbEntity
8
0
100
AcDbPolyline
90
4
70
1
43
0.0
10
306.55596624138241
20
121.56249999999916
10
306.55596624138241
20
135.56249999999918
10
320.55596624138241
20
135.56249999999918
10
320.55596624138241
20
121.56249999999916
0
LWPOLYLINE
5
167
100
AcDbEntity
8
0
100
AcDbPolyline
90
4
70
1
43
0.0
10
287.50596624138245
20
121.56249999999916
10
287.5059662413824
20
135.56249999999918
10
301.5059662413824
20
135.56249999999918
10
301.50596624138234
20
121.56249999999916
0
LWPOLYLINE
5
168
100
AcDbEntity
8
0
100
AcDbPolyline
90
4
70
1
43
0.0
10
351.51221624138248
20
135.56249999999918
10
351.51221624138248
20
121.56249999999916
10
337.51221624138248
20
121.56249999999916
10
337.51221624138248
20
135.56249999999918
0
LWPOLYLINE
5
169
100
AcDbEntity
8
0
100
AcDbPolyline
90
4
70
1
43
0.0
10
323.08096624138244
20
119.03749999999917
10
323.08096624138244
20
138.08749999999915
10
365.94346624138245
20
138.08749999999915
10
365.94346624138245
20
119.03749999999917
0
LWPOLYLINE
5
170
100
AcDbEntity
8
0
100
AcDbPolyline
90
4
70
1
43
0.0
10
337.36846624138241
20
97.606249999999179
10
337.36846624138241
20
116.65624999999918
10
356.4184662413823
20
116.65624999999918
10
356.4184662413823
20
97.606249999999179
0
LWPOLYLINE
5
171
100
AcDbEntity
8
0
100
AcDbPolyline
90
4
70
1
43
0.0
10
353.89346624138227
20
100.13124999999917
10
339.89346624138238
20
100.13124999999917
10
339.89346624138238
20
114.13124999999917
10
353.89346624138233
20
114.13124999999917
0
LWPOLYLINE
5
172
100
AcDbEntity
8
0
100
AcDbPolyline
90
4
70
1
43
0.0
10
301.64971624138241
20
99.987499999999159
10
301.64971624138241
20
119.03749999999917
10
334.98721624138238
20
119.03749999999918
10
334.98721624138238
20
99.987499999999173
0
LWPOLYLINE
5
173
100
AcDbEntity
8
0
100
AcDbPolyline
90
4
70
1
43
0.0
10
311.31846624138245
20
102.51249999999916
10
311.31846624138245
20
116.51249999999918
10
325.3184662413824
20
116.51249999999918
10
325.3184662413824
20
102.51249999999916
0
LWPOLYLINE
5
174
100
AcDbEntity
8
0
100
AcDbPolyline
90
4
70
1
43
0.0
10
301.64971624138241
20
119.03749999999917
10
301.64971624138241
20
99.987499999999173
10
282.5997162413824
20
99.987499999999173
10
282.5997162413824
20
119.03749999999917
0
LWPOLYLINE
5
175
100
AcDbEntity
8
0
100
AcDbPolyline
90
4
70
1
43
0.0
10
299.12471624138243
20
102.51249999999916
10
285.12471624138243
20
102.51249999999916
10
285.12471624138243
20
116.51249999999918
10
299.12471624138243
20
116.51249999999918
0
LWPOLYLINE
5
176
100
AcDbEntity
8
0
100
AcDbPolyline
90
4
70
1
43
0.0
10
303.88721624138236
20
83.462499999999096
10
289.88721624138242
20
83.462499999998926
10
289.88721624138236
20
97.462499999999196
10
303.88721624138236
20
97.462499999999324
0
LWPOLYLINE
5
177
100
AcDbEntity
8
0
100
AcDbPolyline
90
4
70
1
43
0.0
10
308.79346624138236
20
99.987499999999244
10
308.79346624138248
20
80.937499999999091
10
284.98096624138242
20
80.937499999998991
10
284.98096624138236
20
99.987499999999173
0
LWPOLYLINE
5
178
100
AcDbEntity
8
0
100
AcDbPolyline
90
4
70
1
43
0.0
10
337.36846624138241
20
97.606249999999179
10
337.36846624138241
20
78.556249999999167
10
318.3184662413824
20
78.556249999999167
10
318.31846624138234
20
97.606249999999179
0
LWPOLYLINE
5
179
100
AcDbEntity
8
0
100
AcDbPolyline
90
4
70
1
43
0.0
10
334.84346624138243
20
81.081249999999173
10
320.84346624138243
20
81.081249999999173
10
320.84346624138243
20
95.081249999999187
10
334.84346624138243
20
95.081249999999187
0
LWPOLYLINE
5
180
100
AcDbEntity
8
0
100
AcDbPolyline
90
4
70
1
43
0.0
10
337.36846624138241
20
97.606249999999179
10
356.41846624138225
20
97.606249999999179
10
356.4184662413823
20
78.556249999999196
10
337.36846624138241
20
78.556249999999196
0
LWPOLYLINE
5
181
100
AcDbEntity
8
0
100
AcDbPolyline
90
4
70
1
43
0.0
10
356.4184662413823
20
97.606249999999179
10
375.46846624138226
20
97.606249999999179
10
375.46846624138226
20
78.556249999999167
10
356.4184662413823
20
78.556249999999167
0
LWPOLYLINE
5
182
100
AcDbEntity
8
0
100
AcDbPolyline
90
4
70
1
43
0.0
10
372.94346624138228
20
81.081249999999173
10
358.94346624138228
20
81.081249999999173
10
358.94346624138228
20
95.081249999999187
10
372.94346624138228
20
95.081249999999187
0
LWPOLYLINE
5
183
100
AcDbEntity
8
0
100
AcDbPolyline
90
4
70
1
43
0.0
10
353.89346624138227
20
81.081249999999187
10
339.89346624138238
20
81.081249999999173
10
339.89346624138227
20
95.081249999999187
10
353.89346624138227
20
95.081249999999201
0
LINE
5
184
100
AcDbEntity
8
0
100
AcDbLine
10
375.46846624138226
20
97.606249999999179
30
0
11
375.46846624138226
21
180.94999999995986
31
0
0
LINE
5
185
100
AcDbEntity
8
0
100
AcDbLine
10
308.79346624138248
20
80.937499999999091
30
0
11
318.3184662413824
21
80.937499999999091
31
0
0
LINE
5
186
100
AcDbEntity
8
0
100
AcDbLine
10
284.98096624138242
20
80.937499999998991
30
0
11
282.05985586492511
21
80.937499999998792
31
0
0
LWPOLYLINE
5
187
100
AcDbEntity
8
0
100
AcDbPolyline
90
4
70
1
43
0.0
10
260.43908023472466
20
76.341862271425157
10
256.47836252466413
20
94.975574065403109
10
279.77050226714232
20
99.926471202978107
10
283.73121997721415
20
81.292759409004006
0
LWPOLYLINE
5
188
100
AcDbEntity
8
0
100
AcDbPolyline
90
4
70
1
43
0.0
10
264.71313988151149
20
79.831751696346615
10
261.80237621007632
20
93.525818106622751
10
275.49644262035241
20
96.43658177805807
10
278.4072062917877
20
82.742515367781536
0
LWPOLYLINE
5
189
100
AcDbEntity
8
0
100
AcDbPolyline
90
4
70
1
43
0.0
10
222.78728834508584
20
70.920136848746608
10
219.87652467364165
20
84.614203259020854
10
233.57059108391624
20
87.524966930463393
10
236.48135475536023
20
73.830900520191435
0
LWPOLYLINE
5
190
100
AcDbEntity
8
0
100
AcDbPolyline
90
4
70
1
43
0.0
10
263.46600444750317
20
96.460843206711587
10
259.50528673742326
20
115.09455500067956
10
278.13899853131153
20
119.05527271075331
10
282.09971624139268
20
100.42156091673411
0
LWPOLYLINE
5
191
100
AcDbEntity
8
0
100
AcDbPolyline
90
4
70
1
43
0.0
10
240.87157494333769
20
111.13383729059066
10
259.50528673731611
20
115.09455500071793
10
263.4660044474611
20
96.460843206651745
10
244.83229265344252
20
92.500125496593043
0
LWPOLYLINE
5
192
100
AcDbEntity
8
0
100
AcDbPolyline
90
4
70
1
43
0.0
10
262.85245473627504
20
118.38742752367793
10
249.15838832593738
20
115.47666385244995
10
246.24762465471787
20
129.17073026277191
10
259.94169106505245
20
132.08149393399654
0
LWPOLYLINE
5
193
100
AcDbEntity
8
0
100
AcDbPolyline
90
4
70
1
43
0.0
10
280.52024853151653
20
139.03701135541539
10
284.48096624138185
20
120.40329956144535
10
265.84725444735147
20
116.4425818513258
10
261.88653673758972
20
135.07629364535623
0
LWPOLYLINE
5
194
100
AcDbEntity
8
0
100
AcDbPolyline
90
4
70
1
43
0.0
10
261.88653673758563
20
135.07629364539633
10
265.8472544474086
20
116.44258185108961
10
247.21354265335896
20
112.48186414132208
10
243.25282494360005
20
131.11557593531847
0
LWPOLYLINE
5
195
100
AcDbEntity
8
0
100
AcDbPolyline
90
4
70
1
43
0.0
10
243.25282494365635
20
131.11557593502002
10
247.21354265342296
20
112.48186414097448
10
228.57983085938289
20
108.52114643120953
10
224.61911314961407
20
127.15485822525397
0
LWPOLYLINE
5
196
100
AcDbEntity
8
0
100
AcDbPolyline
90
4
70
1
43
0.0
10
241.30797927107193
20
128.12077622388588
10
244.21874294228388
20
114.42670981356217
10
230.52467653197024
20
111.51594614234419
10
227.61391286075002
20
125.21001255266603
0
LWPOLYLINE
5
197
100
AcDbEntity
8
0
100
AcDbPolyline
90
4
70
1
43
0.0
10
224.61911314961415
20
127.15485822525409
10
228.57983085938349
20
108.52114643120655
10
209.94611906552367
20
104.56042872148163
10
205.98540135574683
20
123.19414051552513
0
LWPOLYLINE
5
198
100
AcDbEntity
8
0
100
AcDbPolyline
90
4
70
1
43
0.0
10
222.67426747721046
20
124.16005851415605
10
225.58503114806629
20
110.46599210375555
10
211.89096473810565
20
107.55522843261593
10
208.98020106688813
20
121.24929484293833
0
LWPOLYLINE
5
199
100
AcDbEntity
8
0
100
AcDbPolyline
90
4
70
1
43
0.0
10
278.57540285887882
20
136.042211644221
10
281.48616653028563
20
122.34814523401047
10
267.79210012007195
20
119.43738156252012
10
264.88133644857385
20
133.13144797278409
0
LWPOLYLINE
5
200
100
AcDbEntity
8
0
100
AcDbPolyline
90
4
70
1
43
0.0
10
220.2930174767954
20
104.17831986939291
10
223.20378114826661
20
90.484253459142835
10
209.50971473799751
20
87.573489787657977
10
206.5989510665259
20
101.26755619792638
0
LWPOLYLINE
5
201
100
AcDbEntity
8
0
100
AcDbPolyline
90
4
70
1
43
0.0
10
207.56486906546158
20
84.578690076514334
10
203.60415135535106
20
103.2124018704628
10
222.23786314932306
20
107.17311958054904
10
226.19858085944981
20
88.539407786590601
0
LWPOLYLINE
5
202
100
AcDbEntity
8
0
100
AcDbPolyline
90
4
70
1
43
0.0
10
228.14342653198466
20
91.534207497751652
10
225.23266286051319
20
105.22827390802007
10
238.92672927078291
20
108.1390375794855
10
241.8374929422485
20
94.444971169222129
0
LWPOLYLINE
5
203
100
AcDbEntity
8
0
100
AcDbPolyline
90
4
70
1
43
0.0
10
257.56044106476645
20
112.09975528948885
10
260.47120473625239
20
98.405688879156656
10
246.77713832598923
20
95.494925207789194
10
243.86637465450093
20
109.18899161805405
0
LWPOLYLINE
5
204
100
AcDbEntity
8
0
100
AcDbPolyline
90
4
70
1
43
0.0
10
251.12222433776378
20
74.361503416452223
10
209.19637280130911
20
65.449888568789106
10
205.23565509123887
20
84.083600362760137
10
247.16150662769391
20
92.995215210416845
0
LWPOLYLINE
5
205
100
AcDbEntity
8
0
100
AcDbPolyline
90
4
70
1
43
0.0
10
276.19415285877358
20
116.06047299958354
10
279.10491653022581
20
102.36640658928791
10
265.4108501200248
20
99.455642917962649
10
262.50008644858116
20
113.14970932823756
0
LWPOLYLINE
5
206
100
AcDbEntity
8
0
100
AcDbPolyline
90
4
70
1
43
0.0
10
202.01860812082541
20
95.225000000000165
10
182.96860812082545
20
95.225000000000165
10
182.96860812082545
20
114.27500000000001
10
202.01860812082541
20
114.27500000000001
0
LWPOLYLINE
5
207
100
AcDbEntity
8
0
100
AcDbPolyline
90
4
70
1
43
0.0
10
199.4936081208254
20
97.750000000000185
10
185.49360812082546
20
97.750000000000028
10
185.49360812082546
20
111.75
10
199.4936081208254
20
111.75000000000004
0
LWPOLYLINE
5
208
100
AcDbEntity
8
0
100
AcDbPolyline
90
4
70
1
43
0.0
10
199.49360812082546
20
78.700000000000159
10
185.49360812082546
20
78.700000000000173
10
185.49360812082546
20
92.700000000000173
10
199.49360812082546
20
92.700000000000159
0
LWPOLYLINE
5
209
100
AcDbEntity
8
0
100
AcDbPolyline
90
4
70
1
43
0.0
10
182.96860812082545
20
76.175000000000182
10
182.96860812082545
20
95.225000000000165
10
202.01860812082546
20
95.225000000000165
10
202.01860812082546
20
76.17500000000021
0
LWPOLYLINE
5
210
100
AcDbEntity
8
0
100
AcDbPolyline
90
4
70
1
43
0.0
10
128.50885371667707
20
94.975574065367155
10
179.7515611501193
20
84.083600362651637
10
175.7908434400411
20
65.449888568672932
10
124.54813600659877
20
76.341862271388464
0
LWPOLYLINE
5
211
100
AcDbEntity
8
0
100
AcDbPolyline
90
4
70
1
43
0.0
10
143.84743353749803
20
74.821079947607657
10
146.75819720894668
20
88.515146357880937
10
160.45226361921999
20
85.604382686432317
10
157.54149994777129
20
71.910316276159207
0
LWPOLYLINE
5
212
100
AcDbEntity
8
0
100
AcDbPolyline
90
4
70
1
43
0.0
10
106.58000994953866
20
82.742515367760973
10
109.49077362098788
20
96.436581778034139
10
123.18484003126102
20
93.525818106584893
10
120.27407635981184
20
79.831751696311741
0
LWPOLYLINE
5
213
100
AcDbEntity
8
0
100
AcDbPolyline
90
4
70
1
43
0.0
10
128.50885371667616
20
94.975574065362892
10
124.54813600659708
20
76.341862271384088
10
101.25599626412351
20
81.292759408982974
10
105.21671397420263
20
99.926471202961821
0
LINE
5
214
100
AcDbEntity
8
0
100
AcDbLine
10
100.00624999999999
20
80.9375
30
0
11
102.9273603763
21
80.9375
31
0
0
LWPOLYLINE
5
215
100
AcDbEntity
8
0
100
AcDbPolyline
90
4
70
1
43
0.0
10
158.78863538190853
20
88.539407786486507
10
162.74935309198662
20
107.17311958046012
10
181.38306488595273
20
103.2124018703837
10
177.42234717587664
20
84.578690076410652
0
LWPOLYLINE
5
216
100
AcDbEntity
8
0
100
AcDbPolyline
90
4
70
1
43
0.0
10
156.40738538194043
20
108.52114643112517
10
160.36810309201906
20
127.15485822510541
10
179.00181488599719
20
123.19414051502523
10
175.04109717591831
20
104.56042872104616
0
LWPOLYLINE
5
217
100
AcDbEntity
8
0
100
AcDbPolyline
90
4
70
1
43
0.0
10
154.02613538194973
20
128.50288507578179
10
157.98685309202827
20
147.13659686976081
10
176.62056488600558
20
143.17587915968235
10
172.65984717592656
20
124.54216736570372
0
LWPOLYLINE
5
218
100
AcDbEntity
8
0
100
AcDbPolyline
90
4
70
1
43
0.0
10
119.13996179397603
20
116.4425818512876
10
123.10067950405906
20
135.07629364526639
10
141.73439129804197
20
131.11557593518529
10
137.7736735879638
20
112.48186414121588
0
LWPOLYLINE
5
219
100
AcDbEntity
8
0
100
AcDbPolyline
90
4
70
1
43
0.0
10
137.77367358796195
20
112.4818641412071
10
141.73439129804211
20
131.11557593518523
10
160.36810309201925
20
127.15485822510537
10
156.40738538194068
20
108.5211464311264
0
LWPOLYLINE
5
220
100
AcDbEntity
8
0
100
AcDbPolyline
90
4
70
1
43
0.0
10
123.10067950405902
20
135.07629364526639
10
119.13996179397617
20
116.44258185128935
10
100.50624999999999
20
120.40329956136789
10
104.46696771008148
20
139.03701135534538
0
LWPOLYLINE
5
221
100
AcDbEntity
8
0
100
AcDbPolyline
90
4
70
1
43
0.0
10
162.74935309198656
20
107.1731195804601
10
158.78863538190683
20
88.539407786478463
10
140.15492358794401
20
92.500125496555086
10
144.11564129802682
20
111.13383729053523
0
LWPOLYLINE
5
222
100
AcDbEntity
8
0
100
AcDbPolyline
90
4
70
1
43
0.0
10
144.11564129802682
20
111.13383729053524
10
140.1549235879439
20
92.500125496554489
10
121.52121179397986
20
96.460843206630244
10
125.48192950406111
20
115.09455500061111
0
LINE
5
223
100
AcDbEntity
8
0
100
AcDbLine
10
121.52121179398016
20
96.460843206631722
30
0
11
102.8875
21
100.42156091671112
31
0
0
LINE
5
224
100
AcDbEntity
8
0
100
AcDbLine
10
106.848217710081
20
119.05527271069049
30
0
11
125.4819295040611
21
115.09455500061111
31
0
0
LINE
5
225
100
AcDbEntity
8
0
100
AcDbLine
10
102.8875
20
100.42156091671112
30
0
11
106.848217710081
21
119.05527271069049
31
0
0
LWPOLYLINE
5
226
100
AcDbEntity
8
0
100
AcDbPolyline
90
4
70
1
43
0.0
10
105.88229971116787
20
102.36640658925003
10
108.79306338261314
20
116.06047299952402
10
122.48712979289328
20
113.14970932807245
10
119.57636612144202
20
99.455642917798812
0
LWPOLYLINE
5
227
100
AcDbEntity
8
0
100
AcDbPolyline
90
4
70
1
43
0.0
10
124.51601150514266
20
98.405688879171436
10
127.42677517658359
20
112.09975528944641
10
141.12084158685815
20
109.18899161799742
10
138.21007791540669
20
95.494925207721607
0
LWPOLYLINE
5
228
100
AcDbEntity
8
0
100
AcDbPolyline
90
4
70
1
43
0.0
10
159.75455338081795
20
105.22827390792645
10
156.84378970938536
20
91.53420749764264
10
143.14972329911288
20
94.444971169095609
10
146.06048697054393
20
108.13903757937125
0
LWPOLYLINE
5
229
100
AcDbEntity
8
0
100
AcDbPolyline
90
4
70
1
43
0.0
10
178.38826517478427
20
101.26755619784829
10
175.47750150334977
20
87.57348978757561
10
161.78343509307541
20
90.48425345901974
10
164.69419876451056
20
104.17831986929444
0
LWPOLYLINE
5
230
100
AcDbEntity
8
0
100
AcDbPolyline
90
4
70
1
43
0.0
10
176.00701517482935
20
121.24929484249097
10
173.0962515033803
20
107.55522843221374
10
159.40218509310822
20
110.46599210366479
10
162.31294876455598
20
124.16005851393973
0
LWPOLYLINE
5
231
100
AcDbEntity
8
0
100
AcDbPolyline
90
4
70
1
43
0.0
10
140.76847329912948
20
114.42670981374508
10
143.67923697057475
20
128.12077622401986
10
157.37330338085184
20
125.21001255257022
10
154.46253970940009
20
111.51594614229464
0
LWPOLYLINE
5
232
100
AcDbEntity
8
0
100
AcDbPolyline
90
4
70
1
43
0.0
10
122.1347615051441
20
118.38742752382707
10
125.04552517659874
20
132.08149393409906
10
138.73959158687501
20
129.17073026265004
10
135.82882791542687
20
115.4766638523835
0
LWPOLYLINE
5
233
100
AcDbEntity
8
0
100
AcDbPolyline
90
4
70
1
43
0.0
10
103.50104971116741
20
122.34814523390537
10
106.41181338261816
20
136.04221164417822
10
120.10587979289144
20
133.13144797272972
10
117.19511612143893
20
119.43738156245665
0
LWPOLYLINE
5
234
100
AcDbEntity
8
0
100
AcDbPolyline
90
4
70
1
43
0.0
10
157.0209350931174
20
130.44773074832159
10
159.9316987645656
20
144.14179715859476
10
173.62576517483492
20
141.23103348715318
10
170.7150015033898
20
127.53696707687068
0
LWPOLYLINE
5
235
100
AcDbEntity
8
0
100
AcDbPolyline
90
4
70
1
43
0.0
10
138.38722329913239
20
134.40844845840138
10
141.29798697058703
20
148.10251486867341
10
154.99205338085815
20
145.19175119723545
10
152.0812897094043
20
131.49768478695776
0
LWPOLYLINE
5
236
100
AcDbEntity
8
0
100
AcDbPolyline
90
4
70
1
43
0.0
10
116.75871179397488
20
136.42432049593722
10
120.71942950405668
20
155.05803228992136
10
139.35314129804345
20
151.09731457984091
10
135.39242358796352
20
132.46360278585644
0
LWPOLYLINE
5
237
100
AcDbEntity
8
0
100
AcDbPolyline
90
4
70
1
43
0.0
10
154.02613538195109
20
128.50288507578838
10
135.39242358796599
20
132.46360278586801
10
139.35314129804328
20
151.09731457984097
10
157.98685309202821
20
147.13659686976095
0
LWPOLYLINE
5
238
100
AcDbEntity
8
0
100
AcDbPolyline
90
4
70
1
43
0.0
10
101.11979971116767
20
142.3298838785592
10
104.03056338261655
20
156.02395028883228
10
117.7246297928894
20
153.11318661738323
10
114.81386612144094
20
139.41912020711106
0
LWPOLYLINE
5
239
100
AcDbEntity
8
0
100
AcDbPolyline
90
4
70
1
43
0.0
10
120.71942950405648
20
155.05803228992141
10
116.75871179397635
20
136.42432049594422
10
98.125
20
140.38503820602295
10
102.08571771007854
20
159.01874999999998
0
LWPOLYLINE
5
240
100
AcDbEntity
8
0
100
AcDbPolyline
90
4
70
1
43
0.0
10
124.00734065716712
20
156.94057520217393
10
110.31327424689378
20
159.85133887362292
10
113.22403791834316
20
173.54540528389606
10
126.91810432861621
20
170.63464161244639
0
LWPOLYLINE
5
241
100
AcDbEntity
8
0
100
AcDbPolyline
90
4
70
1
43
0.0
10
142.64105245114581
20
152.97985749209462
10
128.94698604087276
20
155.89062116354438
10
131.85774971232269
20
169.58468757381738
10
145.55181612259565
20
166.67392390236742
0
LWPOLYLINE
5
242
100
AcDbEntity
8
0
100
AcDbPolyline
90
4
70
1
43
0.0
10
161.27476424512577
20
149.01913978201466
10
147.5806978348518
20
151.92990345346456
10
150.49146150630264
20
165.62396986373733
10
164.18552791657632
20
162.71320619229058
0
LWPOLYLINE
5
243
100
AcDbEntity
8
0
100
AcDbPolyline
90
4
70
1
43
0.0
10
179.9084760391076
20
145.05842207193595
10
166.21440962883258
20
147.96918574338508
10
169.12517330028356
20
161.66325215365782
10
182.81923971055738
20
158.75248848221182
0
LWPOLYLINE
5
244
100
AcDbEntity
8
0
100
AcDbPolyline
90
4
70
1
43
0.0
10
163.21960991766468
20
146.02434007084662
10
144.58589812368385
20
149.98505778092607
10
148.54661583376347
20
168.61876957490551
10
167.18032762774368
20
164.65805186482635
0
LWPOLYLINE
5
245
100
AcDbEntity
8
0
100
AcDbPolyline
90
4
70
1
43
0.0
10
163.21960991766485
20
146.02434007084753
10
167.18032762774362
20
164.65805186482626
10
185.81403942172454
20
160.69733415474678
10
181.85332171164595
20
142.06362236076811
0
LWPOLYLINE
5
246
100
AcDbEntity
8
0
100
AcDbPolyline
90
4
70
1
43
0.0
10
144.58589812368399
20
149.9850577809267
10
125.95218632970486
20
153.94577549100597
10
129.91290403978411
20
172.57948728498485
10
148.5466158337635
20
168.61876957490551
0
LWPOLYLINE
5
247
100
AcDbEntity
8
0
100
AcDbPolyline
90
4
70
1
43
0.0
10
125.95218632970489
20
153.94577549100615
10
107.31847453572591
20
157.90649320108491
10
111.27919224580509
20
176.54020499506396
10
129.91290403978408
20
172.57948728498491
0
LWPOLYLINE
5
248
100
AcDbEntity
8
0
100
AcDbPolyline
90
4
70
1
43
0.0
10
133.44757791542673
20
135.45840249702457
10
119.75351150514425
20
138.36916616848058
10
122.66427517659838
20
152.06323257875295
10
136.35834158687618
20
149.15246890730262
0
LWPOLYLINE
5
249
100
AcDbEntity
8
0
100
AcDbPolyline
90
4
70
1
43
0.0
10
76.19374999999998
20
99.987500000000011
10
76.19374999999998
20
80.9375
10
52.38124999999998
20
80.9375
10
52.38124999999998
20
99.987500000000011
0
LWPOLYLINE
5
250
100
AcDbEntity
8
0
100
AcDbPolyline
90
4
70
1
43
0.0
10
76.19374999999998
20
80.9375
10
76.19374999999998
20
99.987500000000011
10
100.00624999999999
20
99.987500000000011
10
100.00624999999999
20
80.9375
0
LWPOLYLINE
5
251
100
AcDbEntity
8
0
100
AcDbPolyline
90
4
70
1
43
0.0
10
83.337500000000006
20
99.987500000000011
10
83.337500000000006
20
119.03750000000001
10
102.38749999999999
20
119.03750000000001
10
102.38749999999999
20
99.987500000000011
0
LWPOLYLINE
5
252
100
AcDbEntity
8
0
100
AcDbPolyline
90
4
70
1
43
0.0
10
80.956249999999997
20
119.03750000000001
10
80.956249999999997
20
138.08750000000001
10
100.00624999999999
20
138.08750000000001
10
100.00624999999999
20
119.03750000000001
0
LWPOLYLINE
5
253
100
AcDbEntity
8
0
100
AcDbPolyline
90
4
70
1
43
0.0
10
78.575000000000003
20
138.08750000000001
10
78.575000000000003
20
157.13749999999999
10
97.625
20
157.13749999999999
10
97.625
20
138.08750000000001
0
LWPOLYLINE
5
254
100
AcDbEntity
8
0
100
AcDbPolyline
90
4
70
1
43
0.0
10
88.099999999999994
20
178.56874999999999
10
107.14999999999998
20
178.56874999999999
10
107.14999999999998
20
159.51874999999998
10
88.099999999999994
20
159.51874999999998
0
LWPOLYLINE
5
255
100
AcDbEntity
8
0
100
AcDbPolyline
90
4
70
1
43
0.0
10
104.62499999999999
20
162.04374999999999
10
90.624999999999986
20
162.04374999999999
10
90.624999999999986
20
176.04374999999999
10
104.62499999999999
20
176.04374999999999
0
LWPOLYLINE
5
256
100
AcDbEntity
8
0
100
AcDbPolyline
90
4
70
1
43
0.0
10
95.099999999999994
20
140.61249999999998
10
81.099999999999994
20
140.61249999999998
10
81.099999999999994
20
154.61250000000001
10
95.099999999999994
20
154.61250000000001
0
LWPOLYLINE
5
257
100
AcDbEntity
8
0
100
AcDbPolyline
90
4
70
1
43
0.0
10
97.481250000000003
20
121.5625
10
83.481249999999989
20
121.5625
10
83.481249999999989
20
135.5625
10
97.481250000000003
20
135.5625
0
LWPOLYLINE
5
258
100
AcDbEntity
8
0
100
AcDbPolyline
90
4
70
1
43
0.0
10
99.862499999999997
20
102.5125
10
85.862499999999997
20
102.5125
10
85.862499999999997
20
116.51250000000002
10
99.862499999999997
20
116.51250000000002
0
LWPOLYLINE
5
259
100
AcDbEntity
8
0
100
AcDbPolyline
90
4
70
1
43
0.0
10
95.099999999999994
20
83.462500000000006
10
81.09999999999998
20
83.462500000000006
10
81.09999999999998
20
97.46250000000002
10
95.099999999999994
20
97.46250000000002
0
LWPOLYLINE
5
260
100
AcDbEntity
8
0
100
AcDbPolyline
90
4
70
1
43
0.0
10
71.28749999999998
20
83.462500000000006
10
57.28749999999998
20
83.462500000000006
10
57.28749999999998
20
97.46250000000002
10
71.28749999999998
20
97.46250000000002
0
LWPOLYLINE
5
261
100
AcDbEntity
8
0
100
AcDbPolyline
90
4
70
1
43
0.0
10
54.90625
20
102.5125
10
54.90625
20
116.51250000000002
10
68.90625
20
116.51250000000002
10
68.90625
20
102.5125
0
LWPOLYLINE
5
262
100
AcDbEntity
8
0
100
AcDbPolyline
90
4
70
1
43
0.0
10
40.474999999999994
20
119.03750000000001
10
83.337500000000006
20
119.03750000000001
10
83.337500000000006
20
99.987500000000011
10
40.474999999999994
20
99.987500000000011
0
LWPOLYLINE
5
263
100
AcDbEntity
8
0
100
AcDbPolyline
90
4
70
1
43
0.0
10
71.287500000000009
20
135.5625
10
71.287500000000009
20
121.5625
10
57.287500000000009
20
121.5625
10
57.287500000000009
20
135.5625
0
LWPOLYLINE
5
264
100
AcDbEntity
8
0
100
AcDbPolyline
90
4
70
1
43
0.0
10
80.956249999999997
20
138.08750000000001
10
80.956249999999997
20
119.03750000000001
10
47.618750000000006
20
119.03750000000001
10
47.618750000000006
20
138.08750000000001
0
LWPOLYLINE
5
265
100
AcDbEntity
8
0
100
AcDbPolyline
90
4
70
1
43
0.0
10
71.287499999999994
20
154.61250000000001
10
71.287499999999994
20
140.61249999999998
10
57.287499999999994
20
140.61249999999998
10
57.287499999999994
20
154.61250000000001
0
LWPOLYLINE
5
266
100
AcDbEntity
8
0
100
AcDbPolyline
90
4
70
1
43
0.0
10
78.575000000000003
20
157.13749999999999
10
78.575000000000003
20
138.08750000000001
10
50
20
138.08750000000001
10
50
20
157.13749999999999
0
LWPOLYLINE
5
267
100
AcDbEntity
8
0
100
AcDbPolyline
90
4
70
1
43
0.0
10
69.050000000000011
20
176.1875
10
69.050000000000011
20
157.13749999999999
10
50
20
157.13749999999999
10
50
20
176.1875
0
LWPOLYLINE
5
268
100
AcDbEntity
8
0
100
AcDbPolyline
90
4
70
1
43
0.0
10
66.525000000000006
20
173.66249999999997
10
66.525000000000006
20
159.66249999999999
10
52.525000000000006
20
159.66249999999999
10
52.525000000000006
20
173.66249999999997
0
LWPOLYLINE
5
269
100
AcDbEntity
8
0
100
AcDbPolyline
90
4
70
1
43
0.0
10
85.574999999999989
20
159.66249999999999
10
71.575000000000017
20
159.66249999999999
10
71.575000000000017
20
173.66249999999994
10
85.574999999999989
20
173.66249999999997
0
LWPOLYLINE
5
270
100
AcDbEntity
8
0
100
AcDbPolyline
90
4
70
1
43
0.0
10
88.099999999999994
20
157.13749999999999
10
69.050000000000011
20
157.13749999999999
10
69.050000000000011
20
176.1875
10
88.099999999999994
20
176.1875
0
LINE
5
271
100
AcDbEntity
8
0
100
AcDbLine
10
40.474999999999994
20
80.9375
30
0
11
52.38124999999998
21
80.9375
31
0
0
LINE
5
272
100
AcDbEntity
8
0
100
AcDbLine
10
40.474999999999994
20
99.987500000000011
30
0
11
40.474999999999994
21
80.9375
31
0
0
LINE
5
273
100
AcDbEntity
8
0
100
AcDbLine
10
40.474999999999994
20
200
30
0
11
40.474999999999994
21
119.03750000000001
31
0
0
LINE
5
274
100
AcDbEntity
8
0
100
AcDbLine
10
50
20
200
30
0
11
40.474999999999994
21
200
31
0
0
LINE
5
275
100
AcDbEntity
8
0
100
AcDbLine
10
69.049999999999983
20
200
30
0
11
71.431250000000006
21
200
31
0
0
LINE
5
276
100
AcDbEntity
8
0
100
AcDbLine
10
90.481250000000003
20
200
30
0
11
92.3101108248255
21
199.95359515744963
31
0
0
LINE
5
277
100
AcDbEntity
8
0
100
AcDbLine
10
111.31370598227531
20
198.62473433262406
30
0
11
113.13609273073891
21
198.4857458847014
31
0
0
LINE
5
278
100
AcDbEntity
8
0
100
AcDbLine
10
132.00069944026583
20
195.83449831141212
30
0
11
133.81016957705481
21
195.60360339586413
31
0
0
LINE
5
279
100
AcDbEntity
8
0
100
AcDbLine
10
152.44388137103408
20
191.64288568578621
30
0
11
153.85809493340497
21
191.14288568578036
31
0
0
LINE
5
280
100
AcDbEntity
8
0
100
AcDbLine
10
172.76609912217094
20
188.82127469391219
30
0
11
173.26609912217083
21
188.82127469391219
31
0
0
LINE
5
281
100
AcDbEntity
8
0
100
AcDbLine
10
192.24360812083148
20
187.16095779457106
30
0
11
192.74360812082216
21
187.16095779457106
31
0
0
LINE
5
282
100
AcDbEntity
8
0
100
AcDbLine
10
211.72111711946803
20
188.82127469391378
30
0
11
212.22111711946803
21
188.82127469391378
31
0
0
LINE
5
283
100
AcDbEntity
8
0
100
AcDbLine
10
231.12912130825822
20
191.14288568578621
30
0
11
232.54333487063136
21
191.64288568578624
31
0
0
LINE
5
284
100
AcDbEntity
8
0
100
AcDbLine
10
251.17704666460145
20
195.60360339585341
30
0
11
252.98651680139
21
195.83449831140848
31
0
0
LINE
5
285
100
AcDbEntity
8
0
100
AcDbLine
10
271.85112351093068
20
198.48574588468375
30
0
11
273.67351025940729
21
198.62473433260016
31
0
0
LINE
5
286
100
AcDbEntity
8
0
100
AcDbLine
10
292.67710541655435
20
199.95359515740483
30
0
11
294.50596624138007
21
199.99999999995913
31
0
0
LINE
5
287
100
AcDbEntity
8
0
100
AcDbLine
10
313.55596624137991
20
199.99999999995978
30
0
11
315.93721624138288
21
199.99999999995987
31
0
0
LINE
5
288
100
AcDbEntity
8
0
100
AcDbLine
10
334.98721624138182
20
199.99999999996047
30
0
11
337.36846624138241
21
199.99999999995987
31
0
0
LINE
5
289
100
AcDbEntity
8
0
100
AcDbLine
10
251.12222433776378
20
74.361503416452223
30
0
11
260.43908023472466
21
76.341862271425157
31
0
0
LINE
5
290
100
AcDbEntity
8
0
100
AcDbLine
10
199.99360812082676
20
192.36563443232771
30
0
11
199.99360812082676
21
187.79525060513438
31
0
0
LINE
5
291
100
AcDbEntity
8
0
100
AcDbLine
10
184.99360812082676
20
192.36563443232771
30
0
11
184.99360812082676
21
187.79525060513333
31
0
0
LINE
5
292
100
AcDbEntity
8
0
100
AcDbLine
10
184.99360812082676
20
192.36563443232771
30
0
11
199.99360812082676
21
192.36563443232771
31
0
0
LINE
5
293
100
AcDbEntity
8
0
100
AcDbLine
10
40.474999999999994
20
195
30
0
11
43.474999999999994
21
195
31
0
0
LINE
5
294
100
AcDbEntity
8
0
100
AcDbLine
10
43.474999999999994
20
186.5
30
0
11
40.474999999999994
21
186.5
31
0
0
LINE
5
295
100
AcDbEntity
8
0
100
AcDbLine
10
43.474999999999994
20
195
30
0
11
43.474999999999994
21
186.5
31
0
0
LINE
5
296
100
AcDbEntity
8
0
100
AcDbLine
10
40.474999999999994
20
184.5
30
0
11
43.474999999999994
21
184.5
31
0
0
LINE
5
297
100
AcDbEntity
8
0
100
AcDbLine
10
43.474999999999994
20
184.5
30
0
11
43.474999999999994
21
175.99999999999997
31
0
0
LINE
5
298
100
AcDbEntity
8
0
100
AcDbLine
10
43.474999999999994
20
175.99999999999997
30
0
11
40.474999999999994
21
175.99999999999997
31
0
0
LINE
5
299
100
AcDbEntity
8
0
100
AcDbLine
10
152.44388137103408
20
193.68756687551627
30
0
11
134.14522862823
21
197.57706558572056
31
0
0
LINE
5
300
100
AcDbEntity
8
0
100
AcDbLine
10
134.14522862823
20
197.57706558572056
30
0
11
132.26646053277528
21
197.81680317067793
31
0
0
LINE
5
301
100
AcDbEntity
8
0
100
AcDbLine
10
132.26646053277528
20
197.81680317067793
30
0
11
113.35152939020062
21
200.47512338182293
31
0
0
LINE
5
302
100
AcDbEntity
8
0
100
AcDbLine
10
113.35152939020062
20
200.47512338182293
30
0
11
111.45951032183321
21
200.61942249613892
31
0
0
LINE
5
303
100
AcDbEntity
8
0
100
AcDbLine
10
111.45951032183321
20
200.61942249613892
30
0
11
92.405279758694263
21
201.95182409352662
31
0
0
LINE
5
304
100
AcDbEntity
8
0
100
AcDbLine
10
92.405279758694263
20
201.95182409352662
30
0
11
90.506619550227128
21
202.0000000000002
31
0
0
LINE
5
305
100
AcDbEntity
8
0
100
AcDbLine
10
38.474999999999994
20
202.0000000000008
30
0
11
38.474999999999994
21
76.556249999999167
31
0
0
LINE
5
306
100
AcDbEntity
8
0
100
AcDbLine
10
282.27006433545461
20
78.93749999999865
30
0
11
316.3184662413824
21
78.937499999999176
31
0
0
LINE
5
307
100
AcDbEntity
8
0
100
AcDbLine
10
316.3184662413824
20
78.937499999999176
30
0
11
316.3184662413824
21
76.556249999999167
31
0
0
LINE
5
308
100
AcDbEntity
8
0
100
AcDbLine
10
377.46846624138232
20
76.556249999999167
30
0
11
377.46846624138232
21
201.99999999995984
31
0
0
LINE
5
309
100
AcDbEntity
8
0
100
AcDbLine
10
294.48059669124325
20
201.99999999995899
30
0
11
292.58193648515277
21
201.95182409356715
31
0
0
LINE
5
310
100
AcDbEntity
8
0
100
AcDbLine
10
292.58193648515277
20
201.95182409356715
30
0
11
273.52770593803245
21
200.61942249744334
31
0
0
LINE
5
311
100
AcDbEntity
8
0
100
AcDbLine
10
273.52770593803245
20
200.61942249744334
30
0
11
271.63568685345433
21
200.47512338205144
31
0
0
LINE
5
312
100
AcDbEntity
8
0
100
AcDbLine
10
271.63568685345433
20
200.47512338205144
30
0
11
252.7207557115359
21
197.81680317105037
31
0
0
LINE
5
313
100
AcDbEntity
8
0
100
AcDbLine
10
252.7207557115359
20
197.81680317105037
30
0
11
250.84198761281806
21
197.57706558557931
31
0
0
LINE
5
314
100
AcDbEntity
8
0
100
AcDbLine
10
250.84198761281806
20
197.57706558557931
30
0
11
232.54333487063136
21
193.68756687552064
31
0
0
ARC
5
315
100
AcDbEntity
8
0
100
AcDbCircle
10
230.72459495041977
20
195.96620355183353
30
0
40
1.4999999999999853
210
-0
220
0
230
1
100
AcDbArc
50
7.6320683582519484
51
97.632068358250763
0
LINE
5
316
100
AcDbEntity
8
0
100
AcDbLine
10
232.21130699237759
20
196.16542027878577
30
0
11
232.54333487063136
21
193.68756687552064
31
0
0
LINE
5
317
100
AcDbEntity
8
0
100
AcDbLine
10
212.72050764452666
20
191.03134384949297
30
0
11
212.38847976627318
21
193.50919725275602
31
0
0
ARC
5
318
100
AcDbEntity
8
0
100
AcDbCircle
10
213.87519180823102
20
193.70841397970824
30
0
40
1.4999999999999853
210
0
220
0
230
1
100
AcDbArc
50
97.632068358250905
51
187.63206835825073
0
LINE
5
319
100
AcDbEntity
8
0
100
AcDbLine
10
213.67597508127881
20
195.19512602166606
30
0
11
230.52537822346756
21
197.45291559379137
31
0
0
ARC
5
320
100
AcDbEntity
8
0
100
AcDbCircle
10
76.974999999999994
20
204.50000000000063
30
0
40
1.5000000000000036
210
-0
220
0
230
1
100
AcDbArc
50
0
51
90
0
LINE
5
321
100
AcDbEntity
8
0
100
AcDbLine
10
78.474999999999994
20
204.50000000000063
30
0
11
78.474999999999994
21
202.00000000000105
31
0
0
LINE
5
322
100
AcDbEntity
8
0
100
AcDbLine
10
58.474999999999994
20
202.00000000000063
30
0
11
58.47499999999998
21
204.50000000000063
31
0
0
ARC
5
323
100
AcDbEntity
8
0
100
AcDbCircle
10
59.974999999999987
20
204.50000000000063
30
0
40
1.4999999999999858
210
0
220
-0
230
1
100
AcDbArc
50
90
51
180
0
LINE
5
324
100
AcDbEntity
8
0
100
AcDbLine
10
59.974999999999987
20
206.00000000000063
30
0
11
76.974999999999994
21
206.00000000000065
31
0
0
ARC
5
325
100
AcDbEntity
8
0
100
AcDbCircle
10
59.974999999999994
20
74.056249999999167
30
0
40
1.5000000000000036
210
0
220
0
230
1
100
AcDbArc
50
180
51
270
0
LINE
5
326
100
AcDbEntity
8
0
100
AcDbLine
10
58.474999999999994
20
74.056249999999167
30
0
11
58.475000000000001
21
76.556249999999167
31
0
0
LINE
5
327
100
AcDbEntity
8
0
100
AcDbLine
10
78.474999999999909
20
76.556249999999167
30
0
11
78.474999999999994
21
74.056249999999167
31
0
0
ARC
5
328
100
AcDbEntity
8
0
100
AcDbCircle
10
76.974999999999994
20
74.056249999999167
30
0
40
1.5000000000000036
210
0
220
0
230
1
100
AcDbArc
50
-90
51
0
0
LINE
5
329
100
AcDbEntity
8
0
100
AcDbLine
10
76.974999999999994
20
72.556249999999167
30
0
11
59.974999999999994
21
72.556249999999167
31
0
0
ARC
5
330
100
AcDbEntity
8
0
100
AcDbCircle
10
142.29291111788604
20
67.969561209230974
30
0
40
1.4999999999999556
210
0
220
0
230
1
100
AcDbArc
50
168.0000000000027
51
258.00000000000341
0
LINE
5
331
100
AcDbEntity
8
0
100
AcDbLine
10
140.82568971678538
20
68.281428745457532
30
0
11
141.34546894382959
21
70.726797747292139
31
0
0
LINE
5
332
100
AcDbEntity
8
0
100
AcDbLine
10
160.90842095850593
20
66.568563930937827
30
0
11
160.38864173146175
21
64.123194929103306
31
0
0
ARC
5
333
100
AcDbEntity
8
0
100
AcDbCircle
10
158.92142033036092
20
64.435062465329892
30
0
40
1.5000000000000075
210
0
220
0
230
1
100
AcDbArc
50
258.00000000000381
51
348.00000000000296
0
LINE
5
334
100
AcDbEntity
8
0
100
AcDbLine
10
158.60955279413437
20
62.967841064229155
30
0
11
141.98104358165949
21
66.502339808130287
31
0
0
ARC
5
335
100
AcDbEntity
8
0
100
AcDbCircle
10
317.81846624135073
20
74.056249999999167
30
0
40
1.4999999999999858
210
0
220
0
230
1
100
AcDbArc
50
180
51
270
0
LINE
5
336
100
AcDbEntity
8
0
100
AcDbLine
10
316.31846624135073
20
74.056249999999167
30
0
11
316.31846624135193
21
76.556249999999167
31
0
0
LINE
5
337
100
AcDbEntity
8
0
100
AcDbLine
10
336.31846624135079
20
76.55624999999884
30
0
11
336.31846624135022
21
74.056249999999181
31
0
0
ARC
5
338
100
AcDbEntity
8
0
100
AcDbCircle
10
334.81846624135022
20
74.056249999999181
30
0
40
1.5000000000000036
210
0
220
0
230
1
100
AcDbArc
50
-90
51
0
0
LINE
5
339
100
AcDbEntity
8
0
100
AcDbLine
10
334.81846624135022
20
72.556249999999181
30
0
11
317.81846624135073
21
72.556249999999181
31
0
0
ARC
5
340
100
AcDbEntity
8
0
100
AcDbCircle
10
334.81846624138234
20
204.49999999995953
30
0
40
1.4999999999999858
210
-0
220
0
230
1
100
AcDbArc
50
0
51
90
0
LINE
5
341
100
AcDbEntity
8
0
100
AcDbLine
10
336.31846624138234
20
204.49999999995953
30
0
11
336.31846624138228
21
201.99999999996021
31
0
0
LINE
5
342
100
AcDbEntity
8
0
100
AcDbLine
10
316.3184662413824
20
201.99999999995953
30
0
11
316.31846624141252
21
204.49999999995953
31
0
0
ARC
5
343
100
AcDbEntity
8
0
100
AcDbCircle
10
317.81846624141252
20
204.49999999995953
30
0
40
1.4999999999999858
210
0
220
-0
230
1
100
AcDbArc
50
90
51
180
0
LINE
5
344
100
AcDbEntity
8
0
100
AcDbLine
10
317.81846624141252
20
205.99999999995953
30
0
11
334.81846624138234
21
205.99999999995953
31
0
0
LINE
5
345
100
AcDbEntity
8
0
100
AcDbLine
10
316.3184662413824
20
201.99999999995953
30
0
11
294.48059669124325
21
201.99999999995899
31
0
0
LINE
5
346
100
AcDbEntity
8
0
100
AcDbLine
10
377.46846624138232
20
201.99999999995984
30
0
11
336.31846624138228
21
201.99999999996021
31
0
0
LINE
5
347
100
AcDbEntity
8
0
100
AcDbLine
10
336.31846624135079
20
76.55624999999884
30
0
11
377.46846624138232
21
76.556249999999167
31
0
0
LINE
5
348
100
AcDbEntity
8
0
100
AcDbLine
10
58.474999999999994
20
202.00000000000063
30
0
11
38.474999999999994
21
202.0000000000008
31
0
0
LINE
5
349
100
AcDbEntity
8
0
100
AcDbLine
10
90.506619550227128
20
202.0000000000002
30
0
11
78.474999999999994
21
202.00000000000105
31
0
0
LINE
5
350
100
AcDbEntity
8
0
100
AcDbLine
10
152.44388137103408
20
193.68756687551627
30
0
11
152.77590924928739
21
196.16542027877958
31
0
0
ARC
5
351
100
AcDbEntity
8
0
100
AcDbCircle
10
154.26262129124527
20
195.96620355182765
30
0
40
1.4999999999999849
210
0
220
-0
230
1
100
AcDbArc
50
82.367931641759071
51
172.36793164176015
0
LINE
5
352
100
AcDbEntity
8
0
100
AcDbLine
10
154.46183801819723
20
197.45291559378552
30
0
11
171.31124116038637
21
195.19512602166338
31
0
0
ARC
5
353
100
AcDbEntity
8
0
100
AcDbCircle
10
171.11202443343444
20
193.70841397970551
30
0
40
1.5000000000000226
210
-0
220
0
230
1
100
AcDbArc
50
-7.6320683582408027
51
82.367931641760137
0
LINE
5
354
100
AcDbEntity
8
0
100
AcDbLine
10
172.59873647539234
20
193.50919725275355
30
0
11
172.26670859713934
21
191.03134384949038
31
0
0
LINE
5
355
100
AcDbEntity
8
0
100
AcDbLine
10
202.49360812082682
20
189.66095779457106
30
0
11
182.49360812082682
21
189.66095779457277
31
0
0
LINE
5
356
100
AcDbEntity
8
0
100
AcDbLine
10
172.26670859713934
20
191.03134384949038
30
0
11
182.49360812082682
21
189.66095779457277
31
0
0
LINE
5
357
100
AcDbEntity
8
0
100
AcDbLine
10
202.49360812082682
20
189.66095779457106
30
0
11
212.72050764452666
21
191.03134384949297
31
0
0
LINE
5
358
100
AcDbEntity
8
0
100
AcDbLine
10
175.7908434400411
20
65.449888568672932
30
0
11
184.99360812067505
21
65.449888568704921
31
0
0
CIRCLE
5
359
100
AcDbEntity
8
0
100
AcDbCircle
10
189.99360812067448
20
71.675000000000196
30
0
40
0.55000000000000004
210
-0
220
0
230
1
0
CIRCLE
5
360
100
AcDbEntity
8
0
100
AcDbCircle
10
189.99360812067508
20
69.175000000000196
30
0
40
0.55000000000000004
210
-0
220
0
230
1
0
CIRCLE
5
361
100
AcDbEntity
8
0
100
AcDbCircle
10
192.49360812067508
20
69.175000000000196
30
0
40
0.55000000000000004
210
-0
220
0
230
1
0
CIRCLE
5
362
100
AcDbEntity
8
0
100
AcDbCircle
10
194.99360812067508
20
69.175000000000196
30
0
40
0.55000000000000004
210
-0
220
0
230
1
0
CIRCLE
5
363
100
AcDbEntity
8
0
100
AcDbCircle
10
194.99360812067164
20
71.675000000000196
30
0
40
0.55000000000000004
210
-0
220
0
230
1
0
LINE
5
364
100
AcDbEntity
8
0
100
AcDbLine
10
199.99360812067508
20
65.449888568757103
30
0
11
209.19637280130911
21
65.449888568789106
31
0
0
LINE
5
365
100
AcDbEntity
8
0
100
AcDbLine
10
184.99360812067505
20
65.825000000000202
30
0
11
199.99360812067508
21
65.825000000000202
31
0
0
LINE
5
366
100
AcDbEntity
8
0
100
AcDbLine
10
185.29360812067509
20
73.175000000000196
30
0
11
185.29360812067512
21
65.825000000000202
31
0
0
LINE
5
367
100
AcDbEntity
8
0
100
AcDbLine
10
185.29360812067509
20
73.175000000000196
30
0
11
199.69360812067507
21
73.175000000000196
31
0
0
LINE
5
368
100
AcDbEntity
8
0
100
AcDbLine
10
199.69360812067507
20
73.175000000000196
30
0
11
199.69360812067507
21
65.825000000000202
31
0
0
LINE
5
369
100
AcDbEntity
8
0
100
AcDbLine
10
197.44360812067501
20
70.425000000000196
30
0
11
187.54360812067503
21
70.425000000000196
31
0
0
LINE
5
370
100
AcDbEntity
8
0
100
AcDbLine
10
187.29360812067765
20
69.675000000000182
30
0
11
187.29360812067767
21
71.175000000000196
31
0
0
CIRCLE
5
371
100
AcDbEntity
8
0
100
AcDbCircle
10
186.64360812067775
20
71.175000000000196
30
0
40
0.64999999999997238
210
0
220
-0
230
1
0
CIRCLE
5
372
100
AcDbEntity
8
0
100
AcDbCircle
10
186.64360812067767
20
69.675000000000182
30
0
40
0.64999999999997238
210
0
220
-0
230
1
0
LINE
5
373
100
AcDbEntity
8
0
100
AcDbLine
10
185.99360812067778
20
71.175000000000381
30
0
11
185.99360812067769
21
69.675000000000381
31
0
0
LINE
5
374
100
AcDbEntity
8
0
100
AcDbLine
10
197.69360812067501
20
71.174999999999159
30
0
11
197.69360812067501
21
69.674999999999159
31
0
0
CIRCLE
5
375
100
AcDbEntity
8
0
100
AcDbCircle
10
198.34360812067499
20
71.174999999999187
30
0
40
0.64999999999997238
210
-0
220
0
230
1
0
CIRCLE
5
376
100
AcDbEntity
8
0
100
AcDbCircle
10
198.34360812067499
20
69.674999999999173
30
0
40
0.64999999999997238
210
-0
220
0
230
1
0
LINE
5
377
100
AcDbEntity
8
0
100
AcDbLine
10
198.99360812067496
20
69.674999999999187
30
0
11
198.99360812067496
21
71.174999999999201
31
0
0
LINE
5
378
100
AcDbEntity
8
0
100
AcDbLine
10
192.49360812067508
20
70.925000000000196
30
0
11
192.49360812067508
21
69.925000000000196
31
0
0
LINE
5
379
100
AcDbEntity
8
0
100
AcDbLine
10
175.58063496951317
20
63.449888568672115
30
0
11
209.40658127184307
21
63.449888568789909
31
0
0
LINE
5
380
100
AcDbEntity
8
0
100
AcDbLine
10
113.92005235397095
20
76.556249999999167
30
0
11
141.34546894382959
21
70.726797747292139
31
0
0
LINE
5
381
100
AcDbEntity
8
0
100
AcDbLine
10
160.90842095850593
20
66.568563930937827
30
0
11
175.58063496951317
21
63.449888568672115
31
0
0
LINE
5
382
100
AcDbEntity
8
0
100
AcDbLine
10
38.474999999999994
20
76.556249999999167
30
0
11
58.475000000000001
21
76.556249999999167
31
0
0
LINE
5
383
100
AcDbEntity
8
0
100
AcDbLine
10
78.474999999999909
20
76.556249999999167
30
0
11
113.92005235397095
21
76.556249999999167
31
0
0
LINE
5
384
100
AcDbEntity
8
0
100
AcDbLine
10
243.00617265969862
20
66.50233980821622
30
0
11
226.37766344721956
21
62.96784106433492
31
0
0
LINE
5
385
100
AcDbEntity
8
0
100
AcDbLine
10
224.59857450989364
20
64.123194929211465
30
0
11
224.07879528285409
21
66.568563931038142
31
0
0
ARC
5
386
100
AcDbEntity
8
0
100
AcDbCircle
10
226.06579591099475
20
64.435062465435948
30
0
40
1.4999999999999418
210
0
220
0
230
1
100
AcDbArc
50
191.99999999991618
51
281.99999999992912
0
ARC
5
387
100
AcDbEntity
8
0
100
AcDbCircle
10
242.69430512347381
20
67.969561209317291
30
0
40
1.4999999999999845
210
-0
220
0
230
1
100
AcDbArc
50
-78.000000000071225
51
11.999999999940478
0
LINE
5
388
100
AcDbEntity
8
0
100
AcDbLine
10
243.64174729753535
20
70.726797747369062
30
0
11
244.16152652457481
21
68.281428745542399
31
0
0
LINE
5
389
100
AcDbEntity
8
0
100
AcDbLine
10
209.40658127184307
20
63.449888568789909
30
0
11
224.07879528285409
21
66.568563931038142
31
0
0
LINE
5
390
100
AcDbEntity
8
0
100
AcDbLine
10
243.64174729753535
20
70.726797747369062
30
0
11
282.27006433545461
21
78.93749999999865
31
0
0
ENDSEC
0
SECTION
2
OBJECTS
0
DICTIONARY
5
C
100
AcDbDictionary
3
ACAD_GROUP
350
D
3
ACAD_MLINESTYLE
350
17
0
DICTIONARY
5
D
100
AcDbDictionary
0
DICTIONARY
5
1A
330
C
100
AcDbDictionary
0
DICTIONARY
5
17
100
AcDbDictionary
0
ENDSEC
0
EOF
