%TF.GenerationSoftware,KiCad,Pcbnew,(5.1.6)-1*%
%TF.CreationDate,2021-09-12T01:22:44+02:00*%
%TF.ProjectId,Kanagawa,4b616e61-6761-4776-912e-6b696361645f,rev?*%
%TF.SameCoordinates,Original*%
%TF.FileFunction,Legend,Bot*%
%TF.FilePolarity,Positive*%
%FSLAX46Y46*%
G04 Gerber Fmt 4.6, Leading zero omitted, Abs format (unit mm)*
G04 Created by KiCad (PCBNEW (5.1.6)-1) date 2021-09-12 01:22:44*
%MOMM*%
%LPD*%
G01*
G04 APERTURE LIST*
%ADD10C,0.150000*%
%ADD11C,0.120000*%
%ADD12C,0.381000*%
%ADD13C,0.100000*%
G04 APERTURE END LIST*
D10*
X111711428Y-208050571D02*
X111711428Y-206550571D01*
X110854285Y-208050571D02*
X111497142Y-207193428D01*
X110854285Y-206550571D02*
X111711428Y-207407714D01*
X109568571Y-208050571D02*
X109568571Y-207264857D01*
X109640000Y-207122000D01*
X109782857Y-207050571D01*
X110068571Y-207050571D01*
X110211428Y-207122000D01*
X109568571Y-207979142D02*
X109711428Y-208050571D01*
X110068571Y-208050571D01*
X110211428Y-207979142D01*
X110282857Y-207836285D01*
X110282857Y-207693428D01*
X110211428Y-207550571D01*
X110068571Y-207479142D01*
X109711428Y-207479142D01*
X109568571Y-207407714D01*
X108854285Y-207050571D02*
X108854285Y-208050571D01*
X108854285Y-207193428D02*
X108782857Y-207122000D01*
X108640000Y-207050571D01*
X108425714Y-207050571D01*
X108282857Y-207122000D01*
X108211428Y-207264857D01*
X108211428Y-208050571D01*
X106854285Y-208050571D02*
X106854285Y-207264857D01*
X106925714Y-207122000D01*
X107068571Y-207050571D01*
X107354285Y-207050571D01*
X107497142Y-207122000D01*
X106854285Y-207979142D02*
X106997142Y-208050571D01*
X107354285Y-208050571D01*
X107497142Y-207979142D01*
X107568571Y-207836285D01*
X107568571Y-207693428D01*
X107497142Y-207550571D01*
X107354285Y-207479142D01*
X106997142Y-207479142D01*
X106854285Y-207407714D01*
X105497142Y-207050571D02*
X105497142Y-208264857D01*
X105568571Y-208407714D01*
X105640000Y-208479142D01*
X105782857Y-208550571D01*
X105997142Y-208550571D01*
X106140000Y-208479142D01*
X105497142Y-207979142D02*
X105640000Y-208050571D01*
X105925714Y-208050571D01*
X106068571Y-207979142D01*
X106140000Y-207907714D01*
X106211428Y-207764857D01*
X106211428Y-207336285D01*
X106140000Y-207193428D01*
X106068571Y-207122000D01*
X105925714Y-207050571D01*
X105640000Y-207050571D01*
X105497142Y-207122000D01*
X104140000Y-208050571D02*
X104140000Y-207264857D01*
X104211428Y-207122000D01*
X104354285Y-207050571D01*
X104640000Y-207050571D01*
X104782857Y-207122000D01*
X104140000Y-207979142D02*
X104282857Y-208050571D01*
X104640000Y-208050571D01*
X104782857Y-207979142D01*
X104854285Y-207836285D01*
X104854285Y-207693428D01*
X104782857Y-207550571D01*
X104640000Y-207479142D01*
X104282857Y-207479142D01*
X104140000Y-207407714D01*
X103568571Y-207050571D02*
X103282857Y-208050571D01*
X102997142Y-207336285D01*
X102711428Y-208050571D01*
X102425714Y-207050571D01*
X101211428Y-208050571D02*
X101211428Y-207264857D01*
X101282857Y-207122000D01*
X101425714Y-207050571D01*
X101711428Y-207050571D01*
X101854285Y-207122000D01*
X101211428Y-207979142D02*
X101354285Y-208050571D01*
X101711428Y-208050571D01*
X101854285Y-207979142D01*
X101925714Y-207836285D01*
X101925714Y-207693428D01*
X101854285Y-207550571D01*
X101711428Y-207479142D01*
X101354285Y-207479142D01*
X101211428Y-207407714D01*
X99354285Y-208050571D02*
X99354285Y-207050571D01*
X99354285Y-207336285D02*
X99282857Y-207193428D01*
X99211428Y-207122000D01*
X99068571Y-207050571D01*
X98925714Y-207050571D01*
X97854285Y-207979142D02*
X97997142Y-208050571D01*
X98282857Y-208050571D01*
X98425714Y-207979142D01*
X98497142Y-207836285D01*
X98497142Y-207264857D01*
X98425714Y-207122000D01*
X98282857Y-207050571D01*
X97997142Y-207050571D01*
X97854285Y-207122000D01*
X97782857Y-207264857D01*
X97782857Y-207407714D01*
X98497142Y-207550571D01*
X97282857Y-207050571D02*
X96925714Y-208050571D01*
X96568571Y-207050571D01*
X94568571Y-206550571D02*
X94425714Y-206550571D01*
X94282857Y-206622000D01*
X94211428Y-206693428D01*
X94140000Y-206836285D01*
X94068571Y-207122000D01*
X94068571Y-207479142D01*
X94140000Y-207764857D01*
X94211428Y-207907714D01*
X94282857Y-207979142D01*
X94425714Y-208050571D01*
X94568571Y-208050571D01*
X94711428Y-207979142D01*
X94782857Y-207907714D01*
X94854285Y-207764857D01*
X94925714Y-207479142D01*
X94925714Y-207122000D01*
X94854285Y-206836285D01*
X94782857Y-206693428D01*
X94711428Y-206622000D01*
X94568571Y-206550571D01*
X93425714Y-207907714D02*
X93354285Y-207979142D01*
X93425714Y-208050571D01*
X93497142Y-207979142D01*
X93425714Y-207907714D01*
X93425714Y-208050571D01*
X91925714Y-208050571D02*
X92782857Y-208050571D01*
X92354285Y-208050571D02*
X92354285Y-206550571D01*
X92497142Y-206764857D01*
X92640000Y-206907714D01*
X92782857Y-206979142D01*
X89925714Y-206550571D02*
X89925714Y-206907714D01*
X90282857Y-206764857D02*
X89925714Y-206907714D01*
X89568571Y-206764857D01*
X90140000Y-207193428D02*
X89925714Y-206907714D01*
X89711428Y-207193428D01*
X88997142Y-207050571D02*
X88997142Y-208550571D01*
X88997142Y-207122000D02*
X88854285Y-207050571D01*
X88568571Y-207050571D01*
X88425714Y-207122000D01*
X88354285Y-207193428D01*
X88282857Y-207336285D01*
X88282857Y-207764857D01*
X88354285Y-207907714D01*
X88425714Y-207979142D01*
X88568571Y-208050571D01*
X88854285Y-208050571D01*
X88997142Y-207979142D01*
X87640000Y-208050571D02*
X87640000Y-207050571D01*
X87640000Y-207336285D02*
X87568571Y-207193428D01*
X87497142Y-207122000D01*
X87354285Y-207050571D01*
X87211428Y-207050571D01*
X86497142Y-208050571D02*
X86640000Y-207979142D01*
X86711428Y-207907714D01*
X86782857Y-207764857D01*
X86782857Y-207336285D01*
X86711428Y-207193428D01*
X86640000Y-207122000D01*
X86497142Y-207050571D01*
X86282857Y-207050571D01*
X86140000Y-207122000D01*
X86068571Y-207193428D01*
X85997142Y-207336285D01*
X85997142Y-207764857D01*
X86068571Y-207907714D01*
X86140000Y-207979142D01*
X86282857Y-208050571D01*
X86497142Y-208050571D01*
X85568571Y-207050571D02*
X84997142Y-207050571D01*
X85354285Y-206550571D02*
X85354285Y-207836285D01*
X85282857Y-207979142D01*
X85140000Y-208050571D01*
X84997142Y-208050571D01*
X84282857Y-208050571D02*
X84425714Y-207979142D01*
X84497142Y-207907714D01*
X84568571Y-207764857D01*
X84568571Y-207336285D01*
X84497142Y-207193428D01*
X84425714Y-207122000D01*
X84282857Y-207050571D01*
X84068571Y-207050571D01*
X83925714Y-207122000D01*
X83854285Y-207193428D01*
X83782857Y-207336285D01*
X83782857Y-207764857D01*
X83854285Y-207907714D01*
X83925714Y-207979142D01*
X84068571Y-208050571D01*
X84282857Y-208050571D01*
X83354285Y-207050571D02*
X82782857Y-207050571D01*
X83140000Y-206550571D02*
X83140000Y-207836285D01*
X83068571Y-207979142D01*
X82925714Y-208050571D01*
X82782857Y-208050571D01*
X82425714Y-207050571D02*
X82068571Y-208050571D01*
X81711428Y-207050571D02*
X82068571Y-208050571D01*
X82211428Y-208407714D01*
X82282857Y-208479142D01*
X82425714Y-208550571D01*
X81140000Y-207050571D02*
X81140000Y-208550571D01*
X81140000Y-207122000D02*
X80997142Y-207050571D01*
X80711428Y-207050571D01*
X80568571Y-207122000D01*
X80497142Y-207193428D01*
X80425714Y-207336285D01*
X80425714Y-207764857D01*
X80497142Y-207907714D01*
X80568571Y-207979142D01*
X80711428Y-208050571D01*
X80997142Y-208050571D01*
X81140000Y-207979142D01*
X79211428Y-207979142D02*
X79354285Y-208050571D01*
X79640000Y-208050571D01*
X79782857Y-207979142D01*
X79854285Y-207836285D01*
X79854285Y-207264857D01*
X79782857Y-207122000D01*
X79640000Y-207050571D01*
X79354285Y-207050571D01*
X79211428Y-207122000D01*
X79140000Y-207264857D01*
X79140000Y-207407714D01*
X79854285Y-207550571D01*
X78282857Y-206550571D02*
X78282857Y-206907714D01*
X78640000Y-206764857D02*
X78282857Y-206907714D01*
X77925714Y-206764857D01*
X78497142Y-207193428D02*
X78282857Y-206907714D01*
X78068571Y-207193428D01*
D11*
%TO.C,MountMiddle0*%
X202410000Y-79262000D02*
X203390000Y-79262000D01*
X202410000Y-79262000D02*
X202410000Y-80242000D01*
X227410000Y-79262000D02*
X226430000Y-79262000D01*
X227410000Y-79262000D02*
X227410000Y-80242000D01*
D12*
%TO.C,U0*%
X347580000Y-118890000D02*
X345040000Y-118890000D01*
X347580000Y-116350000D02*
X347580000Y-118890000D01*
D10*
G36*
X359974635Y-122639030D02*
G01*
X359974635Y-122739030D01*
X360074635Y-122739030D01*
X360074635Y-122639030D01*
X359974635Y-122639030D01*
G37*
X359974635Y-122639030D02*
X359974635Y-122739030D01*
X360074635Y-122739030D01*
X360074635Y-122639030D01*
X359974635Y-122639030D01*
G36*
X360174635Y-122239030D02*
G01*
X360174635Y-123039030D01*
X360274635Y-123039030D01*
X360274635Y-122239030D01*
X360174635Y-122239030D01*
G37*
X360174635Y-122239030D02*
X360174635Y-123039030D01*
X360274635Y-123039030D01*
X360274635Y-122239030D01*
X360174635Y-122239030D01*
G36*
X359774635Y-122839030D02*
G01*
X359774635Y-123039030D01*
X359874635Y-123039030D01*
X359874635Y-122839030D01*
X359774635Y-122839030D01*
G37*
X359774635Y-122839030D02*
X359774635Y-123039030D01*
X359874635Y-123039030D01*
X359874635Y-122839030D01*
X359774635Y-122839030D01*
G36*
X359774635Y-122239030D02*
G01*
X359774635Y-122539030D01*
X359874635Y-122539030D01*
X359874635Y-122239030D01*
X359774635Y-122239030D01*
G37*
X359774635Y-122239030D02*
X359774635Y-122539030D01*
X359874635Y-122539030D01*
X359874635Y-122239030D01*
X359774635Y-122239030D01*
G36*
X359774635Y-122239030D02*
G01*
X359774635Y-122339030D01*
X360274635Y-122339030D01*
X360274635Y-122239030D01*
X359774635Y-122239030D01*
G37*
X359774635Y-122239030D02*
X359774635Y-122339030D01*
X360274635Y-122339030D01*
X360274635Y-122239030D01*
X359774635Y-122239030D01*
D12*
X362820000Y-146830000D02*
X362820000Y-113810000D01*
X345040000Y-146830000D02*
X362820000Y-146830000D01*
X345040000Y-113810000D02*
X345040000Y-146830000D01*
X362820000Y-113810000D02*
X345040000Y-113810000D01*
X347580000Y-116350000D02*
X345040000Y-116350000D01*
D10*
%TO.C,KA11*%
X289480000Y-90950000D02*
X289480000Y-93190000D01*
X299750000Y-88050000D02*
X291349999Y-88050000D01*
X299750000Y-88400000D02*
X299750000Y-88050000D01*
X299750000Y-91650000D02*
X299750000Y-90650000D01*
X299530000Y-90650000D02*
X299530000Y-88400000D01*
X289250000Y-93550000D02*
X289250000Y-93190000D01*
X289450000Y-93190000D02*
X289250000Y-93190000D01*
X289250000Y-93550000D02*
X292530000Y-93550000D01*
X299750000Y-90650000D02*
X299550000Y-90650000D01*
X289250000Y-89950000D02*
X289250000Y-90950000D01*
X299550000Y-88400000D02*
X299750000Y-88400000D01*
X289250000Y-90950000D02*
X289450000Y-90950000D01*
X294750000Y-91650000D02*
X299750000Y-91650000D01*
X292533682Y-93528529D02*
G75*
G02*
X294750000Y-91650000I2151318J-291471D01*
G01*
X289250000Y-89950001D02*
G75*
G02*
X291349999Y-88050000I2000000J-99999D01*
G01*
%TO.C,KE11*%
X311400000Y-172650000D02*
X316400000Y-172650000D01*
X305900000Y-171950000D02*
X306100000Y-171950000D01*
X316200000Y-169400000D02*
X316400000Y-169400000D01*
X305900000Y-170950000D02*
X305900000Y-171950000D01*
X316400000Y-171650000D02*
X316200000Y-171650000D01*
X305900000Y-174550000D02*
X309180000Y-174550000D01*
X306100000Y-174190000D02*
X305900000Y-174190000D01*
X305900000Y-174550000D02*
X305900000Y-174190000D01*
X316180000Y-171650000D02*
X316180000Y-169400000D01*
X316400000Y-172650000D02*
X316400000Y-171650000D01*
X316400000Y-169400000D02*
X316400000Y-169050000D01*
X316400000Y-169050000D02*
X307999999Y-169050000D01*
X306130000Y-171950000D02*
X306130000Y-174190000D01*
X309183682Y-174528529D02*
G75*
G02*
X311400000Y-172650000I2151318J-291471D01*
G01*
X305900000Y-170950001D02*
G75*
G02*
X307999999Y-169050000I2000000J-99999D01*
G01*
D11*
%TO.C,SW99*%
X373470000Y-92920000D02*
X374470000Y-92920000D01*
X373970000Y-92420000D02*
X373970000Y-93420000D01*
X376970000Y-92920000D02*
G75*
G03*
X376970000Y-92920000I-3000000J0D01*
G01*
X375970000Y-87020000D02*
X380070000Y-87020000D01*
X380070000Y-87020000D02*
X380070000Y-89420000D01*
X380070000Y-91620000D02*
X380070000Y-94220000D01*
X380070000Y-96420000D02*
X380070000Y-98820000D01*
X380070000Y-98820000D02*
X375970000Y-98820000D01*
X371970000Y-98820000D02*
X367870000Y-98820000D01*
X367870000Y-87020000D02*
X367870000Y-98820000D01*
X371970000Y-87020000D02*
X367870000Y-87020000D01*
D10*
%TO.C,KA0*%
X60880000Y-90950000D02*
X60880000Y-93190000D01*
X71150000Y-88050000D02*
X62749999Y-88050000D01*
X71150000Y-88400000D02*
X71150000Y-88050000D01*
X71150000Y-91650000D02*
X71150000Y-90650000D01*
X70930000Y-90650000D02*
X70930000Y-88400000D01*
X60650000Y-93550000D02*
X60650000Y-93190000D01*
X60850000Y-93190000D02*
X60650000Y-93190000D01*
X60650000Y-93550000D02*
X63930000Y-93550000D01*
X71150000Y-90650000D02*
X70950000Y-90650000D01*
X60650000Y-89950000D02*
X60650000Y-90950000D01*
X70950000Y-88400000D02*
X71150000Y-88400000D01*
X60650000Y-90950000D02*
X60850000Y-90950000D01*
X66150000Y-91650000D02*
X71150000Y-91650000D01*
X63933682Y-93528529D02*
G75*
G02*
X66150000Y-91650000I2151318J-291471D01*
G01*
X60650000Y-89950001D02*
G75*
G02*
X62749999Y-88050000I2000000J-99999D01*
G01*
%TO.C,KA1*%
X89480000Y-90950000D02*
X89480000Y-93190000D01*
X99750000Y-88050000D02*
X91349999Y-88050000D01*
X99750000Y-88400000D02*
X99750000Y-88050000D01*
X99750000Y-91650000D02*
X99750000Y-90650000D01*
X99530000Y-90650000D02*
X99530000Y-88400000D01*
X89250000Y-93550000D02*
X89250000Y-93190000D01*
X89450000Y-93190000D02*
X89250000Y-93190000D01*
X89250000Y-93550000D02*
X92530000Y-93550000D01*
X99750000Y-90650000D02*
X99550000Y-90650000D01*
X89250000Y-89950000D02*
X89250000Y-90950000D01*
X99550000Y-88400000D02*
X99750000Y-88400000D01*
X89250000Y-90950000D02*
X89450000Y-90950000D01*
X94750000Y-91650000D02*
X99750000Y-91650000D01*
X92533682Y-93528529D02*
G75*
G02*
X94750000Y-91650000I2151318J-291471D01*
G01*
X89250000Y-89950001D02*
G75*
G02*
X91349999Y-88050000I2000000J-99999D01*
G01*
%TO.C,KA2*%
X108480000Y-90950000D02*
X108480000Y-93190000D01*
X118750000Y-88050000D02*
X110349999Y-88050000D01*
X118750000Y-88400000D02*
X118750000Y-88050000D01*
X118750000Y-91650000D02*
X118750000Y-90650000D01*
X118530000Y-90650000D02*
X118530000Y-88400000D01*
X108250000Y-93550000D02*
X108250000Y-93190000D01*
X108450000Y-93190000D02*
X108250000Y-93190000D01*
X108250000Y-93550000D02*
X111530000Y-93550000D01*
X118750000Y-90650000D02*
X118550000Y-90650000D01*
X108250000Y-89950000D02*
X108250000Y-90950000D01*
X118550000Y-88400000D02*
X118750000Y-88400000D01*
X108250000Y-90950000D02*
X108450000Y-90950000D01*
X113750000Y-91650000D02*
X118750000Y-91650000D01*
X111533682Y-93528529D02*
G75*
G02*
X113750000Y-91650000I2151318J-291471D01*
G01*
X108250000Y-89950001D02*
G75*
G02*
X110349999Y-88050000I2000000J-99999D01*
G01*
%TO.C,KA3*%
X127530000Y-90950000D02*
X127530000Y-93190000D01*
X137800000Y-88050000D02*
X129399999Y-88050000D01*
X137800000Y-88400000D02*
X137800000Y-88050000D01*
X137800000Y-91650000D02*
X137800000Y-90650000D01*
X137580000Y-90650000D02*
X137580000Y-88400000D01*
X127300000Y-93550000D02*
X127300000Y-93190000D01*
X127500000Y-93190000D02*
X127300000Y-93190000D01*
X127300000Y-93550000D02*
X130580000Y-93550000D01*
X137800000Y-90650000D02*
X137600000Y-90650000D01*
X127300000Y-89950000D02*
X127300000Y-90950000D01*
X137600000Y-88400000D02*
X137800000Y-88400000D01*
X127300000Y-90950000D02*
X127500000Y-90950000D01*
X132800000Y-91650000D02*
X137800000Y-91650000D01*
X130583682Y-93528529D02*
G75*
G02*
X132800000Y-91650000I2151318J-291471D01*
G01*
X127300000Y-89950001D02*
G75*
G02*
X129399999Y-88050000I2000000J-99999D01*
G01*
%TO.C,KA4*%
X146630000Y-90950000D02*
X146630000Y-93190000D01*
X156900000Y-88050000D02*
X148499999Y-88050000D01*
X156900000Y-88400000D02*
X156900000Y-88050000D01*
X156900000Y-91650000D02*
X156900000Y-90650000D01*
X156680000Y-90650000D02*
X156680000Y-88400000D01*
X146400000Y-93550000D02*
X146400000Y-93190000D01*
X146600000Y-93190000D02*
X146400000Y-93190000D01*
X146400000Y-93550000D02*
X149680000Y-93550000D01*
X156900000Y-90650000D02*
X156700000Y-90650000D01*
X146400000Y-89950000D02*
X146400000Y-90950000D01*
X156700000Y-88400000D02*
X156900000Y-88400000D01*
X146400000Y-90950000D02*
X146600000Y-90950000D01*
X151900000Y-91650000D02*
X156900000Y-91650000D01*
X149683682Y-93528529D02*
G75*
G02*
X151900000Y-91650000I2151318J-291471D01*
G01*
X146400000Y-89950001D02*
G75*
G02*
X148499999Y-88050000I2000000J-99999D01*
G01*
%TO.C,KA5*%
X170430000Y-90950000D02*
X170430000Y-93190000D01*
X180700000Y-88050000D02*
X172299999Y-88050000D01*
X180700000Y-88400000D02*
X180700000Y-88050000D01*
X180700000Y-91650000D02*
X180700000Y-90650000D01*
X180480000Y-90650000D02*
X180480000Y-88400000D01*
X170200000Y-93550000D02*
X170200000Y-93190000D01*
X170400000Y-93190000D02*
X170200000Y-93190000D01*
X170200000Y-93550000D02*
X173480000Y-93550000D01*
X180700000Y-90650000D02*
X180500000Y-90650000D01*
X170200000Y-89950000D02*
X170200000Y-90950000D01*
X180500000Y-88400000D02*
X180700000Y-88400000D01*
X170200000Y-90950000D02*
X170400000Y-90950000D01*
X175700000Y-91650000D02*
X180700000Y-91650000D01*
X173483682Y-93528529D02*
G75*
G02*
X175700000Y-91650000I2151318J-291471D01*
G01*
X170200000Y-89950001D02*
G75*
G02*
X172299999Y-88050000I2000000J-99999D01*
G01*
%TO.C,KA6*%
X189480000Y-90950000D02*
X189480000Y-93190000D01*
X199750000Y-88050000D02*
X191349999Y-88050000D01*
X199750000Y-88400000D02*
X199750000Y-88050000D01*
X199750000Y-91650000D02*
X199750000Y-90650000D01*
X199530000Y-90650000D02*
X199530000Y-88400000D01*
X189250000Y-93550000D02*
X189250000Y-93190000D01*
X189450000Y-93190000D02*
X189250000Y-93190000D01*
X189250000Y-93550000D02*
X192530000Y-93550000D01*
X199750000Y-90650000D02*
X199550000Y-90650000D01*
X189250000Y-89950000D02*
X189250000Y-90950000D01*
X199550000Y-88400000D02*
X199750000Y-88400000D01*
X189250000Y-90950000D02*
X189450000Y-90950000D01*
X194750000Y-91650000D02*
X199750000Y-91650000D01*
X192533682Y-93528529D02*
G75*
G02*
X194750000Y-91650000I2151318J-291471D01*
G01*
X189250000Y-89950001D02*
G75*
G02*
X191349999Y-88050000I2000000J-99999D01*
G01*
%TO.C,KA7*%
X208530000Y-90950000D02*
X208530000Y-93190000D01*
X218800000Y-88050000D02*
X210399999Y-88050000D01*
X218800000Y-88400000D02*
X218800000Y-88050000D01*
X218800000Y-91650000D02*
X218800000Y-90650000D01*
X218580000Y-90650000D02*
X218580000Y-88400000D01*
X208300000Y-93550000D02*
X208300000Y-93190000D01*
X208500000Y-93190000D02*
X208300000Y-93190000D01*
X208300000Y-93550000D02*
X211580000Y-93550000D01*
X218800000Y-90650000D02*
X218600000Y-90650000D01*
X208300000Y-89950000D02*
X208300000Y-90950000D01*
X218600000Y-88400000D02*
X218800000Y-88400000D01*
X208300000Y-90950000D02*
X208500000Y-90950000D01*
X213800000Y-91650000D02*
X218800000Y-91650000D01*
X211583682Y-93528529D02*
G75*
G02*
X213800000Y-91650000I2151318J-291471D01*
G01*
X208300000Y-89950001D02*
G75*
G02*
X210399999Y-88050000I2000000J-99999D01*
G01*
%TO.C,KA8*%
X227580000Y-91000000D02*
X227580000Y-93240000D01*
X237850000Y-88100000D02*
X229449999Y-88100000D01*
X237850000Y-88450000D02*
X237850000Y-88100000D01*
X237850000Y-91700000D02*
X237850000Y-90700000D01*
X237630000Y-90700000D02*
X237630000Y-88450000D01*
X227350000Y-93600000D02*
X227350000Y-93240000D01*
X227550000Y-93240000D02*
X227350000Y-93240000D01*
X227350000Y-93600000D02*
X230630000Y-93600000D01*
X237850000Y-90700000D02*
X237650000Y-90700000D01*
X227350000Y-90000000D02*
X227350000Y-91000000D01*
X237650000Y-88450000D02*
X237850000Y-88450000D01*
X227350000Y-91000000D02*
X227550000Y-91000000D01*
X232850000Y-91700000D02*
X237850000Y-91700000D01*
X230633682Y-93578529D02*
G75*
G02*
X232850000Y-91700000I2151318J-291471D01*
G01*
X227350000Y-90000001D02*
G75*
G02*
X229449999Y-88100000I2000000J-99999D01*
G01*
%TO.C,KA9*%
X251380000Y-90950000D02*
X251380000Y-93190000D01*
X261650000Y-88050000D02*
X253249999Y-88050000D01*
X261650000Y-88400000D02*
X261650000Y-88050000D01*
X261650000Y-91650000D02*
X261650000Y-90650000D01*
X261430000Y-90650000D02*
X261430000Y-88400000D01*
X251150000Y-93550000D02*
X251150000Y-93190000D01*
X251350000Y-93190000D02*
X251150000Y-93190000D01*
X251150000Y-93550000D02*
X254430000Y-93550000D01*
X261650000Y-90650000D02*
X261450000Y-90650000D01*
X251150000Y-89950000D02*
X251150000Y-90950000D01*
X261450000Y-88400000D02*
X261650000Y-88400000D01*
X251150000Y-90950000D02*
X251350000Y-90950000D01*
X256650000Y-91650000D02*
X261650000Y-91650000D01*
X254433682Y-93528529D02*
G75*
G02*
X256650000Y-91650000I2151318J-291471D01*
G01*
X251150000Y-89950001D02*
G75*
G02*
X253249999Y-88050000I2000000J-99999D01*
G01*
%TO.C,KA10*%
X270430000Y-90950000D02*
X270430000Y-93190000D01*
X280700000Y-88050000D02*
X272299999Y-88050000D01*
X280700000Y-88400000D02*
X280700000Y-88050000D01*
X280700000Y-91650000D02*
X280700000Y-90650000D01*
X280480000Y-90650000D02*
X280480000Y-88400000D01*
X270200000Y-93550000D02*
X270200000Y-93190000D01*
X270400000Y-93190000D02*
X270200000Y-93190000D01*
X270200000Y-93550000D02*
X273480000Y-93550000D01*
X280700000Y-90650000D02*
X280500000Y-90650000D01*
X270200000Y-89950000D02*
X270200000Y-90950000D01*
X280500000Y-88400000D02*
X280700000Y-88400000D01*
X270200000Y-90950000D02*
X270400000Y-90950000D01*
X275700000Y-91650000D02*
X280700000Y-91650000D01*
X273483682Y-93528529D02*
G75*
G02*
X275700000Y-91650000I2151318J-291471D01*
G01*
X270200000Y-89950001D02*
G75*
G02*
X272299999Y-88050000I2000000J-99999D01*
G01*
%TO.C,KA12*%
X308480000Y-90950000D02*
X308480000Y-93190000D01*
X318750000Y-88050000D02*
X310349999Y-88050000D01*
X318750000Y-88400000D02*
X318750000Y-88050000D01*
X318750000Y-91650000D02*
X318750000Y-90650000D01*
X318530000Y-90650000D02*
X318530000Y-88400000D01*
X308250000Y-93550000D02*
X308250000Y-93190000D01*
X308450000Y-93190000D02*
X308250000Y-93190000D01*
X308250000Y-93550000D02*
X311530000Y-93550000D01*
X318750000Y-90650000D02*
X318550000Y-90650000D01*
X308250000Y-89950000D02*
X308250000Y-90950000D01*
X318550000Y-88400000D02*
X318750000Y-88400000D01*
X308250000Y-90950000D02*
X308450000Y-90950000D01*
X313750000Y-91650000D02*
X318750000Y-91650000D01*
X311533682Y-93528529D02*
G75*
G02*
X313750000Y-91650000I2151318J-291471D01*
G01*
X308250000Y-89950001D02*
G75*
G02*
X310349999Y-88050000I2000000J-99999D01*
G01*
%TO.C,KB0*%
X60880000Y-114750000D02*
X60880000Y-116990000D01*
X71150000Y-111850000D02*
X62749999Y-111850000D01*
X71150000Y-112200000D02*
X71150000Y-111850000D01*
X71150000Y-115450000D02*
X71150000Y-114450000D01*
X70930000Y-114450000D02*
X70930000Y-112200000D01*
X60650000Y-117350000D02*
X60650000Y-116990000D01*
X60850000Y-116990000D02*
X60650000Y-116990000D01*
X60650000Y-117350000D02*
X63930000Y-117350000D01*
X71150000Y-114450000D02*
X70950000Y-114450000D01*
X60650000Y-113750000D02*
X60650000Y-114750000D01*
X70950000Y-112200000D02*
X71150000Y-112200000D01*
X60650000Y-114750000D02*
X60850000Y-114750000D01*
X66150000Y-115450000D02*
X71150000Y-115450000D01*
X63933682Y-117328529D02*
G75*
G02*
X66150000Y-115450000I2151318J-291471D01*
G01*
X60650000Y-113750001D02*
G75*
G02*
X62749999Y-111850000I2000000J-99999D01*
G01*
%TO.C,KB1*%
X79930000Y-114750000D02*
X79930000Y-116990000D01*
X90200000Y-111850000D02*
X81799999Y-111850000D01*
X90200000Y-112200000D02*
X90200000Y-111850000D01*
X90200000Y-115450000D02*
X90200000Y-114450000D01*
X89980000Y-114450000D02*
X89980000Y-112200000D01*
X79700000Y-117350000D02*
X79700000Y-116990000D01*
X79900000Y-116990000D02*
X79700000Y-116990000D01*
X79700000Y-117350000D02*
X82980000Y-117350000D01*
X90200000Y-114450000D02*
X90000000Y-114450000D01*
X79700000Y-113750000D02*
X79700000Y-114750000D01*
X90000000Y-112200000D02*
X90200000Y-112200000D01*
X79700000Y-114750000D02*
X79900000Y-114750000D01*
X85200000Y-115450000D02*
X90200000Y-115450000D01*
X82983682Y-117328529D02*
G75*
G02*
X85200000Y-115450000I2151318J-291471D01*
G01*
X79700000Y-113750001D02*
G75*
G02*
X81799999Y-111850000I2000000J-99999D01*
G01*
%TO.C,KB2*%
X98980000Y-114750000D02*
X98980000Y-116990000D01*
X109250000Y-111850000D02*
X100849999Y-111850000D01*
X109250000Y-112200000D02*
X109250000Y-111850000D01*
X109250000Y-115450000D02*
X109250000Y-114450000D01*
X109030000Y-114450000D02*
X109030000Y-112200000D01*
X98750000Y-117350000D02*
X98750000Y-116990000D01*
X98950000Y-116990000D02*
X98750000Y-116990000D01*
X98750000Y-117350000D02*
X102030000Y-117350000D01*
X109250000Y-114450000D02*
X109050000Y-114450000D01*
X98750000Y-113750000D02*
X98750000Y-114750000D01*
X109050000Y-112200000D02*
X109250000Y-112200000D01*
X98750000Y-114750000D02*
X98950000Y-114750000D01*
X104250000Y-115450000D02*
X109250000Y-115450000D01*
X102033682Y-117328529D02*
G75*
G02*
X104250000Y-115450000I2151318J-291471D01*
G01*
X98750000Y-113750001D02*
G75*
G02*
X100849999Y-111850000I2000000J-99999D01*
G01*
%TO.C,KB3*%
X118030000Y-114750000D02*
X118030000Y-116990000D01*
X128300000Y-111850000D02*
X119899999Y-111850000D01*
X128300000Y-112200000D02*
X128300000Y-111850000D01*
X128300000Y-115450000D02*
X128300000Y-114450000D01*
X128080000Y-114450000D02*
X128080000Y-112200000D01*
X117800000Y-117350000D02*
X117800000Y-116990000D01*
X118000000Y-116990000D02*
X117800000Y-116990000D01*
X117800000Y-117350000D02*
X121080000Y-117350000D01*
X128300000Y-114450000D02*
X128100000Y-114450000D01*
X117800000Y-113750000D02*
X117800000Y-114750000D01*
X128100000Y-112200000D02*
X128300000Y-112200000D01*
X117800000Y-114750000D02*
X118000000Y-114750000D01*
X123300000Y-115450000D02*
X128300000Y-115450000D01*
X121083682Y-117328529D02*
G75*
G02*
X123300000Y-115450000I2151318J-291471D01*
G01*
X117800000Y-113750001D02*
G75*
G02*
X119899999Y-111850000I2000000J-99999D01*
G01*
%TO.C,KB4*%
X137080000Y-114750000D02*
X137080000Y-116990000D01*
X147350000Y-111850000D02*
X138949999Y-111850000D01*
X147350000Y-112200000D02*
X147350000Y-111850000D01*
X147350000Y-115450000D02*
X147350000Y-114450000D01*
X147130000Y-114450000D02*
X147130000Y-112200000D01*
X136850000Y-117350000D02*
X136850000Y-116990000D01*
X137050000Y-116990000D02*
X136850000Y-116990000D01*
X136850000Y-117350000D02*
X140130000Y-117350000D01*
X147350000Y-114450000D02*
X147150000Y-114450000D01*
X136850000Y-113750000D02*
X136850000Y-114750000D01*
X147150000Y-112200000D02*
X147350000Y-112200000D01*
X136850000Y-114750000D02*
X137050000Y-114750000D01*
X142350000Y-115450000D02*
X147350000Y-115450000D01*
X140133682Y-117328529D02*
G75*
G02*
X142350000Y-115450000I2151318J-291471D01*
G01*
X136850000Y-113750001D02*
G75*
G02*
X138949999Y-111850000I2000000J-99999D01*
G01*
%TO.C,KB5*%
X156130000Y-114750000D02*
X156130000Y-116990000D01*
X166400000Y-111850000D02*
X157999999Y-111850000D01*
X166400000Y-112200000D02*
X166400000Y-111850000D01*
X166400000Y-115450000D02*
X166400000Y-114450000D01*
X166180000Y-114450000D02*
X166180000Y-112200000D01*
X155900000Y-117350000D02*
X155900000Y-116990000D01*
X156100000Y-116990000D02*
X155900000Y-116990000D01*
X155900000Y-117350000D02*
X159180000Y-117350000D01*
X166400000Y-114450000D02*
X166200000Y-114450000D01*
X155900000Y-113750000D02*
X155900000Y-114750000D01*
X166200000Y-112200000D02*
X166400000Y-112200000D01*
X155900000Y-114750000D02*
X156100000Y-114750000D01*
X161400000Y-115450000D02*
X166400000Y-115450000D01*
X159183682Y-117328529D02*
G75*
G02*
X161400000Y-115450000I2151318J-291471D01*
G01*
X155900000Y-113750001D02*
G75*
G02*
X157999999Y-111850000I2000000J-99999D01*
G01*
%TO.C,KB6*%
X175180000Y-114750000D02*
X175180000Y-116990000D01*
X185450000Y-111850000D02*
X177049999Y-111850000D01*
X185450000Y-112200000D02*
X185450000Y-111850000D01*
X185450000Y-115450000D02*
X185450000Y-114450000D01*
X185230000Y-114450000D02*
X185230000Y-112200000D01*
X174950000Y-117350000D02*
X174950000Y-116990000D01*
X175150000Y-116990000D02*
X174950000Y-116990000D01*
X174950000Y-117350000D02*
X178230000Y-117350000D01*
X185450000Y-114450000D02*
X185250000Y-114450000D01*
X174950000Y-113750000D02*
X174950000Y-114750000D01*
X185250000Y-112200000D02*
X185450000Y-112200000D01*
X174950000Y-114750000D02*
X175150000Y-114750000D01*
X180450000Y-115450000D02*
X185450000Y-115450000D01*
X178233682Y-117328529D02*
G75*
G02*
X180450000Y-115450000I2151318J-291471D01*
G01*
X174950000Y-113750001D02*
G75*
G02*
X177049999Y-111850000I2000000J-99999D01*
G01*
%TO.C,KB7*%
X194230000Y-114750000D02*
X194230000Y-116990000D01*
X204500000Y-111850000D02*
X196099999Y-111850000D01*
X204500000Y-112200000D02*
X204500000Y-111850000D01*
X204500000Y-115450000D02*
X204500000Y-114450000D01*
X204280000Y-114450000D02*
X204280000Y-112200000D01*
X194000000Y-117350000D02*
X194000000Y-116990000D01*
X194200000Y-116990000D02*
X194000000Y-116990000D01*
X194000000Y-117350000D02*
X197280000Y-117350000D01*
X204500000Y-114450000D02*
X204300000Y-114450000D01*
X194000000Y-113750000D02*
X194000000Y-114750000D01*
X204300000Y-112200000D02*
X204500000Y-112200000D01*
X194000000Y-114750000D02*
X194200000Y-114750000D01*
X199500000Y-115450000D02*
X204500000Y-115450000D01*
X197283682Y-117328529D02*
G75*
G02*
X199500000Y-115450000I2151318J-291471D01*
G01*
X194000000Y-113750001D02*
G75*
G02*
X196099999Y-111850000I2000000J-99999D01*
G01*
%TO.C,KB8*%
X213280000Y-114750000D02*
X213280000Y-116990000D01*
X223550000Y-111850000D02*
X215149999Y-111850000D01*
X223550000Y-112200000D02*
X223550000Y-111850000D01*
X223550000Y-115450000D02*
X223550000Y-114450000D01*
X223330000Y-114450000D02*
X223330000Y-112200000D01*
X213050000Y-117350000D02*
X213050000Y-116990000D01*
X213250000Y-116990000D02*
X213050000Y-116990000D01*
X213050000Y-117350000D02*
X216330000Y-117350000D01*
X223550000Y-114450000D02*
X223350000Y-114450000D01*
X213050000Y-113750000D02*
X213050000Y-114750000D01*
X223350000Y-112200000D02*
X223550000Y-112200000D01*
X213050000Y-114750000D02*
X213250000Y-114750000D01*
X218550000Y-115450000D02*
X223550000Y-115450000D01*
X216333682Y-117328529D02*
G75*
G02*
X218550000Y-115450000I2151318J-291471D01*
G01*
X213050000Y-113750001D02*
G75*
G02*
X215149999Y-111850000I2000000J-99999D01*
G01*
%TO.C,KB9*%
X232330000Y-114750000D02*
X232330000Y-116990000D01*
X242600000Y-111850000D02*
X234199999Y-111850000D01*
X242600000Y-112200000D02*
X242600000Y-111850000D01*
X242600000Y-115450000D02*
X242600000Y-114450000D01*
X242380000Y-114450000D02*
X242380000Y-112200000D01*
X232100000Y-117350000D02*
X232100000Y-116990000D01*
X232300000Y-116990000D02*
X232100000Y-116990000D01*
X232100000Y-117350000D02*
X235380000Y-117350000D01*
X242600000Y-114450000D02*
X242400000Y-114450000D01*
X232100000Y-113750000D02*
X232100000Y-114750000D01*
X242400000Y-112200000D02*
X242600000Y-112200000D01*
X232100000Y-114750000D02*
X232300000Y-114750000D01*
X237600000Y-115450000D02*
X242600000Y-115450000D01*
X235383682Y-117328529D02*
G75*
G02*
X237600000Y-115450000I2151318J-291471D01*
G01*
X232100000Y-113750001D02*
G75*
G02*
X234199999Y-111850000I2000000J-99999D01*
G01*
%TO.C,KB10*%
X251380000Y-114750000D02*
X251380000Y-116990000D01*
X261650000Y-111850000D02*
X253249999Y-111850000D01*
X261650000Y-112200000D02*
X261650000Y-111850000D01*
X261650000Y-115450000D02*
X261650000Y-114450000D01*
X261430000Y-114450000D02*
X261430000Y-112200000D01*
X251150000Y-117350000D02*
X251150000Y-116990000D01*
X251350000Y-116990000D02*
X251150000Y-116990000D01*
X251150000Y-117350000D02*
X254430000Y-117350000D01*
X261650000Y-114450000D02*
X261450000Y-114450000D01*
X251150000Y-113750000D02*
X251150000Y-114750000D01*
X261450000Y-112200000D02*
X261650000Y-112200000D01*
X251150000Y-114750000D02*
X251350000Y-114750000D01*
X256650000Y-115450000D02*
X261650000Y-115450000D01*
X254433682Y-117328529D02*
G75*
G02*
X256650000Y-115450000I2151318J-291471D01*
G01*
X251150000Y-113750001D02*
G75*
G02*
X253249999Y-111850000I2000000J-99999D01*
G01*
%TO.C,KB11*%
X270430000Y-114750000D02*
X270430000Y-116990000D01*
X280700000Y-111850000D02*
X272299999Y-111850000D01*
X280700000Y-112200000D02*
X280700000Y-111850000D01*
X280700000Y-115450000D02*
X280700000Y-114450000D01*
X280480000Y-114450000D02*
X280480000Y-112200000D01*
X270200000Y-117350000D02*
X270200000Y-116990000D01*
X270400000Y-116990000D02*
X270200000Y-116990000D01*
X270200000Y-117350000D02*
X273480000Y-117350000D01*
X280700000Y-114450000D02*
X280500000Y-114450000D01*
X270200000Y-113750000D02*
X270200000Y-114750000D01*
X280500000Y-112200000D02*
X280700000Y-112200000D01*
X270200000Y-114750000D02*
X270400000Y-114750000D01*
X275700000Y-115450000D02*
X280700000Y-115450000D01*
X273483682Y-117328529D02*
G75*
G02*
X275700000Y-115450000I2151318J-291471D01*
G01*
X270200000Y-113750001D02*
G75*
G02*
X272299999Y-111850000I2000000J-99999D01*
G01*
%TO.C,KB12*%
X289480000Y-114750000D02*
X289480000Y-116990000D01*
X299750000Y-111850000D02*
X291349999Y-111850000D01*
X299750000Y-112200000D02*
X299750000Y-111850000D01*
X299750000Y-115450000D02*
X299750000Y-114450000D01*
X299530000Y-114450000D02*
X299530000Y-112200000D01*
X289250000Y-117350000D02*
X289250000Y-116990000D01*
X289450000Y-116990000D02*
X289250000Y-116990000D01*
X289250000Y-117350000D02*
X292530000Y-117350000D01*
X299750000Y-114450000D02*
X299550000Y-114450000D01*
X289250000Y-113750000D02*
X289250000Y-114750000D01*
X299550000Y-112200000D02*
X299750000Y-112200000D01*
X289250000Y-114750000D02*
X289450000Y-114750000D01*
X294750000Y-115450000D02*
X299750000Y-115450000D01*
X292533682Y-117328529D02*
G75*
G02*
X294750000Y-115450000I2151318J-291471D01*
G01*
X289250000Y-113750001D02*
G75*
G02*
X291349999Y-111850000I2000000J-99999D01*
G01*
%TO.C,KC1*%
X89430000Y-133850000D02*
X89430000Y-136090000D01*
X99700000Y-130950000D02*
X91299999Y-130950000D01*
X99700000Y-131300000D02*
X99700000Y-130950000D01*
X99700000Y-134550000D02*
X99700000Y-133550000D01*
X99480000Y-133550000D02*
X99480000Y-131300000D01*
X89200000Y-136450000D02*
X89200000Y-136090000D01*
X89400000Y-136090000D02*
X89200000Y-136090000D01*
X89200000Y-136450000D02*
X92480000Y-136450000D01*
X99700000Y-133550000D02*
X99500000Y-133550000D01*
X89200000Y-132850000D02*
X89200000Y-133850000D01*
X99500000Y-131300000D02*
X99700000Y-131300000D01*
X89200000Y-133850000D02*
X89400000Y-133850000D01*
X94700000Y-134550000D02*
X99700000Y-134550000D01*
X92483682Y-136428529D02*
G75*
G02*
X94700000Y-134550000I2151318J-291471D01*
G01*
X89200000Y-132850001D02*
G75*
G02*
X91299999Y-130950000I2000000J-99999D01*
G01*
%TO.C,KC2*%
X108480000Y-133850000D02*
X108480000Y-136090000D01*
X118750000Y-130950000D02*
X110349999Y-130950000D01*
X118750000Y-131300000D02*
X118750000Y-130950000D01*
X118750000Y-134550000D02*
X118750000Y-133550000D01*
X118530000Y-133550000D02*
X118530000Y-131300000D01*
X108250000Y-136450000D02*
X108250000Y-136090000D01*
X108450000Y-136090000D02*
X108250000Y-136090000D01*
X108250000Y-136450000D02*
X111530000Y-136450000D01*
X118750000Y-133550000D02*
X118550000Y-133550000D01*
X108250000Y-132850000D02*
X108250000Y-133850000D01*
X118550000Y-131300000D02*
X118750000Y-131300000D01*
X108250000Y-133850000D02*
X108450000Y-133850000D01*
X113750000Y-134550000D02*
X118750000Y-134550000D01*
X111533682Y-136428529D02*
G75*
G02*
X113750000Y-134550000I2151318J-291471D01*
G01*
X108250000Y-132850001D02*
G75*
G02*
X110349999Y-130950000I2000000J-99999D01*
G01*
%TO.C,KC3*%
X127530000Y-133850000D02*
X127530000Y-136090000D01*
X137800000Y-130950000D02*
X129399999Y-130950000D01*
X137800000Y-131300000D02*
X137800000Y-130950000D01*
X137800000Y-134550000D02*
X137800000Y-133550000D01*
X137580000Y-133550000D02*
X137580000Y-131300000D01*
X127300000Y-136450000D02*
X127300000Y-136090000D01*
X127500000Y-136090000D02*
X127300000Y-136090000D01*
X127300000Y-136450000D02*
X130580000Y-136450000D01*
X137800000Y-133550000D02*
X137600000Y-133550000D01*
X127300000Y-132850000D02*
X127300000Y-133850000D01*
X137600000Y-131300000D02*
X137800000Y-131300000D01*
X127300000Y-133850000D02*
X127500000Y-133850000D01*
X132800000Y-134550000D02*
X137800000Y-134550000D01*
X130583682Y-136428529D02*
G75*
G02*
X132800000Y-134550000I2151318J-291471D01*
G01*
X127300000Y-132850001D02*
G75*
G02*
X129399999Y-130950000I2000000J-99999D01*
G01*
%TO.C,KC4*%
X146580000Y-133850000D02*
X146580000Y-136090000D01*
X156850000Y-130950000D02*
X148449999Y-130950000D01*
X156850000Y-131300000D02*
X156850000Y-130950000D01*
X156850000Y-134550000D02*
X156850000Y-133550000D01*
X156630000Y-133550000D02*
X156630000Y-131300000D01*
X146350000Y-136450000D02*
X146350000Y-136090000D01*
X146550000Y-136090000D02*
X146350000Y-136090000D01*
X146350000Y-136450000D02*
X149630000Y-136450000D01*
X156850000Y-133550000D02*
X156650000Y-133550000D01*
X146350000Y-132850000D02*
X146350000Y-133850000D01*
X156650000Y-131300000D02*
X156850000Y-131300000D01*
X146350000Y-133850000D02*
X146550000Y-133850000D01*
X151850000Y-134550000D02*
X156850000Y-134550000D01*
X149633682Y-136428529D02*
G75*
G02*
X151850000Y-134550000I2151318J-291471D01*
G01*
X146350000Y-132850001D02*
G75*
G02*
X148449999Y-130950000I2000000J-99999D01*
G01*
%TO.C,KC5*%
X165630000Y-133850000D02*
X165630000Y-136090000D01*
X175900000Y-130950000D02*
X167499999Y-130950000D01*
X175900000Y-131300000D02*
X175900000Y-130950000D01*
X175900000Y-134550000D02*
X175900000Y-133550000D01*
X175680000Y-133550000D02*
X175680000Y-131300000D01*
X165400000Y-136450000D02*
X165400000Y-136090000D01*
X165600000Y-136090000D02*
X165400000Y-136090000D01*
X165400000Y-136450000D02*
X168680000Y-136450000D01*
X175900000Y-133550000D02*
X175700000Y-133550000D01*
X165400000Y-132850000D02*
X165400000Y-133850000D01*
X175700000Y-131300000D02*
X175900000Y-131300000D01*
X165400000Y-133850000D02*
X165600000Y-133850000D01*
X170900000Y-134550000D02*
X175900000Y-134550000D01*
X168683682Y-136428529D02*
G75*
G02*
X170900000Y-134550000I2151318J-291471D01*
G01*
X165400000Y-132850001D02*
G75*
G02*
X167499999Y-130950000I2000000J-99999D01*
G01*
%TO.C,KC6*%
X184680000Y-133850000D02*
X184680000Y-136090000D01*
X194950000Y-130950000D02*
X186549999Y-130950000D01*
X194950000Y-131300000D02*
X194950000Y-130950000D01*
X194950000Y-134550000D02*
X194950000Y-133550000D01*
X194730000Y-133550000D02*
X194730000Y-131300000D01*
X184450000Y-136450000D02*
X184450000Y-136090000D01*
X184650000Y-136090000D02*
X184450000Y-136090000D01*
X184450000Y-136450000D02*
X187730000Y-136450000D01*
X194950000Y-133550000D02*
X194750000Y-133550000D01*
X184450000Y-132850000D02*
X184450000Y-133850000D01*
X194750000Y-131300000D02*
X194950000Y-131300000D01*
X184450000Y-133850000D02*
X184650000Y-133850000D01*
X189950000Y-134550000D02*
X194950000Y-134550000D01*
X187733682Y-136428529D02*
G75*
G02*
X189950000Y-134550000I2151318J-291471D01*
G01*
X184450000Y-132850001D02*
G75*
G02*
X186549999Y-130950000I2000000J-99999D01*
G01*
%TO.C,KC7*%
X203730000Y-133850000D02*
X203730000Y-136090000D01*
X214000000Y-130950000D02*
X205599999Y-130950000D01*
X214000000Y-131300000D02*
X214000000Y-130950000D01*
X214000000Y-134550000D02*
X214000000Y-133550000D01*
X213780000Y-133550000D02*
X213780000Y-131300000D01*
X203500000Y-136450000D02*
X203500000Y-136090000D01*
X203700000Y-136090000D02*
X203500000Y-136090000D01*
X203500000Y-136450000D02*
X206780000Y-136450000D01*
X214000000Y-133550000D02*
X213800000Y-133550000D01*
X203500000Y-132850000D02*
X203500000Y-133850000D01*
X213800000Y-131300000D02*
X214000000Y-131300000D01*
X203500000Y-133850000D02*
X203700000Y-133850000D01*
X209000000Y-134550000D02*
X214000000Y-134550000D01*
X206783682Y-136428529D02*
G75*
G02*
X209000000Y-134550000I2151318J-291471D01*
G01*
X203500000Y-132850001D02*
G75*
G02*
X205599999Y-130950000I2000000J-99999D01*
G01*
%TO.C,KC8*%
X222780000Y-133850000D02*
X222780000Y-136090000D01*
X233050000Y-130950000D02*
X224649999Y-130950000D01*
X233050000Y-131300000D02*
X233050000Y-130950000D01*
X233050000Y-134550000D02*
X233050000Y-133550000D01*
X232830000Y-133550000D02*
X232830000Y-131300000D01*
X222550000Y-136450000D02*
X222550000Y-136090000D01*
X222750000Y-136090000D02*
X222550000Y-136090000D01*
X222550000Y-136450000D02*
X225830000Y-136450000D01*
X233050000Y-133550000D02*
X232850000Y-133550000D01*
X222550000Y-132850000D02*
X222550000Y-133850000D01*
X232850000Y-131300000D02*
X233050000Y-131300000D01*
X222550000Y-133850000D02*
X222750000Y-133850000D01*
X228050000Y-134550000D02*
X233050000Y-134550000D01*
X225833682Y-136428529D02*
G75*
G02*
X228050000Y-134550000I2151318J-291471D01*
G01*
X222550000Y-132850001D02*
G75*
G02*
X224649999Y-130950000I2000000J-99999D01*
G01*
%TO.C,KC9*%
X241880000Y-133850000D02*
X241880000Y-136090000D01*
X252150000Y-130950000D02*
X243749999Y-130950000D01*
X252150000Y-131300000D02*
X252150000Y-130950000D01*
X252150000Y-134550000D02*
X252150000Y-133550000D01*
X251930000Y-133550000D02*
X251930000Y-131300000D01*
X241650000Y-136450000D02*
X241650000Y-136090000D01*
X241850000Y-136090000D02*
X241650000Y-136090000D01*
X241650000Y-136450000D02*
X244930000Y-136450000D01*
X252150000Y-133550000D02*
X251950000Y-133550000D01*
X241650000Y-132850000D02*
X241650000Y-133850000D01*
X251950000Y-131300000D02*
X252150000Y-131300000D01*
X241650000Y-133850000D02*
X241850000Y-133850000D01*
X247150000Y-134550000D02*
X252150000Y-134550000D01*
X244933682Y-136428529D02*
G75*
G02*
X247150000Y-134550000I2151318J-291471D01*
G01*
X241650000Y-132850001D02*
G75*
G02*
X243749999Y-130950000I2000000J-99999D01*
G01*
%TO.C,KC10*%
X260930000Y-133850000D02*
X260930000Y-136090000D01*
X271200000Y-130950000D02*
X262799999Y-130950000D01*
X271200000Y-131300000D02*
X271200000Y-130950000D01*
X271200000Y-134550000D02*
X271200000Y-133550000D01*
X270980000Y-133550000D02*
X270980000Y-131300000D01*
X260700000Y-136450000D02*
X260700000Y-136090000D01*
X260900000Y-136090000D02*
X260700000Y-136090000D01*
X260700000Y-136450000D02*
X263980000Y-136450000D01*
X271200000Y-133550000D02*
X271000000Y-133550000D01*
X260700000Y-132850000D02*
X260700000Y-133850000D01*
X271000000Y-131300000D02*
X271200000Y-131300000D01*
X260700000Y-133850000D02*
X260900000Y-133850000D01*
X266200000Y-134550000D02*
X271200000Y-134550000D01*
X263983682Y-136428529D02*
G75*
G02*
X266200000Y-134550000I2151318J-291471D01*
G01*
X260700000Y-132850001D02*
G75*
G02*
X262799999Y-130950000I2000000J-99999D01*
G01*
%TO.C,KC11*%
X279980000Y-133850000D02*
X279980000Y-136090000D01*
X290250000Y-130950000D02*
X281849999Y-130950000D01*
X290250000Y-131300000D02*
X290250000Y-130950000D01*
X290250000Y-134550000D02*
X290250000Y-133550000D01*
X290030000Y-133550000D02*
X290030000Y-131300000D01*
X279750000Y-136450000D02*
X279750000Y-136090000D01*
X279950000Y-136090000D02*
X279750000Y-136090000D01*
X279750000Y-136450000D02*
X283030000Y-136450000D01*
X290250000Y-133550000D02*
X290050000Y-133550000D01*
X279750000Y-132850000D02*
X279750000Y-133850000D01*
X290050000Y-131300000D02*
X290250000Y-131300000D01*
X279750000Y-133850000D02*
X279950000Y-133850000D01*
X285250000Y-134550000D02*
X290250000Y-134550000D01*
X283033682Y-136428529D02*
G75*
G02*
X285250000Y-134550000I2151318J-291471D01*
G01*
X279750000Y-132850001D02*
G75*
G02*
X281849999Y-130950000I2000000J-99999D01*
G01*
%TO.C,KD1*%
X94180000Y-152850000D02*
X94180000Y-155090000D01*
X104450000Y-149950000D02*
X96049999Y-149950000D01*
X104450000Y-150300000D02*
X104450000Y-149950000D01*
X104450000Y-153550000D02*
X104450000Y-152550000D01*
X104230000Y-152550000D02*
X104230000Y-150300000D01*
X93950000Y-155450000D02*
X93950000Y-155090000D01*
X94150000Y-155090000D02*
X93950000Y-155090000D01*
X93950000Y-155450000D02*
X97230000Y-155450000D01*
X104450000Y-152550000D02*
X104250000Y-152550000D01*
X93950000Y-151850000D02*
X93950000Y-152850000D01*
X104250000Y-150300000D02*
X104450000Y-150300000D01*
X93950000Y-152850000D02*
X94150000Y-152850000D01*
X99450000Y-153550000D02*
X104450000Y-153550000D01*
X97233682Y-155428529D02*
G75*
G02*
X99450000Y-153550000I2151318J-291471D01*
G01*
X93950000Y-151850001D02*
G75*
G02*
X96049999Y-149950000I2000000J-99999D01*
G01*
%TO.C,KD2*%
X113230000Y-152850000D02*
X113230000Y-155090000D01*
X123500000Y-149950000D02*
X115099999Y-149950000D01*
X123500000Y-150300000D02*
X123500000Y-149950000D01*
X123500000Y-153550000D02*
X123500000Y-152550000D01*
X123280000Y-152550000D02*
X123280000Y-150300000D01*
X113000000Y-155450000D02*
X113000000Y-155090000D01*
X113200000Y-155090000D02*
X113000000Y-155090000D01*
X113000000Y-155450000D02*
X116280000Y-155450000D01*
X123500000Y-152550000D02*
X123300000Y-152550000D01*
X113000000Y-151850000D02*
X113000000Y-152850000D01*
X123300000Y-150300000D02*
X123500000Y-150300000D01*
X113000000Y-152850000D02*
X113200000Y-152850000D01*
X118500000Y-153550000D02*
X123500000Y-153550000D01*
X116283682Y-155428529D02*
G75*
G02*
X118500000Y-153550000I2151318J-291471D01*
G01*
X113000000Y-151850001D02*
G75*
G02*
X115099999Y-149950000I2000000J-99999D01*
G01*
%TO.C,KD3*%
X132230000Y-152850000D02*
X132230000Y-155090000D01*
X142500000Y-149950000D02*
X134099999Y-149950000D01*
X142500000Y-150300000D02*
X142500000Y-149950000D01*
X142500000Y-153550000D02*
X142500000Y-152550000D01*
X142280000Y-152550000D02*
X142280000Y-150300000D01*
X132000000Y-155450000D02*
X132000000Y-155090000D01*
X132200000Y-155090000D02*
X132000000Y-155090000D01*
X132000000Y-155450000D02*
X135280000Y-155450000D01*
X142500000Y-152550000D02*
X142300000Y-152550000D01*
X132000000Y-151850000D02*
X132000000Y-152850000D01*
X142300000Y-150300000D02*
X142500000Y-150300000D01*
X132000000Y-152850000D02*
X132200000Y-152850000D01*
X137500000Y-153550000D02*
X142500000Y-153550000D01*
X135283682Y-155428529D02*
G75*
G02*
X137500000Y-153550000I2151318J-291471D01*
G01*
X132000000Y-151850001D02*
G75*
G02*
X134099999Y-149950000I2000000J-99999D01*
G01*
%TO.C,KD4*%
X151330000Y-152850000D02*
X151330000Y-155090000D01*
X161600000Y-149950000D02*
X153199999Y-149950000D01*
X161600000Y-150300000D02*
X161600000Y-149950000D01*
X161600000Y-153550000D02*
X161600000Y-152550000D01*
X161380000Y-152550000D02*
X161380000Y-150300000D01*
X151100000Y-155450000D02*
X151100000Y-155090000D01*
X151300000Y-155090000D02*
X151100000Y-155090000D01*
X151100000Y-155450000D02*
X154380000Y-155450000D01*
X161600000Y-152550000D02*
X161400000Y-152550000D01*
X151100000Y-151850000D02*
X151100000Y-152850000D01*
X161400000Y-150300000D02*
X161600000Y-150300000D01*
X151100000Y-152850000D02*
X151300000Y-152850000D01*
X156600000Y-153550000D02*
X161600000Y-153550000D01*
X154383682Y-155428529D02*
G75*
G02*
X156600000Y-153550000I2151318J-291471D01*
G01*
X151100000Y-151850001D02*
G75*
G02*
X153199999Y-149950000I2000000J-99999D01*
G01*
%TO.C,KD5*%
X170380000Y-152850000D02*
X170380000Y-155090000D01*
X180650000Y-149950000D02*
X172249999Y-149950000D01*
X180650000Y-150300000D02*
X180650000Y-149950000D01*
X180650000Y-153550000D02*
X180650000Y-152550000D01*
X180430000Y-152550000D02*
X180430000Y-150300000D01*
X170150000Y-155450000D02*
X170150000Y-155090000D01*
X170350000Y-155090000D02*
X170150000Y-155090000D01*
X170150000Y-155450000D02*
X173430000Y-155450000D01*
X180650000Y-152550000D02*
X180450000Y-152550000D01*
X170150000Y-151850000D02*
X170150000Y-152850000D01*
X180450000Y-150300000D02*
X180650000Y-150300000D01*
X170150000Y-152850000D02*
X170350000Y-152850000D01*
X175650000Y-153550000D02*
X180650000Y-153550000D01*
X173433682Y-155428529D02*
G75*
G02*
X175650000Y-153550000I2151318J-291471D01*
G01*
X170150000Y-151850001D02*
G75*
G02*
X172249999Y-149950000I2000000J-99999D01*
G01*
%TO.C,KD6*%
X189430000Y-152850000D02*
X189430000Y-155090000D01*
X199700000Y-149950000D02*
X191299999Y-149950000D01*
X199700000Y-150300000D02*
X199700000Y-149950000D01*
X199700000Y-153550000D02*
X199700000Y-152550000D01*
X199480000Y-152550000D02*
X199480000Y-150300000D01*
X189200000Y-155450000D02*
X189200000Y-155090000D01*
X189400000Y-155090000D02*
X189200000Y-155090000D01*
X189200000Y-155450000D02*
X192480000Y-155450000D01*
X199700000Y-152550000D02*
X199500000Y-152550000D01*
X189200000Y-151850000D02*
X189200000Y-152850000D01*
X199500000Y-150300000D02*
X199700000Y-150300000D01*
X189200000Y-152850000D02*
X189400000Y-152850000D01*
X194700000Y-153550000D02*
X199700000Y-153550000D01*
X192483682Y-155428529D02*
G75*
G02*
X194700000Y-153550000I2151318J-291471D01*
G01*
X189200000Y-151850001D02*
G75*
G02*
X191299999Y-149950000I2000000J-99999D01*
G01*
%TO.C,KD7*%
X208530000Y-152850000D02*
X208530000Y-155090000D01*
X218800000Y-149950000D02*
X210399999Y-149950000D01*
X218800000Y-150300000D02*
X218800000Y-149950000D01*
X218800000Y-153550000D02*
X218800000Y-152550000D01*
X218580000Y-152550000D02*
X218580000Y-150300000D01*
X208300000Y-155450000D02*
X208300000Y-155090000D01*
X208500000Y-155090000D02*
X208300000Y-155090000D01*
X208300000Y-155450000D02*
X211580000Y-155450000D01*
X218800000Y-152550000D02*
X218600000Y-152550000D01*
X208300000Y-151850000D02*
X208300000Y-152850000D01*
X218600000Y-150300000D02*
X218800000Y-150300000D01*
X208300000Y-152850000D02*
X208500000Y-152850000D01*
X213800000Y-153550000D02*
X218800000Y-153550000D01*
X211583682Y-155428529D02*
G75*
G02*
X213800000Y-153550000I2151318J-291471D01*
G01*
X208300000Y-151850001D02*
G75*
G02*
X210399999Y-149950000I2000000J-99999D01*
G01*
%TO.C,KD8*%
X227580000Y-152850000D02*
X227580000Y-155090000D01*
X237850000Y-149950000D02*
X229449999Y-149950000D01*
X237850000Y-150300000D02*
X237850000Y-149950000D01*
X237850000Y-153550000D02*
X237850000Y-152550000D01*
X237630000Y-152550000D02*
X237630000Y-150300000D01*
X227350000Y-155450000D02*
X227350000Y-155090000D01*
X227550000Y-155090000D02*
X227350000Y-155090000D01*
X227350000Y-155450000D02*
X230630000Y-155450000D01*
X237850000Y-152550000D02*
X237650000Y-152550000D01*
X227350000Y-151850000D02*
X227350000Y-152850000D01*
X237650000Y-150300000D02*
X237850000Y-150300000D01*
X227350000Y-152850000D02*
X227550000Y-152850000D01*
X232850000Y-153550000D02*
X237850000Y-153550000D01*
X230633682Y-155428529D02*
G75*
G02*
X232850000Y-153550000I2151318J-291471D01*
G01*
X227350000Y-151850001D02*
G75*
G02*
X229449999Y-149950000I2000000J-99999D01*
G01*
%TO.C,KD9*%
X246630000Y-152850000D02*
X246630000Y-155090000D01*
X256900000Y-149950000D02*
X248499999Y-149950000D01*
X256900000Y-150300000D02*
X256900000Y-149950000D01*
X256900000Y-153550000D02*
X256900000Y-152550000D01*
X256680000Y-152550000D02*
X256680000Y-150300000D01*
X246400000Y-155450000D02*
X246400000Y-155090000D01*
X246600000Y-155090000D02*
X246400000Y-155090000D01*
X246400000Y-155450000D02*
X249680000Y-155450000D01*
X256900000Y-152550000D02*
X256700000Y-152550000D01*
X246400000Y-151850000D02*
X246400000Y-152850000D01*
X256700000Y-150300000D02*
X256900000Y-150300000D01*
X246400000Y-152850000D02*
X246600000Y-152850000D01*
X251900000Y-153550000D02*
X256900000Y-153550000D01*
X249683682Y-155428529D02*
G75*
G02*
X251900000Y-153550000I2151318J-291471D01*
G01*
X246400000Y-151850001D02*
G75*
G02*
X248499999Y-149950000I2000000J-99999D01*
G01*
%TO.C,KD10*%
X265680000Y-152850000D02*
X265680000Y-155090000D01*
X275950000Y-149950000D02*
X267549999Y-149950000D01*
X275950000Y-150300000D02*
X275950000Y-149950000D01*
X275950000Y-153550000D02*
X275950000Y-152550000D01*
X275730000Y-152550000D02*
X275730000Y-150300000D01*
X265450000Y-155450000D02*
X265450000Y-155090000D01*
X265650000Y-155090000D02*
X265450000Y-155090000D01*
X265450000Y-155450000D02*
X268730000Y-155450000D01*
X275950000Y-152550000D02*
X275750000Y-152550000D01*
X265450000Y-151850000D02*
X265450000Y-152850000D01*
X275750000Y-150300000D02*
X275950000Y-150300000D01*
X265450000Y-152850000D02*
X265650000Y-152850000D01*
X270950000Y-153550000D02*
X275950000Y-153550000D01*
X268733682Y-155428529D02*
G75*
G02*
X270950000Y-153550000I2151318J-291471D01*
G01*
X265450000Y-151850001D02*
G75*
G02*
X267549999Y-149950000I2000000J-99999D01*
G01*
%TO.C,KD11*%
X284730000Y-152850000D02*
X284730000Y-155090000D01*
X295000000Y-149950000D02*
X286599999Y-149950000D01*
X295000000Y-150300000D02*
X295000000Y-149950000D01*
X295000000Y-153550000D02*
X295000000Y-152550000D01*
X294780000Y-152550000D02*
X294780000Y-150300000D01*
X284500000Y-155450000D02*
X284500000Y-155090000D01*
X284700000Y-155090000D02*
X284500000Y-155090000D01*
X284500000Y-155450000D02*
X287780000Y-155450000D01*
X295000000Y-152550000D02*
X294800000Y-152550000D01*
X284500000Y-151850000D02*
X284500000Y-152850000D01*
X294800000Y-150300000D02*
X295000000Y-150300000D01*
X284500000Y-152850000D02*
X284700000Y-152850000D01*
X290000000Y-153550000D02*
X295000000Y-153550000D01*
X287783682Y-155428529D02*
G75*
G02*
X290000000Y-153550000I2151318J-291471D01*
G01*
X284500000Y-151850001D02*
G75*
G02*
X286599999Y-149950000I2000000J-99999D01*
G01*
%TO.C,KE1*%
X103730000Y-171950000D02*
X103730000Y-174190000D01*
X114000000Y-169050000D02*
X105599999Y-169050000D01*
X114000000Y-169400000D02*
X114000000Y-169050000D01*
X114000000Y-172650000D02*
X114000000Y-171650000D01*
X113780000Y-171650000D02*
X113780000Y-169400000D01*
X103500000Y-174550000D02*
X103500000Y-174190000D01*
X103700000Y-174190000D02*
X103500000Y-174190000D01*
X103500000Y-174550000D02*
X106780000Y-174550000D01*
X114000000Y-171650000D02*
X113800000Y-171650000D01*
X103500000Y-170950000D02*
X103500000Y-171950000D01*
X113800000Y-169400000D02*
X114000000Y-169400000D01*
X103500000Y-171950000D02*
X103700000Y-171950000D01*
X109000000Y-172650000D02*
X114000000Y-172650000D01*
X106783682Y-174528529D02*
G75*
G02*
X109000000Y-172650000I2151318J-291471D01*
G01*
X103500000Y-170950001D02*
G75*
G02*
X105599999Y-169050000I2000000J-99999D01*
G01*
%TO.C,KE2*%
X122780000Y-171950000D02*
X122780000Y-174190000D01*
X133050000Y-169050000D02*
X124649999Y-169050000D01*
X133050000Y-169400000D02*
X133050000Y-169050000D01*
X133050000Y-172650000D02*
X133050000Y-171650000D01*
X132830000Y-171650000D02*
X132830000Y-169400000D01*
X122550000Y-174550000D02*
X122550000Y-174190000D01*
X122750000Y-174190000D02*
X122550000Y-174190000D01*
X122550000Y-174550000D02*
X125830000Y-174550000D01*
X133050000Y-171650000D02*
X132850000Y-171650000D01*
X122550000Y-170950000D02*
X122550000Y-171950000D01*
X132850000Y-169400000D02*
X133050000Y-169400000D01*
X122550000Y-171950000D02*
X122750000Y-171950000D01*
X128050000Y-172650000D02*
X133050000Y-172650000D01*
X125833682Y-174528529D02*
G75*
G02*
X128050000Y-172650000I2151318J-291471D01*
G01*
X122550000Y-170950001D02*
G75*
G02*
X124649999Y-169050000I2000000J-99999D01*
G01*
%TO.C,KE3*%
X141830000Y-171950000D02*
X141830000Y-174190000D01*
X152100000Y-169050000D02*
X143699999Y-169050000D01*
X152100000Y-169400000D02*
X152100000Y-169050000D01*
X152100000Y-172650000D02*
X152100000Y-171650000D01*
X151880000Y-171650000D02*
X151880000Y-169400000D01*
X141600000Y-174550000D02*
X141600000Y-174190000D01*
X141800000Y-174190000D02*
X141600000Y-174190000D01*
X141600000Y-174550000D02*
X144880000Y-174550000D01*
X152100000Y-171650000D02*
X151900000Y-171650000D01*
X141600000Y-170950000D02*
X141600000Y-171950000D01*
X151900000Y-169400000D02*
X152100000Y-169400000D01*
X141600000Y-171950000D02*
X141800000Y-171950000D01*
X147100000Y-172650000D02*
X152100000Y-172650000D01*
X144883682Y-174528529D02*
G75*
G02*
X147100000Y-172650000I2151318J-291471D01*
G01*
X141600000Y-170950001D02*
G75*
G02*
X143699999Y-169050000I2000000J-99999D01*
G01*
%TO.C,KE4*%
X160880000Y-171950000D02*
X160880000Y-174190000D01*
X171150000Y-169050000D02*
X162749999Y-169050000D01*
X171150000Y-169400000D02*
X171150000Y-169050000D01*
X171150000Y-172650000D02*
X171150000Y-171650000D01*
X170930000Y-171650000D02*
X170930000Y-169400000D01*
X160650000Y-174550000D02*
X160650000Y-174190000D01*
X160850000Y-174190000D02*
X160650000Y-174190000D01*
X160650000Y-174550000D02*
X163930000Y-174550000D01*
X171150000Y-171650000D02*
X170950000Y-171650000D01*
X160650000Y-170950000D02*
X160650000Y-171950000D01*
X170950000Y-169400000D02*
X171150000Y-169400000D01*
X160650000Y-171950000D02*
X160850000Y-171950000D01*
X166150000Y-172650000D02*
X171150000Y-172650000D01*
X163933682Y-174528529D02*
G75*
G02*
X166150000Y-172650000I2151318J-291471D01*
G01*
X160650000Y-170950001D02*
G75*
G02*
X162749999Y-169050000I2000000J-99999D01*
G01*
%TO.C,KE5*%
X179930000Y-171950000D02*
X179930000Y-174190000D01*
X190200000Y-169050000D02*
X181799999Y-169050000D01*
X190200000Y-169400000D02*
X190200000Y-169050000D01*
X190200000Y-172650000D02*
X190200000Y-171650000D01*
X189980000Y-171650000D02*
X189980000Y-169400000D01*
X179700000Y-174550000D02*
X179700000Y-174190000D01*
X179900000Y-174190000D02*
X179700000Y-174190000D01*
X179700000Y-174550000D02*
X182980000Y-174550000D01*
X190200000Y-171650000D02*
X190000000Y-171650000D01*
X179700000Y-170950000D02*
X179700000Y-171950000D01*
X190000000Y-169400000D02*
X190200000Y-169400000D01*
X179700000Y-171950000D02*
X179900000Y-171950000D01*
X185200000Y-172650000D02*
X190200000Y-172650000D01*
X182983682Y-174528529D02*
G75*
G02*
X185200000Y-172650000I2151318J-291471D01*
G01*
X179700000Y-170950001D02*
G75*
G02*
X181799999Y-169050000I2000000J-99999D01*
G01*
%TO.C,KE6*%
X198980000Y-171950000D02*
X198980000Y-174190000D01*
X209250000Y-169050000D02*
X200849999Y-169050000D01*
X209250000Y-169400000D02*
X209250000Y-169050000D01*
X209250000Y-172650000D02*
X209250000Y-171650000D01*
X209030000Y-171650000D02*
X209030000Y-169400000D01*
X198750000Y-174550000D02*
X198750000Y-174190000D01*
X198950000Y-174190000D02*
X198750000Y-174190000D01*
X198750000Y-174550000D02*
X202030000Y-174550000D01*
X209250000Y-171650000D02*
X209050000Y-171650000D01*
X198750000Y-170950000D02*
X198750000Y-171950000D01*
X209050000Y-169400000D02*
X209250000Y-169400000D01*
X198750000Y-171950000D02*
X198950000Y-171950000D01*
X204250000Y-172650000D02*
X209250000Y-172650000D01*
X202033682Y-174528529D02*
G75*
G02*
X204250000Y-172650000I2151318J-291471D01*
G01*
X198750000Y-170950001D02*
G75*
G02*
X200849999Y-169050000I2000000J-99999D01*
G01*
%TO.C,KE7*%
X218030000Y-171950000D02*
X218030000Y-174190000D01*
X228300000Y-169050000D02*
X219899999Y-169050000D01*
X228300000Y-169400000D02*
X228300000Y-169050000D01*
X228300000Y-172650000D02*
X228300000Y-171650000D01*
X228080000Y-171650000D02*
X228080000Y-169400000D01*
X217800000Y-174550000D02*
X217800000Y-174190000D01*
X218000000Y-174190000D02*
X217800000Y-174190000D01*
X217800000Y-174550000D02*
X221080000Y-174550000D01*
X228300000Y-171650000D02*
X228100000Y-171650000D01*
X217800000Y-170950000D02*
X217800000Y-171950000D01*
X228100000Y-169400000D02*
X228300000Y-169400000D01*
X217800000Y-171950000D02*
X218000000Y-171950000D01*
X223300000Y-172650000D02*
X228300000Y-172650000D01*
X221083682Y-174528529D02*
G75*
G02*
X223300000Y-172650000I2151318J-291471D01*
G01*
X217800000Y-170950001D02*
G75*
G02*
X219899999Y-169050000I2000000J-99999D01*
G01*
%TO.C,KE8*%
X237080000Y-171950000D02*
X237080000Y-174190000D01*
X247350000Y-169050000D02*
X238949999Y-169050000D01*
X247350000Y-169400000D02*
X247350000Y-169050000D01*
X247350000Y-172650000D02*
X247350000Y-171650000D01*
X247130000Y-171650000D02*
X247130000Y-169400000D01*
X236850000Y-174550000D02*
X236850000Y-174190000D01*
X237050000Y-174190000D02*
X236850000Y-174190000D01*
X236850000Y-174550000D02*
X240130000Y-174550000D01*
X247350000Y-171650000D02*
X247150000Y-171650000D01*
X236850000Y-170950000D02*
X236850000Y-171950000D01*
X247150000Y-169400000D02*
X247350000Y-169400000D01*
X236850000Y-171950000D02*
X237050000Y-171950000D01*
X242350000Y-172650000D02*
X247350000Y-172650000D01*
X240133682Y-174528529D02*
G75*
G02*
X242350000Y-172650000I2151318J-291471D01*
G01*
X236850000Y-170950001D02*
G75*
G02*
X238949999Y-169050000I2000000J-99999D01*
G01*
%TO.C,KE9*%
X256130000Y-171950000D02*
X256130000Y-174190000D01*
X266400000Y-169050000D02*
X257999999Y-169050000D01*
X266400000Y-169400000D02*
X266400000Y-169050000D01*
X266400000Y-172650000D02*
X266400000Y-171650000D01*
X266180000Y-171650000D02*
X266180000Y-169400000D01*
X255900000Y-174550000D02*
X255900000Y-174190000D01*
X256100000Y-174190000D02*
X255900000Y-174190000D01*
X255900000Y-174550000D02*
X259180000Y-174550000D01*
X266400000Y-171650000D02*
X266200000Y-171650000D01*
X255900000Y-170950000D02*
X255900000Y-171950000D01*
X266200000Y-169400000D02*
X266400000Y-169400000D01*
X255900000Y-171950000D02*
X256100000Y-171950000D01*
X261400000Y-172650000D02*
X266400000Y-172650000D01*
X259183682Y-174528529D02*
G75*
G02*
X261400000Y-172650000I2151318J-291471D01*
G01*
X255900000Y-170950001D02*
G75*
G02*
X257999999Y-169050000I2000000J-99999D01*
G01*
%TO.C,KE10*%
X275230000Y-171950000D02*
X275230000Y-174190000D01*
X285500000Y-169050000D02*
X277099999Y-169050000D01*
X285500000Y-169400000D02*
X285500000Y-169050000D01*
X285500000Y-172650000D02*
X285500000Y-171650000D01*
X285280000Y-171650000D02*
X285280000Y-169400000D01*
X275000000Y-174550000D02*
X275000000Y-174190000D01*
X275200000Y-174190000D02*
X275000000Y-174190000D01*
X275000000Y-174550000D02*
X278280000Y-174550000D01*
X285500000Y-171650000D02*
X285300000Y-171650000D01*
X275000000Y-170950000D02*
X275000000Y-171950000D01*
X285300000Y-169400000D02*
X285500000Y-169400000D01*
X275000000Y-171950000D02*
X275200000Y-171950000D01*
X280500000Y-172650000D02*
X285500000Y-172650000D01*
X278283682Y-174528529D02*
G75*
G02*
X280500000Y-172650000I2151318J-291471D01*
G01*
X275000000Y-170950001D02*
G75*
G02*
X277099999Y-169050000I2000000J-99999D01*
G01*
%TO.C,KE12*%
X341830000Y-176700000D02*
X341830000Y-178940000D01*
X352100000Y-173800000D02*
X343699999Y-173800000D01*
X352100000Y-174150000D02*
X352100000Y-173800000D01*
X352100000Y-177400000D02*
X352100000Y-176400000D01*
X351880000Y-176400000D02*
X351880000Y-174150000D01*
X341600000Y-179300000D02*
X341600000Y-178940000D01*
X341800000Y-178940000D02*
X341600000Y-178940000D01*
X341600000Y-179300000D02*
X344880000Y-179300000D01*
X352100000Y-176400000D02*
X351900000Y-176400000D01*
X341600000Y-175700000D02*
X341600000Y-176700000D01*
X351900000Y-174150000D02*
X352100000Y-174150000D01*
X341600000Y-176700000D02*
X341800000Y-176700000D01*
X347100000Y-177400000D02*
X352100000Y-177400000D01*
X344883682Y-179278529D02*
G75*
G02*
X347100000Y-177400000I2151318J-291471D01*
G01*
X341600000Y-175700001D02*
G75*
G02*
X343699999Y-173800000I2000000J-99999D01*
G01*
%TO.C,KF1*%
X84680000Y-191000000D02*
X84680000Y-193240000D01*
X94950000Y-188100000D02*
X86549999Y-188100000D01*
X94950000Y-188450000D02*
X94950000Y-188100000D01*
X94950000Y-191700000D02*
X94950000Y-190700000D01*
X94730000Y-190700000D02*
X94730000Y-188450000D01*
X84450000Y-193600000D02*
X84450000Y-193240000D01*
X84650000Y-193240000D02*
X84450000Y-193240000D01*
X84450000Y-193600000D02*
X87730000Y-193600000D01*
X94950000Y-190700000D02*
X94750000Y-190700000D01*
X84450000Y-190000000D02*
X84450000Y-191000000D01*
X94750000Y-188450000D02*
X94950000Y-188450000D01*
X84450000Y-191000000D02*
X84650000Y-191000000D01*
X89950000Y-191700000D02*
X94950000Y-191700000D01*
X87733682Y-193578529D02*
G75*
G02*
X89950000Y-191700000I2151318J-291471D01*
G01*
X84450000Y-190000001D02*
G75*
G02*
X86549999Y-188100000I2000000J-99999D01*
G01*
%TO.C,KF3*%
X131930831Y-191958570D02*
X131351076Y-194122244D01*
X142601464Y-191815457D02*
X134487687Y-189641377D01*
X142510878Y-192153531D02*
X142601464Y-191815457D01*
X141669716Y-195292790D02*
X141928535Y-194326864D01*
X141716031Y-194269924D02*
X142298374Y-192096591D01*
X131035739Y-194410449D02*
X131128913Y-194062716D01*
X131322099Y-194114480D02*
X131128913Y-194062716D01*
X131035739Y-194410449D02*
X134203975Y-195259376D01*
X141928535Y-194326864D02*
X141735350Y-194275100D01*
X131967487Y-190933116D02*
X131708668Y-191899042D01*
X142317693Y-192101767D02*
X142510878Y-192153531D01*
X131708668Y-191899042D02*
X131901853Y-191950806D01*
X136840087Y-193998695D02*
X141669716Y-195292790D01*
X134213088Y-195239589D02*
G75*
G02*
X136840087Y-193998695I2002576J-838342D01*
G01*
X131967487Y-190933117D02*
G75*
G02*
X134487687Y-189641377I1905970J-614230D01*
G01*
%TO.C,KF6*%
X228365570Y-194943578D02*
X228945325Y-197107252D01*
X237535053Y-189484322D02*
X229421275Y-191658402D01*
X237625640Y-189822396D02*
X237535053Y-189484322D01*
X238466802Y-192961655D02*
X238207983Y-191995729D01*
X237995479Y-192052669D02*
X237413136Y-189879336D01*
X228816337Y-197514514D02*
X228723162Y-197166781D01*
X228916347Y-197115017D02*
X228723162Y-197166781D01*
X228816337Y-197514514D02*
X231984573Y-196665587D01*
X238207983Y-191995729D02*
X238014797Y-192047493D01*
X227884588Y-194037181D02*
X228143407Y-195003107D01*
X237432455Y-189874160D02*
X237625640Y-189822396D01*
X228143407Y-195003107D02*
X228336592Y-194951343D01*
X233637173Y-194255750D02*
X238466802Y-192961655D01*
X231982573Y-196643895D02*
G75*
G02*
X233637173Y-194255750I2153452J275263D01*
G01*
X227884589Y-194037182D02*
G75*
G02*
X229421275Y-191658402I1957733J421047D01*
G01*
%TO.C,KF8*%
X275180000Y-191000000D02*
X275180000Y-193240000D01*
X285450000Y-188100000D02*
X277049999Y-188100000D01*
X285450000Y-188450000D02*
X285450000Y-188100000D01*
X285450000Y-191700000D02*
X285450000Y-190700000D01*
X285230000Y-190700000D02*
X285230000Y-188450000D01*
X274950000Y-193600000D02*
X274950000Y-193240000D01*
X275150000Y-193240000D02*
X274950000Y-193240000D01*
X274950000Y-193600000D02*
X278230000Y-193600000D01*
X285450000Y-190700000D02*
X285250000Y-190700000D01*
X274950000Y-190000000D02*
X274950000Y-191000000D01*
X285250000Y-188450000D02*
X285450000Y-188450000D01*
X274950000Y-191000000D02*
X275150000Y-191000000D01*
X280450000Y-191700000D02*
X285450000Y-191700000D01*
X278233682Y-193578529D02*
G75*
G02*
X280450000Y-191700000I2151318J-291471D01*
G01*
X274950000Y-190000001D02*
G75*
G02*
X277049999Y-188100000I2000000J-99999D01*
G01*
%TO.C,KF10*%
X322780000Y-195750000D02*
X322780000Y-197990000D01*
X333050000Y-192850000D02*
X324649999Y-192850000D01*
X333050000Y-193200000D02*
X333050000Y-192850000D01*
X333050000Y-196450000D02*
X333050000Y-195450000D01*
X332830000Y-195450000D02*
X332830000Y-193200000D01*
X322550000Y-198350000D02*
X322550000Y-197990000D01*
X322750000Y-197990000D02*
X322550000Y-197990000D01*
X322550000Y-198350000D02*
X325830000Y-198350000D01*
X333050000Y-195450000D02*
X332850000Y-195450000D01*
X322550000Y-194750000D02*
X322550000Y-195750000D01*
X332850000Y-193200000D02*
X333050000Y-193200000D01*
X322550000Y-195750000D02*
X322750000Y-195750000D01*
X328050000Y-196450000D02*
X333050000Y-196450000D01*
X325833682Y-198328529D02*
G75*
G02*
X328050000Y-196450000I2151318J-291471D01*
G01*
X322550000Y-194750001D02*
G75*
G02*
X324649999Y-192850000I2000000J-99999D01*
G01*
%TO.C,KF11*%
X341830000Y-195750000D02*
X341830000Y-197990000D01*
X352100000Y-192850000D02*
X343699999Y-192850000D01*
X352100000Y-193200000D02*
X352100000Y-192850000D01*
X352100000Y-196450000D02*
X352100000Y-195450000D01*
X351880000Y-195450000D02*
X351880000Y-193200000D01*
X341600000Y-198350000D02*
X341600000Y-197990000D01*
X341800000Y-197990000D02*
X341600000Y-197990000D01*
X341600000Y-198350000D02*
X344880000Y-198350000D01*
X352100000Y-195450000D02*
X351900000Y-195450000D01*
X341600000Y-194750000D02*
X341600000Y-195750000D01*
X351900000Y-193200000D02*
X352100000Y-193200000D01*
X341600000Y-195750000D02*
X341800000Y-195750000D01*
X347100000Y-196450000D02*
X352100000Y-196450000D01*
X344883682Y-198328529D02*
G75*
G02*
X347100000Y-196450000I2151318J-291471D01*
G01*
X341600000Y-194750001D02*
G75*
G02*
X343699999Y-192850000I2000000J-99999D01*
G01*
%TO.C,KF12*%
X360880000Y-195750000D02*
X360880000Y-197990000D01*
X371150000Y-192850000D02*
X362749999Y-192850000D01*
X371150000Y-193200000D02*
X371150000Y-192850000D01*
X371150000Y-196450000D02*
X371150000Y-195450000D01*
X370930000Y-195450000D02*
X370930000Y-193200000D01*
X360650000Y-198350000D02*
X360650000Y-197990000D01*
X360850000Y-197990000D02*
X360650000Y-197990000D01*
X360650000Y-198350000D02*
X363930000Y-198350000D01*
X371150000Y-195450000D02*
X370950000Y-195450000D01*
X360650000Y-194750000D02*
X360650000Y-195750000D01*
X370950000Y-193200000D02*
X371150000Y-193200000D01*
X360650000Y-195750000D02*
X360850000Y-195750000D01*
X366150000Y-196450000D02*
X371150000Y-196450000D01*
X363933682Y-198328529D02*
G75*
G02*
X366150000Y-196450000I2151318J-291471D01*
G01*
X360650000Y-194750001D02*
G75*
G02*
X362749999Y-192850000I2000000J-99999D01*
G01*
%TO.C,DA0*%
X75250000Y-98430000D02*
X75250000Y-97464800D01*
X74538800Y-95140700D02*
X75948500Y-95140700D01*
X75250000Y-95140700D02*
X74551500Y-94099300D01*
X75948500Y-94099300D02*
X75262700Y-95128000D01*
X74551500Y-94099300D02*
X75948500Y-94099300D01*
X75250000Y-91787900D02*
X75250000Y-90810000D01*
%TO.C,DA1*%
X103850000Y-98430000D02*
X103850000Y-97464800D01*
X103138800Y-95140700D02*
X104548500Y-95140700D01*
X103850000Y-95140700D02*
X103151500Y-94099300D01*
X104548500Y-94099300D02*
X103862700Y-95128000D01*
X103151500Y-94099300D02*
X104548500Y-94099300D01*
X103850000Y-91787900D02*
X103850000Y-90810000D01*
%TO.C,DA2*%
X122900000Y-98480000D02*
X122900000Y-97514800D01*
X122188800Y-95190700D02*
X123598500Y-95190700D01*
X122900000Y-95190700D02*
X122201500Y-94149300D01*
X123598500Y-94149300D02*
X122912700Y-95178000D01*
X122201500Y-94149300D02*
X123598500Y-94149300D01*
X122900000Y-91837900D02*
X122900000Y-90860000D01*
%TO.C,DA3*%
X141900000Y-98430000D02*
X141900000Y-97464800D01*
X141188800Y-95140700D02*
X142598500Y-95140700D01*
X141900000Y-95140700D02*
X141201500Y-94099300D01*
X142598500Y-94099300D02*
X141912700Y-95128000D01*
X141201500Y-94099300D02*
X142598500Y-94099300D01*
X141900000Y-91787900D02*
X141900000Y-90810000D01*
%TO.C,DA4*%
X160900000Y-98430000D02*
X160900000Y-97464800D01*
X160188800Y-95140700D02*
X161598500Y-95140700D01*
X160900000Y-95140700D02*
X160201500Y-94099300D01*
X161598500Y-94099300D02*
X160912700Y-95128000D01*
X160201500Y-94099300D02*
X161598500Y-94099300D01*
X160900000Y-91787900D02*
X160900000Y-90810000D01*
%TO.C,DA5*%
X184750000Y-98430000D02*
X184750000Y-97464800D01*
X184038800Y-95140700D02*
X185448500Y-95140700D01*
X184750000Y-95140700D02*
X184051500Y-94099300D01*
X185448500Y-94099300D02*
X184762700Y-95128000D01*
X184051500Y-94099300D02*
X185448500Y-94099300D01*
X184750000Y-91787900D02*
X184750000Y-90810000D01*
%TO.C,DA6*%
X203750000Y-98430000D02*
X203750000Y-97464800D01*
X203038800Y-95140700D02*
X204448500Y-95140700D01*
X203750000Y-95140700D02*
X203051500Y-94099300D01*
X204448500Y-94099300D02*
X203762700Y-95128000D01*
X203051500Y-94099300D02*
X204448500Y-94099300D01*
X203750000Y-91787900D02*
X203750000Y-90810000D01*
%TO.C,DA7*%
X222800000Y-98430000D02*
X222800000Y-97464800D01*
X222088800Y-95140700D02*
X223498500Y-95140700D01*
X222800000Y-95140700D02*
X222101500Y-94099300D01*
X223498500Y-94099300D02*
X222812700Y-95128000D01*
X222101500Y-94099300D02*
X223498500Y-94099300D01*
X222800000Y-91787900D02*
X222800000Y-90810000D01*
%TO.C,DA8*%
X241950000Y-98480000D02*
X241950000Y-97514800D01*
X241238800Y-95190700D02*
X242648500Y-95190700D01*
X241950000Y-95190700D02*
X241251500Y-94149300D01*
X242648500Y-94149300D02*
X241962700Y-95178000D01*
X241251500Y-94149300D02*
X242648500Y-94149300D01*
X241950000Y-91837900D02*
X241950000Y-90860000D01*
%TO.C,DA9*%
X265700000Y-98430000D02*
X265700000Y-97464800D01*
X264988800Y-95140700D02*
X266398500Y-95140700D01*
X265700000Y-95140700D02*
X265001500Y-94099300D01*
X266398500Y-94099300D02*
X265712700Y-95128000D01*
X265001500Y-94099300D02*
X266398500Y-94099300D01*
X265700000Y-91787900D02*
X265700000Y-90810000D01*
%TO.C,DA10*%
X284650000Y-98430000D02*
X284650000Y-97464800D01*
X283938800Y-95140700D02*
X285348500Y-95140700D01*
X284650000Y-95140700D02*
X283951500Y-94099300D01*
X285348500Y-94099300D02*
X284662700Y-95128000D01*
X283951500Y-94099300D02*
X285348500Y-94099300D01*
X284650000Y-91787900D02*
X284650000Y-90810000D01*
%TO.C,DA11*%
X303800000Y-98430000D02*
X303800000Y-97464800D01*
X303088800Y-95140700D02*
X304498500Y-95140700D01*
X303800000Y-95140700D02*
X303101500Y-94099300D01*
X304498500Y-94099300D02*
X303812700Y-95128000D01*
X303101500Y-94099300D02*
X304498500Y-94099300D01*
X303800000Y-91787900D02*
X303800000Y-90810000D01*
%TO.C,DA12*%
X322900000Y-98480000D02*
X322900000Y-97514800D01*
X322188800Y-95190700D02*
X323598500Y-95190700D01*
X322900000Y-95190700D02*
X322201500Y-94149300D01*
X323598500Y-94149300D02*
X322912700Y-95178000D01*
X322201500Y-94149300D02*
X323598500Y-94149300D01*
X322900000Y-91837900D02*
X322900000Y-90860000D01*
%TO.C,DB0*%
X75100000Y-122230000D02*
X75100000Y-121264800D01*
X74388800Y-118940700D02*
X75798500Y-118940700D01*
X75100000Y-118940700D02*
X74401500Y-117899300D01*
X75798500Y-117899300D02*
X75112700Y-118928000D01*
X74401500Y-117899300D02*
X75798500Y-117899300D01*
X75100000Y-115587900D02*
X75100000Y-114610000D01*
%TO.C,DB1*%
X94150000Y-122230000D02*
X94150000Y-121264800D01*
X93438800Y-118940700D02*
X94848500Y-118940700D01*
X94150000Y-118940700D02*
X93451500Y-117899300D01*
X94848500Y-117899300D02*
X94162700Y-118928000D01*
X93451500Y-117899300D02*
X94848500Y-117899300D01*
X94150000Y-115587900D02*
X94150000Y-114610000D01*
%TO.C,DB2*%
X113150000Y-122230000D02*
X113150000Y-121264800D01*
X112438800Y-118940700D02*
X113848500Y-118940700D01*
X113150000Y-118940700D02*
X112451500Y-117899300D01*
X113848500Y-117899300D02*
X113162700Y-118928000D01*
X112451500Y-117899300D02*
X113848500Y-117899300D01*
X113150000Y-115587900D02*
X113150000Y-114610000D01*
%TO.C,DB3*%
X132150000Y-122230000D02*
X132150000Y-121264800D01*
X131438800Y-118940700D02*
X132848500Y-118940700D01*
X132150000Y-118940700D02*
X131451500Y-117899300D01*
X132848500Y-117899300D02*
X132162700Y-118928000D01*
X131451500Y-117899300D02*
X132848500Y-117899300D01*
X132150000Y-115587900D02*
X132150000Y-114610000D01*
%TO.C,DB4*%
X151200000Y-122230000D02*
X151200000Y-121264800D01*
X150488800Y-118940700D02*
X151898500Y-118940700D01*
X151200000Y-118940700D02*
X150501500Y-117899300D01*
X151898500Y-117899300D02*
X151212700Y-118928000D01*
X150501500Y-117899300D02*
X151898500Y-117899300D01*
X151200000Y-115587900D02*
X151200000Y-114610000D01*
%TO.C,DB5*%
X170250000Y-122230000D02*
X170250000Y-121264800D01*
X169538800Y-118940700D02*
X170948500Y-118940700D01*
X170250000Y-118940700D02*
X169551500Y-117899300D01*
X170948500Y-117899300D02*
X170262700Y-118928000D01*
X169551500Y-117899300D02*
X170948500Y-117899300D01*
X170250000Y-115587900D02*
X170250000Y-114610000D01*
%TO.C,DB6*%
X189300000Y-122230000D02*
X189300000Y-121264800D01*
X188588800Y-118940700D02*
X189998500Y-118940700D01*
X189300000Y-118940700D02*
X188601500Y-117899300D01*
X189998500Y-117899300D02*
X189312700Y-118928000D01*
X188601500Y-117899300D02*
X189998500Y-117899300D01*
X189300000Y-115587900D02*
X189300000Y-114610000D01*
%TO.C,DB7*%
X208400000Y-122230000D02*
X208400000Y-121264800D01*
X207688800Y-118940700D02*
X209098500Y-118940700D01*
X208400000Y-118940700D02*
X207701500Y-117899300D01*
X209098500Y-117899300D02*
X208412700Y-118928000D01*
X207701500Y-117899300D02*
X209098500Y-117899300D01*
X208400000Y-115587900D02*
X208400000Y-114610000D01*
%TO.C,DB8*%
X227400000Y-122230000D02*
X227400000Y-121264800D01*
X226688800Y-118940700D02*
X228098500Y-118940700D01*
X227400000Y-118940700D02*
X226701500Y-117899300D01*
X228098500Y-117899300D02*
X227412700Y-118928000D01*
X226701500Y-117899300D02*
X228098500Y-117899300D01*
X227400000Y-115587900D02*
X227400000Y-114610000D01*
%TO.C,DB9*%
X246500000Y-122230000D02*
X246500000Y-121264800D01*
X245788800Y-118940700D02*
X247198500Y-118940700D01*
X246500000Y-118940700D02*
X245801500Y-117899300D01*
X247198500Y-117899300D02*
X246512700Y-118928000D01*
X245801500Y-117899300D02*
X247198500Y-117899300D01*
X246500000Y-115587900D02*
X246500000Y-114610000D01*
%TO.C,DB10*%
X265550000Y-122230000D02*
X265550000Y-121264800D01*
X264838800Y-118940700D02*
X266248500Y-118940700D01*
X265550000Y-118940700D02*
X264851500Y-117899300D01*
X266248500Y-117899300D02*
X265562700Y-118928000D01*
X264851500Y-117899300D02*
X266248500Y-117899300D01*
X265550000Y-115587900D02*
X265550000Y-114610000D01*
%TO.C,DB11*%
X284550000Y-122230000D02*
X284550000Y-121264800D01*
X283838800Y-118940700D02*
X285248500Y-118940700D01*
X284550000Y-118940700D02*
X283851500Y-117899300D01*
X285248500Y-117899300D02*
X284562700Y-118928000D01*
X283851500Y-117899300D02*
X285248500Y-117899300D01*
X284550000Y-115587900D02*
X284550000Y-114610000D01*
%TO.C,DB12*%
X303700000Y-122230000D02*
X303700000Y-121264800D01*
X302988800Y-118940700D02*
X304398500Y-118940700D01*
X303700000Y-118940700D02*
X303001500Y-117899300D01*
X304398500Y-117899300D02*
X303712700Y-118928000D01*
X303001500Y-117899300D02*
X304398500Y-117899300D01*
X303700000Y-115587900D02*
X303700000Y-114610000D01*
%TO.C,DB13*%
X341290000Y-122220000D02*
X341290000Y-121254800D01*
X340578800Y-118930700D02*
X341988500Y-118930700D01*
X341290000Y-118930700D02*
X340591500Y-117889300D01*
X341988500Y-117889300D02*
X341302700Y-118918000D01*
X340591500Y-117889300D02*
X341988500Y-117889300D01*
X341290000Y-115577900D02*
X341290000Y-114600000D01*
%TO.C,DC0*%
X79850000Y-141330000D02*
X79850000Y-140364800D01*
X79138800Y-138040700D02*
X80548500Y-138040700D01*
X79850000Y-138040700D02*
X79151500Y-136999300D01*
X80548500Y-136999300D02*
X79862700Y-138028000D01*
X79151500Y-136999300D02*
X80548500Y-136999300D01*
X79850000Y-134687900D02*
X79850000Y-133710000D01*
%TO.C,DC1*%
X103650000Y-141330000D02*
X103650000Y-140364800D01*
X102938800Y-138040700D02*
X104348500Y-138040700D01*
X103650000Y-138040700D02*
X102951500Y-136999300D01*
X104348500Y-136999300D02*
X103662700Y-138028000D01*
X102951500Y-136999300D02*
X104348500Y-136999300D01*
X103650000Y-134687900D02*
X103650000Y-133710000D01*
%TO.C,DC2*%
X122700000Y-141330000D02*
X122700000Y-140364800D01*
X121988800Y-138040700D02*
X123398500Y-138040700D01*
X122700000Y-138040700D02*
X122001500Y-136999300D01*
X123398500Y-136999300D02*
X122712700Y-138028000D01*
X122001500Y-136999300D02*
X123398500Y-136999300D01*
X122700000Y-134687900D02*
X122700000Y-133710000D01*
%TO.C,DC3*%
X141750000Y-141330000D02*
X141750000Y-140364800D01*
X141038800Y-138040700D02*
X142448500Y-138040700D01*
X141750000Y-138040700D02*
X141051500Y-136999300D01*
X142448500Y-136999300D02*
X141762700Y-138028000D01*
X141051500Y-136999300D02*
X142448500Y-136999300D01*
X141750000Y-134687900D02*
X141750000Y-133710000D01*
%TO.C,DC4*%
X160900000Y-141330000D02*
X160900000Y-140364800D01*
X160188800Y-138040700D02*
X161598500Y-138040700D01*
X160900000Y-138040700D02*
X160201500Y-136999300D01*
X161598500Y-136999300D02*
X160912700Y-138028000D01*
X160201500Y-136999300D02*
X161598500Y-136999300D01*
X160900000Y-134687900D02*
X160900000Y-133710000D01*
%TO.C,DC5*%
X179950000Y-141380000D02*
X179950000Y-140414800D01*
X179238800Y-138090700D02*
X180648500Y-138090700D01*
X179950000Y-138090700D02*
X179251500Y-137049300D01*
X180648500Y-137049300D02*
X179962700Y-138078000D01*
X179251500Y-137049300D02*
X180648500Y-137049300D01*
X179950000Y-134737900D02*
X179950000Y-133760000D01*
%TO.C,DC6*%
X199000000Y-141330000D02*
X199000000Y-140364800D01*
X198288800Y-138040700D02*
X199698500Y-138040700D01*
X199000000Y-138040700D02*
X198301500Y-136999300D01*
X199698500Y-136999300D02*
X199012700Y-138028000D01*
X198301500Y-136999300D02*
X199698500Y-136999300D01*
X199000000Y-134687900D02*
X199000000Y-133710000D01*
%TO.C,DC7*%
X217932000Y-141351000D02*
X217932000Y-140385800D01*
X217220800Y-138061700D02*
X218630500Y-138061700D01*
X217932000Y-138061700D02*
X217233500Y-137020300D01*
X218630500Y-137020300D02*
X217944700Y-138049000D01*
X217233500Y-137020300D02*
X218630500Y-137020300D01*
X217932000Y-134708900D02*
X217932000Y-133731000D01*
%TO.C,DC8*%
X236982000Y-141351000D02*
X236982000Y-140385800D01*
X236270800Y-138061700D02*
X237680500Y-138061700D01*
X236982000Y-138061700D02*
X236283500Y-137020300D01*
X237680500Y-137020300D02*
X236994700Y-138049000D01*
X236283500Y-137020300D02*
X237680500Y-137020300D01*
X236982000Y-134708900D02*
X236982000Y-133731000D01*
%TO.C,DC9*%
X256032000Y-141351000D02*
X256032000Y-140385800D01*
X255320800Y-138061700D02*
X256730500Y-138061700D01*
X256032000Y-138061700D02*
X255333500Y-137020300D01*
X256730500Y-137020300D02*
X256044700Y-138049000D01*
X255333500Y-137020300D02*
X256730500Y-137020300D01*
X256032000Y-134708900D02*
X256032000Y-133731000D01*
%TO.C,DC10*%
X275082000Y-141351000D02*
X275082000Y-140385800D01*
X274370800Y-138061700D02*
X275780500Y-138061700D01*
X275082000Y-138061700D02*
X274383500Y-137020300D01*
X275780500Y-137020300D02*
X275094700Y-138049000D01*
X274383500Y-137020300D02*
X275780500Y-137020300D01*
X275082000Y-134708900D02*
X275082000Y-133731000D01*
%TO.C,DC11*%
X294132000Y-141351000D02*
X294132000Y-140385800D01*
X293420800Y-138061700D02*
X294830500Y-138061700D01*
X294132000Y-138061700D02*
X293433500Y-137020300D01*
X294830500Y-137020300D02*
X294144700Y-138049000D01*
X293433500Y-137020300D02*
X294830500Y-137020300D01*
X294132000Y-134708900D02*
X294132000Y-133731000D01*
%TO.C,DC12*%
X313182000Y-141351000D02*
X313182000Y-140385800D01*
X312470800Y-138061700D02*
X313880500Y-138061700D01*
X313182000Y-138061700D02*
X312483500Y-137020300D01*
X313880500Y-137020300D02*
X313194700Y-138049000D01*
X312483500Y-137020300D02*
X313880500Y-137020300D01*
X313182000Y-134708900D02*
X313182000Y-133731000D01*
%TO.C,DC13*%
X336931000Y-141351000D02*
X336931000Y-140385800D01*
X336219800Y-138061700D02*
X337629500Y-138061700D01*
X336931000Y-138061700D02*
X336232500Y-137020300D01*
X337629500Y-137020300D02*
X336943700Y-138049000D01*
X336232500Y-137020300D02*
X337629500Y-137020300D01*
X336931000Y-134708900D02*
X336931000Y-133731000D01*
%TO.C,DD0*%
X82169000Y-160274000D02*
X82169000Y-159308800D01*
X81457800Y-156984700D02*
X82867500Y-156984700D01*
X82169000Y-156984700D02*
X81470500Y-155943300D01*
X82867500Y-155943300D02*
X82181700Y-156972000D01*
X81470500Y-155943300D02*
X82867500Y-155943300D01*
X82169000Y-153631900D02*
X82169000Y-152654000D01*
%TO.C,DD1*%
X108331000Y-160274000D02*
X108331000Y-159308800D01*
X107619800Y-156984700D02*
X109029500Y-156984700D01*
X108331000Y-156984700D02*
X107632500Y-155943300D01*
X109029500Y-155943300D02*
X108343700Y-156972000D01*
X107632500Y-155943300D02*
X109029500Y-155943300D01*
X108331000Y-153631900D02*
X108331000Y-152654000D01*
%TO.C,DD2*%
X127381000Y-160274000D02*
X127381000Y-159308800D01*
X126669800Y-156984700D02*
X128079500Y-156984700D01*
X127381000Y-156984700D02*
X126682500Y-155943300D01*
X128079500Y-155943300D02*
X127393700Y-156972000D01*
X126682500Y-155943300D02*
X128079500Y-155943300D01*
X127381000Y-153631900D02*
X127381000Y-152654000D01*
%TO.C,DD3*%
X146431000Y-160274000D02*
X146431000Y-159308800D01*
X145719800Y-156984700D02*
X147129500Y-156984700D01*
X146431000Y-156984700D02*
X145732500Y-155943300D01*
X147129500Y-155943300D02*
X146443700Y-156972000D01*
X145732500Y-155943300D02*
X147129500Y-155943300D01*
X146431000Y-153631900D02*
X146431000Y-152654000D01*
%TO.C,DD4*%
X165481000Y-160274000D02*
X165481000Y-159308800D01*
X164769800Y-156984700D02*
X166179500Y-156984700D01*
X165481000Y-156984700D02*
X164782500Y-155943300D01*
X166179500Y-155943300D02*
X165493700Y-156972000D01*
X164782500Y-155943300D02*
X166179500Y-155943300D01*
X165481000Y-153631900D02*
X165481000Y-152654000D01*
%TO.C,DD5*%
X184531000Y-160401000D02*
X184531000Y-159435800D01*
X183819800Y-157111700D02*
X185229500Y-157111700D01*
X184531000Y-157111700D02*
X183832500Y-156070300D01*
X185229500Y-156070300D02*
X184543700Y-157099000D01*
X183832500Y-156070300D02*
X185229500Y-156070300D01*
X184531000Y-153758900D02*
X184531000Y-152781000D01*
%TO.C,DD6*%
X203581000Y-160274000D02*
X203581000Y-159308800D01*
X202869800Y-156984700D02*
X204279500Y-156984700D01*
X203581000Y-156984700D02*
X202882500Y-155943300D01*
X204279500Y-155943300D02*
X203593700Y-156972000D01*
X202882500Y-155943300D02*
X204279500Y-155943300D01*
X203581000Y-153631900D02*
X203581000Y-152654000D01*
%TO.C,DD7*%
X222631000Y-160330000D02*
X222631000Y-159364800D01*
X221919800Y-157040700D02*
X223329500Y-157040700D01*
X222631000Y-157040700D02*
X221932500Y-155999300D01*
X223329500Y-155999300D02*
X222643700Y-157028000D01*
X221932500Y-155999300D02*
X223329500Y-155999300D01*
X222631000Y-153687900D02*
X222631000Y-152710000D01*
%TO.C,DD8*%
X241681000Y-160274000D02*
X241681000Y-159308800D01*
X240969800Y-156984700D02*
X242379500Y-156984700D01*
X241681000Y-156984700D02*
X240982500Y-155943300D01*
X242379500Y-155943300D02*
X241693700Y-156972000D01*
X240982500Y-155943300D02*
X242379500Y-155943300D01*
X241681000Y-153631900D02*
X241681000Y-152654000D01*
%TO.C,DD9*%
X260731000Y-160274000D02*
X260731000Y-159308800D01*
X260019800Y-156984700D02*
X261429500Y-156984700D01*
X260731000Y-156984700D02*
X260032500Y-155943300D01*
X261429500Y-155943300D02*
X260743700Y-156972000D01*
X260032500Y-155943300D02*
X261429500Y-155943300D01*
X260731000Y-153631900D02*
X260731000Y-152654000D01*
%TO.C,DD10*%
X279781000Y-160274000D02*
X279781000Y-159308800D01*
X279069800Y-156984700D02*
X280479500Y-156984700D01*
X279781000Y-156984700D02*
X279082500Y-155943300D01*
X280479500Y-155943300D02*
X279793700Y-156972000D01*
X279082500Y-155943300D02*
X280479500Y-155943300D01*
X279781000Y-153631900D02*
X279781000Y-152654000D01*
%TO.C,DD11*%
X298958000Y-160280000D02*
X298958000Y-159314800D01*
X298246800Y-156990700D02*
X299656500Y-156990700D01*
X298958000Y-156990700D02*
X298259500Y-155949300D01*
X299656500Y-155949300D02*
X298970700Y-156978000D01*
X298259500Y-155949300D02*
X299656500Y-155949300D01*
X298958000Y-153637900D02*
X298958000Y-152660000D01*
%TO.C,DD12*%
X341240000Y-160380000D02*
X341240000Y-159414800D01*
X340528800Y-157090700D02*
X341938500Y-157090700D01*
X341240000Y-157090700D02*
X340541500Y-156049300D01*
X341938500Y-156049300D02*
X341252700Y-157078000D01*
X340541500Y-156049300D02*
X341938500Y-156049300D01*
X341240000Y-153737900D02*
X341240000Y-152760000D01*
%TO.C,DD13*%
X383318000Y-122174000D02*
X383318000Y-121208800D01*
X382606800Y-118884700D02*
X384016500Y-118884700D01*
X383318000Y-118884700D02*
X382619500Y-117843300D01*
X384016500Y-117843300D02*
X383330700Y-118872000D01*
X382619500Y-117843300D02*
X384016500Y-117843300D01*
X383318000Y-115531900D02*
X383318000Y-114554000D01*
%TO.C,DE0*%
X95910000Y-179430000D02*
X95910000Y-178464800D01*
X95198800Y-176140700D02*
X96608500Y-176140700D01*
X95910000Y-176140700D02*
X95211500Y-175099300D01*
X96608500Y-175099300D02*
X95922700Y-176128000D01*
X95211500Y-175099300D02*
X96608500Y-175099300D01*
X95910000Y-172787900D02*
X95910000Y-171810000D01*
%TO.C,DE1*%
X117856000Y-179451000D02*
X117856000Y-178485800D01*
X117144800Y-176161700D02*
X118554500Y-176161700D01*
X117856000Y-176161700D02*
X117157500Y-175120300D01*
X118554500Y-175120300D02*
X117868700Y-176149000D01*
X117157500Y-175120300D02*
X118554500Y-175120300D01*
X117856000Y-172808900D02*
X117856000Y-171831000D01*
%TO.C,DE2*%
X136906000Y-179451000D02*
X136906000Y-178485800D01*
X136194800Y-176161700D02*
X137604500Y-176161700D01*
X136906000Y-176161700D02*
X136207500Y-175120300D01*
X137604500Y-175120300D02*
X136918700Y-176149000D01*
X136207500Y-175120300D02*
X137604500Y-175120300D01*
X136906000Y-172808900D02*
X136906000Y-171831000D01*
%TO.C,DE3*%
X155956000Y-179324000D02*
X155956000Y-178358800D01*
X155244800Y-176034700D02*
X156654500Y-176034700D01*
X155956000Y-176034700D02*
X155257500Y-174993300D01*
X156654500Y-174993300D02*
X155968700Y-176022000D01*
X155257500Y-174993300D02*
X156654500Y-174993300D01*
X155956000Y-172681900D02*
X155956000Y-171704000D01*
%TO.C,DE4*%
X175006000Y-179324000D02*
X175006000Y-178358800D01*
X174294800Y-176034700D02*
X175704500Y-176034700D01*
X175006000Y-176034700D02*
X174307500Y-174993300D01*
X175704500Y-174993300D02*
X175018700Y-176022000D01*
X174307500Y-174993300D02*
X175704500Y-174993300D01*
X175006000Y-172681900D02*
X175006000Y-171704000D01*
%TO.C,DE5*%
X194056000Y-179324000D02*
X194056000Y-178358800D01*
X193344800Y-176034700D02*
X194754500Y-176034700D01*
X194056000Y-176034700D02*
X193357500Y-174993300D01*
X194754500Y-174993300D02*
X194068700Y-176022000D01*
X193357500Y-174993300D02*
X194754500Y-174993300D01*
X194056000Y-172681900D02*
X194056000Y-171704000D01*
%TO.C,DE6*%
X213106000Y-179480000D02*
X213106000Y-178514800D01*
X212394800Y-176190700D02*
X213804500Y-176190700D01*
X213106000Y-176190700D02*
X212407500Y-175149300D01*
X213804500Y-175149300D02*
X213118700Y-176178000D01*
X212407500Y-175149300D02*
X213804500Y-175149300D01*
X213106000Y-172837900D02*
X213106000Y-171860000D01*
%TO.C,DE7*%
X232156000Y-179430000D02*
X232156000Y-178464800D01*
X231444800Y-176140700D02*
X232854500Y-176140700D01*
X232156000Y-176140700D02*
X231457500Y-175099300D01*
X232854500Y-175099300D02*
X232168700Y-176128000D01*
X231457500Y-175099300D02*
X232854500Y-175099300D01*
X232156000Y-172787900D02*
X232156000Y-171810000D01*
%TO.C,DE8*%
X251206000Y-179451000D02*
X251206000Y-178485800D01*
X250494800Y-176161700D02*
X251904500Y-176161700D01*
X251206000Y-176161700D02*
X250507500Y-175120300D01*
X251904500Y-175120300D02*
X251218700Y-176149000D01*
X250507500Y-175120300D02*
X251904500Y-175120300D01*
X251206000Y-172808900D02*
X251206000Y-171831000D01*
%TO.C,DE9*%
X270350000Y-179451000D02*
X270350000Y-178485800D01*
X269638800Y-176161700D02*
X271048500Y-176161700D01*
X270350000Y-176161700D02*
X269651500Y-175120300D01*
X271048500Y-175120300D02*
X270362700Y-176149000D01*
X269651500Y-175120300D02*
X271048500Y-175120300D01*
X270350000Y-172808900D02*
X270350000Y-171831000D01*
%TO.C,DE10*%
X289306000Y-179451000D02*
X289306000Y-178485800D01*
X288594800Y-176161700D02*
X290004500Y-176161700D01*
X289306000Y-176161700D02*
X288607500Y-175120300D01*
X290004500Y-175120300D02*
X289318700Y-176149000D01*
X288607500Y-175120300D02*
X290004500Y-175120300D01*
X289306000Y-172808900D02*
X289306000Y-171831000D01*
%TO.C,DE11*%
X329370000Y-179430000D02*
X329370000Y-178464800D01*
X328658800Y-176140700D02*
X330068500Y-176140700D01*
X329370000Y-176140700D02*
X328671500Y-175099300D01*
X330068500Y-175099300D02*
X329382700Y-176128000D01*
X328671500Y-175099300D02*
X330068500Y-175099300D01*
X329370000Y-172787900D02*
X329370000Y-171810000D01*
%TO.C,DE12*%
X355981000Y-184180000D02*
X355981000Y-183214800D01*
X355269800Y-180890700D02*
X356679500Y-180890700D01*
X355981000Y-180890700D02*
X355282500Y-179849300D01*
X356679500Y-179849300D02*
X355993700Y-180878000D01*
X355282500Y-179849300D02*
X356679500Y-179849300D01*
X355981000Y-177537900D02*
X355981000Y-176560000D01*
%TO.C,DF0*%
X77343000Y-198501000D02*
X77343000Y-197535800D01*
X76631800Y-195211700D02*
X78041500Y-195211700D01*
X77343000Y-195211700D02*
X76644500Y-194170300D01*
X78041500Y-194170300D02*
X77355700Y-195199000D01*
X76644500Y-194170300D02*
X78041500Y-194170300D01*
X77343000Y-191858900D02*
X77343000Y-190881000D01*
%TO.C,DF1*%
X98806000Y-198501000D02*
X98806000Y-197535800D01*
X98094800Y-195211700D02*
X99504500Y-195211700D01*
X98806000Y-195211700D02*
X98107500Y-194170300D01*
X99504500Y-194170300D02*
X98818700Y-195199000D01*
X98107500Y-194170300D02*
X99504500Y-194170300D01*
X98806000Y-191858900D02*
X98806000Y-190881000D01*
%TO.C,DF2*%
X120269000Y-198501000D02*
X120269000Y-197535800D01*
X119557800Y-195211700D02*
X120967500Y-195211700D01*
X120269000Y-195211700D02*
X119570500Y-194170300D01*
X120967500Y-194170300D02*
X120281700Y-195199000D01*
X119570500Y-194170300D02*
X120967500Y-194170300D01*
X120269000Y-191858900D02*
X120269000Y-190881000D01*
%TO.C,DF3*%
X143708700Y-202853274D02*
X143958512Y-201920963D01*
X143873067Y-199491982D02*
X145234733Y-199856839D01*
X144560034Y-199676054D02*
X144154869Y-198489354D01*
X145504267Y-198850924D02*
X144575588Y-199667074D01*
X144154869Y-198489354D02*
X145504267Y-198850924D01*
X145427802Y-196437498D02*
X145680901Y-195492919D01*
%TO.C,DF4*%
X180258700Y-212883274D02*
X180508512Y-211950963D01*
X180423067Y-209521982D02*
X181784733Y-209886839D01*
X181110034Y-209706054D02*
X180704869Y-208519354D01*
X182054267Y-208880924D02*
X181125588Y-209697074D01*
X180704869Y-208519354D02*
X182054267Y-208880924D01*
X181977802Y-206467498D02*
X182230901Y-205522919D01*
%TO.C,DF5*%
X225201300Y-203643274D02*
X224951488Y-202710963D01*
X223663000Y-200650126D02*
X225024666Y-200285269D01*
X224349966Y-200466054D02*
X223405733Y-199640924D01*
X224755131Y-199279354D02*
X224358947Y-200450500D01*
X223405733Y-199640924D02*
X224755131Y-199279354D01*
X223482198Y-197227498D02*
X223229099Y-196282919D01*
%TO.C,DF6*%
X244111300Y-198433274D02*
X243861488Y-197500963D01*
X242573000Y-195440126D02*
X243934666Y-195075269D01*
X243259966Y-195256054D02*
X242315733Y-194430924D01*
X243665131Y-194069354D02*
X243268947Y-195240500D01*
X242315733Y-194430924D02*
X243665131Y-194069354D01*
X242392198Y-192017498D02*
X242139099Y-191072919D01*
%TO.C,DF7*%
X267843000Y-198501000D02*
X267843000Y-197535800D01*
X267131800Y-195211700D02*
X268541500Y-195211700D01*
X267843000Y-195211700D02*
X267144500Y-194170300D01*
X268541500Y-194170300D02*
X267855700Y-195199000D01*
X267144500Y-194170300D02*
X268541500Y-194170300D01*
X267843000Y-191858900D02*
X267843000Y-190881000D01*
%TO.C,DF8*%
X289306000Y-198430000D02*
X289306000Y-197464800D01*
X288594800Y-195140700D02*
X290004500Y-195140700D01*
X289306000Y-195140700D02*
X288607500Y-194099300D01*
X290004500Y-194099300D02*
X289318700Y-195128000D01*
X288607500Y-194099300D02*
X290004500Y-194099300D01*
X289306000Y-191787900D02*
X289306000Y-190810000D01*
%TO.C,DF9*%
X310769000Y-198501000D02*
X310769000Y-197535800D01*
X310057800Y-195211700D02*
X311467500Y-195211700D01*
X310769000Y-195211700D02*
X310070500Y-194170300D01*
X311467500Y-194170300D02*
X310781700Y-195199000D01*
X310070500Y-194170300D02*
X311467500Y-194170300D01*
X310769000Y-191858900D02*
X310769000Y-190881000D01*
%TO.C,DF10*%
X336931000Y-203180000D02*
X336931000Y-202214800D01*
X336219800Y-199890700D02*
X337629500Y-199890700D01*
X336931000Y-199890700D02*
X336232500Y-198849300D01*
X337629500Y-198849300D02*
X336943700Y-199878000D01*
X336232500Y-198849300D02*
X337629500Y-198849300D01*
X336931000Y-196537900D02*
X336931000Y-195560000D01*
%TO.C,DF11*%
X355981000Y-203073000D02*
X355981000Y-202107800D01*
X355269800Y-199783700D02*
X356679500Y-199783700D01*
X355981000Y-199783700D02*
X355282500Y-198742300D01*
X356679500Y-198742300D02*
X355993700Y-199771000D01*
X355282500Y-198742300D02*
X356679500Y-198742300D01*
X355981000Y-196430900D02*
X355981000Y-195453000D01*
%TO.C,DF12*%
X375031000Y-203180000D02*
X375031000Y-202214800D01*
X374319800Y-199890700D02*
X375729500Y-199890700D01*
X375031000Y-199890700D02*
X374332500Y-198849300D01*
X375729500Y-198849300D02*
X375043700Y-199878000D01*
X374332500Y-198849300D02*
X375729500Y-198849300D01*
X375031000Y-196537900D02*
X375031000Y-195560000D01*
%TO.C,R1*%
X349000000Y-93350000D02*
X349000000Y-95340000D01*
X349000000Y-87040000D02*
X349000000Y-89140000D01*
X348500000Y-91240000D02*
X349000000Y-91740000D01*
X349500000Y-91240000D02*
X348500000Y-91240000D01*
X349000000Y-90740000D02*
X349500000Y-91240000D01*
%TO.C,R2*%
X346250000Y-93350000D02*
X346250000Y-95340000D01*
X346250000Y-87040000D02*
X346250000Y-89140000D01*
X345750000Y-91240000D02*
X346250000Y-91740000D01*
X346750000Y-91240000D02*
X345750000Y-91240000D01*
X346250000Y-90740000D02*
X346750000Y-91240000D01*
%TO.C,DA13*%
X384000000Y-99320000D02*
X384000000Y-98354800D01*
X383288800Y-96030700D02*
X384698500Y-96030700D01*
X384000000Y-96030700D02*
X383301500Y-94989300D01*
X384698500Y-94989300D02*
X384012700Y-96018000D01*
X383301500Y-94989300D02*
X384698500Y-94989300D01*
X384000000Y-92677900D02*
X384000000Y-91700000D01*
%TO.C,DE13*%
X383318000Y-141224000D02*
X383318000Y-140258800D01*
X382606800Y-137934700D02*
X384016500Y-137934700D01*
X383318000Y-137934700D02*
X382619500Y-136893300D01*
X384016500Y-136893300D02*
X383330700Y-137922000D01*
X382619500Y-136893300D02*
X384016500Y-136893300D01*
X383318000Y-134581900D02*
X383318000Y-133604000D01*
%TO.C,DF13*%
X383318000Y-160528000D02*
X383318000Y-159562800D01*
X382606800Y-157238700D02*
X384016500Y-157238700D01*
X383318000Y-157238700D02*
X382619500Y-156197300D01*
X384016500Y-156197300D02*
X383330700Y-157226000D01*
X382619500Y-156197300D02*
X384016500Y-156197300D01*
X383318000Y-153885900D02*
X383318000Y-152908000D01*
%TO.C,KB13*%
X318080000Y-114750000D02*
X318080000Y-116990000D01*
X328350000Y-111850000D02*
X319949999Y-111850000D01*
X328350000Y-112200000D02*
X328350000Y-111850000D01*
X328350000Y-115450000D02*
X328350000Y-114450000D01*
X328130000Y-114450000D02*
X328130000Y-112200000D01*
X317850000Y-117350000D02*
X317850000Y-116990000D01*
X318050000Y-116990000D02*
X317850000Y-116990000D01*
X317850000Y-117350000D02*
X321130000Y-117350000D01*
X328350000Y-114450000D02*
X328150000Y-114450000D01*
X317850000Y-113750000D02*
X317850000Y-114750000D01*
X328150000Y-112200000D02*
X328350000Y-112200000D01*
X317850000Y-114750000D02*
X318050000Y-114750000D01*
X323350000Y-115450000D02*
X328350000Y-115450000D01*
X321133682Y-117328529D02*
G75*
G02*
X323350000Y-115450000I2151318J-291471D01*
G01*
X317850000Y-113750001D02*
G75*
G02*
X319949999Y-111850000I2000000J-99999D01*
G01*
%TO.C,KC0*%
X65630000Y-133850000D02*
X65630000Y-136090000D01*
X75900000Y-130950000D02*
X67499999Y-130950000D01*
X75900000Y-131300000D02*
X75900000Y-130950000D01*
X75900000Y-134550000D02*
X75900000Y-133550000D01*
X75680000Y-133550000D02*
X75680000Y-131300000D01*
X65400000Y-136450000D02*
X65400000Y-136090000D01*
X65600000Y-136090000D02*
X65400000Y-136090000D01*
X65400000Y-136450000D02*
X68680000Y-136450000D01*
X75900000Y-133550000D02*
X75700000Y-133550000D01*
X65400000Y-132850000D02*
X65400000Y-133850000D01*
X75700000Y-131300000D02*
X75900000Y-131300000D01*
X65400000Y-133850000D02*
X65600000Y-133850000D01*
X70900000Y-134550000D02*
X75900000Y-134550000D01*
X68683682Y-136428529D02*
G75*
G02*
X70900000Y-134550000I2151318J-291471D01*
G01*
X65400000Y-132850001D02*
G75*
G02*
X67499999Y-130950000I2000000J-99999D01*
G01*
%TO.C,KD0*%
X73250000Y-153550000D02*
X78250000Y-153550000D01*
X67750000Y-152850000D02*
X67950000Y-152850000D01*
X78050000Y-150300000D02*
X78250000Y-150300000D01*
X67750000Y-151850000D02*
X67750000Y-152850000D01*
X78250000Y-152550000D02*
X78050000Y-152550000D01*
X67750000Y-155450000D02*
X71030000Y-155450000D01*
X67950000Y-155090000D02*
X67750000Y-155090000D01*
X67750000Y-155450000D02*
X67750000Y-155090000D01*
X78030000Y-152550000D02*
X78030000Y-150300000D01*
X78250000Y-153550000D02*
X78250000Y-152550000D01*
X78250000Y-150300000D02*
X78250000Y-149950000D01*
X78250000Y-149950000D02*
X69849999Y-149950000D01*
X67980000Y-152850000D02*
X67980000Y-155090000D01*
X71033682Y-155428529D02*
G75*
G02*
X73250000Y-153550000I2151318J-291471D01*
G01*
X67750000Y-151850001D02*
G75*
G02*
X69849999Y-149950000I2000000J-99999D01*
G01*
%TO.C,KD12*%
X318030000Y-152900000D02*
X318030000Y-155140000D01*
X328300000Y-150000000D02*
X319899999Y-150000000D01*
X328300000Y-150350000D02*
X328300000Y-150000000D01*
X328300000Y-153600000D02*
X328300000Y-152600000D01*
X328080000Y-152600000D02*
X328080000Y-150350000D01*
X317800000Y-155500000D02*
X317800000Y-155140000D01*
X318000000Y-155140000D02*
X317800000Y-155140000D01*
X317800000Y-155500000D02*
X321080000Y-155500000D01*
X328300000Y-152600000D02*
X328100000Y-152600000D01*
X317800000Y-151900000D02*
X317800000Y-152900000D01*
X328100000Y-150350000D02*
X328300000Y-150350000D01*
X317800000Y-152900000D02*
X318000000Y-152900000D01*
X323300000Y-153600000D02*
X328300000Y-153600000D01*
X321083682Y-155478529D02*
G75*
G02*
X323300000Y-153600000I2151318J-291471D01*
G01*
X317800000Y-151900001D02*
G75*
G02*
X319899999Y-150000000I2000000J-99999D01*
G01*
%TO.C,KE0*%
X78000000Y-172650000D02*
X83000000Y-172650000D01*
X72500000Y-171950000D02*
X72700000Y-171950000D01*
X82800000Y-169400000D02*
X83000000Y-169400000D01*
X72500000Y-170950000D02*
X72500000Y-171950000D01*
X83000000Y-171650000D02*
X82800000Y-171650000D01*
X72500000Y-174550000D02*
X75780000Y-174550000D01*
X72700000Y-174190000D02*
X72500000Y-174190000D01*
X72500000Y-174550000D02*
X72500000Y-174190000D01*
X82780000Y-171650000D02*
X82780000Y-169400000D01*
X83000000Y-172650000D02*
X83000000Y-171650000D01*
X83000000Y-169400000D02*
X83000000Y-169050000D01*
X83000000Y-169050000D02*
X74599999Y-169050000D01*
X72730000Y-171950000D02*
X72730000Y-174190000D01*
X75783682Y-174528529D02*
G75*
G02*
X78000000Y-172650000I2151318J-291471D01*
G01*
X72500000Y-170950001D02*
G75*
G02*
X74599999Y-169050000I2000000J-99999D01*
G01*
%TO.C,KF0*%
X63230000Y-191000000D02*
X63230000Y-193240000D01*
X73500000Y-188100000D02*
X65099999Y-188100000D01*
X73500000Y-188450000D02*
X73500000Y-188100000D01*
X73500000Y-191700000D02*
X73500000Y-190700000D01*
X73280000Y-190700000D02*
X73280000Y-188450000D01*
X63000000Y-193600000D02*
X63000000Y-193240000D01*
X63200000Y-193240000D02*
X63000000Y-193240000D01*
X63000000Y-193600000D02*
X66280000Y-193600000D01*
X73500000Y-190700000D02*
X73300000Y-190700000D01*
X63000000Y-190000000D02*
X63000000Y-191000000D01*
X73300000Y-188450000D02*
X73500000Y-188450000D01*
X63000000Y-191000000D02*
X63200000Y-191000000D01*
X68500000Y-191700000D02*
X73500000Y-191700000D01*
X66283682Y-193578529D02*
G75*
G02*
X68500000Y-191700000I2151318J-291471D01*
G01*
X63000000Y-190000001D02*
G75*
G02*
X65099999Y-188100000I2000000J-99999D01*
G01*
%TO.C,KF2*%
X106130000Y-191000000D02*
X106130000Y-193240000D01*
X116400000Y-188100000D02*
X107999999Y-188100000D01*
X116400000Y-188450000D02*
X116400000Y-188100000D01*
X116400000Y-191700000D02*
X116400000Y-190700000D01*
X116180000Y-190700000D02*
X116180000Y-188450000D01*
X105900000Y-193600000D02*
X105900000Y-193240000D01*
X106100000Y-193240000D02*
X105900000Y-193240000D01*
X105900000Y-193600000D02*
X109180000Y-193600000D01*
X116400000Y-190700000D02*
X116200000Y-190700000D01*
X105900000Y-190000000D02*
X105900000Y-191000000D01*
X116200000Y-188450000D02*
X116400000Y-188450000D01*
X105900000Y-191000000D02*
X106100000Y-191000000D01*
X111400000Y-191700000D02*
X116400000Y-191700000D01*
X109183682Y-193578529D02*
G75*
G02*
X111400000Y-191700000I2151318J-291471D01*
G01*
X105900000Y-190000001D02*
G75*
G02*
X107999999Y-188100000I2000000J-99999D01*
G01*
%TO.C,KF4*%
X159580831Y-199408570D02*
X159001076Y-201572244D01*
X170251464Y-199265457D02*
X162137687Y-197091377D01*
X170160878Y-199603531D02*
X170251464Y-199265457D01*
X169319716Y-202742790D02*
X169578535Y-201776864D01*
X169366031Y-201719924D02*
X169948374Y-199546591D01*
X158685739Y-201860449D02*
X158778913Y-201512716D01*
X158972099Y-201564480D02*
X158778913Y-201512716D01*
X158685739Y-201860449D02*
X161853975Y-202709376D01*
X169578535Y-201776864D02*
X169385350Y-201725100D01*
X159617487Y-198383116D02*
X159358668Y-199349042D01*
X169967693Y-199551767D02*
X170160878Y-199603531D01*
X159358668Y-199349042D02*
X159551853Y-199400806D01*
X164490087Y-201448695D02*
X169319716Y-202742790D01*
X161863088Y-202689589D02*
G75*
G02*
X164490087Y-201448695I2002576J-838342D01*
G01*
X159617487Y-198383117D02*
G75*
G02*
X162137687Y-197091377I1905970J-614230D01*
G01*
%TO.C,KF5*%
X200765570Y-202343578D02*
X201345325Y-204507252D01*
X209935053Y-196884322D02*
X201821275Y-199058402D01*
X210025640Y-197222396D02*
X209935053Y-196884322D01*
X210866802Y-200361655D02*
X210607983Y-199395729D01*
X210395479Y-199452669D02*
X209813136Y-197279336D01*
X201216337Y-204914514D02*
X201123162Y-204566781D01*
X201316347Y-204515017D02*
X201123162Y-204566781D01*
X201216337Y-204914514D02*
X204384573Y-204065587D01*
X210607983Y-199395729D02*
X210414797Y-199447493D01*
X200284588Y-201437181D02*
X200543407Y-202403107D01*
X209832455Y-197274160D02*
X210025640Y-197222396D01*
X200543407Y-202403107D02*
X200736592Y-202351343D01*
X206037173Y-201655750D02*
X210866802Y-200361655D01*
X204382573Y-204043895D02*
G75*
G02*
X206037173Y-201655750I2153452J275263D01*
G01*
X200284589Y-201437182D02*
G75*
G02*
X201821275Y-199058402I1957733J421047D01*
G01*
%TO.C,KF7*%
X253780000Y-191000000D02*
X253780000Y-193240000D01*
X264050000Y-188100000D02*
X255649999Y-188100000D01*
X264050000Y-188450000D02*
X264050000Y-188100000D01*
X264050000Y-191700000D02*
X264050000Y-190700000D01*
X263830000Y-190700000D02*
X263830000Y-188450000D01*
X253550000Y-193600000D02*
X253550000Y-193240000D01*
X253750000Y-193240000D02*
X253550000Y-193240000D01*
X253550000Y-193600000D02*
X256830000Y-193600000D01*
X264050000Y-190700000D02*
X263850000Y-190700000D01*
X253550000Y-190000000D02*
X253550000Y-191000000D01*
X263850000Y-188450000D02*
X264050000Y-188450000D01*
X253550000Y-191000000D02*
X253750000Y-191000000D01*
X259050000Y-191700000D02*
X264050000Y-191700000D01*
X256833682Y-193578529D02*
G75*
G02*
X259050000Y-191700000I2151318J-291471D01*
G01*
X253550000Y-190000001D02*
G75*
G02*
X255649999Y-188100000I2000000J-99999D01*
G01*
%TO.C,KF9*%
X296630000Y-191000000D02*
X296630000Y-193240000D01*
X306900000Y-188100000D02*
X298499999Y-188100000D01*
X306900000Y-188450000D02*
X306900000Y-188100000D01*
X306900000Y-191700000D02*
X306900000Y-190700000D01*
X306680000Y-190700000D02*
X306680000Y-188450000D01*
X296400000Y-193600000D02*
X296400000Y-193240000D01*
X296600000Y-193240000D02*
X296400000Y-193240000D01*
X296400000Y-193600000D02*
X299680000Y-193600000D01*
X306900000Y-190700000D02*
X306700000Y-190700000D01*
X296400000Y-190000000D02*
X296400000Y-191000000D01*
X306700000Y-188450000D02*
X306900000Y-188450000D01*
X296400000Y-191000000D02*
X296600000Y-191000000D01*
X301900000Y-191700000D02*
X306900000Y-191700000D01*
X299683682Y-193578529D02*
G75*
G02*
X301900000Y-191700000I2151318J-291471D01*
G01*
X296400000Y-190000001D02*
G75*
G02*
X298499999Y-188100000I2000000J-99999D01*
G01*
%TO.C,KC12*%
X299030000Y-133850000D02*
X299030000Y-136090000D01*
X309300000Y-130950000D02*
X300899999Y-130950000D01*
X309300000Y-131300000D02*
X309300000Y-130950000D01*
X309300000Y-134550000D02*
X309300000Y-133550000D01*
X309080000Y-133550000D02*
X309080000Y-131300000D01*
X298800000Y-136450000D02*
X298800000Y-136090000D01*
X299000000Y-136090000D02*
X298800000Y-136090000D01*
X298800000Y-136450000D02*
X302080000Y-136450000D01*
X309300000Y-133550000D02*
X309100000Y-133550000D01*
X298800000Y-132850000D02*
X298800000Y-133850000D01*
X309100000Y-131300000D02*
X309300000Y-131300000D01*
X298800000Y-133850000D02*
X299000000Y-133850000D01*
X304300000Y-134550000D02*
X309300000Y-134550000D01*
X302083682Y-136428529D02*
G75*
G02*
X304300000Y-134550000I2151318J-291471D01*
G01*
X298800000Y-132850001D02*
G75*
G02*
X300899999Y-130950000I2000000J-99999D01*
G01*
%TO.C,KC13*%
X322830000Y-133850000D02*
X322830000Y-136090000D01*
X333100000Y-130950000D02*
X324699999Y-130950000D01*
X333100000Y-131300000D02*
X333100000Y-130950000D01*
X333100000Y-134550000D02*
X333100000Y-133550000D01*
X332880000Y-133550000D02*
X332880000Y-131300000D01*
X322600000Y-136450000D02*
X322600000Y-136090000D01*
X322800000Y-136090000D02*
X322600000Y-136090000D01*
X322600000Y-136450000D02*
X325880000Y-136450000D01*
X333100000Y-133550000D02*
X332900000Y-133550000D01*
X322600000Y-132850000D02*
X322600000Y-133850000D01*
X332900000Y-131300000D02*
X333100000Y-131300000D01*
X322600000Y-133850000D02*
X322800000Y-133850000D01*
X328100000Y-134550000D02*
X333100000Y-134550000D01*
X325883682Y-136428529D02*
G75*
G02*
X328100000Y-134550000I2151318J-291471D01*
G01*
X322600000Y-132850001D02*
G75*
G02*
X324699999Y-130950000I2000000J-99999D01*
G01*
%TO.C,J1*%
X350090000Y-81154000D02*
X350090000Y-83694000D01*
X340090000Y-81154000D02*
X350090000Y-81154000D01*
X340090000Y-83694000D02*
X340090000Y-81154000D01*
X340090000Y-83694000D02*
X350090000Y-83694000D01*
D11*
X332740000Y-85900000D02*
X332740000Y-80900000D01*
X352440000Y-80900000D02*
X357440000Y-80900000D01*
X357440000Y-80900000D02*
X357440000Y-85900000D01*
X357440000Y-107900000D02*
X352440000Y-107900000D01*
X332740000Y-107900000D02*
X337740000Y-107900000D01*
X332740000Y-107900000D02*
X332740000Y-102900000D01*
X355960000Y-87480000D02*
X355960000Y-98340000D01*
X357440000Y-107900000D02*
X357440000Y-102900000D01*
X332740000Y-80900000D02*
X337740000Y-80900000D01*
X334220000Y-98340000D02*
X355960000Y-98340000D01*
X334220000Y-87480000D02*
X334220000Y-98340000D01*
X334220000Y-87480000D02*
X355960000Y-87480000D01*
D10*
%TO.C,KD13*%
X369200000Y-114822000D02*
X369200000Y-117062000D01*
X379470000Y-111922000D02*
X371069999Y-111922000D01*
X379470000Y-112272000D02*
X379470000Y-111922000D01*
X379470000Y-115522000D02*
X379470000Y-114522000D01*
X379250000Y-114522000D02*
X379250000Y-112272000D01*
X368970000Y-117422000D02*
X368970000Y-117062000D01*
X369170000Y-117062000D02*
X368970000Y-117062000D01*
X368970000Y-117422000D02*
X372250000Y-117422000D01*
X379470000Y-114522000D02*
X379270000Y-114522000D01*
X368970000Y-113822000D02*
X368970000Y-114822000D01*
X379270000Y-112272000D02*
X379470000Y-112272000D01*
X368970000Y-114822000D02*
X369170000Y-114822000D01*
X374470000Y-115522000D02*
X379470000Y-115522000D01*
X372253682Y-117400529D02*
G75*
G02*
X374470000Y-115522000I2151318J-291471D01*
G01*
X368970000Y-113822001D02*
G75*
G02*
X371069999Y-111922000I2000000J-99999D01*
G01*
%TO.C,KE13*%
X369210000Y-133862000D02*
X369210000Y-136102000D01*
X379480000Y-130962000D02*
X371079999Y-130962000D01*
X379480000Y-131312000D02*
X379480000Y-130962000D01*
X379480000Y-134562000D02*
X379480000Y-133562000D01*
X379260000Y-133562000D02*
X379260000Y-131312000D01*
X368980000Y-136462000D02*
X368980000Y-136102000D01*
X369180000Y-136102000D02*
X368980000Y-136102000D01*
X368980000Y-136462000D02*
X372260000Y-136462000D01*
X379480000Y-133562000D02*
X379280000Y-133562000D01*
X368980000Y-132862000D02*
X368980000Y-133862000D01*
X379280000Y-131312000D02*
X379480000Y-131312000D01*
X368980000Y-133862000D02*
X369180000Y-133862000D01*
X374480000Y-134562000D02*
X379480000Y-134562000D01*
X372263682Y-136440529D02*
G75*
G02*
X374480000Y-134562000I2151318J-291471D01*
G01*
X368980000Y-132862001D02*
G75*
G02*
X371079999Y-130962000I2000000J-99999D01*
G01*
%TO.C,KF13*%
X369210000Y-152912000D02*
X369210000Y-155152000D01*
X379480000Y-150012000D02*
X371079999Y-150012000D01*
X379480000Y-150362000D02*
X379480000Y-150012000D01*
X379480000Y-153612000D02*
X379480000Y-152612000D01*
X379260000Y-152612000D02*
X379260000Y-150362000D01*
X368980000Y-155512000D02*
X368980000Y-155152000D01*
X369180000Y-155152000D02*
X368980000Y-155152000D01*
X368980000Y-155512000D02*
X372260000Y-155512000D01*
X379480000Y-152612000D02*
X379280000Y-152612000D01*
X368980000Y-151912000D02*
X368980000Y-152912000D01*
X379280000Y-150362000D02*
X379480000Y-150362000D01*
X368980000Y-152912000D02*
X369180000Y-152912000D01*
X374480000Y-153612000D02*
X379480000Y-153612000D01*
X372263682Y-155490529D02*
G75*
G02*
X374480000Y-153612000I2151318J-291471D01*
G01*
X368980000Y-151912001D02*
G75*
G02*
X371079999Y-150012000I2000000J-99999D01*
G01*
%TO.C,U0*%
X349078523Y-122300000D02*
X349154714Y-122261904D01*
X349269000Y-122261904D01*
X349383285Y-122300000D01*
X349459476Y-122376190D01*
X349497571Y-122452380D01*
X349535666Y-122604761D01*
X349535666Y-122719047D01*
X349497571Y-122871428D01*
X349459476Y-122947619D01*
X349383285Y-123023809D01*
X349269000Y-123061904D01*
X349192809Y-123061904D01*
X349078523Y-123023809D01*
X349040428Y-122985714D01*
X349040428Y-122719047D01*
X349192809Y-122719047D01*
X348697571Y-123061904D02*
X348697571Y-122261904D01*
X348240428Y-123061904D01*
X348240428Y-122261904D01*
X347859476Y-123061904D02*
X347859476Y-122261904D01*
X347669000Y-122261904D01*
X347554714Y-122300000D01*
X347478523Y-122376190D01*
X347440428Y-122452380D01*
X347402333Y-122604761D01*
X347402333Y-122719047D01*
X347440428Y-122871428D01*
X347478523Y-122947619D01*
X347554714Y-123023809D01*
X347669000Y-123061904D01*
X347859476Y-123061904D01*
X359714809Y-142962857D02*
X359600523Y-143000952D01*
X359562428Y-143039047D01*
X359524333Y-143115238D01*
X359524333Y-143229523D01*
X359562428Y-143305714D01*
X359600523Y-143343809D01*
X359676714Y-143381904D01*
X359981476Y-143381904D01*
X359981476Y-142581904D01*
X359714809Y-142581904D01*
X359638619Y-142620000D01*
X359600523Y-142658095D01*
X359562428Y-142734285D01*
X359562428Y-142810476D01*
X359600523Y-142886666D01*
X359638619Y-142924761D01*
X359714809Y-142962857D01*
X359981476Y-142962857D01*
X359219571Y-142658095D02*
X359181476Y-142620000D01*
X359105285Y-142581904D01*
X358914809Y-142581904D01*
X358838619Y-142620000D01*
X358800523Y-142658095D01*
X358762428Y-142734285D01*
X358762428Y-142810476D01*
X358800523Y-142924761D01*
X359257666Y-143381904D01*
X358762428Y-143381904D01*
X359657666Y-135342857D02*
X359924333Y-135342857D01*
X359924333Y-135761904D02*
X359924333Y-134961904D01*
X359543380Y-134961904D01*
X359314809Y-134961904D02*
X358781476Y-134961904D01*
X359124333Y-135761904D01*
X359657666Y-132802857D02*
X359924333Y-132802857D01*
X359924333Y-133221904D02*
X359924333Y-132421904D01*
X359543380Y-132421904D01*
X358895761Y-132421904D02*
X359048142Y-132421904D01*
X359124333Y-132460000D01*
X359162428Y-132498095D01*
X359238619Y-132612380D01*
X359276714Y-132764761D01*
X359276714Y-133069523D01*
X359238619Y-133145714D01*
X359200523Y-133183809D01*
X359124333Y-133221904D01*
X358971952Y-133221904D01*
X358895761Y-133183809D01*
X358857666Y-133145714D01*
X358819571Y-133069523D01*
X358819571Y-132879047D01*
X358857666Y-132802857D01*
X358895761Y-132764761D01*
X358971952Y-132726666D01*
X359124333Y-132726666D01*
X359200523Y-132764761D01*
X359238619Y-132802857D01*
X359276714Y-132879047D01*
X359657666Y-130262857D02*
X359924333Y-130262857D01*
X359924333Y-130681904D02*
X359924333Y-129881904D01*
X359543380Y-129881904D01*
X358857666Y-129881904D02*
X359238619Y-129881904D01*
X359276714Y-130262857D01*
X359238619Y-130224761D01*
X359162428Y-130186666D01*
X358971952Y-130186666D01*
X358895761Y-130224761D01*
X358857666Y-130262857D01*
X358819571Y-130339047D01*
X358819571Y-130529523D01*
X358857666Y-130605714D01*
X358895761Y-130643809D01*
X358971952Y-130681904D01*
X359162428Y-130681904D01*
X359238619Y-130643809D01*
X359276714Y-130605714D01*
X360000523Y-119760000D02*
X360076714Y-119721904D01*
X360191000Y-119721904D01*
X360305285Y-119760000D01*
X360381476Y-119836190D01*
X360419571Y-119912380D01*
X360457666Y-120064761D01*
X360457666Y-120179047D01*
X360419571Y-120331428D01*
X360381476Y-120407619D01*
X360305285Y-120483809D01*
X360191000Y-120521904D01*
X360114809Y-120521904D01*
X360000523Y-120483809D01*
X359962428Y-120445714D01*
X359962428Y-120179047D01*
X360114809Y-120179047D01*
X359619571Y-120521904D02*
X359619571Y-119721904D01*
X359162428Y-120521904D01*
X359162428Y-119721904D01*
X358781476Y-120521904D02*
X358781476Y-119721904D01*
X358591000Y-119721904D01*
X358476714Y-119760000D01*
X358400523Y-119836190D01*
X358362428Y-119912380D01*
X358324333Y-120064761D01*
X358324333Y-120179047D01*
X358362428Y-120331428D01*
X358400523Y-120407619D01*
X358476714Y-120483809D01*
X358591000Y-120521904D01*
X358781476Y-120521904D01*
X359503333Y-123003809D02*
X359389047Y-123041904D01*
X359198571Y-123041904D01*
X359122380Y-123003809D01*
X359084285Y-122965714D01*
X359046190Y-122889523D01*
X359046190Y-122813333D01*
X359084285Y-122737142D01*
X359122380Y-122699047D01*
X359198571Y-122660952D01*
X359350952Y-122622857D01*
X359427142Y-122584761D01*
X359465238Y-122546666D01*
X359503333Y-122470476D01*
X359503333Y-122394285D01*
X359465238Y-122318095D01*
X359427142Y-122280000D01*
X359350952Y-122241904D01*
X359160476Y-122241904D01*
X359046190Y-122280000D01*
X358817619Y-122241904D02*
X358360476Y-122241904D01*
X358589047Y-123041904D02*
X358589047Y-122241904D01*
X359657666Y-130262857D02*
X359924333Y-130262857D01*
X359924333Y-130681904D02*
X359924333Y-129881904D01*
X359543380Y-129881904D01*
X358857666Y-129881904D02*
X359238619Y-129881904D01*
X359276714Y-130262857D01*
X359238619Y-130224761D01*
X359162428Y-130186666D01*
X358971952Y-130186666D01*
X358895761Y-130224761D01*
X358857666Y-130262857D01*
X358819571Y-130339047D01*
X358819571Y-130529523D01*
X358857666Y-130605714D01*
X358895761Y-130643809D01*
X358971952Y-130681904D01*
X359162428Y-130681904D01*
X359238619Y-130643809D01*
X359276714Y-130605714D01*
X359657666Y-132802857D02*
X359924333Y-132802857D01*
X359924333Y-133221904D02*
X359924333Y-132421904D01*
X359543380Y-132421904D01*
X358895761Y-132421904D02*
X359048142Y-132421904D01*
X359124333Y-132460000D01*
X359162428Y-132498095D01*
X359238619Y-132612380D01*
X359276714Y-132764761D01*
X359276714Y-133069523D01*
X359238619Y-133145714D01*
X359200523Y-133183809D01*
X359124333Y-133221904D01*
X358971952Y-133221904D01*
X358895761Y-133183809D01*
X358857666Y-133145714D01*
X358819571Y-133069523D01*
X358819571Y-132879047D01*
X358857666Y-132802857D01*
X358895761Y-132764761D01*
X358971952Y-132726666D01*
X359124333Y-132726666D01*
X359200523Y-132764761D01*
X359238619Y-132802857D01*
X359276714Y-132879047D01*
X359657666Y-135342857D02*
X359924333Y-135342857D01*
X359924333Y-135761904D02*
X359924333Y-134961904D01*
X359543380Y-134961904D01*
X359314809Y-134961904D02*
X358781476Y-134961904D01*
X359124333Y-135761904D01*
X359714809Y-142962857D02*
X359600523Y-143000952D01*
X359562428Y-143039047D01*
X359524333Y-143115238D01*
X359524333Y-143229523D01*
X359562428Y-143305714D01*
X359600523Y-143343809D01*
X359676714Y-143381904D01*
X359981476Y-143381904D01*
X359981476Y-142581904D01*
X359714809Y-142581904D01*
X359638619Y-142620000D01*
X359600523Y-142658095D01*
X359562428Y-142734285D01*
X359562428Y-142810476D01*
X359600523Y-142886666D01*
X359638619Y-142924761D01*
X359714809Y-142962857D01*
X359981476Y-142962857D01*
X359219571Y-142658095D02*
X359181476Y-142620000D01*
X359105285Y-142581904D01*
X358914809Y-142581904D01*
X358838619Y-142620000D01*
X358800523Y-142658095D01*
X358762428Y-142734285D01*
X358762428Y-142810476D01*
X358800523Y-142924761D01*
X359257666Y-143381904D01*
X358762428Y-143381904D01*
X359503333Y-123003809D02*
X359389047Y-123041904D01*
X359198571Y-123041904D01*
X359122380Y-123003809D01*
X359084285Y-122965714D01*
X359046190Y-122889523D01*
X359046190Y-122813333D01*
X359084285Y-122737142D01*
X359122380Y-122699047D01*
X359198571Y-122660952D01*
X359350952Y-122622857D01*
X359427142Y-122584761D01*
X359465238Y-122546666D01*
X359503333Y-122470476D01*
X359503333Y-122394285D01*
X359465238Y-122318095D01*
X359427142Y-122280000D01*
X359350952Y-122241904D01*
X359160476Y-122241904D01*
X359046190Y-122280000D01*
X358817619Y-122241904D02*
X358360476Y-122241904D01*
X358589047Y-123041904D02*
X358589047Y-122241904D01*
X349713333Y-144140000D02*
X349613333Y-144173333D01*
X349580000Y-144206666D01*
X349546666Y-144273333D01*
X349546666Y-144373333D01*
X349580000Y-144440000D01*
X349613333Y-144473333D01*
X349680000Y-144506666D01*
X349946666Y-144506666D01*
X349946666Y-143806666D01*
X349713333Y-143806666D01*
X349646666Y-143840000D01*
X349613333Y-143873333D01*
X349580000Y-143940000D01*
X349580000Y-144006666D01*
X349613333Y-144073333D01*
X349646666Y-144106666D01*
X349713333Y-144140000D01*
X349946666Y-144140000D01*
X349313333Y-143806666D02*
X348846666Y-143806666D01*
X349146666Y-144506666D01*
X349713333Y-144140000D02*
X349613333Y-144173333D01*
X349580000Y-144206666D01*
X349546666Y-144273333D01*
X349546666Y-144373333D01*
X349580000Y-144440000D01*
X349613333Y-144473333D01*
X349680000Y-144506666D01*
X349946666Y-144506666D01*
X349946666Y-143806666D01*
X349713333Y-143806666D01*
X349646666Y-143840000D01*
X349613333Y-143873333D01*
X349580000Y-143940000D01*
X349580000Y-144006666D01*
X349613333Y-144073333D01*
X349646666Y-144106666D01*
X349713333Y-144140000D01*
X349946666Y-144140000D01*
X349313333Y-143806666D02*
X348846666Y-143806666D01*
X349146666Y-144506666D01*
X360494991Y-144054297D02*
X360447851Y-144148578D01*
X360447851Y-144195719D01*
X360471421Y-144266429D01*
X360542132Y-144337140D01*
X360612842Y-144360710D01*
X360659983Y-144360710D01*
X360730693Y-144337140D01*
X360919255Y-144148578D01*
X360424280Y-143653603D01*
X360259289Y-143818595D01*
X360235719Y-143889306D01*
X360235719Y-143936446D01*
X360259289Y-144007157D01*
X360306429Y-144054297D01*
X360377140Y-144077867D01*
X360424280Y-144077867D01*
X360494991Y-144054297D01*
X360659983Y-143889306D01*
X359717174Y-144360710D02*
X359811455Y-144266429D01*
X359882165Y-144242859D01*
X359929306Y-144242859D01*
X360047157Y-144266429D01*
X360165008Y-144337140D01*
X360353570Y-144525702D01*
X360377140Y-144596412D01*
X360377140Y-144643553D01*
X360353570Y-144714264D01*
X360259289Y-144808544D01*
X360188578Y-144832115D01*
X360141438Y-144832115D01*
X360070727Y-144808544D01*
X359952876Y-144690693D01*
X359929306Y-144619983D01*
X359929306Y-144572842D01*
X359952876Y-144502132D01*
X360047157Y-144407851D01*
X360117867Y-144384280D01*
X360165008Y-144384280D01*
X360235719Y-144407851D01*
X360494991Y-144054297D02*
X360447851Y-144148578D01*
X360447851Y-144195719D01*
X360471421Y-144266429D01*
X360542132Y-144337140D01*
X360612842Y-144360710D01*
X360659983Y-144360710D01*
X360730693Y-144337140D01*
X360919255Y-144148578D01*
X360424280Y-143653603D01*
X360259289Y-143818595D01*
X360235719Y-143889306D01*
X360235719Y-143936446D01*
X360259289Y-144007157D01*
X360306429Y-144054297D01*
X360377140Y-144077867D01*
X360424280Y-144077867D01*
X360494991Y-144054297D01*
X360659983Y-143889306D01*
X359717174Y-144360710D02*
X359811455Y-144266429D01*
X359882165Y-144242859D01*
X359929306Y-144242859D01*
X360047157Y-144266429D01*
X360165008Y-144337140D01*
X360353570Y-144525702D01*
X360377140Y-144596412D01*
X360377140Y-144643553D01*
X360353570Y-144714264D01*
X360259289Y-144808544D01*
X360188578Y-144832115D01*
X360141438Y-144832115D01*
X360070727Y-144808544D01*
X359952876Y-144690693D01*
X359929306Y-144619983D01*
X359929306Y-144572842D01*
X359952876Y-144502132D01*
X360047157Y-144407851D01*
X360117867Y-144384280D01*
X360165008Y-144384280D01*
X360235719Y-144407851D01*
X354063333Y-144275714D02*
X354101428Y-144313809D01*
X354215714Y-144351904D01*
X354291904Y-144351904D01*
X354406190Y-144313809D01*
X354482380Y-144237619D01*
X354520476Y-144161428D01*
X354558571Y-144009047D01*
X354558571Y-143894761D01*
X354520476Y-143742380D01*
X354482380Y-143666190D01*
X354406190Y-143590000D01*
X354291904Y-143551904D01*
X354215714Y-143551904D01*
X354101428Y-143590000D01*
X354063333Y-143628095D01*
X353796666Y-143551904D02*
X353263333Y-143551904D01*
X353606190Y-144351904D01*
X354063333Y-144275714D02*
X354101428Y-144313809D01*
X354215714Y-144351904D01*
X354291904Y-144351904D01*
X354406190Y-144313809D01*
X354482380Y-144237619D01*
X354520476Y-144161428D01*
X354558571Y-144009047D01*
X354558571Y-143894761D01*
X354520476Y-143742380D01*
X354482380Y-143666190D01*
X354406190Y-143590000D01*
X354291904Y-143551904D01*
X354215714Y-143551904D01*
X354101428Y-143590000D01*
X354063333Y-143628095D01*
X353796666Y-143551904D02*
X353263333Y-143551904D01*
X353606190Y-144351904D01*
X351980476Y-144351904D02*
X351980476Y-143551904D01*
X351790000Y-143551904D01*
X351675714Y-143590000D01*
X351599523Y-143666190D01*
X351561428Y-143742380D01*
X351523333Y-143894761D01*
X351523333Y-144009047D01*
X351561428Y-144161428D01*
X351599523Y-144237619D01*
X351675714Y-144313809D01*
X351790000Y-144351904D01*
X351980476Y-144351904D01*
X350799523Y-143551904D02*
X351180476Y-143551904D01*
X351218571Y-143932857D01*
X351180476Y-143894761D01*
X351104285Y-143856666D01*
X350913809Y-143856666D01*
X350837619Y-143894761D01*
X350799523Y-143932857D01*
X350761428Y-144009047D01*
X350761428Y-144199523D01*
X350799523Y-144275714D01*
X350837619Y-144313809D01*
X350913809Y-144351904D01*
X351104285Y-144351904D01*
X351180476Y-144313809D01*
X351218571Y-144275714D01*
X351980476Y-144351904D02*
X351980476Y-143551904D01*
X351790000Y-143551904D01*
X351675714Y-143590000D01*
X351599523Y-143666190D01*
X351561428Y-143742380D01*
X351523333Y-143894761D01*
X351523333Y-144009047D01*
X351561428Y-144161428D01*
X351599523Y-144237619D01*
X351675714Y-144313809D01*
X351790000Y-144351904D01*
X351980476Y-144351904D01*
X350799523Y-143551904D02*
X351180476Y-143551904D01*
X351218571Y-143932857D01*
X351180476Y-143894761D01*
X351104285Y-143856666D01*
X350913809Y-143856666D01*
X350837619Y-143894761D01*
X350799523Y-143932857D01*
X350761428Y-144009047D01*
X350761428Y-144199523D01*
X350799523Y-144275714D01*
X350837619Y-144313809D01*
X350913809Y-144351904D01*
X351104285Y-144351904D01*
X351180476Y-144313809D01*
X351218571Y-144275714D01*
%TO.C,KA11*%
X296792857Y-87228380D02*
X296792857Y-86228380D01*
X296221428Y-87228380D02*
X296650000Y-86656952D01*
X296221428Y-86228380D02*
X296792857Y-86799809D01*
X295840476Y-86942666D02*
X295364285Y-86942666D01*
X295935714Y-87228380D02*
X295602380Y-86228380D01*
X295269047Y-87228380D01*
X294411904Y-87228380D02*
X294983333Y-87228380D01*
X294697619Y-87228380D02*
X294697619Y-86228380D01*
X294792857Y-86371238D01*
X294888095Y-86466476D01*
X294983333Y-86514095D01*
X293459523Y-87228380D02*
X294030952Y-87228380D01*
X293745238Y-87228380D02*
X293745238Y-86228380D01*
X293840476Y-86371238D01*
X293935714Y-86466476D01*
X294030952Y-86514095D01*
%TO.C,KE11*%
X313466666Y-168228380D02*
X313466666Y-167228380D01*
X312895238Y-168228380D02*
X313323809Y-167656952D01*
X312895238Y-167228380D02*
X313466666Y-167799809D01*
X312466666Y-167704571D02*
X312133333Y-167704571D01*
X311990476Y-168228380D02*
X312466666Y-168228380D01*
X312466666Y-167228380D01*
X311990476Y-167228380D01*
X311038095Y-168228380D02*
X311609523Y-168228380D01*
X311323809Y-168228380D02*
X311323809Y-167228380D01*
X311419047Y-167371238D01*
X311514285Y-167466476D01*
X311609523Y-167514095D01*
X310085714Y-168228380D02*
X310657142Y-168228380D01*
X310371428Y-168228380D02*
X310371428Y-167228380D01*
X310466666Y-167371238D01*
X310561904Y-167466476D01*
X310657142Y-167514095D01*
%TO.C,KA0*%
X67716666Y-87228380D02*
X67716666Y-86228380D01*
X67145238Y-87228380D02*
X67573809Y-86656952D01*
X67145238Y-86228380D02*
X67716666Y-86799809D01*
X66764285Y-86942666D02*
X66288095Y-86942666D01*
X66859523Y-87228380D02*
X66526190Y-86228380D01*
X66192857Y-87228380D01*
X65669047Y-86228380D02*
X65573809Y-86228380D01*
X65478571Y-86276000D01*
X65430952Y-86323619D01*
X65383333Y-86418857D01*
X65335714Y-86609333D01*
X65335714Y-86847428D01*
X65383333Y-87037904D01*
X65430952Y-87133142D01*
X65478571Y-87180761D01*
X65573809Y-87228380D01*
X65669047Y-87228380D01*
X65764285Y-87180761D01*
X65811904Y-87133142D01*
X65859523Y-87037904D01*
X65907142Y-86847428D01*
X65907142Y-86609333D01*
X65859523Y-86418857D01*
X65811904Y-86323619D01*
X65764285Y-86276000D01*
X65669047Y-86228380D01*
%TO.C,KA1*%
X96316666Y-87228380D02*
X96316666Y-86228380D01*
X95745238Y-87228380D02*
X96173809Y-86656952D01*
X95745238Y-86228380D02*
X96316666Y-86799809D01*
X95364285Y-86942666D02*
X94888095Y-86942666D01*
X95459523Y-87228380D02*
X95126190Y-86228380D01*
X94792857Y-87228380D01*
X93935714Y-87228380D02*
X94507142Y-87228380D01*
X94221428Y-87228380D02*
X94221428Y-86228380D01*
X94316666Y-86371238D01*
X94411904Y-86466476D01*
X94507142Y-86514095D01*
%TO.C,KA2*%
X115316666Y-87228380D02*
X115316666Y-86228380D01*
X114745238Y-87228380D02*
X115173809Y-86656952D01*
X114745238Y-86228380D02*
X115316666Y-86799809D01*
X114364285Y-86942666D02*
X113888095Y-86942666D01*
X114459523Y-87228380D02*
X114126190Y-86228380D01*
X113792857Y-87228380D01*
X113507142Y-86323619D02*
X113459523Y-86276000D01*
X113364285Y-86228380D01*
X113126190Y-86228380D01*
X113030952Y-86276000D01*
X112983333Y-86323619D01*
X112935714Y-86418857D01*
X112935714Y-86514095D01*
X112983333Y-86656952D01*
X113554761Y-87228380D01*
X112935714Y-87228380D01*
%TO.C,KA3*%
X134366666Y-87228380D02*
X134366666Y-86228380D01*
X133795238Y-87228380D02*
X134223809Y-86656952D01*
X133795238Y-86228380D02*
X134366666Y-86799809D01*
X133414285Y-86942666D02*
X132938095Y-86942666D01*
X133509523Y-87228380D02*
X133176190Y-86228380D01*
X132842857Y-87228380D01*
X132604761Y-86228380D02*
X131985714Y-86228380D01*
X132319047Y-86609333D01*
X132176190Y-86609333D01*
X132080952Y-86656952D01*
X132033333Y-86704571D01*
X131985714Y-86799809D01*
X131985714Y-87037904D01*
X132033333Y-87133142D01*
X132080952Y-87180761D01*
X132176190Y-87228380D01*
X132461904Y-87228380D01*
X132557142Y-87180761D01*
X132604761Y-87133142D01*
%TO.C,KA4*%
X153466666Y-87228380D02*
X153466666Y-86228380D01*
X152895238Y-87228380D02*
X153323809Y-86656952D01*
X152895238Y-86228380D02*
X153466666Y-86799809D01*
X152514285Y-86942666D02*
X152038095Y-86942666D01*
X152609523Y-87228380D02*
X152276190Y-86228380D01*
X151942857Y-87228380D01*
X151180952Y-86561714D02*
X151180952Y-87228380D01*
X151419047Y-86180761D02*
X151657142Y-86895047D01*
X151038095Y-86895047D01*
%TO.C,KA5*%
X177266666Y-87228380D02*
X177266666Y-86228380D01*
X176695238Y-87228380D02*
X177123809Y-86656952D01*
X176695238Y-86228380D02*
X177266666Y-86799809D01*
X176314285Y-86942666D02*
X175838095Y-86942666D01*
X176409523Y-87228380D02*
X176076190Y-86228380D01*
X175742857Y-87228380D01*
X174933333Y-86228380D02*
X175409523Y-86228380D01*
X175457142Y-86704571D01*
X175409523Y-86656952D01*
X175314285Y-86609333D01*
X175076190Y-86609333D01*
X174980952Y-86656952D01*
X174933333Y-86704571D01*
X174885714Y-86799809D01*
X174885714Y-87037904D01*
X174933333Y-87133142D01*
X174980952Y-87180761D01*
X175076190Y-87228380D01*
X175314285Y-87228380D01*
X175409523Y-87180761D01*
X175457142Y-87133142D01*
%TO.C,KA6*%
X196316666Y-87228380D02*
X196316666Y-86228380D01*
X195745238Y-87228380D02*
X196173809Y-86656952D01*
X195745238Y-86228380D02*
X196316666Y-86799809D01*
X195364285Y-86942666D02*
X194888095Y-86942666D01*
X195459523Y-87228380D02*
X195126190Y-86228380D01*
X194792857Y-87228380D01*
X194030952Y-86228380D02*
X194221428Y-86228380D01*
X194316666Y-86276000D01*
X194364285Y-86323619D01*
X194459523Y-86466476D01*
X194507142Y-86656952D01*
X194507142Y-87037904D01*
X194459523Y-87133142D01*
X194411904Y-87180761D01*
X194316666Y-87228380D01*
X194126190Y-87228380D01*
X194030952Y-87180761D01*
X193983333Y-87133142D01*
X193935714Y-87037904D01*
X193935714Y-86799809D01*
X193983333Y-86704571D01*
X194030952Y-86656952D01*
X194126190Y-86609333D01*
X194316666Y-86609333D01*
X194411904Y-86656952D01*
X194459523Y-86704571D01*
X194507142Y-86799809D01*
%TO.C,KA7*%
X215366666Y-87228380D02*
X215366666Y-86228380D01*
X214795238Y-87228380D02*
X215223809Y-86656952D01*
X214795238Y-86228380D02*
X215366666Y-86799809D01*
X214414285Y-86942666D02*
X213938095Y-86942666D01*
X214509523Y-87228380D02*
X214176190Y-86228380D01*
X213842857Y-87228380D01*
X213604761Y-86228380D02*
X212938095Y-86228380D01*
X213366666Y-87228380D01*
%TO.C,KA8*%
X234416666Y-87278380D02*
X234416666Y-86278380D01*
X233845238Y-87278380D02*
X234273809Y-86706952D01*
X233845238Y-86278380D02*
X234416666Y-86849809D01*
X233464285Y-86992666D02*
X232988095Y-86992666D01*
X233559523Y-87278380D02*
X233226190Y-86278380D01*
X232892857Y-87278380D01*
X232416666Y-86706952D02*
X232511904Y-86659333D01*
X232559523Y-86611714D01*
X232607142Y-86516476D01*
X232607142Y-86468857D01*
X232559523Y-86373619D01*
X232511904Y-86326000D01*
X232416666Y-86278380D01*
X232226190Y-86278380D01*
X232130952Y-86326000D01*
X232083333Y-86373619D01*
X232035714Y-86468857D01*
X232035714Y-86516476D01*
X232083333Y-86611714D01*
X232130952Y-86659333D01*
X232226190Y-86706952D01*
X232416666Y-86706952D01*
X232511904Y-86754571D01*
X232559523Y-86802190D01*
X232607142Y-86897428D01*
X232607142Y-87087904D01*
X232559523Y-87183142D01*
X232511904Y-87230761D01*
X232416666Y-87278380D01*
X232226190Y-87278380D01*
X232130952Y-87230761D01*
X232083333Y-87183142D01*
X232035714Y-87087904D01*
X232035714Y-86897428D01*
X232083333Y-86802190D01*
X232130952Y-86754571D01*
X232226190Y-86706952D01*
%TO.C,KA9*%
X258216666Y-87228380D02*
X258216666Y-86228380D01*
X257645238Y-87228380D02*
X258073809Y-86656952D01*
X257645238Y-86228380D02*
X258216666Y-86799809D01*
X257264285Y-86942666D02*
X256788095Y-86942666D01*
X257359523Y-87228380D02*
X257026190Y-86228380D01*
X256692857Y-87228380D01*
X256311904Y-87228380D02*
X256121428Y-87228380D01*
X256026190Y-87180761D01*
X255978571Y-87133142D01*
X255883333Y-86990285D01*
X255835714Y-86799809D01*
X255835714Y-86418857D01*
X255883333Y-86323619D01*
X255930952Y-86276000D01*
X256026190Y-86228380D01*
X256216666Y-86228380D01*
X256311904Y-86276000D01*
X256359523Y-86323619D01*
X256407142Y-86418857D01*
X256407142Y-86656952D01*
X256359523Y-86752190D01*
X256311904Y-86799809D01*
X256216666Y-86847428D01*
X256026190Y-86847428D01*
X255930952Y-86799809D01*
X255883333Y-86752190D01*
X255835714Y-86656952D01*
%TO.C,KA10*%
X277742857Y-87228380D02*
X277742857Y-86228380D01*
X277171428Y-87228380D02*
X277600000Y-86656952D01*
X277171428Y-86228380D02*
X277742857Y-86799809D01*
X276790476Y-86942666D02*
X276314285Y-86942666D01*
X276885714Y-87228380D02*
X276552380Y-86228380D01*
X276219047Y-87228380D01*
X275361904Y-87228380D02*
X275933333Y-87228380D01*
X275647619Y-87228380D02*
X275647619Y-86228380D01*
X275742857Y-86371238D01*
X275838095Y-86466476D01*
X275933333Y-86514095D01*
X274742857Y-86228380D02*
X274647619Y-86228380D01*
X274552380Y-86276000D01*
X274504761Y-86323619D01*
X274457142Y-86418857D01*
X274409523Y-86609333D01*
X274409523Y-86847428D01*
X274457142Y-87037904D01*
X274504761Y-87133142D01*
X274552380Y-87180761D01*
X274647619Y-87228380D01*
X274742857Y-87228380D01*
X274838095Y-87180761D01*
X274885714Y-87133142D01*
X274933333Y-87037904D01*
X274980952Y-86847428D01*
X274980952Y-86609333D01*
X274933333Y-86418857D01*
X274885714Y-86323619D01*
X274838095Y-86276000D01*
X274742857Y-86228380D01*
%TO.C,KA12*%
X315792857Y-87228380D02*
X315792857Y-86228380D01*
X315221428Y-87228380D02*
X315650000Y-86656952D01*
X315221428Y-86228380D02*
X315792857Y-86799809D01*
X314840476Y-86942666D02*
X314364285Y-86942666D01*
X314935714Y-87228380D02*
X314602380Y-86228380D01*
X314269047Y-87228380D01*
X313411904Y-87228380D02*
X313983333Y-87228380D01*
X313697619Y-87228380D02*
X313697619Y-86228380D01*
X313792857Y-86371238D01*
X313888095Y-86466476D01*
X313983333Y-86514095D01*
X313030952Y-86323619D02*
X312983333Y-86276000D01*
X312888095Y-86228380D01*
X312650000Y-86228380D01*
X312554761Y-86276000D01*
X312507142Y-86323619D01*
X312459523Y-86418857D01*
X312459523Y-86514095D01*
X312507142Y-86656952D01*
X313078571Y-87228380D01*
X312459523Y-87228380D01*
%TO.C,KB0*%
X67788095Y-111028380D02*
X67788095Y-110028380D01*
X67216666Y-111028380D02*
X67645238Y-110456952D01*
X67216666Y-110028380D02*
X67788095Y-110599809D01*
X66454761Y-110504571D02*
X66311904Y-110552190D01*
X66264285Y-110599809D01*
X66216666Y-110695047D01*
X66216666Y-110837904D01*
X66264285Y-110933142D01*
X66311904Y-110980761D01*
X66407142Y-111028380D01*
X66788095Y-111028380D01*
X66788095Y-110028380D01*
X66454761Y-110028380D01*
X66359523Y-110076000D01*
X66311904Y-110123619D01*
X66264285Y-110218857D01*
X66264285Y-110314095D01*
X66311904Y-110409333D01*
X66359523Y-110456952D01*
X66454761Y-110504571D01*
X66788095Y-110504571D01*
X65597619Y-110028380D02*
X65502380Y-110028380D01*
X65407142Y-110076000D01*
X65359523Y-110123619D01*
X65311904Y-110218857D01*
X65264285Y-110409333D01*
X65264285Y-110647428D01*
X65311904Y-110837904D01*
X65359523Y-110933142D01*
X65407142Y-110980761D01*
X65502380Y-111028380D01*
X65597619Y-111028380D01*
X65692857Y-110980761D01*
X65740476Y-110933142D01*
X65788095Y-110837904D01*
X65835714Y-110647428D01*
X65835714Y-110409333D01*
X65788095Y-110218857D01*
X65740476Y-110123619D01*
X65692857Y-110076000D01*
X65597619Y-110028380D01*
%TO.C,KB1*%
X86838095Y-111028380D02*
X86838095Y-110028380D01*
X86266666Y-111028380D02*
X86695238Y-110456952D01*
X86266666Y-110028380D02*
X86838095Y-110599809D01*
X85504761Y-110504571D02*
X85361904Y-110552190D01*
X85314285Y-110599809D01*
X85266666Y-110695047D01*
X85266666Y-110837904D01*
X85314285Y-110933142D01*
X85361904Y-110980761D01*
X85457142Y-111028380D01*
X85838095Y-111028380D01*
X85838095Y-110028380D01*
X85504761Y-110028380D01*
X85409523Y-110076000D01*
X85361904Y-110123619D01*
X85314285Y-110218857D01*
X85314285Y-110314095D01*
X85361904Y-110409333D01*
X85409523Y-110456952D01*
X85504761Y-110504571D01*
X85838095Y-110504571D01*
X84314285Y-111028380D02*
X84885714Y-111028380D01*
X84600000Y-111028380D02*
X84600000Y-110028380D01*
X84695238Y-110171238D01*
X84790476Y-110266476D01*
X84885714Y-110314095D01*
%TO.C,KB2*%
X105888095Y-111028380D02*
X105888095Y-110028380D01*
X105316666Y-111028380D02*
X105745238Y-110456952D01*
X105316666Y-110028380D02*
X105888095Y-110599809D01*
X104554761Y-110504571D02*
X104411904Y-110552190D01*
X104364285Y-110599809D01*
X104316666Y-110695047D01*
X104316666Y-110837904D01*
X104364285Y-110933142D01*
X104411904Y-110980761D01*
X104507142Y-111028380D01*
X104888095Y-111028380D01*
X104888095Y-110028380D01*
X104554761Y-110028380D01*
X104459523Y-110076000D01*
X104411904Y-110123619D01*
X104364285Y-110218857D01*
X104364285Y-110314095D01*
X104411904Y-110409333D01*
X104459523Y-110456952D01*
X104554761Y-110504571D01*
X104888095Y-110504571D01*
X103935714Y-110123619D02*
X103888095Y-110076000D01*
X103792857Y-110028380D01*
X103554761Y-110028380D01*
X103459523Y-110076000D01*
X103411904Y-110123619D01*
X103364285Y-110218857D01*
X103364285Y-110314095D01*
X103411904Y-110456952D01*
X103983333Y-111028380D01*
X103364285Y-111028380D01*
%TO.C,KB3*%
X124938095Y-111028380D02*
X124938095Y-110028380D01*
X124366666Y-111028380D02*
X124795238Y-110456952D01*
X124366666Y-110028380D02*
X124938095Y-110599809D01*
X123604761Y-110504571D02*
X123461904Y-110552190D01*
X123414285Y-110599809D01*
X123366666Y-110695047D01*
X123366666Y-110837904D01*
X123414285Y-110933142D01*
X123461904Y-110980761D01*
X123557142Y-111028380D01*
X123938095Y-111028380D01*
X123938095Y-110028380D01*
X123604761Y-110028380D01*
X123509523Y-110076000D01*
X123461904Y-110123619D01*
X123414285Y-110218857D01*
X123414285Y-110314095D01*
X123461904Y-110409333D01*
X123509523Y-110456952D01*
X123604761Y-110504571D01*
X123938095Y-110504571D01*
X123033333Y-110028380D02*
X122414285Y-110028380D01*
X122747619Y-110409333D01*
X122604761Y-110409333D01*
X122509523Y-110456952D01*
X122461904Y-110504571D01*
X122414285Y-110599809D01*
X122414285Y-110837904D01*
X122461904Y-110933142D01*
X122509523Y-110980761D01*
X122604761Y-111028380D01*
X122890476Y-111028380D01*
X122985714Y-110980761D01*
X123033333Y-110933142D01*
%TO.C,KB4*%
X143988095Y-111028380D02*
X143988095Y-110028380D01*
X143416666Y-111028380D02*
X143845238Y-110456952D01*
X143416666Y-110028380D02*
X143988095Y-110599809D01*
X142654761Y-110504571D02*
X142511904Y-110552190D01*
X142464285Y-110599809D01*
X142416666Y-110695047D01*
X142416666Y-110837904D01*
X142464285Y-110933142D01*
X142511904Y-110980761D01*
X142607142Y-111028380D01*
X142988095Y-111028380D01*
X142988095Y-110028380D01*
X142654761Y-110028380D01*
X142559523Y-110076000D01*
X142511904Y-110123619D01*
X142464285Y-110218857D01*
X142464285Y-110314095D01*
X142511904Y-110409333D01*
X142559523Y-110456952D01*
X142654761Y-110504571D01*
X142988095Y-110504571D01*
X141559523Y-110361714D02*
X141559523Y-111028380D01*
X141797619Y-109980761D02*
X142035714Y-110695047D01*
X141416666Y-110695047D01*
%TO.C,KB5*%
X163038095Y-111028380D02*
X163038095Y-110028380D01*
X162466666Y-111028380D02*
X162895238Y-110456952D01*
X162466666Y-110028380D02*
X163038095Y-110599809D01*
X161704761Y-110504571D02*
X161561904Y-110552190D01*
X161514285Y-110599809D01*
X161466666Y-110695047D01*
X161466666Y-110837904D01*
X161514285Y-110933142D01*
X161561904Y-110980761D01*
X161657142Y-111028380D01*
X162038095Y-111028380D01*
X162038095Y-110028380D01*
X161704761Y-110028380D01*
X161609523Y-110076000D01*
X161561904Y-110123619D01*
X161514285Y-110218857D01*
X161514285Y-110314095D01*
X161561904Y-110409333D01*
X161609523Y-110456952D01*
X161704761Y-110504571D01*
X162038095Y-110504571D01*
X160561904Y-110028380D02*
X161038095Y-110028380D01*
X161085714Y-110504571D01*
X161038095Y-110456952D01*
X160942857Y-110409333D01*
X160704761Y-110409333D01*
X160609523Y-110456952D01*
X160561904Y-110504571D01*
X160514285Y-110599809D01*
X160514285Y-110837904D01*
X160561904Y-110933142D01*
X160609523Y-110980761D01*
X160704761Y-111028380D01*
X160942857Y-111028380D01*
X161038095Y-110980761D01*
X161085714Y-110933142D01*
%TO.C,KB6*%
X182088095Y-111028380D02*
X182088095Y-110028380D01*
X181516666Y-111028380D02*
X181945238Y-110456952D01*
X181516666Y-110028380D02*
X182088095Y-110599809D01*
X180754761Y-110504571D02*
X180611904Y-110552190D01*
X180564285Y-110599809D01*
X180516666Y-110695047D01*
X180516666Y-110837904D01*
X180564285Y-110933142D01*
X180611904Y-110980761D01*
X180707142Y-111028380D01*
X181088095Y-111028380D01*
X181088095Y-110028380D01*
X180754761Y-110028380D01*
X180659523Y-110076000D01*
X180611904Y-110123619D01*
X180564285Y-110218857D01*
X180564285Y-110314095D01*
X180611904Y-110409333D01*
X180659523Y-110456952D01*
X180754761Y-110504571D01*
X181088095Y-110504571D01*
X179659523Y-110028380D02*
X179850000Y-110028380D01*
X179945238Y-110076000D01*
X179992857Y-110123619D01*
X180088095Y-110266476D01*
X180135714Y-110456952D01*
X180135714Y-110837904D01*
X180088095Y-110933142D01*
X180040476Y-110980761D01*
X179945238Y-111028380D01*
X179754761Y-111028380D01*
X179659523Y-110980761D01*
X179611904Y-110933142D01*
X179564285Y-110837904D01*
X179564285Y-110599809D01*
X179611904Y-110504571D01*
X179659523Y-110456952D01*
X179754761Y-110409333D01*
X179945238Y-110409333D01*
X180040476Y-110456952D01*
X180088095Y-110504571D01*
X180135714Y-110599809D01*
%TO.C,KB7*%
X201138095Y-111028380D02*
X201138095Y-110028380D01*
X200566666Y-111028380D02*
X200995238Y-110456952D01*
X200566666Y-110028380D02*
X201138095Y-110599809D01*
X199804761Y-110504571D02*
X199661904Y-110552190D01*
X199614285Y-110599809D01*
X199566666Y-110695047D01*
X199566666Y-110837904D01*
X199614285Y-110933142D01*
X199661904Y-110980761D01*
X199757142Y-111028380D01*
X200138095Y-111028380D01*
X200138095Y-110028380D01*
X199804761Y-110028380D01*
X199709523Y-110076000D01*
X199661904Y-110123619D01*
X199614285Y-110218857D01*
X199614285Y-110314095D01*
X199661904Y-110409333D01*
X199709523Y-110456952D01*
X199804761Y-110504571D01*
X200138095Y-110504571D01*
X199233333Y-110028380D02*
X198566666Y-110028380D01*
X198995238Y-111028380D01*
%TO.C,KB8*%
X220188095Y-111028380D02*
X220188095Y-110028380D01*
X219616666Y-111028380D02*
X220045238Y-110456952D01*
X219616666Y-110028380D02*
X220188095Y-110599809D01*
X218854761Y-110504571D02*
X218711904Y-110552190D01*
X218664285Y-110599809D01*
X218616666Y-110695047D01*
X218616666Y-110837904D01*
X218664285Y-110933142D01*
X218711904Y-110980761D01*
X218807142Y-111028380D01*
X219188095Y-111028380D01*
X219188095Y-110028380D01*
X218854761Y-110028380D01*
X218759523Y-110076000D01*
X218711904Y-110123619D01*
X218664285Y-110218857D01*
X218664285Y-110314095D01*
X218711904Y-110409333D01*
X218759523Y-110456952D01*
X218854761Y-110504571D01*
X219188095Y-110504571D01*
X218045238Y-110456952D02*
X218140476Y-110409333D01*
X218188095Y-110361714D01*
X218235714Y-110266476D01*
X218235714Y-110218857D01*
X218188095Y-110123619D01*
X218140476Y-110076000D01*
X218045238Y-110028380D01*
X217854761Y-110028380D01*
X217759523Y-110076000D01*
X217711904Y-110123619D01*
X217664285Y-110218857D01*
X217664285Y-110266476D01*
X217711904Y-110361714D01*
X217759523Y-110409333D01*
X217854761Y-110456952D01*
X218045238Y-110456952D01*
X218140476Y-110504571D01*
X218188095Y-110552190D01*
X218235714Y-110647428D01*
X218235714Y-110837904D01*
X218188095Y-110933142D01*
X218140476Y-110980761D01*
X218045238Y-111028380D01*
X217854761Y-111028380D01*
X217759523Y-110980761D01*
X217711904Y-110933142D01*
X217664285Y-110837904D01*
X217664285Y-110647428D01*
X217711904Y-110552190D01*
X217759523Y-110504571D01*
X217854761Y-110456952D01*
%TO.C,KB9*%
X239238095Y-111028380D02*
X239238095Y-110028380D01*
X238666666Y-111028380D02*
X239095238Y-110456952D01*
X238666666Y-110028380D02*
X239238095Y-110599809D01*
X237904761Y-110504571D02*
X237761904Y-110552190D01*
X237714285Y-110599809D01*
X237666666Y-110695047D01*
X237666666Y-110837904D01*
X237714285Y-110933142D01*
X237761904Y-110980761D01*
X237857142Y-111028380D01*
X238238095Y-111028380D01*
X238238095Y-110028380D01*
X237904761Y-110028380D01*
X237809523Y-110076000D01*
X237761904Y-110123619D01*
X237714285Y-110218857D01*
X237714285Y-110314095D01*
X237761904Y-110409333D01*
X237809523Y-110456952D01*
X237904761Y-110504571D01*
X238238095Y-110504571D01*
X237190476Y-111028380D02*
X237000000Y-111028380D01*
X236904761Y-110980761D01*
X236857142Y-110933142D01*
X236761904Y-110790285D01*
X236714285Y-110599809D01*
X236714285Y-110218857D01*
X236761904Y-110123619D01*
X236809523Y-110076000D01*
X236904761Y-110028380D01*
X237095238Y-110028380D01*
X237190476Y-110076000D01*
X237238095Y-110123619D01*
X237285714Y-110218857D01*
X237285714Y-110456952D01*
X237238095Y-110552190D01*
X237190476Y-110599809D01*
X237095238Y-110647428D01*
X236904761Y-110647428D01*
X236809523Y-110599809D01*
X236761904Y-110552190D01*
X236714285Y-110456952D01*
%TO.C,KB10*%
X258764285Y-111028380D02*
X258764285Y-110028380D01*
X258192857Y-111028380D02*
X258621428Y-110456952D01*
X258192857Y-110028380D02*
X258764285Y-110599809D01*
X257430952Y-110504571D02*
X257288095Y-110552190D01*
X257240476Y-110599809D01*
X257192857Y-110695047D01*
X257192857Y-110837904D01*
X257240476Y-110933142D01*
X257288095Y-110980761D01*
X257383333Y-111028380D01*
X257764285Y-111028380D01*
X257764285Y-110028380D01*
X257430952Y-110028380D01*
X257335714Y-110076000D01*
X257288095Y-110123619D01*
X257240476Y-110218857D01*
X257240476Y-110314095D01*
X257288095Y-110409333D01*
X257335714Y-110456952D01*
X257430952Y-110504571D01*
X257764285Y-110504571D01*
X256240476Y-111028380D02*
X256811904Y-111028380D01*
X256526190Y-111028380D02*
X256526190Y-110028380D01*
X256621428Y-110171238D01*
X256716666Y-110266476D01*
X256811904Y-110314095D01*
X255621428Y-110028380D02*
X255526190Y-110028380D01*
X255430952Y-110076000D01*
X255383333Y-110123619D01*
X255335714Y-110218857D01*
X255288095Y-110409333D01*
X255288095Y-110647428D01*
X255335714Y-110837904D01*
X255383333Y-110933142D01*
X255430952Y-110980761D01*
X255526190Y-111028380D01*
X255621428Y-111028380D01*
X255716666Y-110980761D01*
X255764285Y-110933142D01*
X255811904Y-110837904D01*
X255859523Y-110647428D01*
X255859523Y-110409333D01*
X255811904Y-110218857D01*
X255764285Y-110123619D01*
X255716666Y-110076000D01*
X255621428Y-110028380D01*
%TO.C,KB11*%
X277814285Y-111028380D02*
X277814285Y-110028380D01*
X277242857Y-111028380D02*
X277671428Y-110456952D01*
X277242857Y-110028380D02*
X277814285Y-110599809D01*
X276480952Y-110504571D02*
X276338095Y-110552190D01*
X276290476Y-110599809D01*
X276242857Y-110695047D01*
X276242857Y-110837904D01*
X276290476Y-110933142D01*
X276338095Y-110980761D01*
X276433333Y-111028380D01*
X276814285Y-111028380D01*
X276814285Y-110028380D01*
X276480952Y-110028380D01*
X276385714Y-110076000D01*
X276338095Y-110123619D01*
X276290476Y-110218857D01*
X276290476Y-110314095D01*
X276338095Y-110409333D01*
X276385714Y-110456952D01*
X276480952Y-110504571D01*
X276814285Y-110504571D01*
X275290476Y-111028380D02*
X275861904Y-111028380D01*
X275576190Y-111028380D02*
X275576190Y-110028380D01*
X275671428Y-110171238D01*
X275766666Y-110266476D01*
X275861904Y-110314095D01*
X274338095Y-111028380D02*
X274909523Y-111028380D01*
X274623809Y-111028380D02*
X274623809Y-110028380D01*
X274719047Y-110171238D01*
X274814285Y-110266476D01*
X274909523Y-110314095D01*
%TO.C,KB12*%
X296864285Y-111028380D02*
X296864285Y-110028380D01*
X296292857Y-111028380D02*
X296721428Y-110456952D01*
X296292857Y-110028380D02*
X296864285Y-110599809D01*
X295530952Y-110504571D02*
X295388095Y-110552190D01*
X295340476Y-110599809D01*
X295292857Y-110695047D01*
X295292857Y-110837904D01*
X295340476Y-110933142D01*
X295388095Y-110980761D01*
X295483333Y-111028380D01*
X295864285Y-111028380D01*
X295864285Y-110028380D01*
X295530952Y-110028380D01*
X295435714Y-110076000D01*
X295388095Y-110123619D01*
X295340476Y-110218857D01*
X295340476Y-110314095D01*
X295388095Y-110409333D01*
X295435714Y-110456952D01*
X295530952Y-110504571D01*
X295864285Y-110504571D01*
X294340476Y-111028380D02*
X294911904Y-111028380D01*
X294626190Y-111028380D02*
X294626190Y-110028380D01*
X294721428Y-110171238D01*
X294816666Y-110266476D01*
X294911904Y-110314095D01*
X293959523Y-110123619D02*
X293911904Y-110076000D01*
X293816666Y-110028380D01*
X293578571Y-110028380D01*
X293483333Y-110076000D01*
X293435714Y-110123619D01*
X293388095Y-110218857D01*
X293388095Y-110314095D01*
X293435714Y-110456952D01*
X294007142Y-111028380D01*
X293388095Y-111028380D01*
%TO.C,KC1*%
X96338095Y-130128380D02*
X96338095Y-129128380D01*
X95766666Y-130128380D02*
X96195238Y-129556952D01*
X95766666Y-129128380D02*
X96338095Y-129699809D01*
X94766666Y-130033142D02*
X94814285Y-130080761D01*
X94957142Y-130128380D01*
X95052380Y-130128380D01*
X95195238Y-130080761D01*
X95290476Y-129985523D01*
X95338095Y-129890285D01*
X95385714Y-129699809D01*
X95385714Y-129556952D01*
X95338095Y-129366476D01*
X95290476Y-129271238D01*
X95195238Y-129176000D01*
X95052380Y-129128380D01*
X94957142Y-129128380D01*
X94814285Y-129176000D01*
X94766666Y-129223619D01*
X93814285Y-130128380D02*
X94385714Y-130128380D01*
X94100000Y-130128380D02*
X94100000Y-129128380D01*
X94195238Y-129271238D01*
X94290476Y-129366476D01*
X94385714Y-129414095D01*
%TO.C,KC2*%
X115388095Y-130128380D02*
X115388095Y-129128380D01*
X114816666Y-130128380D02*
X115245238Y-129556952D01*
X114816666Y-129128380D02*
X115388095Y-129699809D01*
X113816666Y-130033142D02*
X113864285Y-130080761D01*
X114007142Y-130128380D01*
X114102380Y-130128380D01*
X114245238Y-130080761D01*
X114340476Y-129985523D01*
X114388095Y-129890285D01*
X114435714Y-129699809D01*
X114435714Y-129556952D01*
X114388095Y-129366476D01*
X114340476Y-129271238D01*
X114245238Y-129176000D01*
X114102380Y-129128380D01*
X114007142Y-129128380D01*
X113864285Y-129176000D01*
X113816666Y-129223619D01*
X113435714Y-129223619D02*
X113388095Y-129176000D01*
X113292857Y-129128380D01*
X113054761Y-129128380D01*
X112959523Y-129176000D01*
X112911904Y-129223619D01*
X112864285Y-129318857D01*
X112864285Y-129414095D01*
X112911904Y-129556952D01*
X113483333Y-130128380D01*
X112864285Y-130128380D01*
%TO.C,KC3*%
X134438095Y-130128380D02*
X134438095Y-129128380D01*
X133866666Y-130128380D02*
X134295238Y-129556952D01*
X133866666Y-129128380D02*
X134438095Y-129699809D01*
X132866666Y-130033142D02*
X132914285Y-130080761D01*
X133057142Y-130128380D01*
X133152380Y-130128380D01*
X133295238Y-130080761D01*
X133390476Y-129985523D01*
X133438095Y-129890285D01*
X133485714Y-129699809D01*
X133485714Y-129556952D01*
X133438095Y-129366476D01*
X133390476Y-129271238D01*
X133295238Y-129176000D01*
X133152380Y-129128380D01*
X133057142Y-129128380D01*
X132914285Y-129176000D01*
X132866666Y-129223619D01*
X132533333Y-129128380D02*
X131914285Y-129128380D01*
X132247619Y-129509333D01*
X132104761Y-129509333D01*
X132009523Y-129556952D01*
X131961904Y-129604571D01*
X131914285Y-129699809D01*
X131914285Y-129937904D01*
X131961904Y-130033142D01*
X132009523Y-130080761D01*
X132104761Y-130128380D01*
X132390476Y-130128380D01*
X132485714Y-130080761D01*
X132533333Y-130033142D01*
%TO.C,KC4*%
X153488095Y-130128380D02*
X153488095Y-129128380D01*
X152916666Y-130128380D02*
X153345238Y-129556952D01*
X152916666Y-129128380D02*
X153488095Y-129699809D01*
X151916666Y-130033142D02*
X151964285Y-130080761D01*
X152107142Y-130128380D01*
X152202380Y-130128380D01*
X152345238Y-130080761D01*
X152440476Y-129985523D01*
X152488095Y-129890285D01*
X152535714Y-129699809D01*
X152535714Y-129556952D01*
X152488095Y-129366476D01*
X152440476Y-129271238D01*
X152345238Y-129176000D01*
X152202380Y-129128380D01*
X152107142Y-129128380D01*
X151964285Y-129176000D01*
X151916666Y-129223619D01*
X151059523Y-129461714D02*
X151059523Y-130128380D01*
X151297619Y-129080761D02*
X151535714Y-129795047D01*
X150916666Y-129795047D01*
%TO.C,KC5*%
X172538095Y-130128380D02*
X172538095Y-129128380D01*
X171966666Y-130128380D02*
X172395238Y-129556952D01*
X171966666Y-129128380D02*
X172538095Y-129699809D01*
X170966666Y-130033142D02*
X171014285Y-130080761D01*
X171157142Y-130128380D01*
X171252380Y-130128380D01*
X171395238Y-130080761D01*
X171490476Y-129985523D01*
X171538095Y-129890285D01*
X171585714Y-129699809D01*
X171585714Y-129556952D01*
X171538095Y-129366476D01*
X171490476Y-129271238D01*
X171395238Y-129176000D01*
X171252380Y-129128380D01*
X171157142Y-129128380D01*
X171014285Y-129176000D01*
X170966666Y-129223619D01*
X170061904Y-129128380D02*
X170538095Y-129128380D01*
X170585714Y-129604571D01*
X170538095Y-129556952D01*
X170442857Y-129509333D01*
X170204761Y-129509333D01*
X170109523Y-129556952D01*
X170061904Y-129604571D01*
X170014285Y-129699809D01*
X170014285Y-129937904D01*
X170061904Y-130033142D01*
X170109523Y-130080761D01*
X170204761Y-130128380D01*
X170442857Y-130128380D01*
X170538095Y-130080761D01*
X170585714Y-130033142D01*
%TO.C,KC6*%
X191588095Y-130128380D02*
X191588095Y-129128380D01*
X191016666Y-130128380D02*
X191445238Y-129556952D01*
X191016666Y-129128380D02*
X191588095Y-129699809D01*
X190016666Y-130033142D02*
X190064285Y-130080761D01*
X190207142Y-130128380D01*
X190302380Y-130128380D01*
X190445238Y-130080761D01*
X190540476Y-129985523D01*
X190588095Y-129890285D01*
X190635714Y-129699809D01*
X190635714Y-129556952D01*
X190588095Y-129366476D01*
X190540476Y-129271238D01*
X190445238Y-129176000D01*
X190302380Y-129128380D01*
X190207142Y-129128380D01*
X190064285Y-129176000D01*
X190016666Y-129223619D01*
X189159523Y-129128380D02*
X189350000Y-129128380D01*
X189445238Y-129176000D01*
X189492857Y-129223619D01*
X189588095Y-129366476D01*
X189635714Y-129556952D01*
X189635714Y-129937904D01*
X189588095Y-130033142D01*
X189540476Y-130080761D01*
X189445238Y-130128380D01*
X189254761Y-130128380D01*
X189159523Y-130080761D01*
X189111904Y-130033142D01*
X189064285Y-129937904D01*
X189064285Y-129699809D01*
X189111904Y-129604571D01*
X189159523Y-129556952D01*
X189254761Y-129509333D01*
X189445238Y-129509333D01*
X189540476Y-129556952D01*
X189588095Y-129604571D01*
X189635714Y-129699809D01*
%TO.C,KC7*%
X210638095Y-130128380D02*
X210638095Y-129128380D01*
X210066666Y-130128380D02*
X210495238Y-129556952D01*
X210066666Y-129128380D02*
X210638095Y-129699809D01*
X209066666Y-130033142D02*
X209114285Y-130080761D01*
X209257142Y-130128380D01*
X209352380Y-130128380D01*
X209495238Y-130080761D01*
X209590476Y-129985523D01*
X209638095Y-129890285D01*
X209685714Y-129699809D01*
X209685714Y-129556952D01*
X209638095Y-129366476D01*
X209590476Y-129271238D01*
X209495238Y-129176000D01*
X209352380Y-129128380D01*
X209257142Y-129128380D01*
X209114285Y-129176000D01*
X209066666Y-129223619D01*
X208733333Y-129128380D02*
X208066666Y-129128380D01*
X208495238Y-130128380D01*
%TO.C,KC8*%
X229688095Y-130128380D02*
X229688095Y-129128380D01*
X229116666Y-130128380D02*
X229545238Y-129556952D01*
X229116666Y-129128380D02*
X229688095Y-129699809D01*
X228116666Y-130033142D02*
X228164285Y-130080761D01*
X228307142Y-130128380D01*
X228402380Y-130128380D01*
X228545238Y-130080761D01*
X228640476Y-129985523D01*
X228688095Y-129890285D01*
X228735714Y-129699809D01*
X228735714Y-129556952D01*
X228688095Y-129366476D01*
X228640476Y-129271238D01*
X228545238Y-129176000D01*
X228402380Y-129128380D01*
X228307142Y-129128380D01*
X228164285Y-129176000D01*
X228116666Y-129223619D01*
X227545238Y-129556952D02*
X227640476Y-129509333D01*
X227688095Y-129461714D01*
X227735714Y-129366476D01*
X227735714Y-129318857D01*
X227688095Y-129223619D01*
X227640476Y-129176000D01*
X227545238Y-129128380D01*
X227354761Y-129128380D01*
X227259523Y-129176000D01*
X227211904Y-129223619D01*
X227164285Y-129318857D01*
X227164285Y-129366476D01*
X227211904Y-129461714D01*
X227259523Y-129509333D01*
X227354761Y-129556952D01*
X227545238Y-129556952D01*
X227640476Y-129604571D01*
X227688095Y-129652190D01*
X227735714Y-129747428D01*
X227735714Y-129937904D01*
X227688095Y-130033142D01*
X227640476Y-130080761D01*
X227545238Y-130128380D01*
X227354761Y-130128380D01*
X227259523Y-130080761D01*
X227211904Y-130033142D01*
X227164285Y-129937904D01*
X227164285Y-129747428D01*
X227211904Y-129652190D01*
X227259523Y-129604571D01*
X227354761Y-129556952D01*
%TO.C,KC9*%
X248788095Y-130128380D02*
X248788095Y-129128380D01*
X248216666Y-130128380D02*
X248645238Y-129556952D01*
X248216666Y-129128380D02*
X248788095Y-129699809D01*
X247216666Y-130033142D02*
X247264285Y-130080761D01*
X247407142Y-130128380D01*
X247502380Y-130128380D01*
X247645238Y-130080761D01*
X247740476Y-129985523D01*
X247788095Y-129890285D01*
X247835714Y-129699809D01*
X247835714Y-129556952D01*
X247788095Y-129366476D01*
X247740476Y-129271238D01*
X247645238Y-129176000D01*
X247502380Y-129128380D01*
X247407142Y-129128380D01*
X247264285Y-129176000D01*
X247216666Y-129223619D01*
X246740476Y-130128380D02*
X246550000Y-130128380D01*
X246454761Y-130080761D01*
X246407142Y-130033142D01*
X246311904Y-129890285D01*
X246264285Y-129699809D01*
X246264285Y-129318857D01*
X246311904Y-129223619D01*
X246359523Y-129176000D01*
X246454761Y-129128380D01*
X246645238Y-129128380D01*
X246740476Y-129176000D01*
X246788095Y-129223619D01*
X246835714Y-129318857D01*
X246835714Y-129556952D01*
X246788095Y-129652190D01*
X246740476Y-129699809D01*
X246645238Y-129747428D01*
X246454761Y-129747428D01*
X246359523Y-129699809D01*
X246311904Y-129652190D01*
X246264285Y-129556952D01*
%TO.C,KC10*%
X268314285Y-130128380D02*
X268314285Y-129128380D01*
X267742857Y-130128380D02*
X268171428Y-129556952D01*
X267742857Y-129128380D02*
X268314285Y-129699809D01*
X266742857Y-130033142D02*
X266790476Y-130080761D01*
X266933333Y-130128380D01*
X267028571Y-130128380D01*
X267171428Y-130080761D01*
X267266666Y-129985523D01*
X267314285Y-129890285D01*
X267361904Y-129699809D01*
X267361904Y-129556952D01*
X267314285Y-129366476D01*
X267266666Y-129271238D01*
X267171428Y-129176000D01*
X267028571Y-129128380D01*
X266933333Y-129128380D01*
X266790476Y-129176000D01*
X266742857Y-129223619D01*
X265790476Y-130128380D02*
X266361904Y-130128380D01*
X266076190Y-130128380D02*
X266076190Y-129128380D01*
X266171428Y-129271238D01*
X266266666Y-129366476D01*
X266361904Y-129414095D01*
X265171428Y-129128380D02*
X265076190Y-129128380D01*
X264980952Y-129176000D01*
X264933333Y-129223619D01*
X264885714Y-129318857D01*
X264838095Y-129509333D01*
X264838095Y-129747428D01*
X264885714Y-129937904D01*
X264933333Y-130033142D01*
X264980952Y-130080761D01*
X265076190Y-130128380D01*
X265171428Y-130128380D01*
X265266666Y-130080761D01*
X265314285Y-130033142D01*
X265361904Y-129937904D01*
X265409523Y-129747428D01*
X265409523Y-129509333D01*
X265361904Y-129318857D01*
X265314285Y-129223619D01*
X265266666Y-129176000D01*
X265171428Y-129128380D01*
%TO.C,KC11*%
X287364285Y-130128380D02*
X287364285Y-129128380D01*
X286792857Y-130128380D02*
X287221428Y-129556952D01*
X286792857Y-129128380D02*
X287364285Y-129699809D01*
X285792857Y-130033142D02*
X285840476Y-130080761D01*
X285983333Y-130128380D01*
X286078571Y-130128380D01*
X286221428Y-130080761D01*
X286316666Y-129985523D01*
X286364285Y-129890285D01*
X286411904Y-129699809D01*
X286411904Y-129556952D01*
X286364285Y-129366476D01*
X286316666Y-129271238D01*
X286221428Y-129176000D01*
X286078571Y-129128380D01*
X285983333Y-129128380D01*
X285840476Y-129176000D01*
X285792857Y-129223619D01*
X284840476Y-130128380D02*
X285411904Y-130128380D01*
X285126190Y-130128380D02*
X285126190Y-129128380D01*
X285221428Y-129271238D01*
X285316666Y-129366476D01*
X285411904Y-129414095D01*
X283888095Y-130128380D02*
X284459523Y-130128380D01*
X284173809Y-130128380D02*
X284173809Y-129128380D01*
X284269047Y-129271238D01*
X284364285Y-129366476D01*
X284459523Y-129414095D01*
%TO.C,KD1*%
X101088095Y-149128380D02*
X101088095Y-148128380D01*
X100516666Y-149128380D02*
X100945238Y-148556952D01*
X100516666Y-148128380D02*
X101088095Y-148699809D01*
X100088095Y-149128380D02*
X100088095Y-148128380D01*
X99850000Y-148128380D01*
X99707142Y-148176000D01*
X99611904Y-148271238D01*
X99564285Y-148366476D01*
X99516666Y-148556952D01*
X99516666Y-148699809D01*
X99564285Y-148890285D01*
X99611904Y-148985523D01*
X99707142Y-149080761D01*
X99850000Y-149128380D01*
X100088095Y-149128380D01*
X98564285Y-149128380D02*
X99135714Y-149128380D01*
X98850000Y-149128380D02*
X98850000Y-148128380D01*
X98945238Y-148271238D01*
X99040476Y-148366476D01*
X99135714Y-148414095D01*
%TO.C,KD2*%
X120138095Y-149128380D02*
X120138095Y-148128380D01*
X119566666Y-149128380D02*
X119995238Y-148556952D01*
X119566666Y-148128380D02*
X120138095Y-148699809D01*
X119138095Y-149128380D02*
X119138095Y-148128380D01*
X118900000Y-148128380D01*
X118757142Y-148176000D01*
X118661904Y-148271238D01*
X118614285Y-148366476D01*
X118566666Y-148556952D01*
X118566666Y-148699809D01*
X118614285Y-148890285D01*
X118661904Y-148985523D01*
X118757142Y-149080761D01*
X118900000Y-149128380D01*
X119138095Y-149128380D01*
X118185714Y-148223619D02*
X118138095Y-148176000D01*
X118042857Y-148128380D01*
X117804761Y-148128380D01*
X117709523Y-148176000D01*
X117661904Y-148223619D01*
X117614285Y-148318857D01*
X117614285Y-148414095D01*
X117661904Y-148556952D01*
X118233333Y-149128380D01*
X117614285Y-149128380D01*
%TO.C,KD3*%
X139138095Y-149128380D02*
X139138095Y-148128380D01*
X138566666Y-149128380D02*
X138995238Y-148556952D01*
X138566666Y-148128380D02*
X139138095Y-148699809D01*
X138138095Y-149128380D02*
X138138095Y-148128380D01*
X137900000Y-148128380D01*
X137757142Y-148176000D01*
X137661904Y-148271238D01*
X137614285Y-148366476D01*
X137566666Y-148556952D01*
X137566666Y-148699809D01*
X137614285Y-148890285D01*
X137661904Y-148985523D01*
X137757142Y-149080761D01*
X137900000Y-149128380D01*
X138138095Y-149128380D01*
X137233333Y-148128380D02*
X136614285Y-148128380D01*
X136947619Y-148509333D01*
X136804761Y-148509333D01*
X136709523Y-148556952D01*
X136661904Y-148604571D01*
X136614285Y-148699809D01*
X136614285Y-148937904D01*
X136661904Y-149033142D01*
X136709523Y-149080761D01*
X136804761Y-149128380D01*
X137090476Y-149128380D01*
X137185714Y-149080761D01*
X137233333Y-149033142D01*
%TO.C,KD4*%
X158238095Y-149128380D02*
X158238095Y-148128380D01*
X157666666Y-149128380D02*
X158095238Y-148556952D01*
X157666666Y-148128380D02*
X158238095Y-148699809D01*
X157238095Y-149128380D02*
X157238095Y-148128380D01*
X157000000Y-148128380D01*
X156857142Y-148176000D01*
X156761904Y-148271238D01*
X156714285Y-148366476D01*
X156666666Y-148556952D01*
X156666666Y-148699809D01*
X156714285Y-148890285D01*
X156761904Y-148985523D01*
X156857142Y-149080761D01*
X157000000Y-149128380D01*
X157238095Y-149128380D01*
X155809523Y-148461714D02*
X155809523Y-149128380D01*
X156047619Y-148080761D02*
X156285714Y-148795047D01*
X155666666Y-148795047D01*
%TO.C,KD5*%
X177288095Y-149128380D02*
X177288095Y-148128380D01*
X176716666Y-149128380D02*
X177145238Y-148556952D01*
X176716666Y-148128380D02*
X177288095Y-148699809D01*
X176288095Y-149128380D02*
X176288095Y-148128380D01*
X176050000Y-148128380D01*
X175907142Y-148176000D01*
X175811904Y-148271238D01*
X175764285Y-148366476D01*
X175716666Y-148556952D01*
X175716666Y-148699809D01*
X175764285Y-148890285D01*
X175811904Y-148985523D01*
X175907142Y-149080761D01*
X176050000Y-149128380D01*
X176288095Y-149128380D01*
X174811904Y-148128380D02*
X175288095Y-148128380D01*
X175335714Y-148604571D01*
X175288095Y-148556952D01*
X175192857Y-148509333D01*
X174954761Y-148509333D01*
X174859523Y-148556952D01*
X174811904Y-148604571D01*
X174764285Y-148699809D01*
X174764285Y-148937904D01*
X174811904Y-149033142D01*
X174859523Y-149080761D01*
X174954761Y-149128380D01*
X175192857Y-149128380D01*
X175288095Y-149080761D01*
X175335714Y-149033142D01*
%TO.C,KD6*%
X196338095Y-149128380D02*
X196338095Y-148128380D01*
X195766666Y-149128380D02*
X196195238Y-148556952D01*
X195766666Y-148128380D02*
X196338095Y-148699809D01*
X195338095Y-149128380D02*
X195338095Y-148128380D01*
X195100000Y-148128380D01*
X194957142Y-148176000D01*
X194861904Y-148271238D01*
X194814285Y-148366476D01*
X194766666Y-148556952D01*
X194766666Y-148699809D01*
X194814285Y-148890285D01*
X194861904Y-148985523D01*
X194957142Y-149080761D01*
X195100000Y-149128380D01*
X195338095Y-149128380D01*
X193909523Y-148128380D02*
X194100000Y-148128380D01*
X194195238Y-148176000D01*
X194242857Y-148223619D01*
X194338095Y-148366476D01*
X194385714Y-148556952D01*
X194385714Y-148937904D01*
X194338095Y-149033142D01*
X194290476Y-149080761D01*
X194195238Y-149128380D01*
X194004761Y-149128380D01*
X193909523Y-149080761D01*
X193861904Y-149033142D01*
X193814285Y-148937904D01*
X193814285Y-148699809D01*
X193861904Y-148604571D01*
X193909523Y-148556952D01*
X194004761Y-148509333D01*
X194195238Y-148509333D01*
X194290476Y-148556952D01*
X194338095Y-148604571D01*
X194385714Y-148699809D01*
%TO.C,KD7*%
X215438095Y-149128380D02*
X215438095Y-148128380D01*
X214866666Y-149128380D02*
X215295238Y-148556952D01*
X214866666Y-148128380D02*
X215438095Y-148699809D01*
X214438095Y-149128380D02*
X214438095Y-148128380D01*
X214200000Y-148128380D01*
X214057142Y-148176000D01*
X213961904Y-148271238D01*
X213914285Y-148366476D01*
X213866666Y-148556952D01*
X213866666Y-148699809D01*
X213914285Y-148890285D01*
X213961904Y-148985523D01*
X214057142Y-149080761D01*
X214200000Y-149128380D01*
X214438095Y-149128380D01*
X213533333Y-148128380D02*
X212866666Y-148128380D01*
X213295238Y-149128380D01*
%TO.C,KD8*%
X234488095Y-149128380D02*
X234488095Y-148128380D01*
X233916666Y-149128380D02*
X234345238Y-148556952D01*
X233916666Y-148128380D02*
X234488095Y-148699809D01*
X233488095Y-149128380D02*
X233488095Y-148128380D01*
X233250000Y-148128380D01*
X233107142Y-148176000D01*
X233011904Y-148271238D01*
X232964285Y-148366476D01*
X232916666Y-148556952D01*
X232916666Y-148699809D01*
X232964285Y-148890285D01*
X233011904Y-148985523D01*
X233107142Y-149080761D01*
X233250000Y-149128380D01*
X233488095Y-149128380D01*
X232345238Y-148556952D02*
X232440476Y-148509333D01*
X232488095Y-148461714D01*
X232535714Y-148366476D01*
X232535714Y-148318857D01*
X232488095Y-148223619D01*
X232440476Y-148176000D01*
X232345238Y-148128380D01*
X232154761Y-148128380D01*
X232059523Y-148176000D01*
X232011904Y-148223619D01*
X231964285Y-148318857D01*
X231964285Y-148366476D01*
X232011904Y-148461714D01*
X232059523Y-148509333D01*
X232154761Y-148556952D01*
X232345238Y-148556952D01*
X232440476Y-148604571D01*
X232488095Y-148652190D01*
X232535714Y-148747428D01*
X232535714Y-148937904D01*
X232488095Y-149033142D01*
X232440476Y-149080761D01*
X232345238Y-149128380D01*
X232154761Y-149128380D01*
X232059523Y-149080761D01*
X232011904Y-149033142D01*
X231964285Y-148937904D01*
X231964285Y-148747428D01*
X232011904Y-148652190D01*
X232059523Y-148604571D01*
X232154761Y-148556952D01*
%TO.C,KD9*%
X253538095Y-149128380D02*
X253538095Y-148128380D01*
X252966666Y-149128380D02*
X253395238Y-148556952D01*
X252966666Y-148128380D02*
X253538095Y-148699809D01*
X252538095Y-149128380D02*
X252538095Y-148128380D01*
X252300000Y-148128380D01*
X252157142Y-148176000D01*
X252061904Y-148271238D01*
X252014285Y-148366476D01*
X251966666Y-148556952D01*
X251966666Y-148699809D01*
X252014285Y-148890285D01*
X252061904Y-148985523D01*
X252157142Y-149080761D01*
X252300000Y-149128380D01*
X252538095Y-149128380D01*
X251490476Y-149128380D02*
X251300000Y-149128380D01*
X251204761Y-149080761D01*
X251157142Y-149033142D01*
X251061904Y-148890285D01*
X251014285Y-148699809D01*
X251014285Y-148318857D01*
X251061904Y-148223619D01*
X251109523Y-148176000D01*
X251204761Y-148128380D01*
X251395238Y-148128380D01*
X251490476Y-148176000D01*
X251538095Y-148223619D01*
X251585714Y-148318857D01*
X251585714Y-148556952D01*
X251538095Y-148652190D01*
X251490476Y-148699809D01*
X251395238Y-148747428D01*
X251204761Y-148747428D01*
X251109523Y-148699809D01*
X251061904Y-148652190D01*
X251014285Y-148556952D01*
%TO.C,KD10*%
X273064285Y-149128380D02*
X273064285Y-148128380D01*
X272492857Y-149128380D02*
X272921428Y-148556952D01*
X272492857Y-148128380D02*
X273064285Y-148699809D01*
X272064285Y-149128380D02*
X272064285Y-148128380D01*
X271826190Y-148128380D01*
X271683333Y-148176000D01*
X271588095Y-148271238D01*
X271540476Y-148366476D01*
X271492857Y-148556952D01*
X271492857Y-148699809D01*
X271540476Y-148890285D01*
X271588095Y-148985523D01*
X271683333Y-149080761D01*
X271826190Y-149128380D01*
X272064285Y-149128380D01*
X270540476Y-149128380D02*
X271111904Y-149128380D01*
X270826190Y-149128380D02*
X270826190Y-148128380D01*
X270921428Y-148271238D01*
X271016666Y-148366476D01*
X271111904Y-148414095D01*
X269921428Y-148128380D02*
X269826190Y-148128380D01*
X269730952Y-148176000D01*
X269683333Y-148223619D01*
X269635714Y-148318857D01*
X269588095Y-148509333D01*
X269588095Y-148747428D01*
X269635714Y-148937904D01*
X269683333Y-149033142D01*
X269730952Y-149080761D01*
X269826190Y-149128380D01*
X269921428Y-149128380D01*
X270016666Y-149080761D01*
X270064285Y-149033142D01*
X270111904Y-148937904D01*
X270159523Y-148747428D01*
X270159523Y-148509333D01*
X270111904Y-148318857D01*
X270064285Y-148223619D01*
X270016666Y-148176000D01*
X269921428Y-148128380D01*
%TO.C,KD11*%
X292114285Y-149128380D02*
X292114285Y-148128380D01*
X291542857Y-149128380D02*
X291971428Y-148556952D01*
X291542857Y-148128380D02*
X292114285Y-148699809D01*
X291114285Y-149128380D02*
X291114285Y-148128380D01*
X290876190Y-148128380D01*
X290733333Y-148176000D01*
X290638095Y-148271238D01*
X290590476Y-148366476D01*
X290542857Y-148556952D01*
X290542857Y-148699809D01*
X290590476Y-148890285D01*
X290638095Y-148985523D01*
X290733333Y-149080761D01*
X290876190Y-149128380D01*
X291114285Y-149128380D01*
X289590476Y-149128380D02*
X290161904Y-149128380D01*
X289876190Y-149128380D02*
X289876190Y-148128380D01*
X289971428Y-148271238D01*
X290066666Y-148366476D01*
X290161904Y-148414095D01*
X288638095Y-149128380D02*
X289209523Y-149128380D01*
X288923809Y-149128380D02*
X288923809Y-148128380D01*
X289019047Y-148271238D01*
X289114285Y-148366476D01*
X289209523Y-148414095D01*
%TO.C,KE1*%
X110590476Y-168228380D02*
X110590476Y-167228380D01*
X110019047Y-168228380D02*
X110447619Y-167656952D01*
X110019047Y-167228380D02*
X110590476Y-167799809D01*
X109590476Y-167704571D02*
X109257142Y-167704571D01*
X109114285Y-168228380D02*
X109590476Y-168228380D01*
X109590476Y-167228380D01*
X109114285Y-167228380D01*
X108161904Y-168228380D02*
X108733333Y-168228380D01*
X108447619Y-168228380D02*
X108447619Y-167228380D01*
X108542857Y-167371238D01*
X108638095Y-167466476D01*
X108733333Y-167514095D01*
%TO.C,KE2*%
X129640476Y-168228380D02*
X129640476Y-167228380D01*
X129069047Y-168228380D02*
X129497619Y-167656952D01*
X129069047Y-167228380D02*
X129640476Y-167799809D01*
X128640476Y-167704571D02*
X128307142Y-167704571D01*
X128164285Y-168228380D02*
X128640476Y-168228380D01*
X128640476Y-167228380D01*
X128164285Y-167228380D01*
X127783333Y-167323619D02*
X127735714Y-167276000D01*
X127640476Y-167228380D01*
X127402380Y-167228380D01*
X127307142Y-167276000D01*
X127259523Y-167323619D01*
X127211904Y-167418857D01*
X127211904Y-167514095D01*
X127259523Y-167656952D01*
X127830952Y-168228380D01*
X127211904Y-168228380D01*
%TO.C,KE3*%
X148690476Y-168228380D02*
X148690476Y-167228380D01*
X148119047Y-168228380D02*
X148547619Y-167656952D01*
X148119047Y-167228380D02*
X148690476Y-167799809D01*
X147690476Y-167704571D02*
X147357142Y-167704571D01*
X147214285Y-168228380D02*
X147690476Y-168228380D01*
X147690476Y-167228380D01*
X147214285Y-167228380D01*
X146880952Y-167228380D02*
X146261904Y-167228380D01*
X146595238Y-167609333D01*
X146452380Y-167609333D01*
X146357142Y-167656952D01*
X146309523Y-167704571D01*
X146261904Y-167799809D01*
X146261904Y-168037904D01*
X146309523Y-168133142D01*
X146357142Y-168180761D01*
X146452380Y-168228380D01*
X146738095Y-168228380D01*
X146833333Y-168180761D01*
X146880952Y-168133142D01*
%TO.C,KE4*%
X167740476Y-168228380D02*
X167740476Y-167228380D01*
X167169047Y-168228380D02*
X167597619Y-167656952D01*
X167169047Y-167228380D02*
X167740476Y-167799809D01*
X166740476Y-167704571D02*
X166407142Y-167704571D01*
X166264285Y-168228380D02*
X166740476Y-168228380D01*
X166740476Y-167228380D01*
X166264285Y-167228380D01*
X165407142Y-167561714D02*
X165407142Y-168228380D01*
X165645238Y-167180761D02*
X165883333Y-167895047D01*
X165264285Y-167895047D01*
%TO.C,KE5*%
X186790476Y-168228380D02*
X186790476Y-167228380D01*
X186219047Y-168228380D02*
X186647619Y-167656952D01*
X186219047Y-167228380D02*
X186790476Y-167799809D01*
X185790476Y-167704571D02*
X185457142Y-167704571D01*
X185314285Y-168228380D02*
X185790476Y-168228380D01*
X185790476Y-167228380D01*
X185314285Y-167228380D01*
X184409523Y-167228380D02*
X184885714Y-167228380D01*
X184933333Y-167704571D01*
X184885714Y-167656952D01*
X184790476Y-167609333D01*
X184552380Y-167609333D01*
X184457142Y-167656952D01*
X184409523Y-167704571D01*
X184361904Y-167799809D01*
X184361904Y-168037904D01*
X184409523Y-168133142D01*
X184457142Y-168180761D01*
X184552380Y-168228380D01*
X184790476Y-168228380D01*
X184885714Y-168180761D01*
X184933333Y-168133142D01*
%TO.C,KE6*%
X205840476Y-168228380D02*
X205840476Y-167228380D01*
X205269047Y-168228380D02*
X205697619Y-167656952D01*
X205269047Y-167228380D02*
X205840476Y-167799809D01*
X204840476Y-167704571D02*
X204507142Y-167704571D01*
X204364285Y-168228380D02*
X204840476Y-168228380D01*
X204840476Y-167228380D01*
X204364285Y-167228380D01*
X203507142Y-167228380D02*
X203697619Y-167228380D01*
X203792857Y-167276000D01*
X203840476Y-167323619D01*
X203935714Y-167466476D01*
X203983333Y-167656952D01*
X203983333Y-168037904D01*
X203935714Y-168133142D01*
X203888095Y-168180761D01*
X203792857Y-168228380D01*
X203602380Y-168228380D01*
X203507142Y-168180761D01*
X203459523Y-168133142D01*
X203411904Y-168037904D01*
X203411904Y-167799809D01*
X203459523Y-167704571D01*
X203507142Y-167656952D01*
X203602380Y-167609333D01*
X203792857Y-167609333D01*
X203888095Y-167656952D01*
X203935714Y-167704571D01*
X203983333Y-167799809D01*
%TO.C,KE7*%
X224890476Y-168228380D02*
X224890476Y-167228380D01*
X224319047Y-168228380D02*
X224747619Y-167656952D01*
X224319047Y-167228380D02*
X224890476Y-167799809D01*
X223890476Y-167704571D02*
X223557142Y-167704571D01*
X223414285Y-168228380D02*
X223890476Y-168228380D01*
X223890476Y-167228380D01*
X223414285Y-167228380D01*
X223080952Y-167228380D02*
X222414285Y-167228380D01*
X222842857Y-168228380D01*
%TO.C,KE8*%
X243940476Y-168228380D02*
X243940476Y-167228380D01*
X243369047Y-168228380D02*
X243797619Y-167656952D01*
X243369047Y-167228380D02*
X243940476Y-167799809D01*
X242940476Y-167704571D02*
X242607142Y-167704571D01*
X242464285Y-168228380D02*
X242940476Y-168228380D01*
X242940476Y-167228380D01*
X242464285Y-167228380D01*
X241892857Y-167656952D02*
X241988095Y-167609333D01*
X242035714Y-167561714D01*
X242083333Y-167466476D01*
X242083333Y-167418857D01*
X242035714Y-167323619D01*
X241988095Y-167276000D01*
X241892857Y-167228380D01*
X241702380Y-167228380D01*
X241607142Y-167276000D01*
X241559523Y-167323619D01*
X241511904Y-167418857D01*
X241511904Y-167466476D01*
X241559523Y-167561714D01*
X241607142Y-167609333D01*
X241702380Y-167656952D01*
X241892857Y-167656952D01*
X241988095Y-167704571D01*
X242035714Y-167752190D01*
X242083333Y-167847428D01*
X242083333Y-168037904D01*
X242035714Y-168133142D01*
X241988095Y-168180761D01*
X241892857Y-168228380D01*
X241702380Y-168228380D01*
X241607142Y-168180761D01*
X241559523Y-168133142D01*
X241511904Y-168037904D01*
X241511904Y-167847428D01*
X241559523Y-167752190D01*
X241607142Y-167704571D01*
X241702380Y-167656952D01*
%TO.C,KE9*%
X262990476Y-168228380D02*
X262990476Y-167228380D01*
X262419047Y-168228380D02*
X262847619Y-167656952D01*
X262419047Y-167228380D02*
X262990476Y-167799809D01*
X261990476Y-167704571D02*
X261657142Y-167704571D01*
X261514285Y-168228380D02*
X261990476Y-168228380D01*
X261990476Y-167228380D01*
X261514285Y-167228380D01*
X261038095Y-168228380D02*
X260847619Y-168228380D01*
X260752380Y-168180761D01*
X260704761Y-168133142D01*
X260609523Y-167990285D01*
X260561904Y-167799809D01*
X260561904Y-167418857D01*
X260609523Y-167323619D01*
X260657142Y-167276000D01*
X260752380Y-167228380D01*
X260942857Y-167228380D01*
X261038095Y-167276000D01*
X261085714Y-167323619D01*
X261133333Y-167418857D01*
X261133333Y-167656952D01*
X261085714Y-167752190D01*
X261038095Y-167799809D01*
X260942857Y-167847428D01*
X260752380Y-167847428D01*
X260657142Y-167799809D01*
X260609523Y-167752190D01*
X260561904Y-167656952D01*
%TO.C,KE10*%
X282566666Y-168228380D02*
X282566666Y-167228380D01*
X281995238Y-168228380D02*
X282423809Y-167656952D01*
X281995238Y-167228380D02*
X282566666Y-167799809D01*
X281566666Y-167704571D02*
X281233333Y-167704571D01*
X281090476Y-168228380D02*
X281566666Y-168228380D01*
X281566666Y-167228380D01*
X281090476Y-167228380D01*
X280138095Y-168228380D02*
X280709523Y-168228380D01*
X280423809Y-168228380D02*
X280423809Y-167228380D01*
X280519047Y-167371238D01*
X280614285Y-167466476D01*
X280709523Y-167514095D01*
X279519047Y-167228380D02*
X279423809Y-167228380D01*
X279328571Y-167276000D01*
X279280952Y-167323619D01*
X279233333Y-167418857D01*
X279185714Y-167609333D01*
X279185714Y-167847428D01*
X279233333Y-168037904D01*
X279280952Y-168133142D01*
X279328571Y-168180761D01*
X279423809Y-168228380D01*
X279519047Y-168228380D01*
X279614285Y-168180761D01*
X279661904Y-168133142D01*
X279709523Y-168037904D01*
X279757142Y-167847428D01*
X279757142Y-167609333D01*
X279709523Y-167418857D01*
X279661904Y-167323619D01*
X279614285Y-167276000D01*
X279519047Y-167228380D01*
%TO.C,KE12*%
X349166666Y-172978380D02*
X349166666Y-171978380D01*
X348595238Y-172978380D02*
X349023809Y-172406952D01*
X348595238Y-171978380D02*
X349166666Y-172549809D01*
X348166666Y-172454571D02*
X347833333Y-172454571D01*
X347690476Y-172978380D02*
X348166666Y-172978380D01*
X348166666Y-171978380D01*
X347690476Y-171978380D01*
X346738095Y-172978380D02*
X347309523Y-172978380D01*
X347023809Y-172978380D02*
X347023809Y-171978380D01*
X347119047Y-172121238D01*
X347214285Y-172216476D01*
X347309523Y-172264095D01*
X346357142Y-172073619D02*
X346309523Y-172026000D01*
X346214285Y-171978380D01*
X345976190Y-171978380D01*
X345880952Y-172026000D01*
X345833333Y-172073619D01*
X345785714Y-172168857D01*
X345785714Y-172264095D01*
X345833333Y-172406952D01*
X346404761Y-172978380D01*
X345785714Y-172978380D01*
%TO.C,KF1*%
X91516666Y-187278380D02*
X91516666Y-186278380D01*
X90945238Y-187278380D02*
X91373809Y-186706952D01*
X90945238Y-186278380D02*
X91516666Y-186849809D01*
X90183333Y-186754571D02*
X90516666Y-186754571D01*
X90516666Y-187278380D02*
X90516666Y-186278380D01*
X90040476Y-186278380D01*
X89135714Y-187278380D02*
X89707142Y-187278380D01*
X89421428Y-187278380D02*
X89421428Y-186278380D01*
X89516666Y-186421238D01*
X89611904Y-186516476D01*
X89707142Y-186564095D01*
%TO.C,KF3*%
X139497769Y-190133221D02*
X139756588Y-189167296D01*
X138945812Y-189985325D02*
X139507676Y-189544290D01*
X139204631Y-189019399D02*
X139608692Y-189719253D01*
X138345440Y-189282168D02*
X138667415Y-189368441D01*
X138531843Y-189874402D02*
X138790662Y-188908477D01*
X138330698Y-188785229D01*
X138054719Y-188711281D02*
X137456765Y-188551060D01*
X137680142Y-189005305D01*
X137542153Y-188968330D01*
X137437835Y-188989677D01*
X137379514Y-189023349D01*
X137308868Y-189103017D01*
X137247245Y-189333000D01*
X137268592Y-189437317D01*
X137302263Y-189495639D01*
X137381932Y-189566285D01*
X137657910Y-189640233D01*
X137762228Y-189618886D01*
X137820549Y-189585214D01*
%TO.C,KF6*%
X234006057Y-189579310D02*
X233747238Y-188613385D01*
X233454099Y-189727207D02*
X233720171Y-189064327D01*
X233195280Y-188761281D02*
X233895134Y-189165342D01*
X232582584Y-189418441D02*
X232904559Y-189332168D01*
X233040131Y-189838129D02*
X232781312Y-188872204D01*
X232321347Y-188995451D01*
X231539407Y-189204971D02*
X231723393Y-189155672D01*
X231827711Y-189177019D01*
X231886032Y-189210691D01*
X232014999Y-189324031D01*
X232110294Y-189495692D01*
X232208892Y-189863664D01*
X232187545Y-189967981D01*
X232153873Y-190026303D01*
X232074205Y-190096948D01*
X231890219Y-190146247D01*
X231785902Y-190124900D01*
X231727580Y-190091229D01*
X231656935Y-190011560D01*
X231595311Y-189781578D01*
X231616658Y-189677260D01*
X231650330Y-189618939D01*
X231729998Y-189548293D01*
X231913984Y-189498994D01*
X232018301Y-189520341D01*
X232076623Y-189554013D01*
X232147269Y-189633681D01*
%TO.C,KF8*%
X282016666Y-187278380D02*
X282016666Y-186278380D01*
X281445238Y-187278380D02*
X281873809Y-186706952D01*
X281445238Y-186278380D02*
X282016666Y-186849809D01*
X280683333Y-186754571D02*
X281016666Y-186754571D01*
X281016666Y-187278380D02*
X281016666Y-186278380D01*
X280540476Y-186278380D01*
X280016666Y-186706952D02*
X280111904Y-186659333D01*
X280159523Y-186611714D01*
X280207142Y-186516476D01*
X280207142Y-186468857D01*
X280159523Y-186373619D01*
X280111904Y-186326000D01*
X280016666Y-186278380D01*
X279826190Y-186278380D01*
X279730952Y-186326000D01*
X279683333Y-186373619D01*
X279635714Y-186468857D01*
X279635714Y-186516476D01*
X279683333Y-186611714D01*
X279730952Y-186659333D01*
X279826190Y-186706952D01*
X280016666Y-186706952D01*
X280111904Y-186754571D01*
X280159523Y-186802190D01*
X280207142Y-186897428D01*
X280207142Y-187087904D01*
X280159523Y-187183142D01*
X280111904Y-187230761D01*
X280016666Y-187278380D01*
X279826190Y-187278380D01*
X279730952Y-187230761D01*
X279683333Y-187183142D01*
X279635714Y-187087904D01*
X279635714Y-186897428D01*
X279683333Y-186802190D01*
X279730952Y-186754571D01*
X279826190Y-186706952D01*
%TO.C,KF10*%
X330092857Y-192028380D02*
X330092857Y-191028380D01*
X329521428Y-192028380D02*
X329950000Y-191456952D01*
X329521428Y-191028380D02*
X330092857Y-191599809D01*
X328759523Y-191504571D02*
X329092857Y-191504571D01*
X329092857Y-192028380D02*
X329092857Y-191028380D01*
X328616666Y-191028380D01*
X327711904Y-192028380D02*
X328283333Y-192028380D01*
X327997619Y-192028380D02*
X327997619Y-191028380D01*
X328092857Y-191171238D01*
X328188095Y-191266476D01*
X328283333Y-191314095D01*
X327092857Y-191028380D02*
X326997619Y-191028380D01*
X326902380Y-191076000D01*
X326854761Y-191123619D01*
X326807142Y-191218857D01*
X326759523Y-191409333D01*
X326759523Y-191647428D01*
X326807142Y-191837904D01*
X326854761Y-191933142D01*
X326902380Y-191980761D01*
X326997619Y-192028380D01*
X327092857Y-192028380D01*
X327188095Y-191980761D01*
X327235714Y-191933142D01*
X327283333Y-191837904D01*
X327330952Y-191647428D01*
X327330952Y-191409333D01*
X327283333Y-191218857D01*
X327235714Y-191123619D01*
X327188095Y-191076000D01*
X327092857Y-191028380D01*
%TO.C,KF11*%
X349142857Y-192028380D02*
X349142857Y-191028380D01*
X348571428Y-192028380D02*
X349000000Y-191456952D01*
X348571428Y-191028380D02*
X349142857Y-191599809D01*
X347809523Y-191504571D02*
X348142857Y-191504571D01*
X348142857Y-192028380D02*
X348142857Y-191028380D01*
X347666666Y-191028380D01*
X346761904Y-192028380D02*
X347333333Y-192028380D01*
X347047619Y-192028380D02*
X347047619Y-191028380D01*
X347142857Y-191171238D01*
X347238095Y-191266476D01*
X347333333Y-191314095D01*
X345809523Y-192028380D02*
X346380952Y-192028380D01*
X346095238Y-192028380D02*
X346095238Y-191028380D01*
X346190476Y-191171238D01*
X346285714Y-191266476D01*
X346380952Y-191314095D01*
%TO.C,KF12*%
X368192857Y-192028380D02*
X368192857Y-191028380D01*
X367621428Y-192028380D02*
X368050000Y-191456952D01*
X367621428Y-191028380D02*
X368192857Y-191599809D01*
X366859523Y-191504571D02*
X367192857Y-191504571D01*
X367192857Y-192028380D02*
X367192857Y-191028380D01*
X366716666Y-191028380D01*
X365811904Y-192028380D02*
X366383333Y-192028380D01*
X366097619Y-192028380D02*
X366097619Y-191028380D01*
X366192857Y-191171238D01*
X366288095Y-191266476D01*
X366383333Y-191314095D01*
X365430952Y-191123619D02*
X365383333Y-191076000D01*
X365288095Y-191028380D01*
X365050000Y-191028380D01*
X364954761Y-191076000D01*
X364907142Y-191123619D01*
X364859523Y-191218857D01*
X364859523Y-191314095D01*
X364907142Y-191456952D01*
X365478571Y-192028380D01*
X364859523Y-192028380D01*
%TO.C,KB13*%
X325464285Y-111028380D02*
X325464285Y-110028380D01*
X324892857Y-111028380D02*
X325321428Y-110456952D01*
X324892857Y-110028380D02*
X325464285Y-110599809D01*
X324130952Y-110504571D02*
X323988095Y-110552190D01*
X323940476Y-110599809D01*
X323892857Y-110695047D01*
X323892857Y-110837904D01*
X323940476Y-110933142D01*
X323988095Y-110980761D01*
X324083333Y-111028380D01*
X324464285Y-111028380D01*
X324464285Y-110028380D01*
X324130952Y-110028380D01*
X324035714Y-110076000D01*
X323988095Y-110123619D01*
X323940476Y-110218857D01*
X323940476Y-110314095D01*
X323988095Y-110409333D01*
X324035714Y-110456952D01*
X324130952Y-110504571D01*
X324464285Y-110504571D01*
X322940476Y-111028380D02*
X323511904Y-111028380D01*
X323226190Y-111028380D02*
X323226190Y-110028380D01*
X323321428Y-110171238D01*
X323416666Y-110266476D01*
X323511904Y-110314095D01*
X322607142Y-110028380D02*
X321988095Y-110028380D01*
X322321428Y-110409333D01*
X322178571Y-110409333D01*
X322083333Y-110456952D01*
X322035714Y-110504571D01*
X321988095Y-110599809D01*
X321988095Y-110837904D01*
X322035714Y-110933142D01*
X322083333Y-110980761D01*
X322178571Y-111028380D01*
X322464285Y-111028380D01*
X322559523Y-110980761D01*
X322607142Y-110933142D01*
%TO.C,KC0*%
X72538095Y-130128380D02*
X72538095Y-129128380D01*
X71966666Y-130128380D02*
X72395238Y-129556952D01*
X71966666Y-129128380D02*
X72538095Y-129699809D01*
X70966666Y-130033142D02*
X71014285Y-130080761D01*
X71157142Y-130128380D01*
X71252380Y-130128380D01*
X71395238Y-130080761D01*
X71490476Y-129985523D01*
X71538095Y-129890285D01*
X71585714Y-129699809D01*
X71585714Y-129556952D01*
X71538095Y-129366476D01*
X71490476Y-129271238D01*
X71395238Y-129176000D01*
X71252380Y-129128380D01*
X71157142Y-129128380D01*
X71014285Y-129176000D01*
X70966666Y-129223619D01*
X70347619Y-129128380D02*
X70252380Y-129128380D01*
X70157142Y-129176000D01*
X70109523Y-129223619D01*
X70061904Y-129318857D01*
X70014285Y-129509333D01*
X70014285Y-129747428D01*
X70061904Y-129937904D01*
X70109523Y-130033142D01*
X70157142Y-130080761D01*
X70252380Y-130128380D01*
X70347619Y-130128380D01*
X70442857Y-130080761D01*
X70490476Y-130033142D01*
X70538095Y-129937904D01*
X70585714Y-129747428D01*
X70585714Y-129509333D01*
X70538095Y-129318857D01*
X70490476Y-129223619D01*
X70442857Y-129176000D01*
X70347619Y-129128380D01*
%TO.C,KD0*%
X74888095Y-149128380D02*
X74888095Y-148128380D01*
X74316666Y-149128380D02*
X74745238Y-148556952D01*
X74316666Y-148128380D02*
X74888095Y-148699809D01*
X73888095Y-149128380D02*
X73888095Y-148128380D01*
X73650000Y-148128380D01*
X73507142Y-148176000D01*
X73411904Y-148271238D01*
X73364285Y-148366476D01*
X73316666Y-148556952D01*
X73316666Y-148699809D01*
X73364285Y-148890285D01*
X73411904Y-148985523D01*
X73507142Y-149080761D01*
X73650000Y-149128380D01*
X73888095Y-149128380D01*
X72697619Y-148128380D02*
X72602380Y-148128380D01*
X72507142Y-148176000D01*
X72459523Y-148223619D01*
X72411904Y-148318857D01*
X72364285Y-148509333D01*
X72364285Y-148747428D01*
X72411904Y-148937904D01*
X72459523Y-149033142D01*
X72507142Y-149080761D01*
X72602380Y-149128380D01*
X72697619Y-149128380D01*
X72792857Y-149080761D01*
X72840476Y-149033142D01*
X72888095Y-148937904D01*
X72935714Y-148747428D01*
X72935714Y-148509333D01*
X72888095Y-148318857D01*
X72840476Y-148223619D01*
X72792857Y-148176000D01*
X72697619Y-148128380D01*
%TO.C,KD12*%
X325414285Y-149178380D02*
X325414285Y-148178380D01*
X324842857Y-149178380D02*
X325271428Y-148606952D01*
X324842857Y-148178380D02*
X325414285Y-148749809D01*
X324414285Y-149178380D02*
X324414285Y-148178380D01*
X324176190Y-148178380D01*
X324033333Y-148226000D01*
X323938095Y-148321238D01*
X323890476Y-148416476D01*
X323842857Y-148606952D01*
X323842857Y-148749809D01*
X323890476Y-148940285D01*
X323938095Y-149035523D01*
X324033333Y-149130761D01*
X324176190Y-149178380D01*
X324414285Y-149178380D01*
X322890476Y-149178380D02*
X323461904Y-149178380D01*
X323176190Y-149178380D02*
X323176190Y-148178380D01*
X323271428Y-148321238D01*
X323366666Y-148416476D01*
X323461904Y-148464095D01*
X322509523Y-148273619D02*
X322461904Y-148226000D01*
X322366666Y-148178380D01*
X322128571Y-148178380D01*
X322033333Y-148226000D01*
X321985714Y-148273619D01*
X321938095Y-148368857D01*
X321938095Y-148464095D01*
X321985714Y-148606952D01*
X322557142Y-149178380D01*
X321938095Y-149178380D01*
%TO.C,KE0*%
X79590476Y-168228380D02*
X79590476Y-167228380D01*
X79019047Y-168228380D02*
X79447619Y-167656952D01*
X79019047Y-167228380D02*
X79590476Y-167799809D01*
X78590476Y-167704571D02*
X78257142Y-167704571D01*
X78114285Y-168228380D02*
X78590476Y-168228380D01*
X78590476Y-167228380D01*
X78114285Y-167228380D01*
X77495238Y-167228380D02*
X77400000Y-167228380D01*
X77304761Y-167276000D01*
X77257142Y-167323619D01*
X77209523Y-167418857D01*
X77161904Y-167609333D01*
X77161904Y-167847428D01*
X77209523Y-168037904D01*
X77257142Y-168133142D01*
X77304761Y-168180761D01*
X77400000Y-168228380D01*
X77495238Y-168228380D01*
X77590476Y-168180761D01*
X77638095Y-168133142D01*
X77685714Y-168037904D01*
X77733333Y-167847428D01*
X77733333Y-167609333D01*
X77685714Y-167418857D01*
X77638095Y-167323619D01*
X77590476Y-167276000D01*
X77495238Y-167228380D01*
%TO.C,KF0*%
X70066666Y-187278380D02*
X70066666Y-186278380D01*
X69495238Y-187278380D02*
X69923809Y-186706952D01*
X69495238Y-186278380D02*
X70066666Y-186849809D01*
X68733333Y-186754571D02*
X69066666Y-186754571D01*
X69066666Y-187278380D02*
X69066666Y-186278380D01*
X68590476Y-186278380D01*
X68019047Y-186278380D02*
X67923809Y-186278380D01*
X67828571Y-186326000D01*
X67780952Y-186373619D01*
X67733333Y-186468857D01*
X67685714Y-186659333D01*
X67685714Y-186897428D01*
X67733333Y-187087904D01*
X67780952Y-187183142D01*
X67828571Y-187230761D01*
X67923809Y-187278380D01*
X68019047Y-187278380D01*
X68114285Y-187230761D01*
X68161904Y-187183142D01*
X68209523Y-187087904D01*
X68257142Y-186897428D01*
X68257142Y-186659333D01*
X68209523Y-186468857D01*
X68161904Y-186373619D01*
X68114285Y-186326000D01*
X68019047Y-186278380D01*
%TO.C,KF2*%
X112966666Y-187278380D02*
X112966666Y-186278380D01*
X112395238Y-187278380D02*
X112823809Y-186706952D01*
X112395238Y-186278380D02*
X112966666Y-186849809D01*
X111633333Y-186754571D02*
X111966666Y-186754571D01*
X111966666Y-187278380D02*
X111966666Y-186278380D01*
X111490476Y-186278380D01*
X111157142Y-186373619D02*
X111109523Y-186326000D01*
X111014285Y-186278380D01*
X110776190Y-186278380D01*
X110680952Y-186326000D01*
X110633333Y-186373619D01*
X110585714Y-186468857D01*
X110585714Y-186564095D01*
X110633333Y-186706952D01*
X111204761Y-187278380D01*
X110585714Y-187278380D01*
%TO.C,KF4*%
X167147769Y-197583221D02*
X167406588Y-196617296D01*
X166595812Y-197435325D02*
X167157676Y-196994290D01*
X166854631Y-196469399D02*
X167258692Y-197169253D01*
X165995440Y-196732168D02*
X166317415Y-196818441D01*
X166181843Y-197324402D02*
X166440662Y-196358477D01*
X165980698Y-196235229D01*
X165112485Y-196347685D02*
X164939939Y-196991635D01*
X165441065Y-196041336D02*
X165486176Y-196792907D01*
X164888222Y-196632686D01*
%TO.C,KF5*%
X206406057Y-196979310D02*
X206147238Y-196013385D01*
X205854099Y-197127207D02*
X206120171Y-196464327D01*
X205595280Y-196161281D02*
X206295134Y-196565342D01*
X204982584Y-196818441D02*
X205304559Y-196732168D01*
X205440131Y-197238129D02*
X205181312Y-196272204D01*
X204721347Y-196395451D01*
X203893411Y-196617296D02*
X204353375Y-196494049D01*
X204522619Y-196941688D01*
X204464298Y-196908017D01*
X204359980Y-196886670D01*
X204129998Y-196948293D01*
X204050330Y-197018939D01*
X204016658Y-197077260D01*
X203995311Y-197181578D01*
X204056935Y-197411560D01*
X204127580Y-197491229D01*
X204185902Y-197524900D01*
X204290219Y-197546247D01*
X204520202Y-197484624D01*
X204599870Y-197413978D01*
X204633542Y-197355657D01*
%TO.C,KF7*%
X260616666Y-187278380D02*
X260616666Y-186278380D01*
X260045238Y-187278380D02*
X260473809Y-186706952D01*
X260045238Y-186278380D02*
X260616666Y-186849809D01*
X259283333Y-186754571D02*
X259616666Y-186754571D01*
X259616666Y-187278380D02*
X259616666Y-186278380D01*
X259140476Y-186278380D01*
X258854761Y-186278380D02*
X258188095Y-186278380D01*
X258616666Y-187278380D01*
%TO.C,KF9*%
X303466666Y-187278380D02*
X303466666Y-186278380D01*
X302895238Y-187278380D02*
X303323809Y-186706952D01*
X302895238Y-186278380D02*
X303466666Y-186849809D01*
X302133333Y-186754571D02*
X302466666Y-186754571D01*
X302466666Y-187278380D02*
X302466666Y-186278380D01*
X301990476Y-186278380D01*
X301561904Y-187278380D02*
X301371428Y-187278380D01*
X301276190Y-187230761D01*
X301228571Y-187183142D01*
X301133333Y-187040285D01*
X301085714Y-186849809D01*
X301085714Y-186468857D01*
X301133333Y-186373619D01*
X301180952Y-186326000D01*
X301276190Y-186278380D01*
X301466666Y-186278380D01*
X301561904Y-186326000D01*
X301609523Y-186373619D01*
X301657142Y-186468857D01*
X301657142Y-186706952D01*
X301609523Y-186802190D01*
X301561904Y-186849809D01*
X301466666Y-186897428D01*
X301276190Y-186897428D01*
X301180952Y-186849809D01*
X301133333Y-186802190D01*
X301085714Y-186706952D01*
%TO.C,KC12*%
X306414285Y-130128380D02*
X306414285Y-129128380D01*
X305842857Y-130128380D02*
X306271428Y-129556952D01*
X305842857Y-129128380D02*
X306414285Y-129699809D01*
X304842857Y-130033142D02*
X304890476Y-130080761D01*
X305033333Y-130128380D01*
X305128571Y-130128380D01*
X305271428Y-130080761D01*
X305366666Y-129985523D01*
X305414285Y-129890285D01*
X305461904Y-129699809D01*
X305461904Y-129556952D01*
X305414285Y-129366476D01*
X305366666Y-129271238D01*
X305271428Y-129176000D01*
X305128571Y-129128380D01*
X305033333Y-129128380D01*
X304890476Y-129176000D01*
X304842857Y-129223619D01*
X303890476Y-130128380D02*
X304461904Y-130128380D01*
X304176190Y-130128380D02*
X304176190Y-129128380D01*
X304271428Y-129271238D01*
X304366666Y-129366476D01*
X304461904Y-129414095D01*
X303509523Y-129223619D02*
X303461904Y-129176000D01*
X303366666Y-129128380D01*
X303128571Y-129128380D01*
X303033333Y-129176000D01*
X302985714Y-129223619D01*
X302938095Y-129318857D01*
X302938095Y-129414095D01*
X302985714Y-129556952D01*
X303557142Y-130128380D01*
X302938095Y-130128380D01*
%TO.C,KC13*%
X330214285Y-130128380D02*
X330214285Y-129128380D01*
X329642857Y-130128380D02*
X330071428Y-129556952D01*
X329642857Y-129128380D02*
X330214285Y-129699809D01*
X328642857Y-130033142D02*
X328690476Y-130080761D01*
X328833333Y-130128380D01*
X328928571Y-130128380D01*
X329071428Y-130080761D01*
X329166666Y-129985523D01*
X329214285Y-129890285D01*
X329261904Y-129699809D01*
X329261904Y-129556952D01*
X329214285Y-129366476D01*
X329166666Y-129271238D01*
X329071428Y-129176000D01*
X328928571Y-129128380D01*
X328833333Y-129128380D01*
X328690476Y-129176000D01*
X328642857Y-129223619D01*
X327690476Y-130128380D02*
X328261904Y-130128380D01*
X327976190Y-130128380D02*
X327976190Y-129128380D01*
X328071428Y-129271238D01*
X328166666Y-129366476D01*
X328261904Y-129414095D01*
X327357142Y-129128380D02*
X326738095Y-129128380D01*
X327071428Y-129509333D01*
X326928571Y-129509333D01*
X326833333Y-129556952D01*
X326785714Y-129604571D01*
X326738095Y-129699809D01*
X326738095Y-129937904D01*
X326785714Y-130033142D01*
X326833333Y-130080761D01*
X326928571Y-130128380D01*
X327214285Y-130128380D01*
X327309523Y-130080761D01*
X327357142Y-130033142D01*
%TO.C,J1*%
D13*
X349547142Y-84602380D02*
X349475714Y-84626190D01*
X349356666Y-84626190D01*
X349309047Y-84602380D01*
X349285238Y-84578571D01*
X349261428Y-84530952D01*
X349261428Y-84483333D01*
X349285238Y-84435714D01*
X349309047Y-84411904D01*
X349356666Y-84388095D01*
X349451904Y-84364285D01*
X349499523Y-84340476D01*
X349523333Y-84316666D01*
X349547142Y-84269047D01*
X349547142Y-84221428D01*
X349523333Y-84173809D01*
X349499523Y-84150000D01*
X349451904Y-84126190D01*
X349332857Y-84126190D01*
X349261428Y-84150000D01*
X349047142Y-84626190D02*
X349047142Y-84126190D01*
X348928095Y-84126190D01*
X348856666Y-84150000D01*
X348809047Y-84197619D01*
X348785238Y-84245238D01*
X348761428Y-84340476D01*
X348761428Y-84411904D01*
X348785238Y-84507142D01*
X348809047Y-84554761D01*
X348856666Y-84602380D01*
X348928095Y-84626190D01*
X349047142Y-84626190D01*
X348570952Y-84483333D02*
X348332857Y-84483333D01*
X348618571Y-84626190D02*
X348451904Y-84126190D01*
X348285238Y-84626190D01*
X346835238Y-84602380D02*
X346763809Y-84626190D01*
X346644761Y-84626190D01*
X346597142Y-84602380D01*
X346573333Y-84578571D01*
X346549523Y-84530952D01*
X346549523Y-84483333D01*
X346573333Y-84435714D01*
X346597142Y-84411904D01*
X346644761Y-84388095D01*
X346740000Y-84364285D01*
X346787619Y-84340476D01*
X346811428Y-84316666D01*
X346835238Y-84269047D01*
X346835238Y-84221428D01*
X346811428Y-84173809D01*
X346787619Y-84150000D01*
X346740000Y-84126190D01*
X346620952Y-84126190D01*
X346549523Y-84150000D01*
X346049523Y-84578571D02*
X346073333Y-84602380D01*
X346144761Y-84626190D01*
X346192380Y-84626190D01*
X346263809Y-84602380D01*
X346311428Y-84554761D01*
X346335238Y-84507142D01*
X346359047Y-84411904D01*
X346359047Y-84340476D01*
X346335238Y-84245238D01*
X346311428Y-84197619D01*
X346263809Y-84150000D01*
X346192380Y-84126190D01*
X346144761Y-84126190D01*
X346073333Y-84150000D01*
X346049523Y-84173809D01*
X345597142Y-84626190D02*
X345835238Y-84626190D01*
X345835238Y-84126190D01*
X344506666Y-84126190D02*
X344340000Y-84626190D01*
X344173333Y-84126190D01*
X343720952Y-84578571D02*
X343744761Y-84602380D01*
X343816190Y-84626190D01*
X343863809Y-84626190D01*
X343935238Y-84602380D01*
X343982857Y-84554761D01*
X344006666Y-84507142D01*
X344030476Y-84411904D01*
X344030476Y-84340476D01*
X344006666Y-84245238D01*
X343982857Y-84197619D01*
X343935238Y-84150000D01*
X343863809Y-84126190D01*
X343816190Y-84126190D01*
X343744761Y-84150000D01*
X343720952Y-84173809D01*
X343220952Y-84578571D02*
X343244761Y-84602380D01*
X343316190Y-84626190D01*
X343363809Y-84626190D01*
X343435238Y-84602380D01*
X343482857Y-84554761D01*
X343506666Y-84507142D01*
X343530476Y-84411904D01*
X343530476Y-84340476D01*
X343506666Y-84245238D01*
X343482857Y-84197619D01*
X343435238Y-84150000D01*
X343363809Y-84126190D01*
X343316190Y-84126190D01*
X343244761Y-84150000D01*
X343220952Y-84173809D01*
X341620952Y-84150000D02*
X341668571Y-84126190D01*
X341740000Y-84126190D01*
X341811428Y-84150000D01*
X341859047Y-84197619D01*
X341882857Y-84245238D01*
X341906666Y-84340476D01*
X341906666Y-84411904D01*
X341882857Y-84507142D01*
X341859047Y-84554761D01*
X341811428Y-84602380D01*
X341740000Y-84626190D01*
X341692380Y-84626190D01*
X341620952Y-84602380D01*
X341597142Y-84578571D01*
X341597142Y-84411904D01*
X341692380Y-84411904D01*
X341382857Y-84626190D02*
X341382857Y-84126190D01*
X341097142Y-84626190D01*
X341097142Y-84126190D01*
X340859047Y-84626190D02*
X340859047Y-84126190D01*
X340740000Y-84126190D01*
X340668571Y-84150000D01*
X340620952Y-84197619D01*
X340597142Y-84245238D01*
X340573333Y-84340476D01*
X340573333Y-84411904D01*
X340597142Y-84507142D01*
X340620952Y-84554761D01*
X340668571Y-84602380D01*
X340740000Y-84626190D01*
X340859047Y-84626190D01*
D10*
X345073333Y-92352380D02*
X345073333Y-93066666D01*
X345120952Y-93209523D01*
X345216190Y-93304761D01*
X345359047Y-93352380D01*
X345454285Y-93352380D01*
X344073333Y-93352380D02*
X344644761Y-93352380D01*
X344359047Y-93352380D02*
X344359047Y-92352380D01*
X344454285Y-92495238D01*
X344549523Y-92590476D01*
X344644761Y-92638095D01*
%TO.C,KD13*%
X376584285Y-111100380D02*
X376584285Y-110100380D01*
X376012857Y-111100380D02*
X376441428Y-110528952D01*
X376012857Y-110100380D02*
X376584285Y-110671809D01*
X375584285Y-111100380D02*
X375584285Y-110100380D01*
X375346190Y-110100380D01*
X375203333Y-110148000D01*
X375108095Y-110243238D01*
X375060476Y-110338476D01*
X375012857Y-110528952D01*
X375012857Y-110671809D01*
X375060476Y-110862285D01*
X375108095Y-110957523D01*
X375203333Y-111052761D01*
X375346190Y-111100380D01*
X375584285Y-111100380D01*
X374060476Y-111100380D02*
X374631904Y-111100380D01*
X374346190Y-111100380D02*
X374346190Y-110100380D01*
X374441428Y-110243238D01*
X374536666Y-110338476D01*
X374631904Y-110386095D01*
X373727142Y-110100380D02*
X373108095Y-110100380D01*
X373441428Y-110481333D01*
X373298571Y-110481333D01*
X373203333Y-110528952D01*
X373155714Y-110576571D01*
X373108095Y-110671809D01*
X373108095Y-110909904D01*
X373155714Y-111005142D01*
X373203333Y-111052761D01*
X373298571Y-111100380D01*
X373584285Y-111100380D01*
X373679523Y-111052761D01*
X373727142Y-111005142D01*
%TO.C,KE13*%
X376546666Y-130140380D02*
X376546666Y-129140380D01*
X375975238Y-130140380D02*
X376403809Y-129568952D01*
X375975238Y-129140380D02*
X376546666Y-129711809D01*
X375546666Y-129616571D02*
X375213333Y-129616571D01*
X375070476Y-130140380D02*
X375546666Y-130140380D01*
X375546666Y-129140380D01*
X375070476Y-129140380D01*
X374118095Y-130140380D02*
X374689523Y-130140380D01*
X374403809Y-130140380D02*
X374403809Y-129140380D01*
X374499047Y-129283238D01*
X374594285Y-129378476D01*
X374689523Y-129426095D01*
X373784761Y-129140380D02*
X373165714Y-129140380D01*
X373499047Y-129521333D01*
X373356190Y-129521333D01*
X373260952Y-129568952D01*
X373213333Y-129616571D01*
X373165714Y-129711809D01*
X373165714Y-129949904D01*
X373213333Y-130045142D01*
X373260952Y-130092761D01*
X373356190Y-130140380D01*
X373641904Y-130140380D01*
X373737142Y-130092761D01*
X373784761Y-130045142D01*
%TO.C,KF13*%
X376522857Y-149190380D02*
X376522857Y-148190380D01*
X375951428Y-149190380D02*
X376380000Y-148618952D01*
X375951428Y-148190380D02*
X376522857Y-148761809D01*
X375189523Y-148666571D02*
X375522857Y-148666571D01*
X375522857Y-149190380D02*
X375522857Y-148190380D01*
X375046666Y-148190380D01*
X374141904Y-149190380D02*
X374713333Y-149190380D01*
X374427619Y-149190380D02*
X374427619Y-148190380D01*
X374522857Y-148333238D01*
X374618095Y-148428476D01*
X374713333Y-148476095D01*
X373808571Y-148190380D02*
X373189523Y-148190380D01*
X373522857Y-148571333D01*
X373380000Y-148571333D01*
X373284761Y-148618952D01*
X373237142Y-148666571D01*
X373189523Y-148761809D01*
X373189523Y-148999904D01*
X373237142Y-149095142D01*
X373284761Y-149142761D01*
X373380000Y-149190380D01*
X373665714Y-149190380D01*
X373760952Y-149142761D01*
X373808571Y-149095142D01*
%TD*%
M02*
