M48
; DRILL file {KiCad (5.1.6)-1} date 09/12/21 01:22:49
; FORMAT={-:-/ absolute / inch / decimal}
; #@! TF.CreationDate,2021-09-12T01:22:49+02:00
; #@! TF.GenerationSoftware,Kicad,Pcbnew,(5.1.6)-1
FMAT,2
INCH
T1C0.0157
T2C0.0300
T3C0.0315
T4C0.0320
T5C0.0394
T6C0.0430
T7C0.0551
T8C0.0591
T9C0.0866
T10C0.0669
T11C0.1181
T12C0.1201
T13C0.1575
T14C0.1614
%
G90
G05
T1
X2.4146Y-3.987
X3.1358Y-4.0156
X4.1457Y-4.0443
X4.8791Y-4.0729
X5.5894Y-4.1015
X6.3205Y-4.1301
X7.2165Y-4.1587
X7.9429Y-4.1874
X8.6717Y-4.216
X9.3913Y-4.2446
X10.0752Y-4.2732
X10.7988Y-4.3019
X11.5146Y-4.3305
X13.278Y-4.6977
X13.5449Y-3.9657
X13.6854Y-3.9661
X14.1568Y-4.5562
X14.3096Y-5.4061
X14.3451Y-5.3415
X14.4831Y-4.4532
X10.545Y-7.6008
X10.545Y-7.7292
X11.015Y-6.0958
X11.015Y-6.2242
X5.68Y-7.9034
X5.7133Y-7.7795
X5.765Y-6.0958
X5.765Y-6.2242
X7.0846Y-5.352
X7.0846Y-5.4803
X11.39Y-6.8508
X11.39Y-6.9792
X8.58Y-5.3508
X8.58Y-5.4792
X14.015Y-7.7808
X14.015Y-7.9092
X7.4528Y-4.598
X7.4528Y-4.7264
X8.7717Y-3.661
X8.7717Y-3.7894
X15.0094Y-8.08
X15.0285Y-8.0341
X15.0285Y-8.1259
X15.0744Y-8.015
X15.0744Y-8.145
X15.1203Y-8.0341
X15.1203Y-8.1259
X15.1394Y-8.08
X10.4606Y-3.661
X10.4606Y-3.7894
X6.89Y-6.8458
X6.89Y-6.9742
X8.2378Y-4.3005
X8.2568Y-4.2545
X8.2568Y-4.3464
X8.3028Y-4.2355
X8.3028Y-4.3654
X8.3487Y-4.2545
X8.3487Y-4.3464
X8.3677Y-4.3005
X8.8108Y-7.8106
X8.844Y-7.9345
X15.0913Y-4.5958
X15.0913Y-4.7242
X14.765Y-7.785
X14.765Y-7.9134
X13.265Y-5.3508
X13.265Y-5.4792
X12.33Y-5.3508
X12.33Y-5.4792
X7.8346Y-5.35
X7.8346Y-5.4783
X5.2028Y-4.598
X5.2028Y-4.7264
X15.0094Y-3.2769
X15.0285Y-3.2309
X15.0285Y-3.3228
X15.0744Y-3.2119
X15.0744Y-3.3418
X15.1203Y-3.2309
X15.1203Y-3.3228
X15.1394Y-3.2769
X4.4547Y-4.598
X4.4547Y-4.7264
X2.3319Y-3.2769
X2.3509Y-3.2309
X2.3509Y-3.3228
X2.3969Y-3.2119
X2.3969Y-3.3418
X2.4428Y-3.2309
X2.4428Y-3.3228
X2.4618Y-3.2769
X3.1437Y-5.35
X3.1437Y-5.4783
X9.5256Y-3.663
X9.5256Y-3.7913
X10.6437Y-6.8508
X10.6437Y-6.9792
X15.1181Y-3.6961
X15.1181Y-3.8244
X10.265Y-6.0958
X10.265Y-6.2242
X5.015Y-6.0958
X5.015Y-6.2242
X5.5807Y-5.35
X5.5807Y-5.4783
X13.4366Y-4.5976
X13.4366Y-4.726
X2.9567Y-4.598
X2.9567Y-4.7264
X10.4547Y-4.598
X10.4547Y-4.7264
X4.0807Y-5.35
X4.0807Y-5.4783
X6.3346Y-3.661
X6.3346Y-3.7894
X5.39Y-6.8508
X5.39Y-6.9792
X5.9587Y-5.748
X5.9777Y-5.7021
X5.9777Y-5.794
X6.0236Y-5.6831
X6.0236Y-5.813
X6.0696Y-5.7021
X6.0696Y-5.794
X6.0886Y-5.748
X8.765Y-6.098
X8.765Y-6.2264
X13.6319Y-3.5449
X13.6319Y-3.6394
X8.015Y-6.0958
X8.015Y-6.2242
X12.9673Y-6.85
X12.9673Y-6.9783
X4.265Y-6.0958
X4.265Y-6.2242
X11.39Y-7.598
X11.39Y-7.7264
X11.58Y-5.3508
X11.58Y-5.4792
X15.0913Y-5.3458
X15.0913Y-5.4742
X6.7028Y-4.598
X6.7028Y-4.7264
X12.7126Y-3.663
X12.7126Y-3.7913
X8.9528Y-4.598
X8.9528Y-4.7264
X2.9626Y-3.661
X2.9626Y-3.7894
X9.7047Y-4.598
X9.7047Y-4.7264
X9.89Y-6.8508
X9.89Y-6.9792
X11.77Y-6.0961
X11.77Y-6.2244
X13.265Y-7.785
X13.265Y-7.9134
X13.4346Y-6.1
X13.4346Y-6.2283
X14.015Y-7.037
X14.015Y-7.1654
X6.3346Y-5.35
X6.3346Y-5.4783
X10.83Y-5.3508
X10.83Y-5.4792
X11.9567Y-4.598
X11.9567Y-4.7264
X7.2736Y-3.661
X7.2736Y-3.7894
X5.5866Y-3.661
X5.5866Y-3.7894
X8.2047Y-4.598
X8.2047Y-4.7264
X10.4469Y-5.748
X10.4659Y-5.7021
X10.4659Y-5.794
X10.5118Y-5.6831
X10.5118Y-5.813
X10.5577Y-5.7021
X10.5577Y-5.794
X10.5768Y-5.748
X11.2067Y-3.661
X11.2067Y-3.7894
X9.14Y-6.85
X9.14Y-6.9783
X2.3323Y-8.08
X2.3513Y-8.0341
X2.3513Y-8.1259
X2.3972Y-8.015
X2.3972Y-8.145
X2.4432Y-8.0341
X2.4432Y-8.1259
X2.4622Y-8.08
X3.89Y-7.6008
X3.89Y-7.7292
X3.776Y-6.85
X3.776Y-6.9783
X7.119Y-8.2983
X7.1522Y-8.1744
X7.265Y-6.1008
X7.265Y-6.2292
X13.7402Y-3.5449
X13.7402Y-3.6394
X4.8307Y-5.35
X4.8307Y-5.4783
X10.08Y-5.3508
X10.08Y-5.4792
X15.0913Y-6.1058
X15.0913Y-6.2342
X11.2028Y-4.598
X11.2028Y-4.7264
X4.8386Y-3.663
X4.8386Y-3.7913
X3.7067Y-4.598
X3.7067Y-4.7264
X5.9528Y-4.598
X5.9528Y-4.7264
X6.14Y-6.8458
X6.14Y-6.9742
X8.39Y-6.852
X8.39Y-6.9803
X12.235Y-7.6008
X12.235Y-7.7292
X9.515Y-6.0958
X9.515Y-6.2242
X4.735Y-7.6008
X4.735Y-7.7292
X6.515Y-6.0958
X6.515Y-6.2242
X3.235Y-6.0958
X3.235Y-6.2242
X3.045Y-7.6008
X3.045Y-7.7292
X9.33Y-5.3508
X9.33Y-5.4792
X9.5552Y-7.6055
X9.5885Y-7.7294
X11.9606Y-3.661
X11.9606Y-3.7894
X7.2441Y-8.5524
X7.2631Y-8.5065
X7.2631Y-8.5984
X7.3091Y-8.4875
X7.3091Y-8.6174
X7.355Y-8.5065
X7.355Y-8.5984
X7.374Y-8.5524
X4.0886Y-3.661
X4.0886Y-3.7894
X8.0217Y-3.661
X8.0217Y-3.7894
X4.64Y-6.8508
X4.64Y-6.9792
X7.64Y-6.8458
X7.64Y-6.9742
T2
X12.6661Y-3.15
X12.863Y-3.15
T3
X15.1181Y-3.5602
X15.1181Y-3.9602
X10.265Y-5.96
X10.265Y-6.36
X5.015Y-5.96
X5.015Y-6.36
X5.5807Y-5.2142
X5.5807Y-5.6142
X13.4366Y-4.4618
X13.4366Y-4.8618
X2.9567Y-4.4622
X2.9567Y-4.8622
X10.4547Y-4.4622
X10.4547Y-4.8622
X4.0807Y-5.2142
X4.0807Y-5.6142
X6.3346Y-3.5252
X6.3346Y-3.9252
X5.39Y-6.715
X5.39Y-7.115
X8.765Y-5.9622
X8.765Y-6.3622
X13.6319Y-3.3913
X13.6319Y-3.7913
X8.015Y-5.96
X8.015Y-6.36
X12.9673Y-6.7142
X12.9673Y-7.1142
X4.265Y-5.96
X4.265Y-6.36
X11.39Y-7.4622
X11.39Y-7.8622
X11.58Y-5.215
X11.58Y-5.615
X15.0913Y-5.21
X15.0913Y-5.61
X6.7028Y-4.4622
X6.7028Y-4.8622
X12.7126Y-3.5272
X12.7126Y-3.9272
X8.9528Y-4.4622
X8.9528Y-4.8622
X2.9626Y-3.5252
X2.9626Y-3.9252
X9.7047Y-4.4622
X9.7047Y-4.8622
X9.89Y-6.715
X9.89Y-7.115
X11.77Y-5.9602
X11.77Y-6.3602
X13.265Y-7.6492
X13.265Y-8.0492
X13.4346Y-5.9642
X13.4346Y-6.3642
X14.015Y-6.9012
X14.015Y-7.3012
X6.3346Y-5.2142
X6.3346Y-5.6142
X10.83Y-5.215
X10.83Y-5.615
X11.9567Y-4.4622
X11.9567Y-4.8622
X7.2736Y-3.5252
X7.2736Y-3.9252
X5.5866Y-3.5252
X5.5866Y-3.9252
X8.2047Y-4.4622
X8.2047Y-4.8622
X11.2067Y-3.5252
X11.2067Y-3.9252
X9.14Y-6.7142
X9.14Y-7.1142
X3.89Y-7.465
X3.89Y-7.865
X3.776Y-6.7142
X3.776Y-7.1142
X7.0839Y-8.4295
X7.1874Y-8.0432
X7.265Y-5.965
X7.265Y-6.365
X13.7402Y-3.3913
X13.7402Y-3.7913
X4.8307Y-5.2142
X4.8307Y-5.6142
X10.08Y-5.215
X10.08Y-5.615
X15.0913Y-5.97
X15.0913Y-6.37
X11.2028Y-4.4622
X11.2028Y-4.8622
X4.8386Y-3.5272
X4.8386Y-3.9272
X3.7067Y-4.4622
X3.7067Y-4.8622
X5.9528Y-4.4622
X5.9528Y-4.8622
X6.14Y-6.71
X6.14Y-7.11
X8.39Y-6.7161
X8.39Y-7.1161
X12.235Y-7.465
X12.235Y-7.865
X9.515Y-5.96
X9.515Y-6.36
X4.735Y-7.465
X4.735Y-7.865
X6.515Y-5.96
X6.515Y-6.36
X3.235Y-5.96
X3.235Y-6.36
X3.045Y-7.465
X3.045Y-7.865
X9.33Y-5.215
X9.33Y-5.615
X9.5201Y-7.4743
X9.6236Y-7.8606
X11.9606Y-3.5252
X11.9606Y-3.9252
X4.0886Y-3.5252
X4.0886Y-3.9252
X8.0217Y-3.5252
X8.0217Y-3.9252
X4.64Y-6.715
X4.64Y-7.115
X7.64Y-6.71
X7.64Y-7.11
X10.545Y-7.465
X10.545Y-7.865
X11.015Y-5.96
X11.015Y-6.36
X5.6449Y-8.0346
X5.7484Y-7.6483
X5.765Y-5.96
X5.765Y-6.36
X7.0846Y-5.2161
X7.0846Y-5.6161
X11.39Y-6.715
X11.39Y-7.115
X8.58Y-5.215
X8.58Y-5.615
X14.015Y-7.645
X14.015Y-8.045
X7.4528Y-4.4622
X7.4528Y-4.8622
X8.7717Y-3.5252
X8.7717Y-3.9252
X10.4606Y-3.5252
X10.4606Y-3.9252
X6.89Y-6.71
X6.89Y-7.11
X8.7756Y-7.6794
X8.8791Y-8.0657
X15.0913Y-4.46
X15.0913Y-4.86
X14.765Y-7.6492
X14.765Y-8.0492
X13.265Y-5.215
X13.265Y-5.615
X12.33Y-5.215
X12.33Y-5.615
X7.8346Y-5.2142
X7.8346Y-5.6142
X5.2028Y-4.4622
X5.2028Y-4.8622
X4.4547Y-4.4622
X4.4547Y-4.8622
X3.1437Y-5.2142
X3.1437Y-5.6142
X9.5256Y-3.5272
X9.5256Y-3.9272
X10.6437Y-6.715
X10.6437Y-7.115
T4
X13.4362Y-3.2441
X13.5362Y-3.2441
X13.6362Y-3.2441
X13.7362Y-3.2441
T5
X14.428Y-3.5598
X14.428Y-3.6583
X14.428Y-3.7567
X14.9988Y-3.5598
X14.9988Y-3.7567
T6
X13.6343Y-4.6307
X13.6343Y-4.7307
X13.6343Y-4.8307
X13.6343Y-4.9307
X13.6343Y-5.0307
X13.6343Y-5.1307
X13.6343Y-5.2307
X13.6343Y-5.3307
X13.6343Y-5.4307
X13.6343Y-5.5307
X13.6343Y-5.6307
X13.6343Y-5.7307
X13.7343Y-5.7307
X13.8343Y-5.7307
X13.9343Y-5.7307
X14.0343Y-5.7307
X14.1343Y-5.7307
X14.2343Y-4.6307
X14.2343Y-4.7307
X14.2343Y-4.8307
X14.2343Y-4.9307
X14.2343Y-5.0307
X14.2343Y-5.1307
X14.2343Y-5.2307
X14.2343Y-5.3307
X14.2343Y-5.4307
X14.2343Y-5.5307
X14.2343Y-5.6307
X14.2343Y-5.7307
T7
X12.6268Y-3.2484
X12.9024Y-3.2484
T9
X8.1095Y-3.2612
X8.8126Y-3.2612
X7.3091Y-8.5524
X15.0744Y-8.08
X8.3028Y-4.3005
X15.0744Y-3.2769
X2.3969Y-3.2769
X6.0236Y-5.748
X10.5118Y-5.748
X2.3972Y-8.08
T10
X2.4201Y-3.7264
X2.8201Y-3.7264
X6.3571Y-6.9154
X6.7571Y-6.9154
X8.9831Y-3.7283
X9.3831Y-3.7283
X3.3571Y-7.6654
X3.7571Y-7.6654
X6.2674Y-7.9974
X6.6538Y-8.101
X10.4831Y-6.1634
X10.8831Y-6.1634
X2.4201Y-4.6634
X2.8201Y-4.6634
X8.0441Y-5.4154
X8.4441Y-5.4154
X7.9643Y-8.101
X8.3507Y-7.9974
X11.0461Y-5.4154
X11.4461Y-5.4154
X10.6701Y-4.6634
X11.0701Y-4.6634
X7.1071Y-6.9154
X7.5071Y-6.9154
X6.7331Y-3.7264
X7.1331Y-3.7264
X13.4811Y-7.8524
X13.8811Y-7.8524
X11.7016Y-7.6654
X12.1016Y-7.6654
X2.5126Y-7.6654
X2.9126Y-7.6654
X12.5461Y-4.6634
X12.9461Y-4.6634
X9.7331Y-6.1634
X10.1331Y-6.1634
X2.6071Y-5.4154
X3.0071Y-5.4154
X8.7941Y-5.4154
X9.1941Y-5.4154
X4.2016Y-7.6654
X4.6016Y-7.6654
X4.2941Y-5.4154
X4.6941Y-5.4154
X7.2941Y-5.4154
X7.6941Y-5.4154
X9.9201Y-4.6634
X10.3201Y-4.6634
X9.0509Y-7.8096
X9.4373Y-7.7061
X12.7311Y-7.8524
X13.1311Y-7.8524
X10.6701Y-3.7264
X11.0701Y-3.7264
X5.7961Y-3.7264
X6.1961Y-3.7264
X14.5591Y-5.4158
X14.9591Y-5.4158
X2.8866Y-6.9154
X3.2866Y-6.9154
X5.9811Y-6.1634
X6.3811Y-6.1634
X8.9831Y-6.1634
X9.3831Y-6.1634
X9.1701Y-4.6634
X9.5701Y-4.6634
X11.4201Y-4.6634
X11.8201Y-4.6634
X6.1701Y-4.6634
X6.5701Y-4.6634
X5.4201Y-4.6634
X5.8201Y-4.6634
X7.4831Y-3.7264
X7.8831Y-3.7264
X12.0756Y-6.9154
X12.4756Y-6.9154
X10.1071Y-6.9154
X10.5071Y-6.9154
X5.0441Y-3.7264
X5.4441Y-3.7264
X9.3571Y-6.9154
X9.7571Y-6.9154
X14.5587Y-4.6662
X14.9587Y-4.6662
X2.6996Y-6.1634
X3.0996Y-6.1634
X7.4811Y-6.1634
X7.8811Y-6.1634
X8.2331Y-6.1634
X8.6331Y-6.1634
X7.6701Y-4.6634
X8.0701Y-4.6634
X12.5441Y-6.1654
X12.9441Y-6.1654
X6.9201Y-4.6634
X7.3201Y-4.6634
X9.5461Y-5.4154
X9.9461Y-5.4154
X12.1681Y-3.7264
X12.5681Y-3.7264
X14.2311Y-7.8524
X14.6311Y-7.8524
X10.8571Y-7.6654
X11.2571Y-7.6654
X4.2941Y-3.7264
X4.6941Y-3.7264
X12.7331Y-5.4154
X13.1331Y-5.4154
X6.7311Y-6.1634
X7.1311Y-6.1634
X5.2291Y-6.1634
X5.6291Y-6.1634
X4.4811Y-6.1634
X4.8811Y-6.1634
X4.6701Y-4.6634
X5.0701Y-4.6634
X8.4201Y-4.6634
X8.8201Y-4.6634
X13.4811Y-7.1024
X13.8811Y-7.1024
X8.2331Y-3.7264
X8.6331Y-3.7264
X10.8591Y-6.9154
X11.2591Y-6.9154
X3.5461Y-3.7264
X3.9461Y-3.7264
X5.1789Y-7.7041
X5.5652Y-7.8077
X9.9201Y-3.7264
X10.3201Y-3.7264
X11.7961Y-5.4154
X12.1961Y-5.4154
X11.2331Y-6.1634
X11.6331Y-6.1634
X3.9201Y-4.6634
X4.3201Y-4.6634
X10.2961Y-5.4154
X10.6961Y-5.4154
X3.7311Y-6.1634
X4.1311Y-6.1634
X6.5441Y-5.4154
X6.9441Y-5.4154
X7.8571Y-6.9154
X8.2571Y-6.9154
X8.6071Y-6.9154
X9.0071Y-6.9154
X5.6071Y-6.9154
X6.0071Y-6.9154
X10.0146Y-7.6654
X10.4146Y-7.6654
X4.1071Y-6.9154
X4.5071Y-6.9154
X14.5591Y-6.1658
X14.9591Y-6.1658
X5.7941Y-5.4154
X6.1941Y-5.4154
X3.1701Y-4.6634
X3.5701Y-4.6634
X3.5441Y-5.4154
X3.9441Y-5.4154
X5.0441Y-5.4154
X5.4441Y-5.4154
X4.8571Y-6.9154
X5.2571Y-6.9154
X11.4201Y-3.7264
X11.8201Y-3.7264
T11
X6.3416Y-7.9138
X6.609Y-7.8819
X10.5331Y-6.0634
X10.7831Y-5.9634
X2.4701Y-4.5634
X2.7201Y-4.4634
X8.0941Y-5.3154
X8.3441Y-5.2154
X7.9867Y-7.9914
X8.2023Y-7.8301
X11.0961Y-5.3154
X11.3461Y-5.2154
X10.7201Y-4.5634
X10.9701Y-4.4634
X7.1571Y-6.8154
X7.4071Y-6.7154
X6.7831Y-3.6264
X7.0331Y-3.5264
X13.5311Y-7.7524
X13.7811Y-7.6524
X11.7516Y-7.5654
X12.0016Y-7.4654
X2.5626Y-7.5654
X2.8126Y-7.4654
X12.5961Y-4.5634
X12.8461Y-4.4634
X9.7831Y-6.0634
X10.0331Y-5.9634
X2.6571Y-5.3154
X2.9071Y-5.2154
X8.8441Y-5.3154
X9.0941Y-5.2154
X4.2516Y-7.5654
X4.5016Y-7.4654
X4.3441Y-5.3154
X4.5941Y-5.2154
X7.3441Y-5.3154
X7.5941Y-5.2154
X9.9701Y-4.5634
X10.2201Y-4.4634
X9.0733Y-7.7001
X9.2889Y-7.5388
X12.7811Y-7.7524
X13.0311Y-7.6524
X10.7201Y-3.6264
X10.9701Y-3.5264
X5.8461Y-3.6264
X6.0961Y-3.5264
X14.6091Y-5.3158
X14.8591Y-5.2158
X2.9366Y-6.8154
X3.1866Y-6.7154
X6.0311Y-6.0634
X6.2811Y-5.9634
X9.0331Y-6.0634
X9.2831Y-5.9634
X9.2201Y-4.5634
X9.4701Y-4.4634
X11.4701Y-4.5634
X11.7201Y-4.4634
X6.2201Y-4.5634
X6.4701Y-4.4634
X5.4701Y-4.5634
X5.7201Y-4.4634
X7.5331Y-3.6264
X7.7831Y-3.5264
X12.1256Y-6.8154
X12.3756Y-6.7154
X10.1571Y-6.8154
X10.4071Y-6.7154
X5.0941Y-3.6264
X5.3441Y-3.5264
X9.4071Y-6.8154
X9.6571Y-6.7154
X14.6087Y-4.5662
X14.8587Y-4.4662
X2.7496Y-6.0634
X2.9996Y-5.9634
X7.5311Y-6.0634
X7.7811Y-5.9634
X8.2831Y-6.0634
X8.5331Y-5.9634
X7.7201Y-4.5634
X7.9701Y-4.4634
X12.5941Y-6.0654
X12.8441Y-5.9654
X6.9701Y-4.5634
X7.2201Y-4.4634
X9.5961Y-5.3154
X9.8461Y-5.2154
X12.2181Y-3.6264
X12.4681Y-3.5264
X14.2811Y-7.7524
X14.5311Y-7.6524
X10.9071Y-7.5654
X11.1571Y-7.4654
X4.3441Y-3.6264
X4.5941Y-3.5264
X12.7831Y-5.3154
X13.0331Y-5.2154
X6.7811Y-6.0634
X7.0311Y-5.9634
X5.2791Y-6.0634
X5.5291Y-5.9634
X4.5311Y-6.0634
X4.7811Y-5.9634
X4.7201Y-4.5634
X4.9701Y-4.4634
X8.4701Y-4.5634
X8.7201Y-4.4634
X13.5311Y-7.0024
X13.7811Y-6.9024
X8.2831Y-3.6264
X8.5331Y-3.5264
X10.9091Y-6.8154
X11.1591Y-6.7154
X3.5961Y-3.6264
X3.8461Y-3.5264
X5.253Y-7.6205
X5.5204Y-7.5886
X9.9701Y-3.6264
X10.2201Y-3.5264
X11.8461Y-5.3154
X12.0961Y-5.2154
X11.2831Y-6.0634
X11.5331Y-5.9634
X3.9701Y-4.5634
X4.2201Y-4.4634
X10.3461Y-5.3154
X10.5961Y-5.2154
X3.7811Y-6.0634
X4.0311Y-5.9634
X6.5941Y-5.3154
X6.8441Y-5.2154
X7.9071Y-6.8154
X8.1571Y-6.7154
X8.6571Y-6.8154
X8.9071Y-6.7154
X5.6571Y-6.8154
X5.9071Y-6.7154
X10.0646Y-7.5654
X10.3146Y-7.4654
X4.1571Y-6.8154
X4.4071Y-6.7154
X14.6091Y-6.0658
X14.8591Y-5.9658
X5.8441Y-5.3154
X6.0941Y-5.2154
X3.2201Y-4.5634
X3.4701Y-4.4634
X3.5941Y-5.3154
X3.8441Y-5.2154
X5.0941Y-5.3154
X5.3441Y-5.2154
X4.9071Y-6.8154
X5.1571Y-6.7154
X11.4701Y-3.6264
X11.7201Y-3.5264
X2.4701Y-3.6264
X2.7201Y-3.5264
X6.4071Y-6.8154
X6.6571Y-6.7154
X9.0331Y-3.6283
X9.2831Y-3.5283
X3.4071Y-7.5654
X3.6571Y-7.4654
T12
X6.0794Y-7.6618
X6.9845Y-7.9043
X7.6336Y-7.9043
X8.5387Y-7.6618
X12.2776Y-4.3878
X13.2146Y-4.3878
X2.6181Y-6.6398
X3.5551Y-6.6398
X11.8071Y-6.6398
X12.7441Y-6.6398
X12.2756Y-5.8898
X13.2126Y-5.8898
T13
X5.9241Y-8.2413
X6.8292Y-8.4838
X7.7889Y-8.4838
X8.694Y-8.2413
X12.2776Y-4.9878
X13.2146Y-4.9878
X2.6181Y-7.2398
X3.5551Y-7.2398
X11.8071Y-7.2398
X12.7441Y-7.2398
X12.2756Y-6.4898
X13.2126Y-6.4898
T14
X10.6831Y-6.1634
X2.6201Y-4.6634
X8.2441Y-5.4154
X8.1575Y-8.0492
X11.2461Y-5.4154
X10.8701Y-4.6634
X7.3071Y-6.9154
X6.9331Y-3.7264
X13.6811Y-7.8524
X11.9016Y-7.6654
X2.7126Y-7.6654
X12.7461Y-4.6634
X9.9331Y-6.1634
X2.8071Y-5.4154
X8.9941Y-5.4154
X4.4016Y-7.6654
X4.4941Y-5.4154
X7.4941Y-5.4154
X10.1201Y-4.6634
X9.2441Y-7.7579
X12.9311Y-7.8524
X10.8701Y-3.7264
X5.9961Y-3.7264
X14.7591Y-5.4158
X3.0866Y-6.9154
X6.1811Y-6.1634
X9.1831Y-6.1634
X9.3701Y-4.6634
X11.6201Y-4.6634
X6.3701Y-4.6634
X5.6201Y-4.6634
X7.6831Y-3.7264
X12.2756Y-6.9154
X10.3071Y-6.9154
X5.2441Y-3.7264
X9.5571Y-6.9154
X14.7587Y-4.6662
X2.8996Y-6.1634
X7.6811Y-6.1634
X8.4331Y-6.1634
X7.8701Y-4.6634
X12.7441Y-6.1654
X7.1201Y-4.6634
X9.7461Y-5.4154
X12.3681Y-3.7264
X14.4311Y-7.8524
X11.0571Y-7.6654
X4.4941Y-3.7264
X12.9331Y-5.4154
X6.9311Y-6.1634
X5.4291Y-6.1634
X4.6811Y-6.1634
X4.8701Y-4.6634
X8.6201Y-4.6634
X13.6811Y-7.1024
X8.4331Y-3.7264
X11.0591Y-6.9154
X3.7461Y-3.7264
X5.372Y-7.7559
X10.1201Y-3.7264
X11.9961Y-5.4154
X11.4331Y-6.1634
X4.1201Y-4.6634
X10.4961Y-5.4154
X3.9311Y-6.1634
X6.7441Y-5.4154
X8.0571Y-6.9154
X8.8071Y-6.9154
X5.8071Y-6.9154
X10.2146Y-7.6654
X4.3071Y-6.9154
X14.7591Y-6.1658
X5.9941Y-5.4154
X3.3701Y-4.6634
X3.7441Y-5.4154
X5.2441Y-5.4154
X5.0571Y-6.9154
X11.6201Y-3.7264
X2.6201Y-3.7264
X6.5571Y-6.9154
X9.1831Y-3.7283
X3.5571Y-7.6654
X6.4606Y-8.0492
T8
G00X14.6976Y-3.4378
M15
G01X14.7488Y-3.4378
M16
G05
G00X14.6976Y-3.8787
M15
G01X14.7488Y-3.8787
M16
G05
T0
M30
