%TF.GenerationSoftware,KiCad,Pcbnew,(5.1.6)-1*%
%TF.CreationDate,2021-09-12T01:22:44+02:00*%
%TF.ProjectId,Kanagawa,4b616e61-6761-4776-912e-6b696361645f,rev?*%
%TF.SameCoordinates,Original*%
%TF.FileFunction,Paste,Bot*%
%TF.FilePolarity,Positive*%
%FSLAX46Y46*%
G04 Gerber Fmt 4.6, Leading zero omitted, Abs format (unit mm)*
G04 Created by KiCad (PCBNEW (5.1.6)-1) date 2021-09-12 01:22:44*
%MOMM*%
%LPD*%
G01*
G04 APERTURE LIST*
%ADD10R,2.300000X2.000000*%
%ADD11C,0.100000*%
G04 APERTURE END LIST*
D10*
%TO.C,KA11*%
X300850000Y-89530000D03*
X288150000Y-92070000D03*
%TD*%
%TO.C,KE11*%
X317500000Y-170530000D03*
X304800000Y-173070000D03*
%TD*%
%TO.C,KA0*%
X72250000Y-89530000D03*
X59550000Y-92070000D03*
%TD*%
%TO.C,KA1*%
X100850000Y-89530000D03*
X88150000Y-92070000D03*
%TD*%
%TO.C,KA2*%
X119850000Y-89530000D03*
X107150000Y-92070000D03*
%TD*%
%TO.C,KA3*%
X138900000Y-89530000D03*
X126200000Y-92070000D03*
%TD*%
%TO.C,KA4*%
X158000000Y-89530000D03*
X145300000Y-92070000D03*
%TD*%
%TO.C,KA5*%
X181800000Y-89530000D03*
X169100000Y-92070000D03*
%TD*%
%TO.C,KA6*%
X200850000Y-89530000D03*
X188150000Y-92070000D03*
%TD*%
%TO.C,KA7*%
X219900000Y-89530000D03*
X207200000Y-92070000D03*
%TD*%
%TO.C,KA8*%
X238950000Y-89580000D03*
X226250000Y-92120000D03*
%TD*%
%TO.C,KA9*%
X262750000Y-89530000D03*
X250050000Y-92070000D03*
%TD*%
%TO.C,KA10*%
X281800000Y-89530000D03*
X269100000Y-92070000D03*
%TD*%
%TO.C,KA12*%
X319850000Y-89530000D03*
X307150000Y-92070000D03*
%TD*%
%TO.C,KB0*%
X72250000Y-113330000D03*
X59550000Y-115870000D03*
%TD*%
%TO.C,KB1*%
X91300000Y-113330000D03*
X78600000Y-115870000D03*
%TD*%
%TO.C,KB2*%
X110350000Y-113330000D03*
X97650000Y-115870000D03*
%TD*%
%TO.C,KB3*%
X129400000Y-113330000D03*
X116700000Y-115870000D03*
%TD*%
%TO.C,KB4*%
X148450000Y-113330000D03*
X135750000Y-115870000D03*
%TD*%
%TO.C,KB5*%
X167500000Y-113330000D03*
X154800000Y-115870000D03*
%TD*%
%TO.C,KB6*%
X186550000Y-113330000D03*
X173850000Y-115870000D03*
%TD*%
%TO.C,KB7*%
X205600000Y-113330000D03*
X192900000Y-115870000D03*
%TD*%
%TO.C,KB8*%
X224650000Y-113330000D03*
X211950000Y-115870000D03*
%TD*%
%TO.C,KB9*%
X243700000Y-113330000D03*
X231000000Y-115870000D03*
%TD*%
%TO.C,KB10*%
X262750000Y-113330000D03*
X250050000Y-115870000D03*
%TD*%
%TO.C,KB11*%
X281800000Y-113330000D03*
X269100000Y-115870000D03*
%TD*%
%TO.C,KB12*%
X300850000Y-113330000D03*
X288150000Y-115870000D03*
%TD*%
%TO.C,KC1*%
X100800000Y-132430000D03*
X88100000Y-134970000D03*
%TD*%
%TO.C,KC2*%
X119850000Y-132430000D03*
X107150000Y-134970000D03*
%TD*%
%TO.C,KC3*%
X138900000Y-132430000D03*
X126200000Y-134970000D03*
%TD*%
%TO.C,KC4*%
X157950000Y-132430000D03*
X145250000Y-134970000D03*
%TD*%
%TO.C,KC5*%
X177000000Y-132430000D03*
X164300000Y-134970000D03*
%TD*%
%TO.C,KC6*%
X196050000Y-132430000D03*
X183350000Y-134970000D03*
%TD*%
%TO.C,KC7*%
X215100000Y-132430000D03*
X202400000Y-134970000D03*
%TD*%
%TO.C,KC8*%
X234150000Y-132430000D03*
X221450000Y-134970000D03*
%TD*%
%TO.C,KC9*%
X253250000Y-132430000D03*
X240550000Y-134970000D03*
%TD*%
%TO.C,KC10*%
X272300000Y-132430000D03*
X259600000Y-134970000D03*
%TD*%
%TO.C,KC11*%
X291350000Y-132430000D03*
X278650000Y-134970000D03*
%TD*%
%TO.C,KD1*%
X105550000Y-151430000D03*
X92850000Y-153970000D03*
%TD*%
%TO.C,KD2*%
X124600000Y-151430000D03*
X111900000Y-153970000D03*
%TD*%
%TO.C,KD3*%
X143600000Y-151430000D03*
X130900000Y-153970000D03*
%TD*%
%TO.C,KD4*%
X162700000Y-151430000D03*
X150000000Y-153970000D03*
%TD*%
%TO.C,KD5*%
X181750000Y-151430000D03*
X169050000Y-153970000D03*
%TD*%
%TO.C,KD6*%
X200800000Y-151430000D03*
X188100000Y-153970000D03*
%TD*%
%TO.C,KD7*%
X219900000Y-151430000D03*
X207200000Y-153970000D03*
%TD*%
%TO.C,KD8*%
X238950000Y-151430000D03*
X226250000Y-153970000D03*
%TD*%
%TO.C,KD9*%
X258000000Y-151430000D03*
X245300000Y-153970000D03*
%TD*%
%TO.C,KD10*%
X277050000Y-151430000D03*
X264350000Y-153970000D03*
%TD*%
%TO.C,KD11*%
X296100000Y-151430000D03*
X283400000Y-153970000D03*
%TD*%
%TO.C,KE1*%
X115100000Y-170530000D03*
X102400000Y-173070000D03*
%TD*%
%TO.C,KE2*%
X134150000Y-170530000D03*
X121450000Y-173070000D03*
%TD*%
%TO.C,KE3*%
X153200000Y-170530000D03*
X140500000Y-173070000D03*
%TD*%
%TO.C,KE4*%
X172250000Y-170530000D03*
X159550000Y-173070000D03*
%TD*%
%TO.C,KE5*%
X191300000Y-170530000D03*
X178600000Y-173070000D03*
%TD*%
%TO.C,KE6*%
X210350000Y-170530000D03*
X197650000Y-173070000D03*
%TD*%
%TO.C,KE7*%
X229400000Y-170530000D03*
X216700000Y-173070000D03*
%TD*%
%TO.C,KE8*%
X248450000Y-170530000D03*
X235750000Y-173070000D03*
%TD*%
%TO.C,KE9*%
X267500000Y-170530000D03*
X254800000Y-173070000D03*
%TD*%
%TO.C,KE10*%
X286600000Y-170530000D03*
X273900000Y-173070000D03*
%TD*%
%TO.C,KE12*%
X353200000Y-175280000D03*
X340500000Y-177820000D03*
%TD*%
%TO.C,KF1*%
X96050000Y-189580000D03*
X83350000Y-192120000D03*
%TD*%
D11*
%TO.C,KF3*%
G36*
X144650565Y-192861444D02*
G01*
X144132927Y-194793296D01*
X141911297Y-194198012D01*
X142428935Y-192266160D01*
X144650565Y-192861444D01*
G37*
G36*
X131725906Y-192027894D02*
G01*
X131208268Y-193959746D01*
X128986638Y-193364462D01*
X129504276Y-191432610D01*
X131725906Y-192027894D01*
G37*
%TD*%
%TO.C,KF6*%
G36*
X239832620Y-189365623D02*
G01*
X240350258Y-191297475D01*
X238128628Y-191892759D01*
X237610990Y-189960907D01*
X239832620Y-189365623D01*
G37*
G36*
X228222762Y-195106077D02*
G01*
X228740400Y-197037929D01*
X226518770Y-197633213D01*
X226001132Y-195701361D01*
X228222762Y-195106077D01*
G37*
%TD*%
D10*
%TO.C,KF8*%
X286550000Y-189580000D03*
X273850000Y-192120000D03*
%TD*%
%TO.C,KF10*%
X334150000Y-194330000D03*
X321450000Y-196870000D03*
%TD*%
%TO.C,KF11*%
X353200000Y-194330000D03*
X340500000Y-196870000D03*
%TD*%
%TO.C,KF12*%
X372250000Y-194330000D03*
X359550000Y-196870000D03*
%TD*%
%TO.C,KB13*%
X329450000Y-113330000D03*
X316750000Y-115870000D03*
%TD*%
%TO.C,KC0*%
X77000000Y-132430000D03*
X64300000Y-134970000D03*
%TD*%
%TO.C,KD0*%
X79350000Y-151430000D03*
X66650000Y-153970000D03*
%TD*%
%TO.C,KD12*%
X329400000Y-151480000D03*
X316700000Y-154020000D03*
%TD*%
%TO.C,KE0*%
X84100000Y-170530000D03*
X71400000Y-173070000D03*
%TD*%
%TO.C,KF0*%
X74600000Y-189580000D03*
X61900000Y-192120000D03*
%TD*%
%TO.C,KF2*%
X117500000Y-189580000D03*
X104800000Y-192120000D03*
%TD*%
D11*
%TO.C,KF4*%
G36*
X172300565Y-200311444D02*
G01*
X171782927Y-202243296D01*
X169561297Y-201648012D01*
X170078935Y-199716160D01*
X172300565Y-200311444D01*
G37*
G36*
X159375906Y-199477894D02*
G01*
X158858268Y-201409746D01*
X156636638Y-200814462D01*
X157154276Y-198882610D01*
X159375906Y-199477894D01*
G37*
%TD*%
%TO.C,KF5*%
G36*
X212232620Y-196765623D02*
G01*
X212750258Y-198697475D01*
X210528628Y-199292759D01*
X210010990Y-197360907D01*
X212232620Y-196765623D01*
G37*
G36*
X200622762Y-202506077D02*
G01*
X201140400Y-204437929D01*
X198918770Y-205033213D01*
X198401132Y-203101361D01*
X200622762Y-202506077D01*
G37*
%TD*%
D10*
%TO.C,KF7*%
X265150000Y-189580000D03*
X252450000Y-192120000D03*
%TD*%
%TO.C,KF9*%
X308000000Y-189580000D03*
X295300000Y-192120000D03*
%TD*%
%TO.C,KC12*%
X310400000Y-132430000D03*
X297700000Y-134970000D03*
%TD*%
%TO.C,KC13*%
X334200000Y-132430000D03*
X321500000Y-134970000D03*
%TD*%
%TO.C,KD13*%
X380570000Y-113402000D03*
X367870000Y-115942000D03*
%TD*%
%TO.C,KE13*%
X380580000Y-132442000D03*
X367880000Y-134982000D03*
%TD*%
%TO.C,KF13*%
X380580000Y-151492000D03*
X367880000Y-154032000D03*
%TD*%
M02*
