%TF.GenerationSoftware,KiCad,Pcbnew,(5.1.6)-1*%
%TF.CreationDate,2021-09-12T01:22:44+02:00*%
%TF.ProjectId,Kanagawa,4b616e61-6761-4776-912e-6b696361645f,rev?*%
%TF.SameCoordinates,Original*%
%TF.FileFunction,Legend,Top*%
%TF.FilePolarity,Positive*%
%FSLAX46Y46*%
G04 Gerber Fmt 4.6, Leading zero omitted, Abs format (unit mm)*
G04 Created by KiCad (PCBNEW (5.1.6)-1) date 2021-09-12 01:22:44*
%MOMM*%
%LPD*%
G01*
G04 APERTURE LIST*
%ADD10C,0.381000*%
%ADD11C,0.150000*%
%ADD12C,0.120000*%
%ADD13C,0.100000*%
G04 APERTURE END LIST*
D10*
%TO.C,U0*%
X345040000Y-116350000D02*
X345040000Y-146830000D01*
X345040000Y-146830000D02*
X362820000Y-146830000D01*
X362820000Y-146830000D02*
X362820000Y-116350000D01*
X347580000Y-116350000D02*
X347580000Y-118890000D01*
X347580000Y-118890000D02*
X345040000Y-118890000D01*
D11*
G36*
X358861568Y-122229360D02*
G01*
X358861568Y-122529360D01*
X358761568Y-122529360D01*
X358761568Y-122229360D01*
X358861568Y-122229360D01*
G37*
X358861568Y-122229360D02*
X358861568Y-122529360D01*
X358761568Y-122529360D01*
X358761568Y-122229360D01*
X358861568Y-122229360D01*
G36*
X358661568Y-122629360D02*
G01*
X358661568Y-122729360D01*
X358561568Y-122729360D01*
X358561568Y-122629360D01*
X358661568Y-122629360D01*
G37*
X358661568Y-122629360D02*
X358661568Y-122729360D01*
X358561568Y-122729360D01*
X358561568Y-122629360D01*
X358661568Y-122629360D01*
G36*
X358861568Y-122229360D02*
G01*
X358861568Y-122329360D01*
X358361568Y-122329360D01*
X358361568Y-122229360D01*
X358861568Y-122229360D01*
G37*
X358861568Y-122229360D02*
X358861568Y-122329360D01*
X358361568Y-122329360D01*
X358361568Y-122229360D01*
X358861568Y-122229360D01*
G36*
X358461568Y-122229360D02*
G01*
X358461568Y-123029360D01*
X358361568Y-123029360D01*
X358361568Y-122229360D01*
X358461568Y-122229360D01*
G37*
X358461568Y-122229360D02*
X358461568Y-123029360D01*
X358361568Y-123029360D01*
X358361568Y-122229360D01*
X358461568Y-122229360D01*
G36*
X358861568Y-122829360D02*
G01*
X358861568Y-123029360D01*
X358761568Y-123029360D01*
X358761568Y-122829360D01*
X358861568Y-122829360D01*
G37*
X358861568Y-122829360D02*
X358861568Y-123029360D01*
X358761568Y-123029360D01*
X358761568Y-122829360D01*
X358861568Y-122829360D01*
D10*
X362820000Y-116350000D02*
X362820000Y-113810000D01*
X362820000Y-113810000D02*
X345040000Y-113810000D01*
X345040000Y-113810000D02*
X345040000Y-116350000D01*
X347580000Y-116350000D02*
X345040000Y-116350000D01*
D12*
%TO.C,SW99*%
X373470000Y-92920000D02*
X374470000Y-92920000D01*
X373970000Y-92420000D02*
X373970000Y-93420000D01*
X380070000Y-96420000D02*
X380070000Y-98820000D01*
X380070000Y-91620000D02*
X380070000Y-94220000D01*
X380070000Y-87020000D02*
X380070000Y-89420000D01*
X367870000Y-87020000D02*
X367870000Y-98820000D01*
X371970000Y-87020000D02*
X367870000Y-87020000D01*
X371970000Y-98820000D02*
X367870000Y-98820000D01*
X380070000Y-98820000D02*
X375970000Y-98820000D01*
X375970000Y-87020000D02*
X380070000Y-87020000D01*
X376970000Y-92920000D02*
G75*
G03*
X376970000Y-92920000I-3000000J0D01*
G01*
D11*
%TO.C,DA0*%
X75250000Y-98430000D02*
X75250000Y-97460000D01*
X75250000Y-91780000D02*
X75250000Y-90810000D01*
X75950000Y-95140000D02*
X74550000Y-95140000D01*
X75950000Y-94100000D02*
X75250000Y-95140000D01*
X74550000Y-94100000D02*
X75950000Y-94100000D01*
X75250000Y-95140000D02*
X74550000Y-94100000D01*
%TO.C,DA1*%
X103850000Y-98430000D02*
X103850000Y-97460000D01*
X103850000Y-91780000D02*
X103850000Y-90810000D01*
X104550000Y-95140000D02*
X103150000Y-95140000D01*
X104550000Y-94100000D02*
X103850000Y-95140000D01*
X103150000Y-94100000D02*
X104550000Y-94100000D01*
X103850000Y-95140000D02*
X103150000Y-94100000D01*
%TO.C,DA2*%
X122900000Y-98480000D02*
X122900000Y-97510000D01*
X122900000Y-91830000D02*
X122900000Y-90860000D01*
X123600000Y-95190000D02*
X122200000Y-95190000D01*
X123600000Y-94150000D02*
X122900000Y-95190000D01*
X122200000Y-94150000D02*
X123600000Y-94150000D01*
X122900000Y-95190000D02*
X122200000Y-94150000D01*
%TO.C,DA3*%
X141900000Y-98430000D02*
X141900000Y-97460000D01*
X141900000Y-91780000D02*
X141900000Y-90810000D01*
X142600000Y-95140000D02*
X141200000Y-95140000D01*
X142600000Y-94100000D02*
X141900000Y-95140000D01*
X141200000Y-94100000D02*
X142600000Y-94100000D01*
X141900000Y-95140000D02*
X141200000Y-94100000D01*
%TO.C,DA4*%
X160900000Y-98430000D02*
X160900000Y-97460000D01*
X160900000Y-91780000D02*
X160900000Y-90810000D01*
X161600000Y-95140000D02*
X160200000Y-95140000D01*
X161600000Y-94100000D02*
X160900000Y-95140000D01*
X160200000Y-94100000D02*
X161600000Y-94100000D01*
X160900000Y-95140000D02*
X160200000Y-94100000D01*
%TO.C,DA5*%
X184750000Y-98430000D02*
X184750000Y-97460000D01*
X184750000Y-91780000D02*
X184750000Y-90810000D01*
X185450000Y-95140000D02*
X184050000Y-95140000D01*
X185450000Y-94100000D02*
X184750000Y-95140000D01*
X184050000Y-94100000D02*
X185450000Y-94100000D01*
X184750000Y-95140000D02*
X184050000Y-94100000D01*
%TO.C,DA6*%
X203750000Y-98430000D02*
X203750000Y-97460000D01*
X203750000Y-91780000D02*
X203750000Y-90810000D01*
X204450000Y-95140000D02*
X203050000Y-95140000D01*
X204450000Y-94100000D02*
X203750000Y-95140000D01*
X203050000Y-94100000D02*
X204450000Y-94100000D01*
X203750000Y-95140000D02*
X203050000Y-94100000D01*
%TO.C,DA7*%
X222800000Y-98430000D02*
X222800000Y-97460000D01*
X222800000Y-91780000D02*
X222800000Y-90810000D01*
X223500000Y-95140000D02*
X222100000Y-95140000D01*
X223500000Y-94100000D02*
X222800000Y-95140000D01*
X222100000Y-94100000D02*
X223500000Y-94100000D01*
X222800000Y-95140000D02*
X222100000Y-94100000D01*
%TO.C,DA8*%
X241950000Y-98480000D02*
X241950000Y-97510000D01*
X241950000Y-91830000D02*
X241950000Y-90860000D01*
X242650000Y-95190000D02*
X241250000Y-95190000D01*
X242650000Y-94150000D02*
X241950000Y-95190000D01*
X241250000Y-94150000D02*
X242650000Y-94150000D01*
X241950000Y-95190000D02*
X241250000Y-94150000D01*
%TO.C,DA9*%
X265700000Y-98430000D02*
X265700000Y-97460000D01*
X265700000Y-91780000D02*
X265700000Y-90810000D01*
X266400000Y-95140000D02*
X265000000Y-95140000D01*
X266400000Y-94100000D02*
X265700000Y-95140000D01*
X265000000Y-94100000D02*
X266400000Y-94100000D01*
X265700000Y-95140000D02*
X265000000Y-94100000D01*
%TO.C,DA10*%
X284650000Y-98430000D02*
X284650000Y-97460000D01*
X284650000Y-91780000D02*
X284650000Y-90810000D01*
X285350000Y-95140000D02*
X283950000Y-95140000D01*
X285350000Y-94100000D02*
X284650000Y-95140000D01*
X283950000Y-94100000D02*
X285350000Y-94100000D01*
X284650000Y-95140000D02*
X283950000Y-94100000D01*
%TO.C,DA11*%
X303800000Y-98430000D02*
X303800000Y-97460000D01*
X303800000Y-91780000D02*
X303800000Y-90810000D01*
X304500000Y-95140000D02*
X303100000Y-95140000D01*
X304500000Y-94100000D02*
X303800000Y-95140000D01*
X303100000Y-94100000D02*
X304500000Y-94100000D01*
X303800000Y-95140000D02*
X303100000Y-94100000D01*
%TO.C,DA12*%
X322900000Y-98480000D02*
X322900000Y-97510000D01*
X322900000Y-91830000D02*
X322900000Y-90860000D01*
X323600000Y-95190000D02*
X322200000Y-95190000D01*
X323600000Y-94150000D02*
X322900000Y-95190000D01*
X322200000Y-94150000D02*
X323600000Y-94150000D01*
X322900000Y-95190000D02*
X322200000Y-94150000D01*
%TO.C,DB0*%
X75100000Y-122230000D02*
X75100000Y-121260000D01*
X75100000Y-115580000D02*
X75100000Y-114610000D01*
X75800000Y-118940000D02*
X74400000Y-118940000D01*
X75800000Y-117900000D02*
X75100000Y-118940000D01*
X74400000Y-117900000D02*
X75800000Y-117900000D01*
X75100000Y-118940000D02*
X74400000Y-117900000D01*
%TO.C,DB1*%
X94150000Y-122230000D02*
X94150000Y-121260000D01*
X94150000Y-115580000D02*
X94150000Y-114610000D01*
X94850000Y-118940000D02*
X93450000Y-118940000D01*
X94850000Y-117900000D02*
X94150000Y-118940000D01*
X93450000Y-117900000D02*
X94850000Y-117900000D01*
X94150000Y-118940000D02*
X93450000Y-117900000D01*
%TO.C,DB2*%
X113150000Y-122230000D02*
X113150000Y-121260000D01*
X113150000Y-115580000D02*
X113150000Y-114610000D01*
X113850000Y-118940000D02*
X112450000Y-118940000D01*
X113850000Y-117900000D02*
X113150000Y-118940000D01*
X112450000Y-117900000D02*
X113850000Y-117900000D01*
X113150000Y-118940000D02*
X112450000Y-117900000D01*
%TO.C,DB3*%
X132150000Y-122230000D02*
X132150000Y-121260000D01*
X132150000Y-115580000D02*
X132150000Y-114610000D01*
X132850000Y-118940000D02*
X131450000Y-118940000D01*
X132850000Y-117900000D02*
X132150000Y-118940000D01*
X131450000Y-117900000D02*
X132850000Y-117900000D01*
X132150000Y-118940000D02*
X131450000Y-117900000D01*
%TO.C,DB4*%
X151200000Y-122230000D02*
X151200000Y-121260000D01*
X151200000Y-115580000D02*
X151200000Y-114610000D01*
X151900000Y-118940000D02*
X150500000Y-118940000D01*
X151900000Y-117900000D02*
X151200000Y-118940000D01*
X150500000Y-117900000D02*
X151900000Y-117900000D01*
X151200000Y-118940000D02*
X150500000Y-117900000D01*
%TO.C,DB5*%
X170250000Y-122230000D02*
X170250000Y-121260000D01*
X170250000Y-115580000D02*
X170250000Y-114610000D01*
X170950000Y-118940000D02*
X169550000Y-118940000D01*
X170950000Y-117900000D02*
X170250000Y-118940000D01*
X169550000Y-117900000D02*
X170950000Y-117900000D01*
X170250000Y-118940000D02*
X169550000Y-117900000D01*
%TO.C,DB6*%
X189300000Y-122230000D02*
X189300000Y-121260000D01*
X189300000Y-115580000D02*
X189300000Y-114610000D01*
X190000000Y-118940000D02*
X188600000Y-118940000D01*
X190000000Y-117900000D02*
X189300000Y-118940000D01*
X188600000Y-117900000D02*
X190000000Y-117900000D01*
X189300000Y-118940000D02*
X188600000Y-117900000D01*
%TO.C,DB7*%
X208400000Y-122230000D02*
X208400000Y-121260000D01*
X208400000Y-115580000D02*
X208400000Y-114610000D01*
X209100000Y-118940000D02*
X207700000Y-118940000D01*
X209100000Y-117900000D02*
X208400000Y-118940000D01*
X207700000Y-117900000D02*
X209100000Y-117900000D01*
X208400000Y-118940000D02*
X207700000Y-117900000D01*
%TO.C,DB8*%
X227400000Y-122230000D02*
X227400000Y-121260000D01*
X227400000Y-115580000D02*
X227400000Y-114610000D01*
X228100000Y-118940000D02*
X226700000Y-118940000D01*
X228100000Y-117900000D02*
X227400000Y-118940000D01*
X226700000Y-117900000D02*
X228100000Y-117900000D01*
X227400000Y-118940000D02*
X226700000Y-117900000D01*
%TO.C,DB9*%
X246500000Y-122230000D02*
X246500000Y-121260000D01*
X246500000Y-115580000D02*
X246500000Y-114610000D01*
X247200000Y-118940000D02*
X245800000Y-118940000D01*
X247200000Y-117900000D02*
X246500000Y-118940000D01*
X245800000Y-117900000D02*
X247200000Y-117900000D01*
X246500000Y-118940000D02*
X245800000Y-117900000D01*
%TO.C,DB10*%
X265550000Y-122230000D02*
X265550000Y-121260000D01*
X265550000Y-115580000D02*
X265550000Y-114610000D01*
X266250000Y-118940000D02*
X264850000Y-118940000D01*
X266250000Y-117900000D02*
X265550000Y-118940000D01*
X264850000Y-117900000D02*
X266250000Y-117900000D01*
X265550000Y-118940000D02*
X264850000Y-117900000D01*
%TO.C,DB11*%
X284550000Y-122230000D02*
X284550000Y-121260000D01*
X284550000Y-115580000D02*
X284550000Y-114610000D01*
X285250000Y-118940000D02*
X283850000Y-118940000D01*
X285250000Y-117900000D02*
X284550000Y-118940000D01*
X283850000Y-117900000D02*
X285250000Y-117900000D01*
X284550000Y-118940000D02*
X283850000Y-117900000D01*
%TO.C,DB12*%
X303700000Y-122230000D02*
X303700000Y-121260000D01*
X303700000Y-115580000D02*
X303700000Y-114610000D01*
X304400000Y-118940000D02*
X303000000Y-118940000D01*
X304400000Y-117900000D02*
X303700000Y-118940000D01*
X303000000Y-117900000D02*
X304400000Y-117900000D01*
X303700000Y-118940000D02*
X303000000Y-117900000D01*
%TO.C,DB13*%
X341290000Y-122220000D02*
X341290000Y-121250000D01*
X341290000Y-115570000D02*
X341290000Y-114600000D01*
X341990000Y-118930000D02*
X340590000Y-118930000D01*
X341990000Y-117890000D02*
X341290000Y-118930000D01*
X340590000Y-117890000D02*
X341990000Y-117890000D01*
X341290000Y-118930000D02*
X340590000Y-117890000D01*
%TO.C,DC0*%
X79850000Y-141330000D02*
X79850000Y-140360000D01*
X79850000Y-134680000D02*
X79850000Y-133710000D01*
X80550000Y-138040000D02*
X79150000Y-138040000D01*
X80550000Y-137000000D02*
X79850000Y-138040000D01*
X79150000Y-137000000D02*
X80550000Y-137000000D01*
X79850000Y-138040000D02*
X79150000Y-137000000D01*
%TO.C,DC1*%
X103650000Y-141330000D02*
X103650000Y-140360000D01*
X103650000Y-134680000D02*
X103650000Y-133710000D01*
X104350000Y-138040000D02*
X102950000Y-138040000D01*
X104350000Y-137000000D02*
X103650000Y-138040000D01*
X102950000Y-137000000D02*
X104350000Y-137000000D01*
X103650000Y-138040000D02*
X102950000Y-137000000D01*
%TO.C,DC2*%
X122700000Y-141330000D02*
X122700000Y-140360000D01*
X122700000Y-134680000D02*
X122700000Y-133710000D01*
X123400000Y-138040000D02*
X122000000Y-138040000D01*
X123400000Y-137000000D02*
X122700000Y-138040000D01*
X122000000Y-137000000D02*
X123400000Y-137000000D01*
X122700000Y-138040000D02*
X122000000Y-137000000D01*
%TO.C,DC3*%
X141750000Y-141330000D02*
X141750000Y-140360000D01*
X141750000Y-134680000D02*
X141750000Y-133710000D01*
X142450000Y-138040000D02*
X141050000Y-138040000D01*
X142450000Y-137000000D02*
X141750000Y-138040000D01*
X141050000Y-137000000D02*
X142450000Y-137000000D01*
X141750000Y-138040000D02*
X141050000Y-137000000D01*
%TO.C,DC4*%
X160900000Y-141330000D02*
X160900000Y-140360000D01*
X160900000Y-134680000D02*
X160900000Y-133710000D01*
X161600000Y-138040000D02*
X160200000Y-138040000D01*
X161600000Y-137000000D02*
X160900000Y-138040000D01*
X160200000Y-137000000D02*
X161600000Y-137000000D01*
X160900000Y-138040000D02*
X160200000Y-137000000D01*
%TO.C,DC5*%
X179950000Y-141380000D02*
X179950000Y-140410000D01*
X179950000Y-134730000D02*
X179950000Y-133760000D01*
X180650000Y-138090000D02*
X179250000Y-138090000D01*
X180650000Y-137050000D02*
X179950000Y-138090000D01*
X179250000Y-137050000D02*
X180650000Y-137050000D01*
X179950000Y-138090000D02*
X179250000Y-137050000D01*
%TO.C,DC6*%
X199000000Y-141330000D02*
X199000000Y-140360000D01*
X199000000Y-134680000D02*
X199000000Y-133710000D01*
X199700000Y-138040000D02*
X198300000Y-138040000D01*
X199700000Y-137000000D02*
X199000000Y-138040000D01*
X198300000Y-137000000D02*
X199700000Y-137000000D01*
X199000000Y-138040000D02*
X198300000Y-137000000D01*
%TO.C,DC7*%
X217932000Y-141351000D02*
X217932000Y-140381000D01*
X217932000Y-134701000D02*
X217932000Y-133731000D01*
X218632000Y-138061000D02*
X217232000Y-138061000D01*
X218632000Y-137021000D02*
X217932000Y-138061000D01*
X217232000Y-137021000D02*
X218632000Y-137021000D01*
X217932000Y-138061000D02*
X217232000Y-137021000D01*
%TO.C,DC8*%
X236982000Y-141351000D02*
X236982000Y-140381000D01*
X236982000Y-134701000D02*
X236982000Y-133731000D01*
X237682000Y-138061000D02*
X236282000Y-138061000D01*
X237682000Y-137021000D02*
X236982000Y-138061000D01*
X236282000Y-137021000D02*
X237682000Y-137021000D01*
X236982000Y-138061000D02*
X236282000Y-137021000D01*
%TO.C,DC9*%
X256032000Y-141351000D02*
X256032000Y-140381000D01*
X256032000Y-134701000D02*
X256032000Y-133731000D01*
X256732000Y-138061000D02*
X255332000Y-138061000D01*
X256732000Y-137021000D02*
X256032000Y-138061000D01*
X255332000Y-137021000D02*
X256732000Y-137021000D01*
X256032000Y-138061000D02*
X255332000Y-137021000D01*
%TO.C,DC10*%
X275082000Y-141351000D02*
X275082000Y-140381000D01*
X275082000Y-134701000D02*
X275082000Y-133731000D01*
X275782000Y-138061000D02*
X274382000Y-138061000D01*
X275782000Y-137021000D02*
X275082000Y-138061000D01*
X274382000Y-137021000D02*
X275782000Y-137021000D01*
X275082000Y-138061000D02*
X274382000Y-137021000D01*
%TO.C,DC11*%
X294132000Y-141351000D02*
X294132000Y-140381000D01*
X294132000Y-134701000D02*
X294132000Y-133731000D01*
X294832000Y-138061000D02*
X293432000Y-138061000D01*
X294832000Y-137021000D02*
X294132000Y-138061000D01*
X293432000Y-137021000D02*
X294832000Y-137021000D01*
X294132000Y-138061000D02*
X293432000Y-137021000D01*
%TO.C,DC12*%
X313182000Y-141351000D02*
X313182000Y-140381000D01*
X313182000Y-134701000D02*
X313182000Y-133731000D01*
X313882000Y-138061000D02*
X312482000Y-138061000D01*
X313882000Y-137021000D02*
X313182000Y-138061000D01*
X312482000Y-137021000D02*
X313882000Y-137021000D01*
X313182000Y-138061000D02*
X312482000Y-137021000D01*
%TO.C,DC13*%
X336931000Y-141351000D02*
X336931000Y-140381000D01*
X336931000Y-134701000D02*
X336931000Y-133731000D01*
X337631000Y-138061000D02*
X336231000Y-138061000D01*
X337631000Y-137021000D02*
X336931000Y-138061000D01*
X336231000Y-137021000D02*
X337631000Y-137021000D01*
X336931000Y-138061000D02*
X336231000Y-137021000D01*
%TO.C,DD0*%
X82169000Y-160274000D02*
X82169000Y-159304000D01*
X82169000Y-153624000D02*
X82169000Y-152654000D01*
X82869000Y-156984000D02*
X81469000Y-156984000D01*
X82869000Y-155944000D02*
X82169000Y-156984000D01*
X81469000Y-155944000D02*
X82869000Y-155944000D01*
X82169000Y-156984000D02*
X81469000Y-155944000D01*
%TO.C,DD1*%
X108331000Y-160274000D02*
X108331000Y-159304000D01*
X108331000Y-153624000D02*
X108331000Y-152654000D01*
X109031000Y-156984000D02*
X107631000Y-156984000D01*
X109031000Y-155944000D02*
X108331000Y-156984000D01*
X107631000Y-155944000D02*
X109031000Y-155944000D01*
X108331000Y-156984000D02*
X107631000Y-155944000D01*
%TO.C,DD2*%
X127381000Y-160274000D02*
X127381000Y-159304000D01*
X127381000Y-153624000D02*
X127381000Y-152654000D01*
X128081000Y-156984000D02*
X126681000Y-156984000D01*
X128081000Y-155944000D02*
X127381000Y-156984000D01*
X126681000Y-155944000D02*
X128081000Y-155944000D01*
X127381000Y-156984000D02*
X126681000Y-155944000D01*
%TO.C,DD3*%
X146431000Y-160274000D02*
X146431000Y-159304000D01*
X146431000Y-153624000D02*
X146431000Y-152654000D01*
X147131000Y-156984000D02*
X145731000Y-156984000D01*
X147131000Y-155944000D02*
X146431000Y-156984000D01*
X145731000Y-155944000D02*
X147131000Y-155944000D01*
X146431000Y-156984000D02*
X145731000Y-155944000D01*
%TO.C,DD4*%
X165481000Y-160274000D02*
X165481000Y-159304000D01*
X165481000Y-153624000D02*
X165481000Y-152654000D01*
X166181000Y-156984000D02*
X164781000Y-156984000D01*
X166181000Y-155944000D02*
X165481000Y-156984000D01*
X164781000Y-155944000D02*
X166181000Y-155944000D01*
X165481000Y-156984000D02*
X164781000Y-155944000D01*
%TO.C,DD5*%
X184531000Y-160401000D02*
X184531000Y-159431000D01*
X184531000Y-153751000D02*
X184531000Y-152781000D01*
X185231000Y-157111000D02*
X183831000Y-157111000D01*
X185231000Y-156071000D02*
X184531000Y-157111000D01*
X183831000Y-156071000D02*
X185231000Y-156071000D01*
X184531000Y-157111000D02*
X183831000Y-156071000D01*
%TO.C,DD6*%
X203581000Y-160274000D02*
X203581000Y-159304000D01*
X203581000Y-153624000D02*
X203581000Y-152654000D01*
X204281000Y-156984000D02*
X202881000Y-156984000D01*
X204281000Y-155944000D02*
X203581000Y-156984000D01*
X202881000Y-155944000D02*
X204281000Y-155944000D01*
X203581000Y-156984000D02*
X202881000Y-155944000D01*
%TO.C,DD7*%
X222631000Y-160330000D02*
X222631000Y-159360000D01*
X222631000Y-153680000D02*
X222631000Y-152710000D01*
X223331000Y-157040000D02*
X221931000Y-157040000D01*
X223331000Y-156000000D02*
X222631000Y-157040000D01*
X221931000Y-156000000D02*
X223331000Y-156000000D01*
X222631000Y-157040000D02*
X221931000Y-156000000D01*
%TO.C,DD8*%
X241681000Y-160274000D02*
X241681000Y-159304000D01*
X241681000Y-153624000D02*
X241681000Y-152654000D01*
X242381000Y-156984000D02*
X240981000Y-156984000D01*
X242381000Y-155944000D02*
X241681000Y-156984000D01*
X240981000Y-155944000D02*
X242381000Y-155944000D01*
X241681000Y-156984000D02*
X240981000Y-155944000D01*
%TO.C,DD9*%
X260731000Y-160274000D02*
X260731000Y-159304000D01*
X260731000Y-153624000D02*
X260731000Y-152654000D01*
X261431000Y-156984000D02*
X260031000Y-156984000D01*
X261431000Y-155944000D02*
X260731000Y-156984000D01*
X260031000Y-155944000D02*
X261431000Y-155944000D01*
X260731000Y-156984000D02*
X260031000Y-155944000D01*
%TO.C,DD10*%
X279781000Y-160274000D02*
X279781000Y-159304000D01*
X279781000Y-153624000D02*
X279781000Y-152654000D01*
X280481000Y-156984000D02*
X279081000Y-156984000D01*
X280481000Y-155944000D02*
X279781000Y-156984000D01*
X279081000Y-155944000D02*
X280481000Y-155944000D01*
X279781000Y-156984000D02*
X279081000Y-155944000D01*
%TO.C,DD11*%
X298958000Y-160280000D02*
X298958000Y-159310000D01*
X298958000Y-153630000D02*
X298958000Y-152660000D01*
X299658000Y-156990000D02*
X298258000Y-156990000D01*
X299658000Y-155950000D02*
X298958000Y-156990000D01*
X298258000Y-155950000D02*
X299658000Y-155950000D01*
X298958000Y-156990000D02*
X298258000Y-155950000D01*
%TO.C,DD12*%
X341240000Y-160380000D02*
X341240000Y-159410000D01*
X341240000Y-153730000D02*
X341240000Y-152760000D01*
X341940000Y-157090000D02*
X340540000Y-157090000D01*
X341940000Y-156050000D02*
X341240000Y-157090000D01*
X340540000Y-156050000D02*
X341940000Y-156050000D01*
X341240000Y-157090000D02*
X340540000Y-156050000D01*
%TO.C,DD13*%
X383318000Y-122174000D02*
X383318000Y-121204000D01*
X383318000Y-115524000D02*
X383318000Y-114554000D01*
X384018000Y-118884000D02*
X382618000Y-118884000D01*
X384018000Y-117844000D02*
X383318000Y-118884000D01*
X382618000Y-117844000D02*
X384018000Y-117844000D01*
X383318000Y-118884000D02*
X382618000Y-117844000D01*
%TO.C,DE0*%
X95910000Y-179430000D02*
X95910000Y-178460000D01*
X95910000Y-172780000D02*
X95910000Y-171810000D01*
X96610000Y-176140000D02*
X95210000Y-176140000D01*
X96610000Y-175100000D02*
X95910000Y-176140000D01*
X95210000Y-175100000D02*
X96610000Y-175100000D01*
X95910000Y-176140000D02*
X95210000Y-175100000D01*
%TO.C,DE1*%
X117856000Y-179451000D02*
X117856000Y-178481000D01*
X117856000Y-172801000D02*
X117856000Y-171831000D01*
X118556000Y-176161000D02*
X117156000Y-176161000D01*
X118556000Y-175121000D02*
X117856000Y-176161000D01*
X117156000Y-175121000D02*
X118556000Y-175121000D01*
X117856000Y-176161000D02*
X117156000Y-175121000D01*
%TO.C,DE2*%
X136906000Y-179451000D02*
X136906000Y-178481000D01*
X136906000Y-172801000D02*
X136906000Y-171831000D01*
X137606000Y-176161000D02*
X136206000Y-176161000D01*
X137606000Y-175121000D02*
X136906000Y-176161000D01*
X136206000Y-175121000D02*
X137606000Y-175121000D01*
X136906000Y-176161000D02*
X136206000Y-175121000D01*
%TO.C,DE3*%
X155956000Y-179324000D02*
X155956000Y-178354000D01*
X155956000Y-172674000D02*
X155956000Y-171704000D01*
X156656000Y-176034000D02*
X155256000Y-176034000D01*
X156656000Y-174994000D02*
X155956000Y-176034000D01*
X155256000Y-174994000D02*
X156656000Y-174994000D01*
X155956000Y-176034000D02*
X155256000Y-174994000D01*
%TO.C,DE4*%
X175006000Y-179324000D02*
X175006000Y-178354000D01*
X175006000Y-172674000D02*
X175006000Y-171704000D01*
X175706000Y-176034000D02*
X174306000Y-176034000D01*
X175706000Y-174994000D02*
X175006000Y-176034000D01*
X174306000Y-174994000D02*
X175706000Y-174994000D01*
X175006000Y-176034000D02*
X174306000Y-174994000D01*
%TO.C,DE5*%
X194056000Y-179324000D02*
X194056000Y-178354000D01*
X194056000Y-172674000D02*
X194056000Y-171704000D01*
X194756000Y-176034000D02*
X193356000Y-176034000D01*
X194756000Y-174994000D02*
X194056000Y-176034000D01*
X193356000Y-174994000D02*
X194756000Y-174994000D01*
X194056000Y-176034000D02*
X193356000Y-174994000D01*
%TO.C,DE6*%
X213106000Y-179480000D02*
X213106000Y-178510000D01*
X213106000Y-172830000D02*
X213106000Y-171860000D01*
X213806000Y-176190000D02*
X212406000Y-176190000D01*
X213806000Y-175150000D02*
X213106000Y-176190000D01*
X212406000Y-175150000D02*
X213806000Y-175150000D01*
X213106000Y-176190000D02*
X212406000Y-175150000D01*
%TO.C,DE7*%
X232156000Y-179430000D02*
X232156000Y-178460000D01*
X232156000Y-172780000D02*
X232156000Y-171810000D01*
X232856000Y-176140000D02*
X231456000Y-176140000D01*
X232856000Y-175100000D02*
X232156000Y-176140000D01*
X231456000Y-175100000D02*
X232856000Y-175100000D01*
X232156000Y-176140000D02*
X231456000Y-175100000D01*
%TO.C,DE8*%
X251206000Y-179451000D02*
X251206000Y-178481000D01*
X251206000Y-172801000D02*
X251206000Y-171831000D01*
X251906000Y-176161000D02*
X250506000Y-176161000D01*
X251906000Y-175121000D02*
X251206000Y-176161000D01*
X250506000Y-175121000D02*
X251906000Y-175121000D01*
X251206000Y-176161000D02*
X250506000Y-175121000D01*
%TO.C,DE9*%
X270350000Y-179451000D02*
X270350000Y-178481000D01*
X270350000Y-172801000D02*
X270350000Y-171831000D01*
X271050000Y-176161000D02*
X269650000Y-176161000D01*
X271050000Y-175121000D02*
X270350000Y-176161000D01*
X269650000Y-175121000D02*
X271050000Y-175121000D01*
X270350000Y-176161000D02*
X269650000Y-175121000D01*
%TO.C,DE10*%
X289306000Y-179451000D02*
X289306000Y-178481000D01*
X289306000Y-172801000D02*
X289306000Y-171831000D01*
X290006000Y-176161000D02*
X288606000Y-176161000D01*
X290006000Y-175121000D02*
X289306000Y-176161000D01*
X288606000Y-175121000D02*
X290006000Y-175121000D01*
X289306000Y-176161000D02*
X288606000Y-175121000D01*
%TO.C,DE11*%
X329370000Y-179430000D02*
X329370000Y-178460000D01*
X329370000Y-172780000D02*
X329370000Y-171810000D01*
X330070000Y-176140000D02*
X328670000Y-176140000D01*
X330070000Y-175100000D02*
X329370000Y-176140000D01*
X328670000Y-175100000D02*
X330070000Y-175100000D01*
X329370000Y-176140000D02*
X328670000Y-175100000D01*
%TO.C,DE12*%
X355981000Y-184180000D02*
X355981000Y-183210000D01*
X355981000Y-177530000D02*
X355981000Y-176560000D01*
X356681000Y-180890000D02*
X355281000Y-180890000D01*
X356681000Y-179850000D02*
X355981000Y-180890000D01*
X355281000Y-179850000D02*
X356681000Y-179850000D01*
X355981000Y-180890000D02*
X355281000Y-179850000D01*
%TO.C,DF0*%
X77343000Y-198501000D02*
X77343000Y-197531000D01*
X77343000Y-191851000D02*
X77343000Y-190881000D01*
X78043000Y-195211000D02*
X76643000Y-195211000D01*
X78043000Y-194171000D02*
X77343000Y-195211000D01*
X76643000Y-194171000D02*
X78043000Y-194171000D01*
X77343000Y-195211000D02*
X76643000Y-194171000D01*
%TO.C,DF1*%
X98806000Y-198501000D02*
X98806000Y-197531000D01*
X98806000Y-191851000D02*
X98806000Y-190881000D01*
X99506000Y-195211000D02*
X98106000Y-195211000D01*
X99506000Y-194171000D02*
X98806000Y-195211000D01*
X98106000Y-194171000D02*
X99506000Y-194171000D01*
X98806000Y-195211000D02*
X98106000Y-194171000D01*
%TO.C,DF2*%
X120269000Y-198501000D02*
X120269000Y-197531000D01*
X120269000Y-191851000D02*
X120269000Y-190881000D01*
X120969000Y-195211000D02*
X119569000Y-195211000D01*
X120969000Y-194171000D02*
X120269000Y-195211000D01*
X119569000Y-194171000D02*
X120969000Y-194171000D01*
X120269000Y-195211000D02*
X119569000Y-194171000D01*
%TO.C,DF3*%
X143708700Y-202853274D02*
X143959755Y-201916326D01*
X145429847Y-196429867D02*
X145680901Y-195492919D01*
X145236363Y-199856552D02*
X143884067Y-199494205D01*
X145505535Y-198851989D02*
X144560215Y-199675378D01*
X144153239Y-198489642D02*
X145505535Y-198851989D01*
X144560215Y-199675378D02*
X144153239Y-198489642D01*
%TO.C,DF4*%
X180258700Y-212883274D02*
X180509755Y-211946326D01*
X181979847Y-206459867D02*
X182230901Y-205522919D01*
X181786363Y-209886552D02*
X180434067Y-209524205D01*
X182055535Y-208881989D02*
X181110215Y-209705378D01*
X180703239Y-208519642D02*
X182055535Y-208881989D01*
X181110215Y-209705378D02*
X180703239Y-208519642D01*
%TO.C,DF5*%
X225201300Y-203643274D02*
X224950245Y-202706326D01*
X223480153Y-197219867D02*
X223229099Y-196282919D01*
X225025933Y-200284205D02*
X223673637Y-200646552D01*
X224756761Y-199279642D02*
X224349785Y-200465378D01*
X223404465Y-199641989D02*
X224756761Y-199279642D01*
X224349785Y-200465378D02*
X223404465Y-199641989D01*
%TO.C,DF6*%
X244111300Y-198433274D02*
X243860245Y-197496326D01*
X242390153Y-192009867D02*
X242139099Y-191072919D01*
X243935933Y-195074205D02*
X242583637Y-195436552D01*
X243666761Y-194069642D02*
X243259785Y-195255378D01*
X242314465Y-194431989D02*
X243666761Y-194069642D01*
X243259785Y-195255378D02*
X242314465Y-194431989D01*
%TO.C,DF7*%
X267843000Y-198501000D02*
X267843000Y-197531000D01*
X267843000Y-191851000D02*
X267843000Y-190881000D01*
X268543000Y-195211000D02*
X267143000Y-195211000D01*
X268543000Y-194171000D02*
X267843000Y-195211000D01*
X267143000Y-194171000D02*
X268543000Y-194171000D01*
X267843000Y-195211000D02*
X267143000Y-194171000D01*
%TO.C,DF8*%
X289306000Y-198430000D02*
X289306000Y-197460000D01*
X289306000Y-191780000D02*
X289306000Y-190810000D01*
X290006000Y-195140000D02*
X288606000Y-195140000D01*
X290006000Y-194100000D02*
X289306000Y-195140000D01*
X288606000Y-194100000D02*
X290006000Y-194100000D01*
X289306000Y-195140000D02*
X288606000Y-194100000D01*
%TO.C,DF9*%
X310769000Y-198501000D02*
X310769000Y-197531000D01*
X310769000Y-191851000D02*
X310769000Y-190881000D01*
X311469000Y-195211000D02*
X310069000Y-195211000D01*
X311469000Y-194171000D02*
X310769000Y-195211000D01*
X310069000Y-194171000D02*
X311469000Y-194171000D01*
X310769000Y-195211000D02*
X310069000Y-194171000D01*
%TO.C,DF10*%
X336931000Y-203180000D02*
X336931000Y-202210000D01*
X336931000Y-196530000D02*
X336931000Y-195560000D01*
X337631000Y-199890000D02*
X336231000Y-199890000D01*
X337631000Y-198850000D02*
X336931000Y-199890000D01*
X336231000Y-198850000D02*
X337631000Y-198850000D01*
X336931000Y-199890000D02*
X336231000Y-198850000D01*
%TO.C,DF11*%
X355981000Y-203073000D02*
X355981000Y-202103000D01*
X355981000Y-196423000D02*
X355981000Y-195453000D01*
X356681000Y-199783000D02*
X355281000Y-199783000D01*
X356681000Y-198743000D02*
X355981000Y-199783000D01*
X355281000Y-198743000D02*
X356681000Y-198743000D01*
X355981000Y-199783000D02*
X355281000Y-198743000D01*
%TO.C,DF12*%
X375031000Y-203180000D02*
X375031000Y-202210000D01*
X375031000Y-196530000D02*
X375031000Y-195560000D01*
X375731000Y-199890000D02*
X374331000Y-199890000D01*
X375731000Y-198850000D02*
X375031000Y-199890000D01*
X374331000Y-198850000D02*
X375731000Y-198850000D01*
X375031000Y-199890000D02*
X374331000Y-198850000D01*
%TO.C,R1*%
X349000000Y-87040000D02*
X349000000Y-89140000D01*
X349000000Y-93340000D02*
X349000000Y-95340000D01*
X348500000Y-91240000D02*
X349000000Y-91740000D01*
X349500000Y-91240000D02*
X348500000Y-91240000D01*
X349000000Y-90740000D02*
X349500000Y-91240000D01*
%TO.C,R2*%
X346250000Y-87040000D02*
X346250000Y-89140000D01*
X346250000Y-93340000D02*
X346250000Y-95340000D01*
X345750000Y-91240000D02*
X346250000Y-91740000D01*
X346750000Y-91240000D02*
X345750000Y-91240000D01*
X346250000Y-90740000D02*
X346750000Y-91240000D01*
%TO.C,DA13*%
X384000000Y-99320000D02*
X384000000Y-98350000D01*
X384000000Y-92670000D02*
X384000000Y-91700000D01*
X384700000Y-96030000D02*
X383300000Y-96030000D01*
X384700000Y-94990000D02*
X384000000Y-96030000D01*
X383300000Y-94990000D02*
X384700000Y-94990000D01*
X384000000Y-96030000D02*
X383300000Y-94990000D01*
%TO.C,DE13*%
X383318000Y-141224000D02*
X383318000Y-140254000D01*
X383318000Y-134574000D02*
X383318000Y-133604000D01*
X384018000Y-137934000D02*
X382618000Y-137934000D01*
X384018000Y-136894000D02*
X383318000Y-137934000D01*
X382618000Y-136894000D02*
X384018000Y-136894000D01*
X383318000Y-137934000D02*
X382618000Y-136894000D01*
%TO.C,DF13*%
X383318000Y-160528000D02*
X383318000Y-159558000D01*
X383318000Y-153878000D02*
X383318000Y-152908000D01*
X384018000Y-157238000D02*
X382618000Y-157238000D01*
X384018000Y-156198000D02*
X383318000Y-157238000D01*
X382618000Y-156198000D02*
X384018000Y-156198000D01*
X383318000Y-157238000D02*
X382618000Y-156198000D01*
%TO.C,J1*%
X340090000Y-83694000D02*
X350090000Y-83694000D01*
X340090000Y-81154000D02*
X350090000Y-81154000D01*
X340090000Y-83694000D02*
X340090000Y-81154000D01*
X350090000Y-81154000D02*
X350090000Y-83694000D01*
D12*
X332740000Y-80900000D02*
X337740000Y-80900000D01*
X357440000Y-107900000D02*
X357440000Y-102900000D01*
X334220000Y-87480000D02*
X334220000Y-98340000D01*
X334220000Y-98340000D02*
X355960000Y-98340000D01*
X334220000Y-87480000D02*
X355960000Y-87480000D01*
X332740000Y-107900000D02*
X332740000Y-102900000D01*
X332740000Y-107900000D02*
X337740000Y-107900000D01*
X357440000Y-107900000D02*
X352440000Y-107900000D01*
X352440000Y-80900000D02*
X357440000Y-80900000D01*
X357440000Y-80900000D02*
X357440000Y-85900000D01*
X332740000Y-85900000D02*
X332740000Y-80900000D01*
X355960000Y-87480000D02*
X355960000Y-98340000D01*
%TO.C,MountMiddle0*%
D11*
X210052857Y-85704380D02*
X210052857Y-84704380D01*
X210386190Y-85418666D01*
X210719523Y-84704380D01*
X210719523Y-85704380D01*
X211338571Y-85704380D02*
X211243333Y-85656761D01*
X211195714Y-85609142D01*
X211148095Y-85513904D01*
X211148095Y-85228190D01*
X211195714Y-85132952D01*
X211243333Y-85085333D01*
X211338571Y-85037714D01*
X211481428Y-85037714D01*
X211576666Y-85085333D01*
X211624285Y-85132952D01*
X211671904Y-85228190D01*
X211671904Y-85513904D01*
X211624285Y-85609142D01*
X211576666Y-85656761D01*
X211481428Y-85704380D01*
X211338571Y-85704380D01*
X212529047Y-85037714D02*
X212529047Y-85704380D01*
X212100476Y-85037714D02*
X212100476Y-85561523D01*
X212148095Y-85656761D01*
X212243333Y-85704380D01*
X212386190Y-85704380D01*
X212481428Y-85656761D01*
X212529047Y-85609142D01*
X213005238Y-85037714D02*
X213005238Y-85704380D01*
X213005238Y-85132952D02*
X213052857Y-85085333D01*
X213148095Y-85037714D01*
X213290952Y-85037714D01*
X213386190Y-85085333D01*
X213433809Y-85180571D01*
X213433809Y-85704380D01*
X213767142Y-85037714D02*
X214148095Y-85037714D01*
X213910000Y-84704380D02*
X213910000Y-85561523D01*
X213957619Y-85656761D01*
X214052857Y-85704380D01*
X214148095Y-85704380D01*
X214481428Y-85704380D02*
X214481428Y-84704380D01*
X214814761Y-85418666D01*
X215148095Y-84704380D01*
X215148095Y-85704380D01*
X215624285Y-85704380D02*
X215624285Y-85037714D01*
X215624285Y-84704380D02*
X215576666Y-84752000D01*
X215624285Y-84799619D01*
X215671904Y-84752000D01*
X215624285Y-84704380D01*
X215624285Y-84799619D01*
X216529047Y-85704380D02*
X216529047Y-84704380D01*
X216529047Y-85656761D02*
X216433809Y-85704380D01*
X216243333Y-85704380D01*
X216148095Y-85656761D01*
X216100476Y-85609142D01*
X216052857Y-85513904D01*
X216052857Y-85228190D01*
X216100476Y-85132952D01*
X216148095Y-85085333D01*
X216243333Y-85037714D01*
X216433809Y-85037714D01*
X216529047Y-85085333D01*
X217433809Y-85704380D02*
X217433809Y-84704380D01*
X217433809Y-85656761D02*
X217338571Y-85704380D01*
X217148095Y-85704380D01*
X217052857Y-85656761D01*
X217005238Y-85609142D01*
X216957619Y-85513904D01*
X216957619Y-85228190D01*
X217005238Y-85132952D01*
X217052857Y-85085333D01*
X217148095Y-85037714D01*
X217338571Y-85037714D01*
X217433809Y-85085333D01*
X218052857Y-85704380D02*
X217957619Y-85656761D01*
X217910000Y-85561523D01*
X217910000Y-84704380D01*
X218814761Y-85656761D02*
X218719523Y-85704380D01*
X218529047Y-85704380D01*
X218433809Y-85656761D01*
X218386190Y-85561523D01*
X218386190Y-85180571D01*
X218433809Y-85085333D01*
X218529047Y-85037714D01*
X218719523Y-85037714D01*
X218814761Y-85085333D01*
X218862380Y-85180571D01*
X218862380Y-85275809D01*
X218386190Y-85371047D01*
X219481428Y-84704380D02*
X219576666Y-84704380D01*
X219671904Y-84752000D01*
X219719523Y-84799619D01*
X219767142Y-84894857D01*
X219814761Y-85085333D01*
X219814761Y-85323428D01*
X219767142Y-85513904D01*
X219719523Y-85609142D01*
X219671904Y-85656761D01*
X219576666Y-85704380D01*
X219481428Y-85704380D01*
X219386190Y-85656761D01*
X219338571Y-85609142D01*
X219290952Y-85513904D01*
X219243333Y-85323428D01*
X219243333Y-85085333D01*
X219290952Y-84894857D01*
X219338571Y-84799619D01*
X219386190Y-84752000D01*
X219481428Y-84704380D01*
%TO.C,U0*%
X347878523Y-120521904D02*
X347878523Y-119721904D01*
X348069000Y-119721904D01*
X348183285Y-119760000D01*
X348259476Y-119836190D01*
X348297571Y-119912380D01*
X348335666Y-120064761D01*
X348335666Y-120179047D01*
X348297571Y-120331428D01*
X348259476Y-120407619D01*
X348183285Y-120483809D01*
X348069000Y-120521904D01*
X347878523Y-120521904D01*
X348640428Y-119798095D02*
X348678523Y-119760000D01*
X348754714Y-119721904D01*
X348945190Y-119721904D01*
X349021380Y-119760000D01*
X349059476Y-119798095D01*
X349097571Y-119874285D01*
X349097571Y-119950476D01*
X349059476Y-120064761D01*
X348602333Y-120521904D01*
X349097571Y-120521904D01*
X347878523Y-130681904D02*
X347878523Y-129881904D01*
X348069000Y-129881904D01*
X348183285Y-129920000D01*
X348259476Y-129996190D01*
X348297571Y-130072380D01*
X348335666Y-130224761D01*
X348335666Y-130339047D01*
X348297571Y-130491428D01*
X348259476Y-130567619D01*
X348183285Y-130643809D01*
X348069000Y-130681904D01*
X347878523Y-130681904D01*
X348830904Y-129881904D02*
X348907095Y-129881904D01*
X348983285Y-129920000D01*
X349021380Y-129958095D01*
X349059476Y-130034285D01*
X349097571Y-130186666D01*
X349097571Y-130377142D01*
X349059476Y-130529523D01*
X349021380Y-130605714D01*
X348983285Y-130643809D01*
X348907095Y-130681904D01*
X348830904Y-130681904D01*
X348754714Y-130643809D01*
X348716619Y-130605714D01*
X348678523Y-130529523D01*
X348640428Y-130377142D01*
X348640428Y-130186666D01*
X348678523Y-130034285D01*
X348716619Y-129958095D01*
X348754714Y-129920000D01*
X348830904Y-129881904D01*
X347878523Y-128141904D02*
X347878523Y-127341904D01*
X348069000Y-127341904D01*
X348183285Y-127380000D01*
X348259476Y-127456190D01*
X348297571Y-127532380D01*
X348335666Y-127684761D01*
X348335666Y-127799047D01*
X348297571Y-127951428D01*
X348259476Y-128027619D01*
X348183285Y-128103809D01*
X348069000Y-128141904D01*
X347878523Y-128141904D01*
X349097571Y-128141904D02*
X348640428Y-128141904D01*
X348869000Y-128141904D02*
X348869000Y-127341904D01*
X348792809Y-127456190D01*
X348716619Y-127532380D01*
X348640428Y-127570476D01*
X347859476Y-124840000D02*
X347783285Y-124801904D01*
X347669000Y-124801904D01*
X347554714Y-124840000D01*
X347478523Y-124916190D01*
X347440428Y-124992380D01*
X347402333Y-125144761D01*
X347402333Y-125259047D01*
X347440428Y-125411428D01*
X347478523Y-125487619D01*
X347554714Y-125563809D01*
X347669000Y-125601904D01*
X347745190Y-125601904D01*
X347859476Y-125563809D01*
X347897571Y-125525714D01*
X347897571Y-125259047D01*
X347745190Y-125259047D01*
X348240428Y-125601904D02*
X348240428Y-124801904D01*
X348697571Y-125601904D01*
X348697571Y-124801904D01*
X349078523Y-125601904D02*
X349078523Y-124801904D01*
X349269000Y-124801904D01*
X349383285Y-124840000D01*
X349459476Y-124916190D01*
X349497571Y-124992380D01*
X349535666Y-125144761D01*
X349535666Y-125259047D01*
X349497571Y-125411428D01*
X349459476Y-125487619D01*
X349383285Y-125563809D01*
X349269000Y-125601904D01*
X349078523Y-125601904D01*
X347878523Y-133221904D02*
X347878523Y-132421904D01*
X348069000Y-132421904D01*
X348183285Y-132460000D01*
X348259476Y-132536190D01*
X348297571Y-132612380D01*
X348335666Y-132764761D01*
X348335666Y-132879047D01*
X348297571Y-133031428D01*
X348259476Y-133107619D01*
X348183285Y-133183809D01*
X348069000Y-133221904D01*
X347878523Y-133221904D01*
X349021380Y-132688571D02*
X349021380Y-133221904D01*
X348830904Y-132383809D02*
X348640428Y-132955238D01*
X349135666Y-132955238D01*
X348335666Y-135685714D02*
X348297571Y-135723809D01*
X348183285Y-135761904D01*
X348107095Y-135761904D01*
X347992809Y-135723809D01*
X347916619Y-135647619D01*
X347878523Y-135571428D01*
X347840428Y-135419047D01*
X347840428Y-135304761D01*
X347878523Y-135152380D01*
X347916619Y-135076190D01*
X347992809Y-135000000D01*
X348107095Y-134961904D01*
X348183285Y-134961904D01*
X348297571Y-135000000D01*
X348335666Y-135038095D01*
X349021380Y-134961904D02*
X348869000Y-134961904D01*
X348792809Y-135000000D01*
X348754714Y-135038095D01*
X348678523Y-135152380D01*
X348640428Y-135304761D01*
X348640428Y-135609523D01*
X348678523Y-135685714D01*
X348716619Y-135723809D01*
X348792809Y-135761904D01*
X348945190Y-135761904D01*
X349021380Y-135723809D01*
X349059476Y-135685714D01*
X349097571Y-135609523D01*
X349097571Y-135419047D01*
X349059476Y-135342857D01*
X349021380Y-135304761D01*
X348945190Y-135266666D01*
X348792809Y-135266666D01*
X348716619Y-135304761D01*
X348678523Y-135342857D01*
X348640428Y-135419047D01*
X347878523Y-138301904D02*
X347878523Y-137501904D01*
X348069000Y-137501904D01*
X348183285Y-137540000D01*
X348259476Y-137616190D01*
X348297571Y-137692380D01*
X348335666Y-137844761D01*
X348335666Y-137959047D01*
X348297571Y-138111428D01*
X348259476Y-138187619D01*
X348183285Y-138263809D01*
X348069000Y-138301904D01*
X347878523Y-138301904D01*
X348602333Y-137501904D02*
X349135666Y-137501904D01*
X348792809Y-138301904D01*
X347916619Y-140422857D02*
X348183285Y-140422857D01*
X348297571Y-140841904D02*
X347916619Y-140841904D01*
X347916619Y-140041904D01*
X348297571Y-140041904D01*
X348983285Y-140041904D02*
X348830904Y-140041904D01*
X348754714Y-140080000D01*
X348716619Y-140118095D01*
X348640428Y-140232380D01*
X348602333Y-140384761D01*
X348602333Y-140689523D01*
X348640428Y-140765714D01*
X348678523Y-140803809D01*
X348754714Y-140841904D01*
X348907095Y-140841904D01*
X348983285Y-140803809D01*
X349021380Y-140765714D01*
X349059476Y-140689523D01*
X349059476Y-140499047D01*
X349021380Y-140422857D01*
X348983285Y-140384761D01*
X348907095Y-140346666D01*
X348754714Y-140346666D01*
X348678523Y-140384761D01*
X348640428Y-140422857D01*
X348602333Y-140499047D01*
X348145190Y-142962857D02*
X348259476Y-143000952D01*
X348297571Y-143039047D01*
X348335666Y-143115238D01*
X348335666Y-143229523D01*
X348297571Y-143305714D01*
X348259476Y-143343809D01*
X348183285Y-143381904D01*
X347878523Y-143381904D01*
X347878523Y-142581904D01*
X348145190Y-142581904D01*
X348221380Y-142620000D01*
X348259476Y-142658095D01*
X348297571Y-142734285D01*
X348297571Y-142810476D01*
X348259476Y-142886666D01*
X348221380Y-142924761D01*
X348145190Y-142962857D01*
X347878523Y-142962857D01*
X349021380Y-142848571D02*
X349021380Y-143381904D01*
X348830904Y-142543809D02*
X348640428Y-143115238D01*
X349135666Y-143115238D01*
X347365008Y-144054297D02*
X347412148Y-144148578D01*
X347412148Y-144195719D01*
X347388578Y-144266429D01*
X347317867Y-144337140D01*
X347247157Y-144360710D01*
X347200016Y-144360710D01*
X347129306Y-144337140D01*
X346940744Y-144148578D01*
X347435719Y-143653603D01*
X347600710Y-143818595D01*
X347624280Y-143889306D01*
X347624280Y-143936446D01*
X347600710Y-144007157D01*
X347553570Y-144054297D01*
X347482859Y-144077867D01*
X347435719Y-144077867D01*
X347365008Y-144054297D01*
X347200016Y-143889306D01*
X348166396Y-144384280D02*
X347930693Y-144148578D01*
X347671421Y-144360710D01*
X347718561Y-144360710D01*
X347789272Y-144384280D01*
X347907123Y-144502132D01*
X347930693Y-144572842D01*
X347930693Y-144619983D01*
X347907123Y-144690693D01*
X347789272Y-144808544D01*
X347718561Y-144832115D01*
X347671421Y-144832115D01*
X347600710Y-144808544D01*
X347482859Y-144690693D01*
X347459289Y-144619983D01*
X347459289Y-144572842D01*
X359067190Y-140422857D02*
X359181476Y-140460952D01*
X359219571Y-140499047D01*
X359257666Y-140575238D01*
X359257666Y-140689523D01*
X359219571Y-140765714D01*
X359181476Y-140803809D01*
X359105285Y-140841904D01*
X358800523Y-140841904D01*
X358800523Y-140041904D01*
X359067190Y-140041904D01*
X359143380Y-140080000D01*
X359181476Y-140118095D01*
X359219571Y-140194285D01*
X359219571Y-140270476D01*
X359181476Y-140346666D01*
X359143380Y-140384761D01*
X359067190Y-140422857D01*
X358800523Y-140422857D01*
X359524333Y-140041904D02*
X360019571Y-140041904D01*
X359752904Y-140346666D01*
X359867190Y-140346666D01*
X359943380Y-140384761D01*
X359981476Y-140422857D01*
X360019571Y-140499047D01*
X360019571Y-140689523D01*
X359981476Y-140765714D01*
X359943380Y-140803809D01*
X359867190Y-140841904D01*
X359638619Y-140841904D01*
X359562428Y-140803809D01*
X359524333Y-140765714D01*
X359067190Y-137882857D02*
X359181476Y-137920952D01*
X359219571Y-137959047D01*
X359257666Y-138035238D01*
X359257666Y-138149523D01*
X359219571Y-138225714D01*
X359181476Y-138263809D01*
X359105285Y-138301904D01*
X358800523Y-138301904D01*
X358800523Y-137501904D01*
X359067190Y-137501904D01*
X359143380Y-137540000D01*
X359181476Y-137578095D01*
X359219571Y-137654285D01*
X359219571Y-137730476D01*
X359181476Y-137806666D01*
X359143380Y-137844761D01*
X359067190Y-137882857D01*
X358800523Y-137882857D01*
X360019571Y-138301904D02*
X359562428Y-138301904D01*
X359791000Y-138301904D02*
X359791000Y-137501904D01*
X359714809Y-137616190D01*
X359638619Y-137692380D01*
X359562428Y-137730476D01*
X359124333Y-127722857D02*
X358857666Y-127722857D01*
X358857666Y-128141904D02*
X358857666Y-127341904D01*
X359238619Y-127341904D01*
X359886238Y-127608571D02*
X359886238Y-128141904D01*
X359695761Y-127303809D02*
X359505285Y-127875238D01*
X360000523Y-127875238D01*
X358324333Y-124801904D02*
X358591000Y-125601904D01*
X358857666Y-124801904D01*
X359581476Y-125525714D02*
X359543380Y-125563809D01*
X359429095Y-125601904D01*
X359352904Y-125601904D01*
X359238619Y-125563809D01*
X359162428Y-125487619D01*
X359124333Y-125411428D01*
X359086238Y-125259047D01*
X359086238Y-125144761D01*
X359124333Y-124992380D01*
X359162428Y-124916190D01*
X359238619Y-124840000D01*
X359352904Y-124801904D01*
X359429095Y-124801904D01*
X359543380Y-124840000D01*
X359581476Y-124878095D01*
X360381476Y-125525714D02*
X360343380Y-125563809D01*
X360229095Y-125601904D01*
X360152904Y-125601904D01*
X360038619Y-125563809D01*
X359962428Y-125487619D01*
X359924333Y-125411428D01*
X359886238Y-125259047D01*
X359886238Y-125144761D01*
X359924333Y-124992380D01*
X359962428Y-124916190D01*
X360038619Y-124840000D01*
X360152904Y-124801904D01*
X360229095Y-124801904D01*
X360343380Y-124840000D01*
X360381476Y-124878095D01*
X359067190Y-117562857D02*
X359181476Y-117600952D01*
X359219571Y-117639047D01*
X359257666Y-117715238D01*
X359257666Y-117829523D01*
X359219571Y-117905714D01*
X359181476Y-117943809D01*
X359105285Y-117981904D01*
X358800523Y-117981904D01*
X358800523Y-117181904D01*
X359067190Y-117181904D01*
X359143380Y-117220000D01*
X359181476Y-117258095D01*
X359219571Y-117334285D01*
X359219571Y-117410476D01*
X359181476Y-117486666D01*
X359143380Y-117524761D01*
X359067190Y-117562857D01*
X358800523Y-117562857D01*
X359752904Y-117181904D02*
X359829095Y-117181904D01*
X359905285Y-117220000D01*
X359943380Y-117258095D01*
X359981476Y-117334285D01*
X360019571Y-117486666D01*
X360019571Y-117677142D01*
X359981476Y-117829523D01*
X359943380Y-117905714D01*
X359905285Y-117943809D01*
X359829095Y-117981904D01*
X359752904Y-117981904D01*
X359676714Y-117943809D01*
X359638619Y-117905714D01*
X359600523Y-117829523D01*
X359562428Y-117677142D01*
X359562428Y-117486666D01*
X359600523Y-117334285D01*
X359638619Y-117258095D01*
X359676714Y-117220000D01*
X359752904Y-117181904D01*
X359067190Y-117562857D02*
X359181476Y-117600952D01*
X359219571Y-117639047D01*
X359257666Y-117715238D01*
X359257666Y-117829523D01*
X359219571Y-117905714D01*
X359181476Y-117943809D01*
X359105285Y-117981904D01*
X358800523Y-117981904D01*
X358800523Y-117181904D01*
X359067190Y-117181904D01*
X359143380Y-117220000D01*
X359181476Y-117258095D01*
X359219571Y-117334285D01*
X359219571Y-117410476D01*
X359181476Y-117486666D01*
X359143380Y-117524761D01*
X359067190Y-117562857D01*
X358800523Y-117562857D01*
X359752904Y-117181904D02*
X359829095Y-117181904D01*
X359905285Y-117220000D01*
X359943380Y-117258095D01*
X359981476Y-117334285D01*
X360019571Y-117486666D01*
X360019571Y-117677142D01*
X359981476Y-117829523D01*
X359943380Y-117905714D01*
X359905285Y-117943809D01*
X359829095Y-117981904D01*
X359752904Y-117981904D01*
X359676714Y-117943809D01*
X359638619Y-117905714D01*
X359600523Y-117829523D01*
X359562428Y-117677142D01*
X359562428Y-117486666D01*
X359600523Y-117334285D01*
X359638619Y-117258095D01*
X359676714Y-117220000D01*
X359752904Y-117181904D01*
X358781476Y-119760000D02*
X358705285Y-119721904D01*
X358591000Y-119721904D01*
X358476714Y-119760000D01*
X358400523Y-119836190D01*
X358362428Y-119912380D01*
X358324333Y-120064761D01*
X358324333Y-120179047D01*
X358362428Y-120331428D01*
X358400523Y-120407619D01*
X358476714Y-120483809D01*
X358591000Y-120521904D01*
X358667190Y-120521904D01*
X358781476Y-120483809D01*
X358819571Y-120445714D01*
X358819571Y-120179047D01*
X358667190Y-120179047D01*
X359162428Y-120521904D02*
X359162428Y-119721904D01*
X359619571Y-120521904D01*
X359619571Y-119721904D01*
X360000523Y-120521904D02*
X360000523Y-119721904D01*
X360191000Y-119721904D01*
X360305285Y-119760000D01*
X360381476Y-119836190D01*
X360419571Y-119912380D01*
X360457666Y-120064761D01*
X360457666Y-120179047D01*
X360419571Y-120331428D01*
X360381476Y-120407619D01*
X360305285Y-120483809D01*
X360191000Y-120521904D01*
X360000523Y-120521904D01*
X358324333Y-124801904D02*
X358591000Y-125601904D01*
X358857666Y-124801904D01*
X359581476Y-125525714D02*
X359543380Y-125563809D01*
X359429095Y-125601904D01*
X359352904Y-125601904D01*
X359238619Y-125563809D01*
X359162428Y-125487619D01*
X359124333Y-125411428D01*
X359086238Y-125259047D01*
X359086238Y-125144761D01*
X359124333Y-124992380D01*
X359162428Y-124916190D01*
X359238619Y-124840000D01*
X359352904Y-124801904D01*
X359429095Y-124801904D01*
X359543380Y-124840000D01*
X359581476Y-124878095D01*
X360381476Y-125525714D02*
X360343380Y-125563809D01*
X360229095Y-125601904D01*
X360152904Y-125601904D01*
X360038619Y-125563809D01*
X359962428Y-125487619D01*
X359924333Y-125411428D01*
X359886238Y-125259047D01*
X359886238Y-125144761D01*
X359924333Y-124992380D01*
X359962428Y-124916190D01*
X360038619Y-124840000D01*
X360152904Y-124801904D01*
X360229095Y-124801904D01*
X360343380Y-124840000D01*
X360381476Y-124878095D01*
X359124333Y-127722857D02*
X358857666Y-127722857D01*
X358857666Y-128141904D02*
X358857666Y-127341904D01*
X359238619Y-127341904D01*
X359886238Y-127608571D02*
X359886238Y-128141904D01*
X359695761Y-127303809D02*
X359505285Y-127875238D01*
X360000523Y-127875238D01*
X359067190Y-137882857D02*
X359181476Y-137920952D01*
X359219571Y-137959047D01*
X359257666Y-138035238D01*
X359257666Y-138149523D01*
X359219571Y-138225714D01*
X359181476Y-138263809D01*
X359105285Y-138301904D01*
X358800523Y-138301904D01*
X358800523Y-137501904D01*
X359067190Y-137501904D01*
X359143380Y-137540000D01*
X359181476Y-137578095D01*
X359219571Y-137654285D01*
X359219571Y-137730476D01*
X359181476Y-137806666D01*
X359143380Y-137844761D01*
X359067190Y-137882857D01*
X358800523Y-137882857D01*
X360019571Y-138301904D02*
X359562428Y-138301904D01*
X359791000Y-138301904D02*
X359791000Y-137501904D01*
X359714809Y-137616190D01*
X359638619Y-137692380D01*
X359562428Y-137730476D01*
X359067190Y-140422857D02*
X359181476Y-140460952D01*
X359219571Y-140499047D01*
X359257666Y-140575238D01*
X359257666Y-140689523D01*
X359219571Y-140765714D01*
X359181476Y-140803809D01*
X359105285Y-140841904D01*
X358800523Y-140841904D01*
X358800523Y-140041904D01*
X359067190Y-140041904D01*
X359143380Y-140080000D01*
X359181476Y-140118095D01*
X359219571Y-140194285D01*
X359219571Y-140270476D01*
X359181476Y-140346666D01*
X359143380Y-140384761D01*
X359067190Y-140422857D01*
X358800523Y-140422857D01*
X359524333Y-140041904D02*
X360019571Y-140041904D01*
X359752904Y-140346666D01*
X359867190Y-140346666D01*
X359943380Y-140384761D01*
X359981476Y-140422857D01*
X360019571Y-140499047D01*
X360019571Y-140689523D01*
X359981476Y-140765714D01*
X359943380Y-140803809D01*
X359867190Y-140841904D01*
X359638619Y-140841904D01*
X359562428Y-140803809D01*
X359524333Y-140765714D01*
X347365008Y-144054297D02*
X347412148Y-144148578D01*
X347412148Y-144195719D01*
X347388578Y-144266429D01*
X347317867Y-144337140D01*
X347247157Y-144360710D01*
X347200016Y-144360710D01*
X347129306Y-144337140D01*
X346940744Y-144148578D01*
X347435719Y-143653603D01*
X347600710Y-143818595D01*
X347624280Y-143889306D01*
X347624280Y-143936446D01*
X347600710Y-144007157D01*
X347553570Y-144054297D01*
X347482859Y-144077867D01*
X347435719Y-144077867D01*
X347365008Y-144054297D01*
X347200016Y-143889306D01*
X348166396Y-144384280D02*
X347930693Y-144148578D01*
X347671421Y-144360710D01*
X347718561Y-144360710D01*
X347789272Y-144384280D01*
X347907123Y-144502132D01*
X347930693Y-144572842D01*
X347930693Y-144619983D01*
X347907123Y-144690693D01*
X347789272Y-144808544D01*
X347718561Y-144832115D01*
X347671421Y-144832115D01*
X347600710Y-144808544D01*
X347482859Y-144690693D01*
X347459289Y-144619983D01*
X347459289Y-144572842D01*
X348145190Y-142962857D02*
X348259476Y-143000952D01*
X348297571Y-143039047D01*
X348335666Y-143115238D01*
X348335666Y-143229523D01*
X348297571Y-143305714D01*
X348259476Y-143343809D01*
X348183285Y-143381904D01*
X347878523Y-143381904D01*
X347878523Y-142581904D01*
X348145190Y-142581904D01*
X348221380Y-142620000D01*
X348259476Y-142658095D01*
X348297571Y-142734285D01*
X348297571Y-142810476D01*
X348259476Y-142886666D01*
X348221380Y-142924761D01*
X348145190Y-142962857D01*
X347878523Y-142962857D01*
X349021380Y-142848571D02*
X349021380Y-143381904D01*
X348830904Y-142543809D02*
X348640428Y-143115238D01*
X349135666Y-143115238D01*
X347916619Y-140422857D02*
X348183285Y-140422857D01*
X348297571Y-140841904D02*
X347916619Y-140841904D01*
X347916619Y-140041904D01*
X348297571Y-140041904D01*
X348983285Y-140041904D02*
X348830904Y-140041904D01*
X348754714Y-140080000D01*
X348716619Y-140118095D01*
X348640428Y-140232380D01*
X348602333Y-140384761D01*
X348602333Y-140689523D01*
X348640428Y-140765714D01*
X348678523Y-140803809D01*
X348754714Y-140841904D01*
X348907095Y-140841904D01*
X348983285Y-140803809D01*
X349021380Y-140765714D01*
X349059476Y-140689523D01*
X349059476Y-140499047D01*
X349021380Y-140422857D01*
X348983285Y-140384761D01*
X348907095Y-140346666D01*
X348754714Y-140346666D01*
X348678523Y-140384761D01*
X348640428Y-140422857D01*
X348602333Y-140499047D01*
X347878523Y-138301904D02*
X347878523Y-137501904D01*
X348069000Y-137501904D01*
X348183285Y-137540000D01*
X348259476Y-137616190D01*
X348297571Y-137692380D01*
X348335666Y-137844761D01*
X348335666Y-137959047D01*
X348297571Y-138111428D01*
X348259476Y-138187619D01*
X348183285Y-138263809D01*
X348069000Y-138301904D01*
X347878523Y-138301904D01*
X348602333Y-137501904D02*
X349135666Y-137501904D01*
X348792809Y-138301904D01*
X348335666Y-135685714D02*
X348297571Y-135723809D01*
X348183285Y-135761904D01*
X348107095Y-135761904D01*
X347992809Y-135723809D01*
X347916619Y-135647619D01*
X347878523Y-135571428D01*
X347840428Y-135419047D01*
X347840428Y-135304761D01*
X347878523Y-135152380D01*
X347916619Y-135076190D01*
X347992809Y-135000000D01*
X348107095Y-134961904D01*
X348183285Y-134961904D01*
X348297571Y-135000000D01*
X348335666Y-135038095D01*
X349021380Y-134961904D02*
X348869000Y-134961904D01*
X348792809Y-135000000D01*
X348754714Y-135038095D01*
X348678523Y-135152380D01*
X348640428Y-135304761D01*
X348640428Y-135609523D01*
X348678523Y-135685714D01*
X348716619Y-135723809D01*
X348792809Y-135761904D01*
X348945190Y-135761904D01*
X349021380Y-135723809D01*
X349059476Y-135685714D01*
X349097571Y-135609523D01*
X349097571Y-135419047D01*
X349059476Y-135342857D01*
X349021380Y-135304761D01*
X348945190Y-135266666D01*
X348792809Y-135266666D01*
X348716619Y-135304761D01*
X348678523Y-135342857D01*
X348640428Y-135419047D01*
X347878523Y-133221904D02*
X347878523Y-132421904D01*
X348069000Y-132421904D01*
X348183285Y-132460000D01*
X348259476Y-132536190D01*
X348297571Y-132612380D01*
X348335666Y-132764761D01*
X348335666Y-132879047D01*
X348297571Y-133031428D01*
X348259476Y-133107619D01*
X348183285Y-133183809D01*
X348069000Y-133221904D01*
X347878523Y-133221904D01*
X349021380Y-132688571D02*
X349021380Y-133221904D01*
X348830904Y-132383809D02*
X348640428Y-132955238D01*
X349135666Y-132955238D01*
X347859476Y-122300000D02*
X347783285Y-122261904D01*
X347669000Y-122261904D01*
X347554714Y-122300000D01*
X347478523Y-122376190D01*
X347440428Y-122452380D01*
X347402333Y-122604761D01*
X347402333Y-122719047D01*
X347440428Y-122871428D01*
X347478523Y-122947619D01*
X347554714Y-123023809D01*
X347669000Y-123061904D01*
X347745190Y-123061904D01*
X347859476Y-123023809D01*
X347897571Y-122985714D01*
X347897571Y-122719047D01*
X347745190Y-122719047D01*
X348240428Y-123061904D02*
X348240428Y-122261904D01*
X348697571Y-123061904D01*
X348697571Y-122261904D01*
X349078523Y-123061904D02*
X349078523Y-122261904D01*
X349269000Y-122261904D01*
X349383285Y-122300000D01*
X349459476Y-122376190D01*
X349497571Y-122452380D01*
X349535666Y-122604761D01*
X349535666Y-122719047D01*
X349497571Y-122871428D01*
X349459476Y-122947619D01*
X349383285Y-123023809D01*
X349269000Y-123061904D01*
X349078523Y-123061904D01*
X347859476Y-124840000D02*
X347783285Y-124801904D01*
X347669000Y-124801904D01*
X347554714Y-124840000D01*
X347478523Y-124916190D01*
X347440428Y-124992380D01*
X347402333Y-125144761D01*
X347402333Y-125259047D01*
X347440428Y-125411428D01*
X347478523Y-125487619D01*
X347554714Y-125563809D01*
X347669000Y-125601904D01*
X347745190Y-125601904D01*
X347859476Y-125563809D01*
X347897571Y-125525714D01*
X347897571Y-125259047D01*
X347745190Y-125259047D01*
X348240428Y-125601904D02*
X348240428Y-124801904D01*
X348697571Y-125601904D01*
X348697571Y-124801904D01*
X349078523Y-125601904D02*
X349078523Y-124801904D01*
X349269000Y-124801904D01*
X349383285Y-124840000D01*
X349459476Y-124916190D01*
X349497571Y-124992380D01*
X349535666Y-125144761D01*
X349535666Y-125259047D01*
X349497571Y-125411428D01*
X349459476Y-125487619D01*
X349383285Y-125563809D01*
X349269000Y-125601904D01*
X349078523Y-125601904D01*
X347878523Y-128141904D02*
X347878523Y-127341904D01*
X348069000Y-127341904D01*
X348183285Y-127380000D01*
X348259476Y-127456190D01*
X348297571Y-127532380D01*
X348335666Y-127684761D01*
X348335666Y-127799047D01*
X348297571Y-127951428D01*
X348259476Y-128027619D01*
X348183285Y-128103809D01*
X348069000Y-128141904D01*
X347878523Y-128141904D01*
X349097571Y-128141904D02*
X348640428Y-128141904D01*
X348869000Y-128141904D02*
X348869000Y-127341904D01*
X348792809Y-127456190D01*
X348716619Y-127532380D01*
X348640428Y-127570476D01*
X347878523Y-130681904D02*
X347878523Y-129881904D01*
X348069000Y-129881904D01*
X348183285Y-129920000D01*
X348259476Y-129996190D01*
X348297571Y-130072380D01*
X348335666Y-130224761D01*
X348335666Y-130339047D01*
X348297571Y-130491428D01*
X348259476Y-130567619D01*
X348183285Y-130643809D01*
X348069000Y-130681904D01*
X347878523Y-130681904D01*
X348830904Y-129881904D02*
X348907095Y-129881904D01*
X348983285Y-129920000D01*
X349021380Y-129958095D01*
X349059476Y-130034285D01*
X349097571Y-130186666D01*
X349097571Y-130377142D01*
X349059476Y-130529523D01*
X349021380Y-130605714D01*
X348983285Y-130643809D01*
X348907095Y-130681904D01*
X348830904Y-130681904D01*
X348754714Y-130643809D01*
X348716619Y-130605714D01*
X348678523Y-130529523D01*
X348640428Y-130377142D01*
X348640428Y-130186666D01*
X348678523Y-130034285D01*
X348716619Y-129958095D01*
X348754714Y-129920000D01*
X348830904Y-129881904D01*
X347878523Y-120521904D02*
X347878523Y-119721904D01*
X348069000Y-119721904D01*
X348183285Y-119760000D01*
X348259476Y-119836190D01*
X348297571Y-119912380D01*
X348335666Y-120064761D01*
X348335666Y-120179047D01*
X348297571Y-120331428D01*
X348259476Y-120407619D01*
X348183285Y-120483809D01*
X348069000Y-120521904D01*
X347878523Y-120521904D01*
X348640428Y-119798095D02*
X348678523Y-119760000D01*
X348754714Y-119721904D01*
X348945190Y-119721904D01*
X349021380Y-119760000D01*
X349059476Y-119798095D01*
X349097571Y-119874285D01*
X349097571Y-119950476D01*
X349059476Y-120064761D01*
X348602333Y-120521904D01*
X349097571Y-120521904D01*
X348167651Y-117181904D02*
X348624794Y-117181904D01*
X348396223Y-117981904D02*
X348396223Y-117181904D01*
X348815270Y-117181904D02*
X349348604Y-117981904D01*
X349348604Y-117181904D02*
X348815270Y-117981904D01*
X349805747Y-117181904D02*
X349881937Y-117181904D01*
X349958128Y-117220000D01*
X349996223Y-117258095D01*
X350034318Y-117334285D01*
X350072413Y-117486666D01*
X350072413Y-117677142D01*
X350034318Y-117829523D01*
X349996223Y-117905714D01*
X349958128Y-117943809D01*
X349881937Y-117981904D01*
X349805747Y-117981904D01*
X349729556Y-117943809D01*
X349691461Y-117905714D01*
X349653366Y-117829523D01*
X349615270Y-117677142D01*
X349615270Y-117486666D01*
X349653366Y-117334285D01*
X349691461Y-117258095D01*
X349729556Y-117220000D01*
X349805747Y-117181904D01*
X350986699Y-117143809D02*
X350300985Y-118172380D01*
X351253366Y-117981904D02*
X351253366Y-117181904D01*
X351443842Y-117181904D01*
X351558128Y-117220000D01*
X351634318Y-117296190D01*
X351672413Y-117372380D01*
X351710508Y-117524761D01*
X351710508Y-117639047D01*
X351672413Y-117791428D01*
X351634318Y-117867619D01*
X351558128Y-117943809D01*
X351443842Y-117981904D01*
X351253366Y-117981904D01*
X351977175Y-117181904D02*
X352472413Y-117181904D01*
X352205747Y-117486666D01*
X352320032Y-117486666D01*
X352396223Y-117524761D01*
X352434318Y-117562857D01*
X352472413Y-117639047D01*
X352472413Y-117829523D01*
X352434318Y-117905714D01*
X352396223Y-117943809D01*
X352320032Y-117981904D01*
X352091461Y-117981904D01*
X352015270Y-117943809D01*
X351977175Y-117905714D01*
X348167651Y-117181904D02*
X348624794Y-117181904D01*
X348396223Y-117981904D02*
X348396223Y-117181904D01*
X348815270Y-117181904D02*
X349348604Y-117981904D01*
X349348604Y-117181904D02*
X348815270Y-117981904D01*
X349805747Y-117181904D02*
X349881937Y-117181904D01*
X349958128Y-117220000D01*
X349996223Y-117258095D01*
X350034318Y-117334285D01*
X350072413Y-117486666D01*
X350072413Y-117677142D01*
X350034318Y-117829523D01*
X349996223Y-117905714D01*
X349958128Y-117943809D01*
X349881937Y-117981904D01*
X349805747Y-117981904D01*
X349729556Y-117943809D01*
X349691461Y-117905714D01*
X349653366Y-117829523D01*
X349615270Y-117677142D01*
X349615270Y-117486666D01*
X349653366Y-117334285D01*
X349691461Y-117258095D01*
X349729556Y-117220000D01*
X349805747Y-117181904D01*
X350986699Y-117143809D02*
X350300985Y-118172380D01*
X351253366Y-117981904D02*
X351253366Y-117181904D01*
X351443842Y-117181904D01*
X351558128Y-117220000D01*
X351634318Y-117296190D01*
X351672413Y-117372380D01*
X351710508Y-117524761D01*
X351710508Y-117639047D01*
X351672413Y-117791428D01*
X351634318Y-117867619D01*
X351558128Y-117943809D01*
X351443842Y-117981904D01*
X351253366Y-117981904D01*
X351977175Y-117181904D02*
X352472413Y-117181904D01*
X352205747Y-117486666D01*
X352320032Y-117486666D01*
X352396223Y-117524761D01*
X352434318Y-117562857D01*
X352472413Y-117639047D01*
X352472413Y-117829523D01*
X352434318Y-117905714D01*
X352396223Y-117943809D01*
X352320032Y-117981904D01*
X352091461Y-117981904D01*
X352015270Y-117943809D01*
X351977175Y-117905714D01*
X358196666Y-144140000D02*
X357963333Y-144140000D01*
X357963333Y-144506666D02*
X357963333Y-143806666D01*
X358296666Y-143806666D01*
X358696666Y-143806666D02*
X358763333Y-143806666D01*
X358830000Y-143840000D01*
X358863333Y-143873333D01*
X358896666Y-143940000D01*
X358930000Y-144073333D01*
X358930000Y-144240000D01*
X358896666Y-144373333D01*
X358863333Y-144440000D01*
X358830000Y-144473333D01*
X358763333Y-144506666D01*
X358696666Y-144506666D01*
X358630000Y-144473333D01*
X358596666Y-144440000D01*
X358563333Y-144373333D01*
X358530000Y-144240000D01*
X358530000Y-144073333D01*
X358563333Y-143940000D01*
X358596666Y-143873333D01*
X358630000Y-143840000D01*
X358696666Y-143806666D01*
X358196666Y-144140000D02*
X357963333Y-144140000D01*
X357963333Y-144506666D02*
X357963333Y-143806666D01*
X358296666Y-143806666D01*
X358696666Y-143806666D02*
X358763333Y-143806666D01*
X358830000Y-143840000D01*
X358863333Y-143873333D01*
X358896666Y-143940000D01*
X358930000Y-144073333D01*
X358930000Y-144240000D01*
X358896666Y-144373333D01*
X358863333Y-144440000D01*
X358830000Y-144473333D01*
X358763333Y-144506666D01*
X358696666Y-144506666D01*
X358630000Y-144473333D01*
X358596666Y-144440000D01*
X358563333Y-144373333D01*
X358530000Y-144240000D01*
X358530000Y-144073333D01*
X358563333Y-143940000D01*
X358596666Y-143873333D01*
X358630000Y-143840000D01*
X358696666Y-143806666D01*
X356203333Y-143932857D02*
X355936666Y-143932857D01*
X355936666Y-144351904D02*
X355936666Y-143551904D01*
X356317619Y-143551904D01*
X357041428Y-144351904D02*
X356584285Y-144351904D01*
X356812857Y-144351904D02*
X356812857Y-143551904D01*
X356736666Y-143666190D01*
X356660476Y-143742380D01*
X356584285Y-143780476D01*
X356203333Y-143932857D02*
X355936666Y-143932857D01*
X355936666Y-144351904D02*
X355936666Y-143551904D01*
X356317619Y-143551904D01*
X357041428Y-144351904D02*
X356584285Y-144351904D01*
X356812857Y-144351904D02*
X356812857Y-143551904D01*
X356736666Y-143666190D01*
X356660476Y-143742380D01*
X356584285Y-143780476D01*
%TO.C,KA11*%
X293507142Y-87228380D02*
X293507142Y-86228380D01*
X294078571Y-87228380D02*
X293650000Y-86656952D01*
X294078571Y-86228380D02*
X293507142Y-86799809D01*
X294459523Y-86942666D02*
X294935714Y-86942666D01*
X294364285Y-87228380D02*
X294697619Y-86228380D01*
X295030952Y-87228380D01*
X295888095Y-87228380D02*
X295316666Y-87228380D01*
X295602380Y-87228380D02*
X295602380Y-86228380D01*
X295507142Y-86371238D01*
X295411904Y-86466476D01*
X295316666Y-86514095D01*
X296840476Y-87228380D02*
X296269047Y-87228380D01*
X296554761Y-87228380D02*
X296554761Y-86228380D01*
X296459523Y-86371238D01*
X296364285Y-86466476D01*
X296269047Y-86514095D01*
%TO.C,KE11*%
X310133333Y-168228380D02*
X310133333Y-167228380D01*
X310704761Y-168228380D02*
X310276190Y-167656952D01*
X310704761Y-167228380D02*
X310133333Y-167799809D01*
X311133333Y-167704571D02*
X311466666Y-167704571D01*
X311609523Y-168228380D02*
X311133333Y-168228380D01*
X311133333Y-167228380D01*
X311609523Y-167228380D01*
X312561904Y-168228380D02*
X311990476Y-168228380D01*
X312276190Y-168228380D02*
X312276190Y-167228380D01*
X312180952Y-167371238D01*
X312085714Y-167466476D01*
X311990476Y-167514095D01*
X313514285Y-168228380D02*
X312942857Y-168228380D01*
X313228571Y-168228380D02*
X313228571Y-167228380D01*
X313133333Y-167371238D01*
X313038095Y-167466476D01*
X312942857Y-167514095D01*
%TO.C,KA0*%
X65383333Y-87228380D02*
X65383333Y-86228380D01*
X65954761Y-87228380D02*
X65526190Y-86656952D01*
X65954761Y-86228380D02*
X65383333Y-86799809D01*
X66335714Y-86942666D02*
X66811904Y-86942666D01*
X66240476Y-87228380D02*
X66573809Y-86228380D01*
X66907142Y-87228380D01*
X67430952Y-86228380D02*
X67526190Y-86228380D01*
X67621428Y-86276000D01*
X67669047Y-86323619D01*
X67716666Y-86418857D01*
X67764285Y-86609333D01*
X67764285Y-86847428D01*
X67716666Y-87037904D01*
X67669047Y-87133142D01*
X67621428Y-87180761D01*
X67526190Y-87228380D01*
X67430952Y-87228380D01*
X67335714Y-87180761D01*
X67288095Y-87133142D01*
X67240476Y-87037904D01*
X67192857Y-86847428D01*
X67192857Y-86609333D01*
X67240476Y-86418857D01*
X67288095Y-86323619D01*
X67335714Y-86276000D01*
X67430952Y-86228380D01*
%TO.C,KA1*%
X93983333Y-87228380D02*
X93983333Y-86228380D01*
X94554761Y-87228380D02*
X94126190Y-86656952D01*
X94554761Y-86228380D02*
X93983333Y-86799809D01*
X94935714Y-86942666D02*
X95411904Y-86942666D01*
X94840476Y-87228380D02*
X95173809Y-86228380D01*
X95507142Y-87228380D01*
X96364285Y-87228380D02*
X95792857Y-87228380D01*
X96078571Y-87228380D02*
X96078571Y-86228380D01*
X95983333Y-86371238D01*
X95888095Y-86466476D01*
X95792857Y-86514095D01*
%TO.C,KA2*%
X112983333Y-87228380D02*
X112983333Y-86228380D01*
X113554761Y-87228380D02*
X113126190Y-86656952D01*
X113554761Y-86228380D02*
X112983333Y-86799809D01*
X113935714Y-86942666D02*
X114411904Y-86942666D01*
X113840476Y-87228380D02*
X114173809Y-86228380D01*
X114507142Y-87228380D01*
X114792857Y-86323619D02*
X114840476Y-86276000D01*
X114935714Y-86228380D01*
X115173809Y-86228380D01*
X115269047Y-86276000D01*
X115316666Y-86323619D01*
X115364285Y-86418857D01*
X115364285Y-86514095D01*
X115316666Y-86656952D01*
X114745238Y-87228380D01*
X115364285Y-87228380D01*
%TO.C,KA3*%
X132033333Y-87228380D02*
X132033333Y-86228380D01*
X132604761Y-87228380D02*
X132176190Y-86656952D01*
X132604761Y-86228380D02*
X132033333Y-86799809D01*
X132985714Y-86942666D02*
X133461904Y-86942666D01*
X132890476Y-87228380D02*
X133223809Y-86228380D01*
X133557142Y-87228380D01*
X133795238Y-86228380D02*
X134414285Y-86228380D01*
X134080952Y-86609333D01*
X134223809Y-86609333D01*
X134319047Y-86656952D01*
X134366666Y-86704571D01*
X134414285Y-86799809D01*
X134414285Y-87037904D01*
X134366666Y-87133142D01*
X134319047Y-87180761D01*
X134223809Y-87228380D01*
X133938095Y-87228380D01*
X133842857Y-87180761D01*
X133795238Y-87133142D01*
%TO.C,KA4*%
X151133333Y-87228380D02*
X151133333Y-86228380D01*
X151704761Y-87228380D02*
X151276190Y-86656952D01*
X151704761Y-86228380D02*
X151133333Y-86799809D01*
X152085714Y-86942666D02*
X152561904Y-86942666D01*
X151990476Y-87228380D02*
X152323809Y-86228380D01*
X152657142Y-87228380D01*
X153419047Y-86561714D02*
X153419047Y-87228380D01*
X153180952Y-86180761D02*
X152942857Y-86895047D01*
X153561904Y-86895047D01*
%TO.C,KA5*%
X174933333Y-87228380D02*
X174933333Y-86228380D01*
X175504761Y-87228380D02*
X175076190Y-86656952D01*
X175504761Y-86228380D02*
X174933333Y-86799809D01*
X175885714Y-86942666D02*
X176361904Y-86942666D01*
X175790476Y-87228380D02*
X176123809Y-86228380D01*
X176457142Y-87228380D01*
X177266666Y-86228380D02*
X176790476Y-86228380D01*
X176742857Y-86704571D01*
X176790476Y-86656952D01*
X176885714Y-86609333D01*
X177123809Y-86609333D01*
X177219047Y-86656952D01*
X177266666Y-86704571D01*
X177314285Y-86799809D01*
X177314285Y-87037904D01*
X177266666Y-87133142D01*
X177219047Y-87180761D01*
X177123809Y-87228380D01*
X176885714Y-87228380D01*
X176790476Y-87180761D01*
X176742857Y-87133142D01*
%TO.C,KA6*%
X193983333Y-87228380D02*
X193983333Y-86228380D01*
X194554761Y-87228380D02*
X194126190Y-86656952D01*
X194554761Y-86228380D02*
X193983333Y-86799809D01*
X194935714Y-86942666D02*
X195411904Y-86942666D01*
X194840476Y-87228380D02*
X195173809Y-86228380D01*
X195507142Y-87228380D01*
X196269047Y-86228380D02*
X196078571Y-86228380D01*
X195983333Y-86276000D01*
X195935714Y-86323619D01*
X195840476Y-86466476D01*
X195792857Y-86656952D01*
X195792857Y-87037904D01*
X195840476Y-87133142D01*
X195888095Y-87180761D01*
X195983333Y-87228380D01*
X196173809Y-87228380D01*
X196269047Y-87180761D01*
X196316666Y-87133142D01*
X196364285Y-87037904D01*
X196364285Y-86799809D01*
X196316666Y-86704571D01*
X196269047Y-86656952D01*
X196173809Y-86609333D01*
X195983333Y-86609333D01*
X195888095Y-86656952D01*
X195840476Y-86704571D01*
X195792857Y-86799809D01*
%TO.C,KA7*%
X213033333Y-87228380D02*
X213033333Y-86228380D01*
X213604761Y-87228380D02*
X213176190Y-86656952D01*
X213604761Y-86228380D02*
X213033333Y-86799809D01*
X213985714Y-86942666D02*
X214461904Y-86942666D01*
X213890476Y-87228380D02*
X214223809Y-86228380D01*
X214557142Y-87228380D01*
X214795238Y-86228380D02*
X215461904Y-86228380D01*
X215033333Y-87228380D01*
%TO.C,KA8*%
X232083333Y-87278380D02*
X232083333Y-86278380D01*
X232654761Y-87278380D02*
X232226190Y-86706952D01*
X232654761Y-86278380D02*
X232083333Y-86849809D01*
X233035714Y-86992666D02*
X233511904Y-86992666D01*
X232940476Y-87278380D02*
X233273809Y-86278380D01*
X233607142Y-87278380D01*
X234083333Y-86706952D02*
X233988095Y-86659333D01*
X233940476Y-86611714D01*
X233892857Y-86516476D01*
X233892857Y-86468857D01*
X233940476Y-86373619D01*
X233988095Y-86326000D01*
X234083333Y-86278380D01*
X234273809Y-86278380D01*
X234369047Y-86326000D01*
X234416666Y-86373619D01*
X234464285Y-86468857D01*
X234464285Y-86516476D01*
X234416666Y-86611714D01*
X234369047Y-86659333D01*
X234273809Y-86706952D01*
X234083333Y-86706952D01*
X233988095Y-86754571D01*
X233940476Y-86802190D01*
X233892857Y-86897428D01*
X233892857Y-87087904D01*
X233940476Y-87183142D01*
X233988095Y-87230761D01*
X234083333Y-87278380D01*
X234273809Y-87278380D01*
X234369047Y-87230761D01*
X234416666Y-87183142D01*
X234464285Y-87087904D01*
X234464285Y-86897428D01*
X234416666Y-86802190D01*
X234369047Y-86754571D01*
X234273809Y-86706952D01*
%TO.C,KA9*%
X255883333Y-87228380D02*
X255883333Y-86228380D01*
X256454761Y-87228380D02*
X256026190Y-86656952D01*
X256454761Y-86228380D02*
X255883333Y-86799809D01*
X256835714Y-86942666D02*
X257311904Y-86942666D01*
X256740476Y-87228380D02*
X257073809Y-86228380D01*
X257407142Y-87228380D01*
X257788095Y-87228380D02*
X257978571Y-87228380D01*
X258073809Y-87180761D01*
X258121428Y-87133142D01*
X258216666Y-86990285D01*
X258264285Y-86799809D01*
X258264285Y-86418857D01*
X258216666Y-86323619D01*
X258169047Y-86276000D01*
X258073809Y-86228380D01*
X257883333Y-86228380D01*
X257788095Y-86276000D01*
X257740476Y-86323619D01*
X257692857Y-86418857D01*
X257692857Y-86656952D01*
X257740476Y-86752190D01*
X257788095Y-86799809D01*
X257883333Y-86847428D01*
X258073809Y-86847428D01*
X258169047Y-86799809D01*
X258216666Y-86752190D01*
X258264285Y-86656952D01*
%TO.C,KA10*%
X274457142Y-87228380D02*
X274457142Y-86228380D01*
X275028571Y-87228380D02*
X274600000Y-86656952D01*
X275028571Y-86228380D02*
X274457142Y-86799809D01*
X275409523Y-86942666D02*
X275885714Y-86942666D01*
X275314285Y-87228380D02*
X275647619Y-86228380D01*
X275980952Y-87228380D01*
X276838095Y-87228380D02*
X276266666Y-87228380D01*
X276552380Y-87228380D02*
X276552380Y-86228380D01*
X276457142Y-86371238D01*
X276361904Y-86466476D01*
X276266666Y-86514095D01*
X277457142Y-86228380D02*
X277552380Y-86228380D01*
X277647619Y-86276000D01*
X277695238Y-86323619D01*
X277742857Y-86418857D01*
X277790476Y-86609333D01*
X277790476Y-86847428D01*
X277742857Y-87037904D01*
X277695238Y-87133142D01*
X277647619Y-87180761D01*
X277552380Y-87228380D01*
X277457142Y-87228380D01*
X277361904Y-87180761D01*
X277314285Y-87133142D01*
X277266666Y-87037904D01*
X277219047Y-86847428D01*
X277219047Y-86609333D01*
X277266666Y-86418857D01*
X277314285Y-86323619D01*
X277361904Y-86276000D01*
X277457142Y-86228380D01*
%TO.C,KA12*%
X312507142Y-87228380D02*
X312507142Y-86228380D01*
X313078571Y-87228380D02*
X312650000Y-86656952D01*
X313078571Y-86228380D02*
X312507142Y-86799809D01*
X313459523Y-86942666D02*
X313935714Y-86942666D01*
X313364285Y-87228380D02*
X313697619Y-86228380D01*
X314030952Y-87228380D01*
X314888095Y-87228380D02*
X314316666Y-87228380D01*
X314602380Y-87228380D02*
X314602380Y-86228380D01*
X314507142Y-86371238D01*
X314411904Y-86466476D01*
X314316666Y-86514095D01*
X315269047Y-86323619D02*
X315316666Y-86276000D01*
X315411904Y-86228380D01*
X315650000Y-86228380D01*
X315745238Y-86276000D01*
X315792857Y-86323619D01*
X315840476Y-86418857D01*
X315840476Y-86514095D01*
X315792857Y-86656952D01*
X315221428Y-87228380D01*
X315840476Y-87228380D01*
%TO.C,KB0*%
X65311904Y-111028380D02*
X65311904Y-110028380D01*
X65883333Y-111028380D02*
X65454761Y-110456952D01*
X65883333Y-110028380D02*
X65311904Y-110599809D01*
X66645238Y-110504571D02*
X66788095Y-110552190D01*
X66835714Y-110599809D01*
X66883333Y-110695047D01*
X66883333Y-110837904D01*
X66835714Y-110933142D01*
X66788095Y-110980761D01*
X66692857Y-111028380D01*
X66311904Y-111028380D01*
X66311904Y-110028380D01*
X66645238Y-110028380D01*
X66740476Y-110076000D01*
X66788095Y-110123619D01*
X66835714Y-110218857D01*
X66835714Y-110314095D01*
X66788095Y-110409333D01*
X66740476Y-110456952D01*
X66645238Y-110504571D01*
X66311904Y-110504571D01*
X67502380Y-110028380D02*
X67597619Y-110028380D01*
X67692857Y-110076000D01*
X67740476Y-110123619D01*
X67788095Y-110218857D01*
X67835714Y-110409333D01*
X67835714Y-110647428D01*
X67788095Y-110837904D01*
X67740476Y-110933142D01*
X67692857Y-110980761D01*
X67597619Y-111028380D01*
X67502380Y-111028380D01*
X67407142Y-110980761D01*
X67359523Y-110933142D01*
X67311904Y-110837904D01*
X67264285Y-110647428D01*
X67264285Y-110409333D01*
X67311904Y-110218857D01*
X67359523Y-110123619D01*
X67407142Y-110076000D01*
X67502380Y-110028380D01*
%TO.C,KB1*%
X84361904Y-111028380D02*
X84361904Y-110028380D01*
X84933333Y-111028380D02*
X84504761Y-110456952D01*
X84933333Y-110028380D02*
X84361904Y-110599809D01*
X85695238Y-110504571D02*
X85838095Y-110552190D01*
X85885714Y-110599809D01*
X85933333Y-110695047D01*
X85933333Y-110837904D01*
X85885714Y-110933142D01*
X85838095Y-110980761D01*
X85742857Y-111028380D01*
X85361904Y-111028380D01*
X85361904Y-110028380D01*
X85695238Y-110028380D01*
X85790476Y-110076000D01*
X85838095Y-110123619D01*
X85885714Y-110218857D01*
X85885714Y-110314095D01*
X85838095Y-110409333D01*
X85790476Y-110456952D01*
X85695238Y-110504571D01*
X85361904Y-110504571D01*
X86885714Y-111028380D02*
X86314285Y-111028380D01*
X86600000Y-111028380D02*
X86600000Y-110028380D01*
X86504761Y-110171238D01*
X86409523Y-110266476D01*
X86314285Y-110314095D01*
%TO.C,KB2*%
X103411904Y-111028380D02*
X103411904Y-110028380D01*
X103983333Y-111028380D02*
X103554761Y-110456952D01*
X103983333Y-110028380D02*
X103411904Y-110599809D01*
X104745238Y-110504571D02*
X104888095Y-110552190D01*
X104935714Y-110599809D01*
X104983333Y-110695047D01*
X104983333Y-110837904D01*
X104935714Y-110933142D01*
X104888095Y-110980761D01*
X104792857Y-111028380D01*
X104411904Y-111028380D01*
X104411904Y-110028380D01*
X104745238Y-110028380D01*
X104840476Y-110076000D01*
X104888095Y-110123619D01*
X104935714Y-110218857D01*
X104935714Y-110314095D01*
X104888095Y-110409333D01*
X104840476Y-110456952D01*
X104745238Y-110504571D01*
X104411904Y-110504571D01*
X105364285Y-110123619D02*
X105411904Y-110076000D01*
X105507142Y-110028380D01*
X105745238Y-110028380D01*
X105840476Y-110076000D01*
X105888095Y-110123619D01*
X105935714Y-110218857D01*
X105935714Y-110314095D01*
X105888095Y-110456952D01*
X105316666Y-111028380D01*
X105935714Y-111028380D01*
%TO.C,KB3*%
X122461904Y-111028380D02*
X122461904Y-110028380D01*
X123033333Y-111028380D02*
X122604761Y-110456952D01*
X123033333Y-110028380D02*
X122461904Y-110599809D01*
X123795238Y-110504571D02*
X123938095Y-110552190D01*
X123985714Y-110599809D01*
X124033333Y-110695047D01*
X124033333Y-110837904D01*
X123985714Y-110933142D01*
X123938095Y-110980761D01*
X123842857Y-111028380D01*
X123461904Y-111028380D01*
X123461904Y-110028380D01*
X123795238Y-110028380D01*
X123890476Y-110076000D01*
X123938095Y-110123619D01*
X123985714Y-110218857D01*
X123985714Y-110314095D01*
X123938095Y-110409333D01*
X123890476Y-110456952D01*
X123795238Y-110504571D01*
X123461904Y-110504571D01*
X124366666Y-110028380D02*
X124985714Y-110028380D01*
X124652380Y-110409333D01*
X124795238Y-110409333D01*
X124890476Y-110456952D01*
X124938095Y-110504571D01*
X124985714Y-110599809D01*
X124985714Y-110837904D01*
X124938095Y-110933142D01*
X124890476Y-110980761D01*
X124795238Y-111028380D01*
X124509523Y-111028380D01*
X124414285Y-110980761D01*
X124366666Y-110933142D01*
%TO.C,KB4*%
X141511904Y-111028380D02*
X141511904Y-110028380D01*
X142083333Y-111028380D02*
X141654761Y-110456952D01*
X142083333Y-110028380D02*
X141511904Y-110599809D01*
X142845238Y-110504571D02*
X142988095Y-110552190D01*
X143035714Y-110599809D01*
X143083333Y-110695047D01*
X143083333Y-110837904D01*
X143035714Y-110933142D01*
X142988095Y-110980761D01*
X142892857Y-111028380D01*
X142511904Y-111028380D01*
X142511904Y-110028380D01*
X142845238Y-110028380D01*
X142940476Y-110076000D01*
X142988095Y-110123619D01*
X143035714Y-110218857D01*
X143035714Y-110314095D01*
X142988095Y-110409333D01*
X142940476Y-110456952D01*
X142845238Y-110504571D01*
X142511904Y-110504571D01*
X143940476Y-110361714D02*
X143940476Y-111028380D01*
X143702380Y-109980761D02*
X143464285Y-110695047D01*
X144083333Y-110695047D01*
%TO.C,KB5*%
X160561904Y-111028380D02*
X160561904Y-110028380D01*
X161133333Y-111028380D02*
X160704761Y-110456952D01*
X161133333Y-110028380D02*
X160561904Y-110599809D01*
X161895238Y-110504571D02*
X162038095Y-110552190D01*
X162085714Y-110599809D01*
X162133333Y-110695047D01*
X162133333Y-110837904D01*
X162085714Y-110933142D01*
X162038095Y-110980761D01*
X161942857Y-111028380D01*
X161561904Y-111028380D01*
X161561904Y-110028380D01*
X161895238Y-110028380D01*
X161990476Y-110076000D01*
X162038095Y-110123619D01*
X162085714Y-110218857D01*
X162085714Y-110314095D01*
X162038095Y-110409333D01*
X161990476Y-110456952D01*
X161895238Y-110504571D01*
X161561904Y-110504571D01*
X163038095Y-110028380D02*
X162561904Y-110028380D01*
X162514285Y-110504571D01*
X162561904Y-110456952D01*
X162657142Y-110409333D01*
X162895238Y-110409333D01*
X162990476Y-110456952D01*
X163038095Y-110504571D01*
X163085714Y-110599809D01*
X163085714Y-110837904D01*
X163038095Y-110933142D01*
X162990476Y-110980761D01*
X162895238Y-111028380D01*
X162657142Y-111028380D01*
X162561904Y-110980761D01*
X162514285Y-110933142D01*
%TO.C,KB6*%
X179611904Y-111028380D02*
X179611904Y-110028380D01*
X180183333Y-111028380D02*
X179754761Y-110456952D01*
X180183333Y-110028380D02*
X179611904Y-110599809D01*
X180945238Y-110504571D02*
X181088095Y-110552190D01*
X181135714Y-110599809D01*
X181183333Y-110695047D01*
X181183333Y-110837904D01*
X181135714Y-110933142D01*
X181088095Y-110980761D01*
X180992857Y-111028380D01*
X180611904Y-111028380D01*
X180611904Y-110028380D01*
X180945238Y-110028380D01*
X181040476Y-110076000D01*
X181088095Y-110123619D01*
X181135714Y-110218857D01*
X181135714Y-110314095D01*
X181088095Y-110409333D01*
X181040476Y-110456952D01*
X180945238Y-110504571D01*
X180611904Y-110504571D01*
X182040476Y-110028380D02*
X181850000Y-110028380D01*
X181754761Y-110076000D01*
X181707142Y-110123619D01*
X181611904Y-110266476D01*
X181564285Y-110456952D01*
X181564285Y-110837904D01*
X181611904Y-110933142D01*
X181659523Y-110980761D01*
X181754761Y-111028380D01*
X181945238Y-111028380D01*
X182040476Y-110980761D01*
X182088095Y-110933142D01*
X182135714Y-110837904D01*
X182135714Y-110599809D01*
X182088095Y-110504571D01*
X182040476Y-110456952D01*
X181945238Y-110409333D01*
X181754761Y-110409333D01*
X181659523Y-110456952D01*
X181611904Y-110504571D01*
X181564285Y-110599809D01*
%TO.C,KB7*%
X198661904Y-111028380D02*
X198661904Y-110028380D01*
X199233333Y-111028380D02*
X198804761Y-110456952D01*
X199233333Y-110028380D02*
X198661904Y-110599809D01*
X199995238Y-110504571D02*
X200138095Y-110552190D01*
X200185714Y-110599809D01*
X200233333Y-110695047D01*
X200233333Y-110837904D01*
X200185714Y-110933142D01*
X200138095Y-110980761D01*
X200042857Y-111028380D01*
X199661904Y-111028380D01*
X199661904Y-110028380D01*
X199995238Y-110028380D01*
X200090476Y-110076000D01*
X200138095Y-110123619D01*
X200185714Y-110218857D01*
X200185714Y-110314095D01*
X200138095Y-110409333D01*
X200090476Y-110456952D01*
X199995238Y-110504571D01*
X199661904Y-110504571D01*
X200566666Y-110028380D02*
X201233333Y-110028380D01*
X200804761Y-111028380D01*
%TO.C,KB8*%
X217711904Y-111028380D02*
X217711904Y-110028380D01*
X218283333Y-111028380D02*
X217854761Y-110456952D01*
X218283333Y-110028380D02*
X217711904Y-110599809D01*
X219045238Y-110504571D02*
X219188095Y-110552190D01*
X219235714Y-110599809D01*
X219283333Y-110695047D01*
X219283333Y-110837904D01*
X219235714Y-110933142D01*
X219188095Y-110980761D01*
X219092857Y-111028380D01*
X218711904Y-111028380D01*
X218711904Y-110028380D01*
X219045238Y-110028380D01*
X219140476Y-110076000D01*
X219188095Y-110123619D01*
X219235714Y-110218857D01*
X219235714Y-110314095D01*
X219188095Y-110409333D01*
X219140476Y-110456952D01*
X219045238Y-110504571D01*
X218711904Y-110504571D01*
X219854761Y-110456952D02*
X219759523Y-110409333D01*
X219711904Y-110361714D01*
X219664285Y-110266476D01*
X219664285Y-110218857D01*
X219711904Y-110123619D01*
X219759523Y-110076000D01*
X219854761Y-110028380D01*
X220045238Y-110028380D01*
X220140476Y-110076000D01*
X220188095Y-110123619D01*
X220235714Y-110218857D01*
X220235714Y-110266476D01*
X220188095Y-110361714D01*
X220140476Y-110409333D01*
X220045238Y-110456952D01*
X219854761Y-110456952D01*
X219759523Y-110504571D01*
X219711904Y-110552190D01*
X219664285Y-110647428D01*
X219664285Y-110837904D01*
X219711904Y-110933142D01*
X219759523Y-110980761D01*
X219854761Y-111028380D01*
X220045238Y-111028380D01*
X220140476Y-110980761D01*
X220188095Y-110933142D01*
X220235714Y-110837904D01*
X220235714Y-110647428D01*
X220188095Y-110552190D01*
X220140476Y-110504571D01*
X220045238Y-110456952D01*
%TO.C,KB9*%
X236761904Y-111028380D02*
X236761904Y-110028380D01*
X237333333Y-111028380D02*
X236904761Y-110456952D01*
X237333333Y-110028380D02*
X236761904Y-110599809D01*
X238095238Y-110504571D02*
X238238095Y-110552190D01*
X238285714Y-110599809D01*
X238333333Y-110695047D01*
X238333333Y-110837904D01*
X238285714Y-110933142D01*
X238238095Y-110980761D01*
X238142857Y-111028380D01*
X237761904Y-111028380D01*
X237761904Y-110028380D01*
X238095238Y-110028380D01*
X238190476Y-110076000D01*
X238238095Y-110123619D01*
X238285714Y-110218857D01*
X238285714Y-110314095D01*
X238238095Y-110409333D01*
X238190476Y-110456952D01*
X238095238Y-110504571D01*
X237761904Y-110504571D01*
X238809523Y-111028380D02*
X239000000Y-111028380D01*
X239095238Y-110980761D01*
X239142857Y-110933142D01*
X239238095Y-110790285D01*
X239285714Y-110599809D01*
X239285714Y-110218857D01*
X239238095Y-110123619D01*
X239190476Y-110076000D01*
X239095238Y-110028380D01*
X238904761Y-110028380D01*
X238809523Y-110076000D01*
X238761904Y-110123619D01*
X238714285Y-110218857D01*
X238714285Y-110456952D01*
X238761904Y-110552190D01*
X238809523Y-110599809D01*
X238904761Y-110647428D01*
X239095238Y-110647428D01*
X239190476Y-110599809D01*
X239238095Y-110552190D01*
X239285714Y-110456952D01*
%TO.C,KB10*%
X255335714Y-111028380D02*
X255335714Y-110028380D01*
X255907142Y-111028380D02*
X255478571Y-110456952D01*
X255907142Y-110028380D02*
X255335714Y-110599809D01*
X256669047Y-110504571D02*
X256811904Y-110552190D01*
X256859523Y-110599809D01*
X256907142Y-110695047D01*
X256907142Y-110837904D01*
X256859523Y-110933142D01*
X256811904Y-110980761D01*
X256716666Y-111028380D01*
X256335714Y-111028380D01*
X256335714Y-110028380D01*
X256669047Y-110028380D01*
X256764285Y-110076000D01*
X256811904Y-110123619D01*
X256859523Y-110218857D01*
X256859523Y-110314095D01*
X256811904Y-110409333D01*
X256764285Y-110456952D01*
X256669047Y-110504571D01*
X256335714Y-110504571D01*
X257859523Y-111028380D02*
X257288095Y-111028380D01*
X257573809Y-111028380D02*
X257573809Y-110028380D01*
X257478571Y-110171238D01*
X257383333Y-110266476D01*
X257288095Y-110314095D01*
X258478571Y-110028380D02*
X258573809Y-110028380D01*
X258669047Y-110076000D01*
X258716666Y-110123619D01*
X258764285Y-110218857D01*
X258811904Y-110409333D01*
X258811904Y-110647428D01*
X258764285Y-110837904D01*
X258716666Y-110933142D01*
X258669047Y-110980761D01*
X258573809Y-111028380D01*
X258478571Y-111028380D01*
X258383333Y-110980761D01*
X258335714Y-110933142D01*
X258288095Y-110837904D01*
X258240476Y-110647428D01*
X258240476Y-110409333D01*
X258288095Y-110218857D01*
X258335714Y-110123619D01*
X258383333Y-110076000D01*
X258478571Y-110028380D01*
%TO.C,KB11*%
X274385714Y-111028380D02*
X274385714Y-110028380D01*
X274957142Y-111028380D02*
X274528571Y-110456952D01*
X274957142Y-110028380D02*
X274385714Y-110599809D01*
X275719047Y-110504571D02*
X275861904Y-110552190D01*
X275909523Y-110599809D01*
X275957142Y-110695047D01*
X275957142Y-110837904D01*
X275909523Y-110933142D01*
X275861904Y-110980761D01*
X275766666Y-111028380D01*
X275385714Y-111028380D01*
X275385714Y-110028380D01*
X275719047Y-110028380D01*
X275814285Y-110076000D01*
X275861904Y-110123619D01*
X275909523Y-110218857D01*
X275909523Y-110314095D01*
X275861904Y-110409333D01*
X275814285Y-110456952D01*
X275719047Y-110504571D01*
X275385714Y-110504571D01*
X276909523Y-111028380D02*
X276338095Y-111028380D01*
X276623809Y-111028380D02*
X276623809Y-110028380D01*
X276528571Y-110171238D01*
X276433333Y-110266476D01*
X276338095Y-110314095D01*
X277861904Y-111028380D02*
X277290476Y-111028380D01*
X277576190Y-111028380D02*
X277576190Y-110028380D01*
X277480952Y-110171238D01*
X277385714Y-110266476D01*
X277290476Y-110314095D01*
%TO.C,KB12*%
X293435714Y-111028380D02*
X293435714Y-110028380D01*
X294007142Y-111028380D02*
X293578571Y-110456952D01*
X294007142Y-110028380D02*
X293435714Y-110599809D01*
X294769047Y-110504571D02*
X294911904Y-110552190D01*
X294959523Y-110599809D01*
X295007142Y-110695047D01*
X295007142Y-110837904D01*
X294959523Y-110933142D01*
X294911904Y-110980761D01*
X294816666Y-111028380D01*
X294435714Y-111028380D01*
X294435714Y-110028380D01*
X294769047Y-110028380D01*
X294864285Y-110076000D01*
X294911904Y-110123619D01*
X294959523Y-110218857D01*
X294959523Y-110314095D01*
X294911904Y-110409333D01*
X294864285Y-110456952D01*
X294769047Y-110504571D01*
X294435714Y-110504571D01*
X295959523Y-111028380D02*
X295388095Y-111028380D01*
X295673809Y-111028380D02*
X295673809Y-110028380D01*
X295578571Y-110171238D01*
X295483333Y-110266476D01*
X295388095Y-110314095D01*
X296340476Y-110123619D02*
X296388095Y-110076000D01*
X296483333Y-110028380D01*
X296721428Y-110028380D01*
X296816666Y-110076000D01*
X296864285Y-110123619D01*
X296911904Y-110218857D01*
X296911904Y-110314095D01*
X296864285Y-110456952D01*
X296292857Y-111028380D01*
X296911904Y-111028380D01*
%TO.C,KC1*%
X93861904Y-130128380D02*
X93861904Y-129128380D01*
X94433333Y-130128380D02*
X94004761Y-129556952D01*
X94433333Y-129128380D02*
X93861904Y-129699809D01*
X95433333Y-130033142D02*
X95385714Y-130080761D01*
X95242857Y-130128380D01*
X95147619Y-130128380D01*
X95004761Y-130080761D01*
X94909523Y-129985523D01*
X94861904Y-129890285D01*
X94814285Y-129699809D01*
X94814285Y-129556952D01*
X94861904Y-129366476D01*
X94909523Y-129271238D01*
X95004761Y-129176000D01*
X95147619Y-129128380D01*
X95242857Y-129128380D01*
X95385714Y-129176000D01*
X95433333Y-129223619D01*
X96385714Y-130128380D02*
X95814285Y-130128380D01*
X96100000Y-130128380D02*
X96100000Y-129128380D01*
X96004761Y-129271238D01*
X95909523Y-129366476D01*
X95814285Y-129414095D01*
%TO.C,KC2*%
X112911904Y-130128380D02*
X112911904Y-129128380D01*
X113483333Y-130128380D02*
X113054761Y-129556952D01*
X113483333Y-129128380D02*
X112911904Y-129699809D01*
X114483333Y-130033142D02*
X114435714Y-130080761D01*
X114292857Y-130128380D01*
X114197619Y-130128380D01*
X114054761Y-130080761D01*
X113959523Y-129985523D01*
X113911904Y-129890285D01*
X113864285Y-129699809D01*
X113864285Y-129556952D01*
X113911904Y-129366476D01*
X113959523Y-129271238D01*
X114054761Y-129176000D01*
X114197619Y-129128380D01*
X114292857Y-129128380D01*
X114435714Y-129176000D01*
X114483333Y-129223619D01*
X114864285Y-129223619D02*
X114911904Y-129176000D01*
X115007142Y-129128380D01*
X115245238Y-129128380D01*
X115340476Y-129176000D01*
X115388095Y-129223619D01*
X115435714Y-129318857D01*
X115435714Y-129414095D01*
X115388095Y-129556952D01*
X114816666Y-130128380D01*
X115435714Y-130128380D01*
%TO.C,KC3*%
X131961904Y-130128380D02*
X131961904Y-129128380D01*
X132533333Y-130128380D02*
X132104761Y-129556952D01*
X132533333Y-129128380D02*
X131961904Y-129699809D01*
X133533333Y-130033142D02*
X133485714Y-130080761D01*
X133342857Y-130128380D01*
X133247619Y-130128380D01*
X133104761Y-130080761D01*
X133009523Y-129985523D01*
X132961904Y-129890285D01*
X132914285Y-129699809D01*
X132914285Y-129556952D01*
X132961904Y-129366476D01*
X133009523Y-129271238D01*
X133104761Y-129176000D01*
X133247619Y-129128380D01*
X133342857Y-129128380D01*
X133485714Y-129176000D01*
X133533333Y-129223619D01*
X133866666Y-129128380D02*
X134485714Y-129128380D01*
X134152380Y-129509333D01*
X134295238Y-129509333D01*
X134390476Y-129556952D01*
X134438095Y-129604571D01*
X134485714Y-129699809D01*
X134485714Y-129937904D01*
X134438095Y-130033142D01*
X134390476Y-130080761D01*
X134295238Y-130128380D01*
X134009523Y-130128380D01*
X133914285Y-130080761D01*
X133866666Y-130033142D01*
%TO.C,KC4*%
X151011904Y-130128380D02*
X151011904Y-129128380D01*
X151583333Y-130128380D02*
X151154761Y-129556952D01*
X151583333Y-129128380D02*
X151011904Y-129699809D01*
X152583333Y-130033142D02*
X152535714Y-130080761D01*
X152392857Y-130128380D01*
X152297619Y-130128380D01*
X152154761Y-130080761D01*
X152059523Y-129985523D01*
X152011904Y-129890285D01*
X151964285Y-129699809D01*
X151964285Y-129556952D01*
X152011904Y-129366476D01*
X152059523Y-129271238D01*
X152154761Y-129176000D01*
X152297619Y-129128380D01*
X152392857Y-129128380D01*
X152535714Y-129176000D01*
X152583333Y-129223619D01*
X153440476Y-129461714D02*
X153440476Y-130128380D01*
X153202380Y-129080761D02*
X152964285Y-129795047D01*
X153583333Y-129795047D01*
%TO.C,KC5*%
X170061904Y-130128380D02*
X170061904Y-129128380D01*
X170633333Y-130128380D02*
X170204761Y-129556952D01*
X170633333Y-129128380D02*
X170061904Y-129699809D01*
X171633333Y-130033142D02*
X171585714Y-130080761D01*
X171442857Y-130128380D01*
X171347619Y-130128380D01*
X171204761Y-130080761D01*
X171109523Y-129985523D01*
X171061904Y-129890285D01*
X171014285Y-129699809D01*
X171014285Y-129556952D01*
X171061904Y-129366476D01*
X171109523Y-129271238D01*
X171204761Y-129176000D01*
X171347619Y-129128380D01*
X171442857Y-129128380D01*
X171585714Y-129176000D01*
X171633333Y-129223619D01*
X172538095Y-129128380D02*
X172061904Y-129128380D01*
X172014285Y-129604571D01*
X172061904Y-129556952D01*
X172157142Y-129509333D01*
X172395238Y-129509333D01*
X172490476Y-129556952D01*
X172538095Y-129604571D01*
X172585714Y-129699809D01*
X172585714Y-129937904D01*
X172538095Y-130033142D01*
X172490476Y-130080761D01*
X172395238Y-130128380D01*
X172157142Y-130128380D01*
X172061904Y-130080761D01*
X172014285Y-130033142D01*
%TO.C,KC6*%
X189111904Y-130128380D02*
X189111904Y-129128380D01*
X189683333Y-130128380D02*
X189254761Y-129556952D01*
X189683333Y-129128380D02*
X189111904Y-129699809D01*
X190683333Y-130033142D02*
X190635714Y-130080761D01*
X190492857Y-130128380D01*
X190397619Y-130128380D01*
X190254761Y-130080761D01*
X190159523Y-129985523D01*
X190111904Y-129890285D01*
X190064285Y-129699809D01*
X190064285Y-129556952D01*
X190111904Y-129366476D01*
X190159523Y-129271238D01*
X190254761Y-129176000D01*
X190397619Y-129128380D01*
X190492857Y-129128380D01*
X190635714Y-129176000D01*
X190683333Y-129223619D01*
X191540476Y-129128380D02*
X191350000Y-129128380D01*
X191254761Y-129176000D01*
X191207142Y-129223619D01*
X191111904Y-129366476D01*
X191064285Y-129556952D01*
X191064285Y-129937904D01*
X191111904Y-130033142D01*
X191159523Y-130080761D01*
X191254761Y-130128380D01*
X191445238Y-130128380D01*
X191540476Y-130080761D01*
X191588095Y-130033142D01*
X191635714Y-129937904D01*
X191635714Y-129699809D01*
X191588095Y-129604571D01*
X191540476Y-129556952D01*
X191445238Y-129509333D01*
X191254761Y-129509333D01*
X191159523Y-129556952D01*
X191111904Y-129604571D01*
X191064285Y-129699809D01*
%TO.C,KC7*%
X208161904Y-130128380D02*
X208161904Y-129128380D01*
X208733333Y-130128380D02*
X208304761Y-129556952D01*
X208733333Y-129128380D02*
X208161904Y-129699809D01*
X209733333Y-130033142D02*
X209685714Y-130080761D01*
X209542857Y-130128380D01*
X209447619Y-130128380D01*
X209304761Y-130080761D01*
X209209523Y-129985523D01*
X209161904Y-129890285D01*
X209114285Y-129699809D01*
X209114285Y-129556952D01*
X209161904Y-129366476D01*
X209209523Y-129271238D01*
X209304761Y-129176000D01*
X209447619Y-129128380D01*
X209542857Y-129128380D01*
X209685714Y-129176000D01*
X209733333Y-129223619D01*
X210066666Y-129128380D02*
X210733333Y-129128380D01*
X210304761Y-130128380D01*
%TO.C,KC8*%
X227211904Y-130128380D02*
X227211904Y-129128380D01*
X227783333Y-130128380D02*
X227354761Y-129556952D01*
X227783333Y-129128380D02*
X227211904Y-129699809D01*
X228783333Y-130033142D02*
X228735714Y-130080761D01*
X228592857Y-130128380D01*
X228497619Y-130128380D01*
X228354761Y-130080761D01*
X228259523Y-129985523D01*
X228211904Y-129890285D01*
X228164285Y-129699809D01*
X228164285Y-129556952D01*
X228211904Y-129366476D01*
X228259523Y-129271238D01*
X228354761Y-129176000D01*
X228497619Y-129128380D01*
X228592857Y-129128380D01*
X228735714Y-129176000D01*
X228783333Y-129223619D01*
X229354761Y-129556952D02*
X229259523Y-129509333D01*
X229211904Y-129461714D01*
X229164285Y-129366476D01*
X229164285Y-129318857D01*
X229211904Y-129223619D01*
X229259523Y-129176000D01*
X229354761Y-129128380D01*
X229545238Y-129128380D01*
X229640476Y-129176000D01*
X229688095Y-129223619D01*
X229735714Y-129318857D01*
X229735714Y-129366476D01*
X229688095Y-129461714D01*
X229640476Y-129509333D01*
X229545238Y-129556952D01*
X229354761Y-129556952D01*
X229259523Y-129604571D01*
X229211904Y-129652190D01*
X229164285Y-129747428D01*
X229164285Y-129937904D01*
X229211904Y-130033142D01*
X229259523Y-130080761D01*
X229354761Y-130128380D01*
X229545238Y-130128380D01*
X229640476Y-130080761D01*
X229688095Y-130033142D01*
X229735714Y-129937904D01*
X229735714Y-129747428D01*
X229688095Y-129652190D01*
X229640476Y-129604571D01*
X229545238Y-129556952D01*
%TO.C,KC9*%
X246311904Y-130128380D02*
X246311904Y-129128380D01*
X246883333Y-130128380D02*
X246454761Y-129556952D01*
X246883333Y-129128380D02*
X246311904Y-129699809D01*
X247883333Y-130033142D02*
X247835714Y-130080761D01*
X247692857Y-130128380D01*
X247597619Y-130128380D01*
X247454761Y-130080761D01*
X247359523Y-129985523D01*
X247311904Y-129890285D01*
X247264285Y-129699809D01*
X247264285Y-129556952D01*
X247311904Y-129366476D01*
X247359523Y-129271238D01*
X247454761Y-129176000D01*
X247597619Y-129128380D01*
X247692857Y-129128380D01*
X247835714Y-129176000D01*
X247883333Y-129223619D01*
X248359523Y-130128380D02*
X248550000Y-130128380D01*
X248645238Y-130080761D01*
X248692857Y-130033142D01*
X248788095Y-129890285D01*
X248835714Y-129699809D01*
X248835714Y-129318857D01*
X248788095Y-129223619D01*
X248740476Y-129176000D01*
X248645238Y-129128380D01*
X248454761Y-129128380D01*
X248359523Y-129176000D01*
X248311904Y-129223619D01*
X248264285Y-129318857D01*
X248264285Y-129556952D01*
X248311904Y-129652190D01*
X248359523Y-129699809D01*
X248454761Y-129747428D01*
X248645238Y-129747428D01*
X248740476Y-129699809D01*
X248788095Y-129652190D01*
X248835714Y-129556952D01*
%TO.C,KC10*%
X264885714Y-130128380D02*
X264885714Y-129128380D01*
X265457142Y-130128380D02*
X265028571Y-129556952D01*
X265457142Y-129128380D02*
X264885714Y-129699809D01*
X266457142Y-130033142D02*
X266409523Y-130080761D01*
X266266666Y-130128380D01*
X266171428Y-130128380D01*
X266028571Y-130080761D01*
X265933333Y-129985523D01*
X265885714Y-129890285D01*
X265838095Y-129699809D01*
X265838095Y-129556952D01*
X265885714Y-129366476D01*
X265933333Y-129271238D01*
X266028571Y-129176000D01*
X266171428Y-129128380D01*
X266266666Y-129128380D01*
X266409523Y-129176000D01*
X266457142Y-129223619D01*
X267409523Y-130128380D02*
X266838095Y-130128380D01*
X267123809Y-130128380D02*
X267123809Y-129128380D01*
X267028571Y-129271238D01*
X266933333Y-129366476D01*
X266838095Y-129414095D01*
X268028571Y-129128380D02*
X268123809Y-129128380D01*
X268219047Y-129176000D01*
X268266666Y-129223619D01*
X268314285Y-129318857D01*
X268361904Y-129509333D01*
X268361904Y-129747428D01*
X268314285Y-129937904D01*
X268266666Y-130033142D01*
X268219047Y-130080761D01*
X268123809Y-130128380D01*
X268028571Y-130128380D01*
X267933333Y-130080761D01*
X267885714Y-130033142D01*
X267838095Y-129937904D01*
X267790476Y-129747428D01*
X267790476Y-129509333D01*
X267838095Y-129318857D01*
X267885714Y-129223619D01*
X267933333Y-129176000D01*
X268028571Y-129128380D01*
%TO.C,KC11*%
X283935714Y-130128380D02*
X283935714Y-129128380D01*
X284507142Y-130128380D02*
X284078571Y-129556952D01*
X284507142Y-129128380D02*
X283935714Y-129699809D01*
X285507142Y-130033142D02*
X285459523Y-130080761D01*
X285316666Y-130128380D01*
X285221428Y-130128380D01*
X285078571Y-130080761D01*
X284983333Y-129985523D01*
X284935714Y-129890285D01*
X284888095Y-129699809D01*
X284888095Y-129556952D01*
X284935714Y-129366476D01*
X284983333Y-129271238D01*
X285078571Y-129176000D01*
X285221428Y-129128380D01*
X285316666Y-129128380D01*
X285459523Y-129176000D01*
X285507142Y-129223619D01*
X286459523Y-130128380D02*
X285888095Y-130128380D01*
X286173809Y-130128380D02*
X286173809Y-129128380D01*
X286078571Y-129271238D01*
X285983333Y-129366476D01*
X285888095Y-129414095D01*
X287411904Y-130128380D02*
X286840476Y-130128380D01*
X287126190Y-130128380D02*
X287126190Y-129128380D01*
X287030952Y-129271238D01*
X286935714Y-129366476D01*
X286840476Y-129414095D01*
%TO.C,KD1*%
X98611904Y-149128380D02*
X98611904Y-148128380D01*
X99183333Y-149128380D02*
X98754761Y-148556952D01*
X99183333Y-148128380D02*
X98611904Y-148699809D01*
X99611904Y-149128380D02*
X99611904Y-148128380D01*
X99850000Y-148128380D01*
X99992857Y-148176000D01*
X100088095Y-148271238D01*
X100135714Y-148366476D01*
X100183333Y-148556952D01*
X100183333Y-148699809D01*
X100135714Y-148890285D01*
X100088095Y-148985523D01*
X99992857Y-149080761D01*
X99850000Y-149128380D01*
X99611904Y-149128380D01*
X101135714Y-149128380D02*
X100564285Y-149128380D01*
X100850000Y-149128380D02*
X100850000Y-148128380D01*
X100754761Y-148271238D01*
X100659523Y-148366476D01*
X100564285Y-148414095D01*
%TO.C,KD2*%
X117661904Y-149128380D02*
X117661904Y-148128380D01*
X118233333Y-149128380D02*
X117804761Y-148556952D01*
X118233333Y-148128380D02*
X117661904Y-148699809D01*
X118661904Y-149128380D02*
X118661904Y-148128380D01*
X118900000Y-148128380D01*
X119042857Y-148176000D01*
X119138095Y-148271238D01*
X119185714Y-148366476D01*
X119233333Y-148556952D01*
X119233333Y-148699809D01*
X119185714Y-148890285D01*
X119138095Y-148985523D01*
X119042857Y-149080761D01*
X118900000Y-149128380D01*
X118661904Y-149128380D01*
X119614285Y-148223619D02*
X119661904Y-148176000D01*
X119757142Y-148128380D01*
X119995238Y-148128380D01*
X120090476Y-148176000D01*
X120138095Y-148223619D01*
X120185714Y-148318857D01*
X120185714Y-148414095D01*
X120138095Y-148556952D01*
X119566666Y-149128380D01*
X120185714Y-149128380D01*
%TO.C,KD3*%
X136661904Y-149128380D02*
X136661904Y-148128380D01*
X137233333Y-149128380D02*
X136804761Y-148556952D01*
X137233333Y-148128380D02*
X136661904Y-148699809D01*
X137661904Y-149128380D02*
X137661904Y-148128380D01*
X137900000Y-148128380D01*
X138042857Y-148176000D01*
X138138095Y-148271238D01*
X138185714Y-148366476D01*
X138233333Y-148556952D01*
X138233333Y-148699809D01*
X138185714Y-148890285D01*
X138138095Y-148985523D01*
X138042857Y-149080761D01*
X137900000Y-149128380D01*
X137661904Y-149128380D01*
X138566666Y-148128380D02*
X139185714Y-148128380D01*
X138852380Y-148509333D01*
X138995238Y-148509333D01*
X139090476Y-148556952D01*
X139138095Y-148604571D01*
X139185714Y-148699809D01*
X139185714Y-148937904D01*
X139138095Y-149033142D01*
X139090476Y-149080761D01*
X138995238Y-149128380D01*
X138709523Y-149128380D01*
X138614285Y-149080761D01*
X138566666Y-149033142D01*
%TO.C,KD4*%
X155761904Y-149128380D02*
X155761904Y-148128380D01*
X156333333Y-149128380D02*
X155904761Y-148556952D01*
X156333333Y-148128380D02*
X155761904Y-148699809D01*
X156761904Y-149128380D02*
X156761904Y-148128380D01*
X157000000Y-148128380D01*
X157142857Y-148176000D01*
X157238095Y-148271238D01*
X157285714Y-148366476D01*
X157333333Y-148556952D01*
X157333333Y-148699809D01*
X157285714Y-148890285D01*
X157238095Y-148985523D01*
X157142857Y-149080761D01*
X157000000Y-149128380D01*
X156761904Y-149128380D01*
X158190476Y-148461714D02*
X158190476Y-149128380D01*
X157952380Y-148080761D02*
X157714285Y-148795047D01*
X158333333Y-148795047D01*
%TO.C,KD5*%
X174811904Y-149128380D02*
X174811904Y-148128380D01*
X175383333Y-149128380D02*
X174954761Y-148556952D01*
X175383333Y-148128380D02*
X174811904Y-148699809D01*
X175811904Y-149128380D02*
X175811904Y-148128380D01*
X176050000Y-148128380D01*
X176192857Y-148176000D01*
X176288095Y-148271238D01*
X176335714Y-148366476D01*
X176383333Y-148556952D01*
X176383333Y-148699809D01*
X176335714Y-148890285D01*
X176288095Y-148985523D01*
X176192857Y-149080761D01*
X176050000Y-149128380D01*
X175811904Y-149128380D01*
X177288095Y-148128380D02*
X176811904Y-148128380D01*
X176764285Y-148604571D01*
X176811904Y-148556952D01*
X176907142Y-148509333D01*
X177145238Y-148509333D01*
X177240476Y-148556952D01*
X177288095Y-148604571D01*
X177335714Y-148699809D01*
X177335714Y-148937904D01*
X177288095Y-149033142D01*
X177240476Y-149080761D01*
X177145238Y-149128380D01*
X176907142Y-149128380D01*
X176811904Y-149080761D01*
X176764285Y-149033142D01*
%TO.C,KD6*%
X193861904Y-149128380D02*
X193861904Y-148128380D01*
X194433333Y-149128380D02*
X194004761Y-148556952D01*
X194433333Y-148128380D02*
X193861904Y-148699809D01*
X194861904Y-149128380D02*
X194861904Y-148128380D01*
X195100000Y-148128380D01*
X195242857Y-148176000D01*
X195338095Y-148271238D01*
X195385714Y-148366476D01*
X195433333Y-148556952D01*
X195433333Y-148699809D01*
X195385714Y-148890285D01*
X195338095Y-148985523D01*
X195242857Y-149080761D01*
X195100000Y-149128380D01*
X194861904Y-149128380D01*
X196290476Y-148128380D02*
X196100000Y-148128380D01*
X196004761Y-148176000D01*
X195957142Y-148223619D01*
X195861904Y-148366476D01*
X195814285Y-148556952D01*
X195814285Y-148937904D01*
X195861904Y-149033142D01*
X195909523Y-149080761D01*
X196004761Y-149128380D01*
X196195238Y-149128380D01*
X196290476Y-149080761D01*
X196338095Y-149033142D01*
X196385714Y-148937904D01*
X196385714Y-148699809D01*
X196338095Y-148604571D01*
X196290476Y-148556952D01*
X196195238Y-148509333D01*
X196004761Y-148509333D01*
X195909523Y-148556952D01*
X195861904Y-148604571D01*
X195814285Y-148699809D01*
%TO.C,KD7*%
X212961904Y-149128380D02*
X212961904Y-148128380D01*
X213533333Y-149128380D02*
X213104761Y-148556952D01*
X213533333Y-148128380D02*
X212961904Y-148699809D01*
X213961904Y-149128380D02*
X213961904Y-148128380D01*
X214200000Y-148128380D01*
X214342857Y-148176000D01*
X214438095Y-148271238D01*
X214485714Y-148366476D01*
X214533333Y-148556952D01*
X214533333Y-148699809D01*
X214485714Y-148890285D01*
X214438095Y-148985523D01*
X214342857Y-149080761D01*
X214200000Y-149128380D01*
X213961904Y-149128380D01*
X214866666Y-148128380D02*
X215533333Y-148128380D01*
X215104761Y-149128380D01*
%TO.C,KD8*%
X232011904Y-149128380D02*
X232011904Y-148128380D01*
X232583333Y-149128380D02*
X232154761Y-148556952D01*
X232583333Y-148128380D02*
X232011904Y-148699809D01*
X233011904Y-149128380D02*
X233011904Y-148128380D01*
X233250000Y-148128380D01*
X233392857Y-148176000D01*
X233488095Y-148271238D01*
X233535714Y-148366476D01*
X233583333Y-148556952D01*
X233583333Y-148699809D01*
X233535714Y-148890285D01*
X233488095Y-148985523D01*
X233392857Y-149080761D01*
X233250000Y-149128380D01*
X233011904Y-149128380D01*
X234154761Y-148556952D02*
X234059523Y-148509333D01*
X234011904Y-148461714D01*
X233964285Y-148366476D01*
X233964285Y-148318857D01*
X234011904Y-148223619D01*
X234059523Y-148176000D01*
X234154761Y-148128380D01*
X234345238Y-148128380D01*
X234440476Y-148176000D01*
X234488095Y-148223619D01*
X234535714Y-148318857D01*
X234535714Y-148366476D01*
X234488095Y-148461714D01*
X234440476Y-148509333D01*
X234345238Y-148556952D01*
X234154761Y-148556952D01*
X234059523Y-148604571D01*
X234011904Y-148652190D01*
X233964285Y-148747428D01*
X233964285Y-148937904D01*
X234011904Y-149033142D01*
X234059523Y-149080761D01*
X234154761Y-149128380D01*
X234345238Y-149128380D01*
X234440476Y-149080761D01*
X234488095Y-149033142D01*
X234535714Y-148937904D01*
X234535714Y-148747428D01*
X234488095Y-148652190D01*
X234440476Y-148604571D01*
X234345238Y-148556952D01*
%TO.C,KD9*%
X251061904Y-149128380D02*
X251061904Y-148128380D01*
X251633333Y-149128380D02*
X251204761Y-148556952D01*
X251633333Y-148128380D02*
X251061904Y-148699809D01*
X252061904Y-149128380D02*
X252061904Y-148128380D01*
X252300000Y-148128380D01*
X252442857Y-148176000D01*
X252538095Y-148271238D01*
X252585714Y-148366476D01*
X252633333Y-148556952D01*
X252633333Y-148699809D01*
X252585714Y-148890285D01*
X252538095Y-148985523D01*
X252442857Y-149080761D01*
X252300000Y-149128380D01*
X252061904Y-149128380D01*
X253109523Y-149128380D02*
X253300000Y-149128380D01*
X253395238Y-149080761D01*
X253442857Y-149033142D01*
X253538095Y-148890285D01*
X253585714Y-148699809D01*
X253585714Y-148318857D01*
X253538095Y-148223619D01*
X253490476Y-148176000D01*
X253395238Y-148128380D01*
X253204761Y-148128380D01*
X253109523Y-148176000D01*
X253061904Y-148223619D01*
X253014285Y-148318857D01*
X253014285Y-148556952D01*
X253061904Y-148652190D01*
X253109523Y-148699809D01*
X253204761Y-148747428D01*
X253395238Y-148747428D01*
X253490476Y-148699809D01*
X253538095Y-148652190D01*
X253585714Y-148556952D01*
%TO.C,KD10*%
X269635714Y-149128380D02*
X269635714Y-148128380D01*
X270207142Y-149128380D02*
X269778571Y-148556952D01*
X270207142Y-148128380D02*
X269635714Y-148699809D01*
X270635714Y-149128380D02*
X270635714Y-148128380D01*
X270873809Y-148128380D01*
X271016666Y-148176000D01*
X271111904Y-148271238D01*
X271159523Y-148366476D01*
X271207142Y-148556952D01*
X271207142Y-148699809D01*
X271159523Y-148890285D01*
X271111904Y-148985523D01*
X271016666Y-149080761D01*
X270873809Y-149128380D01*
X270635714Y-149128380D01*
X272159523Y-149128380D02*
X271588095Y-149128380D01*
X271873809Y-149128380D02*
X271873809Y-148128380D01*
X271778571Y-148271238D01*
X271683333Y-148366476D01*
X271588095Y-148414095D01*
X272778571Y-148128380D02*
X272873809Y-148128380D01*
X272969047Y-148176000D01*
X273016666Y-148223619D01*
X273064285Y-148318857D01*
X273111904Y-148509333D01*
X273111904Y-148747428D01*
X273064285Y-148937904D01*
X273016666Y-149033142D01*
X272969047Y-149080761D01*
X272873809Y-149128380D01*
X272778571Y-149128380D01*
X272683333Y-149080761D01*
X272635714Y-149033142D01*
X272588095Y-148937904D01*
X272540476Y-148747428D01*
X272540476Y-148509333D01*
X272588095Y-148318857D01*
X272635714Y-148223619D01*
X272683333Y-148176000D01*
X272778571Y-148128380D01*
%TO.C,KD11*%
X288685714Y-149128380D02*
X288685714Y-148128380D01*
X289257142Y-149128380D02*
X288828571Y-148556952D01*
X289257142Y-148128380D02*
X288685714Y-148699809D01*
X289685714Y-149128380D02*
X289685714Y-148128380D01*
X289923809Y-148128380D01*
X290066666Y-148176000D01*
X290161904Y-148271238D01*
X290209523Y-148366476D01*
X290257142Y-148556952D01*
X290257142Y-148699809D01*
X290209523Y-148890285D01*
X290161904Y-148985523D01*
X290066666Y-149080761D01*
X289923809Y-149128380D01*
X289685714Y-149128380D01*
X291209523Y-149128380D02*
X290638095Y-149128380D01*
X290923809Y-149128380D02*
X290923809Y-148128380D01*
X290828571Y-148271238D01*
X290733333Y-148366476D01*
X290638095Y-148414095D01*
X292161904Y-149128380D02*
X291590476Y-149128380D01*
X291876190Y-149128380D02*
X291876190Y-148128380D01*
X291780952Y-148271238D01*
X291685714Y-148366476D01*
X291590476Y-148414095D01*
%TO.C,KE1*%
X108209523Y-168228380D02*
X108209523Y-167228380D01*
X108780952Y-168228380D02*
X108352380Y-167656952D01*
X108780952Y-167228380D02*
X108209523Y-167799809D01*
X109209523Y-167704571D02*
X109542857Y-167704571D01*
X109685714Y-168228380D02*
X109209523Y-168228380D01*
X109209523Y-167228380D01*
X109685714Y-167228380D01*
X110638095Y-168228380D02*
X110066666Y-168228380D01*
X110352380Y-168228380D02*
X110352380Y-167228380D01*
X110257142Y-167371238D01*
X110161904Y-167466476D01*
X110066666Y-167514095D01*
%TO.C,KE2*%
X127259523Y-168228380D02*
X127259523Y-167228380D01*
X127830952Y-168228380D02*
X127402380Y-167656952D01*
X127830952Y-167228380D02*
X127259523Y-167799809D01*
X128259523Y-167704571D02*
X128592857Y-167704571D01*
X128735714Y-168228380D02*
X128259523Y-168228380D01*
X128259523Y-167228380D01*
X128735714Y-167228380D01*
X129116666Y-167323619D02*
X129164285Y-167276000D01*
X129259523Y-167228380D01*
X129497619Y-167228380D01*
X129592857Y-167276000D01*
X129640476Y-167323619D01*
X129688095Y-167418857D01*
X129688095Y-167514095D01*
X129640476Y-167656952D01*
X129069047Y-168228380D01*
X129688095Y-168228380D01*
%TO.C,KE3*%
X146309523Y-168228380D02*
X146309523Y-167228380D01*
X146880952Y-168228380D02*
X146452380Y-167656952D01*
X146880952Y-167228380D02*
X146309523Y-167799809D01*
X147309523Y-167704571D02*
X147642857Y-167704571D01*
X147785714Y-168228380D02*
X147309523Y-168228380D01*
X147309523Y-167228380D01*
X147785714Y-167228380D01*
X148119047Y-167228380D02*
X148738095Y-167228380D01*
X148404761Y-167609333D01*
X148547619Y-167609333D01*
X148642857Y-167656952D01*
X148690476Y-167704571D01*
X148738095Y-167799809D01*
X148738095Y-168037904D01*
X148690476Y-168133142D01*
X148642857Y-168180761D01*
X148547619Y-168228380D01*
X148261904Y-168228380D01*
X148166666Y-168180761D01*
X148119047Y-168133142D01*
%TO.C,KE4*%
X165359523Y-168228380D02*
X165359523Y-167228380D01*
X165930952Y-168228380D02*
X165502380Y-167656952D01*
X165930952Y-167228380D02*
X165359523Y-167799809D01*
X166359523Y-167704571D02*
X166692857Y-167704571D01*
X166835714Y-168228380D02*
X166359523Y-168228380D01*
X166359523Y-167228380D01*
X166835714Y-167228380D01*
X167692857Y-167561714D02*
X167692857Y-168228380D01*
X167454761Y-167180761D02*
X167216666Y-167895047D01*
X167835714Y-167895047D01*
%TO.C,KE5*%
X184409523Y-168228380D02*
X184409523Y-167228380D01*
X184980952Y-168228380D02*
X184552380Y-167656952D01*
X184980952Y-167228380D02*
X184409523Y-167799809D01*
X185409523Y-167704571D02*
X185742857Y-167704571D01*
X185885714Y-168228380D02*
X185409523Y-168228380D01*
X185409523Y-167228380D01*
X185885714Y-167228380D01*
X186790476Y-167228380D02*
X186314285Y-167228380D01*
X186266666Y-167704571D01*
X186314285Y-167656952D01*
X186409523Y-167609333D01*
X186647619Y-167609333D01*
X186742857Y-167656952D01*
X186790476Y-167704571D01*
X186838095Y-167799809D01*
X186838095Y-168037904D01*
X186790476Y-168133142D01*
X186742857Y-168180761D01*
X186647619Y-168228380D01*
X186409523Y-168228380D01*
X186314285Y-168180761D01*
X186266666Y-168133142D01*
%TO.C,KE6*%
X203459523Y-168228380D02*
X203459523Y-167228380D01*
X204030952Y-168228380D02*
X203602380Y-167656952D01*
X204030952Y-167228380D02*
X203459523Y-167799809D01*
X204459523Y-167704571D02*
X204792857Y-167704571D01*
X204935714Y-168228380D02*
X204459523Y-168228380D01*
X204459523Y-167228380D01*
X204935714Y-167228380D01*
X205792857Y-167228380D02*
X205602380Y-167228380D01*
X205507142Y-167276000D01*
X205459523Y-167323619D01*
X205364285Y-167466476D01*
X205316666Y-167656952D01*
X205316666Y-168037904D01*
X205364285Y-168133142D01*
X205411904Y-168180761D01*
X205507142Y-168228380D01*
X205697619Y-168228380D01*
X205792857Y-168180761D01*
X205840476Y-168133142D01*
X205888095Y-168037904D01*
X205888095Y-167799809D01*
X205840476Y-167704571D01*
X205792857Y-167656952D01*
X205697619Y-167609333D01*
X205507142Y-167609333D01*
X205411904Y-167656952D01*
X205364285Y-167704571D01*
X205316666Y-167799809D01*
%TO.C,KE7*%
X222509523Y-168228380D02*
X222509523Y-167228380D01*
X223080952Y-168228380D02*
X222652380Y-167656952D01*
X223080952Y-167228380D02*
X222509523Y-167799809D01*
X223509523Y-167704571D02*
X223842857Y-167704571D01*
X223985714Y-168228380D02*
X223509523Y-168228380D01*
X223509523Y-167228380D01*
X223985714Y-167228380D01*
X224319047Y-167228380D02*
X224985714Y-167228380D01*
X224557142Y-168228380D01*
%TO.C,KE8*%
X241559523Y-168228380D02*
X241559523Y-167228380D01*
X242130952Y-168228380D02*
X241702380Y-167656952D01*
X242130952Y-167228380D02*
X241559523Y-167799809D01*
X242559523Y-167704571D02*
X242892857Y-167704571D01*
X243035714Y-168228380D02*
X242559523Y-168228380D01*
X242559523Y-167228380D01*
X243035714Y-167228380D01*
X243607142Y-167656952D02*
X243511904Y-167609333D01*
X243464285Y-167561714D01*
X243416666Y-167466476D01*
X243416666Y-167418857D01*
X243464285Y-167323619D01*
X243511904Y-167276000D01*
X243607142Y-167228380D01*
X243797619Y-167228380D01*
X243892857Y-167276000D01*
X243940476Y-167323619D01*
X243988095Y-167418857D01*
X243988095Y-167466476D01*
X243940476Y-167561714D01*
X243892857Y-167609333D01*
X243797619Y-167656952D01*
X243607142Y-167656952D01*
X243511904Y-167704571D01*
X243464285Y-167752190D01*
X243416666Y-167847428D01*
X243416666Y-168037904D01*
X243464285Y-168133142D01*
X243511904Y-168180761D01*
X243607142Y-168228380D01*
X243797619Y-168228380D01*
X243892857Y-168180761D01*
X243940476Y-168133142D01*
X243988095Y-168037904D01*
X243988095Y-167847428D01*
X243940476Y-167752190D01*
X243892857Y-167704571D01*
X243797619Y-167656952D01*
%TO.C,KE9*%
X260609523Y-168228380D02*
X260609523Y-167228380D01*
X261180952Y-168228380D02*
X260752380Y-167656952D01*
X261180952Y-167228380D02*
X260609523Y-167799809D01*
X261609523Y-167704571D02*
X261942857Y-167704571D01*
X262085714Y-168228380D02*
X261609523Y-168228380D01*
X261609523Y-167228380D01*
X262085714Y-167228380D01*
X262561904Y-168228380D02*
X262752380Y-168228380D01*
X262847619Y-168180761D01*
X262895238Y-168133142D01*
X262990476Y-167990285D01*
X263038095Y-167799809D01*
X263038095Y-167418857D01*
X262990476Y-167323619D01*
X262942857Y-167276000D01*
X262847619Y-167228380D01*
X262657142Y-167228380D01*
X262561904Y-167276000D01*
X262514285Y-167323619D01*
X262466666Y-167418857D01*
X262466666Y-167656952D01*
X262514285Y-167752190D01*
X262561904Y-167799809D01*
X262657142Y-167847428D01*
X262847619Y-167847428D01*
X262942857Y-167799809D01*
X262990476Y-167752190D01*
X263038095Y-167656952D01*
%TO.C,KE10*%
X279233333Y-168228380D02*
X279233333Y-167228380D01*
X279804761Y-168228380D02*
X279376190Y-167656952D01*
X279804761Y-167228380D02*
X279233333Y-167799809D01*
X280233333Y-167704571D02*
X280566666Y-167704571D01*
X280709523Y-168228380D02*
X280233333Y-168228380D01*
X280233333Y-167228380D01*
X280709523Y-167228380D01*
X281661904Y-168228380D02*
X281090476Y-168228380D01*
X281376190Y-168228380D02*
X281376190Y-167228380D01*
X281280952Y-167371238D01*
X281185714Y-167466476D01*
X281090476Y-167514095D01*
X282280952Y-167228380D02*
X282376190Y-167228380D01*
X282471428Y-167276000D01*
X282519047Y-167323619D01*
X282566666Y-167418857D01*
X282614285Y-167609333D01*
X282614285Y-167847428D01*
X282566666Y-168037904D01*
X282519047Y-168133142D01*
X282471428Y-168180761D01*
X282376190Y-168228380D01*
X282280952Y-168228380D01*
X282185714Y-168180761D01*
X282138095Y-168133142D01*
X282090476Y-168037904D01*
X282042857Y-167847428D01*
X282042857Y-167609333D01*
X282090476Y-167418857D01*
X282138095Y-167323619D01*
X282185714Y-167276000D01*
X282280952Y-167228380D01*
%TO.C,KE12*%
X345833333Y-172978380D02*
X345833333Y-171978380D01*
X346404761Y-172978380D02*
X345976190Y-172406952D01*
X346404761Y-171978380D02*
X345833333Y-172549809D01*
X346833333Y-172454571D02*
X347166666Y-172454571D01*
X347309523Y-172978380D02*
X346833333Y-172978380D01*
X346833333Y-171978380D01*
X347309523Y-171978380D01*
X348261904Y-172978380D02*
X347690476Y-172978380D01*
X347976190Y-172978380D02*
X347976190Y-171978380D01*
X347880952Y-172121238D01*
X347785714Y-172216476D01*
X347690476Y-172264095D01*
X348642857Y-172073619D02*
X348690476Y-172026000D01*
X348785714Y-171978380D01*
X349023809Y-171978380D01*
X349119047Y-172026000D01*
X349166666Y-172073619D01*
X349214285Y-172168857D01*
X349214285Y-172264095D01*
X349166666Y-172406952D01*
X348595238Y-172978380D01*
X349214285Y-172978380D01*
%TO.C,KF1*%
X89183333Y-187278380D02*
X89183333Y-186278380D01*
X89754761Y-187278380D02*
X89326190Y-186706952D01*
X89754761Y-186278380D02*
X89183333Y-186849809D01*
X90516666Y-186754571D02*
X90183333Y-186754571D01*
X90183333Y-187278380D02*
X90183333Y-186278380D01*
X90659523Y-186278380D01*
X91564285Y-187278380D02*
X90992857Y-187278380D01*
X91278571Y-187278380D02*
X91278571Y-186278380D01*
X91183333Y-186421238D01*
X91088095Y-186516476D01*
X90992857Y-186564095D01*
%TO.C,KF3*%
X137243942Y-189529310D02*
X137502761Y-188563385D01*
X137795900Y-189677207D02*
X137529828Y-189014327D01*
X138054719Y-188711281D02*
X137354865Y-189115342D01*
X138667415Y-189368441D02*
X138345440Y-189282168D01*
X138209868Y-189788129D02*
X138468687Y-188822204D01*
X138928652Y-188945451D01*
X139204631Y-189019399D02*
X139802585Y-189179620D01*
X139382012Y-189461319D01*
X139520001Y-189498293D01*
X139599669Y-189568939D01*
X139633341Y-189627260D01*
X139654688Y-189731578D01*
X139593064Y-189961560D01*
X139522419Y-190041229D01*
X139464097Y-190074900D01*
X139359780Y-190096247D01*
X139083801Y-190022299D01*
X139004133Y-189951653D01*
X138970461Y-189893332D01*
%TO.C,KF6*%
X231752230Y-190183221D02*
X231493411Y-189217296D01*
X232304187Y-190035325D02*
X231742323Y-189594290D01*
X232045368Y-189069399D02*
X231641307Y-189769253D01*
X232904559Y-189332168D02*
X232582584Y-189418441D01*
X232718156Y-189924402D02*
X232459337Y-188958477D01*
X232919301Y-188835229D01*
X233701241Y-188625709D02*
X233517255Y-188675008D01*
X233437587Y-188745654D01*
X233403915Y-188803975D01*
X233348897Y-188966614D01*
X233352199Y-189162925D01*
X233450797Y-189530896D01*
X233521443Y-189610565D01*
X233579764Y-189644236D01*
X233684081Y-189665583D01*
X233868067Y-189616285D01*
X233947736Y-189545639D01*
X233981407Y-189487317D01*
X234002754Y-189383000D01*
X233941131Y-189153017D01*
X233870485Y-189073349D01*
X233812164Y-189039677D01*
X233707846Y-189018330D01*
X233523860Y-189067629D01*
X233444192Y-189138275D01*
X233410520Y-189196596D01*
X233389173Y-189300914D01*
%TO.C,KF8*%
X279683333Y-187278380D02*
X279683333Y-186278380D01*
X280254761Y-187278380D02*
X279826190Y-186706952D01*
X280254761Y-186278380D02*
X279683333Y-186849809D01*
X281016666Y-186754571D02*
X280683333Y-186754571D01*
X280683333Y-187278380D02*
X280683333Y-186278380D01*
X281159523Y-186278380D01*
X281683333Y-186706952D02*
X281588095Y-186659333D01*
X281540476Y-186611714D01*
X281492857Y-186516476D01*
X281492857Y-186468857D01*
X281540476Y-186373619D01*
X281588095Y-186326000D01*
X281683333Y-186278380D01*
X281873809Y-186278380D01*
X281969047Y-186326000D01*
X282016666Y-186373619D01*
X282064285Y-186468857D01*
X282064285Y-186516476D01*
X282016666Y-186611714D01*
X281969047Y-186659333D01*
X281873809Y-186706952D01*
X281683333Y-186706952D01*
X281588095Y-186754571D01*
X281540476Y-186802190D01*
X281492857Y-186897428D01*
X281492857Y-187087904D01*
X281540476Y-187183142D01*
X281588095Y-187230761D01*
X281683333Y-187278380D01*
X281873809Y-187278380D01*
X281969047Y-187230761D01*
X282016666Y-187183142D01*
X282064285Y-187087904D01*
X282064285Y-186897428D01*
X282016666Y-186802190D01*
X281969047Y-186754571D01*
X281873809Y-186706952D01*
%TO.C,KF10*%
X326807142Y-192028380D02*
X326807142Y-191028380D01*
X327378571Y-192028380D02*
X326950000Y-191456952D01*
X327378571Y-191028380D02*
X326807142Y-191599809D01*
X328140476Y-191504571D02*
X327807142Y-191504571D01*
X327807142Y-192028380D02*
X327807142Y-191028380D01*
X328283333Y-191028380D01*
X329188095Y-192028380D02*
X328616666Y-192028380D01*
X328902380Y-192028380D02*
X328902380Y-191028380D01*
X328807142Y-191171238D01*
X328711904Y-191266476D01*
X328616666Y-191314095D01*
X329807142Y-191028380D02*
X329902380Y-191028380D01*
X329997619Y-191076000D01*
X330045238Y-191123619D01*
X330092857Y-191218857D01*
X330140476Y-191409333D01*
X330140476Y-191647428D01*
X330092857Y-191837904D01*
X330045238Y-191933142D01*
X329997619Y-191980761D01*
X329902380Y-192028380D01*
X329807142Y-192028380D01*
X329711904Y-191980761D01*
X329664285Y-191933142D01*
X329616666Y-191837904D01*
X329569047Y-191647428D01*
X329569047Y-191409333D01*
X329616666Y-191218857D01*
X329664285Y-191123619D01*
X329711904Y-191076000D01*
X329807142Y-191028380D01*
%TO.C,KF11*%
X345857142Y-192028380D02*
X345857142Y-191028380D01*
X346428571Y-192028380D02*
X346000000Y-191456952D01*
X346428571Y-191028380D02*
X345857142Y-191599809D01*
X347190476Y-191504571D02*
X346857142Y-191504571D01*
X346857142Y-192028380D02*
X346857142Y-191028380D01*
X347333333Y-191028380D01*
X348238095Y-192028380D02*
X347666666Y-192028380D01*
X347952380Y-192028380D02*
X347952380Y-191028380D01*
X347857142Y-191171238D01*
X347761904Y-191266476D01*
X347666666Y-191314095D01*
X349190476Y-192028380D02*
X348619047Y-192028380D01*
X348904761Y-192028380D02*
X348904761Y-191028380D01*
X348809523Y-191171238D01*
X348714285Y-191266476D01*
X348619047Y-191314095D01*
%TO.C,KF12*%
X364907142Y-192028380D02*
X364907142Y-191028380D01*
X365478571Y-192028380D02*
X365050000Y-191456952D01*
X365478571Y-191028380D02*
X364907142Y-191599809D01*
X366240476Y-191504571D02*
X365907142Y-191504571D01*
X365907142Y-192028380D02*
X365907142Y-191028380D01*
X366383333Y-191028380D01*
X367288095Y-192028380D02*
X366716666Y-192028380D01*
X367002380Y-192028380D02*
X367002380Y-191028380D01*
X366907142Y-191171238D01*
X366811904Y-191266476D01*
X366716666Y-191314095D01*
X367669047Y-191123619D02*
X367716666Y-191076000D01*
X367811904Y-191028380D01*
X368050000Y-191028380D01*
X368145238Y-191076000D01*
X368192857Y-191123619D01*
X368240476Y-191218857D01*
X368240476Y-191314095D01*
X368192857Y-191456952D01*
X367621428Y-192028380D01*
X368240476Y-192028380D01*
%TO.C,KB13*%
X322035714Y-111028380D02*
X322035714Y-110028380D01*
X322607142Y-111028380D02*
X322178571Y-110456952D01*
X322607142Y-110028380D02*
X322035714Y-110599809D01*
X323369047Y-110504571D02*
X323511904Y-110552190D01*
X323559523Y-110599809D01*
X323607142Y-110695047D01*
X323607142Y-110837904D01*
X323559523Y-110933142D01*
X323511904Y-110980761D01*
X323416666Y-111028380D01*
X323035714Y-111028380D01*
X323035714Y-110028380D01*
X323369047Y-110028380D01*
X323464285Y-110076000D01*
X323511904Y-110123619D01*
X323559523Y-110218857D01*
X323559523Y-110314095D01*
X323511904Y-110409333D01*
X323464285Y-110456952D01*
X323369047Y-110504571D01*
X323035714Y-110504571D01*
X324559523Y-111028380D02*
X323988095Y-111028380D01*
X324273809Y-111028380D02*
X324273809Y-110028380D01*
X324178571Y-110171238D01*
X324083333Y-110266476D01*
X323988095Y-110314095D01*
X324892857Y-110028380D02*
X325511904Y-110028380D01*
X325178571Y-110409333D01*
X325321428Y-110409333D01*
X325416666Y-110456952D01*
X325464285Y-110504571D01*
X325511904Y-110599809D01*
X325511904Y-110837904D01*
X325464285Y-110933142D01*
X325416666Y-110980761D01*
X325321428Y-111028380D01*
X325035714Y-111028380D01*
X324940476Y-110980761D01*
X324892857Y-110933142D01*
%TO.C,KC0*%
X70061904Y-130128380D02*
X70061904Y-129128380D01*
X70633333Y-130128380D02*
X70204761Y-129556952D01*
X70633333Y-129128380D02*
X70061904Y-129699809D01*
X71633333Y-130033142D02*
X71585714Y-130080761D01*
X71442857Y-130128380D01*
X71347619Y-130128380D01*
X71204761Y-130080761D01*
X71109523Y-129985523D01*
X71061904Y-129890285D01*
X71014285Y-129699809D01*
X71014285Y-129556952D01*
X71061904Y-129366476D01*
X71109523Y-129271238D01*
X71204761Y-129176000D01*
X71347619Y-129128380D01*
X71442857Y-129128380D01*
X71585714Y-129176000D01*
X71633333Y-129223619D01*
X72252380Y-129128380D02*
X72347619Y-129128380D01*
X72442857Y-129176000D01*
X72490476Y-129223619D01*
X72538095Y-129318857D01*
X72585714Y-129509333D01*
X72585714Y-129747428D01*
X72538095Y-129937904D01*
X72490476Y-130033142D01*
X72442857Y-130080761D01*
X72347619Y-130128380D01*
X72252380Y-130128380D01*
X72157142Y-130080761D01*
X72109523Y-130033142D01*
X72061904Y-129937904D01*
X72014285Y-129747428D01*
X72014285Y-129509333D01*
X72061904Y-129318857D01*
X72109523Y-129223619D01*
X72157142Y-129176000D01*
X72252380Y-129128380D01*
%TO.C,KD0*%
X72411904Y-149128380D02*
X72411904Y-148128380D01*
X72983333Y-149128380D02*
X72554761Y-148556952D01*
X72983333Y-148128380D02*
X72411904Y-148699809D01*
X73411904Y-149128380D02*
X73411904Y-148128380D01*
X73650000Y-148128380D01*
X73792857Y-148176000D01*
X73888095Y-148271238D01*
X73935714Y-148366476D01*
X73983333Y-148556952D01*
X73983333Y-148699809D01*
X73935714Y-148890285D01*
X73888095Y-148985523D01*
X73792857Y-149080761D01*
X73650000Y-149128380D01*
X73411904Y-149128380D01*
X74602380Y-148128380D02*
X74697619Y-148128380D01*
X74792857Y-148176000D01*
X74840476Y-148223619D01*
X74888095Y-148318857D01*
X74935714Y-148509333D01*
X74935714Y-148747428D01*
X74888095Y-148937904D01*
X74840476Y-149033142D01*
X74792857Y-149080761D01*
X74697619Y-149128380D01*
X74602380Y-149128380D01*
X74507142Y-149080761D01*
X74459523Y-149033142D01*
X74411904Y-148937904D01*
X74364285Y-148747428D01*
X74364285Y-148509333D01*
X74411904Y-148318857D01*
X74459523Y-148223619D01*
X74507142Y-148176000D01*
X74602380Y-148128380D01*
%TO.C,KD12*%
X321985714Y-149178380D02*
X321985714Y-148178380D01*
X322557142Y-149178380D02*
X322128571Y-148606952D01*
X322557142Y-148178380D02*
X321985714Y-148749809D01*
X322985714Y-149178380D02*
X322985714Y-148178380D01*
X323223809Y-148178380D01*
X323366666Y-148226000D01*
X323461904Y-148321238D01*
X323509523Y-148416476D01*
X323557142Y-148606952D01*
X323557142Y-148749809D01*
X323509523Y-148940285D01*
X323461904Y-149035523D01*
X323366666Y-149130761D01*
X323223809Y-149178380D01*
X322985714Y-149178380D01*
X324509523Y-149178380D02*
X323938095Y-149178380D01*
X324223809Y-149178380D02*
X324223809Y-148178380D01*
X324128571Y-148321238D01*
X324033333Y-148416476D01*
X323938095Y-148464095D01*
X324890476Y-148273619D02*
X324938095Y-148226000D01*
X325033333Y-148178380D01*
X325271428Y-148178380D01*
X325366666Y-148226000D01*
X325414285Y-148273619D01*
X325461904Y-148368857D01*
X325461904Y-148464095D01*
X325414285Y-148606952D01*
X324842857Y-149178380D01*
X325461904Y-149178380D01*
%TO.C,KE0*%
X77209523Y-168228380D02*
X77209523Y-167228380D01*
X77780952Y-168228380D02*
X77352380Y-167656952D01*
X77780952Y-167228380D02*
X77209523Y-167799809D01*
X78209523Y-167704571D02*
X78542857Y-167704571D01*
X78685714Y-168228380D02*
X78209523Y-168228380D01*
X78209523Y-167228380D01*
X78685714Y-167228380D01*
X79304761Y-167228380D02*
X79400000Y-167228380D01*
X79495238Y-167276000D01*
X79542857Y-167323619D01*
X79590476Y-167418857D01*
X79638095Y-167609333D01*
X79638095Y-167847428D01*
X79590476Y-168037904D01*
X79542857Y-168133142D01*
X79495238Y-168180761D01*
X79400000Y-168228380D01*
X79304761Y-168228380D01*
X79209523Y-168180761D01*
X79161904Y-168133142D01*
X79114285Y-168037904D01*
X79066666Y-167847428D01*
X79066666Y-167609333D01*
X79114285Y-167418857D01*
X79161904Y-167323619D01*
X79209523Y-167276000D01*
X79304761Y-167228380D01*
%TO.C,KF0*%
X67733333Y-187278380D02*
X67733333Y-186278380D01*
X68304761Y-187278380D02*
X67876190Y-186706952D01*
X68304761Y-186278380D02*
X67733333Y-186849809D01*
X69066666Y-186754571D02*
X68733333Y-186754571D01*
X68733333Y-187278380D02*
X68733333Y-186278380D01*
X69209523Y-186278380D01*
X69780952Y-186278380D02*
X69876190Y-186278380D01*
X69971428Y-186326000D01*
X70019047Y-186373619D01*
X70066666Y-186468857D01*
X70114285Y-186659333D01*
X70114285Y-186897428D01*
X70066666Y-187087904D01*
X70019047Y-187183142D01*
X69971428Y-187230761D01*
X69876190Y-187278380D01*
X69780952Y-187278380D01*
X69685714Y-187230761D01*
X69638095Y-187183142D01*
X69590476Y-187087904D01*
X69542857Y-186897428D01*
X69542857Y-186659333D01*
X69590476Y-186468857D01*
X69638095Y-186373619D01*
X69685714Y-186326000D01*
X69780952Y-186278380D01*
%TO.C,KF2*%
X110633333Y-187278380D02*
X110633333Y-186278380D01*
X111204761Y-187278380D02*
X110776190Y-186706952D01*
X111204761Y-186278380D02*
X110633333Y-186849809D01*
X111966666Y-186754571D02*
X111633333Y-186754571D01*
X111633333Y-187278380D02*
X111633333Y-186278380D01*
X112109523Y-186278380D01*
X112442857Y-186373619D02*
X112490476Y-186326000D01*
X112585714Y-186278380D01*
X112823809Y-186278380D01*
X112919047Y-186326000D01*
X112966666Y-186373619D01*
X113014285Y-186468857D01*
X113014285Y-186564095D01*
X112966666Y-186706952D01*
X112395238Y-187278380D01*
X113014285Y-187278380D01*
%TO.C,KF4*%
X164893942Y-196979310D02*
X165152761Y-196013385D01*
X165445900Y-197127207D02*
X165179828Y-196464327D01*
X165704719Y-196161281D02*
X165004865Y-196565342D01*
X166317415Y-196818441D02*
X165995440Y-196732168D01*
X165859868Y-197238129D02*
X166118687Y-196272204D01*
X166578652Y-196395451D01*
X167274319Y-196926946D02*
X167101773Y-197570897D01*
X167142934Y-196497351D02*
X166728081Y-197125674D01*
X167326035Y-197285896D01*
%TO.C,KF5*%
X204152230Y-197583221D02*
X203893411Y-196617296D01*
X204704187Y-197435325D02*
X204142323Y-196994290D01*
X204445368Y-196469399D02*
X204041307Y-197169253D01*
X205304559Y-196732168D02*
X204982584Y-196818441D01*
X205118156Y-197324402D02*
X204859337Y-196358477D01*
X205319301Y-196235229D01*
X206147238Y-196013385D02*
X205687273Y-196136632D01*
X205764524Y-196608921D01*
X205798195Y-196550600D01*
X205877864Y-196479954D01*
X206107846Y-196418330D01*
X206212164Y-196439677D01*
X206270485Y-196473349D01*
X206341131Y-196553017D01*
X206402754Y-196783000D01*
X206381407Y-196887317D01*
X206347736Y-196945639D01*
X206268067Y-197016285D01*
X206038085Y-197077908D01*
X205933767Y-197056561D01*
X205875446Y-197022889D01*
%TO.C,KF7*%
X258283333Y-187278380D02*
X258283333Y-186278380D01*
X258854761Y-187278380D02*
X258426190Y-186706952D01*
X258854761Y-186278380D02*
X258283333Y-186849809D01*
X259616666Y-186754571D02*
X259283333Y-186754571D01*
X259283333Y-187278380D02*
X259283333Y-186278380D01*
X259759523Y-186278380D01*
X260045238Y-186278380D02*
X260711904Y-186278380D01*
X260283333Y-187278380D01*
%TO.C,KF9*%
X301133333Y-187278380D02*
X301133333Y-186278380D01*
X301704761Y-187278380D02*
X301276190Y-186706952D01*
X301704761Y-186278380D02*
X301133333Y-186849809D01*
X302466666Y-186754571D02*
X302133333Y-186754571D01*
X302133333Y-187278380D02*
X302133333Y-186278380D01*
X302609523Y-186278380D01*
X303038095Y-187278380D02*
X303228571Y-187278380D01*
X303323809Y-187230761D01*
X303371428Y-187183142D01*
X303466666Y-187040285D01*
X303514285Y-186849809D01*
X303514285Y-186468857D01*
X303466666Y-186373619D01*
X303419047Y-186326000D01*
X303323809Y-186278380D01*
X303133333Y-186278380D01*
X303038095Y-186326000D01*
X302990476Y-186373619D01*
X302942857Y-186468857D01*
X302942857Y-186706952D01*
X302990476Y-186802190D01*
X303038095Y-186849809D01*
X303133333Y-186897428D01*
X303323809Y-186897428D01*
X303419047Y-186849809D01*
X303466666Y-186802190D01*
X303514285Y-186706952D01*
%TO.C,KC12*%
X302985714Y-130128380D02*
X302985714Y-129128380D01*
X303557142Y-130128380D02*
X303128571Y-129556952D01*
X303557142Y-129128380D02*
X302985714Y-129699809D01*
X304557142Y-130033142D02*
X304509523Y-130080761D01*
X304366666Y-130128380D01*
X304271428Y-130128380D01*
X304128571Y-130080761D01*
X304033333Y-129985523D01*
X303985714Y-129890285D01*
X303938095Y-129699809D01*
X303938095Y-129556952D01*
X303985714Y-129366476D01*
X304033333Y-129271238D01*
X304128571Y-129176000D01*
X304271428Y-129128380D01*
X304366666Y-129128380D01*
X304509523Y-129176000D01*
X304557142Y-129223619D01*
X305509523Y-130128380D02*
X304938095Y-130128380D01*
X305223809Y-130128380D02*
X305223809Y-129128380D01*
X305128571Y-129271238D01*
X305033333Y-129366476D01*
X304938095Y-129414095D01*
X305890476Y-129223619D02*
X305938095Y-129176000D01*
X306033333Y-129128380D01*
X306271428Y-129128380D01*
X306366666Y-129176000D01*
X306414285Y-129223619D01*
X306461904Y-129318857D01*
X306461904Y-129414095D01*
X306414285Y-129556952D01*
X305842857Y-130128380D01*
X306461904Y-130128380D01*
%TO.C,KC13*%
X326785714Y-130128380D02*
X326785714Y-129128380D01*
X327357142Y-130128380D02*
X326928571Y-129556952D01*
X327357142Y-129128380D02*
X326785714Y-129699809D01*
X328357142Y-130033142D02*
X328309523Y-130080761D01*
X328166666Y-130128380D01*
X328071428Y-130128380D01*
X327928571Y-130080761D01*
X327833333Y-129985523D01*
X327785714Y-129890285D01*
X327738095Y-129699809D01*
X327738095Y-129556952D01*
X327785714Y-129366476D01*
X327833333Y-129271238D01*
X327928571Y-129176000D01*
X328071428Y-129128380D01*
X328166666Y-129128380D01*
X328309523Y-129176000D01*
X328357142Y-129223619D01*
X329309523Y-130128380D02*
X328738095Y-130128380D01*
X329023809Y-130128380D02*
X329023809Y-129128380D01*
X328928571Y-129271238D01*
X328833333Y-129366476D01*
X328738095Y-129414095D01*
X329642857Y-129128380D02*
X330261904Y-129128380D01*
X329928571Y-129509333D01*
X330071428Y-129509333D01*
X330166666Y-129556952D01*
X330214285Y-129604571D01*
X330261904Y-129699809D01*
X330261904Y-129937904D01*
X330214285Y-130033142D01*
X330166666Y-130080761D01*
X330071428Y-130128380D01*
X329785714Y-130128380D01*
X329690476Y-130080761D01*
X329642857Y-130033142D01*
%TO.C,J1*%
X332316666Y-80204523D02*
X332316666Y-81111666D01*
X332256190Y-81293095D01*
X332135238Y-81414047D01*
X331953809Y-81474523D01*
X331832857Y-81474523D01*
X333586666Y-81474523D02*
X332860952Y-81474523D01*
X333223809Y-81474523D02*
X333223809Y-80204523D01*
X333102857Y-80385952D01*
X332981904Y-80506904D01*
X332860952Y-80567380D01*
X344406666Y-92352380D02*
X344406666Y-93066666D01*
X344359047Y-93209523D01*
X344263809Y-93304761D01*
X344120952Y-93352380D01*
X344025714Y-93352380D01*
X345406666Y-93352380D02*
X344835238Y-93352380D01*
X345120952Y-93352380D02*
X345120952Y-92352380D01*
X345025714Y-92495238D01*
X344930476Y-92590476D01*
X344835238Y-92638095D01*
D13*
X340859047Y-84150000D02*
X340811428Y-84126190D01*
X340740000Y-84126190D01*
X340668571Y-84150000D01*
X340620952Y-84197619D01*
X340597142Y-84245238D01*
X340573333Y-84340476D01*
X340573333Y-84411904D01*
X340597142Y-84507142D01*
X340620952Y-84554761D01*
X340668571Y-84602380D01*
X340740000Y-84626190D01*
X340787619Y-84626190D01*
X340859047Y-84602380D01*
X340882857Y-84578571D01*
X340882857Y-84411904D01*
X340787619Y-84411904D01*
X341097142Y-84626190D02*
X341097142Y-84126190D01*
X341382857Y-84626190D01*
X341382857Y-84126190D01*
X341620952Y-84626190D02*
X341620952Y-84126190D01*
X341740000Y-84126190D01*
X341811428Y-84150000D01*
X341859047Y-84197619D01*
X341882857Y-84245238D01*
X341906666Y-84340476D01*
X341906666Y-84411904D01*
X341882857Y-84507142D01*
X341859047Y-84554761D01*
X341811428Y-84602380D01*
X341740000Y-84626190D01*
X341620952Y-84626190D01*
X343173333Y-84126190D02*
X343340000Y-84626190D01*
X343506666Y-84126190D01*
X343959047Y-84578571D02*
X343935238Y-84602380D01*
X343863809Y-84626190D01*
X343816190Y-84626190D01*
X343744761Y-84602380D01*
X343697142Y-84554761D01*
X343673333Y-84507142D01*
X343649523Y-84411904D01*
X343649523Y-84340476D01*
X343673333Y-84245238D01*
X343697142Y-84197619D01*
X343744761Y-84150000D01*
X343816190Y-84126190D01*
X343863809Y-84126190D01*
X343935238Y-84150000D01*
X343959047Y-84173809D01*
X344459047Y-84578571D02*
X344435238Y-84602380D01*
X344363809Y-84626190D01*
X344316190Y-84626190D01*
X344244761Y-84602380D01*
X344197142Y-84554761D01*
X344173333Y-84507142D01*
X344149523Y-84411904D01*
X344149523Y-84340476D01*
X344173333Y-84245238D01*
X344197142Y-84197619D01*
X344244761Y-84150000D01*
X344316190Y-84126190D01*
X344363809Y-84126190D01*
X344435238Y-84150000D01*
X344459047Y-84173809D01*
X345644761Y-84602380D02*
X345716190Y-84626190D01*
X345835238Y-84626190D01*
X345882857Y-84602380D01*
X345906666Y-84578571D01*
X345930476Y-84530952D01*
X345930476Y-84483333D01*
X345906666Y-84435714D01*
X345882857Y-84411904D01*
X345835238Y-84388095D01*
X345740000Y-84364285D01*
X345692380Y-84340476D01*
X345668571Y-84316666D01*
X345644761Y-84269047D01*
X345644761Y-84221428D01*
X345668571Y-84173809D01*
X345692380Y-84150000D01*
X345740000Y-84126190D01*
X345859047Y-84126190D01*
X345930476Y-84150000D01*
X346430476Y-84578571D02*
X346406666Y-84602380D01*
X346335238Y-84626190D01*
X346287619Y-84626190D01*
X346216190Y-84602380D01*
X346168571Y-84554761D01*
X346144761Y-84507142D01*
X346120952Y-84411904D01*
X346120952Y-84340476D01*
X346144761Y-84245238D01*
X346168571Y-84197619D01*
X346216190Y-84150000D01*
X346287619Y-84126190D01*
X346335238Y-84126190D01*
X346406666Y-84150000D01*
X346430476Y-84173809D01*
X346882857Y-84626190D02*
X346644761Y-84626190D01*
X346644761Y-84126190D01*
X348332857Y-84602380D02*
X348404285Y-84626190D01*
X348523333Y-84626190D01*
X348570952Y-84602380D01*
X348594761Y-84578571D01*
X348618571Y-84530952D01*
X348618571Y-84483333D01*
X348594761Y-84435714D01*
X348570952Y-84411904D01*
X348523333Y-84388095D01*
X348428095Y-84364285D01*
X348380476Y-84340476D01*
X348356666Y-84316666D01*
X348332857Y-84269047D01*
X348332857Y-84221428D01*
X348356666Y-84173809D01*
X348380476Y-84150000D01*
X348428095Y-84126190D01*
X348547142Y-84126190D01*
X348618571Y-84150000D01*
X348832857Y-84626190D02*
X348832857Y-84126190D01*
X348951904Y-84126190D01*
X349023333Y-84150000D01*
X349070952Y-84197619D01*
X349094761Y-84245238D01*
X349118571Y-84340476D01*
X349118571Y-84411904D01*
X349094761Y-84507142D01*
X349070952Y-84554761D01*
X349023333Y-84602380D01*
X348951904Y-84626190D01*
X348832857Y-84626190D01*
X349309047Y-84483333D02*
X349547142Y-84483333D01*
X349261428Y-84626190D02*
X349428095Y-84126190D01*
X349594761Y-84626190D01*
%TO.C,KD13*%
D11*
X373155714Y-111100380D02*
X373155714Y-110100380D01*
X373727142Y-111100380D02*
X373298571Y-110528952D01*
X373727142Y-110100380D02*
X373155714Y-110671809D01*
X374155714Y-111100380D02*
X374155714Y-110100380D01*
X374393809Y-110100380D01*
X374536666Y-110148000D01*
X374631904Y-110243238D01*
X374679523Y-110338476D01*
X374727142Y-110528952D01*
X374727142Y-110671809D01*
X374679523Y-110862285D01*
X374631904Y-110957523D01*
X374536666Y-111052761D01*
X374393809Y-111100380D01*
X374155714Y-111100380D01*
X375679523Y-111100380D02*
X375108095Y-111100380D01*
X375393809Y-111100380D02*
X375393809Y-110100380D01*
X375298571Y-110243238D01*
X375203333Y-110338476D01*
X375108095Y-110386095D01*
X376012857Y-110100380D02*
X376631904Y-110100380D01*
X376298571Y-110481333D01*
X376441428Y-110481333D01*
X376536666Y-110528952D01*
X376584285Y-110576571D01*
X376631904Y-110671809D01*
X376631904Y-110909904D01*
X376584285Y-111005142D01*
X376536666Y-111052761D01*
X376441428Y-111100380D01*
X376155714Y-111100380D01*
X376060476Y-111052761D01*
X376012857Y-111005142D01*
%TO.C,KE13*%
X373213333Y-130140380D02*
X373213333Y-129140380D01*
X373784761Y-130140380D02*
X373356190Y-129568952D01*
X373784761Y-129140380D02*
X373213333Y-129711809D01*
X374213333Y-129616571D02*
X374546666Y-129616571D01*
X374689523Y-130140380D02*
X374213333Y-130140380D01*
X374213333Y-129140380D01*
X374689523Y-129140380D01*
X375641904Y-130140380D02*
X375070476Y-130140380D01*
X375356190Y-130140380D02*
X375356190Y-129140380D01*
X375260952Y-129283238D01*
X375165714Y-129378476D01*
X375070476Y-129426095D01*
X375975238Y-129140380D02*
X376594285Y-129140380D01*
X376260952Y-129521333D01*
X376403809Y-129521333D01*
X376499047Y-129568952D01*
X376546666Y-129616571D01*
X376594285Y-129711809D01*
X376594285Y-129949904D01*
X376546666Y-130045142D01*
X376499047Y-130092761D01*
X376403809Y-130140380D01*
X376118095Y-130140380D01*
X376022857Y-130092761D01*
X375975238Y-130045142D01*
%TO.C,KF13*%
X373237142Y-149190380D02*
X373237142Y-148190380D01*
X373808571Y-149190380D02*
X373380000Y-148618952D01*
X373808571Y-148190380D02*
X373237142Y-148761809D01*
X374570476Y-148666571D02*
X374237142Y-148666571D01*
X374237142Y-149190380D02*
X374237142Y-148190380D01*
X374713333Y-148190380D01*
X375618095Y-149190380D02*
X375046666Y-149190380D01*
X375332380Y-149190380D02*
X375332380Y-148190380D01*
X375237142Y-148333238D01*
X375141904Y-148428476D01*
X375046666Y-148476095D01*
X375951428Y-148190380D02*
X376570476Y-148190380D01*
X376237142Y-148571333D01*
X376380000Y-148571333D01*
X376475238Y-148618952D01*
X376522857Y-148666571D01*
X376570476Y-148761809D01*
X376570476Y-148999904D01*
X376522857Y-149095142D01*
X376475238Y-149142761D01*
X376380000Y-149190380D01*
X376094285Y-149190380D01*
X375999047Y-149142761D01*
X375951428Y-149095142D01*
%TD*%
M02*
