G04 #@! TF.GenerationSoftware,KiCad,Pcbnew,(5.1.6)-1*
G04 #@! TF.CreationDate,2020-12-27T00:50:24+01:00*
G04 #@! TF.ProjectId,base,62617365-2e6b-4696-9361-645f70636258,rev?*
G04 #@! TF.SameCoordinates,Original*
G04 #@! TF.FileFunction,Legend,Top*
G04 #@! TF.FilePolarity,Positive*
%FSLAX46Y46*%
G04 Gerber Fmt 4.6, Leading zero omitted, Abs format (unit mm)*
G04 Created by KiCad (PCBNEW (5.1.6)-1) date 2020-12-27 00:50:24*
%MOMM*%
%LPD*%
G01*
G04 APERTURE LIST*
%ADD10C,0.010000*%
%ADD11C,0.150000*%
%ADD12C,1.100000*%
%ADD13C,4.800000*%
G04 APERTURE END LIST*
D10*
G36*
X76568537Y-68692039D02*
G01*
X76559239Y-68718814D01*
X76542410Y-68788955D01*
X76558319Y-68863628D01*
X76568711Y-68902859D01*
X76569347Y-68946277D01*
X76558067Y-69004058D01*
X76532710Y-69086380D01*
X76491117Y-69203420D01*
X76479429Y-69235229D01*
X76400127Y-69442603D01*
X76323555Y-69628142D01*
X76252862Y-69784802D01*
X76191195Y-69905540D01*
X76150312Y-69971762D01*
X76088401Y-70029129D01*
X75980820Y-70094258D01*
X75831800Y-70165380D01*
X75645570Y-70240732D01*
X75426360Y-70318547D01*
X75178401Y-70397059D01*
X75024123Y-70441925D01*
X74774545Y-70512302D01*
X74693923Y-70453423D01*
X74647027Y-70417497D01*
X74569535Y-70356271D01*
X74470116Y-70276671D01*
X74357443Y-70185627D01*
X74283100Y-70125141D01*
X73877027Y-69801852D01*
X73475822Y-69498057D01*
X73091984Y-69223183D01*
X73038500Y-69186279D01*
X72925557Y-69107821D01*
X72824387Y-69035832D01*
X72744059Y-68976888D01*
X72693640Y-68937566D01*
X72684873Y-68929787D01*
X72653439Y-68895028D01*
X72656281Y-68869547D01*
X72696030Y-68833059D01*
X72697573Y-68831787D01*
X72759100Y-68781041D01*
X72701950Y-68740180D01*
X72659907Y-68703128D01*
X72644800Y-68677769D01*
X72664699Y-68657234D01*
X72720111Y-68612847D01*
X72804611Y-68549422D01*
X72911775Y-68471774D01*
X73035176Y-68384717D01*
X73045137Y-68377783D01*
X73287289Y-68207492D01*
X73520833Y-68039661D01*
X73738822Y-67879452D01*
X73934309Y-67732028D01*
X74100345Y-67602549D01*
X74217724Y-67506584D01*
X74372223Y-67376283D01*
X74493296Y-67275263D01*
X74586263Y-67199953D01*
X74656446Y-67146782D01*
X74709167Y-67112179D01*
X74749746Y-67092573D01*
X74783506Y-67084395D01*
X74815768Y-67084072D01*
X74843088Y-67086949D01*
X74906276Y-67100152D01*
X75007186Y-67127490D01*
X75135811Y-67165706D01*
X75282144Y-67211543D01*
X75436177Y-67261744D01*
X75587903Y-67313052D01*
X75727314Y-67362209D01*
X75844404Y-67405960D01*
X75924191Y-67438805D01*
X76027848Y-67496712D01*
X76111618Y-67564966D01*
X76133272Y-67589760D01*
X76189709Y-67677737D01*
X76256295Y-67804297D01*
X76328457Y-67959406D01*
X76401620Y-68133028D01*
X76471209Y-68315128D01*
X76496486Y-68386552D01*
X76537224Y-68508206D01*
X76561515Y-68592806D01*
X76571304Y-68650650D01*
X76568537Y-68692039D01*
G37*
X76568537Y-68692039D02*
X76559239Y-68718814D01*
X76542410Y-68788955D01*
X76558319Y-68863628D01*
X76568711Y-68902859D01*
X76569347Y-68946277D01*
X76558067Y-69004058D01*
X76532710Y-69086380D01*
X76491117Y-69203420D01*
X76479429Y-69235229D01*
X76400127Y-69442603D01*
X76323555Y-69628142D01*
X76252862Y-69784802D01*
X76191195Y-69905540D01*
X76150312Y-69971762D01*
X76088401Y-70029129D01*
X75980820Y-70094258D01*
X75831800Y-70165380D01*
X75645570Y-70240732D01*
X75426360Y-70318547D01*
X75178401Y-70397059D01*
X75024123Y-70441925D01*
X74774545Y-70512302D01*
X74693923Y-70453423D01*
X74647027Y-70417497D01*
X74569535Y-70356271D01*
X74470116Y-70276671D01*
X74357443Y-70185627D01*
X74283100Y-70125141D01*
X73877027Y-69801852D01*
X73475822Y-69498057D01*
X73091984Y-69223183D01*
X73038500Y-69186279D01*
X72925557Y-69107821D01*
X72824387Y-69035832D01*
X72744059Y-68976888D01*
X72693640Y-68937566D01*
X72684873Y-68929787D01*
X72653439Y-68895028D01*
X72656281Y-68869547D01*
X72696030Y-68833059D01*
X72697573Y-68831787D01*
X72759100Y-68781041D01*
X72701950Y-68740180D01*
X72659907Y-68703128D01*
X72644800Y-68677769D01*
X72664699Y-68657234D01*
X72720111Y-68612847D01*
X72804611Y-68549422D01*
X72911775Y-68471774D01*
X73035176Y-68384717D01*
X73045137Y-68377783D01*
X73287289Y-68207492D01*
X73520833Y-68039661D01*
X73738822Y-67879452D01*
X73934309Y-67732028D01*
X74100345Y-67602549D01*
X74217724Y-67506584D01*
X74372223Y-67376283D01*
X74493296Y-67275263D01*
X74586263Y-67199953D01*
X74656446Y-67146782D01*
X74709167Y-67112179D01*
X74749746Y-67092573D01*
X74783506Y-67084395D01*
X74815768Y-67084072D01*
X74843088Y-67086949D01*
X74906276Y-67100152D01*
X75007186Y-67127490D01*
X75135811Y-67165706D01*
X75282144Y-67211543D01*
X75436177Y-67261744D01*
X75587903Y-67313052D01*
X75727314Y-67362209D01*
X75844404Y-67405960D01*
X75924191Y-67438805D01*
X76027848Y-67496712D01*
X76111618Y-67564966D01*
X76133272Y-67589760D01*
X76189709Y-67677737D01*
X76256295Y-67804297D01*
X76328457Y-67959406D01*
X76401620Y-68133028D01*
X76471209Y-68315128D01*
X76496486Y-68386552D01*
X76537224Y-68508206D01*
X76561515Y-68592806D01*
X76571304Y-68650650D01*
X76568537Y-68692039D01*
G36*
X76148054Y-66999789D02*
G01*
X76069864Y-67092730D01*
X76005405Y-67138951D01*
X75946800Y-67166386D01*
X75852911Y-67180749D01*
X75737717Y-67179184D01*
X75627697Y-67163004D01*
X75578500Y-67148159D01*
X75492794Y-67107241D01*
X75396824Y-67050242D01*
X75300691Y-66984680D01*
X75214494Y-66918070D01*
X75148335Y-66857928D01*
X75112313Y-66811771D01*
X75108600Y-66798488D01*
X75125277Y-66771493D01*
X75166660Y-66725976D01*
X75179840Y-66713052D01*
X75253527Y-66658035D01*
X75313880Y-66649692D01*
X75365840Y-66687238D01*
X75407121Y-66725253D01*
X75473362Y-66774716D01*
X75513623Y-66801538D01*
X75611397Y-66848913D01*
X75712118Y-66873456D01*
X75802826Y-66874395D01*
X75870560Y-66850957D01*
X75895107Y-66824269D01*
X75919769Y-66736560D01*
X75900220Y-66641979D01*
X75843330Y-66544648D01*
X75801802Y-66482022D01*
X75779186Y-66437201D01*
X75778128Y-66424005D01*
X75812587Y-66420991D01*
X75874462Y-66438946D01*
X75948332Y-66471533D01*
X76018774Y-66512414D01*
X76049958Y-66535708D01*
X76145053Y-66643034D01*
X76193271Y-66760916D01*
X76194356Y-66882215D01*
X76148054Y-66999789D01*
G37*
X76148054Y-66999789D02*
X76069864Y-67092730D01*
X76005405Y-67138951D01*
X75946800Y-67166386D01*
X75852911Y-67180749D01*
X75737717Y-67179184D01*
X75627697Y-67163004D01*
X75578500Y-67148159D01*
X75492794Y-67107241D01*
X75396824Y-67050242D01*
X75300691Y-66984680D01*
X75214494Y-66918070D01*
X75148335Y-66857928D01*
X75112313Y-66811771D01*
X75108600Y-66798488D01*
X75125277Y-66771493D01*
X75166660Y-66725976D01*
X75179840Y-66713052D01*
X75253527Y-66658035D01*
X75313880Y-66649692D01*
X75365840Y-66687238D01*
X75407121Y-66725253D01*
X75473362Y-66774716D01*
X75513623Y-66801538D01*
X75611397Y-66848913D01*
X75712118Y-66873456D01*
X75802826Y-66874395D01*
X75870560Y-66850957D01*
X75895107Y-66824269D01*
X75919769Y-66736560D01*
X75900220Y-66641979D01*
X75843330Y-66544648D01*
X75801802Y-66482022D01*
X75779186Y-66437201D01*
X75778128Y-66424005D01*
X75812587Y-66420991D01*
X75874462Y-66438946D01*
X75948332Y-66471533D01*
X76018774Y-66512414D01*
X76049958Y-66535708D01*
X76145053Y-66643034D01*
X76193271Y-66760916D01*
X76194356Y-66882215D01*
X76148054Y-66999789D01*
G36*
X75413597Y-71661266D02*
G01*
X75346837Y-71789671D01*
X75246022Y-71909514D01*
X75119210Y-72012535D01*
X74974460Y-72090473D01*
X74857526Y-72127823D01*
X74769206Y-72138161D01*
X74692150Y-72130986D01*
X74640196Y-72108973D01*
X74626000Y-72083069D01*
X74647981Y-72062147D01*
X74704239Y-72034770D01*
X74749427Y-72018087D01*
X74892026Y-71950254D01*
X75010969Y-71853567D01*
X75095165Y-71738044D01*
X75117911Y-71685114D01*
X75141813Y-71571246D01*
X75137946Y-71464658D01*
X75107177Y-71382640D01*
X75102419Y-71376155D01*
X75099969Y-71339639D01*
X75131769Y-71275664D01*
X75174139Y-71214022D01*
X75270294Y-71083033D01*
X75316213Y-71139741D01*
X75356824Y-71210543D01*
X75394989Y-71311008D01*
X75424194Y-71420162D01*
X75437923Y-71517031D01*
X75438243Y-71532560D01*
X75413597Y-71661266D01*
G37*
X75413597Y-71661266D02*
X75346837Y-71789671D01*
X75246022Y-71909514D01*
X75119210Y-72012535D01*
X74974460Y-72090473D01*
X74857526Y-72127823D01*
X74769206Y-72138161D01*
X74692150Y-72130986D01*
X74640196Y-72108973D01*
X74626000Y-72083069D01*
X74647981Y-72062147D01*
X74704239Y-72034770D01*
X74749427Y-72018087D01*
X74892026Y-71950254D01*
X75010969Y-71853567D01*
X75095165Y-71738044D01*
X75117911Y-71685114D01*
X75141813Y-71571246D01*
X75137946Y-71464658D01*
X75107177Y-71382640D01*
X75102419Y-71376155D01*
X75099969Y-71339639D01*
X75131769Y-71275664D01*
X75174139Y-71214022D01*
X75270294Y-71083033D01*
X75316213Y-71139741D01*
X75356824Y-71210543D01*
X75394989Y-71311008D01*
X75424194Y-71420162D01*
X75437923Y-71517031D01*
X75438243Y-71532560D01*
X75413597Y-71661266D01*
G36*
X75427373Y-66129435D02*
G01*
X75374065Y-66306267D01*
X75284372Y-66472921D01*
X75166700Y-66618090D01*
X75029453Y-66730465D01*
X74947839Y-66774565D01*
X74872258Y-66803046D01*
X74789207Y-66822338D01*
X74684673Y-66834737D01*
X74544640Y-66842543D01*
X74530016Y-66843092D01*
X74395288Y-66846538D01*
X74293966Y-66844145D01*
X74208807Y-66833999D01*
X74122569Y-66814181D01*
X74034716Y-66788043D01*
X73923929Y-66747347D01*
X73789095Y-66688983D01*
X73649565Y-66621685D01*
X73555578Y-66571776D01*
X73414734Y-66490778D01*
X73271797Y-66404259D01*
X73133493Y-66316761D01*
X73006551Y-66232823D01*
X72897700Y-66156985D01*
X72813669Y-66093789D01*
X72761185Y-66047774D01*
X72746400Y-66025742D01*
X72760444Y-65986927D01*
X72796269Y-65925285D01*
X72822760Y-65886610D01*
X72869601Y-65826672D01*
X72905907Y-65788636D01*
X72918010Y-65781514D01*
X72944822Y-65795294D01*
X73004962Y-65832808D01*
X73090120Y-65888687D01*
X73191988Y-65957563D01*
X73216300Y-65974260D01*
X73424009Y-66116156D01*
X73597021Y-66231013D01*
X73741567Y-66321886D01*
X73863874Y-66391832D01*
X73970174Y-66443907D01*
X74066695Y-66481165D01*
X74159667Y-66506662D01*
X74255319Y-66523455D01*
X74358375Y-66534472D01*
X74538447Y-66541012D01*
X74684008Y-66525125D01*
X74807147Y-66484612D01*
X74890651Y-66437679D01*
X75012767Y-66331058D01*
X75091637Y-66207248D01*
X75128242Y-66074048D01*
X75123564Y-65939259D01*
X75078586Y-65810682D01*
X74994289Y-65696115D01*
X74871655Y-65603361D01*
X74780364Y-65561527D01*
X74690201Y-65525448D01*
X74645741Y-65498348D01*
X74643603Y-65476101D01*
X74680411Y-65454580D01*
X74689777Y-65450894D01*
X74769612Y-65435147D01*
X74862153Y-65447617D01*
X74976956Y-65490430D01*
X75066081Y-65534498D01*
X75215943Y-65634890D01*
X75329848Y-65756045D01*
X75403775Y-65891339D01*
X75433702Y-66034150D01*
X75427373Y-66129435D01*
G37*
X75427373Y-66129435D02*
X75374065Y-66306267D01*
X75284372Y-66472921D01*
X75166700Y-66618090D01*
X75029453Y-66730465D01*
X74947839Y-66774565D01*
X74872258Y-66803046D01*
X74789207Y-66822338D01*
X74684673Y-66834737D01*
X74544640Y-66842543D01*
X74530016Y-66843092D01*
X74395288Y-66846538D01*
X74293966Y-66844145D01*
X74208807Y-66833999D01*
X74122569Y-66814181D01*
X74034716Y-66788043D01*
X73923929Y-66747347D01*
X73789095Y-66688983D01*
X73649565Y-66621685D01*
X73555578Y-66571776D01*
X73414734Y-66490778D01*
X73271797Y-66404259D01*
X73133493Y-66316761D01*
X73006551Y-66232823D01*
X72897700Y-66156985D01*
X72813669Y-66093789D01*
X72761185Y-66047774D01*
X72746400Y-66025742D01*
X72760444Y-65986927D01*
X72796269Y-65925285D01*
X72822760Y-65886610D01*
X72869601Y-65826672D01*
X72905907Y-65788636D01*
X72918010Y-65781514D01*
X72944822Y-65795294D01*
X73004962Y-65832808D01*
X73090120Y-65888687D01*
X73191988Y-65957563D01*
X73216300Y-65974260D01*
X73424009Y-66116156D01*
X73597021Y-66231013D01*
X73741567Y-66321886D01*
X73863874Y-66391832D01*
X73970174Y-66443907D01*
X74066695Y-66481165D01*
X74159667Y-66506662D01*
X74255319Y-66523455D01*
X74358375Y-66534472D01*
X74538447Y-66541012D01*
X74684008Y-66525125D01*
X74807147Y-66484612D01*
X74890651Y-66437679D01*
X75012767Y-66331058D01*
X75091637Y-66207248D01*
X75128242Y-66074048D01*
X75123564Y-65939259D01*
X75078586Y-65810682D01*
X74994289Y-65696115D01*
X74871655Y-65603361D01*
X74780364Y-65561527D01*
X74690201Y-65525448D01*
X74645741Y-65498348D01*
X74643603Y-65476101D01*
X74680411Y-65454580D01*
X74689777Y-65450894D01*
X74769612Y-65435147D01*
X74862153Y-65447617D01*
X74976956Y-65490430D01*
X75066081Y-65534498D01*
X75215943Y-65634890D01*
X75329848Y-65756045D01*
X75403775Y-65891339D01*
X75433702Y-66034150D01*
X75427373Y-66129435D01*
G36*
X76185550Y-70849328D02*
G01*
X76129328Y-70964325D01*
X76055258Y-71039064D01*
X75999143Y-71076463D01*
X75927331Y-71116144D01*
X75858090Y-71148879D01*
X75809686Y-71165440D01*
X75803999Y-71166000D01*
X75792404Y-71147554D01*
X75806265Y-71100584D01*
X75841142Y-71037637D01*
X75857900Y-71013600D01*
X75909679Y-70913543D01*
X75915740Y-70820046D01*
X75875842Y-70739942D01*
X75867802Y-70731401D01*
X75819864Y-70696236D01*
X75761695Y-70688265D01*
X75714089Y-70693811D01*
X75626497Y-70717244D01*
X75536631Y-70761977D01*
X75440291Y-70831805D01*
X75333281Y-70930521D01*
X75211402Y-71061921D01*
X75070456Y-71229799D01*
X74942310Y-71391424D01*
X74716912Y-71664487D01*
X74500918Y-71891471D01*
X74290796Y-72075421D01*
X74083015Y-72219383D01*
X73874043Y-72326403D01*
X73843865Y-72338863D01*
X73704858Y-72377031D01*
X73536854Y-72396624D01*
X73358133Y-72397659D01*
X73186975Y-72380151D01*
X73041659Y-72344117D01*
X73025800Y-72338144D01*
X72932955Y-72295127D01*
X72837880Y-72240834D01*
X72751483Y-72182834D01*
X72684676Y-72128697D01*
X72648367Y-72085993D01*
X72644826Y-72073803D01*
X72665374Y-72045262D01*
X72718506Y-72003986D01*
X72773720Y-71969920D01*
X72902588Y-71897540D01*
X73050299Y-71976270D01*
X73131038Y-72016246D01*
X73200216Y-72039911D01*
X73276959Y-72051412D01*
X73380395Y-72054896D01*
X73413512Y-72055000D01*
X73539468Y-72050048D01*
X73653489Y-72036708D01*
X73734550Y-72017764D01*
X73899322Y-71939585D01*
X74080943Y-71815245D01*
X74279804Y-71644419D01*
X74496294Y-71426778D01*
X74668760Y-71234602D01*
X74884091Y-70993618D01*
X75077278Y-70795215D01*
X75251070Y-70637693D01*
X75408218Y-70519349D01*
X75551470Y-70438483D01*
X75683576Y-70393392D01*
X75807284Y-70382375D01*
X75925345Y-70403731D01*
X75978569Y-70423982D01*
X76089735Y-70491983D01*
X76158879Y-70583219D01*
X76192793Y-70706944D01*
X76194091Y-70717657D01*
X76185550Y-70849328D01*
G37*
X76185550Y-70849328D02*
X76129328Y-70964325D01*
X76055258Y-71039064D01*
X75999143Y-71076463D01*
X75927331Y-71116144D01*
X75858090Y-71148879D01*
X75809686Y-71165440D01*
X75803999Y-71166000D01*
X75792404Y-71147554D01*
X75806265Y-71100584D01*
X75841142Y-71037637D01*
X75857900Y-71013600D01*
X75909679Y-70913543D01*
X75915740Y-70820046D01*
X75875842Y-70739942D01*
X75867802Y-70731401D01*
X75819864Y-70696236D01*
X75761695Y-70688265D01*
X75714089Y-70693811D01*
X75626497Y-70717244D01*
X75536631Y-70761977D01*
X75440291Y-70831805D01*
X75333281Y-70930521D01*
X75211402Y-71061921D01*
X75070456Y-71229799D01*
X74942310Y-71391424D01*
X74716912Y-71664487D01*
X74500918Y-71891471D01*
X74290796Y-72075421D01*
X74083015Y-72219383D01*
X73874043Y-72326403D01*
X73843865Y-72338863D01*
X73704858Y-72377031D01*
X73536854Y-72396624D01*
X73358133Y-72397659D01*
X73186975Y-72380151D01*
X73041659Y-72344117D01*
X73025800Y-72338144D01*
X72932955Y-72295127D01*
X72837880Y-72240834D01*
X72751483Y-72182834D01*
X72684676Y-72128697D01*
X72648367Y-72085993D01*
X72644826Y-72073803D01*
X72665374Y-72045262D01*
X72718506Y-72003986D01*
X72773720Y-71969920D01*
X72902588Y-71897540D01*
X73050299Y-71976270D01*
X73131038Y-72016246D01*
X73200216Y-72039911D01*
X73276959Y-72051412D01*
X73380395Y-72054896D01*
X73413512Y-72055000D01*
X73539468Y-72050048D01*
X73653489Y-72036708D01*
X73734550Y-72017764D01*
X73899322Y-71939585D01*
X74080943Y-71815245D01*
X74279804Y-71644419D01*
X74496294Y-71426778D01*
X74668760Y-71234602D01*
X74884091Y-70993618D01*
X75077278Y-70795215D01*
X75251070Y-70637693D01*
X75408218Y-70519349D01*
X75551470Y-70438483D01*
X75683576Y-70393392D01*
X75807284Y-70382375D01*
X75925345Y-70403731D01*
X75978569Y-70423982D01*
X76089735Y-70491983D01*
X76158879Y-70583219D01*
X76192793Y-70706944D01*
X76194091Y-70717657D01*
X76185550Y-70849328D01*
G36*
X72208591Y-69931391D02*
G01*
X72204183Y-70046552D01*
X72198008Y-70122280D01*
X72186916Y-70169924D01*
X72167755Y-70200834D01*
X72137374Y-70226358D01*
X72124100Y-70235706D01*
X72068565Y-70280234D01*
X71993663Y-70347849D01*
X71914797Y-70424597D01*
X71908200Y-70431303D01*
X71768500Y-70573878D01*
X71634719Y-70492741D01*
X71562250Y-70448029D01*
X71508759Y-70413613D01*
X71488183Y-70398849D01*
X71497216Y-70374627D01*
X71531162Y-70317897D01*
X71584713Y-70236983D01*
X71652564Y-70140211D01*
X71656531Y-70134697D01*
X71789119Y-69939619D01*
X71885262Y-69772245D01*
X71947535Y-69627753D01*
X71970439Y-69546750D01*
X71988341Y-69490792D01*
X72007985Y-69464488D01*
X72009839Y-69464200D01*
X72036889Y-69482006D01*
X72084145Y-69527925D01*
X72124061Y-69572150D01*
X72216881Y-69680100D01*
X72208591Y-69931391D01*
G37*
X72208591Y-69931391D02*
X72204183Y-70046552D01*
X72198008Y-70122280D01*
X72186916Y-70169924D01*
X72167755Y-70200834D01*
X72137374Y-70226358D01*
X72124100Y-70235706D01*
X72068565Y-70280234D01*
X71993663Y-70347849D01*
X71914797Y-70424597D01*
X71908200Y-70431303D01*
X71768500Y-70573878D01*
X71634719Y-70492741D01*
X71562250Y-70448029D01*
X71508759Y-70413613D01*
X71488183Y-70398849D01*
X71497216Y-70374627D01*
X71531162Y-70317897D01*
X71584713Y-70236983D01*
X71652564Y-70140211D01*
X71656531Y-70134697D01*
X71789119Y-69939619D01*
X71885262Y-69772245D01*
X71947535Y-69627753D01*
X71970439Y-69546750D01*
X71988341Y-69490792D01*
X72007985Y-69464488D01*
X72009839Y-69464200D01*
X72036889Y-69482006D01*
X72084145Y-69527925D01*
X72124061Y-69572150D01*
X72216881Y-69680100D01*
X72208591Y-69931391D01*
G36*
X71987085Y-66552405D02*
G01*
X71957451Y-66649391D01*
X71916353Y-66744549D01*
X71870490Y-66825821D01*
X71826560Y-66881148D01*
X71794679Y-66898800D01*
X71758738Y-66880518D01*
X71707953Y-66834204D01*
X71682742Y-66805680D01*
X71605985Y-66712561D01*
X71666010Y-66641225D01*
X71716366Y-66565505D01*
X71755469Y-66480644D01*
X71756504Y-66477568D01*
X71773400Y-66410344D01*
X71765349Y-66362469D01*
X71737257Y-66318173D01*
X71669993Y-66260889D01*
X71583902Y-66225514D01*
X71503792Y-66202830D01*
X71468456Y-66181640D01*
X71472572Y-66155008D01*
X71504311Y-66121827D01*
X71561323Y-66088980D01*
X71646298Y-66074670D01*
X71697051Y-66073300D01*
X71782476Y-66076740D01*
X71837917Y-66092351D01*
X71884010Y-66128062D01*
X71908922Y-66154726D01*
X71979015Y-66268370D01*
X72004226Y-66403240D01*
X71987085Y-66552405D01*
G37*
X71987085Y-66552405D02*
X71957451Y-66649391D01*
X71916353Y-66744549D01*
X71870490Y-66825821D01*
X71826560Y-66881148D01*
X71794679Y-66898800D01*
X71758738Y-66880518D01*
X71707953Y-66834204D01*
X71682742Y-66805680D01*
X71605985Y-66712561D01*
X71666010Y-66641225D01*
X71716366Y-66565505D01*
X71755469Y-66480644D01*
X71756504Y-66477568D01*
X71773400Y-66410344D01*
X71765349Y-66362469D01*
X71737257Y-66318173D01*
X71669993Y-66260889D01*
X71583902Y-66225514D01*
X71503792Y-66202830D01*
X71468456Y-66181640D01*
X71472572Y-66155008D01*
X71504311Y-66121827D01*
X71561323Y-66088980D01*
X71646298Y-66074670D01*
X71697051Y-66073300D01*
X71782476Y-66076740D01*
X71837917Y-66092351D01*
X71884010Y-66128062D01*
X71908922Y-66154726D01*
X71979015Y-66268370D01*
X72004226Y-66403240D01*
X71987085Y-66552405D01*
G36*
X71984856Y-71301369D02*
G01*
X71973701Y-71330228D01*
X71910614Y-71418582D01*
X71812068Y-71475235D01*
X71685208Y-71496162D01*
X71679192Y-71496200D01*
X71584603Y-71487082D01*
X71517000Y-71463807D01*
X71481109Y-71432492D01*
X71481658Y-71399254D01*
X71523374Y-71370209D01*
X71571650Y-71357053D01*
X71680303Y-71319641D01*
X71745343Y-71256197D01*
X71766732Y-71166779D01*
X71753733Y-71081351D01*
X71702704Y-70984162D01*
X71608871Y-70891235D01*
X71480225Y-70807570D01*
X71324758Y-70738164D01*
X71150460Y-70688014D01*
X71112860Y-70680516D01*
X71022799Y-70662452D01*
X70972044Y-70645841D01*
X70949693Y-70624399D01*
X70944844Y-70591841D01*
X70945006Y-70583759D01*
X70955672Y-70508670D01*
X70972522Y-70448450D01*
X71002764Y-70402335D01*
X71055174Y-70380751D01*
X71136375Y-70383351D01*
X71252988Y-70409789D01*
X71321431Y-70430199D01*
X71544598Y-70517928D01*
X71724422Y-70627212D01*
X71859684Y-70757046D01*
X71949167Y-70906428D01*
X71970000Y-70964997D01*
X72001552Y-71097585D01*
X72006446Y-71204041D01*
X71984856Y-71301369D01*
G37*
X71984856Y-71301369D02*
X71973701Y-71330228D01*
X71910614Y-71418582D01*
X71812068Y-71475235D01*
X71685208Y-71496162D01*
X71679192Y-71496200D01*
X71584603Y-71487082D01*
X71517000Y-71463807D01*
X71481109Y-71432492D01*
X71481658Y-71399254D01*
X71523374Y-71370209D01*
X71571650Y-71357053D01*
X71680303Y-71319641D01*
X71745343Y-71256197D01*
X71766732Y-71166779D01*
X71753733Y-71081351D01*
X71702704Y-70984162D01*
X71608871Y-70891235D01*
X71480225Y-70807570D01*
X71324758Y-70738164D01*
X71150460Y-70688014D01*
X71112860Y-70680516D01*
X71022799Y-70662452D01*
X70972044Y-70645841D01*
X70949693Y-70624399D01*
X70944844Y-70591841D01*
X70945006Y-70583759D01*
X70955672Y-70508670D01*
X70972522Y-70448450D01*
X71002764Y-70402335D01*
X71055174Y-70380751D01*
X71136375Y-70383351D01*
X71252988Y-70409789D01*
X71321431Y-70430199D01*
X71544598Y-70517928D01*
X71724422Y-70627212D01*
X71859684Y-70757046D01*
X71949167Y-70906428D01*
X71970000Y-70964997D01*
X72001552Y-71097585D01*
X72006446Y-71204041D01*
X71984856Y-71301369D01*
G36*
X72208344Y-67749618D02*
G01*
X72195701Y-67855091D01*
X72177700Y-67924718D01*
X72140967Y-67990797D01*
X72091367Y-68054778D01*
X72041783Y-68101985D01*
X72008026Y-68118000D01*
X71992140Y-68095730D01*
X71971544Y-68039105D01*
X71960866Y-68000587D01*
X71930084Y-67903739D01*
X71887662Y-67799132D01*
X71870734Y-67763650D01*
X71811822Y-67664199D01*
X71724594Y-67538659D01*
X71616847Y-67396672D01*
X71496373Y-67247880D01*
X71370967Y-67101927D01*
X71248424Y-66968455D01*
X71142284Y-66862491D01*
X71055548Y-66777968D01*
X70984713Y-66703458D01*
X70936992Y-66646940D01*
X70919597Y-66616395D01*
X70919606Y-66616142D01*
X70928897Y-66572115D01*
X70949924Y-66502313D01*
X70960438Y-66471504D01*
X70990993Y-66402510D01*
X71022783Y-66356533D01*
X71034188Y-66348307D01*
X71080233Y-66355153D01*
X71153489Y-66395988D01*
X71248264Y-66466093D01*
X71358868Y-66560750D01*
X71479612Y-66675240D01*
X71604805Y-66804845D01*
X71665384Y-66871689D01*
X71770002Y-66987141D01*
X71875659Y-67099404D01*
X71972320Y-67198101D01*
X72049952Y-67272857D01*
X72073677Y-67293943D01*
X72213000Y-67412970D01*
X72213000Y-67626601D01*
X72208344Y-67749618D01*
G37*
X72208344Y-67749618D02*
X72195701Y-67855091D01*
X72177700Y-67924718D01*
X72140967Y-67990797D01*
X72091367Y-68054778D01*
X72041783Y-68101985D01*
X72008026Y-68118000D01*
X71992140Y-68095730D01*
X71971544Y-68039105D01*
X71960866Y-68000587D01*
X71930084Y-67903739D01*
X71887662Y-67799132D01*
X71870734Y-67763650D01*
X71811822Y-67664199D01*
X71724594Y-67538659D01*
X71616847Y-67396672D01*
X71496373Y-67247880D01*
X71370967Y-67101927D01*
X71248424Y-66968455D01*
X71142284Y-66862491D01*
X71055548Y-66777968D01*
X70984713Y-66703458D01*
X70936992Y-66646940D01*
X70919597Y-66616395D01*
X70919606Y-66616142D01*
X70928897Y-66572115D01*
X70949924Y-66502313D01*
X70960438Y-66471504D01*
X70990993Y-66402510D01*
X71022783Y-66356533D01*
X71034188Y-66348307D01*
X71080233Y-66355153D01*
X71153489Y-66395988D01*
X71248264Y-66466093D01*
X71358868Y-66560750D01*
X71479612Y-66675240D01*
X71604805Y-66804845D01*
X71665384Y-66871689D01*
X71770002Y-66987141D01*
X71875659Y-67099404D01*
X71972320Y-67198101D01*
X72049952Y-67272857D01*
X72073677Y-67293943D01*
X72213000Y-67412970D01*
X72213000Y-67626601D01*
X72208344Y-67749618D01*
G36*
X74904347Y-70835233D02*
G01*
X74889652Y-70858942D01*
X74841668Y-70925458D01*
X74785869Y-70991617D01*
X74752315Y-71024510D01*
X74718412Y-71043426D01*
X74670663Y-71051069D01*
X74595572Y-71050141D01*
X74516107Y-71045626D01*
X74384350Y-71041904D01*
X74262749Y-71049901D01*
X74144470Y-71072412D01*
X74022677Y-71112231D01*
X73890534Y-71172154D01*
X73741207Y-71254976D01*
X73567861Y-71363491D01*
X73363660Y-71500495D01*
X73305200Y-71540760D01*
X72999684Y-71742886D01*
X72724040Y-71905900D01*
X72476756Y-72030636D01*
X72259322Y-72116929D01*
X72140817Y-72151904D01*
X72030735Y-72172089D01*
X71906311Y-72180841D01*
X71817761Y-72182000D01*
X71704204Y-72180969D01*
X71620467Y-72175180D01*
X71549189Y-72160585D01*
X71473007Y-72133137D01*
X71374558Y-72088787D01*
X71332262Y-72068824D01*
X71186142Y-71989441D01*
X71046475Y-71895010D01*
X70920391Y-71792248D01*
X70815021Y-71687873D01*
X70737493Y-71588601D01*
X70694940Y-71501151D01*
X70689000Y-71462832D01*
X70713939Y-71434902D01*
X70786910Y-71407713D01*
X70842030Y-71394466D01*
X70923065Y-71378962D01*
X70981064Y-71371060D01*
X71001807Y-71371945D01*
X71150059Y-71552097D01*
X71319662Y-71686193D01*
X71511356Y-71774595D01*
X71725882Y-71817663D01*
X71919586Y-71819389D01*
X72009481Y-71811523D01*
X72093583Y-71798772D01*
X72177185Y-71778620D01*
X72265580Y-71748554D01*
X72364064Y-71706058D01*
X72477929Y-71648618D01*
X72612470Y-71573718D01*
X72772982Y-71478844D01*
X72964757Y-71361481D01*
X73193090Y-71219114D01*
X73223846Y-71199824D01*
X73442953Y-71065269D01*
X73629357Y-70958414D01*
X73790874Y-70876319D01*
X73935324Y-70816046D01*
X74070523Y-70774656D01*
X74204289Y-70749209D01*
X74344440Y-70736767D01*
X74462432Y-70734200D01*
X74586680Y-70736981D01*
X74702602Y-70744473D01*
X74794154Y-70755400D01*
X74832843Y-70763692D01*
X74894607Y-70784066D01*
X74915755Y-70803409D01*
X74904347Y-70835233D01*
G37*
X74904347Y-70835233D02*
X74889652Y-70858942D01*
X74841668Y-70925458D01*
X74785869Y-70991617D01*
X74752315Y-71024510D01*
X74718412Y-71043426D01*
X74670663Y-71051069D01*
X74595572Y-71050141D01*
X74516107Y-71045626D01*
X74384350Y-71041904D01*
X74262749Y-71049901D01*
X74144470Y-71072412D01*
X74022677Y-71112231D01*
X73890534Y-71172154D01*
X73741207Y-71254976D01*
X73567861Y-71363491D01*
X73363660Y-71500495D01*
X73305200Y-71540760D01*
X72999684Y-71742886D01*
X72724040Y-71905900D01*
X72476756Y-72030636D01*
X72259322Y-72116929D01*
X72140817Y-72151904D01*
X72030735Y-72172089D01*
X71906311Y-72180841D01*
X71817761Y-72182000D01*
X71704204Y-72180969D01*
X71620467Y-72175180D01*
X71549189Y-72160585D01*
X71473007Y-72133137D01*
X71374558Y-72088787D01*
X71332262Y-72068824D01*
X71186142Y-71989441D01*
X71046475Y-71895010D01*
X70920391Y-71792248D01*
X70815021Y-71687873D01*
X70737493Y-71588601D01*
X70694940Y-71501151D01*
X70689000Y-71462832D01*
X70713939Y-71434902D01*
X70786910Y-71407713D01*
X70842030Y-71394466D01*
X70923065Y-71378962D01*
X70981064Y-71371060D01*
X71001807Y-71371945D01*
X71150059Y-71552097D01*
X71319662Y-71686193D01*
X71511356Y-71774595D01*
X71725882Y-71817663D01*
X71919586Y-71819389D01*
X72009481Y-71811523D01*
X72093583Y-71798772D01*
X72177185Y-71778620D01*
X72265580Y-71748554D01*
X72364064Y-71706058D01*
X72477929Y-71648618D01*
X72612470Y-71573718D01*
X72772982Y-71478844D01*
X72964757Y-71361481D01*
X73193090Y-71219114D01*
X73223846Y-71199824D01*
X73442953Y-71065269D01*
X73629357Y-70958414D01*
X73790874Y-70876319D01*
X73935324Y-70816046D01*
X74070523Y-70774656D01*
X74204289Y-70749209D01*
X74344440Y-70736767D01*
X74462432Y-70734200D01*
X74586680Y-70736981D01*
X74702602Y-70744473D01*
X74794154Y-70755400D01*
X74832843Y-70763692D01*
X74894607Y-70784066D01*
X74915755Y-70803409D01*
X74904347Y-70835233D01*
G36*
X71803258Y-68203712D02*
G01*
X71719096Y-68229164D01*
X71616471Y-68251746D01*
X71509570Y-68269398D01*
X71412580Y-68280062D01*
X71339689Y-68281676D01*
X71308947Y-68275476D01*
X71271204Y-68243401D01*
X71209980Y-68179690D01*
X71132612Y-68093088D01*
X71046435Y-67992343D01*
X70958787Y-67886203D01*
X70877003Y-67783414D01*
X70808421Y-67692725D01*
X70760376Y-67622881D01*
X70756965Y-67617349D01*
X70703568Y-67524850D01*
X70659662Y-67440327D01*
X70630005Y-67373942D01*
X70619356Y-67335856D01*
X70622662Y-67330600D01*
X70650337Y-67326271D01*
X70711967Y-67315175D01*
X70761490Y-67305903D01*
X70842781Y-67294247D01*
X70906627Y-67291740D01*
X70927690Y-67295013D01*
X70958265Y-67321999D01*
X71005673Y-67380442D01*
X71060343Y-67458402D01*
X71067481Y-67469343D01*
X71200107Y-67644773D01*
X71340737Y-67771555D01*
X71492273Y-67851584D01*
X71657615Y-67886756D01*
X71709851Y-67888842D01*
X71790962Y-67892934D01*
X71849509Y-67902917D01*
X71868799Y-67912693D01*
X71880805Y-67950481D01*
X71894042Y-68018102D01*
X71898705Y-68049144D01*
X71914215Y-68162301D01*
X71803258Y-68203712D01*
G37*
X71803258Y-68203712D02*
X71719096Y-68229164D01*
X71616471Y-68251746D01*
X71509570Y-68269398D01*
X71412580Y-68280062D01*
X71339689Y-68281676D01*
X71308947Y-68275476D01*
X71271204Y-68243401D01*
X71209980Y-68179690D01*
X71132612Y-68093088D01*
X71046435Y-67992343D01*
X70958787Y-67886203D01*
X70877003Y-67783414D01*
X70808421Y-67692725D01*
X70760376Y-67622881D01*
X70756965Y-67617349D01*
X70703568Y-67524850D01*
X70659662Y-67440327D01*
X70630005Y-67373942D01*
X70619356Y-67335856D01*
X70622662Y-67330600D01*
X70650337Y-67326271D01*
X70711967Y-67315175D01*
X70761490Y-67305903D01*
X70842781Y-67294247D01*
X70906627Y-67291740D01*
X70927690Y-67295013D01*
X70958265Y-67321999D01*
X71005673Y-67380442D01*
X71060343Y-67458402D01*
X71067481Y-67469343D01*
X71200107Y-67644773D01*
X71340737Y-67771555D01*
X71492273Y-67851584D01*
X71657615Y-67886756D01*
X71709851Y-67888842D01*
X71790962Y-67892934D01*
X71849509Y-67902917D01*
X71868799Y-67912693D01*
X71880805Y-67950481D01*
X71894042Y-68018102D01*
X71898705Y-68049144D01*
X71914215Y-68162301D01*
X71803258Y-68203712D01*
G36*
X71901621Y-69542912D02*
G01*
X71882394Y-69606849D01*
X71864225Y-69648170D01*
X71836971Y-69671319D01*
X71786563Y-69682694D01*
X71702828Y-69688499D01*
X71597329Y-69700885D01*
X71493720Y-69724363D01*
X71442885Y-69742081D01*
X71300776Y-69829898D01*
X71171392Y-69962009D01*
X71057963Y-70132802D01*
X70963723Y-70336666D01*
X70891902Y-70567990D01*
X70853226Y-70765886D01*
X70817224Y-70853971D01*
X70742903Y-70912222D01*
X70635564Y-70936834D01*
X70614062Y-70937400D01*
X70536600Y-70937400D01*
X70538272Y-70727850D01*
X70543894Y-70606570D01*
X70557127Y-70483876D01*
X70575204Y-70384840D01*
X70576800Y-70378600D01*
X70626330Y-70225611D01*
X70695564Y-70073950D01*
X70788902Y-69916721D01*
X70910743Y-69747033D01*
X71065485Y-69557992D01*
X71191837Y-69414772D01*
X71316729Y-69276445D01*
X71517215Y-69303339D01*
X71627755Y-69321719D01*
X71731636Y-69345013D01*
X71807907Y-69368460D01*
X71812950Y-69370520D01*
X71879140Y-69410458D01*
X71907675Y-69464445D01*
X71901621Y-69542912D01*
G37*
X71901621Y-69542912D02*
X71882394Y-69606849D01*
X71864225Y-69648170D01*
X71836971Y-69671319D01*
X71786563Y-69682694D01*
X71702828Y-69688499D01*
X71597329Y-69700885D01*
X71493720Y-69724363D01*
X71442885Y-69742081D01*
X71300776Y-69829898D01*
X71171392Y-69962009D01*
X71057963Y-70132802D01*
X70963723Y-70336666D01*
X70891902Y-70567990D01*
X70853226Y-70765886D01*
X70817224Y-70853971D01*
X70742903Y-70912222D01*
X70635564Y-70936834D01*
X70614062Y-70937400D01*
X70536600Y-70937400D01*
X70538272Y-70727850D01*
X70543894Y-70606570D01*
X70557127Y-70483876D01*
X70575204Y-70384840D01*
X70576800Y-70378600D01*
X70626330Y-70225611D01*
X70695564Y-70073950D01*
X70788902Y-69916721D01*
X70910743Y-69747033D01*
X71065485Y-69557992D01*
X71191837Y-69414772D01*
X71316729Y-69276445D01*
X71517215Y-69303339D01*
X71627755Y-69321719D01*
X71731636Y-69345013D01*
X71807907Y-69368460D01*
X71812950Y-69370520D01*
X71879140Y-69410458D01*
X71907675Y-69464445D01*
X71901621Y-69542912D01*
G36*
X72437936Y-65605555D02*
G01*
X72406975Y-65672731D01*
X72403175Y-65680241D01*
X72364960Y-65751005D01*
X72333572Y-65801006D01*
X72321032Y-65815324D01*
X72287386Y-65815939D01*
X72221401Y-65804634D01*
X72161799Y-65790227D01*
X72008470Y-65765463D01*
X71810232Y-65761272D01*
X71781200Y-65762246D01*
X71657748Y-65769188D01*
X71567208Y-65781264D01*
X71491710Y-65802465D01*
X71413378Y-65836779D01*
X71386396Y-65850358D01*
X71291196Y-65905699D01*
X71201597Y-65968591D01*
X71149163Y-66013867D01*
X71049947Y-66142011D01*
X70964979Y-66304993D01*
X70900566Y-66487476D01*
X70863011Y-66674121D01*
X70858456Y-66721000D01*
X70848168Y-66860700D01*
X70536600Y-66875824D01*
X70537550Y-66677762D01*
X70550102Y-66499562D01*
X70589013Y-66338684D01*
X70597312Y-66314564D01*
X70662638Y-66146819D01*
X70728924Y-66014473D01*
X70805033Y-65902745D01*
X70899829Y-65796853D01*
X70919350Y-65777478D01*
X71062462Y-65659610D01*
X71235309Y-65551510D01*
X71419217Y-65463245D01*
X71595511Y-65404881D01*
X71621328Y-65399080D01*
X71798155Y-65380217D01*
X71991251Y-65389038D01*
X72176271Y-65423538D01*
X72263800Y-65451963D01*
X72363915Y-65492557D01*
X72422348Y-65525200D01*
X72445041Y-65559622D01*
X72437936Y-65605555D01*
G37*
X72437936Y-65605555D02*
X72406975Y-65672731D01*
X72403175Y-65680241D01*
X72364960Y-65751005D01*
X72333572Y-65801006D01*
X72321032Y-65815324D01*
X72287386Y-65815939D01*
X72221401Y-65804634D01*
X72161799Y-65790227D01*
X72008470Y-65765463D01*
X71810232Y-65761272D01*
X71781200Y-65762246D01*
X71657748Y-65769188D01*
X71567208Y-65781264D01*
X71491710Y-65802465D01*
X71413378Y-65836779D01*
X71386396Y-65850358D01*
X71291196Y-65905699D01*
X71201597Y-65968591D01*
X71149163Y-66013867D01*
X71049947Y-66142011D01*
X70964979Y-66304993D01*
X70900566Y-66487476D01*
X70863011Y-66674121D01*
X70858456Y-66721000D01*
X70848168Y-66860700D01*
X70536600Y-66875824D01*
X70537550Y-66677762D01*
X70550102Y-66499562D01*
X70589013Y-66338684D01*
X70597312Y-66314564D01*
X70662638Y-66146819D01*
X70728924Y-66014473D01*
X70805033Y-65902745D01*
X70899829Y-65796853D01*
X70919350Y-65777478D01*
X71062462Y-65659610D01*
X71235309Y-65551510D01*
X71419217Y-65463245D01*
X71595511Y-65404881D01*
X71621328Y-65399080D01*
X71798155Y-65380217D01*
X71991251Y-65389038D01*
X72176271Y-65423538D01*
X72263800Y-65451963D01*
X72363915Y-65492557D01*
X72422348Y-65525200D01*
X72445041Y-65559622D01*
X72437936Y-65605555D01*
G36*
X74111397Y-70496952D02*
G01*
X74047373Y-70562619D01*
X74022750Y-70585850D01*
X73884520Y-70699339D01*
X73750327Y-70772403D01*
X73604356Y-70811375D01*
X73431702Y-70822593D01*
X73312960Y-70819627D01*
X73225324Y-70808850D01*
X73149258Y-70786455D01*
X73073783Y-70752847D01*
X72989969Y-70707384D01*
X72919859Y-70661557D01*
X72887054Y-70633653D01*
X72860923Y-70599896D01*
X72862832Y-70573071D01*
X72897584Y-70537051D01*
X72922035Y-70516224D01*
X73006822Y-70425779D01*
X73058028Y-70331100D01*
X73076000Y-70240464D01*
X73061085Y-70162149D01*
X73013629Y-70104430D01*
X72933978Y-70075585D01*
X72903511Y-70073800D01*
X72826315Y-70098846D01*
X72756779Y-70173615D01*
X72695296Y-70297555D01*
X72652800Y-70429400D01*
X72631266Y-70542904D01*
X72616157Y-70691932D01*
X72607875Y-70861566D01*
X72606820Y-71036889D01*
X72613393Y-71202982D01*
X72627995Y-71344929D01*
X72628172Y-71346106D01*
X72649644Y-71488113D01*
X72564672Y-71527431D01*
X72468707Y-71568883D01*
X72406639Y-71586244D01*
X72368195Y-71580515D01*
X72343104Y-71552699D01*
X72341195Y-71549231D01*
X72296321Y-71430948D01*
X72262988Y-71265135D01*
X72241171Y-71051407D01*
X72230846Y-70789378D01*
X72231989Y-70478663D01*
X72244573Y-70118878D01*
X72246780Y-70073800D01*
X72254258Y-69917766D01*
X72258245Y-69803762D01*
X72258221Y-69723104D01*
X72253668Y-69667108D01*
X72244066Y-69627090D01*
X72228897Y-69594368D01*
X72216948Y-69574689D01*
X72144383Y-69492044D01*
X72036112Y-69408155D01*
X71905990Y-69332925D01*
X71832000Y-69299584D01*
X71736633Y-69273602D01*
X71602396Y-69254408D01*
X71440830Y-69242494D01*
X71263473Y-69238349D01*
X71081865Y-69242465D01*
X70907545Y-69255333D01*
X70875410Y-69258900D01*
X70625972Y-69288318D01*
X70518762Y-69166709D01*
X70462867Y-69099469D01*
X70423724Y-69045068D01*
X70410576Y-69017859D01*
X70433863Y-69003549D01*
X70498749Y-68983862D01*
X70596601Y-68960999D01*
X70718786Y-68937160D01*
X70746150Y-68932335D01*
X71000798Y-68892805D01*
X71250427Y-68862661D01*
X71487613Y-68842257D01*
X71704927Y-68831947D01*
X71894945Y-68832087D01*
X72050238Y-68843029D01*
X72162200Y-68864766D01*
X72237785Y-68890310D01*
X72342269Y-68928703D01*
X72457659Y-68973255D01*
X72505100Y-68992216D01*
X72733700Y-69084650D01*
X72888028Y-69381073D01*
X72951312Y-69496912D01*
X73012875Y-69599559D01*
X73066091Y-69678593D01*
X73104331Y-69723588D01*
X73107376Y-69726040D01*
X73164982Y-69755385D01*
X73241439Y-69777974D01*
X73319829Y-69790928D01*
X73383234Y-69791366D01*
X73413806Y-69778213D01*
X73414921Y-69742084D01*
X73400754Y-69679720D01*
X73394709Y-69660983D01*
X73377844Y-69595112D01*
X73384174Y-69566493D01*
X73387736Y-69565800D01*
X73418291Y-69580213D01*
X73480234Y-69619216D01*
X73564665Y-69676452D01*
X73662686Y-69745566D01*
X73765397Y-69820201D01*
X73863900Y-69894000D01*
X73949296Y-69960609D01*
X74003700Y-70005754D01*
X74057865Y-70057289D01*
X74088769Y-70095543D01*
X74091609Y-70108237D01*
X74061697Y-70109008D01*
X74001308Y-70094951D01*
X73964609Y-70083275D01*
X73849092Y-70059438D01*
X73726459Y-70059814D01*
X73614547Y-70082556D01*
X73531191Y-70125817D01*
X73528109Y-70128471D01*
X73491971Y-70162367D01*
X73493600Y-70169949D01*
X73521100Y-70161233D01*
X73585983Y-70142602D01*
X73641750Y-70130824D01*
X73692046Y-70128321D01*
X73709868Y-70153919D01*
X73711601Y-70186371D01*
X73735236Y-70263603D01*
X73799097Y-70333188D01*
X73892617Y-70388274D01*
X74005226Y-70422010D01*
X74086250Y-70429258D01*
X74128827Y-70435225D01*
X74137878Y-70456139D01*
X74111397Y-70496952D01*
G37*
X74111397Y-70496952D02*
X74047373Y-70562619D01*
X74022750Y-70585850D01*
X73884520Y-70699339D01*
X73750327Y-70772403D01*
X73604356Y-70811375D01*
X73431702Y-70822593D01*
X73312960Y-70819627D01*
X73225324Y-70808850D01*
X73149258Y-70786455D01*
X73073783Y-70752847D01*
X72989969Y-70707384D01*
X72919859Y-70661557D01*
X72887054Y-70633653D01*
X72860923Y-70599896D01*
X72862832Y-70573071D01*
X72897584Y-70537051D01*
X72922035Y-70516224D01*
X73006822Y-70425779D01*
X73058028Y-70331100D01*
X73076000Y-70240464D01*
X73061085Y-70162149D01*
X73013629Y-70104430D01*
X72933978Y-70075585D01*
X72903511Y-70073800D01*
X72826315Y-70098846D01*
X72756779Y-70173615D01*
X72695296Y-70297555D01*
X72652800Y-70429400D01*
X72631266Y-70542904D01*
X72616157Y-70691932D01*
X72607875Y-70861566D01*
X72606820Y-71036889D01*
X72613393Y-71202982D01*
X72627995Y-71344929D01*
X72628172Y-71346106D01*
X72649644Y-71488113D01*
X72564672Y-71527431D01*
X72468707Y-71568883D01*
X72406639Y-71586244D01*
X72368195Y-71580515D01*
X72343104Y-71552699D01*
X72341195Y-71549231D01*
X72296321Y-71430948D01*
X72262988Y-71265135D01*
X72241171Y-71051407D01*
X72230846Y-70789378D01*
X72231989Y-70478663D01*
X72244573Y-70118878D01*
X72246780Y-70073800D01*
X72254258Y-69917766D01*
X72258245Y-69803762D01*
X72258221Y-69723104D01*
X72253668Y-69667108D01*
X72244066Y-69627090D01*
X72228897Y-69594368D01*
X72216948Y-69574689D01*
X72144383Y-69492044D01*
X72036112Y-69408155D01*
X71905990Y-69332925D01*
X71832000Y-69299584D01*
X71736633Y-69273602D01*
X71602396Y-69254408D01*
X71440830Y-69242494D01*
X71263473Y-69238349D01*
X71081865Y-69242465D01*
X70907545Y-69255333D01*
X70875410Y-69258900D01*
X70625972Y-69288318D01*
X70518762Y-69166709D01*
X70462867Y-69099469D01*
X70423724Y-69045068D01*
X70410576Y-69017859D01*
X70433863Y-69003549D01*
X70498749Y-68983862D01*
X70596601Y-68960999D01*
X70718786Y-68937160D01*
X70746150Y-68932335D01*
X71000798Y-68892805D01*
X71250427Y-68862661D01*
X71487613Y-68842257D01*
X71704927Y-68831947D01*
X71894945Y-68832087D01*
X72050238Y-68843029D01*
X72162200Y-68864766D01*
X72237785Y-68890310D01*
X72342269Y-68928703D01*
X72457659Y-68973255D01*
X72505100Y-68992216D01*
X72733700Y-69084650D01*
X72888028Y-69381073D01*
X72951312Y-69496912D01*
X73012875Y-69599559D01*
X73066091Y-69678593D01*
X73104331Y-69723588D01*
X73107376Y-69726040D01*
X73164982Y-69755385D01*
X73241439Y-69777974D01*
X73319829Y-69790928D01*
X73383234Y-69791366D01*
X73413806Y-69778213D01*
X73414921Y-69742084D01*
X73400754Y-69679720D01*
X73394709Y-69660983D01*
X73377844Y-69595112D01*
X73384174Y-69566493D01*
X73387736Y-69565800D01*
X73418291Y-69580213D01*
X73480234Y-69619216D01*
X73564665Y-69676452D01*
X73662686Y-69745566D01*
X73765397Y-69820201D01*
X73863900Y-69894000D01*
X73949296Y-69960609D01*
X74003700Y-70005754D01*
X74057865Y-70057289D01*
X74088769Y-70095543D01*
X74091609Y-70108237D01*
X74061697Y-70109008D01*
X74001308Y-70094951D01*
X73964609Y-70083275D01*
X73849092Y-70059438D01*
X73726459Y-70059814D01*
X73614547Y-70082556D01*
X73531191Y-70125817D01*
X73528109Y-70128471D01*
X73491971Y-70162367D01*
X73493600Y-70169949D01*
X73521100Y-70161233D01*
X73585983Y-70142602D01*
X73641750Y-70130824D01*
X73692046Y-70128321D01*
X73709868Y-70153919D01*
X73711601Y-70186371D01*
X73735236Y-70263603D01*
X73799097Y-70333188D01*
X73892617Y-70388274D01*
X74005226Y-70422010D01*
X74086250Y-70429258D01*
X74128827Y-70435225D01*
X74137878Y-70456139D01*
X74111397Y-70496952D01*
G36*
X71313021Y-67142520D02*
G01*
X71278999Y-67159430D01*
X71266850Y-67163055D01*
X71213501Y-67174002D01*
X71121119Y-67188873D01*
X71001186Y-67206198D01*
X70865182Y-67224507D01*
X70724588Y-67242330D01*
X70590885Y-67258197D01*
X70475554Y-67270639D01*
X70390076Y-67278185D01*
X70355208Y-67279771D01*
X70313209Y-67279262D01*
X70283304Y-67272124D01*
X70258954Y-67249986D01*
X70233622Y-67204479D01*
X70200768Y-67127233D01*
X70163782Y-67034719D01*
X70170076Y-66996706D01*
X70178452Y-66989274D01*
X70211990Y-66981971D01*
X70286582Y-66972810D01*
X70392559Y-66962768D01*
X70520255Y-66952817D01*
X70580234Y-66948758D01*
X70720455Y-66939296D01*
X70849095Y-66929875D01*
X70954505Y-66921401D01*
X71025039Y-66914779D01*
X71039614Y-66913028D01*
X71094334Y-66911698D01*
X71141438Y-66930706D01*
X71197428Y-66978283D01*
X71223764Y-67004838D01*
X71287734Y-67073782D01*
X71316710Y-67116823D01*
X71313021Y-67142520D01*
G37*
X71313021Y-67142520D02*
X71278999Y-67159430D01*
X71266850Y-67163055D01*
X71213501Y-67174002D01*
X71121119Y-67188873D01*
X71001186Y-67206198D01*
X70865182Y-67224507D01*
X70724588Y-67242330D01*
X70590885Y-67258197D01*
X70475554Y-67270639D01*
X70390076Y-67278185D01*
X70355208Y-67279771D01*
X70313209Y-67279262D01*
X70283304Y-67272124D01*
X70258954Y-67249986D01*
X70233622Y-67204479D01*
X70200768Y-67127233D01*
X70163782Y-67034719D01*
X70170076Y-66996706D01*
X70178452Y-66989274D01*
X70211990Y-66981971D01*
X70286582Y-66972810D01*
X70392559Y-66962768D01*
X70520255Y-66952817D01*
X70580234Y-66948758D01*
X70720455Y-66939296D01*
X70849095Y-66929875D01*
X70954505Y-66921401D01*
X71025039Y-66914779D01*
X71039614Y-66913028D01*
X71094334Y-66911698D01*
X71141438Y-66930706D01*
X71197428Y-66978283D01*
X71223764Y-67004838D01*
X71287734Y-67073782D01*
X71316710Y-67116823D01*
X71313021Y-67142520D01*
G36*
X71456065Y-70942215D02*
G01*
X71400590Y-70995588D01*
X71318271Y-71061391D01*
X71217405Y-71132669D01*
X71178043Y-71158398D01*
X71042675Y-71233040D01*
X70892347Y-71296557D01*
X70743574Y-71343195D01*
X70612872Y-71367204D01*
X70572801Y-71369200D01*
X70409262Y-71349505D01*
X70241847Y-71295096D01*
X70083708Y-71212980D01*
X69947998Y-71110167D01*
X69847871Y-70993667D01*
X69838000Y-70977620D01*
X69801250Y-70897684D01*
X69772805Y-70804086D01*
X69755044Y-70710803D01*
X69750342Y-70631814D01*
X69761077Y-70581096D01*
X69769113Y-70572491D01*
X69815247Y-70564687D01*
X69829458Y-70567763D01*
X69874215Y-70580971D01*
X69945106Y-70600101D01*
X69971281Y-70606879D01*
X70053830Y-70638660D01*
X70105469Y-70690075D01*
X70120231Y-70716083D01*
X70213348Y-70859760D01*
X70324198Y-70956308D01*
X70453134Y-71005777D01*
X70600509Y-71008214D01*
X70766675Y-70963671D01*
X70951986Y-70872195D01*
X71005123Y-70839600D01*
X71081464Y-70795854D01*
X71146827Y-70766796D01*
X71177418Y-70759600D01*
X71224230Y-70770152D01*
X71292079Y-70796787D01*
X71365807Y-70831969D01*
X71430259Y-70868165D01*
X71470278Y-70897839D01*
X71476400Y-70908229D01*
X71456065Y-70942215D01*
G37*
X71456065Y-70942215D02*
X71400590Y-70995588D01*
X71318271Y-71061391D01*
X71217405Y-71132669D01*
X71178043Y-71158398D01*
X71042675Y-71233040D01*
X70892347Y-71296557D01*
X70743574Y-71343195D01*
X70612872Y-71367204D01*
X70572801Y-71369200D01*
X70409262Y-71349505D01*
X70241847Y-71295096D01*
X70083708Y-71212980D01*
X69947998Y-71110167D01*
X69847871Y-70993667D01*
X69838000Y-70977620D01*
X69801250Y-70897684D01*
X69772805Y-70804086D01*
X69755044Y-70710803D01*
X69750342Y-70631814D01*
X69761077Y-70581096D01*
X69769113Y-70572491D01*
X69815247Y-70564687D01*
X69829458Y-70567763D01*
X69874215Y-70580971D01*
X69945106Y-70600101D01*
X69971281Y-70606879D01*
X70053830Y-70638660D01*
X70105469Y-70690075D01*
X70120231Y-70716083D01*
X70213348Y-70859760D01*
X70324198Y-70956308D01*
X70453134Y-71005777D01*
X70600509Y-71008214D01*
X70766675Y-70963671D01*
X70951986Y-70872195D01*
X71005123Y-70839600D01*
X71081464Y-70795854D01*
X71146827Y-70766796D01*
X71177418Y-70759600D01*
X71224230Y-70770152D01*
X71292079Y-70796787D01*
X71365807Y-70831969D01*
X71430259Y-70868165D01*
X71470278Y-70897839D01*
X71476400Y-70908229D01*
X71456065Y-70942215D01*
G36*
X70547277Y-68162017D02*
G01*
X70512197Y-68186083D01*
X70447831Y-68175723D01*
X70361272Y-68142041D01*
X70282289Y-68103036D01*
X70242480Y-68067868D01*
X70231800Y-68029074D01*
X70213190Y-67934819D01*
X70157798Y-67807677D01*
X70066287Y-67649093D01*
X70036797Y-67603100D01*
X69930799Y-67434442D01*
X69853782Y-67295555D01*
X69801896Y-67177445D01*
X69771291Y-67071117D01*
X69758116Y-66967576D01*
X69757354Y-66950242D01*
X69758981Y-66847306D01*
X69768906Y-66750929D01*
X69781110Y-66695600D01*
X69832810Y-66598558D01*
X69919679Y-66496400D01*
X70028973Y-66400884D01*
X70147947Y-66323769D01*
X70219888Y-66290766D01*
X70315129Y-66257713D01*
X70404356Y-66231333D01*
X70454050Y-66220037D01*
X70505567Y-66215901D01*
X70531335Y-66230440D01*
X70533200Y-66271753D01*
X70513003Y-66347934D01*
X70495320Y-66401302D01*
X70454401Y-66490605D01*
X70392416Y-66562330D01*
X70331297Y-66610635D01*
X70207576Y-66719828D01*
X70131583Y-66834535D01*
X70104827Y-66952455D01*
X70104800Y-66956281D01*
X70120247Y-67037987D01*
X70165106Y-67154796D01*
X70237158Y-67302061D01*
X70334182Y-67475134D01*
X70419946Y-67615811D01*
X70481245Y-67717329D01*
X70519540Y-67795147D01*
X70541269Y-67866963D01*
X70552868Y-67950476D01*
X70556031Y-67989962D01*
X70559684Y-68098365D01*
X70547277Y-68162017D01*
G37*
X70547277Y-68162017D02*
X70512197Y-68186083D01*
X70447831Y-68175723D01*
X70361272Y-68142041D01*
X70282289Y-68103036D01*
X70242480Y-68067868D01*
X70231800Y-68029074D01*
X70213190Y-67934819D01*
X70157798Y-67807677D01*
X70066287Y-67649093D01*
X70036797Y-67603100D01*
X69930799Y-67434442D01*
X69853782Y-67295555D01*
X69801896Y-67177445D01*
X69771291Y-67071117D01*
X69758116Y-66967576D01*
X69757354Y-66950242D01*
X69758981Y-66847306D01*
X69768906Y-66750929D01*
X69781110Y-66695600D01*
X69832810Y-66598558D01*
X69919679Y-66496400D01*
X70028973Y-66400884D01*
X70147947Y-66323769D01*
X70219888Y-66290766D01*
X70315129Y-66257713D01*
X70404356Y-66231333D01*
X70454050Y-66220037D01*
X70505567Y-66215901D01*
X70531335Y-66230440D01*
X70533200Y-66271753D01*
X70513003Y-66347934D01*
X70495320Y-66401302D01*
X70454401Y-66490605D01*
X70392416Y-66562330D01*
X70331297Y-66610635D01*
X70207576Y-66719828D01*
X70131583Y-66834535D01*
X70104827Y-66952455D01*
X70104800Y-66956281D01*
X70120247Y-67037987D01*
X70165106Y-67154796D01*
X70237158Y-67302061D01*
X70334182Y-67475134D01*
X70419946Y-67615811D01*
X70481245Y-67717329D01*
X70519540Y-67795147D01*
X70541269Y-67866963D01*
X70552868Y-67950476D01*
X70556031Y-67989962D01*
X70559684Y-68098365D01*
X70547277Y-68162017D01*
G36*
X70501908Y-70472027D02*
G01*
X70478296Y-70555431D01*
X70445356Y-70613296D01*
X70411664Y-70632600D01*
X70343509Y-70624322D01*
X70242313Y-70602296D01*
X70122557Y-70570733D01*
X69998719Y-70533844D01*
X69885278Y-70495840D01*
X69796713Y-70460933D01*
X69762524Y-70443808D01*
X69619105Y-70335676D01*
X69520868Y-70206384D01*
X69472335Y-70074552D01*
X69447190Y-69889906D01*
X69458358Y-69733900D01*
X69493444Y-69625346D01*
X69533895Y-69559292D01*
X69599051Y-69476753D01*
X69678403Y-69388640D01*
X69761445Y-69305867D01*
X69837671Y-69239346D01*
X69896573Y-69199989D01*
X69907050Y-69195770D01*
X69962783Y-69202374D01*
X70027550Y-69245966D01*
X70089625Y-69317168D01*
X70118401Y-69364762D01*
X70133640Y-69400191D01*
X70132194Y-69430748D01*
X70108166Y-69467452D01*
X70055664Y-69521323D01*
X70013017Y-69561790D01*
X69892763Y-69694314D01*
X69822119Y-69817588D01*
X69800523Y-69930332D01*
X69827412Y-70031261D01*
X69902227Y-70119094D01*
X70024404Y-70192549D01*
X70193382Y-70250342D01*
X70327050Y-70278729D01*
X70421752Y-70296334D01*
X70476839Y-70312127D01*
X70502945Y-70331750D01*
X70510708Y-70360844D01*
X70511059Y-70376317D01*
X70501908Y-70472027D01*
G37*
X70501908Y-70472027D02*
X70478296Y-70555431D01*
X70445356Y-70613296D01*
X70411664Y-70632600D01*
X70343509Y-70624322D01*
X70242313Y-70602296D01*
X70122557Y-70570733D01*
X69998719Y-70533844D01*
X69885278Y-70495840D01*
X69796713Y-70460933D01*
X69762524Y-70443808D01*
X69619105Y-70335676D01*
X69520868Y-70206384D01*
X69472335Y-70074552D01*
X69447190Y-69889906D01*
X69458358Y-69733900D01*
X69493444Y-69625346D01*
X69533895Y-69559292D01*
X69599051Y-69476753D01*
X69678403Y-69388640D01*
X69761445Y-69305867D01*
X69837671Y-69239346D01*
X69896573Y-69199989D01*
X69907050Y-69195770D01*
X69962783Y-69202374D01*
X70027550Y-69245966D01*
X70089625Y-69317168D01*
X70118401Y-69364762D01*
X70133640Y-69400191D01*
X70132194Y-69430748D01*
X70108166Y-69467452D01*
X70055664Y-69521323D01*
X70013017Y-69561790D01*
X69892763Y-69694314D01*
X69822119Y-69817588D01*
X69800523Y-69930332D01*
X69827412Y-70031261D01*
X69902227Y-70119094D01*
X70024404Y-70192549D01*
X70193382Y-70250342D01*
X70327050Y-70278729D01*
X70421752Y-70296334D01*
X70476839Y-70312127D01*
X70502945Y-70331750D01*
X70510708Y-70360844D01*
X70511059Y-70376317D01*
X70501908Y-70472027D01*
G36*
X74962147Y-66312518D02*
G01*
X74913174Y-66357989D01*
X74887941Y-66376411D01*
X74794282Y-66440054D01*
X74437091Y-66090609D01*
X74258820Y-65920856D01*
X74106526Y-65786919D01*
X73974527Y-65684883D01*
X73857142Y-65610834D01*
X73748691Y-65560858D01*
X73643491Y-65531041D01*
X73618299Y-65526483D01*
X73399852Y-65512421D01*
X73202893Y-65543119D01*
X73029599Y-65616351D01*
X72882145Y-65729891D01*
X72762708Y-65881513D01*
X72673464Y-66068992D01*
X72616588Y-66290102D01*
X72594256Y-66542616D01*
X72594000Y-66574280D01*
X72601657Y-66764199D01*
X72623193Y-66948013D01*
X72656462Y-67117622D01*
X72699312Y-67264926D01*
X72749597Y-67381824D01*
X72805168Y-67460215D01*
X72835008Y-67482843D01*
X72919918Y-67506050D01*
X72992660Y-67485974D01*
X73045357Y-67429951D01*
X73070131Y-67345319D01*
X73065740Y-67267972D01*
X73040927Y-67203666D01*
X72995562Y-67133038D01*
X72941616Y-67070870D01*
X72891063Y-67031948D01*
X72869633Y-67025800D01*
X72843487Y-67014817D01*
X72854441Y-66985768D01*
X72894774Y-66944502D01*
X72956768Y-66896868D01*
X73032703Y-66848714D01*
X73114861Y-66805890D01*
X73195521Y-66774244D01*
X73205625Y-66771219D01*
X73320295Y-66751796D01*
X73458067Y-66747725D01*
X73595172Y-66758393D01*
X73707840Y-66783189D01*
X73710801Y-66784217D01*
X73772044Y-66813497D01*
X73851356Y-66861723D01*
X73937948Y-66920925D01*
X74021032Y-66983138D01*
X74089817Y-67040391D01*
X74133516Y-67084718D01*
X74143400Y-67103703D01*
X74121619Y-67124817D01*
X74073550Y-67141377D01*
X73910575Y-67188153D01*
X73796245Y-67248462D01*
X73730160Y-67322589D01*
X73711600Y-67399751D01*
X73706912Y-67440617D01*
X73685171Y-67454830D01*
X73634866Y-67445120D01*
X73587094Y-67429263D01*
X73519459Y-67411827D01*
X73493694Y-67417562D01*
X73512614Y-67441886D01*
X73561246Y-67471357D01*
X73665431Y-67503792D01*
X73793734Y-67512728D01*
X73924918Y-67497548D01*
X73977091Y-67483399D01*
X74039768Y-67466574D01*
X74079007Y-67463211D01*
X74083089Y-67465021D01*
X74071725Y-67486832D01*
X74026966Y-67532377D01*
X73956513Y-67595527D01*
X73868065Y-67670156D01*
X73769324Y-67750135D01*
X73667991Y-67829337D01*
X73571766Y-67901633D01*
X73488351Y-67960896D01*
X73425447Y-68000999D01*
X73390898Y-68015811D01*
X73378841Y-67996006D01*
X73392331Y-67934528D01*
X73402891Y-67903509D01*
X73423454Y-67833626D01*
X73429516Y-67784546D01*
X73426116Y-67773249D01*
X73390217Y-67767480D01*
X73324069Y-67777987D01*
X73243781Y-67800272D01*
X73165465Y-67829839D01*
X73105230Y-67862191D01*
X73103798Y-67863210D01*
X73067443Y-67903256D01*
X73015516Y-67978522D01*
X72954696Y-68078563D01*
X72891665Y-68192931D01*
X72886100Y-68203593D01*
X72733700Y-68496990D01*
X72456422Y-68600837D01*
X72256880Y-68668461D01*
X72073469Y-68713189D01*
X71890235Y-68737045D01*
X71691223Y-68742052D01*
X71460478Y-68730233D01*
X71445474Y-68729049D01*
X71226612Y-68707484D01*
X70993759Y-68677573D01*
X70763071Y-68641824D01*
X70550705Y-68602740D01*
X70372817Y-68562828D01*
X70371500Y-68562492D01*
X70186839Y-68500835D01*
X70004134Y-68413408D01*
X69833278Y-68307060D01*
X69684165Y-68188639D01*
X69566687Y-68064993D01*
X69497397Y-67957437D01*
X69463001Y-67848604D01*
X69446641Y-67714961D01*
X69449745Y-67579708D01*
X69468133Y-67482835D01*
X69523977Y-67349815D01*
X69599310Y-67242259D01*
X69639637Y-67204412D01*
X69708888Y-67149939D01*
X69782989Y-67296483D01*
X69823116Y-67381166D01*
X69840777Y-67438729D01*
X69839332Y-67485796D01*
X69828545Y-67521967D01*
X69802982Y-67626352D01*
X69812355Y-67720402D01*
X69849739Y-67811118D01*
X69950451Y-67952965D01*
X70096081Y-68072904D01*
X70285527Y-68170542D01*
X70517688Y-68245489D01*
X70791464Y-68297351D01*
X71105754Y-68325738D01*
X71311300Y-68331326D01*
X71717700Y-68333900D01*
X71885916Y-68251596D01*
X71989127Y-68193187D01*
X72090328Y-68123067D01*
X72158966Y-68064457D01*
X72211953Y-68009612D01*
X72243185Y-67965715D01*
X72258429Y-67916363D01*
X72263452Y-67845156D01*
X72263982Y-67765761D01*
X72262057Y-67668514D01*
X72256651Y-67536106D01*
X72248529Y-67383999D01*
X72238451Y-67227652D01*
X72235240Y-67183299D01*
X72221861Y-66810378D01*
X72240366Y-66475963D01*
X72291058Y-66178774D01*
X72374237Y-65917528D01*
X72490204Y-65690945D01*
X72628793Y-65509058D01*
X72798627Y-65358913D01*
X72992913Y-65253253D01*
X73211398Y-65192175D01*
X73453829Y-65175778D01*
X73491980Y-65177165D01*
X73700569Y-65202744D01*
X73897145Y-65260601D01*
X74088686Y-65354335D01*
X74282171Y-65487543D01*
X74484580Y-65663823D01*
X74539683Y-65717308D01*
X74643290Y-65824538D01*
X74743088Y-65936302D01*
X74832915Y-66044776D01*
X74906611Y-66142139D01*
X74958014Y-66220570D01*
X74980965Y-66272244D01*
X74981600Y-66278378D01*
X74962147Y-66312518D01*
G37*
X74962147Y-66312518D02*
X74913174Y-66357989D01*
X74887941Y-66376411D01*
X74794282Y-66440054D01*
X74437091Y-66090609D01*
X74258820Y-65920856D01*
X74106526Y-65786919D01*
X73974527Y-65684883D01*
X73857142Y-65610834D01*
X73748691Y-65560858D01*
X73643491Y-65531041D01*
X73618299Y-65526483D01*
X73399852Y-65512421D01*
X73202893Y-65543119D01*
X73029599Y-65616351D01*
X72882145Y-65729891D01*
X72762708Y-65881513D01*
X72673464Y-66068992D01*
X72616588Y-66290102D01*
X72594256Y-66542616D01*
X72594000Y-66574280D01*
X72601657Y-66764199D01*
X72623193Y-66948013D01*
X72656462Y-67117622D01*
X72699312Y-67264926D01*
X72749597Y-67381824D01*
X72805168Y-67460215D01*
X72835008Y-67482843D01*
X72919918Y-67506050D01*
X72992660Y-67485974D01*
X73045357Y-67429951D01*
X73070131Y-67345319D01*
X73065740Y-67267972D01*
X73040927Y-67203666D01*
X72995562Y-67133038D01*
X72941616Y-67070870D01*
X72891063Y-67031948D01*
X72869633Y-67025800D01*
X72843487Y-67014817D01*
X72854441Y-66985768D01*
X72894774Y-66944502D01*
X72956768Y-66896868D01*
X73032703Y-66848714D01*
X73114861Y-66805890D01*
X73195521Y-66774244D01*
X73205625Y-66771219D01*
X73320295Y-66751796D01*
X73458067Y-66747725D01*
X73595172Y-66758393D01*
X73707840Y-66783189D01*
X73710801Y-66784217D01*
X73772044Y-66813497D01*
X73851356Y-66861723D01*
X73937948Y-66920925D01*
X74021032Y-66983138D01*
X74089817Y-67040391D01*
X74133516Y-67084718D01*
X74143400Y-67103703D01*
X74121619Y-67124817D01*
X74073550Y-67141377D01*
X73910575Y-67188153D01*
X73796245Y-67248462D01*
X73730160Y-67322589D01*
X73711600Y-67399751D01*
X73706912Y-67440617D01*
X73685171Y-67454830D01*
X73634866Y-67445120D01*
X73587094Y-67429263D01*
X73519459Y-67411827D01*
X73493694Y-67417562D01*
X73512614Y-67441886D01*
X73561246Y-67471357D01*
X73665431Y-67503792D01*
X73793734Y-67512728D01*
X73924918Y-67497548D01*
X73977091Y-67483399D01*
X74039768Y-67466574D01*
X74079007Y-67463211D01*
X74083089Y-67465021D01*
X74071725Y-67486832D01*
X74026966Y-67532377D01*
X73956513Y-67595527D01*
X73868065Y-67670156D01*
X73769324Y-67750135D01*
X73667991Y-67829337D01*
X73571766Y-67901633D01*
X73488351Y-67960896D01*
X73425447Y-68000999D01*
X73390898Y-68015811D01*
X73378841Y-67996006D01*
X73392331Y-67934528D01*
X73402891Y-67903509D01*
X73423454Y-67833626D01*
X73429516Y-67784546D01*
X73426116Y-67773249D01*
X73390217Y-67767480D01*
X73324069Y-67777987D01*
X73243781Y-67800272D01*
X73165465Y-67829839D01*
X73105230Y-67862191D01*
X73103798Y-67863210D01*
X73067443Y-67903256D01*
X73015516Y-67978522D01*
X72954696Y-68078563D01*
X72891665Y-68192931D01*
X72886100Y-68203593D01*
X72733700Y-68496990D01*
X72456422Y-68600837D01*
X72256880Y-68668461D01*
X72073469Y-68713189D01*
X71890235Y-68737045D01*
X71691223Y-68742052D01*
X71460478Y-68730233D01*
X71445474Y-68729049D01*
X71226612Y-68707484D01*
X70993759Y-68677573D01*
X70763071Y-68641824D01*
X70550705Y-68602740D01*
X70372817Y-68562828D01*
X70371500Y-68562492D01*
X70186839Y-68500835D01*
X70004134Y-68413408D01*
X69833278Y-68307060D01*
X69684165Y-68188639D01*
X69566687Y-68064993D01*
X69497397Y-67957437D01*
X69463001Y-67848604D01*
X69446641Y-67714961D01*
X69449745Y-67579708D01*
X69468133Y-67482835D01*
X69523977Y-67349815D01*
X69599310Y-67242259D01*
X69639637Y-67204412D01*
X69708888Y-67149939D01*
X69782989Y-67296483D01*
X69823116Y-67381166D01*
X69840777Y-67438729D01*
X69839332Y-67485796D01*
X69828545Y-67521967D01*
X69802982Y-67626352D01*
X69812355Y-67720402D01*
X69849739Y-67811118D01*
X69950451Y-67952965D01*
X70096081Y-68072904D01*
X70285527Y-68170542D01*
X70517688Y-68245489D01*
X70791464Y-68297351D01*
X71105754Y-68325738D01*
X71311300Y-68331326D01*
X71717700Y-68333900D01*
X71885916Y-68251596D01*
X71989127Y-68193187D01*
X72090328Y-68123067D01*
X72158966Y-68064457D01*
X72211953Y-68009612D01*
X72243185Y-67965715D01*
X72258429Y-67916363D01*
X72263452Y-67845156D01*
X72263982Y-67765761D01*
X72262057Y-67668514D01*
X72256651Y-67536106D01*
X72248529Y-67383999D01*
X72238451Y-67227652D01*
X72235240Y-67183299D01*
X72221861Y-66810378D01*
X72240366Y-66475963D01*
X72291058Y-66178774D01*
X72374237Y-65917528D01*
X72490204Y-65690945D01*
X72628793Y-65509058D01*
X72798627Y-65358913D01*
X72992913Y-65253253D01*
X73211398Y-65192175D01*
X73453829Y-65175778D01*
X73491980Y-65177165D01*
X73700569Y-65202744D01*
X73897145Y-65260601D01*
X74088686Y-65354335D01*
X74282171Y-65487543D01*
X74484580Y-65663823D01*
X74539683Y-65717308D01*
X74643290Y-65824538D01*
X74743088Y-65936302D01*
X74832915Y-66044776D01*
X74906611Y-66142139D01*
X74958014Y-66220570D01*
X74980965Y-66272244D01*
X74981600Y-66278378D01*
X74962147Y-66312518D01*
G36*
X70553717Y-69642741D02*
G01*
X70537343Y-69715612D01*
X70511611Y-69780073D01*
X70467396Y-69868046D01*
X70412809Y-69965631D01*
X70355960Y-70058925D01*
X70304962Y-70134028D01*
X70268294Y-70176732D01*
X70233427Y-70190661D01*
X70177821Y-70183591D01*
X70105271Y-70160402D01*
X70034182Y-70131428D01*
X69987909Y-70106023D01*
X69977800Y-70094629D01*
X69990222Y-70064828D01*
X70023095Y-70004079D01*
X70069826Y-69924437D01*
X70079786Y-69908069D01*
X70170079Y-69737542D01*
X70217019Y-69588628D01*
X70220624Y-69456489D01*
X70180912Y-69336289D01*
X70097901Y-69223191D01*
X70082389Y-69207211D01*
X69960299Y-69112600D01*
X69833892Y-69068600D01*
X69703207Y-69075208D01*
X69568287Y-69132422D01*
X69429171Y-69240240D01*
X69427897Y-69241443D01*
X69292000Y-69369968D01*
X69292000Y-69281140D01*
X69307807Y-69195655D01*
X69347237Y-69110147D01*
X69349958Y-69106006D01*
X69406644Y-69043464D01*
X69486906Y-68979723D01*
X69534108Y-68950443D01*
X69619175Y-68909965D01*
X69701037Y-68888677D01*
X69803217Y-68881195D01*
X69838100Y-68880841D01*
X70022073Y-68901974D01*
X70187038Y-68962181D01*
X70328054Y-69055561D01*
X70440174Y-69176210D01*
X70518454Y-69318224D01*
X70557950Y-69475702D01*
X70553717Y-69642741D01*
G37*
X70553717Y-69642741D02*
X70537343Y-69715612D01*
X70511611Y-69780073D01*
X70467396Y-69868046D01*
X70412809Y-69965631D01*
X70355960Y-70058925D01*
X70304962Y-70134028D01*
X70268294Y-70176732D01*
X70233427Y-70190661D01*
X70177821Y-70183591D01*
X70105271Y-70160402D01*
X70034182Y-70131428D01*
X69987909Y-70106023D01*
X69977800Y-70094629D01*
X69990222Y-70064828D01*
X70023095Y-70004079D01*
X70069826Y-69924437D01*
X70079786Y-69908069D01*
X70170079Y-69737542D01*
X70217019Y-69588628D01*
X70220624Y-69456489D01*
X70180912Y-69336289D01*
X70097901Y-69223191D01*
X70082389Y-69207211D01*
X69960299Y-69112600D01*
X69833892Y-69068600D01*
X69703207Y-69075208D01*
X69568287Y-69132422D01*
X69429171Y-69240240D01*
X69427897Y-69241443D01*
X69292000Y-69369968D01*
X69292000Y-69281140D01*
X69307807Y-69195655D01*
X69347237Y-69110147D01*
X69349958Y-69106006D01*
X69406644Y-69043464D01*
X69486906Y-68979723D01*
X69534108Y-68950443D01*
X69619175Y-68909965D01*
X69701037Y-68888677D01*
X69803217Y-68881195D01*
X69838100Y-68880841D01*
X70022073Y-68901974D01*
X70187038Y-68962181D01*
X70328054Y-69055561D01*
X70440174Y-69176210D01*
X70518454Y-69318224D01*
X70557950Y-69475702D01*
X70553717Y-69642741D01*
G36*
X70184240Y-68618532D02*
G01*
X70130609Y-68645672D01*
X70051148Y-68670962D01*
X69958193Y-68690738D01*
X69864082Y-68701336D01*
X69832731Y-68702200D01*
X69681251Y-68680362D01*
X69533947Y-68620314D01*
X69406913Y-68530249D01*
X69335285Y-68448898D01*
X69307466Y-68390260D01*
X69293716Y-68325456D01*
X69295464Y-68271512D01*
X69314139Y-68245453D01*
X69318177Y-68245000D01*
X69349179Y-68262648D01*
X69397836Y-68307374D01*
X69423547Y-68335197D01*
X69506168Y-68416195D01*
X69591611Y-68466574D01*
X69695521Y-68492706D01*
X69830489Y-68500932D01*
X69959867Y-68508624D01*
X70070793Y-68527192D01*
X70153126Y-68554101D01*
X70196725Y-68586818D01*
X70199703Y-68593208D01*
X70184240Y-68618532D01*
G37*
X70184240Y-68618532D02*
X70130609Y-68645672D01*
X70051148Y-68670962D01*
X69958193Y-68690738D01*
X69864082Y-68701336D01*
X69832731Y-68702200D01*
X69681251Y-68680362D01*
X69533947Y-68620314D01*
X69406913Y-68530249D01*
X69335285Y-68448898D01*
X69307466Y-68390260D01*
X69293716Y-68325456D01*
X69295464Y-68271512D01*
X69314139Y-68245453D01*
X69318177Y-68245000D01*
X69349179Y-68262648D01*
X69397836Y-68307374D01*
X69423547Y-68335197D01*
X69506168Y-68416195D01*
X69591611Y-68466574D01*
X69695521Y-68492706D01*
X69830489Y-68500932D01*
X69959867Y-68508624D01*
X70070793Y-68527192D01*
X70153126Y-68554101D01*
X70196725Y-68586818D01*
X70199703Y-68593208D01*
X70184240Y-68618532D01*
G36*
X77400519Y-69303594D02*
G01*
X77341281Y-69677042D01*
X77274051Y-69964850D01*
X77189897Y-70236495D01*
X77082639Y-70509592D01*
X76948117Y-70797700D01*
X76714746Y-71210967D01*
X76442466Y-71592981D01*
X76133894Y-71941752D01*
X75791646Y-72255290D01*
X75418337Y-72531607D01*
X75016582Y-72768713D01*
X74588998Y-72964619D01*
X74138200Y-73117337D01*
X73786003Y-73202424D01*
X73677957Y-73222866D01*
X73578362Y-73237990D01*
X73476405Y-73248545D01*
X73361271Y-73255279D01*
X73222149Y-73258940D01*
X73048226Y-73260277D01*
X72949600Y-73260314D01*
X72702016Y-73257844D01*
X72492916Y-73249935D01*
X72310126Y-73234927D01*
X72141472Y-73211160D01*
X71974780Y-73176975D01*
X71797875Y-73130713D01*
X71629541Y-73080393D01*
X71187471Y-72920476D01*
X70779373Y-72725142D01*
X70399836Y-72491060D01*
X70043448Y-72214900D01*
X69710521Y-71899282D01*
X69408155Y-71556716D01*
X69150468Y-71201582D01*
X68934485Y-70828108D01*
X68757233Y-70430525D01*
X68615737Y-70003061D01*
X68514596Y-69578500D01*
X68495778Y-69451172D01*
X68480979Y-69285386D01*
X68470393Y-69093338D01*
X68464216Y-68887227D01*
X68462640Y-68679250D01*
X68465862Y-68481604D01*
X68474075Y-68306486D01*
X68487474Y-68166095D01*
X68491628Y-68138030D01*
X68594091Y-67656030D01*
X68740406Y-67196985D01*
X68929527Y-66762796D01*
X69160408Y-66355365D01*
X69432003Y-65976593D01*
X69743267Y-65628383D01*
X70005054Y-65385917D01*
X70385991Y-65092923D01*
X70788839Y-64844417D01*
X71210427Y-64641162D01*
X71647583Y-64483918D01*
X72097136Y-64373448D01*
X72555912Y-64310513D01*
X72883559Y-64300195D01*
X72883559Y-64666401D01*
X72622661Y-64675073D01*
X72377135Y-64695219D01*
X72162074Y-64726586D01*
X72111400Y-64736899D01*
X71665432Y-64859319D01*
X71242681Y-65024960D01*
X70845527Y-65231291D01*
X70476350Y-65475783D01*
X70137528Y-65755907D01*
X69831443Y-66069134D01*
X69560473Y-66412934D01*
X69326997Y-66784778D01*
X69133395Y-67182137D01*
X68982047Y-67602481D01*
X68875332Y-68043281D01*
X68848468Y-68205331D01*
X68829513Y-68379105D01*
X68817611Y-68581889D01*
X68812969Y-68796323D01*
X68815795Y-69005045D01*
X68826297Y-69190695D01*
X68835621Y-69278212D01*
X68920348Y-69734400D01*
X69050545Y-70171320D01*
X69224304Y-70586295D01*
X69439718Y-70976645D01*
X69694881Y-71339692D01*
X69987886Y-71672757D01*
X70316826Y-71973162D01*
X70679794Y-72238227D01*
X71074883Y-72465276D01*
X71120800Y-72488099D01*
X71548202Y-72670276D01*
X71983131Y-72802301D01*
X72424581Y-72884061D01*
X72871544Y-72915441D01*
X73323011Y-72896327D01*
X73777976Y-72826605D01*
X73889400Y-72801900D01*
X74313926Y-72676671D01*
X74719720Y-72506635D01*
X75103605Y-72294949D01*
X75462404Y-72044770D01*
X75792942Y-71759254D01*
X76092042Y-71441558D01*
X76356527Y-71094839D01*
X76583221Y-70722255D01*
X76768948Y-70326962D01*
X76910530Y-69912116D01*
X76949636Y-69760485D01*
X77010559Y-69462017D01*
X77046952Y-69177389D01*
X77060811Y-68885181D01*
X77056389Y-68615399D01*
X77013818Y-68165066D01*
X76924328Y-67729625D01*
X76790316Y-67311793D01*
X76614180Y-66914283D01*
X76398320Y-66539810D01*
X76145135Y-66191090D01*
X75857022Y-65870837D01*
X75536380Y-65581765D01*
X75185608Y-65326591D01*
X74807104Y-65108028D01*
X74403268Y-64928792D01*
X73976496Y-64791598D01*
X73607545Y-64711765D01*
X73391095Y-64684493D01*
X73144735Y-64669457D01*
X72883559Y-64666401D01*
X72883559Y-64300195D01*
X73020740Y-64295874D01*
X73488450Y-64330292D01*
X73955867Y-64414529D01*
X74003700Y-64426024D01*
X74252424Y-64492503D01*
X74472385Y-64564242D01*
X74685542Y-64649271D01*
X74913858Y-64755621D01*
X74938534Y-64767820D01*
X75349828Y-64999508D01*
X75728874Y-65268481D01*
X76074102Y-65571532D01*
X76383945Y-65905457D01*
X76656833Y-66267048D01*
X76891197Y-66653101D01*
X77085469Y-67060410D01*
X77238078Y-67485770D01*
X77347457Y-67925973D01*
X77412036Y-68377816D01*
X77430246Y-68838091D01*
X77400519Y-69303594D01*
G37*
X77400519Y-69303594D02*
X77341281Y-69677042D01*
X77274051Y-69964850D01*
X77189897Y-70236495D01*
X77082639Y-70509592D01*
X76948117Y-70797700D01*
X76714746Y-71210967D01*
X76442466Y-71592981D01*
X76133894Y-71941752D01*
X75791646Y-72255290D01*
X75418337Y-72531607D01*
X75016582Y-72768713D01*
X74588998Y-72964619D01*
X74138200Y-73117337D01*
X73786003Y-73202424D01*
X73677957Y-73222866D01*
X73578362Y-73237990D01*
X73476405Y-73248545D01*
X73361271Y-73255279D01*
X73222149Y-73258940D01*
X73048226Y-73260277D01*
X72949600Y-73260314D01*
X72702016Y-73257844D01*
X72492916Y-73249935D01*
X72310126Y-73234927D01*
X72141472Y-73211160D01*
X71974780Y-73176975D01*
X71797875Y-73130713D01*
X71629541Y-73080393D01*
X71187471Y-72920476D01*
X70779373Y-72725142D01*
X70399836Y-72491060D01*
X70043448Y-72214900D01*
X69710521Y-71899282D01*
X69408155Y-71556716D01*
X69150468Y-71201582D01*
X68934485Y-70828108D01*
X68757233Y-70430525D01*
X68615737Y-70003061D01*
X68514596Y-69578500D01*
X68495778Y-69451172D01*
X68480979Y-69285386D01*
X68470393Y-69093338D01*
X68464216Y-68887227D01*
X68462640Y-68679250D01*
X68465862Y-68481604D01*
X68474075Y-68306486D01*
X68487474Y-68166095D01*
X68491628Y-68138030D01*
X68594091Y-67656030D01*
X68740406Y-67196985D01*
X68929527Y-66762796D01*
X69160408Y-66355365D01*
X69432003Y-65976593D01*
X69743267Y-65628383D01*
X70005054Y-65385917D01*
X70385991Y-65092923D01*
X70788839Y-64844417D01*
X71210427Y-64641162D01*
X71647583Y-64483918D01*
X72097136Y-64373448D01*
X72555912Y-64310513D01*
X72883559Y-64300195D01*
X72883559Y-64666401D01*
X72622661Y-64675073D01*
X72377135Y-64695219D01*
X72162074Y-64726586D01*
X72111400Y-64736899D01*
X71665432Y-64859319D01*
X71242681Y-65024960D01*
X70845527Y-65231291D01*
X70476350Y-65475783D01*
X70137528Y-65755907D01*
X69831443Y-66069134D01*
X69560473Y-66412934D01*
X69326997Y-66784778D01*
X69133395Y-67182137D01*
X68982047Y-67602481D01*
X68875332Y-68043281D01*
X68848468Y-68205331D01*
X68829513Y-68379105D01*
X68817611Y-68581889D01*
X68812969Y-68796323D01*
X68815795Y-69005045D01*
X68826297Y-69190695D01*
X68835621Y-69278212D01*
X68920348Y-69734400D01*
X69050545Y-70171320D01*
X69224304Y-70586295D01*
X69439718Y-70976645D01*
X69694881Y-71339692D01*
X69987886Y-71672757D01*
X70316826Y-71973162D01*
X70679794Y-72238227D01*
X71074883Y-72465276D01*
X71120800Y-72488099D01*
X71548202Y-72670276D01*
X71983131Y-72802301D01*
X72424581Y-72884061D01*
X72871544Y-72915441D01*
X73323011Y-72896327D01*
X73777976Y-72826605D01*
X73889400Y-72801900D01*
X74313926Y-72676671D01*
X74719720Y-72506635D01*
X75103605Y-72294949D01*
X75462404Y-72044770D01*
X75792942Y-71759254D01*
X76092042Y-71441558D01*
X76356527Y-71094839D01*
X76583221Y-70722255D01*
X76768948Y-70326962D01*
X76910530Y-69912116D01*
X76949636Y-69760485D01*
X77010559Y-69462017D01*
X77046952Y-69177389D01*
X77060811Y-68885181D01*
X77056389Y-68615399D01*
X77013818Y-68165066D01*
X76924328Y-67729625D01*
X76790316Y-67311793D01*
X76614180Y-66914283D01*
X76398320Y-66539810D01*
X76145135Y-66191090D01*
X75857022Y-65870837D01*
X75536380Y-65581765D01*
X75185608Y-65326591D01*
X74807104Y-65108028D01*
X74403268Y-64928792D01*
X73976496Y-64791598D01*
X73607545Y-64711765D01*
X73391095Y-64684493D01*
X73144735Y-64669457D01*
X72883559Y-64666401D01*
X72883559Y-64300195D01*
X73020740Y-64295874D01*
X73488450Y-64330292D01*
X73955867Y-64414529D01*
X74003700Y-64426024D01*
X74252424Y-64492503D01*
X74472385Y-64564242D01*
X74685542Y-64649271D01*
X74913858Y-64755621D01*
X74938534Y-64767820D01*
X75349828Y-64999508D01*
X75728874Y-65268481D01*
X76074102Y-65571532D01*
X76383945Y-65905457D01*
X76656833Y-66267048D01*
X76891197Y-66653101D01*
X77085469Y-67060410D01*
X77238078Y-67485770D01*
X77347457Y-67925973D01*
X77412036Y-68377816D01*
X77430246Y-68838091D01*
X77400519Y-69303594D01*
D11*
X68131977Y-54106885D02*
X68072115Y-54067463D01*
X67987604Y-53936049D01*
X67962955Y-53844056D01*
X67973517Y-53699492D01*
X68043942Y-53594348D01*
X68126692Y-53535202D01*
X68304515Y-53462905D01*
X68447126Y-53443179D01*
X68649599Y-53462875D01*
X68756998Y-53495721D01*
X68876722Y-53574564D01*
X68961233Y-53705978D01*
X68985882Y-53797971D01*
X68975319Y-53942535D01*
X68940107Y-53995107D01*
X68147825Y-54534003D02*
X68813344Y-54441951D01*
X69146104Y-54395925D02*
X69086242Y-54356504D01*
X69051029Y-54409075D01*
X69110891Y-54448497D01*
X69146104Y-54395925D01*
X69051029Y-54409075D01*
X68381995Y-55407936D02*
X68904903Y-55335609D01*
X68987652Y-55276463D01*
X69010540Y-55177895D01*
X68961241Y-54993909D01*
X68889054Y-54908491D01*
X68429532Y-55401361D02*
X68357345Y-55315943D01*
X68295722Y-55085961D01*
X68318610Y-54987393D01*
X68401359Y-54928246D01*
X68496433Y-54915096D01*
X68603832Y-54947942D01*
X68676018Y-55033360D01*
X68737642Y-55263342D01*
X68809828Y-55348760D01*
X68616165Y-56281869D02*
X69139072Y-56209542D01*
X69221822Y-56150395D01*
X69244709Y-56051827D01*
X69195410Y-55867842D01*
X69123224Y-55782424D01*
X68663702Y-56275294D02*
X68591515Y-56189876D01*
X68529892Y-55959894D01*
X68552779Y-55861326D01*
X68635529Y-55802179D01*
X68730603Y-55789029D01*
X68838001Y-55821875D01*
X68910188Y-55907292D01*
X68971812Y-56137275D01*
X69043998Y-56222693D01*
X69404930Y-56649781D02*
X68739412Y-56741834D01*
X69309856Y-56662932D02*
X69369718Y-56702353D01*
X69441905Y-56787771D01*
X69478879Y-56925760D01*
X69455991Y-57024328D01*
X69373242Y-57083475D01*
X68850334Y-57155802D01*
X68973581Y-57615767D02*
X69971860Y-57477688D01*
X69084504Y-58029735D02*
X69607411Y-57957408D01*
X69690161Y-57898261D01*
X69713048Y-57799693D01*
X69676074Y-57661704D01*
X69603888Y-57576286D01*
X69544026Y-57536865D01*
X69365206Y-51613228D02*
X70363484Y-51475149D01*
X70425108Y-51705132D01*
X70414545Y-51849696D01*
X70344120Y-51954839D01*
X70261371Y-52013986D01*
X70083547Y-52086283D01*
X69940936Y-52106009D01*
X69738463Y-52086313D01*
X69631064Y-52053467D01*
X69511341Y-51974624D01*
X69426829Y-51843210D01*
X69365206Y-51613228D01*
X69770160Y-52940550D02*
X69697973Y-52855132D01*
X69648674Y-52671146D01*
X69671562Y-52572578D01*
X69754311Y-52513431D01*
X70134608Y-52460830D01*
X70242007Y-52493676D01*
X70314193Y-52579094D01*
X70363492Y-52763080D01*
X70340604Y-52861648D01*
X70257855Y-52920795D01*
X70162781Y-52933945D01*
X69944460Y-52487131D01*
X69881082Y-53354518D02*
X69858194Y-53453086D01*
X69907493Y-53637072D01*
X69979680Y-53722490D01*
X70087079Y-53755336D01*
X70134616Y-53748761D01*
X70217365Y-53689614D01*
X70240253Y-53591046D01*
X70203279Y-53453057D01*
X70226166Y-53354489D01*
X70308916Y-53295342D01*
X70356453Y-53288767D01*
X70463851Y-53321613D01*
X70536038Y-53407030D01*
X70573012Y-53545020D01*
X70550125Y-53643588D01*
X70055390Y-54189030D02*
X70720909Y-54096978D01*
X71053668Y-54050951D02*
X70993806Y-54011530D01*
X70958594Y-54064102D01*
X71018456Y-54103523D01*
X71053668Y-54050951D01*
X70958594Y-54064102D01*
X70955078Y-54970910D02*
X70146948Y-55082688D01*
X70039550Y-55049842D01*
X69979688Y-55010421D01*
X69907501Y-54925003D01*
X69870527Y-54787013D01*
X69893415Y-54688445D01*
X70337097Y-55056387D02*
X70264910Y-54970970D01*
X70215611Y-54786984D01*
X70238499Y-54688416D01*
X70273711Y-54635844D01*
X70356461Y-54576697D01*
X70641683Y-54537246D01*
X70749082Y-54570093D01*
X70808944Y-54609514D01*
X70881130Y-54694932D01*
X70930429Y-54878917D01*
X70907541Y-54977486D01*
X71078326Y-55430875D02*
X70412807Y-55522927D01*
X70983251Y-55444025D02*
X71043113Y-55483447D01*
X71115300Y-55568864D01*
X71152274Y-55706854D01*
X71129386Y-55805422D01*
X71046637Y-55864569D01*
X70523729Y-55936896D01*
X70793111Y-56758257D02*
X70720925Y-56672839D01*
X70671626Y-56488853D01*
X70694513Y-56390285D01*
X70777263Y-56331138D01*
X71157559Y-56278537D01*
X71264958Y-56311383D01*
X71337145Y-56396801D01*
X71386443Y-56580787D01*
X71363556Y-56679355D01*
X71280806Y-56738502D01*
X71185732Y-56751652D01*
X70967411Y-56304838D01*
X70979744Y-57638765D02*
X71978022Y-57500686D01*
X71027281Y-57632190D02*
X70955094Y-57546772D01*
X70905795Y-57362786D01*
X70928683Y-57264218D01*
X70963895Y-57211646D01*
X71046645Y-57152500D01*
X71331867Y-57113049D01*
X71439266Y-57145895D01*
X71499128Y-57185316D01*
X71571314Y-57270734D01*
X71620613Y-57454720D01*
X71597725Y-57553288D01*
X71300186Y-58834673D02*
X72298464Y-58696595D01*
X71918168Y-58749196D02*
X71990355Y-58834614D01*
X72039653Y-59018600D01*
X72016766Y-59117168D01*
X71981553Y-59169739D01*
X71898804Y-59228886D01*
X71613582Y-59268337D01*
X71506183Y-59235491D01*
X71446321Y-59196070D01*
X71374135Y-59110652D01*
X71324836Y-58926666D01*
X71347723Y-58828098D01*
X72175225Y-59524561D02*
X71571330Y-59846595D01*
X72298472Y-59984525D02*
X71571330Y-59846595D01*
X71308995Y-59787478D01*
X71249134Y-59748057D01*
X71176947Y-59662639D01*
%LPC*%
D12*
X370066326Y-47711674D03*
X368899600Y-47228400D03*
X367732874Y-47711674D03*
X367249600Y-48878400D03*
X367732874Y-50045126D03*
X368899600Y-50528400D03*
X370066326Y-50045126D03*
X370549600Y-48878400D03*
D13*
X368899600Y-48878400D03*
D12*
X210066326Y-47711674D03*
X208899600Y-47228400D03*
X207732874Y-47711674D03*
X207249600Y-48878400D03*
X207732874Y-50045126D03*
X208899600Y-50528400D03*
X210066326Y-50045126D03*
X210549600Y-48878400D03*
D13*
X208899600Y-48878400D03*
D12*
X422566326Y-135211674D03*
X421399600Y-134728400D03*
X420232874Y-135211674D03*
X419749600Y-136378400D03*
X420232874Y-137545126D03*
X421399600Y-138028400D03*
X422566326Y-137545126D03*
X423049600Y-136378400D03*
D13*
X421399600Y-136378400D03*
D12*
X122566326Y-135211674D03*
X121399600Y-134728400D03*
X120232874Y-135211674D03*
X119749600Y-136378400D03*
X120232874Y-137545126D03*
X121399600Y-138028400D03*
X122566326Y-137545126D03*
X123049600Y-136378400D03*
D13*
X121399600Y-136378400D03*
D12*
X450084726Y-78944674D03*
X448918000Y-78461400D03*
X447751274Y-78944674D03*
X447268000Y-80111400D03*
X447751274Y-81278126D03*
X448918000Y-81761400D03*
X450084726Y-81278126D03*
X450568000Y-80111400D03*
D13*
X448918000Y-80111400D03*
D12*
X129984726Y-78944674D03*
X128818000Y-78461400D03*
X127651274Y-78944674D03*
X127168000Y-80111400D03*
X127651274Y-81278126D03*
X128818000Y-81761400D03*
X129984726Y-81278126D03*
X130468000Y-80111400D03*
D13*
X128818000Y-80111400D03*
D12*
X370015526Y-91711674D03*
X368848800Y-91228400D03*
X367682074Y-91711674D03*
X367198800Y-92878400D03*
X367682074Y-94045126D03*
X368848800Y-94528400D03*
X370015526Y-94045126D03*
X370498800Y-92878400D03*
D13*
X368848800Y-92878400D03*
D12*
X210015526Y-91711674D03*
X208848800Y-91228400D03*
X207682074Y-91711674D03*
X207198800Y-92878400D03*
X207682074Y-94045126D03*
X208848800Y-94528400D03*
X210015526Y-94045126D03*
X210498800Y-92878400D03*
D13*
X208848800Y-92878400D03*
D12*
X317566326Y-44711674D03*
X316399600Y-44228400D03*
X315232874Y-44711674D03*
X314749600Y-45878400D03*
X315232874Y-47045126D03*
X316399600Y-47528400D03*
X317566326Y-47045126D03*
X318049600Y-45878400D03*
D13*
X316399600Y-45878400D03*
D12*
X262566326Y-44711674D03*
X261399600Y-44228400D03*
X260232874Y-44711674D03*
X259749600Y-45878400D03*
X260232874Y-47045126D03*
X261399600Y-47528400D03*
X262566326Y-47045126D03*
X263049600Y-45878400D03*
D13*
X261399600Y-45878400D03*
D12*
X250015526Y-146711674D03*
X248848800Y-146228400D03*
X247682074Y-146711674D03*
X247198800Y-147878400D03*
X247682074Y-149045126D03*
X248848800Y-149528400D03*
X250015526Y-149045126D03*
X250498800Y-147878400D03*
D13*
X248848800Y-147878400D03*
D12*
X330015526Y-146711674D03*
X328848800Y-146228400D03*
X327682074Y-146711674D03*
X327198800Y-147878400D03*
X327682074Y-149045126D03*
X328848800Y-149528400D03*
X330015526Y-149045126D03*
X330498800Y-147878400D03*
D13*
X328848800Y-147878400D03*
D12*
X527566326Y-135211674D03*
X526399600Y-134728400D03*
X525232874Y-135211674D03*
X524749600Y-136378400D03*
X525232874Y-137545126D03*
X526399600Y-138028400D03*
X527566326Y-137545126D03*
X528049600Y-136378400D03*
D13*
X526399600Y-136378400D03*
D12*
X527566326Y-42711674D03*
X526399600Y-42228400D03*
X525232874Y-42711674D03*
X524749600Y-43878400D03*
X525232874Y-45045126D03*
X526399600Y-45528400D03*
X527566326Y-45045126D03*
X528049600Y-43878400D03*
D13*
X526399600Y-43878400D03*
D12*
X70066326Y-135211674D03*
X68899600Y-134728400D03*
X67732874Y-135211674D03*
X67249600Y-136378400D03*
X67732874Y-137545126D03*
X68899600Y-138028400D03*
X70066326Y-137545126D03*
X70549600Y-136378400D03*
D13*
X68899600Y-136378400D03*
D12*
X70066326Y-42711674D03*
X68899600Y-42228400D03*
X67732874Y-42711674D03*
X67249600Y-43878400D03*
X67732874Y-45045126D03*
X68899600Y-45528400D03*
X70066326Y-45045126D03*
X70549600Y-43878400D03*
D13*
X68899600Y-43878400D03*
M02*
