  0
SECTION
  2
HEADER
  9
$ACADVER
  1
AC1014
  9
$HANDSEED
  5
FFFF
  9
$MEASUREMENT
 70
     1
  0
ENDSEC
  0
SECTION
  2
TABLES
  0
TABLE
  2
VPORT
  5
8
330
0
100
AcDbSymbolTable
 70
     4
  0
VPORT
  5
2E
330
8
100
AcDbSymbolTableRecord
100
AcDbViewportTableRecord
  2
*ACTIVE
 70
     0
 10
0.0
 20
0.0
 11
1.0
 21
1.0
 12
210.0
 22
148.5
 13
0.0
 23
0.0
 14
10.0
 24
10.0
 15
10.0
 25
10.0
 16
0.0
 26
0.0
 36
1.0
 17
0.0
 27
0.0
 37
0.0
 40
341.0
 41
1.24
 42
50.0
 43
0.0
 44
0.0
 50
0.0
 51
0.0
 71
     0
 72
   100
 73
     1
 74
     3
 75
     0
 76
     0
 77
     0
 78
     0
  0
ENDTAB
  0
TABLE
  2
LTYPE
  5
5
330
0
100
AcDbSymbolTable
 70
     1
  0
LTYPE
  5
14
330
5
100
AcDbSymbolTableRecord
100
AcDbLinetypeTableRecord
  2
BYBLOCK
 70
     0
  3

 72
    65
 73
     0
 40
0.0
  0
LTYPE
  5
15
330
5
100
AcDbSymbolTableRecord
100
AcDbLinetypeTableRecord
  2
BYLAYER
 70
     0
  3

 72
    65
 73
     0
 40
0.0
  0
LTYPE
  5
16
330
5
100
AcDbSymbolTableRecord
100
AcDbLinetypeTableRecord
  2
CONTINUOUS
 70
     0
  3
Solid line
 72
    65
 73
     0
 40
0.0
  0
ENDTAB
  0
TABLE
  2
LAYER
  5
2
100
AcDbSymbolTable
 70
1
  0
LAYER
  5
50
100
AcDbSymbolTableRecord
100
AcDbLayerTableRecord
  2
0
 70
0
  6
CONTINUOUS
  0
ENDTAB
  0
TABLE
  2
STYLE
  5
3
330
0
100
AcDbSymbolTable
 70
     1
  0
STYLE
  5
11
330
3
100
AcDbSymbolTableRecord
100
AcDbTextStyleTableRecord
  2
STANDARD
 70
     0
 40
0.0
 41
1.0
 50
0.0
 71
     0
 42
2.5
  3
txt
  4

  0
ENDTAB
  0
TABLE
  2
VIEW
  5
6
330
0
100
AcDbSymbolTable
 70
     0
  0
ENDTAB
  0
TABLE
  2
UCS
  5
7
330
0
100
AcDbSymbolTable
 70
     0
  0
ENDTAB
  0
TABLE
  2
APPID
  5
9
330
0
100
AcDbSymbolTable
 70
     2
  0
APPID
  5
12
330
9
100
AcDbSymbolTableRecord
100
AcDbRegAppTableRecord
  2
ACAD
 70
     0
  0
ENDTAB
  0
TABLE
  2
DIMSTYLE
  5
A
330
0
100
AcDbSymbolTable
 70
     1
  0
DIMSTYLE
105
27
330
A
100
AcDbSymbolTableRecord
100
AcDbDimStyleTableRecord
  2
ISO-25
 70
     0
  3

  4

  5

  6

  7

 40
1.0
 41
2.5
 42
0.625
 43
3.75
 44
1.25
 45
0.0
 46
0.0
 47
0.0
 48
0.0
140
2.5
141
2.5
142
0.0
143
0.03937007874016
144
1.0
145
0.0
146
1.0
147
0.625
 71
     0
 72
     0
 73
     0
 74
     0
 75
     0
 76
     0
 77
     1
 78
     8
170
     0
171
     3
172
     1
173
     0
174
     0
175
     0
176
     0
177
     0
178
     0
270
     2
271
     2
272
     2
273
     2
274
     3
340
11
275
     0
280
     0
281
     0
282
     0
283
     0
284
     8
285
     0
286
     0
287
     3
288
     0
  0
ENDTAB
  0
TABLE
  2
BLOCK_RECORD
  5
1
330
0
100
AcDbSymbolTable
 70
     1
  0
BLOCK_RECORD
  5
1F
330
1
100
AcDbSymbolTableRecord
100
AcDbBlockTableRecord
  2
*MODEL_SPACE
  0
BLOCK_RECORD
  5
1B
330
1
100
AcDbSymbolTableRecord
100
AcDbBlockTableRecord
  2
*PAPER_SPACE
  0
ENDTAB
  0
ENDSEC
  0
SECTION
  2
BLOCKS
  0
BLOCK
  5
20
330
1F
100
AcDbEntity
  8
0
100
AcDbBlockBegin
  2
*MODEL_SPACE
 70
     0
 10
0.0
 20
0.0
 30
0.0
  3
*MODEL_SPACE
  1

  0
ENDBLK
  5
21
330
1F
100
AcDbEntity
  8
0
100
AcDbBlockEnd
  0
BLOCK
  5
1C
330
1B
100
AcDbEntity
 67
     1
  8
0
100
AcDbBlockBegin
  2
*PAPER_SPACE
  1

  0
ENDBLK
  5
1D
330
1B
100
AcDbEntity
 67
     1
  8
0
100
AcDbBlockEnd
  0
ENDSEC
  0
SECTION
  2
ENTITIES
  0
SPLINE
  5
100
100
AcDbEntity
  8
0
 62
7
100
AcDbSpline
 70
8
 71
3
 72
8
 73
4
 74
0
 40
0
 40
0
 40
0
 40
0
 40
1
 40
1
 40
1
 40
1
 10
80.000094
 20
-8.392828
 30
0.0
 10
79.555185
 20
-8.392828
 30
0.0
 10
79.154085
 20
-8.660834
 30
0.0
 10
78.983826
 20
-9.071876
 30
0.0
  0
SPLINE
  5
101
100
AcDbEntity
  8
0
 62
7
100
AcDbSpline
 70
8
 71
3
 72
8
 73
4
 74
0
 40
0
 40
0
 40
0
 40
0
 40
1
 40
1
 40
1
 40
1
 10
78.983826
 20
-9.071876
 30
0.0
 10
78.813567
 20
-9.482918
 30
0.0
 10
78.907678
 20
-9.956048
 30
0.0
 10
79.222276
 20
-10.270646
 30
0.0
  0
SPLINE
  5
102
100
AcDbEntity
  8
0
 62
7
100
AcDbSpline
 70
8
 71
3
 72
8
 73
4
 74
0
 40
0
 40
0
 40
0
 40
0
 40
1
 40
1
 40
1
 40
1
 10
79.222276
 20
-10.270646
 30
0.0
 10
79.536874
 20
-10.585244
 30
0.0
 10
80.010004
 20
-10.679355
 30
0.0
 10
80.421046
 20
-10.509096
 30
0.0
  0
SPLINE
  5
103
100
AcDbEntity
  8
0
 62
7
100
AcDbSpline
 70
8
 71
3
 72
8
 73
4
 74
0
 40
0
 40
0
 40
0
 40
0
 40
1
 40
1
 40
1
 40
1
 10
80.421046
 20
-10.509096
 30
0.0
 10
80.832088
 20
-10.338837
 30
0.0
 10
81.100094
 20
-9.937737
 30
0.0
 10
81.100094
 20
-9.492828
 30
0.0
  0
SPLINE
  5
104
100
AcDbEntity
  8
0
 62
7
100
AcDbSpline
 70
8
 71
3
 72
8
 73
4
 74
0
 40
0
 40
0
 40
0
 40
0
 40
1
 40
1
 40
1
 40
1
 10
81.100094
 20
-9.492828
 30
0.0
 10
81.100094
 20
-9.201090
 30
0.0
 10
80.984202
 20
-8.921301
 30
0.0
 10
80.777912
 20
-8.715011
 30
0.0
  0
SPLINE
  5
105
100
AcDbEntity
  8
0
 62
7
100
AcDbSpline
 70
8
 71
3
 72
8
 73
4
 74
0
 40
0
 40
0
 40
0
 40
0
 40
1
 40
1
 40
1
 40
1
 10
80.777912
 20
-8.715011
 30
0.0
 10
80.571622
 20
-8.508721
 30
0.0
 10
80.291832
 20
-8.392828
 30
0.0
 10
80.000094
 20
-8.392828
 30
0.0
  0
LINE
  5
106
100
AcDbEntity
  8
0
 62
7
100
AcDbLine
 10
80.000094
 20
-8.392828
 30
0.0
 11
80.000094
 21
-8.392828
 31
0.0
  0
SPLINE
  5
107
100
AcDbEntity
  8
0
 62
7
100
AcDbSpline
 70
8
 71
3
 72
8
 73
4
 74
0
 40
0
 40
0
 40
0
 40
0
 40
1
 40
1
 40
1
 40
1
 10
80.000094
 20
-134.392805
 30
0.0
 10
79.555185
 20
-134.392805
 30
0.0
 10
79.154085
 20
-134.660811
 30
0.0
 10
78.983826
 20
-135.071853
 30
0.0
  0
SPLINE
  5
108
100
AcDbEntity
  8
0
 62
7
100
AcDbSpline
 70
8
 71
3
 72
8
 73
4
 74
0
 40
0
 40
0
 40
0
 40
0
 40
1
 40
1
 40
1
 40
1
 10
78.983826
 20
-135.071853
 30
0.0
 10
78.813567
 20
-135.482895
 30
0.0
 10
78.907678
 20
-135.956025
 30
0.0
 10
79.222276
 20
-136.270623
 30
0.0
  0
SPLINE
  5
109
100
AcDbEntity
  8
0
 62
7
100
AcDbSpline
 70
8
 71
3
 72
8
 73
4
 74
0
 40
0
 40
0
 40
0
 40
0
 40
1
 40
1
 40
1
 40
1
 10
79.222276
 20
-136.270623
 30
0.0
 10
79.536874
 20
-136.585221
 30
0.0
 10
80.010004
 20
-136.679332
 30
0.0
 10
80.421046
 20
-136.509073
 30
0.0
  0
SPLINE
  5
10a
100
AcDbEntity
  8
0
 62
7
100
AcDbSpline
 70
8
 71
3
 72
8
 73
4
 74
0
 40
0
 40
0
 40
0
 40
0
 40
1
 40
1
 40
1
 40
1
 10
80.421046
 20
-136.509073
 30
0.0
 10
80.832088
 20
-136.338814
 30
0.0
 10
81.100094
 20
-135.937714
 30
0.0
 10
81.100094
 20
-135.492805
 30
0.0
  0
SPLINE
  5
10b
100
AcDbEntity
  8
0
 62
7
100
AcDbSpline
 70
8
 71
3
 72
8
 73
4
 74
0
 40
0
 40
0
 40
0
 40
0
 40
1
 40
1
 40
1
 40
1
 10
81.100094
 20
-135.492805
 30
0.0
 10
81.100094
 20
-135.201067
 30
0.0
 10
80.984202
 20
-134.921277
 30
0.0
 10
80.777912
 20
-134.714987
 30
0.0
  0
SPLINE
  5
10c
100
AcDbEntity
  8
0
 62
7
100
AcDbSpline
 70
8
 71
3
 72
8
 73
4
 74
0
 40
0
 40
0
 40
0
 40
0
 40
1
 40
1
 40
1
 40
1
 10
80.777912
 20
-134.714987
 30
0.0
 10
80.571622
 20
-134.508697
 30
0.0
 10
80.291832
 20
-134.392805
 30
0.0
 10
80.000094
 20
-134.392805
 30
0.0
  0
LINE
  5
10d
100
AcDbEntity
  8
0
 62
7
100
AcDbLine
 10
80.000094
 20
-134.392805
 30
0.0
 11
80.000094
 21
-134.392805
 31
0.0
  0
SPLINE
  5
10e
100
AcDbEntity
  8
0
 62
7
100
AcDbSpline
 70
8
 71
3
 72
8
 73
4
 74
0
 40
0
 40
0
 40
0
 40
0
 40
1
 40
1
 40
1
 40
1
 10
15.999993
 20
-8.392828
 30
0.0
 10
15.555085
 20
-8.392828
 30
0.0
 10
15.153985
 20
-8.660834
 30
0.0
 10
14.983726
 20
-9.071876
 30
0.0
  0
SPLINE
  5
10f
100
AcDbEntity
  8
0
 62
7
100
AcDbSpline
 70
8
 71
3
 72
8
 73
4
 74
0
 40
0
 40
0
 40
0
 40
0
 40
1
 40
1
 40
1
 40
1
 10
14.983726
 20
-9.071876
 30
0.0
 10
14.813466
 20
-9.482918
 30
0.0
 10
14.907578
 20
-9.956048
 30
0.0
 10
15.222176
 20
-10.270646
 30
0.0
  0
SPLINE
  5
110
100
AcDbEntity
  8
0
 62
7
100
AcDbSpline
 70
8
 71
3
 72
8
 73
4
 74
0
 40
0
 40
0
 40
0
 40
0
 40
1
 40
1
 40
1
 40
1
 10
15.222176
 20
-10.270646
 30
0.0
 10
15.536774
 20
-10.585244
 30
0.0
 10
16.009903
 20
-10.679355
 30
0.0
 10
16.420945
 20
-10.509096
 30
0.0
  0
SPLINE
  5
111
100
AcDbEntity
  8
0
 62
7
100
AcDbSpline
 70
8
 71
3
 72
8
 73
4
 74
0
 40
0
 40
0
 40
0
 40
0
 40
1
 40
1
 40
1
 40
1
 10
16.420945
 20
-10.509096
 30
0.0
 10
16.831987
 20
-10.338837
 30
0.0
 10
17.099994
 20
-9.937737
 30
0.0
 10
17.099994
 20
-9.492828
 30
0.0
  0
SPLINE
  5
112
100
AcDbEntity
  8
0
 62
7
100
AcDbSpline
 70
8
 71
3
 72
8
 73
4
 74
0
 40
0
 40
0
 40
0
 40
0
 40
1
 40
1
 40
1
 40
1
 10
17.099994
 20
-9.492828
 30
0.0
 10
17.099994
 20
-9.201090
 30
0.0
 10
16.984101
 20
-8.921301
 30
0.0
 10
16.777811
 20
-8.715011
 30
0.0
  0
SPLINE
  5
113
100
AcDbEntity
  8
0
 62
7
100
AcDbSpline
 70
8
 71
3
 72
8
 73
4
 74
0
 40
0
 40
0
 40
0
 40
0
 40
1
 40
1
 40
1
 40
1
 10
16.777811
 20
-8.715011
 30
0.0
 10
16.571521
 20
-8.508721
 30
0.0
 10
16.291732
 20
-8.392828
 30
0.0
 10
15.999993
 20
-8.392828
 30
0.0
  0
LINE
  5
114
100
AcDbEntity
  8
0
 62
7
100
AcDbLine
 10
15.999993
 20
-8.392828
 30
0.0
 11
15.999993
 21
-8.392828
 31
0.0
  0
SPLINE
  5
115
100
AcDbEntity
  8
0
 62
7
100
AcDbSpline
 70
8
 71
3
 72
8
 73
4
 74
0
 40
0
 40
0
 40
0
 40
0
 40
1
 40
1
 40
1
 40
1
 10
15.999993
 20
-134.392805
 30
0.0
 10
15.555085
 20
-134.392805
 30
0.0
 10
15.153985
 20
-134.660811
 30
0.0
 10
14.983726
 20
-135.071853
 30
0.0
  0
SPLINE
  5
116
100
AcDbEntity
  8
0
 62
7
100
AcDbSpline
 70
8
 71
3
 72
8
 73
4
 74
0
 40
0
 40
0
 40
0
 40
0
 40
1
 40
1
 40
1
 40
1
 10
14.983726
 20
-135.071853
 30
0.0
 10
14.813466
 20
-135.482895
 30
0.0
 10
14.907578
 20
-135.956025
 30
0.0
 10
15.222176
 20
-136.270623
 30
0.0
  0
SPLINE
  5
117
100
AcDbEntity
  8
0
 62
7
100
AcDbSpline
 70
8
 71
3
 72
8
 73
4
 74
0
 40
0
 40
0
 40
0
 40
0
 40
1
 40
1
 40
1
 40
1
 10
15.222176
 20
-136.270623
 30
0.0
 10
15.536774
 20
-136.585221
 30
0.0
 10
16.009903
 20
-136.679332
 30
0.0
 10
16.420945
 20
-136.509073
 30
0.0
  0
SPLINE
  5
118
100
AcDbEntity
  8
0
 62
7
100
AcDbSpline
 70
8
 71
3
 72
8
 73
4
 74
0
 40
0
 40
0
 40
0
 40
0
 40
1
 40
1
 40
1
 40
1
 10
16.420945
 20
-136.509073
 30
0.0
 10
16.831987
 20
-136.338814
 30
0.0
 10
17.099994
 20
-135.937714
 30
0.0
 10
17.099994
 20
-135.492805
 30
0.0
  0
SPLINE
  5
119
100
AcDbEntity
  8
0
 62
7
100
AcDbSpline
 70
8
 71
3
 72
8
 73
4
 74
0
 40
0
 40
0
 40
0
 40
0
 40
1
 40
1
 40
1
 40
1
 10
17.099994
 20
-135.492805
 30
0.0
 10
17.099994
 20
-135.201067
 30
0.0
 10
16.984101
 20
-134.921277
 30
0.0
 10
16.777811
 20
-134.714987
 30
0.0
  0
SPLINE
  5
11a
100
AcDbEntity
  8
0
 62
7
100
AcDbSpline
 70
8
 71
3
 72
8
 73
4
 74
0
 40
0
 40
0
 40
0
 40
0
 40
1
 40
1
 40
1
 40
1
 10
16.777811
 20
-134.714987
 30
0.0
 10
16.571521
 20
-134.508697
 30
0.0
 10
16.291732
 20
-134.392805
 30
0.0
 10
15.999993
 20
-134.392805
 30
0.0
  0
LINE
  5
11b
100
AcDbEntity
  8
0
 62
7
100
AcDbLine
 10
15.999993
 20
-134.392805
 30
0.0
 11
15.999993
 21
-134.392805
 31
0.0
  0
SPLINE
  5
11c
100
AcDbEntity
  8
0
 62
7
100
AcDbSpline
 70
8
 71
3
 72
8
 73
4
 74
0
 40
0
 40
0
 40
0
 40
0
 40
1
 40
1
 40
1
 40
1
 10
199.000110
 20
-8.392828
 30
0.0
 10
198.555201
 20
-8.392828
 30
0.0
 10
198.154101
 20
-8.660834
 30
0.0
 10
197.983842
 20
-9.071876
 30
0.0
  0
SPLINE
  5
11d
100
AcDbEntity
  8
0
 62
7
100
AcDbSpline
 70
8
 71
3
 72
8
 73
4
 74
0
 40
0
 40
0
 40
0
 40
0
 40
1
 40
1
 40
1
 40
1
 10
197.983842
 20
-9.071876
 30
0.0
 10
197.813583
 20
-9.482918
 30
0.0
 10
197.907694
 20
-9.956048
 30
0.0
 10
198.222292
 20
-10.270646
 30
0.0
  0
SPLINE
  5
11e
100
AcDbEntity
  8
0
 62
7
100
AcDbSpline
 70
8
 71
3
 72
8
 73
4
 74
0
 40
0
 40
0
 40
0
 40
0
 40
1
 40
1
 40
1
 40
1
 10
198.222292
 20
-10.270646
 30
0.0
 10
198.536890
 20
-10.585244
 30
0.0
 10
199.010020
 20
-10.679355
 30
0.0
 10
199.421062
 20
-10.509096
 30
0.0
  0
SPLINE
  5
11f
100
AcDbEntity
  8
0
 62
7
100
AcDbSpline
 70
8
 71
3
 72
8
 73
4
 74
0
 40
0
 40
0
 40
0
 40
0
 40
1
 40
1
 40
1
 40
1
 10
199.421062
 20
-10.509096
 30
0.0
 10
199.832104
 20
-10.338837
 30
0.0
 10
200.100110
 20
-9.937737
 30
0.0
 10
200.100110
 20
-9.492828
 30
0.0
  0
SPLINE
  5
120
100
AcDbEntity
  8
0
 62
7
100
AcDbSpline
 70
8
 71
3
 72
8
 73
4
 74
0
 40
0
 40
0
 40
0
 40
0
 40
1
 40
1
 40
1
 40
1
 10
200.100110
 20
-9.492828
 30
0.0
 10
200.100110
 20
-9.201090
 30
0.0
 10
199.984218
 20
-8.921301
 30
0.0
 10
199.777928
 20
-8.715011
 30
0.0
  0
SPLINE
  5
121
100
AcDbEntity
  8
0
 62
7
100
AcDbSpline
 70
8
 71
3
 72
8
 73
4
 74
0
 40
0
 40
0
 40
0
 40
0
 40
1
 40
1
 40
1
 40
1
 10
199.777928
 20
-8.715011
 30
0.0
 10
199.571638
 20
-8.508721
 30
0.0
 10
199.291848
 20
-8.392828
 30
0.0
 10
199.000110
 20
-8.392828
 30
0.0
  0
LINE
  5
122
100
AcDbEntity
  8
0
 62
7
100
AcDbLine
 10
199.000110
 20
-8.392828
 30
0.0
 11
199.000110
 21
-8.392828
 31
0.0
  0
SPLINE
  5
123
100
AcDbEntity
  8
0
 62
7
100
AcDbSpline
 70
8
 71
3
 72
8
 73
4
 74
0
 40
0
 40
0
 40
0
 40
0
 40
1
 40
1
 40
1
 40
1
 10
199.000110
 20
-134.392805
 30
0.0
 10
198.555201
 20
-134.392805
 30
0.0
 10
198.154101
 20
-134.660811
 30
0.0
 10
197.983842
 20
-135.071853
 30
0.0
  0
SPLINE
  5
124
100
AcDbEntity
  8
0
 62
7
100
AcDbSpline
 70
8
 71
3
 72
8
 73
4
 74
0
 40
0
 40
0
 40
0
 40
0
 40
1
 40
1
 40
1
 40
1
 10
197.983842
 20
-135.071853
 30
0.0
 10
197.813583
 20
-135.482895
 30
0.0
 10
197.907694
 20
-135.956025
 30
0.0
 10
198.222292
 20
-136.270623
 30
0.0
  0
SPLINE
  5
125
100
AcDbEntity
  8
0
 62
7
100
AcDbSpline
 70
8
 71
3
 72
8
 73
4
 74
0
 40
0
 40
0
 40
0
 40
0
 40
1
 40
1
 40
1
 40
1
 10
198.222292
 20
-136.270623
 30
0.0
 10
198.536890
 20
-136.585221
 30
0.0
 10
199.010020
 20
-136.679332
 30
0.0
 10
199.421062
 20
-136.509073
 30
0.0
  0
SPLINE
  5
126
100
AcDbEntity
  8
0
 62
7
100
AcDbSpline
 70
8
 71
3
 72
8
 73
4
 74
0
 40
0
 40
0
 40
0
 40
0
 40
1
 40
1
 40
1
 40
1
 10
199.421062
 20
-136.509073
 30
0.0
 10
199.832104
 20
-136.338814
 30
0.0
 10
200.100110
 20
-135.937714
 30
0.0
 10
200.100110
 20
-135.492805
 30
0.0
  0
SPLINE
  5
127
100
AcDbEntity
  8
0
 62
7
100
AcDbSpline
 70
8
 71
3
 72
8
 73
4
 74
0
 40
0
 40
0
 40
0
 40
0
 40
1
 40
1
 40
1
 40
1
 10
200.100110
 20
-135.492805
 30
0.0
 10
200.100110
 20
-135.201067
 30
0.0
 10
199.984218
 20
-134.921277
 30
0.0
 10
199.777928
 20
-134.714987
 30
0.0
  0
SPLINE
  5
128
100
AcDbEntity
  8
0
 62
7
100
AcDbSpline
 70
8
 71
3
 72
8
 73
4
 74
0
 40
0
 40
0
 40
0
 40
0
 40
1
 40
1
 40
1
 40
1
 10
199.777928
 20
-134.714987
 30
0.0
 10
199.571638
 20
-134.508697
 30
0.0
 10
199.291848
 20
-134.392805
 30
0.0
 10
199.000110
 20
-134.392805
 30
0.0
  0
LINE
  5
129
100
AcDbEntity
  8
0
 62
7
100
AcDbLine
 10
199.000110
 20
-134.392805
 30
0.0
 11
199.000110
 21
-134.392805
 31
0.0
  0
SPLINE
  5
12a
100
AcDbEntity
  8
0
 62
7
100
AcDbSpline
 70
8
 71
3
 72
8
 73
4
 74
0
 40
0
 40
0
 40
0
 40
0
 40
1
 40
1
 40
1
 40
1
 10
331.000100
 20
-8.392828
 30
0.0
 10
330.555191
 20
-8.392828
 30
0.0
 10
330.154091
 20
-8.660834
 30
0.0
 10
329.983832
 20
-9.071876
 30
0.0
  0
SPLINE
  5
12b
100
AcDbEntity
  8
0
 62
7
100
AcDbSpline
 70
8
 71
3
 72
8
 73
4
 74
0
 40
0
 40
0
 40
0
 40
0
 40
1
 40
1
 40
1
 40
1
 10
329.983832
 20
-9.071876
 30
0.0
 10
329.813573
 20
-9.482918
 30
0.0
 10
329.907684
 20
-9.956048
 30
0.0
 10
330.222282
 20
-10.270646
 30
0.0
  0
SPLINE
  5
12c
100
AcDbEntity
  8
0
 62
7
100
AcDbSpline
 70
8
 71
3
 72
8
 73
4
 74
0
 40
0
 40
0
 40
0
 40
0
 40
1
 40
1
 40
1
 40
1
 10
330.222282
 20
-10.270646
 30
0.0
 10
330.536880
 20
-10.585244
 30
0.0
 10
331.010010
 20
-10.679355
 30
0.0
 10
331.421052
 20
-10.509096
 30
0.0
  0
SPLINE
  5
12d
100
AcDbEntity
  8
0
 62
7
100
AcDbSpline
 70
8
 71
3
 72
8
 73
4
 74
0
 40
0
 40
0
 40
0
 40
0
 40
1
 40
1
 40
1
 40
1
 10
331.421052
 20
-10.509096
 30
0.0
 10
331.832094
 20
-10.338837
 30
0.0
 10
332.100100
 20
-9.937737
 30
0.0
 10
332.100100
 20
-9.492828
 30
0.0
  0
SPLINE
  5
12e
100
AcDbEntity
  8
0
 62
7
100
AcDbSpline
 70
8
 71
3
 72
8
 73
4
 74
0
 40
0
 40
0
 40
0
 40
0
 40
1
 40
1
 40
1
 40
1
 10
332.100100
 20
-9.492828
 30
0.0
 10
332.100100
 20
-9.201090
 30
0.0
 10
331.984208
 20
-8.921301
 30
0.0
 10
331.777918
 20
-8.715011
 30
0.0
  0
SPLINE
  5
12f
100
AcDbEntity
  8
0
 62
7
100
AcDbSpline
 70
8
 71
3
 72
8
 73
4
 74
0
 40
0
 40
0
 40
0
 40
0
 40
1
 40
1
 40
1
 40
1
 10
331.777918
 20
-8.715011
 30
0.0
 10
331.571628
 20
-8.508721
 30
0.0
 10
331.291838
 20
-8.392828
 30
0.0
 10
331.000100
 20
-8.392828
 30
0.0
  0
LINE
  5
130
100
AcDbEntity
  8
0
 62
7
100
AcDbLine
 10
331.000100
 20
-8.392828
 30
0.0
 11
331.000100
 21
-8.392828
 31
0.0
  0
SPLINE
  5
131
100
AcDbEntity
  8
0
 62
7
100
AcDbSpline
 70
8
 71
3
 72
8
 73
4
 74
0
 40
0
 40
0
 40
0
 40
0
 40
1
 40
1
 40
1
 40
1
 10
331.000100
 20
-134.392805
 30
0.0
 10
330.555191
 20
-134.392805
 30
0.0
 10
330.154091
 20
-134.660811
 30
0.0
 10
329.983832
 20
-135.071853
 30
0.0
  0
SPLINE
  5
132
100
AcDbEntity
  8
0
 62
7
100
AcDbSpline
 70
8
 71
3
 72
8
 73
4
 74
0
 40
0
 40
0
 40
0
 40
0
 40
1
 40
1
 40
1
 40
1
 10
329.983832
 20
-135.071853
 30
0.0
 10
329.813573
 20
-135.482895
 30
0.0
 10
329.907684
 20
-135.956025
 30
0.0
 10
330.222282
 20
-136.270623
 30
0.0
  0
SPLINE
  5
133
100
AcDbEntity
  8
0
 62
7
100
AcDbSpline
 70
8
 71
3
 72
8
 73
4
 74
0
 40
0
 40
0
 40
0
 40
0
 40
1
 40
1
 40
1
 40
1
 10
330.222282
 20
-136.270623
 30
0.0
 10
330.536880
 20
-136.585221
 30
0.0
 10
331.010010
 20
-136.679332
 30
0.0
 10
331.421052
 20
-136.509073
 30
0.0
  0
SPLINE
  5
134
100
AcDbEntity
  8
0
 62
7
100
AcDbSpline
 70
8
 71
3
 72
8
 73
4
 74
0
 40
0
 40
0
 40
0
 40
0
 40
1
 40
1
 40
1
 40
1
 10
331.421052
 20
-136.509073
 30
0.0
 10
331.832094
 20
-136.338814
 30
0.0
 10
332.100100
 20
-135.937714
 30
0.0
 10
332.100100
 20
-135.492805
 30
0.0
  0
SPLINE
  5
135
100
AcDbEntity
  8
0
 62
7
100
AcDbSpline
 70
8
 71
3
 72
8
 73
4
 74
0
 40
0
 40
0
 40
0
 40
0
 40
1
 40
1
 40
1
 40
1
 10
332.100100
 20
-135.492805
 30
0.0
 10
332.100100
 20
-135.201067
 30
0.0
 10
331.984208
 20
-134.921277
 30
0.0
 10
331.777918
 20
-134.714987
 30
0.0
  0
SPLINE
  5
136
100
AcDbEntity
  8
0
 62
7
100
AcDbSpline
 70
8
 71
3
 72
8
 73
4
 74
0
 40
0
 40
0
 40
0
 40
0
 40
1
 40
1
 40
1
 40
1
 10
331.777918
 20
-134.714987
 30
0.0
 10
331.571628
 20
-134.508697
 30
0.0
 10
331.291838
 20
-134.392805
 30
0.0
 10
331.000100
 20
-134.392805
 30
0.0
  0
LINE
  5
137
100
AcDbEntity
  8
0
 62
7
100
AcDbLine
 10
331.000100
 20
-134.392805
 30
0.0
 11
331.000100
 21
-134.392805
 31
0.0
  0
LINE
  5
138
100
AcDbEntity
  8
0
 62
7
100
AcDbLine
 10
318.963040
 20
-96.887345
 30
0.0
 11
332.933040
 21
-96.887345
 31
0.0
  0
LINE
  5
139
100
AcDbEntity
  8
0
 62
7
100
AcDbLine
 10
318.963040
 20
-110.857345
 30
0.0
 11
318.963040
 21
-96.887345
 31
0.0
  0
LINE
  5
13a
100
AcDbEntity
  8
0
 62
7
100
AcDbLine
 10
332.933040
 20
-110.857345
 30
0.0
 11
318.963040
 21
-110.857345
 31
0.0
  0
LINE
  5
13b
100
AcDbEntity
  8
0
 62
7
100
AcDbLine
 10
332.933040
 20
-96.887345
 30
0.0
 11
332.933040
 21
-110.857345
 31
0.0
  0
LINE
  5
13c
100
AcDbEntity
  8
0
 62
7
100
AcDbLine
 10
332.933040
 20
-77.837345
 30
0.0
 11
332.933040
 21
-91.807345
 31
0.0
  0
LINE
  5
13d
100
AcDbEntity
  8
0
 62
7
100
AcDbLine
 10
332.933040
 20
-91.807345
 30
0.0
 11
318.963040
 21
-91.807345
 31
0.0
  0
LINE
  5
13e
100
AcDbEntity
  8
0
 62
7
100
AcDbLine
 10
318.963040
 20
-91.807345
 30
0.0
 11
318.963040
 21
-77.837345
 31
0.0
  0
LINE
  5
13f
100
AcDbEntity
  8
0
 62
7
100
AcDbLine
 10
318.963040
 20
-77.837345
 30
0.0
 11
332.933040
 21
-77.837345
 31
0.0
  0
LINE
  5
140
100
AcDbEntity
  8
0
 62
7
100
AcDbLine
 10
332.922880
 20
-58.797505
 30
0.0
 11
332.922880
 21
-72.767505
 31
0.0
  0
LINE
  5
141
100
AcDbEntity
  8
0
 62
7
100
AcDbLine
 10
332.922880
 20
-72.767505
 30
0.0
 11
318.952880
 21
-72.767505
 31
0.0
  0
LINE
  5
142
100
AcDbEntity
  8
0
 62
7
100
AcDbLine
 10
318.952880
 20
-72.767505
 30
0.0
 11
318.952880
 21
-58.797505
 31
0.0
  0
LINE
  5
143
100
AcDbEntity
  8
0
 62
7
100
AcDbLine
 10
318.952880
 20
-58.797505
 30
0.0
 11
332.922880
 21
-58.797505
 31
0.0
  0
LINE
  5
144
100
AcDbEntity
  8
0
 62
7
100
AcDbLine
 10
241.874040
 20
-115.975445
 30
0.0
 11
255.844040
 21
-115.975445
 31
0.0
  0
LINE
  5
145
100
AcDbEntity
  8
0
 62
7
100
AcDbLine
 10
255.844040
 20
-115.975445
 30
0.0
 11
255.844040
 21
-129.945445
 31
0.0
  0
LINE
  5
146
100
AcDbEntity
  8
0
 62
7
100
AcDbLine
 10
255.844040
 20
-129.945445
 30
0.0
 11
241.874040
 21
-129.945445
 31
0.0
  0
LINE
  5
147
100
AcDbEntity
  8
0
 62
7
100
AcDbLine
 10
241.874040
 20
-129.945445
 30
0.0
 11
241.874040
 21
-115.975445
 31
0.0
  0
LINE
  5
148
100
AcDbEntity
  8
0
 62
7
100
AcDbLine
 10
203.692760
 20
-115.975445
 30
0.0
 11
217.662760
 21
-115.975445
 31
0.0
  0
LINE
  5
149
100
AcDbEntity
  8
0
 62
7
100
AcDbLine
 10
217.662760
 20
-115.975445
 30
0.0
 11
217.662760
 21
-129.945445
 31
0.0
  0
LINE
  5
14a
100
AcDbEntity
  8
0
 62
7
100
AcDbLine
 10
217.662760
 20
-129.945445
 30
0.0
 11
203.692760
 21
-129.945445
 31
0.0
  0
LINE
  5
14b
100
AcDbEntity
  8
0
 62
7
100
AcDbLine
 10
203.692760
 20
-129.945445
 30
0.0
 11
203.692760
 21
-115.975445
 31
0.0
  0
LINE
  5
14c
100
AcDbEntity
  8
0
 62
7
100
AcDbLine
 10
254.172720
 20
-110.895445
 30
0.0
 11
254.172720
 21
-96.925445
 31
0.0
  0
LINE
  5
14d
100
AcDbEntity
  8
0
 62
7
100
AcDbLine
 10
268.142720
 20
-110.895445
 30
0.0
 11
254.172720
 21
-110.895445
 31
0.0
  0
LINE
  5
14e
100
AcDbEntity
  8
0
 62
7
100
AcDbLine
 10
268.142720
 20
-96.925445
 30
0.0
 11
268.142720
 21
-110.895445
 31
0.0
  0
LINE
  5
14f
100
AcDbEntity
  8
0
 62
7
100
AcDbLine
 10
254.172720
 20
-96.925445
 30
0.0
 11
268.142720
 21
-96.925445
 31
0.0
  0
LINE
  5
150
100
AcDbEntity
  8
0
 62
7
100
AcDbLine
 10
259.328920
 20
-85.350665
 30
0.0
 11
259.328920
 21
-82.556665
 31
0.0
  0
LINE
  5
151
100
AcDbEntity
  8
0
 62
7
100
AcDbLine
 10
260.192520
 20
-85.350665
 30
0.0
 11
259.328920
 21
-85.350665
 31
0.0
  0
LINE
  5
152
100
AcDbEntity
  8
0
 62
7
100
AcDbLine
 10
291.586920
 20
-85.350665
 30
0.0
 11
290.723320
 21
-85.350665
 31
0.0
  0
LINE
  5
153
100
AcDbEntity
  8
0
 62
7
100
AcDbLine
 10
266.847320
 20
-90.659265
 30
0.0
 11
266.847320
 21
-91.446665
 31
0.0
  0
LINE
  5
154
100
AcDbEntity
  8
0
 62
7
100
AcDbLine
 10
266.847320
 20
-91.446665
 30
0.0
 11
265.805920
 21
-91.446665
 31
0.0
  0
LINE
  5
155
100
AcDbEntity
  8
0
 62
7
100
AcDbLine
 10
266.847320
 20
-79.153065
 30
0.0
 11
266.847320
 21
-79.965865
 31
0.0
  0
LINE
  5
156
100
AcDbEntity
  8
0
 62
7
100
AcDbLine
 10
284.068520
 20
-79.965865
 30
0.0
 11
284.068520
 21
-79.153065
 31
0.0
  0
LINE
  5
157
100
AcDbEntity
  8
0
 62
7
100
AcDbLine
 10
282.442920
 20
-79.965865
 30
0.0
 11
284.068520
 21
-79.965865
 31
0.0
  0
LINE
  5
158
100
AcDbEntity
  8
0
 62
7
100
AcDbLine
 10
284.068520
 20
-90.659265
 30
0.0
 11
282.442920
 21
-90.659265
 31
0.0
  0
LINE
  5
159
100
AcDbEntity
  8
0
 62
7
100
AcDbLine
 10
282.442920
 20
-91.827665
 30
0.0
 11
268.472920
 21
-91.827665
 31
0.0
  0
LINE
  5
15a
100
AcDbEntity
  8
0
 62
7
100
AcDbLine
 10
259.328920
 20
-82.556665
 30
0.0
 11
260.192520
 21
-82.556665
 31
0.0
  0
LINE
  5
15b
100
AcDbEntity
  8
0
 62
7
100
AcDbLine
 10
261.233920
 20
-92.615065
 30
0.0
 11
261.233920
 21
-91.446665
 31
0.0
  0
LINE
  5
15c
100
AcDbEntity
  8
0
 62
7
100
AcDbLine
 10
284.068520
 20
-79.153065
 30
0.0
 11
290.723320
 21
-79.153065
 31
0.0
  0
LINE
  5
15d
100
AcDbEntity
  8
0
 62
7
100
AcDbLine
 10
289.681920
 20
-92.615065
 30
0.0
 11
285.109920
 21
-92.615065
 31
0.0
  0
LINE
  5
15e
100
AcDbEntity
  8
0
 62
7
100
AcDbLine
 10
290.723320
 20
-91.446665
 30
0.0
 11
289.681920
 21
-91.446665
 31
0.0
  0
LINE
  5
15f
100
AcDbEntity
  8
0
 62
7
100
AcDbLine
 10
261.233920
 20
-91.446665
 30
0.0
 11
260.192520
 21
-91.446665
 31
0.0
  0
LINE
  5
160
100
AcDbEntity
  8
0
 62
7
100
AcDbLine
 10
290.723320
 20
-82.556665
 30
0.0
 11
291.586920
 21
-82.556665
 31
0.0
  0
LINE
  5
161
100
AcDbEntity
  8
0
 62
7
100
AcDbLine
 10
265.805920
 20
-92.615065
 30
0.0
 11
261.233920
 21
-92.615065
 31
0.0
  0
LINE
  5
162
100
AcDbEntity
  8
0
 62
7
100
AcDbLine
 10
284.068520
 20
-91.446665
 30
0.0
 11
284.068520
 21
-90.659265
 31
0.0
  0
LINE
  5
163
100
AcDbEntity
  8
0
 62
7
100
AcDbLine
 10
290.723320
 20
-79.153065
 30
0.0
 11
290.723320
 21
-82.556665
 31
0.0
  0
LINE
  5
164
100
AcDbEntity
  8
0
 62
7
100
AcDbLine
 10
282.442920
 20
-90.659265
 30
0.0
 11
282.442920
 21
-91.827665
 31
0.0
  0
LINE
  5
165
100
AcDbEntity
  8
0
 62
7
100
AcDbLine
 10
266.847320
 20
-79.965865
 30
0.0
 11
268.472920
 21
-79.965865
 31
0.0
  0
LINE
  5
166
100
AcDbEntity
  8
0
 62
7
100
AcDbLine
 10
265.805920
 20
-91.446665
 30
0.0
 11
265.805920
 21
-92.615065
 31
0.0
  0
LINE
  5
167
100
AcDbEntity
  8
0
 62
7
100
AcDbLine
 10
285.109920
 20
-91.446665
 30
0.0
 11
284.068520
 21
-91.446665
 31
0.0
  0
LINE
  5
168
100
AcDbEntity
  8
0
 62
7
100
AcDbLine
 10
282.442920
 20
-77.857665
 30
0.0
 11
282.442920
 21
-79.965865
 31
0.0
  0
LINE
  5
169
100
AcDbEntity
  8
0
 62
7
100
AcDbLine
 10
260.192520
 20
-91.446665
 30
0.0
 11
260.192520
 21
-85.350665
 31
0.0
  0
LINE
  5
16a
100
AcDbEntity
  8
0
 62
7
100
AcDbLine
 10
260.192520
 20
-79.153065
 30
0.0
 11
266.847320
 21
-79.153065
 31
0.0
  0
LINE
  5
16b
100
AcDbEntity
  8
0
 62
7
100
AcDbLine
 10
268.472920
 20
-79.965865
 30
0.0
 11
268.472920
 21
-77.857665
 31
0.0
  0
LINE
  5
16c
100
AcDbEntity
  8
0
 62
7
100
AcDbLine
 10
268.472920
 20
-77.857665
 30
0.0
 11
282.442920
 21
-77.857665
 31
0.0
  0
LINE
  5
16d
100
AcDbEntity
  8
0
 62
7
100
AcDbLine
 10
260.192520
 20
-82.556665
 30
0.0
 11
260.192520
 21
-79.153065
 31
0.0
  0
LINE
  5
16e
100
AcDbEntity
  8
0
 62
7
100
AcDbLine
 10
290.723320
 20
-85.350665
 30
0.0
 11
290.723320
 21
-91.446665
 31
0.0
  0
LINE
  5
16f
100
AcDbEntity
  8
0
 62
7
100
AcDbLine
 10
268.472920
 20
-91.827665
 30
0.0
 11
268.472920
 21
-90.659265
 31
0.0
  0
LINE
  5
170
100
AcDbEntity
  8
0
 62
7
100
AcDbLine
 10
289.681920
 20
-91.446665
 30
0.0
 11
289.681920
 21
-92.615065
 31
0.0
  0
LINE
  5
171
100
AcDbEntity
  8
0
 62
7
100
AcDbLine
 10
268.472920
 20
-90.659265
 30
0.0
 11
266.847320
 21
-90.659265
 31
0.0
  0
LINE
  5
172
100
AcDbEntity
  8
0
 62
7
100
AcDbLine
 10
291.586920
 20
-82.556665
 30
0.0
 11
291.586920
 21
-85.350665
 31
0.0
  0
LINE
  5
173
100
AcDbEntity
  8
0
 62
7
100
AcDbLine
 10
285.109920
 20
-92.615065
 30
0.0
 11
285.109920
 21
-91.446665
 31
0.0
  0
LINE
  5
174
100
AcDbEntity
  8
0
 62
7
100
AcDbLine
 10
172.643800
 20
-137.717845
 30
0.0
 11
172.341540
 21
-136.590085
 31
0.0
  0
LINE
  5
175
100
AcDbEntity
  8
0
 62
7
100
AcDbLine
 10
176.296320
 20
-126.325945
 30
0.0
 11
177.020220
 21
-129.025965
 31
0.0
  0
LINE
  5
176
100
AcDbEntity
  8
0
 62
7
100
AcDbLine
 10
156.067760
 20
-140.135925
 30
0.0
 11
154.498040
 21
-140.557565
 31
0.0
  0
LINE
  5
177
100
AcDbEntity
  8
0
 62
7
100
AcDbLine
 10
176.756060
 20
-135.406445
 30
0.0
 11
177.060860
 21
-136.536745
 31
0.0
  0
LINE
  5
178
100
AcDbEntity
  8
0
 62
7
100
AcDbLine
 10
156.370020
 20
-141.263685
 30
0.0
 11
156.067760
 21
-140.135925
 31
0.0
  0
LINE
  5
179
100
AcDbEntity
  8
0
 62
7
100
AcDbLine
 10
176.184560
 20
-129.249485
 30
0.0
 11
177.764440
 21
-135.137205
 31
0.0
  0
LINE
  5
17a
100
AcDbEntity
  8
0
 62
7
100
AcDbLine
 10
145.971260
 20
-134.451405
 30
0.0
 11
145.089880
 21
-131.164645
 31
0.0
  0
LINE
  5
17b
100
AcDbEntity
  8
0
 62
7
100
AcDbLine
 10
152.753060
 20
-127.771205
 30
0.0
 11
166.248080
 21
-124.154245
 31
0.0
  0
LINE
  5
17c
100
AcDbEntity
  8
0
 62
7
100
AcDbLine
 10
153.299160
 20
-129.805745
 30
0.0
 11
152.753060
 21
-127.771205
 31
0.0
  0
LINE
  5
17d
100
AcDbEntity
  8
0
 62
7
100
AcDbLine
 10
145.089880
 20
-131.164645
 30
0.0
 11
151.518620
 21
-129.442525
 31
0.0
  0
LINE
  5
17e
100
AcDbEntity
  8
0
 62
7
100
AcDbLine
 10
148.272500
 20
-143.039145
 30
0.0
 11
146.695160
 21
-137.151425
 31
0.0
  0
LINE
  5
17f
100
AcDbEntity
  8
0
 62
7
100
AcDbLine
 10
166.248080
 20
-124.154245
 30
0.0
 11
166.794180
 21
-126.191325
 31
0.0
  0
LINE
  5
180
100
AcDbEntity
  8
0
 62
7
100
AcDbLine
 10
172.341540
 20
-136.590085
 30
0.0
 11
171.335700
 21
-136.859325
 31
0.0
  0
LINE
  5
181
100
AcDbEntity
  8
0
 62
7
100
AcDbLine
 10
153.695400
 20
-141.586265
 30
0.0
 11
153.997660
 21
-142.714025
 31
0.0
  0
LINE
  5
182
100
AcDbEntity
  8
0
 62
7
100
AcDbLine
 10
151.729440
 20
-130.227385
 30
0.0
 11
153.299160
 21
-129.805745
 31
0.0
  0
LINE
  5
183
100
AcDbEntity
  8
0
 62
7
100
AcDbLine
 10
169.560240
 20
-136.518965
 30
0.0
 11
169.862500
 21
-137.649265
 31
0.0
  0
LINE
  5
184
100
AcDbEntity
  8
0
 62
7
100
AcDbLine
 10
174.581820
 20
-123.262705
 30
0.0
 11
175.463200
 21
-126.549465
 31
0.0
  0
LINE
  5
185
100
AcDbEntity
  8
0
 62
7
100
AcDbLine
 10
171.335700
 20
-136.859325
 30
0.0
 11
171.132500
 21
-136.099865
 31
0.0
  0
LINE
  5
186
100
AcDbEntity
  8
0
 62
7
100
AcDbLine
 10
153.997660
 20
-142.714025
 30
0.0
 11
149.580600
 21
-143.897665
 31
0.0
  0
LINE
  5
187
100
AcDbEntity
  8
0
 62
7
100
AcDbLine
 10
175.463200
 20
-126.549465
 30
0.0
 11
176.296320
 21
-126.325945
 31
0.0
  0
LINE
  5
188
100
AcDbEntity
  8
0
 62
7
100
AcDbLine
 10
149.278340
 20
-142.769905
 30
0.0
 11
148.272500
 21
-143.039145
 31
0.0
  0
LINE
  5
189
100
AcDbEntity
  8
0
 62
7
100
AcDbLine
 10
177.764440
 20
-135.137205
 30
0.0
 11
176.756060
 21
-135.406445
 31
0.0
  0
LINE
  5
18a
100
AcDbEntity
  8
0
 62
7
100
AcDbLine
 10
177.060860
 20
-136.536745
 30
0.0
 11
172.643800
 21
-137.717845
 31
0.0
  0
LINE
  5
18b
100
AcDbEntity
  8
0
 62
7
100
AcDbLine
 10
168.153080
 20
-124.984825
 30
0.0
 11
174.581820
 21
-123.262705
 31
0.0
  0
LINE
  5
18c
100
AcDbEntity
  8
0
 62
7
100
AcDbLine
 10
149.580600
 20
-143.897665
 30
0.0
 11
149.278340
 21
-142.769905
 31
0.0
  0
LINE
  5
18d
100
AcDbEntity
  8
0
 62
7
100
AcDbLine
 10
145.138140
 20
-134.674925
 30
0.0
 11
145.971260
 21
-134.451405
 31
0.0
  0
LINE
  5
18e
100
AcDbEntity
  8
0
 62
7
100
AcDbLine
 10
169.862500
 20
-137.649265
 30
0.0
 11
156.370020
 21
-141.263685
 31
0.0
  0
LINE
  5
18f
100
AcDbEntity
  8
0
 62
7
100
AcDbLine
 10
171.132500
 20
-136.099865
 30
0.0
 11
169.560240
 21
-136.518965
 31
0.0
  0
LINE
  5
190
100
AcDbEntity
  8
0
 62
7
100
AcDbLine
 10
166.794180
 20
-126.191325
 30
0.0
 11
168.363900
 21
-125.769685
 31
0.0
  0
LINE
  5
191
100
AcDbEntity
  8
0
 62
7
100
AcDbLine
 10
168.363900
 20
-125.769685
 30
0.0
 11
168.153080
 21
-124.984825
 31
0.0
  0
LINE
  5
192
100
AcDbEntity
  8
0
 62
7
100
AcDbLine
 10
151.518620
 20
-129.442525
 30
0.0
 11
151.729440
 21
-130.227385
 31
0.0
  0
LINE
  5
193
100
AcDbEntity
  8
0
 62
7
100
AcDbLine
 10
154.701240
 20
-141.317025
 30
0.0
 11
153.695400
 21
-141.586265
 31
0.0
  0
LINE
  5
194
100
AcDbEntity
  8
0
 62
7
100
AcDbLine
 10
154.498040
 20
-140.557565
 30
0.0
 11
154.701240
 21
-141.317025
 31
0.0
  0
LINE
  5
195
100
AcDbEntity
  8
0
 62
7
100
AcDbLine
 10
177.020220
 20
-129.025965
 30
0.0
 11
176.184560
 21
-129.249485
 31
0.0
  0
LINE
  5
196
100
AcDbEntity
  8
0
 62
7
100
AcDbLine
 10
146.695160
 20
-137.151425
 30
0.0
 11
145.862040
 21
-137.374945
 31
0.0
  0
LINE
  5
197
100
AcDbEntity
  8
0
 62
7
100
AcDbLine
 10
145.862040
 20
-137.374945
 30
0.0
 11
145.138140
 21
-134.674925
 31
0.0
  0
LINE
  5
198
100
AcDbEntity
  8
0
 62
7
100
AcDbLine
 10
125.519180
 20
-142.714025
 30
0.0
 11
125.821440
 21
-141.586265
 31
0.0
  0
LINE
  5
199
100
AcDbEntity
  8
0
 62
7
100
AcDbLine
 10
134.378700
 20
-134.674925
 30
0.0
 11
133.657340
 21
-137.374945
 31
0.0
  0
LINE
  5
19a
100
AcDbEntity
  8
0
 62
7
100
AcDbLine
 10
109.956600
 20
-136.518965
 30
0.0
 11
108.386880
 21
-136.099865
 31
0.0
  0
LINE
  5
19b
100
AcDbEntity
  8
0
 62
7
100
AcDbLine
 10
130.238500
 20
-142.769905
 30
0.0
 11
129.936240
 21
-143.897665
 31
0.0
  0
LINE
  5
19c
100
AcDbEntity
  8
0
 62
7
100
AcDbLine
 10
109.654340
 20
-137.649265
 30
0.0
 11
109.956600
 21
-136.518965
 31
0.0
  0
LINE
  5
19d
100
AcDbEntity
  8
0
 62
7
100
AcDbLine
 10
132.821680
 20
-137.151425
 30
0.0
 11
131.244340
 21
-143.039145
 31
0.0
  0
LINE
  5
19e
100
AcDbEntity
  8
0
 62
7
100
AcDbLine
 10
104.056180
 20
-126.549465
 30
0.0
 11
104.935020
 21
-123.262705
 31
0.0
  0
LINE
  5
19f
100
AcDbEntity
  8
0
 62
7
100
AcDbLine
 10
113.268760
 20
-124.154245
 30
0.0
 11
126.763780
 21
-127.771205
 31
0.0
  0
LINE
  5
1a0
100
AcDbEntity
  8
0
 62
7
100
AcDbLine
 10
112.725200
 20
-126.191325
 30
0.0
 11
113.268760
 21
-124.154245
 31
0.0
  0
LINE
  5
1a1
100
AcDbEntity
  8
0
 62
7
100
AcDbLine
 10
104.935020
 20
-123.262705
 30
0.0
 11
111.363760
 21
-124.984825
 31
0.0
  0
LINE
  5
1a2
100
AcDbEntity
  8
0
 62
7
100
AcDbLine
 10
101.754940
 20
-135.137205
 30
0.0
 11
103.332280
 21
-129.249485
 31
0.0
  0
LINE
  5
1a3
100
AcDbEntity
  8
0
 62
7
100
AcDbLine
 10
126.763780
 20
-127.771205
 30
0.0
 11
126.217680
 21
-129.805745
 31
0.0
  0
LINE
  5
1a4
100
AcDbEntity
  8
0
 62
7
100
AcDbLine
 10
125.821440
 20
-141.586265
 30
0.0
 11
124.815600
 21
-141.317025
 31
0.0
  0
LINE
  5
1a5
100
AcDbEntity
  8
0
 62
7
100
AcDbLine
 10
107.175300
 20
-136.590085
 30
0.0
 11
106.873040
 21
-137.717845
 31
0.0
  0
LINE
  5
1a6
100
AcDbEntity
  8
0
 62
7
100
AcDbLine
 10
111.152940
 20
-125.769685
 30
0.0
 11
112.725200
 21
-126.191325
 31
0.0
  0
LINE
  5
1a7
100
AcDbEntity
  8
0
 62
7
100
AcDbLine
 10
123.449080
 20
-140.135925
 30
0.0
 11
123.146820
 21
-141.263685
 31
0.0
  0
LINE
  5
1a8
100
AcDbEntity
  8
0
 62
7
100
AcDbLine
 10
134.426960
 20
-131.164645
 30
0.0
 11
133.545580
 21
-134.451405
 31
0.0
  0
LINE
  5
1a9
100
AcDbEntity
  8
0
 62
7
100
AcDbLine
 10
124.815600
 20
-141.317025
 30
0.0
 11
125.021340
 21
-140.557565
 31
0.0
  0
LINE
  5
1aa
100
AcDbEntity
  8
0
 62
7
100
AcDbLine
 10
106.873040
 20
-137.717845
 30
0.0
 11
102.458520
 21
-136.536745
 31
0.0
  0
LINE
  5
1ab
100
AcDbEntity
  8
0
 62
7
100
AcDbLine
 10
133.545580
 20
-134.451405
 30
0.0
 11
134.378700
 21
-134.674925
 31
0.0
  0
LINE
  5
1ac
100
AcDbEntity
  8
0
 62
7
100
AcDbLine
 10
102.760780
 20
-135.406445
 30
0.0
 11
101.754940
 21
-135.137205
 31
0.0
  0
LINE
  5
1ad
100
AcDbEntity
  8
0
 62
7
100
AcDbLine
 10
131.244340
 20
-143.039145
 30
0.0
 11
130.238500
 21
-142.769905
 31
0.0
  0
LINE
  5
1ae
100
AcDbEntity
  8
0
 62
7
100
AcDbLine
 10
129.936240
 20
-143.897665
 30
0.0
 11
125.519180
 21
-142.714025
 31
0.0
  0
LINE
  5
1af
100
AcDbEntity
  8
0
 62
7
100
AcDbLine
 10
127.998220
 20
-129.442525
 30
0.0
 11
134.426960
 21
-131.164645
 31
0.0
  0
LINE
  5
1b0
100
AcDbEntity
  8
0
 62
7
100
AcDbLine
 10
102.458520
 20
-136.536745
 30
0.0
 11
102.760780
 21
-135.406445
 31
0.0
  0
LINE
  5
1b1
100
AcDbEntity
  8
0
 62
7
100
AcDbLine
 10
103.220520
 20
-126.325945
 30
0.0
 11
104.056180
 21
-126.549465
 31
0.0
  0
LINE
  5
1b2
100
AcDbEntity
  8
0
 62
7
100
AcDbLine
 10
123.146820
 20
-141.263685
 30
0.0
 11
109.654340
 21
-137.649265
 31
0.0
  0
LINE
  5
1b3
100
AcDbEntity
  8
0
 62
7
100
AcDbLine
 10
125.021340
 20
-140.557565
 30
0.0
 11
123.449080
 21
-140.135925
 31
0.0
  0
LINE
  5
1b4
100
AcDbEntity
  8
0
 62
7
100
AcDbLine
 10
126.217680
 20
-129.805745
 30
0.0
 11
127.787400
 21
-130.227385
 31
0.0
  0
LINE
  5
1b5
100
AcDbEntity
  8
0
 62
7
100
AcDbLine
 10
127.787400
 20
-130.227385
 30
0.0
 11
127.998220
 21
-129.442525
 31
0.0
  0
LINE
  5
1b6
100
AcDbEntity
  8
0
 62
7
100
AcDbLine
 10
111.363760
 20
-124.984825
 30
0.0
 11
111.152940
 21
-125.769685
 31
0.0
  0
LINE
  5
1b7
100
AcDbEntity
  8
0
 62
7
100
AcDbLine
 10
108.181140
 20
-136.859325
 30
0.0
 11
107.175300
 21
-136.590085
 31
0.0
  0
LINE
  5
1b8
100
AcDbEntity
  8
0
 62
7
100
AcDbLine
 10
108.386880
 20
-136.099865
 30
0.0
 11
108.181140
 21
-136.859325
 31
0.0
  0
LINE
  5
1b9
100
AcDbEntity
  8
0
 62
7
100
AcDbLine
 10
133.657340
 20
-137.374945
 30
0.0
 11
132.821680
 21
-137.151425
 31
0.0
  0
LINE
  5
1ba
100
AcDbEntity
  8
0
 62
7
100
AcDbLine
 10
103.332280
 20
-129.249485
 30
0.0
 11
102.496620
 21
-129.025965
 31
0.0
  0
LINE
  5
1bb
100
AcDbEntity
  8
0
 62
7
100
AcDbLine
 10
102.496620
 20
-129.025965
 30
0.0
 11
103.220520
 21
-126.325945
 31
0.0
  0
LINE
  5
1bc
100
AcDbEntity
  8
0
 62
7
100
AcDbLine
 10
287.510220
 20
-54.482045
 30
0.0
 11
287.510220
 21
-53.313645
 31
0.0
  0
LINE
  5
1bd
100
AcDbEntity
  8
0
 62
7
100
AcDbLine
 10
293.987220
 20
-44.423645
 30
0.0
 11
293.987220
 21
-47.217645
 31
0.0
  0
LINE
  5
1be
100
AcDbEntity
  8
0
 62
7
100
AcDbLine
 10
270.873220
 20
-52.526245
 30
0.0
 11
269.247620
 21
-52.526245
 31
0.0
  0
LINE
  5
1bf
100
AcDbEntity
  8
0
 62
7
100
AcDbLine
 10
292.082220
 20
-53.313645
 30
0.0
 11
292.082220
 21
-54.482045
 31
0.0
  0
LINE
  5
1c0
100
AcDbEntity
  8
0
 62
7
100
AcDbLine
 10
270.873220
 20
-53.694645
 30
0.0
 11
270.873220
 21
-52.526245
 31
0.0
  0
LINE
  5
1c1
100
AcDbEntity
  8
0
 62
7
100
AcDbLine
 10
293.123620
 20
-47.217645
 30
0.0
 11
293.123620
 21
-53.313645
 31
0.0
  0
LINE
  5
1c2
100
AcDbEntity
  8
0
 62
7
100
AcDbLine
 10
262.592820
 20
-44.423645
 30
0.0
 11
262.592820
 21
-41.020045
 31
0.0
  0
LINE
  5
1c3
100
AcDbEntity
  8
0
 62
7
100
AcDbLine
 10
270.873220
 20
-39.724645
 30
0.0
 11
284.843220
 21
-39.724645
 31
0.0
  0
LINE
  5
1c4
100
AcDbEntity
  8
0
 62
7
100
AcDbLine
 10
270.873220
 20
-41.832845
 30
0.0
 11
270.873220
 21
-39.724645
 31
0.0
  0
LINE
  5
1c5
100
AcDbEntity
  8
0
 62
7
100
AcDbLine
 10
262.592820
 20
-41.020045
 30
0.0
 11
269.247620
 21
-41.020045
 31
0.0
  0
LINE
  5
1c6
100
AcDbEntity
  8
0
 62
7
100
AcDbLine
 10
262.592820
 20
-53.313645
 30
0.0
 11
262.592820
 21
-47.217645
 31
0.0
  0
LINE
  5
1c7
100
AcDbEntity
  8
0
 62
7
100
AcDbLine
 10
284.843220
 20
-39.724645
 30
0.0
 11
284.843220
 21
-41.832845
 31
0.0
  0
LINE
  5
1c8
100
AcDbEntity
  8
0
 62
7
100
AcDbLine
 10
287.510220
 20
-53.313645
 30
0.0
 11
286.468820
 21
-53.313645
 31
0.0
  0
LINE
  5
1c9
100
AcDbEntity
  8
0
 62
7
100
AcDbLine
 10
268.206220
 20
-53.313645
 30
0.0
 11
268.206220
 21
-54.482045
 31
0.0
  0
LINE
  5
1ca
100
AcDbEntity
  8
0
 62
7
100
AcDbLine
 10
269.247620
 20
-41.832845
 30
0.0
 11
270.873220
 21
-41.832845
 31
0.0
  0
LINE
  5
1cb
100
AcDbEntity
  8
0
 62
7
100
AcDbLine
 10
284.843220
 20
-52.526245
 30
0.0
 11
284.843220
 21
-53.694645
 31
0.0
  0
LINE
  5
1cc
100
AcDbEntity
  8
0
 62
7
100
AcDbLine
 10
293.123620
 20
-41.020045
 30
0.0
 11
293.123620
 21
-44.423645
 31
0.0
  0
LINE
  5
1cd
100
AcDbEntity
  8
0
 62
7
100
AcDbLine
 10
286.468820
 20
-53.313645
 30
0.0
 11
286.468820
 21
-52.526245
 31
0.0
  0
LINE
  5
1ce
100
AcDbEntity
  8
0
 62
7
100
AcDbLine
 10
268.206220
 20
-54.482045
 30
0.0
 11
263.634220
 21
-54.482045
 31
0.0
  0
LINE
  5
1cf
100
AcDbEntity
  8
0
 62
7
100
AcDbLine
 10
293.123620
 20
-44.423645
 30
0.0
 11
293.987220
 21
-44.423645
 31
0.0
  0
LINE
  5
1d0
100
AcDbEntity
  8
0
 62
7
100
AcDbLine
 10
263.634220
 20
-53.313645
 30
0.0
 11
262.592820
 21
-53.313645
 31
0.0
  0
LINE
  5
1d1
100
AcDbEntity
  8
0
 62
7
100
AcDbLine
 10
293.123620
 20
-53.313645
 30
0.0
 11
292.082220
 21
-53.313645
 31
0.0
  0
LINE
  5
1d2
100
AcDbEntity
  8
0
 62
7
100
AcDbLine
 10
292.082220
 20
-54.482045
 30
0.0
 11
287.510220
 21
-54.482045
 31
0.0
  0
LINE
  5
1d3
100
AcDbEntity
  8
0
 62
7
100
AcDbLine
 10
286.468820
 20
-41.020045
 30
0.0
 11
293.123620
 21
-41.020045
 31
0.0
  0
LINE
  5
1d4
100
AcDbEntity
  8
0
 62
7
100
AcDbLine
 10
263.634220
 20
-54.482045
 30
0.0
 11
263.634220
 21
-53.313645
 31
0.0
  0
LINE
  5
1d5
100
AcDbEntity
  8
0
 62
7
100
AcDbLine
 10
261.729220
 20
-44.423645
 30
0.0
 11
262.592820
 21
-44.423645
 31
0.0
  0
LINE
  5
1d6
100
AcDbEntity
  8
0
 62
7
100
AcDbLine
 10
284.843220
 20
-53.694645
 30
0.0
 11
270.873220
 21
-53.694645
 31
0.0
  0
LINE
  5
1d7
100
AcDbEntity
  8
0
 62
7
100
AcDbLine
 10
286.468820
 20
-52.526245
 30
0.0
 11
284.843220
 21
-52.526245
 31
0.0
  0
LINE
  5
1d8
100
AcDbEntity
  8
0
 62
7
100
AcDbLine
 10
284.843220
 20
-41.832845
 30
0.0
 11
286.468820
 21
-41.832845
 31
0.0
  0
LINE
  5
1d9
100
AcDbEntity
  8
0
 62
7
100
AcDbLine
 10
286.468820
 20
-41.832845
 30
0.0
 11
286.468820
 21
-41.020045
 31
0.0
  0
LINE
  5
1da
100
AcDbEntity
  8
0
 62
7
100
AcDbLine
 10
269.247620
 20
-41.020045
 30
0.0
 11
269.247620
 21
-41.832845
 31
0.0
  0
LINE
  5
1db
100
AcDbEntity
  8
0
 62
7
100
AcDbLine
 10
269.247620
 20
-53.313645
 30
0.0
 11
268.206220
 21
-53.313645
 31
0.0
  0
LINE
  5
1dc
100
AcDbEntity
  8
0
 62
7
100
AcDbLine
 10
269.247620
 20
-52.526245
 30
0.0
 11
269.247620
 21
-53.313645
 31
0.0
  0
LINE
  5
1dd
100
AcDbEntity
  8
0
 62
7
100
AcDbLine
 10
293.987220
 20
-47.217645
 30
0.0
 11
293.123620
 21
-47.217645
 31
0.0
  0
LINE
  5
1de
100
AcDbEntity
  8
0
 62
7
100
AcDbLine
 10
262.592820
 20
-47.217645
 30
0.0
 11
261.729220
 21
-47.217645
 31
0.0
  0
LINE
  5
1df
100
AcDbEntity
  8
0
 62
7
100
AcDbLine
 10
261.729220
 20
-47.217645
 30
0.0
 11
261.729220
 21
-44.423645
 31
0.0
  0
LINE
  5
1e0
100
AcDbEntity
  8
0
 62
7
100
AcDbLine
 10
16.400780
 20
-104.418445
 30
0.0
 11
16.400780
 21
-101.624445
 31
0.0
  0
LINE
  5
1e1
100
AcDbEntity
  8
0
 62
7
100
AcDbLine
 10
17.264380
 20
-104.418445
 30
0.0
 11
16.400780
 21
-104.418445
 31
0.0
  0
LINE
  5
1e2
100
AcDbEntity
  8
0
 62
7
100
AcDbLine
 10
48.658780
 20
-104.418445
 30
0.0
 11
47.795180
 21
-104.418445
 31
0.0
  0
LINE
  5
1e3
100
AcDbEntity
  8
0
 62
7
100
AcDbLine
 10
23.919180
 20
-109.727045
 30
0.0
 11
23.919180
 21
-110.514445
 31
0.0
  0
LINE
  5
1e4
100
AcDbEntity
  8
0
 62
7
100
AcDbLine
 10
23.919180
 20
-110.514445
 30
0.0
 11
22.877780
 21
-110.514445
 31
0.0
  0
LINE
  5
1e5
100
AcDbEntity
  8
0
 62
7
100
AcDbLine
 10
23.919180
 20
-98.220845
 30
0.0
 11
23.919180
 21
-99.033645
 31
0.0
  0
LINE
  5
1e6
100
AcDbEntity
  8
0
 62
7
100
AcDbLine
 10
41.140380
 20
-99.033645
 30
0.0
 11
41.140380
 21
-98.220845
 31
0.0
  0
LINE
  5
1e7
100
AcDbEntity
  8
0
 62
7
100
AcDbLine
 10
39.514780
 20
-99.033645
 30
0.0
 11
41.140380
 21
-99.033645
 31
0.0
  0
LINE
  5
1e8
100
AcDbEntity
  8
0
 62
7
100
AcDbLine
 10
41.140380
 20
-109.727045
 30
0.0
 11
39.514780
 21
-109.727045
 31
0.0
  0
LINE
  5
1e9
100
AcDbEntity
  8
0
 62
7
100
AcDbLine
 10
39.514780
 20
-110.895445
 30
0.0
 11
25.544780
 21
-110.895445
 31
0.0
  0
LINE
  5
1ea
100
AcDbEntity
  8
0
 62
7
100
AcDbLine
 10
16.400780
 20
-101.624445
 30
0.0
 11
17.264380
 21
-101.624445
 31
0.0
  0
LINE
  5
1eb
100
AcDbEntity
  8
0
 62
7
100
AcDbLine
 10
18.305780
 20
-111.682845
 30
0.0
 11
18.305780
 21
-110.514445
 31
0.0
  0
LINE
  5
1ec
100
AcDbEntity
  8
0
 62
7
100
AcDbLine
 10
41.140380
 20
-98.220845
 30
0.0
 11
47.795180
 21
-98.220845
 31
0.0
  0
LINE
  5
1ed
100
AcDbEntity
  8
0
 62
7
100
AcDbLine
 10
46.753780
 20
-111.682845
 30
0.0
 11
42.181780
 21
-111.682845
 31
0.0
  0
LINE
  5
1ee
100
AcDbEntity
  8
0
 62
7
100
AcDbLine
 10
47.795180
 20
-110.514445
 30
0.0
 11
46.753780
 21
-110.514445
 31
0.0
  0
LINE
  5
1ef
100
AcDbEntity
  8
0
 62
7
100
AcDbLine
 10
18.305780
 20
-110.514445
 30
0.0
 11
17.264380
 21
-110.514445
 31
0.0
  0
LINE
  5
1f0
100
AcDbEntity
  8
0
 62
7
100
AcDbLine
 10
47.795180
 20
-101.624445
 30
0.0
 11
48.658780
 21
-101.624445
 31
0.0
  0
LINE
  5
1f1
100
AcDbEntity
  8
0
 62
7
100
AcDbLine
 10
22.877780
 20
-111.682845
 30
0.0
 11
18.305780
 21
-111.682845
 31
0.0
  0
LINE
  5
1f2
100
AcDbEntity
  8
0
 62
7
100
AcDbLine
 10
41.140380
 20
-110.514445
 30
0.0
 11
41.140380
 21
-109.727045
 31
0.0
  0
LINE
  5
1f3
100
AcDbEntity
  8
0
 62
7
100
AcDbLine
 10
47.795180
 20
-98.220845
 30
0.0
 11
47.795180
 21
-101.624445
 31
0.0
  0
LINE
  5
1f4
100
AcDbEntity
  8
0
 62
7
100
AcDbLine
 10
39.514780
 20
-109.727045
 30
0.0
 11
39.514780
 21
-110.895445
 31
0.0
  0
LINE
  5
1f5
100
AcDbEntity
  8
0
 62
7
100
AcDbLine
 10
23.919180
 20
-99.033645
 30
0.0
 11
25.544780
 21
-99.033645
 31
0.0
  0
LINE
  5
1f6
100
AcDbEntity
  8
0
 62
7
100
AcDbLine
 10
22.877780
 20
-110.514445
 30
0.0
 11
22.877780
 21
-111.682845
 31
0.0
  0
LINE
  5
1f7
100
AcDbEntity
  8
0
 62
7
100
AcDbLine
 10
42.181780
 20
-110.514445
 30
0.0
 11
41.140380
 21
-110.514445
 31
0.0
  0
LINE
  5
1f8
100
AcDbEntity
  8
0
 62
7
100
AcDbLine
 10
39.514780
 20
-96.925445
 30
0.0
 11
39.514780
 21
-99.033645
 31
0.0
  0
LINE
  5
1f9
100
AcDbEntity
  8
0
 62
7
100
AcDbLine
 10
17.264380
 20
-110.514445
 30
0.0
 11
17.264380
 21
-104.418445
 31
0.0
  0
LINE
  5
1fa
100
AcDbEntity
  8
0
 62
7
100
AcDbLine
 10
17.264380
 20
-98.220845
 30
0.0
 11
23.919180
 21
-98.220845
 31
0.0
  0
LINE
  5
1fb
100
AcDbEntity
  8
0
 62
7
100
AcDbLine
 10
25.544780
 20
-99.033645
 30
0.0
 11
25.544780
 21
-96.925445
 31
0.0
  0
LINE
  5
1fc
100
AcDbEntity
  8
0
 62
7
100
AcDbLine
 10
25.544780
 20
-96.925445
 30
0.0
 11
39.514780
 21
-96.925445
 31
0.0
  0
LINE
  5
1fd
100
AcDbEntity
  8
0
 62
7
100
AcDbLine
 10
17.264380
 20
-101.624445
 30
0.0
 11
17.264380
 21
-98.220845
 31
0.0
  0
LINE
  5
1fe
100
AcDbEntity
  8
0
 62
7
100
AcDbLine
 10
47.795180
 20
-104.418445
 30
0.0
 11
47.795180
 21
-110.514445
 31
0.0
  0
LINE
  5
1ff
100
AcDbEntity
  8
0
 62
7
100
AcDbLine
 10
25.544780
 20
-110.895445
 30
0.0
 11
25.544780
 21
-109.727045
 31
0.0
  0
LINE
  5
200
100
AcDbEntity
  8
0
 62
7
100
AcDbLine
 10
46.753780
 20
-110.514445
 30
0.0
 11
46.753780
 21
-111.682845
 31
0.0
  0
LINE
  5
201
100
AcDbEntity
  8
0
 62
7
100
AcDbLine
 10
25.544780
 20
-109.727045
 30
0.0
 11
23.919180
 21
-109.727045
 31
0.0
  0
LINE
  5
202
100
AcDbEntity
  8
0
 62
7
100
AcDbLine
 10
48.658780
 20
-101.624445
 30
0.0
 11
48.658780
 21
-104.418445
 31
0.0
  0
LINE
  5
203
100
AcDbEntity
  8
0
 62
7
100
AcDbLine
 10
42.181780
 20
-111.682845
 30
0.0
 11
42.181780
 21
-110.514445
 31
0.0
  0
LINE
  5
204
100
AcDbEntity
  8
0
 62
7
100
AcDbLine
 10
251.823220
 20
-58.825445
 30
0.0
 11
265.793220
 21
-58.825445
 31
0.0
  0
LINE
  5
205
100
AcDbEntity
  8
0
 62
7
100
AcDbLine
 10
265.793220
 20
-58.825445
 30
0.0
 11
265.793220
 21
-72.795445
 31
0.0
  0
LINE
  5
206
100
AcDbEntity
  8
0
 62
7
100
AcDbLine
 10
265.793220
 20
-72.795445
 30
0.0
 11
251.823220
 21
-72.795445
 31
0.0
  0
LINE
  5
207
100
AcDbEntity
  8
0
 62
7
100
AcDbLine
 10
251.823220
 20
-72.795445
 30
0.0
 11
251.823220
 21
-58.825445
 31
0.0
  0
LINE
  5
208
100
AcDbEntity
  8
0
 62
7
100
AcDbLine
 10
303.933860
 20
-120.725245
 30
0.0
 11
317.903860
 21
-120.725245
 31
0.0
  0
LINE
  5
209
100
AcDbEntity
  8
0
 62
7
100
AcDbLine
 10
317.903860
 20
-120.725245
 30
0.0
 11
317.903860
 21
-134.695245
 31
0.0
  0
LINE
  5
20a
100
AcDbEntity
  8
0
 62
7
100
AcDbLine
 10
317.903860
 20
-134.695245
 30
0.0
 11
303.933860
 21
-134.695245
 31
0.0
  0
LINE
  5
20b
100
AcDbEntity
  8
0
 62
7
100
AcDbLine
 10
303.933860
 20
-134.695245
 30
0.0
 11
303.933860
 21
-120.725245
 31
0.0
  0
LINE
  5
20c
100
AcDbEntity
  8
0
 62
7
100
AcDbLine
 10
284.883860
 20
-120.725245
 30
0.0
 11
298.853860
 21
-120.725245
 31
0.0
  0
LINE
  5
20d
100
AcDbEntity
  8
0
 62
7
100
AcDbLine
 10
298.853860
 20
-120.725245
 30
0.0
 11
298.853860
 21
-134.695245
 31
0.0
  0
LINE
  5
20e
100
AcDbEntity
  8
0
 62
7
100
AcDbLine
 10
298.853860
 20
-134.695245
 30
0.0
 11
284.883860
 21
-134.695245
 31
0.0
  0
LINE
  5
20f
100
AcDbEntity
  8
0
 62
7
100
AcDbLine
 10
284.883860
 20
-134.695245
 30
0.0
 11
284.883860
 21
-120.725245
 31
0.0
  0
LINE
  5
210
100
AcDbEntity
  8
0
 62
7
100
AcDbLine
 10
265.833860
 20
-120.725245
 30
0.0
 11
279.803860
 21
-120.725245
 31
0.0
  0
LINE
  5
211
100
AcDbEntity
  8
0
 62
7
100
AcDbLine
 10
279.803860
 20
-120.725245
 30
0.0
 11
279.803860
 21
-134.695245
 31
0.0
  0
LINE
  5
212
100
AcDbEntity
  8
0
 62
7
100
AcDbLine
 10
279.803860
 20
-134.695245
 30
0.0
 11
265.833860
 21
-134.695245
 31
0.0
  0
LINE
  5
213
100
AcDbEntity
  8
0
 62
7
100
AcDbLine
 10
265.833860
 20
-134.695245
 30
0.0
 11
265.833860
 21
-120.725245
 31
0.0
  0
LINE
  5
214
100
AcDbEntity
  8
0
 62
7
100
AcDbLine
 10
222.783400
 20
-115.975445
 30
0.0
 11
236.753400
 21
-115.975445
 31
0.0
  0
LINE
  5
215
100
AcDbEntity
  8
0
 62
7
100
AcDbLine
 10
236.753400
 20
-115.975445
 30
0.0
 11
236.753400
 21
-129.945445
 31
0.0
  0
LINE
  5
216
100
AcDbEntity
  8
0
 62
7
100
AcDbLine
 10
236.753400
 20
-129.945445
 30
0.0
 11
222.783400
 21
-129.945445
 31
0.0
  0
LINE
  5
217
100
AcDbEntity
  8
0
 62
7
100
AcDbLine
 10
222.783400
 20
-129.945445
 30
0.0
 11
222.783400
 21
-115.975445
 31
0.0
  0
LINE
  5
218
100
AcDbEntity
  8
0
 62
7
100
AcDbLine
 10
180.352700
 20
-120.369645
 30
0.0
 11
193.847720
 21
-116.755225
 31
0.0
  0
LINE
  5
219
100
AcDbEntity
  8
0
 62
7
100
AcDbLine
 10
193.847720
 20
-116.755225
 30
0.0
 11
197.464680
 21
-130.247705
 31
0.0
  0
LINE
  5
21a
100
AcDbEntity
  8
0
 62
7
100
AcDbLine
 10
197.464680
 20
-130.247705
 30
0.0
 11
183.969660
 21
-133.864665
 31
0.0
  0
LINE
  5
21b
100
AcDbEntity
  8
0
 62
7
100
AcDbLine
 10
183.969660
 20
-133.864665
 30
0.0
 11
180.352700
 21
-120.369645
 31
0.0
  0
LINE
  5
21c
100
AcDbEntity
  8
0
 62
7
100
AcDbLine
 10
85.618320
 20
-116.704425
 30
0.0
 11
99.113340
 21
-120.321385
 31
0.0
  0
LINE
  5
21d
100
AcDbEntity
  8
0
 62
7
100
AcDbLine
 10
99.113340
 20
-120.321385
 30
0.0
 11
95.498920
 21
-133.813865
 31
0.0
  0
LINE
  5
21e
100
AcDbEntity
  8
0
 62
7
100
AcDbLine
 10
95.498920
 20
-133.813865
 30
0.0
 11
82.003900
 21
-130.199445
 31
0.0
  0
LINE
  5
21f
100
AcDbEntity
  8
0
 62
7
100
AcDbLine
 10
82.003900
 20
-130.199445
 30
0.0
 11
85.618320
 21
-116.704425
 31
0.0
  0
LINE
  5
220
100
AcDbEntity
  8
0
 62
7
100
AcDbLine
 10
37.472620
 20
-115.975445
 30
0.0
 11
51.442620
 21
-115.975445
 31
0.0
  0
LINE
  5
221
100
AcDbEntity
  8
0
 62
7
100
AcDbLine
 10
51.442620
 20
-115.975445
 30
0.0
 11
51.442620
 21
-129.945445
 31
0.0
  0
LINE
  5
222
100
AcDbEntity
  8
0
 62
7
100
AcDbLine
 10
51.442620
 20
-129.945445
 30
0.0
 11
37.472620
 21
-129.945445
 31
0.0
  0
LINE
  5
223
100
AcDbEntity
  8
0
 62
7
100
AcDbLine
 10
37.472620
 20
-129.945445
 30
0.0
 11
37.472620
 21
-115.975445
 31
0.0
  0
LINE
  5
224
100
AcDbEntity
  8
0
 62
7
100
AcDbLine
 10
284.883860
 20
-101.675245
 30
0.0
 11
298.853860
 21
-101.675245
 31
0.0
  0
LINE
  5
225
100
AcDbEntity
  8
0
 62
7
100
AcDbLine
 10
298.853860
 20
-101.675245
 30
0.0
 11
298.853860
 21
-115.645245
 31
0.0
  0
LINE
  5
226
100
AcDbEntity
  8
0
 62
7
100
AcDbLine
 10
298.853860
 20
-115.645245
 30
0.0
 11
284.883860
 21
-115.645245
 31
0.0
  0
LINE
  5
227
100
AcDbEntity
  8
0
 62
7
100
AcDbLine
 10
284.883860
 20
-115.645245
 30
0.0
 11
284.883860
 21
-101.675245
 31
0.0
  0
LINE
  5
228
100
AcDbEntity
  8
0
 62
7
100
AcDbLine
 10
227.982780
 20
-96.917825
 30
0.0
 11
241.952780
 21
-96.917825
 31
0.0
  0
LINE
  5
229
100
AcDbEntity
  8
0
 62
7
100
AcDbLine
 10
241.952780
 20
-96.917825
 30
0.0
 11
241.952780
 21
-110.887825
 31
0.0
  0
LINE
  5
22a
100
AcDbEntity
  8
0
 62
7
100
AcDbLine
 10
241.952780
 20
-110.887825
 30
0.0
 11
227.982780
 21
-110.887825
 31
0.0
  0
LINE
  5
22b
100
AcDbEntity
  8
0
 62
7
100
AcDbLine
 10
227.982780
 20
-110.887825
 30
0.0
 11
227.982780
 21
-96.917825
 31
0.0
  0
LINE
  5
22c
100
AcDbEntity
  8
0
 62
7
100
AcDbLine
 10
208.922620
 20
-96.925445
 30
0.0
 11
222.892620
 21
-96.925445
 31
0.0
  0
LINE
  5
22d
100
AcDbEntity
  8
0
 62
7
100
AcDbLine
 10
222.892620
 20
-96.925445
 30
0.0
 11
222.892620
 21
-110.895445
 31
0.0
  0
LINE
  5
22e
100
AcDbEntity
  8
0
 62
7
100
AcDbLine
 10
222.892620
 20
-110.895445
 30
0.0
 11
208.922620
 21
-110.895445
 31
0.0
  0
LINE
  5
22f
100
AcDbEntity
  8
0
 62
7
100
AcDbLine
 10
208.922620
 20
-110.895445
 30
0.0
 11
208.922620
 21
-96.925445
 31
0.0
  0
LINE
  5
230
100
AcDbEntity
  8
0
 62
7
100
AcDbLine
 10
189.872620
 20
-96.925445
 30
0.0
 11
203.842620
 21
-96.925445
 31
0.0
  0
LINE
  5
231
100
AcDbEntity
  8
0
 62
7
100
AcDbLine
 10
203.842620
 20
-96.925445
 30
0.0
 11
203.842620
 21
-110.895445
 31
0.0
  0
LINE
  5
232
100
AcDbEntity
  8
0
 62
7
100
AcDbLine
 10
203.842620
 20
-110.895445
 30
0.0
 11
189.872620
 21
-110.895445
 31
0.0
  0
LINE
  5
233
100
AcDbEntity
  8
0
 62
7
100
AcDbLine
 10
189.872620
 20
-110.895445
 30
0.0
 11
189.872620
 21
-96.925445
 31
0.0
  0
LINE
  5
234
100
AcDbEntity
  8
0
 62
7
100
AcDbLine
 10
170.822620
 20
-96.925445
 30
0.0
 11
184.792620
 21
-96.925445
 31
0.0
  0
LINE
  5
235
100
AcDbEntity
  8
0
 62
7
100
AcDbLine
 10
184.792620
 20
-96.925445
 30
0.0
 11
184.792620
 21
-110.895445
 31
0.0
  0
LINE
  5
236
100
AcDbEntity
  8
0
 62
7
100
AcDbLine
 10
184.792620
 20
-110.895445
 30
0.0
 11
170.822620
 21
-110.895445
 31
0.0
  0
LINE
  5
237
100
AcDbEntity
  8
0
 62
7
100
AcDbLine
 10
170.822620
 20
-110.895445
 30
0.0
 11
170.822620
 21
-96.925445
 31
0.0
  0
LINE
  5
238
100
AcDbEntity
  8
0
 62
7
100
AcDbLine
 10
151.772620
 20
-96.925445
 30
0.0
 11
165.742620
 21
-96.925445
 31
0.0
  0
LINE
  5
239
100
AcDbEntity
  8
0
 62
7
100
AcDbLine
 10
165.742620
 20
-96.925445
 30
0.0
 11
165.742620
 21
-110.895445
 31
0.0
  0
LINE
  5
23a
100
AcDbEntity
  8
0
 62
7
100
AcDbLine
 10
165.742620
 20
-110.895445
 30
0.0
 11
151.772620
 21
-110.895445
 31
0.0
  0
LINE
  5
23b
100
AcDbEntity
  8
0
 62
7
100
AcDbLine
 10
151.772620
 20
-110.895445
 30
0.0
 11
151.772620
 21
-96.925445
 31
0.0
  0
LINE
  5
23c
100
AcDbEntity
  8
0
 62
7
100
AcDbLine
 10
132.722620
 20
-96.925445
 30
0.0
 11
146.692620
 21
-96.925445
 31
0.0
  0
LINE
  5
23d
100
AcDbEntity
  8
0
 62
7
100
AcDbLine
 10
146.692620
 20
-96.925445
 30
0.0
 11
146.692620
 21
-110.895445
 31
0.0
  0
LINE
  5
23e
100
AcDbEntity
  8
0
 62
7
100
AcDbLine
 10
146.692620
 20
-110.895445
 30
0.0
 11
132.722620
 21
-110.895445
 31
0.0
  0
LINE
  5
23f
100
AcDbEntity
  8
0
 62
7
100
AcDbLine
 10
132.722620
 20
-110.895445
 30
0.0
 11
132.722620
 21
-96.925445
 31
0.0
  0
LINE
  5
240
100
AcDbEntity
  8
0
 62
7
100
AcDbLine
 10
113.672620
 20
-96.925445
 30
0.0
 11
127.642620
 21
-96.925445
 31
0.0
  0
LINE
  5
241
100
AcDbEntity
  8
0
 62
7
100
AcDbLine
 10
127.642620
 20
-96.925445
 30
0.0
 11
127.642620
 21
-110.895445
 31
0.0
  0
LINE
  5
242
100
AcDbEntity
  8
0
 62
7
100
AcDbLine
 10
127.642620
 20
-110.895445
 30
0.0
 11
113.672620
 21
-110.895445
 31
0.0
  0
LINE
  5
243
100
AcDbEntity
  8
0
 62
7
100
AcDbLine
 10
113.672620
 20
-110.895445
 30
0.0
 11
113.672620
 21
-96.925445
 31
0.0
  0
LINE
  5
244
100
AcDbEntity
  8
0
 62
7
100
AcDbLine
 10
94.622620
 20
-96.925445
 30
0.0
 11
108.592620
 21
-96.925445
 31
0.0
  0
LINE
  5
245
100
AcDbEntity
  8
0
 62
7
100
AcDbLine
 10
108.592620
 20
-96.925445
 30
0.0
 11
108.592620
 21
-110.895445
 31
0.0
  0
LINE
  5
246
100
AcDbEntity
  8
0
 62
7
100
AcDbLine
 10
108.592620
 20
-110.895445
 30
0.0
 11
94.622620
 21
-110.895445
 31
0.0
  0
LINE
  5
247
100
AcDbEntity
  8
0
 62
7
100
AcDbLine
 10
94.622620
 20
-110.895445
 30
0.0
 11
94.622620
 21
-96.925445
 31
0.0
  0
LINE
  5
248
100
AcDbEntity
  8
0
 62
7
100
AcDbLine
 10
75.572620
 20
-96.925445
 30
0.0
 11
89.542620
 21
-96.925445
 31
0.0
  0
LINE
  5
249
100
AcDbEntity
  8
0
 62
7
100
AcDbLine
 10
89.542620
 20
-96.925445
 30
0.0
 11
89.542620
 21
-110.895445
 31
0.0
  0
LINE
  5
24a
100
AcDbEntity
  8
0
 62
7
100
AcDbLine
 10
89.542620
 20
-110.895445
 30
0.0
 11
75.572620
 21
-110.895445
 31
0.0
  0
LINE
  5
24b
100
AcDbEntity
  8
0
 62
7
100
AcDbLine
 10
75.572620
 20
-110.895445
 30
0.0
 11
75.572620
 21
-96.925445
 31
0.0
  0
LINE
  5
24c
100
AcDbEntity
  8
0
 62
7
100
AcDbLine
 10
56.522620
 20
-96.925445
 30
0.0
 11
70.492620
 21
-96.925445
 31
0.0
  0
LINE
  5
24d
100
AcDbEntity
  8
0
 62
7
100
AcDbLine
 10
70.492620
 20
-96.925445
 30
0.0
 11
70.492620
 21
-110.895445
 31
0.0
  0
LINE
  5
24e
100
AcDbEntity
  8
0
 62
7
100
AcDbLine
 10
70.492620
 20
-110.895445
 30
0.0
 11
56.522620
 21
-110.895445
 31
0.0
  0
LINE
  5
24f
100
AcDbEntity
  8
0
 62
7
100
AcDbLine
 10
56.522620
 20
-110.895445
 30
0.0
 11
56.522620
 21
-96.925445
 31
0.0
  0
LINE
  5
250
100
AcDbEntity
  8
0
 62
7
100
AcDbLine
 10
237.523020
 20
-77.824645
 30
0.0
 11
251.493020
 21
-77.824645
 31
0.0
  0
LINE
  5
251
100
AcDbEntity
  8
0
 62
7
100
AcDbLine
 10
251.493020
 20
-77.824645
 30
0.0
 11
251.493020
 21
-91.794645
 31
0.0
  0
LINE
  5
252
100
AcDbEntity
  8
0
 62
7
100
AcDbLine
 10
251.493020
 20
-91.794645
 30
0.0
 11
237.523020
 21
-91.794645
 31
0.0
  0
LINE
  5
253
100
AcDbEntity
  8
0
 62
7
100
AcDbLine
 10
237.523020
 20
-91.794645
 30
0.0
 11
237.523020
 21
-77.824645
 31
0.0
  0
LINE
  5
254
100
AcDbEntity
  8
0
 62
7
100
AcDbLine
 10
218.473020
 20
-77.824645
 30
0.0
 11
232.443020
 21
-77.824645
 31
0.0
  0
LINE
  5
255
100
AcDbEntity
  8
0
 62
7
100
AcDbLine
 10
232.443020
 20
-77.824645
 30
0.0
 11
232.443020
 21
-91.794645
 31
0.0
  0
LINE
  5
256
100
AcDbEntity
  8
0
 62
7
100
AcDbLine
 10
232.443020
 20
-91.794645
 30
0.0
 11
218.473020
 21
-91.794645
 31
0.0
  0
LINE
  5
257
100
AcDbEntity
  8
0
 62
7
100
AcDbLine
 10
218.473020
 20
-91.794645
 30
0.0
 11
218.473020
 21
-77.824645
 31
0.0
  0
LINE
  5
258
100
AcDbEntity
  8
0
 62
7
100
AcDbLine
 10
199.423020
 20
-77.824645
 30
0.0
 11
213.393020
 21
-77.824645
 31
0.0
  0
LINE
  5
259
100
AcDbEntity
  8
0
 62
7
100
AcDbLine
 10
213.393020
 20
-77.824645
 30
0.0
 11
213.393020
 21
-91.794645
 31
0.0
  0
LINE
  5
25a
100
AcDbEntity
  8
0
 62
7
100
AcDbLine
 10
213.393020
 20
-91.794645
 30
0.0
 11
199.423020
 21
-91.794645
 31
0.0
  0
LINE
  5
25b
100
AcDbEntity
  8
0
 62
7
100
AcDbLine
 10
199.423020
 20
-91.794645
 30
0.0
 11
199.423020
 21
-77.824645
 31
0.0
  0
LINE
  5
25c
100
AcDbEntity
  8
0
 62
7
100
AcDbLine
 10
180.373020
 20
-77.824645
 30
0.0
 11
194.343020
 21
-77.824645
 31
0.0
  0
LINE
  5
25d
100
AcDbEntity
  8
0
 62
7
100
AcDbLine
 10
194.343020
 20
-77.824645
 30
0.0
 11
194.343020
 21
-91.794645
 31
0.0
  0
LINE
  5
25e
100
AcDbEntity
  8
0
 62
7
100
AcDbLine
 10
194.343020
 20
-91.794645
 30
0.0
 11
180.373020
 21
-91.794645
 31
0.0
  0
LINE
  5
25f
100
AcDbEntity
  8
0
 62
7
100
AcDbLine
 10
180.373020
 20
-91.794645
 30
0.0
 11
180.373020
 21
-77.824645
 31
0.0
  0
LINE
  5
260
100
AcDbEntity
  8
0
 62
7
100
AcDbLine
 10
161.323020
 20
-77.824645
 30
0.0
 11
175.293020
 21
-77.824645
 31
0.0
  0
LINE
  5
261
100
AcDbEntity
  8
0
 62
7
100
AcDbLine
 10
175.293020
 20
-77.824645
 30
0.0
 11
175.293020
 21
-91.794645
 31
0.0
  0
LINE
  5
262
100
AcDbEntity
  8
0
 62
7
100
AcDbLine
 10
175.293020
 20
-91.794645
 30
0.0
 11
161.323020
 21
-91.794645
 31
0.0
  0
LINE
  5
263
100
AcDbEntity
  8
0
 62
7
100
AcDbLine
 10
161.323020
 20
-91.794645
 30
0.0
 11
161.323020
 21
-77.824645
 31
0.0
  0
LINE
  5
264
100
AcDbEntity
  8
0
 62
7
100
AcDbLine
 10
142.224760
 20
-77.824645
 30
0.0
 11
156.194760
 21
-77.824645
 31
0.0
  0
LINE
  5
265
100
AcDbEntity
  8
0
 62
7
100
AcDbLine
 10
156.194760
 20
-77.824645
 30
0.0
 11
156.194760
 21
-91.794645
 31
0.0
  0
LINE
  5
266
100
AcDbEntity
  8
0
 62
7
100
AcDbLine
 10
156.194760
 20
-91.794645
 30
0.0
 11
142.224760
 21
-91.794645
 31
0.0
  0
LINE
  5
267
100
AcDbEntity
  8
0
 62
7
100
AcDbLine
 10
142.224760
 20
-91.794645
 30
0.0
 11
142.224760
 21
-77.824645
 31
0.0
  0
LINE
  5
268
100
AcDbEntity
  8
0
 62
7
100
AcDbLine
 10
123.174760
 20
-77.824645
 30
0.0
 11
137.144760
 21
-77.824645
 31
0.0
  0
LINE
  5
269
100
AcDbEntity
  8
0
 62
7
100
AcDbLine
 10
137.144760
 20
-77.824645
 30
0.0
 11
137.144760
 21
-91.794645
 31
0.0
  0
LINE
  5
26a
100
AcDbEntity
  8
0
 62
7
100
AcDbLine
 10
137.144760
 20
-91.794645
 30
0.0
 11
123.174760
 21
-91.794645
 31
0.0
  0
LINE
  5
26b
100
AcDbEntity
  8
0
 62
7
100
AcDbLine
 10
123.174760
 20
-91.794645
 30
0.0
 11
123.174760
 21
-77.824645
 31
0.0
  0
LINE
  5
26c
100
AcDbEntity
  8
0
 62
7
100
AcDbLine
 10
104.124760
 20
-77.824645
 30
0.0
 11
118.094760
 21
-77.824645
 31
0.0
  0
LINE
  5
26d
100
AcDbEntity
  8
0
 62
7
100
AcDbLine
 10
118.094760
 20
-77.824645
 30
0.0
 11
118.094760
 21
-91.794645
 31
0.0
  0
LINE
  5
26e
100
AcDbEntity
  8
0
 62
7
100
AcDbLine
 10
118.094760
 20
-91.794645
 30
0.0
 11
104.124760
 21
-91.794645
 31
0.0
  0
LINE
  5
26f
100
AcDbEntity
  8
0
 62
7
100
AcDbLine
 10
104.124760
 20
-91.794645
 30
0.0
 11
104.124760
 21
-77.824645
 31
0.0
  0
LINE
  5
270
100
AcDbEntity
  8
0
 62
7
100
AcDbLine
 10
85.023960
 20
-77.824645
 30
0.0
 11
98.993960
 21
-77.824645
 31
0.0
  0
LINE
  5
271
100
AcDbEntity
  8
0
 62
7
100
AcDbLine
 10
98.993960
 20
-77.824645
 30
0.0
 11
98.993960
 21
-91.794645
 31
0.0
  0
LINE
  5
272
100
AcDbEntity
  8
0
 62
7
100
AcDbLine
 10
98.993960
 20
-91.794645
 30
0.0
 11
85.023960
 21
-91.794645
 31
0.0
  0
LINE
  5
273
100
AcDbEntity
  8
0
 62
7
100
AcDbLine
 10
85.023960
 20
-91.794645
 30
0.0
 11
85.023960
 21
-77.824645
 31
0.0
  0
LINE
  5
274
100
AcDbEntity
  8
0
 62
7
100
AcDbLine
 10
66.024760
 20
-77.824645
 30
0.0
 11
79.994760
 21
-77.824645
 31
0.0
  0
LINE
  5
275
100
AcDbEntity
  8
0
 62
7
100
AcDbLine
 10
79.994760
 20
-77.824645
 30
0.0
 11
79.994760
 21
-91.794645
 31
0.0
  0
LINE
  5
276
100
AcDbEntity
  8
0
 62
7
100
AcDbLine
 10
79.994760
 20
-91.794645
 30
0.0
 11
66.024760
 21
-91.794645
 31
0.0
  0
LINE
  5
277
100
AcDbEntity
  8
0
 62
7
100
AcDbLine
 10
66.024760
 20
-91.794645
 30
0.0
 11
66.024760
 21
-77.824645
 31
0.0
  0
LINE
  5
278
100
AcDbEntity
  8
0
 62
7
100
AcDbLine
 10
46.974760
 20
-77.824645
 30
0.0
 11
60.944760
 21
-77.824645
 31
0.0
  0
LINE
  5
279
100
AcDbEntity
  8
0
 62
7
100
AcDbLine
 10
60.944760
 20
-77.824645
 30
0.0
 11
60.944760
 21
-91.794645
 31
0.0
  0
LINE
  5
27a
100
AcDbEntity
  8
0
 62
7
100
AcDbLine
 10
60.944760
 20
-91.794645
 30
0.0
 11
46.974760
 21
-91.794645
 31
0.0
  0
LINE
  5
27b
100
AcDbEntity
  8
0
 62
7
100
AcDbLine
 10
46.974760
 20
-91.794645
 30
0.0
 11
46.974760
 21
-77.824645
 31
0.0
  0
LINE
  5
27c
100
AcDbEntity
  8
0
 62
7
100
AcDbLine
 10
232.773220
 20
-58.825445
 30
0.0
 11
246.743220
 21
-58.825445
 31
0.0
  0
LINE
  5
27d
100
AcDbEntity
  8
0
 62
7
100
AcDbLine
 10
246.743220
 20
-58.825445
 30
0.0
 11
246.743220
 21
-72.795445
 31
0.0
  0
LINE
  5
27e
100
AcDbEntity
  8
0
 62
7
100
AcDbLine
 10
246.743220
 20
-72.795445
 30
0.0
 11
232.773220
 21
-72.795445
 31
0.0
  0
LINE
  5
27f
100
AcDbEntity
  8
0
 62
7
100
AcDbLine
 10
232.773220
 20
-72.795445
 30
0.0
 11
232.773220
 21
-58.825445
 31
0.0
  0
LINE
  5
280
100
AcDbEntity
  8
0
 62
7
100
AcDbLine
 10
213.723220
 20
-58.825445
 30
0.0
 11
227.693220
 21
-58.825445
 31
0.0
  0
LINE
  5
281
100
AcDbEntity
  8
0
 62
7
100
AcDbLine
 10
227.693220
 20
-58.825445
 30
0.0
 11
227.693220
 21
-72.795445
 31
0.0
  0
LINE
  5
282
100
AcDbEntity
  8
0
 62
7
100
AcDbLine
 10
227.693220
 20
-72.795445
 30
0.0
 11
213.723220
 21
-72.795445
 31
0.0
  0
LINE
  5
283
100
AcDbEntity
  8
0
 62
7
100
AcDbLine
 10
213.723220
 20
-72.795445
 30
0.0
 11
213.723220
 21
-58.825445
 31
0.0
  0
LINE
  5
284
100
AcDbEntity
  8
0
 62
7
100
AcDbLine
 10
194.673220
 20
-58.825445
 30
0.0
 11
208.643220
 21
-58.825445
 31
0.0
  0
LINE
  5
285
100
AcDbEntity
  8
0
 62
7
100
AcDbLine
 10
208.643220
 20
-58.825445
 30
0.0
 11
208.643220
 21
-72.795445
 31
0.0
  0
LINE
  5
286
100
AcDbEntity
  8
0
 62
7
100
AcDbLine
 10
208.643220
 20
-72.795445
 30
0.0
 11
194.673220
 21
-72.795445
 31
0.0
  0
LINE
  5
287
100
AcDbEntity
  8
0
 62
7
100
AcDbLine
 10
194.673220
 20
-72.795445
 30
0.0
 11
194.673220
 21
-58.825445
 31
0.0
  0
LINE
  5
288
100
AcDbEntity
  8
0
 62
7
100
AcDbLine
 10
175.574960
 20
-58.825445
 30
0.0
 11
189.544960
 21
-58.825445
 31
0.0
  0
LINE
  5
289
100
AcDbEntity
  8
0
 62
7
100
AcDbLine
 10
189.544960
 20
-58.825445
 30
0.0
 11
189.544960
 21
-72.795445
 31
0.0
  0
LINE
  5
28a
100
AcDbEntity
  8
0
 62
7
100
AcDbLine
 10
189.544960
 20
-72.795445
 30
0.0
 11
175.574960
 21
-72.795445
 31
0.0
  0
LINE
  5
28b
100
AcDbEntity
  8
0
 62
7
100
AcDbLine
 10
175.574960
 20
-72.795445
 30
0.0
 11
175.574960
 21
-58.825445
 31
0.0
  0
LINE
  5
28c
100
AcDbEntity
  8
0
 62
7
100
AcDbLine
 10
156.524960
 20
-58.825445
 30
0.0
 11
170.494960
 21
-58.825445
 31
0.0
  0
LINE
  5
28d
100
AcDbEntity
  8
0
 62
7
100
AcDbLine
 10
170.494960
 20
-58.825445
 30
0.0
 11
170.494960
 21
-72.795445
 31
0.0
  0
LINE
  5
28e
100
AcDbEntity
  8
0
 62
7
100
AcDbLine
 10
170.494960
 20
-72.795445
 30
0.0
 11
156.524960
 21
-72.795445
 31
0.0
  0
LINE
  5
28f
100
AcDbEntity
  8
0
 62
7
100
AcDbLine
 10
156.524960
 20
-72.795445
 30
0.0
 11
156.524960
 21
-58.825445
 31
0.0
  0
LINE
  5
290
100
AcDbEntity
  8
0
 62
7
100
AcDbLine
 10
137.474960
 20
-58.825445
 30
0.0
 11
151.444960
 21
-58.825445
 31
0.0
  0
LINE
  5
291
100
AcDbEntity
  8
0
 62
7
100
AcDbLine
 10
151.444960
 20
-58.825445
 30
0.0
 11
151.444960
 21
-72.795445
 31
0.0
  0
LINE
  5
292
100
AcDbEntity
  8
0
 62
7
100
AcDbLine
 10
151.444960
 20
-72.795445
 30
0.0
 11
137.474960
 21
-72.795445
 31
0.0
  0
LINE
  5
293
100
AcDbEntity
  8
0
 62
7
100
AcDbLine
 10
137.474960
 20
-72.795445
 30
0.0
 11
137.474960
 21
-58.825445
 31
0.0
  0
LINE
  5
294
100
AcDbEntity
  8
0
 62
7
100
AcDbLine
 10
118.424960
 20
-58.825445
 30
0.0
 11
132.394960
 21
-58.825445
 31
0.0
  0
LINE
  5
295
100
AcDbEntity
  8
0
 62
7
100
AcDbLine
 10
132.394960
 20
-58.825445
 30
0.0
 11
132.394960
 21
-72.795445
 31
0.0
  0
LINE
  5
296
100
AcDbEntity
  8
0
 62
7
100
AcDbLine
 10
132.394960
 20
-72.795445
 30
0.0
 11
118.424960
 21
-72.795445
 31
0.0
  0
LINE
  5
297
100
AcDbEntity
  8
0
 62
7
100
AcDbLine
 10
118.424960
 20
-72.795445
 30
0.0
 11
118.424960
 21
-58.825445
 31
0.0
  0
LINE
  5
298
100
AcDbEntity
  8
0
 62
7
100
AcDbLine
 10
99.374960
 20
-58.825445
 30
0.0
 11
113.344960
 21
-58.825445
 31
0.0
  0
LINE
  5
299
100
AcDbEntity
  8
0
 62
7
100
AcDbLine
 10
113.344960
 20
-58.825445
 30
0.0
 11
113.344960
 21
-72.795445
 31
0.0
  0
LINE
  5
29a
100
AcDbEntity
  8
0
 62
7
100
AcDbLine
 10
113.344960
 20
-72.795445
 30
0.0
 11
99.374960
 21
-72.795445
 31
0.0
  0
LINE
  5
29b
100
AcDbEntity
  8
0
 62
7
100
AcDbLine
 10
99.374960
 20
-72.795445
 30
0.0
 11
99.374960
 21
-58.825445
 31
0.0
  0
LINE
  5
29c
100
AcDbEntity
  8
0
 62
7
100
AcDbLine
 10
80.324960
 20
-58.825445
 30
0.0
 11
94.294960
 21
-58.825445
 31
0.0
  0
LINE
  5
29d
100
AcDbEntity
  8
0
 62
7
100
AcDbLine
 10
94.294960
 20
-58.825445
 30
0.0
 11
94.294960
 21
-72.795445
 31
0.0
  0
LINE
  5
29e
100
AcDbEntity
  8
0
 62
7
100
AcDbLine
 10
94.294960
 20
-72.795445
 30
0.0
 11
80.324960
 21
-72.795445
 31
0.0
  0
LINE
  5
29f
100
AcDbEntity
  8
0
 62
7
100
AcDbLine
 10
80.324960
 20
-72.795445
 30
0.0
 11
80.324960
 21
-58.825445
 31
0.0
  0
LINE
  5
2a0
100
AcDbEntity
  8
0
 62
7
100
AcDbLine
 10
61.274960
 20
-58.825445
 30
0.0
 11
75.244960
 21
-58.825445
 31
0.0
  0
LINE
  5
2a1
100
AcDbEntity
  8
0
 62
7
100
AcDbLine
 10
75.244960
 20
-58.825445
 30
0.0
 11
75.244960
 21
-72.795445
 31
0.0
  0
LINE
  5
2a2
100
AcDbEntity
  8
0
 62
7
100
AcDbLine
 10
75.244960
 20
-72.795445
 30
0.0
 11
61.274960
 21
-72.795445
 31
0.0
  0
LINE
  5
2a3
100
AcDbEntity
  8
0
 62
7
100
AcDbLine
 10
61.274960
 20
-72.795445
 30
0.0
 11
61.274960
 21
-58.825445
 31
0.0
  0
LINE
  5
2a4
100
AcDbEntity
  8
0
 62
7
100
AcDbLine
 10
42.224960
 20
-58.825445
 30
0.0
 11
56.194960
 21
-58.825445
 31
0.0
  0
LINE
  5
2a5
100
AcDbEntity
  8
0
 62
7
100
AcDbLine
 10
56.194960
 20
-58.825445
 30
0.0
 11
56.194960
 21
-72.795445
 31
0.0
  0
LINE
  5
2a6
100
AcDbEntity
  8
0
 62
7
100
AcDbLine
 10
56.194960
 20
-72.795445
 30
0.0
 11
42.224960
 21
-72.795445
 31
0.0
  0
LINE
  5
2a7
100
AcDbEntity
  8
0
 62
7
100
AcDbLine
 10
42.224960
 20
-72.795445
 30
0.0
 11
42.224960
 21
-58.825445
 31
0.0
  0
LINE
  5
2a8
100
AcDbEntity
  8
0
 62
7
100
AcDbLine
 10
242.272820
 20
-39.724645
 30
0.0
 11
256.242820
 21
-39.724645
 31
0.0
  0
LINE
  5
2a9
100
AcDbEntity
  8
0
 62
7
100
AcDbLine
 10
256.242820
 20
-39.724645
 30
0.0
 11
256.242820
 21
-53.694645
 31
0.0
  0
LINE
  5
2aa
100
AcDbEntity
  8
0
 62
7
100
AcDbLine
 10
256.242820
 20
-53.694645
 30
0.0
 11
242.272820
 21
-53.694645
 31
0.0
  0
LINE
  5
2ab
100
AcDbEntity
  8
0
 62
7
100
AcDbLine
 10
242.272820
 20
-53.694645
 30
0.0
 11
242.272820
 21
-39.724645
 31
0.0
  0
LINE
  5
2ac
100
AcDbEntity
  8
0
 62
7
100
AcDbLine
 10
223.222820
 20
-39.724645
 30
0.0
 11
237.192820
 21
-39.724645
 31
0.0
  0
LINE
  5
2ad
100
AcDbEntity
  8
0
 62
7
100
AcDbLine
 10
237.192820
 20
-39.724645
 30
0.0
 11
237.192820
 21
-53.694645
 31
0.0
  0
LINE
  5
2ae
100
AcDbEntity
  8
0
 62
7
100
AcDbLine
 10
237.192820
 20
-53.694645
 30
0.0
 11
223.222820
 21
-53.694645
 31
0.0
  0
LINE
  5
2af
100
AcDbEntity
  8
0
 62
7
100
AcDbLine
 10
223.222820
 20
-53.694645
 30
0.0
 11
223.222820
 21
-39.724645
 31
0.0
  0
LINE
  5
2b0
100
AcDbEntity
  8
0
 62
7
100
AcDbLine
 10
204.172820
 20
-39.724645
 30
0.0
 11
218.142820
 21
-39.724645
 31
0.0
  0
LINE
  5
2b1
100
AcDbEntity
  8
0
 62
7
100
AcDbLine
 10
218.142820
 20
-39.724645
 30
0.0
 11
218.142820
 21
-53.694645
 31
0.0
  0
LINE
  5
2b2
100
AcDbEntity
  8
0
 62
7
100
AcDbLine
 10
218.142820
 20
-53.694645
 30
0.0
 11
204.172820
 21
-53.694645
 31
0.0
  0
LINE
  5
2b3
100
AcDbEntity
  8
0
 62
7
100
AcDbLine
 10
204.172820
 20
-53.694645
 30
0.0
 11
204.172820
 21
-39.724645
 31
0.0
  0
LINE
  5
2b4
100
AcDbEntity
  8
0
 62
7
100
AcDbLine
 10
185.122820
 20
-39.724645
 30
0.0
 11
199.092820
 21
-39.724645
 31
0.0
  0
LINE
  5
2b5
100
AcDbEntity
  8
0
 62
7
100
AcDbLine
 10
199.092820
 20
-39.724645
 30
0.0
 11
199.092820
 21
-53.694645
 31
0.0
  0
LINE
  5
2b6
100
AcDbEntity
  8
0
 62
7
100
AcDbLine
 10
199.092820
 20
-53.694645
 30
0.0
 11
185.122820
 21
-53.694645
 31
0.0
  0
LINE
  5
2b7
100
AcDbEntity
  8
0
 62
7
100
AcDbLine
 10
185.122820
 20
-53.694645
 30
0.0
 11
185.122820
 21
-39.724645
 31
0.0
  0
LINE
  5
2b8
100
AcDbEntity
  8
0
 62
7
100
AcDbLine
 10
166.072820
 20
-39.724645
 30
0.0
 11
180.042820
 21
-39.724645
 31
0.0
  0
LINE
  5
2b9
100
AcDbEntity
  8
0
 62
7
100
AcDbLine
 10
180.042820
 20
-39.724645
 30
0.0
 11
180.042820
 21
-53.694645
 31
0.0
  0
LINE
  5
2ba
100
AcDbEntity
  8
0
 62
7
100
AcDbLine
 10
180.042820
 20
-53.694645
 30
0.0
 11
166.072820
 21
-53.694645
 31
0.0
  0
LINE
  5
2bb
100
AcDbEntity
  8
0
 62
7
100
AcDbLine
 10
166.072820
 20
-53.694645
 30
0.0
 11
166.072820
 21
-39.724645
 31
0.0
  0
LINE
  5
2bc
100
AcDbEntity
  8
0
 62
7
100
AcDbLine
 10
147.022820
 20
-39.724645
 30
0.0
 11
160.992820
 21
-39.724645
 31
0.0
  0
LINE
  5
2bd
100
AcDbEntity
  8
0
 62
7
100
AcDbLine
 10
160.992820
 20
-39.724645
 30
0.0
 11
160.992820
 21
-53.694645
 31
0.0
  0
LINE
  5
2be
100
AcDbEntity
  8
0
 62
7
100
AcDbLine
 10
160.992820
 20
-53.694645
 30
0.0
 11
147.022820
 21
-53.694645
 31
0.0
  0
LINE
  5
2bf
100
AcDbEntity
  8
0
 62
7
100
AcDbLine
 10
147.022820
 20
-53.694645
 30
0.0
 11
147.022820
 21
-39.724645
 31
0.0
  0
LINE
  5
2c0
100
AcDbEntity
  8
0
 62
7
100
AcDbLine
 10
127.972820
 20
-39.724645
 30
0.0
 11
141.942820
 21
-39.724645
 31
0.0
  0
LINE
  5
2c1
100
AcDbEntity
  8
0
 62
7
100
AcDbLine
 10
141.942820
 20
-39.724645
 30
0.0
 11
141.942820
 21
-53.694645
 31
0.0
  0
LINE
  5
2c2
100
AcDbEntity
  8
0
 62
7
100
AcDbLine
 10
141.942820
 20
-53.694645
 30
0.0
 11
127.972820
 21
-53.694645
 31
0.0
  0
LINE
  5
2c3
100
AcDbEntity
  8
0
 62
7
100
AcDbLine
 10
127.972820
 20
-53.694645
 30
0.0
 11
127.972820
 21
-39.724645
 31
0.0
  0
LINE
  5
2c4
100
AcDbEntity
  8
0
 62
7
100
AcDbLine
 10
108.922820
 20
-39.724645
 30
0.0
 11
122.892820
 21
-39.724645
 31
0.0
  0
LINE
  5
2c5
100
AcDbEntity
  8
0
 62
7
100
AcDbLine
 10
122.892820
 20
-39.724645
 30
0.0
 11
122.892820
 21
-53.694645
 31
0.0
  0
LINE
  5
2c6
100
AcDbEntity
  8
0
 62
7
100
AcDbLine
 10
122.892820
 20
-53.694645
 30
0.0
 11
108.922820
 21
-53.694645
 31
0.0
  0
LINE
  5
2c7
100
AcDbEntity
  8
0
 62
7
100
AcDbLine
 10
108.922820
 20
-53.694645
 30
0.0
 11
108.922820
 21
-39.724645
 31
0.0
  0
LINE
  5
2c8
100
AcDbEntity
  8
0
 62
7
100
AcDbLine
 10
89.872820
 20
-39.724645
 30
0.0
 11
103.842820
 21
-39.724645
 31
0.0
  0
LINE
  5
2c9
100
AcDbEntity
  8
0
 62
7
100
AcDbLine
 10
103.842820
 20
-39.724645
 30
0.0
 11
103.842820
 21
-53.694645
 31
0.0
  0
LINE
  5
2ca
100
AcDbEntity
  8
0
 62
7
100
AcDbLine
 10
103.842820
 20
-53.694645
 30
0.0
 11
89.872820
 21
-53.694645
 31
0.0
  0
LINE
  5
2cb
100
AcDbEntity
  8
0
 62
7
100
AcDbLine
 10
89.872820
 20
-53.694645
 30
0.0
 11
89.872820
 21
-39.724645
 31
0.0
  0
LINE
  5
2cc
100
AcDbEntity
  8
0
 62
7
100
AcDbLine
 10
70.822820
 20
-39.724645
 30
0.0
 11
84.792820
 21
-39.724645
 31
0.0
  0
LINE
  5
2cd
100
AcDbEntity
  8
0
 62
7
100
AcDbLine
 10
84.792820
 20
-39.724645
 30
0.0
 11
84.792820
 21
-53.694645
 31
0.0
  0
LINE
  5
2ce
100
AcDbEntity
  8
0
 62
7
100
AcDbLine
 10
84.792820
 20
-53.694645
 30
0.0
 11
70.822820
 21
-53.694645
 31
0.0
  0
LINE
  5
2cf
100
AcDbEntity
  8
0
 62
7
100
AcDbLine
 10
70.822820
 20
-53.694645
 30
0.0
 11
70.822820
 21
-39.724645
 31
0.0
  0
LINE
  5
2d0
100
AcDbEntity
  8
0
 62
7
100
AcDbLine
 10
51.772820
 20
-39.724645
 30
0.0
 11
65.742820
 21
-39.724645
 31
0.0
  0
LINE
  5
2d1
100
AcDbEntity
  8
0
 62
7
100
AcDbLine
 10
65.742820
 20
-39.724645
 30
0.0
 11
65.742820
 21
-53.694645
 31
0.0
  0
LINE
  5
2d2
100
AcDbEntity
  8
0
 62
7
100
AcDbLine
 10
65.742820
 20
-53.694645
 30
0.0
 11
51.772820
 21
-53.694645
 31
0.0
  0
LINE
  5
2d3
100
AcDbEntity
  8
0
 62
7
100
AcDbLine
 10
51.772820
 20
-53.694645
 30
0.0
 11
51.772820
 21
-39.724645
 31
0.0
  0
LINE
  5
2d4
100
AcDbEntity
  8
0
 62
7
100
AcDbLine
 10
32.722820
 20
-39.724645
 30
0.0
 11
46.692820
 21
-39.724645
 31
0.0
  0
LINE
  5
2d5
100
AcDbEntity
  8
0
 62
7
100
AcDbLine
 10
46.692820
 20
-39.724645
 30
0.0
 11
46.692820
 21
-53.694645
 31
0.0
  0
LINE
  5
2d6
100
AcDbEntity
  8
0
 62
7
100
AcDbLine
 10
46.692820
 20
-53.694645
 30
0.0
 11
32.722820
 21
-53.694645
 31
0.0
  0
LINE
  5
2d7
100
AcDbEntity
  8
0
 62
7
100
AcDbLine
 10
32.722820
 20
-53.694645
 30
0.0
 11
32.722820
 21
-39.724645
 31
0.0
  0
LINE
  5
2d8
100
AcDbEntity
  8
0
 62
7
100
AcDbLine
 10
13.672820
 20
-39.724645
 30
0.0
 11
27.642820
 21
-39.724645
 31
0.0
  0
LINE
  5
2d9
100
AcDbEntity
  8
0
 62
7
100
AcDbLine
 10
27.642820
 20
-39.724645
 30
0.0
 11
27.642820
 21
-53.694645
 31
0.0
  0
LINE
  5
2da
100
AcDbEntity
  8
0
 62
7
100
AcDbLine
 10
27.642820
 20
-53.694645
 30
0.0
 11
13.672820
 21
-53.694645
 31
0.0
  0
LINE
  5
2db
100
AcDbEntity
  8
0
 62
7
100
AcDbLine
 10
13.672820
 20
-53.694645
 30
0.0
 11
13.672820
 21
-39.724645
 31
0.0
  0
LINE
  5
2dc
100
AcDbEntity
  8
0
 62
7
100
AcDbLine
 10
261.274560
 20
-15.924845
 30
0.0
 11
275.244560
 21
-15.924845
 31
0.0
  0
LINE
  5
2dd
100
AcDbEntity
  8
0
 62
7
100
AcDbLine
 10
275.244560
 20
-15.924845
 30
0.0
 11
275.244560
 21
-29.894845
 31
0.0
  0
LINE
  5
2de
100
AcDbEntity
  8
0
 62
7
100
AcDbLine
 10
275.244560
 20
-29.894845
 30
0.0
 11
261.274560
 21
-29.894845
 31
0.0
  0
LINE
  5
2df
100
AcDbEntity
  8
0
 62
7
100
AcDbLine
 10
261.274560
 20
-29.894845
 30
0.0
 11
261.274560
 21
-15.924845
 31
0.0
  0
LINE
  5
2e0
100
AcDbEntity
  8
0
 62
7
100
AcDbLine
 10
223.222820
 20
-15.924845
 30
0.0
 11
237.192820
 21
-15.924845
 31
0.0
  0
LINE
  5
2e1
100
AcDbEntity
  8
0
 62
7
100
AcDbLine
 10
237.192820
 20
-15.924845
 30
0.0
 11
237.192820
 21
-29.894845
 31
0.0
  0
LINE
  5
2e2
100
AcDbEntity
  8
0
 62
7
100
AcDbLine
 10
237.192820
 20
-29.894845
 30
0.0
 11
223.222820
 21
-29.894845
 31
0.0
  0
LINE
  5
2e3
100
AcDbEntity
  8
0
 62
7
100
AcDbLine
 10
223.222820
 20
-29.894845
 30
0.0
 11
223.222820
 21
-15.924845
 31
0.0
  0
LINE
  5
2e4
100
AcDbEntity
  8
0
 62
7
100
AcDbLine
 10
204.172820
 20
-15.924845
 30
0.0
 11
218.142820
 21
-15.924845
 31
0.0
  0
LINE
  5
2e5
100
AcDbEntity
  8
0
 62
7
100
AcDbLine
 10
218.142820
 20
-15.924845
 30
0.0
 11
218.142820
 21
-29.894845
 31
0.0
  0
LINE
  5
2e6
100
AcDbEntity
  8
0
 62
7
100
AcDbLine
 10
218.142820
 20
-29.894845
 30
0.0
 11
204.172820
 21
-29.894845
 31
0.0
  0
LINE
  5
2e7
100
AcDbEntity
  8
0
 62
7
100
AcDbLine
 10
204.172820
 20
-29.894845
 30
0.0
 11
204.172820
 21
-15.924845
 31
0.0
  0
LINE
  5
2e8
100
AcDbEntity
  8
0
 62
7
100
AcDbLine
 10
180.373020
 20
-15.927385
 30
0.0
 11
194.343020
 21
-15.927385
 31
0.0
  0
LINE
  5
2e9
100
AcDbEntity
  8
0
 62
7
100
AcDbLine
 10
194.343020
 20
-15.927385
 30
0.0
 11
194.343020
 21
-29.897385
 31
0.0
  0
LINE
  5
2ea
100
AcDbEntity
  8
0
 62
7
100
AcDbLine
 10
194.343020
 20
-29.897385
 30
0.0
 11
180.373020
 21
-29.897385
 31
0.0
  0
LINE
  5
2eb
100
AcDbEntity
  8
0
 62
7
100
AcDbLine
 10
180.373020
 20
-29.897385
 30
0.0
 11
180.373020
 21
-15.927385
 31
0.0
  0
LINE
  5
2ec
100
AcDbEntity
  8
0
 62
7
100
AcDbLine
 10
161.323020
 20
-15.924845
 30
0.0
 11
175.293020
 21
-15.924845
 31
0.0
  0
LINE
  5
2ed
100
AcDbEntity
  8
0
 62
7
100
AcDbLine
 10
175.293020
 20
-15.924845
 30
0.0
 11
175.293020
 21
-29.894845
 31
0.0
  0
LINE
  5
2ee
100
AcDbEntity
  8
0
 62
7
100
AcDbLine
 10
175.293020
 20
-29.894845
 30
0.0
 11
161.323020
 21
-29.894845
 31
0.0
  0
LINE
  5
2ef
100
AcDbEntity
  8
0
 62
7
100
AcDbLine
 10
161.323020
 20
-29.894845
 30
0.0
 11
161.323020
 21
-15.924845
 31
0.0
  0
LINE
  5
2f0
100
AcDbEntity
  8
0
 62
7
100
AcDbLine
 10
142.273020
 20
-15.924845
 30
0.0
 11
156.243020
 21
-15.924845
 31
0.0
  0
LINE
  5
2f1
100
AcDbEntity
  8
0
 62
7
100
AcDbLine
 10
156.243020
 20
-15.924845
 30
0.0
 11
156.243020
 21
-29.894845
 31
0.0
  0
LINE
  5
2f2
100
AcDbEntity
  8
0
 62
7
100
AcDbLine
 10
156.243020
 20
-29.894845
 30
0.0
 11
142.273020
 21
-29.894845
 31
0.0
  0
LINE
  5
2f3
100
AcDbEntity
  8
0
 62
7
100
AcDbLine
 10
142.273020
 20
-29.894845
 30
0.0
 11
142.273020
 21
-15.924845
 31
0.0
  0
LINE
  5
2f4
100
AcDbEntity
  8
0
 62
7
100
AcDbLine
 10
123.223020
 20
-15.924845
 30
0.0
 11
137.193020
 21
-15.924845
 31
0.0
  0
LINE
  5
2f5
100
AcDbEntity
  8
0
 62
7
100
AcDbLine
 10
137.193020
 20
-15.924845
 30
0.0
 11
137.193020
 21
-29.894845
 31
0.0
  0
LINE
  5
2f6
100
AcDbEntity
  8
0
 62
7
100
AcDbLine
 10
137.193020
 20
-29.894845
 30
0.0
 11
123.223020
 21
-29.894845
 31
0.0
  0
LINE
  5
2f7
100
AcDbEntity
  8
0
 62
7
100
AcDbLine
 10
123.223020
 20
-29.894845
 30
0.0
 11
123.223020
 21
-15.924845
 31
0.0
  0
LINE
  5
2f8
100
AcDbEntity
  8
0
 62
7
100
AcDbLine
 10
99.423220
 20
-15.924845
 30
0.0
 11
113.393220
 21
-15.924845
 31
0.0
  0
LINE
  5
2f9
100
AcDbEntity
  8
0
 62
7
100
AcDbLine
 10
113.393220
 20
-15.924845
 30
0.0
 11
113.393220
 21
-29.894845
 31
0.0
  0
LINE
  5
2fa
100
AcDbEntity
  8
0
 62
7
100
AcDbLine
 10
113.393220
 20
-29.894845
 30
0.0
 11
99.423220
 21
-29.894845
 31
0.0
  0
LINE
  5
2fb
100
AcDbEntity
  8
0
 62
7
100
AcDbLine
 10
99.423220
 20
-29.894845
 30
0.0
 11
99.423220
 21
-15.924845
 31
0.0
  0
LINE
  5
2fc
100
AcDbEntity
  8
0
 62
7
100
AcDbLine
 10
80.324960
 20
-15.924845
 30
0.0
 11
94.294960
 21
-15.924845
 31
0.0
  0
LINE
  5
2fd
100
AcDbEntity
  8
0
 62
7
100
AcDbLine
 10
94.294960
 20
-15.924845
 30
0.0
 11
94.294960
 21
-29.894845
 31
0.0
  0
LINE
  5
2fe
100
AcDbEntity
  8
0
 62
7
100
AcDbLine
 10
94.294960
 20
-29.894845
 30
0.0
 11
80.324960
 21
-29.894845
 31
0.0
  0
LINE
  5
2ff
100
AcDbEntity
  8
0
 62
7
100
AcDbLine
 10
80.324960
 20
-29.894845
 30
0.0
 11
80.324960
 21
-15.924845
 31
0.0
  0
LINE
  5
300
100
AcDbEntity
  8
0
 62
7
100
AcDbLine
 10
61.274960
 20
-15.924845
 30
0.0
 11
75.244960
 21
-15.924845
 31
0.0
  0
LINE
  5
301
100
AcDbEntity
  8
0
 62
7
100
AcDbLine
 10
75.244960
 20
-15.924845
 30
0.0
 11
75.244960
 21
-29.894845
 31
0.0
  0
LINE
  5
302
100
AcDbEntity
  8
0
 62
7
100
AcDbLine
 10
75.244960
 20
-29.894845
 30
0.0
 11
61.274960
 21
-29.894845
 31
0.0
  0
LINE
  5
303
100
AcDbEntity
  8
0
 62
7
100
AcDbLine
 10
61.274960
 20
-29.894845
 30
0.0
 11
61.274960
 21
-15.924845
 31
0.0
  0
LINE
  5
304
100
AcDbEntity
  8
0
 62
7
100
AcDbLine
 10
42.273220
 20
-15.924845
 30
0.0
 11
56.243220
 21
-15.924845
 31
0.0
  0
LINE
  5
305
100
AcDbEntity
  8
0
 62
7
100
AcDbLine
 10
56.243220
 20
-15.924845
 30
0.0
 11
56.243220
 21
-29.894845
 31
0.0
  0
LINE
  5
306
100
AcDbEntity
  8
0
 62
7
100
AcDbLine
 10
56.243220
 20
-29.894845
 30
0.0
 11
42.273220
 21
-29.894845
 31
0.0
  0
LINE
  5
307
100
AcDbEntity
  8
0
 62
7
100
AcDbLine
 10
42.273220
 20
-29.894845
 30
0.0
 11
42.273220
 21
-15.924845
 31
0.0
  0
LINE
  5
308
100
AcDbEntity
  8
0
 62
7
100
AcDbLine
 10
13.672820
 20
-15.924845
 30
0.0
 11
27.642820
 21
-15.924845
 31
0.0
  0
LINE
  5
309
100
AcDbEntity
  8
0
 62
7
100
AcDbLine
 10
27.642820
 20
-15.924845
 30
0.0
 11
27.642820
 21
-29.894845
 31
0.0
  0
LINE
  5
30a
100
AcDbEntity
  8
0
 62
7
100
AcDbLine
 10
27.642820
 20
-29.894845
 30
0.0
 11
13.672820
 21
-29.894845
 31
0.0
  0
LINE
  5
30b
100
AcDbEntity
  8
0
 62
7
100
AcDbLine
 10
13.672820
 20
-29.894845
 30
0.0
 11
13.672820
 21
-15.924845
 31
0.0
  0
LINE
  5
30c
100
AcDbEntity
  8
0
 62
7
100
AcDbLine
 10
242.272820
 20
-15.924845
 30
0.0
 11
256.242820
 21
-15.924845
 31
0.0
  0
LINE
  5
30d
100
AcDbEntity
  8
0
 62
7
100
AcDbLine
 10
256.242820
 20
-15.924845
 30
0.0
 11
256.242820
 21
-29.894845
 31
0.0
  0
LINE
  5
30e
100
AcDbEntity
  8
0
 62
7
100
AcDbLine
 10
256.242820
 20
-29.894845
 30
0.0
 11
242.272820
 21
-29.894845
 31
0.0
  0
LINE
  5
30f
100
AcDbEntity
  8
0
 62
7
100
AcDbLine
 10
242.272820
 20
-29.894845
 30
0.0
 11
242.272820
 21
-15.924845
 31
0.0
  0
LINE
  5
310
100
AcDbEntity
  8
0
 62
7
100
AcDbLine
 10
275.623020
 20
-72.795445
 30
0.0
 11
275.623020
 21
-58.825445
 31
0.0
  0
LINE
  5
311
100
AcDbEntity
  8
0
 62
7
100
AcDbLine
 10
289.593020
 20
-72.795445
 30
0.0
 11
275.623020
 21
-72.795445
 31
0.0
  0
LINE
  5
312
100
AcDbEntity
  8
0
 62
7
100
AcDbLine
 10
289.593020
 20
-58.825445
 30
0.0
 11
289.593020
 21
-72.795445
 31
0.0
  0
LINE
  5
313
100
AcDbEntity
  8
0
 62
7
100
AcDbLine
 10
275.623020
 20
-58.825445
 30
0.0
 11
289.593020
 21
-58.825445
 31
0.0
  0
LINE
  5
314
100
AcDbEntity
  8
0
 62
7
100
AcDbLine
 10
18.422620
 20
-72.795445
 30
0.0
 11
18.422620
 21
-58.825445
 31
0.0
  0
LINE
  5
315
100
AcDbEntity
  8
0
 62
7
100
AcDbLine
 10
32.392620
 20
-72.795445
 30
0.0
 11
18.422620
 21
-72.795445
 31
0.0
  0
LINE
  5
316
100
AcDbEntity
  8
0
 62
7
100
AcDbLine
 10
32.392620
 20
-58.825445
 30
0.0
 11
32.392620
 21
-72.795445
 31
0.0
  0
LINE
  5
317
100
AcDbEntity
  8
0
 62
7
100
AcDbLine
 10
18.422620
 20
-58.825445
 30
0.0
 11
32.392620
 21
-58.825445
 31
0.0
  0
LINE
  5
318
100
AcDbEntity
  8
0
 62
7
100
AcDbLine
 10
20.774660
 20
-91.794645
 30
0.0
 11
20.774660
 21
-77.824645
 31
0.0
  0
LINE
  5
319
100
AcDbEntity
  8
0
 62
7
100
AcDbLine
 10
34.744660
 20
-91.794645
 30
0.0
 11
20.774660
 21
-91.794645
 31
0.0
  0
LINE
  5
31a
100
AcDbEntity
  8
0
 62
7
100
AcDbLine
 10
34.744660
 20
-77.824645
 30
0.0
 11
34.744660
 21
-91.794645
 31
0.0
  0
LINE
  5
31b
100
AcDbEntity
  8
0
 62
7
100
AcDbLine
 10
20.774660
 20
-77.824645
 30
0.0
 11
34.744660
 21
-77.824645
 31
0.0
  0
LINE
  5
31c
100
AcDbEntity
  8
0
 62
7
100
AcDbLine
 10
58.922920
 20
-115.975445
 30
0.0
 11
72.892920
 21
-115.975445
 31
0.0
  0
LINE
  5
31d
100
AcDbEntity
  8
0
 62
7
100
AcDbLine
 10
72.892920
 20
-115.975445
 30
0.0
 11
72.892920
 21
-129.945445
 31
0.0
  0
LINE
  5
31e
100
AcDbEntity
  8
0
 62
7
100
AcDbLine
 10
72.892920
 20
-129.945445
 30
0.0
 11
58.922920
 21
-129.945445
 31
0.0
  0
LINE
  5
31f
100
AcDbEntity
  8
0
 62
7
100
AcDbLine
 10
58.922920
 20
-129.945445
 30
0.0
 11
58.922920
 21
-115.975445
 31
0.0
  0
LINE
  5
320
100
AcDbEntity
  8
0
 62
7
100
AcDbLine
 10
16.024860
 20
-115.975445
 30
0.0
 11
29.994860
 21
-115.975445
 31
0.0
  0
LINE
  5
321
100
AcDbEntity
  8
0
 62
7
100
AcDbLine
 10
29.994860
 20
-115.975445
 30
0.0
 11
29.994860
 21
-129.945445
 31
0.0
  0
LINE
  5
322
100
AcDbEntity
  8
0
 62
7
100
AcDbLine
 10
29.994860
 20
-129.945445
 30
0.0
 11
16.024860
 21
-129.945445
 31
0.0
  0
LINE
  5
323
100
AcDbEntity
  8
0
 62
7
100
AcDbLine
 10
16.024860
 20
-129.945445
 30
0.0
 11
16.024860
 21
-115.975445
 31
0.0
  0
SPLINE
  5
324
100
AcDbEntity
  8
0
 62
7
100
AcDbSpline
 70
8
 71
3
 72
8
 73
4
 74
0
 40
0
 40
0
 40
0
 40
0
 40
1
 40
1
 40
1
 40
1
 10
285.709360
 20
-6.212825
 30
0.0
 10
284.881481
 20
-6.213597
 30
0.0
 10
284.210761
 20
-6.884942
 30
0.0
 10
284.210760
 20
-7.712822
 30
0.0
  0
SPLINE
  5
325
100
AcDbEntity
  8
0
 62
7
100
AcDbSpline
 70
8
 71
3
 72
8
 73
4
 74
0
 40
0
 40
0
 40
0
 40
0
 40
1
 40
1
 40
1
 40
1
 10
284.210760
 20
-35.712715
 30
0.0
 10
284.210691
 20
-36.540644
 30
0.0
 10
284.881431
 20
-37.212066
 30
0.0
 10
285.709360
 20
-37.212839
 30
0.0
  0
SPLINE
  5
326
100
AcDbEntity
  8
0
 62
7
100
AcDbSpline
 70
8
 71
3
 72
8
 73
4
 74
0
 40
0
 40
0
 40
0
 40
0
 40
1
 40
1
 40
1
 40
1
 10
312.709560
 20
-37.212839
 30
0.0
 10
313.107604
 20
-37.213142
 30
0.0
 10
313.489446
 20
-37.055223
 30
0.0
 10
313.771001
 20
-36.773859
 30
0.0
  0
SPLINE
  5
327
100
AcDbEntity
  8
0
 62
7
100
AcDbSpline
 70
8
 71
3
 72
8
 73
4
 74
0
 40
0
 40
0
 40
0
 40
0
 40
1
 40
1
 40
1
 40
1
 10
313.771001
 20
-36.773859
 30
0.0
 10
314.052556
 20
-36.492494
 30
0.0
 10
314.210733
 20
-36.110759
 30
0.0
 10
314.210700
 20
-35.712715
 30
0.0
  0
SPLINE
  5
328
100
AcDbEntity
  8
0
 62
7
100
AcDbSpline
 70
8
 71
3
 72
8
 73
4
 74
0
 40
0
 40
0
 40
0
 40
0
 40
1
 40
1
 40
1
 40
1
 10
314.210700
 20
-7.712822
 30
0.0
 10
314.210699
 20
-7.314800
 30
0.0
 10
314.052507
 20
-6.933097
 30
0.0
 10
313.770956
 20
-6.651760
 30
0.0
  0
SPLINE
  5
329
100
AcDbEntity
  8
0
 62
7
100
AcDbSpline
 70
8
 71
3
 72
8
 73
4
 74
0
 40
0
 40
0
 40
0
 40
0
 40
1
 40
1
 40
1
 40
1
 10
313.770956
 20
-6.651760
 30
0.0
 10
313.489405
 20
-6.370423
 30
0.0
 10
313.107582
 20
-6.212522
 30
0.0
 10
312.709560
 20
-6.212825
 30
0.0
  0
LINE
  5
32a
100
AcDbEntity
  8
0
 62
7
100
AcDbLine
 10
285.709360
 20
-6.211885
 30
0.0
 11
312.709560
 21
-6.211885
 31
0.0
  0
LINE
  5
32b
100
AcDbEntity
  8
0
 62
7
100
AcDbLine
 10
314.208160
 20
-7.710485
 30
0.0
 11
314.208160
 21
-35.711445
 31
0.0
  0
LINE
  5
32c
100
AcDbEntity
  8
0
 62
7
100
AcDbLine
 10
312.709560
 20
-37.212585
 30
0.0
 11
285.709360
 21
-37.212585
 31
0.0
  0
LINE
  5
32d
100
AcDbEntity
  8
0
 62
7
100
AcDbLine
 10
284.208220
 20
-35.711445
 30
0.0
 11
284.208220
 21
-7.710485
 31
0.0
  0
SPLINE
  5
32e
100
AcDbEntity
  8
0
 62
7
100
AcDbSpline
 70
8
 71
3
 72
8
 73
4
 74
0
 40
0
 40
0
 40
0
 40
0
 40
1
 40
1
 40
1
 40
1
 10
324.759320
 20
-31.722858
 30
0.0
 10
320.714695
 20
-31.722858
 30
0.0
 10
317.068331
 20
-34.159281
 30
0.0
 10
315.520520
 20
-37.896027
 30
0.0
  0
SPLINE
  5
32f
100
AcDbEntity
  8
0
 62
7
100
AcDbSpline
 70
8
 71
3
 72
8
 73
4
 74
0
 40
0
 40
0
 40
0
 40
0
 40
1
 40
1
 40
1
 40
1
 10
315.520520
 20
-37.896027
 30
0.0
 10
313.972709
 20
-41.632772
 30
0.0
 10
314.828267
 20
-45.933953
 30
0.0
 10
317.688248
 20
-48.793935
 30
0.0
  0
SPLINE
  5
330
100
AcDbEntity
  8
0
 62
7
100
AcDbSpline
 70
8
 71
3
 72
8
 73
4
 74
0
 40
0
 40
0
 40
0
 40
0
 40
1
 40
1
 40
1
 40
1
 10
317.688248
 20
-48.793935
 30
0.0
 10
320.548230
 20
-51.653916
 30
0.0
 10
324.849410
 20
-52.509474
 30
0.0
 10
328.586156
 20
-50.961663
 30
0.0
  0
SPLINE
  5
331
100
AcDbEntity
  8
0
 62
7
100
AcDbSpline
 70
8
 71
3
 72
8
 73
4
 74
0
 40
0
 40
0
 40
0
 40
0
 40
1
 40
1
 40
1
 40
1
 10
328.586156
 20
-50.961663
 30
0.0
 10
332.322902
 20
-49.413852
 30
0.0
 10
334.759325
 20
-45.767488
 30
0.0
 10
334.759325
 20
-41.722863
 30
0.0
  0
SPLINE
  5
332
100
AcDbEntity
  8
0
 62
7
100
AcDbSpline
 70
8
 71
3
 72
8
 73
4
 74
0
 40
0
 40
0
 40
0
 40
0
 40
1
 40
1
 40
1
 40
1
 10
334.759325
 20
-41.722863
 30
0.0
 10
334.759325
 20
-39.070697
 30
0.0
 10
333.705756
 20
-36.527156
 30
0.0
 10
331.830392
 20
-34.651791
 30
0.0
  0
SPLINE
  5
333
100
AcDbEntity
  8
0
 62
7
100
AcDbSpline
 70
8
 71
3
 72
8
 73
4
 74
0
 40
0
 40
0
 40
0
 40
0
 40
1
 40
1
 40
1
 40
1
 10
331.830392
 20
-34.651791
 30
0.0
 10
329.955027
 20
-32.776427
 30
0.0
 10
327.411486
 20
-31.722858
 30
0.0
 10
324.759320
 20
-31.722858
 30
0.0
  0
LINE
  5
334
100
AcDbEntity
  8
0
 62
7
100
AcDbLine
 10
324.759320
 20
-31.722858
 30
0.0
 11
324.759320
 21
-31.722858
 31
0.0
  0
SPLINE
  5
335
100
AcDbEntity
  8
0
 62
7
100
AcDbSpline
 70
8
 71
3
 72
8
 73
4
 74
0
 40
0
 40
0
 40
0
 40
0
 40
1
 40
1
 40
1
 40
1
 10
331.000100
 20
-134.392805
 30
0.0
 10
330.555191
 20
-134.392805
 30
0.0
 10
330.154091
 20
-134.660811
 30
0.0
 10
329.983832
 20
-135.071853
 30
0.0
  0
SPLINE
  5
336
100
AcDbEntity
  8
0
 62
7
100
AcDbSpline
 70
8
 71
3
 72
8
 73
4
 74
0
 40
0
 40
0
 40
0
 40
0
 40
1
 40
1
 40
1
 40
1
 10
329.983832
 20
-135.071853
 30
0.0
 10
329.813573
 20
-135.482895
 30
0.0
 10
329.907684
 20
-135.956025
 30
0.0
 10
330.222282
 20
-136.270623
 30
0.0
  0
SPLINE
  5
337
100
AcDbEntity
  8
0
 62
7
100
AcDbSpline
 70
8
 71
3
 72
8
 73
4
 74
0
 40
0
 40
0
 40
0
 40
0
 40
1
 40
1
 40
1
 40
1
 10
330.222282
 20
-136.270623
 30
0.0
 10
330.536880
 20
-136.585221
 30
0.0
 10
331.010010
 20
-136.679332
 30
0.0
 10
331.421052
 20
-136.509073
 30
0.0
  0
SPLINE
  5
338
100
AcDbEntity
  8
0
 62
7
100
AcDbSpline
 70
8
 71
3
 72
8
 73
4
 74
0
 40
0
 40
0
 40
0
 40
0
 40
1
 40
1
 40
1
 40
1
 10
331.421052
 20
-136.509073
 30
0.0
 10
331.832094
 20
-136.338814
 30
0.0
 10
332.100100
 20
-135.937714
 30
0.0
 10
332.100100
 20
-135.492805
 30
0.0
  0
SPLINE
  5
339
100
AcDbEntity
  8
0
 62
7
100
AcDbSpline
 70
8
 71
3
 72
8
 73
4
 74
0
 40
0
 40
0
 40
0
 40
0
 40
1
 40
1
 40
1
 40
1
 10
332.100100
 20
-135.492805
 30
0.0
 10
332.100100
 20
-135.201067
 30
0.0
 10
331.984208
 20
-134.921277
 30
0.0
 10
331.777918
 20
-134.714987
 30
0.0
  0
SPLINE
  5
33a
100
AcDbEntity
  8
0
 62
7
100
AcDbSpline
 70
8
 71
3
 72
8
 73
4
 74
0
 40
0
 40
0
 40
0
 40
0
 40
1
 40
1
 40
1
 40
1
 10
331.777918
 20
-134.714987
 30
0.0
 10
331.571628
 20
-134.508697
 30
0.0
 10
331.291838
 20
-134.392805
 30
0.0
 10
331.000100
 20
-134.392805
 30
0.0
  0
LINE
  5
33b
100
AcDbEntity
  8
0
 62
7
100
AcDbLine
 10
331.000100
 20
-134.392805
 30
0.0
 11
331.000100
 21
-134.392805
 31
0.0
  0
SPLINE
  5
33c
100
AcDbEntity
  8
0
 62
7
100
AcDbSpline
 70
8
 71
3
 72
8
 73
4
 74
0
 40
0
 40
0
 40
0
 40
0
 40
1
 40
1
 40
1
 40
1
 10
331.000100
 20
-8.392828
 30
0.0
 10
330.555191
 20
-8.392828
 30
0.0
 10
330.154091
 20
-8.660834
 30
0.0
 10
329.983832
 20
-9.071876
 30
0.0
  0
SPLINE
  5
33d
100
AcDbEntity
  8
0
 62
7
100
AcDbSpline
 70
8
 71
3
 72
8
 73
4
 74
0
 40
0
 40
0
 40
0
 40
0
 40
1
 40
1
 40
1
 40
1
 10
329.983832
 20
-9.071876
 30
0.0
 10
329.813573
 20
-9.482918
 30
0.0
 10
329.907684
 20
-9.956048
 30
0.0
 10
330.222282
 20
-10.270646
 30
0.0
  0
SPLINE
  5
33e
100
AcDbEntity
  8
0
 62
7
100
AcDbSpline
 70
8
 71
3
 72
8
 73
4
 74
0
 40
0
 40
0
 40
0
 40
0
 40
1
 40
1
 40
1
 40
1
 10
330.222282
 20
-10.270646
 30
0.0
 10
330.536880
 20
-10.585244
 30
0.0
 10
331.010010
 20
-10.679355
 30
0.0
 10
331.421052
 20
-10.509096
 30
0.0
  0
SPLINE
  5
33f
100
AcDbEntity
  8
0
 62
7
100
AcDbSpline
 70
8
 71
3
 72
8
 73
4
 74
0
 40
0
 40
0
 40
0
 40
0
 40
1
 40
1
 40
1
 40
1
 10
331.421052
 20
-10.509096
 30
0.0
 10
331.832094
 20
-10.338837
 30
0.0
 10
332.100100
 20
-9.937737
 30
0.0
 10
332.100100
 20
-9.492828
 30
0.0
  0
SPLINE
  5
340
100
AcDbEntity
  8
0
 62
7
100
AcDbSpline
 70
8
 71
3
 72
8
 73
4
 74
0
 40
0
 40
0
 40
0
 40
0
 40
1
 40
1
 40
1
 40
1
 10
332.100100
 20
-9.492828
 30
0.0
 10
332.100100
 20
-9.201090
 30
0.0
 10
331.984208
 20
-8.921301
 30
0.0
 10
331.777918
 20
-8.715011
 30
0.0
  0
SPLINE
  5
341
100
AcDbEntity
  8
0
 62
7
100
AcDbSpline
 70
8
 71
3
 72
8
 73
4
 74
0
 40
0
 40
0
 40
0
 40
0
 40
1
 40
1
 40
1
 40
1
 10
331.777918
 20
-8.715011
 30
0.0
 10
331.571628
 20
-8.508721
 30
0.0
 10
331.291838
 20
-8.392828
 30
0.0
 10
331.000100
 20
-8.392828
 30
0.0
  0
LINE
  5
342
100
AcDbEntity
  8
0
 62
7
100
AcDbLine
 10
331.000100
 20
-8.392828
 30
0.0
 11
331.000100
 21
-8.392828
 31
0.0
  0
SPLINE
  5
343
100
AcDbEntity
  8
0
 62
7
100
AcDbSpline
 70
8
 71
3
 72
8
 73
4
 74
0
 40
0
 40
0
 40
0
 40
0
 40
1
 40
1
 40
1
 40
1
 10
199.000110
 20
-134.392805
 30
0.0
 10
198.555201
 20
-134.392805
 30
0.0
 10
198.154101
 20
-134.660811
 30
0.0
 10
197.983842
 20
-135.071853
 30
0.0
  0
SPLINE
  5
344
100
AcDbEntity
  8
0
 62
7
100
AcDbSpline
 70
8
 71
3
 72
8
 73
4
 74
0
 40
0
 40
0
 40
0
 40
0
 40
1
 40
1
 40
1
 40
1
 10
197.983842
 20
-135.071853
 30
0.0
 10
197.813583
 20
-135.482895
 30
0.0
 10
197.907694
 20
-135.956025
 30
0.0
 10
198.222292
 20
-136.270623
 30
0.0
  0
SPLINE
  5
345
100
AcDbEntity
  8
0
 62
7
100
AcDbSpline
 70
8
 71
3
 72
8
 73
4
 74
0
 40
0
 40
0
 40
0
 40
0
 40
1
 40
1
 40
1
 40
1
 10
198.222292
 20
-136.270623
 30
0.0
 10
198.536890
 20
-136.585221
 30
0.0
 10
199.010020
 20
-136.679332
 30
0.0
 10
199.421062
 20
-136.509073
 30
0.0
  0
SPLINE
  5
346
100
AcDbEntity
  8
0
 62
7
100
AcDbSpline
 70
8
 71
3
 72
8
 73
4
 74
0
 40
0
 40
0
 40
0
 40
0
 40
1
 40
1
 40
1
 40
1
 10
199.421062
 20
-136.509073
 30
0.0
 10
199.832104
 20
-136.338814
 30
0.0
 10
200.100110
 20
-135.937714
 30
0.0
 10
200.100110
 20
-135.492805
 30
0.0
  0
SPLINE
  5
347
100
AcDbEntity
  8
0
 62
7
100
AcDbSpline
 70
8
 71
3
 72
8
 73
4
 74
0
 40
0
 40
0
 40
0
 40
0
 40
1
 40
1
 40
1
 40
1
 10
200.100110
 20
-135.492805
 30
0.0
 10
200.100110
 20
-135.201067
 30
0.0
 10
199.984218
 20
-134.921277
 30
0.0
 10
199.777928
 20
-134.714987
 30
0.0
  0
SPLINE
  5
348
100
AcDbEntity
  8
0
 62
7
100
AcDbSpline
 70
8
 71
3
 72
8
 73
4
 74
0
 40
0
 40
0
 40
0
 40
0
 40
1
 40
1
 40
1
 40
1
 10
199.777928
 20
-134.714987
 30
0.0
 10
199.571638
 20
-134.508697
 30
0.0
 10
199.291848
 20
-134.392805
 30
0.0
 10
199.000110
 20
-134.392805
 30
0.0
  0
LINE
  5
349
100
AcDbEntity
  8
0
 62
7
100
AcDbLine
 10
199.000110
 20
-134.392805
 30
0.0
 11
199.000110
 21
-134.392805
 31
0.0
  0
SPLINE
  5
34a
100
AcDbEntity
  8
0
 62
7
100
AcDbSpline
 70
8
 71
3
 72
8
 73
4
 74
0
 40
0
 40
0
 40
0
 40
0
 40
1
 40
1
 40
1
 40
1
 10
199.000110
 20
-8.392828
 30
0.0
 10
198.555201
 20
-8.392828
 30
0.0
 10
198.154101
 20
-8.660834
 30
0.0
 10
197.983842
 20
-9.071876
 30
0.0
  0
SPLINE
  5
34b
100
AcDbEntity
  8
0
 62
7
100
AcDbSpline
 70
8
 71
3
 72
8
 73
4
 74
0
 40
0
 40
0
 40
0
 40
0
 40
1
 40
1
 40
1
 40
1
 10
197.983842
 20
-9.071876
 30
0.0
 10
197.813583
 20
-9.482918
 30
0.0
 10
197.907694
 20
-9.956048
 30
0.0
 10
198.222292
 20
-10.270646
 30
0.0
  0
SPLINE
  5
34c
100
AcDbEntity
  8
0
 62
7
100
AcDbSpline
 70
8
 71
3
 72
8
 73
4
 74
0
 40
0
 40
0
 40
0
 40
0
 40
1
 40
1
 40
1
 40
1
 10
198.222292
 20
-10.270646
 30
0.0
 10
198.536890
 20
-10.585244
 30
0.0
 10
199.010020
 20
-10.679355
 30
0.0
 10
199.421062
 20
-10.509096
 30
0.0
  0
SPLINE
  5
34d
100
AcDbEntity
  8
0
 62
7
100
AcDbSpline
 70
8
 71
3
 72
8
 73
4
 74
0
 40
0
 40
0
 40
0
 40
0
 40
1
 40
1
 40
1
 40
1
 10
199.421062
 20
-10.509096
 30
0.0
 10
199.832104
 20
-10.338837
 30
0.0
 10
200.100110
 20
-9.937737
 30
0.0
 10
200.100110
 20
-9.492828
 30
0.0
  0
SPLINE
  5
34e
100
AcDbEntity
  8
0
 62
7
100
AcDbSpline
 70
8
 71
3
 72
8
 73
4
 74
0
 40
0
 40
0
 40
0
 40
0
 40
1
 40
1
 40
1
 40
1
 10
200.100110
 20
-9.492828
 30
0.0
 10
200.100110
 20
-9.201090
 30
0.0
 10
199.984218
 20
-8.921301
 30
0.0
 10
199.777928
 20
-8.715011
 30
0.0
  0
SPLINE
  5
34f
100
AcDbEntity
  8
0
 62
7
100
AcDbSpline
 70
8
 71
3
 72
8
 73
4
 74
0
 40
0
 40
0
 40
0
 40
0
 40
1
 40
1
 40
1
 40
1
 10
199.777928
 20
-8.715011
 30
0.0
 10
199.571638
 20
-8.508721
 30
0.0
 10
199.291848
 20
-8.392828
 30
0.0
 10
199.000110
 20
-8.392828
 30
0.0
  0
LINE
  5
350
100
AcDbEntity
  8
0
 62
7
100
AcDbLine
 10
199.000110
 20
-8.392828
 30
0.0
 11
199.000110
 21
-8.392828
 31
0.0
  0
SPLINE
  5
351
100
AcDbEntity
  8
0
 62
7
100
AcDbSpline
 70
8
 71
3
 72
8
 73
4
 74
0
 40
0
 40
0
 40
0
 40
0
 40
1
 40
1
 40
1
 40
1
 10
15.999993
 20
-134.392805
 30
0.0
 10
15.555085
 20
-134.392805
 30
0.0
 10
15.153985
 20
-134.660811
 30
0.0
 10
14.983726
 20
-135.071853
 30
0.0
  0
SPLINE
  5
352
100
AcDbEntity
  8
0
 62
7
100
AcDbSpline
 70
8
 71
3
 72
8
 73
4
 74
0
 40
0
 40
0
 40
0
 40
0
 40
1
 40
1
 40
1
 40
1
 10
14.983726
 20
-135.071853
 30
0.0
 10
14.813466
 20
-135.482895
 30
0.0
 10
14.907578
 20
-135.956025
 30
0.0
 10
15.222176
 20
-136.270623
 30
0.0
  0
SPLINE
  5
353
100
AcDbEntity
  8
0
 62
7
100
AcDbSpline
 70
8
 71
3
 72
8
 73
4
 74
0
 40
0
 40
0
 40
0
 40
0
 40
1
 40
1
 40
1
 40
1
 10
15.222176
 20
-136.270623
 30
0.0
 10
15.536774
 20
-136.585221
 30
0.0
 10
16.009903
 20
-136.679332
 30
0.0
 10
16.420945
 20
-136.509073
 30
0.0
  0
SPLINE
  5
354
100
AcDbEntity
  8
0
 62
7
100
AcDbSpline
 70
8
 71
3
 72
8
 73
4
 74
0
 40
0
 40
0
 40
0
 40
0
 40
1
 40
1
 40
1
 40
1
 10
16.420945
 20
-136.509073
 30
0.0
 10
16.831987
 20
-136.338814
 30
0.0
 10
17.099994
 20
-135.937714
 30
0.0
 10
17.099994
 20
-135.492805
 30
0.0
  0
SPLINE
  5
355
100
AcDbEntity
  8
0
 62
7
100
AcDbSpline
 70
8
 71
3
 72
8
 73
4
 74
0
 40
0
 40
0
 40
0
 40
0
 40
1
 40
1
 40
1
 40
1
 10
17.099994
 20
-135.492805
 30
0.0
 10
17.099994
 20
-135.201067
 30
0.0
 10
16.984101
 20
-134.921277
 30
0.0
 10
16.777811
 20
-134.714987
 30
0.0
  0
SPLINE
  5
356
100
AcDbEntity
  8
0
 62
7
100
AcDbSpline
 70
8
 71
3
 72
8
 73
4
 74
0
 40
0
 40
0
 40
0
 40
0
 40
1
 40
1
 40
1
 40
1
 10
16.777811
 20
-134.714987
 30
0.0
 10
16.571521
 20
-134.508697
 30
0.0
 10
16.291732
 20
-134.392805
 30
0.0
 10
15.999993
 20
-134.392805
 30
0.0
  0
LINE
  5
357
100
AcDbEntity
  8
0
 62
7
100
AcDbLine
 10
15.999993
 20
-134.392805
 30
0.0
 11
15.999993
 21
-134.392805
 31
0.0
  0
SPLINE
  5
358
100
AcDbEntity
  8
0
 62
7
100
AcDbSpline
 70
8
 71
3
 72
8
 73
4
 74
0
 40
0
 40
0
 40
0
 40
0
 40
1
 40
1
 40
1
 40
1
 10
15.999993
 20
-8.392828
 30
0.0
 10
15.555085
 20
-8.392828
 30
0.0
 10
15.153985
 20
-8.660834
 30
0.0
 10
14.983726
 20
-9.071876
 30
0.0
  0
SPLINE
  5
359
100
AcDbEntity
  8
0
 62
7
100
AcDbSpline
 70
8
 71
3
 72
8
 73
4
 74
0
 40
0
 40
0
 40
0
 40
0
 40
1
 40
1
 40
1
 40
1
 10
14.983726
 20
-9.071876
 30
0.0
 10
14.813466
 20
-9.482918
 30
0.0
 10
14.907578
 20
-9.956048
 30
0.0
 10
15.222176
 20
-10.270646
 30
0.0
  0
SPLINE
  5
35a
100
AcDbEntity
  8
0
 62
7
100
AcDbSpline
 70
8
 71
3
 72
8
 73
4
 74
0
 40
0
 40
0
 40
0
 40
0
 40
1
 40
1
 40
1
 40
1
 10
15.222176
 20
-10.270646
 30
0.0
 10
15.536774
 20
-10.585244
 30
0.0
 10
16.009903
 20
-10.679355
 30
0.0
 10
16.420945
 20
-10.509096
 30
0.0
  0
SPLINE
  5
35b
100
AcDbEntity
  8
0
 62
7
100
AcDbSpline
 70
8
 71
3
 72
8
 73
4
 74
0
 40
0
 40
0
 40
0
 40
0
 40
1
 40
1
 40
1
 40
1
 10
16.420945
 20
-10.509096
 30
0.0
 10
16.831987
 20
-10.338837
 30
0.0
 10
17.099994
 20
-9.937737
 30
0.0
 10
17.099994
 20
-9.492828
 30
0.0
  0
SPLINE
  5
35c
100
AcDbEntity
  8
0
 62
7
100
AcDbSpline
 70
8
 71
3
 72
8
 73
4
 74
0
 40
0
 40
0
 40
0
 40
0
 40
1
 40
1
 40
1
 40
1
 10
17.099994
 20
-9.492828
 30
0.0
 10
17.099994
 20
-9.201090
 30
0.0
 10
16.984101
 20
-8.921301
 30
0.0
 10
16.777811
 20
-8.715011
 30
0.0
  0
SPLINE
  5
35d
100
AcDbEntity
  8
0
 62
7
100
AcDbSpline
 70
8
 71
3
 72
8
 73
4
 74
0
 40
0
 40
0
 40
0
 40
0
 40
1
 40
1
 40
1
 40
1
 10
16.777811
 20
-8.715011
 30
0.0
 10
16.571521
 20
-8.508721
 30
0.0
 10
16.291732
 20
-8.392828
 30
0.0
 10
15.999993
 20
-8.392828
 30
0.0
  0
LINE
  5
35e
100
AcDbEntity
  8
0
 62
7
100
AcDbLine
 10
15.999993
 20
-8.392828
 30
0.0
 11
15.999993
 21
-8.392828
 31
0.0
  0
LINE
  5
35f
100
AcDbEntity
  8
0
 62
7
100
AcDbLine
 10
171.307760
 20
-2.480625
 30
0.0
 11
178.673760
 21
-2.480625
 31
0.0
  0
SPLINE
  5
360
100
AcDbEntity
  8
0
 62
7
100
AcDbSpline
 70
8
 71
3
 72
8
 73
4
 74
0
 40
0
 40
0
 40
0
 40
0
 40
1
 40
1
 40
1
 40
1
 10
183.921146
 20
-6.444724
 30
0.0
 10
183.274007
 20
-6.444724
 30
0.0
 10
182.690589
 20
-6.834552
 30
0.0
 10
182.442939
 20
-7.432430
 30
0.0
  0
SPLINE
  5
361
100
AcDbEntity
  8
0
 62
7
100
AcDbSpline
 70
8
 71
3
 72
8
 73
4
 74
0
 40
0
 40
0
 40
0
 40
0
 40
1
 40
1
 40
1
 40
1
 10
182.442939
 20
-7.432430
 30
0.0
 10
182.195290
 20
-8.030309
 30
0.0
 10
182.332179
 20
-8.718497
 30
0.0
 10
182.789776
 20
-9.176094
 30
0.0
  0
SPLINE
  5
362
100
AcDbEntity
  8
0
 62
7
100
AcDbSpline
 70
8
 71
3
 72
8
 73
4
 74
0
 40
0
 40
0
 40
0
 40
0
 40
1
 40
1
 40
1
 40
1
 10
182.789776
 20
-9.176094
 30
0.0
 10
183.247372
 20
-9.633691
 30
0.0
 10
183.935560
 20
-9.770580
 30
0.0
 10
184.533439
 20
-9.522930
 30
0.0
  0
SPLINE
  5
363
100
AcDbEntity
  8
0
 62
7
100
AcDbSpline
 70
8
 71
3
 72
8
 73
4
 74
0
 40
0
 40
0
 40
0
 40
0
 40
1
 40
1
 40
1
 40
1
 10
184.533439
 20
-9.522930
 30
0.0
 10
185.131318
 20
-9.275281
 30
0.0
 10
185.521145
 20
-8.691863
 30
0.0
 10
185.521145
 20
-8.044724
 30
0.0
  0
SPLINE
  5
364
100
AcDbEntity
  8
0
 62
7
100
AcDbSpline
 70
8
 71
3
 72
8
 73
4
 74
0
 40
0
 40
0
 40
0
 40
0
 40
1
 40
1
 40
1
 40
1
 10
185.521145
 20
-8.044724
 30
0.0
 10
185.521145
 20
-7.620377
 30
0.0
 10
185.352574
 20
-7.213411
 30
0.0
 10
185.052516
 20
-6.913353
 30
0.0
  0
SPLINE
  5
365
100
AcDbEntity
  8
0
 62
7
100
AcDbSpline
 70
8
 71
3
 72
8
 73
4
 74
0
 40
0
 40
0
 40
0
 40
0
 40
1
 40
1
 40
1
 40
1
 10
185.052516
 20
-6.913353
 30
0.0
 10
184.752458
 20
-6.613295
 30
0.0
 10
184.345492
 20
-6.444724
 30
0.0
 10
183.921146
 20
-6.444724
 30
0.0
  0
LINE
  5
366
100
AcDbEntity
  8
0
 62
7
100
AcDbLine
 10
183.921146
 20
-6.444724
 30
0.0
 11
183.921146
 21
-6.444724
 31
0.0
  0
SPLINE
  5
367
100
AcDbEntity
  8
0
 62
7
100
AcDbSpline
 70
8
 71
3
 72
8
 73
4
 74
0
 40
0
 40
0
 40
0
 40
0
 40
1
 40
1
 40
1
 40
1
 10
166.061898
 20
-6.444724
 30
0.0
 10
165.414759
 20
-6.444724
 30
0.0
 10
164.831341
 20
-6.834552
 30
0.0
 10
164.583691
 20
-7.432430
 30
0.0
  0
SPLINE
  5
368
100
AcDbEntity
  8
0
 62
7
100
AcDbSpline
 70
8
 71
3
 72
8
 73
4
 74
0
 40
0
 40
0
 40
0
 40
0
 40
1
 40
1
 40
1
 40
1
 10
164.583691
 20
-7.432430
 30
0.0
 10
164.336042
 20
-8.030309
 30
0.0
 10
164.472931
 20
-8.718497
 30
0.0
 10
164.930528
 20
-9.176094
 30
0.0
  0
SPLINE
  5
369
100
AcDbEntity
  8
0
 62
7
100
AcDbSpline
 70
8
 71
3
 72
8
 73
4
 74
0
 40
0
 40
0
 40
0
 40
0
 40
1
 40
1
 40
1
 40
1
 10
164.930528
 20
-9.176094
 30
0.0
 10
165.388124
 20
-9.633691
 30
0.0
 10
166.076312
 20
-9.770580
 30
0.0
 10
166.674191
 20
-9.522930
 30
0.0
  0
SPLINE
  5
36a
100
AcDbEntity
  8
0
 62
7
100
AcDbSpline
 70
8
 71
3
 72
8
 73
4
 74
0
 40
0
 40
0
 40
0
 40
0
 40
1
 40
1
 40
1
 40
1
 10
166.674191
 20
-9.522930
 30
0.0
 10
167.272070
 20
-9.275281
 30
0.0
 10
167.661897
 20
-8.691863
 30
0.0
 10
167.661897
 20
-8.044724
 30
0.0
  0
SPLINE
  5
36b
100
AcDbEntity
  8
0
 62
7
100
AcDbSpline
 70
8
 71
3
 72
8
 73
4
 74
0
 40
0
 40
0
 40
0
 40
0
 40
1
 40
1
 40
1
 40
1
 10
167.661897
 20
-8.044724
 30
0.0
 10
167.661897
 20
-7.620377
 30
0.0
 10
167.493326
 20
-7.213411
 30
0.0
 10
167.193268
 20
-6.913353
 30
0.0
  0
SPLINE
  5
36c
100
AcDbEntity
  8
0
 62
7
100
AcDbSpline
 70
8
 71
3
 72
8
 73
4
 74
0
 40
0
 40
0
 40
0
 40
0
 40
1
 40
1
 40
1
 40
1
 10
167.193268
 20
-6.913353
 30
0.0
 10
166.893210
 20
-6.613295
 30
0.0
 10
166.486244
 20
-6.444724
 30
0.0
 10
166.061898
 20
-6.444724
 30
0.0
  0
LINE
  5
36d
100
AcDbEntity
  8
0
 62
7
100
AcDbLine
 10
166.061898
 20
-6.444724
 30
0.0
 11
166.061898
 21
-6.444724
 31
0.0
  0
LINE
  5
36e
100
AcDbEntity
  8
0
 62
7
100
AcDbLine
 10
274.159980
 20
-3.941125
 30
0.0
 11
282.158440
 21
-3.941125
 31
0.0
  0
LINE
  5
36f
100
AcDbEntity
  8
0
 62
7
100
AcDbLine
 10
274.159980
 20
-3.941125
 30
0.0
 11
274.159980
 21
-9.940605
 31
0.0
  0
LINE
  5
370
100
AcDbEntity
  8
0
 62
7
100
AcDbLine
 10
274.159980
 20
-9.940605
 30
0.0
 11
282.158440
 21
-9.940605
 31
0.0
  0
LINE
  5
371
100
AcDbEntity
  8
0
 62
7
100
AcDbLine
 10
282.158440
 20
-9.940605
 30
0.0
 11
282.158440
 21
-3.941125
 31
0.0
  0
SPLINE
  5
372
100
AcDbEntity
  8
0
 62
7
100
AcDbSpline
 70
8
 71
3
 72
8
 73
4
 74
0
 40
0
 40
0
 40
0
 40
0
 40
1
 40
1
 40
1
 40
1
 10
80.000094
 20
-134.392805
 30
0.0
 10
79.555185
 20
-134.392805
 30
0.0
 10
79.154085
 20
-134.660811
 30
0.0
 10
78.983826
 20
-135.071853
 30
0.0
  0
SPLINE
  5
373
100
AcDbEntity
  8
0
 62
7
100
AcDbSpline
 70
8
 71
3
 72
8
 73
4
 74
0
 40
0
 40
0
 40
0
 40
0
 40
1
 40
1
 40
1
 40
1
 10
78.983826
 20
-135.071853
 30
0.0
 10
78.813567
 20
-135.482895
 30
0.0
 10
78.907678
 20
-135.956025
 30
0.0
 10
79.222276
 20
-136.270623
 30
0.0
  0
SPLINE
  5
374
100
AcDbEntity
  8
0
 62
7
100
AcDbSpline
 70
8
 71
3
 72
8
 73
4
 74
0
 40
0
 40
0
 40
0
 40
0
 40
1
 40
1
 40
1
 40
1
 10
79.222276
 20
-136.270623
 30
0.0
 10
79.536874
 20
-136.585221
 30
0.0
 10
80.010004
 20
-136.679332
 30
0.0
 10
80.421046
 20
-136.509073
 30
0.0
  0
SPLINE
  5
375
100
AcDbEntity
  8
0
 62
7
100
AcDbSpline
 70
8
 71
3
 72
8
 73
4
 74
0
 40
0
 40
0
 40
0
 40
0
 40
1
 40
1
 40
1
 40
1
 10
80.421046
 20
-136.509073
 30
0.0
 10
80.832088
 20
-136.338814
 30
0.0
 10
81.100094
 20
-135.937714
 30
0.0
 10
81.100094
 20
-135.492805
 30
0.0
  0
SPLINE
  5
376
100
AcDbEntity
  8
0
 62
7
100
AcDbSpline
 70
8
 71
3
 72
8
 73
4
 74
0
 40
0
 40
0
 40
0
 40
0
 40
1
 40
1
 40
1
 40
1
 10
81.100094
 20
-135.492805
 30
0.0
 10
81.100094
 20
-135.201067
 30
0.0
 10
80.984202
 20
-134.921277
 30
0.0
 10
80.777912
 20
-134.714987
 30
0.0
  0
SPLINE
  5
377
100
AcDbEntity
  8
0
 62
7
100
AcDbSpline
 70
8
 71
3
 72
8
 73
4
 74
0
 40
0
 40
0
 40
0
 40
0
 40
1
 40
1
 40
1
 40
1
 10
80.777912
 20
-134.714987
 30
0.0
 10
80.571622
 20
-134.508697
 30
0.0
 10
80.291832
 20
-134.392805
 30
0.0
 10
80.000094
 20
-134.392805
 30
0.0
  0
LINE
  5
378
100
AcDbEntity
  8
0
 62
7
100
AcDbLine
 10
80.000094
 20
-134.392805
 30
0.0
 11
80.000094
 21
-134.392805
 31
0.0
  0
SPLINE
  5
379
100
AcDbEntity
  8
0
 62
7
100
AcDbSpline
 70
8
 71
3
 72
8
 73
4
 74
0
 40
0
 40
0
 40
0
 40
0
 40
1
 40
1
 40
1
 40
1
 10
80.000094
 20
-8.392828
 30
0.0
 10
79.555185
 20
-8.392828
 30
0.0
 10
79.154085
 20
-8.660834
 30
0.0
 10
78.983826
 20
-9.071876
 30
0.0
  0
SPLINE
  5
37a
100
AcDbEntity
  8
0
 62
7
100
AcDbSpline
 70
8
 71
3
 72
8
 73
4
 74
0
 40
0
 40
0
 40
0
 40
0
 40
1
 40
1
 40
1
 40
1
 10
78.983826
 20
-9.071876
 30
0.0
 10
78.813567
 20
-9.482918
 30
0.0
 10
78.907678
 20
-9.956048
 30
0.0
 10
79.222276
 20
-10.270646
 30
0.0
  0
SPLINE
  5
37b
100
AcDbEntity
  8
0
 62
7
100
AcDbSpline
 70
8
 71
3
 72
8
 73
4
 74
0
 40
0
 40
0
 40
0
 40
0
 40
1
 40
1
 40
1
 40
1
 10
79.222276
 20
-10.270646
 30
0.0
 10
79.536874
 20
-10.585244
 30
0.0
 10
80.010004
 20
-10.679355
 30
0.0
 10
80.421046
 20
-10.509096
 30
0.0
  0
SPLINE
  5
37c
100
AcDbEntity
  8
0
 62
7
100
AcDbSpline
 70
8
 71
3
 72
8
 73
4
 74
0
 40
0
 40
0
 40
0
 40
0
 40
1
 40
1
 40
1
 40
1
 10
80.421046
 20
-10.509096
 30
0.0
 10
80.832088
 20
-10.338837
 30
0.0
 10
81.100094
 20
-9.937737
 30
0.0
 10
81.100094
 20
-9.492828
 30
0.0
  0
SPLINE
  5
37d
100
AcDbEntity
  8
0
 62
7
100
AcDbSpline
 70
8
 71
3
 72
8
 73
4
 74
0
 40
0
 40
0
 40
0
 40
0
 40
1
 40
1
 40
1
 40
1
 10
81.100094
 20
-9.492828
 30
0.0
 10
81.100094
 20
-9.201090
 30
0.0
 10
80.984202
 20
-8.921301
 30
0.0
 10
80.777912
 20
-8.715011
 30
0.0
  0
SPLINE
  5
37e
100
AcDbEntity
  8
0
 62
7
100
AcDbSpline
 70
8
 71
3
 72
8
 73
4
 74
0
 40
0
 40
0
 40
0
 40
0
 40
1
 40
1
 40
1
 40
1
 10
80.777912
 20
-8.715011
 30
0.0
 10
80.571622
 20
-8.508721
 30
0.0
 10
80.291832
 20
-8.392828
 30
0.0
 10
80.000094
 20
-8.392828
 30
0.0
  0
LINE
  5
37f
100
AcDbEntity
  8
0
 62
7
100
AcDbLine
 10
80.000094
 20
-8.392828
 30
0.0
 11
80.000094
 21
-8.392828
 31
0.0
  0
LINE
  5
380
100
AcDbEntity
  8
0
 62
7
100
AcDbLine
 10
178.998880
 20
-1.492565
 30
0.0
 11
178.998880
 21
-4.492305
 31
0.0
  0
LINE
  5
381
100
AcDbEntity
  8
0
 62
7
100
AcDbLine
 10
170.997880
 20
-1.492565
 30
0.0
 11
178.998880
 21
-1.492565
 31
0.0
  0
LINE
  5
382
100
AcDbEntity
  8
0
 62
7
100
AcDbLine
 10
170.997880
 20
-4.492305
 30
0.0
 11
170.997880
 21
-1.492565
 31
0.0
  0
LINE
  5
383
100
AcDbEntity
  8
0
 62
7
100
AcDbLine
 10
102.999540
 20
-140.491525
 30
0.0
 11
15.999460
 21
-140.491525
 31
0.0
  0
LINE
  5
384
100
AcDbEntity
  8
0
 62
7
100
AcDbLine
 10
129.999740
 20
-147.491765
 30
0.0
 11
102.999540
 21
-140.491525
 31
0.0
  0
LINE
  5
385
100
AcDbEntity
  8
0
 62
7
100
AcDbLine
 10
148.998940
 20
-147.491765
 30
0.0
 11
129.999740
 21
-147.491765
 31
0.0
  0
LINE
  5
386
100
AcDbEntity
  8
0
 62
7
100
AcDbLine
 10
175.999140
 20
-140.491525
 30
0.0
 11
148.998940
 21
-147.491765
 31
0.0
  0
LINE
  5
387
100
AcDbEntity
  8
0
 62
7
100
AcDbLine
 10
330.997560
 20
-140.491525
 30
0.0
 11
175.999140
 21
-140.491525
 31
0.0
  0
SPLINE
  5
388
100
AcDbEntity
  8
0
 62
7
100
AcDbSpline
 70
8
 71
3
 72
8
 73
4
 74
0
 40
0
 40
0
 40
0
 40
0
 40
1
 40
1
 40
1
 40
1
 10
335.998820
 20
-9.492828
 30
0.0
 10
335.998834
 20
-6.731896
 30
0.0
 10
333.761032
 20
-4.493514
 30
0.0
 10
331.000100
 20
-4.492813
 30
0.0
  0
SPLINE
  5
389
100
AcDbEntity
  8
0
 62
7
100
AcDbSpline
 70
8
 71
3
 72
8
 73
4
 74
0
 40
0
 40
0
 40
0
 40
0
 40
1
 40
1
 40
1
 40
1
 10
15.999993
 20
-4.492813
 30
0.0
 10
14.673909
 20
-4.492813
 30
0.0
 10
13.402138
 20
-5.019600
 30
0.0
 10
12.464458
 20
-5.957285
 30
0.0
  0
SPLINE
  5
38a
100
AcDbEntity
  8
0
 62
7
100
AcDbSpline
 70
8
 71
3
 72
8
 73
4
 74
0
 40
0
 40
0
 40
0
 40
0
 40
1
 40
1
 40
1
 40
1
 10
12.464458
 20
-5.957285
 30
0.0
 10
11.526777
 20
-6.894971
 30
0.0
 10
10.999997
 20
-8.166744
 30
0.0
 10
11.000003
 20
-9.492828
 30
0.0
  0
SPLINE
  5
38b
100
AcDbEntity
  8
0
 62
7
100
AcDbSpline
 70
8
 71
3
 72
8
 73
4
 74
0
 40
0
 40
0
 40
0
 40
0
 40
1
 40
1
 40
1
 40
1
 10
11.000003
 20
-135.492805
 30
0.0
 10
11.000003
 20
-136.818885
 30
0.0
 10
11.526787
 20
-138.090652
 30
0.0
 10
12.464467
 20
-139.028332
 30
0.0
  0
SPLINE
  5
38c
100
AcDbEntity
  8
0
 62
7
100
AcDbSpline
 70
8
 71
3
 72
8
 73
4
 74
0
 40
0
 40
0
 40
0
 40
0
 40
1
 40
1
 40
1
 40
1
 10
12.464467
 20
-139.028332
 30
0.0
 10
13.402147
 20
-139.966012
 30
0.0
 10
14.673914
 20
-140.492795
 30
0.0
 10
15.999993
 20
-140.492795
 30
0.0
  0
SPLINE
  5
38d
100
AcDbEntity
  8
0
 62
7
100
AcDbSpline
 70
8
 71
3
 72
8
 73
4
 74
0
 40
0
 40
0
 40
0
 40
0
 40
1
 40
1
 40
1
 40
1
 10
331.000100
 20
-140.492795
 30
0.0
 10
333.761022
 20
-140.492094
 30
0.0
 10
335.998820
 20
-138.253727
 30
0.0
 10
335.998820
 20
-135.492805
 30
0.0
  0
LINE
  5
38e
100
AcDbEntity
  8
0
 62
7
100
AcDbLine
 10
330.997560
 20
-4.492305
 30
0.0
 11
15.999460
 21
-4.492305
 31
0.0
  0
LINE
  5
38f
100
AcDbEntity
  8
0
 62
7
100
AcDbLine
 10
335.998820
 20
-135.492805
 30
0.0
 11
335.998820
 21
-9.491025
 31
0.0
  0
LINE
  5
390
100
AcDbEntity
  8
0
 62
7
100
AcDbLine
 10
10.998200
 20
-9.491025
 30
0.0
 11
10.998200
 21
-135.492805
 31
0.0
  0
ENDSEC
  0
SECTION
  2
OBJECTS
  0
DICTIONARY
  5
C
330
0
100
AcDbDictionary
  3
ACAD_GROUP
350
D
  3
ACAD_MLINESTYLE
350
17
  0
DICTIONARY
  5
D
330
C
100
AcDbDictionary
  0
DICTIONARY
  5
1A
330
C
100
AcDbDictionary
  0
DICTIONARY
  5
17
330
C
100
AcDbDictionary
  3
STANDARD
350
18
  0
DICTIONARY
  5
19
330
C
100
AcDbDictionary
  0
ENDSEC
  0
EOF
