<?xml version="1.0" standalone="no"?>
 <!DOCTYPE svg PUBLIC "-//W3C//DTD SVG 1.1//EN" 
 "http://www.w3.org/Graphics/SVG/1.1/DTD/svg11.dtd"> 
<svg
  xmlns:svg="http://www.w3.org/2000/svg"
  xmlns="http://www.w3.org/2000/svg"
  xmlns:xlink="http://www.w3.org/1999/xlink"
  version="1.1"
  width="34.899600cm" height="15.699740cm" viewBox="0 0 137400 61810">
<title>SVG Picture created as top-brd.svg date 2021/11/26 22:40:32 </title>
  <desc>Picture generated by PCBNEW </desc>
<g style="fill:#000000; fill-opacity:1;stroke:#000000; stroke-opacity:1;
stroke-linecap:round; stroke-linejoin:round;"
 transform="translate(0 0) scale(1 1)">
</g>
<g style="fill:#000000; fill-opacity:0.0; 
stroke:#000000; stroke-width:-0.000393701; stroke-opacity:1; 
stroke-linecap:round; stroke-linejoin:round;">
</g>
<g style="fill:#000000; fill-opacity:0.0; 
stroke:#000000; stroke-width:47.2441; stroke-opacity:1; 
stroke-linecap:round; stroke-linejoin:round;">
<circle cx="31496.1" cy="4330.71" r="433.071" /> 
<circle cx="31496.1" cy="53937" r="433.071" /> 
<circle cx="6299.21" cy="4330.71" r="433.071" /> 
<circle cx="6299.21" cy="53937" r="433.071" /> 
<circle cx="78346.5" cy="4330.71" r="433.071" /> 
<circle cx="78346.5" cy="53937" r="433.071" /> 
<circle cx="130315" cy="4330.71" r="433.071" /> 
<circle cx="130315" cy="53937" r="433.071" /> 
<g >
</g>
<g >
</g>
<g >
</g>
<g >
</g>
<g >
</g>
<g >
</g>
<g >
</g>
<g >
</g>
<g >
</g>
</g>
<g style="fill:#000000; fill-opacity:0.0; 
stroke:#000000; stroke-width:47.2441; stroke-opacity:1; 
stroke-linecap:round; stroke-linejoin:round;">
</g>
<g style="fill:#000000; fill-opacity:0.0; 
stroke:#000000; stroke-width:19.685; stroke-opacity:1; 
stroke-linecap:round; stroke-linejoin:round;">
<path d="M125576 38738
L131076 38738
" />
<path d="M125576 44238
L125576 38738
" />
<path d="M131076 44238
L125576 44238
" />
<path d="M131076 38738
L131076 44238
" />
<path d="M131076 31238
L131076 36738
" />
<path d="M131076 36738
L125576 36738
" />
<path d="M125576 36738
L125576 31238
" />
<path d="M125576 31238
L131076 31238
" />
<path d="M131072 23742
L131072 29242
" />
<path d="M131072 29242
L125572 29242
" />
<path d="M125572 29242
L125572 23742
" />
<path d="M125572 23742
L131072 23742
" />
<path d="M95226 46253
L100726 46253
" />
<path d="M100726 46253
L100726 51753
" />
<path d="M100726 51753
L95226 51753
" />
<path d="M95226 51753
L95226 46253
" />
<path d="M80194 46253
L85694 46253
" />
<path d="M85694 46253
L85694 51753
" />
<path d="M85694 51753
L80194 51753
" />
<path d="M80194 51753
L80194 46253
" />
<path d="M100068 44253
L100068 38753
" />
<path d="M105568 44253
L100068 44253
" />
<path d="M105568 38753
L105568 44253
" />
<path d="M100068 38753
L105568 38753
" />
<path d="M102098 34196
L102098 33096
" />
<path d="M102438 34196
L102098 34196
" />
<path d="M114798 34196
L114458 34196
" />
<path d="M105058 36286
L105058 36596
" />
<path d="M105058 36596
L104648 36596
" />
<path d="M105058 31756
L105058 32076
" />
<path d="M111838 32076
L111838 31756
" />
<path d="M111198 32076
L111838 32076
" />
<path d="M111838 36286
L111198 36286
" />
<path d="M111198 36746
L105698 36746
" />
<path d="M102098 33096
L102438 33096
" />
<path d="M102848 37056
L102848 36596
" />
<path d="M111838 31756
L114458 31756
" />
<path d="M114048 37056
L112248 37056
" />
<path d="M114458 36596
L114048 36596
" />
<path d="M102848 36596
L102438 36596
" />
<path d="M114458 33096
L114798 33096
" />
<path d="M104648 37056
L102848 37056
" />
<path d="M111838 36596
L111838 36286
" />
<path d="M114458 31756
L114458 33096
" />
<path d="M111198 36286
L111198 36746
" />
<path d="M105058 32076
L105698 32076
" />
<path d="M104648 36596
L104648 37056
" />
<path d="M112248 36596
L111838 36596
" />
<path d="M111198 31246
L111198 32076
" />
<path d="M102438 36596
L102438 34196
" />
<path d="M102438 31756
L105058 31756
" />
<path d="M105698 32076
L105698 31246
" />
<path d="M105698 31246
L111198 31246
" />
<path d="M102438 33096
L102438 31756
" />
<path d="M114458 34196
L114458 36596
" />
<path d="M105698 36746
L105698 36286
" />
<path d="M114048 36596
L114048 37056
" />
<path d="M105698 36286
L105058 36286
" />
<path d="M114798 33096
L114798 34196
" />
<path d="M112248 37056
L112248 36596
" />
<path d="M67970 54813
L67851 54369
" />
<path d="M69408 50328
L69693 51391
" />
<path d="M61444 55765
L60826 55931
" />
<path d="M69589 53903
L69709 54348
" />
<path d="M61563 56209
L61444 55765
" />
<path d="M69364 51479
L69986 53797
" />
<path d="M57469 53527
L57122 52233
" />
<path d="M60139 50897
L65452 49473
" />
<path d="M60354 51698
L60139 50897
" />
<path d="M57122 52233
L59653 51555
" />
<path d="M58375 56908
L57754 54590
" />
<path d="M65452 49473
L65667 50275
" />
<path d="M67851 54369
L67455 54475
" />
<path d="M60510 56336
L60629 56780
" />
<path d="M59736 51864
L60354 51698
" />
<path d="M66756 54341
L66875 54786
" />
<path d="M68733 49122
L69080 50416
" />
<path d="M67455 54475
L67375 54176
" />
<path d="M60629 56780
L58890 57246
" />
<path d="M69080 50416
L69408 50328
" />
<path d="M58771 56802
L58375 56908
" />
<path d="M69986 53797
L69589 53903
" />
<path d="M69709 54348
L67970 54813
" />
<path d="M66202 49800
L68733 49122
" />
<path d="M58890 57246
L58771 56802
" />
<path d="M57141 53615
L57469 53527
" />
<path d="M66875 54786
L61563 56209
" />
<path d="M67375 54176
L66756 54341
" />
<path d="M65667 50275
L66285 50109
" />
<path d="M66285 50109
L66202 49800
" />
<path d="M59653 51555
L59736 51864
" />
<path d="M60906 56230
L60510 56336
" />
<path d="M60826 55931
L60906 56230
" />
<path d="M69693 51391
L69364 51479
" />
<path d="M57754 54590
L57426 54678
" />
<path d="M57426 54678
L57141 53615
" />
<path d="M49417 56780
L49536 56336
" />
<path d="M52905 53615
L52621 54678
" />
<path d="M43290 54341
L42672 54176
" />
<path d="M51275 56802
L51156 57246
" />
<path d="M43171 54786
L43290 54341
" />
<path d="M52292 54590
L51671 56908
" />
<path d="M40967 50416
L41313 49122
" />
<path d="M44594 49473
L49907 50897
" />
<path d="M44380 50275
L44594 49473
" />
<path d="M41313 49122
L43844 49800
" />
<path d="M40061 53797
L40682 51479
" />
<path d="M49907 50897
L49692 51698
" />
<path d="M49536 56336
L49140 56230
" />
<path d="M42195 54369
L42076 54813
" />
<path d="M43761 50109
L44380 50275
" />
<path d="M48602 55765
L48483 56209
" />
<path d="M52924 52233
L52577 53527
" />
<path d="M49140 56230
L49221 55931
" />
<path d="M42076 54813
L40338 54348
" />
<path d="M52577 53527
L52905 53615
" />
<path d="M40457 53903
L40061 53797
" />
<path d="M51671 56908
L51275 56802
" />
<path d="M51156 57246
L49417 56780
" />
<path d="M50393 51555
L52924 52233
" />
<path d="M40338 54348
L40457 53903
" />
<path d="M40638 50328
L40967 50416
" />
<path d="M48483 56209
L43171 54786
" />
<path d="M49221 55931
L48602 55765
" />
<path d="M49692 51698
L50310 51864
" />
<path d="M50310 51864
L50393 51555
" />
<path d="M43844 49800
L43761 50109
" />
<path d="M42591 54475
L42195 54369
" />
<path d="M42672 54176
L42591 54475
" />
<path d="M52621 54678
L52292 54590
" />
<path d="M40682 51479
L40353 51391
" />
<path d="M40353 51391
L40638 50328
" />
<path d="M113193 22043
L113193 21583
" />
<path d="M115743 18083
L115743 19183
" />
<path d="M106643 21273
L106003 21273
" />
<path d="M114993 21583
L114993 22043
" />
<path d="M106643 21733
L106643 21273
" />
<path d="M115403 19183
L115403 21583
" />
<path d="M103383 18083
L103383 16743
" />
<path d="M106643 16233
L112143 16233
" />
<path d="M106643 17063
L106643 16233
" />
<path d="M103383 16743
L106003 16743
" />
<path d="M103383 21583
L103383 19183
" />
<path d="M112143 16233
L112143 17063
" />
<path d="M113193 21583
L112783 21583
" />
<path d="M105593 21583
L105593 22043
" />
<path d="M106003 17063
L106643 17063
" />
<path d="M112143 21273
L112143 21733
" />
<path d="M115403 16743
L115403 18083
" />
<path d="M112783 21583
L112783 21273
" />
<path d="M105593 22043
L103793 22043
" />
<path d="M115403 18083
L115743 18083
" />
<path d="M103793 21583
L103383 21583
" />
<path d="M115403 21583
L114993 21583
" />
<path d="M114993 22043
L113193 22043
" />
<path d="M112783 16743
L115403 16743
" />
<path d="M103793 22043
L103793 21583
" />
<path d="M103043 18083
L103383 18083
" />
<path d="M112143 21733
L106643 21733
" />
<path d="M112783 21273
L112143 21273
" />
<path d="M112143 17063
L112783 17063
" />
<path d="M112783 17063
L112783 16743
" />
<path d="M106003 16743
L106003 17063
" />
<path d="M106003 21583
L105593 21583
" />
<path d="M106003 21273
L106003 21583
" />
<path d="M115743 19183
L115403 19183
" />
<path d="M103383 19183
L103043 19183
" />
<path d="M103043 19183
L103043 18083
" />
<path d="M6457 41703
L6457 40603
" />
<path d="M6797 41703
L6457 41703
" />
<path d="M19157 41703
L18817 41703
" />
<path d="M9417 43793
L9417 44103
" />
<path d="M9417 44103
L9007 44103
" />
<path d="M9417 39263
L9417 39583
" />
<path d="M16197 39583
L16197 39263
" />
<path d="M15557 39583
L16197 39583
" />
<path d="M16197 43793
L15557 43793
" />
<path d="M15557 44253
L10057 44253
" />
<path d="M6457 40603
L6797 40603
" />
<path d="M7207 44563
L7207 44103
" />
<path d="M16197 39263
L18817 39263
" />
<path d="M18407 44563
L16607 44563
" />
<path d="M18817 44103
L18407 44103
" />
<path d="M7207 44103
L6797 44103
" />
<path d="M18817 40603
L19157 40603
" />
<path d="M9007 44563
L7207 44563
" />
<path d="M16197 44103
L16197 43793
" />
<path d="M18817 39263
L18817 40603
" />
<path d="M15557 43793
L15557 44253
" />
<path d="M9417 39583
L10057 39583
" />
<path d="M9007 44103
L9007 44563
" />
<path d="M16607 44103
L16197 44103
" />
<path d="M15557 38753
L15557 39583
" />
<path d="M6797 44103
L6797 41703
" />
<path d="M6797 39263
L9417 39263
" />
<path d="M10057 39583
L10057 38753
" />
<path d="M10057 38753
L15557 38753
" />
<path d="M6797 40603
L6797 39263
" />
<path d="M18817 41703
L18817 44103
" />
<path d="M10057 44253
L10057 43793
" />
<path d="M18407 44103
L18407 44563
" />
<path d="M10057 43793
L9417 43793
" />
<path d="M19157 40603
L19157 41703
" />
<path d="M16607 44563
L16607 44103
" />
<path d="M99143 23753
L104643 23753
" />
<path d="M104643 23753
L104643 29253
" />
<path d="M104643 29253
L99143 29253
" />
<path d="M99143 29253
L99143 23753
" />
<path d="M119659 48123
L125159 48123
" />
<path d="M125159 48123
L125159 53623
" />
<path d="M125159 53623
L119659 53623
" />
<path d="M119659 53623
L119659 48123
" />
<path d="M112159 48123
L117659 48123
" />
<path d="M117659 48123
L117659 53623
" />
<path d="M117659 53623
L112159 53623
" />
<path d="M112159 53623
L112159 48123
" />
<path d="M104659 48123
L110159 48123
" />
<path d="M110159 48123
L110159 53623
" />
<path d="M110159 53623
L104659 53623
" />
<path d="M104659 53623
L104659 48123
" />
<path d="M87710 46253
L93210 46253
" />
<path d="M93210 46253
L93210 51753
" />
<path d="M93210 51753
L87710 51753
" />
<path d="M87710 51753
L87710 46253
" />
<path d="M71005 47983
L76318 46560
" />
<path d="M76318 46560
L77742 51872
" />
<path d="M77742 51872
L72429 53296
" />
<path d="M72429 53296
L71005 47983
" />
<path d="M33708 46540
L39021 47964
" />
<path d="M39021 47964
L37598 53276
" />
<path d="M37598 53276
L32285 51853
" />
<path d="M32285 51853
L33708 46540
" />
<path d="M14753 46253
L20253 46253
" />
<path d="M20253 46253
L20253 51753
" />
<path d="M20253 51753
L14753 51753
" />
<path d="M14753 51753
L14753 46253
" />
<path d="M112159 40623
L117659 40623
" />
<path d="M117659 40623
L117659 46123
" />
<path d="M117659 46123
L112159 46123
" />
<path d="M112159 46123
L112159 40623
" />
<path d="M89757 38750
L95257 38750
" />
<path d="M95257 38750
L95257 44250
" />
<path d="M95257 44250
L89757 44250
" />
<path d="M89757 44250
L89757 38750
" />
<path d="M82253 38753
L87753 38753
" />
<path d="M87753 38753
L87753 44253
" />
<path d="M87753 44253
L82253 44253
" />
<path d="M82253 44253
L82253 38753
" />
<path d="M74753 38753
L80253 38753
" />
<path d="M80253 38753
L80253 44253
" />
<path d="M80253 44253
L74753 44253
" />
<path d="M74753 44253
L74753 38753
" />
<path d="M67253 38753
L72753 38753
" />
<path d="M72753 38753
L72753 44253
" />
<path d="M72753 44253
L67253 44253
" />
<path d="M67253 44253
L67253 38753
" />
<path d="M59753 38753
L65253 38753
" />
<path d="M65253 38753
L65253 44253
" />
<path d="M65253 44253
L59753 44253
" />
<path d="M59753 44253
L59753 38753
" />
<path d="M52253 38753
L57753 38753
" />
<path d="M57753 38753
L57753 44253
" />
<path d="M57753 44253
L52253 44253
" />
<path d="M52253 44253
L52253 38753
" />
<path d="M44753 38753
L50253 38753
" />
<path d="M50253 38753
L50253 44253
" />
<path d="M50253 44253
L44753 44253
" />
<path d="M44753 44253
L44753 38753
" />
<path d="M37253 38753
L42753 38753
" />
<path d="M42753 38753
L42753 44253
" />
<path d="M42753 44253
L37253 44253
" />
<path d="M37253 44253
L37253 38753
" />
<path d="M29753 38753
L35253 38753
" />
<path d="M35253 38753
L35253 44253
" />
<path d="M35253 44253
L29753 44253
" />
<path d="M29753 44253
L29753 38753
" />
<path d="M22253 38753
L27753 38753
" />
<path d="M27753 38753
L27753 44253
" />
<path d="M27753 44253
L22253 44253
" />
<path d="M22253 44253
L22253 38753
" />
<path d="M93513 31233
L99013 31233
" />
<path d="M99013 31233
L99013 36733
" />
<path d="M99013 36733
L93513 36733
" />
<path d="M93513 36733
L93513 31233
" />
<path d="M86013 31233
L91513 31233
" />
<path d="M91513 31233
L91513 36733
" />
<path d="M91513 36733
L86013 36733
" />
<path d="M86013 36733
L86013 31233
" />
<path d="M78513 31233
L84013 31233
" />
<path d="M84013 31233
L84013 36733
" />
<path d="M84013 36733
L78513 36733
" />
<path d="M78513 36733
L78513 31233
" />
<path d="M71013 31233
L76513 31233
" />
<path d="M76513 31233
L76513 36733
" />
<path d="M76513 36733
L71013 36733
" />
<path d="M71013 36733
L71013 31233
" />
<path d="M63513 31233
L69013 31233
" />
<path d="M69013 31233
L69013 36733
" />
<path d="M69013 36733
L63513 36733
" />
<path d="M63513 36733
L63513 31233
" />
<path d="M55994 31233
L61494 31233
" />
<path d="M61494 31233
L61494 36733
" />
<path d="M61494 36733
L55994 36733
" />
<path d="M55994 36733
L55994 31233
" />
<path d="M48494 31233
L53994 31233
" />
<path d="M53994 31233
L53994 36733
" />
<path d="M53994 36733
L48494 36733
" />
<path d="M48494 36733
L48494 31233
" />
<path d="M40994 31233
L46494 31233
" />
<path d="M46494 31233
L46494 36733
" />
<path d="M46494 36733
L40994 36733
" />
<path d="M40994 36733
L40994 31233
" />
<path d="M33474 31233
L38974 31233
" />
<path d="M38974 31233
L38974 36733
" />
<path d="M38974 36733
L33474 36733
" />
<path d="M33474 36733
L33474 31233
" />
<path d="M25994 31233
L31494 31233
" />
<path d="M31494 31233
L31494 36733
" />
<path d="M31494 36733
L25994 36733
" />
<path d="M25994 36733
L25994 31233
" />
<path d="M18494 31233
L23994 31233
" />
<path d="M23994 31233
L23994 36733
" />
<path d="M23994 36733
L18494 36733
" />
<path d="M18494 36733
L18494 31233
" />
<path d="M91643 23753
L97143 23753
" />
<path d="M97143 23753
L97143 29253
" />
<path d="M97143 29253
L91643 29253
" />
<path d="M91643 29253
L91643 23753
" />
<path d="M84143 23753
L89643 23753
" />
<path d="M89643 23753
L89643 29253
" />
<path d="M89643 29253
L84143 29253
" />
<path d="M84143 29253
L84143 23753
" />
<path d="M76643 23753
L82143 23753
" />
<path d="M82143 23753
L82143 29253
" />
<path d="M82143 29253
L76643 29253
" />
<path d="M76643 29253
L76643 23753
" />
<path d="M69124 23753
L74624 23753
" />
<path d="M74624 23753
L74624 29253
" />
<path d="M74624 29253
L69124 29253
" />
<path d="M69124 29253
L69124 23753
" />
<path d="M61624 23753
L67124 23753
" />
<path d="M67124 23753
L67124 29253
" />
<path d="M67124 29253
L61624 29253
" />
<path d="M61624 29253
L61624 23753
" />
<path d="M54124 23753
L59624 23753
" />
<path d="M59624 23753
L59624 29253
" />
<path d="M59624 29253
L54124 29253
" />
<path d="M54124 29253
L54124 23753
" />
<path d="M46624 23753
L52124 23753
" />
<path d="M52124 23753
L52124 29253
" />
<path d="M52124 29253
L46624 29253
" />
<path d="M46624 29253
L46624 23753
" />
<path d="M39124 23753
L44624 23753
" />
<path d="M44624 23753
L44624 29253
" />
<path d="M44624 29253
L39124 29253
" />
<path d="M39124 29253
L39124 23753
" />
<path d="M31624 23753
L37124 23753
" />
<path d="M37124 23753
L37124 29253
" />
<path d="M37124 29253
L31624 29253
" />
<path d="M31624 29253
L31624 23753
" />
<path d="M24124 23753
L29624 23753
" />
<path d="M29624 23753
L29624 29253
" />
<path d="M29624 29253
L24124 29253
" />
<path d="M24124 29253
L24124 23753
" />
<path d="M16624 23753
L22124 23753
" />
<path d="M22124 23753
L22124 29253
" />
<path d="M22124 29253
L16624 29253
" />
<path d="M16624 29253
L16624 23753
" />
<path d="M95383 16233
L100883 16233
" />
<path d="M100883 16233
L100883 21733
" />
<path d="M100883 21733
L95383 21733
" />
<path d="M95383 21733
L95383 16233
" />
<path d="M87883 16233
L93383 16233
" />
<path d="M93383 16233
L93383 21733
" />
<path d="M93383 21733
L87883 21733
" />
<path d="M87883 21733
L87883 16233
" />
<path d="M80383 16233
L85883 16233
" />
<path d="M85883 16233
L85883 21733
" />
<path d="M85883 21733
L80383 21733
" />
<path d="M80383 21733
L80383 16233
" />
<path d="M72883 16233
L78383 16233
" />
<path d="M78383 16233
L78383 21733
" />
<path d="M78383 21733
L72883 21733
" />
<path d="M72883 21733
L72883 16233
" />
<path d="M65383 16233
L70883 16233
" />
<path d="M70883 16233
L70883 21733
" />
<path d="M70883 21733
L65383 21733
" />
<path d="M65383 21733
L65383 16233
" />
<path d="M57883 16233
L63383 16233
" />
<path d="M63383 16233
L63383 21733
" />
<path d="M63383 21733
L57883 21733
" />
<path d="M57883 21733
L57883 16233
" />
<path d="M50383 16233
L55883 16233
" />
<path d="M55883 16233
L55883 21733
" />
<path d="M55883 21733
L50383 21733
" />
<path d="M50383 21733
L50383 16233
" />
<path d="M42883 16233
L48383 16233
" />
<path d="M48383 16233
L48383 21733
" />
<path d="M48383 21733
L42883 21733
" />
<path d="M42883 21733
L42883 16233
" />
<path d="M35383 16233
L40883 16233
" />
<path d="M40883 16233
L40883 21733
" />
<path d="M40883 21733
L35383 21733
" />
<path d="M35383 21733
L35383 16233
" />
<path d="M27883 16233
L33383 16233
" />
<path d="M33383 16233
L33383 21733
" />
<path d="M33383 21733
L27883 21733
" />
<path d="M27883 21733
L27883 16233
" />
<path d="M20383 16233
L25883 16233
" />
<path d="M25883 16233
L25883 21733
" />
<path d="M25883 21733
L20383 21733
" />
<path d="M20383 21733
L20383 16233
" />
<path d="M12883 16233
L18383 16233
" />
<path d="M18383 16233
L18383 21733
" />
<path d="M18383 21733
L12883 21733
" />
<path d="M12883 21733
L12883 16233
" />
<path d="M5383 16233
L10883 16233
" />
<path d="M10883 16233
L10883 21733
" />
<path d="M10883 21733
L5383 21733
" />
<path d="M5383 21733
L5383 16233
" />
<path d="M102864 6863
L108364 6863
" />
<path d="M108364 6863
L108364 12363
" />
<path d="M108364 12363
L102864 12363
" />
<path d="M102864 12363
L102864 6863
" />
<path d="M87883 6863
L93383 6863
" />
<path d="M93383 6863
L93383 12363
" />
<path d="M93383 12363
L87883 12363
" />
<path d="M87883 12363
L87883 6863
" />
<path d="M80383 6863
L85883 6863
" />
<path d="M85883 6863
L85883 12363
" />
<path d="M85883 12363
L80383 12363
" />
<path d="M80383 12363
L80383 6863
" />
<path d="M71013 6864
L76513 6864
" />
<path d="M76513 6864
L76513 12364
" />
<path d="M76513 12364
L71013 12364
" />
<path d="M71013 12364
L71013 6864
" />
<path d="M63513 6863
L69013 6863
" />
<path d="M69013 6863
L69013 12363
" />
<path d="M69013 12363
L63513 12363
" />
<path d="M63513 12363
L63513 6863
" />
<path d="M56013 6863
L61513 6863
" />
<path d="M61513 6863
L61513 12363
" />
<path d="M61513 12363
L56013 12363
" />
<path d="M56013 12363
L56013 6863
" />
<path d="M48513 6863
L54013 6863
" />
<path d="M54013 6863
L54013 12363
" />
<path d="M54013 12363
L48513 12363
" />
<path d="M48513 12363
L48513 6863
" />
<path d="M39143 6863
L44643 6863
" />
<path d="M44643 6863
L44643 12363
" />
<path d="M44643 12363
L39143 12363
" />
<path d="M39143 12363
L39143 6863
" />
<path d="M31624 6863
L37124 6863
" />
<path d="M37124 6863
L37124 12363
" />
<path d="M37124 12363
L31624 12363
" />
<path d="M31624 12363
L31624 6863
" />
<path d="M24124 6863
L29624 6863
" />
<path d="M29624 6863
L29624 12363
" />
<path d="M29624 12363
L24124 12363
" />
<path d="M24124 12363
L24124 6863
" />
<path d="M16643 6863
L22143 6863
" />
<path d="M22143 6863
L22143 12363
" />
<path d="M22143 12363
L16643 12363
" />
<path d="M16643 12363
L16643 6863
" />
<path d="M5383 6863
L10883 6863
" />
<path d="M10883 6863
L10883 12363
" />
<path d="M10883 12363
L5383 12363
" />
<path d="M5383 12363
L5383 6863
" />
<path d="M95383 6863
L100883 6863
" />
<path d="M100883 6863
L100883 12363
" />
<path d="M100883 12363
L95383 12363
" />
<path d="M95383 12363
L95383 6863
" />
<path d="M108513 29253
L108513 23753
" />
<path d="M114013 29253
L108513 29253
" />
<path d="M114013 23753
L114013 29253
" />
<path d="M108513 23753
L114013 23753
" />
<path d="M7253 29253
L7253 23753
" />
<path d="M12753 29253
L7253 29253
" />
<path d="M12753 23753
L12753 29253
" />
<path d="M7253 23753
L12753 23753
" />
<path d="M8179 36733
L8179 31233
" />
<path d="M13679 36733
L8179 36733
" />
<path d="M13679 31233
L13679 36733
" />
<path d="M8179 31233
L13679 31233
" />
<path d="M23198 46253
L28698 46253
" />
<path d="M28698 46253
L28698 51753
" />
<path d="M28698 51753
L23198 51753
" />
<path d="M23198 51753
L23198 46253
" />
<path d="M6309 46253
L11809 46253
" />
<path d="M11809 46253
L11809 51753
" />
<path d="M11809 51753
L6309 51753
" />
<path d="M6309 51753
L6309 46253
" />
<path d="M112484 3039.37 A590.551 590.551 0.0 0 0 111894 3629.92" />
<path d="M111894 14653.5 A590.551 590.551 0.0 0 0 112484 15244.1" />
<path d="M123114 15244.1 A590.551 590.551 0.0 0 0 123705 14653.5" />
<path d="M123705 3629.92 A590.551 590.551 0.0 0 0 123114 3039.37" />
<path d="M112484 3039
L123114 3039
" />
<path d="M123704 3629
L123704 14653
" />
<path d="M123114 15244
L112484 15244
" />
<path d="M111893 14653
L111893 3629
" />
<circle cx="127858" cy="17019.7" r="3937.01" /> 
<circle cx="130315" cy="53937" r="433.071" /> 
<circle cx="130315" cy="4330.71" r="433.071" /> 
<circle cx="78346.5" cy="53937" r="433.071" /> 
<circle cx="78346.5" cy="4330.71" r="433.071" /> 
<circle cx="6299.21" cy="53937" r="433.071" /> 
<circle cx="6299.21" cy="4330.71" r="433.071" /> 
<path d="M67444 1570
L70344 1570
" />
<circle cx="72409.9" cy="3760.59" r="629.921" /> 
<circle cx="65378.7" cy="3760.59" r="629.921" /> 
<path d="M107937 2145
L111086 2145
" />
<path d="M107937 2145
L107937 4507
" />
<path d="M107937 4507
L111086 4507
" />
<path d="M111086 4507
L111086 2145
" />
<circle cx="31496.1" cy="53937" r="433.071" /> 
<circle cx="31496.1" cy="4330.71" r="433.071" /> 
</g>
<g style="fill:#000000; fill-opacity:0.0; 
stroke:#000000; stroke-width:59.0551; stroke-opacity:1; 
stroke-linecap:round; stroke-linejoin:round;">
<path d="M70472 1181
L70472 2362
" />
<path d="M67322 1181
L70472 1181
" />
<path d="M67322 2362
L67322 1181
" />
</g>
<g style="fill:#000000; fill-opacity:0.0; 
stroke:#000000; stroke-width:19.685; stroke-opacity:1; 
stroke-linecap:round; stroke-linejoin:round;">
<path d="M40551 55905
L6299 55905
" />
<path d="M51181 58661
L40551 55905
" />
<path d="M58661 58661
L51181 58661
" />
<path d="M69291 55905
L58661 58661
" />
<path d="M130314 55905
L69291 55905
" />
<path d="M132283 4330.71 A1968.5 1968.5 0.0 0 0 130315 2362.2" />
<path d="M6299.21 2362.2 A1968.5 1968.5 0.0 0 0 4330.71 4330.71" />
<path d="M4330.71 53937 A1968.5 1968.5 0.0 0 0 6299.21 55905.5" />
<path d="M130315 55905.5 A1968.5 1968.5 0.0 0 0 132283 53937" />
<path d="M130314 2362
L6299 2362
" />
<path d="M132283 53937
L132283 4330
" />
<path d="M4330 4330
L4330 53937
" />
<g >
</g>
<g >
</g>
<g >
</g>
<g >
</g>
<g >
</g>
<g >
</g>
<g >
</g>
<g >
</g>
<g >
</g>
</g> 
</svg>
