%TF.GenerationSoftware,KiCad,Pcbnew,7.0.10*%
%TF.CreationDate,2024-04-03T01:03:37+02:00*%
%TF.ProjectId,middle,6d696464-6c65-42e6-9b69-6361645f7063,rev?*%
%TF.SameCoordinates,Original*%
%TF.FileFunction,Soldermask,Top*%
%TF.FilePolarity,Negative*%
%FSLAX46Y46*%
G04 Gerber Fmt 4.6, Leading zero omitted, Abs format (unit mm)*
G04 Created by KiCad (PCBNEW 7.0.10) date 2024-04-03 01:03:37*
%MOMM*%
%LPD*%
G01*
G04 APERTURE LIST*
%ADD10C,1.700000*%
%ADD11C,3.000000*%
%ADD12C,4.100000*%
%ADD13C,3.050000*%
%ADD14C,4.000000*%
%ADD15C,3.800000*%
%ADD16C,1.524000*%
%ADD17C,1.900000*%
%ADD18C,2.000000*%
%ADD19R,1.800000X3.200000*%
%ADD20C,0.650000*%
%ADD21O,1.108000X2.216000*%
G04 APERTURE END LIST*
D10*
%TO.C,KD1*%
X44926300Y-71437500D03*
D11*
X46196300Y-68897500D03*
D12*
X50006300Y-71437500D03*
D11*
X52546300Y-66357500D03*
D10*
X55086300Y-71437500D03*
%TD*%
%TO.C,KB11*%
X241807200Y-30956200D03*
D11*
X243077200Y-28416200D03*
D12*
X246887200Y-30956200D03*
D11*
X249427200Y-25876200D03*
D10*
X251967200Y-30956200D03*
%TD*%
%TO.C,KD11*%
X248951000Y-71437500D03*
D11*
X250221000Y-68897500D03*
D12*
X254031000Y-71437500D03*
D11*
X256571000Y-66357500D03*
D10*
X259111000Y-71437500D03*
%TD*%
%TO.C,KC12*%
X289432200Y-52387500D03*
D11*
X290702200Y-49847500D03*
D12*
X294512200Y-52387500D03*
D11*
X297052200Y-47307500D03*
D10*
X299592200Y-52387500D03*
%TD*%
%TO.C,KC4*%
X101245607Y-59143723D03*
D11*
X103015950Y-56923276D03*
D12*
X106214597Y-60199915D03*
D11*
X109755283Y-55759021D03*
D10*
X111183587Y-61256106D03*
%TD*%
%TO.C,KB10*%
X220927525Y-35813188D03*
D11*
X221641677Y-33064646D03*
D12*
X225896515Y-34756997D03*
D11*
X227324818Y-29259912D03*
D10*
X230865505Y-33700806D03*
%TD*%
%TO.C,KE3*%
X87374407Y-95146423D03*
D11*
X89144750Y-92925976D03*
D12*
X92343397Y-96202615D03*
D11*
X95884083Y-91761721D03*
D10*
X97312387Y-97258806D03*
%TD*%
%TO.C,KB9*%
X202293825Y-39773888D03*
D11*
X203007977Y-37025346D03*
D12*
X207262815Y-38717697D03*
D11*
X208691118Y-33220612D03*
D10*
X212231805Y-37661506D03*
%TD*%
%TO.C,KC1*%
X42545000Y-52387500D03*
D11*
X43815000Y-49847500D03*
D12*
X47625000Y-52387500D03*
D11*
X50165000Y-47307500D03*
D10*
X52705000Y-52387500D03*
%TD*%
%TO.C,KA2*%
X55604842Y-9858265D03*
D11*
X57048930Y-7413043D03*
D12*
X60672467Y-10212628D03*
D11*
X63560643Y-5322184D03*
D10*
X65740093Y-10566991D03*
%TD*%
%TO.C,KF8*%
X301338500Y-111918700D03*
D11*
X302608500Y-109378700D03*
D12*
X306418500Y-111918700D03*
D11*
X308958500Y-106838700D03*
D10*
X311498500Y-111918700D03*
%TD*%
%TO.C,KA9*%
X198396525Y-16749788D03*
D11*
X199110677Y-14001246D03*
D12*
X203365515Y-15693597D03*
D11*
X204793818Y-10196512D03*
D10*
X208334505Y-14637406D03*
%TD*%
%TO.C,KA12*%
X258476000Y-9525000D03*
D11*
X259746000Y-6985000D03*
D12*
X263556000Y-9525000D03*
D11*
X266096000Y-4445000D03*
D10*
X268636000Y-9525000D03*
%TD*%
%TO.C,KE8*%
X188091125Y-101219588D03*
D11*
X188805277Y-98471046D03*
D12*
X193060115Y-100163397D03*
D11*
X194488418Y-94666312D03*
D10*
X198029105Y-99107206D03*
%TD*%
%TO.C,KF0*%
X18732550Y-109537500D03*
D11*
X20002550Y-106997500D03*
D12*
X23812550Y-109537500D03*
D11*
X26352550Y-104457500D03*
D10*
X28892550Y-109537500D03*
%TD*%
D13*
%TO.C,KD13*%
X292137250Y-64437500D03*
D14*
X292137250Y-79677500D03*
D10*
X298957250Y-71437500D03*
D11*
X300227250Y-68897500D03*
D12*
X304037250Y-71437500D03*
D11*
X306577250Y-66357500D03*
D10*
X309117250Y-71437500D03*
D13*
X315937250Y-64437500D03*
D14*
X315937250Y-79677500D03*
%TD*%
D10*
%TO.C,KC11*%
X270382200Y-52387500D03*
D11*
X271652200Y-49847500D03*
D12*
X275462200Y-52387500D03*
D11*
X278002200Y-47307500D03*
D10*
X280542200Y-52387500D03*
%TD*%
D15*
%TO.C,MountTopMiddle6*%
X328390000Y-64540000D03*
%TD*%
D16*
%TO.C,RSW2*%
X2253715Y-11495197D03*
X2253715Y-6495197D03*
D17*
X4753715Y-12495197D03*
X4753715Y-5495197D03*
%TD*%
D10*
%TO.C,KA11*%
X238297103Y-10567030D03*
D11*
X239386828Y-7944627D03*
D12*
X243364728Y-10212667D03*
D11*
X245544178Y-4967860D03*
D10*
X248432353Y-9858304D03*
%TD*%
%TO.C,KD9*%
X209106025Y-77277088D03*
D11*
X209820177Y-74528546D03*
D12*
X214075015Y-76220897D03*
D11*
X215503318Y-70723812D03*
D10*
X219044005Y-75164706D03*
%TD*%
%TO.C,KA13*%
X279907200Y-9525000D03*
D11*
X281177200Y-6985000D03*
D12*
X284987200Y-9525000D03*
D11*
X287527200Y-4445000D03*
D10*
X290067200Y-9525000D03*
%TD*%
%TO.C,KD4*%
X103626907Y-79125423D03*
D11*
X105397250Y-76904976D03*
D12*
X108595897Y-80181615D03*
D11*
X112136583Y-75740721D03*
D10*
X113564887Y-81237806D03*
%TD*%
%TO.C,KA3*%
X75737218Y-11565228D03*
D11*
X77348358Y-9226697D03*
D12*
X80767780Y-12272227D03*
D11*
X83990060Y-7595165D03*
D10*
X85798341Y-12979226D03*
%TD*%
D14*
%TO.C,KF4*%
X174350836Y-115191661D03*
D13*
X177519410Y-130098631D03*
D10*
X182734995Y-121833640D03*
D11*
X183449147Y-119085097D03*
D12*
X187703985Y-120777448D03*
D11*
X189132288Y-115280363D03*
D10*
X192672974Y-119721257D03*
D14*
X197630749Y-110243363D03*
D13*
X200799323Y-125150333D03*
%TD*%
D10*
%TO.C,KF10*%
X301338500Y-9525000D03*
D11*
X302608500Y-6985000D03*
D12*
X306418500Y-9525000D03*
D11*
X308958500Y-4445000D03*
D10*
X311498500Y-9525000D03*
%TD*%
%TO.C,KB2*%
X52070000Y-30956200D03*
D11*
X53340000Y-28416200D03*
D12*
X57150000Y-30956200D03*
D11*
X59690000Y-25876200D03*
D10*
X62230000Y-30956200D03*
%TD*%
%TO.C,KA10*%
X218238865Y-12979179D03*
D11*
X219143006Y-10287148D03*
D12*
X223269427Y-12272180D03*
D11*
X225077709Y-6888118D03*
D10*
X228299989Y-11565180D03*
%TD*%
%TO.C,KB0*%
X13970000Y-33337500D03*
D11*
X15240000Y-30797500D03*
D12*
X19050000Y-33337500D03*
D11*
X21590000Y-28257500D03*
D10*
X24130000Y-33337500D03*
%TD*%
D18*
%TO.C,SW1*%
X149518608Y-130825000D03*
X154518608Y-130825000D03*
X152018608Y-130825000D03*
D19*
X157868608Y-129575000D03*
X146168608Y-129575000D03*
D18*
X154518608Y-128325000D03*
X149518608Y-128325000D03*
%TD*%
D10*
%TO.C,KB6*%
X129072807Y-45582923D03*
D11*
X130843150Y-43362476D03*
D12*
X134041797Y-46639115D03*
D11*
X137582483Y-42198221D03*
D10*
X139010787Y-47695306D03*
%TD*%
D15*
%TO.C,MountTopMiddle4*%
X242200000Y-102480000D03*
%TD*%
D10*
%TO.C,KA5*%
X116634162Y-18852811D03*
D11*
X118204244Y-16486518D03*
D12*
X121676297Y-19471908D03*
D11*
X124816460Y-14739321D03*
D10*
X126718431Y-20091004D03*
%TD*%
%TO.C,KB4*%
X91805407Y-37661523D03*
D11*
X93575750Y-35441076D03*
D12*
X96774397Y-38717715D03*
D11*
X100315083Y-34276821D03*
D10*
X101743387Y-39773906D03*
%TD*%
%TO.C,KE6*%
X146938600Y-114300000D03*
D11*
X148208600Y-111760000D03*
D12*
X152018600Y-114300000D03*
D11*
X154558600Y-109220000D03*
D10*
X157098600Y-114300000D03*
%TD*%
%TO.C,KC7*%
X192853625Y-61256088D03*
D11*
X193567777Y-58507546D03*
D12*
X197822615Y-60199897D03*
D11*
X199250918Y-54702812D03*
D10*
X202791605Y-59143706D03*
%TD*%
%TO.C,KC6*%
X174219925Y-65216788D03*
D11*
X174934077Y-62468246D03*
D12*
X179188915Y-64160597D03*
D11*
X180617218Y-58663512D03*
D10*
X184157905Y-63104406D03*
%TD*%
%TO.C,KE11*%
X246569700Y-90487500D03*
D11*
X247839700Y-87947500D03*
D12*
X251649700Y-90487500D03*
D11*
X254189700Y-85407500D03*
D10*
X256729700Y-90487500D03*
%TD*%
%TO.C,KA8*%
X177318773Y-20090993D03*
D11*
X178269759Y-17415152D03*
D12*
X182360908Y-19471897D03*
D11*
X184262879Y-14120214D03*
D10*
X187403042Y-18852800D03*
%TD*%
%TO.C,KE4*%
X106008107Y-99107223D03*
D11*
X107778450Y-96886776D03*
D12*
X110977097Y-100163415D03*
D11*
X114517783Y-95722521D03*
D10*
X115946087Y-101219606D03*
%TD*%
%TO.C,KF11*%
X320388500Y-9525000D03*
D11*
X321658500Y-6985000D03*
D12*
X325468500Y-9525000D03*
D11*
X328008500Y-4445000D03*
D10*
X330548500Y-9525000D03*
%TD*%
%TO.C,KC3*%
X82611907Y-55183023D03*
D11*
X84382250Y-52962576D03*
D12*
X87580897Y-56239215D03*
D11*
X91121583Y-51798321D03*
D10*
X92549887Y-57295406D03*
%TD*%
%TO.C,KB3*%
X73171707Y-33700823D03*
D11*
X74942050Y-31480376D03*
D12*
X78140697Y-34757015D03*
D11*
X81681383Y-30316121D03*
D10*
X83109687Y-35813206D03*
%TD*%
%TO.C,KD7*%
X171838625Y-85198588D03*
D11*
X172552777Y-82450046D03*
D12*
X176807615Y-84142397D03*
D11*
X178235918Y-78645312D03*
D10*
X181776605Y-83086206D03*
%TD*%
D15*
%TO.C,MountTopMiddle1*%
X29780000Y-21330000D03*
%TD*%
D16*
%TO.C,RSW1*%
X2253715Y-21495200D03*
X2253715Y-16495200D03*
D17*
X4753715Y-22495200D03*
X4753715Y-15495200D03*
%TD*%
D10*
%TO.C,KD2*%
X66359507Y-71204023D03*
D11*
X68129850Y-68983576D03*
D12*
X71328497Y-72260215D03*
D11*
X74869183Y-67819321D03*
D10*
X76297487Y-73316406D03*
%TD*%
%TO.C,KD6*%
X146938600Y-95250000D03*
D11*
X148208600Y-92710000D03*
D12*
X152018600Y-95250000D03*
D11*
X154558600Y-90170000D03*
D10*
X157098600Y-95250000D03*
%TD*%
%TO.C,KF7*%
X282288500Y-111918700D03*
D11*
X283558500Y-109378700D03*
D12*
X287368500Y-111918700D03*
D11*
X289908500Y-106838700D03*
D10*
X292448500Y-111918700D03*
%TD*%
%TO.C,KC2*%
X63978207Y-51222223D03*
D11*
X65748550Y-49001776D03*
D12*
X68947197Y-52278415D03*
D11*
X72487883Y-47837521D03*
D10*
X73916187Y-53334606D03*
%TD*%
D15*
%TO.C,MountTopMiddle3*%
X151998715Y-59170197D03*
%TD*%
D10*
%TO.C,KE12*%
X272763450Y-90487500D03*
D11*
X274033450Y-87947500D03*
D12*
X277843450Y-90487500D03*
D11*
X280383450Y-85407500D03*
D10*
X282923450Y-90487500D03*
%TD*%
%TO.C,KC13*%
X313244700Y-52387500D03*
D11*
X314514700Y-49847500D03*
D12*
X318324700Y-52387500D03*
D11*
X320864700Y-47307500D03*
D10*
X323404700Y-52387500D03*
%TD*%
%TO.C,KE5*%
X124641907Y-103067923D03*
D11*
X126412250Y-100847476D03*
D12*
X129610897Y-104124115D03*
D11*
X133151583Y-99683221D03*
D10*
X134579887Y-105180306D03*
%TD*%
%TO.C,KC5*%
X119879407Y-63104423D03*
D11*
X121649750Y-60883976D03*
D12*
X124848397Y-64160615D03*
D11*
X128389083Y-59719721D03*
D10*
X129817387Y-65216806D03*
%TD*%
%TO.C,KC8*%
X211487325Y-57295388D03*
D11*
X212201477Y-54546846D03*
D12*
X216456315Y-56239197D03*
D11*
X217884618Y-50742112D03*
D10*
X221425305Y-55183006D03*
%TD*%
%TO.C,KA4*%
X95702707Y-14637423D03*
D11*
X97473050Y-12416976D03*
D12*
X100671697Y-15693615D03*
D11*
X104212383Y-11252721D03*
D10*
X105640687Y-16749806D03*
%TD*%
%TO.C,KD0*%
X18732550Y-71437500D03*
D11*
X20002550Y-68897500D03*
D12*
X23812550Y-71437500D03*
D11*
X26352550Y-66357500D03*
D10*
X28892550Y-71437500D03*
%TD*%
%TO.C,KA6*%
X136389027Y-21054862D03*
D11*
X137875570Y-18635215D03*
D12*
X141449696Y-21497613D03*
D11*
X144422782Y-16658319D03*
D10*
X146510365Y-21940364D03*
%TD*%
%TO.C,KD12*%
X268001000Y-71437500D03*
D11*
X269271000Y-68897500D03*
D12*
X273081000Y-71437500D03*
D11*
X275621000Y-66357500D03*
D10*
X278161000Y-71437500D03*
%TD*%
%TO.C,KB12*%
X260857200Y-33337500D03*
D11*
X262127200Y-30797500D03*
D12*
X265937200Y-33337500D03*
D11*
X268477200Y-28257500D03*
D10*
X271017200Y-33337500D03*
%TD*%
%TO.C,KF2*%
X69438421Y-110809613D03*
D11*
X71208764Y-108589166D03*
D12*
X74407411Y-111865804D03*
D11*
X77948097Y-107424910D03*
D10*
X79376401Y-112921996D03*
%TD*%
D16*
%TO.C,J3*%
X2978719Y-64845198D03*
X2978719Y-62345198D03*
X2978719Y-59845198D03*
%TD*%
D10*
%TO.C,KA0*%
X13970000Y-9525000D03*
D11*
X15240000Y-6985000D03*
D12*
X19050000Y-9525000D03*
D11*
X21590000Y-4445000D03*
D10*
X24130000Y-9525000D03*
%TD*%
%TO.C,KF12*%
X318007200Y-33337500D03*
D11*
X319277200Y-30797500D03*
D12*
X323087200Y-33337500D03*
D11*
X325627200Y-28257500D03*
D10*
X328167200Y-33337500D03*
%TD*%
%TO.C,KB7*%
X165026425Y-47695388D03*
D11*
X165740577Y-44946846D03*
D12*
X169995415Y-46639197D03*
D11*
X171423718Y-41142112D03*
D10*
X174964405Y-45583006D03*
%TD*%
D13*
%TO.C,KE0*%
X9531250Y-83487500D03*
D14*
X9531250Y-98727500D03*
D10*
X16351250Y-90487500D03*
D11*
X17621250Y-87947500D03*
D12*
X21431250Y-90487500D03*
D11*
X23971250Y-85407500D03*
D10*
X26511250Y-90487500D03*
D13*
X33331250Y-83487500D03*
D14*
X33331250Y-98727500D03*
%TD*%
D10*
%TO.C,KB8*%
X183660125Y-43734588D03*
D11*
X184374277Y-40986046D03*
D12*
X188629115Y-42678397D03*
D11*
X190057418Y-37181312D03*
D10*
X193598105Y-41622206D03*
%TD*%
%TO.C,KC9*%
X230121025Y-53334688D03*
D11*
X230835177Y-50586146D03*
D12*
X235090015Y-52278497D03*
D11*
X236518318Y-46781412D03*
D10*
X240059005Y-51222306D03*
%TD*%
D13*
%TO.C,KB13*%
X282612200Y-26337500D03*
D14*
X282612200Y-41577500D03*
D10*
X289432200Y-33337500D03*
D11*
X290702200Y-30797500D03*
D12*
X294512200Y-33337500D03*
D11*
X297052200Y-28257500D03*
D10*
X299592200Y-33337500D03*
D13*
X306412200Y-26337500D03*
D14*
X306412200Y-41577500D03*
%TD*%
D10*
%TO.C,KB5*%
X110439107Y-41622223D03*
D11*
X112209450Y-39401776D03*
D12*
X115408097Y-42678415D03*
D11*
X118948783Y-38237521D03*
D10*
X120377087Y-43734606D03*
%TD*%
%TO.C,KE1*%
X47307500Y-90487500D03*
D11*
X48577500Y-87947500D03*
D12*
X52387500Y-90487500D03*
D11*
X54927500Y-85407500D03*
D10*
X57467500Y-90487500D03*
%TD*%
%TO.C,KC0*%
X18732500Y-52387500D03*
D11*
X20002500Y-49847500D03*
D12*
X23812500Y-52387500D03*
D11*
X26352500Y-47307500D03*
D10*
X28892500Y-52387500D03*
%TD*%
%TO.C,KA7*%
X157526844Y-21940347D03*
D11*
X158570636Y-19299325D03*
D12*
X162587513Y-21497596D03*
D11*
X164675096Y-16215551D03*
D10*
X167648182Y-21054845D03*
%TD*%
D14*
%TO.C,KF3*%
X101747195Y-109257559D03*
D13*
X98578621Y-124164528D03*
D10*
X106705905Y-118731051D03*
D11*
X108476248Y-116510604D03*
D12*
X111674895Y-119787243D03*
D11*
X115215581Y-115346349D03*
D10*
X116643885Y-120843434D03*
D14*
X125027108Y-114205857D03*
D13*
X121858534Y-129112827D03*
%TD*%
D15*
%TO.C,MountTopMiddle5*%
X274200000Y-21410000D03*
%TD*%
D10*
%TO.C,KF9*%
X320388500Y-111918700D03*
D11*
X321658500Y-109378700D03*
D12*
X325468500Y-111918700D03*
D11*
X328008500Y-106838700D03*
D10*
X330548500Y-111918700D03*
%TD*%
%TO.C,KD3*%
X84993207Y-75164723D03*
D11*
X86763550Y-72944276D03*
D12*
X89962197Y-76220915D03*
D11*
X93502883Y-71780021D03*
D10*
X94931187Y-77277106D03*
%TD*%
%TO.C,KE2*%
X68740707Y-91185723D03*
D11*
X70511050Y-88965276D03*
D12*
X73709697Y-92241915D03*
D11*
X77250383Y-87801021D03*
D10*
X78678687Y-93298106D03*
%TD*%
%TO.C,KF5*%
X224660839Y-112921999D03*
D11*
X225374991Y-110173456D03*
D12*
X229629829Y-111865807D03*
D11*
X231058132Y-106368722D03*
D10*
X234598819Y-110809616D03*
%TD*%
%TO.C,KD8*%
X190472325Y-81237788D03*
D11*
X191186477Y-78489246D03*
D12*
X195441315Y-80181597D03*
D11*
X196869618Y-74684512D03*
D10*
X200410305Y-79125406D03*
%TD*%
%TO.C,KD5*%
X122260607Y-83086123D03*
D11*
X124030950Y-80865676D03*
D12*
X127229597Y-84142315D03*
D11*
X130770283Y-79701421D03*
D10*
X132198587Y-85198506D03*
%TD*%
%TO.C,KC10*%
X251332200Y-52387500D03*
D11*
X252602200Y-49847500D03*
D12*
X256412200Y-52387500D03*
D11*
X258952200Y-47307500D03*
D10*
X261492200Y-52387500D03*
%TD*%
%TO.C,KA1*%
X35401300Y-9525000D03*
D11*
X36671300Y-6985000D03*
D12*
X40481300Y-9525000D03*
D11*
X43021300Y-4445000D03*
D10*
X45561300Y-9525000D03*
%TD*%
D15*
%TO.C,MountTopMiddle2*%
X61790000Y-102510000D03*
%TD*%
D10*
%TO.C,KE9*%
X206724825Y-97258888D03*
D11*
X207438977Y-94510346D03*
D12*
X211693815Y-96202697D03*
D11*
X213122118Y-90705612D03*
D10*
X216662805Y-95146506D03*
%TD*%
%TO.C,KE10*%
X225358525Y-93298088D03*
D11*
X226072677Y-90549546D03*
D12*
X230327515Y-92241897D03*
D11*
X231755818Y-86744812D03*
D10*
X235296505Y-91185706D03*
%TD*%
%TO.C,KF6*%
X251332250Y-109537500D03*
D11*
X252602250Y-106997500D03*
D12*
X256412250Y-109537500D03*
D11*
X258952250Y-104457500D03*
D10*
X261492250Y-109537500D03*
%TD*%
%TO.C,KB1*%
X33020000Y-33337500D03*
D11*
X34290000Y-30797500D03*
D12*
X38100000Y-33337500D03*
D11*
X40640000Y-28257500D03*
D10*
X43180000Y-33337500D03*
%TD*%
%TO.C,KD10*%
X227739725Y-73316388D03*
D11*
X228453877Y-70567846D03*
D12*
X232708715Y-72260197D03*
D11*
X234137018Y-66763112D03*
D10*
X237677705Y-71204006D03*
%TD*%
%TO.C,KF1*%
X42545050Y-109537500D03*
D11*
X43815050Y-106997500D03*
D12*
X47625050Y-109537500D03*
D11*
X50165050Y-104457500D03*
D10*
X52705050Y-109537500D03*
%TD*%
%TO.C,KE13*%
X301338500Y-92868700D03*
D11*
X302608500Y-90328700D03*
D12*
X306418500Y-92868700D03*
D11*
X308958500Y-87788700D03*
D10*
X311498500Y-92868700D03*
%TD*%
%TO.C,KE7*%
X169457425Y-105180288D03*
D11*
X170171577Y-102431746D03*
D12*
X174426415Y-104124097D03*
D11*
X175854718Y-98627012D03*
D10*
X179395405Y-103067906D03*
%TD*%
D20*
%TO.C,JUSB1*%
X149025000Y-13725000D03*
X149875000Y-13725000D03*
X150725000Y-13725000D03*
X151575000Y-13725000D03*
X152425000Y-13725000D03*
X153275000Y-13725000D03*
X154125000Y-13725000D03*
X154975000Y-13725000D03*
X154975000Y-12375000D03*
X154125000Y-12375000D03*
X153275000Y-12375000D03*
X152425000Y-12375000D03*
X151575000Y-12375000D03*
X150725000Y-12375000D03*
X149875000Y-12375000D03*
X149025000Y-12375000D03*
D21*
X147675000Y-12745000D03*
X156325000Y-12745000D03*
X156325000Y-9365000D03*
X147675000Y-9365000D03*
%TD*%
M02*
