%TF.GenerationSoftware,KiCad,Pcbnew,7.0.10*%
%TF.CreationDate,2024-04-03T01:03:37+02:00*%
%TF.ProjectId,middle,6d696464-6c65-42e6-9b69-6361645f7063,rev?*%
%TF.SameCoordinates,Original*%
%TF.FileFunction,Paste,Bot*%
%TF.FilePolarity,Positive*%
%FSLAX46Y46*%
G04 Gerber Fmt 4.6, Leading zero omitted, Abs format (unit mm)*
G04 Created by KiCad (PCBNEW 7.0.10) date 2024-04-03 01:03:37*
%MOMM*%
%LPD*%
G01*
G04 APERTURE LIST*
G04 Aperture macros list*
%AMRoundRect*
0 Rectangle with rounded corners*
0 $1 Rounding radius*
0 $2 $3 $4 $5 $6 $7 $8 $9 X,Y pos of 4 corners*
0 Add a 4 corners polygon primitive as box body*
4,1,4,$2,$3,$4,$5,$6,$7,$8,$9,$2,$3,0*
0 Add four circle primitives for the rounded corners*
1,1,$1+$1,$2,$3*
1,1,$1+$1,$4,$5*
1,1,$1+$1,$6,$7*
1,1,$1+$1,$8,$9*
0 Add four rect primitives between the rounded corners*
20,1,$1+$1,$2,$3,$4,$5,0*
20,1,$1+$1,$4,$5,$6,$7,0*
20,1,$1+$1,$6,$7,$8,$9,0*
20,1,$1+$1,$8,$9,$2,$3,0*%
%AMRotRect*
0 Rectangle, with rotation*
0 The origin of the aperture is its center*
0 $1 length*
0 $2 width*
0 $3 Rotation angle, in degrees counterclockwise*
0 Add horizontal line*
21,1,$1,$2,0,0,$3*%
G04 Aperture macros list end*
%ADD10R,2.300000X2.000000*%
%ADD11R,1.700000X0.820000*%
%ADD12RoundRect,0.205000X-0.645000X-0.205000X0.645000X-0.205000X0.645000X0.205000X-0.645000X0.205000X0*%
%ADD13RotRect,1.700000X0.820000X12.000000*%
%ADD14RoundRect,0.205000X-0.588283X-0.334623X0.673527X-0.066417X0.588283X0.334623X-0.673527X0.066417X0*%
%ADD15RotRect,1.700000X0.820000X352.000000*%
%ADD16RoundRect,0.205000X-0.667253X-0.113238X0.610192X-0.292772X0.667253X0.113238X-0.610192X0.292772X0*%
%ADD17RotRect,1.700000X0.820000X8.000000*%
%ADD18RoundRect,0.205000X-0.610192X-0.292772X0.667253X-0.113238X0.610192X0.292772X-0.667253X0.113238X0*%
%ADD19RotRect,1.700000X0.820000X348.000000*%
%ADD20RoundRect,0.205000X-0.673527X-0.066417X0.588283X-0.334623X0.673527X0.066417X-0.588283X0.334623X0*%
%ADD21RotRect,1.700000X0.820000X353.000000*%
%ADD22RoundRect,0.205000X-0.665175X-0.124866X0.615209X-0.282078X0.665175X0.124866X-0.615209X0.282078X0*%
%ADD23RotRect,2.300000X2.000000X168.000000*%
%ADD24RotRect,2.300000X2.000000X192.000000*%
%ADD25RotRect,1.700000X0.820000X4.000000*%
%ADD26RoundRect,0.205000X-0.629129X-0.249494X0.657729X-0.159508X0.629129X0.249494X-0.657729X0.159508X0*%
%ADD27RotRect,2.300000X2.000000X176.000000*%
%ADD28RotRect,2.300000X2.000000X184.000000*%
%ADD29RotRect,2.300000X2.000000X172.000000*%
%ADD30RotRect,2.300000X2.000000X188.000000*%
%ADD31RotRect,2.300000X2.000000X173.000000*%
%ADD32RotRect,2.300000X2.000000X187.000000*%
%ADD33RotRect,1.700000X0.820000X7.000000*%
%ADD34RoundRect,0.205000X-0.615209X-0.282078X0.665175X-0.124866X0.615209X0.282078X-0.665175X0.124866X0*%
%ADD35R,0.820000X1.700000*%
%ADD36RoundRect,0.205000X-0.205000X0.645000X-0.205000X-0.645000X0.205000X-0.645000X0.205000X0.645000X0*%
%ADD37RotRect,2.300000X2.000000X175.000000*%
%ADD38RotRect,1.700000X0.820000X5.000000*%
%ADD39RoundRect,0.205000X-0.624679X-0.260435X0.660413X-0.148004X0.624679X0.260435X-0.660413X0.148004X0*%
%ADD40RotRect,2.300000X2.000000X185.000000*%
%ADD41RotRect,1.700000X0.820000X356.000000*%
%ADD42RoundRect,0.205000X-0.657729X-0.159508X0.629129X-0.249494X0.657729X0.159508X-0.629129X0.249494X0*%
%ADD43RotRect,1.700000X0.820000X355.000000*%
%ADD44RoundRect,0.205000X-0.660413X-0.148004X0.624679X-0.260435X0.660413X0.148004X-0.624679X0.260435X0*%
%ADD45RoundRect,0.225000X0.225000X0.375000X-0.225000X0.375000X-0.225000X-0.375000X0.225000X-0.375000X0*%
%ADD46RoundRect,0.225000X0.142116X0.413585X-0.298050X0.320025X-0.142116X-0.413585X0.298050X-0.320025X0*%
%ADD47RoundRect,0.225000X0.375000X-0.225000X0.375000X0.225000X-0.375000X0.225000X-0.375000X-0.225000X0*%
%ADD48RoundRect,0.225000X0.298050X0.320025X-0.142116X0.413585X-0.298050X-0.320025X0.142116X-0.413585X0*%
%ADD49RoundRect,0.150000X0.150000X-0.587500X0.150000X0.587500X-0.150000X0.587500X-0.150000X-0.587500X0*%
%ADD50RoundRect,0.140000X0.170000X-0.140000X0.170000X0.140000X-0.170000X0.140000X-0.170000X-0.140000X0*%
%ADD51RoundRect,0.140000X-0.140000X-0.170000X0.140000X-0.170000X0.140000X0.170000X-0.140000X0.170000X0*%
%ADD52RoundRect,0.135000X-0.185000X0.135000X-0.185000X-0.135000X0.185000X-0.135000X0.185000X0.135000X0*%
%ADD53RoundRect,0.250000X-0.625000X0.375000X-0.625000X-0.375000X0.625000X-0.375000X0.625000X0.375000X0*%
%ADD54RoundRect,0.135000X0.185000X-0.135000X0.185000X0.135000X-0.185000X0.135000X-0.185000X-0.135000X0*%
%ADD55RoundRect,0.225000X0.250611X0.358391X-0.198293X0.389782X-0.250611X-0.358391X0.198293X-0.389782X0*%
%ADD56RoundRect,0.140000X-0.170000X0.140000X-0.170000X-0.140000X0.170000X-0.140000X0.170000X0.140000X0*%
%ADD57RoundRect,0.150000X0.150000X-0.512500X0.150000X0.512500X-0.150000X0.512500X-0.150000X-0.512500X0*%
%ADD58RoundRect,0.140000X0.140000X0.170000X-0.140000X0.170000X-0.140000X-0.170000X0.140000X-0.170000X0*%
%ADD59RoundRect,0.225000X0.256827X0.353963X-0.191460X0.393183X-0.256827X-0.353963X0.191460X-0.393183X0*%
%ADD60RoundRect,0.225000X0.269024X0.344784X-0.177622X0.399625X-0.269024X-0.344784X0.177622X-0.399625X0*%
%ADD61RoundRect,0.225000X0.170620X0.402664X-0.275000X0.340037X-0.170620X-0.402664X0.275000X-0.340037X0*%
%ADD62RoundRect,0.250000X0.292217X0.292217X-0.292217X0.292217X-0.292217X-0.292217X0.292217X-0.292217X0*%
%ADD63RoundRect,0.050000X0.387500X0.050000X-0.387500X0.050000X-0.387500X-0.050000X0.387500X-0.050000X0*%
%ADD64RoundRect,0.050000X0.050000X0.387500X-0.050000X0.387500X-0.050000X-0.387500X0.050000X-0.387500X0*%
%ADD65RoundRect,0.225000X0.198293X0.389782X-0.250611X0.358391X-0.198293X-0.389782X0.250611X-0.358391X0*%
%ADD66R,1.400000X1.200000*%
%ADD67RoundRect,0.150000X0.650000X0.150000X-0.650000X0.150000X-0.650000X-0.150000X0.650000X-0.150000X0*%
%ADD68RoundRect,0.225000X0.275000X0.340037X-0.170620X0.402664X-0.275000X-0.340037X0.170620X-0.402664X0*%
%ADD69RoundRect,0.225000X0.191460X0.393183X-0.256827X0.353963X-0.191460X-0.393183X0.256827X-0.353963X0*%
%ADD70RoundRect,0.225000X0.177622X0.399625X-0.269024X0.344784X-0.177622X-0.399625X0.269024X-0.344784X0*%
G04 APERTURE END LIST*
D10*
%TO.C,KD1*%
X43006300Y-68857500D03*
X55706300Y-66317500D03*
%TD*%
D11*
%TO.C,RGBF7*%
X284818715Y-116170197D03*
X284818715Y-117670197D03*
D12*
X289918715Y-117670197D03*
D11*
X289918715Y-116170197D03*
%TD*%
D10*
%TO.C,KB11*%
X239887200Y-28376200D03*
X252587200Y-25836200D03*
%TD*%
D13*
%TO.C,RGBE8*%
X191448505Y-104856761D03*
X191760372Y-106323983D03*
D14*
X196748925Y-105263633D03*
D13*
X196437058Y-103796411D03*
%TD*%
D15*
%TO.C,RGBA3*%
X77653578Y-16124049D03*
X77444819Y-17609451D03*
D16*
X82495186Y-18319233D03*
D15*
X82703945Y-16833831D03*
%TD*%
D13*
%TO.C,RGBC6*%
X177580162Y-68850547D03*
X177892029Y-70317769D03*
D14*
X182880582Y-69257419D03*
D13*
X182568715Y-67790197D03*
%TD*%
D11*
%TO.C,RGBF1*%
X45078715Y-113780197D03*
X45078715Y-115280197D03*
D12*
X50178715Y-115280197D03*
D11*
X50178715Y-113780197D03*
%TD*%
D10*
%TO.C,KD11*%
X247031000Y-68857500D03*
X259731000Y-66317500D03*
%TD*%
D11*
%TO.C,RGBD11*%
X251478715Y-75690197D03*
X251478715Y-77190197D03*
D12*
X256578715Y-77190197D03*
D11*
X256578715Y-75690197D03*
%TD*%
D17*
%TO.C,RGBA10*%
X221339152Y-16832387D03*
X221547911Y-18317789D03*
D18*
X226598278Y-17608007D03*
D17*
X226389519Y-16122605D03*
%TD*%
D10*
%TO.C,KC12*%
X287512200Y-49807500D03*
X300212200Y-47267500D03*
%TD*%
D19*
%TO.C,RGBF3*%
X108300162Y-123409847D03*
X107988295Y-124877069D03*
D20*
X112976848Y-125937419D03*
D19*
X113288715Y-124470197D03*
%TD*%
D21*
%TO.C,RGBA5*%
X118619124Y-23375021D03*
X118436320Y-24863840D03*
D22*
X123498306Y-25485373D03*
D21*
X123681110Y-23996554D03*
%TD*%
D23*
%TO.C,KC4*%
X99903976Y-56220912D03*
X112854546Y-56376896D03*
%TD*%
D24*
%TO.C,KB10*%
X218513069Y-33688758D03*
X230407448Y-28563785D03*
%TD*%
D23*
%TO.C,KE3*%
X86032776Y-92223612D03*
X98983346Y-92379596D03*
%TD*%
D11*
%TO.C,RGBF10*%
X303868715Y-13770197D03*
X303868715Y-15270197D03*
D12*
X308968715Y-15270197D03*
D11*
X308968715Y-13770197D03*
%TD*%
D25*
%TO.C,RGBA11*%
X241122609Y-14629903D03*
X241227244Y-16126249D03*
D26*
X246314821Y-15770491D03*
D25*
X246210186Y-14274145D03*
%TD*%
D13*
%TO.C,RGBB8*%
X187020162Y-47360547D03*
X187332029Y-48827769D03*
D14*
X192320582Y-47767419D03*
D13*
X192008715Y-46300197D03*
%TD*%
D24*
%TO.C,KB9*%
X199879369Y-37649458D03*
X211773748Y-32524485D03*
%TD*%
D13*
%TO.C,RGBA9*%
X201760162Y-20380546D03*
X202072029Y-21847768D03*
D14*
X207060582Y-20787418D03*
D13*
X206748715Y-19320196D03*
%TD*%
D10*
%TO.C,KC1*%
X40625000Y-49807500D03*
X53325000Y-47267500D03*
%TD*%
D27*
%TO.C,KA2*%
X53869491Y-7150617D03*
X66715735Y-5502712D03*
%TD*%
D10*
%TO.C,KF8*%
X299418500Y-109338700D03*
X312118500Y-106798700D03*
%TD*%
D11*
%TO.C,RGBB13*%
X291968715Y-37580197D03*
X291968715Y-39080197D03*
D12*
X297068715Y-39080197D03*
D11*
X297068715Y-37580197D03*
%TD*%
D24*
%TO.C,KA9*%
X195982069Y-14625358D03*
X207876448Y-9500385D03*
%TD*%
D10*
%TO.C,KA12*%
X256556000Y-6945000D03*
X269256000Y-4405000D03*
%TD*%
D24*
%TO.C,KE8*%
X185676669Y-99095158D03*
X197571048Y-93970185D03*
%TD*%
D10*
%TO.C,KF0*%
X16812550Y-106957500D03*
X29512550Y-104417500D03*
%TD*%
%TO.C,KD13*%
X297037250Y-68857500D03*
X309737250Y-66317500D03*
%TD*%
D13*
%TO.C,RGBB10*%
X224290162Y-39440547D03*
X224602029Y-40907769D03*
D14*
X229590582Y-39847419D03*
D13*
X229278715Y-38380197D03*
%TD*%
D10*
%TO.C,KC11*%
X268462200Y-49807500D03*
X281162200Y-47267500D03*
%TD*%
D11*
%TO.C,RGBC1*%
X45078715Y-56640197D03*
X45078715Y-58140197D03*
D12*
X50178715Y-58140197D03*
D11*
X50178715Y-56640197D03*
%TD*%
D28*
%TO.C,KA11*%
X236201808Y-8127247D03*
X248693690Y-4707527D03*
%TD*%
D24*
%TO.C,KD9*%
X206691569Y-75152658D03*
X218585948Y-70027685D03*
%TD*%
D10*
%TO.C,KA13*%
X277987200Y-6945000D03*
X290687200Y-4405000D03*
%TD*%
D23*
%TO.C,KD4*%
X102285276Y-76202612D03*
X115235846Y-76358596D03*
%TD*%
D29*
%TO.C,KA3*%
X74194970Y-8743124D03*
X87124874Y-7995341D03*
%TD*%
D24*
%TO.C,KF4*%
X180320539Y-119709209D03*
X192214918Y-114584236D03*
%TD*%
D11*
%TO.C,RGBD12*%
X270528715Y-75670197D03*
X270528715Y-77170197D03*
D12*
X275628715Y-77170197D03*
D11*
X275628715Y-75670197D03*
%TD*%
%TO.C,RGBB1*%
X35548715Y-37570197D03*
X35548715Y-39070197D03*
D12*
X40648715Y-39070197D03*
D11*
X40648715Y-37570197D03*
%TD*%
D10*
%TO.C,KF10*%
X299418500Y-6945000D03*
X312118500Y-4405000D03*
%TD*%
%TO.C,KB2*%
X50150000Y-28376200D03*
X62850000Y-25836200D03*
%TD*%
D30*
%TO.C,KA10*%
X215978484Y-10691500D03*
X228201389Y-6408720D03*
%TD*%
D11*
%TO.C,RGBB0*%
X16498715Y-37590197D03*
X16498715Y-39090197D03*
D12*
X21598715Y-39090197D03*
D11*
X21598715Y-37590197D03*
%TD*%
D10*
%TO.C,KB0*%
X12050000Y-30757500D03*
X24750000Y-28217500D03*
%TD*%
D23*
%TO.C,KB6*%
X127731176Y-42660112D03*
X140681746Y-42816096D03*
%TD*%
D31*
%TO.C,KA5*%
X115042896Y-16058053D03*
X127957781Y-15084727D03*
%TD*%
D19*
%TO.C,RGBD4*%
X105220162Y-83799847D03*
X104908295Y-85267069D03*
D20*
X109896848Y-86327419D03*
D19*
X110208715Y-84860197D03*
%TD*%
D23*
%TO.C,KB4*%
X90463776Y-34738712D03*
X103414346Y-34894696D03*
%TD*%
D10*
%TO.C,KE6*%
X145018600Y-111720000D03*
X157718600Y-109180000D03*
%TD*%
D24*
%TO.C,KC7*%
X190439169Y-59131658D03*
X202333548Y-54006685D03*
%TD*%
%TO.C,KC6*%
X171805469Y-63092358D03*
X183699848Y-57967385D03*
%TD*%
D19*
%TO.C,RGBE5*%
X126230162Y-107759847D03*
X125918295Y-109227069D03*
D20*
X130906848Y-110287419D03*
D19*
X131218715Y-108820197D03*
%TD*%
D10*
%TO.C,KE11*%
X244649700Y-87907500D03*
X257349700Y-85367500D03*
%TD*%
D11*
%TO.C,RGBF6*%
X253868715Y-113790197D03*
X253868715Y-115290197D03*
D12*
X258968715Y-115290197D03*
D11*
X258968715Y-113790197D03*
%TD*%
D32*
%TO.C,KA8*%
X175098662Y-17764213D03*
X187394450Y-13695405D03*
%TD*%
D13*
%TO.C,RGBD7*%
X175200162Y-88830547D03*
X175512029Y-90297769D03*
D14*
X180500582Y-89237419D03*
D13*
X180188715Y-87770197D03*
%TD*%
D19*
%TO.C,RGBB6*%
X130660372Y-50266411D03*
X130348505Y-51733633D03*
D20*
X135337058Y-52793983D03*
D19*
X135648925Y-51326761D03*
%TD*%
D23*
%TO.C,KE4*%
X104666476Y-96184412D03*
X117617046Y-96340396D03*
%TD*%
D10*
%TO.C,KF11*%
X318468500Y-6945000D03*
X331168500Y-4405000D03*
%TD*%
D23*
%TO.C,KC3*%
X81270276Y-52260212D03*
X94220846Y-52416196D03*
%TD*%
%TO.C,KB3*%
X71830076Y-30778012D03*
X84780646Y-30933996D03*
%TD*%
D11*
%TO.C,RGBF11*%
X322918715Y-13780197D03*
X322918715Y-15280197D03*
D12*
X328018715Y-15280197D03*
D11*
X328018715Y-13780197D03*
%TD*%
D24*
%TO.C,KD7*%
X169424169Y-83074158D03*
X181318548Y-77949185D03*
%TD*%
D11*
%TO.C,RGBF8*%
X303868715Y-116160197D03*
X303868715Y-117660197D03*
D12*
X308968715Y-117660197D03*
D11*
X308968715Y-116160197D03*
%TD*%
D19*
%TO.C,RGBE3*%
X88960372Y-99826411D03*
X88648505Y-101293633D03*
D20*
X93637058Y-102353983D03*
D19*
X93948925Y-100886761D03*
%TD*%
D11*
%TO.C,RGBD1*%
X47458715Y-75690197D03*
X47458715Y-77190197D03*
D12*
X52558715Y-77190197D03*
D11*
X52558715Y-75690197D03*
%TD*%
D13*
%TO.C,RGBF5*%
X228020162Y-116550547D03*
X228332029Y-118017769D03*
D14*
X233320582Y-116957419D03*
D13*
X233008715Y-115490197D03*
%TD*%
D11*
%TO.C,RGBB11*%
X244338715Y-35210197D03*
X244338715Y-36710197D03*
D12*
X249438715Y-36710197D03*
D11*
X249438715Y-35210197D03*
%TD*%
%TO.C,RGBE11*%
X249098715Y-94740197D03*
X249098715Y-96240197D03*
D12*
X254198715Y-96240197D03*
D11*
X254198715Y-94740197D03*
%TD*%
D13*
%TO.C,RGBB7*%
X168390162Y-51330547D03*
X168702029Y-52797769D03*
D14*
X173690582Y-51737419D03*
D13*
X173378715Y-50270197D03*
%TD*%
D23*
%TO.C,KD2*%
X65017876Y-68281212D03*
X77968446Y-68437196D03*
%TD*%
D10*
%TO.C,KD6*%
X145018600Y-92670000D03*
X157718600Y-90130000D03*
%TD*%
%TO.C,KF7*%
X280368500Y-109338700D03*
X293068500Y-106798700D03*
%TD*%
D11*
%TO.C,RGBE12*%
X275298715Y-94740197D03*
X275298715Y-96240197D03*
D12*
X280398715Y-96240197D03*
D11*
X280398715Y-94740197D03*
%TD*%
%TO.C,RGBA13*%
X282438715Y-13770197D03*
X282438715Y-15270197D03*
D12*
X287538715Y-15270197D03*
D11*
X287538715Y-13770197D03*
%TD*%
D13*
%TO.C,RGBB9*%
X205658505Y-43406761D03*
X205970372Y-44873983D03*
D14*
X210958925Y-43813633D03*
D13*
X210647058Y-42346411D03*
%TD*%
D11*
%TO.C,RGBE13*%
X303868715Y-97120197D03*
X303868715Y-98620197D03*
D12*
X308968715Y-98620197D03*
D11*
X308968715Y-97120197D03*
%TD*%
D23*
%TO.C,KC2*%
X62636576Y-48299412D03*
X75587146Y-48455396D03*
%TD*%
D10*
%TO.C,KE12*%
X270843450Y-87907500D03*
X283543450Y-85367500D03*
%TD*%
%TO.C,KC13*%
X311324700Y-49807500D03*
X324024700Y-47267500D03*
%TD*%
D11*
%TO.C,RGBC10*%
X253858715Y-56630197D03*
X253858715Y-58130197D03*
D12*
X258958715Y-58130197D03*
D11*
X258958715Y-56630197D03*
%TD*%
D13*
%TO.C,RGBF4*%
X186090162Y-125460547D03*
X186402029Y-126927769D03*
D14*
X191390582Y-125867419D03*
D13*
X191078715Y-124400197D03*
%TD*%
%TO.C,RGBD9*%
X212460162Y-80900547D03*
X212772029Y-82367769D03*
D14*
X217760582Y-81307419D03*
D13*
X217448715Y-79840197D03*
%TD*%
D23*
%TO.C,KE5*%
X123300276Y-100145112D03*
X136250846Y-100301096D03*
%TD*%
D11*
%TO.C,RGBC0*%
X21258715Y-56640197D03*
X21258715Y-58140197D03*
D12*
X26358715Y-58140197D03*
D11*
X26358715Y-56640197D03*
%TD*%
%TO.C,RGBC11*%
X272918715Y-56640197D03*
X272918715Y-58140197D03*
D12*
X278018715Y-58140197D03*
D11*
X278018715Y-56640197D03*
%TD*%
D33*
%TO.C,RGBA8*%
X180346320Y-23996554D03*
X180529124Y-25485373D03*
D34*
X185591110Y-24863840D03*
D33*
X185408306Y-23375021D03*
%TD*%
D23*
%TO.C,KC5*%
X118537776Y-60181612D03*
X131488346Y-60337596D03*
%TD*%
D24*
%TO.C,KC8*%
X209072869Y-55170958D03*
X220967248Y-50045985D03*
%TD*%
D23*
%TO.C,KA4*%
X94361076Y-11714612D03*
X107311646Y-11870596D03*
%TD*%
D35*
%TO.C,RGBI0*%
X6713715Y-49837500D03*
X5213715Y-49837500D03*
D36*
X5213715Y-54937500D03*
D35*
X6713715Y-54937500D03*
%TD*%
%TO.C,RGBI2*%
X5213715Y-25865197D03*
X3713715Y-25865197D03*
D36*
X3713715Y-30965197D03*
D35*
X5213715Y-30965197D03*
%TD*%
D11*
%TO.C,RGBA1*%
X37928715Y-13770197D03*
X37928715Y-15270197D03*
D12*
X43028715Y-15270197D03*
D11*
X43028715Y-13770197D03*
%TD*%
%TO.C,RGBC13*%
X315778715Y-56630197D03*
X315778715Y-58130197D03*
D12*
X320878715Y-58130197D03*
D11*
X320878715Y-56630197D03*
%TD*%
D13*
%TO.C,RGBD10*%
X231100162Y-76940547D03*
X231412029Y-78407769D03*
D14*
X236400582Y-77347419D03*
D13*
X236088715Y-75880197D03*
%TD*%
D10*
%TO.C,KD0*%
X16812550Y-68857500D03*
X29512550Y-66317500D03*
%TD*%
D37*
%TO.C,KA6*%
X134701195Y-18317340D03*
X147574243Y-16893884D03*
%TD*%
D11*
%TO.C,RGBF12*%
X320538715Y-37590197D03*
X320538715Y-39090197D03*
D12*
X325638715Y-39090197D03*
D11*
X325638715Y-37590197D03*
%TD*%
D10*
%TO.C,KD12*%
X266081000Y-68857500D03*
X278781000Y-66317500D03*
%TD*%
D38*
%TO.C,RGBA7*%
X160418122Y-25954690D03*
X160548855Y-27448982D03*
D39*
X165629448Y-27004488D03*
D38*
X165498715Y-25510196D03*
%TD*%
D10*
%TO.C,KB12*%
X258937200Y-30757500D03*
X271637200Y-28217500D03*
%TD*%
D23*
%TO.C,KF2*%
X68096790Y-107886802D03*
X81047360Y-108042785D03*
%TD*%
D10*
%TO.C,KA0*%
X12050000Y-6945000D03*
X24750000Y-4405000D03*
%TD*%
%TO.C,KF12*%
X316087200Y-30757500D03*
X328787200Y-28217500D03*
%TD*%
D13*
%TO.C,RGBE9*%
X210078505Y-100886761D03*
X210390372Y-102353983D03*
D14*
X215378925Y-101293633D03*
D13*
X215067058Y-99826411D03*
%TD*%
D24*
%TO.C,KB7*%
X162611969Y-45570958D03*
X174506348Y-40445985D03*
%TD*%
D10*
%TO.C,KE0*%
X14431250Y-87907500D03*
X27131250Y-85367500D03*
%TD*%
D24*
%TO.C,KB8*%
X181245669Y-41610158D03*
X193140048Y-36485185D03*
%TD*%
D11*
%TO.C,RGBE1*%
X49848715Y-94740197D03*
X49848715Y-96240197D03*
D12*
X54948715Y-96240197D03*
D11*
X54948715Y-94740197D03*
%TD*%
D24*
%TO.C,KC9*%
X227706569Y-51210258D03*
X239600948Y-46085285D03*
%TD*%
D19*
%TO.C,RGBC2*%
X65570372Y-55906411D03*
X65258505Y-57373633D03*
D20*
X70247058Y-58433983D03*
D19*
X70558925Y-56966761D03*
%TD*%
D10*
%TO.C,KB13*%
X287512200Y-30757500D03*
X300212200Y-28217500D03*
%TD*%
D23*
%TO.C,KB5*%
X109097476Y-38699412D03*
X122048046Y-38855396D03*
%TD*%
D10*
%TO.C,KE1*%
X45387500Y-87907500D03*
X58087500Y-85367500D03*
%TD*%
D19*
%TO.C,RGBC5*%
X121470372Y-67786411D03*
X121158505Y-69253633D03*
D20*
X126147058Y-70313983D03*
D19*
X126458925Y-68846761D03*
%TD*%
D10*
%TO.C,KC0*%
X16812500Y-49807500D03*
X29512500Y-47267500D03*
%TD*%
D40*
%TO.C,KA7*%
X155389288Y-19537504D03*
X167819585Y-15900291D03*
%TD*%
D13*
%TO.C,RGBD8*%
X193828505Y-84866761D03*
X194140372Y-86333983D03*
D14*
X199128925Y-85273633D03*
D13*
X198817058Y-83806411D03*
%TD*%
D23*
%TO.C,KF3*%
X105364274Y-115808240D03*
X118314844Y-115964224D03*
%TD*%
D19*
%TO.C,RGBB3*%
X74760372Y-38376411D03*
X74448505Y-39843633D03*
D20*
X79437058Y-40903983D03*
D19*
X79748925Y-39436761D03*
%TD*%
D11*
%TO.C,RGBF0*%
X21268715Y-113770197D03*
X21268715Y-115270197D03*
D12*
X26368715Y-115270197D03*
D11*
X26368715Y-113770197D03*
%TD*%
%TO.C,RGBA0*%
X16488715Y-13770197D03*
X16488715Y-15270197D03*
D12*
X21588715Y-15270197D03*
D11*
X21588715Y-13770197D03*
%TD*%
D10*
%TO.C,KF9*%
X318468500Y-109338700D03*
X331168500Y-106798700D03*
%TD*%
D11*
%TO.C,RGBE0*%
X18878715Y-94740197D03*
X18878715Y-96240197D03*
D12*
X23978715Y-96240197D03*
D11*
X23978715Y-94740197D03*
%TD*%
D19*
%TO.C,RGBC3*%
X84200162Y-59869847D03*
X83888295Y-61337069D03*
D20*
X88876848Y-62397419D03*
D19*
X89188715Y-60930197D03*
%TD*%
D23*
%TO.C,KD3*%
X83651576Y-72241912D03*
X96602146Y-72397896D03*
%TD*%
%TO.C,KE2*%
X67399076Y-88262912D03*
X80349646Y-88418896D03*
%TD*%
D24*
%TO.C,KF5*%
X222246383Y-110797568D03*
X234140762Y-105672595D03*
%TD*%
D19*
%TO.C,RGBE4*%
X107600372Y-103786411D03*
X107288505Y-105253633D03*
D20*
X112277058Y-106313983D03*
D19*
X112588925Y-104846761D03*
%TD*%
D24*
%TO.C,KD8*%
X188057869Y-79113358D03*
X199952248Y-73988385D03*
%TD*%
D23*
%TO.C,KD5*%
X120918976Y-80163312D03*
X133869546Y-80319296D03*
%TD*%
D11*
%TO.C,RGBC12*%
X291968715Y-56640197D03*
X291968715Y-58140197D03*
D12*
X297068715Y-58140197D03*
D11*
X297068715Y-56640197D03*
%TD*%
%TO.C,RGBF9*%
X322918715Y-116170197D03*
X322918715Y-117670197D03*
D12*
X328018715Y-117670197D03*
D11*
X328018715Y-116170197D03*
%TD*%
%TO.C,RGBD0*%
X21258715Y-75690197D03*
X21258715Y-77190197D03*
D12*
X26358715Y-77190197D03*
D11*
X26358715Y-75690197D03*
%TD*%
D13*
%TO.C,RGBC7*%
X196208505Y-64886761D03*
X196520372Y-66353983D03*
D14*
X201508925Y-65293633D03*
D13*
X201197058Y-63826411D03*
%TD*%
%TO.C,RGBE10*%
X228718505Y-96926761D03*
X229030372Y-98393983D03*
D14*
X234018925Y-97333633D03*
D13*
X233707058Y-95866411D03*
%TD*%
D10*
%TO.C,KC10*%
X249412200Y-49807500D03*
X262112200Y-47267500D03*
%TD*%
D11*
%TO.C,RGBA12*%
X260998715Y-13770197D03*
X260998715Y-15270197D03*
D12*
X266098715Y-15270197D03*
D11*
X266098715Y-13770197D03*
%TD*%
D13*
%TO.C,RGBC9*%
X233478505Y-56966761D03*
X233790372Y-58433983D03*
D14*
X238778925Y-57373633D03*
D13*
X238467058Y-55906411D03*
%TD*%
D41*
%TO.C,RGBA2*%
X57817603Y-14264331D03*
X57712968Y-15760677D03*
D42*
X62800545Y-16116435D03*
D41*
X62905180Y-14620089D03*
%TD*%
D19*
%TO.C,RGBB4*%
X93400162Y-42349847D03*
X93088295Y-43817069D03*
D20*
X98076848Y-44877419D03*
D19*
X98388715Y-43410197D03*
%TD*%
D13*
%TO.C,RGBC8*%
X214850162Y-60920547D03*
X215162029Y-62387769D03*
D14*
X220150582Y-61327419D03*
D13*
X219838715Y-59860197D03*
%TD*%
D19*
%TO.C,RGBB5*%
X112030162Y-46309847D03*
X111718295Y-47777069D03*
D20*
X116706848Y-48837419D03*
D19*
X117018715Y-47370197D03*
%TD*%
D11*
%TO.C,RGBB2*%
X54598715Y-35200197D03*
X54598715Y-36700197D03*
D12*
X59698715Y-36700197D03*
D11*
X59698715Y-35200197D03*
%TD*%
D10*
%TO.C,KA1*%
X33481300Y-6945000D03*
X46181300Y-4405000D03*
%TD*%
D19*
%TO.C,RGBF2*%
X71030162Y-115489847D03*
X70718295Y-116957069D03*
D20*
X75706848Y-118017419D03*
D19*
X76018715Y-116550197D03*
%TD*%
D24*
%TO.C,KE9*%
X204310369Y-95134458D03*
X216204748Y-90009485D03*
%TD*%
D13*
%TO.C,RGBE7*%
X172818505Y-108806761D03*
X173130372Y-110273983D03*
D14*
X178118925Y-109213633D03*
D13*
X177807058Y-107746411D03*
%TD*%
D19*
%TO.C,RGBD5*%
X123850162Y-87769847D03*
X123538295Y-89237069D03*
D20*
X128526848Y-90297419D03*
D19*
X128838715Y-88830197D03*
%TD*%
D11*
%TO.C,RGBB12*%
X263398715Y-37590197D03*
X263398715Y-39090197D03*
D12*
X268498715Y-39090197D03*
D11*
X268498715Y-37590197D03*
%TD*%
D43*
%TO.C,RGBA6*%
X138543785Y-25510804D03*
X138413052Y-27005096D03*
D44*
X143493645Y-27449590D03*
D43*
X143624378Y-25955298D03*
%TD*%
D11*
%TO.C,RGBD13*%
X301488715Y-75680197D03*
X301488715Y-77180197D03*
D12*
X306588715Y-77180197D03*
D11*
X306588715Y-75680197D03*
%TD*%
D19*
%TO.C,RGBD2*%
X67960162Y-75889847D03*
X67648295Y-77357069D03*
D20*
X72636848Y-78417419D03*
D19*
X72948715Y-76950197D03*
%TD*%
D11*
%TO.C,RGBE6*%
X149463715Y-118540197D03*
X149463715Y-120040197D03*
D12*
X154563715Y-120040197D03*
D11*
X154563715Y-118540197D03*
%TD*%
%TO.C,RGBD6*%
X149468715Y-99500197D03*
X149468715Y-101000197D03*
D12*
X154568715Y-101000197D03*
D11*
X154568715Y-99500197D03*
%TD*%
D24*
%TO.C,KE10*%
X222944069Y-91173658D03*
X234838448Y-86048685D03*
%TD*%
D35*
%TO.C,RGBI1*%
X5213715Y-35845197D03*
X3713715Y-35845197D03*
D36*
X3713715Y-40945197D03*
D35*
X5213715Y-40945197D03*
%TD*%
D19*
%TO.C,RGBA4*%
X97300372Y-19316411D03*
X96988505Y-20783633D03*
D20*
X101977058Y-21843983D03*
D19*
X102288925Y-20376761D03*
%TD*%
%TO.C,RGBD3*%
X86580162Y-79839847D03*
X86268295Y-81307069D03*
D20*
X91256848Y-82367419D03*
D19*
X91568715Y-80900197D03*
%TD*%
D10*
%TO.C,KF6*%
X249412250Y-106957500D03*
X262112250Y-104417500D03*
%TD*%
%TO.C,KB1*%
X31100000Y-30757500D03*
X43800000Y-28217500D03*
%TD*%
D24*
%TO.C,KD10*%
X225325269Y-71191958D03*
X237219648Y-66066985D03*
%TD*%
D10*
%TO.C,KF1*%
X40625050Y-106957500D03*
X53325050Y-104417500D03*
%TD*%
D19*
%TO.C,RGBE2*%
X70330372Y-95866411D03*
X70018505Y-97333633D03*
D20*
X75007058Y-98393983D03*
D19*
X75318925Y-96926761D03*
%TD*%
D10*
%TO.C,KE13*%
X299418500Y-90288700D03*
X312118500Y-87748700D03*
%TD*%
D24*
%TO.C,KE7*%
X167042969Y-103055858D03*
X178937348Y-97930885D03*
%TD*%
D19*
%TO.C,RGBC4*%
X102840372Y-63826411D03*
X102528505Y-65293633D03*
D20*
X107517058Y-66353983D03*
D19*
X107828925Y-64886761D03*
%TD*%
D45*
%TO.C,DC0*%
X30188715Y-44100197D03*
X26888715Y-44100197D03*
%TD*%
%TO.C,DC11*%
X279646215Y-44130197D03*
X276346215Y-44130197D03*
%TD*%
%TO.C,DE1*%
X58758715Y-82220197D03*
X55458715Y-82220197D03*
%TD*%
%TO.C,DC10*%
X262748715Y-44130197D03*
X259448715Y-44130197D03*
%TD*%
D46*
%TO.C,DD10*%
X237192659Y-62867143D03*
X233964771Y-63553251D03*
%TD*%
D45*
%TO.C,DE11*%
X258038715Y-82220197D03*
X254738715Y-82220197D03*
%TD*%
D47*
%TO.C,DF12*%
X331338715Y-31560197D03*
X331338715Y-28260197D03*
%TD*%
D45*
%TO.C,DB11*%
X253278715Y-22710197D03*
X249978715Y-22710197D03*
%TD*%
%TO.C,DA13*%
X291356215Y-1270197D03*
X288056215Y-1270197D03*
%TD*%
D48*
%TO.C,DC5*%
X132802659Y-57383251D03*
X129574771Y-56697143D03*
%TD*%
D49*
%TO.C,U1*%
X150128715Y-28470197D03*
X148228715Y-28470197D03*
X149178715Y-26595197D03*
%TD*%
D50*
%TO.C,C6*%
X153628715Y-34600197D03*
X153628715Y-33640197D03*
%TD*%
D51*
%TO.C,C9*%
X154609999Y-32224181D03*
X155569999Y-32224181D03*
%TD*%
D45*
%TO.C,DB0*%
X25408715Y-25070197D03*
X22108715Y-25070197D03*
%TD*%
D46*
%TO.C,DC9*%
X239562659Y-42867143D03*
X236334771Y-43553251D03*
%TD*%
%TO.C,DD8*%
X199932659Y-70787143D03*
X196704771Y-71473251D03*
%TD*%
D45*
%TO.C,DF7*%
X293736215Y-103660197D03*
X290436215Y-103660197D03*
%TD*%
D46*
%TO.C,DD9*%
X218532659Y-66827143D03*
X215304771Y-67513251D03*
%TD*%
D52*
%TO.C,R4*%
X151568715Y-30585197D03*
X151568715Y-31605197D03*
%TD*%
D53*
%TO.C,F1*%
X149168715Y-21915197D03*
X149168715Y-24715197D03*
%TD*%
D45*
%TO.C,DF9*%
X318478715Y-101110197D03*
X315178715Y-101110197D03*
%TD*%
D54*
%TO.C,R1*%
X150148715Y-17510197D03*
X150148715Y-16490197D03*
%TD*%
D55*
%TO.C,DA2*%
X67598715Y-2450197D03*
X64306753Y-2220001D03*
%TD*%
D46*
%TO.C,DB7*%
X174502659Y-37217143D03*
X171274771Y-37903251D03*
%TD*%
D54*
%TO.C,R2*%
X153878715Y-17530197D03*
X153878715Y-16510197D03*
%TD*%
D45*
%TO.C,DE12*%
X284178715Y-82240197D03*
X280878715Y-82240197D03*
%TD*%
D48*
%TO.C,DD5*%
X135152659Y-77383251D03*
X131924771Y-76697143D03*
%TD*%
D46*
%TO.C,DE8*%
X197582659Y-90777143D03*
X194354771Y-91463251D03*
%TD*%
%TO.C,DB9*%
X211742659Y-29277143D03*
X208514771Y-29963251D03*
%TD*%
D51*
%TO.C,C11*%
X158858715Y-36580197D03*
X159818715Y-36580197D03*
%TD*%
D48*
%TO.C,DE4*%
X118916603Y-93396305D03*
X115688715Y-92710197D03*
%TD*%
D51*
%TO.C,C1*%
X146488715Y-24950197D03*
X147448715Y-24950197D03*
%TD*%
D45*
%TO.C,DD12*%
X279456215Y-63150197D03*
X276156215Y-63150197D03*
%TD*%
D50*
%TO.C,C10*%
X150189182Y-34774354D03*
X150189182Y-33814354D03*
%TD*%
D56*
%TO.C,C14*%
X150658715Y-46690197D03*
X150658715Y-47650197D03*
%TD*%
D45*
%TO.C,DB2*%
X63528715Y-22700197D03*
X60228715Y-22700197D03*
%TD*%
D48*
%TO.C,DC3*%
X95502659Y-49473251D03*
X92274771Y-48787143D03*
%TD*%
D51*
%TO.C,C13*%
X159205298Y-40593127D03*
X160165298Y-40593127D03*
%TD*%
D57*
%TO.C,U4*%
X152958715Y-24527697D03*
X152008715Y-24527697D03*
X151058715Y-24527697D03*
X151058715Y-22252697D03*
X152008715Y-22252697D03*
X152958715Y-22252697D03*
%TD*%
D48*
%TO.C,DA4*%
X108626603Y-8956305D03*
X105398715Y-8270197D03*
%TD*%
D46*
%TO.C,DC7*%
X202312659Y-50807143D03*
X199084771Y-51493251D03*
%TD*%
D56*
%TO.C,C7*%
X149618715Y-46690197D03*
X149618715Y-47650197D03*
%TD*%
D48*
%TO.C,DE2*%
X81652659Y-85493251D03*
X78424771Y-84807143D03*
%TD*%
D58*
%TO.C,C12*%
X146848715Y-40600198D03*
X145888715Y-40600198D03*
%TD*%
D45*
%TO.C,DC13*%
X324706215Y-44080197D03*
X321406215Y-44080197D03*
%TD*%
%TO.C,DF6*%
X262778715Y-101270197D03*
X259478715Y-101270197D03*
%TD*%
%TO.C,DB12*%
X272316215Y-25070197D03*
X269016215Y-25070197D03*
%TD*%
D52*
%TO.C,R0*%
X171418714Y-30000196D03*
X171418714Y-31020196D03*
%TD*%
D45*
%TO.C,DD11*%
X260358715Y-63160197D03*
X257058715Y-63160197D03*
%TD*%
%TO.C,DB13*%
X300868715Y-25090196D03*
X297568715Y-25090196D03*
%TD*%
D46*
%TO.C,DE9*%
X216192659Y-86797143D03*
X212964771Y-87483251D03*
%TD*%
D48*
%TO.C,DD2*%
X79282659Y-65513251D03*
X76054771Y-64827143D03*
%TD*%
D45*
%TO.C,DD6*%
X158376215Y-86990197D03*
X155076215Y-86990197D03*
%TD*%
%TO.C,DF0*%
X30158715Y-101300197D03*
X26858715Y-101300197D03*
%TD*%
%TO.C,DA0*%
X25436215Y-1280197D03*
X22136215Y-1280197D03*
%TD*%
D48*
%TO.C,DC2*%
X76882659Y-45553251D03*
X73654771Y-44867143D03*
%TD*%
%TO.C,DB4*%
X104722659Y-31943251D03*
X101494771Y-31257143D03*
%TD*%
%TO.C,DB3*%
X86092659Y-28023251D03*
X82864771Y-27337143D03*
%TD*%
%TO.C,DD3*%
X97942659Y-69473251D03*
X94714771Y-68787143D03*
%TD*%
D46*
%TO.C,DA9*%
X207882659Y-6307143D03*
X204654771Y-6993251D03*
%TD*%
D45*
%TO.C,DD0*%
X30126215Y-63190197D03*
X26826215Y-63190197D03*
%TD*%
D46*
%TO.C,DD7*%
X181306603Y-74724089D03*
X178078715Y-75410197D03*
%TD*%
D48*
%TO.C,DB5*%
X123352659Y-35903251D03*
X120124771Y-35217143D03*
%TD*%
D46*
%TO.C,DF5*%
X234112659Y-102467143D03*
X230884771Y-103153251D03*
%TD*%
D48*
%TO.C,DE3*%
X100292659Y-89453251D03*
X97064771Y-88767143D03*
%TD*%
%TO.C,DE5*%
X137572659Y-97333251D03*
X134344771Y-96647143D03*
%TD*%
D45*
%TO.C,DF13*%
X143077697Y-122240000D03*
X139777697Y-122240000D03*
%TD*%
D46*
%TO.C,DB8*%
X193102659Y-33267143D03*
X189874771Y-33953251D03*
%TD*%
D59*
%TO.C,DA6*%
X139166492Y-13104004D03*
X135879050Y-12816390D03*
%TD*%
D58*
%TO.C,C5*%
X160868716Y-31010195D03*
X159908716Y-31010195D03*
%TD*%
D45*
%TO.C,DF1*%
X53968715Y-101280197D03*
X50668715Y-101280197D03*
%TD*%
D56*
%TO.C,C2*%
X157268715Y-47790197D03*
X157268715Y-48750197D03*
%TD*%
D45*
%TO.C,DE13*%
X312768715Y-84590197D03*
X309468715Y-84590197D03*
%TD*%
%TO.C,DA12*%
X269976215Y-1260197D03*
X266676215Y-1260197D03*
%TD*%
D51*
%TO.C,C17*%
X148228715Y-30035197D03*
X149188715Y-30035197D03*
%TD*%
D50*
%TO.C,C3*%
X151888715Y-48750197D03*
X151888715Y-47790197D03*
%TD*%
D45*
%TO.C,DE6*%
X158378715Y-106050197D03*
X155078715Y-106050197D03*
%TD*%
D60*
%TO.C,DA5*%
X129016416Y-12081281D03*
X125741014Y-11679113D03*
%TD*%
D52*
%TO.C,R3*%
X152568715Y-30580197D03*
X152568715Y-31600197D03*
%TD*%
D48*
%TO.C,DC4*%
X114152659Y-53423251D03*
X110924771Y-52737143D03*
%TD*%
%TO.C,DB6*%
X141972659Y-39853251D03*
X138744771Y-39167143D03*
%TD*%
D45*
%TO.C,DD13*%
X310428715Y-63180197D03*
X307128715Y-63180197D03*
%TD*%
D46*
%TO.C,DE7*%
X178922659Y-94697143D03*
X175694771Y-95383251D03*
%TD*%
D61*
%TO.C,DA10*%
X228432657Y-3220561D03*
X225164773Y-3679833D03*
%TD*%
D58*
%TO.C,C15*%
X148250877Y-35736851D03*
X147290877Y-35736851D03*
%TD*%
D62*
%TO.C,U3*%
X153918715Y-40240197D03*
X153918715Y-38965197D03*
X152643715Y-40240197D03*
X152643715Y-38965197D03*
D63*
X156718715Y-37002697D03*
X156718715Y-37402697D03*
X156718715Y-37802697D03*
X156718715Y-38202697D03*
X156718715Y-38602697D03*
X156718715Y-39002697D03*
X156718715Y-39402697D03*
X156718715Y-39802697D03*
X156718715Y-40202697D03*
X156718715Y-40602697D03*
X156718715Y-41002697D03*
X156718715Y-41402697D03*
X156718715Y-41802697D03*
X156718715Y-42202697D03*
D64*
X155881215Y-43040197D03*
X155481215Y-43040197D03*
X155081215Y-43040197D03*
X154681215Y-43040197D03*
X154281215Y-43040197D03*
X153881215Y-43040197D03*
X153481215Y-43040197D03*
X153081215Y-43040197D03*
X152681215Y-43040197D03*
X152281215Y-43040197D03*
X151881215Y-43040197D03*
X151481215Y-43040197D03*
X151081215Y-43040197D03*
X150681215Y-43040197D03*
D63*
X149843715Y-42202697D03*
X149843715Y-41802697D03*
X149843715Y-41402697D03*
X149843715Y-41002697D03*
X149843715Y-40602697D03*
X149843715Y-40202697D03*
X149843715Y-39802697D03*
X149843715Y-39402697D03*
X149843715Y-39002697D03*
X149843715Y-38602697D03*
X149843715Y-38202697D03*
X149843715Y-37802697D03*
X149843715Y-37402697D03*
X149843715Y-37002697D03*
D64*
X150681215Y-36165197D03*
X151081215Y-36165197D03*
X151481215Y-36165197D03*
X151881215Y-36165197D03*
X152281215Y-36165197D03*
X152681215Y-36165197D03*
X153081215Y-36165197D03*
X153481215Y-36165197D03*
X153881215Y-36165197D03*
X154281215Y-36165197D03*
X154681215Y-36165197D03*
X155081215Y-36165197D03*
X155481215Y-36165197D03*
X155881215Y-36165197D03*
%TD*%
D45*
%TO.C,DD1*%
X56368715Y-63170197D03*
X53068715Y-63170197D03*
%TD*%
D51*
%TO.C,C4*%
X154595857Y-31234231D03*
X155555857Y-31234231D03*
%TD*%
D65*
%TO.C,DA11*%
X249147440Y-1545099D03*
X245855478Y-1775295D03*
%TD*%
D66*
%TO.C,Y1*%
X153478715Y-47420197D03*
X155678715Y-47420197D03*
X155678715Y-49120197D03*
X153478715Y-49120197D03*
%TD*%
D46*
%TO.C,DC8*%
X220952659Y-46847143D03*
X217724771Y-47533251D03*
%TD*%
D67*
%TO.C,U2*%
X169718715Y-31005197D03*
X169718715Y-32275197D03*
X169718715Y-33545197D03*
X169718715Y-34815197D03*
X162518715Y-34815197D03*
X162518715Y-33545197D03*
X162518715Y-32275197D03*
X162518715Y-31005197D03*
%TD*%
D50*
%TO.C,C16*%
X149192163Y-34781424D03*
X149192163Y-33821424D03*
%TD*%
D54*
%TO.C,R6*%
X147608715Y-47680197D03*
X147608715Y-46660197D03*
%TD*%
D46*
%TO.C,DC6*%
X183692659Y-54767143D03*
X180464771Y-55453251D03*
%TD*%
D45*
%TO.C,DC12*%
X300918715Y-44110197D03*
X297618715Y-44110197D03*
%TD*%
%TO.C,DB1*%
X44478715Y-25090197D03*
X41178715Y-25090197D03*
%TD*%
D48*
%TO.C,DD4*%
X116572659Y-73423251D03*
X113344771Y-72737143D03*
%TD*%
D45*
%TO.C,DA1*%
X46866215Y-1290197D03*
X43566215Y-1290197D03*
%TD*%
D48*
%TO.C,DF2*%
X82362659Y-105133251D03*
X79134771Y-104447143D03*
%TD*%
D45*
%TO.C,DE0*%
X27798715Y-82240197D03*
X24498715Y-82240197D03*
%TD*%
%TO.C,DF11*%
X331858715Y-1280197D03*
X328558715Y-1280197D03*
%TD*%
D68*
%TO.C,DA3*%
X88252657Y-4999833D03*
X84984773Y-4540561D03*
%TD*%
D46*
%TO.C,DF4*%
X192192659Y-111377143D03*
X188964771Y-112063251D03*
%TD*%
D69*
%TO.C,DA7*%
X168236492Y-12726390D03*
X164949050Y-13014004D03*
%TD*%
D46*
%TO.C,DB10*%
X230402659Y-25327143D03*
X227174771Y-26013251D03*
%TD*%
D48*
%TO.C,DF3*%
X119602659Y-113033251D03*
X116374771Y-112347143D03*
%TD*%
D45*
%TO.C,DF8*%
X312748715Y-103630197D03*
X309448715Y-103630197D03*
%TD*%
D54*
%TO.C,R5*%
X153478715Y-45880197D03*
X153478715Y-44860197D03*
%TD*%
D70*
%TO.C,DA8*%
X187656416Y-10529113D03*
X184381014Y-10931281D03*
%TD*%
D45*
%TO.C,DC1*%
X53988715Y-44120197D03*
X50688715Y-44120197D03*
%TD*%
%TO.C,DF10*%
X312816215Y-1270197D03*
X309516215Y-1270197D03*
%TD*%
D50*
%TO.C,C8*%
X151186203Y-34767282D03*
X151186203Y-33807282D03*
%TD*%
D46*
%TO.C,DE10*%
X234802659Y-82837143D03*
X231574771Y-83523251D03*
%TD*%
M02*
