%TF.GenerationSoftware,KiCad,Pcbnew,7.0.10*%
%TF.CreationDate,2024-04-03T01:03:37+02:00*%
%TF.ProjectId,middle,6d696464-6c65-42e6-9b69-6361645f7063,rev?*%
%TF.SameCoordinates,Original*%
%TF.FileFunction,Soldermask,Bot*%
%TF.FilePolarity,Negative*%
%FSLAX46Y46*%
G04 Gerber Fmt 4.6, Leading zero omitted, Abs format (unit mm)*
G04 Created by KiCad (PCBNEW 7.0.10) date 2024-04-03 01:03:37*
%MOMM*%
%LPD*%
G01*
G04 APERTURE LIST*
G04 Aperture macros list*
%AMRoundRect*
0 Rectangle with rounded corners*
0 $1 Rounding radius*
0 $2 $3 $4 $5 $6 $7 $8 $9 X,Y pos of 4 corners*
0 Add a 4 corners polygon primitive as box body*
4,1,4,$2,$3,$4,$5,$6,$7,$8,$9,$2,$3,0*
0 Add four circle primitives for the rounded corners*
1,1,$1+$1,$2,$3*
1,1,$1+$1,$4,$5*
1,1,$1+$1,$6,$7*
1,1,$1+$1,$8,$9*
0 Add four rect primitives between the rounded corners*
20,1,$1+$1,$2,$3,$4,$5,0*
20,1,$1+$1,$4,$5,$6,$7,0*
20,1,$1+$1,$6,$7,$8,$9,0*
20,1,$1+$1,$8,$9,$2,$3,0*%
%AMRotRect*
0 Rectangle, with rotation*
0 The origin of the aperture is its center*
0 $1 length*
0 $2 width*
0 $3 Rotation angle, in degrees counterclockwise*
0 Add horizontal line*
21,1,$1,$2,0,0,$3*%
G04 Aperture macros list end*
%ADD10C,1.700000*%
%ADD11C,3.000000*%
%ADD12C,4.100000*%
%ADD13R,2.300000X2.000000*%
%ADD14R,1.700000X0.820000*%
%ADD15RoundRect,0.205000X-0.645000X-0.205000X0.645000X-0.205000X0.645000X0.205000X-0.645000X0.205000X0*%
%ADD16RotRect,1.700000X0.820000X12.000000*%
%ADD17RoundRect,0.205000X-0.588283X-0.334623X0.673527X-0.066417X0.588283X0.334623X-0.673527X0.066417X0*%
%ADD18RotRect,1.700000X0.820000X352.000000*%
%ADD19RoundRect,0.205000X-0.667253X-0.113238X0.610192X-0.292772X0.667253X0.113238X-0.610192X0.292772X0*%
%ADD20RotRect,1.700000X0.820000X8.000000*%
%ADD21RoundRect,0.205000X-0.610192X-0.292772X0.667253X-0.113238X0.610192X0.292772X-0.667253X0.113238X0*%
%ADD22RotRect,1.700000X0.820000X348.000000*%
%ADD23RoundRect,0.205000X-0.673527X-0.066417X0.588283X-0.334623X0.673527X0.066417X-0.588283X0.334623X0*%
%ADD24RotRect,1.700000X0.820000X353.000000*%
%ADD25RoundRect,0.205000X-0.665175X-0.124866X0.615209X-0.282078X0.665175X0.124866X-0.615209X0.282078X0*%
%ADD26RotRect,2.300000X2.000000X168.000000*%
%ADD27RotRect,2.300000X2.000000X192.000000*%
%ADD28RotRect,1.700000X0.820000X4.000000*%
%ADD29RoundRect,0.205000X-0.629129X-0.249494X0.657729X-0.159508X0.629129X0.249494X-0.657729X0.159508X0*%
%ADD30RotRect,2.300000X2.000000X176.000000*%
%ADD31C,3.050000*%
%ADD32C,4.000000*%
%ADD33C,3.800000*%
%ADD34C,1.524000*%
%ADD35C,1.900000*%
%ADD36RotRect,2.300000X2.000000X184.000000*%
%ADD37RotRect,2.300000X2.000000X172.000000*%
%ADD38RotRect,2.300000X2.000000X188.000000*%
%ADD39C,2.000000*%
%ADD40R,1.800000X3.200000*%
%ADD41RotRect,2.300000X2.000000X173.000000*%
%ADD42RotRect,2.300000X2.000000X187.000000*%
%ADD43RotRect,1.700000X0.820000X7.000000*%
%ADD44RoundRect,0.205000X-0.615209X-0.282078X0.665175X-0.124866X0.615209X0.282078X-0.665175X0.124866X0*%
%ADD45R,0.820000X1.700000*%
%ADD46RoundRect,0.205000X-0.205000X0.645000X-0.205000X-0.645000X0.205000X-0.645000X0.205000X0.645000X0*%
%ADD47RotRect,2.300000X2.000000X175.000000*%
%ADD48RotRect,1.700000X0.820000X5.000000*%
%ADD49RoundRect,0.205000X-0.624679X-0.260435X0.660413X-0.148004X0.624679X0.260435X-0.660413X0.148004X0*%
%ADD50RotRect,2.300000X2.000000X185.000000*%
%ADD51RotRect,1.700000X0.820000X356.000000*%
%ADD52RoundRect,0.205000X-0.657729X-0.159508X0.629129X-0.249494X0.657729X0.159508X-0.629129X0.249494X0*%
%ADD53RotRect,1.700000X0.820000X355.000000*%
%ADD54RoundRect,0.205000X-0.660413X-0.148004X0.624679X-0.260435X0.660413X0.148004X-0.624679X0.260435X0*%
%ADD55RoundRect,0.225000X0.225000X0.375000X-0.225000X0.375000X-0.225000X-0.375000X0.225000X-0.375000X0*%
%ADD56RoundRect,0.225000X0.142116X0.413585X-0.298050X0.320025X-0.142116X-0.413585X0.298050X-0.320025X0*%
%ADD57RoundRect,0.225000X0.375000X-0.225000X0.375000X0.225000X-0.375000X0.225000X-0.375000X-0.225000X0*%
%ADD58RoundRect,0.225000X0.298050X0.320025X-0.142116X0.413585X-0.298050X-0.320025X0.142116X-0.413585X0*%
%ADD59RoundRect,0.150000X0.150000X-0.587500X0.150000X0.587500X-0.150000X0.587500X-0.150000X-0.587500X0*%
%ADD60RoundRect,0.140000X0.170000X-0.140000X0.170000X0.140000X-0.170000X0.140000X-0.170000X-0.140000X0*%
%ADD61RoundRect,0.140000X-0.140000X-0.170000X0.140000X-0.170000X0.140000X0.170000X-0.140000X0.170000X0*%
%ADD62RoundRect,0.135000X-0.185000X0.135000X-0.185000X-0.135000X0.185000X-0.135000X0.185000X0.135000X0*%
%ADD63RoundRect,0.250000X-0.625000X0.375000X-0.625000X-0.375000X0.625000X-0.375000X0.625000X0.375000X0*%
%ADD64RoundRect,0.135000X0.185000X-0.135000X0.185000X0.135000X-0.185000X0.135000X-0.185000X-0.135000X0*%
%ADD65RoundRect,0.225000X0.250611X0.358391X-0.198293X0.389782X-0.250611X-0.358391X0.198293X-0.389782X0*%
%ADD66RoundRect,0.140000X-0.170000X0.140000X-0.170000X-0.140000X0.170000X-0.140000X0.170000X0.140000X0*%
%ADD67RoundRect,0.150000X0.150000X-0.512500X0.150000X0.512500X-0.150000X0.512500X-0.150000X-0.512500X0*%
%ADD68RoundRect,0.140000X0.140000X0.170000X-0.140000X0.170000X-0.140000X-0.170000X0.140000X-0.170000X0*%
%ADD69RoundRect,0.225000X0.256827X0.353963X-0.191460X0.393183X-0.256827X-0.353963X0.191460X-0.393183X0*%
%ADD70RoundRect,0.225000X0.269024X0.344784X-0.177622X0.399625X-0.269024X-0.344784X0.177622X-0.399625X0*%
%ADD71RoundRect,0.225000X0.170620X0.402664X-0.275000X0.340037X-0.170620X-0.402664X0.275000X-0.340037X0*%
%ADD72RoundRect,0.050000X0.387500X0.050000X-0.387500X0.050000X-0.387500X-0.050000X0.387500X-0.050000X0*%
%ADD73RoundRect,0.050000X0.050000X0.387500X-0.050000X0.387500X-0.050000X-0.387500X0.050000X-0.387500X0*%
%ADD74RoundRect,0.144000X1.456000X1.456000X-1.456000X1.456000X-1.456000X-1.456000X1.456000X-1.456000X0*%
%ADD75RoundRect,0.225000X0.198293X0.389782X-0.250611X0.358391X-0.198293X-0.389782X0.250611X-0.358391X0*%
%ADD76R,1.400000X1.200000*%
%ADD77RoundRect,0.150000X0.650000X0.150000X-0.650000X0.150000X-0.650000X-0.150000X0.650000X-0.150000X0*%
%ADD78RoundRect,0.225000X0.275000X0.340037X-0.170620X0.402664X-0.275000X-0.340037X0.170620X-0.402664X0*%
%ADD79RoundRect,0.225000X0.191460X0.393183X-0.256827X0.353963X-0.191460X-0.393183X0.256827X-0.353963X0*%
%ADD80RoundRect,0.225000X0.177622X0.399625X-0.269024X0.344784X-0.177622X-0.399625X0.269024X-0.344784X0*%
%ADD81C,0.650000*%
%ADD82O,1.108000X2.216000*%
G04 APERTURE END LIST*
%TO.C,G\u002A\u002A\u002A*%
G36*
X156381965Y-72402185D02*
G01*
X156362664Y-72440597D01*
X156325035Y-72502904D01*
X156281429Y-72566328D01*
X156232608Y-72635132D01*
X156182410Y-72717652D01*
X156154453Y-72784431D01*
X156145790Y-72841451D01*
X156140074Y-72878458D01*
X156116316Y-72909840D01*
X156066063Y-72944039D01*
X156016573Y-72976569D01*
X155948647Y-73026778D01*
X155883161Y-73079955D01*
X155808109Y-73141650D01*
X155698610Y-73221836D01*
X155597958Y-73284169D01*
X155514057Y-73323435D01*
X155433275Y-73344519D01*
X155334457Y-73343539D01*
X155241068Y-73308487D01*
X155166023Y-73266310D01*
X155176307Y-73166661D01*
X155188314Y-73097008D01*
X155236228Y-72961258D01*
X155313493Y-72825709D01*
X155415758Y-72697367D01*
X155538670Y-72583243D01*
X155662867Y-72496803D01*
X155844855Y-72408539D01*
X156039855Y-72355421D01*
X156247235Y-72337666D01*
X156408923Y-72337666D01*
X156381965Y-72402185D01*
G37*
G36*
X154668568Y-72111865D02*
G01*
X154672795Y-72114192D01*
X154762120Y-72171208D01*
X154815143Y-72223508D01*
X154832644Y-72271853D01*
X154832112Y-72280194D01*
X154820284Y-72303607D01*
X154787078Y-72323721D01*
X154724778Y-72345828D01*
X154699189Y-72353950D01*
X154641338Y-72373965D01*
X154590117Y-72395701D01*
X154538185Y-72423299D01*
X154478197Y-72460897D01*
X154402812Y-72512634D01*
X154304686Y-72582651D01*
X154229048Y-72636227D01*
X154162423Y-72680532D01*
X154116845Y-72706108D01*
X154087779Y-72715441D01*
X154070689Y-72711020D01*
X154069527Y-72710087D01*
X154047497Y-72704024D01*
X154016206Y-72719157D01*
X153968004Y-72759067D01*
X153900178Y-72815641D01*
X153782181Y-72897933D01*
X153660692Y-72966137D01*
X153548792Y-73012349D01*
X153435954Y-73039753D01*
X153315593Y-73044481D01*
X153211553Y-73017471D01*
X153121321Y-72958403D01*
X153090560Y-72929667D01*
X153073779Y-72903327D01*
X153074073Y-72870457D01*
X153087970Y-72816261D01*
X153088510Y-72814350D01*
X153129344Y-72714785D01*
X153193201Y-72608989D01*
X153271178Y-72509860D01*
X153354371Y-72430301D01*
X153407395Y-72390535D01*
X153510825Y-72325219D01*
X153624743Y-72269861D01*
X153754553Y-72222623D01*
X153905660Y-72181671D01*
X154083469Y-72145167D01*
X154293384Y-72111276D01*
X154588910Y-72068205D01*
X154668568Y-72111865D01*
G37*
G36*
X158240605Y-72606746D02*
G01*
X158260474Y-72649600D01*
X158276231Y-72718108D01*
X158288108Y-72814620D01*
X158296341Y-72941484D01*
X158301163Y-73101052D01*
X158302809Y-73295672D01*
X158302880Y-73344264D01*
X158303808Y-73490470D01*
X158306001Y-73605706D01*
X158309730Y-73695046D01*
X158315265Y-73763567D01*
X158322878Y-73816343D01*
X158332840Y-73858449D01*
X158352459Y-73921441D01*
X158378980Y-73984993D01*
X158408705Y-74022462D01*
X158447409Y-74040250D01*
X158500863Y-74044756D01*
X158535471Y-74045070D01*
X158568754Y-74049644D01*
X158578392Y-74064666D01*
X158573077Y-74096344D01*
X158540219Y-74192644D01*
X158466711Y-74317256D01*
X158357815Y-74441674D01*
X158212839Y-74566656D01*
X158031093Y-74692965D01*
X157958395Y-74738952D01*
X157897426Y-74777186D01*
X157855357Y-74803186D01*
X157838556Y-74812983D01*
X157829866Y-74810120D01*
X157801038Y-74795134D01*
X157765553Y-74777730D01*
X157714969Y-74757355D01*
X157704288Y-74753301D01*
X157674282Y-74733069D01*
X157674521Y-74705759D01*
X157686929Y-74671523D01*
X157715466Y-74570184D01*
X157743760Y-74440777D01*
X157770599Y-74289828D01*
X157794770Y-74123867D01*
X157815059Y-73949419D01*
X157826683Y-73840804D01*
X157862292Y-73565757D01*
X157903026Y-73327472D01*
X157948858Y-73126089D01*
X157999763Y-72961744D01*
X158019598Y-72911948D01*
X158057503Y-72831054D01*
X158099800Y-72753322D01*
X158142506Y-72684951D01*
X158181642Y-72632142D01*
X158213227Y-72601094D01*
X158233281Y-72598008D01*
X158240605Y-72606746D01*
G37*
G36*
X157528088Y-72369292D02*
G01*
X157517869Y-72405205D01*
X157495154Y-72467309D01*
X157462152Y-72550412D01*
X157421073Y-72649321D01*
X157374127Y-72758842D01*
X157323522Y-72873783D01*
X157271470Y-72988952D01*
X157220178Y-73099154D01*
X157171858Y-73199199D01*
X157134359Y-73273456D01*
X156985115Y-73540940D01*
X156827266Y-73782223D01*
X156664427Y-73991659D01*
X156634940Y-74025108D01*
X156555962Y-74108344D01*
X156468126Y-74194174D01*
X156379783Y-74274858D01*
X156299286Y-74342651D01*
X156234983Y-74389813D01*
X156219309Y-74397313D01*
X156167599Y-74416196D01*
X156087980Y-74442040D01*
X155985667Y-74473343D01*
X155865872Y-74508602D01*
X155733811Y-74546316D01*
X155594695Y-74584983D01*
X155453741Y-74623101D01*
X155316160Y-74659167D01*
X155187168Y-74691679D01*
X155092581Y-74714307D01*
X154992945Y-74736288D01*
X154891215Y-74756352D01*
X154778605Y-74776122D01*
X154646328Y-74797220D01*
X154485598Y-74821269D01*
X154478252Y-74822239D01*
X154410686Y-74826512D01*
X154316185Y-74827420D01*
X154203761Y-74825372D01*
X154082430Y-74820776D01*
X153961207Y-74814042D01*
X153849106Y-74805579D01*
X153755143Y-74795795D01*
X153688331Y-74785100D01*
X153533115Y-74739847D01*
X153372751Y-74672083D01*
X153220611Y-74588006D01*
X153086460Y-74493026D01*
X152980062Y-74392556D01*
X152921362Y-74314660D01*
X152890226Y-74239058D01*
X152894595Y-74171577D01*
X152934720Y-74109421D01*
X153010851Y-74049798D01*
X153061506Y-74016934D01*
X153130198Y-73966708D01*
X153191349Y-73912053D01*
X153254503Y-73844103D01*
X153329203Y-73753988D01*
X153350030Y-73728197D01*
X153415855Y-73650058D01*
X153469700Y-73594417D01*
X153519231Y-73554896D01*
X153572112Y-73525119D01*
X153636007Y-73498709D01*
X153674036Y-73483099D01*
X153732000Y-73450319D01*
X153788236Y-73403446D01*
X153854044Y-73333939D01*
X153882937Y-73302323D01*
X153955347Y-73232976D01*
X154031174Y-73177763D01*
X154118868Y-73131970D01*
X154226881Y-73090886D01*
X154363663Y-73049800D01*
X154397024Y-73040414D01*
X154497467Y-73009111D01*
X154578044Y-72977022D01*
X154652081Y-72938271D01*
X154732904Y-72886980D01*
X154775454Y-72859158D01*
X154836844Y-72821884D01*
X154882784Y-72797609D01*
X154905633Y-72790596D01*
X154906553Y-72791393D01*
X154899444Y-72811745D01*
X154872927Y-72854549D01*
X154830759Y-72914142D01*
X154776700Y-72984860D01*
X154723815Y-73053022D01*
X154581876Y-73246293D01*
X154441760Y-73450700D01*
X154315224Y-73649317D01*
X154280424Y-73709290D01*
X154255813Y-73764602D01*
X154244514Y-73817517D01*
X154241780Y-73883153D01*
X154241728Y-73996549D01*
X154382422Y-74029465D01*
X154521338Y-74060696D01*
X154663428Y-74088332D01*
X154793610Y-74107327D01*
X154924210Y-74119083D01*
X155067554Y-74125000D01*
X155235967Y-74126479D01*
X155333481Y-74126002D01*
X155451559Y-74123822D01*
X155546602Y-74119294D01*
X155627229Y-74111761D01*
X155702058Y-74100568D01*
X155779710Y-74085057D01*
X155806390Y-74079035D01*
X156017555Y-74015160D01*
X156199322Y-73928680D01*
X156352534Y-73819112D01*
X156478039Y-73685973D01*
X156484654Y-73677149D01*
X156521876Y-73623067D01*
X156572580Y-73544699D01*
X156632608Y-73448676D01*
X156697799Y-73341627D01*
X156763994Y-73230181D01*
X156818981Y-73137059D01*
X156921787Y-72967745D01*
X157011363Y-72827795D01*
X157089811Y-72714238D01*
X157159235Y-72624103D01*
X157221738Y-72554420D01*
X157279424Y-72502217D01*
X157336718Y-72459683D01*
X157401641Y-72417210D01*
X157460423Y-72383922D01*
X157505120Y-72364281D01*
X157527789Y-72362747D01*
X157528088Y-72369292D01*
G37*
G36*
X157730277Y-70552208D02*
G01*
X157720923Y-70637673D01*
X157707187Y-70745083D01*
X157690693Y-70862247D01*
X157673063Y-70976972D01*
X157650433Y-71127100D01*
X157635821Y-71252171D01*
X157630010Y-71352939D01*
X157631303Y-71389719D01*
X157632914Y-71435564D01*
X157644443Y-71506207D01*
X157664508Y-71571027D01*
X157678879Y-71615348D01*
X157687220Y-71680690D01*
X157672884Y-71722588D01*
X157636489Y-71737371D01*
X157624284Y-71738192D01*
X157609010Y-71745216D01*
X157607556Y-71752830D01*
X157597623Y-71782735D01*
X157596986Y-71804378D01*
X157625102Y-71812408D01*
X157656499Y-71823060D01*
X157689159Y-71858514D01*
X157702806Y-71904779D01*
X157691167Y-71928632D01*
X157649100Y-71964028D01*
X157582460Y-72003719D01*
X157497690Y-72044870D01*
X157401236Y-72084643D01*
X157299541Y-72120204D01*
X157199048Y-72148717D01*
X157106201Y-72167345D01*
X157060384Y-72173972D01*
X157006703Y-72181467D01*
X156976638Y-72185305D01*
X156962891Y-72184107D01*
X156917301Y-72175698D01*
X156850114Y-72160986D01*
X156770286Y-72141856D01*
X156693366Y-72123726D01*
X156607224Y-72106330D01*
X156516904Y-72091692D01*
X156417644Y-72079380D01*
X156304680Y-72068962D01*
X156173249Y-72060007D01*
X156018589Y-72052082D01*
X155835938Y-72044756D01*
X155620531Y-72037597D01*
X155486821Y-72033246D01*
X155273429Y-72025132D01*
X155091913Y-72016446D01*
X154938648Y-72006949D01*
X154810006Y-71996404D01*
X154702363Y-71984572D01*
X154612091Y-71971213D01*
X154579701Y-71967410D01*
X154550900Y-71976149D01*
X154532829Y-72008505D01*
X154516276Y-72040730D01*
X154487530Y-72054714D01*
X154443135Y-72037527D01*
X154411556Y-72021796D01*
X154361878Y-72001577D01*
X154353523Y-71998340D01*
X154326235Y-71979042D01*
X154307779Y-71943040D01*
X154292230Y-71879988D01*
X154278944Y-71827741D01*
X154253867Y-71746748D01*
X154221605Y-71652802D01*
X154185927Y-71557345D01*
X154130237Y-71405124D01*
X154043059Y-71107276D01*
X153978448Y-70790030D01*
X153949168Y-70627598D01*
X153917078Y-70487371D01*
X153881485Y-70372788D01*
X153840136Y-70277763D01*
X153790779Y-70196210D01*
X153731161Y-70122045D01*
X153719367Y-70109295D01*
X153679511Y-70075389D01*
X154590655Y-70075389D01*
X154591941Y-70213253D01*
X154596727Y-70354914D01*
X154604871Y-70490948D01*
X154616233Y-70611932D01*
X154617252Y-70620547D01*
X154637731Y-70773704D01*
X154665132Y-70951145D01*
X154697517Y-71141452D01*
X154732948Y-71333205D01*
X154769486Y-71514984D01*
X154799703Y-71658402D01*
X154858258Y-71641609D01*
X154865753Y-71639624D01*
X154938700Y-71629153D01*
X155036665Y-71625477D01*
X155149247Y-71628371D01*
X155266046Y-71637606D01*
X155376661Y-71652954D01*
X155387342Y-71654791D01*
X155481626Y-71668090D01*
X155577702Y-71677494D01*
X155656320Y-71681067D01*
X155776526Y-71681093D01*
X156183308Y-71681093D01*
X156183308Y-71693137D01*
X156553803Y-71715403D01*
X156644787Y-71720749D01*
X156802445Y-71729187D01*
X156926818Y-71734466D01*
X157020647Y-71736629D01*
X157086673Y-71735721D01*
X157127638Y-71731785D01*
X157146282Y-71724865D01*
X157149590Y-71710031D01*
X157153258Y-71662671D01*
X157156172Y-71589251D01*
X157158095Y-71496142D01*
X157158789Y-71389719D01*
X157158789Y-71067080D01*
X157032164Y-71057094D01*
X156969705Y-71048730D01*
X156878805Y-71031060D01*
X156776153Y-71007094D01*
X156674238Y-70979537D01*
X156615596Y-70962894D01*
X156496366Y-70933475D01*
X156398547Y-70917061D01*
X156313123Y-70911965D01*
X156183308Y-70911965D01*
X156183308Y-71302551D01*
X156183308Y-71681093D01*
X155776526Y-71681093D01*
X155764423Y-71346956D01*
X155761075Y-71254920D01*
X155756159Y-71135180D01*
X155750650Y-71045220D01*
X155743245Y-70980297D01*
X155732642Y-70935667D01*
X155717540Y-70906587D01*
X155696637Y-70888313D01*
X155668632Y-70876102D01*
X155632223Y-70865211D01*
X155580695Y-70853860D01*
X155499158Y-70841011D01*
X155402291Y-70829177D01*
X155301625Y-70819938D01*
X155247329Y-70815516D01*
X155125695Y-70802232D01*
X155036881Y-70786869D01*
X154982449Y-70769747D01*
X154963958Y-70751182D01*
X154963974Y-70750285D01*
X154980027Y-70713472D01*
X155020269Y-70668075D01*
X155075853Y-70622531D01*
X155137934Y-70585274D01*
X155149574Y-70579809D01*
X155250850Y-70542194D01*
X155370556Y-70510511D01*
X155491955Y-70488578D01*
X155598309Y-70480215D01*
X155628900Y-70479984D01*
X155675936Y-70476630D01*
X155706849Y-70464622D01*
X155724357Y-70438203D01*
X155730012Y-70399593D01*
X156187251Y-70399593D01*
X156192688Y-70564919D01*
X156361521Y-70576504D01*
X156399076Y-70579058D01*
X156590348Y-70591183D01*
X156748061Y-70599374D01*
X156875399Y-70603655D01*
X156975548Y-70604050D01*
X157051694Y-70600580D01*
X157107023Y-70593269D01*
X157144719Y-70582140D01*
X157215066Y-70551526D01*
X157214487Y-70389390D01*
X157214485Y-70388764D01*
X157211956Y-70292298D01*
X157205709Y-70193298D01*
X157196662Y-70099772D01*
X157185736Y-70019728D01*
X157173852Y-69961176D01*
X157161931Y-69932123D01*
X157155877Y-69928730D01*
X157118957Y-69915748D01*
X157055401Y-69897007D01*
X156972065Y-69874470D01*
X156875803Y-69850102D01*
X156837304Y-69840941D01*
X156706157Y-69813795D01*
X156582364Y-69794027D01*
X156471696Y-69782133D01*
X156379922Y-69778607D01*
X156312810Y-69783945D01*
X156276130Y-69798641D01*
X156268137Y-69811328D01*
X156251847Y-69859866D01*
X156235157Y-69933616D01*
X156219254Y-70024550D01*
X156205325Y-70124641D01*
X156194556Y-70225864D01*
X156188136Y-70320190D01*
X156187251Y-70399593D01*
X155730012Y-70399593D01*
X155731180Y-70391618D01*
X155730038Y-70319111D01*
X155723648Y-70214926D01*
X155719311Y-70148907D01*
X155712687Y-70040926D01*
X155708811Y-69960565D01*
X155707619Y-69901287D01*
X155709050Y-69856553D01*
X155713041Y-69819826D01*
X155719529Y-69784568D01*
X155733719Y-69717067D01*
X155494223Y-69695326D01*
X155350754Y-69684385D01*
X155168406Y-69676597D01*
X155000728Y-69676342D01*
X154855085Y-69683592D01*
X154738848Y-69698317D01*
X154616913Y-69721028D01*
X154604234Y-69805307D01*
X154599139Y-69848745D01*
X154593007Y-69950746D01*
X154590655Y-70075389D01*
X153679511Y-70075389D01*
X153628767Y-70032221D01*
X153533866Y-69989750D01*
X153429286Y-69979339D01*
X153395903Y-69979871D01*
X153346516Y-69976724D01*
X153321063Y-69969406D01*
X153315907Y-69954395D01*
X153322331Y-69911736D01*
X153342959Y-69855012D01*
X153373696Y-69794678D01*
X153410447Y-69741191D01*
X153429949Y-69720548D01*
X153483206Y-69673727D01*
X153552588Y-69619747D01*
X153628113Y-69566615D01*
X153673062Y-69536341D01*
X153746205Y-69485502D01*
X153807721Y-69440877D01*
X153847684Y-69409566D01*
X153877315Y-69388648D01*
X153956074Y-69351095D01*
X154058599Y-69316391D01*
X154175976Y-69286385D01*
X154299291Y-69262926D01*
X154419629Y-69247861D01*
X154528076Y-69243040D01*
X154615717Y-69250311D01*
X154635771Y-69255716D01*
X154697158Y-69284830D01*
X154754946Y-69326637D01*
X154825084Y-69390002D01*
X155668339Y-69398116D01*
X155818043Y-69399602D01*
X155995237Y-69401594D01*
X156141627Y-69403686D01*
X156261105Y-69406068D01*
X156357566Y-69408928D01*
X156434905Y-69412454D01*
X156497015Y-69416835D01*
X156547791Y-69422261D01*
X156591125Y-69428918D01*
X156630913Y-69436997D01*
X156671048Y-69446686D01*
X156711318Y-69456160D01*
X156783474Y-69469525D01*
X156867660Y-69480461D01*
X156970249Y-69489605D01*
X157097612Y-69497593D01*
X157256121Y-69505060D01*
X157261030Y-69505268D01*
X157405427Y-69512580D01*
X157541696Y-69521648D01*
X157662491Y-69531853D01*
X157760467Y-69542578D01*
X157828277Y-69553204D01*
X157829678Y-69553495D01*
X157910076Y-69574389D01*
X157995605Y-69603344D01*
X158078011Y-69636731D01*
X158149041Y-69670919D01*
X158200440Y-69702281D01*
X158223956Y-69727187D01*
X158224148Y-69727941D01*
X158213983Y-69752647D01*
X158182698Y-69793510D01*
X158136703Y-69842089D01*
X158088037Y-69894071D01*
X158049072Y-69944938D01*
X158029717Y-69982186D01*
X158001901Y-70026817D01*
X157939947Y-70065100D01*
X157921473Y-70073938D01*
X157867428Y-70105725D01*
X157830271Y-70135972D01*
X157823981Y-70143881D01*
X157794479Y-70203393D01*
X157768233Y-70292876D01*
X157746778Y-70406087D01*
X157731651Y-70536780D01*
X157730338Y-70551526D01*
X157730277Y-70552208D01*
G37*
G36*
X149815466Y-71609083D02*
G01*
X149898966Y-71653183D01*
X150005255Y-71709064D01*
X150083034Y-71756676D01*
X150137243Y-71800249D01*
X150173659Y-71844429D01*
X150198057Y-71893864D01*
X150202757Y-71907446D01*
X150205837Y-71930535D01*
X150198193Y-71955614D01*
X150176106Y-71989044D01*
X150135856Y-72037182D01*
X150073722Y-72106386D01*
X150039911Y-72142984D01*
X149955416Y-72226480D01*
X149881447Y-72284817D01*
X149811099Y-72322907D01*
X149737465Y-72345667D01*
X149696841Y-72349677D01*
X149664896Y-72335526D01*
X149627659Y-72296368D01*
X149605717Y-72268564D01*
X149560407Y-72206068D01*
X149517151Y-72141325D01*
X149492820Y-72104016D01*
X149456930Y-72057687D01*
X149419184Y-72026824D01*
X149372502Y-72009221D01*
X149309805Y-72002675D01*
X149224013Y-72004981D01*
X149108047Y-72013934D01*
X149097409Y-72014868D01*
X148997219Y-72024920D01*
X148904876Y-72036235D01*
X148830238Y-72047496D01*
X148783163Y-72057383D01*
X148708497Y-72079185D01*
X148764403Y-72123931D01*
X148806406Y-72152640D01*
X148883078Y-72196449D01*
X148981462Y-72247139D01*
X149094253Y-72301226D01*
X149214147Y-72355226D01*
X149333839Y-72405656D01*
X149446026Y-72449032D01*
X149642448Y-72515670D01*
X149937572Y-72596321D01*
X150221253Y-72650108D01*
X150489376Y-72676311D01*
X150737829Y-72674215D01*
X150826339Y-72669529D01*
X150919186Y-72667632D01*
X150996469Y-72669168D01*
X151047292Y-72674140D01*
X151127695Y-72689981D01*
X151053685Y-72692036D01*
X151053229Y-72692050D01*
X151014648Y-72695764D01*
X150944856Y-72704939D01*
X150849499Y-72718735D01*
X150734223Y-72736312D01*
X150604675Y-72756829D01*
X150466500Y-72779445D01*
X149953325Y-72864799D01*
X149892057Y-72826933D01*
X149886595Y-72823572D01*
X149847353Y-72802448D01*
X149823316Y-72801479D01*
X149800338Y-72819519D01*
X149792480Y-72826642D01*
X149775061Y-72835634D01*
X149748846Y-72837911D01*
X149706926Y-72832904D01*
X149642396Y-72820043D01*
X149548348Y-72798760D01*
X149461352Y-72778508D01*
X149382442Y-72759864D01*
X149322863Y-72745491D01*
X149291234Y-72737444D01*
X149284784Y-72735755D01*
X149263882Y-72738276D01*
X149266029Y-72766993D01*
X149269363Y-72779814D01*
X149270644Y-72794324D01*
X149262347Y-72801909D01*
X149239045Y-72802407D01*
X149195311Y-72795655D01*
X149125719Y-72781490D01*
X149024842Y-72759749D01*
X148941910Y-72742207D01*
X148866158Y-72726965D01*
X148810550Y-72716646D01*
X148783328Y-72712851D01*
X148771718Y-72718844D01*
X148748101Y-72750761D01*
X148724240Y-72799433D01*
X148705782Y-72852563D01*
X148698375Y-72897853D01*
X148698892Y-72903805D01*
X148720106Y-72931715D01*
X148775096Y-72955009D01*
X148825919Y-72968976D01*
X148882146Y-72981249D01*
X148946087Y-72991586D01*
X149021998Y-73000333D01*
X149114139Y-73007832D01*
X149226765Y-73014429D01*
X149364134Y-73020469D01*
X149530504Y-73026294D01*
X149730133Y-73032250D01*
X149747974Y-73032756D01*
X149956160Y-73039132D01*
X150129619Y-73045490D01*
X150270943Y-73052013D01*
X150382719Y-73058889D01*
X150467537Y-73066301D01*
X150527986Y-73074437D01*
X150566657Y-73083482D01*
X150586137Y-73093621D01*
X150589748Y-73107217D01*
X150576425Y-73144546D01*
X150544893Y-73194402D01*
X150501015Y-73249003D01*
X150450651Y-73300561D01*
X150399665Y-73341291D01*
X150396293Y-73343519D01*
X150281434Y-73408953D01*
X150162663Y-73453974D01*
X150029341Y-73481679D01*
X149870827Y-73495164D01*
X149832376Y-73496651D01*
X149740184Y-73497996D01*
X149669169Y-73494011D01*
X149607299Y-73483616D01*
X149542540Y-73465732D01*
X149521822Y-73459266D01*
X149468136Y-73443220D01*
X149444254Y-73438521D01*
X149445577Y-73444961D01*
X149467503Y-73462331D01*
X149499611Y-73487699D01*
X149558202Y-73536248D01*
X149636668Y-73602600D01*
X149730668Y-73683040D01*
X149835864Y-73773853D01*
X149947920Y-73871327D01*
X150062495Y-73971745D01*
X150065935Y-73974770D01*
X150278380Y-74150771D01*
X150442579Y-74268402D01*
X150479442Y-74294810D01*
X150672953Y-74409156D01*
X150862747Y-74496077D01*
X151052659Y-74557843D01*
X151089160Y-74567507D01*
X151152534Y-74585749D01*
X151185144Y-74598620D01*
X151191120Y-74608096D01*
X151174594Y-74616152D01*
X151157489Y-74623372D01*
X151109618Y-74653787D01*
X151059787Y-74695414D01*
X151026584Y-74724206D01*
X150948338Y-74768781D01*
X150862553Y-74784694D01*
X150765394Y-74771678D01*
X150653025Y-74729463D01*
X150521612Y-74657782D01*
X150475088Y-74629643D01*
X150395333Y-74582804D01*
X150341616Y-74554137D01*
X150310255Y-74542039D01*
X150297571Y-74544906D01*
X150299884Y-74561133D01*
X150301943Y-74577424D01*
X150282804Y-74601028D01*
X150268369Y-74600799D01*
X150228416Y-74577087D01*
X150173944Y-74525281D01*
X150133104Y-74485750D01*
X150088346Y-74451792D01*
X150057108Y-74438751D01*
X150051436Y-74439078D01*
X150043309Y-74447777D01*
X150060447Y-74471148D01*
X150105317Y-74512988D01*
X150142193Y-74547995D01*
X150165785Y-74576668D01*
X150165660Y-74587974D01*
X150153950Y-74584510D01*
X150118731Y-74561228D01*
X150075928Y-74523117D01*
X150052815Y-74501219D01*
X150013784Y-74469803D01*
X149989151Y-74457459D01*
X149968125Y-74465811D01*
X149925449Y-74491682D01*
X149872532Y-74528972D01*
X149845480Y-74548926D01*
X149695234Y-74649271D01*
X149531103Y-74741178D01*
X149348368Y-74826700D01*
X149142312Y-74907895D01*
X148908217Y-74986818D01*
X148641367Y-75065525D01*
X148627400Y-75069408D01*
X148540136Y-75093419D01*
X148467108Y-75113099D01*
X148415610Y-75126506D01*
X148392935Y-75131696D01*
X148386719Y-75131508D01*
X148345692Y-75119555D01*
X148290886Y-75094664D01*
X148236065Y-75063671D01*
X148194996Y-75033410D01*
X148168412Y-75006407D01*
X148131997Y-74957805D01*
X148103846Y-74900143D01*
X148083439Y-74829399D01*
X148070255Y-74741545D01*
X148063775Y-74632559D01*
X148063478Y-74498415D01*
X148068844Y-74335087D01*
X148079353Y-74138553D01*
X148085509Y-74027426D01*
X148092071Y-73858053D01*
X148092783Y-73754025D01*
X148612689Y-73754025D01*
X148613338Y-73877348D01*
X148619184Y-74001695D01*
X148629889Y-74119391D01*
X148645118Y-74222759D01*
X148664531Y-74304125D01*
X148687793Y-74355812D01*
X148690809Y-74359512D01*
X148708190Y-74371486D01*
X148738959Y-74380006D01*
X148789149Y-74385854D01*
X148864792Y-74389814D01*
X148971920Y-74392667D01*
X148995367Y-74393110D01*
X149094292Y-74394154D01*
X149182123Y-74393840D01*
X149250057Y-74392255D01*
X149289291Y-74389489D01*
X149335977Y-74382142D01*
X149453675Y-74361624D01*
X149568805Y-74339101D01*
X149669828Y-74316903D01*
X149745204Y-74297363D01*
X149842728Y-74268402D01*
X149802336Y-74213769D01*
X149772941Y-74178225D01*
X149739224Y-74150786D01*
X149718241Y-74151129D01*
X149714230Y-74180838D01*
X149713667Y-74207929D01*
X149701493Y-74226815D01*
X149697723Y-74225998D01*
X149688606Y-74203098D01*
X149686610Y-74158241D01*
X149689986Y-74085821D01*
X149576683Y-74065863D01*
X149562414Y-74063230D01*
X149498041Y-74047382D01*
X149436976Y-74023769D01*
X149374461Y-73989061D01*
X149305734Y-73939928D01*
X149226035Y-73873039D01*
X149130604Y-73785063D01*
X149014681Y-73672670D01*
X148993558Y-73651919D01*
X148910262Y-73570752D01*
X148835839Y-73499246D01*
X148774724Y-73441598D01*
X148731353Y-73402002D01*
X148710161Y-73384654D01*
X148692293Y-73382708D01*
X148672273Y-73404979D01*
X148648359Y-73458478D01*
X148645298Y-73466953D01*
X148628332Y-73541151D01*
X148617574Y-73639401D01*
X148612689Y-73754025D01*
X148092783Y-73754025D01*
X148092997Y-73722767D01*
X148088232Y-73619636D01*
X148077722Y-73546730D01*
X148061413Y-73502118D01*
X148061248Y-73501854D01*
X148047148Y-73495718D01*
X148021141Y-73509130D01*
X147979079Y-73545089D01*
X147916813Y-73606592D01*
X147868464Y-73653366D01*
X147791883Y-73722918D01*
X147699903Y-73803224D01*
X147600088Y-73887692D01*
X147500001Y-73969734D01*
X147491985Y-73976189D01*
X147354030Y-74088904D01*
X147241566Y-74184624D01*
X147149785Y-74267887D01*
X147073874Y-74343232D01*
X147009024Y-74415200D01*
X146950424Y-74488329D01*
X146907962Y-74539842D01*
X146871172Y-74570877D01*
X146842435Y-74575770D01*
X146826169Y-74575306D01*
X146775886Y-74580376D01*
X146700577Y-74591387D01*
X146607225Y-74607284D01*
X146502810Y-74627014D01*
X146373082Y-74651396D01*
X146250210Y-74670031D01*
X146151239Y-74677887D01*
X146069598Y-74674635D01*
X145998721Y-74659946D01*
X145932037Y-74633490D01*
X145862980Y-74594939D01*
X145823549Y-74572194D01*
X145746619Y-74537620D01*
X145686503Y-74524480D01*
X145655838Y-74522443D01*
X145628685Y-74510651D01*
X145621916Y-74482472D01*
X145617244Y-74456685D01*
X145598412Y-74433788D01*
X145594690Y-74431077D01*
X145596962Y-74406235D01*
X145619788Y-74362053D01*
X145658884Y-74304478D01*
X145709965Y-74239460D01*
X145768747Y-74172949D01*
X145830945Y-74110894D01*
X145840913Y-74101749D01*
X145922756Y-74032935D01*
X146012381Y-73969448D01*
X146113911Y-73909372D01*
X146231466Y-73850790D01*
X146369170Y-73791784D01*
X146531143Y-73730437D01*
X146721508Y-73664833D01*
X146944387Y-73593055D01*
X146992322Y-73577944D01*
X147182799Y-73516312D01*
X147342894Y-73461407D01*
X147477521Y-73411330D01*
X147591595Y-73364183D01*
X147690027Y-73318067D01*
X147777732Y-73271085D01*
X147818427Y-73247115D01*
X147851737Y-73223566D01*
X147858673Y-73208959D01*
X147843464Y-73198631D01*
X147803427Y-73189756D01*
X147723350Y-73184393D01*
X147611741Y-73184932D01*
X147471618Y-73191279D01*
X147305996Y-73203343D01*
X147117892Y-73221029D01*
X147021935Y-73230496D01*
X146829889Y-73245953D01*
X146668867Y-73253111D01*
X146534987Y-73251858D01*
X146424369Y-73242084D01*
X146333129Y-73223679D01*
X146257386Y-73196532D01*
X146208442Y-73172871D01*
X146162862Y-73147561D01*
X146141118Y-73131020D01*
X146147019Y-73114252D01*
X146180529Y-73085699D01*
X146235820Y-73050611D01*
X146306022Y-73012937D01*
X146384259Y-72976629D01*
X146463660Y-72945636D01*
X146578016Y-72910449D01*
X146703679Y-72882493D01*
X146840857Y-72863273D01*
X146995925Y-72852138D01*
X147175257Y-72848437D01*
X147385229Y-72851520D01*
X147401916Y-72851985D01*
X147534800Y-72856084D01*
X147665949Y-72860756D01*
X147786421Y-72865640D01*
X147887272Y-72870378D01*
X147959558Y-72874609D01*
X148130563Y-72886601D01*
X148121632Y-72793654D01*
X148127272Y-72695038D01*
X148165350Y-72595817D01*
X148237877Y-72492227D01*
X148240784Y-72488744D01*
X148276131Y-72437935D01*
X148283977Y-72405406D01*
X148263593Y-72393944D01*
X148254978Y-72392116D01*
X148216348Y-72377698D01*
X148157231Y-72352043D01*
X148086488Y-72318907D01*
X148053517Y-72303334D01*
X147983625Y-72272867D01*
X147927470Y-72251761D01*
X147894889Y-72243870D01*
X147873834Y-72245346D01*
X147808900Y-72256870D01*
X147719704Y-72278203D01*
X147612297Y-72307391D01*
X147492728Y-72342484D01*
X147367048Y-72381529D01*
X147241307Y-72422575D01*
X147121555Y-72463670D01*
X147013843Y-72502863D01*
X146924220Y-72538201D01*
X146858737Y-72567733D01*
X146823445Y-72589507D01*
X146822653Y-72590247D01*
X146778475Y-72620087D01*
X146702880Y-72658579D01*
X146600314Y-72703855D01*
X146475224Y-72754047D01*
X146332057Y-72807288D01*
X146175258Y-72861712D01*
X146104098Y-72885427D01*
X146038255Y-72906124D01*
X145995430Y-72916485D01*
X145968573Y-72917496D01*
X145950636Y-72910147D01*
X145934569Y-72895423D01*
X145925383Y-72885339D01*
X145911186Y-72859692D01*
X145910605Y-72824912D01*
X145922365Y-72767641D01*
X145943767Y-72700307D01*
X146007684Y-72578179D01*
X146098170Y-72464333D01*
X146208500Y-72368158D01*
X146254527Y-72336455D01*
X146340912Y-72283657D01*
X146433442Y-72236786D01*
X146537288Y-72194007D01*
X146657622Y-72153483D01*
X146799613Y-72113379D01*
X146968435Y-72071860D01*
X147169257Y-72027089D01*
X147245015Y-72010569D01*
X147397790Y-71975321D01*
X147516493Y-71944591D01*
X147603256Y-71917671D01*
X147660210Y-71893850D01*
X147689488Y-71872419D01*
X147693220Y-71852668D01*
X147688166Y-71840389D01*
X147670478Y-71795274D01*
X147645277Y-71729611D01*
X147616244Y-71652954D01*
X147605928Y-71625672D01*
X147569985Y-71532127D01*
X147534239Y-71440964D01*
X147505101Y-71368587D01*
X147465642Y-71272818D01*
X148098080Y-71272818D01*
X148098316Y-71280336D01*
X148108048Y-71340555D01*
X148129322Y-71421020D01*
X148158381Y-71510044D01*
X148191467Y-71595941D01*
X148224822Y-71667024D01*
X148252187Y-71715241D01*
X148276861Y-71743237D01*
X148308295Y-71753434D01*
X148359000Y-71753937D01*
X148390323Y-71752478D01*
X148470156Y-71745524D01*
X148548301Y-71735386D01*
X148554281Y-71734439D01*
X148616428Y-71724663D01*
X148703474Y-71711042D01*
X148804707Y-71695251D01*
X148909416Y-71678961D01*
X148943156Y-71673708D01*
X149035571Y-71658842D01*
X149098316Y-71647065D01*
X149137128Y-71636448D01*
X149157747Y-71625062D01*
X149165910Y-71610980D01*
X149167356Y-71592273D01*
X149158944Y-71553479D01*
X149134789Y-71492020D01*
X149100174Y-71420526D01*
X149060422Y-71349936D01*
X149020857Y-71291191D01*
X149018171Y-71287730D01*
X149006360Y-71274939D01*
X148990520Y-71265070D01*
X148965869Y-71257577D01*
X148927623Y-71251913D01*
X148871000Y-71247532D01*
X148791217Y-71243888D01*
X148683492Y-71240435D01*
X148543041Y-71236627D01*
X148098080Y-71224920D01*
X148098080Y-71272818D01*
X147465642Y-71272818D01*
X147457498Y-71253053D01*
X147257220Y-71238556D01*
X147242900Y-71237586D01*
X147155493Y-71233232D01*
X147041758Y-71229388D01*
X146910923Y-71226283D01*
X146772215Y-71224144D01*
X146634859Y-71223198D01*
X146598234Y-71223139D01*
X146463636Y-71223418D01*
X146356923Y-71224986D01*
X146270303Y-71228416D01*
X146195984Y-71234281D01*
X146126173Y-71243156D01*
X146053078Y-71255614D01*
X145968907Y-71272230D01*
X145928297Y-71280455D01*
X145772086Y-71309873D01*
X145646171Y-71328789D01*
X145545879Y-71337143D01*
X145466539Y-71334876D01*
X145403479Y-71321926D01*
X145352026Y-71298235D01*
X145307508Y-71263743D01*
X145265164Y-71224076D01*
X145438822Y-71121381D01*
X145440473Y-71120406D01*
X145554061Y-71056163D01*
X145674787Y-70992753D01*
X145794802Y-70933889D01*
X145906256Y-70883287D01*
X146001299Y-70844661D01*
X146072082Y-70821725D01*
X146090685Y-70817153D01*
X146174604Y-70798323D01*
X146239701Y-70789747D01*
X146299642Y-70791635D01*
X146368092Y-70804194D01*
X146458719Y-70827635D01*
X146640733Y-70877221D01*
X146989532Y-70853881D01*
X147338331Y-70830540D01*
X147460199Y-70758023D01*
X147604635Y-70684982D01*
X147778402Y-70630266D01*
X147950584Y-70611817D01*
X148003524Y-70613896D01*
X148081062Y-70623958D01*
X148147237Y-70640258D01*
X148193333Y-70660439D01*
X148210635Y-70682145D01*
X148208428Y-70691433D01*
X148189497Y-70719247D01*
X148178680Y-70743334D01*
X148179874Y-70786263D01*
X148181298Y-70791512D01*
X148191646Y-70813365D01*
X148211643Y-70829639D01*
X148246856Y-70841742D01*
X148302853Y-70851083D01*
X148385204Y-70859070D01*
X148499477Y-70867113D01*
X148596199Y-70870910D01*
X148698559Y-70866747D01*
X148768413Y-70852352D01*
X148804753Y-70828150D01*
X148806574Y-70794563D01*
X148772867Y-70752018D01*
X148767320Y-70746555D01*
X148735514Y-70708376D01*
X148693370Y-70651123D01*
X148648460Y-70584967D01*
X148637641Y-70568470D01*
X148592757Y-70502272D01*
X148552764Y-70446458D01*
X148525243Y-70411690D01*
X148500486Y-70365928D01*
X148501465Y-70305744D01*
X148530305Y-70242959D01*
X148583104Y-70183194D01*
X148655955Y-70132074D01*
X148744955Y-70095223D01*
X148794961Y-70084792D01*
X148874615Y-70075856D01*
X148969228Y-70070532D01*
X149071317Y-70068691D01*
X149173399Y-70070202D01*
X149267991Y-70074936D01*
X149347610Y-70082762D01*
X149404775Y-70093550D01*
X149432001Y-70107170D01*
X149438412Y-70119286D01*
X149441675Y-70161579D01*
X149418629Y-70213921D01*
X149367417Y-70279555D01*
X149286179Y-70361723D01*
X149251262Y-70394805D01*
X149199833Y-70445226D01*
X149169148Y-70480666D01*
X149154772Y-70508223D01*
X149152269Y-70534994D01*
X149157201Y-70568075D01*
X149172785Y-70621121D01*
X149200979Y-70691616D01*
X149235631Y-70764094D01*
X149300705Y-70888233D01*
X149426312Y-70900953D01*
X149483074Y-70907512D01*
X149574184Y-70919562D01*
X149678035Y-70934450D01*
X149781410Y-70950337D01*
X149853201Y-70961068D01*
X149994013Y-70977513D01*
X150117344Y-70985636D01*
X150216903Y-70985121D01*
X150286398Y-70975654D01*
X150326785Y-70964819D01*
X150282788Y-70868045D01*
X150272454Y-70842907D01*
X150247528Y-70768383D01*
X150222360Y-70677779D01*
X150201078Y-70585374D01*
X150191388Y-70539793D01*
X150151291Y-70392142D01*
X150102538Y-70276958D01*
X150041909Y-70190476D01*
X149966185Y-70128934D01*
X149872149Y-70088567D01*
X149756583Y-70065613D01*
X149733504Y-70062512D01*
X149650413Y-70048902D01*
X149545999Y-70029368D01*
X149431319Y-70006038D01*
X149317430Y-69981042D01*
X149190516Y-69954016D01*
X149036615Y-69926970D01*
X148898359Y-69909150D01*
X148780792Y-69901036D01*
X148688962Y-69903104D01*
X148627912Y-69915831D01*
X148617330Y-69919851D01*
X148577793Y-69927264D01*
X148527314Y-69922906D01*
X148453789Y-69906101D01*
X148441892Y-69903114D01*
X148402190Y-69894943D01*
X148355549Y-69888469D01*
X148297601Y-69883517D01*
X148223979Y-69879915D01*
X148130313Y-69877488D01*
X148012236Y-69876062D01*
X147865380Y-69875464D01*
X147685376Y-69875520D01*
X147563413Y-69875895D01*
X147418889Y-69876815D01*
X147289246Y-69878167D01*
X147179013Y-69879877D01*
X147092717Y-69881873D01*
X147034885Y-69884080D01*
X147010044Y-69886427D01*
X146989119Y-69891102D01*
X146937684Y-69898080D01*
X146873379Y-69903907D01*
X146826479Y-69908998D01*
X146772935Y-69919960D01*
X146743545Y-69932850D01*
X146738026Y-69958482D01*
X146749483Y-70009750D01*
X146776056Y-70078315D01*
X146814318Y-70157172D01*
X146860840Y-70239314D01*
X146912195Y-70317734D01*
X146964956Y-70385425D01*
X147020303Y-70453412D01*
X147053809Y-70510010D01*
X147059277Y-70552737D01*
X147037226Y-70586772D01*
X146988174Y-70617297D01*
X146982709Y-70619790D01*
X146926930Y-70637332D01*
X146845301Y-70655193D01*
X146747937Y-70671951D01*
X146644951Y-70686183D01*
X146546460Y-70696468D01*
X146462576Y-70701383D01*
X146403415Y-70699507D01*
X146372815Y-70693065D01*
X146284602Y-70655349D01*
X146181138Y-70588392D01*
X146065188Y-70494354D01*
X145939521Y-70375397D01*
X145806903Y-70233681D01*
X145762583Y-70183034D01*
X145727685Y-70139159D01*
X145711302Y-70109016D01*
X145709569Y-70084974D01*
X145718622Y-70059404D01*
X145722539Y-70050520D01*
X145730179Y-70019452D01*
X145718118Y-69992331D01*
X145681493Y-69955547D01*
X145666167Y-69941155D01*
X145634476Y-69908090D01*
X145621861Y-69889411D01*
X145633696Y-69853888D01*
X145679630Y-69809880D01*
X145757117Y-69768751D01*
X145795882Y-69750208D01*
X145858585Y-69711658D01*
X145903249Y-69673635D01*
X145909459Y-69667477D01*
X145955270Y-69636969D01*
X146028016Y-69600391D01*
X146120203Y-69560659D01*
X146224340Y-69520686D01*
X146332933Y-69483388D01*
X146438490Y-69451678D01*
X146533518Y-69428472D01*
X146564627Y-69422107D01*
X146605101Y-69415398D01*
X146640898Y-69414292D01*
X146679999Y-69420253D01*
X146730381Y-69434746D01*
X146800026Y-69459236D01*
X146896912Y-69495188D01*
X146897974Y-69495582D01*
X146926765Y-69504492D01*
X146962211Y-69511509D01*
X147008720Y-69516830D01*
X147070700Y-69520652D01*
X147152562Y-69523173D01*
X147258712Y-69524589D01*
X147393560Y-69525097D01*
X147561514Y-69524894D01*
X147628696Y-69524685D01*
X147767047Y-69524047D01*
X147890692Y-69523198D01*
X147995069Y-69522187D01*
X148075615Y-69521063D01*
X148127768Y-69519874D01*
X148146964Y-69518668D01*
X148147784Y-69516737D01*
X148145731Y-69488975D01*
X148136018Y-69437521D01*
X148121076Y-69372446D01*
X148103334Y-69303819D01*
X148085221Y-69241713D01*
X148069167Y-69196196D01*
X148037966Y-69121861D01*
X148091472Y-69078812D01*
X148143492Y-69042079D01*
X148225860Y-69002046D01*
X148325165Y-68973913D01*
X148448067Y-68955951D01*
X148601224Y-68946432D01*
X148637090Y-68945296D01*
X148749662Y-68943790D01*
X148838223Y-68947039D01*
X148913246Y-68955694D01*
X148985205Y-68970411D01*
X148992456Y-68972199D01*
X149074697Y-68995728D01*
X149152529Y-69023157D01*
X149217986Y-69051117D01*
X149263102Y-69076235D01*
X149279911Y-69095139D01*
X149276286Y-69101904D01*
X149246230Y-69125519D01*
X149191141Y-69158707D01*
X149117535Y-69198068D01*
X149031931Y-69240198D01*
X148940846Y-69281696D01*
X148850795Y-69319158D01*
X148670236Y-69390073D01*
X148664611Y-69473416D01*
X148658986Y-69556759D01*
X148739648Y-69568115D01*
X148768211Y-69571528D01*
X148836679Y-69578335D01*
X148931577Y-69586902D01*
X149046417Y-69596701D01*
X149174709Y-69607202D01*
X149309963Y-69617878D01*
X149445692Y-69628201D01*
X149575405Y-69637643D01*
X149692614Y-69645676D01*
X149898996Y-69660497D01*
X150143929Y-69682316D01*
X150359522Y-69707125D01*
X150550413Y-69735551D01*
X150721244Y-69768222D01*
X150876653Y-69805764D01*
X150958163Y-69827713D01*
X150908401Y-69853785D01*
X150881212Y-69875054D01*
X150839591Y-69922807D01*
X150800247Y-69981919D01*
X150791965Y-69995970D01*
X150737826Y-70068643D01*
X150684415Y-70108718D01*
X150659355Y-70120371D01*
X150638303Y-70138740D01*
X150632705Y-70169239D01*
X150637486Y-70224373D01*
X150641154Y-70248674D01*
X150658934Y-70318418D01*
X150682466Y-70374447D01*
X150698713Y-70396326D01*
X150753286Y-70446234D01*
X150831116Y-70500736D01*
X150924196Y-70554502D01*
X151024520Y-70602201D01*
X151053271Y-70614466D01*
X151095795Y-70633027D01*
X151115280Y-70642169D01*
X151114903Y-70658990D01*
X151094890Y-70696764D01*
X151059817Y-70747503D01*
X151015284Y-70803725D01*
X150966890Y-70857952D01*
X150920234Y-70902705D01*
X150919787Y-70903087D01*
X150865485Y-70952400D01*
X150821360Y-70997677D01*
X150796926Y-71029159D01*
X150776112Y-71068050D01*
X151167635Y-71055957D01*
X151267397Y-71052285D01*
X151402563Y-71045251D01*
X151519126Y-71036687D01*
X151610780Y-71027080D01*
X151671221Y-71016920D01*
X151723818Y-71005651D01*
X151773198Y-70998308D01*
X151797846Y-70998975D01*
X151809899Y-71022615D01*
X151811384Y-71070751D01*
X151801571Y-71129780D01*
X151781556Y-71187040D01*
X151773660Y-71202416D01*
X151729126Y-71263315D01*
X151662867Y-71321864D01*
X151571834Y-71379816D01*
X151452979Y-71438924D01*
X151303254Y-71500939D01*
X151119611Y-71567614D01*
X150848897Y-71661052D01*
X150805785Y-71597607D01*
X150756138Y-71545068D01*
X150667352Y-71489243D01*
X150551489Y-71443193D01*
X150414046Y-71409558D01*
X150402378Y-71407575D01*
X150339693Y-71399139D01*
X150255283Y-71390060D01*
X150155711Y-71380805D01*
X150047542Y-71371843D01*
X149937339Y-71363642D01*
X149831666Y-71356671D01*
X149737086Y-71351398D01*
X149660163Y-71348291D01*
X149607461Y-71347818D01*
X149585544Y-71350448D01*
X149581495Y-71371594D01*
X149593658Y-71413478D01*
X149619045Y-71461877D01*
X149652264Y-71504351D01*
X149681592Y-71527646D01*
X149739976Y-71565408D01*
X149786411Y-71592273D01*
X149815466Y-71609083D01*
G37*
%TD*%
D10*
%TO.C,KD1*%
X44926300Y-71437500D03*
D11*
X46196300Y-68897500D03*
D12*
X50006300Y-71437500D03*
D11*
X52546300Y-66357500D03*
D10*
X55086300Y-71437500D03*
D13*
X43006300Y-68857500D03*
X55706300Y-66317500D03*
%TD*%
D14*
%TO.C,RGBF7*%
X284818715Y-116170197D03*
X284818715Y-117670197D03*
D15*
X289918715Y-117670197D03*
D14*
X289918715Y-116170197D03*
%TD*%
D10*
%TO.C,KB11*%
X241807200Y-30956200D03*
D11*
X243077200Y-28416200D03*
D12*
X246887200Y-30956200D03*
D11*
X249427200Y-25876200D03*
D10*
X251967200Y-30956200D03*
D13*
X239887200Y-28376200D03*
X252587200Y-25836200D03*
%TD*%
D16*
%TO.C,RGBE8*%
X191448505Y-104856761D03*
X191760372Y-106323983D03*
D17*
X196748925Y-105263633D03*
D16*
X196437058Y-103796411D03*
%TD*%
D18*
%TO.C,RGBA3*%
X77653578Y-16124049D03*
X77444819Y-17609451D03*
D19*
X82495186Y-18319233D03*
D18*
X82703945Y-16833831D03*
%TD*%
D16*
%TO.C,RGBC6*%
X177580162Y-68850547D03*
X177892029Y-70317769D03*
D17*
X182880582Y-69257419D03*
D16*
X182568715Y-67790197D03*
%TD*%
D14*
%TO.C,RGBF1*%
X45078715Y-113780197D03*
X45078715Y-115280197D03*
D15*
X50178715Y-115280197D03*
D14*
X50178715Y-113780197D03*
%TD*%
D10*
%TO.C,KD11*%
X248951000Y-71437500D03*
D11*
X250221000Y-68897500D03*
D12*
X254031000Y-71437500D03*
D11*
X256571000Y-66357500D03*
D10*
X259111000Y-71437500D03*
D13*
X247031000Y-68857500D03*
X259731000Y-66317500D03*
%TD*%
D14*
%TO.C,RGBD11*%
X251478715Y-75690197D03*
X251478715Y-77190197D03*
D15*
X256578715Y-77190197D03*
D14*
X256578715Y-75690197D03*
%TD*%
D20*
%TO.C,RGBA10*%
X221339152Y-16832387D03*
X221547911Y-18317789D03*
D21*
X226598278Y-17608007D03*
D20*
X226389519Y-16122605D03*
%TD*%
D10*
%TO.C,KC12*%
X289432200Y-52387500D03*
D11*
X290702200Y-49847500D03*
D12*
X294512200Y-52387500D03*
D11*
X297052200Y-47307500D03*
D10*
X299592200Y-52387500D03*
D13*
X287512200Y-49807500D03*
X300212200Y-47267500D03*
%TD*%
D22*
%TO.C,RGBF3*%
X108300162Y-123409847D03*
X107988295Y-124877069D03*
D23*
X112976848Y-125937419D03*
D22*
X113288715Y-124470197D03*
%TD*%
D24*
%TO.C,RGBA5*%
X118619124Y-23375021D03*
X118436320Y-24863840D03*
D25*
X123498306Y-25485373D03*
D24*
X123681110Y-23996554D03*
%TD*%
D10*
%TO.C,KC4*%
X101245607Y-59143723D03*
D11*
X103015950Y-56923276D03*
D12*
X106214597Y-60199915D03*
D11*
X109755283Y-55759021D03*
D10*
X111183587Y-61256106D03*
D26*
X99903976Y-56220912D03*
X112854546Y-56376896D03*
%TD*%
D10*
%TO.C,KB10*%
X220927525Y-35813188D03*
D11*
X221641677Y-33064646D03*
D12*
X225896515Y-34756997D03*
D11*
X227324818Y-29259912D03*
D10*
X230865505Y-33700806D03*
D27*
X218513069Y-33688758D03*
X230407448Y-28563785D03*
%TD*%
D10*
%TO.C,KE3*%
X87374407Y-95146423D03*
D11*
X89144750Y-92925976D03*
D12*
X92343397Y-96202615D03*
D11*
X95884083Y-91761721D03*
D10*
X97312387Y-97258806D03*
D26*
X86032776Y-92223612D03*
X98983346Y-92379596D03*
%TD*%
D14*
%TO.C,RGBF10*%
X303868715Y-13770197D03*
X303868715Y-15270197D03*
D15*
X308968715Y-15270197D03*
D14*
X308968715Y-13770197D03*
%TD*%
D28*
%TO.C,RGBA11*%
X241122609Y-14629903D03*
X241227244Y-16126249D03*
D29*
X246314821Y-15770491D03*
D28*
X246210186Y-14274145D03*
%TD*%
D16*
%TO.C,RGBB8*%
X187020162Y-47360547D03*
X187332029Y-48827769D03*
D17*
X192320582Y-47767419D03*
D16*
X192008715Y-46300197D03*
%TD*%
D10*
%TO.C,KB9*%
X202293825Y-39773888D03*
D11*
X203007977Y-37025346D03*
D12*
X207262815Y-38717697D03*
D11*
X208691118Y-33220612D03*
D10*
X212231805Y-37661506D03*
D27*
X199879369Y-37649458D03*
X211773748Y-32524485D03*
%TD*%
D16*
%TO.C,RGBA9*%
X201760162Y-20380546D03*
X202072029Y-21847768D03*
D17*
X207060582Y-20787418D03*
D16*
X206748715Y-19320196D03*
%TD*%
D10*
%TO.C,KC1*%
X42545000Y-52387500D03*
D11*
X43815000Y-49847500D03*
D12*
X47625000Y-52387500D03*
D11*
X50165000Y-47307500D03*
D10*
X52705000Y-52387500D03*
D13*
X40625000Y-49807500D03*
X53325000Y-47267500D03*
%TD*%
D10*
%TO.C,KA2*%
X55604842Y-9858265D03*
D11*
X57048930Y-7413043D03*
D12*
X60672467Y-10212628D03*
D11*
X63560643Y-5322184D03*
D10*
X65740093Y-10566991D03*
D30*
X53869491Y-7150617D03*
X66715735Y-5502712D03*
%TD*%
D10*
%TO.C,KF8*%
X301338500Y-111918700D03*
D11*
X302608500Y-109378700D03*
D12*
X306418500Y-111918700D03*
D11*
X308958500Y-106838700D03*
D10*
X311498500Y-111918700D03*
D13*
X299418500Y-109338700D03*
X312118500Y-106798700D03*
%TD*%
D14*
%TO.C,RGBB13*%
X291968715Y-37580197D03*
X291968715Y-39080197D03*
D15*
X297068715Y-39080197D03*
D14*
X297068715Y-37580197D03*
%TD*%
D10*
%TO.C,KA9*%
X198396525Y-16749788D03*
D11*
X199110677Y-14001246D03*
D12*
X203365515Y-15693597D03*
D11*
X204793818Y-10196512D03*
D10*
X208334505Y-14637406D03*
D27*
X195982069Y-14625358D03*
X207876448Y-9500385D03*
%TD*%
D10*
%TO.C,KA12*%
X258476000Y-9525000D03*
D11*
X259746000Y-6985000D03*
D12*
X263556000Y-9525000D03*
D11*
X266096000Y-4445000D03*
D10*
X268636000Y-9525000D03*
D13*
X256556000Y-6945000D03*
X269256000Y-4405000D03*
%TD*%
D10*
%TO.C,KE8*%
X188091125Y-101219588D03*
D11*
X188805277Y-98471046D03*
D12*
X193060115Y-100163397D03*
D11*
X194488418Y-94666312D03*
D10*
X198029105Y-99107206D03*
D27*
X185676669Y-99095158D03*
X197571048Y-93970185D03*
%TD*%
D10*
%TO.C,KF0*%
X18732550Y-109537500D03*
D11*
X20002550Y-106997500D03*
D12*
X23812550Y-109537500D03*
D11*
X26352550Y-104457500D03*
D10*
X28892550Y-109537500D03*
D13*
X16812550Y-106957500D03*
X29512550Y-104417500D03*
%TD*%
D31*
%TO.C,KD13*%
X292137250Y-64437500D03*
D32*
X292137250Y-79677500D03*
D10*
X298957250Y-71437500D03*
D11*
X300227250Y-68897500D03*
D12*
X304037250Y-71437500D03*
D11*
X306577250Y-66357500D03*
D10*
X309117250Y-71437500D03*
D31*
X315937250Y-64437500D03*
D32*
X315937250Y-79677500D03*
D13*
X297037250Y-68857500D03*
X309737250Y-66317500D03*
%TD*%
D16*
%TO.C,RGBB10*%
X224290162Y-39440547D03*
X224602029Y-40907769D03*
D17*
X229590582Y-39847419D03*
D16*
X229278715Y-38380197D03*
%TD*%
D10*
%TO.C,KC11*%
X270382200Y-52387500D03*
D11*
X271652200Y-49847500D03*
D12*
X275462200Y-52387500D03*
D11*
X278002200Y-47307500D03*
D10*
X280542200Y-52387500D03*
D13*
X268462200Y-49807500D03*
X281162200Y-47267500D03*
%TD*%
D14*
%TO.C,RGBC1*%
X45078715Y-56640197D03*
X45078715Y-58140197D03*
D15*
X50178715Y-58140197D03*
D14*
X50178715Y-56640197D03*
%TD*%
D33*
%TO.C,MountTopMiddle6*%
X328390000Y-64540000D03*
%TD*%
D34*
%TO.C,RSW2*%
X2253715Y-11495197D03*
X2253715Y-6495197D03*
D35*
X4753715Y-12495197D03*
X4753715Y-5495197D03*
%TD*%
D10*
%TO.C,KA11*%
X238297103Y-10567030D03*
D11*
X239386828Y-7944627D03*
D12*
X243364728Y-10212667D03*
D11*
X245544178Y-4967860D03*
D10*
X248432353Y-9858304D03*
D36*
X236201808Y-8127247D03*
X248693690Y-4707527D03*
%TD*%
D10*
%TO.C,KD9*%
X209106025Y-77277088D03*
D11*
X209820177Y-74528546D03*
D12*
X214075015Y-76220897D03*
D11*
X215503318Y-70723812D03*
D10*
X219044005Y-75164706D03*
D27*
X206691569Y-75152658D03*
X218585948Y-70027685D03*
%TD*%
D10*
%TO.C,KA13*%
X279907200Y-9525000D03*
D11*
X281177200Y-6985000D03*
D12*
X284987200Y-9525000D03*
D11*
X287527200Y-4445000D03*
D10*
X290067200Y-9525000D03*
D13*
X277987200Y-6945000D03*
X290687200Y-4405000D03*
%TD*%
D10*
%TO.C,KD4*%
X103626907Y-79125423D03*
D11*
X105397250Y-76904976D03*
D12*
X108595897Y-80181615D03*
D11*
X112136583Y-75740721D03*
D10*
X113564887Y-81237806D03*
D26*
X102285276Y-76202612D03*
X115235846Y-76358596D03*
%TD*%
D10*
%TO.C,KA3*%
X75737218Y-11565228D03*
D11*
X77348358Y-9226697D03*
D12*
X80767780Y-12272227D03*
D11*
X83990060Y-7595165D03*
D10*
X85798341Y-12979226D03*
D37*
X74194970Y-8743124D03*
X87124874Y-7995341D03*
%TD*%
D32*
%TO.C,KF4*%
X174350836Y-115191661D03*
D31*
X177519410Y-130098631D03*
D10*
X182734995Y-121833640D03*
D11*
X183449147Y-119085097D03*
D12*
X187703985Y-120777448D03*
D11*
X189132288Y-115280363D03*
D10*
X192672974Y-119721257D03*
D32*
X197630749Y-110243363D03*
D31*
X200799323Y-125150333D03*
D27*
X180320539Y-119709209D03*
X192214918Y-114584236D03*
%TD*%
D14*
%TO.C,RGBD12*%
X270528715Y-75670197D03*
X270528715Y-77170197D03*
D15*
X275628715Y-77170197D03*
D14*
X275628715Y-75670197D03*
%TD*%
%TO.C,RGBB1*%
X35548715Y-37570197D03*
X35548715Y-39070197D03*
D15*
X40648715Y-39070197D03*
D14*
X40648715Y-37570197D03*
%TD*%
D10*
%TO.C,KF10*%
X301338500Y-9525000D03*
D11*
X302608500Y-6985000D03*
D12*
X306418500Y-9525000D03*
D11*
X308958500Y-4445000D03*
D10*
X311498500Y-9525000D03*
D13*
X299418500Y-6945000D03*
X312118500Y-4405000D03*
%TD*%
D10*
%TO.C,KB2*%
X52070000Y-30956200D03*
D11*
X53340000Y-28416200D03*
D12*
X57150000Y-30956200D03*
D11*
X59690000Y-25876200D03*
D10*
X62230000Y-30956200D03*
D13*
X50150000Y-28376200D03*
X62850000Y-25836200D03*
%TD*%
D10*
%TO.C,KA10*%
X218238865Y-12979179D03*
D11*
X219143006Y-10287148D03*
D12*
X223269427Y-12272180D03*
D11*
X225077709Y-6888118D03*
D10*
X228299989Y-11565180D03*
D38*
X215978484Y-10691500D03*
X228201389Y-6408720D03*
%TD*%
D14*
%TO.C,RGBB0*%
X16498715Y-37590197D03*
X16498715Y-39090197D03*
D15*
X21598715Y-39090197D03*
D14*
X21598715Y-37590197D03*
%TD*%
D10*
%TO.C,KB0*%
X13970000Y-33337500D03*
D11*
X15240000Y-30797500D03*
D12*
X19050000Y-33337500D03*
D11*
X21590000Y-28257500D03*
D10*
X24130000Y-33337500D03*
D13*
X12050000Y-30757500D03*
X24750000Y-28217500D03*
%TD*%
D39*
%TO.C,SW1*%
X149518608Y-130825000D03*
X154518608Y-130825000D03*
X152018608Y-130825000D03*
D40*
X157868608Y-129575000D03*
X146168608Y-129575000D03*
D39*
X154518608Y-128325000D03*
X149518608Y-128325000D03*
%TD*%
D10*
%TO.C,KB6*%
X129072807Y-45582923D03*
D11*
X130843150Y-43362476D03*
D12*
X134041797Y-46639115D03*
D11*
X137582483Y-42198221D03*
D10*
X139010787Y-47695306D03*
D26*
X127731176Y-42660112D03*
X140681746Y-42816096D03*
%TD*%
D33*
%TO.C,MountTopMiddle4*%
X242200000Y-102480000D03*
%TD*%
D10*
%TO.C,KA5*%
X116634162Y-18852811D03*
D11*
X118204244Y-16486518D03*
D12*
X121676297Y-19471908D03*
D11*
X124816460Y-14739321D03*
D10*
X126718431Y-20091004D03*
D41*
X115042896Y-16058053D03*
X127957781Y-15084727D03*
%TD*%
D22*
%TO.C,RGBD4*%
X105220162Y-83799847D03*
X104908295Y-85267069D03*
D23*
X109896848Y-86327419D03*
D22*
X110208715Y-84860197D03*
%TD*%
D10*
%TO.C,KB4*%
X91805407Y-37661523D03*
D11*
X93575750Y-35441076D03*
D12*
X96774397Y-38717715D03*
D11*
X100315083Y-34276821D03*
D10*
X101743387Y-39773906D03*
D26*
X90463776Y-34738712D03*
X103414346Y-34894696D03*
%TD*%
D10*
%TO.C,KE6*%
X146938600Y-114300000D03*
D11*
X148208600Y-111760000D03*
D12*
X152018600Y-114300000D03*
D11*
X154558600Y-109220000D03*
D10*
X157098600Y-114300000D03*
D13*
X145018600Y-111720000D03*
X157718600Y-109180000D03*
%TD*%
D10*
%TO.C,KC7*%
X192853625Y-61256088D03*
D11*
X193567777Y-58507546D03*
D12*
X197822615Y-60199897D03*
D11*
X199250918Y-54702812D03*
D10*
X202791605Y-59143706D03*
D27*
X190439169Y-59131658D03*
X202333548Y-54006685D03*
%TD*%
D10*
%TO.C,KC6*%
X174219925Y-65216788D03*
D11*
X174934077Y-62468246D03*
D12*
X179188915Y-64160597D03*
D11*
X180617218Y-58663512D03*
D10*
X184157905Y-63104406D03*
D27*
X171805469Y-63092358D03*
X183699848Y-57967385D03*
%TD*%
D22*
%TO.C,RGBE5*%
X126230162Y-107759847D03*
X125918295Y-109227069D03*
D23*
X130906848Y-110287419D03*
D22*
X131218715Y-108820197D03*
%TD*%
D10*
%TO.C,KE11*%
X246569700Y-90487500D03*
D11*
X247839700Y-87947500D03*
D12*
X251649700Y-90487500D03*
D11*
X254189700Y-85407500D03*
D10*
X256729700Y-90487500D03*
D13*
X244649700Y-87907500D03*
X257349700Y-85367500D03*
%TD*%
D14*
%TO.C,RGBF6*%
X253868715Y-113790197D03*
X253868715Y-115290197D03*
D15*
X258968715Y-115290197D03*
D14*
X258968715Y-113790197D03*
%TD*%
D10*
%TO.C,KA8*%
X177318773Y-20090993D03*
D11*
X178269759Y-17415152D03*
D12*
X182360908Y-19471897D03*
D11*
X184262879Y-14120214D03*
D10*
X187403042Y-18852800D03*
D42*
X175098662Y-17764213D03*
X187394450Y-13695405D03*
%TD*%
D16*
%TO.C,RGBD7*%
X175200162Y-88830547D03*
X175512029Y-90297769D03*
D17*
X180500582Y-89237419D03*
D16*
X180188715Y-87770197D03*
%TD*%
D22*
%TO.C,RGBB6*%
X130660372Y-50266411D03*
X130348505Y-51733633D03*
D23*
X135337058Y-52793983D03*
D22*
X135648925Y-51326761D03*
%TD*%
D10*
%TO.C,KE4*%
X106008107Y-99107223D03*
D11*
X107778450Y-96886776D03*
D12*
X110977097Y-100163415D03*
D11*
X114517783Y-95722521D03*
D10*
X115946087Y-101219606D03*
D26*
X104666476Y-96184412D03*
X117617046Y-96340396D03*
%TD*%
D10*
%TO.C,KF11*%
X320388500Y-9525000D03*
D11*
X321658500Y-6985000D03*
D12*
X325468500Y-9525000D03*
D11*
X328008500Y-4445000D03*
D10*
X330548500Y-9525000D03*
D13*
X318468500Y-6945000D03*
X331168500Y-4405000D03*
%TD*%
D10*
%TO.C,KC3*%
X82611907Y-55183023D03*
D11*
X84382250Y-52962576D03*
D12*
X87580897Y-56239215D03*
D11*
X91121583Y-51798321D03*
D10*
X92549887Y-57295406D03*
D26*
X81270276Y-52260212D03*
X94220846Y-52416196D03*
%TD*%
D10*
%TO.C,KB3*%
X73171707Y-33700823D03*
D11*
X74942050Y-31480376D03*
D12*
X78140697Y-34757015D03*
D11*
X81681383Y-30316121D03*
D10*
X83109687Y-35813206D03*
D26*
X71830076Y-30778012D03*
X84780646Y-30933996D03*
%TD*%
D14*
%TO.C,RGBF11*%
X322918715Y-13780197D03*
X322918715Y-15280197D03*
D15*
X328018715Y-15280197D03*
D14*
X328018715Y-13780197D03*
%TD*%
D10*
%TO.C,KD7*%
X171838625Y-85198588D03*
D11*
X172552777Y-82450046D03*
D12*
X176807615Y-84142397D03*
D11*
X178235918Y-78645312D03*
D10*
X181776605Y-83086206D03*
D27*
X169424169Y-83074158D03*
X181318548Y-77949185D03*
%TD*%
D33*
%TO.C,MountTopMiddle1*%
X29780000Y-21330000D03*
%TD*%
D14*
%TO.C,RGBF8*%
X303868715Y-116160197D03*
X303868715Y-117660197D03*
D15*
X308968715Y-117660197D03*
D14*
X308968715Y-116160197D03*
%TD*%
D22*
%TO.C,RGBE3*%
X88960372Y-99826411D03*
X88648505Y-101293633D03*
D23*
X93637058Y-102353983D03*
D22*
X93948925Y-100886761D03*
%TD*%
D14*
%TO.C,RGBD1*%
X47458715Y-75690197D03*
X47458715Y-77190197D03*
D15*
X52558715Y-77190197D03*
D14*
X52558715Y-75690197D03*
%TD*%
D16*
%TO.C,RGBF5*%
X228020162Y-116550547D03*
X228332029Y-118017769D03*
D17*
X233320582Y-116957419D03*
D16*
X233008715Y-115490197D03*
%TD*%
D14*
%TO.C,RGBB11*%
X244338715Y-35210197D03*
X244338715Y-36710197D03*
D15*
X249438715Y-36710197D03*
D14*
X249438715Y-35210197D03*
%TD*%
%TO.C,RGBE11*%
X249098715Y-94740197D03*
X249098715Y-96240197D03*
D15*
X254198715Y-96240197D03*
D14*
X254198715Y-94740197D03*
%TD*%
D34*
%TO.C,RSW1*%
X2253715Y-21495200D03*
X2253715Y-16495200D03*
D35*
X4753715Y-22495200D03*
X4753715Y-15495200D03*
%TD*%
D16*
%TO.C,RGBB7*%
X168390162Y-51330547D03*
X168702029Y-52797769D03*
D17*
X173690582Y-51737419D03*
D16*
X173378715Y-50270197D03*
%TD*%
D10*
%TO.C,KD2*%
X66359507Y-71204023D03*
D11*
X68129850Y-68983576D03*
D12*
X71328497Y-72260215D03*
D11*
X74869183Y-67819321D03*
D10*
X76297487Y-73316406D03*
D26*
X65017876Y-68281212D03*
X77968446Y-68437196D03*
%TD*%
D10*
%TO.C,KD6*%
X146938600Y-95250000D03*
D11*
X148208600Y-92710000D03*
D12*
X152018600Y-95250000D03*
D11*
X154558600Y-90170000D03*
D10*
X157098600Y-95250000D03*
D13*
X145018600Y-92670000D03*
X157718600Y-90130000D03*
%TD*%
D10*
%TO.C,KF7*%
X282288500Y-111918700D03*
D11*
X283558500Y-109378700D03*
D12*
X287368500Y-111918700D03*
D11*
X289908500Y-106838700D03*
D10*
X292448500Y-111918700D03*
D13*
X280368500Y-109338700D03*
X293068500Y-106798700D03*
%TD*%
D14*
%TO.C,RGBE12*%
X275298715Y-94740197D03*
X275298715Y-96240197D03*
D15*
X280398715Y-96240197D03*
D14*
X280398715Y-94740197D03*
%TD*%
%TO.C,RGBA13*%
X282438715Y-13770197D03*
X282438715Y-15270197D03*
D15*
X287538715Y-15270197D03*
D14*
X287538715Y-13770197D03*
%TD*%
D16*
%TO.C,RGBB9*%
X205658505Y-43406761D03*
X205970372Y-44873983D03*
D17*
X210958925Y-43813633D03*
D16*
X210647058Y-42346411D03*
%TD*%
D14*
%TO.C,RGBE13*%
X303868715Y-97120197D03*
X303868715Y-98620197D03*
D15*
X308968715Y-98620197D03*
D14*
X308968715Y-97120197D03*
%TD*%
D10*
%TO.C,KC2*%
X63978207Y-51222223D03*
D11*
X65748550Y-49001776D03*
D12*
X68947197Y-52278415D03*
D11*
X72487883Y-47837521D03*
D10*
X73916187Y-53334606D03*
D26*
X62636576Y-48299412D03*
X75587146Y-48455396D03*
%TD*%
D33*
%TO.C,MountTopMiddle3*%
X151998715Y-59170197D03*
%TD*%
D10*
%TO.C,KE12*%
X272763450Y-90487500D03*
D11*
X274033450Y-87947500D03*
D12*
X277843450Y-90487500D03*
D11*
X280383450Y-85407500D03*
D10*
X282923450Y-90487500D03*
D13*
X270843450Y-87907500D03*
X283543450Y-85367500D03*
%TD*%
D10*
%TO.C,KC13*%
X313244700Y-52387500D03*
D11*
X314514700Y-49847500D03*
D12*
X318324700Y-52387500D03*
D11*
X320864700Y-47307500D03*
D10*
X323404700Y-52387500D03*
D13*
X311324700Y-49807500D03*
X324024700Y-47267500D03*
%TD*%
D14*
%TO.C,RGBC10*%
X253858715Y-56630197D03*
X253858715Y-58130197D03*
D15*
X258958715Y-58130197D03*
D14*
X258958715Y-56630197D03*
%TD*%
D16*
%TO.C,RGBF4*%
X186090162Y-125460547D03*
X186402029Y-126927769D03*
D17*
X191390582Y-125867419D03*
D16*
X191078715Y-124400197D03*
%TD*%
%TO.C,RGBD9*%
X212460162Y-80900547D03*
X212772029Y-82367769D03*
D17*
X217760582Y-81307419D03*
D16*
X217448715Y-79840197D03*
%TD*%
D10*
%TO.C,KE5*%
X124641907Y-103067923D03*
D11*
X126412250Y-100847476D03*
D12*
X129610897Y-104124115D03*
D11*
X133151583Y-99683221D03*
D10*
X134579887Y-105180306D03*
D26*
X123300276Y-100145112D03*
X136250846Y-100301096D03*
%TD*%
D14*
%TO.C,RGBC0*%
X21258715Y-56640197D03*
X21258715Y-58140197D03*
D15*
X26358715Y-58140197D03*
D14*
X26358715Y-56640197D03*
%TD*%
%TO.C,RGBC11*%
X272918715Y-56640197D03*
X272918715Y-58140197D03*
D15*
X278018715Y-58140197D03*
D14*
X278018715Y-56640197D03*
%TD*%
D43*
%TO.C,RGBA8*%
X180346320Y-23996554D03*
X180529124Y-25485373D03*
D44*
X185591110Y-24863840D03*
D43*
X185408306Y-23375021D03*
%TD*%
D10*
%TO.C,KC5*%
X119879407Y-63104423D03*
D11*
X121649750Y-60883976D03*
D12*
X124848397Y-64160615D03*
D11*
X128389083Y-59719721D03*
D10*
X129817387Y-65216806D03*
D26*
X118537776Y-60181612D03*
X131488346Y-60337596D03*
%TD*%
D10*
%TO.C,KC8*%
X211487325Y-57295388D03*
D11*
X212201477Y-54546846D03*
D12*
X216456315Y-56239197D03*
D11*
X217884618Y-50742112D03*
D10*
X221425305Y-55183006D03*
D27*
X209072869Y-55170958D03*
X220967248Y-50045985D03*
%TD*%
D10*
%TO.C,KA4*%
X95702707Y-14637423D03*
D11*
X97473050Y-12416976D03*
D12*
X100671697Y-15693615D03*
D11*
X104212383Y-11252721D03*
D10*
X105640687Y-16749806D03*
D26*
X94361076Y-11714612D03*
X107311646Y-11870596D03*
%TD*%
D45*
%TO.C,RGBI0*%
X6713715Y-49837500D03*
X5213715Y-49837500D03*
D46*
X5213715Y-54937500D03*
D45*
X6713715Y-54937500D03*
%TD*%
%TO.C,RGBI2*%
X5213715Y-25865197D03*
X3713715Y-25865197D03*
D46*
X3713715Y-30965197D03*
D45*
X5213715Y-30965197D03*
%TD*%
D14*
%TO.C,RGBA1*%
X37928715Y-13770197D03*
X37928715Y-15270197D03*
D15*
X43028715Y-15270197D03*
D14*
X43028715Y-13770197D03*
%TD*%
%TO.C,RGBC13*%
X315778715Y-56630197D03*
X315778715Y-58130197D03*
D15*
X320878715Y-58130197D03*
D14*
X320878715Y-56630197D03*
%TD*%
D16*
%TO.C,RGBD10*%
X231100162Y-76940547D03*
X231412029Y-78407769D03*
D17*
X236400582Y-77347419D03*
D16*
X236088715Y-75880197D03*
%TD*%
D10*
%TO.C,KD0*%
X18732550Y-71437500D03*
D11*
X20002550Y-68897500D03*
D12*
X23812550Y-71437500D03*
D11*
X26352550Y-66357500D03*
D10*
X28892550Y-71437500D03*
D13*
X16812550Y-68857500D03*
X29512550Y-66317500D03*
%TD*%
D10*
%TO.C,KA6*%
X136389027Y-21054862D03*
D11*
X137875570Y-18635215D03*
D12*
X141449696Y-21497613D03*
D11*
X144422782Y-16658319D03*
D10*
X146510365Y-21940364D03*
D47*
X134701195Y-18317340D03*
X147574243Y-16893884D03*
%TD*%
D14*
%TO.C,RGBF12*%
X320538715Y-37590197D03*
X320538715Y-39090197D03*
D15*
X325638715Y-39090197D03*
D14*
X325638715Y-37590197D03*
%TD*%
D10*
%TO.C,KD12*%
X268001000Y-71437500D03*
D11*
X269271000Y-68897500D03*
D12*
X273081000Y-71437500D03*
D11*
X275621000Y-66357500D03*
D10*
X278161000Y-71437500D03*
D13*
X266081000Y-68857500D03*
X278781000Y-66317500D03*
%TD*%
D48*
%TO.C,RGBA7*%
X160418122Y-25954690D03*
X160548855Y-27448982D03*
D49*
X165629448Y-27004488D03*
D48*
X165498715Y-25510196D03*
%TD*%
D10*
%TO.C,KB12*%
X260857200Y-33337500D03*
D11*
X262127200Y-30797500D03*
D12*
X265937200Y-33337500D03*
D11*
X268477200Y-28257500D03*
D10*
X271017200Y-33337500D03*
D13*
X258937200Y-30757500D03*
X271637200Y-28217500D03*
%TD*%
D10*
%TO.C,KF2*%
X69438421Y-110809613D03*
D11*
X71208764Y-108589166D03*
D12*
X74407411Y-111865804D03*
D11*
X77948097Y-107424910D03*
D10*
X79376401Y-112921996D03*
D26*
X68096790Y-107886802D03*
X81047360Y-108042785D03*
%TD*%
D34*
%TO.C,J3*%
X2978719Y-64845198D03*
X2978719Y-62345198D03*
X2978719Y-59845198D03*
%TD*%
D10*
%TO.C,KA0*%
X13970000Y-9525000D03*
D11*
X15240000Y-6985000D03*
D12*
X19050000Y-9525000D03*
D11*
X21590000Y-4445000D03*
D10*
X24130000Y-9525000D03*
D13*
X12050000Y-6945000D03*
X24750000Y-4405000D03*
%TD*%
D10*
%TO.C,KF12*%
X318007200Y-33337500D03*
D11*
X319277200Y-30797500D03*
D12*
X323087200Y-33337500D03*
D11*
X325627200Y-28257500D03*
D10*
X328167200Y-33337500D03*
D13*
X316087200Y-30757500D03*
X328787200Y-28217500D03*
%TD*%
D16*
%TO.C,RGBE9*%
X210078505Y-100886761D03*
X210390372Y-102353983D03*
D17*
X215378925Y-101293633D03*
D16*
X215067058Y-99826411D03*
%TD*%
D10*
%TO.C,KB7*%
X165026425Y-47695388D03*
D11*
X165740577Y-44946846D03*
D12*
X169995415Y-46639197D03*
D11*
X171423718Y-41142112D03*
D10*
X174964405Y-45583006D03*
D27*
X162611969Y-45570958D03*
X174506348Y-40445985D03*
%TD*%
D31*
%TO.C,KE0*%
X9531250Y-83487500D03*
D32*
X9531250Y-98727500D03*
D10*
X16351250Y-90487500D03*
D11*
X17621250Y-87947500D03*
D12*
X21431250Y-90487500D03*
D11*
X23971250Y-85407500D03*
D10*
X26511250Y-90487500D03*
D31*
X33331250Y-83487500D03*
D32*
X33331250Y-98727500D03*
D13*
X14431250Y-87907500D03*
X27131250Y-85367500D03*
%TD*%
D10*
%TO.C,KB8*%
X183660125Y-43734588D03*
D11*
X184374277Y-40986046D03*
D12*
X188629115Y-42678397D03*
D11*
X190057418Y-37181312D03*
D10*
X193598105Y-41622206D03*
D27*
X181245669Y-41610158D03*
X193140048Y-36485185D03*
%TD*%
D14*
%TO.C,RGBE1*%
X49848715Y-94740197D03*
X49848715Y-96240197D03*
D15*
X54948715Y-96240197D03*
D14*
X54948715Y-94740197D03*
%TD*%
D10*
%TO.C,KC9*%
X230121025Y-53334688D03*
D11*
X230835177Y-50586146D03*
D12*
X235090015Y-52278497D03*
D11*
X236518318Y-46781412D03*
D10*
X240059005Y-51222306D03*
D27*
X227706569Y-51210258D03*
X239600948Y-46085285D03*
%TD*%
D22*
%TO.C,RGBC2*%
X65570372Y-55906411D03*
X65258505Y-57373633D03*
D23*
X70247058Y-58433983D03*
D22*
X70558925Y-56966761D03*
%TD*%
D31*
%TO.C,KB13*%
X282612200Y-26337500D03*
D32*
X282612200Y-41577500D03*
D10*
X289432200Y-33337500D03*
D11*
X290702200Y-30797500D03*
D12*
X294512200Y-33337500D03*
D11*
X297052200Y-28257500D03*
D10*
X299592200Y-33337500D03*
D31*
X306412200Y-26337500D03*
D32*
X306412200Y-41577500D03*
D13*
X287512200Y-30757500D03*
X300212200Y-28217500D03*
%TD*%
D10*
%TO.C,KB5*%
X110439107Y-41622223D03*
D11*
X112209450Y-39401776D03*
D12*
X115408097Y-42678415D03*
D11*
X118948783Y-38237521D03*
D10*
X120377087Y-43734606D03*
D26*
X109097476Y-38699412D03*
X122048046Y-38855396D03*
%TD*%
D10*
%TO.C,KE1*%
X47307500Y-90487500D03*
D11*
X48577500Y-87947500D03*
D12*
X52387500Y-90487500D03*
D11*
X54927500Y-85407500D03*
D10*
X57467500Y-90487500D03*
D13*
X45387500Y-87907500D03*
X58087500Y-85367500D03*
%TD*%
D22*
%TO.C,RGBC5*%
X121470372Y-67786411D03*
X121158505Y-69253633D03*
D23*
X126147058Y-70313983D03*
D22*
X126458925Y-68846761D03*
%TD*%
D10*
%TO.C,KC0*%
X18732500Y-52387500D03*
D11*
X20002500Y-49847500D03*
D12*
X23812500Y-52387500D03*
D11*
X26352500Y-47307500D03*
D10*
X28892500Y-52387500D03*
D13*
X16812500Y-49807500D03*
X29512500Y-47267500D03*
%TD*%
D10*
%TO.C,KA7*%
X157526844Y-21940347D03*
D11*
X158570636Y-19299325D03*
D12*
X162587513Y-21497596D03*
D11*
X164675096Y-16215551D03*
D10*
X167648182Y-21054845D03*
D50*
X155389288Y-19537504D03*
X167819585Y-15900291D03*
%TD*%
D16*
%TO.C,RGBD8*%
X193828505Y-84866761D03*
X194140372Y-86333983D03*
D17*
X199128925Y-85273633D03*
D16*
X198817058Y-83806411D03*
%TD*%
D32*
%TO.C,KF3*%
X101747195Y-109257559D03*
D31*
X98578621Y-124164528D03*
D10*
X106705905Y-118731051D03*
D11*
X108476248Y-116510604D03*
D12*
X111674895Y-119787243D03*
D11*
X115215581Y-115346349D03*
D10*
X116643885Y-120843434D03*
D32*
X125027108Y-114205857D03*
D31*
X121858534Y-129112827D03*
D26*
X105364274Y-115808240D03*
X118314844Y-115964224D03*
%TD*%
D22*
%TO.C,RGBB3*%
X74760372Y-38376411D03*
X74448505Y-39843633D03*
D23*
X79437058Y-40903983D03*
D22*
X79748925Y-39436761D03*
%TD*%
D14*
%TO.C,RGBF0*%
X21268715Y-113770197D03*
X21268715Y-115270197D03*
D15*
X26368715Y-115270197D03*
D14*
X26368715Y-113770197D03*
%TD*%
%TO.C,RGBA0*%
X16488715Y-13770197D03*
X16488715Y-15270197D03*
D15*
X21588715Y-15270197D03*
D14*
X21588715Y-13770197D03*
%TD*%
D33*
%TO.C,MountTopMiddle5*%
X274200000Y-21410000D03*
%TD*%
D10*
%TO.C,KF9*%
X320388500Y-111918700D03*
D11*
X321658500Y-109378700D03*
D12*
X325468500Y-111918700D03*
D11*
X328008500Y-106838700D03*
D10*
X330548500Y-111918700D03*
D13*
X318468500Y-109338700D03*
X331168500Y-106798700D03*
%TD*%
D14*
%TO.C,RGBE0*%
X18878715Y-94740197D03*
X18878715Y-96240197D03*
D15*
X23978715Y-96240197D03*
D14*
X23978715Y-94740197D03*
%TD*%
D22*
%TO.C,RGBC3*%
X84200162Y-59869847D03*
X83888295Y-61337069D03*
D23*
X88876848Y-62397419D03*
D22*
X89188715Y-60930197D03*
%TD*%
D10*
%TO.C,KD3*%
X84993207Y-75164723D03*
D11*
X86763550Y-72944276D03*
D12*
X89962197Y-76220915D03*
D11*
X93502883Y-71780021D03*
D10*
X94931187Y-77277106D03*
D26*
X83651576Y-72241912D03*
X96602146Y-72397896D03*
%TD*%
D10*
%TO.C,KE2*%
X68740707Y-91185723D03*
D11*
X70511050Y-88965276D03*
D12*
X73709697Y-92241915D03*
D11*
X77250383Y-87801021D03*
D10*
X78678687Y-93298106D03*
D26*
X67399076Y-88262912D03*
X80349646Y-88418896D03*
%TD*%
D10*
%TO.C,KF5*%
X224660839Y-112921999D03*
D11*
X225374991Y-110173456D03*
D12*
X229629829Y-111865807D03*
D11*
X231058132Y-106368722D03*
D10*
X234598819Y-110809616D03*
D27*
X222246383Y-110797568D03*
X234140762Y-105672595D03*
%TD*%
D22*
%TO.C,RGBE4*%
X107600372Y-103786411D03*
X107288505Y-105253633D03*
D23*
X112277058Y-106313983D03*
D22*
X112588925Y-104846761D03*
%TD*%
D10*
%TO.C,KD8*%
X190472325Y-81237788D03*
D11*
X191186477Y-78489246D03*
D12*
X195441315Y-80181597D03*
D11*
X196869618Y-74684512D03*
D10*
X200410305Y-79125406D03*
D27*
X188057869Y-79113358D03*
X199952248Y-73988385D03*
%TD*%
D10*
%TO.C,KD5*%
X122260607Y-83086123D03*
D11*
X124030950Y-80865676D03*
D12*
X127229597Y-84142315D03*
D11*
X130770283Y-79701421D03*
D10*
X132198587Y-85198506D03*
D26*
X120918976Y-80163312D03*
X133869546Y-80319296D03*
%TD*%
D14*
%TO.C,RGBC12*%
X291968715Y-56640197D03*
X291968715Y-58140197D03*
D15*
X297068715Y-58140197D03*
D14*
X297068715Y-56640197D03*
%TD*%
%TO.C,RGBF9*%
X322918715Y-116170197D03*
X322918715Y-117670197D03*
D15*
X328018715Y-117670197D03*
D14*
X328018715Y-116170197D03*
%TD*%
%TO.C,RGBD0*%
X21258715Y-75690197D03*
X21258715Y-77190197D03*
D15*
X26358715Y-77190197D03*
D14*
X26358715Y-75690197D03*
%TD*%
D16*
%TO.C,RGBC7*%
X196208505Y-64886761D03*
X196520372Y-66353983D03*
D17*
X201508925Y-65293633D03*
D16*
X201197058Y-63826411D03*
%TD*%
%TO.C,RGBE10*%
X228718505Y-96926761D03*
X229030372Y-98393983D03*
D17*
X234018925Y-97333633D03*
D16*
X233707058Y-95866411D03*
%TD*%
D10*
%TO.C,KC10*%
X251332200Y-52387500D03*
D11*
X252602200Y-49847500D03*
D12*
X256412200Y-52387500D03*
D11*
X258952200Y-47307500D03*
D10*
X261492200Y-52387500D03*
D13*
X249412200Y-49807500D03*
X262112200Y-47267500D03*
%TD*%
D14*
%TO.C,RGBA12*%
X260998715Y-13770197D03*
X260998715Y-15270197D03*
D15*
X266098715Y-15270197D03*
D14*
X266098715Y-13770197D03*
%TD*%
D16*
%TO.C,RGBC9*%
X233478505Y-56966761D03*
X233790372Y-58433983D03*
D17*
X238778925Y-57373633D03*
D16*
X238467058Y-55906411D03*
%TD*%
D51*
%TO.C,RGBA2*%
X57817603Y-14264331D03*
X57712968Y-15760677D03*
D52*
X62800545Y-16116435D03*
D51*
X62905180Y-14620089D03*
%TD*%
D22*
%TO.C,RGBB4*%
X93400162Y-42349847D03*
X93088295Y-43817069D03*
D23*
X98076848Y-44877419D03*
D22*
X98388715Y-43410197D03*
%TD*%
D16*
%TO.C,RGBC8*%
X214850162Y-60920547D03*
X215162029Y-62387769D03*
D17*
X220150582Y-61327419D03*
D16*
X219838715Y-59860197D03*
%TD*%
D22*
%TO.C,RGBB5*%
X112030162Y-46309847D03*
X111718295Y-47777069D03*
D23*
X116706848Y-48837419D03*
D22*
X117018715Y-47370197D03*
%TD*%
D14*
%TO.C,RGBB2*%
X54598715Y-35200197D03*
X54598715Y-36700197D03*
D15*
X59698715Y-36700197D03*
D14*
X59698715Y-35200197D03*
%TD*%
D10*
%TO.C,KA1*%
X35401300Y-9525000D03*
D11*
X36671300Y-6985000D03*
D12*
X40481300Y-9525000D03*
D11*
X43021300Y-4445000D03*
D10*
X45561300Y-9525000D03*
D13*
X33481300Y-6945000D03*
X46181300Y-4405000D03*
%TD*%
D33*
%TO.C,MountTopMiddle2*%
X61790000Y-102510000D03*
%TD*%
D22*
%TO.C,RGBF2*%
X71030162Y-115489847D03*
X70718295Y-116957069D03*
D23*
X75706848Y-118017419D03*
D22*
X76018715Y-116550197D03*
%TD*%
D10*
%TO.C,KE9*%
X206724825Y-97258888D03*
D11*
X207438977Y-94510346D03*
D12*
X211693815Y-96202697D03*
D11*
X213122118Y-90705612D03*
D10*
X216662805Y-95146506D03*
D27*
X204310369Y-95134458D03*
X216204748Y-90009485D03*
%TD*%
D16*
%TO.C,RGBE7*%
X172818505Y-108806761D03*
X173130372Y-110273983D03*
D17*
X178118925Y-109213633D03*
D16*
X177807058Y-107746411D03*
%TD*%
D22*
%TO.C,RGBD5*%
X123850162Y-87769847D03*
X123538295Y-89237069D03*
D23*
X128526848Y-90297419D03*
D22*
X128838715Y-88830197D03*
%TD*%
D14*
%TO.C,RGBB12*%
X263398715Y-37590197D03*
X263398715Y-39090197D03*
D15*
X268498715Y-39090197D03*
D14*
X268498715Y-37590197D03*
%TD*%
D53*
%TO.C,RGBA6*%
X138543785Y-25510804D03*
X138413052Y-27005096D03*
D54*
X143493645Y-27449590D03*
D53*
X143624378Y-25955298D03*
%TD*%
D14*
%TO.C,RGBD13*%
X301488715Y-75680197D03*
X301488715Y-77180197D03*
D15*
X306588715Y-77180197D03*
D14*
X306588715Y-75680197D03*
%TD*%
D22*
%TO.C,RGBD2*%
X67960162Y-75889847D03*
X67648295Y-77357069D03*
D23*
X72636848Y-78417419D03*
D22*
X72948715Y-76950197D03*
%TD*%
D14*
%TO.C,RGBE6*%
X149463715Y-118540197D03*
X149463715Y-120040197D03*
D15*
X154563715Y-120040197D03*
D14*
X154563715Y-118540197D03*
%TD*%
%TO.C,RGBD6*%
X149468715Y-99500197D03*
X149468715Y-101000197D03*
D15*
X154568715Y-101000197D03*
D14*
X154568715Y-99500197D03*
%TD*%
D10*
%TO.C,KE10*%
X225358525Y-93298088D03*
D11*
X226072677Y-90549546D03*
D12*
X230327515Y-92241897D03*
D11*
X231755818Y-86744812D03*
D10*
X235296505Y-91185706D03*
D27*
X222944069Y-91173658D03*
X234838448Y-86048685D03*
%TD*%
D45*
%TO.C,RGBI1*%
X5213715Y-35845197D03*
X3713715Y-35845197D03*
D46*
X3713715Y-40945197D03*
D45*
X5213715Y-40945197D03*
%TD*%
D22*
%TO.C,RGBA4*%
X97300372Y-19316411D03*
X96988505Y-20783633D03*
D23*
X101977058Y-21843983D03*
D22*
X102288925Y-20376761D03*
%TD*%
%TO.C,RGBD3*%
X86580162Y-79839847D03*
X86268295Y-81307069D03*
D23*
X91256848Y-82367419D03*
D22*
X91568715Y-80900197D03*
%TD*%
D10*
%TO.C,KF6*%
X251332250Y-109537500D03*
D11*
X252602250Y-106997500D03*
D12*
X256412250Y-109537500D03*
D11*
X258952250Y-104457500D03*
D10*
X261492250Y-109537500D03*
D13*
X249412250Y-106957500D03*
X262112250Y-104417500D03*
%TD*%
D10*
%TO.C,KB1*%
X33020000Y-33337500D03*
D11*
X34290000Y-30797500D03*
D12*
X38100000Y-33337500D03*
D11*
X40640000Y-28257500D03*
D10*
X43180000Y-33337500D03*
D13*
X31100000Y-30757500D03*
X43800000Y-28217500D03*
%TD*%
D10*
%TO.C,KD10*%
X227739725Y-73316388D03*
D11*
X228453877Y-70567846D03*
D12*
X232708715Y-72260197D03*
D11*
X234137018Y-66763112D03*
D10*
X237677705Y-71204006D03*
D27*
X225325269Y-71191958D03*
X237219648Y-66066985D03*
%TD*%
D10*
%TO.C,KF1*%
X42545050Y-109537500D03*
D11*
X43815050Y-106997500D03*
D12*
X47625050Y-109537500D03*
D11*
X50165050Y-104457500D03*
D10*
X52705050Y-109537500D03*
D13*
X40625050Y-106957500D03*
X53325050Y-104417500D03*
%TD*%
D22*
%TO.C,RGBE2*%
X70330372Y-95866411D03*
X70018505Y-97333633D03*
D23*
X75007058Y-98393983D03*
D22*
X75318925Y-96926761D03*
%TD*%
D10*
%TO.C,KE13*%
X301338500Y-92868700D03*
D11*
X302608500Y-90328700D03*
D12*
X306418500Y-92868700D03*
D11*
X308958500Y-87788700D03*
D10*
X311498500Y-92868700D03*
D13*
X299418500Y-90288700D03*
X312118500Y-87748700D03*
%TD*%
D10*
%TO.C,KE7*%
X169457425Y-105180288D03*
D11*
X170171577Y-102431746D03*
D12*
X174426415Y-104124097D03*
D11*
X175854718Y-98627012D03*
D10*
X179395405Y-103067906D03*
D27*
X167042969Y-103055858D03*
X178937348Y-97930885D03*
%TD*%
D22*
%TO.C,RGBC4*%
X102840372Y-63826411D03*
X102528505Y-65293633D03*
D23*
X107517058Y-66353983D03*
D22*
X107828925Y-64886761D03*
%TD*%
D55*
%TO.C,DC0*%
X30188715Y-44100197D03*
X26888715Y-44100197D03*
%TD*%
%TO.C,DC11*%
X279646215Y-44130197D03*
X276346215Y-44130197D03*
%TD*%
%TO.C,DE1*%
X58758715Y-82220197D03*
X55458715Y-82220197D03*
%TD*%
%TO.C,DC10*%
X262748715Y-44130197D03*
X259448715Y-44130197D03*
%TD*%
D56*
%TO.C,DD10*%
X237192659Y-62867143D03*
X233964771Y-63553251D03*
%TD*%
D55*
%TO.C,DE11*%
X258038715Y-82220197D03*
X254738715Y-82220197D03*
%TD*%
D57*
%TO.C,DF12*%
X331338715Y-31560197D03*
X331338715Y-28260197D03*
%TD*%
D55*
%TO.C,DB11*%
X253278715Y-22710197D03*
X249978715Y-22710197D03*
%TD*%
%TO.C,DA13*%
X291356215Y-1270197D03*
X288056215Y-1270197D03*
%TD*%
D58*
%TO.C,DC5*%
X132802659Y-57383251D03*
X129574771Y-56697143D03*
%TD*%
D59*
%TO.C,U1*%
X150128715Y-28470197D03*
X148228715Y-28470197D03*
X149178715Y-26595197D03*
%TD*%
D60*
%TO.C,C6*%
X153628715Y-34600197D03*
X153628715Y-33640197D03*
%TD*%
D61*
%TO.C,C9*%
X154609999Y-32224181D03*
X155569999Y-32224181D03*
%TD*%
D55*
%TO.C,DB0*%
X25408715Y-25070197D03*
X22108715Y-25070197D03*
%TD*%
D56*
%TO.C,DC9*%
X239562659Y-42867143D03*
X236334771Y-43553251D03*
%TD*%
%TO.C,DD8*%
X199932659Y-70787143D03*
X196704771Y-71473251D03*
%TD*%
D55*
%TO.C,DF7*%
X293736215Y-103660197D03*
X290436215Y-103660197D03*
%TD*%
D56*
%TO.C,DD9*%
X218532659Y-66827143D03*
X215304771Y-67513251D03*
%TD*%
D62*
%TO.C,R4*%
X151568715Y-30585197D03*
X151568715Y-31605197D03*
%TD*%
D63*
%TO.C,F1*%
X149168715Y-21915197D03*
X149168715Y-24715197D03*
%TD*%
D55*
%TO.C,DF9*%
X318478715Y-101110197D03*
X315178715Y-101110197D03*
%TD*%
D64*
%TO.C,R1*%
X150148715Y-17510197D03*
X150148715Y-16490197D03*
%TD*%
D65*
%TO.C,DA2*%
X67598715Y-2450197D03*
X64306753Y-2220001D03*
%TD*%
D56*
%TO.C,DB7*%
X174502659Y-37217143D03*
X171274771Y-37903251D03*
%TD*%
D64*
%TO.C,R2*%
X153878715Y-17530197D03*
X153878715Y-16510197D03*
%TD*%
D55*
%TO.C,DE12*%
X284178715Y-82240197D03*
X280878715Y-82240197D03*
%TD*%
D58*
%TO.C,DD5*%
X135152659Y-77383251D03*
X131924771Y-76697143D03*
%TD*%
D56*
%TO.C,DE8*%
X197582659Y-90777143D03*
X194354771Y-91463251D03*
%TD*%
%TO.C,DB9*%
X211742659Y-29277143D03*
X208514771Y-29963251D03*
%TD*%
D61*
%TO.C,C11*%
X158858715Y-36580197D03*
X159818715Y-36580197D03*
%TD*%
D58*
%TO.C,DE4*%
X118916603Y-93396305D03*
X115688715Y-92710197D03*
%TD*%
D61*
%TO.C,C1*%
X146488715Y-24950197D03*
X147448715Y-24950197D03*
%TD*%
D55*
%TO.C,DD12*%
X279456215Y-63150197D03*
X276156215Y-63150197D03*
%TD*%
D60*
%TO.C,C10*%
X150189182Y-34774354D03*
X150189182Y-33814354D03*
%TD*%
D66*
%TO.C,C14*%
X150658715Y-46690197D03*
X150658715Y-47650197D03*
%TD*%
D55*
%TO.C,DB2*%
X63528715Y-22700197D03*
X60228715Y-22700197D03*
%TD*%
D58*
%TO.C,DC3*%
X95502659Y-49473251D03*
X92274771Y-48787143D03*
%TD*%
D61*
%TO.C,C13*%
X159205298Y-40593127D03*
X160165298Y-40593127D03*
%TD*%
D67*
%TO.C,U4*%
X152958715Y-24527697D03*
X152008715Y-24527697D03*
X151058715Y-24527697D03*
X151058715Y-22252697D03*
X152008715Y-22252697D03*
X152958715Y-22252697D03*
%TD*%
D58*
%TO.C,DA4*%
X108626603Y-8956305D03*
X105398715Y-8270197D03*
%TD*%
D56*
%TO.C,DC7*%
X202312659Y-50807143D03*
X199084771Y-51493251D03*
%TD*%
D66*
%TO.C,C7*%
X149618715Y-46690197D03*
X149618715Y-47650197D03*
%TD*%
D58*
%TO.C,DE2*%
X81652659Y-85493251D03*
X78424771Y-84807143D03*
%TD*%
D68*
%TO.C,C12*%
X146848715Y-40600198D03*
X145888715Y-40600198D03*
%TD*%
D55*
%TO.C,DC13*%
X324706215Y-44080197D03*
X321406215Y-44080197D03*
%TD*%
%TO.C,DF6*%
X262778715Y-101270197D03*
X259478715Y-101270197D03*
%TD*%
%TO.C,DB12*%
X272316215Y-25070197D03*
X269016215Y-25070197D03*
%TD*%
D62*
%TO.C,R0*%
X171418714Y-30000196D03*
X171418714Y-31020196D03*
%TD*%
D55*
%TO.C,DD11*%
X260358715Y-63160197D03*
X257058715Y-63160197D03*
%TD*%
%TO.C,DB13*%
X300868715Y-25090196D03*
X297568715Y-25090196D03*
%TD*%
D56*
%TO.C,DE9*%
X216192659Y-86797143D03*
X212964771Y-87483251D03*
%TD*%
D58*
%TO.C,DD2*%
X79282659Y-65513251D03*
X76054771Y-64827143D03*
%TD*%
D55*
%TO.C,DD6*%
X158376215Y-86990197D03*
X155076215Y-86990197D03*
%TD*%
%TO.C,DF0*%
X30158715Y-101300197D03*
X26858715Y-101300197D03*
%TD*%
%TO.C,DA0*%
X25436215Y-1280197D03*
X22136215Y-1280197D03*
%TD*%
D58*
%TO.C,DC2*%
X76882659Y-45553251D03*
X73654771Y-44867143D03*
%TD*%
%TO.C,DB4*%
X104722659Y-31943251D03*
X101494771Y-31257143D03*
%TD*%
%TO.C,DB3*%
X86092659Y-28023251D03*
X82864771Y-27337143D03*
%TD*%
%TO.C,DD3*%
X97942659Y-69473251D03*
X94714771Y-68787143D03*
%TD*%
D56*
%TO.C,DA9*%
X207882659Y-6307143D03*
X204654771Y-6993251D03*
%TD*%
D55*
%TO.C,DD0*%
X30126215Y-63190197D03*
X26826215Y-63190197D03*
%TD*%
D56*
%TO.C,DD7*%
X181306603Y-74724089D03*
X178078715Y-75410197D03*
%TD*%
D58*
%TO.C,DB5*%
X123352659Y-35903251D03*
X120124771Y-35217143D03*
%TD*%
D56*
%TO.C,DF5*%
X234112659Y-102467143D03*
X230884771Y-103153251D03*
%TD*%
D58*
%TO.C,DE3*%
X100292659Y-89453251D03*
X97064771Y-88767143D03*
%TD*%
%TO.C,DE5*%
X137572659Y-97333251D03*
X134344771Y-96647143D03*
%TD*%
D55*
%TO.C,DF13*%
X143077697Y-122240000D03*
X139777697Y-122240000D03*
%TD*%
D56*
%TO.C,DB8*%
X193102659Y-33267143D03*
X189874771Y-33953251D03*
%TD*%
D69*
%TO.C,DA6*%
X139166492Y-13104004D03*
X135879050Y-12816390D03*
%TD*%
D68*
%TO.C,C5*%
X160868716Y-31010195D03*
X159908716Y-31010195D03*
%TD*%
D55*
%TO.C,DF1*%
X53968715Y-101280197D03*
X50668715Y-101280197D03*
%TD*%
D66*
%TO.C,C2*%
X157268715Y-47790197D03*
X157268715Y-48750197D03*
%TD*%
D55*
%TO.C,DE13*%
X312768715Y-84590197D03*
X309468715Y-84590197D03*
%TD*%
%TO.C,DA12*%
X269976215Y-1260197D03*
X266676215Y-1260197D03*
%TD*%
D61*
%TO.C,C17*%
X148228715Y-30035197D03*
X149188715Y-30035197D03*
%TD*%
D60*
%TO.C,C3*%
X151888715Y-48750197D03*
X151888715Y-47790197D03*
%TD*%
D55*
%TO.C,DE6*%
X158378715Y-106050197D03*
X155078715Y-106050197D03*
%TD*%
D70*
%TO.C,DA5*%
X129016416Y-12081281D03*
X125741014Y-11679113D03*
%TD*%
D62*
%TO.C,R3*%
X152568715Y-30580197D03*
X152568715Y-31600197D03*
%TD*%
D58*
%TO.C,DC4*%
X114152659Y-53423251D03*
X110924771Y-52737143D03*
%TD*%
%TO.C,DB6*%
X141972659Y-39853251D03*
X138744771Y-39167143D03*
%TD*%
D55*
%TO.C,DD13*%
X310428715Y-63180197D03*
X307128715Y-63180197D03*
%TD*%
D56*
%TO.C,DE7*%
X178922659Y-94697143D03*
X175694771Y-95383251D03*
%TD*%
D71*
%TO.C,DA10*%
X228432657Y-3220561D03*
X225164773Y-3679833D03*
%TD*%
D68*
%TO.C,C15*%
X148250877Y-35736851D03*
X147290877Y-35736851D03*
%TD*%
D72*
%TO.C,U3*%
X156718715Y-37002697D03*
X156718715Y-37402697D03*
X156718715Y-37802697D03*
X156718715Y-38202697D03*
X156718715Y-38602697D03*
X156718715Y-39002697D03*
X156718715Y-39402697D03*
X156718715Y-39802697D03*
X156718715Y-40202697D03*
X156718715Y-40602697D03*
X156718715Y-41002697D03*
X156718715Y-41402697D03*
X156718715Y-41802697D03*
X156718715Y-42202697D03*
D73*
X155881215Y-43040197D03*
X155481215Y-43040197D03*
X155081215Y-43040197D03*
X154681215Y-43040197D03*
X154281215Y-43040197D03*
X153881215Y-43040197D03*
X153481215Y-43040197D03*
X153081215Y-43040197D03*
X152681215Y-43040197D03*
X152281215Y-43040197D03*
X151881215Y-43040197D03*
X151481215Y-43040197D03*
X151081215Y-43040197D03*
X150681215Y-43040197D03*
D72*
X149843715Y-42202697D03*
X149843715Y-41802697D03*
X149843715Y-41402697D03*
X149843715Y-41002697D03*
X149843715Y-40602697D03*
X149843715Y-40202697D03*
X149843715Y-39802697D03*
X149843715Y-39402697D03*
X149843715Y-39002697D03*
X149843715Y-38602697D03*
X149843715Y-38202697D03*
X149843715Y-37802697D03*
X149843715Y-37402697D03*
X149843715Y-37002697D03*
D73*
X150681215Y-36165197D03*
X151081215Y-36165197D03*
X151481215Y-36165197D03*
X151881215Y-36165197D03*
X152281215Y-36165197D03*
X152681215Y-36165197D03*
X153081215Y-36165197D03*
X153481215Y-36165197D03*
X153881215Y-36165197D03*
X154281215Y-36165197D03*
X154681215Y-36165197D03*
X155081215Y-36165197D03*
X155481215Y-36165197D03*
X155881215Y-36165197D03*
D74*
X153281215Y-39602697D03*
%TD*%
D55*
%TO.C,DD1*%
X56368715Y-63170197D03*
X53068715Y-63170197D03*
%TD*%
D61*
%TO.C,C4*%
X154595857Y-31234231D03*
X155555857Y-31234231D03*
%TD*%
D75*
%TO.C,DA11*%
X249147440Y-1545099D03*
X245855478Y-1775295D03*
%TD*%
D76*
%TO.C,Y1*%
X153478715Y-47420197D03*
X155678715Y-47420197D03*
X155678715Y-49120197D03*
X153478715Y-49120197D03*
%TD*%
D56*
%TO.C,DC8*%
X220952659Y-46847143D03*
X217724771Y-47533251D03*
%TD*%
D77*
%TO.C,U2*%
X169718715Y-31005197D03*
X169718715Y-32275197D03*
X169718715Y-33545197D03*
X169718715Y-34815197D03*
X162518715Y-34815197D03*
X162518715Y-33545197D03*
X162518715Y-32275197D03*
X162518715Y-31005197D03*
%TD*%
D60*
%TO.C,C16*%
X149192163Y-34781424D03*
X149192163Y-33821424D03*
%TD*%
D64*
%TO.C,R6*%
X147608715Y-47680197D03*
X147608715Y-46660197D03*
%TD*%
D56*
%TO.C,DC6*%
X183692659Y-54767143D03*
X180464771Y-55453251D03*
%TD*%
D55*
%TO.C,DC12*%
X300918715Y-44110197D03*
X297618715Y-44110197D03*
%TD*%
%TO.C,DB1*%
X44478715Y-25090197D03*
X41178715Y-25090197D03*
%TD*%
D58*
%TO.C,DD4*%
X116572659Y-73423251D03*
X113344771Y-72737143D03*
%TD*%
D55*
%TO.C,DA1*%
X46866215Y-1290197D03*
X43566215Y-1290197D03*
%TD*%
D58*
%TO.C,DF2*%
X82362659Y-105133251D03*
X79134771Y-104447143D03*
%TD*%
D55*
%TO.C,DE0*%
X27798715Y-82240197D03*
X24498715Y-82240197D03*
%TD*%
%TO.C,DF11*%
X331858715Y-1280197D03*
X328558715Y-1280197D03*
%TD*%
D78*
%TO.C,DA3*%
X88252657Y-4999833D03*
X84984773Y-4540561D03*
%TD*%
D56*
%TO.C,DF4*%
X192192659Y-111377143D03*
X188964771Y-112063251D03*
%TD*%
D79*
%TO.C,DA7*%
X168236492Y-12726390D03*
X164949050Y-13014004D03*
%TD*%
D56*
%TO.C,DB10*%
X230402659Y-25327143D03*
X227174771Y-26013251D03*
%TD*%
D58*
%TO.C,DF3*%
X119602659Y-113033251D03*
X116374771Y-112347143D03*
%TD*%
D55*
%TO.C,DF8*%
X312748715Y-103630197D03*
X309448715Y-103630197D03*
%TD*%
D64*
%TO.C,R5*%
X153478715Y-45880197D03*
X153478715Y-44860197D03*
%TD*%
D80*
%TO.C,DA8*%
X187656416Y-10529113D03*
X184381014Y-10931281D03*
%TD*%
D55*
%TO.C,DC1*%
X53988715Y-44120197D03*
X50688715Y-44120197D03*
%TD*%
%TO.C,DF10*%
X312816215Y-1270197D03*
X309516215Y-1270197D03*
%TD*%
D60*
%TO.C,C8*%
X151186203Y-34767282D03*
X151186203Y-33807282D03*
%TD*%
D56*
%TO.C,DE10*%
X234802659Y-82837143D03*
X231574771Y-83523251D03*
%TD*%
D81*
%TO.C,JUSB1*%
X149025000Y-13725000D03*
X149875000Y-13725000D03*
X150725000Y-13725000D03*
X151575000Y-13725000D03*
X152425000Y-13725000D03*
X153275000Y-13725000D03*
X154125000Y-13725000D03*
X154975000Y-13725000D03*
X154975000Y-12375000D03*
X154125000Y-12375000D03*
X153275000Y-12375000D03*
X152425000Y-12375000D03*
X151575000Y-12375000D03*
X150725000Y-12375000D03*
X149875000Y-12375000D03*
X149025000Y-12375000D03*
D82*
X147675000Y-12745000D03*
X156325000Y-12745000D03*
X156325000Y-9365000D03*
X147675000Y-9365000D03*
%TD*%
M02*
