M48
; DRILL file {KiCad 7.0.10} date Mon Feb 26 23:28:32 2024
; FORMAT={-:-/ absolute / inch / decimal}
; #@! TF.CreationDate,2024-02-26T23:28:32+01:00
; #@! TF.GenerationSoftware,Kicad,Pcbnew,7.0.10
; #@! TF.FileFunction,Plated,1,2,PTH
FMAT,2
INCH
; #@! TA.AperFunction,Plated,PTH,ViaDrill
T1C0.0118
; #@! TA.AperFunction,Plated,PTH,ComponentDrill
T2C0.0138
; #@! TA.AperFunction,Plated,PTH,ViaDrill
T3C0.0157
; #@! TA.AperFunction,Plated,PTH,ComponentDrill
T4C0.0157
; #@! TA.AperFunction,Plated,PTH,ComponentDrill
T5C0.0236
; #@! TA.AperFunction,Plated,PTH,ComponentDrill
T6C0.0300
; #@! TA.AperFunction,Plated,PTH,ComponentDrill
T7C0.0394
; #@! TA.AperFunction,Plated,PTH,ComponentDrill
T8C0.0551
; #@! TA.AperFunction,Plated,PTH,ComponentDrill
T9C0.0866
%
G90
G05
T1
X0.1462Y-1.2935
X0.1462Y-1.6864
X0.2053Y-2.2373
X0.3403Y-2.6356
X0.3688Y-1.7006
X0.3974Y-0.7215
X0.4527Y-3.0803
X0.4582Y-3.0378
X0.4622Y-2.9953
X0.571Y-0.6014
X0.6316Y-1.6034
X0.7746Y-3.0931
X0.803Y-3.1217
X0.8187Y-2.351
X0.8297Y-3.1518
X0.9244Y-0.6012
X0.9244Y-1.5394
X1.0185Y-3.789
X1.1122Y-2.289
X1.1122Y-3.0386
X1.1125Y-4.5382
X1.2244Y-1.3697
X1.2244Y-1.5299
X1.2543Y-4.2803
X1.2625Y-0.987
X1.3181Y-0.628
X1.3181Y-0.7244
X1.3182Y-0.3717
X1.3527Y-0.987
X1.4287Y-1.7362
X1.519Y-3.9882
X1.5326Y-1.7362
X1.5994Y-2.0476
X1.5994Y-3.8341
X1.5996Y-2.3047
X1.608Y-2.4878
X1.6531Y-0.0504
X1.6748Y-1.5382
X1.6872Y-3.9882
X1.6932Y-2.8244
X1.7114Y-4.4091
X1.7688Y-0.6016
X1.7809Y-2.4878
X1.7811Y-0.0504
X1.7869Y-3.2827
X1.7869Y-3.5626
X1.8314Y-0.9445
X1.9744Y-1.3677
X2.0442Y-1.4947
X2.0499Y-2.289
X2.0499Y-4.5386
X2.0537Y-0.9443
X2.0988Y-0.5955
X2.0988Y-0.7349
X2.112Y-0.4081
X2.1437Y-3.039
X2.2377Y-3.789
X2.358Y-1.6935
X2.387Y-2.2687
X2.398Y-4.4091
X2.4255Y-1.4453
X2.436Y-2.04
X2.4521Y-2.4384
X2.457Y-0.0827
X2.4588Y-3.9217
X2.5301Y-2.8262
X2.546Y-0.639
X2.5722Y-3.8526
X2.5974Y-0.092
X2.6197Y-3.6352
X2.6903Y-3.3049
X2.699Y-2.4384
X2.7375Y-3.9805
X2.7568Y-1.54
X2.7588Y-0.9175
X2.7767Y-4.4896
X2.7978Y-1.3522
X2.8013Y-1.6935
X2.8381Y-2.3158
X2.8726Y-0.6915
X2.8726Y-0.8368
X2.9029Y-0.4703
X2.9322Y-3.1024
X2.9714Y-0.9626
X3.0259Y-3.889
X3.0531Y-4.6614
X3.0694Y-1.7504
X3.133Y-2.3709
X3.1501Y-2.5343
X3.173Y-2.1821
X3.2007Y-1.6252
X3.2651Y-2.977
X3.2716Y-0.1689
X3.2927Y-1.7978
X3.3204Y-0.7311
X3.3563Y-3.775
X3.3564Y-4.2002
X3.4072Y-2.5889
X3.411Y-0.188
X3.423Y-3.4597
X3.4982Y-1.6656
X3.521Y-1.0794
X3.5301Y-1.5163
X3.5716Y-2.4724
X3.6419Y-0.8049
X3.6419Y-0.9963
X3.6653Y-3.2579
X3.6946Y-0.5573
X3.7501Y-1.1282
X3.7517Y-4.1955
X3.759Y-4.0453
X3.7974Y-1.9049
X3.8663Y-2.5262
X3.884Y-2.6903
X3.9041Y-2.349
X3.9342Y-1.7819
X3.9543Y-4.7399
X3.9973Y-3.1388
X4.0135Y-1.9508
X4.0596Y-4.0736
X4.0751Y-0.3102
X4.0866Y-0.8752
X4.0915Y-3.9242
X4.1187Y-4.1955
X4.1194Y-2.7403
X4.1568Y-3.6167
X4.2128Y-0.339
X4.2289Y-1.8349
X4.2658Y-1.6593
X4.2868Y-4.8105
X4.3051Y-2.628
X4.3253Y-1.2505
X4.3996Y-3.4134
X4.4868Y-0.9774
X4.4868Y-1.1628
X4.4929Y-4.2012
X4.5127Y-0.7675
X4.5204Y-4.9736
X4.5246Y-2.0593
X4.5726Y-1.3031
X4.6Y-2.6815
X4.6214Y-2.847
X4.6387Y-2.5006
X4.6677Y-1.9374
X4.7332Y-3.2849
X4.7604Y-2.1093
X4.7933Y-4.2295
X4.827Y-4.0711
X4.8758Y-0.4511
X4.8832Y-2.9026
X4.8903Y-3.7723
X4.9354Y-1.0122
X4.962Y-1.9951
X5.002Y-1.8
X5.0155Y-0.4678
X5.0389Y-2.7839
X5.0604Y-1.4068
X5.133Y-3.5701
X5.2259Y-4.3575
X5.273Y-1.064
X5.273Y-1.2537
X5.2744Y-0.4984
X5.2931Y-1.4563
X5.2935Y-0.836
X5.4011Y-2.0933
X5.4145Y-0.5102
X5.4147Y-2.2482
X5.5303Y-1.4032
X5.5324Y-2.1778
X5.561Y-1.4032
X5.5901Y-3.6071
X5.5917Y-1.4032
X5.6224Y-1.4032
X5.6236Y-1.6032
X5.6531Y-1.4032
X5.6838Y-1.4032
X5.6915Y-1.7959
X5.7094Y-3.5791
X5.7094Y-4.3156
X5.7094Y-3.9388
X5.712Y-1.0274
X5.7145Y-1.4032
X5.7166Y-1.5982
X5.7236Y-1.0874
X5.735Y-0.5433
X5.7442Y-0.945
X5.7448Y-4.552
X5.7721Y-1.407
X5.7787Y-1.837
X5.8134Y-3.976
X5.849Y-1.8774
X5.8732Y-1.3048
X5.8736Y-1.4097
X5.8905Y-1.9043
X5.9102Y-1.1823
X5.913Y-1.3045
X5.9192Y-0.7315
X5.9314Y-1.9043
X5.9519Y-1.3045
X5.9566Y-3.3319
X5.9799Y-1.8382
X6.0091Y-1.4549
X6.0499Y-1.2957
X6.0618Y-0.9201
X6.07Y-1.4595
X6.074Y-1.6587
X6.0862Y-1.2032
X6.1009Y-1.3218
X6.1015Y-0.676
X6.1299Y-1.5827
X6.1507Y-1.23
X6.1516Y-1.2687
X6.1598Y-3.9764
X6.1598Y-4.726
X6.1918Y-1.8505
X6.2312Y-1.0884
X6.2314Y-1.4402
X6.2419Y-1.5978
X6.2512Y-4.7356
X6.261Y-1.2209
X6.2642Y-1.9616
X6.2704Y-2.0445
X6.2847Y-4.6768
X6.2918Y-1.9607
X6.3082Y-4.5634
X6.3188Y-1.4402
X6.3193Y-1.9603
X6.3322Y-1.5984
X6.3469Y-1.9595
X6.3736Y-1.4512
X6.3745Y-1.9595
X6.4204Y-1.4661
X6.4204Y-1.6849
X6.436Y-1.9543
X6.4466Y-4.59
X6.4478Y-4.5557
X6.4511Y-1.4661
X6.454Y-1.3809
X6.4671Y-4.4944
X6.4681Y-1.276
X6.4744Y-2.0444
X6.4818Y-1.4661
X6.4903Y-2.2623
X6.5125Y-1.3209
X6.5125Y-1.4661
X6.5433Y-1.4661
X6.5538Y-3.7896
X6.5597Y-0.5066
X6.5604Y-3.9793
X6.5744Y-1.4661
X6.5746Y-2.4195
X6.5811Y-1.663
X6.5952Y-1.0555
X6.6066Y-1.4661
X6.6092Y-4.2097
X6.6633Y-3.0544
X6.6708Y-0.7622
X6.6877Y-2.2898
X6.6877Y-3.0815
X6.7025Y-3.4156
X6.7055Y-0.9396
X6.795Y-2.627
X6.8375Y-2.8286
X6.911Y-2.0213
X6.9139Y-0.8637
X6.9348Y-1.0356
X6.9394Y-4.673
X6.9694Y-1.8065
X7.0072Y-1.3862
X7.0226Y-4.9445
X7.0718Y-4.4766
X7.0858Y-4.2835
X7.1034Y-4.477
X7.1214Y-0.4474
X7.1216Y-2.0447
X7.1604Y-1.7545
X7.1791Y-3.4973
X7.2234Y-1.3402
X7.2732Y-2.7102
X7.3238Y-0.4222
X7.3372Y-4.025
X7.3482Y-4.8753
X7.3527Y-3.7433
X7.3784Y-4.2246
X7.3803Y-0.9693
X7.4045Y-0.9074
X7.4339Y-3.2654
X7.4425Y-2.9036
X7.4437Y-1.991
X7.6082Y-4.9394
X7.6448Y-1.8642
X7.6667Y-2.677
X7.6769Y-0.8739
X7.6769Y-1.2437
X7.6885Y-4.2876
X7.7132Y-4.6132
X7.7522Y-0.7474
X7.7891Y-0.9207
X7.8185Y-4.1287
X7.8468Y-4.4496
X7.8574Y-4.4803
X7.9017Y-1.1959
X7.9037Y-0.3075
X7.908Y-1.6679
X7.9122Y-3.3413
X7.9129Y-4.2291
X7.9418Y-4.1941
X8.0062Y-2.5547
X8.0303Y-1.8693
X8.0437Y-3.6274
X8.0547Y-4.8174
X8.0783Y-3.9079
X8.1088Y-4.0526
X8.1213Y-0.2609
X8.1645Y-3.0849
X8.1653Y-1.8393
X8.1852Y-4.2291
X8.1893Y-1.9705
X8.1962Y-2.5644
X8.2251Y-0.8024
X8.2584Y-2.2963
X8.3787Y-1.7087
X8.3998Y-1.09
X8.5255Y-0.5799
X8.5511Y-0.762
X8.5519Y-3.9721
X8.6143Y-1.0444
X8.6387Y-1.499
X8.6456Y-3.1854
X8.7108Y-0.1667
X8.7401Y-2.3988
X8.7419Y-4.5794
X8.7665Y-1.715
X8.7814Y-3.4671
X8.9053Y-2.9597
X8.9242Y-1.8195
X8.9246Y-2.41
X8.9313Y-0.1355
X8.9417Y-1.6728
X8.9944Y-0.6823
X9.0004Y-2.1815
X9.0064Y-4.5233
X9.0097Y-4.0478
X9.0259Y-4.0252
X9.1122Y-1.5524
X9.1643Y-3.9616
X9.1828Y-0.9234
X9.2079Y-0.7138
X9.259Y-4.5886
X9.2653Y-4.6386
X9.2858Y-3.8161
X9.3084Y-3.9616
X9.311Y-0.4886
X9.3525Y-3.8951
X9.3799Y-3.9137
X9.3803Y-3.0291
X9.3807Y-0.7449
X9.3834Y-2.3128
X9.4445Y-1.3512
X9.4547Y-0.7209
X9.4728Y-2.2433
X9.4777Y-1.6877
X9.5281Y-0.0803
X9.5425Y-0.8957
X9.6253Y-2.4751
X9.698Y-0.7043
X9.7057Y-3.3258
X9.7256Y-2.811
X9.7413Y-1.8591
X9.7413Y-2.2486
X9.745Y-0.0649
X9.7612Y-1.6614
X9.7708Y-0.6158
X9.7889Y-1.6886
X9.7909Y-2.4752
X9.8193Y-2.0953
X9.8948Y-1.4453
X9.9535Y-0.65
X10.0489Y-0.6805
X10.0655Y-0.8941
X10.0822Y-3.789
X10.1008Y-0.439
X10.1759Y-3.039
X10.1945Y-1.3594
X10.1945Y-1.5094
X10.2696Y-2.2886
X10.27Y-4.539
X10.2931Y-0.94
X10.3521Y-0.0495
X10.3751Y-1.591
X10.4756Y-2.7959
X10.5507Y-0.6012
X10.5642Y-0.0492
X10.5694Y-1.8217
X10.6039Y-1.6614
X10.6452Y-1.539
X10.6631Y-3.2396
X10.7488Y-1.7642
X10.881Y-0.6822
X10.9259Y-3.0382
X10.9444Y-0.7406
X10.9445Y-0.437
X11.0045Y-4.4152
X11.02Y-2.289
X11.046Y-4.4882
X11.1137Y-3.789
X11.1175Y-3.0136
X11.1494Y-3.0136
X11.1789Y-3.0132
X11.1793Y-0.94
X11.1864Y-0.0496
X11.2576Y-4.5183
X11.3192Y-3.2728
X11.3194Y-1.3067
X11.3194Y-2.0789
X11.3197Y-1.5102
X11.396Y-0.6016
X11.4037Y-0.94
X11.4078Y-0.0496
X11.4466Y-2.8652
X11.4885Y-4.6327
X11.5155Y-2.1732
X11.5823Y-0.635
X11.6181Y-4.0311
X11.6944Y-2.6135
X11.6944Y-2.8041
X11.7061Y-3.1175
X11.7283Y-1.6197
X11.7474Y-4.5185
X11.7491Y-3.883
X11.7654Y-3.8604
X11.77Y-1.5386
X11.77Y-2.289
X11.7882Y-0.4291
X11.8108Y-3.8784
X11.8118Y-3.9059
X11.8891Y-4.0311
X11.8946Y-2.1404
X11.9118Y-3.2728
X11.9453Y-1.6492
X11.9533Y-1.5049
X11.9911Y-4.5185
X12.0947Y-1.8309
X12.1448Y-3.0386
X12.1474Y-2.1116
X12.2385Y-0.6012
X12.2385Y-3.8827
X12.2385Y-4.6323
X12.2569Y-2.0675
X12.2646Y-1.3496
X12.275Y-1.3803
X12.3006Y-3.9863
X12.3142Y-4.0103
X12.3673Y-0.7724
X12.3795Y-4.0799
X12.4946Y-4.5185
X12.5047Y-4.0606
X12.5381Y-0.414
X12.5385Y-3.9158
X12.5606Y-3.2974
X12.5624Y-1.6014
X12.6137Y-2.9894
X12.6419Y-1.6014
X12.7074Y-2.2886
X12.7525Y-4.5185
X12.7895Y-0.05
X12.8948Y-1.539
X12.9885Y-0.6016
X12.9885Y-4.6327
X12.9937Y-0.05
X13.1043Y-0.4994
X13.1043Y-0.9929
T2
X5.9845Y-1.509
X5.9845Y-1.5592
X5.9845Y-1.6094
X6.0347Y-1.509
X6.0347Y-1.5592
X6.0347Y-1.6094
X6.0849Y-1.509
X6.0849Y-1.5592
X6.0849Y-1.6094
T3
X0.5251Y-0.6634
X6.001Y-0.6154
X6.0897Y-0.4453
X8.1348Y-2.7805
X8.3919Y-2.5234
X8.8596Y-2.6077
X9.0938Y-2.3734
X9.8171Y-4.499
X10.0202Y-4.4254
X10.3037Y-4.5884
X10.5537Y-2.4782
X10.8927Y-4.527
T4
X5.8671Y-0.4872
X5.8671Y-0.5404
X5.9006Y-0.4872
X5.9006Y-0.5404
X5.9341Y-0.4872
X5.9341Y-0.5404
X5.9675Y-0.4872
X5.9675Y-0.5404
X6.001Y-0.4872
X6.001Y-0.5404
X6.0344Y-0.4872
X6.0344Y-0.5404
X6.0679Y-0.4872
X6.0679Y-0.5404
X6.1014Y-0.4872
X6.1014Y-0.5404
T6
X0.0887Y-0.2557
X0.0887Y-0.4526
X0.0887Y-0.6494
X0.0887Y-0.8463
X0.1173Y-2.3561
X0.1173Y-2.4545
X0.1173Y-2.553
T7
X12.6769Y-3.2747
X12.6769Y-3.3747
X12.6769Y-3.7834
X12.6769Y-3.8834
X12.6769Y-3.9834
T8
X0.1872Y-0.2163
X0.1872Y-0.4919
X0.1872Y-0.61
X0.1872Y-0.8856
T9
X1.1724Y-0.8398
X2.4327Y-4.0358
X5.9842Y-2.3295
X9.5354Y-4.0346
X10.7953Y-0.8429
X12.9287Y-2.5409
T5
G00X5.814Y-0.353
M15
G01X5.814Y-0.3844
M16
G05
G00X5.814Y-0.4722
M15
G01X5.814Y-0.5313
M16
G05
G00X6.1545Y-0.353
M15
G01X6.1545Y-0.3844
M16
G05
G00X6.1545Y-0.4722
M15
G01X6.1545Y-0.5313
M16
G05
M30
