M48
; DRILL file {KiCad 7.0.10} date Wed Apr  3 01:03:37 2024
; FORMAT={-:-/ absolute / inch / decimal}
; #@! TF.CreationDate,2024-04-03T01:03:37+02:00
; #@! TF.GenerationSoftware,Kicad,Pcbnew,7.0.10
; #@! TF.FileFunction,NonPlated,1,2,NPTH
FMAT,2
INCH
; #@! TA.AperFunction,NonPlated,NPTH,ComponentDrill
T1C0.0669
; #@! TA.AperFunction,NonPlated,NPTH,ComponentDrill
T2C0.1181
; #@! TA.AperFunction,NonPlated,NPTH,ComponentDrill
T3C0.1201
; #@! TA.AperFunction,NonPlated,NPTH,ComponentDrill
T4C0.1575
; #@! TA.AperFunction,NonPlated,NPTH,ComponentDrill
T5C0.1614
%
G90
G05
T1
X0.55Y-0.375
X0.55Y-1.3125
X0.6437Y-3.5625
X0.7375Y-2.0625
X0.7375Y-2.8125
X0.7375Y-4.3125
X0.95Y-0.375
X0.95Y-1.3125
X1.0437Y-3.5625
X1.1375Y-2.0625
X1.1375Y-2.8125
X1.1375Y-4.3125
X1.3Y-1.3125
X1.3938Y-0.375
X1.675Y-2.0625
X1.675Y-4.3125
X1.7Y-1.3125
X1.7688Y-2.8125
X1.7938Y-0.375
X1.8625Y-3.5625
X2.05Y-1.2187
X2.075Y-2.0625
X2.075Y-4.3125
X2.1688Y-2.8125
X2.1892Y-0.3881
X2.2625Y-3.5625
X2.45Y-1.2187
X2.5188Y-2.0166
X2.5882Y-0.416
X2.6126Y-2.8033
X2.7063Y-3.59
X2.7338Y-4.3626
X2.8808Y-1.3268
X2.9101Y-2.0998
X2.9818Y-0.4553
X3.0038Y-2.8865
X3.0976Y-3.6732
X3.1251Y-4.4457
X3.2524Y-2.1726
X3.272Y-1.41
X3.3462Y-2.9592
X3.3779Y-0.511
X3.4399Y-3.7459
X3.6144Y-1.4827
X3.6437Y-2.2557
X3.7374Y-3.0424
X3.7678Y-0.5763
X3.8312Y-3.8291
X3.986Y-2.3285
X4.0056Y-1.5659
X4.0798Y-3.1152
X4.1591Y-0.6594
X4.1735Y-3.9019
X4.201Y-4.6745
X4.348Y-1.6387
X4.3773Y-2.4117
X4.4711Y-3.1983
X4.5648Y-3.985
X4.5919Y-0.7422
X4.5923Y-4.7576
X4.7197Y-2.4844
X4.7393Y-1.7218
X4.8134Y-3.2711
X4.9072Y-4.0578
X4.9889Y-0.791
X5.0816Y-1.7946
X5.1109Y-2.5676
X5.2047Y-3.3543
X5.2984Y-4.141
X5.3696Y-0.8289
X5.4729Y-1.8778
X5.7681Y-0.8638
X5.785Y-3.75
X5.785Y-4.5
X6.185Y-3.75
X6.185Y-4.5
X6.2018Y-0.8638
X6.4971Y-1.8778
X6.6003Y-0.8289
X6.6716Y-4.141
X6.7653Y-3.3543
X6.8591Y-2.5676
X6.8884Y-1.7946
X6.9811Y-0.791
X7.0628Y-4.0578
X7.1566Y-3.2711
X7.1943Y-4.7966
X7.2307Y-1.7218
X7.2503Y-2.4844
X7.3781Y-0.7422
X7.4052Y-3.985
X7.4989Y-3.1983
X7.5856Y-4.7134
X7.5927Y-2.4117
X7.622Y-1.6387
X7.7964Y-3.9019
X7.8109Y-0.6594
X7.8902Y-3.1152
X7.9643Y-1.5659
X7.9839Y-2.3285
X8.1388Y-3.8291
X8.2021Y-0.5763
X8.2325Y-3.0424
X8.3263Y-2.2557
X8.3556Y-1.4827
X8.53Y-3.7459
X8.5921Y-0.511
X8.6238Y-2.9592
X8.6979Y-1.41
X8.7175Y-2.1726
X8.8449Y-4.4457
X8.8724Y-3.6732
X8.9661Y-2.8865
X8.9882Y-0.4553
X9.0599Y-2.0998
X9.0892Y-1.3268
X9.2362Y-4.3626
X9.2636Y-3.59
X9.3574Y-2.8033
X9.3818Y-0.416
X9.4511Y-2.0166
X9.52Y-1.2187
X9.7075Y-3.5625
X9.7808Y-0.3881
X9.8012Y-2.8125
X9.895Y-2.0625
X9.895Y-4.3125
X9.92Y-1.2187
X10.1075Y-3.5625
X10.1762Y-0.375
X10.2012Y-2.8125
X10.27Y-1.3125
X10.295Y-2.0625
X10.295Y-4.3125
X10.5512Y-2.8125
X10.5762Y-0.375
X10.645Y-2.0625
X10.67Y-1.3125
X10.7387Y-3.5625
X10.9512Y-2.8125
X11.02Y-0.375
X11.045Y-2.0625
X11.1137Y-4.4062
X11.1387Y-3.5625
X11.395Y-1.3125
X11.395Y-2.0625
X11.42Y-0.375
X11.5137Y-4.4062
X11.77Y-2.8125
X11.795Y-1.3125
X11.795Y-2.0625
X11.8637Y-0.375
X11.8637Y-3.6562
X11.8637Y-4.4062
X12.17Y-2.8125
X12.2637Y-0.375
X12.2637Y-3.6562
X12.2637Y-4.4062
X12.3325Y-2.0625
X12.52Y-1.3125
X12.6137Y-0.375
X12.6137Y-4.4062
X12.7325Y-2.0625
X12.92Y-1.3125
X13.0137Y-0.375
X13.0137Y-4.4062
T2
X0.6Y-0.275
X0.6Y-1.2125
X0.6937Y-3.4625
X0.7875Y-1.9625
X0.7875Y-2.7125
X0.7875Y-4.2125
X0.85Y-0.175
X0.85Y-1.1125
X0.9437Y-3.3625
X1.0375Y-1.8625
X1.0375Y-2.6125
X1.0375Y-4.1125
X1.35Y-1.2125
X1.4438Y-0.275
X1.6Y-1.1125
X1.6938Y-0.175
X1.725Y-1.9625
X1.725Y-4.2125
X1.8188Y-2.7125
X1.9125Y-3.4625
X1.975Y-1.8625
X1.975Y-4.1125
X2.0688Y-2.6125
X2.1Y-1.1187
X2.1625Y-3.3625
X2.246Y-0.2919
X2.35Y-1.0187
X2.5024Y-0.2095
X2.5885Y-1.9292
X2.6823Y-2.7159
X2.776Y-3.5026
X2.8035Y-4.2752
X2.8539Y-1.8834
X2.9476Y-2.6701
X2.9505Y-1.2394
X3.0414Y-3.4567
X3.0452Y-0.3633
X3.0688Y-4.2293
X3.2158Y-1.1935
X3.3067Y-0.299
X3.3221Y-2.0851
X3.4159Y-2.8718
X3.5096Y-3.6585
X3.5875Y-2.0393
X3.6812Y-2.826
X3.6841Y-1.3953
X3.775Y-3.6127
X3.8375Y-0.4889
X3.9494Y-1.3495
X4.0557Y-2.2411
X4.1028Y-0.443
X4.1495Y-3.0278
X4.2432Y-3.8144
X4.2707Y-4.587
X4.3211Y-2.1952
X4.4148Y-2.9819
X4.4177Y-1.5513
X4.5086Y-3.7686
X4.536Y-4.5412
X4.6537Y-0.6491
X4.683Y-1.5054
X4.7894Y-2.397
X4.8831Y-3.1837
X4.914Y-0.5803
X4.9769Y-3.9704
X5.0547Y-2.3512
X5.1484Y-3.1379
X5.1513Y-1.7072
X5.2422Y-3.9245
X5.4166Y-1.6613
X5.4282Y-0.7337
X5.6859Y-0.6558
X5.835Y-3.65
X5.835Y-4.4
X6.085Y-3.55
X6.085Y-4.3
X6.2429Y-0.7598
X6.4833Y-0.6384
X6.5252Y-1.7696
X6.6997Y-4.0327
X6.749Y-1.6198
X6.7934Y-3.2461
X6.8872Y-2.4594
X6.9234Y-3.883
X7.0172Y-3.0963
X7.0185Y-0.6856
X7.1109Y-2.3096
X7.2224Y-4.6884
X7.2544Y-0.5559
X7.2588Y-1.6136
X7.4333Y-3.8768
X7.4462Y-4.5386
X7.4826Y-1.4638
X7.527Y-3.0901
X7.6208Y-2.3034
X7.657Y-3.727
X7.7508Y-2.9403
X7.839Y-0.5512
X7.8445Y-2.1537
X7.9924Y-1.4577
X8.0627Y-0.4014
X8.1669Y-3.7209
X8.2162Y-1.3079
X8.2606Y-2.9342
X8.3544Y-2.1475
X8.3906Y-3.5711
X8.4844Y-2.7844
X8.5781Y-1.9977
X8.6277Y-0.405
X8.7261Y-1.3018
X8.8613Y-0.2712
X8.873Y-4.3375
X8.9005Y-3.5649
X8.9498Y-1.152
X8.9942Y-2.7783
X9.088Y-1.9916
X9.0968Y-4.1877
X9.1242Y-3.4152
X9.218Y-2.6285
X9.3117Y-1.8418
X9.4247Y-0.3128
X9.57Y-1.1187
X9.6671Y-0.1956
X9.7575Y-3.4625
X9.82Y-1.0187
X9.8512Y-2.7125
X9.945Y-1.9625
X9.945Y-4.2125
X10.0075Y-3.3625
X10.1012Y-2.6125
X10.195Y-1.8625
X10.195Y-4.1125
X10.2262Y-0.275
X10.32Y-1.2125
X10.4762Y-0.175
X10.57Y-1.1125
X10.6012Y-2.7125
X10.695Y-1.9625
X10.7887Y-3.4625
X10.8512Y-2.6125
X10.945Y-1.8625
X11.0387Y-3.3625
X11.07Y-0.275
X11.1637Y-4.3062
X11.32Y-0.175
X11.4137Y-4.2062
X11.445Y-1.2125
X11.445Y-1.9625
X11.695Y-1.1125
X11.695Y-1.8625
X11.82Y-2.7125
X11.9137Y-0.275
X11.9137Y-3.5562
X11.9137Y-4.3062
X12.07Y-2.6125
X12.1637Y-0.175
X12.1637Y-3.4562
X12.1637Y-4.2062
X12.3825Y-1.9625
X12.57Y-1.2125
X12.6325Y-1.8625
X12.6637Y-0.275
X12.6637Y-4.3062
X12.82Y-1.1125
X12.9137Y-0.175
X12.9137Y-4.2062
T3
X0.3752Y-3.2869
X1.3123Y-3.2869
X3.881Y-4.8884
X4.7976Y-5.0832
X6.989Y-5.122
X7.9055Y-4.9272
X11.1265Y-1.0369
X11.5015Y-2.5369
X12.0635Y-1.0369
X12.4385Y-2.5369
T4
X0.3752Y-3.8869
X1.3123Y-3.8869
X4.0058Y-4.3015
X4.9223Y-4.4963
X6.8642Y-4.5351
X7.7807Y-4.3403
X11.1265Y-1.6369
X11.5015Y-3.1369
X12.0635Y-1.6369
X12.4385Y-3.1369
T5
X0.75Y-0.375
X0.75Y-1.3125
X0.8438Y-3.5625
X0.9375Y-2.0625
X0.9375Y-2.8125
X0.9375Y-4.3125
X1.5Y-1.3125
X1.5938Y-0.375
X1.875Y-2.0625
X1.875Y-4.3125
X1.9688Y-2.8125
X2.0625Y-3.5625
X2.25Y-1.2187
X2.3887Y-0.4021
X2.7145Y-2.0582
X2.8082Y-2.8449
X2.902Y-3.6316
X2.9294Y-4.4042
X3.0764Y-1.3684
X3.1798Y-0.4832
X3.4481Y-2.2141
X3.5418Y-3.0008
X3.6356Y-3.7875
X3.81Y-1.5243
X3.9635Y-0.6179
X4.1817Y-2.3701
X4.2754Y-3.1568
X4.3692Y-3.9434
X4.3966Y-4.716
X4.5436Y-1.6803
X4.7904Y-0.7666
X4.9153Y-2.526
X5.009Y-3.3127
X5.1028Y-4.0994
X5.2772Y-1.8362
X5.5689Y-0.8464
X5.985Y-3.75
X5.985Y-4.5
X6.4011Y-0.8464
X6.6927Y-1.8362
X6.8672Y-4.0994
X6.9609Y-3.3127
X7.0547Y-2.526
X7.1796Y-0.7666
X7.3899Y-4.755
X7.4263Y-1.6803
X7.6008Y-3.9434
X7.6945Y-3.1568
X7.7883Y-2.3701
X8.0065Y-0.6179
X8.16Y-1.5243
X8.3344Y-3.7875
X8.4282Y-3.0008
X8.5219Y-2.2141
X8.7901Y-0.4832
X8.8936Y-1.3684
X9.0405Y-4.4042
X9.068Y-3.6316
X9.1618Y-2.8449
X9.2555Y-2.0582
X9.5813Y-0.4021
X9.72Y-1.2187
X9.9075Y-3.5625
X10.0012Y-2.8125
X10.095Y-2.0625
X10.095Y-4.3125
X10.3762Y-0.375
X10.47Y-1.3125
X10.7512Y-2.8125
X10.845Y-2.0625
X10.9387Y-3.5625
X11.22Y-0.375
X11.3137Y-4.4062
X11.595Y-1.3125
X11.595Y-2.0625
X11.97Y-2.8125
X12.0637Y-0.375
X12.0637Y-3.6562
X12.0637Y-4.4062
X12.5325Y-2.0625
X12.72Y-1.3125
X12.8137Y-0.375
X12.8137Y-4.4062
M30
