%TF.GenerationSoftware,KiCad,Pcbnew,(6.0.1)*%
%TF.CreationDate,2022-02-07T12:21:29+01:00*%
%TF.ProjectId,base,62617365-2e6b-4696-9361-645f70636258,rev?*%
%TF.SameCoordinates,Original*%
%TF.FileFunction,Soldermask,Top*%
%TF.FilePolarity,Negative*%
%FSLAX46Y46*%
G04 Gerber Fmt 4.6, Leading zero omitted, Abs format (unit mm)*
G04 Created by KiCad (PCBNEW (6.0.1)) date 2022-02-07 12:21:29*
%MOMM*%
%LPD*%
G01*
G04 APERTURE LIST*
%ADD10C,0.800000*%
%ADD11C,4.500000*%
G04 APERTURE END LIST*
D10*
%TO.C,MountBaseMiddleTop1*%
X63056726Y-80065274D03*
X61890000Y-82882000D03*
X63540000Y-81232000D03*
X60240000Y-81232000D03*
D11*
X61890000Y-81232000D03*
D10*
X61890000Y-79582000D03*
X63056726Y-82398726D03*
X60723274Y-80065274D03*
X60723274Y-82398726D03*
%TD*%
%TO.C,MountBaseMiddleTop2*%
X60723274Y-208398726D03*
X61890000Y-205582000D03*
D11*
X61890000Y-207232000D03*
D10*
X60723274Y-206065274D03*
X61890000Y-208882000D03*
X63056726Y-208398726D03*
X63056726Y-206065274D03*
X60240000Y-207232000D03*
X63540000Y-207232000D03*
%TD*%
%TO.C,MountBaseMiddleTop5*%
X243723274Y-82398726D03*
X243723274Y-80065274D03*
D11*
X244890000Y-81232000D03*
D10*
X246540000Y-81232000D03*
X246056726Y-82398726D03*
X244890000Y-79582000D03*
X244890000Y-82882000D03*
X246056726Y-80065274D03*
X243240000Y-81232000D03*
%TD*%
%TO.C,MountBaseMiddleTop6*%
X243723274Y-206065274D03*
X246056726Y-208398726D03*
X244890000Y-208882000D03*
X243723274Y-208398726D03*
X243240000Y-207232000D03*
X246540000Y-207232000D03*
X246056726Y-206065274D03*
D11*
X244890000Y-207232000D03*
D10*
X244890000Y-205582000D03*
%TD*%
%TO.C,MountBaseMiddleTop8*%
X376890000Y-205582000D03*
X375240000Y-207232000D03*
X375723274Y-206065274D03*
X378540000Y-207232000D03*
D11*
X376890000Y-207232000D03*
D10*
X375723274Y-208398726D03*
X378056726Y-206065274D03*
X378056726Y-208398726D03*
X376890000Y-208882000D03*
%TD*%
%TO.C,MountBaseMiddleTop7*%
X378056726Y-82398726D03*
X376890000Y-79582000D03*
X378056726Y-80065274D03*
D11*
X376890000Y-81232000D03*
D10*
X376890000Y-82882000D03*
X378540000Y-81232000D03*
X375723274Y-82398726D03*
X375240000Y-81232000D03*
X375723274Y-80065274D03*
%TD*%
%TO.C,MountBaseMiddleTop4*%
X125890000Y-208882000D03*
X124723274Y-206065274D03*
X127056726Y-206065274D03*
X124240000Y-207232000D03*
X124723274Y-208398726D03*
X125890000Y-205582000D03*
X127540000Y-207232000D03*
X127056726Y-208398726D03*
D11*
X125890000Y-207232000D03*
%TD*%
D10*
%TO.C,MountBaseMiddleTop3*%
X127540000Y-81232000D03*
X124240000Y-81232000D03*
X124723274Y-80065274D03*
X127056726Y-82398726D03*
X124723274Y-82398726D03*
D11*
X125890000Y-81232000D03*
D10*
X125890000Y-82882000D03*
X125890000Y-79582000D03*
X127056726Y-80065274D03*
%TD*%
M02*
