%TF.GenerationSoftware,KiCad,Pcbnew,(5.1.10)-1*%
%TF.CreationDate,2022-01-11T00:39:54+01:00*%
%TF.ProjectId,middle,6d696464-6c65-42e6-9b69-6361645f7063,rev?*%
%TF.SameCoordinates,Original*%
%TF.FileFunction,Profile,NP*%
%FSLAX46Y46*%
G04 Gerber Fmt 4.6, Leading zero omitted, Abs format (unit mm)*
G04 Created by KiCad (PCBNEW (5.1.10)-1) date 2022-01-11 00:39:54*
%MOMM*%
%LPD*%
G01*
G04 APERTURE LIST*
%TA.AperFunction,Profile*%
%ADD10C,0.050000*%
%TD*%
G04 APERTURE END LIST*
D10*
X126990000Y-81232000D02*
G75*
G03*
X126990000Y-81232000I-1100000J0D01*
G01*
X231399400Y-79803900D02*
G75*
G03*
X231399400Y-79803900I-1600000J0D01*
G01*
X377990000Y-81232001D02*
G75*
G03*
X377990000Y-81232001I-1100000J0D01*
G01*
X245990000Y-81232000D02*
G75*
G03*
X245990000Y-81232000I-1100000J0D01*
G01*
X62990000Y-81232000D02*
G75*
G03*
X62990000Y-81232000I-1100000J0D01*
G01*
X377990000Y-207232149D02*
G75*
G03*
X377990000Y-207232149I-1100000J0D01*
G01*
X245990000Y-207232000D02*
G75*
G03*
X245990000Y-207232000I-1100000J0D01*
G01*
X62990000Y-207232000D02*
G75*
G03*
X62990000Y-207232000I-1100000J0D01*
G01*
X174178012Y-219232000D02*
X196489483Y-219232000D01*
X213540000Y-79803900D02*
G75*
G03*
X213540000Y-79803900I-1600000J0D01*
G01*
X196489483Y-219232000D02*
X222613839Y-212232000D01*
X376890000Y-212232000D02*
X236799400Y-212232000D01*
X56889999Y-81232001D02*
G75*
G02*
X61890000Y-76232000I5000001J0D01*
G01*
X61890000Y-212232000D02*
X148053656Y-212232000D01*
X236799400Y-212232000D02*
X222613839Y-212232000D01*
X126990000Y-207232000D02*
G75*
G03*
X126990000Y-207232000I-1100000J0D01*
G01*
X148053656Y-212232000D02*
X174178012Y-219232000D01*
X376890000Y-76232000D02*
G75*
G02*
X381890000Y-81232000I0J-5000000D01*
G01*
X61890000Y-212232000D02*
G75*
G02*
X56890000Y-207232000I0J5000000D01*
G01*
X381890000Y-207232000D02*
G75*
G02*
X376890000Y-212232000I-5000000J0D01*
G01*
X376890000Y-76232000D02*
X61890000Y-76232000D01*
X381890000Y-207232000D02*
X381890000Y-81232000D01*
X56890000Y-81232000D02*
X56890000Y-207232000D01*
M02*
