M48
; DRILL file {KiCad (6.0.1)} date Mon Feb  7 12:23:29 2022
; FORMAT={-:-/ absolute / metric / decimal}
; #@! TF.CreationDate,2022-02-07T12:23:29+01:00
; #@! TF.GenerationSoftware,Kicad,Pcbnew,(6.0.1)
; #@! TF.FileFunction,MixedPlating,1,2
FMAT,2
METRIC
; #@! TA.AperFunction,Plated,PTH,ViaDrill
T1C0.400
; #@! TA.AperFunction,Plated,PTH,ComponentDrill
T2C0.400
; #@! TA.AperFunction,Plated,PTH,ComponentDrill
T3C0.762
; #@! TA.AperFunction,Plated,PTH,ComponentDrill
T4C0.800
; #@! TA.AperFunction,Plated,PTH,ComponentDrill
T5C0.813
; #@! TA.AperFunction,Plated,PTH,ComponentDrill
T6C1.000
; #@! TA.AperFunction,Plated,PTH,ComponentDrill
T7C1.092
; #@! TA.AperFunction,Plated,PTH,ComponentDrill
T8C1.400
; #@! TA.AperFunction,Plated,PTH,ComponentDrill
T9C1.500
; #@! TA.AperFunction,Plated,PTH,ComponentDrill
T10C2.200
; #@! TA.AperFunction,Plated,PTH,ComponentDrill
T11C3.200
; #@! TA.AperFunction,NonPlated,NPTH,ComponentDrill
T12C1.700
; #@! TA.AperFunction,NonPlated,NPTH,ComponentDrill
T13C3.000
; #@! TA.AperFunction,NonPlated,NPTH,ComponentDrill
T14C3.050
; #@! TA.AperFunction,NonPlated,NPTH,ComponentDrill
T15C4.000
; #@! TA.AperFunction,NonPlated,NPTH,ComponentDrill
T16C4.100
%
G90
G05
T1
X61.33Y-101.27
X87.74Y-102.012
X106.098Y-102.724
X124.411Y-103.451
X142.744Y-104.178
X166.087Y-104.905
X184.4Y-105.632
X202.763Y-106.359
X221.066Y-107.086
X244.439Y-107.813
X262.762Y-108.54
X281.065Y-109.267
X299.378Y-109.994
X321.507Y-114.23
X342.818Y-110.014
X346.729Y-115.145
X354.372Y-111.16
X363.056Y-155.028
T2
X60.24Y-81.232
X60.24Y-207.232
X60.723Y-80.065
X60.723Y-82.399
X60.723Y-206.065
X60.723Y-208.399
X61.89Y-79.582
X61.89Y-82.882
X61.89Y-205.582
X61.89Y-208.882
X63.057Y-80.065
X63.057Y-82.399
X63.057Y-206.065
X63.057Y-208.399
X63.54Y-81.232
X63.54Y-207.232
X124.24Y-81.232
X124.24Y-207.232
X124.723Y-80.065
X124.723Y-82.399
X124.723Y-206.065
X124.723Y-208.399
X125.89Y-79.582
X125.89Y-82.882
X125.89Y-205.582
X125.89Y-208.882
X127.057Y-80.065
X127.057Y-82.399
X127.057Y-206.065
X127.057Y-208.399
X127.54Y-81.232
X127.54Y-207.232
X243.24Y-81.232
X243.24Y-207.232
X243.723Y-80.065
X243.723Y-82.399
X243.723Y-206.065
X243.723Y-208.399
X244.89Y-79.582
X244.89Y-82.882
X244.89Y-205.582
X244.89Y-208.882
X246.057Y-80.065
X246.057Y-82.399
X246.057Y-206.065
X246.057Y-208.399
X246.54Y-81.232
X246.54Y-207.232
X375.24Y-81.232
X375.24Y-207.232
X375.723Y-80.065
X375.723Y-82.399
X375.723Y-206.065
X375.723Y-208.399
X376.89Y-79.582
X376.89Y-82.882
X376.89Y-205.582
X376.89Y-208.882
X378.057Y-80.065
X378.057Y-82.399
X378.057Y-206.065
X378.057Y-208.399
X378.54Y-81.232
X378.54Y-207.232
T3
X316.55Y-78.182
X321.55Y-78.182
T4
X74.65Y-89.532
X74.65Y-99.692
X74.69Y-113.662
X74.69Y-123.822
X77.323Y-189.851
X77.323Y-200.011
X79.83Y-132.73
X79.83Y-142.89
X82.149Y-151.724
X82.149Y-161.884
X93.72Y-113.662
X93.72Y-123.822
X96.05Y-170.732
X96.05Y-180.892
X98.486Y-189.751
X98.486Y-199.911
X103.26Y-132.72
X103.26Y-142.88
X103.32Y-89.532
X103.32Y-99.692
X108.021Y-151.744
X108.021Y-161.904
X112.77Y-113.662
X112.77Y-123.822
X117.526Y-170.761
X117.526Y-180.921
X120.189Y-189.861
X120.189Y-200.021
X122.3Y-132.72
X122.3Y-142.88
X122.33Y-89.59
X122.33Y-99.75
X127.081Y-151.764
X127.081Y-161.924
X131.85Y-113.612
X131.85Y-123.772
X136.576Y-170.771
X136.576Y-180.931
X141.37Y-132.702
X141.37Y-142.862
X141.4Y-89.532
X141.4Y-99.692
X142.41Y-204.57
X145.04Y-194.756
X146.111Y-151.674
X146.111Y-161.834
X150.9Y-113.662
X150.9Y-123.822
X155.636Y-170.764
X155.636Y-180.924
X160.41Y-132.692
X160.41Y-142.852
X160.45Y-89.532
X160.45Y-99.692
X165.181Y-151.694
X165.181Y-161.854
X169.94Y-113.592
X169.94Y-123.752
X174.686Y-170.844
X174.686Y-181.004
X179.03Y-214.412
X179.46Y-132.682
X179.46Y-142.842
X181.66Y-204.598
X184.211Y-151.751
X184.211Y-161.911
X184.58Y-89.532
X184.58Y-99.692
X188.97Y-113.662
X188.97Y-123.822
X193.726Y-170.802
X193.726Y-180.962
X198.52Y-132.682
X198.52Y-142.842
X203.281Y-151.714
X203.281Y-161.874
X203.62Y-89.532
X203.62Y-99.692
X208.04Y-113.642
X208.04Y-123.802
X212.776Y-170.78
X212.776Y-180.94
X217.57Y-132.682
X217.57Y-142.842
X222.331Y-151.76
X222.331Y-161.92
X222.67Y-89.532
X222.67Y-99.692
X222.94Y-195.408
X225.57Y-205.222
X227.08Y-113.662
X227.08Y-123.822
X231.856Y-170.8
X231.856Y-180.96
X236.61Y-132.701
X236.61Y-142.861
X241.361Y-151.724
X241.361Y-161.884
X241.6Y-190.436
X241.7Y-89.59
X241.7Y-99.75
X244.23Y-200.25
X246.14Y-113.642
X246.14Y-123.802
X250.886Y-170.811
X250.886Y-180.971
X255.65Y-132.701
X255.65Y-142.861
X260.411Y-151.714
X260.411Y-161.874
X264.893Y-189.881
X264.893Y-200.041
X265.18Y-113.642
X265.18Y-123.802
X265.8Y-89.532
X265.8Y-99.692
X269.96Y-170.801
X269.96Y-180.961
X274.72Y-132.722
X274.72Y-142.882
X279.471Y-151.704
X279.471Y-161.864
X283.936Y-189.83
X283.936Y-199.99
X284.24Y-113.612
X284.24Y-123.772
X284.85Y-89.532
X284.85Y-99.692
X289.016Y-170.751
X289.016Y-180.911
X293.78Y-132.702
X293.78Y-142.862
X298.508Y-151.75
X298.508Y-161.91
X302.989Y-189.841
X302.989Y-200.001
X303.28Y-113.642
X303.28Y-123.802
X303.93Y-89.532
X303.93Y-99.692
X312.81Y-132.702
X312.81Y-142.862
X315.41Y-170.802
X315.41Y-180.962
X322.99Y-89.582
X322.99Y-99.742
X325.825Y-87.758
X325.825Y-97.918
X327.091Y-194.9
X327.091Y-205.06
X328.594Y-87.758
X328.594Y-97.918
X336.901Y-132.691
X336.901Y-142.851
X339.02Y-151.862
X339.02Y-162.022
X341.24Y-113.62
X341.24Y-123.78
X346.141Y-194.863
X346.141Y-205.023
X346.151Y-175.81
X346.151Y-185.97
X364.56Y-103.192
X365.171Y-194.88
X365.171Y-205.04
X367.309Y-146.082
X367.309Y-184.131
X367.334Y-165.132
X374.72Y-103.192
X377.469Y-146.082
X377.469Y-184.131
X377.494Y-165.132
T5
X341.29Y-80.952
X343.83Y-80.952
X346.37Y-80.952
X348.91Y-80.952
T6
X368.15Y-106.462
X368.15Y-120.962
X370.65Y-120.962
X373.15Y-106.462
X373.15Y-120.962
T7
X344.21Y-118.31
X344.21Y-120.85
X344.21Y-123.39
X344.21Y-125.93
X344.21Y-128.47
X344.21Y-131.01
X344.21Y-133.55
X344.21Y-136.09
X344.21Y-138.63
X344.21Y-141.17
X344.21Y-143.71
X344.21Y-146.25
X346.75Y-146.25
X349.29Y-146.25
X351.83Y-146.25
X354.37Y-146.25
X356.91Y-146.25
X359.45Y-118.31
X359.45Y-120.85
X359.45Y-123.39
X359.45Y-125.93
X359.45Y-128.47
X359.45Y-131.01
X359.45Y-133.55
X359.45Y-136.09
X359.45Y-138.63
X359.45Y-141.17
X359.45Y-143.71
X359.45Y-146.25
T8
X315.55Y-80.682
X322.55Y-80.682
T10
X61.89Y-81.232
X61.89Y-207.232
X125.89Y-81.232
X125.89Y-207.232
X244.89Y-81.232
X244.89Y-207.232
X376.89Y-81.232
X376.89Y-207.232
T11
X211.952Y-79.784
X229.811Y-79.784
T12
X61.335Y-94.664
X61.335Y-118.764
X63.716Y-194.964
X66.097Y-137.814
X68.479Y-156.864
X71.495Y-94.664
X71.495Y-118.764
X73.241Y-175.914
X73.876Y-194.964
X76.257Y-137.814
X78.639Y-156.864
X80.385Y-118.764
X83.401Y-175.914
X85.147Y-194.964
X89.91Y-137.814
X89.985Y-94.664
X90.545Y-118.764
X94.672Y-156.864
X95.307Y-194.964
X99.435Y-118.764
X100.07Y-137.814
X100.145Y-94.664
X104.197Y-175.914
X104.832Y-156.864
X106.579Y-194.964
X108.96Y-137.814
X109.035Y-94.664
X109.595Y-118.764
X113.722Y-156.864
X114.358Y-175.914
X116.739Y-194.964
X118.485Y-118.764
X119.12Y-137.814
X119.195Y-94.664
X123.247Y-175.914
X123.882Y-156.864
X128.01Y-137.814
X128.085Y-94.664
X128.645Y-118.764
X130.825Y-196.199
X132.773Y-156.864
X133.407Y-175.914
X137.535Y-118.764
X138.17Y-137.814
X138.245Y-94.664
X140.639Y-198.829
X142.297Y-175.914
X142.933Y-156.864
X147.06Y-137.814
X147.135Y-94.664
X147.695Y-118.764
X151.822Y-156.864
X152.457Y-175.914
X156.585Y-118.764
X157.22Y-137.814
X157.295Y-94.664
X158.426Y-203.595
X161.347Y-175.914
X161.982Y-156.864
X166.11Y-137.814
X166.745Y-118.764
X168.24Y-206.225
X170.873Y-156.864
X171.235Y-94.664
X171.507Y-175.914
X175.635Y-118.764
X176.27Y-137.814
X180.397Y-175.914
X181.032Y-156.864
X181.395Y-94.664
X185.16Y-137.814
X185.795Y-118.764
X189.922Y-156.864
X190.285Y-94.664
X190.558Y-175.914
X194.685Y-118.764
X195.32Y-137.814
X199.447Y-175.914
X200.082Y-156.864
X200.445Y-94.664
X202.427Y-206.225
X204.21Y-137.814
X204.845Y-118.764
X208.972Y-156.864
X209.335Y-94.664
X209.607Y-175.914
X212.241Y-203.595
X213.735Y-118.764
X214.37Y-137.814
X218.498Y-175.914
X219.132Y-156.864
X219.495Y-94.664
X223.26Y-137.814
X223.895Y-118.764
X228.022Y-156.864
X228.385Y-94.664
X228.657Y-175.914
X230.029Y-198.829
X232.785Y-118.764
X233.42Y-137.814
X237.547Y-175.914
X238.182Y-156.864
X238.545Y-94.664
X239.842Y-196.199
X242.31Y-137.814
X242.945Y-118.764
X247.072Y-156.864
X247.707Y-175.914
X251.547Y-194.964
X251.835Y-118.764
X252.47Y-137.814
X252.485Y-94.664
X256.597Y-175.914
X257.233Y-156.864
X261.36Y-137.814
X261.707Y-194.964
X261.995Y-118.764
X262.645Y-94.664
X266.122Y-156.864
X266.757Y-175.914
X270.597Y-194.964
X270.885Y-118.764
X271.52Y-137.814
X271.535Y-94.664
X275.647Y-175.914
X276.282Y-156.864
X280.41Y-137.814
X280.757Y-194.964
X281.045Y-118.764
X281.695Y-94.664
X285.172Y-156.864
X285.807Y-175.914
X289.647Y-194.964
X289.935Y-118.764
X290.57Y-137.814
X290.585Y-94.664
X295.332Y-156.864
X299.46Y-137.814
X299.808Y-194.964
X300.095Y-118.764
X300.745Y-94.664
X301.841Y-175.914
X309.62Y-137.814
X309.635Y-94.664
X312.001Y-175.914
X313.748Y-200.014
X316.129Y-156.864
X318.51Y-118.764
X319.795Y-94.664
X323.272Y-137.814
X323.907Y-200.014
X326.289Y-156.864
X328.67Y-118.764
X332.797Y-180.964
X332.797Y-200.014
X333.432Y-137.814
X342.957Y-180.964
X342.957Y-200.014
X351.847Y-200.014
X362.007Y-200.014
X372.365Y-132.734
X372.365Y-142.894
X372.365Y-151.784
X372.365Y-161.944
X372.365Y-170.834
X372.365Y-180.994
T13
X62.605Y-92.124
X62.605Y-116.224
X64.986Y-192.424
X67.367Y-135.274
X68.955Y-89.584
X68.955Y-113.684
X69.749Y-154.324
X71.336Y-189.884
X73.718Y-132.734
X74.511Y-173.374
X76.099Y-151.784
X80.861Y-170.834
X81.655Y-116.224
X86.417Y-192.424
X88.005Y-113.684
X91.18Y-135.274
X91.255Y-92.124
X92.767Y-189.884
X95.942Y-154.324
X97.53Y-132.734
X97.605Y-89.584
X100.705Y-116.224
X102.292Y-151.784
X105.468Y-173.374
X107.055Y-113.684
X107.849Y-192.424
X110.23Y-135.274
X110.305Y-92.124
X111.817Y-170.834
X114.199Y-189.884
X114.992Y-154.324
X116.58Y-132.734
X116.655Y-89.584
X119.755Y-116.224
X121.343Y-151.784
X124.517Y-173.374
X126.105Y-113.684
X129.28Y-135.274
X129.355Y-92.124
X130.868Y-170.834
X132.709Y-194.075
X134.042Y-154.324
X135.63Y-132.734
X135.705Y-89.584
X138.805Y-116.224
X139.5Y-193.265
X140.392Y-151.784
X143.567Y-173.374
X145.155Y-113.684
X148.33Y-135.274
X148.405Y-92.124
X149.917Y-170.834
X153.093Y-154.324
X154.68Y-132.734
X154.755Y-89.584
X157.855Y-116.224
X159.442Y-151.784
X160.311Y-201.47
X162.618Y-173.374
X164.205Y-113.684
X167.102Y-200.661
X167.38Y-135.274
X168.968Y-170.834
X172.142Y-154.324
X172.505Y-92.124
X173.73Y-132.734
X176.905Y-116.224
X178.492Y-151.784
X178.855Y-89.584
X181.667Y-173.374
X183.255Y-113.684
X186.43Y-135.274
X188.017Y-170.834
X191.192Y-154.324
X191.555Y-92.124
X192.78Y-132.734
X195.955Y-116.224
X197.542Y-151.784
X197.905Y-89.584
X200.718Y-173.374
X202.305Y-113.684
X202.997Y-203.443
X205.48Y-135.274
X207.067Y-170.834
X208.473Y-199.346
X210.242Y-154.324
X210.605Y-92.124
X211.83Y-132.734
X215.005Y-116.224
X216.593Y-151.784
X216.955Y-89.584
X219.767Y-173.374
X221.355Y-113.684
X224.53Y-135.274
X226.117Y-170.834
X229.292Y-154.324
X229.655Y-92.124
X230.598Y-196.047
X230.88Y-132.734
X234.055Y-116.224
X235.642Y-151.784
X236.005Y-89.584
X236.074Y-191.95
X238.817Y-173.374
X240.405Y-113.684
X243.58Y-135.274
X245.167Y-170.834
X248.343Y-154.324
X249.93Y-132.734
X252.817Y-192.424
X253.105Y-116.224
X253.755Y-92.124
X254.692Y-151.784
X257.867Y-173.374
X259.167Y-189.884
X259.455Y-113.684
X260.105Y-89.584
X262.63Y-135.274
X264.217Y-170.834
X267.392Y-154.324
X268.98Y-132.734
X271.868Y-192.424
X272.155Y-116.224
X272.805Y-92.124
X273.742Y-151.784
X276.917Y-173.374
X278.217Y-189.884
X278.505Y-113.684
X279.155Y-89.584
X281.68Y-135.274
X283.267Y-170.834
X286.442Y-154.324
X288.03Y-132.734
X290.917Y-192.424
X291.205Y-116.224
X291.855Y-92.124
X292.792Y-151.784
X297.267Y-189.884
X297.555Y-113.684
X298.205Y-89.584
X300.73Y-135.274
X303.111Y-173.374
X307.08Y-132.734
X309.461Y-170.834
X310.905Y-92.124
X315.017Y-197.474
X317.255Y-89.584
X317.399Y-154.324
X319.78Y-116.224
X321.368Y-194.934
X323.749Y-151.784
X324.542Y-135.274
X326.13Y-113.684
X330.892Y-132.734
X334.067Y-178.424
X334.067Y-197.474
X340.417Y-175.884
X340.417Y-194.934
X353.117Y-197.474
X359.467Y-194.934
X374.905Y-134.004
X374.905Y-153.054
X374.905Y-172.104
X377.445Y-140.354
X377.445Y-159.404
X377.445Y-178.454
T14
X66.421Y-168.914
X90.221Y-168.914
X153.651Y-195.069
X176.64Y-201.228
X194.028Y-201.228
X217.017Y-195.069
X309.309Y-149.864
X311.69Y-111.764
X333.109Y-149.864
X335.49Y-111.764
T15
X66.421Y-184.154
X90.221Y-184.154
X149.706Y-209.789
X172.695Y-215.949
X197.972Y-215.949
X220.961Y-209.789
X309.309Y-165.104
X311.69Y-127.004
X333.109Y-165.104
X335.49Y-127.004
T16
X66.415Y-94.664
X66.415Y-118.764
X68.796Y-194.964
X71.177Y-137.814
X73.559Y-156.864
X78.321Y-175.914
X85.465Y-118.764
X90.227Y-194.964
X94.99Y-137.814
X95.065Y-94.664
X99.752Y-156.864
X104.515Y-118.764
X109.277Y-175.914
X111.659Y-194.964
X114.04Y-137.814
X114.115Y-94.664
X118.802Y-156.864
X123.565Y-118.764
X128.327Y-175.914
X133.09Y-137.814
X133.165Y-94.664
X135.732Y-197.514
X137.852Y-156.864
X142.615Y-118.764
X147.377Y-175.914
X152.14Y-137.814
X152.215Y-94.664
X156.903Y-156.864
X161.665Y-118.764
X163.333Y-204.91
X166.427Y-175.914
X171.19Y-137.814
X175.952Y-156.864
X176.315Y-94.664
X180.715Y-118.764
X185.477Y-175.914
X190.24Y-137.814
X195.002Y-156.864
X195.365Y-94.664
X199.765Y-118.764
X204.528Y-175.914
X207.334Y-204.91
X209.29Y-137.814
X214.052Y-156.864
X214.415Y-94.664
X218.815Y-118.764
X223.577Y-175.914
X228.34Y-137.814
X233.102Y-156.864
X233.465Y-94.664
X234.936Y-197.514
X237.865Y-118.764
X242.627Y-175.914
X247.39Y-137.814
X252.152Y-156.864
X256.627Y-194.964
X256.915Y-118.764
X257.565Y-94.664
X261.677Y-175.914
X266.44Y-137.814
X271.202Y-156.864
X275.678Y-194.964
X275.965Y-118.764
X276.615Y-94.664
X280.727Y-175.914
X285.49Y-137.814
X290.252Y-156.864
X294.727Y-194.964
X295.015Y-118.764
X295.665Y-94.664
X304.54Y-137.814
X306.921Y-175.914
X314.715Y-94.664
X318.827Y-200.014
X321.209Y-156.864
X323.59Y-118.764
X328.352Y-137.814
X337.877Y-180.964
X337.877Y-200.014
X356.927Y-200.014
X372.365Y-137.814
X372.365Y-156.864
X372.365Y-175.914
T9
G00X365.05Y-114.112
M15
G01X365.05Y-112.812
M16
G05
G00X376.25Y-114.112
M15
G01X376.25Y-112.812
M16
G05
T0
M30
