M48
; DRILL file {KiCad (5.1.10)-1} date 01/11/22 00:39:58
; FORMAT={-:-/ absolute / inch / decimal}
; #@! TF.CreationDate,2022-01-11T00:39:58+01:00
; #@! TF.GenerationSoftware,Kicad,Pcbnew,(5.1.10)-1
FMAT,2
INCH
T1C0.0157
T2C0.0300
T3C0.0315
T4C0.0320
T5C0.0394
T6C0.0430
T7C0.0551
T8C0.0591
T9C0.0866
T10C0.1260
T11C0.0669
T12C0.1181
T13C0.1201
T14C0.1575
T15C0.1614
%
G90
G05
T1
X2.3717Y-3.1981
X2.3717Y-8.1587
X2.3907Y-3.1522
X2.3907Y-3.244
X2.3907Y-8.1128
X2.3907Y-8.2047
X2.4146Y-3.987
X2.4366Y-3.1331
X2.4366Y-3.2631
X2.4366Y-8.0938
X2.4366Y-8.2237
X2.4825Y-3.1522
X2.4825Y-3.244
X2.4825Y-8.1128
X2.4825Y-8.2047
X2.5016Y-3.1981
X2.5016Y-8.1587
X3.4543Y-4.0162
X4.1771Y-4.0443
X4.8913Y-3.1981
X4.8913Y-8.1587
X4.8981Y-4.0729
X4.9104Y-3.1522
X4.9104Y-3.244
X4.9104Y-8.1128
X4.9104Y-8.2047
X4.9563Y-3.1331
X4.9563Y-3.2631
X4.9563Y-8.0938
X4.9563Y-8.2237
X5.0022Y-3.1522
X5.0022Y-3.244
X5.0022Y-8.1128
X5.0022Y-8.2047
X5.0213Y-3.1981
X5.0213Y-8.1587
X5.6198Y-4.1015
X6.5389Y-4.1301
X7.2598Y-4.1587
X7.9828Y-4.1874
X8.7034Y-4.216
X9.5764Y-3.1981
X9.5764Y-8.1587
X9.5954Y-3.1522
X9.5954Y-3.244
X9.5954Y-8.1128
X9.5954Y-8.2047
X9.6236Y-4.2446
X9.6413Y-3.1331
X9.6413Y-3.2631
X9.6413Y-8.0938
X9.6413Y-8.2237
X9.6873Y-3.1522
X9.6873Y-3.244
X9.6873Y-8.1128
X9.6873Y-8.2047
X9.7063Y-3.1981
X9.7063Y-8.1587
X10.345Y-4.2732
X11.0656Y-4.3019
X11.7865Y-4.3305
X13.278Y-4.6977
X13.6181Y-4.5717
X13.6488Y-4.4883
X14.0394Y-4.0977
X14.0909Y-4.0989
X14.2253Y-5.914
X14.2554Y-5.4617
X14.3114Y-6.945
X14.3622Y-4.658
X14.5193Y-7.6076
X14.7732Y-3.1981
X14.7732Y-8.1587
X14.7923Y-3.1522
X14.7923Y-3.244
X14.7923Y-8.1128
X14.7923Y-8.2047
X14.8382Y-3.1331
X14.8382Y-3.2631
X14.8382Y-8.0938
X14.8382Y-8.2237
X14.8841Y-3.1522
X14.8841Y-3.244
X14.8841Y-8.1128
X14.8841Y-8.2047
X14.9031Y-3.1981
X14.9031Y-8.1587
T2
X12.4626Y-3.078
X12.6594Y-3.078
T3
X2.939Y-3.5249
X2.939Y-3.9249
X2.9406Y-4.4749
X2.9406Y-4.8749
X3.0442Y-7.4744
X3.0442Y-7.8744
X3.1429Y-5.2256
X3.1429Y-5.6256
X3.2342Y-5.9734
X3.2342Y-6.3734
X3.6898Y-4.4749
X3.6898Y-4.8749
X3.7815Y-6.7217
X3.7815Y-7.1217
X3.8774Y-7.4705
X3.8774Y-7.8705
X4.0654Y-5.2252
X4.0654Y-5.6252
X4.0677Y-3.5249
X4.0677Y-3.9249
X4.2528Y-5.9742
X4.2528Y-6.3742
X4.4398Y-4.4749
X4.4398Y-4.8749
X4.627Y-6.7229
X4.627Y-7.1229
X4.7319Y-7.4748
X4.7319Y-7.8748
X4.815Y-5.2252
X4.815Y-5.6252
X4.8161Y-3.5272
X4.8161Y-3.9272
X5.0032Y-5.975
X5.0032Y-6.375
X5.1909Y-4.4729
X5.1909Y-4.8729
X5.377Y-6.7233
X5.377Y-7.1233
X5.5657Y-5.2245
X5.5657Y-5.6245
X5.5669Y-3.5249
X5.5669Y-3.9249
X5.6067Y-8.0539
X5.7102Y-7.6676
X5.7524Y-5.9714
X5.7524Y-6.3714
X5.9409Y-4.4749
X5.9409Y-4.8749
X6.1274Y-6.723
X6.1274Y-7.123
X6.3154Y-5.2241
X6.3154Y-5.6241
X6.3169Y-3.5249
X6.3169Y-3.9249
X6.5032Y-5.9722
X6.5032Y-6.3722
X6.6906Y-4.4721
X6.6906Y-4.8721
X6.8774Y-6.7261
X6.8774Y-7.1261
X7.0484Y-8.4414
X7.0654Y-5.2237
X7.0654Y-5.6237
X7.152Y-8.055
X7.2524Y-5.9744
X7.2524Y-6.3744
X7.2669Y-3.5249
X7.2669Y-3.9249
X7.4398Y-4.4749
X7.4398Y-4.8749
X7.627Y-6.7245
X7.627Y-7.1245
X7.8157Y-5.2237
X7.8157Y-5.6237
X8.0032Y-5.973
X8.0032Y-6.373
X8.0165Y-3.5249
X8.0165Y-3.9249
X8.1906Y-4.4741
X8.1906Y-4.8741
X8.377Y-6.7236
X8.377Y-7.1236
X8.5657Y-5.2237
X8.5657Y-5.6237
X8.7532Y-5.9748
X8.7532Y-6.3748
X8.7665Y-3.5249
X8.7665Y-3.9249
X8.7772Y-7.6932
X8.8807Y-8.0796
X8.9402Y-4.4749
X8.9402Y-4.8749
X9.1282Y-6.7244
X9.1282Y-7.1244
X9.3154Y-5.2244
X9.3154Y-5.6244
X9.5024Y-5.9734
X9.5024Y-6.3734
X9.5118Y-7.4975
X9.5157Y-3.5272
X9.5157Y-3.9272
X9.6154Y-7.8839
X9.6906Y-4.4741
X9.6906Y-4.8741
X9.8774Y-6.7248
X9.8774Y-7.1248
X10.065Y-5.2244
X10.065Y-5.6244
X10.2524Y-5.973
X10.2524Y-6.373
X10.4289Y-7.4756
X10.4289Y-7.8756
X10.4402Y-4.4741
X10.4402Y-4.8741
X10.4646Y-3.5249
X10.4646Y-3.9249
X10.6283Y-6.7244
X10.6283Y-7.1244
X10.8157Y-5.2253
X10.8157Y-5.6253
X11.0028Y-5.9726
X11.0028Y-6.3726
X11.1786Y-7.4736
X11.1786Y-7.8736
X11.1906Y-4.4729
X11.1906Y-4.8729
X11.2146Y-3.5249
X11.2146Y-3.9249
X11.3786Y-6.7225
X11.3786Y-7.1225
X11.5661Y-5.2245
X11.5661Y-5.6245
X11.7523Y-5.9744
X11.7523Y-6.3744
X11.9287Y-7.4741
X11.9287Y-7.8741
X11.9402Y-4.4741
X11.9402Y-4.8741
X11.9657Y-3.5249
X11.9657Y-3.9249
X12.3154Y-5.2245
X12.3154Y-5.6245
X12.4177Y-6.7245
X12.4177Y-7.1245
X12.7161Y-3.5269
X12.7161Y-3.9269
X12.8776Y-7.6732
X12.8776Y-8.0732
X13.2638Y-5.2241
X13.2638Y-5.6241
X13.3472Y-5.9788
X13.3472Y-6.3788
X13.4346Y-4.4732
X13.4346Y-4.8732
X13.6276Y-7.6718
X13.6276Y-8.0718
X13.628Y-6.9217
X13.628Y-7.3217
X14.2346Y-3.4237
X14.2346Y-3.8237
X14.3417Y-3.4233
X14.3417Y-3.8233
X14.3528Y-4.0627
X14.3768Y-7.6724
X14.3768Y-8.0724
X14.7528Y-4.0627
X14.9776Y-6.0914
X14.9776Y-6.4914
X14.9783Y-5.341
X14.9783Y-5.741
X14.9791Y-6.8422
X14.9791Y-7.2422
T4
X13.4366Y-3.1871
X13.5366Y-3.1871
X13.6366Y-3.1871
X13.7366Y-3.1871
T5
X14.4941Y-4.1914
X14.4941Y-4.7623
X14.5925Y-4.7623
X14.6909Y-4.1914
X14.6909Y-4.7623
T6
X13.5516Y-4.6579
X13.5516Y-4.7579
X13.5516Y-4.8579
X13.5516Y-4.9579
X13.5516Y-5.0579
X13.5516Y-5.1579
X13.5516Y-5.2579
X13.5516Y-5.3579
X13.5516Y-5.4579
X13.5516Y-5.5579
X13.5516Y-5.6579
X13.5516Y-5.7579
X13.6516Y-5.7579
X13.7516Y-5.7579
X13.8516Y-5.7579
X13.9516Y-5.7579
X14.0516Y-5.7579
X14.1516Y-4.6579
X14.1516Y-4.7579
X14.1516Y-4.8579
X14.1516Y-4.9579
X14.1516Y-5.0579
X14.1516Y-5.1579
X14.1516Y-5.2579
X14.1516Y-5.3579
X14.1516Y-5.4579
X14.1516Y-5.5579
X14.1516Y-5.6579
X14.1516Y-5.7579
T7
X12.4232Y-3.1765
X12.6988Y-3.1765
T9
X2.4366Y-3.1981
X2.4366Y-8.1587
X4.9563Y-3.1981
X4.9563Y-8.1587
X9.6413Y-3.1981
X9.6413Y-8.1587
X14.8382Y-3.1981
X14.8382Y-8.1587
T10
X8.3446Y-3.1411
X9.0477Y-3.1411
T11
X2.4148Y-3.7269
X2.4148Y-4.6757
X2.5085Y-7.6757
X2.6023Y-5.4257
X2.696Y-6.1757
X2.8148Y-3.7269
X2.8148Y-4.6757
X2.8835Y-6.9257
X2.9085Y-7.6757
X3.0023Y-5.4257
X3.096Y-6.1757
X3.1648Y-4.6757
X3.2835Y-6.9257
X3.3523Y-7.6757
X3.5398Y-5.4257
X3.5427Y-3.7269
X3.5648Y-4.6757
X3.7273Y-6.1757
X3.7523Y-7.6757
X3.9148Y-4.6757
X3.9398Y-5.4257
X3.9427Y-3.7269
X4.1023Y-6.9257
X4.1273Y-6.1757
X4.196Y-7.6757
X4.2898Y-5.4257
X4.2927Y-3.7269
X4.3148Y-4.6757
X4.4773Y-6.1757
X4.5023Y-6.9257
X4.596Y-7.6757
X4.6648Y-4.6757
X4.6898Y-5.4257
X4.6927Y-3.7269
X4.8523Y-6.9257
X4.8773Y-6.1757
X5.0398Y-5.4257
X5.0427Y-3.7269
X5.0648Y-4.6757
X5.1506Y-7.7244
X5.2273Y-6.1757
X5.2523Y-6.9257
X5.4148Y-4.6757
X5.4398Y-5.4257
X5.4427Y-3.7269
X5.537Y-7.8279
X5.6023Y-6.9257
X5.6273Y-6.1757
X5.7898Y-5.4257
X5.7927Y-3.7269
X5.8148Y-4.6757
X5.9773Y-6.1757
X6.0023Y-6.9257
X6.1648Y-4.6757
X6.1898Y-5.4257
X6.1927Y-3.7269
X6.2373Y-8.0156
X6.3523Y-6.9257
X6.3773Y-6.1757
X6.5398Y-5.4257
X6.5648Y-4.6757
X6.6236Y-8.1191
X6.7273Y-6.1757
X6.7415Y-3.7269
X6.7523Y-6.9257
X6.9148Y-4.6757
X6.9398Y-5.4257
X7.1023Y-6.9257
X7.1273Y-6.1757
X7.1415Y-3.7269
X7.2898Y-5.4257
X7.3148Y-4.6757
X7.4773Y-6.1757
X7.4915Y-3.7269
X7.5023Y-6.9257
X7.6648Y-4.6757
X7.6898Y-5.4257
X7.8523Y-6.9257
X7.8773Y-6.1757
X7.8915Y-3.7269
X7.9696Y-8.1191
X8.0398Y-5.4257
X8.0648Y-4.6757
X8.2273Y-6.1757
X8.2415Y-3.7269
X8.2523Y-6.9257
X8.3559Y-8.0156
X8.4148Y-4.6757
X8.4398Y-5.4257
X8.6023Y-6.9257
X8.6273Y-6.1757
X8.6415Y-3.7269
X8.7898Y-5.4257
X8.8148Y-4.6757
X8.9773Y-6.1757
X8.9915Y-3.7269
X9.0023Y-6.9257
X9.0562Y-7.8279
X9.1648Y-4.6757
X9.1898Y-5.4257
X9.3523Y-6.9257
X9.3773Y-6.1757
X9.3915Y-3.7269
X9.4426Y-7.7244
X9.5398Y-5.4257
X9.5648Y-4.6757
X9.7273Y-6.1757
X9.7523Y-6.9257
X9.9034Y-7.6757
X9.9148Y-4.6757
X9.9398Y-5.4257
X9.9404Y-3.7269
X10.1023Y-6.9257
X10.1273Y-6.1757
X10.2898Y-5.4257
X10.3034Y-7.6757
X10.3148Y-4.6757
X10.3404Y-3.7269
X10.4773Y-6.1757
X10.5023Y-6.9257
X10.6534Y-7.6757
X10.6648Y-4.6757
X10.6898Y-5.4257
X10.6904Y-3.7269
X10.8523Y-6.9257
X10.8773Y-6.1757
X11.0398Y-5.4257
X11.0534Y-7.6757
X11.0648Y-4.6757
X11.0904Y-3.7269
X11.2273Y-6.1757
X11.2523Y-6.9257
X11.4034Y-7.6757
X11.4148Y-4.6757
X11.4398Y-5.4257
X11.4404Y-3.7269
X11.6273Y-6.1757
X11.7898Y-5.4257
X11.8034Y-7.6757
X11.8148Y-4.6757
X11.8404Y-3.7269
X11.8835Y-6.9257
X12.1898Y-5.4257
X12.1904Y-3.7269
X12.2835Y-6.9257
X12.3523Y-7.8746
X12.446Y-6.1757
X12.5398Y-4.6757
X12.5904Y-3.7269
X12.7273Y-5.4257
X12.7523Y-7.8746
X12.846Y-6.1757
X12.9398Y-4.6757
X13.1023Y-7.1246
X13.1023Y-7.8746
X13.1273Y-5.4257
X13.5023Y-7.1246
X13.5023Y-7.8746
X13.8523Y-7.8746
X14.2523Y-7.8746
X14.66Y-5.2257
X14.66Y-5.6257
X14.66Y-5.9757
X14.66Y-6.3757
X14.66Y-6.7257
X14.66Y-7.1257
T12
X2.4648Y-3.6269
X2.4648Y-4.5757
X2.5585Y-7.5757
X2.6523Y-5.3257
X2.7148Y-3.5269
X2.7148Y-4.4757
X2.746Y-6.0757
X2.8085Y-7.4757
X2.9023Y-5.2257
X2.9335Y-6.8257
X2.996Y-5.9757
X3.1835Y-6.7257
X3.2148Y-4.5757
X3.4023Y-7.5757
X3.4648Y-4.4757
X3.5898Y-5.3257
X3.5927Y-3.6269
X3.6523Y-7.4757
X3.7773Y-6.0757
X3.8398Y-5.2257
X3.8427Y-3.5269
X3.9648Y-4.5757
X4.0273Y-5.9757
X4.1523Y-6.8257
X4.2148Y-4.4757
X4.246Y-7.5757
X4.3398Y-5.3257
X4.3427Y-3.6269
X4.4023Y-6.7257
X4.496Y-7.4757
X4.5273Y-6.0757
X4.5898Y-5.2257
X4.5927Y-3.5269
X4.7148Y-4.5757
X4.7773Y-5.9757
X4.9023Y-6.8257
X4.9648Y-4.4757
X5.0898Y-5.3257
X5.0927Y-3.6269
X5.1523Y-6.7257
X5.2248Y-7.6407
X5.2773Y-6.0757
X5.3398Y-5.2257
X5.3427Y-3.5269
X5.4648Y-4.5757
X5.4921Y-7.6088
X5.5273Y-5.9757
X5.6523Y-6.8257
X5.7148Y-4.4757
X5.8398Y-5.3257
X5.8427Y-3.6269
X5.9023Y-6.7257
X6.0273Y-6.0757
X6.0898Y-5.2257
X6.0927Y-3.5269
X6.2148Y-4.5757
X6.2773Y-5.9757
X6.3114Y-7.9319
X6.4023Y-6.8257
X6.4648Y-4.4757
X6.5788Y-7.9
X6.5898Y-5.3257
X6.6523Y-6.7257
X6.7773Y-6.0757
X6.7915Y-3.6269
X6.8398Y-5.2257
X6.9648Y-4.5757
X7.0273Y-5.9757
X7.0415Y-3.5269
X7.1523Y-6.8257
X7.2148Y-4.4757
X7.3398Y-5.3257
X7.4023Y-6.7257
X7.5273Y-6.0757
X7.5415Y-3.6269
X7.5898Y-5.2257
X7.7148Y-4.5757
X7.7773Y-5.9757
X7.7915Y-3.5269
X7.9023Y-6.8257
X7.9648Y-4.4757
X7.992Y-8.0096
X8.0898Y-5.3257
X8.1523Y-6.7257
X8.2076Y-7.8483
X8.2773Y-6.0757
X8.2915Y-3.6269
X8.3398Y-5.2257
X8.4648Y-4.5757
X8.5273Y-5.9757
X8.5415Y-3.5269
X8.6523Y-6.8257
X8.7148Y-4.4757
X8.8398Y-5.3257
X8.9023Y-6.7257
X9.0273Y-6.0757
X9.0415Y-3.6269
X9.0787Y-7.7184
X9.0898Y-5.2257
X9.2148Y-4.5757
X9.2773Y-5.9757
X9.2915Y-3.5269
X9.2943Y-7.5571
X9.4023Y-6.8257
X9.4648Y-4.4757
X9.5898Y-5.3257
X9.6523Y-6.7257
X9.7773Y-6.0757
X9.8398Y-5.2257
X9.9534Y-7.5757
X9.9648Y-4.5757
X9.9904Y-3.6269
X10.0273Y-5.9757
X10.1523Y-6.8257
X10.2034Y-7.4757
X10.2148Y-4.4757
X10.2404Y-3.5269
X10.3398Y-5.3257
X10.4023Y-6.7257
X10.5273Y-6.0757
X10.5898Y-5.2257
X10.7034Y-7.5757
X10.7148Y-4.5757
X10.7404Y-3.6269
X10.7773Y-5.9757
X10.9023Y-6.8257
X10.9534Y-7.4757
X10.9648Y-4.4757
X10.9904Y-3.5269
X11.0898Y-5.3257
X11.1523Y-6.7257
X11.2773Y-6.0757
X11.3398Y-5.2257
X11.4534Y-7.5757
X11.4648Y-4.5757
X11.4904Y-3.6269
X11.5273Y-5.9757
X11.7034Y-7.4757
X11.7148Y-4.4757
X11.7404Y-3.5269
X11.8398Y-5.3257
X11.9335Y-6.8257
X12.0898Y-5.2257
X12.1835Y-6.7257
X12.2404Y-3.6269
X12.4023Y-7.7746
X12.4904Y-3.5269
X12.496Y-6.0757
X12.5898Y-4.5757
X12.6523Y-7.6746
X12.746Y-5.9757
X12.7773Y-5.3257
X12.8398Y-4.4757
X13.0273Y-5.2257
X13.1523Y-7.0246
X13.1523Y-7.7746
X13.4023Y-6.9246
X13.4023Y-7.6746
X13.9023Y-7.7746
X14.1523Y-7.6746
X14.76Y-5.2757
X14.76Y-6.0257
X14.76Y-6.7757
X14.86Y-5.5257
X14.86Y-6.2757
X14.86Y-7.0257
T13
X2.615Y-6.6502
X3.552Y-6.6502
X6.0492Y-7.6799
X6.9543Y-7.9224
X7.6389Y-7.9224
X8.544Y-7.6799
X12.1775Y-5.9002
X12.2713Y-4.4002
X13.1145Y-5.9002
X13.2083Y-4.4002
T14
X2.615Y-7.2502
X3.552Y-7.2502
X5.8939Y-8.2594
X6.799Y-8.5019
X7.7942Y-8.5019
X8.6993Y-8.2594
X12.1775Y-6.5002
X12.2713Y-5.0002
X13.1145Y-6.5002
X13.2083Y-5.0002
T15
X2.6148Y-3.7269
X2.6148Y-4.6757
X2.7085Y-7.6757
X2.8023Y-5.4257
X2.896Y-6.1757
X3.0835Y-6.9257
X3.3648Y-4.6757
X3.5523Y-7.6757
X3.7398Y-5.4257
X3.7427Y-3.7269
X3.9273Y-6.1757
X4.1148Y-4.6757
X4.3023Y-6.9257
X4.396Y-7.6757
X4.4898Y-5.4257
X4.4927Y-3.7269
X4.6773Y-6.1757
X4.8648Y-4.6757
X5.0523Y-6.9257
X5.2398Y-5.4257
X5.2427Y-3.7269
X5.3438Y-7.7762
X5.4273Y-6.1757
X5.6148Y-4.6757
X5.8023Y-6.9257
X5.9898Y-5.4257
X5.9927Y-3.7269
X6.1773Y-6.1757
X6.3648Y-4.6757
X6.4304Y-8.0673
X6.5523Y-6.9257
X6.7398Y-5.4257
X6.9273Y-6.1757
X6.9415Y-3.7269
X7.1148Y-4.6757
X7.3023Y-6.9257
X7.4898Y-5.4257
X7.6773Y-6.1757
X7.6915Y-3.7269
X7.8648Y-4.6757
X8.0523Y-6.9257
X8.1628Y-8.0673
X8.2398Y-5.4257
X8.4273Y-6.1757
X8.4415Y-3.7269
X8.6148Y-4.6757
X8.8023Y-6.9257
X8.9898Y-5.4257
X9.1773Y-6.1757
X9.1915Y-3.7269
X9.2494Y-7.7762
X9.3648Y-4.6757
X9.5523Y-6.9257
X9.7398Y-5.4257
X9.9273Y-6.1757
X10.1034Y-7.6757
X10.1148Y-4.6757
X10.1404Y-3.7269
X10.3023Y-6.9257
X10.4898Y-5.4257
X10.6773Y-6.1757
X10.8534Y-7.6757
X10.8648Y-4.6757
X10.8904Y-3.7269
X11.0523Y-6.9257
X11.2398Y-5.4257
X11.4273Y-6.1757
X11.6034Y-7.6757
X11.6148Y-4.6757
X11.6404Y-3.7269
X11.9898Y-5.4257
X12.0835Y-6.9257
X12.3904Y-3.7269
X12.5523Y-7.8746
X12.646Y-6.1757
X12.7398Y-4.6757
X12.9273Y-5.4257
X13.3023Y-7.1246
X13.3023Y-7.8746
X14.0523Y-7.8746
X14.66Y-5.4257
X14.66Y-6.1757
X14.66Y-6.9257
T8
G00X14.372Y-4.4926
M15
G01X14.372Y-4.4414
M16
G05
G00X14.813Y-4.4926
M15
G01X14.813Y-4.4414
M16
G05
T0
M30
