%TF.GenerationSoftware,KiCad,Pcbnew,(5.1.10)-1*%
%TF.CreationDate,2022-01-11T00:39:54+01:00*%
%TF.ProjectId,middle,6d696464-6c65-42e6-9b69-6361645f7063,rev?*%
%TF.SameCoordinates,Original*%
%TF.FileFunction,Soldermask,Top*%
%TF.FilePolarity,Negative*%
%FSLAX46Y46*%
G04 Gerber Fmt 4.6, Leading zero omitted, Abs format (unit mm)*
G04 Created by KiCad (PCBNEW (5.1.10)-1) date 2022-01-11 00:39:54*
%MOMM*%
%LPD*%
G01*
G04 APERTURE LIST*
%ADD10C,1.624000*%
%ADD11C,2.000000*%
%ADD12C,4.100000*%
%ADD13C,3.150000*%
%ADD14C,1.800000*%
%ADD15C,3.100000*%
%ADD16C,4.200000*%
%ADD17C,0.800000*%
%ADD18C,4.500000*%
%ADD19C,5.100000*%
%ADD20O,1.700000X1.700000*%
%ADD21C,1.700000*%
%ADD22C,2.100000*%
%ADD23C,1.497000*%
%ADD24C,1.852600*%
G04 APERTURE END LIST*
D10*
%TO.C,RSW0*%
X316550000Y-78182000D03*
X321550000Y-78182000D03*
D11*
X315550000Y-80682000D03*
X322550000Y-80682000D03*
%TD*%
D12*
%TO.C,KE0*%
X90221250Y-184153999D03*
D13*
X90221250Y-168913999D03*
X66421250Y-168913999D03*
D12*
X66421250Y-184153999D03*
D14*
X73241250Y-175913999D03*
X83401250Y-175913999D03*
D15*
X80861250Y-170833999D03*
D16*
X78321250Y-175913999D03*
D15*
X74511250Y-173373999D03*
%TD*%
D12*
%TO.C,KD12*%
X333108749Y-165103999D03*
D13*
X333108749Y-149863999D03*
X309308749Y-149863999D03*
D12*
X309308749Y-165103999D03*
D14*
X316128749Y-156863999D03*
X326288749Y-156863999D03*
D15*
X323748749Y-151783999D03*
D16*
X321208749Y-156863999D03*
D15*
X317398749Y-154323999D03*
%TD*%
D12*
%TO.C,KB13*%
X335489999Y-127003999D03*
D13*
X335489999Y-111763999D03*
X311689999Y-111763999D03*
D12*
X311689999Y-127003999D03*
D14*
X318509999Y-118763999D03*
X328669999Y-118763999D03*
D15*
X326129999Y-113683999D03*
D16*
X323589999Y-118763999D03*
D15*
X319779999Y-116223999D03*
%TD*%
D12*
%TO.C,KF4*%
X172695142Y-215949182D03*
D13*
X176639544Y-201228472D03*
X153650510Y-195068579D03*
D12*
X149706107Y-209789288D03*
D14*
X158426390Y-203595206D03*
X168240197Y-206224807D03*
D15*
X167101546Y-200660503D03*
D16*
X163333294Y-204910006D03*
D15*
X160310517Y-201470454D03*
%TD*%
D12*
%TO.C,KF5*%
X220961392Y-209789289D03*
D13*
X217016989Y-195068579D03*
X194027955Y-201228473D03*
D12*
X197972357Y-215949182D03*
D14*
X202427302Y-206224807D03*
X212241109Y-203595206D03*
D15*
X208472856Y-199345703D03*
D16*
X207334205Y-204910007D03*
D15*
X202996628Y-203442656D03*
%TD*%
D14*
%TO.C,KC0*%
X66097500Y-137813999D03*
X76257500Y-137813999D03*
D15*
X73717500Y-132733999D03*
D16*
X71177500Y-137813999D03*
D15*
X67367500Y-135273999D03*
%TD*%
D14*
%TO.C,KC13*%
X323272499Y-137813999D03*
X333432499Y-137813999D03*
D15*
X330892499Y-132733999D03*
D16*
X328352499Y-137813999D03*
D15*
X324542499Y-135273999D03*
%TD*%
D14*
%TO.C,KD0*%
X68478750Y-156863999D03*
X78638750Y-156863999D03*
D15*
X76098750Y-151783999D03*
D16*
X73558750Y-156863999D03*
D15*
X69748750Y-154323999D03*
%TD*%
D14*
%TO.C,KE11*%
X301841249Y-175914000D03*
X312001249Y-175914000D03*
D15*
X309461249Y-170834000D03*
D16*
X306921249Y-175914000D03*
D15*
X303111249Y-173374000D03*
%TD*%
D14*
%TO.C,KF0*%
X63716250Y-194964000D03*
X73876250Y-194964000D03*
D15*
X71336250Y-189884000D03*
D16*
X68796250Y-194964000D03*
D15*
X64986250Y-192424000D03*
%TD*%
D14*
%TO.C,KF2*%
X106578749Y-194964000D03*
X116738749Y-194964000D03*
D15*
X114198749Y-189884000D03*
D16*
X111658749Y-194964000D03*
D15*
X107848749Y-192424000D03*
%TD*%
D14*
%TO.C,KA11*%
X290584999Y-94663999D03*
X300744999Y-94663999D03*
D15*
X298204999Y-89583999D03*
D16*
X295664999Y-94663999D03*
D15*
X291854999Y-92123999D03*
%TD*%
D14*
%TO.C,KA0*%
X61335000Y-94663999D03*
X71495000Y-94663999D03*
D15*
X68955000Y-89583999D03*
D16*
X66415000Y-94663999D03*
D15*
X62605000Y-92123999D03*
%TD*%
D14*
%TO.C,KA1*%
X89985000Y-94663999D03*
X100145000Y-94663999D03*
D15*
X97605000Y-89583999D03*
D16*
X95065000Y-94663999D03*
D15*
X91255000Y-92123999D03*
%TD*%
D14*
%TO.C,KA2*%
X109034999Y-94663999D03*
X119194999Y-94663999D03*
D15*
X116654999Y-89583999D03*
D16*
X114114999Y-94663999D03*
D15*
X110304999Y-92123999D03*
%TD*%
D14*
%TO.C,KA3*%
X128085000Y-94663999D03*
X138245000Y-94663999D03*
D15*
X135705000Y-89583999D03*
D16*
X133165000Y-94663999D03*
D15*
X129355000Y-92123999D03*
%TD*%
D14*
%TO.C,KA4*%
X147135000Y-94663999D03*
X157295000Y-94663999D03*
D15*
X154755000Y-89583999D03*
D16*
X152215000Y-94663999D03*
D15*
X148405000Y-92123999D03*
%TD*%
D14*
%TO.C,KA5*%
X171235000Y-94663999D03*
X181395000Y-94663999D03*
D15*
X178855000Y-89583999D03*
D16*
X176315000Y-94663999D03*
D15*
X172505000Y-92123999D03*
%TD*%
D14*
%TO.C,KA6*%
X190285000Y-94663999D03*
X200445000Y-94663999D03*
D15*
X197905000Y-89583999D03*
D16*
X195365000Y-94663999D03*
D15*
X191555000Y-92123999D03*
%TD*%
D14*
%TO.C,KA7*%
X209335000Y-94663999D03*
X219495000Y-94663999D03*
D15*
X216955000Y-89583999D03*
D16*
X214415000Y-94663999D03*
D15*
X210605000Y-92123999D03*
%TD*%
D14*
%TO.C,KA8*%
X228384999Y-94663999D03*
X238544999Y-94663999D03*
D15*
X236004999Y-89583999D03*
D16*
X233464999Y-94663999D03*
D15*
X229654999Y-92123999D03*
%TD*%
D14*
%TO.C,KA9*%
X252484999Y-94663999D03*
X262644999Y-94663999D03*
D15*
X260104999Y-89583999D03*
D16*
X257564999Y-94663999D03*
D15*
X253754999Y-92123999D03*
%TD*%
D14*
%TO.C,KA10*%
X271534999Y-94663999D03*
X281694999Y-94663999D03*
D15*
X279154999Y-89583999D03*
D16*
X276614999Y-94663999D03*
D15*
X272804999Y-92123999D03*
%TD*%
D14*
%TO.C,KA12*%
X309634999Y-94663999D03*
X319794999Y-94663999D03*
D15*
X317254999Y-89583999D03*
D16*
X314714999Y-94663999D03*
D15*
X310904999Y-92123999D03*
%TD*%
D14*
%TO.C,KB0*%
X61335000Y-118763999D03*
X71495000Y-118763999D03*
D15*
X68955000Y-113683999D03*
D16*
X66415000Y-118763999D03*
D15*
X62605000Y-116223999D03*
%TD*%
D14*
%TO.C,KB1*%
X80384999Y-118763999D03*
X90544999Y-118763999D03*
D15*
X88004999Y-113683999D03*
D16*
X85464999Y-118763999D03*
D15*
X81654999Y-116223999D03*
%TD*%
D14*
%TO.C,KB2*%
X99434999Y-118763999D03*
X109594999Y-118763999D03*
D15*
X107054999Y-113683999D03*
D16*
X104514999Y-118763999D03*
D15*
X100704999Y-116223999D03*
%TD*%
D14*
%TO.C,KB3*%
X118485000Y-118763999D03*
X128645000Y-118763999D03*
D15*
X126105000Y-113683999D03*
D16*
X123565000Y-118763999D03*
D15*
X119755000Y-116223999D03*
%TD*%
D14*
%TO.C,KB4*%
X137535000Y-118763999D03*
X147695000Y-118763999D03*
D15*
X145155000Y-113683999D03*
D16*
X142615000Y-118763999D03*
D15*
X138805000Y-116223999D03*
%TD*%
D14*
%TO.C,KB5*%
X156585000Y-118763999D03*
X166745000Y-118763999D03*
D15*
X164205000Y-113683999D03*
D16*
X161665000Y-118763999D03*
D15*
X157855000Y-116223999D03*
%TD*%
D14*
%TO.C,KB6*%
X175635000Y-118763999D03*
X185795000Y-118763999D03*
D15*
X183255000Y-113683999D03*
D16*
X180715000Y-118763999D03*
D15*
X176905000Y-116223999D03*
%TD*%
D14*
%TO.C,KB7*%
X194685000Y-118763999D03*
X204845000Y-118763999D03*
D15*
X202305000Y-113683999D03*
D16*
X199765000Y-118763999D03*
D15*
X195955000Y-116223999D03*
%TD*%
D14*
%TO.C,KB8*%
X213735000Y-118763999D03*
X223895000Y-118763999D03*
D15*
X221355000Y-113683999D03*
D16*
X218815000Y-118763999D03*
D15*
X215005000Y-116223999D03*
%TD*%
D14*
%TO.C,KB9*%
X232785000Y-118763999D03*
X242945000Y-118763999D03*
D15*
X240405000Y-113683999D03*
D16*
X237865000Y-118763999D03*
D15*
X234055000Y-116223999D03*
%TD*%
D14*
%TO.C,KB10*%
X251835000Y-118763999D03*
X261995000Y-118763999D03*
D15*
X259455000Y-113683999D03*
D16*
X256915000Y-118763999D03*
D15*
X253105000Y-116223999D03*
%TD*%
D14*
%TO.C,KB11*%
X270884999Y-118763999D03*
X281044999Y-118763999D03*
D15*
X278504999Y-113683999D03*
D16*
X275964999Y-118763999D03*
D15*
X272154999Y-116223999D03*
%TD*%
D14*
%TO.C,KB12*%
X289934999Y-118763999D03*
X300094999Y-118763999D03*
D15*
X297554999Y-113683999D03*
D16*
X295014999Y-118763999D03*
D15*
X291204999Y-116223999D03*
%TD*%
D14*
%TO.C,KC1*%
X89910000Y-137813999D03*
X100070000Y-137813999D03*
D15*
X97530000Y-132733999D03*
D16*
X94990000Y-137813999D03*
D15*
X91180000Y-135273999D03*
%TD*%
D14*
%TO.C,KC2*%
X108960000Y-137813999D03*
X119120000Y-137813999D03*
D15*
X116580000Y-132733999D03*
D16*
X114040000Y-137813999D03*
D15*
X110230000Y-135273999D03*
%TD*%
D14*
%TO.C,KC3*%
X128010000Y-137813999D03*
X138170000Y-137813999D03*
D15*
X135630000Y-132733999D03*
D16*
X133090000Y-137813999D03*
D15*
X129280000Y-135273999D03*
%TD*%
D14*
%TO.C,KC4*%
X147060000Y-137813999D03*
X157220000Y-137813999D03*
D15*
X154680000Y-132733999D03*
D16*
X152140000Y-137813999D03*
D15*
X148330000Y-135273999D03*
%TD*%
D14*
%TO.C,KC5*%
X166110000Y-137813999D03*
X176270000Y-137813999D03*
D15*
X173730000Y-132733999D03*
D16*
X171190000Y-137813999D03*
D15*
X167380000Y-135273999D03*
%TD*%
D14*
%TO.C,KC6*%
X185160000Y-137813999D03*
X195320000Y-137813999D03*
D15*
X192780000Y-132733999D03*
D16*
X190240000Y-137813999D03*
D15*
X186430000Y-135273999D03*
%TD*%
D14*
%TO.C,KC7*%
X204210000Y-137813999D03*
X214370000Y-137813999D03*
D15*
X211830000Y-132733999D03*
D16*
X209290000Y-137813999D03*
D15*
X205480000Y-135273999D03*
%TD*%
D14*
%TO.C,KC8*%
X223260000Y-137813999D03*
X233420000Y-137813999D03*
D15*
X230880000Y-132733999D03*
D16*
X228340000Y-137813999D03*
D15*
X224530000Y-135273999D03*
%TD*%
D14*
%TO.C,KC9*%
X242310000Y-137813999D03*
X252470000Y-137813999D03*
D15*
X249930000Y-132733999D03*
D16*
X247390000Y-137813999D03*
D15*
X243580000Y-135273999D03*
%TD*%
D14*
%TO.C,KC10*%
X261359999Y-137813999D03*
X271519999Y-137813999D03*
D15*
X268979999Y-132733999D03*
D16*
X266439999Y-137813999D03*
D15*
X262629999Y-135273999D03*
%TD*%
D14*
%TO.C,KC11*%
X280409999Y-137813999D03*
X290569999Y-137813999D03*
D15*
X288029999Y-132733999D03*
D16*
X285489999Y-137813999D03*
D15*
X281679999Y-135273999D03*
%TD*%
D14*
%TO.C,KD1*%
X94672500Y-156864000D03*
X104832500Y-156864000D03*
D15*
X102292500Y-151784000D03*
D16*
X99752500Y-156864000D03*
D15*
X95942500Y-154324000D03*
%TD*%
D14*
%TO.C,KD2*%
X113722500Y-156864000D03*
X123882500Y-156864000D03*
D15*
X121342500Y-151784000D03*
D16*
X118802500Y-156864000D03*
D15*
X114992500Y-154324000D03*
%TD*%
D14*
%TO.C,KD3*%
X132772500Y-156864000D03*
X142932500Y-156864000D03*
D15*
X140392500Y-151784000D03*
D16*
X137852500Y-156864000D03*
D15*
X134042500Y-154324000D03*
%TD*%
D14*
%TO.C,KD4*%
X151822500Y-156864000D03*
X161982500Y-156864000D03*
D15*
X159442500Y-151784000D03*
D16*
X156902500Y-156864000D03*
D15*
X153092500Y-154324000D03*
%TD*%
D14*
%TO.C,KD5*%
X170872500Y-156864000D03*
X181032500Y-156864000D03*
D15*
X178492500Y-151784000D03*
D16*
X175952500Y-156864000D03*
D15*
X172142500Y-154324000D03*
%TD*%
D14*
%TO.C,KD6*%
X189922500Y-156864000D03*
X200082500Y-156864000D03*
D15*
X197542500Y-151784000D03*
D16*
X195002500Y-156864000D03*
D15*
X191192500Y-154324000D03*
%TD*%
D14*
%TO.C,KD7*%
X208972500Y-156864000D03*
X219132500Y-156864000D03*
D15*
X216592500Y-151784000D03*
D16*
X214052500Y-156864000D03*
D15*
X210242500Y-154324000D03*
%TD*%
D14*
%TO.C,KD8*%
X228022500Y-156864000D03*
X238182500Y-156864000D03*
D15*
X235642500Y-151784000D03*
D16*
X233102500Y-156864000D03*
D15*
X229292500Y-154324000D03*
%TD*%
D14*
%TO.C,KD9*%
X247072500Y-156864000D03*
X257232500Y-156864000D03*
D15*
X254692500Y-151784000D03*
D16*
X252152500Y-156864000D03*
D15*
X248342500Y-154324000D03*
%TD*%
D14*
%TO.C,KD10*%
X266122499Y-156864000D03*
X276282499Y-156864000D03*
D15*
X273742499Y-151784000D03*
D16*
X271202499Y-156864000D03*
D15*
X267392499Y-154324000D03*
%TD*%
D14*
%TO.C,KD11*%
X285172499Y-156864000D03*
X295332499Y-156864000D03*
D15*
X292792499Y-151784000D03*
D16*
X290252499Y-156864000D03*
D15*
X286442499Y-154324000D03*
%TD*%
D14*
%TO.C,KE1*%
X104197500Y-175914000D03*
X114357500Y-175914000D03*
D15*
X111817500Y-170834000D03*
D16*
X109277500Y-175914000D03*
D15*
X105467500Y-173374000D03*
%TD*%
D14*
%TO.C,KE2*%
X123247500Y-175914000D03*
X133407500Y-175914000D03*
D15*
X130867500Y-170834000D03*
D16*
X128327500Y-175914000D03*
D15*
X124517500Y-173374000D03*
%TD*%
D14*
%TO.C,KE3*%
X142297500Y-175914000D03*
X152457500Y-175914000D03*
D15*
X149917500Y-170834000D03*
D16*
X147377500Y-175914000D03*
D15*
X143567500Y-173374000D03*
%TD*%
D14*
%TO.C,KE4*%
X161347500Y-175914000D03*
X171507500Y-175914000D03*
D15*
X168967500Y-170834000D03*
D16*
X166427500Y-175914000D03*
D15*
X162617500Y-173374000D03*
%TD*%
D14*
%TO.C,KE5*%
X180397500Y-175914000D03*
X190557500Y-175914000D03*
D15*
X188017500Y-170834000D03*
D16*
X185477500Y-175914000D03*
D15*
X181667500Y-173374000D03*
%TD*%
D14*
%TO.C,KE6*%
X199447500Y-175914000D03*
X209607500Y-175914000D03*
D15*
X207067500Y-170834000D03*
D16*
X204527500Y-175914000D03*
D15*
X200717500Y-173374000D03*
%TD*%
D14*
%TO.C,KE7*%
X218497500Y-175914000D03*
X228657500Y-175914000D03*
D15*
X226117500Y-170834000D03*
D16*
X223577500Y-175914000D03*
D15*
X219767500Y-173374000D03*
%TD*%
D14*
%TO.C,KE8*%
X237547500Y-175914000D03*
X247707500Y-175914000D03*
D15*
X245167500Y-170834000D03*
D16*
X242627500Y-175914000D03*
D15*
X238817500Y-173374000D03*
%TD*%
D14*
%TO.C,KE9*%
X256597499Y-175914000D03*
X266757499Y-175914000D03*
D15*
X264217499Y-170834000D03*
D16*
X261677499Y-175914000D03*
D15*
X257867499Y-173374000D03*
%TD*%
D14*
%TO.C,KE10*%
X275647499Y-175914000D03*
X285807499Y-175914000D03*
D15*
X283267499Y-170834000D03*
D16*
X280727499Y-175914000D03*
D15*
X276917499Y-173374000D03*
%TD*%
D14*
%TO.C,KE12*%
X332797499Y-180963999D03*
X342957499Y-180963999D03*
D15*
X340417499Y-175883999D03*
D16*
X337877499Y-180963999D03*
D15*
X334067499Y-178423999D03*
%TD*%
D14*
%TO.C,KF1*%
X85147500Y-194964000D03*
X95307500Y-194964000D03*
D15*
X92767500Y-189884000D03*
D16*
X90227500Y-194964000D03*
D15*
X86417500Y-192424000D03*
%TD*%
D14*
%TO.C,KF3*%
X130825061Y-196199451D03*
X140638867Y-198829053D03*
D15*
X139500216Y-193264749D03*
D16*
X135731964Y-197514252D03*
D15*
X132709187Y-194074700D03*
%TD*%
D14*
%TO.C,KF6*%
X230028633Y-198829053D03*
X239842439Y-196199451D03*
D15*
X236074187Y-191949949D03*
D16*
X234935536Y-197514252D03*
D15*
X230597958Y-196046901D03*
%TD*%
D14*
%TO.C,KF8*%
X270597500Y-194964000D03*
X280757500Y-194964000D03*
D15*
X278217500Y-189884000D03*
D16*
X275677500Y-194964000D03*
D15*
X271867500Y-192424000D03*
%TD*%
D14*
%TO.C,KF10*%
X313747500Y-200013999D03*
X323907500Y-200013999D03*
D15*
X321367500Y-194933999D03*
D16*
X318827500Y-200013999D03*
D15*
X315017500Y-197473999D03*
%TD*%
D14*
%TO.C,KF11*%
X332797500Y-200013999D03*
X342957500Y-200013999D03*
D15*
X340417500Y-194933999D03*
D16*
X337877500Y-200013999D03*
D15*
X334067500Y-197473999D03*
%TD*%
D14*
%TO.C,KF12*%
X351847499Y-200013999D03*
X362007499Y-200013999D03*
D15*
X359467499Y-194933999D03*
D16*
X356927499Y-200013999D03*
D15*
X353117499Y-197473999D03*
%TD*%
D14*
%TO.C,KC12*%
X299459999Y-137813999D03*
X309619999Y-137813999D03*
D15*
X307079999Y-132733999D03*
D16*
X304539999Y-137813999D03*
D15*
X300729999Y-135273999D03*
%TD*%
D14*
%TO.C,KF7*%
X251547499Y-194964000D03*
X261707499Y-194964000D03*
D15*
X259167499Y-189884000D03*
D16*
X256627499Y-194964000D03*
D15*
X252817499Y-192424000D03*
%TD*%
D14*
%TO.C,KF9*%
X289647500Y-194964000D03*
X299807500Y-194964000D03*
D15*
X297267500Y-189884000D03*
D16*
X294727500Y-194964000D03*
D15*
X290917500Y-192424000D03*
%TD*%
D14*
%TO.C,KD13*%
X372364999Y-132733999D03*
X372364999Y-142893999D03*
D15*
X377444999Y-140353999D03*
D16*
X372364999Y-137813999D03*
D15*
X374904999Y-134003999D03*
%TD*%
D14*
%TO.C,KE13*%
X372364999Y-151784000D03*
X372364999Y-161944000D03*
D15*
X377444999Y-159404000D03*
D16*
X372364999Y-156864000D03*
D15*
X374904999Y-153054000D03*
%TD*%
D14*
%TO.C,KF13*%
X372364999Y-170834000D03*
X372364999Y-180994000D03*
D15*
X377444999Y-178454000D03*
D16*
X372364999Y-175914000D03*
D15*
X374904999Y-172104000D03*
%TD*%
D17*
%TO.C,MountBaseMiddleTop3*%
X127056726Y-80065274D03*
X125890000Y-79582000D03*
X124723274Y-80065274D03*
X124240000Y-81232000D03*
X124723274Y-82398726D03*
X125890000Y-82882000D03*
X127056726Y-82398726D03*
X127540000Y-81232000D03*
D18*
X125890000Y-81232000D03*
%TD*%
%TO.C,MountBaseMiddleTop4*%
X125890000Y-207232000D03*
D17*
X127540000Y-207232000D03*
X127056726Y-208398726D03*
X125890000Y-208882000D03*
X124723274Y-208398726D03*
X124240000Y-207232000D03*
X124723274Y-206065274D03*
X125890000Y-205582000D03*
X127056726Y-206065274D03*
%TD*%
D19*
%TO.C,MountMiddle0*%
X211951900Y-79783900D03*
X229811200Y-79783900D03*
%TD*%
D17*
%TO.C,MountBaseMiddleTop1*%
X63056726Y-80065274D03*
X61890000Y-79582000D03*
X60723274Y-80065274D03*
X60240000Y-81232000D03*
X60723274Y-82398726D03*
X61890000Y-82882000D03*
X63056726Y-82398726D03*
X63540000Y-81232000D03*
D18*
X61890000Y-81232000D03*
%TD*%
D17*
%TO.C,MountBaseMiddleTop2*%
X63056726Y-206065274D03*
X61890000Y-205582000D03*
X60723274Y-206065274D03*
X60240000Y-207232000D03*
X60723274Y-208398726D03*
X61890000Y-208882000D03*
X63056726Y-208398726D03*
X63540000Y-207232000D03*
D18*
X61890000Y-207232000D03*
%TD*%
D17*
%TO.C,MountBaseMiddleTop5*%
X246056726Y-80065274D03*
X244890000Y-79582000D03*
X243723274Y-80065274D03*
X243240000Y-81232000D03*
X243723274Y-82398726D03*
X244890000Y-82882000D03*
X246056726Y-82398726D03*
X246540000Y-81232000D03*
D18*
X244890000Y-81232000D03*
%TD*%
D17*
%TO.C,MountBaseMiddleTop6*%
X246056726Y-206065274D03*
X244890000Y-205582000D03*
X243723274Y-206065274D03*
X243240000Y-207232000D03*
X243723274Y-208398726D03*
X244890000Y-208882000D03*
X246056726Y-208398726D03*
X246540000Y-207232000D03*
D18*
X244890000Y-207232000D03*
%TD*%
D17*
%TO.C,MountBaseMiddleTop7*%
X378056726Y-80065274D03*
X376890000Y-79582000D03*
X375723274Y-80065274D03*
X375240000Y-81232000D03*
X375723274Y-82398726D03*
X376890000Y-82882000D03*
X378056726Y-82398726D03*
X378540000Y-81232000D03*
D18*
X376890000Y-81232000D03*
%TD*%
D17*
%TO.C,MountBaseMiddleTop8*%
X378056726Y-206065274D03*
X376890000Y-205582000D03*
X375723274Y-206065274D03*
X375240000Y-207232000D03*
X375723274Y-208398726D03*
X376890000Y-208882000D03*
X378056726Y-208398726D03*
X378540000Y-207232000D03*
D18*
X376890000Y-207232000D03*
%TD*%
D20*
%TO.C,R1*%
X364280000Y-86952000D03*
D21*
X364280000Y-97112000D03*
%TD*%
D20*
%TO.C,R2*%
X361560000Y-86962000D03*
D21*
X361560000Y-97122000D03*
%TD*%
D20*
%TO.C,DA0*%
X74650000Y-89532000D03*
G36*
G01*
X75450000Y-100542000D02*
X73850000Y-100542000D01*
G75*
G02*
X73800000Y-100492000I0J50000D01*
G01*
X73800000Y-98892000D01*
G75*
G02*
X73850000Y-98842000I50000J0D01*
G01*
X75450000Y-98842000D01*
G75*
G02*
X75500000Y-98892000I0J-50000D01*
G01*
X75500000Y-100492000D01*
G75*
G02*
X75450000Y-100542000I-50000J0D01*
G01*
G37*
%TD*%
%TO.C,DA1*%
X103320000Y-89532000D03*
G36*
G01*
X104120000Y-100542000D02*
X102520000Y-100542000D01*
G75*
G02*
X102470000Y-100492000I0J50000D01*
G01*
X102470000Y-98892000D01*
G75*
G02*
X102520000Y-98842000I50000J0D01*
G01*
X104120000Y-98842000D01*
G75*
G02*
X104170000Y-98892000I0J-50000D01*
G01*
X104170000Y-100492000D01*
G75*
G02*
X104120000Y-100542000I-50000J0D01*
G01*
G37*
%TD*%
%TO.C,DA2*%
X122330000Y-89590000D03*
G36*
G01*
X123130000Y-100600000D02*
X121530000Y-100600000D01*
G75*
G02*
X121480000Y-100550000I0J50000D01*
G01*
X121480000Y-98950000D01*
G75*
G02*
X121530000Y-98900000I50000J0D01*
G01*
X123130000Y-98900000D01*
G75*
G02*
X123180000Y-98950000I0J-50000D01*
G01*
X123180000Y-100550000D01*
G75*
G02*
X123130000Y-100600000I-50000J0D01*
G01*
G37*
%TD*%
%TO.C,DA3*%
X141400000Y-89532000D03*
G36*
G01*
X142200000Y-100542000D02*
X140600000Y-100542000D01*
G75*
G02*
X140550000Y-100492000I0J50000D01*
G01*
X140550000Y-98892000D01*
G75*
G02*
X140600000Y-98842000I50000J0D01*
G01*
X142200000Y-98842000D01*
G75*
G02*
X142250000Y-98892000I0J-50000D01*
G01*
X142250000Y-100492000D01*
G75*
G02*
X142200000Y-100542000I-50000J0D01*
G01*
G37*
%TD*%
%TO.C,DA4*%
X160450000Y-89532000D03*
G36*
G01*
X161250000Y-100542000D02*
X159650000Y-100542000D01*
G75*
G02*
X159600000Y-100492000I0J50000D01*
G01*
X159600000Y-98892000D01*
G75*
G02*
X159650000Y-98842000I50000J0D01*
G01*
X161250000Y-98842000D01*
G75*
G02*
X161300000Y-98892000I0J-50000D01*
G01*
X161300000Y-100492000D01*
G75*
G02*
X161250000Y-100542000I-50000J0D01*
G01*
G37*
%TD*%
%TO.C,DA5*%
X184580000Y-89532000D03*
G36*
G01*
X185380000Y-100542000D02*
X183780000Y-100542000D01*
G75*
G02*
X183730000Y-100492000I0J50000D01*
G01*
X183730000Y-98892000D01*
G75*
G02*
X183780000Y-98842000I50000J0D01*
G01*
X185380000Y-98842000D01*
G75*
G02*
X185430000Y-98892000I0J-50000D01*
G01*
X185430000Y-100492000D01*
G75*
G02*
X185380000Y-100542000I-50000J0D01*
G01*
G37*
%TD*%
%TO.C,DA6*%
X203620000Y-89532000D03*
G36*
G01*
X204420000Y-100542000D02*
X202820000Y-100542000D01*
G75*
G02*
X202770000Y-100492000I0J50000D01*
G01*
X202770000Y-98892000D01*
G75*
G02*
X202820000Y-98842000I50000J0D01*
G01*
X204420000Y-98842000D01*
G75*
G02*
X204470000Y-98892000I0J-50000D01*
G01*
X204470000Y-100492000D01*
G75*
G02*
X204420000Y-100542000I-50000J0D01*
G01*
G37*
%TD*%
%TO.C,DA7*%
X222670000Y-89532000D03*
G36*
G01*
X223470000Y-100542000D02*
X221870000Y-100542000D01*
G75*
G02*
X221820000Y-100492000I0J50000D01*
G01*
X221820000Y-98892000D01*
G75*
G02*
X221870000Y-98842000I50000J0D01*
G01*
X223470000Y-98842000D01*
G75*
G02*
X223520000Y-98892000I0J-50000D01*
G01*
X223520000Y-100492000D01*
G75*
G02*
X223470000Y-100542000I-50000J0D01*
G01*
G37*
%TD*%
%TO.C,DA8*%
X241700000Y-89590000D03*
G36*
G01*
X242500000Y-100600000D02*
X240900000Y-100600000D01*
G75*
G02*
X240850000Y-100550000I0J50000D01*
G01*
X240850000Y-98950000D01*
G75*
G02*
X240900000Y-98900000I50000J0D01*
G01*
X242500000Y-98900000D01*
G75*
G02*
X242550000Y-98950000I0J-50000D01*
G01*
X242550000Y-100550000D01*
G75*
G02*
X242500000Y-100600000I-50000J0D01*
G01*
G37*
%TD*%
%TO.C,DA9*%
X265800000Y-89532000D03*
G36*
G01*
X266600000Y-100542000D02*
X265000000Y-100542000D01*
G75*
G02*
X264950000Y-100492000I0J50000D01*
G01*
X264950000Y-98892000D01*
G75*
G02*
X265000000Y-98842000I50000J0D01*
G01*
X266600000Y-98842000D01*
G75*
G02*
X266650000Y-98892000I0J-50000D01*
G01*
X266650000Y-100492000D01*
G75*
G02*
X266600000Y-100542000I-50000J0D01*
G01*
G37*
%TD*%
%TO.C,DA10*%
X284850000Y-89532000D03*
G36*
G01*
X285650000Y-100542000D02*
X284050000Y-100542000D01*
G75*
G02*
X284000000Y-100492000I0J50000D01*
G01*
X284000000Y-98892000D01*
G75*
G02*
X284050000Y-98842000I50000J0D01*
G01*
X285650000Y-98842000D01*
G75*
G02*
X285700000Y-98892000I0J-50000D01*
G01*
X285700000Y-100492000D01*
G75*
G02*
X285650000Y-100542000I-50000J0D01*
G01*
G37*
%TD*%
%TO.C,DA11*%
X303930000Y-89532000D03*
G36*
G01*
X304730000Y-100542000D02*
X303130000Y-100542000D01*
G75*
G02*
X303080000Y-100492000I0J50000D01*
G01*
X303080000Y-98892000D01*
G75*
G02*
X303130000Y-98842000I50000J0D01*
G01*
X304730000Y-98842000D01*
G75*
G02*
X304780000Y-98892000I0J-50000D01*
G01*
X304780000Y-100492000D01*
G75*
G02*
X304730000Y-100542000I-50000J0D01*
G01*
G37*
%TD*%
%TO.C,DA12*%
X322990000Y-89582000D03*
G36*
G01*
X323790000Y-100592000D02*
X322190000Y-100592000D01*
G75*
G02*
X322140000Y-100542000I0J50000D01*
G01*
X322140000Y-98942000D01*
G75*
G02*
X322190000Y-98892000I50000J0D01*
G01*
X323790000Y-98892000D01*
G75*
G02*
X323840000Y-98942000I0J-50000D01*
G01*
X323840000Y-100542000D01*
G75*
G02*
X323790000Y-100592000I-50000J0D01*
G01*
G37*
%TD*%
%TO.C,DB0*%
X74690000Y-113662000D03*
G36*
G01*
X75490000Y-124672000D02*
X73890000Y-124672000D01*
G75*
G02*
X73840000Y-124622000I0J50000D01*
G01*
X73840000Y-123022000D01*
G75*
G02*
X73890000Y-122972000I50000J0D01*
G01*
X75490000Y-122972000D01*
G75*
G02*
X75540000Y-123022000I0J-50000D01*
G01*
X75540000Y-124622000D01*
G75*
G02*
X75490000Y-124672000I-50000J0D01*
G01*
G37*
%TD*%
%TO.C,DB1*%
X93720000Y-113662000D03*
G36*
G01*
X94520000Y-124672000D02*
X92920000Y-124672000D01*
G75*
G02*
X92870000Y-124622000I0J50000D01*
G01*
X92870000Y-123022000D01*
G75*
G02*
X92920000Y-122972000I50000J0D01*
G01*
X94520000Y-122972000D01*
G75*
G02*
X94570000Y-123022000I0J-50000D01*
G01*
X94570000Y-124622000D01*
G75*
G02*
X94520000Y-124672000I-50000J0D01*
G01*
G37*
%TD*%
%TO.C,DB2*%
X112770000Y-113662000D03*
G36*
G01*
X113570000Y-124672000D02*
X111970000Y-124672000D01*
G75*
G02*
X111920000Y-124622000I0J50000D01*
G01*
X111920000Y-123022000D01*
G75*
G02*
X111970000Y-122972000I50000J0D01*
G01*
X113570000Y-122972000D01*
G75*
G02*
X113620000Y-123022000I0J-50000D01*
G01*
X113620000Y-124622000D01*
G75*
G02*
X113570000Y-124672000I-50000J0D01*
G01*
G37*
%TD*%
%TO.C,DB3*%
X131850000Y-113612000D03*
G36*
G01*
X132650000Y-124622000D02*
X131050000Y-124622000D01*
G75*
G02*
X131000000Y-124572000I0J50000D01*
G01*
X131000000Y-122972000D01*
G75*
G02*
X131050000Y-122922000I50000J0D01*
G01*
X132650000Y-122922000D01*
G75*
G02*
X132700000Y-122972000I0J-50000D01*
G01*
X132700000Y-124572000D01*
G75*
G02*
X132650000Y-124622000I-50000J0D01*
G01*
G37*
%TD*%
%TO.C,DB4*%
X150900000Y-113662000D03*
G36*
G01*
X151700000Y-124672000D02*
X150100000Y-124672000D01*
G75*
G02*
X150050000Y-124622000I0J50000D01*
G01*
X150050000Y-123022000D01*
G75*
G02*
X150100000Y-122972000I50000J0D01*
G01*
X151700000Y-122972000D01*
G75*
G02*
X151750000Y-123022000I0J-50000D01*
G01*
X151750000Y-124622000D01*
G75*
G02*
X151700000Y-124672000I-50000J0D01*
G01*
G37*
%TD*%
%TO.C,DB5*%
X169940000Y-113592000D03*
G36*
G01*
X170740000Y-124602000D02*
X169140000Y-124602000D01*
G75*
G02*
X169090000Y-124552000I0J50000D01*
G01*
X169090000Y-122952000D01*
G75*
G02*
X169140000Y-122902000I50000J0D01*
G01*
X170740000Y-122902000D01*
G75*
G02*
X170790000Y-122952000I0J-50000D01*
G01*
X170790000Y-124552000D01*
G75*
G02*
X170740000Y-124602000I-50000J0D01*
G01*
G37*
%TD*%
%TO.C,DB6*%
X188970000Y-113662000D03*
G36*
G01*
X189770000Y-124672000D02*
X188170000Y-124672000D01*
G75*
G02*
X188120000Y-124622000I0J50000D01*
G01*
X188120000Y-123022000D01*
G75*
G02*
X188170000Y-122972000I50000J0D01*
G01*
X189770000Y-122972000D01*
G75*
G02*
X189820000Y-123022000I0J-50000D01*
G01*
X189820000Y-124622000D01*
G75*
G02*
X189770000Y-124672000I-50000J0D01*
G01*
G37*
%TD*%
%TO.C,DB7*%
X208040000Y-113642000D03*
G36*
G01*
X208840000Y-124652000D02*
X207240000Y-124652000D01*
G75*
G02*
X207190000Y-124602000I0J50000D01*
G01*
X207190000Y-123002000D01*
G75*
G02*
X207240000Y-122952000I50000J0D01*
G01*
X208840000Y-122952000D01*
G75*
G02*
X208890000Y-123002000I0J-50000D01*
G01*
X208890000Y-124602000D01*
G75*
G02*
X208840000Y-124652000I-50000J0D01*
G01*
G37*
%TD*%
%TO.C,DB8*%
X227080000Y-113662000D03*
G36*
G01*
X227880000Y-124672000D02*
X226280000Y-124672000D01*
G75*
G02*
X226230000Y-124622000I0J50000D01*
G01*
X226230000Y-123022000D01*
G75*
G02*
X226280000Y-122972000I50000J0D01*
G01*
X227880000Y-122972000D01*
G75*
G02*
X227930000Y-123022000I0J-50000D01*
G01*
X227930000Y-124622000D01*
G75*
G02*
X227880000Y-124672000I-50000J0D01*
G01*
G37*
%TD*%
%TO.C,DB9*%
X246140000Y-113642000D03*
G36*
G01*
X246940000Y-124652000D02*
X245340000Y-124652000D01*
G75*
G02*
X245290000Y-124602000I0J50000D01*
G01*
X245290000Y-123002000D01*
G75*
G02*
X245340000Y-122952000I50000J0D01*
G01*
X246940000Y-122952000D01*
G75*
G02*
X246990000Y-123002000I0J-50000D01*
G01*
X246990000Y-124602000D01*
G75*
G02*
X246940000Y-124652000I-50000J0D01*
G01*
G37*
%TD*%
%TO.C,DB10*%
X265180000Y-113642000D03*
G36*
G01*
X265980000Y-124652000D02*
X264380000Y-124652000D01*
G75*
G02*
X264330000Y-124602000I0J50000D01*
G01*
X264330000Y-123002000D01*
G75*
G02*
X264380000Y-122952000I50000J0D01*
G01*
X265980000Y-122952000D01*
G75*
G02*
X266030000Y-123002000I0J-50000D01*
G01*
X266030000Y-124602000D01*
G75*
G02*
X265980000Y-124652000I-50000J0D01*
G01*
G37*
%TD*%
%TO.C,DB11*%
X284240000Y-113612000D03*
G36*
G01*
X285040000Y-124622000D02*
X283440000Y-124622000D01*
G75*
G02*
X283390000Y-124572000I0J50000D01*
G01*
X283390000Y-122972000D01*
G75*
G02*
X283440000Y-122922000I50000J0D01*
G01*
X285040000Y-122922000D01*
G75*
G02*
X285090000Y-122972000I0J-50000D01*
G01*
X285090000Y-124572000D01*
G75*
G02*
X285040000Y-124622000I-50000J0D01*
G01*
G37*
%TD*%
%TO.C,DB12*%
X303280000Y-113642000D03*
G36*
G01*
X304080000Y-124652000D02*
X302480000Y-124652000D01*
G75*
G02*
X302430000Y-124602000I0J50000D01*
G01*
X302430000Y-123002000D01*
G75*
G02*
X302480000Y-122952000I50000J0D01*
G01*
X304080000Y-122952000D01*
G75*
G02*
X304130000Y-123002000I0J-50000D01*
G01*
X304130000Y-124602000D01*
G75*
G02*
X304080000Y-124652000I-50000J0D01*
G01*
G37*
%TD*%
%TO.C,DB13*%
X341240000Y-113620000D03*
G36*
G01*
X342040000Y-124630000D02*
X340440000Y-124630000D01*
G75*
G02*
X340390000Y-124580000I0J50000D01*
G01*
X340390000Y-122980000D01*
G75*
G02*
X340440000Y-122930000I50000J0D01*
G01*
X342040000Y-122930000D01*
G75*
G02*
X342090000Y-122980000I0J-50000D01*
G01*
X342090000Y-124580000D01*
G75*
G02*
X342040000Y-124630000I-50000J0D01*
G01*
G37*
%TD*%
%TO.C,DC0*%
X79830000Y-132730000D03*
G36*
G01*
X80630000Y-143740000D02*
X79030000Y-143740000D01*
G75*
G02*
X78980000Y-143690000I0J50000D01*
G01*
X78980000Y-142090000D01*
G75*
G02*
X79030000Y-142040000I50000J0D01*
G01*
X80630000Y-142040000D01*
G75*
G02*
X80680000Y-142090000I0J-50000D01*
G01*
X80680000Y-143690000D01*
G75*
G02*
X80630000Y-143740000I-50000J0D01*
G01*
G37*
%TD*%
%TO.C,DC1*%
X103260000Y-132720000D03*
G36*
G01*
X104060000Y-143730000D02*
X102460000Y-143730000D01*
G75*
G02*
X102410000Y-143680000I0J50000D01*
G01*
X102410000Y-142080000D01*
G75*
G02*
X102460000Y-142030000I50000J0D01*
G01*
X104060000Y-142030000D01*
G75*
G02*
X104110000Y-142080000I0J-50000D01*
G01*
X104110000Y-143680000D01*
G75*
G02*
X104060000Y-143730000I-50000J0D01*
G01*
G37*
%TD*%
%TO.C,DC2*%
X122300000Y-132720000D03*
G36*
G01*
X123100000Y-143730000D02*
X121500000Y-143730000D01*
G75*
G02*
X121450000Y-143680000I0J50000D01*
G01*
X121450000Y-142080000D01*
G75*
G02*
X121500000Y-142030000I50000J0D01*
G01*
X123100000Y-142030000D01*
G75*
G02*
X123150000Y-142080000I0J-50000D01*
G01*
X123150000Y-143680000D01*
G75*
G02*
X123100000Y-143730000I-50000J0D01*
G01*
G37*
%TD*%
%TO.C,DC3*%
X141370000Y-132702000D03*
G36*
G01*
X142170000Y-143712000D02*
X140570000Y-143712000D01*
G75*
G02*
X140520000Y-143662000I0J50000D01*
G01*
X140520000Y-142062000D01*
G75*
G02*
X140570000Y-142012000I50000J0D01*
G01*
X142170000Y-142012000D01*
G75*
G02*
X142220000Y-142062000I0J-50000D01*
G01*
X142220000Y-143662000D01*
G75*
G02*
X142170000Y-143712000I-50000J0D01*
G01*
G37*
%TD*%
%TO.C,DC4*%
X160410000Y-132692000D03*
G36*
G01*
X161210000Y-143702000D02*
X159610000Y-143702000D01*
G75*
G02*
X159560000Y-143652000I0J50000D01*
G01*
X159560000Y-142052000D01*
G75*
G02*
X159610000Y-142002000I50000J0D01*
G01*
X161210000Y-142002000D01*
G75*
G02*
X161260000Y-142052000I0J-50000D01*
G01*
X161260000Y-143652000D01*
G75*
G02*
X161210000Y-143702000I-50000J0D01*
G01*
G37*
%TD*%
%TO.C,DC5*%
X179460000Y-132682000D03*
G36*
G01*
X180260000Y-143692000D02*
X178660000Y-143692000D01*
G75*
G02*
X178610000Y-143642000I0J50000D01*
G01*
X178610000Y-142042000D01*
G75*
G02*
X178660000Y-141992000I50000J0D01*
G01*
X180260000Y-141992000D01*
G75*
G02*
X180310000Y-142042000I0J-50000D01*
G01*
X180310000Y-143642000D01*
G75*
G02*
X180260000Y-143692000I-50000J0D01*
G01*
G37*
%TD*%
%TO.C,DC6*%
X198520000Y-132682000D03*
G36*
G01*
X199320000Y-143692000D02*
X197720000Y-143692000D01*
G75*
G02*
X197670000Y-143642000I0J50000D01*
G01*
X197670000Y-142042000D01*
G75*
G02*
X197720000Y-141992000I50000J0D01*
G01*
X199320000Y-141992000D01*
G75*
G02*
X199370000Y-142042000I0J-50000D01*
G01*
X199370000Y-143642000D01*
G75*
G02*
X199320000Y-143692000I-50000J0D01*
G01*
G37*
%TD*%
%TO.C,DC7*%
X217570000Y-132682000D03*
G36*
G01*
X218370000Y-143692000D02*
X216770000Y-143692000D01*
G75*
G02*
X216720000Y-143642000I0J50000D01*
G01*
X216720000Y-142042000D01*
G75*
G02*
X216770000Y-141992000I50000J0D01*
G01*
X218370000Y-141992000D01*
G75*
G02*
X218420000Y-142042000I0J-50000D01*
G01*
X218420000Y-143642000D01*
G75*
G02*
X218370000Y-143692000I-50000J0D01*
G01*
G37*
%TD*%
%TO.C,DC8*%
X236610000Y-132701000D03*
G36*
G01*
X237410000Y-143711000D02*
X235810000Y-143711000D01*
G75*
G02*
X235760000Y-143661000I0J50000D01*
G01*
X235760000Y-142061000D01*
G75*
G02*
X235810000Y-142011000I50000J0D01*
G01*
X237410000Y-142011000D01*
G75*
G02*
X237460000Y-142061000I0J-50000D01*
G01*
X237460000Y-143661000D01*
G75*
G02*
X237410000Y-143711000I-50000J0D01*
G01*
G37*
%TD*%
%TO.C,DC9*%
X255650000Y-132701000D03*
G36*
G01*
X256450000Y-143711000D02*
X254850000Y-143711000D01*
G75*
G02*
X254800000Y-143661000I0J50000D01*
G01*
X254800000Y-142061000D01*
G75*
G02*
X254850000Y-142011000I50000J0D01*
G01*
X256450000Y-142011000D01*
G75*
G02*
X256500000Y-142061000I0J-50000D01*
G01*
X256500000Y-143661000D01*
G75*
G02*
X256450000Y-143711000I-50000J0D01*
G01*
G37*
%TD*%
%TO.C,DC10*%
X274720000Y-132722000D03*
G36*
G01*
X275520000Y-143732000D02*
X273920000Y-143732000D01*
G75*
G02*
X273870000Y-143682000I0J50000D01*
G01*
X273870000Y-142082000D01*
G75*
G02*
X273920000Y-142032000I50000J0D01*
G01*
X275520000Y-142032000D01*
G75*
G02*
X275570000Y-142082000I0J-50000D01*
G01*
X275570000Y-143682000D01*
G75*
G02*
X275520000Y-143732000I-50000J0D01*
G01*
G37*
%TD*%
%TO.C,DC11*%
X293780000Y-132702000D03*
G36*
G01*
X294580000Y-143712000D02*
X292980000Y-143712000D01*
G75*
G02*
X292930000Y-143662000I0J50000D01*
G01*
X292930000Y-142062000D01*
G75*
G02*
X292980000Y-142012000I50000J0D01*
G01*
X294580000Y-142012000D01*
G75*
G02*
X294630000Y-142062000I0J-50000D01*
G01*
X294630000Y-143662000D01*
G75*
G02*
X294580000Y-143712000I-50000J0D01*
G01*
G37*
%TD*%
%TO.C,DC12*%
X312810000Y-132702000D03*
G36*
G01*
X313610000Y-143712000D02*
X312010000Y-143712000D01*
G75*
G02*
X311960000Y-143662000I0J50000D01*
G01*
X311960000Y-142062000D01*
G75*
G02*
X312010000Y-142012000I50000J0D01*
G01*
X313610000Y-142012000D01*
G75*
G02*
X313660000Y-142062000I0J-50000D01*
G01*
X313660000Y-143662000D01*
G75*
G02*
X313610000Y-143712000I-50000J0D01*
G01*
G37*
%TD*%
%TO.C,DC13*%
X336901000Y-132691000D03*
G36*
G01*
X337701000Y-143701000D02*
X336101000Y-143701000D01*
G75*
G02*
X336051000Y-143651000I0J50000D01*
G01*
X336051000Y-142051000D01*
G75*
G02*
X336101000Y-142001000I50000J0D01*
G01*
X337701000Y-142001000D01*
G75*
G02*
X337751000Y-142051000I0J-50000D01*
G01*
X337751000Y-143651000D01*
G75*
G02*
X337701000Y-143701000I-50000J0D01*
G01*
G37*
%TD*%
%TO.C,DD0*%
X82149000Y-151724000D03*
G36*
G01*
X82949000Y-162734000D02*
X81349000Y-162734000D01*
G75*
G02*
X81299000Y-162684000I0J50000D01*
G01*
X81299000Y-161084000D01*
G75*
G02*
X81349000Y-161034000I50000J0D01*
G01*
X82949000Y-161034000D01*
G75*
G02*
X82999000Y-161084000I0J-50000D01*
G01*
X82999000Y-162684000D01*
G75*
G02*
X82949000Y-162734000I-50000J0D01*
G01*
G37*
%TD*%
%TO.C,DD1*%
X108021000Y-151744000D03*
G36*
G01*
X108821000Y-162754000D02*
X107221000Y-162754000D01*
G75*
G02*
X107171000Y-162704000I0J50000D01*
G01*
X107171000Y-161104000D01*
G75*
G02*
X107221000Y-161054000I50000J0D01*
G01*
X108821000Y-161054000D01*
G75*
G02*
X108871000Y-161104000I0J-50000D01*
G01*
X108871000Y-162704000D01*
G75*
G02*
X108821000Y-162754000I-50000J0D01*
G01*
G37*
%TD*%
%TO.C,DD2*%
X127081000Y-151764000D03*
G36*
G01*
X127881000Y-162774000D02*
X126281000Y-162774000D01*
G75*
G02*
X126231000Y-162724000I0J50000D01*
G01*
X126231000Y-161124000D01*
G75*
G02*
X126281000Y-161074000I50000J0D01*
G01*
X127881000Y-161074000D01*
G75*
G02*
X127931000Y-161124000I0J-50000D01*
G01*
X127931000Y-162724000D01*
G75*
G02*
X127881000Y-162774000I-50000J0D01*
G01*
G37*
%TD*%
%TO.C,DD3*%
X146111000Y-151674000D03*
G36*
G01*
X146911000Y-162684000D02*
X145311000Y-162684000D01*
G75*
G02*
X145261000Y-162634000I0J50000D01*
G01*
X145261000Y-161034000D01*
G75*
G02*
X145311000Y-160984000I50000J0D01*
G01*
X146911000Y-160984000D01*
G75*
G02*
X146961000Y-161034000I0J-50000D01*
G01*
X146961000Y-162634000D01*
G75*
G02*
X146911000Y-162684000I-50000J0D01*
G01*
G37*
%TD*%
%TO.C,DD4*%
X165181000Y-151694000D03*
G36*
G01*
X165981000Y-162704000D02*
X164381000Y-162704000D01*
G75*
G02*
X164331000Y-162654000I0J50000D01*
G01*
X164331000Y-161054000D01*
G75*
G02*
X164381000Y-161004000I50000J0D01*
G01*
X165981000Y-161004000D01*
G75*
G02*
X166031000Y-161054000I0J-50000D01*
G01*
X166031000Y-162654000D01*
G75*
G02*
X165981000Y-162704000I-50000J0D01*
G01*
G37*
%TD*%
%TO.C,DD5*%
X184211000Y-151751000D03*
G36*
G01*
X185011000Y-162761000D02*
X183411000Y-162761000D01*
G75*
G02*
X183361000Y-162711000I0J50000D01*
G01*
X183361000Y-161111000D01*
G75*
G02*
X183411000Y-161061000I50000J0D01*
G01*
X185011000Y-161061000D01*
G75*
G02*
X185061000Y-161111000I0J-50000D01*
G01*
X185061000Y-162711000D01*
G75*
G02*
X185011000Y-162761000I-50000J0D01*
G01*
G37*
%TD*%
%TO.C,DD6*%
X203281000Y-151714000D03*
G36*
G01*
X204081000Y-162724000D02*
X202481000Y-162724000D01*
G75*
G02*
X202431000Y-162674000I0J50000D01*
G01*
X202431000Y-161074000D01*
G75*
G02*
X202481000Y-161024000I50000J0D01*
G01*
X204081000Y-161024000D01*
G75*
G02*
X204131000Y-161074000I0J-50000D01*
G01*
X204131000Y-162674000D01*
G75*
G02*
X204081000Y-162724000I-50000J0D01*
G01*
G37*
%TD*%
%TO.C,DD7*%
X222331000Y-151760000D03*
G36*
G01*
X223131000Y-162770000D02*
X221531000Y-162770000D01*
G75*
G02*
X221481000Y-162720000I0J50000D01*
G01*
X221481000Y-161120000D01*
G75*
G02*
X221531000Y-161070000I50000J0D01*
G01*
X223131000Y-161070000D01*
G75*
G02*
X223181000Y-161120000I0J-50000D01*
G01*
X223181000Y-162720000D01*
G75*
G02*
X223131000Y-162770000I-50000J0D01*
G01*
G37*
%TD*%
%TO.C,DD8*%
X241361000Y-151724000D03*
G36*
G01*
X242161000Y-162734000D02*
X240561000Y-162734000D01*
G75*
G02*
X240511000Y-162684000I0J50000D01*
G01*
X240511000Y-161084000D01*
G75*
G02*
X240561000Y-161034000I50000J0D01*
G01*
X242161000Y-161034000D01*
G75*
G02*
X242211000Y-161084000I0J-50000D01*
G01*
X242211000Y-162684000D01*
G75*
G02*
X242161000Y-162734000I-50000J0D01*
G01*
G37*
%TD*%
%TO.C,DD9*%
X260411000Y-151714000D03*
G36*
G01*
X261211000Y-162724000D02*
X259611000Y-162724000D01*
G75*
G02*
X259561000Y-162674000I0J50000D01*
G01*
X259561000Y-161074000D01*
G75*
G02*
X259611000Y-161024000I50000J0D01*
G01*
X261211000Y-161024000D01*
G75*
G02*
X261261000Y-161074000I0J-50000D01*
G01*
X261261000Y-162674000D01*
G75*
G02*
X261211000Y-162724000I-50000J0D01*
G01*
G37*
%TD*%
%TO.C,DD10*%
X279471000Y-151704000D03*
G36*
G01*
X280271000Y-162714000D02*
X278671000Y-162714000D01*
G75*
G02*
X278621000Y-162664000I0J50000D01*
G01*
X278621000Y-161064000D01*
G75*
G02*
X278671000Y-161014000I50000J0D01*
G01*
X280271000Y-161014000D01*
G75*
G02*
X280321000Y-161064000I0J-50000D01*
G01*
X280321000Y-162664000D01*
G75*
G02*
X280271000Y-162714000I-50000J0D01*
G01*
G37*
%TD*%
%TO.C,DD11*%
X298508000Y-151750000D03*
G36*
G01*
X299308000Y-162760000D02*
X297708000Y-162760000D01*
G75*
G02*
X297658000Y-162710000I0J50000D01*
G01*
X297658000Y-161110000D01*
G75*
G02*
X297708000Y-161060000I50000J0D01*
G01*
X299308000Y-161060000D01*
G75*
G02*
X299358000Y-161110000I0J-50000D01*
G01*
X299358000Y-162710000D01*
G75*
G02*
X299308000Y-162760000I-50000J0D01*
G01*
G37*
%TD*%
%TO.C,DD12*%
X339020000Y-151862000D03*
G36*
G01*
X339820000Y-162872000D02*
X338220000Y-162872000D01*
G75*
G02*
X338170000Y-162822000I0J50000D01*
G01*
X338170000Y-161222000D01*
G75*
G02*
X338220000Y-161172000I50000J0D01*
G01*
X339820000Y-161172000D01*
G75*
G02*
X339870000Y-161222000I0J-50000D01*
G01*
X339870000Y-162822000D01*
G75*
G02*
X339820000Y-162872000I-50000J0D01*
G01*
G37*
%TD*%
%TO.C,DD13*%
X380450000Y-135662000D03*
G36*
G01*
X381250000Y-146672000D02*
X379650000Y-146672000D01*
G75*
G02*
X379600000Y-146622000I0J50000D01*
G01*
X379600000Y-145022000D01*
G75*
G02*
X379650000Y-144972000I50000J0D01*
G01*
X381250000Y-144972000D01*
G75*
G02*
X381300000Y-145022000I0J-50000D01*
G01*
X381300000Y-146622000D01*
G75*
G02*
X381250000Y-146672000I-50000J0D01*
G01*
G37*
%TD*%
%TO.C,DE0*%
X96050000Y-170732000D03*
G36*
G01*
X96850000Y-181742000D02*
X95250000Y-181742000D01*
G75*
G02*
X95200000Y-181692000I0J50000D01*
G01*
X95200000Y-180092000D01*
G75*
G02*
X95250000Y-180042000I50000J0D01*
G01*
X96850000Y-180042000D01*
G75*
G02*
X96900000Y-180092000I0J-50000D01*
G01*
X96900000Y-181692000D01*
G75*
G02*
X96850000Y-181742000I-50000J0D01*
G01*
G37*
%TD*%
%TO.C,DE1*%
X117526000Y-170761000D03*
G36*
G01*
X118326000Y-181771000D02*
X116726000Y-181771000D01*
G75*
G02*
X116676000Y-181721000I0J50000D01*
G01*
X116676000Y-180121000D01*
G75*
G02*
X116726000Y-180071000I50000J0D01*
G01*
X118326000Y-180071000D01*
G75*
G02*
X118376000Y-180121000I0J-50000D01*
G01*
X118376000Y-181721000D01*
G75*
G02*
X118326000Y-181771000I-50000J0D01*
G01*
G37*
%TD*%
%TO.C,DE2*%
X136576000Y-170771000D03*
G36*
G01*
X137376000Y-181781000D02*
X135776000Y-181781000D01*
G75*
G02*
X135726000Y-181731000I0J50000D01*
G01*
X135726000Y-180131000D01*
G75*
G02*
X135776000Y-180081000I50000J0D01*
G01*
X137376000Y-180081000D01*
G75*
G02*
X137426000Y-180131000I0J-50000D01*
G01*
X137426000Y-181731000D01*
G75*
G02*
X137376000Y-181781000I-50000J0D01*
G01*
G37*
%TD*%
%TO.C,DE3*%
X155636000Y-170764000D03*
G36*
G01*
X156436000Y-181774000D02*
X154836000Y-181774000D01*
G75*
G02*
X154786000Y-181724000I0J50000D01*
G01*
X154786000Y-180124000D01*
G75*
G02*
X154836000Y-180074000I50000J0D01*
G01*
X156436000Y-180074000D01*
G75*
G02*
X156486000Y-180124000I0J-50000D01*
G01*
X156486000Y-181724000D01*
G75*
G02*
X156436000Y-181774000I-50000J0D01*
G01*
G37*
%TD*%
%TO.C,DE4*%
X174686000Y-170844000D03*
G36*
G01*
X175486000Y-181854000D02*
X173886000Y-181854000D01*
G75*
G02*
X173836000Y-181804000I0J50000D01*
G01*
X173836000Y-180204000D01*
G75*
G02*
X173886000Y-180154000I50000J0D01*
G01*
X175486000Y-180154000D01*
G75*
G02*
X175536000Y-180204000I0J-50000D01*
G01*
X175536000Y-181804000D01*
G75*
G02*
X175486000Y-181854000I-50000J0D01*
G01*
G37*
%TD*%
%TO.C,DE5*%
X193726000Y-170802000D03*
G36*
G01*
X194526000Y-181812000D02*
X192926000Y-181812000D01*
G75*
G02*
X192876000Y-181762000I0J50000D01*
G01*
X192876000Y-180162000D01*
G75*
G02*
X192926000Y-180112000I50000J0D01*
G01*
X194526000Y-180112000D01*
G75*
G02*
X194576000Y-180162000I0J-50000D01*
G01*
X194576000Y-181762000D01*
G75*
G02*
X194526000Y-181812000I-50000J0D01*
G01*
G37*
%TD*%
%TO.C,DE6*%
X212776000Y-170780000D03*
G36*
G01*
X213576000Y-181790000D02*
X211976000Y-181790000D01*
G75*
G02*
X211926000Y-181740000I0J50000D01*
G01*
X211926000Y-180140000D01*
G75*
G02*
X211976000Y-180090000I50000J0D01*
G01*
X213576000Y-180090000D01*
G75*
G02*
X213626000Y-180140000I0J-50000D01*
G01*
X213626000Y-181740000D01*
G75*
G02*
X213576000Y-181790000I-50000J0D01*
G01*
G37*
%TD*%
%TO.C,DE7*%
X231856000Y-170800000D03*
G36*
G01*
X232656000Y-181810000D02*
X231056000Y-181810000D01*
G75*
G02*
X231006000Y-181760000I0J50000D01*
G01*
X231006000Y-180160000D01*
G75*
G02*
X231056000Y-180110000I50000J0D01*
G01*
X232656000Y-180110000D01*
G75*
G02*
X232706000Y-180160000I0J-50000D01*
G01*
X232706000Y-181760000D01*
G75*
G02*
X232656000Y-181810000I-50000J0D01*
G01*
G37*
%TD*%
%TO.C,DE8*%
X250886000Y-170811000D03*
G36*
G01*
X251686000Y-181821000D02*
X250086000Y-181821000D01*
G75*
G02*
X250036000Y-181771000I0J50000D01*
G01*
X250036000Y-180171000D01*
G75*
G02*
X250086000Y-180121000I50000J0D01*
G01*
X251686000Y-180121000D01*
G75*
G02*
X251736000Y-180171000I0J-50000D01*
G01*
X251736000Y-181771000D01*
G75*
G02*
X251686000Y-181821000I-50000J0D01*
G01*
G37*
%TD*%
%TO.C,DE9*%
X269960000Y-170801000D03*
G36*
G01*
X270760000Y-181811000D02*
X269160000Y-181811000D01*
G75*
G02*
X269110000Y-181761000I0J50000D01*
G01*
X269110000Y-180161000D01*
G75*
G02*
X269160000Y-180111000I50000J0D01*
G01*
X270760000Y-180111000D01*
G75*
G02*
X270810000Y-180161000I0J-50000D01*
G01*
X270810000Y-181761000D01*
G75*
G02*
X270760000Y-181811000I-50000J0D01*
G01*
G37*
%TD*%
%TO.C,DE10*%
X289016000Y-170751000D03*
G36*
G01*
X289816000Y-181761000D02*
X288216000Y-181761000D01*
G75*
G02*
X288166000Y-181711000I0J50000D01*
G01*
X288166000Y-180111000D01*
G75*
G02*
X288216000Y-180061000I50000J0D01*
G01*
X289816000Y-180061000D01*
G75*
G02*
X289866000Y-180111000I0J-50000D01*
G01*
X289866000Y-181711000D01*
G75*
G02*
X289816000Y-181761000I-50000J0D01*
G01*
G37*
%TD*%
%TO.C,DE11*%
X315410000Y-170802000D03*
G36*
G01*
X316210000Y-181812000D02*
X314610000Y-181812000D01*
G75*
G02*
X314560000Y-181762000I0J50000D01*
G01*
X314560000Y-180162000D01*
G75*
G02*
X314610000Y-180112000I50000J0D01*
G01*
X316210000Y-180112000D01*
G75*
G02*
X316260000Y-180162000I0J-50000D01*
G01*
X316260000Y-181762000D01*
G75*
G02*
X316210000Y-181812000I-50000J0D01*
G01*
G37*
%TD*%
%TO.C,DE12*%
X346151000Y-175810000D03*
G36*
G01*
X346951000Y-186820000D02*
X345351000Y-186820000D01*
G75*
G02*
X345301000Y-186770000I0J50000D01*
G01*
X345301000Y-185170000D01*
G75*
G02*
X345351000Y-185120000I50000J0D01*
G01*
X346951000Y-185120000D01*
G75*
G02*
X347001000Y-185170000I0J-50000D01*
G01*
X347001000Y-186770000D01*
G75*
G02*
X346951000Y-186820000I-50000J0D01*
G01*
G37*
%TD*%
%TO.C,DF0*%
X77323000Y-189851000D03*
G36*
G01*
X78123000Y-200861000D02*
X76523000Y-200861000D01*
G75*
G02*
X76473000Y-200811000I0J50000D01*
G01*
X76473000Y-199211000D01*
G75*
G02*
X76523000Y-199161000I50000J0D01*
G01*
X78123000Y-199161000D01*
G75*
G02*
X78173000Y-199211000I0J-50000D01*
G01*
X78173000Y-200811000D01*
G75*
G02*
X78123000Y-200861000I-50000J0D01*
G01*
G37*
%TD*%
%TO.C,DF1*%
X98486000Y-189751000D03*
G36*
G01*
X99286000Y-200761000D02*
X97686000Y-200761000D01*
G75*
G02*
X97636000Y-200711000I0J50000D01*
G01*
X97636000Y-199111000D01*
G75*
G02*
X97686000Y-199061000I50000J0D01*
G01*
X99286000Y-199061000D01*
G75*
G02*
X99336000Y-199111000I0J-50000D01*
G01*
X99336000Y-200711000D01*
G75*
G02*
X99286000Y-200761000I-50000J0D01*
G01*
G37*
%TD*%
%TO.C,DF2*%
X120189000Y-189861000D03*
G36*
G01*
X120989000Y-200871000D02*
X119389000Y-200871000D01*
G75*
G02*
X119339000Y-200821000I0J50000D01*
G01*
X119339000Y-199221000D01*
G75*
G02*
X119389000Y-199171000I50000J0D01*
G01*
X120989000Y-199171000D01*
G75*
G02*
X121039000Y-199221000I0J-50000D01*
G01*
X121039000Y-200821000D01*
G75*
G02*
X120989000Y-200871000I-50000J0D01*
G01*
G37*
%TD*%
%TO.C,DF3*%
G36*
G01*
X144819605Y-195577231D02*
X144819605Y-195577231D01*
G75*
G02*
X144218564Y-194536198I219996J821037D01*
G01*
X144218564Y-194536198D01*
G75*
G02*
X145259597Y-193935157I821037J-219996D01*
G01*
X145259597Y-193935157D01*
G75*
G02*
X145860638Y-194976190I-219996J-821037D01*
G01*
X145860638Y-194976190D01*
G75*
G02*
X144819605Y-195577231I-821037J219996D01*
G01*
G37*
G36*
G01*
X142962744Y-205598092D02*
X141417263Y-205183981D01*
G75*
G02*
X141381908Y-205122744I12941J48296D01*
G01*
X141796019Y-203577263D01*
G75*
G02*
X141857256Y-203541908I48296J-12941D01*
G01*
X143402737Y-203956019D01*
G75*
G02*
X143438092Y-204017256I-12941J-48296D01*
G01*
X143023981Y-205562737D01*
G75*
G02*
X142962744Y-205598092I-48296J12941D01*
G01*
G37*
%TD*%
%TO.C,DF4*%
G36*
G01*
X181439605Y-205419231D02*
X181439605Y-205419231D01*
G75*
G02*
X180838564Y-204378198I219996J821037D01*
G01*
X180838564Y-204378198D01*
G75*
G02*
X181879597Y-203777157I821037J-219996D01*
G01*
X181879597Y-203777157D01*
G75*
G02*
X182480638Y-204818190I-219996J-821037D01*
G01*
X182480638Y-204818190D01*
G75*
G02*
X181439605Y-205419231I-821037J219996D01*
G01*
G37*
G36*
G01*
X179582744Y-215440092D02*
X178037263Y-215025981D01*
G75*
G02*
X178001908Y-214964744I12941J48296D01*
G01*
X178416019Y-213419263D01*
G75*
G02*
X178477256Y-213383908I48296J-12941D01*
G01*
X180022737Y-213798019D01*
G75*
G02*
X180058092Y-213859256I-12941J-48296D01*
G01*
X179643981Y-215404737D01*
G75*
G02*
X179582744Y-215440092I-48296J12941D01*
G01*
G37*
%TD*%
%TO.C,DF5*%
G36*
G01*
X223160395Y-196229231D02*
X223160395Y-196229231D01*
G75*
G02*
X222119362Y-195628190I-219996J821037D01*
G01*
X222119362Y-195628190D01*
G75*
G02*
X222720403Y-194587157I821037J219996D01*
G01*
X222720403Y-194587157D01*
G75*
G02*
X223761436Y-195188198I219996J-821037D01*
G01*
X223761436Y-195188198D01*
G75*
G02*
X223160395Y-196229231I-821037J-219996D01*
G01*
G37*
G36*
G01*
X226562737Y-205835981D02*
X225017256Y-206250092D01*
G75*
G02*
X224956019Y-206214737I-12941J48296D01*
G01*
X224541908Y-204669256D01*
G75*
G02*
X224577263Y-204608019I48296J12941D01*
G01*
X226122744Y-204193908D01*
G75*
G02*
X226183981Y-204229263I12941J-48296D01*
G01*
X226598092Y-205774744D01*
G75*
G02*
X226562737Y-205835981I-48296J-12941D01*
G01*
G37*
%TD*%
%TO.C,DF6*%
G36*
G01*
X241820395Y-191257231D02*
X241820395Y-191257231D01*
G75*
G02*
X240779362Y-190656190I-219996J821037D01*
G01*
X240779362Y-190656190D01*
G75*
G02*
X241380403Y-189615157I821037J219996D01*
G01*
X241380403Y-189615157D01*
G75*
G02*
X242421436Y-190216198I219996J-821037D01*
G01*
X242421436Y-190216198D01*
G75*
G02*
X241820395Y-191257231I-821037J-219996D01*
G01*
G37*
G36*
G01*
X245222737Y-200863981D02*
X243677256Y-201278092D01*
G75*
G02*
X243616019Y-201242737I-12941J48296D01*
G01*
X243201908Y-199697256D01*
G75*
G02*
X243237263Y-199636019I48296J12941D01*
G01*
X244782744Y-199221908D01*
G75*
G02*
X244843981Y-199257263I12941J-48296D01*
G01*
X245258092Y-200802744D01*
G75*
G02*
X245222737Y-200863981I-48296J-12941D01*
G01*
G37*
%TD*%
%TO.C,DF7*%
X264893000Y-189881000D03*
G36*
G01*
X265693000Y-200891000D02*
X264093000Y-200891000D01*
G75*
G02*
X264043000Y-200841000I0J50000D01*
G01*
X264043000Y-199241000D01*
G75*
G02*
X264093000Y-199191000I50000J0D01*
G01*
X265693000Y-199191000D01*
G75*
G02*
X265743000Y-199241000I0J-50000D01*
G01*
X265743000Y-200841000D01*
G75*
G02*
X265693000Y-200891000I-50000J0D01*
G01*
G37*
%TD*%
%TO.C,DF8*%
X283936000Y-189830000D03*
G36*
G01*
X284736000Y-200840000D02*
X283136000Y-200840000D01*
G75*
G02*
X283086000Y-200790000I0J50000D01*
G01*
X283086000Y-199190000D01*
G75*
G02*
X283136000Y-199140000I50000J0D01*
G01*
X284736000Y-199140000D01*
G75*
G02*
X284786000Y-199190000I0J-50000D01*
G01*
X284786000Y-200790000D01*
G75*
G02*
X284736000Y-200840000I-50000J0D01*
G01*
G37*
%TD*%
%TO.C,DF9*%
X302989000Y-189841000D03*
G36*
G01*
X303789000Y-200851000D02*
X302189000Y-200851000D01*
G75*
G02*
X302139000Y-200801000I0J50000D01*
G01*
X302139000Y-199201000D01*
G75*
G02*
X302189000Y-199151000I50000J0D01*
G01*
X303789000Y-199151000D01*
G75*
G02*
X303839000Y-199201000I0J-50000D01*
G01*
X303839000Y-200801000D01*
G75*
G02*
X303789000Y-200851000I-50000J0D01*
G01*
G37*
%TD*%
%TO.C,DF10*%
X327091000Y-194900000D03*
G36*
G01*
X327891000Y-205910000D02*
X326291000Y-205910000D01*
G75*
G02*
X326241000Y-205860000I0J50000D01*
G01*
X326241000Y-204260000D01*
G75*
G02*
X326291000Y-204210000I50000J0D01*
G01*
X327891000Y-204210000D01*
G75*
G02*
X327941000Y-204260000I0J-50000D01*
G01*
X327941000Y-205860000D01*
G75*
G02*
X327891000Y-205910000I-50000J0D01*
G01*
G37*
%TD*%
%TO.C,DF11*%
X346141000Y-194863000D03*
G36*
G01*
X346941000Y-205873000D02*
X345341000Y-205873000D01*
G75*
G02*
X345291000Y-205823000I0J50000D01*
G01*
X345291000Y-204223000D01*
G75*
G02*
X345341000Y-204173000I50000J0D01*
G01*
X346941000Y-204173000D01*
G75*
G02*
X346991000Y-204223000I0J-50000D01*
G01*
X346991000Y-205823000D01*
G75*
G02*
X346941000Y-205873000I-50000J0D01*
G01*
G37*
%TD*%
%TO.C,DF12*%
X365171000Y-194880000D03*
G36*
G01*
X365971000Y-205890000D02*
X364371000Y-205890000D01*
G75*
G02*
X364321000Y-205840000I0J50000D01*
G01*
X364321000Y-204240000D01*
G75*
G02*
X364371000Y-204190000I50000J0D01*
G01*
X365971000Y-204190000D01*
G75*
G02*
X366021000Y-204240000I0J-50000D01*
G01*
X366021000Y-205840000D01*
G75*
G02*
X365971000Y-205890000I-50000J0D01*
G01*
G37*
%TD*%
%TO.C,DA13*%
X374720000Y-103192000D03*
G36*
G01*
X363710000Y-103992000D02*
X363710000Y-102392000D01*
G75*
G02*
X363760000Y-102342000I50000J0D01*
G01*
X365360000Y-102342000D01*
G75*
G02*
X365410000Y-102392000I0J-50000D01*
G01*
X365410000Y-103992000D01*
G75*
G02*
X365360000Y-104042000I-50000J0D01*
G01*
X363760000Y-104042000D01*
G75*
G02*
X363710000Y-103992000I0J50000D01*
G01*
G37*
%TD*%
%TO.C,DE13*%
X380430000Y-154722000D03*
G36*
G01*
X381230000Y-165732000D02*
X379630000Y-165732000D01*
G75*
G02*
X379580000Y-165682000I0J50000D01*
G01*
X379580000Y-164082000D01*
G75*
G02*
X379630000Y-164032000I50000J0D01*
G01*
X381230000Y-164032000D01*
G75*
G02*
X381280000Y-164082000I0J-50000D01*
G01*
X381280000Y-165682000D01*
G75*
G02*
X381230000Y-165732000I-50000J0D01*
G01*
G37*
%TD*%
%TO.C,DF13*%
X380470000Y-173792000D03*
G36*
G01*
X381270000Y-184802000D02*
X379670000Y-184802000D01*
G75*
G02*
X379620000Y-184752000I0J50000D01*
G01*
X379620000Y-183152000D01*
G75*
G02*
X379670000Y-183102000I50000J0D01*
G01*
X381270000Y-183102000D01*
G75*
G02*
X381320000Y-183152000I0J-50000D01*
G01*
X381320000Y-184752000D01*
G75*
G02*
X381270000Y-184802000I-50000J0D01*
G01*
G37*
%TD*%
D22*
%TO.C,SW99*%
X368150000Y-120962000D03*
X370650000Y-120962000D03*
X373150000Y-120962000D03*
G36*
G01*
X366050000Y-115112000D02*
X364050000Y-115112000D01*
G75*
G02*
X364000000Y-115062000I0J50000D01*
G01*
X364000000Y-111862000D01*
G75*
G02*
X364050000Y-111812000I50000J0D01*
G01*
X366050000Y-111812000D01*
G75*
G02*
X366100000Y-111862000I0J-50000D01*
G01*
X366100000Y-115062000D01*
G75*
G02*
X366050000Y-115112000I-50000J0D01*
G01*
G37*
G36*
G01*
X377250000Y-115112000D02*
X375250000Y-115112000D01*
G75*
G02*
X375200000Y-115062000I0J50000D01*
G01*
X375200000Y-111862000D01*
G75*
G02*
X375250000Y-111812000I50000J0D01*
G01*
X377250000Y-111812000D01*
G75*
G02*
X377300000Y-111862000I0J-50000D01*
G01*
X377300000Y-115062000D01*
G75*
G02*
X377250000Y-115112000I-50000J0D01*
G01*
G37*
X368150000Y-106462000D03*
X373150000Y-106462000D03*
%TD*%
D23*
%TO.C,J1*%
X343830000Y-80952000D03*
X346370000Y-80952000D03*
X348910000Y-80952000D03*
X341290000Y-80952000D03*
%TD*%
D24*
%TO.C,U0*%
X346750000Y-146250000D03*
X349290000Y-146250000D03*
X351830000Y-146250000D03*
X354370000Y-146250000D03*
X356910000Y-146250000D03*
X359450000Y-118310000D03*
X344210000Y-146250000D03*
X359450000Y-120850000D03*
X359450000Y-123390000D03*
X359450000Y-125930000D03*
X359450000Y-128470000D03*
X359450000Y-131010000D03*
X359450000Y-133550000D03*
X359450000Y-136090000D03*
X359450000Y-138630000D03*
X359450000Y-141170000D03*
X359450000Y-143710000D03*
X359450000Y-146250000D03*
X344210000Y-143710000D03*
X344210000Y-141170000D03*
X344210000Y-138630000D03*
X344210000Y-136090000D03*
X344210000Y-133550000D03*
X344210000Y-131010000D03*
X344210000Y-128470000D03*
X344210000Y-125930000D03*
X344210000Y-123390000D03*
X344210000Y-120850000D03*
G36*
G01*
X343333700Y-117383700D02*
X345086300Y-117383700D01*
G75*
G02*
X345136300Y-117433700I0J-50000D01*
G01*
X345136300Y-119186300D01*
G75*
G02*
X345086300Y-119236300I-50000J0D01*
G01*
X343333700Y-119236300D01*
G75*
G02*
X343283700Y-119186300I0J50000D01*
G01*
X343283700Y-117433700D01*
G75*
G02*
X343333700Y-117383700I50000J0D01*
G01*
G37*
%TD*%
M02*
