%TF.GenerationSoftware,KiCad,Pcbnew,(5.1.10)-1*%
%TF.CreationDate,2022-01-11T00:44:49+01:00*%
%TF.ProjectId,top,746f702e-6b69-4636-9164-5f7063625858,rev?*%
%TF.SameCoordinates,Original*%
%TF.FileFunction,Profile,NP*%
%FSLAX46Y46*%
G04 Gerber Fmt 4.6, Leading zero omitted, Abs format (unit mm)*
G04 Created by KiCad (PCBNEW (5.1.10)-1) date 2022-01-11 00:44:49*
%MOMM*%
%LPD*%
G01*
G04 APERTURE LIST*
%TA.AperFunction,Profile*%
%ADD10C,0.050000*%
%TD*%
G04 APERTURE END LIST*
D10*
X330100000Y-79452000D02*
G75*
G02*
X331600000Y-77952000I1500000J0D01*
G01*
X331600000Y-108952000D02*
G75*
G02*
X330100000Y-107452000I0J1500000D01*
G01*
X360100000Y-107452000D02*
G75*
G02*
X358600000Y-108952000I-1500000J0D01*
G01*
X358600000Y-77952000D02*
G75*
G02*
X360100000Y-79452000I0J-1500000D01*
G01*
X330100000Y-107452000D02*
X330100000Y-79452000D01*
X358600000Y-108952000D02*
X331600000Y-108952000D01*
X360100000Y-79452000D02*
X360100000Y-107452000D01*
X331600000Y-77952000D02*
X358600000Y-77952000D01*
X380650000Y-113462000D02*
G75*
G03*
X380650000Y-113462000I-10000000J0D01*
G01*
X377990000Y-207232000D02*
G75*
G03*
X377990000Y-207232000I-1100000J0D01*
G01*
X377990000Y-81232000D02*
G75*
G03*
X377990000Y-81232000I-1100000J0D01*
G01*
X245990000Y-207232000D02*
G75*
G03*
X245990000Y-207232000I-1100000J0D01*
G01*
X245990000Y-81232000D02*
G75*
G03*
X245990000Y-81232000I-1100000J0D01*
G01*
X62990000Y-207232000D02*
G75*
G03*
X62990000Y-207232000I-1100000J0D01*
G01*
X62990000Y-81232000D02*
G75*
G03*
X62990000Y-81232000I-1100000J0D01*
G01*
X126990000Y-207232000D02*
G75*
G03*
X126990000Y-207232000I-1100000J0D01*
G01*
X126990000Y-81232000D02*
G75*
G03*
X126990000Y-81232000I-1100000J0D01*
G01*
X379349999Y-168929000D02*
X379349999Y-182899000D01*
X379349999Y-182899000D02*
X365379999Y-182899000D01*
X365379999Y-182899000D02*
X365379999Y-168929000D01*
X365379999Y-168929000D02*
X379349999Y-168929000D01*
X379349999Y-149879000D02*
X379349999Y-163849000D01*
X379349999Y-163849000D02*
X365379999Y-163849000D01*
X365379999Y-163849000D02*
X365379999Y-149879000D01*
X365379999Y-149879000D02*
X379349999Y-149879000D01*
X379349999Y-130828999D02*
X379349999Y-144798999D01*
X379349999Y-144798999D02*
X365379999Y-144798999D01*
X365379999Y-144798999D02*
X365379999Y-130828999D01*
X365379999Y-130828999D02*
X379349999Y-130828999D01*
X287742500Y-187979000D02*
X301712500Y-187979000D01*
X301712500Y-187979000D02*
X301712500Y-201949000D01*
X301712500Y-201949000D02*
X287742500Y-201949000D01*
X287742500Y-201949000D02*
X287742500Y-187979000D01*
X249642499Y-187979000D02*
X263612499Y-187979000D01*
X263612499Y-187979000D02*
X263612499Y-201949000D01*
X263612499Y-201949000D02*
X249642499Y-201949000D01*
X249642499Y-201949000D02*
X249642499Y-187979000D01*
X297554999Y-130828999D02*
X311524999Y-130828999D01*
X311524999Y-130828999D02*
X311524999Y-144798999D01*
X311524999Y-144798999D02*
X297554999Y-144798999D01*
X297554999Y-144798999D02*
X297554999Y-130828999D01*
X349942499Y-193028999D02*
X363912499Y-193028999D01*
X363912499Y-193028999D02*
X363912499Y-206998999D01*
X363912499Y-206998999D02*
X349942499Y-206998999D01*
X349942499Y-206998999D02*
X349942499Y-193028999D01*
X330892500Y-193028999D02*
X344862500Y-193028999D01*
X344862500Y-193028999D02*
X344862500Y-206998999D01*
X344862500Y-206998999D02*
X330892500Y-206998999D01*
X330892500Y-206998999D02*
X330892500Y-193028999D01*
X311842500Y-193028999D02*
X325812500Y-193028999D01*
X325812500Y-193028999D02*
X325812500Y-206998999D01*
X325812500Y-206998999D02*
X311842500Y-206998999D01*
X311842500Y-206998999D02*
X311842500Y-193028999D01*
X268692500Y-187979000D02*
X282662500Y-187979000D01*
X282662500Y-187979000D02*
X282662500Y-201949000D01*
X282662500Y-201949000D02*
X268692500Y-201949000D01*
X268692500Y-201949000D02*
X268692500Y-187979000D01*
X226380693Y-192575111D02*
X239874677Y-188959409D01*
X239874677Y-188959409D02*
X243490379Y-202453393D01*
X243490379Y-202453393D02*
X229996395Y-206069095D01*
X229996395Y-206069095D02*
X226380693Y-192575111D01*
X130792823Y-188959409D02*
X144286807Y-192575111D01*
X144286807Y-192575111D02*
X140671105Y-206069095D01*
X140671105Y-206069095D02*
X127177121Y-202453393D01*
X127177121Y-202453393D02*
X130792823Y-188959409D01*
X83242500Y-187979000D02*
X97212500Y-187979000D01*
X97212500Y-187979000D02*
X97212500Y-201949000D01*
X97212500Y-201949000D02*
X83242500Y-201949000D01*
X83242500Y-201949000D02*
X83242500Y-187979000D01*
X330892499Y-173978999D02*
X344862499Y-173978999D01*
X344862499Y-173978999D02*
X344862499Y-187948999D01*
X344862499Y-187948999D02*
X330892499Y-187948999D01*
X330892499Y-187948999D02*
X330892499Y-173978999D01*
X273742499Y-168929000D02*
X287712499Y-168929000D01*
X287712499Y-168929000D02*
X287712499Y-182899000D01*
X287712499Y-182899000D02*
X273742499Y-182899000D01*
X273742499Y-182899000D02*
X273742499Y-168929000D01*
X254692499Y-168929000D02*
X268662499Y-168929000D01*
X268662499Y-168929000D02*
X268662499Y-182899000D01*
X268662499Y-182899000D02*
X254692499Y-182899000D01*
X254692499Y-182899000D02*
X254692499Y-168929000D01*
X235642500Y-168929000D02*
X249612500Y-168929000D01*
X249612500Y-168929000D02*
X249612500Y-182899000D01*
X249612500Y-182899000D02*
X235642500Y-182899000D01*
X235642500Y-182899000D02*
X235642500Y-168929000D01*
X216592500Y-168929000D02*
X230562500Y-168929000D01*
X230562500Y-168929000D02*
X230562500Y-182899000D01*
X230562500Y-182899000D02*
X216592500Y-182899000D01*
X216592500Y-182899000D02*
X216592500Y-168929000D01*
X197542500Y-168929000D02*
X211512500Y-168929000D01*
X211512500Y-168929000D02*
X211512500Y-182899000D01*
X211512500Y-182899000D02*
X197542500Y-182899000D01*
X197542500Y-182899000D02*
X197542500Y-168929000D01*
X178492500Y-168929000D02*
X192462500Y-168929000D01*
X192462500Y-168929000D02*
X192462500Y-182899000D01*
X192462500Y-182899000D02*
X178492500Y-182899000D01*
X178492500Y-182899000D02*
X178492500Y-168929000D01*
X159442500Y-168929000D02*
X173412500Y-168929000D01*
X173412500Y-168929000D02*
X173412500Y-182899000D01*
X173412500Y-182899000D02*
X159442500Y-182899000D01*
X159442500Y-182899000D02*
X159442500Y-168929000D01*
X140392500Y-168929000D02*
X154362500Y-168929000D01*
X154362500Y-168929000D02*
X154362500Y-182899000D01*
X154362500Y-182899000D02*
X140392500Y-182899000D01*
X140392500Y-182899000D02*
X140392500Y-168929000D01*
X121342500Y-168929000D02*
X135312500Y-168929000D01*
X135312500Y-168929000D02*
X135312500Y-182899000D01*
X135312500Y-182899000D02*
X121342500Y-182899000D01*
X121342500Y-182899000D02*
X121342500Y-168929000D01*
X102292500Y-168929000D02*
X116262500Y-168929000D01*
X116262500Y-168929000D02*
X116262500Y-182899000D01*
X116262500Y-182899000D02*
X102292500Y-182899000D01*
X102292500Y-182899000D02*
X102292500Y-168929000D01*
X283267499Y-149879000D02*
X297237499Y-149879000D01*
X297237499Y-149879000D02*
X297237499Y-163849000D01*
X297237499Y-163849000D02*
X283267499Y-163849000D01*
X283267499Y-163849000D02*
X283267499Y-149879000D01*
X264217499Y-149879000D02*
X278187499Y-149879000D01*
X278187499Y-149879000D02*
X278187499Y-163849000D01*
X278187499Y-163849000D02*
X264217499Y-163849000D01*
X264217499Y-163849000D02*
X264217499Y-149879000D01*
X245167500Y-149879000D02*
X259137500Y-149879000D01*
X259137500Y-149879000D02*
X259137500Y-163849000D01*
X259137500Y-163849000D02*
X245167500Y-163849000D01*
X245167500Y-163849000D02*
X245167500Y-149879000D01*
X226117500Y-149879000D02*
X240087500Y-149879000D01*
X240087500Y-149879000D02*
X240087500Y-163849000D01*
X240087500Y-163849000D02*
X226117500Y-163849000D01*
X226117500Y-163849000D02*
X226117500Y-149879000D01*
X207067500Y-149879000D02*
X221037500Y-149879000D01*
X221037500Y-149879000D02*
X221037500Y-163849000D01*
X221037500Y-163849000D02*
X207067500Y-163849000D01*
X207067500Y-163849000D02*
X207067500Y-149879000D01*
X188017500Y-149879000D02*
X201987500Y-149879000D01*
X201987500Y-149879000D02*
X201987500Y-163849000D01*
X201987500Y-163849000D02*
X188017500Y-163849000D01*
X188017500Y-163849000D02*
X188017500Y-149879000D01*
X168967500Y-149879000D02*
X182937500Y-149879000D01*
X182937500Y-149879000D02*
X182937500Y-163849000D01*
X182937500Y-163849000D02*
X168967500Y-163849000D01*
X168967500Y-163849000D02*
X168967500Y-149879000D01*
X149917500Y-149879000D02*
X163887500Y-149879000D01*
X163887500Y-149879000D02*
X163887500Y-163849000D01*
X163887500Y-163849000D02*
X149917500Y-163849000D01*
X149917500Y-163849000D02*
X149917500Y-149879000D01*
X130867500Y-149879000D02*
X144837500Y-149879000D01*
X144837500Y-149879000D02*
X144837500Y-163849000D01*
X144837500Y-163849000D02*
X130867500Y-163849000D01*
X130867500Y-163849000D02*
X130867500Y-149879000D01*
X111817500Y-149879000D02*
X125787500Y-149879000D01*
X125787500Y-149879000D02*
X125787500Y-163849000D01*
X125787500Y-163849000D02*
X111817500Y-163849000D01*
X111817500Y-163849000D02*
X111817500Y-149879000D01*
X92767500Y-149879000D02*
X106737500Y-149879000D01*
X106737500Y-149879000D02*
X106737500Y-163849000D01*
X106737500Y-163849000D02*
X92767500Y-163849000D01*
X92767500Y-163849000D02*
X92767500Y-149879000D01*
X278504999Y-130828999D02*
X292474999Y-130828999D01*
X292474999Y-130828999D02*
X292474999Y-144798999D01*
X292474999Y-144798999D02*
X278504999Y-144798999D01*
X278504999Y-144798999D02*
X278504999Y-130828999D01*
X259454999Y-130828999D02*
X273424999Y-130828999D01*
X273424999Y-130828999D02*
X273424999Y-144798999D01*
X273424999Y-144798999D02*
X259454999Y-144798999D01*
X259454999Y-144798999D02*
X259454999Y-130828999D01*
X240405000Y-130828999D02*
X254375000Y-130828999D01*
X254375000Y-130828999D02*
X254375000Y-144798999D01*
X254375000Y-144798999D02*
X240405000Y-144798999D01*
X240405000Y-144798999D02*
X240405000Y-130828999D01*
X221355000Y-130828999D02*
X235325000Y-130828999D01*
X235325000Y-130828999D02*
X235325000Y-144798999D01*
X235325000Y-144798999D02*
X221355000Y-144798999D01*
X221355000Y-144798999D02*
X221355000Y-130828999D01*
X202305000Y-130828999D02*
X216275000Y-130828999D01*
X216275000Y-130828999D02*
X216275000Y-144798999D01*
X216275000Y-144798999D02*
X202305000Y-144798999D01*
X202305000Y-144798999D02*
X202305000Y-130828999D01*
X183255000Y-130828999D02*
X197225000Y-130828999D01*
X197225000Y-130828999D02*
X197225000Y-144798999D01*
X197225000Y-144798999D02*
X183255000Y-144798999D01*
X183255000Y-144798999D02*
X183255000Y-130828999D01*
X164205000Y-130828999D02*
X178175000Y-130828999D01*
X178175000Y-130828999D02*
X178175000Y-144798999D01*
X178175000Y-144798999D02*
X164205000Y-144798999D01*
X164205000Y-144798999D02*
X164205000Y-130828999D01*
X145155000Y-130828999D02*
X159125000Y-130828999D01*
X159125000Y-130828999D02*
X159125000Y-144798999D01*
X159125000Y-144798999D02*
X145155000Y-144798999D01*
X145155000Y-144798999D02*
X145155000Y-130828999D01*
X126105000Y-130828999D02*
X140075000Y-130828999D01*
X140075000Y-130828999D02*
X140075000Y-144798999D01*
X140075000Y-144798999D02*
X126105000Y-144798999D01*
X126105000Y-144798999D02*
X126105000Y-130828999D01*
X107055000Y-130828999D02*
X121025000Y-130828999D01*
X121025000Y-130828999D02*
X121025000Y-144798999D01*
X121025000Y-144798999D02*
X107055000Y-144798999D01*
X107055000Y-144798999D02*
X107055000Y-130828999D01*
X88005000Y-130828999D02*
X101975000Y-130828999D01*
X101975000Y-130828999D02*
X101975000Y-144798999D01*
X101975000Y-144798999D02*
X88005000Y-144798999D01*
X88005000Y-144798999D02*
X88005000Y-130828999D01*
X288029999Y-111778999D02*
X301999999Y-111778999D01*
X301999999Y-111778999D02*
X301999999Y-125748999D01*
X301999999Y-125748999D02*
X288029999Y-125748999D01*
X288029999Y-125748999D02*
X288029999Y-111778999D01*
X268979999Y-111778999D02*
X282949999Y-111778999D01*
X282949999Y-111778999D02*
X282949999Y-125748999D01*
X282949999Y-125748999D02*
X268979999Y-125748999D01*
X268979999Y-125748999D02*
X268979999Y-111778999D01*
X249930000Y-111778999D02*
X263900000Y-111778999D01*
X263900000Y-111778999D02*
X263900000Y-125748999D01*
X263900000Y-125748999D02*
X249930000Y-125748999D01*
X249930000Y-125748999D02*
X249930000Y-111778999D01*
X230880000Y-111778999D02*
X244850000Y-111778999D01*
X244850000Y-111778999D02*
X244850000Y-125748999D01*
X244850000Y-125748999D02*
X230880000Y-125748999D01*
X230880000Y-125748999D02*
X230880000Y-111778999D01*
X211830000Y-111778999D02*
X225800000Y-111778999D01*
X225800000Y-111778999D02*
X225800000Y-125748999D01*
X225800000Y-125748999D02*
X211830000Y-125748999D01*
X211830000Y-125748999D02*
X211830000Y-111778999D01*
X192780000Y-111778999D02*
X206750000Y-111778999D01*
X206750000Y-111778999D02*
X206750000Y-125748999D01*
X206750000Y-125748999D02*
X192780000Y-125748999D01*
X192780000Y-125748999D02*
X192780000Y-111778999D01*
X173730000Y-111778999D02*
X187700000Y-111778999D01*
X187700000Y-111778999D02*
X187700000Y-125748999D01*
X187700000Y-125748999D02*
X173730000Y-125748999D01*
X173730000Y-125748999D02*
X173730000Y-111778999D01*
X154680000Y-111778999D02*
X168650000Y-111778999D01*
X168650000Y-111778999D02*
X168650000Y-125748999D01*
X168650000Y-125748999D02*
X154680000Y-125748999D01*
X154680000Y-125748999D02*
X154680000Y-111778999D01*
X135630000Y-111778999D02*
X149600000Y-111778999D01*
X149600000Y-111778999D02*
X149600000Y-125748999D01*
X149600000Y-125748999D02*
X135630000Y-125748999D01*
X135630000Y-125748999D02*
X135630000Y-111778999D01*
X116580000Y-111778999D02*
X130550000Y-111778999D01*
X130550000Y-111778999D02*
X130550000Y-125748999D01*
X130550000Y-125748999D02*
X116580000Y-125748999D01*
X116580000Y-125748999D02*
X116580000Y-111778999D01*
X97529999Y-111778999D02*
X111499999Y-111778999D01*
X111499999Y-111778999D02*
X111499999Y-125748999D01*
X111499999Y-125748999D02*
X97529999Y-125748999D01*
X97529999Y-125748999D02*
X97529999Y-111778999D01*
X78479999Y-111778999D02*
X92449999Y-111778999D01*
X92449999Y-111778999D02*
X92449999Y-125748999D01*
X92449999Y-125748999D02*
X78479999Y-125748999D01*
X78479999Y-125748999D02*
X78479999Y-111778999D01*
X59430000Y-111778999D02*
X73400000Y-111778999D01*
X73400000Y-111778999D02*
X73400000Y-125748999D01*
X73400000Y-125748999D02*
X59430000Y-125748999D01*
X59430000Y-125748999D02*
X59430000Y-111778999D01*
X307729999Y-87678999D02*
X321699999Y-87678999D01*
X321699999Y-87678999D02*
X321699999Y-101648999D01*
X321699999Y-101648999D02*
X307729999Y-101648999D01*
X307729999Y-101648999D02*
X307729999Y-87678999D01*
X269629999Y-87678999D02*
X283599999Y-87678999D01*
X283599999Y-87678999D02*
X283599999Y-101648999D01*
X283599999Y-101648999D02*
X269629999Y-101648999D01*
X269629999Y-101648999D02*
X269629999Y-87678999D01*
X250579999Y-87678999D02*
X264549999Y-87678999D01*
X264549999Y-87678999D02*
X264549999Y-101648999D01*
X264549999Y-101648999D02*
X250579999Y-101648999D01*
X250579999Y-101648999D02*
X250579999Y-87678999D01*
X226479999Y-87678999D02*
X240449999Y-87678999D01*
X240449999Y-87678999D02*
X240449999Y-101648999D01*
X240449999Y-101648999D02*
X226479999Y-101648999D01*
X226479999Y-101648999D02*
X226479999Y-87678999D01*
X207430000Y-87678999D02*
X221400000Y-87678999D01*
X221400000Y-87678999D02*
X221400000Y-101648999D01*
X221400000Y-101648999D02*
X207430000Y-101648999D01*
X207430000Y-101648999D02*
X207430000Y-87678999D01*
X188380000Y-87678999D02*
X202350000Y-87678999D01*
X202350000Y-87678999D02*
X202350000Y-101648999D01*
X202350000Y-101648999D02*
X188380000Y-101648999D01*
X188380000Y-101648999D02*
X188380000Y-87678999D01*
X169330000Y-87678999D02*
X183300000Y-87678999D01*
X183300000Y-87678999D02*
X183300000Y-101648999D01*
X183300000Y-101648999D02*
X169330000Y-101648999D01*
X169330000Y-101648999D02*
X169330000Y-87678999D01*
X145230000Y-87678999D02*
X159200000Y-87678999D01*
X159200000Y-87678999D02*
X159200000Y-101648999D01*
X159200000Y-101648999D02*
X145230000Y-101648999D01*
X145230000Y-101648999D02*
X145230000Y-87678999D01*
X126180000Y-87678999D02*
X140150000Y-87678999D01*
X140150000Y-87678999D02*
X140150000Y-101648999D01*
X140150000Y-101648999D02*
X126180000Y-101648999D01*
X126180000Y-101648999D02*
X126180000Y-87678999D01*
X107129999Y-87678999D02*
X121099999Y-87678999D01*
X121099999Y-87678999D02*
X121099999Y-101648999D01*
X121099999Y-101648999D02*
X107129999Y-101648999D01*
X107129999Y-101648999D02*
X107129999Y-87678999D01*
X88080000Y-87678999D02*
X102050000Y-87678999D01*
X102050000Y-87678999D02*
X102050000Y-101648999D01*
X102050000Y-101648999D02*
X88080000Y-101648999D01*
X88080000Y-101648999D02*
X88080000Y-87678999D01*
X59430000Y-87678999D02*
X73400000Y-87678999D01*
X73400000Y-87678999D02*
X73400000Y-101648999D01*
X73400000Y-101648999D02*
X59430000Y-101648999D01*
X59430000Y-101648999D02*
X59430000Y-87678999D01*
X288679999Y-87678999D02*
X302649999Y-87678999D01*
X302649999Y-87678999D02*
X302649999Y-101648999D01*
X302649999Y-101648999D02*
X288679999Y-101648999D01*
X288679999Y-101648999D02*
X288679999Y-87678999D01*
X104673749Y-187979000D02*
X118643749Y-187979000D01*
X118643749Y-187979000D02*
X118643749Y-201949000D01*
X118643749Y-201949000D02*
X104673749Y-201949000D01*
X104673749Y-201949000D02*
X104673749Y-187979000D01*
X61811250Y-187979000D02*
X75781250Y-187979000D01*
X75781250Y-187979000D02*
X75781250Y-201949000D01*
X75781250Y-201949000D02*
X61811250Y-201949000D01*
X61811250Y-201949000D02*
X61811250Y-187979000D01*
X299936249Y-182899000D02*
X299936249Y-168929000D01*
X313906249Y-182899000D02*
X299936249Y-182899000D01*
X313906249Y-168929000D02*
X313906249Y-182899000D01*
X299936249Y-168929000D02*
X313906249Y-168929000D01*
X66573750Y-163848999D02*
X66573750Y-149878999D01*
X80543750Y-163848999D02*
X66573750Y-163848999D01*
X80543750Y-149878999D02*
X80543750Y-163848999D01*
X66573750Y-149878999D02*
X80543750Y-149878999D01*
X321367499Y-144798999D02*
X321367499Y-130828999D01*
X335337499Y-144798999D02*
X321367499Y-144798999D01*
X335337499Y-130828999D02*
X335337499Y-144798999D01*
X321367499Y-130828999D02*
X335337499Y-130828999D01*
X64192500Y-144798999D02*
X64192500Y-130828999D01*
X78162500Y-144798999D02*
X64192500Y-144798999D01*
X78162500Y-130828999D02*
X78162500Y-144798999D01*
X64192500Y-130828999D02*
X78162500Y-130828999D01*
X218668967Y-209919447D02*
X218366562Y-208790859D01*
X222321963Y-198527408D02*
X223045103Y-201226205D01*
X202092660Y-212336262D02*
X200522451Y-212756998D01*
X222782775Y-207607539D02*
X223085179Y-208736126D01*
X202395065Y-213464850D02*
X202092660Y-212336262D01*
X222210930Y-201449721D02*
X223788690Y-207338005D01*
X191997301Y-206652876D02*
X191116384Y-203365251D01*
X198779362Y-199970866D02*
X212273346Y-196355164D01*
X199325005Y-202007231D02*
X198779362Y-199970866D01*
X191116384Y-203365251D02*
X197544428Y-201642862D01*
X194298202Y-215239957D02*
X192720441Y-209351673D01*
X212273346Y-196355164D02*
X212818989Y-198391529D01*
X218366562Y-208790859D02*
X217360647Y-209060394D01*
X199720330Y-213787102D02*
X200022734Y-214915690D01*
X197754796Y-202427967D02*
X199325005Y-202007231D01*
X215586644Y-208720560D02*
X215889048Y-209849148D01*
X220606873Y-195463299D02*
X221487789Y-198750924D01*
X217360647Y-209060394D02*
X217156853Y-208299824D01*
X200022734Y-214915690D02*
X195606522Y-216099011D01*
X221487789Y-198750924D02*
X222321963Y-198527408D01*
X195304117Y-214970423D02*
X194298202Y-215239957D01*
X223788690Y-207338005D02*
X222782775Y-207607539D01*
X223085179Y-208736126D02*
X218668967Y-209919447D01*
X214178829Y-197185688D02*
X220606873Y-195463299D01*
X195606522Y-216099011D02*
X195304117Y-214970423D01*
X191163127Y-206876393D02*
X191997301Y-206652876D01*
X215889048Y-209849148D02*
X202395065Y-213464850D01*
X217156853Y-208299824D02*
X215586644Y-208720560D01*
X212818989Y-198391529D02*
X214389198Y-197970792D01*
X214389198Y-197970792D02*
X214178829Y-197185688D01*
X197544428Y-201642862D02*
X197754796Y-202427967D01*
X200726245Y-213517568D02*
X199720330Y-213787102D01*
X200522451Y-212756998D02*
X200726245Y-213517568D01*
X223045103Y-201226205D02*
X222210930Y-201449721D01*
X192720441Y-209351673D02*
X191886268Y-209575189D01*
X191886268Y-209575189D02*
X191163127Y-206876393D01*
X170644765Y-214915690D02*
X170947169Y-213787102D01*
X179504372Y-206876392D02*
X178781231Y-209575189D01*
X155080855Y-208720559D02*
X153510646Y-208299823D01*
X175363382Y-214970423D02*
X175060977Y-216099010D01*
X154778451Y-209849147D02*
X155080855Y-208720559D01*
X177947058Y-209351673D02*
X176369297Y-215239957D01*
X149179710Y-198750924D02*
X150060626Y-195463298D01*
X158394153Y-196355163D02*
X171888137Y-199970865D01*
X157848510Y-198391528D02*
X158394153Y-196355163D01*
X150060626Y-195463298D02*
X156488670Y-197185687D01*
X146878809Y-207338004D02*
X148456569Y-201449720D01*
X171888137Y-199970865D02*
X171342494Y-202007230D01*
X170947169Y-213787102D02*
X169941254Y-213517568D01*
X152300937Y-208790859D02*
X151998532Y-209919447D01*
X156278301Y-197970792D02*
X157848510Y-198391528D01*
X168574839Y-212336261D02*
X168272434Y-213464849D01*
X179551115Y-203365251D02*
X178670198Y-206652876D01*
X169941254Y-213517568D02*
X170145048Y-212756998D01*
X151998532Y-209919447D02*
X147582319Y-208736126D01*
X178670198Y-206652876D02*
X179504372Y-206876392D01*
X147884724Y-207607538D02*
X146878809Y-207338004D01*
X176369297Y-215239957D02*
X175363382Y-214970423D01*
X175060977Y-216099010D02*
X170644765Y-214915690D01*
X173123071Y-201642862D02*
X179551115Y-203365251D01*
X147582319Y-208736126D02*
X147884724Y-207607538D01*
X148345536Y-198527407D02*
X149179710Y-198750924D01*
X168272434Y-213464849D02*
X154778451Y-209849147D01*
X170145048Y-212756998D02*
X168574839Y-212336261D01*
X171342494Y-202007230D02*
X172912703Y-202427967D01*
X172912703Y-202427967D02*
X173123071Y-201642862D01*
X156488670Y-197185687D02*
X156278301Y-197970792D01*
X153306852Y-209060393D02*
X152300937Y-208790859D01*
X153510646Y-208299823D02*
X153306852Y-209060393D01*
X178781231Y-209575189D02*
X177947058Y-209351673D01*
X148456569Y-201449720D02*
X147622396Y-201226204D01*
X147622396Y-201226204D02*
X148345536Y-198527407D01*
X333241999Y-126536399D02*
X333241999Y-125367999D01*
X339718999Y-116477999D02*
X339718999Y-119271999D01*
X316604999Y-124580599D02*
X314979399Y-124580599D01*
X337813999Y-125367999D02*
X337813999Y-126536399D01*
X316604999Y-125748999D02*
X316604999Y-124580599D01*
X338855399Y-119271999D02*
X338855399Y-125367999D01*
X308324599Y-116477999D02*
X308324599Y-113074399D01*
X316604999Y-111778999D02*
X330574999Y-111778999D01*
X316604999Y-113887199D02*
X316604999Y-111778999D01*
X308324599Y-113074399D02*
X314979399Y-113074399D01*
X308324599Y-125367999D02*
X308324599Y-119271999D01*
X330574999Y-111778999D02*
X330574999Y-113887199D01*
X333241999Y-125367999D02*
X332200599Y-125367999D01*
X313937999Y-125367999D02*
X313937999Y-126536399D01*
X314979399Y-113887199D02*
X316604999Y-113887199D01*
X330574999Y-124580599D02*
X330574999Y-125748999D01*
X338855399Y-113074399D02*
X338855399Y-116477999D01*
X332200599Y-125367999D02*
X332200599Y-124580599D01*
X313937999Y-126536399D02*
X309365999Y-126536399D01*
X338855399Y-116477999D02*
X339718999Y-116477999D01*
X309365999Y-125367999D02*
X308324599Y-125367999D01*
X338855399Y-125367999D02*
X337813999Y-125367999D01*
X337813999Y-126536399D02*
X333241999Y-126536399D01*
X332200599Y-113074399D02*
X338855399Y-113074399D01*
X309365999Y-126536399D02*
X309365999Y-125367999D01*
X307460999Y-116477999D02*
X308324599Y-116477999D01*
X330574999Y-125748999D02*
X316604999Y-125748999D01*
X332200599Y-124580599D02*
X330574999Y-124580599D01*
X330574999Y-113887199D02*
X332200599Y-113887199D01*
X332200599Y-113887199D02*
X332200599Y-113074399D01*
X314979399Y-113074399D02*
X314979399Y-113887199D01*
X314979399Y-125367999D02*
X313937999Y-125367999D01*
X314979399Y-124580599D02*
X314979399Y-125367999D01*
X339718999Y-119271999D02*
X338855399Y-119271999D01*
X308324599Y-119271999D02*
X307460999Y-119271999D01*
X307460999Y-119271999D02*
X307460999Y-116477999D01*
X305079749Y-157371999D02*
X305079749Y-154577999D01*
X305943349Y-157371999D02*
X305079749Y-157371999D01*
X337337749Y-157371999D02*
X336474149Y-157371999D01*
X312598149Y-162680599D02*
X312598149Y-163467999D01*
X312598149Y-163467999D02*
X311556749Y-163467999D01*
X312598149Y-151174399D02*
X312598149Y-151987199D01*
X329819349Y-151987199D02*
X329819349Y-151174399D01*
X328193749Y-151987199D02*
X329819349Y-151987199D01*
X329819349Y-162680599D02*
X328193749Y-162680599D01*
X328193749Y-163848999D02*
X314223749Y-163848999D01*
X305079749Y-154577999D02*
X305943349Y-154577999D01*
X306984749Y-164636399D02*
X306984749Y-163467999D01*
X329819349Y-151174399D02*
X336474149Y-151174399D01*
X335432749Y-164636399D02*
X330860749Y-164636399D01*
X336474149Y-163467999D02*
X335432749Y-163467999D01*
X306984749Y-163467999D02*
X305943349Y-163467999D01*
X336474149Y-154577999D02*
X337337749Y-154577999D01*
X311556749Y-164636399D02*
X306984749Y-164636399D01*
X329819349Y-163467999D02*
X329819349Y-162680599D01*
X336474149Y-151174399D02*
X336474149Y-154577999D01*
X328193749Y-162680599D02*
X328193749Y-163848999D01*
X312598149Y-151987199D02*
X314223749Y-151987199D01*
X311556749Y-163467999D02*
X311556749Y-164636399D01*
X330860749Y-163467999D02*
X329819349Y-163467999D01*
X328193749Y-149878999D02*
X328193749Y-151987199D01*
X305943349Y-163467999D02*
X305943349Y-157371999D01*
X305943349Y-151174399D02*
X312598149Y-151174399D01*
X314223749Y-151987199D02*
X314223749Y-149878999D01*
X314223749Y-149878999D02*
X328193749Y-149878999D01*
X305943349Y-154577999D02*
X305943349Y-151174399D01*
X336474149Y-157371999D02*
X336474149Y-163467999D01*
X314223749Y-163848999D02*
X314223749Y-162680599D01*
X335432749Y-163467999D02*
X335432749Y-164636399D01*
X314223749Y-162680599D02*
X312598149Y-162680599D01*
X337337749Y-154577999D02*
X337337749Y-157371999D01*
X330860749Y-164636399D02*
X330860749Y-163467999D01*
X62192250Y-176421999D02*
X62192250Y-173627999D01*
X63055850Y-176421999D02*
X62192250Y-176421999D01*
X94450250Y-176421999D02*
X93586650Y-176421999D01*
X69710650Y-181730599D02*
X69710650Y-182517999D01*
X69710650Y-182517999D02*
X68669250Y-182517999D01*
X69710650Y-170224399D02*
X69710650Y-171037199D01*
X86931850Y-171037199D02*
X86931850Y-170224399D01*
X85306250Y-171037199D02*
X86931850Y-171037199D01*
X86931850Y-181730599D02*
X85306250Y-181730599D01*
X85306250Y-182898999D02*
X71336250Y-182898999D01*
X62192250Y-173627999D02*
X63055850Y-173627999D01*
X64097250Y-183686399D02*
X64097250Y-182517999D01*
X86931850Y-170224399D02*
X93586650Y-170224399D01*
X92545250Y-183686399D02*
X87973250Y-183686399D01*
X93586650Y-182517999D02*
X92545250Y-182517999D01*
X64097250Y-182517999D02*
X63055850Y-182517999D01*
X93586650Y-173627999D02*
X94450250Y-173627999D01*
X68669250Y-183686399D02*
X64097250Y-183686399D01*
X86931850Y-182517999D02*
X86931850Y-181730599D01*
X93586650Y-170224399D02*
X93586650Y-173627999D01*
X85306250Y-181730599D02*
X85306250Y-182898999D01*
X69710650Y-171037199D02*
X71336250Y-171037199D01*
X68669250Y-182517999D02*
X68669250Y-183686399D01*
X87973250Y-182517999D02*
X86931850Y-182517999D01*
X85306250Y-168928999D02*
X85306250Y-171037199D01*
X63055850Y-182517999D02*
X63055850Y-176421999D01*
X63055850Y-170224399D02*
X69710650Y-170224399D01*
X71336250Y-171037199D02*
X71336250Y-168928999D01*
X71336250Y-168928999D02*
X85306250Y-168928999D01*
X63055850Y-173627999D02*
X63055850Y-170224399D01*
X93586650Y-176421999D02*
X93586650Y-182517999D01*
X71336250Y-182898999D02*
X71336250Y-181730599D01*
X92545250Y-182517999D02*
X92545250Y-183686399D01*
X71336250Y-181730599D02*
X69710650Y-181730599D01*
X94450250Y-173627999D02*
X94450250Y-176421999D01*
X87973250Y-183686399D02*
X87973250Y-182517999D01*
X126990000Y-81232000D02*
G75*
G03*
X126990000Y-81232000I-1100000J0D01*
G01*
X377990000Y-81232001D02*
G75*
G03*
X377990000Y-81232001I-1100000J0D01*
G01*
X245990000Y-81232000D02*
G75*
G03*
X245990000Y-81232000I-1100000J0D01*
G01*
X62990000Y-81232000D02*
G75*
G03*
X62990000Y-81232000I-1100000J0D01*
G01*
X377990000Y-207232149D02*
G75*
G03*
X377990000Y-207232149I-1100000J0D01*
G01*
X245990000Y-207232000D02*
G75*
G03*
X245990000Y-207232000I-1100000J0D01*
G01*
X62990000Y-207232000D02*
G75*
G03*
X62990000Y-207232000I-1100000J0D01*
G01*
X174178012Y-219232000D02*
X196489483Y-219232000D01*
X196489483Y-219232000D02*
X222613839Y-212232000D01*
X376890000Y-212232000D02*
X236799400Y-212232000D01*
X56889999Y-81232001D02*
G75*
G02*
X61890000Y-76232000I5000001J0D01*
G01*
X61890000Y-212232000D02*
X148053656Y-212232000D01*
X236799400Y-212232000D02*
X222613839Y-212232000D01*
X126990000Y-207232000D02*
G75*
G03*
X126990000Y-207232000I-1100000J0D01*
G01*
X148053656Y-212232000D02*
X174178012Y-219232000D01*
X376890000Y-76232000D02*
G75*
G02*
X381890000Y-81232000I0J-5000000D01*
G01*
X61890000Y-212232000D02*
G75*
G02*
X56890000Y-207232000I0J5000000D01*
G01*
X381890000Y-207232000D02*
G75*
G02*
X376890000Y-212232000I-5000000J0D01*
G01*
X376890000Y-76232000D02*
X61890000Y-76232000D01*
X381890000Y-207232000D02*
X381890000Y-81232000D01*
X56890000Y-81232000D02*
X56890000Y-207232000D01*
M02*
