M48
; DRILL file {KiCad (5.1.10)-1} date 01/11/22 00:44:53
; FORMAT={-:-/ absolute / inch / decimal}
; #@! TF.CreationDate,2022-01-11T00:44:53+01:00
; #@! TF.GenerationSoftware,Kicad,Pcbnew,(5.1.10)-1
FMAT,2
INCH
T1C0.0157
T2C0.0866
%
G90
G05
T1
X2.3717Y-3.1981
X2.3717Y-8.1587
X2.3907Y-3.1522
X2.3907Y-3.244
X2.3907Y-8.1128
X2.3907Y-8.2047
X2.4366Y-3.1331
X2.4366Y-3.2631
X2.4366Y-8.0938
X2.4366Y-8.2237
X2.4825Y-3.1522
X2.4825Y-3.244
X2.4825Y-8.1128
X2.4825Y-8.2047
X2.5016Y-3.1981
X2.5016Y-8.1587
X4.8913Y-3.1981
X4.8913Y-8.1587
X4.9104Y-3.1522
X4.9104Y-3.244
X4.9104Y-8.1128
X4.9104Y-8.2047
X4.9563Y-3.1331
X4.9563Y-3.2631
X4.9563Y-8.0938
X4.9563Y-8.2237
X5.0022Y-3.1522
X5.0022Y-3.244
X5.0022Y-8.1128
X5.0022Y-8.2047
X5.0213Y-3.1981
X5.0213Y-8.1587
X9.5764Y-3.1981
X9.5764Y-8.1587
X9.5954Y-3.1522
X9.5954Y-3.244
X9.5954Y-8.1128
X9.5954Y-8.2047
X9.6413Y-3.1331
X9.6413Y-3.2631
X9.6413Y-8.0938
X9.6413Y-8.2237
X9.6873Y-3.1522
X9.6873Y-3.244
X9.6873Y-8.1128
X9.6873Y-8.2047
X9.7063Y-3.1981
X9.7063Y-8.1587
X14.7732Y-3.1981
X14.7732Y-8.1587
X14.7923Y-3.1522
X14.7923Y-3.244
X14.7923Y-8.1128
X14.7923Y-8.2047
X14.8382Y-3.1331
X14.8382Y-3.2631
X14.8382Y-8.0938
X14.8382Y-8.2237
X14.8841Y-3.1522
X14.8841Y-3.244
X14.8841Y-8.1128
X14.8841Y-8.2047
X14.9031Y-3.1981
X14.9031Y-8.1587
T2
X2.4366Y-3.1981
X2.4366Y-8.1587
X4.9563Y-3.1981
X4.9563Y-8.1587
X9.6413Y-3.1981
X9.6413Y-8.1587
X14.8382Y-3.1981
X14.8382Y-8.1587
T0
M30
