M48
; DRILL file {KiCad (6.0.1)} date Mon Feb  7 12:24:38 2022
; FORMAT={-:-/ absolute / metric / decimal}
; #@! TF.CreationDate,2022-02-07T12:24:38+01:00
; #@! TF.GenerationSoftware,Kicad,Pcbnew,(6.0.1)
; #@! TF.FileFunction,MixedPlating,1,2
FMAT,2
METRIC
; #@! TA.AperFunction,Plated,PTH,ComponentDrill
T1C0.400
; #@! TA.AperFunction,Plated,PTH,ComponentDrill
T2C2.200
%
G90
G05
T1
X60.24Y-81.232
X60.24Y-207.232
X60.723Y-80.065
X60.723Y-82.399
X60.723Y-206.065
X60.723Y-208.399
X61.89Y-79.582
X61.89Y-82.882
X61.89Y-205.582
X61.89Y-208.882
X63.057Y-80.065
X63.057Y-82.399
X63.057Y-206.065
X63.057Y-208.399
X63.54Y-81.232
X63.54Y-207.232
X124.24Y-81.232
X124.24Y-207.232
X124.723Y-80.065
X124.723Y-82.399
X124.723Y-206.065
X124.723Y-208.399
X125.89Y-79.582
X125.89Y-82.882
X125.89Y-205.582
X125.89Y-208.882
X127.057Y-80.065
X127.057Y-82.399
X127.057Y-206.065
X127.057Y-208.399
X127.54Y-81.232
X127.54Y-207.232
X243.24Y-81.232
X243.24Y-207.232
X243.723Y-80.065
X243.723Y-82.399
X243.723Y-206.065
X243.723Y-208.399
X244.89Y-79.582
X244.89Y-82.882
X244.89Y-205.582
X244.89Y-208.882
X246.057Y-80.065
X246.057Y-82.399
X246.057Y-206.065
X246.057Y-208.399
X246.54Y-81.232
X246.54Y-207.232
X375.24Y-81.232
X375.24Y-207.232
X375.723Y-80.065
X375.723Y-82.399
X375.723Y-206.065
X375.723Y-208.399
X376.89Y-79.582
X376.89Y-82.882
X376.89Y-205.582
X376.89Y-208.882
X378.057Y-80.065
X378.057Y-82.399
X378.057Y-206.065
X378.057Y-208.399
X378.54Y-81.232
X378.54Y-207.232
T2
X61.89Y-81.232
X61.89Y-207.232
X125.89Y-81.232
X125.89Y-207.232
X244.89Y-81.232
X244.89Y-207.232
X376.89Y-81.232
X376.89Y-207.232
T0
M30
