%TF.GenerationSoftware,KiCad,Pcbnew,7.0.10*%
%TF.CreationDate,2024-01-30T23:36:57+01:00*%
%TF.ProjectId,middle,6d696464-6c65-42e6-9b69-6361645f7063,rev?*%
%TF.SameCoordinates,Original*%
%TF.FileFunction,Legend,Top*%
%TF.FilePolarity,Positive*%
%FSLAX46Y46*%
G04 Gerber Fmt 4.6, Leading zero omitted, Abs format (unit mm)*
G04 Created by KiCad (PCBNEW 7.0.10) date 2024-01-30 23:36:57*
%MOMM*%
%LPD*%
G01*
G04 APERTURE LIST*
%ADD10C,0.150000*%
%ADD11C,0.100000*%
%ADD12C,0.120000*%
%ADD13C,1.700000*%
%ADD14C,3.000000*%
%ADD15C,4.100000*%
%ADD16C,3.050000*%
%ADD17C,4.000000*%
%ADD18C,3.800000*%
%ADD19C,1.524000*%
%ADD20C,1.900000*%
%ADD21R,1.700000X1.700000*%
%ADD22O,1.700000X1.700000*%
%ADD23C,0.650000*%
%ADD24O,1.108000X2.216000*%
G04 APERTURE END LIST*
D10*
%TO.C,KD1*%
X182957585Y-183757303D02*
X202007585Y-183757303D01*
X182957585Y-202807303D02*
X182957585Y-183757303D01*
X202007585Y-183757303D02*
X202007585Y-202807303D01*
X202007585Y-202807303D02*
X182957585Y-202807303D01*
%TO.C,KB11*%
X379838485Y-143276003D02*
X398888485Y-143276003D01*
X379838485Y-162326003D02*
X379838485Y-143276003D01*
X398888485Y-143276003D02*
X398888485Y-162326003D01*
X398888485Y-162326003D02*
X379838485Y-162326003D01*
%TO.C,KD11*%
X386982285Y-183757303D02*
X406032285Y-183757303D01*
X386982285Y-202807303D02*
X386982285Y-183757303D01*
X406032285Y-183757303D02*
X406032285Y-202807303D01*
X406032285Y-202807303D02*
X386982285Y-202807303D01*
%TO.C,KC12*%
X427463485Y-164707303D02*
X446513485Y-164707303D01*
X427463485Y-183757303D02*
X427463485Y-164707303D01*
X446513485Y-164707303D02*
X446513485Y-183757303D01*
X446513485Y-183757303D02*
X427463485Y-183757303D01*
%TO.C,KC4*%
X241354385Y-170747503D02*
X259988097Y-174708221D01*
X237393667Y-189381215D02*
X241354385Y-170747503D01*
X259988097Y-174708221D02*
X256027379Y-193341933D01*
X256027379Y-193341933D02*
X237393667Y-189381215D01*
%TO.C,KB10*%
X357075585Y-149265303D02*
X375709297Y-145304585D01*
X361036303Y-167899015D02*
X357075585Y-149265303D01*
X375709297Y-145304585D02*
X379670015Y-163938297D01*
X379670015Y-163938297D02*
X361036303Y-167899015D01*
%TO.C,KE3*%
X227483185Y-206750203D02*
X246116897Y-210710921D01*
X223522467Y-225383915D02*
X227483185Y-206750203D01*
X246116897Y-210710921D02*
X242156179Y-229344633D01*
X242156179Y-229344633D02*
X223522467Y-225383915D01*
%TO.C,KB9*%
X338441885Y-153226003D02*
X357075597Y-149265285D01*
X342402603Y-171859715D02*
X338441885Y-153226003D01*
X357075597Y-149265285D02*
X361036315Y-167898997D01*
X361036315Y-167898997D02*
X342402603Y-171859715D01*
%TO.C,KC1*%
X180576285Y-164707303D02*
X199626285Y-164707303D01*
X180576285Y-183757303D02*
X180576285Y-164707303D01*
X199626285Y-164707303D02*
X199626285Y-183757303D01*
X199626285Y-183757303D02*
X180576285Y-183757303D01*
%TO.C,KA2*%
X194311385Y-121891203D02*
X213314980Y-123220064D01*
X192982524Y-140894798D02*
X194311385Y-121891203D01*
X213314980Y-123220064D02*
X211986119Y-142223659D01*
X211986119Y-142223659D02*
X192982524Y-140894798D01*
%TO.C,KF8*%
X439369785Y-224238503D02*
X458419785Y-224238503D01*
X439369785Y-243288503D02*
X439369785Y-224238503D01*
X458419785Y-224238503D02*
X458419785Y-243288503D01*
X458419785Y-243288503D02*
X439369785Y-243288503D01*
%TO.C,KA9*%
X334544585Y-130201903D02*
X353178297Y-126241185D01*
X338505303Y-148835615D02*
X334544585Y-130201903D01*
X353178297Y-126241185D02*
X357139015Y-144874897D01*
X357139015Y-144874897D02*
X338505303Y-148835615D01*
%TO.C,KA12*%
X396507285Y-121844803D02*
X415557285Y-121844803D01*
X396507285Y-140894803D02*
X396507285Y-121844803D01*
X415557285Y-121844803D02*
X415557285Y-140894803D01*
X415557285Y-140894803D02*
X396507285Y-140894803D01*
%TO.C,KE8*%
X324239185Y-214671703D02*
X342872897Y-210710985D01*
X328199903Y-233305415D02*
X324239185Y-214671703D01*
X342872897Y-210710985D02*
X346833615Y-229344697D01*
X346833615Y-229344697D02*
X328199903Y-233305415D01*
%TO.C,KF0*%
X154382585Y-221857303D02*
X178195085Y-221857303D01*
X154382585Y-240907303D02*
X154382585Y-221857303D01*
X154382585Y-240907303D02*
X178195085Y-240907303D01*
X178195085Y-221857303D02*
X178195085Y-240907303D01*
%TO.C,KD13*%
X425082285Y-183757303D02*
X467944785Y-183757303D01*
X425082285Y-202807303D02*
X425082285Y-183757303D01*
X467944785Y-183757303D02*
X467944785Y-202807303D01*
X467944785Y-202807303D02*
X425082285Y-202807303D01*
%TO.C,KC11*%
X408413485Y-164707303D02*
X427463485Y-164707303D01*
X408413485Y-183757303D02*
X408413485Y-164707303D01*
X427463485Y-164707303D02*
X427463485Y-183757303D01*
X427463485Y-183757303D02*
X408413485Y-183757303D01*
%TO.C,KA11*%
X375674785Y-123220103D02*
X394678380Y-121891242D01*
X377003646Y-142223698D02*
X375674785Y-123220103D01*
X394678380Y-121891242D02*
X396007241Y-140894837D01*
X396007241Y-140894837D02*
X377003646Y-142223698D01*
%TO.C,KD9*%
X345254085Y-190729203D02*
X363887797Y-186768485D01*
X349214803Y-209362915D02*
X345254085Y-190729203D01*
X363887797Y-186768485D02*
X367848515Y-205402197D01*
X367848515Y-205402197D02*
X349214803Y-209362915D01*
%TO.C,KA13*%
X417938485Y-121844803D02*
X436988485Y-121844803D01*
X417938485Y-140894803D02*
X417938485Y-121844803D01*
X436988485Y-121844803D02*
X436988485Y-140894803D01*
X436988485Y-140894803D02*
X417938485Y-140894803D01*
%TO.C,KD4*%
X243735685Y-190729203D02*
X262369397Y-194689921D01*
X239774967Y-209362915D02*
X243735685Y-190729203D01*
X262369397Y-194689921D02*
X258408679Y-213323633D01*
X258408679Y-213323633D02*
X239774967Y-209362915D01*
%TO.C,KA3*%
X215137385Y-123359103D02*
X234001992Y-126010351D01*
X212486137Y-142223710D02*
X215137385Y-123359103D01*
X234001992Y-126010351D02*
X231350744Y-144874957D01*
X231350744Y-144874957D02*
X212486137Y-142223710D01*
%TO.C,KF4*%
X307236985Y-237761203D02*
X349162837Y-228849588D01*
X311197703Y-256394915D02*
X307236985Y-237761203D01*
X349162837Y-228849588D02*
X353123554Y-247483300D01*
X353123554Y-247483300D02*
X311197703Y-256394915D01*
%TO.C,KF10*%
X439369785Y-121844803D02*
X458419785Y-121844803D01*
X439369785Y-140894803D02*
X439369785Y-121844803D01*
X458419785Y-121844803D02*
X458419785Y-140894803D01*
X458419785Y-140894803D02*
X439369785Y-140894803D01*
%TO.C,KB2*%
X190101285Y-143276003D02*
X209151285Y-143276003D01*
X190101285Y-162326003D02*
X190101285Y-143276003D01*
X209151285Y-143276003D02*
X209151285Y-162326003D01*
X209151285Y-162326003D02*
X190101285Y-162326003D01*
%TO.C,KA10*%
X354987785Y-126010303D02*
X373852392Y-123359055D01*
X357639033Y-144874910D02*
X354987785Y-126010303D01*
X373852392Y-123359055D02*
X376503639Y-142223662D01*
X376503639Y-142223662D02*
X357639033Y-144874910D01*
%TO.C,KB0*%
X152001285Y-145657303D02*
X171051285Y-145657303D01*
X152001285Y-164707303D02*
X152001285Y-145657303D01*
X171051285Y-145657303D02*
X171051285Y-164707303D01*
X171051285Y-164707303D02*
X152001285Y-164707303D01*
%TO.C,KB6*%
X269181585Y-157186703D02*
X287815297Y-161147421D01*
X265220867Y-175820415D02*
X269181585Y-157186703D01*
X287815297Y-161147421D02*
X283854579Y-179781133D01*
X283854579Y-179781133D02*
X265220867Y-175820415D01*
%TO.C,KA5*%
X255859385Y-130701903D02*
X274767389Y-133023514D01*
X253537774Y-149609907D02*
X255859385Y-130701903D01*
X274767389Y-133023514D02*
X272445778Y-151931518D01*
X272445778Y-151931518D02*
X253537774Y-149609907D01*
%TO.C,KB4*%
X231914185Y-149265303D02*
X250547897Y-153226021D01*
X227953467Y-167899015D02*
X231914185Y-149265303D01*
X250547897Y-153226021D02*
X246587179Y-171859733D01*
X246587179Y-171859733D02*
X227953467Y-167899015D01*
%TO.C,KE6*%
X284969885Y-226619803D02*
X304019885Y-226619803D01*
X284969885Y-245669803D02*
X284969885Y-226619803D01*
X304019885Y-226619803D02*
X304019885Y-245669803D01*
X304019885Y-245669803D02*
X284969885Y-245669803D01*
%TO.C,KC7*%
X329001685Y-174708203D02*
X347635397Y-170747485D01*
X332962403Y-193341915D02*
X329001685Y-174708203D01*
X347635397Y-170747485D02*
X351596115Y-189381197D01*
X351596115Y-189381197D02*
X332962403Y-193341915D01*
%TO.C,KC6*%
X310367985Y-178668903D02*
X329001697Y-174708185D01*
X314328703Y-197302615D02*
X310367985Y-178668903D01*
X329001697Y-174708185D02*
X332962415Y-193341897D01*
X332962415Y-193341897D02*
X314328703Y-197302615D01*
%TO.C,KE11*%
X384600985Y-202807303D02*
X403650985Y-202807303D01*
X384600985Y-221857303D02*
X384600985Y-202807303D01*
X403650985Y-202807303D02*
X403650985Y-221857303D01*
X403650985Y-221857303D02*
X384600985Y-221857303D01*
%TO.C,KA8*%
X314222385Y-133023503D02*
X333130389Y-130701892D01*
X316543996Y-151931507D02*
X314222385Y-133023503D01*
X333130389Y-130701892D02*
X335452000Y-149609896D01*
X335452000Y-149609896D02*
X316543996Y-151931507D01*
%TO.C,KE4*%
X246116885Y-210711003D02*
X264750597Y-214671721D01*
X242156167Y-229344715D02*
X246116885Y-210711003D01*
X264750597Y-214671721D02*
X260789879Y-233305433D01*
X260789879Y-233305433D02*
X242156167Y-229344715D01*
%TO.C,KF11*%
X458419785Y-121844803D02*
X477469785Y-121844803D01*
X458419785Y-140894803D02*
X458419785Y-121844803D01*
X477469785Y-121844803D02*
X477469785Y-140894803D01*
X477469785Y-140894803D02*
X458419785Y-140894803D01*
%TO.C,KC3*%
X222720685Y-166786803D02*
X241354397Y-170747521D01*
X218759967Y-185420515D02*
X222720685Y-166786803D01*
X241354397Y-170747521D02*
X237393679Y-189381233D01*
X237393679Y-189381233D02*
X218759967Y-185420515D01*
%TO.C,KB3*%
X213280485Y-145304603D02*
X231914197Y-149265321D01*
X209319767Y-163938315D02*
X213280485Y-145304603D01*
X231914197Y-149265321D02*
X227953479Y-167899033D01*
X227953479Y-167899033D02*
X209319767Y-163938315D01*
%TO.C,KD7*%
X307986685Y-198650703D02*
X326620397Y-194689985D01*
X311947403Y-217284415D02*
X307986685Y-198650703D01*
X326620397Y-194689985D02*
X330581115Y-213323697D01*
X330581115Y-213323697D02*
X311947403Y-217284415D01*
%TO.C,KD2*%
X206468285Y-182807803D02*
X225101997Y-186768521D01*
X202507567Y-201441515D02*
X206468285Y-182807803D01*
X225101997Y-186768521D02*
X221141279Y-205402233D01*
X221141279Y-205402233D02*
X202507567Y-201441515D01*
%TO.C,KD6*%
X284969885Y-207569803D02*
X304019885Y-207569803D01*
X284969885Y-226619803D02*
X284969885Y-207569803D01*
X304019885Y-207569803D02*
X304019885Y-226619803D01*
X304019885Y-226619803D02*
X284969885Y-226619803D01*
%TO.C,KF7*%
X420319785Y-224238503D02*
X439369785Y-224238503D01*
X420319785Y-243288503D02*
X420319785Y-224238503D01*
X439369785Y-224238503D02*
X439369785Y-243288503D01*
X439369785Y-243288503D02*
X420319785Y-243288503D01*
%TO.C,KC2*%
X204086985Y-162826003D02*
X222720697Y-166786721D01*
X200126267Y-181459715D02*
X204086985Y-162826003D01*
X222720697Y-166786721D02*
X218759979Y-185420433D01*
X218759979Y-185420433D02*
X200126267Y-181459715D01*
%TO.C,KE12*%
X403650985Y-202807303D02*
X436988485Y-202807303D01*
X403650985Y-221857303D02*
X403650985Y-202807303D01*
X436988485Y-202807303D02*
X436988485Y-221857303D01*
X436988485Y-221857303D02*
X403650985Y-221857303D01*
%TO.C,KC13*%
X446513485Y-164707303D02*
X475088485Y-164707303D01*
X446513485Y-183757303D02*
X446513485Y-164707303D01*
X475088485Y-164707303D02*
X475088485Y-183757303D01*
X475088485Y-183757303D02*
X446513485Y-183757303D01*
%TO.C,KE5*%
X264750685Y-214671703D02*
X283384397Y-218632421D01*
X260789967Y-233305415D02*
X264750685Y-214671703D01*
X283384397Y-218632421D02*
X279423679Y-237266133D01*
X279423679Y-237266133D02*
X260789967Y-233305415D01*
%TO.C,KC5*%
X259988185Y-174708203D02*
X278621897Y-178668921D01*
X256027467Y-193341915D02*
X259988185Y-174708203D01*
X278621897Y-178668921D02*
X274661179Y-197302633D01*
X274661179Y-197302633D02*
X256027467Y-193341915D01*
%TO.C,KC8*%
X347635385Y-170747503D02*
X366269097Y-166786785D01*
X351596103Y-189381215D02*
X347635385Y-170747503D01*
X366269097Y-166786785D02*
X370229815Y-185420497D01*
X370229815Y-185420497D02*
X351596103Y-189381215D01*
%TO.C,KA4*%
X235811485Y-126241203D02*
X254445197Y-130201921D01*
X231850767Y-144874915D02*
X235811485Y-126241203D01*
X254445197Y-130201921D02*
X250484479Y-148835633D01*
X250484479Y-148835633D02*
X231850767Y-144874915D01*
%TO.C,KD0*%
X149620085Y-183757303D02*
X182957585Y-183757303D01*
X149620085Y-202807303D02*
X149620085Y-183757303D01*
X182957585Y-183757303D02*
X182957585Y-202807303D01*
X182957585Y-202807303D02*
X149620085Y-202807303D01*
%TO.C,KA6*%
X275267385Y-133023503D02*
X294244894Y-134683820D01*
X273607068Y-152001012D02*
X275267385Y-133023503D01*
X294244894Y-134683820D02*
X292584577Y-153661329D01*
X292584577Y-153661329D02*
X273607068Y-152001012D01*
%TO.C,KD12*%
X406032285Y-183757303D02*
X425082285Y-183757303D01*
X406032285Y-202807303D02*
X406032285Y-183757303D01*
X425082285Y-183757303D02*
X425082285Y-202807303D01*
X425082285Y-202807303D02*
X406032285Y-202807303D01*
%TO.C,KB12*%
X398888485Y-145657303D02*
X417938485Y-145657303D01*
X398888485Y-164707303D02*
X398888485Y-145657303D01*
X417938485Y-145657303D02*
X417938485Y-164707303D01*
X417938485Y-164707303D02*
X398888485Y-164707303D01*
%TO.C,KF2*%
X207217985Y-221918303D02*
X230510125Y-226869200D01*
X203257267Y-240552015D02*
X207217985Y-221918303D01*
X203257267Y-240552015D02*
X226549407Y-245502912D01*
X230510125Y-226869200D02*
X226549407Y-245502912D01*
%TO.C,KA0*%
X152001285Y-121844803D02*
X171051285Y-121844803D01*
X152001285Y-140894803D02*
X152001285Y-121844803D01*
X171051285Y-121844803D02*
X171051285Y-140894803D01*
X171051285Y-140894803D02*
X152001285Y-140894803D01*
%TO.C,KF12*%
X456038485Y-145657303D02*
X475088485Y-145657303D01*
X456038485Y-164707303D02*
X456038485Y-145657303D01*
X475088485Y-145657303D02*
X475088485Y-164707303D01*
X475088485Y-164707303D02*
X456038485Y-164707303D01*
%TO.C,KB7*%
X301174485Y-161147503D02*
X319808197Y-157186785D01*
X305135203Y-179781215D02*
X301174485Y-161147503D01*
X319808197Y-157186785D02*
X323768915Y-175820497D01*
X323768915Y-175820497D02*
X305135203Y-179781215D01*
%TO.C,KE0*%
X142476285Y-202807303D02*
X185338785Y-202807303D01*
X142476285Y-221857303D02*
X142476285Y-202807303D01*
X185338785Y-202807303D02*
X185338785Y-221857303D01*
X185338785Y-221857303D02*
X142476285Y-221857303D01*
%TO.C,KB8*%
X319808185Y-157186703D02*
X338441897Y-153225985D01*
X323768903Y-175820415D02*
X319808185Y-157186703D01*
X338441897Y-153225985D02*
X342402615Y-171859697D01*
X342402615Y-171859697D02*
X323768903Y-175820415D01*
%TO.C,KC9*%
X366269085Y-166786803D02*
X384902797Y-162826085D01*
X370229803Y-185420515D02*
X366269085Y-166786803D01*
X384902797Y-162826085D02*
X388863515Y-181459797D01*
X388863515Y-181459797D02*
X370229803Y-185420515D01*
%TO.C,KB13*%
X417938485Y-145657303D02*
X456038485Y-145657303D01*
X417938485Y-164707303D02*
X417938485Y-145657303D01*
X456038485Y-145657303D02*
X456038485Y-164707303D01*
X456038485Y-164707303D02*
X417938485Y-164707303D01*
%TO.C,KB5*%
X250547885Y-153226003D02*
X269181597Y-157186721D01*
X246587167Y-171859715D02*
X250547885Y-153226003D01*
X269181597Y-157186721D02*
X265220879Y-175820433D01*
X265220879Y-175820433D02*
X246587167Y-171859715D01*
%TO.C,KE1*%
X185338785Y-202807303D02*
X204388785Y-202807303D01*
X185338785Y-221857303D02*
X185338785Y-202807303D01*
X204388785Y-202807303D02*
X204388785Y-221857303D01*
X204388785Y-221857303D02*
X185338785Y-221857303D01*
%TO.C,KC0*%
X152001285Y-164707303D02*
X180576285Y-164707303D01*
X152001285Y-183757303D02*
X152001285Y-164707303D01*
X180576285Y-164707303D02*
X180576285Y-183757303D01*
X180576285Y-183757303D02*
X152001285Y-183757303D01*
%TO.C,KA7*%
X294744885Y-134683803D02*
X313722394Y-133023486D01*
X296405202Y-153661312D02*
X294744885Y-134683803D01*
X313722394Y-133023486D02*
X315382711Y-152000995D01*
X315382711Y-152000995D02*
X296405202Y-153661312D01*
D11*
%TO.C,KF3*%
X230510185Y-226869203D02*
X281752892Y-237761177D01*
X226549467Y-245502915D02*
X230510185Y-226869203D01*
X281752892Y-237761177D02*
X277792175Y-256394888D01*
X277792175Y-256394888D02*
X226549467Y-245502915D01*
D10*
%TO.C,KF9*%
X458419785Y-224238503D02*
X477469785Y-224238503D01*
X458419785Y-243288503D02*
X458419785Y-224238503D01*
X477469785Y-224238503D02*
X477469785Y-243288503D01*
X477469785Y-243288503D02*
X458419785Y-243288503D01*
%TO.C,KD3*%
X225101985Y-186768503D02*
X243735697Y-190729221D01*
X221141267Y-205402215D02*
X225101985Y-186768503D01*
X243735697Y-190729221D02*
X239774979Y-209362933D01*
X239774979Y-209362933D02*
X221141267Y-205402215D01*
%TO.C,KE2*%
X208849485Y-202789503D02*
X227483197Y-206750221D01*
X204888767Y-221423215D02*
X208849485Y-202789503D01*
X227483197Y-206750221D02*
X223522479Y-225383933D01*
X223522479Y-225383933D02*
X204888767Y-221423215D01*
%TO.C,KF5*%
X358479685Y-226869203D02*
X381771825Y-221918306D01*
X362440403Y-245502915D02*
X358479685Y-226869203D01*
X362440403Y-245502915D02*
X385732542Y-240552018D01*
X381771825Y-221918306D02*
X385732542Y-240552018D01*
%TO.C,KD8*%
X326620385Y-194689903D02*
X345254097Y-190729185D01*
X330581103Y-213323615D02*
X326620385Y-194689903D01*
X345254097Y-190729185D02*
X349214815Y-209362897D01*
X349214815Y-209362897D02*
X330581103Y-213323615D01*
%TO.C,KD5*%
X262369385Y-194689903D02*
X281003097Y-198650621D01*
X258408667Y-213323615D02*
X262369385Y-194689903D01*
X281003097Y-198650621D02*
X277042379Y-217284333D01*
X277042379Y-217284333D02*
X258408667Y-213323615D01*
%TO.C,KC10*%
X389363485Y-164707303D02*
X408413485Y-164707303D01*
X389363485Y-183757303D02*
X389363485Y-164707303D01*
X408413485Y-164707303D02*
X408413485Y-183757303D01*
X408413485Y-183757303D02*
X389363485Y-183757303D01*
%TO.C,KA1*%
X173432585Y-121844803D02*
X192482585Y-121844803D01*
X173432585Y-140894803D02*
X173432585Y-121844803D01*
X192482585Y-121844803D02*
X192482585Y-140894803D01*
X192482585Y-140894803D02*
X173432585Y-140894803D01*
%TO.C,KE9*%
X342872885Y-210711003D02*
X361506597Y-206750285D01*
X346833603Y-229344715D02*
X342872885Y-210711003D01*
X361506597Y-206750285D02*
X365467315Y-225383997D01*
X365467315Y-225383997D02*
X346833603Y-229344715D01*
%TO.C,KE10*%
X361506585Y-206750203D02*
X380140297Y-202789485D01*
X365467303Y-225383915D02*
X361506585Y-206750203D01*
X380140297Y-202789485D02*
X384101015Y-221423197D01*
X384101015Y-221423197D02*
X365467303Y-225383915D01*
D12*
%TO.C,J1*%
X465799785Y-224352903D02*
X464469785Y-224352903D01*
X465799785Y-223022903D02*
X465799785Y-224352903D01*
X465799785Y-221752903D02*
X465799785Y-216522903D01*
X465799785Y-221752903D02*
X463139785Y-221752903D01*
X465799785Y-216522903D02*
X463139785Y-216522903D01*
X463139785Y-221752903D02*
X463139785Y-216522903D01*
D10*
%TO.C,KF6*%
X386982285Y-221857303D02*
X410794785Y-221857303D01*
X386982285Y-240907303D02*
X386982285Y-221857303D01*
X386982285Y-240907303D02*
X410794785Y-240907303D01*
X410794785Y-221857303D02*
X410794785Y-240907303D01*
%TO.C,KB1*%
X171051285Y-145657303D02*
X190101285Y-145657303D01*
X171051285Y-164707303D02*
X171051285Y-145657303D01*
X190101285Y-145657303D02*
X190101285Y-164707303D01*
X190101285Y-164707303D02*
X171051285Y-164707303D01*
%TO.C,KD10*%
X363887785Y-186768503D02*
X382521497Y-182807785D01*
X367848503Y-205402215D02*
X363887785Y-186768503D01*
X382521497Y-182807785D02*
X386482215Y-201441497D01*
X386482215Y-201441497D02*
X367848503Y-205402215D01*
%TO.C,KF1*%
X178195085Y-221857303D02*
X202007585Y-221857303D01*
X178195085Y-240907303D02*
X178195085Y-221857303D01*
X178195085Y-240907303D02*
X202007585Y-240907303D01*
X202007585Y-221857303D02*
X202007585Y-240907303D01*
D12*
%TO.C,J2*%
X465799785Y-208892903D02*
X464469785Y-208892903D01*
X465799785Y-207562903D02*
X465799785Y-208892903D01*
X465799785Y-206292903D02*
X465799785Y-203562903D01*
X465799785Y-206292903D02*
X463139785Y-206292903D01*
X465799785Y-203562903D02*
X463139785Y-203562903D01*
X463139785Y-206292903D02*
X463139785Y-203562903D01*
D10*
%TO.C,KE13*%
X439369785Y-205188503D02*
X458419785Y-205188503D01*
X439369785Y-224238503D02*
X439369785Y-205188503D01*
X458419785Y-205188503D02*
X458419785Y-224238503D01*
X458419785Y-224238503D02*
X439369785Y-224238503D01*
%TO.C,KE7*%
X305605485Y-218632403D02*
X324239197Y-214671685D01*
X309566203Y-237266115D02*
X305605485Y-218632403D01*
X324239197Y-214671685D02*
X328199915Y-233305397D01*
X328199915Y-233305397D02*
X309566203Y-237266115D01*
%TD*%
%LPC*%
D13*
%TO.C,KD1*%
X187402585Y-193282303D03*
D14*
X188672585Y-190742303D03*
D15*
X192482585Y-193282303D03*
D14*
X195022585Y-188202303D03*
D13*
X197562585Y-193282303D03*
%TD*%
%TO.C,KB11*%
X384283485Y-152801003D03*
D14*
X385553485Y-150261003D03*
D15*
X389363485Y-152801003D03*
D14*
X391903485Y-147721003D03*
D13*
X394443485Y-152801003D03*
%TD*%
%TO.C,KD11*%
X391427285Y-193282303D03*
D14*
X392697285Y-190742303D03*
D15*
X396507285Y-193282303D03*
D14*
X399047285Y-188202303D03*
D13*
X401587285Y-193282303D03*
%TD*%
%TO.C,KC12*%
X431908485Y-174232303D03*
D14*
X433178485Y-171692303D03*
D15*
X436988485Y-174232303D03*
D14*
X439528485Y-169152303D03*
D13*
X442068485Y-174232303D03*
%TD*%
%TO.C,KC4*%
X243721892Y-180988526D03*
D14*
X245492235Y-178768079D03*
D15*
X248690882Y-182044718D03*
D14*
X252231568Y-177603824D03*
D13*
X253659872Y-183100909D03*
%TD*%
%TO.C,KB10*%
X363403810Y-157657991D03*
D14*
X364117962Y-154909449D03*
D15*
X368372800Y-156601800D03*
D14*
X369801103Y-151104715D03*
D13*
X373341790Y-155545609D03*
%TD*%
%TO.C,KE3*%
X229850692Y-216991226D03*
D14*
X231621035Y-214770779D03*
D15*
X234819682Y-218047418D03*
D14*
X238360368Y-213606524D03*
D13*
X239788672Y-219103609D03*
%TD*%
%TO.C,KB9*%
X344770110Y-161618691D03*
D14*
X345484262Y-158870149D03*
D15*
X349739100Y-160562500D03*
D14*
X351167403Y-155065415D03*
D13*
X354708090Y-159506309D03*
%TD*%
%TO.C,KC1*%
X185021285Y-174232303D03*
D14*
X186291285Y-171692303D03*
D15*
X190101285Y-174232303D03*
D14*
X192641285Y-169152303D03*
D13*
X195181285Y-174232303D03*
%TD*%
%TO.C,KA2*%
X198081127Y-131703068D03*
D14*
X199525215Y-129257846D03*
D15*
X203148752Y-132057431D03*
D14*
X206036928Y-127166987D03*
D13*
X208216378Y-132411794D03*
%TD*%
%TO.C,KF8*%
X443814785Y-233763503D03*
D14*
X445084785Y-231223503D03*
D15*
X448894785Y-233763503D03*
D14*
X451434785Y-228683503D03*
D13*
X453974785Y-233763503D03*
%TD*%
%TO.C,KA9*%
X340872810Y-138594591D03*
D14*
X341586962Y-135846049D03*
D15*
X345841800Y-137538400D03*
D14*
X347270103Y-132041315D03*
D13*
X350810790Y-136482209D03*
%TD*%
%TO.C,KA12*%
X400952285Y-131369803D03*
D14*
X402222285Y-128829803D03*
D15*
X406032285Y-131369803D03*
D14*
X408572285Y-126289803D03*
D13*
X411112285Y-131369803D03*
%TD*%
%TO.C,KE8*%
X330567410Y-223064391D03*
D14*
X331281562Y-220315849D03*
D15*
X335536400Y-222008200D03*
D14*
X336964703Y-216511115D03*
D13*
X340505390Y-220952009D03*
%TD*%
%TO.C,KF0*%
X161208835Y-231382303D03*
D14*
X162478835Y-228842303D03*
D15*
X166288835Y-231382303D03*
D14*
X168828835Y-226302303D03*
D13*
X171368835Y-231382303D03*
%TD*%
D16*
%TO.C,KD13*%
X434613535Y-186282303D03*
D17*
X434613535Y-201522303D03*
D13*
X441433535Y-193282303D03*
D14*
X442703535Y-190742303D03*
D15*
X446513535Y-193282303D03*
D14*
X449053535Y-188202303D03*
D13*
X451593535Y-193282303D03*
D16*
X458413535Y-186282303D03*
D17*
X458413535Y-201522303D03*
%TD*%
D13*
%TO.C,KC11*%
X412858485Y-174232303D03*
D14*
X414128485Y-171692303D03*
D15*
X417938485Y-174232303D03*
D14*
X420478485Y-169152303D03*
D13*
X423018485Y-174232303D03*
%TD*%
D18*
%TO.C,MountTopMiddle6*%
X470866285Y-186384803D03*
%TD*%
D19*
%TO.C,RSW2*%
X144730000Y-133340000D03*
X144730000Y-128340000D03*
D20*
X147230000Y-134340000D03*
X147230000Y-127340000D03*
%TD*%
D13*
%TO.C,KA11*%
X380773388Y-132411833D03*
D14*
X381863113Y-129789430D03*
D15*
X385841013Y-132057470D03*
D14*
X388020463Y-126812663D03*
D13*
X390908638Y-131703107D03*
%TD*%
%TO.C,KD9*%
X351582310Y-199121891D03*
D14*
X352296462Y-196373349D03*
D15*
X356551300Y-198065700D03*
D14*
X357979603Y-192568615D03*
D13*
X361520290Y-197009509D03*
%TD*%
%TO.C,KA13*%
X422383485Y-131369803D03*
D14*
X423653485Y-128829803D03*
D15*
X427463485Y-131369803D03*
D14*
X430003485Y-126289803D03*
D13*
X432543485Y-131369803D03*
%TD*%
%TO.C,KD4*%
X246103192Y-200970226D03*
D14*
X247873535Y-198749779D03*
D15*
X251072182Y-202026418D03*
D14*
X254612868Y-197585524D03*
D13*
X256041172Y-203082609D03*
%TD*%
%TO.C,KA3*%
X218213503Y-133410031D03*
D14*
X219824643Y-131071500D03*
D15*
X223244065Y-134117030D03*
D14*
X226466345Y-129439968D03*
D13*
X228274626Y-134824029D03*
%TD*%
D17*
%TO.C,KF4*%
X316827121Y-237036464D03*
D16*
X319995695Y-251943434D03*
D13*
X325211280Y-243678443D03*
D14*
X325925432Y-240929900D03*
D15*
X330180270Y-242622251D03*
D14*
X331608573Y-237125166D03*
D13*
X335149259Y-241566060D03*
D17*
X340107034Y-232088166D03*
D16*
X343275608Y-246995136D03*
%TD*%
D13*
%TO.C,KF10*%
X443814785Y-131369803D03*
D14*
X445084785Y-128829803D03*
D15*
X448894785Y-131369803D03*
D14*
X451434785Y-126289803D03*
D13*
X453974785Y-131369803D03*
%TD*%
%TO.C,KB2*%
X194546285Y-152801003D03*
D14*
X195816285Y-150261003D03*
D15*
X199626285Y-152801003D03*
D14*
X202166285Y-147721003D03*
D13*
X204706285Y-152801003D03*
%TD*%
%TO.C,KA10*%
X360715150Y-134823982D03*
D14*
X361619291Y-132131951D03*
D15*
X365745712Y-134116983D03*
D14*
X367553994Y-128732921D03*
D13*
X370776274Y-133409983D03*
%TD*%
%TO.C,KB0*%
X156446285Y-155182303D03*
D14*
X157716285Y-152642303D03*
D15*
X161526285Y-155182303D03*
D14*
X164066285Y-150102303D03*
D13*
X166606285Y-155182303D03*
%TD*%
%TO.C,KB6*%
X271549092Y-167427726D03*
D14*
X273319435Y-165207279D03*
D15*
X276518082Y-168483918D03*
D14*
X280058768Y-164043024D03*
D13*
X281487072Y-169540109D03*
%TD*%
D18*
%TO.C,MountTopMiddle4*%
X384676285Y-224324803D03*
%TD*%
D13*
%TO.C,KA5*%
X259110447Y-140697614D03*
D14*
X260680529Y-138331321D03*
D15*
X264152582Y-141316711D03*
D14*
X267292745Y-136584124D03*
D13*
X269194716Y-141935807D03*
%TD*%
%TO.C,KB4*%
X234281692Y-159506326D03*
D14*
X236052035Y-157285879D03*
D15*
X239250682Y-160562518D03*
D14*
X242791368Y-156121624D03*
D13*
X244219672Y-161618709D03*
%TD*%
%TO.C,KE6*%
X289414885Y-236144803D03*
D14*
X290684885Y-233604803D03*
D15*
X294494885Y-236144803D03*
D14*
X297034885Y-231064803D03*
D13*
X299574885Y-236144803D03*
%TD*%
%TO.C,KC7*%
X335329910Y-183100891D03*
D14*
X336044062Y-180352349D03*
D15*
X340298900Y-182044700D03*
D14*
X341727203Y-176547615D03*
D13*
X345267890Y-180988509D03*
%TD*%
%TO.C,KC6*%
X316696210Y-187061591D03*
D14*
X317410362Y-184313049D03*
D15*
X321665200Y-186005400D03*
D14*
X323093503Y-180508315D03*
D13*
X326634190Y-184949209D03*
%TD*%
%TO.C,KE11*%
X389045985Y-212332303D03*
D14*
X390315985Y-209792303D03*
D15*
X394125985Y-212332303D03*
D14*
X396665985Y-207252303D03*
D13*
X399205985Y-212332303D03*
%TD*%
%TO.C,KA8*%
X319795058Y-141935796D03*
D14*
X320746044Y-139259955D03*
D15*
X324837193Y-141316700D03*
D14*
X326739164Y-135965017D03*
D13*
X329879327Y-140697603D03*
%TD*%
%TO.C,KE4*%
X248484392Y-220952026D03*
D14*
X250254735Y-218731579D03*
D15*
X253453382Y-222008218D03*
D14*
X256994068Y-217567324D03*
D13*
X258422372Y-223064409D03*
%TD*%
%TO.C,KF11*%
X462864785Y-131369803D03*
D14*
X464134785Y-128829803D03*
D15*
X467944785Y-131369803D03*
D14*
X470484785Y-126289803D03*
D13*
X473024785Y-131369803D03*
%TD*%
%TO.C,KC3*%
X225088192Y-177027826D03*
D14*
X226858535Y-174807379D03*
D15*
X230057182Y-178084018D03*
D14*
X233597868Y-173643124D03*
D13*
X235026172Y-179140209D03*
%TD*%
%TO.C,KB3*%
X215647992Y-155545626D03*
D14*
X217418335Y-153325179D03*
D15*
X220616982Y-156601818D03*
D14*
X224157668Y-152160924D03*
D13*
X225585972Y-157658009D03*
%TD*%
%TO.C,KD7*%
X314314910Y-207043391D03*
D14*
X315029062Y-204294849D03*
D15*
X319283900Y-205987200D03*
D14*
X320712203Y-200490115D03*
D13*
X324252890Y-204931009D03*
%TD*%
D18*
%TO.C,MountTopMiddle1*%
X172256285Y-143174803D03*
%TD*%
D19*
%TO.C,RSW1*%
X144730000Y-143340003D03*
X144730000Y-138340003D03*
D20*
X147230000Y-144340003D03*
X147230000Y-137340003D03*
%TD*%
D13*
%TO.C,KD2*%
X208835792Y-193048826D03*
D14*
X210606135Y-190828379D03*
D15*
X213804782Y-194105018D03*
D14*
X217345468Y-189664124D03*
D13*
X218773772Y-195161209D03*
%TD*%
%TO.C,KD6*%
X289414885Y-217094803D03*
D14*
X290684885Y-214554803D03*
D15*
X294494885Y-217094803D03*
D14*
X297034885Y-212014803D03*
D13*
X299574885Y-217094803D03*
%TD*%
%TO.C,KF7*%
X424764785Y-233763503D03*
D14*
X426034785Y-231223503D03*
D15*
X429844785Y-233763503D03*
D14*
X432384785Y-228683503D03*
D13*
X434924785Y-233763503D03*
%TD*%
%TO.C,KC2*%
X206454492Y-173067026D03*
D14*
X208224835Y-170846579D03*
D15*
X211423482Y-174123218D03*
D14*
X214964168Y-169682324D03*
D13*
X216392472Y-175179409D03*
%TD*%
D18*
%TO.C,MountTopMiddle3*%
X294475000Y-181015000D03*
%TD*%
D13*
%TO.C,KE12*%
X415239735Y-212332303D03*
D14*
X416509735Y-209792303D03*
D15*
X420319735Y-212332303D03*
D14*
X422859735Y-207252303D03*
D13*
X425399735Y-212332303D03*
%TD*%
%TO.C,KC13*%
X455720985Y-174232303D03*
D14*
X456990985Y-171692303D03*
D15*
X460800985Y-174232303D03*
D14*
X463340985Y-169152303D03*
D13*
X465880985Y-174232303D03*
%TD*%
%TO.C,KE5*%
X267118192Y-224912726D03*
D14*
X268888535Y-222692279D03*
D15*
X272087182Y-225968918D03*
D14*
X275627868Y-221528024D03*
D13*
X277056172Y-227025109D03*
%TD*%
%TO.C,KC5*%
X262355692Y-184949226D03*
D14*
X264126035Y-182728779D03*
D15*
X267324682Y-186005418D03*
D14*
X270865368Y-181564524D03*
D13*
X272293672Y-187061609D03*
%TD*%
%TO.C,KC8*%
X353963610Y-179140191D03*
D14*
X354677762Y-176391649D03*
D15*
X358932600Y-178084000D03*
D14*
X360360903Y-172586915D03*
D13*
X363901590Y-177027809D03*
%TD*%
%TO.C,KA4*%
X238178992Y-136482226D03*
D14*
X239949335Y-134261779D03*
D15*
X243147982Y-137538418D03*
D14*
X246688668Y-133097524D03*
D13*
X248116972Y-138594609D03*
%TD*%
%TO.C,KD0*%
X161208835Y-193282303D03*
D14*
X162478835Y-190742303D03*
D15*
X166288835Y-193282303D03*
D14*
X168828835Y-188202303D03*
D13*
X171368835Y-193282303D03*
%TD*%
%TO.C,KA6*%
X278865312Y-142899665D03*
D14*
X280351855Y-140480018D03*
D15*
X283925981Y-143342416D03*
D14*
X286899067Y-138503122D03*
D13*
X288986650Y-143785167D03*
%TD*%
%TO.C,KD12*%
X410477285Y-193282303D03*
D14*
X411747285Y-190742303D03*
D15*
X415557285Y-193282303D03*
D14*
X418097285Y-188202303D03*
D13*
X420637285Y-193282303D03*
%TD*%
%TO.C,KB12*%
X403333485Y-155182303D03*
D14*
X404603485Y-152642303D03*
D15*
X408413485Y-155182303D03*
D14*
X410953485Y-150102303D03*
D13*
X413493485Y-155182303D03*
%TD*%
%TO.C,KF2*%
X211914706Y-232654416D03*
D14*
X213685049Y-230433969D03*
D15*
X216883696Y-233710607D03*
D14*
X220424382Y-229269713D03*
D13*
X221852686Y-234766799D03*
%TD*%
D19*
%TO.C,J3*%
X145455004Y-186690001D03*
X145455004Y-184190001D03*
X145455004Y-181690001D03*
%TD*%
D13*
%TO.C,KA0*%
X156446285Y-131369803D03*
D14*
X157716285Y-128829803D03*
D15*
X161526285Y-131369803D03*
D14*
X164066285Y-126289803D03*
D13*
X166606285Y-131369803D03*
%TD*%
%TO.C,KF12*%
X460483485Y-155182303D03*
D14*
X461753485Y-152642303D03*
D15*
X465563485Y-155182303D03*
D14*
X468103485Y-150102303D03*
D13*
X470643485Y-155182303D03*
%TD*%
%TO.C,KB7*%
X307502710Y-169540191D03*
D14*
X308216862Y-166791649D03*
D15*
X312471700Y-168484000D03*
D14*
X313900003Y-162986915D03*
D13*
X317440690Y-167427809D03*
%TD*%
D16*
%TO.C,KE0*%
X152007535Y-205332303D03*
D17*
X152007535Y-220572303D03*
D13*
X158827535Y-212332303D03*
D14*
X160097535Y-209792303D03*
D15*
X163907535Y-212332303D03*
D14*
X166447535Y-207252303D03*
D13*
X168987535Y-212332303D03*
D16*
X175807535Y-205332303D03*
D17*
X175807535Y-220572303D03*
%TD*%
D13*
%TO.C,KB8*%
X326136410Y-165579391D03*
D14*
X326850562Y-162830849D03*
D15*
X331105400Y-164523200D03*
D14*
X332533703Y-159026115D03*
D13*
X336074390Y-163467009D03*
%TD*%
%TO.C,KC9*%
X372597310Y-175179491D03*
D14*
X373311462Y-172430949D03*
D15*
X377566300Y-174123300D03*
D14*
X378994603Y-168626215D03*
D13*
X382535290Y-173067109D03*
%TD*%
D16*
%TO.C,KB13*%
X425088485Y-148182303D03*
D17*
X425088485Y-163422303D03*
D13*
X431908485Y-155182303D03*
D14*
X433178485Y-152642303D03*
D15*
X436988485Y-155182303D03*
D14*
X439528485Y-150102303D03*
D13*
X442068485Y-155182303D03*
D16*
X448888485Y-148182303D03*
D17*
X448888485Y-163422303D03*
%TD*%
D13*
%TO.C,KB5*%
X252915392Y-163467026D03*
D14*
X254685735Y-161246579D03*
D15*
X257884382Y-164523218D03*
D14*
X261425068Y-160082324D03*
D13*
X262853372Y-165579409D03*
%TD*%
%TO.C,KE1*%
X189783785Y-212332303D03*
D14*
X191053785Y-209792303D03*
D15*
X194863785Y-212332303D03*
D14*
X197403785Y-207252303D03*
D13*
X199943785Y-212332303D03*
%TD*%
%TO.C,KC0*%
X161208785Y-174232303D03*
D14*
X162478785Y-171692303D03*
D15*
X166288785Y-174232303D03*
D14*
X168828785Y-169152303D03*
D13*
X171368785Y-174232303D03*
%TD*%
%TO.C,KA7*%
X300003129Y-143785150D03*
D14*
X301046921Y-141144128D03*
D15*
X305063798Y-143342399D03*
D14*
X307151381Y-138060354D03*
D13*
X310124467Y-142899648D03*
%TD*%
D17*
%TO.C,KF3*%
X244223480Y-231102362D03*
D16*
X241054906Y-246009331D03*
D13*
X249182190Y-240575854D03*
D14*
X250952533Y-238355407D03*
D15*
X254151180Y-241632046D03*
D14*
X257691866Y-237191152D03*
D13*
X259120170Y-242688237D03*
D17*
X267503393Y-236050660D03*
D16*
X264334819Y-250957630D03*
%TD*%
D18*
%TO.C,MountTopMiddle5*%
X416676285Y-143254803D03*
%TD*%
D13*
%TO.C,KF9*%
X462864785Y-233763503D03*
D14*
X464134785Y-231223503D03*
D15*
X467944785Y-233763503D03*
D14*
X470484785Y-228683503D03*
D13*
X473024785Y-233763503D03*
%TD*%
%TO.C,KD3*%
X227469492Y-197009526D03*
D14*
X229239835Y-194789079D03*
D15*
X232438482Y-198065718D03*
D14*
X235979168Y-193624824D03*
D13*
X237407472Y-199121909D03*
%TD*%
%TO.C,KE2*%
X211216992Y-213030526D03*
D14*
X212987335Y-210810079D03*
D15*
X216185982Y-214086718D03*
D14*
X219726668Y-209645824D03*
D13*
X221154972Y-215142909D03*
%TD*%
%TO.C,KF5*%
X367137124Y-234766802D03*
D14*
X367851276Y-232018259D03*
D15*
X372106114Y-233710610D03*
D14*
X373534417Y-228213525D03*
D13*
X377075104Y-232654419D03*
%TD*%
%TO.C,KD8*%
X332948610Y-203082591D03*
D14*
X333662762Y-200334049D03*
D15*
X337917600Y-202026400D03*
D14*
X339345903Y-196529315D03*
D13*
X342886590Y-200970209D03*
%TD*%
%TO.C,KD5*%
X264736892Y-204930926D03*
D14*
X266507235Y-202710479D03*
D15*
X269705882Y-205987118D03*
D14*
X273246568Y-201546224D03*
D13*
X274674872Y-207043309D03*
%TD*%
%TO.C,KC10*%
X393808485Y-174232303D03*
D14*
X395078485Y-171692303D03*
D15*
X398888485Y-174232303D03*
D14*
X401428485Y-169152303D03*
D13*
X403968485Y-174232303D03*
%TD*%
%TO.C,KA1*%
X177877585Y-131369803D03*
D14*
X179147585Y-128829803D03*
D15*
X182957585Y-131369803D03*
D14*
X185497585Y-126289803D03*
D13*
X188037585Y-131369803D03*
%TD*%
D18*
%TO.C,MountTopMiddle2*%
X204266285Y-224354803D03*
%TD*%
D13*
%TO.C,KE9*%
X349201110Y-219103691D03*
D14*
X349915262Y-216355149D03*
D15*
X354170100Y-218047500D03*
D14*
X355598403Y-212550415D03*
D13*
X359139090Y-216991309D03*
%TD*%
%TO.C,KE10*%
X367834810Y-215142891D03*
D14*
X368548962Y-212394349D03*
D15*
X372803800Y-214086700D03*
D14*
X374232103Y-208589615D03*
D13*
X377772790Y-213030509D03*
%TD*%
D21*
%TO.C,J1*%
X464469785Y-223022903D03*
D22*
X464469785Y-220482903D03*
X464469785Y-217942903D03*
%TD*%
D13*
%TO.C,KF6*%
X393808535Y-231382303D03*
D14*
X395078535Y-228842303D03*
D15*
X398888535Y-231382303D03*
D14*
X401428535Y-226302303D03*
D13*
X403968535Y-231382303D03*
%TD*%
%TO.C,KB1*%
X175496285Y-155182303D03*
D14*
X176766285Y-152642303D03*
D15*
X180576285Y-155182303D03*
D14*
X183116285Y-150102303D03*
D13*
X185656285Y-155182303D03*
%TD*%
%TO.C,KD10*%
X370216010Y-195161191D03*
D14*
X370930162Y-192412649D03*
D15*
X375185000Y-194105000D03*
D14*
X376613303Y-188607915D03*
D13*
X380153990Y-193048809D03*
%TD*%
%TO.C,KF1*%
X185021335Y-231382303D03*
D14*
X186291335Y-228842303D03*
D15*
X190101335Y-231382303D03*
D14*
X192641335Y-226302303D03*
D13*
X195181335Y-231382303D03*
%TD*%
D21*
%TO.C,J2*%
X464469785Y-207562903D03*
D22*
X464469785Y-205022903D03*
%TD*%
D13*
%TO.C,KE13*%
X443814785Y-214713503D03*
D14*
X445084785Y-212173503D03*
D15*
X448894785Y-214713503D03*
D14*
X451434785Y-209633503D03*
D13*
X453974785Y-214713503D03*
%TD*%
%TO.C,KE7*%
X311933710Y-227025091D03*
D14*
X312647862Y-224276549D03*
D15*
X316902700Y-225968900D03*
D14*
X318331003Y-220471815D03*
D13*
X321871690Y-224912709D03*
%TD*%
D23*
%TO.C,JUSB1*%
X291501285Y-135569803D03*
X292351285Y-135569803D03*
X293201285Y-135569803D03*
X294051285Y-135569803D03*
X294901285Y-135569803D03*
X295751285Y-135569803D03*
X296601285Y-135569803D03*
X297451285Y-135569803D03*
X297451285Y-134219803D03*
X296601285Y-134219803D03*
X295751285Y-134219803D03*
X294901285Y-134219803D03*
X294051285Y-134219803D03*
X293201285Y-134219803D03*
X292351285Y-134219803D03*
X291501285Y-134219803D03*
D24*
X290151285Y-134589803D03*
X298801285Y-134589803D03*
X298801285Y-131209803D03*
X290151285Y-131209803D03*
%TD*%
%LPD*%
M02*
