%TF.GenerationSoftware,KiCad,Pcbnew,7.0.10*%
%TF.CreationDate,2024-01-30T23:36:57+01:00*%
%TF.ProjectId,middle,6d696464-6c65-42e6-9b69-6361645f7063,rev?*%
%TF.SameCoordinates,Original*%
%TF.FileFunction,Soldermask,Bot*%
%TF.FilePolarity,Negative*%
%FSLAX46Y46*%
G04 Gerber Fmt 4.6, Leading zero omitted, Abs format (unit mm)*
G04 Created by KiCad (PCBNEW 7.0.10) date 2024-01-30 23:36:57*
%MOMM*%
%LPD*%
G01*
G04 APERTURE LIST*
G04 Aperture macros list*
%AMRoundRect*
0 Rectangle with rounded corners*
0 $1 Rounding radius*
0 $2 $3 $4 $5 $6 $7 $8 $9 X,Y pos of 4 corners*
0 Add a 4 corners polygon primitive as box body*
4,1,4,$2,$3,$4,$5,$6,$7,$8,$9,$2,$3,0*
0 Add four circle primitives for the rounded corners*
1,1,$1+$1,$2,$3*
1,1,$1+$1,$4,$5*
1,1,$1+$1,$6,$7*
1,1,$1+$1,$8,$9*
0 Add four rect primitives between the rounded corners*
20,1,$1+$1,$2,$3,$4,$5,0*
20,1,$1+$1,$4,$5,$6,$7,0*
20,1,$1+$1,$6,$7,$8,$9,0*
20,1,$1+$1,$8,$9,$2,$3,0*%
%AMRotRect*
0 Rectangle, with rotation*
0 The origin of the aperture is its center*
0 $1 length*
0 $2 width*
0 $3 Rotation angle, in degrees counterclockwise*
0 Add horizontal line*
21,1,$1,$2,0,0,$3*%
G04 Aperture macros list end*
%ADD10C,1.700000*%
%ADD11C,3.000000*%
%ADD12C,4.100000*%
%ADD13R,2.300000X2.000000*%
%ADD14R,1.700000X0.820000*%
%ADD15RoundRect,0.205000X-0.645000X-0.205000X0.645000X-0.205000X0.645000X0.205000X-0.645000X0.205000X0*%
%ADD16RotRect,1.700000X0.820000X12.000000*%
%ADD17RoundRect,0.205000X-0.588283X-0.334623X0.673527X-0.066417X0.588283X0.334623X-0.673527X0.066417X0*%
%ADD18RotRect,1.700000X0.820000X352.000000*%
%ADD19RoundRect,0.205000X-0.667253X-0.113238X0.610192X-0.292772X0.667253X0.113238X-0.610192X0.292772X0*%
%ADD20RotRect,1.700000X0.820000X8.000000*%
%ADD21RoundRect,0.205000X-0.610192X-0.292772X0.667253X-0.113238X0.610192X0.292772X-0.667253X0.113238X0*%
%ADD22RotRect,1.700000X0.820000X348.000000*%
%ADD23RoundRect,0.205000X-0.673527X-0.066417X0.588283X-0.334623X0.673527X0.066417X-0.588283X0.334623X0*%
%ADD24RotRect,1.700000X0.820000X353.000000*%
%ADD25RoundRect,0.205000X-0.665175X-0.124866X0.615209X-0.282078X0.665175X0.124866X-0.615209X0.282078X0*%
%ADD26RotRect,2.300000X2.000000X168.000000*%
%ADD27RotRect,2.300000X2.000000X192.000000*%
%ADD28RotRect,1.700000X0.820000X4.000000*%
%ADD29RoundRect,0.205000X-0.629129X-0.249494X0.657729X-0.159508X0.629129X0.249494X-0.657729X0.159508X0*%
%ADD30RotRect,2.300000X2.000000X176.000000*%
%ADD31C,3.050000*%
%ADD32C,4.000000*%
%ADD33C,3.800000*%
%ADD34C,1.524000*%
%ADD35C,1.900000*%
%ADD36RotRect,2.300000X2.000000X184.000000*%
%ADD37RotRect,2.300000X2.000000X172.000000*%
%ADD38RotRect,2.300000X2.000000X188.000000*%
%ADD39RotRect,2.300000X2.000000X173.000000*%
%ADD40RotRect,2.300000X2.000000X187.000000*%
%ADD41RotRect,1.700000X0.820000X7.000000*%
%ADD42RoundRect,0.205000X-0.615209X-0.282078X0.665175X-0.124866X0.615209X0.282078X-0.665175X0.124866X0*%
%ADD43R,0.820000X1.700000*%
%ADD44RoundRect,0.205000X-0.205000X0.645000X-0.205000X-0.645000X0.205000X-0.645000X0.205000X0.645000X0*%
%ADD45RotRect,2.300000X2.000000X175.000000*%
%ADD46RotRect,1.700000X0.820000X5.000000*%
%ADD47RoundRect,0.205000X-0.624679X-0.260435X0.660413X-0.148004X0.624679X0.260435X-0.660413X0.148004X0*%
%ADD48RotRect,2.300000X2.000000X185.000000*%
%ADD49RotRect,1.700000X0.820000X356.000000*%
%ADD50RoundRect,0.205000X-0.657729X-0.159508X0.629129X-0.249494X0.657729X0.159508X-0.629129X0.249494X0*%
%ADD51RotRect,1.700000X0.820000X355.000000*%
%ADD52RoundRect,0.205000X-0.660413X-0.148004X0.624679X-0.260435X0.660413X0.148004X-0.624679X0.260435X0*%
%ADD53R,1.700000X1.700000*%
%ADD54O,1.700000X1.700000*%
%ADD55RoundRect,0.225000X0.225000X0.375000X-0.225000X0.375000X-0.225000X-0.375000X0.225000X-0.375000X0*%
%ADD56RoundRect,0.225000X0.142116X0.413585X-0.298050X0.320025X-0.142116X-0.413585X0.298050X-0.320025X0*%
%ADD57RoundRect,0.225000X0.375000X-0.225000X0.375000X0.225000X-0.375000X0.225000X-0.375000X-0.225000X0*%
%ADD58RoundRect,0.225000X0.298050X0.320025X-0.142116X0.413585X-0.298050X-0.320025X0.142116X-0.413585X0*%
%ADD59RoundRect,0.150000X0.150000X-0.587500X0.150000X0.587500X-0.150000X0.587500X-0.150000X-0.587500X0*%
%ADD60RoundRect,0.140000X0.170000X-0.140000X0.170000X0.140000X-0.170000X0.140000X-0.170000X-0.140000X0*%
%ADD61RoundRect,0.140000X-0.140000X-0.170000X0.140000X-0.170000X0.140000X0.170000X-0.140000X0.170000X0*%
%ADD62RoundRect,0.135000X-0.185000X0.135000X-0.185000X-0.135000X0.185000X-0.135000X0.185000X0.135000X0*%
%ADD63RoundRect,0.250000X-0.625000X0.375000X-0.625000X-0.375000X0.625000X-0.375000X0.625000X0.375000X0*%
%ADD64RoundRect,0.135000X0.185000X-0.135000X0.185000X0.135000X-0.185000X0.135000X-0.185000X-0.135000X0*%
%ADD65RoundRect,0.225000X0.250611X0.358391X-0.198293X0.389782X-0.250611X-0.358391X0.198293X-0.389782X0*%
%ADD66RoundRect,0.140000X-0.170000X0.140000X-0.170000X-0.140000X0.170000X-0.140000X0.170000X0.140000X0*%
%ADD67RoundRect,0.150000X0.150000X-0.512500X0.150000X0.512500X-0.150000X0.512500X-0.150000X-0.512500X0*%
%ADD68RoundRect,0.140000X0.140000X0.170000X-0.140000X0.170000X-0.140000X-0.170000X0.140000X-0.170000X0*%
%ADD69RoundRect,0.225000X0.256827X0.353963X-0.191460X0.393183X-0.256827X-0.353963X0.191460X-0.393183X0*%
%ADD70RoundRect,0.225000X0.269024X0.344784X-0.177622X0.399625X-0.269024X-0.344784X0.177622X-0.399625X0*%
%ADD71RoundRect,0.225000X0.170620X0.402664X-0.275000X0.340037X-0.170620X-0.402664X0.275000X-0.340037X0*%
%ADD72RoundRect,0.050000X0.387500X0.050000X-0.387500X0.050000X-0.387500X-0.050000X0.387500X-0.050000X0*%
%ADD73RoundRect,0.050000X0.050000X0.387500X-0.050000X0.387500X-0.050000X-0.387500X0.050000X-0.387500X0*%
%ADD74RoundRect,0.144000X1.456000X1.456000X-1.456000X1.456000X-1.456000X-1.456000X1.456000X-1.456000X0*%
%ADD75RoundRect,0.225000X0.198293X0.389782X-0.250611X0.358391X-0.198293X-0.389782X0.250611X-0.358391X0*%
%ADD76R,1.400000X1.200000*%
%ADD77RoundRect,0.150000X0.650000X0.150000X-0.650000X0.150000X-0.650000X-0.150000X0.650000X-0.150000X0*%
%ADD78RoundRect,0.225000X0.275000X0.340037X-0.170620X0.402664X-0.275000X-0.340037X0.170620X-0.402664X0*%
%ADD79RoundRect,0.225000X0.191460X0.393183X-0.256827X0.353963X-0.191460X-0.393183X0.256827X-0.353963X0*%
%ADD80RoundRect,0.225000X0.177622X0.399625X-0.269024X0.344784X-0.177622X-0.399625X0.269024X-0.344784X0*%
%ADD81C,0.650000*%
%ADD82O,1.108000X2.216000*%
G04 APERTURE END LIST*
D10*
%TO.C,KD1*%
X187402585Y-193282303D03*
D11*
X188672585Y-190742303D03*
D12*
X192482585Y-193282303D03*
D11*
X195022585Y-188202303D03*
D10*
X197562585Y-193282303D03*
D13*
X185482585Y-190702303D03*
X198182585Y-188162303D03*
%TD*%
D14*
%TO.C,RGBF7*%
X427295000Y-238015000D03*
X427295000Y-239515000D03*
D15*
X432395000Y-239515000D03*
D14*
X432395000Y-238015000D03*
%TD*%
D10*
%TO.C,KB11*%
X384283485Y-152801003D03*
D11*
X385553485Y-150261003D03*
D12*
X389363485Y-152801003D03*
D11*
X391903485Y-147721003D03*
D10*
X394443485Y-152801003D03*
D13*
X382363485Y-150221003D03*
X395063485Y-147681003D03*
%TD*%
D16*
%TO.C,RGBE8*%
X333924790Y-226701564D03*
X334236657Y-228168786D03*
D17*
X339225210Y-227108436D03*
D16*
X338913343Y-225641214D03*
%TD*%
D18*
%TO.C,RGBA3*%
X220129863Y-137968852D03*
X219921104Y-139454254D03*
D19*
X224971471Y-140164036D03*
D18*
X225180230Y-138678634D03*
%TD*%
D16*
%TO.C,RGBC6*%
X320056447Y-190695350D03*
X320368314Y-192162572D03*
D17*
X325356867Y-191102222D03*
D16*
X325045000Y-189635000D03*
%TD*%
D14*
%TO.C,RGBF1*%
X187555000Y-235625000D03*
X187555000Y-237125000D03*
D15*
X192655000Y-237125000D03*
D14*
X192655000Y-235625000D03*
%TD*%
D10*
%TO.C,KD11*%
X391427285Y-193282303D03*
D11*
X392697285Y-190742303D03*
D12*
X396507285Y-193282303D03*
D11*
X399047285Y-188202303D03*
D10*
X401587285Y-193282303D03*
D13*
X389507285Y-190702303D03*
X402207285Y-188162303D03*
%TD*%
D14*
%TO.C,RGBD11*%
X393955000Y-197535000D03*
X393955000Y-199035000D03*
D15*
X399055000Y-199035000D03*
D14*
X399055000Y-197535000D03*
%TD*%
D20*
%TO.C,RGBA10*%
X363815437Y-138677190D03*
X364024196Y-140162592D03*
D21*
X369074563Y-139452810D03*
D20*
X368865804Y-137967408D03*
%TD*%
D10*
%TO.C,KC12*%
X431908485Y-174232303D03*
D11*
X433178485Y-171692303D03*
D12*
X436988485Y-174232303D03*
D11*
X439528485Y-169152303D03*
D10*
X442068485Y-174232303D03*
D13*
X429988485Y-171652303D03*
X442688485Y-169112303D03*
%TD*%
D22*
%TO.C,RGBF3*%
X250776447Y-245254650D03*
X250464580Y-246721872D03*
D23*
X255453133Y-247782222D03*
D22*
X255765000Y-246315000D03*
%TD*%
D24*
%TO.C,RGBA5*%
X261095409Y-145219824D03*
X260912605Y-146708643D03*
D25*
X265974591Y-147330176D03*
D24*
X266157395Y-145841357D03*
%TD*%
D10*
%TO.C,KC4*%
X243721892Y-180988526D03*
D11*
X245492235Y-178768079D03*
D12*
X248690882Y-182044718D03*
D11*
X252231568Y-177603824D03*
D10*
X253659872Y-183100909D03*
D26*
X242380261Y-178065715D03*
X255330831Y-178221699D03*
%TD*%
D10*
%TO.C,KB10*%
X363403810Y-157657991D03*
D11*
X364117962Y-154909449D03*
D12*
X368372800Y-156601800D03*
D11*
X369801103Y-151104715D03*
D10*
X373341790Y-155545609D03*
D27*
X360989354Y-155533561D03*
X372883733Y-150408588D03*
%TD*%
D10*
%TO.C,KE3*%
X229850692Y-216991226D03*
D11*
X231621035Y-214770779D03*
D12*
X234819682Y-218047418D03*
D11*
X238360368Y-213606524D03*
D10*
X239788672Y-219103609D03*
D26*
X228509061Y-214068415D03*
X241459631Y-214224399D03*
%TD*%
D14*
%TO.C,RGBF10*%
X446345000Y-135615000D03*
X446345000Y-137115000D03*
D15*
X451445000Y-137115000D03*
D14*
X451445000Y-135615000D03*
%TD*%
D28*
%TO.C,RGBA11*%
X383598894Y-136474706D03*
X383703529Y-137971052D03*
D29*
X388791106Y-137615294D03*
D28*
X388686471Y-136118948D03*
%TD*%
D16*
%TO.C,RGBB8*%
X329496447Y-169205350D03*
X329808314Y-170672572D03*
D17*
X334796867Y-169612222D03*
D16*
X334485000Y-168145000D03*
%TD*%
D10*
%TO.C,KB9*%
X344770110Y-161618691D03*
D11*
X345484262Y-158870149D03*
D12*
X349739100Y-160562500D03*
D11*
X351167403Y-155065415D03*
D10*
X354708090Y-159506309D03*
D27*
X342355654Y-159494261D03*
X354250033Y-154369288D03*
%TD*%
D16*
%TO.C,RGBA9*%
X344236447Y-142225349D03*
X344548314Y-143692571D03*
D17*
X349536867Y-142632221D03*
D16*
X349225000Y-141164999D03*
%TD*%
D10*
%TO.C,KC1*%
X185021285Y-174232303D03*
D11*
X186291285Y-171692303D03*
D12*
X190101285Y-174232303D03*
D11*
X192641285Y-169152303D03*
D10*
X195181285Y-174232303D03*
D13*
X183101285Y-171652303D03*
X195801285Y-169112303D03*
%TD*%
D10*
%TO.C,KA2*%
X198081127Y-131703068D03*
D11*
X199525215Y-129257846D03*
D12*
X203148752Y-132057431D03*
D11*
X206036928Y-127166987D03*
D10*
X208216378Y-132411794D03*
D30*
X196345776Y-128995420D03*
X209192020Y-127347515D03*
%TD*%
D10*
%TO.C,KF8*%
X443814785Y-233763503D03*
D11*
X445084785Y-231223503D03*
D12*
X448894785Y-233763503D03*
D11*
X451434785Y-228683503D03*
D10*
X453974785Y-233763503D03*
D13*
X441894785Y-231183503D03*
X454594785Y-228643503D03*
%TD*%
D14*
%TO.C,RGBB13*%
X434445000Y-159425000D03*
X434445000Y-160925000D03*
D15*
X439545000Y-160925000D03*
D14*
X439545000Y-159425000D03*
%TD*%
D10*
%TO.C,KA9*%
X340872810Y-138594591D03*
D11*
X341586962Y-135846049D03*
D12*
X345841800Y-137538400D03*
D11*
X347270103Y-132041315D03*
D10*
X350810790Y-136482209D03*
D27*
X338458354Y-136470161D03*
X350352733Y-131345188D03*
%TD*%
D10*
%TO.C,KA12*%
X400952285Y-131369803D03*
D11*
X402222285Y-128829803D03*
D12*
X406032285Y-131369803D03*
D11*
X408572285Y-126289803D03*
D10*
X411112285Y-131369803D03*
D13*
X399032285Y-128789803D03*
X411732285Y-126249803D03*
%TD*%
D10*
%TO.C,KE8*%
X330567410Y-223064391D03*
D11*
X331281562Y-220315849D03*
D12*
X335536400Y-222008200D03*
D11*
X336964703Y-216511115D03*
D10*
X340505390Y-220952009D03*
D27*
X328152954Y-220939961D03*
X340047333Y-215814988D03*
%TD*%
D10*
%TO.C,KF0*%
X161208835Y-231382303D03*
D11*
X162478835Y-228842303D03*
D12*
X166288835Y-231382303D03*
D11*
X168828835Y-226302303D03*
D10*
X171368835Y-231382303D03*
D13*
X159288835Y-228802303D03*
X171988835Y-226262303D03*
%TD*%
D31*
%TO.C,KD13*%
X434613535Y-186282303D03*
D32*
X434613535Y-201522303D03*
D10*
X441433535Y-193282303D03*
D11*
X442703535Y-190742303D03*
D12*
X446513535Y-193282303D03*
D11*
X449053535Y-188202303D03*
D10*
X451593535Y-193282303D03*
D31*
X458413535Y-186282303D03*
D32*
X458413535Y-201522303D03*
D13*
X439513535Y-190702303D03*
X452213535Y-188162303D03*
%TD*%
D16*
%TO.C,RGBB10*%
X366766447Y-161285350D03*
X367078314Y-162752572D03*
D17*
X372066867Y-161692222D03*
D16*
X371755000Y-160225000D03*
%TD*%
D10*
%TO.C,KC11*%
X412858485Y-174232303D03*
D11*
X414128485Y-171692303D03*
D12*
X417938485Y-174232303D03*
D11*
X420478485Y-169152303D03*
D10*
X423018485Y-174232303D03*
D13*
X410938485Y-171652303D03*
X423638485Y-169112303D03*
%TD*%
D14*
%TO.C,RGBC1*%
X187555000Y-178485000D03*
X187555000Y-179985000D03*
D15*
X192655000Y-179985000D03*
D14*
X192655000Y-178485000D03*
%TD*%
D33*
%TO.C,MountTopMiddle6*%
X470866285Y-186384803D03*
%TD*%
D34*
%TO.C,RSW2*%
X144730000Y-133340000D03*
X144730000Y-128340000D03*
D35*
X147230000Y-134340000D03*
X147230000Y-127340000D03*
%TD*%
D10*
%TO.C,KA11*%
X380773388Y-132411833D03*
D11*
X381863113Y-129789430D03*
D12*
X385841013Y-132057470D03*
D11*
X388020463Y-126812663D03*
D10*
X390908638Y-131703107D03*
D36*
X378678093Y-129972050D03*
X391169975Y-126552330D03*
%TD*%
D10*
%TO.C,KD9*%
X351582310Y-199121891D03*
D11*
X352296462Y-196373349D03*
D12*
X356551300Y-198065700D03*
D11*
X357979603Y-192568615D03*
D10*
X361520290Y-197009509D03*
D27*
X349167854Y-196997461D03*
X361062233Y-191872488D03*
%TD*%
D10*
%TO.C,KA13*%
X422383485Y-131369803D03*
D11*
X423653485Y-128829803D03*
D12*
X427463485Y-131369803D03*
D11*
X430003485Y-126289803D03*
D10*
X432543485Y-131369803D03*
D13*
X420463485Y-128789803D03*
X433163485Y-126249803D03*
%TD*%
D10*
%TO.C,KD4*%
X246103192Y-200970226D03*
D11*
X247873535Y-198749779D03*
D12*
X251072182Y-202026418D03*
D11*
X254612868Y-197585524D03*
D10*
X256041172Y-203082609D03*
D26*
X244761561Y-198047415D03*
X257712131Y-198203399D03*
%TD*%
D10*
%TO.C,KA3*%
X218213503Y-133410031D03*
D11*
X219824643Y-131071500D03*
D12*
X223244065Y-134117030D03*
D11*
X226466345Y-129439968D03*
D10*
X228274626Y-134824029D03*
D37*
X216671255Y-130587927D03*
X229601159Y-129840144D03*
%TD*%
D32*
%TO.C,KF4*%
X316827121Y-237036464D03*
D31*
X319995695Y-251943434D03*
D10*
X325211280Y-243678443D03*
D11*
X325925432Y-240929900D03*
D12*
X330180270Y-242622251D03*
D11*
X331608573Y-237125166D03*
D10*
X335149259Y-241566060D03*
D32*
X340107034Y-232088166D03*
D31*
X343275608Y-246995136D03*
D27*
X322796824Y-241554012D03*
X334691203Y-236429039D03*
%TD*%
D14*
%TO.C,RGBD12*%
X413005000Y-197515000D03*
X413005000Y-199015000D03*
D15*
X418105000Y-199015000D03*
D14*
X418105000Y-197515000D03*
%TD*%
%TO.C,RGBB1*%
X178025000Y-159415000D03*
X178025000Y-160915000D03*
D15*
X183125000Y-160915000D03*
D14*
X183125000Y-159415000D03*
%TD*%
D10*
%TO.C,KF10*%
X443814785Y-131369803D03*
D11*
X445084785Y-128829803D03*
D12*
X448894785Y-131369803D03*
D11*
X451434785Y-126289803D03*
D10*
X453974785Y-131369803D03*
D13*
X441894785Y-128789803D03*
X454594785Y-126249803D03*
%TD*%
D10*
%TO.C,KB2*%
X194546285Y-152801003D03*
D11*
X195816285Y-150261003D03*
D12*
X199626285Y-152801003D03*
D11*
X202166285Y-147721003D03*
D10*
X204706285Y-152801003D03*
D13*
X192626285Y-150221003D03*
X205326285Y-147681003D03*
%TD*%
D10*
%TO.C,KA10*%
X360715150Y-134823982D03*
D11*
X361619291Y-132131951D03*
D12*
X365745712Y-134116983D03*
D11*
X367553994Y-128732921D03*
D10*
X370776274Y-133409983D03*
D38*
X358454769Y-132536303D03*
X370677674Y-128253523D03*
%TD*%
D14*
%TO.C,RGBB0*%
X158975000Y-159435000D03*
X158975000Y-160935000D03*
D15*
X164075000Y-160935000D03*
D14*
X164075000Y-159435000D03*
%TD*%
D10*
%TO.C,KB0*%
X156446285Y-155182303D03*
D11*
X157716285Y-152642303D03*
D12*
X161526285Y-155182303D03*
D11*
X164066285Y-150102303D03*
D10*
X166606285Y-155182303D03*
D13*
X154526285Y-152602303D03*
X167226285Y-150062303D03*
%TD*%
D10*
%TO.C,KB6*%
X271549092Y-167427726D03*
D11*
X273319435Y-165207279D03*
D12*
X276518082Y-168483918D03*
D11*
X280058768Y-164043024D03*
D10*
X281487072Y-169540109D03*
D26*
X270207461Y-164504915D03*
X283158031Y-164660899D03*
%TD*%
D33*
%TO.C,MountTopMiddle4*%
X384676285Y-224324803D03*
%TD*%
D10*
%TO.C,KA5*%
X259110447Y-140697614D03*
D11*
X260680529Y-138331321D03*
D12*
X264152582Y-141316711D03*
D11*
X267292745Y-136584124D03*
D10*
X269194716Y-141935807D03*
D39*
X257519181Y-137902856D03*
X270434066Y-136929530D03*
%TD*%
D22*
%TO.C,RGBD4*%
X247696447Y-205644650D03*
X247384580Y-207111872D03*
D23*
X252373133Y-208172222D03*
D22*
X252685000Y-206705000D03*
%TD*%
D10*
%TO.C,KB4*%
X234281692Y-159506326D03*
D11*
X236052035Y-157285879D03*
D12*
X239250682Y-160562518D03*
D11*
X242791368Y-156121624D03*
D10*
X244219672Y-161618709D03*
D26*
X232940061Y-156583515D03*
X245890631Y-156739499D03*
%TD*%
D10*
%TO.C,KE6*%
X289414885Y-236144803D03*
D11*
X290684885Y-233604803D03*
D12*
X294494885Y-236144803D03*
D11*
X297034885Y-231064803D03*
D10*
X299574885Y-236144803D03*
D13*
X287494885Y-233564803D03*
X300194885Y-231024803D03*
%TD*%
D10*
%TO.C,KC7*%
X335329910Y-183100891D03*
D11*
X336044062Y-180352349D03*
D12*
X340298900Y-182044700D03*
D11*
X341727203Y-176547615D03*
D10*
X345267890Y-180988509D03*
D27*
X332915454Y-180976461D03*
X344809833Y-175851488D03*
%TD*%
D10*
%TO.C,KC6*%
X316696210Y-187061591D03*
D11*
X317410362Y-184313049D03*
D12*
X321665200Y-186005400D03*
D11*
X323093503Y-180508315D03*
D10*
X326634190Y-184949209D03*
D27*
X314281754Y-184937161D03*
X326176133Y-179812188D03*
%TD*%
D22*
%TO.C,RGBE5*%
X268706447Y-229604650D03*
X268394580Y-231071872D03*
D23*
X273383133Y-232132222D03*
D22*
X273695000Y-230665000D03*
%TD*%
D10*
%TO.C,KE11*%
X389045985Y-212332303D03*
D11*
X390315985Y-209792303D03*
D12*
X394125985Y-212332303D03*
D11*
X396665985Y-207252303D03*
D10*
X399205985Y-212332303D03*
D13*
X387125985Y-209752303D03*
X399825985Y-207212303D03*
%TD*%
D14*
%TO.C,RGBF6*%
X396345000Y-235635000D03*
X396345000Y-237135000D03*
D15*
X401445000Y-237135000D03*
D14*
X401445000Y-235635000D03*
%TD*%
D10*
%TO.C,KA8*%
X319795058Y-141935796D03*
D11*
X320746044Y-139259955D03*
D12*
X324837193Y-141316700D03*
D11*
X326739164Y-135965017D03*
D10*
X329879327Y-140697603D03*
D40*
X317574947Y-139609016D03*
X329870735Y-135540208D03*
%TD*%
D16*
%TO.C,RGBD7*%
X317676447Y-210675350D03*
X317988314Y-212142572D03*
D17*
X322976867Y-211082222D03*
D16*
X322665000Y-209615000D03*
%TD*%
D22*
%TO.C,RGBB6*%
X273136657Y-172111214D03*
X272824790Y-173578436D03*
D23*
X277813343Y-174638786D03*
D22*
X278125210Y-173171564D03*
%TD*%
D10*
%TO.C,KE4*%
X248484392Y-220952026D03*
D11*
X250254735Y-218731579D03*
D12*
X253453382Y-222008218D03*
D11*
X256994068Y-217567324D03*
D10*
X258422372Y-223064409D03*
D26*
X247142761Y-218029215D03*
X260093331Y-218185199D03*
%TD*%
D10*
%TO.C,KF11*%
X462864785Y-131369803D03*
D11*
X464134785Y-128829803D03*
D12*
X467944785Y-131369803D03*
D11*
X470484785Y-126289803D03*
D10*
X473024785Y-131369803D03*
D13*
X460944785Y-128789803D03*
X473644785Y-126249803D03*
%TD*%
D10*
%TO.C,KC3*%
X225088192Y-177027826D03*
D11*
X226858535Y-174807379D03*
D12*
X230057182Y-178084018D03*
D11*
X233597868Y-173643124D03*
D10*
X235026172Y-179140209D03*
D26*
X223746561Y-174105015D03*
X236697131Y-174260999D03*
%TD*%
D10*
%TO.C,KB3*%
X215647992Y-155545626D03*
D11*
X217418335Y-153325179D03*
D12*
X220616982Y-156601818D03*
D11*
X224157668Y-152160924D03*
D10*
X225585972Y-157658009D03*
D26*
X214306361Y-152622815D03*
X227256931Y-152778799D03*
%TD*%
D14*
%TO.C,RGBF11*%
X465395000Y-135625000D03*
X465395000Y-137125000D03*
D15*
X470495000Y-137125000D03*
D14*
X470495000Y-135625000D03*
%TD*%
D10*
%TO.C,KD7*%
X314314910Y-207043391D03*
D11*
X315029062Y-204294849D03*
D12*
X319283900Y-205987200D03*
D11*
X320712203Y-200490115D03*
D10*
X324252890Y-204931009D03*
D27*
X311900454Y-204918961D03*
X323794833Y-199793988D03*
%TD*%
D33*
%TO.C,MountTopMiddle1*%
X172256285Y-143174803D03*
%TD*%
D14*
%TO.C,RGBF8*%
X446345000Y-238005000D03*
X446345000Y-239505000D03*
D15*
X451445000Y-239505000D03*
D14*
X451445000Y-238005000D03*
%TD*%
D22*
%TO.C,RGBE3*%
X231436657Y-221671214D03*
X231124790Y-223138436D03*
D23*
X236113343Y-224198786D03*
D22*
X236425210Y-222731564D03*
%TD*%
D14*
%TO.C,RGBD1*%
X189935000Y-197535000D03*
X189935000Y-199035000D03*
D15*
X195035000Y-199035000D03*
D14*
X195035000Y-197535000D03*
%TD*%
D16*
%TO.C,RGBF5*%
X370496447Y-238395350D03*
X370808314Y-239862572D03*
D17*
X375796867Y-238802222D03*
D16*
X375485000Y-237335000D03*
%TD*%
D14*
%TO.C,RGBB11*%
X386815000Y-157055000D03*
X386815000Y-158555000D03*
D15*
X391915000Y-158555000D03*
D14*
X391915000Y-157055000D03*
%TD*%
%TO.C,RGBE11*%
X391575000Y-216585000D03*
X391575000Y-218085000D03*
D15*
X396675000Y-218085000D03*
D14*
X396675000Y-216585000D03*
%TD*%
D34*
%TO.C,RSW1*%
X144730000Y-143340003D03*
X144730000Y-138340003D03*
D35*
X147230000Y-144340003D03*
X147230000Y-137340003D03*
%TD*%
D16*
%TO.C,RGBB7*%
X310866447Y-173175350D03*
X311178314Y-174642572D03*
D17*
X316166867Y-173582222D03*
D16*
X315855000Y-172115000D03*
%TD*%
D10*
%TO.C,KD2*%
X208835792Y-193048826D03*
D11*
X210606135Y-190828379D03*
D12*
X213804782Y-194105018D03*
D11*
X217345468Y-189664124D03*
D10*
X218773772Y-195161209D03*
D26*
X207494161Y-190126015D03*
X220444731Y-190281999D03*
%TD*%
D10*
%TO.C,KD6*%
X289414885Y-217094803D03*
D11*
X290684885Y-214554803D03*
D12*
X294494885Y-217094803D03*
D11*
X297034885Y-212014803D03*
D10*
X299574885Y-217094803D03*
D13*
X287494885Y-214514803D03*
X300194885Y-211974803D03*
%TD*%
D10*
%TO.C,KF7*%
X424764785Y-233763503D03*
D11*
X426034785Y-231223503D03*
D12*
X429844785Y-233763503D03*
D11*
X432384785Y-228683503D03*
D10*
X434924785Y-233763503D03*
D13*
X422844785Y-231183503D03*
X435544785Y-228643503D03*
%TD*%
D14*
%TO.C,RGBE12*%
X417775000Y-216585000D03*
X417775000Y-218085000D03*
D15*
X422875000Y-218085000D03*
D14*
X422875000Y-216585000D03*
%TD*%
%TO.C,RGBA13*%
X424915000Y-135615000D03*
X424915000Y-137115000D03*
D15*
X430015000Y-137115000D03*
D14*
X430015000Y-135615000D03*
%TD*%
D16*
%TO.C,RGBB9*%
X348134790Y-165251564D03*
X348446657Y-166718786D03*
D17*
X353435210Y-165658436D03*
D16*
X353123343Y-164191214D03*
%TD*%
D14*
%TO.C,RGBE13*%
X446345000Y-218965000D03*
X446345000Y-220465000D03*
D15*
X451445000Y-220465000D03*
D14*
X451445000Y-218965000D03*
%TD*%
D10*
%TO.C,KC2*%
X206454492Y-173067026D03*
D11*
X208224835Y-170846579D03*
D12*
X211423482Y-174123218D03*
D11*
X214964168Y-169682324D03*
D10*
X216392472Y-175179409D03*
D26*
X205112861Y-170144215D03*
X218063431Y-170300199D03*
%TD*%
D33*
%TO.C,MountTopMiddle3*%
X294475000Y-181015000D03*
%TD*%
D10*
%TO.C,KE12*%
X415239735Y-212332303D03*
D11*
X416509735Y-209792303D03*
D12*
X420319735Y-212332303D03*
D11*
X422859735Y-207252303D03*
D10*
X425399735Y-212332303D03*
D13*
X413319735Y-209752303D03*
X426019735Y-207212303D03*
%TD*%
D10*
%TO.C,KC13*%
X455720985Y-174232303D03*
D11*
X456990985Y-171692303D03*
D12*
X460800985Y-174232303D03*
D11*
X463340985Y-169152303D03*
D10*
X465880985Y-174232303D03*
D13*
X453800985Y-171652303D03*
X466500985Y-169112303D03*
%TD*%
D14*
%TO.C,RGBC10*%
X396335000Y-178475000D03*
X396335000Y-179975000D03*
D15*
X401435000Y-179975000D03*
D14*
X401435000Y-178475000D03*
%TD*%
D16*
%TO.C,RGBF4*%
X328566447Y-247305350D03*
X328878314Y-248772572D03*
D17*
X333866867Y-247712222D03*
D16*
X333555000Y-246245000D03*
%TD*%
%TO.C,RGBD9*%
X354936447Y-202745350D03*
X355248314Y-204212572D03*
D17*
X360236867Y-203152222D03*
D16*
X359925000Y-201685000D03*
%TD*%
D10*
%TO.C,KE5*%
X267118192Y-224912726D03*
D11*
X268888535Y-222692279D03*
D12*
X272087182Y-225968918D03*
D11*
X275627868Y-221528024D03*
D10*
X277056172Y-227025109D03*
D26*
X265776561Y-221989915D03*
X278727131Y-222145899D03*
%TD*%
D14*
%TO.C,RGBC0*%
X163735000Y-178485000D03*
X163735000Y-179985000D03*
D15*
X168835000Y-179985000D03*
D14*
X168835000Y-178485000D03*
%TD*%
%TO.C,RGBC11*%
X415395000Y-178485000D03*
X415395000Y-179985000D03*
D15*
X420495000Y-179985000D03*
D14*
X420495000Y-178485000D03*
%TD*%
D41*
%TO.C,RGBA8*%
X322822605Y-145841357D03*
X323005409Y-147330176D03*
D42*
X328067395Y-146708643D03*
D41*
X327884591Y-145219824D03*
%TD*%
D10*
%TO.C,KC5*%
X262355692Y-184949226D03*
D11*
X264126035Y-182728779D03*
D12*
X267324682Y-186005418D03*
D11*
X270865368Y-181564524D03*
D10*
X272293672Y-187061609D03*
D26*
X261014061Y-182026415D03*
X273964631Y-182182399D03*
%TD*%
D10*
%TO.C,KC8*%
X353963610Y-179140191D03*
D11*
X354677762Y-176391649D03*
D12*
X358932600Y-178084000D03*
D11*
X360360903Y-172586915D03*
D10*
X363901590Y-177027809D03*
D27*
X351549154Y-177015761D03*
X363443533Y-171890788D03*
%TD*%
D10*
%TO.C,KA4*%
X238178992Y-136482226D03*
D11*
X239949335Y-134261779D03*
D12*
X243147982Y-137538418D03*
D11*
X246688668Y-133097524D03*
D10*
X248116972Y-138594609D03*
D26*
X236837361Y-133559415D03*
X249787931Y-133715399D03*
%TD*%
D43*
%TO.C,RGBI0*%
X149190000Y-171682303D03*
X147690000Y-171682303D03*
D44*
X147690000Y-176782303D03*
D43*
X149190000Y-176782303D03*
%TD*%
%TO.C,RGBI2*%
X147690000Y-147710000D03*
X146190000Y-147710000D03*
D44*
X146190000Y-152810000D03*
D43*
X147690000Y-152810000D03*
%TD*%
D14*
%TO.C,RGBA1*%
X180405000Y-135615000D03*
X180405000Y-137115000D03*
D15*
X185505000Y-137115000D03*
D14*
X185505000Y-135615000D03*
%TD*%
%TO.C,RGBC13*%
X458255000Y-178475000D03*
X458255000Y-179975000D03*
D15*
X463355000Y-179975000D03*
D14*
X463355000Y-178475000D03*
%TD*%
D16*
%TO.C,RGBD10*%
X373576447Y-198785350D03*
X373888314Y-200252572D03*
D17*
X378876867Y-199192222D03*
D16*
X378565000Y-197725000D03*
%TD*%
D10*
%TO.C,KD0*%
X161208835Y-193282303D03*
D11*
X162478835Y-190742303D03*
D12*
X166288835Y-193282303D03*
D11*
X168828835Y-188202303D03*
D10*
X171368835Y-193282303D03*
D13*
X159288835Y-190702303D03*
X171988835Y-188162303D03*
%TD*%
D10*
%TO.C,KA6*%
X278865312Y-142899665D03*
D11*
X280351855Y-140480018D03*
D12*
X283925981Y-143342416D03*
D11*
X286899067Y-138503122D03*
D10*
X288986650Y-143785167D03*
D45*
X277177480Y-140162143D03*
X290050528Y-138738687D03*
%TD*%
D14*
%TO.C,RGBF12*%
X463015000Y-159435000D03*
X463015000Y-160935000D03*
D15*
X468115000Y-160935000D03*
D14*
X468115000Y-159435000D03*
%TD*%
D10*
%TO.C,KD12*%
X410477285Y-193282303D03*
D11*
X411747285Y-190742303D03*
D12*
X415557285Y-193282303D03*
D11*
X418097285Y-188202303D03*
D10*
X420637285Y-193282303D03*
D13*
X408557285Y-190702303D03*
X421257285Y-188162303D03*
%TD*%
D46*
%TO.C,RGBA7*%
X302894407Y-147799493D03*
X303025140Y-149293785D03*
D47*
X308105733Y-148849291D03*
D46*
X307975000Y-147354999D03*
%TD*%
D10*
%TO.C,KB12*%
X403333485Y-155182303D03*
D11*
X404603485Y-152642303D03*
D12*
X408413485Y-155182303D03*
D11*
X410953485Y-150102303D03*
D10*
X413493485Y-155182303D03*
D13*
X401413485Y-152602303D03*
X414113485Y-150062303D03*
%TD*%
D10*
%TO.C,KF2*%
X211914706Y-232654416D03*
D11*
X213685049Y-230433969D03*
D12*
X216883696Y-233710607D03*
D11*
X220424382Y-229269713D03*
D10*
X221852686Y-234766799D03*
D26*
X210573075Y-229731605D03*
X223523645Y-229887588D03*
%TD*%
D34*
%TO.C,J3*%
X145455004Y-186690001D03*
X145455004Y-184190001D03*
X145455004Y-181690001D03*
%TD*%
D10*
%TO.C,KA0*%
X156446285Y-131369803D03*
D11*
X157716285Y-128829803D03*
D12*
X161526285Y-131369803D03*
D11*
X164066285Y-126289803D03*
D10*
X166606285Y-131369803D03*
D13*
X154526285Y-128789803D03*
X167226285Y-126249803D03*
%TD*%
D10*
%TO.C,KF12*%
X460483485Y-155182303D03*
D11*
X461753485Y-152642303D03*
D12*
X465563485Y-155182303D03*
D11*
X468103485Y-150102303D03*
D10*
X470643485Y-155182303D03*
D13*
X458563485Y-152602303D03*
X471263485Y-150062303D03*
%TD*%
D16*
%TO.C,RGBE9*%
X352554790Y-222731564D03*
X352866657Y-224198786D03*
D17*
X357855210Y-223138436D03*
D16*
X357543343Y-221671214D03*
%TD*%
D10*
%TO.C,KB7*%
X307502710Y-169540191D03*
D11*
X308216862Y-166791649D03*
D12*
X312471700Y-168484000D03*
D11*
X313900003Y-162986915D03*
D10*
X317440690Y-167427809D03*
D27*
X305088254Y-167415761D03*
X316982633Y-162290788D03*
%TD*%
D31*
%TO.C,KE0*%
X152007535Y-205332303D03*
D32*
X152007535Y-220572303D03*
D10*
X158827535Y-212332303D03*
D11*
X160097535Y-209792303D03*
D12*
X163907535Y-212332303D03*
D11*
X166447535Y-207252303D03*
D10*
X168987535Y-212332303D03*
D31*
X175807535Y-205332303D03*
D32*
X175807535Y-220572303D03*
D13*
X156907535Y-209752303D03*
X169607535Y-207212303D03*
%TD*%
D10*
%TO.C,KB8*%
X326136410Y-165579391D03*
D11*
X326850562Y-162830849D03*
D12*
X331105400Y-164523200D03*
D11*
X332533703Y-159026115D03*
D10*
X336074390Y-163467009D03*
D27*
X323721954Y-163454961D03*
X335616333Y-158329988D03*
%TD*%
D14*
%TO.C,RGBE1*%
X192325000Y-216585000D03*
X192325000Y-218085000D03*
D15*
X197425000Y-218085000D03*
D14*
X197425000Y-216585000D03*
%TD*%
D10*
%TO.C,KC9*%
X372597310Y-175179491D03*
D11*
X373311462Y-172430949D03*
D12*
X377566300Y-174123300D03*
D11*
X378994603Y-168626215D03*
D10*
X382535290Y-173067109D03*
D27*
X370182854Y-173055061D03*
X382077233Y-167930088D03*
%TD*%
D22*
%TO.C,RGBC2*%
X208046657Y-177751214D03*
X207734790Y-179218436D03*
D23*
X212723343Y-180278786D03*
D22*
X213035210Y-178811564D03*
%TD*%
D31*
%TO.C,KB13*%
X425088485Y-148182303D03*
D32*
X425088485Y-163422303D03*
D10*
X431908485Y-155182303D03*
D11*
X433178485Y-152642303D03*
D12*
X436988485Y-155182303D03*
D11*
X439528485Y-150102303D03*
D10*
X442068485Y-155182303D03*
D31*
X448888485Y-148182303D03*
D32*
X448888485Y-163422303D03*
D13*
X429988485Y-152602303D03*
X442688485Y-150062303D03*
%TD*%
D10*
%TO.C,KB5*%
X252915392Y-163467026D03*
D11*
X254685735Y-161246579D03*
D12*
X257884382Y-164523218D03*
D11*
X261425068Y-160082324D03*
D10*
X262853372Y-165579409D03*
D26*
X251573761Y-160544215D03*
X264524331Y-160700199D03*
%TD*%
D10*
%TO.C,KE1*%
X189783785Y-212332303D03*
D11*
X191053785Y-209792303D03*
D12*
X194863785Y-212332303D03*
D11*
X197403785Y-207252303D03*
D10*
X199943785Y-212332303D03*
D13*
X187863785Y-209752303D03*
X200563785Y-207212303D03*
%TD*%
D22*
%TO.C,RGBC5*%
X263946657Y-189631214D03*
X263634790Y-191098436D03*
D23*
X268623343Y-192158786D03*
D22*
X268935210Y-190691564D03*
%TD*%
D10*
%TO.C,KC0*%
X161208785Y-174232303D03*
D11*
X162478785Y-171692303D03*
D12*
X166288785Y-174232303D03*
D11*
X168828785Y-169152303D03*
D10*
X171368785Y-174232303D03*
D13*
X159288785Y-171652303D03*
X171988785Y-169112303D03*
%TD*%
D10*
%TO.C,KA7*%
X300003129Y-143785150D03*
D11*
X301046921Y-141144128D03*
D12*
X305063798Y-143342399D03*
D11*
X307151381Y-138060354D03*
D10*
X310124467Y-142899648D03*
D48*
X297865573Y-141382307D03*
X310295870Y-137745094D03*
%TD*%
D16*
%TO.C,RGBD8*%
X336304790Y-206711564D03*
X336616657Y-208178786D03*
D17*
X341605210Y-207118436D03*
D16*
X341293343Y-205651214D03*
%TD*%
D32*
%TO.C,KF3*%
X244223480Y-231102362D03*
D31*
X241054906Y-246009331D03*
D10*
X249182190Y-240575854D03*
D11*
X250952533Y-238355407D03*
D12*
X254151180Y-241632046D03*
D11*
X257691866Y-237191152D03*
D10*
X259120170Y-242688237D03*
D32*
X267503393Y-236050660D03*
D31*
X264334819Y-250957630D03*
D26*
X247840559Y-237653043D03*
X260791129Y-237809027D03*
%TD*%
D22*
%TO.C,RGBB3*%
X217236657Y-160221214D03*
X216924790Y-161688436D03*
D23*
X221913343Y-162748786D03*
D22*
X222225210Y-161281564D03*
%TD*%
D14*
%TO.C,RGBF0*%
X163745000Y-235615000D03*
X163745000Y-237115000D03*
D15*
X168845000Y-237115000D03*
D14*
X168845000Y-235615000D03*
%TD*%
%TO.C,RGBA0*%
X158965000Y-135615000D03*
X158965000Y-137115000D03*
D15*
X164065000Y-137115000D03*
D14*
X164065000Y-135615000D03*
%TD*%
D33*
%TO.C,MountTopMiddle5*%
X416676285Y-143254803D03*
%TD*%
D10*
%TO.C,KF9*%
X462864785Y-233763503D03*
D11*
X464134785Y-231223503D03*
D12*
X467944785Y-233763503D03*
D11*
X470484785Y-228683503D03*
D10*
X473024785Y-233763503D03*
D13*
X460944785Y-231183503D03*
X473644785Y-228643503D03*
%TD*%
D14*
%TO.C,RGBE0*%
X161355000Y-216585000D03*
X161355000Y-218085000D03*
D15*
X166455000Y-218085000D03*
D14*
X166455000Y-216585000D03*
%TD*%
D22*
%TO.C,RGBC3*%
X226676447Y-181714650D03*
X226364580Y-183181872D03*
D23*
X231353133Y-184242222D03*
D22*
X231665000Y-182775000D03*
%TD*%
D10*
%TO.C,KD3*%
X227469492Y-197009526D03*
D11*
X229239835Y-194789079D03*
D12*
X232438482Y-198065718D03*
D11*
X235979168Y-193624824D03*
D10*
X237407472Y-199121909D03*
D26*
X226127861Y-194086715D03*
X239078431Y-194242699D03*
%TD*%
D10*
%TO.C,KE2*%
X211216992Y-213030526D03*
D11*
X212987335Y-210810079D03*
D12*
X216185982Y-214086718D03*
D11*
X219726668Y-209645824D03*
D10*
X221154972Y-215142909D03*
D26*
X209875361Y-210107715D03*
X222825931Y-210263699D03*
%TD*%
D10*
%TO.C,KF5*%
X367137124Y-234766802D03*
D11*
X367851276Y-232018259D03*
D12*
X372106114Y-233710610D03*
D11*
X373534417Y-228213525D03*
D10*
X377075104Y-232654419D03*
D27*
X364722668Y-232642371D03*
X376617047Y-227517398D03*
%TD*%
D22*
%TO.C,RGBE4*%
X250076657Y-225631214D03*
X249764790Y-227098436D03*
D23*
X254753343Y-228158786D03*
D22*
X255065210Y-226691564D03*
%TD*%
D10*
%TO.C,KD8*%
X332948610Y-203082591D03*
D11*
X333662762Y-200334049D03*
D12*
X337917600Y-202026400D03*
D11*
X339345903Y-196529315D03*
D10*
X342886590Y-200970209D03*
D27*
X330534154Y-200958161D03*
X342428533Y-195833188D03*
%TD*%
D10*
%TO.C,KD5*%
X264736892Y-204930926D03*
D11*
X266507235Y-202710479D03*
D12*
X269705882Y-205987118D03*
D11*
X273246568Y-201546224D03*
D10*
X274674872Y-207043309D03*
D26*
X263395261Y-202008115D03*
X276345831Y-202164099D03*
%TD*%
D14*
%TO.C,RGBC12*%
X434445000Y-178485000D03*
X434445000Y-179985000D03*
D15*
X439545000Y-179985000D03*
D14*
X439545000Y-178485000D03*
%TD*%
%TO.C,RGBF9*%
X465395000Y-238015000D03*
X465395000Y-239515000D03*
D15*
X470495000Y-239515000D03*
D14*
X470495000Y-238015000D03*
%TD*%
%TO.C,RGBD0*%
X163735000Y-197535000D03*
X163735000Y-199035000D03*
D15*
X168835000Y-199035000D03*
D14*
X168835000Y-197535000D03*
%TD*%
D16*
%TO.C,RGBC7*%
X338684790Y-186731564D03*
X338996657Y-188198786D03*
D17*
X343985210Y-187138436D03*
D16*
X343673343Y-185671214D03*
%TD*%
%TO.C,RGBE10*%
X371194790Y-218771564D03*
X371506657Y-220238786D03*
D17*
X376495210Y-219178436D03*
D16*
X376183343Y-217711214D03*
%TD*%
D10*
%TO.C,KC10*%
X393808485Y-174232303D03*
D11*
X395078485Y-171692303D03*
D12*
X398888485Y-174232303D03*
D11*
X401428485Y-169152303D03*
D10*
X403968485Y-174232303D03*
D13*
X391888485Y-171652303D03*
X404588485Y-169112303D03*
%TD*%
D14*
%TO.C,RGBA12*%
X403475000Y-135615000D03*
X403475000Y-137115000D03*
D15*
X408575000Y-137115000D03*
D14*
X408575000Y-135615000D03*
%TD*%
D16*
%TO.C,RGBC9*%
X375954790Y-178811564D03*
X376266657Y-180278786D03*
D17*
X381255210Y-179218436D03*
D16*
X380943343Y-177751214D03*
%TD*%
D49*
%TO.C,RGBA2*%
X200293888Y-136109134D03*
X200189253Y-137605480D03*
D50*
X205276830Y-137961238D03*
D49*
X205381465Y-136464892D03*
%TD*%
D22*
%TO.C,RGBB4*%
X235876447Y-164194650D03*
X235564580Y-165661872D03*
D23*
X240553133Y-166722222D03*
D22*
X240865000Y-165255000D03*
%TD*%
D16*
%TO.C,RGBC8*%
X357326447Y-182765350D03*
X357638314Y-184232572D03*
D17*
X362626867Y-183172222D03*
D16*
X362315000Y-181705000D03*
%TD*%
D22*
%TO.C,RGBB5*%
X254506447Y-168154650D03*
X254194580Y-169621872D03*
D23*
X259183133Y-170682222D03*
D22*
X259495000Y-169215000D03*
%TD*%
D14*
%TO.C,RGBB2*%
X197075000Y-157045000D03*
X197075000Y-158545000D03*
D15*
X202175000Y-158545000D03*
D14*
X202175000Y-157045000D03*
%TD*%
D10*
%TO.C,KA1*%
X177877585Y-131369803D03*
D11*
X179147585Y-128829803D03*
D12*
X182957585Y-131369803D03*
D11*
X185497585Y-126289803D03*
D10*
X188037585Y-131369803D03*
D13*
X175957585Y-128789803D03*
X188657585Y-126249803D03*
%TD*%
D33*
%TO.C,MountTopMiddle2*%
X204266285Y-224354803D03*
%TD*%
D22*
%TO.C,RGBF2*%
X213506447Y-237334650D03*
X213194580Y-238801872D03*
D23*
X218183133Y-239862222D03*
D22*
X218495000Y-238395000D03*
%TD*%
D10*
%TO.C,KE9*%
X349201110Y-219103691D03*
D11*
X349915262Y-216355149D03*
D12*
X354170100Y-218047500D03*
D11*
X355598403Y-212550415D03*
D10*
X359139090Y-216991309D03*
D27*
X346786654Y-216979261D03*
X358681033Y-211854288D03*
%TD*%
D16*
%TO.C,RGBE7*%
X315294790Y-230651564D03*
X315606657Y-232118786D03*
D17*
X320595210Y-231058436D03*
D16*
X320283343Y-229591214D03*
%TD*%
D22*
%TO.C,RGBD5*%
X266326447Y-209614650D03*
X266014580Y-211081872D03*
D23*
X271003133Y-212142222D03*
D22*
X271315000Y-210675000D03*
%TD*%
D14*
%TO.C,RGBB12*%
X405875000Y-159435000D03*
X405875000Y-160935000D03*
D15*
X410975000Y-160935000D03*
D14*
X410975000Y-159435000D03*
%TD*%
D51*
%TO.C,RGBA6*%
X281020070Y-147355607D03*
X280889337Y-148849899D03*
D52*
X285969930Y-149294393D03*
D51*
X286100663Y-147800101D03*
%TD*%
D14*
%TO.C,RGBD13*%
X443965000Y-197525000D03*
X443965000Y-199025000D03*
D15*
X449065000Y-199025000D03*
D14*
X449065000Y-197525000D03*
%TD*%
D22*
%TO.C,RGBD2*%
X210436447Y-197734650D03*
X210124580Y-199201872D03*
D23*
X215113133Y-200262222D03*
D22*
X215425000Y-198795000D03*
%TD*%
D14*
%TO.C,RGBE6*%
X291940000Y-240385000D03*
X291940000Y-241885000D03*
D15*
X297040000Y-241885000D03*
D14*
X297040000Y-240385000D03*
%TD*%
%TO.C,RGBD6*%
X291945000Y-221345000D03*
X291945000Y-222845000D03*
D15*
X297045000Y-222845000D03*
D14*
X297045000Y-221345000D03*
%TD*%
D10*
%TO.C,KE10*%
X367834810Y-215142891D03*
D11*
X368548962Y-212394349D03*
D12*
X372803800Y-214086700D03*
D11*
X374232103Y-208589615D03*
D10*
X377772790Y-213030509D03*
D27*
X365420354Y-213018461D03*
X377314733Y-207893488D03*
%TD*%
D43*
%TO.C,RGBI1*%
X147690000Y-157690000D03*
X146190000Y-157690000D03*
D44*
X146190000Y-162790000D03*
D43*
X147690000Y-162790000D03*
%TD*%
D53*
%TO.C,J1*%
X464469785Y-223022903D03*
D54*
X464469785Y-220482903D03*
X464469785Y-217942903D03*
%TD*%
D22*
%TO.C,RGBA4*%
X239776657Y-141161214D03*
X239464790Y-142628436D03*
D23*
X244453343Y-143688786D03*
D22*
X244765210Y-142221564D03*
%TD*%
%TO.C,RGBD3*%
X229056447Y-201684650D03*
X228744580Y-203151872D03*
D23*
X233733133Y-204212222D03*
D22*
X234045000Y-202745000D03*
%TD*%
D10*
%TO.C,KF6*%
X393808535Y-231382303D03*
D11*
X395078535Y-228842303D03*
D12*
X398888535Y-231382303D03*
D11*
X401428535Y-226302303D03*
D10*
X403968535Y-231382303D03*
D13*
X391888535Y-228802303D03*
X404588535Y-226262303D03*
%TD*%
D10*
%TO.C,KB1*%
X175496285Y-155182303D03*
D11*
X176766285Y-152642303D03*
D12*
X180576285Y-155182303D03*
D11*
X183116285Y-150102303D03*
D10*
X185656285Y-155182303D03*
D13*
X173576285Y-152602303D03*
X186276285Y-150062303D03*
%TD*%
D10*
%TO.C,KD10*%
X370216010Y-195161191D03*
D11*
X370930162Y-192412649D03*
D12*
X375185000Y-194105000D03*
D11*
X376613303Y-188607915D03*
D10*
X380153990Y-193048809D03*
D27*
X367801554Y-193036761D03*
X379695933Y-187911788D03*
%TD*%
D10*
%TO.C,KF1*%
X185021335Y-231382303D03*
D11*
X186291335Y-228842303D03*
D12*
X190101335Y-231382303D03*
D11*
X192641335Y-226302303D03*
D10*
X195181335Y-231382303D03*
D13*
X183101335Y-228802303D03*
X195801335Y-226262303D03*
%TD*%
D53*
%TO.C,J2*%
X464469785Y-207562903D03*
D54*
X464469785Y-205022903D03*
%TD*%
D22*
%TO.C,RGBE2*%
X212806657Y-217711214D03*
X212494790Y-219178436D03*
D23*
X217483343Y-220238786D03*
D22*
X217795210Y-218771564D03*
%TD*%
D10*
%TO.C,KE13*%
X443814785Y-214713503D03*
D11*
X445084785Y-212173503D03*
D12*
X448894785Y-214713503D03*
D11*
X451434785Y-209633503D03*
D10*
X453974785Y-214713503D03*
D13*
X441894785Y-212133503D03*
X454594785Y-209593503D03*
%TD*%
D10*
%TO.C,KE7*%
X311933710Y-227025091D03*
D11*
X312647862Y-224276549D03*
D12*
X316902700Y-225968900D03*
D11*
X318331003Y-220471815D03*
D10*
X321871690Y-224912709D03*
D27*
X309519254Y-224900661D03*
X321413633Y-219775688D03*
%TD*%
D22*
%TO.C,RGBC4*%
X245316657Y-185671214D03*
X245004790Y-187138436D03*
D23*
X249993343Y-188198786D03*
D22*
X250305210Y-186731564D03*
%TD*%
D55*
%TO.C,DC0*%
X172665000Y-165945000D03*
X169365000Y-165945000D03*
%TD*%
%TO.C,DC11*%
X422122500Y-165975000D03*
X418822500Y-165975000D03*
%TD*%
%TO.C,DE1*%
X201235000Y-204065000D03*
X197935000Y-204065000D03*
%TD*%
%TO.C,DC10*%
X405225000Y-165975000D03*
X401925000Y-165975000D03*
%TD*%
D56*
%TO.C,DD10*%
X379668944Y-184711946D03*
X376441056Y-185398054D03*
%TD*%
D55*
%TO.C,DE11*%
X400515000Y-204065000D03*
X397215000Y-204065000D03*
%TD*%
D57*
%TO.C,DF12*%
X473815000Y-153405000D03*
X473815000Y-150105000D03*
%TD*%
D55*
%TO.C,DB11*%
X395755000Y-144555000D03*
X392455000Y-144555000D03*
%TD*%
%TO.C,DA13*%
X433832500Y-123115000D03*
X430532500Y-123115000D03*
%TD*%
D58*
%TO.C,DC5*%
X275278944Y-179228054D03*
X272051056Y-178541946D03*
%TD*%
D59*
%TO.C,U1*%
X292605000Y-150315000D03*
X290705000Y-150315000D03*
X291655000Y-148440000D03*
%TD*%
D60*
%TO.C,C6*%
X296105000Y-156445000D03*
X296105000Y-155485000D03*
%TD*%
D61*
%TO.C,C9*%
X297086284Y-154068984D03*
X298046284Y-154068984D03*
%TD*%
D55*
%TO.C,DB0*%
X167885000Y-146915000D03*
X164585000Y-146915000D03*
%TD*%
D56*
%TO.C,DC9*%
X382038944Y-164711946D03*
X378811056Y-165398054D03*
%TD*%
%TO.C,DD8*%
X342408944Y-192631946D03*
X339181056Y-193318054D03*
%TD*%
D55*
%TO.C,DF7*%
X436212500Y-225505000D03*
X432912500Y-225505000D03*
%TD*%
D56*
%TO.C,DD9*%
X361008944Y-188671946D03*
X357781056Y-189358054D03*
%TD*%
D62*
%TO.C,R4*%
X294045000Y-152430000D03*
X294045000Y-153450000D03*
%TD*%
D63*
%TO.C,F1*%
X291645000Y-143760000D03*
X291645000Y-146560000D03*
%TD*%
D55*
%TO.C,DF9*%
X460955000Y-222955000D03*
X457655000Y-222955000D03*
%TD*%
D64*
%TO.C,R1*%
X292625000Y-139355000D03*
X292625000Y-138335000D03*
%TD*%
D65*
%TO.C,DA2*%
X210075000Y-124295000D03*
X206783038Y-124064804D03*
%TD*%
D56*
%TO.C,DB7*%
X316978944Y-159061946D03*
X313751056Y-159748054D03*
%TD*%
D64*
%TO.C,R2*%
X296355000Y-139375000D03*
X296355000Y-138355000D03*
%TD*%
D55*
%TO.C,DE12*%
X426655000Y-204085000D03*
X423355000Y-204085000D03*
%TD*%
D58*
%TO.C,DD5*%
X277628944Y-199228054D03*
X274401056Y-198541946D03*
%TD*%
D56*
%TO.C,DE8*%
X340058944Y-212621946D03*
X336831056Y-213308054D03*
%TD*%
%TO.C,DB9*%
X354218944Y-151121946D03*
X350991056Y-151808054D03*
%TD*%
D61*
%TO.C,C11*%
X301335000Y-158425000D03*
X302295000Y-158425000D03*
%TD*%
D58*
%TO.C,DE4*%
X261392888Y-215241108D03*
X258165000Y-214555000D03*
%TD*%
D61*
%TO.C,C1*%
X288965000Y-146795000D03*
X289925000Y-146795000D03*
%TD*%
D55*
%TO.C,DD12*%
X421932500Y-184995000D03*
X418632500Y-184995000D03*
%TD*%
D60*
%TO.C,C10*%
X292665467Y-156619157D03*
X292665467Y-155659157D03*
%TD*%
D66*
%TO.C,C14*%
X293135000Y-168535000D03*
X293135000Y-169495000D03*
%TD*%
D55*
%TO.C,DB2*%
X206005000Y-144545000D03*
X202705000Y-144545000D03*
%TD*%
D58*
%TO.C,DC3*%
X237978944Y-171318054D03*
X234751056Y-170631946D03*
%TD*%
D61*
%TO.C,C13*%
X301681583Y-162437930D03*
X302641583Y-162437930D03*
%TD*%
D67*
%TO.C,U4*%
X295435000Y-146372500D03*
X294485000Y-146372500D03*
X293535000Y-146372500D03*
X293535000Y-144097500D03*
X294485000Y-144097500D03*
X295435000Y-144097500D03*
%TD*%
D58*
%TO.C,DA4*%
X251102888Y-130801108D03*
X247875000Y-130115000D03*
%TD*%
D56*
%TO.C,DC7*%
X344788944Y-172651946D03*
X341561056Y-173338054D03*
%TD*%
D66*
%TO.C,C7*%
X292095000Y-168535000D03*
X292095000Y-169495000D03*
%TD*%
D58*
%TO.C,DE2*%
X224128944Y-207338054D03*
X220901056Y-206651946D03*
%TD*%
D68*
%TO.C,C12*%
X289325000Y-162445001D03*
X288365000Y-162445001D03*
%TD*%
D55*
%TO.C,DC13*%
X467182500Y-165925000D03*
X463882500Y-165925000D03*
%TD*%
%TO.C,DF6*%
X405255000Y-223115000D03*
X401955000Y-223115000D03*
%TD*%
%TO.C,DB12*%
X414792500Y-146915000D03*
X411492500Y-146915000D03*
%TD*%
D62*
%TO.C,R0*%
X313894999Y-151844999D03*
X313894999Y-152864999D03*
%TD*%
D55*
%TO.C,DD11*%
X402835000Y-185005000D03*
X399535000Y-185005000D03*
%TD*%
%TO.C,DB13*%
X443345000Y-146934999D03*
X440045000Y-146934999D03*
%TD*%
D56*
%TO.C,DE9*%
X358668944Y-208641946D03*
X355441056Y-209328054D03*
%TD*%
D58*
%TO.C,DD2*%
X221758944Y-187358054D03*
X218531056Y-186671946D03*
%TD*%
D55*
%TO.C,DD6*%
X300852500Y-208835000D03*
X297552500Y-208835000D03*
%TD*%
%TO.C,DF0*%
X172635000Y-223145000D03*
X169335000Y-223145000D03*
%TD*%
%TO.C,DA0*%
X167912500Y-123125000D03*
X164612500Y-123125000D03*
%TD*%
D58*
%TO.C,DC2*%
X219358944Y-167398054D03*
X216131056Y-166711946D03*
%TD*%
%TO.C,DB4*%
X247198944Y-153788054D03*
X243971056Y-153101946D03*
%TD*%
%TO.C,DB3*%
X228568944Y-149868054D03*
X225341056Y-149181946D03*
%TD*%
%TO.C,DD3*%
X240418944Y-191318054D03*
X237191056Y-190631946D03*
%TD*%
D56*
%TO.C,DA9*%
X350358944Y-128151946D03*
X347131056Y-128838054D03*
%TD*%
D55*
%TO.C,DD0*%
X172602500Y-185035000D03*
X169302500Y-185035000D03*
%TD*%
D56*
%TO.C,DD7*%
X323782888Y-196568892D03*
X320555000Y-197255000D03*
%TD*%
D58*
%TO.C,DB5*%
X265828944Y-157748054D03*
X262601056Y-157061946D03*
%TD*%
D56*
%TO.C,DF5*%
X376588944Y-224311946D03*
X373361056Y-224998054D03*
%TD*%
D58*
%TO.C,DE3*%
X242768944Y-211298054D03*
X239541056Y-210611946D03*
%TD*%
%TO.C,DE5*%
X280048944Y-219178054D03*
X276821056Y-218491946D03*
%TD*%
D55*
%TO.C,DF13*%
X460852500Y-206465000D03*
X457552500Y-206465000D03*
%TD*%
D56*
%TO.C,DB8*%
X335578944Y-155111946D03*
X332351056Y-155798054D03*
%TD*%
D69*
%TO.C,DA6*%
X281642777Y-134948807D03*
X278355335Y-134661193D03*
%TD*%
D68*
%TO.C,C5*%
X303345001Y-152854998D03*
X302385001Y-152854998D03*
%TD*%
D55*
%TO.C,DF1*%
X196445000Y-223125000D03*
X193145000Y-223125000D03*
%TD*%
D66*
%TO.C,C2*%
X299745000Y-169635000D03*
X299745000Y-170595000D03*
%TD*%
D55*
%TO.C,DE13*%
X455245000Y-206435000D03*
X451945000Y-206435000D03*
%TD*%
%TO.C,DA12*%
X412452500Y-123105000D03*
X409152500Y-123105000D03*
%TD*%
D61*
%TO.C,C17*%
X290705000Y-151880000D03*
X291665000Y-151880000D03*
%TD*%
D60*
%TO.C,C3*%
X294365000Y-170595000D03*
X294365000Y-169635000D03*
%TD*%
D55*
%TO.C,DE6*%
X300855000Y-227895000D03*
X297555000Y-227895000D03*
%TD*%
D70*
%TO.C,DA5*%
X271492701Y-133926084D03*
X268217299Y-133523916D03*
%TD*%
D62*
%TO.C,R3*%
X295045000Y-152425000D03*
X295045000Y-153445000D03*
%TD*%
D58*
%TO.C,DC4*%
X256628944Y-175268054D03*
X253401056Y-174581946D03*
%TD*%
%TO.C,DB6*%
X284448944Y-161698054D03*
X281221056Y-161011946D03*
%TD*%
D55*
%TO.C,DD13*%
X452905000Y-185025000D03*
X449605000Y-185025000D03*
%TD*%
D56*
%TO.C,DE7*%
X321398944Y-216541946D03*
X318171056Y-217228054D03*
%TD*%
D71*
%TO.C,DA10*%
X370908942Y-125065364D03*
X367641058Y-125524636D03*
%TD*%
D68*
%TO.C,C15*%
X290727162Y-157581654D03*
X289767162Y-157581654D03*
%TD*%
D72*
%TO.C,U3*%
X299195000Y-158847500D03*
X299195000Y-159247500D03*
X299195000Y-159647500D03*
X299195000Y-160047500D03*
X299195000Y-160447500D03*
X299195000Y-160847500D03*
X299195000Y-161247500D03*
X299195000Y-161647500D03*
X299195000Y-162047500D03*
X299195000Y-162447500D03*
X299195000Y-162847500D03*
X299195000Y-163247500D03*
X299195000Y-163647500D03*
X299195000Y-164047500D03*
D73*
X298357500Y-164885000D03*
X297957500Y-164885000D03*
X297557500Y-164885000D03*
X297157500Y-164885000D03*
X296757500Y-164885000D03*
X296357500Y-164885000D03*
X295957500Y-164885000D03*
X295557500Y-164885000D03*
X295157500Y-164885000D03*
X294757500Y-164885000D03*
X294357500Y-164885000D03*
X293957500Y-164885000D03*
X293557500Y-164885000D03*
X293157500Y-164885000D03*
D72*
X292320000Y-164047500D03*
X292320000Y-163647500D03*
X292320000Y-163247500D03*
X292320000Y-162847500D03*
X292320000Y-162447500D03*
X292320000Y-162047500D03*
X292320000Y-161647500D03*
X292320000Y-161247500D03*
X292320000Y-160847500D03*
X292320000Y-160447500D03*
X292320000Y-160047500D03*
X292320000Y-159647500D03*
X292320000Y-159247500D03*
X292320000Y-158847500D03*
D73*
X293157500Y-158010000D03*
X293557500Y-158010000D03*
X293957500Y-158010000D03*
X294357500Y-158010000D03*
X294757500Y-158010000D03*
X295157500Y-158010000D03*
X295557500Y-158010000D03*
X295957500Y-158010000D03*
X296357500Y-158010000D03*
X296757500Y-158010000D03*
X297157500Y-158010000D03*
X297557500Y-158010000D03*
X297957500Y-158010000D03*
X298357500Y-158010000D03*
D74*
X295757500Y-161447500D03*
%TD*%
D55*
%TO.C,DD1*%
X198845000Y-185015000D03*
X195545000Y-185015000D03*
%TD*%
D61*
%TO.C,C4*%
X297072142Y-153079034D03*
X298032142Y-153079034D03*
%TD*%
D75*
%TO.C,DA11*%
X391623725Y-123389902D03*
X388331763Y-123620098D03*
%TD*%
D76*
%TO.C,Y1*%
X295955000Y-169265000D03*
X298155000Y-169265000D03*
X298155000Y-170965000D03*
X295955000Y-170965000D03*
%TD*%
D56*
%TO.C,DC8*%
X363428944Y-168691946D03*
X360201056Y-169378054D03*
%TD*%
D77*
%TO.C,U2*%
X312195000Y-152850000D03*
X312195000Y-154120000D03*
X312195000Y-155390000D03*
X312195000Y-156660000D03*
X304995000Y-156660000D03*
X304995000Y-155390000D03*
X304995000Y-154120000D03*
X304995000Y-152850000D03*
%TD*%
D60*
%TO.C,C16*%
X291668448Y-156626227D03*
X291668448Y-155666227D03*
%TD*%
D64*
%TO.C,R6*%
X290085000Y-169525000D03*
X290085000Y-168505000D03*
%TD*%
D56*
%TO.C,DC6*%
X326168944Y-176611946D03*
X322941056Y-177298054D03*
%TD*%
D55*
%TO.C,DC12*%
X443395000Y-165955000D03*
X440095000Y-165955000D03*
%TD*%
%TO.C,DB1*%
X186955000Y-146935000D03*
X183655000Y-146935000D03*
%TD*%
D58*
%TO.C,DD4*%
X259048944Y-195268054D03*
X255821056Y-194581946D03*
%TD*%
D55*
%TO.C,DA1*%
X189342500Y-123135000D03*
X186042500Y-123135000D03*
%TD*%
D58*
%TO.C,DF2*%
X224838944Y-226978054D03*
X221611056Y-226291946D03*
%TD*%
D55*
%TO.C,DE0*%
X170275000Y-204085000D03*
X166975000Y-204085000D03*
%TD*%
%TO.C,DF11*%
X474335000Y-123125000D03*
X471035000Y-123125000D03*
%TD*%
D78*
%TO.C,DA3*%
X230728942Y-126844636D03*
X227461058Y-126385364D03*
%TD*%
D56*
%TO.C,DF4*%
X334668944Y-233221946D03*
X331441056Y-233908054D03*
%TD*%
D79*
%TO.C,DA7*%
X310712777Y-134571193D03*
X307425335Y-134858807D03*
%TD*%
D56*
%TO.C,DB10*%
X372878944Y-147171946D03*
X369651056Y-147858054D03*
%TD*%
D58*
%TO.C,DF3*%
X262078944Y-234878054D03*
X258851056Y-234191946D03*
%TD*%
D55*
%TO.C,DF8*%
X455225000Y-225475000D03*
X451925000Y-225475000D03*
%TD*%
D64*
%TO.C,R5*%
X295955000Y-167725000D03*
X295955000Y-166705000D03*
%TD*%
D80*
%TO.C,DA8*%
X330132701Y-132373916D03*
X326857299Y-132776084D03*
%TD*%
D55*
%TO.C,DC1*%
X196465000Y-165965000D03*
X193165000Y-165965000D03*
%TD*%
%TO.C,DF10*%
X455292500Y-123115000D03*
X451992500Y-123115000D03*
%TD*%
D60*
%TO.C,C8*%
X293662488Y-156612085D03*
X293662488Y-155652085D03*
%TD*%
D56*
%TO.C,DE10*%
X377278944Y-204681946D03*
X374051056Y-205368054D03*
%TD*%
D81*
%TO.C,JUSB1*%
X291501285Y-135569803D03*
X292351285Y-135569803D03*
X293201285Y-135569803D03*
X294051285Y-135569803D03*
X294901285Y-135569803D03*
X295751285Y-135569803D03*
X296601285Y-135569803D03*
X297451285Y-135569803D03*
X297451285Y-134219803D03*
X296601285Y-134219803D03*
X295751285Y-134219803D03*
X294901285Y-134219803D03*
X294051285Y-134219803D03*
X293201285Y-134219803D03*
X292351285Y-134219803D03*
X291501285Y-134219803D03*
D82*
X290151285Y-134589803D03*
X298801285Y-134589803D03*
X298801285Y-131209803D03*
X290151285Y-131209803D03*
%TD*%
M02*
