%TF.GenerationSoftware,KiCad,Pcbnew,(6.0.7)*%
%TF.CreationDate,2022-09-18T02:02:10+02:00*%
%TF.ProjectId,Kanagawa_rgb_ansi_stamp,4b616e61-6761-4776-915f-7267625f616e,rev?*%
%TF.SameCoordinates,Original*%
%TF.FileFunction,Legend,Top*%
%TF.FilePolarity,Positive*%
%FSLAX46Y46*%
G04 Gerber Fmt 4.6, Leading zero omitted, Abs format (unit mm)*
G04 Created by KiCad (PCBNEW (6.0.7)) date 2022-09-18 02:02:10*
%MOMM*%
%LPD*%
G01*
G04 APERTURE LIST*
%ADD10C,0.100000*%
%ADD11C,0.120000*%
%ADD12C,0.150000*%
%ADD13C,1.397000*%
G04 APERTURE END LIST*
D10*
%TO.C,J1*%
X321600000Y-75375952D02*
X321576190Y-75423571D01*
X321576190Y-75495000D01*
X321600000Y-75566428D01*
X321647619Y-75614047D01*
X321695238Y-75637857D01*
X321790476Y-75661666D01*
X321861904Y-75661666D01*
X321957142Y-75637857D01*
X322004761Y-75614047D01*
X322052380Y-75566428D01*
X322076190Y-75495000D01*
X322076190Y-75447380D01*
X322052380Y-75375952D01*
X322028571Y-75352142D01*
X321861904Y-75352142D01*
X321861904Y-75447380D01*
X322076190Y-75137857D02*
X321576190Y-75137857D01*
X322076190Y-74852142D01*
X321576190Y-74852142D01*
X322076190Y-74614047D02*
X321576190Y-74614047D01*
X321576190Y-74495000D01*
X321600000Y-74423571D01*
X321647619Y-74375952D01*
X321695238Y-74352142D01*
X321790476Y-74328333D01*
X321861904Y-74328333D01*
X321957142Y-74352142D01*
X322004761Y-74375952D01*
X322052380Y-74423571D01*
X322076190Y-74495000D01*
X322076190Y-74614047D01*
X322052380Y-67902142D02*
X322076190Y-67830714D01*
X322076190Y-67711666D01*
X322052380Y-67664047D01*
X322028571Y-67640238D01*
X321980952Y-67616428D01*
X321933333Y-67616428D01*
X321885714Y-67640238D01*
X321861904Y-67664047D01*
X321838095Y-67711666D01*
X321814285Y-67806904D01*
X321790476Y-67854523D01*
X321766666Y-67878333D01*
X321719047Y-67902142D01*
X321671428Y-67902142D01*
X321623809Y-67878333D01*
X321600000Y-67854523D01*
X321576190Y-67806904D01*
X321576190Y-67687857D01*
X321600000Y-67616428D01*
X322076190Y-67402142D02*
X321576190Y-67402142D01*
X321576190Y-67283095D01*
X321600000Y-67211666D01*
X321647619Y-67164047D01*
X321695238Y-67140238D01*
X321790476Y-67116428D01*
X321861904Y-67116428D01*
X321957142Y-67140238D01*
X322004761Y-67164047D01*
X322052380Y-67211666D01*
X322076190Y-67283095D01*
X322076190Y-67402142D01*
X321933333Y-66925952D02*
X321933333Y-66687857D01*
X322076190Y-66973571D02*
X321576190Y-66806904D01*
X322076190Y-66640238D01*
X322052380Y-70490238D02*
X322076190Y-70418809D01*
X322076190Y-70299761D01*
X322052380Y-70252142D01*
X322028571Y-70228333D01*
X321980952Y-70204523D01*
X321933333Y-70204523D01*
X321885714Y-70228333D01*
X321861904Y-70252142D01*
X321838095Y-70299761D01*
X321814285Y-70395000D01*
X321790476Y-70442619D01*
X321766666Y-70466428D01*
X321719047Y-70490238D01*
X321671428Y-70490238D01*
X321623809Y-70466428D01*
X321600000Y-70442619D01*
X321576190Y-70395000D01*
X321576190Y-70275952D01*
X321600000Y-70204523D01*
X322028571Y-69704523D02*
X322052380Y-69728333D01*
X322076190Y-69799761D01*
X322076190Y-69847380D01*
X322052380Y-69918809D01*
X322004761Y-69966428D01*
X321957142Y-69990238D01*
X321861904Y-70014047D01*
X321790476Y-70014047D01*
X321695238Y-69990238D01*
X321647619Y-69966428D01*
X321600000Y-69918809D01*
X321576190Y-69847380D01*
X321576190Y-69799761D01*
X321600000Y-69728333D01*
X321623809Y-69704523D01*
X322076190Y-69252142D02*
X322076190Y-69490238D01*
X321576190Y-69490238D01*
X321576190Y-73061666D02*
X322076190Y-72895000D01*
X321576190Y-72728333D01*
X322028571Y-72275952D02*
X322052380Y-72299761D01*
X322076190Y-72371190D01*
X322076190Y-72418809D01*
X322052380Y-72490238D01*
X322004761Y-72537857D01*
X321957142Y-72561666D01*
X321861904Y-72585476D01*
X321790476Y-72585476D01*
X321695238Y-72561666D01*
X321647619Y-72537857D01*
X321600000Y-72490238D01*
X321576190Y-72418809D01*
X321576190Y-72371190D01*
X321600000Y-72299761D01*
X321623809Y-72275952D01*
X322028571Y-71775952D02*
X322052380Y-71799761D01*
X322076190Y-71871190D01*
X322076190Y-71918809D01*
X322052380Y-71990238D01*
X322004761Y-72037857D01*
X321957142Y-72061666D01*
X321861904Y-72085476D01*
X321790476Y-72085476D01*
X321695238Y-72061666D01*
X321647619Y-72037857D01*
X321600000Y-71990238D01*
X321576190Y-71918809D01*
X321576190Y-71871190D01*
X321600000Y-71799761D01*
X321623809Y-71775952D01*
%TO.C,KD13*%
X355175000Y-105720000D02*
X355175000Y-86670000D01*
X374225000Y-86670000D02*
X374225000Y-105720000D01*
X374225000Y-105720000D02*
X355175000Y-105720000D01*
X355175000Y-86670000D02*
X374225000Y-86670000D01*
D11*
%TO.C,SWA13*%
X367520000Y-76119997D02*
X367520000Y-80219997D01*
X379320000Y-68019997D02*
X379320000Y-72119997D01*
X367520000Y-68019997D02*
X369920000Y-68019997D01*
X367520000Y-80219997D02*
X379320000Y-80219997D01*
X367520000Y-72119997D02*
X367520000Y-68019997D01*
X379320000Y-76119997D02*
X379320000Y-80219997D01*
X372120000Y-68019997D02*
X374720000Y-68019997D01*
X373420000Y-74619997D02*
X373420000Y-73619997D01*
X372920000Y-74119997D02*
X373920000Y-74119997D01*
X376920000Y-68019997D02*
X379320000Y-68019997D01*
X376420000Y-74119997D02*
G75*
G03*
X376420000Y-74119997I-3000000J0D01*
G01*
D10*
%TO.C,KA5*%
X177950000Y-62570000D02*
X177950000Y-81620000D01*
X158900000Y-81620000D02*
X158900000Y-62570000D01*
X158900000Y-62570000D02*
X177950000Y-62570000D01*
X177950000Y-81620000D02*
X158900000Y-81620000D01*
%TO.C,KF9*%
X296650000Y-162870000D02*
X296650000Y-181920000D01*
X296650000Y-181920000D02*
X277600000Y-181920000D01*
X277600000Y-162870000D02*
X296650000Y-162870000D01*
X277600000Y-181920000D02*
X277600000Y-162870000D01*
%TO.C,KC7*%
X191875000Y-105720000D02*
X210925000Y-105720000D01*
X191875000Y-124770000D02*
X191875000Y-105720000D01*
X210925000Y-105720000D02*
X210925000Y-124770000D01*
X210925000Y-124770000D02*
X191875000Y-124770000D01*
%TO.C,KE11*%
X315700000Y-143820000D02*
X315700000Y-162870000D01*
X282362500Y-143820000D02*
X315700000Y-143820000D01*
X315700000Y-162870000D02*
X282362500Y-162870000D01*
X282362500Y-162870000D02*
X282362500Y-143820000D01*
%TO.C,KC9*%
X249025000Y-105720000D02*
X249025000Y-124770000D01*
X249025000Y-124770000D02*
X229975000Y-124770000D01*
X229975000Y-105720000D02*
X249025000Y-105720000D01*
X229975000Y-124770000D02*
X229975000Y-105720000D01*
%TO.C,KB9*%
X239500000Y-86670000D02*
X239500000Y-105720000D01*
X220450000Y-105720000D02*
X220450000Y-86670000D01*
X239500000Y-105720000D02*
X220450000Y-105720000D01*
X220450000Y-86670000D02*
X239500000Y-86670000D01*
%TO.C,KF3*%
X121013022Y-163277519D02*
X139413909Y-168208022D01*
X134483406Y-186608909D02*
X116082519Y-181678406D01*
X116082519Y-181678406D02*
X121013022Y-163277519D01*
X139413909Y-168208022D02*
X134483406Y-186608909D01*
%TO.C,KB0*%
X68050000Y-86670000D02*
X68050000Y-105720000D01*
X49000000Y-105720000D02*
X49000000Y-86670000D01*
X68050000Y-105720000D02*
X49000000Y-105720000D01*
X49000000Y-86670000D02*
X68050000Y-86670000D01*
%TO.C,KC2*%
X96625000Y-105720000D02*
X115675000Y-105720000D01*
X115675000Y-105720000D02*
X115675000Y-124770000D01*
X96625000Y-124770000D02*
X96625000Y-105720000D01*
X115675000Y-124770000D02*
X96625000Y-124770000D01*
%TO.C,KD7*%
X215687500Y-124770000D02*
X215687500Y-143820000D01*
X215687500Y-143820000D02*
X196637500Y-143820000D01*
X196637500Y-143820000D02*
X196637500Y-124770000D01*
X196637500Y-124770000D02*
X215687500Y-124770000D01*
%TO.C,KA7*%
X216050000Y-62570000D02*
X216050000Y-81620000D01*
X197000000Y-62570000D02*
X216050000Y-62570000D01*
X216050000Y-81620000D02*
X197000000Y-81620000D01*
X197000000Y-81620000D02*
X197000000Y-62570000D01*
D11*
%TO.C,J2*%
X366910000Y-80529996D02*
X365580000Y-80529996D01*
X366910000Y-77929996D02*
X364250000Y-77929996D01*
X366910000Y-79199996D02*
X366910000Y-80529996D01*
X366910000Y-67709996D02*
X364250000Y-67709996D01*
X364250000Y-77929996D02*
X364250000Y-67709996D01*
X366910000Y-77929996D02*
X366910000Y-67709996D01*
D10*
%TO.C,KC3*%
X115675000Y-105720000D02*
X134725000Y-105720000D01*
X115675000Y-124770000D02*
X115675000Y-105720000D01*
X134725000Y-105720000D02*
X134725000Y-124770000D01*
X134725000Y-124770000D02*
X115675000Y-124770000D01*
%TO.C,KA10*%
X259200000Y-62570000D02*
X278250000Y-62570000D01*
X278250000Y-81620000D02*
X259200000Y-81620000D01*
X259200000Y-81620000D02*
X259200000Y-62570000D01*
X278250000Y-62570000D02*
X278250000Y-81620000D01*
%TO.C,KC5*%
X153775000Y-105720000D02*
X172825000Y-105720000D01*
X153775000Y-124770000D02*
X153775000Y-105720000D01*
X172825000Y-124770000D02*
X153775000Y-124770000D01*
X172825000Y-105720000D02*
X172825000Y-124770000D01*
%TO.C,KF11*%
X339512500Y-186970000D02*
X320462500Y-186970000D01*
X320462500Y-186970000D02*
X320462500Y-167920000D01*
X339512500Y-167920000D02*
X339512500Y-186970000D01*
X320462500Y-167920000D02*
X339512500Y-167920000D01*
%TO.C,KE7*%
X206162500Y-162870000D02*
X206162500Y-143820000D01*
X225212500Y-143820000D02*
X225212500Y-162870000D01*
X206162500Y-143820000D02*
X225212500Y-143820000D01*
X225212500Y-162870000D02*
X206162500Y-162870000D01*
%TO.C,KF12*%
X358562500Y-167920000D02*
X358562500Y-186970000D01*
X358562500Y-186970000D02*
X339512500Y-186970000D01*
X339512500Y-186970000D02*
X339512500Y-167920000D01*
X339512500Y-167920000D02*
X358562500Y-167920000D01*
%TO.C,KE5*%
X187112500Y-162870000D02*
X168062500Y-162870000D01*
X168062500Y-143820000D02*
X187112500Y-143820000D01*
X187112500Y-143820000D02*
X187112500Y-162870000D01*
X168062500Y-162870000D02*
X168062500Y-143820000D01*
%TO.C,KB5*%
X163300000Y-105720000D02*
X144250000Y-105720000D01*
X163300000Y-86670000D02*
X163300000Y-105720000D01*
X144250000Y-105720000D02*
X144250000Y-86670000D01*
X144250000Y-86670000D02*
X163300000Y-86670000D01*
%TO.C,KD10*%
X272837500Y-124770000D02*
X272837500Y-143820000D01*
X253787500Y-143820000D02*
X253787500Y-124770000D01*
X272837500Y-143820000D02*
X253787500Y-143820000D01*
X253787500Y-124770000D02*
X272837500Y-124770000D01*
%TO.C,KA0*%
X68050000Y-62570000D02*
X68050000Y-81620000D01*
X49000000Y-62570000D02*
X68050000Y-62570000D01*
X49000000Y-81620000D02*
X49000000Y-62570000D01*
X68050000Y-81620000D02*
X49000000Y-81620000D01*
%TO.C,KD1*%
X101387500Y-143820000D02*
X82337500Y-143820000D01*
X101387500Y-124770000D02*
X101387500Y-143820000D01*
X82337500Y-143820000D02*
X82337500Y-124770000D01*
X82337500Y-124770000D02*
X101387500Y-124770000D01*
%TO.C,KB10*%
X258550000Y-105720000D02*
X239500000Y-105720000D01*
X258550000Y-86670000D02*
X258550000Y-105720000D01*
X239500000Y-86670000D02*
X258550000Y-86670000D01*
X239500000Y-105720000D02*
X239500000Y-86670000D01*
%TO.C,KC11*%
X268075000Y-105720000D02*
X287125000Y-105720000D01*
X268075000Y-124770000D02*
X268075000Y-105720000D01*
X287125000Y-124770000D02*
X268075000Y-124770000D01*
X287125000Y-105720000D02*
X287125000Y-124770000D01*
%TO.C,KF1*%
X72812500Y-162870000D02*
X91862500Y-162870000D01*
X91862500Y-162870000D02*
X91862500Y-181920000D01*
X91862500Y-181920000D02*
X72812500Y-181920000D01*
X72812500Y-181920000D02*
X72812500Y-162870000D01*
%TO.C,KE6*%
X187112500Y-143820000D02*
X206162500Y-143820000D01*
X206162500Y-162870000D02*
X187112500Y-162870000D01*
X187112500Y-162870000D02*
X187112500Y-143820000D01*
X206162500Y-143820000D02*
X206162500Y-162870000D01*
%TO.C,KA3*%
X134800000Y-81620000D02*
X115750000Y-81620000D01*
X115750000Y-62570000D02*
X134800000Y-62570000D01*
X115750000Y-81620000D02*
X115750000Y-62570000D01*
X134800000Y-62570000D02*
X134800000Y-81620000D01*
%TO.C,KE4*%
X168062500Y-143820000D02*
X168062500Y-162870000D01*
X149012500Y-162870000D02*
X149012500Y-143820000D01*
X168062500Y-162870000D02*
X149012500Y-162870000D01*
X149012500Y-143820000D02*
X168062500Y-143820000D01*
%TO.C,KD11*%
X272837500Y-143820000D02*
X272837500Y-124770000D01*
X291887500Y-124770000D02*
X291887500Y-143820000D01*
X291887500Y-143820000D02*
X272837500Y-143820000D01*
X272837500Y-124770000D02*
X291887500Y-124770000D01*
%TO.C,KD8*%
X215687500Y-143820000D02*
X215687500Y-124770000D01*
X215687500Y-124770000D02*
X234737500Y-124770000D01*
X234737500Y-124770000D02*
X234737500Y-143820000D01*
X234737500Y-143820000D02*
X215687500Y-143820000D01*
%TO.C,KF0*%
X72812500Y-162870000D02*
X72812500Y-181920000D01*
X49000000Y-181920000D02*
X72812500Y-181920000D01*
X49000000Y-181920000D02*
X49000000Y-162870000D01*
X49000000Y-162870000D02*
X72812500Y-162870000D01*
%TO.C,KE3*%
X129962500Y-162870000D02*
X129962500Y-143820000D01*
X149012500Y-162870000D02*
X129962500Y-162870000D01*
X129962500Y-143820000D02*
X149012500Y-143820000D01*
X149012500Y-143820000D02*
X149012500Y-162870000D01*
%TO.C,KF10*%
X301412500Y-167920000D02*
X320462500Y-167920000D01*
X320462500Y-186970000D02*
X301412500Y-186970000D01*
X301412500Y-186970000D02*
X301412500Y-167920000D01*
X320462500Y-167920000D02*
X320462500Y-186970000D01*
D11*
%TO.C,J3*%
X359585038Y-77929996D02*
X356925038Y-77929996D01*
X359585038Y-80529996D02*
X358255038Y-80529996D01*
X359585038Y-67709996D02*
X356925038Y-67709996D01*
X359585038Y-79199996D02*
X359585038Y-80529996D01*
X359585038Y-77929996D02*
X359585038Y-67709996D01*
X356925038Y-77929996D02*
X356925038Y-67709996D01*
D10*
%TO.C,KC0*%
X49000000Y-124770000D02*
X49000000Y-105720000D01*
X77575000Y-124770000D02*
X49000000Y-124770000D01*
X77575000Y-105720000D02*
X77575000Y-124770000D01*
X49000000Y-105720000D02*
X77575000Y-105720000D01*
%TO.C,KD6*%
X196637500Y-124770000D02*
X196637500Y-143820000D01*
X177587500Y-124770000D02*
X196637500Y-124770000D01*
X177587500Y-143820000D02*
X177587500Y-124770000D01*
X196637500Y-143820000D02*
X177587500Y-143820000D01*
%TO.C,KB2*%
X106150000Y-86670000D02*
X106150000Y-105720000D01*
X106150000Y-105720000D02*
X87100000Y-105720000D01*
X87100000Y-105720000D02*
X87100000Y-86670000D01*
X87100000Y-86670000D02*
X106150000Y-86670000D01*
%TO.C,KC4*%
X134725000Y-124770000D02*
X134725000Y-105720000D01*
X134725000Y-105720000D02*
X153775000Y-105720000D01*
X153775000Y-105720000D02*
X153775000Y-124770000D01*
X153775000Y-124770000D02*
X134725000Y-124770000D01*
%TO.C,KD0*%
X49000000Y-143820000D02*
X49000000Y-124770000D01*
X82337500Y-143820000D02*
X49000000Y-143820000D01*
X82337500Y-124770000D02*
X82337500Y-143820000D01*
X49000000Y-124770000D02*
X82337500Y-124770000D01*
%TO.C,KD3*%
X120437500Y-124770000D02*
X139487500Y-124770000D01*
X120437500Y-143820000D02*
X120437500Y-124770000D01*
X139487500Y-124770000D02*
X139487500Y-143820000D01*
X139487500Y-143820000D02*
X120437500Y-143820000D01*
%TO.C,KF5*%
X183889820Y-196469915D02*
X178959317Y-178069028D01*
X220691594Y-186608909D02*
X183889820Y-196469915D01*
X178959317Y-178069028D02*
X215761091Y-168208022D01*
X215761091Y-168208022D02*
X220691594Y-186608909D01*
%TO.C,KF8*%
X258550000Y-181920000D02*
X258550000Y-162870000D01*
X258550000Y-162870000D02*
X277600000Y-162870000D01*
X277600000Y-181920000D02*
X258550000Y-181920000D01*
X277600000Y-162870000D02*
X277600000Y-181920000D01*
%TO.C,KA11*%
X297300000Y-62570000D02*
X297300000Y-81620000D01*
X278250000Y-81620000D02*
X278250000Y-62570000D01*
X297300000Y-81620000D02*
X278250000Y-81620000D01*
X278250000Y-62570000D02*
X297300000Y-62570000D01*
%TO.C,KD5*%
X177587500Y-124770000D02*
X177587500Y-143820000D01*
X177587500Y-143820000D02*
X158537500Y-143820000D01*
X158537500Y-124770000D02*
X177587500Y-124770000D01*
X158537500Y-143820000D02*
X158537500Y-124770000D01*
%TO.C,KA9*%
X240150000Y-62570000D02*
X259200000Y-62570000D01*
X240150000Y-81620000D02*
X240150000Y-62570000D01*
X259200000Y-81620000D02*
X240150000Y-81620000D01*
X259200000Y-62570000D02*
X259200000Y-81620000D01*
%TO.C,KE8*%
X225212500Y-162870000D02*
X225212500Y-143820000D01*
X244262500Y-162870000D02*
X225212500Y-162870000D01*
X225212500Y-143820000D02*
X244262500Y-143820000D01*
X244262500Y-143820000D02*
X244262500Y-162870000D01*
%TO.C,KB3*%
X125200000Y-86670000D02*
X125200000Y-105720000D01*
X125200000Y-105720000D02*
X106150000Y-105720000D01*
X106150000Y-105720000D02*
X106150000Y-86670000D01*
X106150000Y-86670000D02*
X125200000Y-86670000D01*
%TO.C,KC6*%
X172825000Y-124770000D02*
X172825000Y-105720000D01*
X191875000Y-105720000D02*
X191875000Y-124770000D01*
X172825000Y-105720000D02*
X191875000Y-105720000D01*
X191875000Y-124770000D02*
X172825000Y-124770000D01*
%TO.C,KB8*%
X201400000Y-86670000D02*
X220450000Y-86670000D01*
X220450000Y-86670000D02*
X220450000Y-105720000D01*
X201400000Y-105720000D02*
X201400000Y-86670000D01*
X220450000Y-105720000D02*
X201400000Y-105720000D01*
%TO.C,KA1*%
X77650000Y-62570000D02*
X96700000Y-62570000D01*
X96700000Y-81620000D02*
X77650000Y-81620000D01*
X77650000Y-81620000D02*
X77650000Y-62570000D01*
X96700000Y-62570000D02*
X96700000Y-81620000D01*
%TO.C,KA12*%
X297300000Y-81620000D02*
X297300000Y-62570000D01*
X316350000Y-81620000D02*
X297300000Y-81620000D01*
X316350000Y-62570000D02*
X316350000Y-81620000D01*
X297300000Y-62570000D02*
X316350000Y-62570000D01*
%TO.C,KA8*%
X216050000Y-81620000D02*
X216050000Y-62570000D01*
X235100000Y-62570000D02*
X235100000Y-81620000D01*
X235100000Y-81620000D02*
X216050000Y-81620000D01*
X216050000Y-62570000D02*
X235100000Y-62570000D01*
%TO.C,KE2*%
X110912500Y-162870000D02*
X110912500Y-143820000D01*
X110912500Y-143820000D02*
X129962500Y-143820000D01*
X129962500Y-143820000D02*
X129962500Y-162870000D01*
X129962500Y-162870000D02*
X110912500Y-162870000D01*
D11*
%TO.C,J1*%
X356850000Y-65095000D02*
X356850000Y-77095000D01*
D12*
X318854000Y-76145000D02*
X318854000Y-66145000D01*
D11*
X356850000Y-77095000D02*
X318850000Y-77095000D01*
D12*
X321394000Y-76145000D02*
X318854000Y-76145000D01*
X321394000Y-76145000D02*
X321394000Y-66145000D01*
X318854000Y-66145000D02*
X321394000Y-66145000D01*
D11*
X318850000Y-65095000D02*
X356850000Y-65095000D01*
X318850000Y-77095000D02*
X318850000Y-65095000D01*
D10*
%TO.C,KE13*%
X355175000Y-124770000D02*
X355175000Y-105720000D01*
X374225000Y-105720000D02*
X374225000Y-124770000D01*
X355175000Y-105720000D02*
X374225000Y-105720000D01*
X374225000Y-124770000D02*
X355175000Y-124770000D01*
%TO.C,KC8*%
X210925000Y-124770000D02*
X210925000Y-105720000D01*
X229975000Y-105720000D02*
X229975000Y-124770000D01*
X210925000Y-105720000D02*
X229975000Y-105720000D01*
X229975000Y-124770000D02*
X210925000Y-124770000D01*
%TO.C,KD4*%
X158537500Y-124770000D02*
X158537500Y-143820000D01*
X139487500Y-124770000D02*
X158537500Y-124770000D01*
X158537500Y-143820000D02*
X139487500Y-143820000D01*
X139487500Y-143820000D02*
X139487500Y-124770000D01*
%TO.C,KB11*%
X258550000Y-86670000D02*
X277600000Y-86670000D01*
X277600000Y-105720000D02*
X258550000Y-105720000D01*
X277600000Y-86670000D02*
X277600000Y-105720000D01*
X258550000Y-105720000D02*
X258550000Y-86670000D01*
%TO.C,KF7*%
X239500000Y-181920000D02*
X239500000Y-162870000D01*
X258550000Y-181920000D02*
X239500000Y-181920000D01*
X239500000Y-162870000D02*
X258550000Y-162870000D01*
X258550000Y-162870000D02*
X258550000Y-181920000D01*
%TO.C,KE0*%
X49000000Y-143820000D02*
X91862500Y-143820000D01*
X91862500Y-143820000D02*
X91862500Y-162870000D01*
X49000000Y-162870000D02*
X49000000Y-143820000D01*
X91862500Y-162870000D02*
X49000000Y-162870000D01*
%TO.C,KC1*%
X77575000Y-105720000D02*
X96625000Y-105720000D01*
X77575000Y-124770000D02*
X77575000Y-105720000D01*
X96625000Y-124770000D02*
X77575000Y-124770000D01*
X96625000Y-105720000D02*
X96625000Y-124770000D01*
%TO.C,KE1*%
X91862500Y-162870000D02*
X91862500Y-143820000D01*
X91862500Y-143820000D02*
X110912500Y-143820000D01*
X110912500Y-143820000D02*
X110912500Y-162870000D01*
X110912500Y-162870000D02*
X91862500Y-162870000D01*
%TO.C,KC13*%
X306175000Y-124770000D02*
X306175000Y-105720000D01*
X334750000Y-124770000D02*
X306175000Y-124770000D01*
X306175000Y-105720000D02*
X334750000Y-105720000D01*
X334750000Y-105720000D02*
X334750000Y-124770000D01*
%TO.C,KB13*%
X296650000Y-86670000D02*
X334750000Y-86670000D01*
X296650000Y-105720000D02*
X296650000Y-86670000D01*
X334750000Y-105720000D02*
X296650000Y-105720000D01*
X334750000Y-86670000D02*
X334750000Y-105720000D01*
%TO.C,KF4*%
X176215683Y-178069028D02*
X171285180Y-196469915D01*
X134483406Y-186608909D02*
X139413909Y-168208022D01*
X171285180Y-196469915D02*
X134483406Y-186608909D01*
X139413909Y-168208022D02*
X176215683Y-178069028D01*
%TO.C,KA4*%
X153850000Y-81620000D02*
X134800000Y-81620000D01*
X134800000Y-62570000D02*
X153850000Y-62570000D01*
X153850000Y-62570000D02*
X153850000Y-81620000D01*
X134800000Y-81620000D02*
X134800000Y-62570000D01*
%TO.C,KC12*%
X287125000Y-124770000D02*
X287125000Y-105720000D01*
X306175000Y-105720000D02*
X306175000Y-124770000D01*
X306175000Y-124770000D02*
X287125000Y-124770000D01*
X287125000Y-105720000D02*
X306175000Y-105720000D01*
%TO.C,KB12*%
X296650000Y-105720000D02*
X277600000Y-105720000D01*
X277600000Y-105720000D02*
X277600000Y-86670000D01*
X277600000Y-86670000D02*
X296650000Y-86670000D01*
X296650000Y-86670000D02*
X296650000Y-105720000D01*
%TO.C,KB4*%
X125200000Y-105720000D02*
X125200000Y-86670000D01*
X144250000Y-105720000D02*
X125200000Y-105720000D01*
X125200000Y-86670000D02*
X144250000Y-86670000D01*
X144250000Y-86670000D02*
X144250000Y-105720000D01*
%TO.C,KB6*%
X163300000Y-86670000D02*
X182350000Y-86670000D01*
X182350000Y-105720000D02*
X163300000Y-105720000D01*
X163300000Y-105720000D02*
X163300000Y-86670000D01*
X182350000Y-86670000D02*
X182350000Y-105720000D01*
%TO.C,KA6*%
X197000000Y-62570000D02*
X197000000Y-81620000D01*
X177950000Y-81620000D02*
X177950000Y-62570000D01*
X177950000Y-62570000D02*
X197000000Y-62570000D01*
X197000000Y-81620000D02*
X177950000Y-81620000D01*
%TO.C,KA2*%
X96700000Y-62570000D02*
X115750000Y-62570000D01*
X115750000Y-81620000D02*
X96700000Y-81620000D01*
X115750000Y-62570000D02*
X115750000Y-81620000D01*
X96700000Y-81620000D02*
X96700000Y-62570000D01*
%TO.C,KF2*%
X91862500Y-181920000D02*
X115675000Y-181920000D01*
X115675000Y-162870000D02*
X115675000Y-181920000D01*
X91862500Y-162870000D02*
X115675000Y-162870000D01*
X91862500Y-181920000D02*
X91862500Y-162870000D01*
%TO.C,KD2*%
X120437500Y-143820000D02*
X101387500Y-143820000D01*
X101387500Y-143820000D02*
X101387500Y-124770000D01*
X101387500Y-124770000D02*
X120437500Y-124770000D01*
X120437500Y-124770000D02*
X120437500Y-143820000D01*
%TO.C,KF13*%
X374225000Y-143820000D02*
X355175000Y-143820000D01*
X355175000Y-124770000D02*
X374225000Y-124770000D01*
X374225000Y-124770000D02*
X374225000Y-143820000D01*
X355175000Y-143820000D02*
X355175000Y-124770000D01*
%TO.C,KB7*%
X182350000Y-105720000D02*
X182350000Y-86670000D01*
X201400000Y-105720000D02*
X182350000Y-105720000D01*
X201400000Y-86670000D02*
X201400000Y-105720000D01*
X182350000Y-86670000D02*
X201400000Y-86670000D01*
%TO.C,KE10*%
X263312500Y-162870000D02*
X263312500Y-143820000D01*
X282362500Y-143820000D02*
X282362500Y-162870000D01*
X263312500Y-143820000D02*
X282362500Y-143820000D01*
X282362500Y-162870000D02*
X263312500Y-162870000D01*
%TO.C,KB1*%
X87100000Y-86670000D02*
X87100000Y-105720000D01*
X68050000Y-105720000D02*
X68050000Y-86670000D01*
X68050000Y-86670000D02*
X87100000Y-86670000D01*
X87100000Y-105720000D02*
X68050000Y-105720000D01*
%TO.C,KD12*%
X291887500Y-143820000D02*
X291887500Y-124770000D01*
X334750000Y-124770000D02*
X334750000Y-143820000D01*
X334750000Y-143820000D02*
X291887500Y-143820000D01*
X291887500Y-124770000D02*
X334750000Y-124770000D01*
%TO.C,KE9*%
X263312500Y-162870000D02*
X244262500Y-162870000D01*
X244262500Y-143820000D02*
X263312500Y-143820000D01*
X244262500Y-162870000D02*
X244262500Y-143820000D01*
X263312500Y-143820000D02*
X263312500Y-162870000D01*
%TO.C,KC10*%
X268075000Y-124770000D02*
X249025000Y-124770000D01*
X249025000Y-124770000D02*
X249025000Y-105720000D01*
X268075000Y-105720000D02*
X268075000Y-124770000D01*
X249025000Y-105720000D02*
X268075000Y-105720000D01*
%TO.C,KE12*%
X320462500Y-167920000D02*
X320462500Y-148870000D01*
X339512500Y-167920000D02*
X320462500Y-167920000D01*
X339512500Y-148870000D02*
X339512500Y-167920000D01*
X320462500Y-148870000D02*
X339512500Y-148870000D01*
%TO.C,KD9*%
X253787500Y-124770000D02*
X253787500Y-143820000D01*
X234737500Y-124770000D02*
X253787500Y-124770000D01*
X234737500Y-143820000D02*
X234737500Y-124770000D01*
X253787500Y-143820000D02*
X234737500Y-143820000D01*
%TO.C,KF6*%
X215761091Y-168208022D02*
X234161978Y-163277519D01*
X220691594Y-186608909D02*
X215761091Y-168208022D01*
X239092481Y-181678406D02*
X220691594Y-186608909D01*
X234161978Y-163277519D02*
X239092481Y-181678406D01*
%TD*%
D13*
%TO.C,J1*%
X320100000Y-74955000D03*
X320100000Y-72415000D03*
X320100000Y-69875000D03*
X320100000Y-67335000D03*
%TD*%
M02*
