%TF.GenerationSoftware,KiCad,Pcbnew,(6.0.7)*%
%TF.CreationDate,2022-09-18T02:02:10+02:00*%
%TF.ProjectId,Kanagawa_rgb_ansi_stamp,4b616e61-6761-4776-915f-7267625f616e,rev?*%
%TF.SameCoordinates,Original*%
%TF.FileFunction,Soldermask,Top*%
%TF.FilePolarity,Negative*%
%FSLAX46Y46*%
G04 Gerber Fmt 4.6, Leading zero omitted, Abs format (unit mm)*
G04 Created by KiCad (PCBNEW (6.0.7)) date 2022-09-18 02:02:10*
%MOMM*%
%LPD*%
G01*
G04 APERTURE LIST*
G04 Aperture macros list*
%AMRoundRect*
0 Rectangle with rounded corners*
0 $1 Rounding radius*
0 $2 $3 $4 $5 $6 $7 $8 $9 X,Y pos of 4 corners*
0 Add a 4 corners polygon primitive as box body*
4,1,4,$2,$3,$4,$5,$6,$7,$8,$9,$2,$3,0*
0 Add four circle primitives for the rounded corners*
1,1,$1+$1,$2,$3*
1,1,$1+$1,$4,$5*
1,1,$1+$1,$6,$7*
1,1,$1+$1,$8,$9*
0 Add four rect primitives between the rounded corners*
20,1,$1+$1,$2,$3,$4,$5,0*
20,1,$1+$1,$4,$5,$6,$7,0*
20,1,$1+$1,$6,$7,$8,$9,0*
20,1,$1+$1,$8,$9,$2,$3,0*%
%AMHorizOval*
0 Thick line with rounded ends*
0 $1 width*
0 $2 $3 position (X,Y) of the first rounded end (center of the circle)*
0 $4 $5 position (X,Y) of the second rounded end (center of the circle)*
0 Add line between two ends*
20,1,$1,$2,$3,$4,$5,0*
0 Add two circle primitives to create the rounded ends*
1,1,$1,$2,$3*
1,1,$1,$4,$5*%
G04 Aperture macros list end*
%ADD10C,4.200000*%
%ADD11C,1.800000*%
%ADD12C,3.100000*%
%ADD13RoundRect,0.050000X0.800000X-0.800000X0.800000X0.800000X-0.800000X0.800000X-0.800000X-0.800000X0*%
%ADD14O,1.700000X1.700000*%
%ADD15C,1.624000*%
%ADD16C,2.100000*%
%ADD17RoundRect,0.050000X1.000000X-1.600000X1.000000X1.600000X-1.000000X1.600000X-1.000000X-1.600000X0*%
%ADD18RoundRect,0.050000X-0.800000X-0.800000X0.800000X-0.800000X0.800000X0.800000X-0.800000X0.800000X0*%
%ADD19C,2.000000*%
%ADD20RoundRect,0.050000X0.979796X-0.565685X0.565685X0.979796X-0.979796X0.565685X-0.565685X-0.979796X0*%
%ADD21HorizOval,1.700000X0.000000X0.000000X0.000000X0.000000X0*%
%ADD22RoundRect,0.050000X0.850000X0.850000X-0.850000X0.850000X-0.850000X-0.850000X0.850000X-0.850000X0*%
%ADD23O,1.800000X1.800000*%
%ADD24C,4.100000*%
%ADD25C,3.150000*%
%ADD26RoundRect,0.050000X0.565685X-0.979796X0.979796X0.565685X-0.565685X0.979796X-0.979796X-0.565685X0*%
%ADD27HorizOval,1.700000X0.000000X0.000000X0.000000X0.000000X0*%
%ADD28C,1.497000*%
%ADD29RoundRect,0.050000X-0.850000X0.850000X-0.850000X-0.850000X0.850000X-0.850000X0.850000X0.850000X0*%
%ADD30RoundRect,0.050000X-0.800000X0.800000X-0.800000X-0.800000X0.800000X-0.800000X0.800000X0.800000X0*%
%ADD31C,0.750000*%
%ADD32O,1.208000X2.316000*%
%ADD33C,1.450000*%
%ADD34O,1.450000X1.450000*%
G04 APERTURE END LIST*
D10*
%TO.C,KD13*%
X364700000Y-96195000D03*
D11*
X369780000Y-96195000D03*
D12*
X367240000Y-91115000D03*
D11*
X359620000Y-96195000D03*
D12*
X360890000Y-93655000D03*
%TD*%
D13*
%TO.C,DA9*%
X257924800Y-79257500D03*
D14*
X257924800Y-69097500D03*
%TD*%
D13*
%TO.C,DD12*%
X333487300Y-142720000D03*
D14*
X333487300Y-132560000D03*
%TD*%
D15*
%TO.C,J4*%
X58430000Y-183090000D03*
X60930000Y-183090000D03*
X63430000Y-183090000D03*
%TD*%
D16*
%TO.C,SWA13*%
X370920000Y-81619997D03*
X375920000Y-81619997D03*
X373420000Y-81619997D03*
D17*
X367820000Y-74119997D03*
X379020000Y-74119997D03*
D16*
X375920000Y-67119997D03*
X370920000Y-67119997D03*
%TD*%
D12*
%TO.C,KA5*%
X170965000Y-67015000D03*
D10*
X168425000Y-72095000D03*
D12*
X164615000Y-69555000D03*
D11*
X173505000Y-72095000D03*
X163345000Y-72095000D03*
%TD*%
D13*
%TO.C,DB9*%
X238237300Y-104620000D03*
D14*
X238237300Y-94460000D03*
%TD*%
D11*
%TO.C,KF9*%
X282045000Y-172395000D03*
D12*
X283315000Y-169855000D03*
D10*
X287125000Y-172395000D03*
D11*
X292205000Y-172395000D03*
D12*
X289665000Y-167315000D03*
%TD*%
D13*
%TO.C,DF8*%
X276337300Y-180820000D03*
D14*
X276337300Y-170660000D03*
%TD*%
D10*
%TO.C,KC7*%
X201400000Y-115245000D03*
D11*
X196320000Y-115245000D03*
X206480000Y-115245000D03*
D12*
X203940000Y-110165000D03*
X197590000Y-112705000D03*
%TD*%
D13*
%TO.C,DC12*%
X304912300Y-123670000D03*
D14*
X304912300Y-113510000D03*
%TD*%
D18*
%TO.C,DD13*%
X360230000Y-86347300D03*
D14*
X370390000Y-86347300D03*
%TD*%
D12*
%TO.C,KE11*%
X295221250Y-150805000D03*
D11*
X293951250Y-153345000D03*
D10*
X299031250Y-153345000D03*
D11*
X304111250Y-153345000D03*
D12*
X301571250Y-148265000D03*
%TD*%
D15*
%TO.C,RSW0*%
X339070000Y-54580000D03*
X344070000Y-54580000D03*
D19*
X345070000Y-57080000D03*
X338070000Y-57080000D03*
%TD*%
D12*
%TO.C,KC9*%
X242040000Y-110165000D03*
D11*
X234420000Y-115245000D03*
D10*
X239500000Y-115245000D03*
D12*
X235690000Y-112705000D03*
D11*
X244580000Y-115245000D03*
%TD*%
D12*
%TO.C,KB9*%
X226165000Y-93655000D03*
D11*
X235055000Y-96195000D03*
X224895000Y-96195000D03*
D12*
X232515000Y-91115000D03*
D10*
X229975000Y-96195000D03*
%TD*%
D13*
%TO.C,DA2*%
X114474800Y-79257500D03*
D14*
X114474800Y-69097500D03*
%TD*%
D13*
%TO.C,DA11*%
X296024800Y-79257500D03*
D14*
X296024800Y-69097500D03*
%TD*%
D13*
%TO.C,DB12*%
X295387300Y-104620000D03*
D14*
X295387300Y-94460000D03*
%TD*%
D13*
%TO.C,DC6*%
X190612300Y-123670000D03*
D14*
X190612300Y-113510000D03*
%TD*%
D13*
%TO.C,DD8*%
X233474800Y-142720000D03*
D14*
X233474800Y-132560000D03*
%TD*%
D10*
%TO.C,KF3*%
X127748214Y-174943214D03*
D11*
X122841311Y-173628413D03*
X132655117Y-176258015D03*
D12*
X131516466Y-170693711D03*
X124725437Y-171503662D03*
%TD*%
D13*
%TO.C,DE4*%
X166799800Y-161770000D03*
D14*
X166799800Y-151610000D03*
%TD*%
D13*
%TO.C,DA1*%
X95424800Y-79257500D03*
D14*
X95424800Y-69097500D03*
%TD*%
D20*
%TO.C,DF5*%
X219187219Y-185873201D03*
D21*
X216557617Y-176059395D03*
%TD*%
D13*
%TO.C,DD7*%
X214424800Y-142720000D03*
D14*
X214424800Y-132560000D03*
%TD*%
D12*
%TO.C,KB0*%
X54715000Y-93655000D03*
D11*
X63605000Y-96195000D03*
D12*
X61065000Y-91115000D03*
D11*
X53445000Y-96195000D03*
D10*
X58525000Y-96195000D03*
%TD*%
D13*
%TO.C,DD1*%
X100124800Y-142720000D03*
D14*
X100124800Y-132560000D03*
%TD*%
D12*
%TO.C,KC2*%
X108690000Y-110165000D03*
X102340000Y-112705000D03*
D11*
X101070000Y-115245000D03*
X111230000Y-115245000D03*
D10*
X106150000Y-115245000D03*
%TD*%
%TO.C,KD7*%
X206162500Y-134295000D03*
D11*
X201082500Y-134295000D03*
X211242500Y-134295000D03*
D12*
X202352500Y-131755000D03*
X208702500Y-129215000D03*
%TD*%
D11*
%TO.C,KA7*%
X201445000Y-72095000D03*
D12*
X202715000Y-69555000D03*
D10*
X206525000Y-72095000D03*
D12*
X209065000Y-67015000D03*
D11*
X211605000Y-72095000D03*
%TD*%
D22*
%TO.C,J2*%
X365580000Y-79199996D03*
D23*
X365580000Y-76659996D03*
X365580000Y-74119996D03*
X365580000Y-71579996D03*
X365580000Y-69039996D03*
%TD*%
D11*
%TO.C,KC3*%
X130280000Y-115245000D03*
X120120000Y-115245000D03*
D12*
X127740000Y-110165000D03*
D10*
X125200000Y-115245000D03*
D12*
X121390000Y-112705000D03*
%TD*%
D13*
%TO.C,DA3*%
X133524800Y-79257500D03*
D14*
X133524800Y-69097500D03*
%TD*%
D13*
%TO.C,DF1*%
X90599800Y-180820000D03*
D14*
X90599800Y-170660000D03*
%TD*%
D13*
%TO.C,DF12*%
X357299800Y-185870000D03*
D14*
X357299800Y-175710000D03*
%TD*%
D13*
%TO.C,DE6*%
X204899800Y-161770000D03*
D14*
X204899800Y-151610000D03*
%TD*%
D11*
%TO.C,KA10*%
X263645000Y-72095000D03*
X273805000Y-72095000D03*
D12*
X264915000Y-69555000D03*
X271265000Y-67015000D03*
D10*
X268725000Y-72095000D03*
%TD*%
%TO.C,KC5*%
X163300000Y-115245000D03*
D12*
X159490000Y-112705000D03*
X165840000Y-110165000D03*
D11*
X168380000Y-115245000D03*
X158220000Y-115245000D03*
%TD*%
D13*
%TO.C,DA6*%
X195724800Y-79257500D03*
D14*
X195724800Y-69097500D03*
%TD*%
D13*
%TO.C,DC5*%
X171562300Y-123670000D03*
D14*
X171562300Y-113510000D03*
%TD*%
D13*
%TO.C,DA7*%
X214774800Y-79257500D03*
D14*
X214774800Y-69097500D03*
%TD*%
D12*
%TO.C,KF11*%
X326177500Y-174905000D03*
D11*
X324907500Y-177445000D03*
D12*
X332527500Y-172365000D03*
D11*
X335067500Y-177445000D03*
D10*
X329987500Y-177445000D03*
%TD*%
D12*
%TO.C,KE7*%
X218227500Y-148265000D03*
D11*
X220767500Y-153345000D03*
X210607500Y-153345000D03*
D12*
X211877500Y-150805000D03*
D10*
X215687500Y-153345000D03*
%TD*%
%TO.C,KF12*%
X349037500Y-177445000D03*
D12*
X345227500Y-174905000D03*
X351577500Y-172365000D03*
D11*
X343957500Y-177445000D03*
X354117500Y-177445000D03*
%TD*%
D13*
%TO.C,DC13*%
X333487300Y-123670000D03*
D14*
X333487300Y-113510000D03*
%TD*%
D13*
%TO.C,DD2*%
X119174800Y-142720000D03*
D14*
X119174800Y-132560000D03*
%TD*%
D10*
%TO.C,KE5*%
X177587500Y-153345000D03*
D11*
X182667500Y-153345000D03*
D12*
X173777500Y-150805000D03*
D11*
X172507500Y-153345000D03*
D12*
X180127500Y-148265000D03*
%TD*%
%TO.C,KB5*%
X156315000Y-91115000D03*
D11*
X158855000Y-96195000D03*
D10*
X153775000Y-96195000D03*
D11*
X148695000Y-96195000D03*
D12*
X149965000Y-93655000D03*
%TD*%
D13*
%TO.C,DE9*%
X262049800Y-161770000D03*
D14*
X262049800Y-151610000D03*
%TD*%
D13*
%TO.C,DF9*%
X295387300Y-180820000D03*
D14*
X295387300Y-170660000D03*
%TD*%
D12*
%TO.C,KD10*%
X265852500Y-129215000D03*
D10*
X263312500Y-134295000D03*
D12*
X259502500Y-131755000D03*
D11*
X268392500Y-134295000D03*
X258232500Y-134295000D03*
%TD*%
D13*
%TO.C,DC9*%
X247762300Y-123670000D03*
D14*
X247762300Y-113510000D03*
%TD*%
D11*
%TO.C,KA0*%
X53445000Y-72095000D03*
D12*
X61065000Y-67015000D03*
X54715000Y-69555000D03*
D11*
X63605000Y-72095000D03*
D10*
X58525000Y-72095000D03*
%TD*%
D13*
%TO.C,DB0*%
X66787300Y-104620000D03*
D14*
X66787300Y-94460000D03*
%TD*%
D11*
%TO.C,KD1*%
X86782500Y-134295000D03*
D10*
X91862500Y-134295000D03*
D12*
X88052500Y-131755000D03*
D11*
X96942500Y-134295000D03*
D12*
X94402500Y-129215000D03*
%TD*%
D11*
%TO.C,KB10*%
X243945000Y-96195000D03*
X254105000Y-96195000D03*
D12*
X245215000Y-93655000D03*
X251565000Y-91115000D03*
D10*
X249025000Y-96195000D03*
%TD*%
D12*
%TO.C,KC11*%
X273790000Y-112705000D03*
D11*
X272520000Y-115245000D03*
X282680000Y-115245000D03*
D12*
X280140000Y-110165000D03*
D10*
X277600000Y-115245000D03*
%TD*%
D13*
%TO.C,DC8*%
X228712300Y-123670000D03*
D14*
X228712300Y-113510000D03*
%TD*%
D12*
%TO.C,KF1*%
X78527500Y-169855000D03*
D11*
X87417500Y-172395000D03*
X77257500Y-172395000D03*
D10*
X82337500Y-172395000D03*
D12*
X84877500Y-167315000D03*
%TD*%
D10*
%TO.C,KE6*%
X196637500Y-153345000D03*
D12*
X192827500Y-150805000D03*
X199177500Y-148265000D03*
D11*
X191557500Y-153345000D03*
X201717500Y-153345000D03*
%TD*%
%TO.C,KA3*%
X130355000Y-72095000D03*
D10*
X125275000Y-72095000D03*
D12*
X121465000Y-69555000D03*
X127815000Y-67015000D03*
D11*
X120195000Y-72095000D03*
%TD*%
D13*
%TO.C,DD3*%
X138224800Y-142720000D03*
D14*
X138224800Y-132560000D03*
%TD*%
D13*
%TO.C,DE12*%
X338249800Y-166820000D03*
D14*
X338249800Y-156660000D03*
%TD*%
D11*
%TO.C,KE4*%
X163617500Y-153345000D03*
X153457500Y-153345000D03*
D12*
X161077500Y-148265000D03*
D10*
X158537500Y-153345000D03*
D12*
X154727500Y-150805000D03*
%TD*%
D13*
%TO.C,DC1*%
X95362300Y-123670000D03*
D14*
X95362300Y-113510000D03*
%TD*%
D11*
%TO.C,KD11*%
X287442500Y-134295000D03*
X277282500Y-134295000D03*
D10*
X282362500Y-134295000D03*
D12*
X278552500Y-131755000D03*
X284902500Y-129215000D03*
%TD*%
D13*
%TO.C,DD6*%
X195374800Y-142720000D03*
D14*
X195374800Y-132560000D03*
%TD*%
D11*
%TO.C,KD8*%
X220132500Y-134295000D03*
D10*
X225212500Y-134295000D03*
D12*
X227752500Y-129215000D03*
D11*
X230292500Y-134295000D03*
D12*
X221402500Y-131755000D03*
%TD*%
D11*
%TO.C,KF0*%
X55826250Y-172395000D03*
D12*
X57096250Y-169855000D03*
D11*
X65986250Y-172395000D03*
D10*
X60906250Y-172395000D03*
D12*
X63446250Y-167315000D03*
%TD*%
D13*
%TO.C,DB11*%
X276337300Y-104620000D03*
D14*
X276337300Y-94460000D03*
%TD*%
D10*
%TO.C,KE3*%
X139487500Y-153345000D03*
D12*
X135677500Y-150805000D03*
D11*
X134407500Y-153345000D03*
D12*
X142027500Y-148265000D03*
D11*
X144567500Y-153345000D03*
%TD*%
%TO.C,KF10*%
X305857500Y-177445000D03*
D10*
X310937500Y-177445000D03*
D12*
X313477500Y-172365000D03*
D11*
X316017500Y-177445000D03*
D12*
X307127500Y-174905000D03*
%TD*%
D13*
%TO.C,DE0*%
X90599800Y-161770000D03*
D14*
X90599800Y-151610000D03*
%TD*%
D13*
%TO.C,DE5*%
X185849800Y-161770000D03*
D14*
X185849800Y-151610000D03*
%TD*%
D13*
%TO.C,DA10*%
X276974800Y-79257500D03*
D14*
X276974800Y-69097500D03*
%TD*%
D13*
%TO.C,DD0*%
X81074800Y-142720000D03*
D14*
X81074800Y-132560000D03*
%TD*%
D13*
%TO.C,DC3*%
X133462300Y-123670000D03*
D14*
X133462300Y-113510000D03*
%TD*%
D13*
%TO.C,DF10*%
X319199800Y-185870000D03*
D14*
X319199800Y-175710000D03*
%TD*%
D22*
%TO.C,J3*%
X358255038Y-79199996D03*
D23*
X358255038Y-76659996D03*
X358255038Y-74119996D03*
X358255038Y-71579996D03*
X358255038Y-69039996D03*
%TD*%
D13*
%TO.C,DD4*%
X157274800Y-142720000D03*
D14*
X157274800Y-132560000D03*
%TD*%
D10*
%TO.C,KC0*%
X63287500Y-115245000D03*
D11*
X68367500Y-115245000D03*
D12*
X65827500Y-110165000D03*
X59477500Y-112705000D03*
D11*
X58207500Y-115245000D03*
%TD*%
D13*
%TO.C,DB13*%
X333487300Y-104620000D03*
D14*
X333487300Y-94460000D03*
%TD*%
D11*
%TO.C,KD6*%
X192192500Y-134295000D03*
D12*
X183302500Y-131755000D03*
D11*
X182032500Y-134295000D03*
D12*
X189652500Y-129215000D03*
D10*
X187112500Y-134295000D03*
%TD*%
%TO.C,KB2*%
X96625000Y-96195000D03*
D11*
X91545000Y-96195000D03*
D12*
X99165000Y-91115000D03*
D11*
X101705000Y-96195000D03*
D12*
X92815000Y-93655000D03*
%TD*%
%TO.C,KC4*%
X146790000Y-110165000D03*
D10*
X144250000Y-115245000D03*
D11*
X149330000Y-115245000D03*
X139170000Y-115245000D03*
D12*
X140440000Y-112705000D03*
%TD*%
D13*
%TO.C,DA0*%
X66774800Y-79257500D03*
D14*
X66774800Y-69097500D03*
%TD*%
D11*
%TO.C,KD0*%
X60588750Y-134295000D03*
D10*
X65668750Y-134295000D03*
D12*
X68208750Y-129215000D03*
X61858750Y-131755000D03*
D11*
X70748750Y-134295000D03*
%TD*%
D10*
%TO.C,KD3*%
X129962500Y-134295000D03*
D11*
X135042500Y-134295000D03*
D12*
X126152500Y-131755000D03*
X132502500Y-129215000D03*
D11*
X124882500Y-134295000D03*
%TD*%
D12*
%TO.C,KF5*%
X195487878Y-180871618D03*
D10*
X199825455Y-182338969D03*
D24*
X186199434Y-177464033D03*
X209188468Y-171304140D03*
D11*
X194918552Y-183653769D03*
D25*
X213132871Y-186024849D03*
D12*
X200964106Y-176774665D03*
D11*
X204732359Y-181024168D03*
D25*
X190143836Y-192184743D03*
%TD*%
D26*
%TO.C,DF4*%
X170350206Y-195080586D03*
D27*
X172979808Y-185266779D03*
%TD*%
D13*
%TO.C,DE10*%
X281099800Y-161770000D03*
D14*
X281099800Y-151610000D03*
%TD*%
D12*
%TO.C,KF8*%
X270615000Y-167315000D03*
X264265000Y-169855000D03*
D11*
X273155000Y-172395000D03*
D10*
X268075000Y-172395000D03*
D11*
X262995000Y-172395000D03*
%TD*%
D13*
%TO.C,DA4*%
X152574800Y-79257500D03*
D14*
X152574800Y-69097500D03*
%TD*%
D11*
%TO.C,KA11*%
X282695000Y-72095000D03*
X292855000Y-72095000D03*
D12*
X290315000Y-67015000D03*
X283965000Y-69555000D03*
D10*
X287775000Y-72095000D03*
%TD*%
D12*
%TO.C,KD5*%
X170602500Y-129215000D03*
X164252500Y-131755000D03*
D10*
X168062500Y-134295000D03*
D11*
X162982500Y-134295000D03*
X173142500Y-134295000D03*
%TD*%
D12*
%TO.C,KA9*%
X252215000Y-67015000D03*
D11*
X254755000Y-72095000D03*
X244595000Y-72095000D03*
D12*
X245865000Y-69555000D03*
D10*
X249675000Y-72095000D03*
%TD*%
D13*
%TO.C,DC4*%
X152512300Y-123670000D03*
D14*
X152512300Y-113510000D03*
%TD*%
D15*
%TO.C,RSW1*%
X348590000Y-54580000D03*
X353590000Y-54580000D03*
D19*
X354590000Y-57080000D03*
X347590000Y-57080000D03*
%TD*%
D10*
%TO.C,KE8*%
X234737500Y-153345000D03*
D11*
X239817500Y-153345000D03*
X229657500Y-153345000D03*
D12*
X230927500Y-150805000D03*
X237277500Y-148265000D03*
%TD*%
D11*
%TO.C,KB3*%
X120755000Y-96195000D03*
X110595000Y-96195000D03*
D12*
X118215000Y-91115000D03*
D10*
X115675000Y-96195000D03*
D12*
X111865000Y-93655000D03*
%TD*%
D13*
%TO.C,DE2*%
X128699800Y-161770000D03*
D14*
X128699800Y-151610000D03*
%TD*%
D13*
%TO.C,DD11*%
X290624800Y-142720000D03*
D14*
X290624800Y-132560000D03*
%TD*%
D11*
%TO.C,KC6*%
X187430000Y-115245000D03*
X177270000Y-115245000D03*
D12*
X178540000Y-112705000D03*
X184890000Y-110165000D03*
D10*
X182350000Y-115245000D03*
%TD*%
D11*
%TO.C,KB8*%
X205845000Y-96195000D03*
D10*
X210925000Y-96195000D03*
D12*
X213465000Y-91115000D03*
D11*
X216005000Y-96195000D03*
D12*
X207115000Y-93655000D03*
%TD*%
D13*
%TO.C,DF2*%
X114412300Y-180820000D03*
D14*
X114412300Y-170660000D03*
%TD*%
D11*
%TO.C,KA1*%
X92255000Y-72095000D03*
X82095000Y-72095000D03*
D12*
X83365000Y-69555000D03*
D10*
X87175000Y-72095000D03*
D12*
X89715000Y-67015000D03*
%TD*%
%TO.C,KA12*%
X309365000Y-67015000D03*
D11*
X301745000Y-72095000D03*
D10*
X306825000Y-72095000D03*
D11*
X311905000Y-72095000D03*
D12*
X303015000Y-69555000D03*
%TD*%
D13*
%TO.C,DF11*%
X338249800Y-185870000D03*
D14*
X338249800Y-175710000D03*
%TD*%
D11*
%TO.C,KA8*%
X220495000Y-72095000D03*
D12*
X228115000Y-67015000D03*
D11*
X230655000Y-72095000D03*
D10*
X225575000Y-72095000D03*
D12*
X221765000Y-69555000D03*
%TD*%
D13*
%TO.C,DF0*%
X71549800Y-180820000D03*
D14*
X71549800Y-170660000D03*
%TD*%
D11*
%TO.C,KE2*%
X125517500Y-153345000D03*
D12*
X122977500Y-148265000D03*
D10*
X120437500Y-153345000D03*
D12*
X116627500Y-150805000D03*
D11*
X115357500Y-153345000D03*
%TD*%
D13*
%TO.C,DB2*%
X104887300Y-104620000D03*
D14*
X104887300Y-94460000D03*
%TD*%
D13*
%TO.C,DF7*%
X257287300Y-180820000D03*
D14*
X257287300Y-170660000D03*
%TD*%
D28*
%TO.C,J1*%
X320100000Y-74955000D03*
X320100000Y-72415000D03*
X320100000Y-69875000D03*
X320100000Y-67335000D03*
%TD*%
D13*
%TO.C,DB4*%
X142987300Y-104620000D03*
D14*
X142987300Y-94460000D03*
%TD*%
D11*
%TO.C,KE13*%
X369780000Y-115245000D03*
D12*
X367240000Y-110165000D03*
D10*
X364700000Y-115245000D03*
D11*
X359620000Y-115245000D03*
D12*
X360890000Y-112705000D03*
%TD*%
D11*
%TO.C,KC8*%
X215370000Y-115245000D03*
D10*
X220450000Y-115245000D03*
D12*
X222990000Y-110165000D03*
D11*
X225530000Y-115245000D03*
D12*
X216640000Y-112705000D03*
%TD*%
D13*
%TO.C,DA5*%
X176674800Y-79257500D03*
D14*
X176674800Y-69097500D03*
%TD*%
D13*
%TO.C,DB10*%
X257287300Y-104620000D03*
D14*
X257287300Y-94460000D03*
%TD*%
D11*
%TO.C,KD4*%
X143932500Y-134295000D03*
X154092500Y-134295000D03*
D10*
X149012500Y-134295000D03*
D12*
X145202500Y-131755000D03*
X151552500Y-129215000D03*
%TD*%
D13*
%TO.C,DE1*%
X109649800Y-161770000D03*
D14*
X109649800Y-151610000D03*
%TD*%
D13*
%TO.C,DB5*%
X162037300Y-104620000D03*
D14*
X162037300Y-94460000D03*
%TD*%
D13*
%TO.C,DC0*%
X76312300Y-123670000D03*
D14*
X76312300Y-113510000D03*
%TD*%
D10*
%TO.C,KB11*%
X268075000Y-96195000D03*
D11*
X262995000Y-96195000D03*
D12*
X264265000Y-93655000D03*
X270615000Y-91115000D03*
D11*
X273155000Y-96195000D03*
%TD*%
D12*
%TO.C,KF7*%
X251565000Y-167315000D03*
X245215000Y-169855000D03*
D11*
X254105000Y-172395000D03*
X243945000Y-172395000D03*
D10*
X249025000Y-172395000D03*
%TD*%
D12*
%TO.C,KE0*%
X66621250Y-150805000D03*
D24*
X82331250Y-161585000D03*
D11*
X75511250Y-153345000D03*
X65351250Y-153345000D03*
D24*
X58531250Y-161585000D03*
D12*
X72971250Y-148265000D03*
D10*
X70431250Y-153345000D03*
D25*
X82331250Y-146345000D03*
X58531250Y-146345000D03*
%TD*%
D10*
%TO.C,KC1*%
X87100000Y-115245000D03*
D11*
X92180000Y-115245000D03*
D12*
X83290000Y-112705000D03*
X89640000Y-110165000D03*
D11*
X82020000Y-115245000D03*
%TD*%
D13*
%TO.C,DA12*%
X315074800Y-79257500D03*
D14*
X315074800Y-69097500D03*
%TD*%
D12*
%TO.C,KE1*%
X97577500Y-150805000D03*
D11*
X96307500Y-153345000D03*
D10*
X101387500Y-153345000D03*
D12*
X103927500Y-148265000D03*
D11*
X106467500Y-153345000D03*
%TD*%
D12*
%TO.C,KC13*%
X323002500Y-110165000D03*
D10*
X320462500Y-115245000D03*
D11*
X325542500Y-115245000D03*
X315382500Y-115245000D03*
D12*
X316652500Y-112705000D03*
%TD*%
D25*
%TO.C,KB13*%
X327600000Y-89195000D03*
D12*
X318240000Y-91115000D03*
X311890000Y-93655000D03*
D24*
X303800000Y-104435000D03*
D11*
X320780000Y-96195000D03*
D24*
X327600000Y-104435000D03*
D25*
X303800000Y-89195000D03*
D11*
X310620000Y-96195000D03*
D10*
X315700000Y-96195000D03*
%TD*%
D25*
%TO.C,KF4*%
X165031164Y-192184742D03*
D24*
X168975566Y-177464033D03*
D25*
X142042129Y-186024849D03*
D11*
X160256448Y-183653769D03*
D24*
X145986531Y-171304140D03*
D12*
X159117797Y-178089465D03*
D10*
X155349545Y-182338968D03*
D11*
X150442641Y-181024168D03*
D12*
X152326768Y-178899416D03*
%TD*%
%TO.C,KA4*%
X140515000Y-69555000D03*
X146865000Y-67015000D03*
D11*
X149405000Y-72095000D03*
D10*
X144325000Y-72095000D03*
D11*
X139245000Y-72095000D03*
%TD*%
D12*
%TO.C,KC12*%
X292840000Y-112705000D03*
D11*
X291570000Y-115245000D03*
D12*
X299190000Y-110165000D03*
D11*
X301730000Y-115245000D03*
D10*
X296650000Y-115245000D03*
%TD*%
D12*
%TO.C,KB12*%
X283315000Y-93655000D03*
D11*
X292205000Y-96195000D03*
D10*
X287125000Y-96195000D03*
D12*
X289665000Y-91115000D03*
D11*
X282045000Y-96195000D03*
%TD*%
%TO.C,KB4*%
X139805000Y-96195000D03*
D10*
X134725000Y-96195000D03*
D11*
X129645000Y-96195000D03*
D12*
X137265000Y-91115000D03*
X130915000Y-93655000D03*
%TD*%
D23*
%TO.C,J6*%
X353070000Y-165190000D03*
X350530000Y-165190000D03*
X347990000Y-165190000D03*
D29*
X345450000Y-165190000D03*
%TD*%
D10*
%TO.C,KB6*%
X172825000Y-96195000D03*
D11*
X177905000Y-96195000D03*
X167745000Y-96195000D03*
D12*
X175365000Y-91115000D03*
X169015000Y-93655000D03*
%TD*%
D13*
%TO.C,DB6*%
X181087300Y-104620000D03*
D14*
X181087300Y-94460000D03*
%TD*%
D26*
%TO.C,DF3*%
X133548432Y-185219580D03*
D27*
X136178034Y-175405773D03*
%TD*%
D11*
%TO.C,KA6*%
X182395000Y-72095000D03*
X192555000Y-72095000D03*
D12*
X190015000Y-67015000D03*
D10*
X187475000Y-72095000D03*
D12*
X183665000Y-69555000D03*
%TD*%
D11*
%TO.C,KA2*%
X101145000Y-72095000D03*
X111305000Y-72095000D03*
D12*
X102415000Y-69555000D03*
X108765000Y-67015000D03*
D10*
X106225000Y-72095000D03*
%TD*%
D13*
%TO.C,DE3*%
X147749800Y-161770000D03*
D14*
X147749800Y-151610000D03*
%TD*%
D30*
%TO.C,DA13*%
X346065200Y-93192500D03*
D14*
X346065200Y-103352500D03*
%TD*%
D13*
%TO.C,DB7*%
X200137300Y-104620000D03*
D14*
X200137300Y-94460000D03*
%TD*%
D11*
%TO.C,KF2*%
X108848750Y-172395000D03*
D12*
X106308750Y-167315000D03*
X99958750Y-169855000D03*
D11*
X98688750Y-172395000D03*
D10*
X103768750Y-172395000D03*
%TD*%
D11*
%TO.C,KD2*%
X115992500Y-134295000D03*
D10*
X110912500Y-134295000D03*
D12*
X113452500Y-129215000D03*
D11*
X105832500Y-134295000D03*
D12*
X107102500Y-131755000D03*
%TD*%
%TO.C,KF13*%
X360890000Y-131755000D03*
D10*
X364700000Y-134295000D03*
D11*
X359620000Y-134295000D03*
X369780000Y-134295000D03*
D12*
X367240000Y-129215000D03*
%TD*%
%TO.C,KB7*%
X194415000Y-91115000D03*
X188065000Y-93655000D03*
D11*
X186795000Y-96195000D03*
X196955000Y-96195000D03*
D10*
X191875000Y-96195000D03*
%TD*%
%TO.C,KE10*%
X272837500Y-153345000D03*
D12*
X275377500Y-148265000D03*
D11*
X277917500Y-153345000D03*
D12*
X269027500Y-150805000D03*
D11*
X267757500Y-153345000D03*
%TD*%
D13*
%TO.C,DE11*%
X314437300Y-161770000D03*
D14*
X314437300Y-151610000D03*
%TD*%
D13*
%TO.C,DA8*%
X233824800Y-79257500D03*
D14*
X233824800Y-69097500D03*
%TD*%
D13*
%TO.C,DD9*%
X252524800Y-142720000D03*
D14*
X252524800Y-132560000D03*
%TD*%
D13*
%TO.C,DE8*%
X242999800Y-161770000D03*
D14*
X242999800Y-151610000D03*
%TD*%
D11*
%TO.C,KB1*%
X82655000Y-96195000D03*
X72495000Y-96195000D03*
D12*
X73765000Y-93655000D03*
D10*
X77575000Y-96195000D03*
D12*
X80115000Y-91115000D03*
%TD*%
D18*
%TO.C,DF13*%
X360222500Y-123434800D03*
D14*
X370382500Y-123434800D03*
%TD*%
D13*
%TO.C,DC7*%
X209662300Y-123670000D03*
D14*
X209662300Y-113510000D03*
%TD*%
D18*
%TO.C,DE13*%
X360242500Y-104744800D03*
D14*
X370402500Y-104744800D03*
%TD*%
D12*
%TO.C,KD12*%
X309508750Y-131755000D03*
D24*
X325218750Y-142535000D03*
D12*
X315858750Y-129215000D03*
D10*
X313318750Y-134295000D03*
D24*
X301418750Y-142535000D03*
D25*
X325218750Y-127295000D03*
D11*
X318398750Y-134295000D03*
D25*
X301418750Y-127295000D03*
D11*
X308238750Y-134295000D03*
%TD*%
D13*
%TO.C,DB1*%
X85837300Y-104620000D03*
D14*
X85837300Y-94460000D03*
%TD*%
D13*
%TO.C,DD10*%
X271574800Y-142720000D03*
D14*
X271574800Y-132560000D03*
%TD*%
D13*
%TO.C,DD5*%
X176324800Y-142720000D03*
D14*
X176324800Y-132560000D03*
%TD*%
D13*
%TO.C,DB8*%
X219187300Y-104620000D03*
D14*
X219187300Y-94460000D03*
%TD*%
D20*
%TO.C,DF6*%
X237588106Y-180942698D03*
D21*
X234958504Y-171128892D03*
%TD*%
D12*
%TO.C,KE9*%
X256327500Y-148265000D03*
D11*
X248707500Y-153345000D03*
X258867500Y-153345000D03*
D12*
X249977500Y-150805000D03*
D10*
X253787500Y-153345000D03*
%TD*%
D13*
%TO.C,DE7*%
X223949800Y-161770000D03*
D14*
X223949800Y-151610000D03*
%TD*%
D12*
%TO.C,KC10*%
X261090000Y-110165000D03*
X254740000Y-112705000D03*
D11*
X263630000Y-115245000D03*
D10*
X258550000Y-115245000D03*
D11*
X253470000Y-115245000D03*
%TD*%
D10*
%TO.C,KE12*%
X329987500Y-158395000D03*
D12*
X332527500Y-153315000D03*
D11*
X324907500Y-158395000D03*
X335067500Y-158395000D03*
D12*
X326177500Y-155855000D03*
%TD*%
D13*
%TO.C,DC11*%
X285862300Y-123670000D03*
D14*
X285862300Y-113510000D03*
%TD*%
D13*
%TO.C,DB3*%
X123937300Y-104620000D03*
D14*
X123937300Y-94460000D03*
%TD*%
D13*
%TO.C,DC10*%
X266812300Y-123670000D03*
D14*
X266812300Y-113510000D03*
%TD*%
D12*
%TO.C,KD9*%
X246802500Y-129215000D03*
D11*
X249342500Y-134295000D03*
D10*
X244262500Y-134295000D03*
D11*
X239182500Y-134295000D03*
D12*
X240452500Y-131755000D03*
%TD*%
%TO.C,KF6*%
X223089208Y-173475863D03*
X228565437Y-169378911D03*
D10*
X227426786Y-174943214D03*
D11*
X232333689Y-173628413D03*
X222519883Y-176258015D03*
%TD*%
D13*
%TO.C,DC2*%
X114412300Y-123670000D03*
D14*
X114412300Y-113510000D03*
%TD*%
D31*
%TO.C,JUSB1*%
X174645000Y-58715000D03*
X175495000Y-58715000D03*
X176345000Y-58715000D03*
X177195000Y-58715000D03*
X178045000Y-58715000D03*
X178895000Y-58715000D03*
X179745000Y-58715000D03*
X180595000Y-58715000D03*
X180595000Y-57365000D03*
X179745000Y-57365000D03*
X178895000Y-57365000D03*
X178045000Y-57365000D03*
X177195000Y-57365000D03*
X176345000Y-57365000D03*
X175495000Y-57365000D03*
X174645000Y-57365000D03*
D32*
X173295000Y-57735000D03*
X181945000Y-57735000D03*
X181945000Y-54355000D03*
X173295000Y-54355000D03*
%TD*%
D33*
%TO.C,U0*%
X354100000Y-69600000D03*
D34*
X354100000Y-71600000D03*
X354100000Y-73600000D03*
X354100000Y-75600000D03*
X354100000Y-77600000D03*
X354100000Y-79600000D03*
X354100000Y-81600000D03*
X354100000Y-83600000D03*
X354100000Y-85600000D03*
X354100000Y-87600000D03*
X352100000Y-89600000D03*
X350100000Y-89600000D03*
X348100000Y-89600000D03*
X346100000Y-89600000D03*
X344100000Y-89600000D03*
X342100000Y-89600000D03*
X340100000Y-89600000D03*
X338100000Y-89600000D03*
X336100000Y-89600000D03*
X334100000Y-89600000D03*
X332100000Y-87600000D03*
X332100000Y-85600000D03*
X332100000Y-83600000D03*
X332100000Y-81600000D03*
X332100000Y-79600000D03*
X332100000Y-77600000D03*
X332100000Y-75600000D03*
X332100000Y-73600000D03*
X332100000Y-71600000D03*
X332100000Y-69600000D03*
X334100000Y-67600000D03*
X336100000Y-67600000D03*
X338100000Y-67600000D03*
X340100000Y-67600000D03*
X342100000Y-67600000D03*
X344100000Y-67600000D03*
X346100000Y-67600000D03*
X348100000Y-67600000D03*
X350100000Y-67600000D03*
X352100000Y-67600000D03*
%TD*%
M02*
