M48
; DRILL file {KiCad (5.1.6)-1} date 02/05/21 14:28:16
; FORMAT={-:-/ absolute / inch / decimal}
; #@! TF.CreationDate,2021-02-05T14:28:16+01:00
; #@! TF.GenerationSoftware,Kicad,Pcbnew,(5.1.6)-1
FMAT,2
INCH
T1C0.0157
T2C0.0300
T3C0.0315
T4C0.0320
T5C0.0409
T6C0.0430
T7C0.0512
T8C0.0591
T9C0.0866
T10C0.0945
T11C0.0669
T12C0.1102
T13C0.1200
T14C0.1201
T15C0.1570
T16C0.1575
%
G90
G05
T1
X3.8563Y-2.0929
X4.3023Y-2.083
X7.6142Y-1.8299
X8.5394Y-2.2826
X9.3051Y-2.6438
X10.2884Y-2.571
X10.4655Y-5.5661
X10.8819Y-1.7826
X11.4242Y-3.0533
X11.4498Y-4.7186
X11.559Y-4.7186
X12.2234Y-3.0799
X12.4478Y-3.071
X12.5364Y-5.5031
X12.5364Y-5.5661
X12.5433Y-4.7541
X12.5512Y-4.0011
X12.6102Y-3.9155
X12.6358Y-3.0592
X12.6555Y-5.8043
X12.6575Y-4.0001
X12.6821Y-5.5031
X12.6894Y-2.9173
X12.6909Y-4.7531
X12.7106Y-4.0649
X13.2411Y-5.2777
X13.2421Y-4.1527
X14.6854Y-3.5897
X16.1Y-4.3279
X16.6016Y-2.2196
X16.835Y-4.1712
X17.1634Y-1.7905
X17.3386Y-2.0066
X17.4165Y-3.1531
X9.5925Y-2.6438
X9.5925Y-2.7383
X10.2943Y-5.8826
X10.2943Y-6.011
X18.7323Y-1.9545
X18.7323Y-2.0828
X18.5462Y-3.4515
X18.5462Y-3.5799
X5.8685Y-2.9282
X5.8952Y-2.8027
X14.6211Y-5.5952
X14.6477Y-5.7207
X15.4871Y-3.8607
X15.5138Y-3.9863
X16.7603Y-4.3546
X16.787Y-4.4802
X5.8567Y-3.6965
X5.8833Y-3.5709
X16.6746Y-4.3892
X16.6942Y-4.4817
X11.7962Y-3.6356
X11.7962Y-3.7639
X6.4251Y-2.2812
X6.4518Y-2.1556
X5.6882Y-2.1181
X5.7149Y-1.9925
X12.4567Y-5.9017
X12.4567Y-5.9962
X8.1608Y-4.9311
X8.1804Y-4.8386
X6.6913Y-4.6185
X6.711Y-4.5261
X18.4518Y-2.7157
X18.4518Y-2.8102
X7.9737Y-4.1271
X7.9934Y-4.0347
X4.6722Y-4.9696
X4.6722Y-5.0641
X4.9537Y-3.4637
X4.9537Y-3.5582
X18.4527Y-3.4677
X18.4527Y-3.5621
X17.8878Y-1.9076
X17.8878Y-2.0021
X20.6594Y-5.3692
X20.6785Y-5.3233
X20.6785Y-5.4152
X20.7244Y-5.3043
X20.7244Y-5.4342
X20.7703Y-5.3233
X20.7703Y-5.4152
X20.7894Y-5.3692
X6.4995Y-3.8144
X6.5192Y-3.7219
X14.4566Y-3.6566
X14.4757Y-3.6107
X14.4757Y-3.7026
X14.5216Y-3.5917
X14.5216Y-3.7216
X14.5675Y-3.6107
X14.5675Y-3.7026
X14.5866Y-3.6566
X16.211Y-2.9349
X16.2377Y-3.0604
X17.6008Y-3.4313
X17.6204Y-3.5237
X15.5633Y-2.3262
X15.583Y-2.4186
X11.0472Y-5.8846
X11.0472Y-6.0129
X17.2293Y-1.8629
X17.2293Y-1.9913
X17.0027Y-5.1478
X17.0294Y-5.2733
X4.2903Y-3.4436
X4.2903Y-3.572
X18.5443Y-2.6995
X18.5443Y-2.8279
X7.3257Y-4.0043
X7.3524Y-3.8788
X11.7943Y-5.1356
X11.7943Y-5.2639
X11.0443Y-5.1356
X11.0443Y-5.2639
X10.2913Y-4.3856
X10.2913Y-4.5139
X16.3835Y-2.1328
X16.4102Y-2.2584
X15.9742Y-5.3177
X15.9939Y-5.4102
X5.7694Y-3.6597
X5.789Y-3.5672
X10.9518Y-4.4027
X10.9518Y-4.4972
X15.6515Y-2.29
X15.6782Y-2.4156
X16.8622Y-3.5831
X16.8819Y-3.6755
X7.9836Y-3.3595
X8.0032Y-3.2671
X6.7471Y-5.3945
X6.7668Y-5.3021
X7.2354Y-3.9676
X7.255Y-3.8752
X17.5908Y-2.6606
X17.6105Y-2.753
X10.9508Y-3.6537
X10.9508Y-3.7482
X20.6594Y-1.7275
X20.6785Y-1.6816
X20.6785Y-1.7734
X20.7244Y-1.6625
X20.7244Y-1.7925
X20.7703Y-1.6816
X20.7703Y-1.7734
X20.7894Y-1.7275
X17.609Y-3.154
X17.628Y-3.1081
X17.628Y-3.1999
X17.6739Y-3.089
X17.6739Y-3.219
X17.7199Y-3.1081
X17.7199Y-3.1999
X17.7389Y-3.154
X16.9418Y-2.7817
X16.9685Y-2.9073
X4.0138Y-1.9667
X4.0138Y-2.0612
X13.388Y-6.4049
X13.4787Y-6.4956
X5.3109Y-4.3378
X5.3376Y-4.2122
X18.6368Y-4.2005
X18.6368Y-4.3289
X5.0683Y-5.13
X5.095Y-5.0044
X4.7628Y-1.9608
X4.7628Y-2.0553
X2.8848Y-5.1336
X2.8848Y-5.2619
X5.1333Y-2.7699
X5.16Y-2.6443
X14.7517Y-4.0175
X14.7784Y-4.1431
X7.1622Y-2.4337
X7.1889Y-2.3081
X17.6529Y-5.0235
X17.6726Y-5.1159
X5.9594Y-4.4644
X5.979Y-4.3719
X15.4005Y-3.896
X15.4201Y-3.9884
X19.1998Y-2.7147
X19.1998Y-2.8092
X7.2467Y-3.2026
X7.2664Y-3.1102
X10.9508Y-5.9007
X10.9508Y-5.9952
X3.5462Y-5.1517
X3.5462Y-5.2462
X10.9537Y-5.1517
X10.9537Y-5.2462
X8.1574Y-3.6566
X8.1765Y-3.6107
X8.1765Y-3.7026
X8.2224Y-3.5917
X8.2224Y-3.7216
X8.2683Y-3.6107
X8.2683Y-3.7026
X8.2874Y-3.6566
X16.5256Y-5.3692
X16.5446Y-5.3233
X16.5446Y-5.4152
X16.5905Y-5.3043
X16.5905Y-5.4342
X16.6365Y-5.3233
X16.6365Y-5.4152
X16.6555Y-5.3692
X8.3772Y-5.7608
X8.3969Y-5.6684
X17.7923Y-3.4476
X17.7923Y-3.5759
X7.8049Y-2.5502
X7.8245Y-2.4577
X6.3352Y-2.2437
X6.3549Y-2.1512
X17.7933Y-2.6976
X17.7933Y-2.8259
X4.2913Y-2.6995
X4.2913Y-2.8279
X15.2971Y-4.6676
X15.3238Y-4.7932
X14.7413Y-3.2521
X14.768Y-3.3776
X19.2962Y-2.6986
X19.2962Y-2.8269
X7.3356Y-3.2393
X7.3623Y-3.1138
X6.091Y-5.2744
X6.1177Y-5.1489
X10.2933Y-3.6336
X10.2933Y-3.7619
X10.2933Y-5.1326
X10.2933Y-5.261
X14.1828Y-2.6068
X14.2095Y-2.7323
X3.3553Y-1.9466
X3.3553Y-2.0749
X13.8684Y-5.9453
X13.9352Y-6.0121
X7.8927Y-2.5876
X7.9194Y-2.462
X3.3533Y-2.6986
X3.3533Y-2.8269
X11.7037Y-4.3988
X11.7037Y-4.4932
X16.2958Y-2.1681
X16.3154Y-2.2605
X19.9547Y-2.7167
X19.9547Y-2.8112
X17.0305Y-2.0153
X17.0501Y-2.1077
X16.8546Y-2.8162
X16.8742Y-2.9086
X15.3873Y-3.1261
X15.4069Y-3.2186
X2.6476Y-5.3692
X2.6666Y-5.3233
X2.6666Y-5.4152
X2.7126Y-5.3043
X2.7126Y-5.4342
X2.7585Y-5.3233
X2.7585Y-5.4152
X2.7775Y-5.3692
X18.6388Y-1.9706
X18.6388Y-2.0651
X12.8818Y-5.822
X12.9009Y-5.7761
X12.9009Y-5.8679
X12.9468Y-5.757
X12.9468Y-5.8869
X12.9927Y-5.7761
X12.9927Y-5.8679
X13.0118Y-5.822
X4.7146Y-5.3692
X4.7336Y-5.3233
X4.7336Y-5.4152
X4.7795Y-5.3043
X4.7795Y-5.4342
X4.8254Y-5.3233
X4.8254Y-5.4152
X4.8445Y-5.3692
X8.5406Y-2.7117
X8.5603Y-2.6193
X14.8275Y-2.4743
X14.8472Y-2.5668
X16.0299Y-4.5111
X16.0566Y-4.6366
X11.0472Y-4.3866
X11.0472Y-4.5149
X17.6043Y-4.2005
X17.6043Y-4.3289
X7.5123Y-4.8153
X7.539Y-4.6898
X9.6988Y-2.2856
X9.7933Y-2.2856
X17.408Y-4.2333
X17.4277Y-4.3257
X7.0213Y-5.481
X7.0479Y-5.3555
X19.6673Y-1.8649
X19.6673Y-1.9932
X4.0098Y-4.9466
X4.0098Y-5.0749
X4.1083Y-1.9505
X4.1083Y-2.0789
X19.2972Y-4.2147
X19.2972Y-4.3092
X6.5126Y-3.051
X6.5323Y-2.9586
X11.7018Y-3.6517
X11.7018Y-3.7462
X19.4055Y-4.1194
X19.4055Y-4.2139
X4.2825Y-4.2314
X4.2825Y-4.3259
X5.7212Y-5.2575
X5.7409Y-5.165
X3.9252Y-3.4617
X3.9252Y-3.5562
X4.9557Y-2.7147
X4.9557Y-2.8092
X5.0066Y-3.154
X5.0256Y-3.1081
X5.0256Y-3.1999
X5.0716Y-3.089
X5.0716Y-3.219
X5.1175Y-3.1081
X5.1175Y-3.1999
X5.1365Y-3.154
X2.9025Y-4.2114
X2.9025Y-4.3397
X12.3917Y-1.8062
X12.4107Y-1.7603
X12.4107Y-1.8522
X12.4567Y-1.7413
X12.4567Y-1.8712
X12.5026Y-1.7603
X12.5026Y-1.8522
X12.5216Y-1.8062
X9.4823Y-2.6438
X9.4823Y-2.7383
X8.7968Y-6.0271
X8.8876Y-5.9364
X16.2189Y-3.7009
X16.2456Y-3.8265
X17.9813Y-1.9505
X17.9813Y-2.0789
X11.7972Y-5.8866
X11.7972Y-6.0149
X15.4757Y-3.0902
X15.5024Y-3.2158
X19.3996Y-3.4495
X19.3996Y-3.5779
X6.5915Y-3.852
X6.6182Y-3.7264
X3.2598Y-3.4476
X3.2598Y-3.5759
X4.4783Y-4.1986
X4.4783Y-4.3269
X14.9179Y-2.4387
X14.9445Y-2.5643
X16.1215Y-2.9706
X16.1412Y-3.0631
X19.2018Y-3.4647
X19.2018Y-3.5592
X7.4241Y-4.7785
X7.4437Y-4.686
X18.2657Y-4.2157
X18.2657Y-4.3102
X4.0167Y-2.7147
X4.0167Y-2.8092
X9.2813Y-6.4826
X9.3481Y-6.4158
X11.7027Y-5.1517
X11.7027Y-5.2462
X9.7322Y-5.822
X9.7513Y-5.7761
X9.7513Y-5.8679
X9.7972Y-5.757
X9.7972Y-5.8869
X9.8431Y-5.7761
X9.8431Y-5.8679
X9.8622Y-5.822
X8.1594Y-1.9243
X8.1785Y-1.8784
X8.1785Y-1.9703
X8.2244Y-1.8594
X8.2244Y-1.9893
X8.2703Y-1.8784
X8.2703Y-1.9703
X8.2894Y-1.9243
X12.4518Y-3.6527
X12.4518Y-3.7472
X14.4586Y-1.9243
X14.4777Y-1.8784
X14.4777Y-1.9703
X14.5236Y-1.8594
X14.5236Y-1.9893
X14.5695Y-1.8784
X14.5695Y-1.9703
X14.5886Y-1.9243
X5.1407Y-4.2186
X5.1407Y-4.3131
X5.5147Y-1.886
X5.5147Y-1.9804
X7.072Y-2.3965
X7.0916Y-2.3041
X11.0472Y-3.6385
X11.0472Y-3.7669
X16.9549Y-3.5465
X16.9816Y-3.672
X5.1211Y-3.5332
X5.1478Y-3.4077
X19.1978Y-5.1385
X19.1978Y-5.2669
X14.5638Y-4.8248
X14.5904Y-4.9504
X11.7972Y-4.3836
X11.7972Y-4.5119
X6.6001Y-3.088
X6.6267Y-2.9624
X6.0472Y-4.4999
X6.0739Y-4.3743
X19.8583Y-5.1566
X19.8583Y-5.2511
X6.7795Y-4.6556
X6.8062Y-4.5301
X4.8592Y-1.9141
X4.8592Y-2.0425
X15.211Y-4.7026
X15.2307Y-4.795
X12.4518Y-4.4017
X12.4518Y-4.4962
X16.1312Y-3.7363
X16.1508Y-3.8288
X15.9431Y-4.5455
X15.9628Y-4.638
X19.3897Y-1.9598
X19.3897Y-2.0543
X11.7027Y-5.9027
X11.7027Y-5.9972
X20.3277Y-1.881
X20.3277Y-1.9755
X2.6476Y-1.7275
X2.6666Y-1.6816
X2.6666Y-1.7734
X2.7126Y-1.6625
X2.7126Y-1.7925
X2.7585Y-1.6816
X2.7585Y-1.7734
X2.7775Y-1.7275
X12.4527Y-5.1507
X12.4527Y-5.2452
X5.7798Y-2.8911
X5.7994Y-2.7987
X10.2264Y-1.8062
X10.2454Y-1.7603
X10.2454Y-1.8522
X10.2913Y-1.7413
X10.2913Y-1.8712
X10.3373Y-1.7603
X10.3373Y-1.8522
X10.3563Y-1.8062
T2
X12.0659Y-1.6301
X12.0659Y-1.7285
X12.0659Y-1.8269
X12.8504Y-1.6094
X13.0472Y-1.6094
T3
X16.0896Y-2.8204
X16.1728Y-3.2117
X19.2018Y-3.3112
X19.2018Y-3.7112
X7.3925Y-4.9271
X7.4757Y-4.5358
X18.2657Y-4.0621
X18.2657Y-4.4621
X4.0167Y-2.5612
X4.0167Y-2.9612
X9.1738Y-6.5901
X9.4567Y-6.3072
X11.7027Y-4.9982
X11.7027Y-5.3982
X12.4518Y-3.4991
X12.4518Y-3.8991
X5.1407Y-4.0651
X5.1407Y-4.4651
X5.5147Y-1.7324
X5.5147Y-2.1324
X7.0404Y-2.5452
X7.1236Y-2.1539
X11.0472Y-3.5027
X11.0472Y-3.9027
X16.9267Y-3.4136
X17.0099Y-3.8049
X5.0929Y-3.6661
X5.1761Y-3.2748
X19.1978Y-5.0027
X19.1978Y-5.4027
X14.5355Y-4.692
X14.6187Y-5.0832
X11.7972Y-4.2478
X11.7972Y-4.6478
X6.5718Y-3.2208
X6.655Y-2.8296
X6.019Y-4.6327
X6.1022Y-4.2415
X19.8583Y-5.0031
X19.8583Y-5.4031
X6.7513Y-4.7885
X6.8345Y-4.3972
X4.8592Y-1.7783
X4.8592Y-2.1783
X15.1791Y-4.5524
X15.2623Y-4.9436
X12.4518Y-4.2482
X12.4518Y-4.6482
X16.0993Y-3.5862
X16.1824Y-3.9774
X15.9112Y-4.3953
X15.9944Y-4.7866
X19.3897Y-1.8062
X19.3897Y-2.2062
X11.7027Y-5.7491
X11.7027Y-6.1491
X20.3277Y-1.7275
X20.3277Y-2.1275
X12.4527Y-4.9972
X12.4527Y-5.3972
X5.7482Y-3.0397
X5.8313Y-2.6485
X9.5925Y-2.4903
X9.5925Y-2.8903
X10.2943Y-5.7468
X10.2943Y-6.1468
X18.7323Y-1.8186
X18.7323Y-2.2186
X18.5462Y-3.3157
X18.5462Y-3.7157
X5.8403Y-3.0611
X5.9235Y-2.6698
X14.5928Y-5.4623
X14.676Y-5.8536
X15.4589Y-3.7279
X15.542Y-4.1191
X16.7321Y-4.2218
X16.8152Y-4.613
X5.8284Y-3.8293
X5.9116Y-3.4381
X16.6427Y-4.2391
X16.7258Y-4.6303
X11.7962Y-3.4997
X11.7962Y-3.8997
X6.3968Y-2.414
X6.48Y-2.0228
X5.66Y-2.2509
X5.7432Y-1.8597
X12.4567Y-5.7482
X12.4567Y-6.1482
X8.1292Y-5.0797
X8.2123Y-4.6884
X6.6597Y-4.7671
X6.7429Y-4.3759
X18.4518Y-2.5621
X18.4518Y-2.9621
X7.9421Y-4.2758
X8.0253Y-3.8845
X4.6722Y-4.8161
X4.6722Y-5.2161
X4.9537Y-3.3102
X4.9537Y-3.7102
X18.4527Y-3.3141
X18.4527Y-3.7141
X17.8878Y-1.7541
X17.8878Y-2.1541
X6.4679Y-3.963
X6.5511Y-3.5718
X16.1828Y-2.802
X16.266Y-3.1933
X17.5689Y-3.2811
X17.652Y-3.6724
X15.5314Y-2.176
X15.6146Y-2.5673
X11.0472Y-5.7488
X11.0472Y-6.1488
X17.2293Y-1.7271
X17.2293Y-2.1271
X16.9745Y-5.0149
X17.0576Y-5.4062
X4.2903Y-3.3078
X4.2903Y-3.7078
X18.5443Y-2.5637
X18.5443Y-2.9637
X7.2975Y-4.1372
X7.3807Y-3.7459
X11.7943Y-4.9997
X11.7943Y-5.3997
X11.0443Y-4.9997
X11.0443Y-5.3997
X10.2913Y-4.2497
X10.2913Y-4.6497
X16.3552Y-2.0
X16.4384Y-2.3912
X15.9423Y-5.1675
X16.0255Y-5.5588
X5.7378Y-3.8083
X5.8209Y-3.417
X10.9518Y-4.2491
X10.9518Y-4.6491
X15.6233Y-2.1572
X15.7064Y-2.5484
X16.8303Y-3.4329
X16.9135Y-3.8242
X7.952Y-3.5081
X8.0351Y-3.1169
X6.7155Y-5.5432
X6.7987Y-5.1519
X7.2038Y-4.1163
X7.2869Y-3.725
X17.5589Y-2.5104
X17.6421Y-2.9017
X10.9508Y-3.5001
X10.9508Y-3.9001
X16.9136Y-2.6489
X16.9968Y-3.0401
X4.0138Y-1.8131
X4.0138Y-2.2131
X13.2919Y-6.3088
X13.5748Y-6.5917
X5.2826Y-4.4706
X5.3658Y-4.0794
X18.6368Y-4.0647
X18.6368Y-4.4647
X5.04Y-5.2628
X5.1232Y-4.8716
X4.7628Y-1.8072
X4.7628Y-2.2072
X2.8848Y-4.9978
X2.8848Y-5.3978
X5.105Y-2.9027
X5.1882Y-2.5115
X14.7235Y-3.8847
X14.8067Y-4.2759
X7.1339Y-2.5665
X7.2171Y-2.1753
X17.621Y-4.8733
X17.7042Y-5.2646
X5.9278Y-4.613
X6.0109Y-4.2218
X15.3686Y-3.7458
X15.4517Y-4.1371
X19.1998Y-2.5612
X19.1998Y-2.9612
X7.2152Y-3.3513
X7.2983Y-2.96
X10.9508Y-5.7472
X10.9508Y-6.1472
X3.5462Y-4.9982
X3.5462Y-5.3982
X10.9537Y-4.9982
X10.9537Y-5.3982
X8.3456Y-5.9095
X8.4288Y-5.5182
X17.7923Y-3.3117
X17.7923Y-3.7117
X7.7733Y-2.6988
X7.8564Y-2.3076
X6.3036Y-2.3923
X6.3868Y-2.0011
X17.7933Y-2.5617
X17.7933Y-2.9617
X4.2913Y-2.5637
X4.2913Y-2.9637
X15.2689Y-4.5348
X15.3521Y-4.926
X14.7131Y-3.1192
X14.7962Y-3.5105
X19.2962Y-2.5627
X19.2962Y-2.9627
X7.3073Y-3.3722
X7.3905Y-2.9809
X6.0628Y-5.4073
X6.1459Y-5.016
X10.2933Y-3.4978
X10.2933Y-3.8978
X10.2933Y-4.9968
X10.2933Y-5.3968
X14.1545Y-2.4739
X14.2377Y-2.8652
X3.3553Y-1.8108
X3.3553Y-2.2108
X13.7598Y-5.8367
X14.0427Y-6.1196
X7.8644Y-2.7204
X7.9476Y-2.3292
X3.3533Y-2.5627
X3.3533Y-2.9627
X11.7037Y-4.2452
X11.7037Y-4.6452
X16.2639Y-2.0179
X16.347Y-2.4092
X19.9547Y-2.5631
X19.9547Y-2.9631
X16.9986Y-1.8651
X17.0817Y-2.2564
X16.8227Y-2.666
X16.9058Y-3.0573
X15.3554Y-2.976
X15.4385Y-3.3672
X18.6388Y-1.8171
X18.6388Y-2.2171
X8.509Y-2.8604
X8.5922Y-2.4691
X14.7956Y-2.3241
X14.8788Y-2.7154
X16.0017Y-4.3782
X16.0849Y-4.7695
X11.0472Y-4.2507
X11.0472Y-4.6507
X17.6043Y-4.0647
X17.6043Y-4.4647
X7.4841Y-4.9482
X7.5672Y-4.5569
X9.5453Y-2.2856
X9.9453Y-2.2856
X17.3761Y-4.0831
X17.4593Y-4.4744
X6.993Y-5.6139
X7.0762Y-5.2226
X19.6673Y-1.7291
X19.6673Y-2.1291
X4.0098Y-4.8108
X4.0098Y-5.2108
X4.1083Y-1.8147
X4.1083Y-2.2147
X19.2972Y-4.0612
X19.2972Y-4.4612
X6.481Y-3.1997
X6.5642Y-2.8084
X11.7018Y-3.4982
X11.7018Y-3.8982
X19.4055Y-3.9675
X19.4055Y-4.3675
X4.2825Y-4.0779
X4.2825Y-4.4779
X5.6896Y-5.4061
X5.7728Y-5.0149
X3.9252Y-3.3082
X3.9252Y-3.7082
X4.9557Y-2.5612
X4.9557Y-2.9612
X2.9025Y-4.0755
X2.9025Y-4.4755
X9.4823Y-2.4903
X9.4823Y-2.8903
X8.7008Y-6.1232
X8.9836Y-5.8403
X16.1907Y-3.5681
X16.2738Y-3.9593
X17.9813Y-1.8147
X17.9813Y-2.2147
X11.7972Y-5.7507
X11.7972Y-6.1507
X15.4475Y-2.9574
X15.5306Y-3.3486
X19.3996Y-3.3137
X19.3996Y-3.7137
X6.5633Y-3.9848
X6.6464Y-3.5936
X3.2598Y-3.3117
X3.2598Y-3.7117
X4.4783Y-4.0627
X4.4783Y-4.4627
X14.8896Y-2.3059
X14.9728Y-2.6971
T4
X9.4888Y-3.0306
X9.5888Y-3.0306
X9.6888Y-3.0306
X9.7888Y-3.0306
T5
X8.9062Y-6.3181
X8.9769Y-6.3888
X15.0675Y-3.4462
X15.1653Y-3.4254
X15.0793Y-4.21
X15.1771Y-4.1892
X11.323Y-5.396
X11.423Y-5.396
X16.5439Y-3.8989
X16.6417Y-3.8781
X18.823Y-2.959
X18.923Y-2.959
X4.386Y-2.209
X4.486Y-2.209
X12.073Y-5.395
X12.173Y-5.395
X19.01Y-2.208
X19.11Y-2.208
X3.166Y-5.397
X3.266Y-5.397
X3.542Y-4.459
X3.642Y-4.459
X8.1379Y-2.7772
X8.2357Y-2.798
X7.6245Y-5.7352
X7.7223Y-5.756
X5.9365Y-2.3092
X6.0343Y-2.33
X15.2978Y-5.6982
X15.3956Y-5.6774
X18.9165Y-4.4598
X19.0165Y-4.4598
X6.1015Y-3.8782
X6.1993Y-3.899
X15.8116Y-4.0564
X15.9094Y-4.0356
X10.572Y-4.646
X10.672Y-4.646
X18.074Y-3.7089
X18.174Y-3.7089
X17.0877Y-4.55
X17.1855Y-4.5292
X15.2437Y-2.643
X15.3415Y-2.6222
X12.073Y-3.895
X12.173Y-3.895
X14.5094Y-2.7985
X14.6072Y-2.7778
X10.574Y-6.146
X10.674Y-6.146
X7.5705Y-4.1912
X7.6683Y-4.212
X13.7711Y-6.3888
X13.8418Y-6.3181
X11.325Y-4.646
X11.425Y-4.646
X11.324Y-6.146
X11.424Y-6.146
X6.2915Y-4.6852
X6.3893Y-4.706
X11.324Y-3.896
X11.424Y-3.896
X15.8017Y-3.2897
X15.8995Y-3.2689
X3.5425Y-3.708
X3.6425Y-3.708
X5.3785Y-2.9582
X5.4763Y-2.979
X12.075Y-6.146
X12.175Y-6.146
X17.2692Y-2.9787
X17.3671Y-2.9579
X20.0415Y-3.6829
X20.0415Y-3.7079
X20.1415Y-3.6829
X20.1415Y-3.7079
X7.4045Y-2.6202
X7.5023Y-2.641
X16.536Y-3.1342
X16.6338Y-3.1134
X7.0245Y-4.8407
X7.1223Y-4.8615
X10.573Y-5.396
X10.673Y-5.396
X4.572Y-3.708
X4.672Y-3.708
X15.6226Y-4.8615
X15.7204Y-4.8407
X6.6695Y-2.4662
X6.7673Y-2.487
X14.8903Y-5.017
X14.9881Y-4.9963
X17.5091Y-2.1252
X17.6091Y-2.1252
X7.7585Y-4.9982
X7.8563Y-5.019
X18.26Y-2.208
X18.36Y-2.208
X19.479Y-5.398
X19.579Y-5.398
X10.574Y-3.896
X10.674Y-3.896
X5.5585Y-4.5292
X5.6563Y-4.55
X12.073Y-4.646
X12.173Y-4.646
X18.823Y-3.7098
X18.923Y-3.7098
X6.1125Y-3.1132
X6.2103Y-3.134
X6.3415Y-5.4608
X6.4393Y-5.4816
X3.636Y-2.209
X3.736Y-2.209
X4.574Y-2.959
X4.674Y-2.959
X3.635Y-2.96
X3.735Y-2.96
X5.3165Y-5.3222
X5.4143Y-5.343
X7.5795Y-3.4252
X7.6773Y-3.446
X4.76Y-4.46
X4.86Y-4.46
X16.7092Y-2.332
X16.807Y-2.3112
X4.291Y-5.209
X4.391Y-5.209
X6.8455Y-3.2682
X6.9433Y-3.289
X16.3549Y-4.706
X16.4527Y-4.6852
X5.135Y-2.127
X5.235Y-2.127
X17.3307Y-5.341
X17.4285Y-5.3202
X19.573Y-2.96
X19.673Y-2.96
X19.948Y-2.127
X20.048Y-2.127
X6.8365Y-4.0342
X6.9343Y-4.055
X5.3695Y-3.7222
X5.4673Y-3.743
X18.074Y-2.959
X18.174Y-2.959
X17.2801Y-3.7415
X17.3779Y-3.7207
X15.9769Y-2.4875
X16.0747Y-2.4667
X17.885Y-4.4598
X17.985Y-4.4598
T6
X11.072Y-1.7287
X11.072Y-1.8287
X11.072Y-1.9287
X11.072Y-2.0287
X11.072Y-2.1287
X11.072Y-2.2287
X11.072Y-2.3287
X11.072Y-2.4287
X11.072Y-2.5287
X11.072Y-2.6287
X11.072Y-2.7287
X11.072Y-2.8287
X11.172Y-2.8287
X11.272Y-2.8287
X11.372Y-2.8287
X11.472Y-2.8287
X11.572Y-2.8287
X11.672Y-1.7287
X11.672Y-1.8287
X11.672Y-1.9287
X11.672Y-2.0287
X11.672Y-2.1287
X11.672Y-2.2287
X11.672Y-2.3287
X11.672Y-2.4287
X11.672Y-2.5287
X11.672Y-2.6287
X11.672Y-2.7287
X11.672Y-2.8287
T7
X12.811Y-1.7078
X13.0866Y-1.7078
T8
X6.3061Y-5.1466
X6.5714Y-5.1008
X3.536Y-1.909
X3.786Y-1.809
X4.474Y-2.659
X4.724Y-2.559
X3.535Y-2.66
X3.785Y-2.56
X5.2811Y-5.008
X5.5464Y-4.9622
X7.5441Y-3.111
X7.8094Y-3.0652
X4.66Y-4.16
X4.91Y-4.06
X16.549Y-2.0594
X16.7728Y-1.9096
X4.191Y-4.909
X4.441Y-4.809
X6.8101Y-2.954
X7.0754Y-2.9082
X16.1947Y-4.4334
X16.4184Y-4.2836
X5.035Y-1.827
X5.285Y-1.727
X17.1705Y-5.0684
X17.3942Y-4.9186
X19.473Y-2.66
X19.723Y-2.56
X19.848Y-1.827
X20.098Y-1.727
X6.8011Y-3.72
X7.0664Y-3.6742
X5.3341Y-3.408
X5.5994Y-3.3622
X17.974Y-2.659
X18.224Y-2.559
X17.1199Y-3.4688
X17.3436Y-3.319
X15.8167Y-2.2149
X16.0405Y-2.0651
X17.785Y-4.1598
X18.035Y-4.0598
X9.0476Y-6.0352
X9.2951Y-6.1413
X14.9073Y-3.1735
X15.131Y-3.0237
X14.9191Y-3.9373
X15.1428Y-3.7875
X11.223Y-5.096
X11.473Y-4.996
X16.3837Y-3.6263
X16.6074Y-3.4765
X18.723Y-2.659
X18.973Y-2.559
X4.286Y-1.909
X4.536Y-1.809
X11.973Y-5.095
X12.223Y-4.995
X18.91Y-1.908
X19.16Y-1.808
X3.066Y-5.097
X3.316Y-4.997
X3.442Y-4.159
X3.692Y-4.059
X8.1024Y-2.463
X8.3677Y-2.4172
X7.5891Y-5.421
X7.8544Y-5.3752
X5.9011Y-1.995
X6.1664Y-1.9492
X15.1376Y-5.4255
X15.3614Y-5.2757
X18.8165Y-4.1598
X19.0665Y-4.0598
X6.0661Y-3.564
X6.3314Y-3.5182
X15.6514Y-3.7838
X15.8751Y-3.634
X10.472Y-4.346
X10.722Y-4.246
X17.974Y-3.4089
X18.224Y-3.3089
X16.9275Y-4.2774
X17.1512Y-4.1276
X15.0835Y-2.3704
X15.3072Y-2.2206
X11.973Y-3.595
X12.223Y-3.495
X14.3492Y-2.5259
X14.573Y-2.3761
X10.474Y-5.846
X10.724Y-5.746
X7.5351Y-3.877
X7.8004Y-3.8312
X13.4882Y-6.2474
X13.5943Y-5.9999
X11.225Y-4.346
X11.475Y-4.246
X11.224Y-5.846
X11.474Y-5.746
X6.2561Y-4.371
X6.5214Y-4.3252
X11.224Y-3.596
X11.474Y-3.496
X15.6415Y-3.017
X15.8653Y-2.8672
X3.4425Y-3.408
X3.6925Y-3.308
X5.3431Y-2.644
X5.6084Y-2.5982
X11.975Y-5.846
X12.225Y-5.746
X17.1091Y-2.706
X17.3328Y-2.5562
X19.9415Y-3.4079
X19.9915Y-4.0829
X20.1915Y-3.3079
X20.2415Y-3.9829
X7.3691Y-2.306
X7.6344Y-2.2602
X16.3758Y-2.8615
X16.5995Y-2.7117
X6.9891Y-4.5265
X7.2544Y-4.4807
X10.473Y-5.096
X10.723Y-4.996
X4.472Y-3.408
X4.722Y-3.308
X15.4624Y-4.5889
X15.6862Y-4.4391
X6.6341Y-2.152
X6.8994Y-2.1062
X14.7301Y-4.7444
X14.9539Y-4.5946
X17.4091Y-1.8252
X17.6591Y-1.7252
X7.7231Y-4.684
X7.9884Y-4.6382
X18.16Y-1.908
X18.41Y-1.808
X19.379Y-5.098
X19.629Y-4.998
X10.474Y-3.596
X10.724Y-3.496
X5.5231Y-4.215
X5.7884Y-4.1692
X11.973Y-4.346
X12.223Y-4.246
X18.723Y-3.4098
X18.973Y-3.3098
X6.0771Y-2.799
X6.3424Y-2.7532
T9
X5.0716Y-3.154
X12.4567Y-1.8062
X9.7972Y-5.822
X8.2244Y-1.9243
X14.5236Y-1.9243
X2.7126Y-1.7275
X10.2913Y-1.8062
X20.7244Y-5.3692
X14.5216Y-3.6566
X20.7244Y-1.7275
X17.6739Y-3.154
X8.2224Y-3.6566
X16.5905Y-5.3692
X2.7126Y-5.3692
X12.9468Y-5.822
X4.7795Y-5.3692
T10
X11.0Y-3.0464
X11.748Y-3.0464
X10.0551Y-3.2236
X9.2283Y-3.2236
T11
X4.424Y-2.759
X4.824Y-2.759
X3.485Y-2.76
X3.885Y-2.76
X5.2114Y-5.0954
X5.6026Y-5.1786
X7.4744Y-3.1984
X7.8656Y-3.2816
X4.61Y-4.26
X5.01Y-4.26
X16.5209Y-2.1676
X16.9122Y-2.0844
X4.141Y-5.009
X4.541Y-5.009
X6.7404Y-3.0414
X7.1316Y-3.1246
X16.1666Y-4.5416
X16.5578Y-4.4584
X4.985Y-1.927
X5.385Y-1.927
X17.1424Y-5.1766
X17.5336Y-5.0934
X19.423Y-2.76
X19.823Y-2.76
X19.798Y-1.927
X20.198Y-1.927
X6.7314Y-3.8074
X7.1226Y-3.8906
X5.2644Y-3.4954
X5.6556Y-3.5786
X17.924Y-2.759
X18.324Y-2.759
X17.0918Y-3.577
X17.483Y-3.4939
X15.7886Y-2.3231
X16.1799Y-2.2399
X17.735Y-4.2598
X18.135Y-4.2598
X8.9416Y-6.0706
X9.2244Y-6.3534
X14.8792Y-3.2817
X15.2704Y-3.1986
X14.891Y-4.0455
X15.2822Y-3.9624
X11.173Y-5.196
X11.573Y-5.196
X16.3556Y-3.7345
X16.7468Y-3.6513
X18.673Y-2.759
X19.073Y-2.759
X4.236Y-2.009
X4.636Y-2.009
X11.923Y-5.195
X12.323Y-5.195
X18.86Y-2.008
X19.26Y-2.008
X3.016Y-5.197
X3.416Y-5.197
X3.392Y-4.259
X3.792Y-4.259
X8.0327Y-2.5504
X8.424Y-2.6336
X7.5194Y-5.5084
X7.9106Y-5.5916
X5.8314Y-2.0824
X6.2226Y-2.1656
X15.1095Y-5.5337
X15.5007Y-5.4505
X18.7665Y-4.2598
X19.1665Y-4.2598
X5.9964Y-3.6514
X6.3876Y-3.7346
X15.6233Y-3.892
X16.0145Y-3.8088
X10.422Y-4.446
X10.822Y-4.446
X17.924Y-3.5089
X18.324Y-3.5089
X16.8994Y-4.3856
X17.2906Y-4.3024
X15.0554Y-2.4786
X15.4466Y-2.3954
X11.923Y-3.695
X12.323Y-3.695
X14.3211Y-2.6341
X14.7124Y-2.5509
X10.424Y-5.946
X10.824Y-5.946
X7.4654Y-3.9644
X7.8566Y-4.0476
X13.5236Y-6.3534
X13.8064Y-6.0706
X11.175Y-4.446
X11.575Y-4.446
X11.174Y-5.946
X11.574Y-5.946
X6.1864Y-4.4584
X6.5776Y-4.5416
X11.174Y-3.696
X11.574Y-3.696
X15.6134Y-3.1252
X16.0047Y-3.0421
X3.3925Y-3.508
X3.7925Y-3.508
X5.2734Y-2.7314
X5.6646Y-2.8146
X11.925Y-5.946
X12.325Y-5.946
X17.0809Y-2.8142
X17.4722Y-2.7311
X19.8915Y-3.5079
X19.8915Y-3.8829
X20.2915Y-3.5079
X20.2915Y-3.8829
X7.2994Y-2.3934
X7.6906Y-2.4766
X16.3477Y-2.9697
X16.7389Y-2.8866
X6.9194Y-4.6139
X7.3106Y-4.6971
X10.423Y-5.196
X10.823Y-5.196
X4.422Y-3.508
X4.822Y-3.508
X15.4343Y-4.6971
X15.8256Y-4.6139
X6.5644Y-2.2394
X6.9556Y-2.3226
X14.702Y-4.8526
X15.0933Y-4.7694
X17.3591Y-1.9252
X17.7591Y-1.9252
X7.6534Y-4.7714
X8.0446Y-4.8546
X18.11Y-2.008
X18.51Y-2.008
X19.329Y-5.198
X19.729Y-5.198
X10.424Y-3.696
X10.824Y-3.696
X5.4534Y-4.3024
X5.8446Y-4.3856
X11.923Y-4.446
X12.323Y-4.446
X18.673Y-3.5098
X19.073Y-3.5098
X6.0074Y-2.8864
X6.3986Y-2.9696
X6.2364Y-5.234
X6.6276Y-5.3172
X3.486Y-2.009
X3.886Y-2.009
T12
X9.2352Y-2.1054
X9.2352Y-3.011
X10.0423Y-2.1054
X10.0423Y-3.011
T13
X19.8169Y-3.4127
X19.8169Y-4.3527
T14
X3.1235Y-3.9834
X4.0605Y-3.9834
X7.314Y-5.183
X8.2306Y-5.3778
X14.7896Y-5.32
X15.7061Y-5.1252
X19.623Y-3.2323
X20.56Y-3.2323
T15
X20.4169Y-3.4127
X20.4169Y-4.3527
T16
X7.495Y-2.435
X16.5433Y-2.9281
X7.115Y-4.6555
X10.623Y-5.196
X4.622Y-3.508
X15.6299Y-4.6555
X6.76Y-2.281
X14.8976Y-4.811
X17.5591Y-1.9252
X7.849Y-4.813
X18.31Y-2.008
X19.529Y-5.198
X10.624Y-3.696
X5.649Y-4.344
X12.123Y-4.446
X18.873Y-3.5098
X6.203Y-2.928
X6.432Y-5.2756
X3.686Y-2.009
X4.624Y-2.759
X3.685Y-2.76
X5.407Y-5.137
X7.67Y-3.24
X4.81Y-4.26
X16.7165Y-2.126
X4.341Y-5.009
X6.936Y-3.083
X16.3622Y-4.5
X5.185Y-1.927
X17.338Y-5.135
X19.623Y-2.76
X19.998Y-1.927
X6.927Y-3.849
X5.46Y-3.537
X18.124Y-2.759
X17.2874Y-3.5354
X15.9843Y-2.2815
X17.935Y-4.2598
X9.083Y-6.212
X15.0748Y-3.2402
X15.0866Y-4.0039
X11.373Y-5.196
X16.5512Y-3.6929
X18.873Y-2.759
X4.436Y-2.009
X12.123Y-5.195
X19.06Y-2.008
X3.216Y-5.197
X3.1235Y-4.5834
X3.592Y-4.259
X4.0605Y-4.5834
X8.2283Y-2.592
X7.1893Y-5.7699
X7.715Y-5.55
X8.1058Y-5.9647
X6.027Y-2.124
X14.9143Y-5.9069
X15.3051Y-5.4921
X15.8308Y-5.712
X18.9665Y-4.2598
X6.192Y-3.693
X15.8189Y-3.8504
X10.622Y-4.446
X18.124Y-3.5089
X17.095Y-4.344
X15.251Y-2.437
X12.123Y-3.695
X14.5167Y-2.5925
X10.624Y-5.946
X7.661Y-4.006
X13.665Y-6.212
X11.375Y-4.446
X11.374Y-5.946
X6.382Y-4.5
X11.374Y-3.696
X15.8091Y-3.0837
X3.5925Y-3.508
X5.469Y-2.773
X12.125Y-5.946
X17.2766Y-2.7726
X19.623Y-3.8323
X20.0915Y-3.5079
X20.0915Y-3.8829
X20.56Y-3.8323
T0
M30
