M48
; DRILL file {KiCad (5.1.6)-1} date 07/05/20 16:42:48
; FORMAT={-:-/ absolute / inch / decimal}
; #@! TF.CreationDate,2020-07-05T16:42:48+02:00
; #@! TF.GenerationSoftware,Kicad,Pcbnew,(5.1.6)-1
FMAT,2
INCH
T1C0.0157
T2C0.0300
T3C0.0315
T4C0.0320
T5C0.0409
T6C0.0430
T7C0.0512
T8C0.0591
T9C0.0866
T10C0.0945
T11C0.0669
T12C0.1102
T13C0.1200
T14C0.1201
T15C0.1570
T16C0.1575
%
G90
G05
T1
X3.5305Y-3.8198
X3.5855Y-3.9937
X3.7844Y-3.1635
X3.7854Y-2.3682
X3.8691Y-3.1635
X3.874Y-2.3682
X4.5394Y-2.3682
X4.5709Y-4.6281
X4.6161Y-2.3682
X4.627Y-4.6842
X4.7106Y-3.8584
X4.7313Y-3.1635
X4.7953Y-3.8584
X4.8022Y-3.1635
X5.3238Y-2.3682
X5.438Y-2.3682
X5.565Y-3.9696
X5.5679Y-3.2049
X5.6486Y-3.2049
X5.6683Y-3.9696
X5.6801Y-4.7797
X5.7943Y-4.7797
X6.125Y-2.5513
X6.2077Y-2.5513
X6.2835Y-4.1173
X6.3061Y-3.3584
X6.3789Y-4.1173
X6.3819Y-3.3584
X6.4744Y-4.9598
X6.5669Y-4.9598
X6.8602Y-2.7167
X6.9449Y-2.7167
X7.0256Y-3.5188
X7.0305Y-4.3043
X7.122Y-3.5188
X7.1339Y-4.3043
X7.31Y-5.0818
X7.437Y-5.0818
X7.5866Y-2.8948
X7.6969Y-2.8948
X7.7717Y-3.6704
X7.7785Y-4.4802
X7.8494Y-3.6704
X7.8809Y-4.4802
X8.1215Y-4.7712
X8.2442Y-4.771
X8.3543Y-5.8706
X8.3544Y-5.7791
X8.3963Y-5.1509
X8.4742Y-5.2288
X9.2205Y-5.0907
X9.3406Y-3.7196
X9.4705Y-3.7196
X10.1289Y-3.6301
X10.2156Y-4.6085
X10.2323Y-2.9293
X10.7136Y-5.5277
X10.7165Y-4.8259
X10.7168Y-4.87
X10.7264Y-4.0149
X10.7264Y-4.073
X10.7343Y-3.31
X10.7343Y-3.3515
X10.7698Y-2.9126
X10.8051Y-4.0149
X10.8071Y-3.3515
X10.8071Y-4.8259
X10.8159Y-5.5277
X10.8917Y-3.3092
X11.2635Y-4.0149
X11.4774Y-5.3112
X11.4803Y-5.5277
X11.4833Y-3.6222
X11.56Y-5.3112
X11.5856Y-3.323
X11.6496Y-3.259
X12.3051Y-4.87
X12.4081Y-4.8268
X12.4104Y-3.4224
X12.436Y-4.0149
X12.436Y-4.073
X12.437Y-5.5277
X13.3425Y-5.0956
X13.3888Y-2.0287
X13.4291Y-5.5757
X14.0Y-1.9047
X14.4587Y-4.9411
X14.9055Y-4.4549
X15.0315Y-4.4558
X15.065Y-5.1895
X15.188Y-3.697
X15.1926Y-5.7641
X15.1939Y-2.8988
X15.2815Y-3.697
X15.3091Y-2.8988
X15.375Y-5.0946
X15.8346Y-4.9802
X15.9193Y-3.5336
X15.9488Y-2.7255
X15.9596Y-4.259
X16.0256Y-3.5336
X16.0551Y-4.259
X16.065Y-2.7255
X16.0694Y-5.5044
X16.2657Y-4.9802
X16.3602Y-4.9804
X16.6683Y-3.3692
X16.6998Y-2.5533
X16.7008Y-4.0326
X16.7539Y-3.3692
X16.7746Y-4.0326
X16.8071Y-2.5533
X17.1998Y-4.7915
X17.2697Y-3.9332
X17.3307Y-4.7925
X17.3927Y-2.4303
X17.4045Y-3.197
X17.4902Y-3.197
X17.5089Y-3.9332
X17.5325Y-2.4303
X17.9518Y-4.7216
X18.062Y-3.9332
X18.1014Y-4.7216
X18.1713Y-3.9332
X18.2293Y-3.1862
X18.2736Y-2.4312
X18.314Y-3.1862
X18.3287Y-4.9175
X18.4124Y-2.4312
X18.4193Y-4.8269
X18.812Y-3.9332
X18.9301Y-3.9332
X18.9803Y-3.1852
X19.0285Y-2.4312
X19.0591Y-3.1852
X19.1555Y-2.4312
X6.088Y-5.3046
X6.1147Y-5.1791
X2.8865Y-5.1668
X2.8865Y-5.2952
X11.796Y-5.1654
X11.796Y-5.2938
X12.8818Y-5.822
X12.9009Y-5.7761
X12.9009Y-5.8679
X12.9468Y-5.757
X12.9468Y-5.8869
X12.9927Y-5.7761
X12.9927Y-5.8679
X13.0118Y-5.822
X18.733Y-1.9843
X18.733Y-2.1127
X14.4586Y-1.9243
X14.4777Y-1.8784
X14.4777Y-1.9703
X14.5236Y-1.8594
X14.5236Y-1.9893
X14.5695Y-1.8784
X14.5695Y-1.9703
X14.5886Y-1.9243
X14.8318Y-2.5168
X14.8515Y-2.6092
X16.5256Y-5.3692
X16.5446Y-5.3233
X16.5446Y-5.4152
X16.5905Y-5.3043
X16.5905Y-5.4342
X16.6365Y-5.3233
X16.6365Y-5.4152
X16.6555Y-5.3692
X3.2606Y-3.4768
X3.2606Y-3.6052
X15.308Y-4.6948
X15.3347Y-4.8203
X7.3242Y-4.0369
X7.3509Y-3.9113
X11.7999Y-5.9134
X11.7999Y-6.0418
X7.2247Y-3.995
X7.2444Y-3.9026
X16.2964Y-2.2018
X16.3161Y-2.2942
X16.1232Y-3.0089
X16.1428Y-3.1013
X5.6904Y-2.1511
X5.7171Y-2.0255
X5.9491Y-4.495
X5.9688Y-4.4026
X18.4456Y-3.4965
X18.4456Y-3.591
X15.6623Y-2.3208
X15.689Y-2.4463
X7.9728Y-3.3886
X7.9924Y-3.2962
X6.7365Y-5.4242
X6.7562Y-5.3317
X16.135Y-3.7727
X16.1546Y-3.8651
X11.6976Y-5.9296
X11.6976Y-6.0241
X11.048Y-5.1654
X11.048Y-5.2938
X19.1976Y-5.1654
X19.1976Y-5.2938
X6.588Y-3.8794
X6.6147Y-3.7539
X19.859Y-5.1855
X19.859Y-5.28
X18.5519Y-3.4798
X18.5519Y-3.6082
X9.7322Y-5.822
X9.7513Y-5.7761
X9.7513Y-5.8679
X9.7972Y-5.757
X9.7972Y-5.8869
X9.8431Y-5.7761
X9.8431Y-5.8679
X9.8622Y-5.822
X5.8675Y-2.9581
X5.8942Y-2.8326
X13.4072Y-6.4242
X13.498Y-6.515
X5.1385Y-4.2485
X5.1385Y-4.343
X16.3946Y-2.1633
X16.4213Y-2.2889
X4.292Y-3.4804
X4.292Y-3.6087
X16.0403Y-4.5413
X16.067Y-4.6668
X11.0519Y-4.4168
X11.0519Y-4.5452
X5.5086Y-1.9138
X5.5086Y-2.0083
X7.961Y-4.1525
X7.9806Y-4.0601
X17.0326Y-2.0443
X17.0523Y-2.1368
X20.33Y-1.9125
X20.33Y-2.007
X17.2369Y-1.8977
X17.2369Y-2.026
X4.9535Y-3.4945
X4.9535Y-3.589
X19.1936Y-3.4965
X19.1936Y-3.591
X15.3909Y-3.1624
X15.4105Y-3.2549
X16.8594Y-2.8514
X16.879Y-2.9438
X12.4495Y-5.1816
X12.4495Y-5.276
X14.5757Y-4.8523
X14.6024Y-4.9778
X16.6783Y-4.4223
X16.6979Y-4.5147
X7.0594Y-2.4281
X7.079Y-2.3357
X2.6476Y-1.7275
X2.6666Y-1.6816
X2.6666Y-1.7734
X2.7126Y-1.6625
X2.7126Y-1.7925
X2.7585Y-1.6816
X2.7585Y-1.7734
X2.7775Y-1.7275
X10.296Y-4.4168
X10.296Y-4.5452
X16.2214Y-2.9704
X16.2481Y-3.0959
X14.4566Y-3.6566
X14.4757Y-3.6107
X14.4757Y-3.7026
X14.5216Y-3.5917
X14.5216Y-3.7216
X14.5675Y-3.6107
X14.5675Y-3.7026
X14.5866Y-3.6566
X19.667Y-1.8978
X19.667Y-2.0262
X14.6276Y-5.5414
X14.6543Y-5.667
X17.6035Y-3.4538
X17.6231Y-3.5462
X14.9261Y-2.4783
X14.9528Y-2.6038
X5.1234Y-3.5684
X5.1501Y-3.4428
X18.6346Y-4.2288
X18.6346Y-4.3572
X6.4226Y-2.3085
X6.4493Y-2.183
X14.7647Y-4.0452
X14.7914Y-4.1707
X4.0086Y-1.9965
X4.0086Y-2.091
X6.6814Y-4.6446
X6.7011Y-4.5522
X4.0165Y-2.7485
X4.0165Y-2.843
X14.1938Y-2.6318
X14.2205Y-2.7574
X6.4924Y-3.8415
X6.5121Y-3.7491
X3.355Y-2.7284
X3.355Y-2.8567
X10.9456Y-5.1816
X10.9456Y-5.276
X9.2586Y-6.5026
X9.3254Y-6.4358
X10.9456Y-4.4335
X10.9456Y-4.528
X16.8673Y-3.6152
X16.8869Y-3.7076
X19.9456Y-2.7485
X19.9456Y-2.843
X7.3321Y-3.2692
X7.3588Y-3.1436
X17.4106Y-4.2648
X17.4302Y-4.3572
X17.8039Y-2.7284
X17.8039Y-2.8567
X12.3917Y-1.8062
X12.4107Y-1.7603
X12.4107Y-1.8522
X12.4567Y-1.7413
X12.4567Y-1.8712
X12.5026Y-1.7603
X12.5026Y-1.8522
X12.5216Y-1.8062
X4.292Y-2.7268
X4.292Y-2.8552
X16.9537Y-2.8129
X16.9803Y-2.9385
X8.1574Y-3.6566
X8.1765Y-3.6107
X8.1765Y-3.7026
X8.2224Y-3.5917
X8.2224Y-3.7216
X8.2683Y-3.6107
X8.2683Y-3.7026
X8.2874Y-3.6566
X6.5998Y-3.1117
X6.6265Y-2.9861
X7.6004Y-5.863
X7.6928Y-5.8827
X7.7956Y-2.5816
X7.8152Y-2.4892
X10.2264Y-1.8062
X10.2454Y-1.7603
X10.2454Y-1.8522
X10.2913Y-1.7413
X10.2913Y-1.8712
X10.3373Y-1.7603
X10.3373Y-1.8522
X10.3563Y-1.8062
X10.2999Y-3.6654
X10.2999Y-3.7938
X5.8557Y-3.7219
X5.8824Y-3.5964
X15.5641Y-2.3593
X15.5838Y-2.4517
X7.1589Y-2.466
X7.1856Y-2.3405
X5.3124Y-4.3755
X5.3391Y-4.2499
X16.2292Y-3.7342
X16.2559Y-3.8597
X11.6976Y-5.1816
X11.6976Y-5.276
X4.1109Y-1.9804
X4.1109Y-2.1087
X17.8826Y-1.9099
X17.8826Y-2.0044
X3.5481Y-4.5919
X3.6426Y-4.5919
X3.3629Y-1.9804
X3.3629Y-2.1087
X11.6976Y-4.4335
X11.6976Y-4.528
X4.67Y-4.9965
X4.67Y-5.091
X18.6356Y-1.9995
X18.6356Y-2.094
X19.1936Y-2.7455
X19.1936Y-2.84
X20.593Y-4.1875
X20.593Y-4.282
X18.2645Y-4.2469
X18.2645Y-4.3414
X11.0519Y-3.6654
X11.0519Y-3.7938
X8.1594Y-1.9243
X8.1785Y-1.8784
X8.1785Y-1.9703
X8.2244Y-1.8594
X8.2244Y-1.9893
X8.2703Y-1.8784
X8.2703Y-1.9703
X8.2894Y-1.9243
X17.8039Y-3.4804
X17.8039Y-3.6087
X2.6476Y-5.3692
X2.6666Y-5.3233
X2.6666Y-5.4152
X2.7126Y-5.3043
X2.7126Y-5.4342
X2.7585Y-5.3233
X2.7585Y-5.4152
X2.7775Y-5.3692
X5.1313Y-2.8007
X5.158Y-2.6751
X16.9655Y-3.5767
X16.9922Y-3.7022
X14.7529Y-3.2814
X14.7796Y-3.407
X10.5236Y-2.1212
X10.6181Y-2.1212
X17.609Y-3.154
X17.628Y-3.1081
X17.628Y-3.1999
X17.6739Y-3.089
X17.6739Y-3.219
X17.7199Y-3.1081
X17.7199Y-3.1999
X17.7389Y-3.154
X11.7999Y-3.6654
X11.7999Y-3.7938
X10.5236Y-2.2393
X10.6181Y-2.2393
X6.777Y-4.6826
X6.8037Y-4.557
X10.2999Y-5.9174
X10.2999Y-6.0457
X7.4176Y-4.8021
X7.4373Y-4.7097
X6.3271Y-2.2706
X6.3467Y-2.1782
X3.548Y-5.1816
X3.548Y-5.276
X11.6976Y-3.6816
X11.6976Y-3.776
X12.4495Y-3.6816
X12.4495Y-3.776
X5.7129Y-5.2864
X5.7326Y-5.1939
X15.2137Y-4.7333
X15.2334Y-4.8257
X15.946Y-4.5798
X15.9657Y-4.6722
X11.7999Y-4.4174
X11.7999Y-4.5457
X15.497Y-3.8917
X15.5236Y-4.0172
X19.296Y-4.2485
X19.296Y-4.343
X8.78Y-6.05
X8.8708Y-5.9592
X20.6594Y-1.7275
X20.6785Y-1.6816
X20.6785Y-1.7734
X20.7244Y-1.6625
X20.7244Y-1.7925
X20.7703Y-1.6816
X20.7703Y-1.7734
X20.7894Y-1.7275
X4.481Y-4.2323
X4.481Y-4.3607
X12.4495Y-5.9335
X12.4495Y-6.028
X17.0088Y-5.1751
X17.0355Y-5.3007
X5.0066Y-3.154
X5.0256Y-3.1081
X5.0256Y-3.1999
X5.0716Y-3.089
X5.0716Y-3.219
X5.1175Y-3.1081
X5.1175Y-3.1999
X5.1365Y-3.154
X15.4852Y-3.1239
X15.5118Y-3.2495
X19.353Y-3.483
X19.353Y-3.6114
X6.0447Y-4.5329
X6.0714Y-4.4074
X16.7726Y-4.3838
X16.7992Y-4.5093
X4.0125Y-4.9804
X4.0125Y-5.1087
X19.2999Y-2.7308
X19.2999Y-2.8592
X8.1499Y-4.9586
X8.1696Y-4.8662
X4.9535Y-2.7445
X4.9535Y-2.839
X5.7602Y-3.684
X5.7798Y-3.5916
X4.859Y-1.8977
X4.859Y-2.026
X10.9495Y-3.6816
X10.9495Y-3.776
X17.5917Y-2.69
X17.6113Y-2.7824
X19.3826Y-1.9985
X19.3826Y-2.093
X10.9495Y-5.9345
X10.9495Y-6.029
X10.2999Y-5.1668
X10.2999Y-5.2952
X17.6586Y-5.0522
X17.6783Y-5.1446
X17.607Y-4.2284
X17.607Y-4.3567
X3.5243Y-3.9304
X3.6527Y-3.9304
X15.9677Y-5.34
X15.9874Y-5.4324
X11.0519Y-5.9168
X11.0519Y-6.0452
X20.6594Y-5.3692
X20.6785Y-5.3233
X20.6785Y-5.4152
X20.7244Y-5.3043
X20.7244Y-5.4342
X20.7703Y-5.3233
X20.7703Y-5.4152
X20.7894Y-5.3692
X17.985Y-1.9843
X17.985Y-2.1127
X13.8876Y-5.9696
X13.9544Y-6.0364
X10.5991Y-2.8292
X10.6936Y-2.8292
X4.7146Y-5.3692
X4.7336Y-5.3233
X4.7336Y-5.4152
X4.7795Y-5.3043
X4.7795Y-5.4342
X4.8254Y-5.3233
X4.8254Y-5.4152
X4.8445Y-5.3692
X7.5132Y-4.84
X7.5399Y-4.7145
X18.5519Y-2.7284
X18.5519Y-2.8567
X8.5279Y-2.7391
X8.5475Y-2.6467
X5.0644Y-5.1668
X5.0911Y-5.0413
X4.7606Y-1.9965
X4.7606Y-2.091
X7.8912Y-2.6196
X7.9178Y-2.494
X7.7257Y-5.2136
X7.8513Y-5.2403
X3.922Y-3.4965
X3.922Y-3.591
X5.768Y-2.9202
X5.7877Y-2.8278
X15.4027Y-3.9302
X15.4224Y-4.0226
X6.5043Y-3.0738
X6.5239Y-2.9813
X18.4456Y-2.7445
X18.4456Y-2.839
X7.2365Y-3.2312
X7.2562Y-3.1388
X12.4495Y-4.4335
X12.4495Y-4.528
T2
X12.8504Y-1.6094
X13.0472Y-1.6094
X10.0354Y-1.7078
X10.0354Y-1.8062
X10.0354Y-1.9047
T3
X6.0598Y-5.4375
X6.1429Y-5.0462
X2.8865Y-5.031
X2.8865Y-5.431
X11.796Y-5.0296
X11.796Y-5.4296
X18.733Y-1.8485
X18.733Y-2.2485
X14.7999Y-2.3666
X14.8831Y-2.7578
X3.2606Y-3.341
X3.2606Y-3.741
X15.2797Y-4.5619
X15.3629Y-4.9532
X7.296Y-4.1697
X7.3791Y-3.7785
X11.7999Y-5.7776
X11.7999Y-6.1776
X7.1931Y-4.1437
X7.2763Y-3.7524
X16.2645Y-2.0516
X16.3477Y-2.4429
X16.0913Y-2.8587
X16.1744Y-3.25
X5.6621Y-2.2839
X5.7453Y-1.8927
X5.9175Y-4.6437
X6.0007Y-4.2524
X18.4456Y-3.343
X18.4456Y-3.743
X15.6341Y-2.1879
X15.7172Y-2.5792
X7.9412Y-3.5373
X8.0243Y-3.146
X6.7049Y-5.5728
X6.7881Y-5.1816
X16.1031Y-3.6225
X16.1862Y-4.0138
X11.6976Y-5.776
X11.6976Y-6.176
X11.048Y-5.0296
X11.048Y-5.4296
X19.1976Y-5.0296
X19.1976Y-5.4296
X6.5598Y-4.0123
X6.6429Y-3.621
X19.859Y-5.032
X19.859Y-5.432
X18.5519Y-3.344
X18.5519Y-3.744
X5.8393Y-3.091
X5.9225Y-2.6997
X13.3112Y-6.3282
X13.594Y-6.611
X5.1385Y-4.0949
X5.1385Y-4.4949
X16.3664Y-2.0304
X16.4495Y-2.4217
X4.292Y-3.3445
X4.292Y-3.7445
X16.012Y-4.4084
X16.0952Y-4.7997
X11.0519Y-4.281
X11.0519Y-4.681
X5.5086Y-1.7603
X5.5086Y-2.1603
X7.9294Y-4.3012
X8.0125Y-3.9099
X17.0007Y-1.8941
X17.0839Y-2.2854
X20.33Y-1.759
X20.33Y-2.159
X17.2369Y-1.7619
X17.2369Y-2.1619
X4.9535Y-3.341
X4.9535Y-3.741
X19.1936Y-3.343
X19.1936Y-3.743
X15.359Y-3.0123
X15.4421Y-3.4035
X16.8275Y-2.7012
X16.9106Y-3.0925
X12.4495Y-5.028
X12.4495Y-5.428
X14.5475Y-4.7194
X14.6306Y-5.1107
X16.6464Y-4.2721
X16.7295Y-4.6634
X7.0278Y-2.5767
X7.1109Y-2.1855
X10.296Y-4.281
X10.296Y-4.681
X16.1931Y-2.8375
X16.2763Y-3.2288
X19.667Y-1.762
X19.667Y-2.162
X14.5994Y-5.4085
X14.6825Y-5.7998
X17.5716Y-3.3036
X17.6547Y-3.6949
X14.8979Y-2.3454
X14.981Y-2.7367
X5.0952Y-3.7012
X5.1784Y-3.31
X18.6346Y-4.093
X18.6346Y-4.493
X6.3944Y-2.4414
X6.4776Y-2.0501
X14.7364Y-3.9123
X14.8196Y-4.3036
X4.0086Y-1.843
X4.0086Y-2.243
X6.6498Y-4.7933
X6.733Y-4.402
X4.0165Y-2.5949
X4.0165Y-2.9949
X14.1656Y-2.499
X14.2487Y-2.8902
X6.4609Y-3.9901
X6.544Y-3.5989
X3.355Y-2.5926
X3.355Y-2.9926
X10.9456Y-5.028
X10.9456Y-5.428
X9.1512Y-6.6101
X9.434Y-6.3272
X10.9456Y-4.28
X10.9456Y-4.68
X16.8354Y-3.465
X16.9185Y-3.8563
X19.9456Y-2.5949
X19.9456Y-2.9949
X7.3039Y-3.402
X7.387Y-3.0108
X17.3787Y-4.1146
X17.4618Y-4.5059
X17.8039Y-2.5926
X17.8039Y-2.9926
X4.292Y-2.591
X4.292Y-2.991
X16.9254Y-2.6801
X17.0086Y-3.0713
X6.5716Y-3.2445
X6.6547Y-2.8533
X7.4502Y-5.8311
X7.8415Y-5.9143
X7.764Y-2.7303
X7.8472Y-2.339
X10.2999Y-3.5296
X10.2999Y-3.9296
X5.8275Y-3.8548
X5.9106Y-3.4635
X15.5322Y-2.2091
X15.6154Y-2.6004
X7.1306Y-2.5989
X7.2138Y-2.2076
X5.2842Y-4.5083
X5.3673Y-4.1171
X16.201Y-3.6013
X16.2842Y-3.9926
X11.6976Y-5.028
X11.6976Y-5.428
X4.1109Y-1.8445
X4.1109Y-2.2445
X17.8826Y-1.7564
X17.8826Y-2.1564
X3.3945Y-4.5919
X3.7945Y-4.5919
X3.3629Y-1.8445
X3.3629Y-2.2445
X11.6976Y-4.28
X11.6976Y-4.68
X4.67Y-4.843
X4.67Y-5.243
X18.6356Y-1.8459
X18.6356Y-2.2459
X19.1936Y-2.592
X19.1936Y-2.992
X20.593Y-4.0355
X20.593Y-4.4355
X18.2645Y-4.0933
X18.2645Y-4.4933
X11.0519Y-3.5296
X11.0519Y-3.9296
X17.8039Y-3.3445
X17.8039Y-3.7445
X5.1031Y-2.9335
X5.1862Y-2.5423
X16.9372Y-3.4438
X17.0204Y-3.8351
X14.7246Y-3.1486
X14.8078Y-3.5398
X10.3701Y-2.1212
X10.7701Y-2.1212
X11.7999Y-3.5296
X11.7999Y-3.9296
X10.3701Y-2.2393
X10.7701Y-2.2393
X6.7487Y-4.8154
X6.8319Y-4.4242
X10.2999Y-5.7816
X10.2999Y-6.1816
X7.386Y-4.9508
X7.4692Y-4.5595
X6.2955Y-2.4193
X6.3787Y-2.028
X3.548Y-5.028
X3.548Y-5.428
X11.6976Y-3.528
X11.6976Y-3.928
X12.4495Y-3.528
X12.4495Y-3.928
X5.6813Y-5.435
X5.7645Y-5.0438
X15.1818Y-4.5831
X15.265Y-4.9744
X15.9141Y-4.4296
X15.9973Y-4.8208
X11.7999Y-4.2816
X11.7999Y-4.6816
X15.4687Y-3.7588
X15.5519Y-4.1501
X19.296Y-4.0949
X19.296Y-4.4949
X8.684Y-6.146
X8.9668Y-5.8632
X4.481Y-4.0965
X4.481Y-4.4965
X12.4495Y-5.78
X12.4495Y-6.18
X16.9805Y-5.0423
X17.0637Y-5.4335
X15.4569Y-2.9911
X15.5401Y-3.3823
X19.353Y-3.3472
X19.353Y-3.7472
X6.0165Y-4.6658
X6.0996Y-4.2745
X16.7443Y-4.2509
X16.8275Y-4.6422
X4.0125Y-4.8445
X4.0125Y-5.2445
X19.2999Y-2.595
X19.2999Y-2.995
X8.1183Y-5.1073
X8.2015Y-4.716
X4.9535Y-2.591
X4.9535Y-2.991
X5.7286Y-3.8327
X5.8117Y-3.4414
X4.859Y-1.7619
X4.859Y-2.1619
X10.9495Y-3.528
X10.9495Y-3.928
X17.5598Y-2.5398
X17.6429Y-2.9311
X19.3826Y-1.8449
X19.3826Y-2.2449
X10.9495Y-5.781
X10.9495Y-6.181
X10.2999Y-5.031
X10.2999Y-5.431
X17.6267Y-4.902
X17.7099Y-5.2933
X17.607Y-4.0926
X17.607Y-4.4926
X3.3885Y-3.9304
X3.7885Y-3.9304
X15.9358Y-5.1898
X16.019Y-5.5811
X11.0519Y-5.781
X11.0519Y-6.181
X17.985Y-1.8485
X17.985Y-2.2485
X13.779Y-5.861
X14.0618Y-6.1438
X10.4456Y-2.8292
X10.8456Y-2.8292
X7.485Y-4.9729
X7.5681Y-4.5816
X18.5519Y-2.5926
X18.5519Y-2.9926
X8.4963Y-2.8878
X8.5794Y-2.4965
X5.0361Y-5.2997
X5.1193Y-4.9084
X4.7606Y-1.843
X4.7606Y-2.243
X7.8629Y-2.7524
X7.9461Y-2.3612
X7.5929Y-5.1853
X7.9841Y-5.2685
X3.922Y-3.343
X3.922Y-3.743
X5.7364Y-3.0689
X5.8196Y-2.6776
X15.3708Y-3.78
X15.454Y-4.1712
X6.4727Y-3.2224
X6.5558Y-2.8312
X18.4456Y-2.591
X18.4456Y-2.991
X7.2049Y-3.3799
X7.2881Y-2.9886
X12.4495Y-4.28
X12.4495Y-4.68
T4
X9.4888Y-3.0306
X9.5888Y-3.0306
X9.6888Y-3.0306
X9.7888Y-3.0306
T5
X6.8455Y-3.2682
X6.9433Y-3.289
X15.8116Y-4.0564
X15.9094Y-4.0356
X15.8017Y-3.2897
X15.8995Y-3.2689
X6.6695Y-2.4662
X6.7673Y-2.487
X15.2978Y-5.6982
X15.3956Y-5.6774
X16.5439Y-3.8989
X16.6417Y-3.8781
X7.0245Y-4.8407
X7.1223Y-4.8615
X16.7092Y-2.332
X16.807Y-2.3112
X17.0877Y-4.55
X17.1855Y-4.5292
X11.325Y-4.646
X11.425Y-4.646
X4.76Y-4.46
X4.86Y-4.46
X6.1125Y-3.1132
X6.2103Y-3.134
X15.0793Y-4.21
X15.1771Y-4.1892
X3.542Y-4.459
X3.642Y-4.459
X15.2437Y-2.643
X15.3415Y-2.6222
X13.7711Y-6.3888
X13.8418Y-6.3181
X18.823Y-3.7098
X18.923Y-3.7098
X17.5091Y-2.1252
X17.6091Y-2.1252
X18.074Y-2.959
X18.174Y-2.959
X19.479Y-5.398
X19.579Y-5.398
X12.075Y-6.146
X12.175Y-6.146
X5.3785Y-2.9582
X5.4763Y-2.979
X19.01Y-2.208
X19.11Y-2.208
X15.9769Y-2.4875
X16.0747Y-2.4667
X6.3415Y-5.4608
X6.4393Y-5.4816
X14.8903Y-5.017
X14.9881Y-4.9963
X19.573Y-2.96
X19.673Y-2.96
X3.166Y-5.397
X3.266Y-5.397
X3.5425Y-3.708
X3.6425Y-3.708
X15.0675Y-3.4462
X15.1653Y-3.4254
X19.948Y-2.127
X20.048Y-2.127
X14.5094Y-2.7985
X14.6072Y-2.7778
X4.386Y-2.209
X4.486Y-2.209
X20.0415Y-3.6829
X20.0415Y-3.7079
X20.1415Y-3.6829
X20.1415Y-3.7079
X10.574Y-6.146
X10.674Y-6.146
X11.324Y-6.146
X11.424Y-6.146
X17.2692Y-2.9787
X17.3671Y-2.9579
X3.635Y-2.96
X3.735Y-2.96
X10.573Y-5.396
X10.673Y-5.396
X4.291Y-5.209
X4.391Y-5.209
X10.574Y-3.896
X10.674Y-3.896
X5.3695Y-3.7222
X5.4673Y-3.743
X5.135Y-2.127
X5.235Y-2.127
X12.073Y-4.646
X12.173Y-4.646
X7.7585Y-4.9982
X7.8563Y-5.019
X18.074Y-3.7089
X18.174Y-3.7089
X18.26Y-2.208
X18.36Y-2.208
X15.6226Y-4.8615
X15.7204Y-4.8407
X12.073Y-5.395
X12.173Y-5.395
X17.885Y-4.4598
X17.985Y-4.4598
X5.3165Y-5.3222
X5.4143Y-5.343
X6.8365Y-4.0342
X6.9343Y-4.055
X4.572Y-3.708
X4.672Y-3.708
X7.5795Y-3.4252
X7.6773Y-3.446
X11.323Y-5.396
X11.423Y-5.396
X5.5585Y-4.5292
X5.6563Y-4.55
X4.574Y-2.959
X4.674Y-2.959
X18.823Y-2.959
X18.923Y-2.959
X8.9062Y-6.3181
X8.9769Y-6.3888
X17.3307Y-5.341
X17.4285Y-5.3202
X10.572Y-4.646
X10.672Y-4.646
X6.1015Y-3.8782
X6.1993Y-3.899
X11.324Y-3.896
X11.424Y-3.896
X7.6245Y-5.7352
X7.7223Y-5.756
X7.4045Y-2.6202
X7.5023Y-2.641
X16.536Y-3.1342
X16.6338Y-3.1134
X3.636Y-2.209
X3.736Y-2.209
X17.2801Y-3.7415
X17.3779Y-3.7207
X7.5705Y-4.1912
X7.6683Y-4.212
X6.2915Y-4.6852
X6.3893Y-4.706
X5.9365Y-2.3092
X6.0343Y-2.33
X16.3549Y-4.706
X16.4527Y-4.6852
X12.073Y-3.895
X12.173Y-3.895
X18.9165Y-4.4598
X19.0165Y-4.4598
X8.1379Y-2.7772
X8.2357Y-2.798
T6
X11.072Y-1.7287
X11.072Y-1.8287
X11.072Y-1.9287
X11.072Y-2.0287
X11.072Y-2.1287
X11.072Y-2.2287
X11.072Y-2.3287
X11.072Y-2.4287
X11.072Y-2.5287
X11.072Y-2.6287
X11.072Y-2.7287
X11.072Y-2.8287
X11.172Y-2.8287
X11.272Y-2.8287
X11.372Y-2.8287
X11.472Y-2.8287
X11.572Y-2.8287
X11.672Y-1.7287
X11.672Y-1.8287
X11.672Y-1.9287
X11.672Y-2.0287
X11.672Y-2.1287
X11.672Y-2.2287
X11.672Y-2.3287
X11.672Y-2.4287
X11.672Y-2.5287
X11.672Y-2.6287
X11.672Y-2.7287
X11.672Y-2.8287
T7
X12.811Y-1.7078
X13.0866Y-1.7078
T8
X14.9073Y-3.1735
X15.131Y-3.0237
X19.848Y-1.827
X20.098Y-1.727
X14.3492Y-2.5259
X14.573Y-2.3761
X4.286Y-1.909
X4.536Y-1.809
X19.9415Y-3.4079
X19.9915Y-4.0829
X20.1915Y-3.3079
X20.2415Y-3.9829
X10.474Y-5.846
X10.724Y-5.746
X11.224Y-5.846
X11.474Y-5.746
X17.1091Y-2.706
X17.3328Y-2.5562
X3.535Y-2.66
X3.785Y-2.56
X10.473Y-5.096
X10.723Y-4.996
X4.191Y-4.909
X4.441Y-4.809
X10.474Y-3.596
X10.724Y-3.496
X5.3341Y-3.408
X5.5994Y-3.3622
X5.035Y-1.827
X5.285Y-1.727
X11.973Y-4.346
X12.223Y-4.246
X7.7231Y-4.684
X7.9884Y-4.6382
X17.974Y-3.4089
X18.224Y-3.3089
X18.16Y-1.908
X18.41Y-1.808
X15.4624Y-4.5889
X15.6862Y-4.4391
X11.973Y-5.095
X12.223Y-4.995
X17.785Y-4.1598
X18.035Y-4.0598
X5.2811Y-5.008
X5.5464Y-4.9622
X6.8011Y-3.72
X7.0664Y-3.6742
X4.472Y-3.408
X4.722Y-3.308
X7.5441Y-3.111
X7.8094Y-3.0652
X11.223Y-5.096
X11.473Y-4.996
X5.5231Y-4.215
X5.7884Y-4.1692
X4.474Y-2.659
X4.724Y-2.559
X18.723Y-2.659
X18.973Y-2.559
X9.0476Y-6.0352
X9.2951Y-6.1413
X17.1705Y-5.0684
X17.3942Y-4.9186
X10.472Y-4.346
X10.722Y-4.246
X6.0661Y-3.564
X6.3314Y-3.5182
X11.224Y-3.596
X11.474Y-3.496
X7.5891Y-5.421
X7.8544Y-5.3752
X7.3691Y-2.306
X7.6344Y-2.2602
X16.3758Y-2.8615
X16.5995Y-2.7117
X3.536Y-1.909
X3.786Y-1.809
X17.1199Y-3.4688
X17.3436Y-3.319
X7.5351Y-3.877
X7.8004Y-3.8312
X6.2561Y-4.371
X6.5214Y-4.3252
X5.9011Y-1.995
X6.1664Y-1.9492
X16.1947Y-4.4334
X16.4184Y-4.2836
X11.973Y-3.595
X12.223Y-3.495
X18.8165Y-4.1598
X19.0665Y-4.0598
X8.1024Y-2.463
X8.3677Y-2.4172
X6.8101Y-2.954
X7.0754Y-2.9082
X15.6514Y-3.7838
X15.8751Y-3.634
X15.6415Y-3.017
X15.8653Y-2.8672
X6.6341Y-2.152
X6.8994Y-2.1062
X15.1376Y-5.4255
X15.3614Y-5.2757
X16.3837Y-3.6263
X16.6074Y-3.4765
X6.9891Y-4.5265
X7.2544Y-4.4807
X16.549Y-2.0594
X16.7728Y-1.9096
X16.9275Y-4.2774
X17.1512Y-4.1276
X11.225Y-4.346
X11.475Y-4.246
X4.66Y-4.16
X4.91Y-4.06
X6.0771Y-2.799
X6.3424Y-2.7532
X14.9191Y-3.9373
X15.1428Y-3.7875
X3.442Y-4.159
X3.692Y-4.059
X15.0835Y-2.3704
X15.3072Y-2.2206
X13.4882Y-6.2474
X13.5943Y-5.9999
X18.723Y-3.4098
X18.973Y-3.3098
X17.4091Y-1.8252
X17.6591Y-1.7252
X17.974Y-2.659
X18.224Y-2.559
X19.379Y-5.098
X19.629Y-4.998
X11.975Y-5.846
X12.225Y-5.746
X5.3431Y-2.644
X5.6084Y-2.5982
X18.91Y-1.908
X19.16Y-1.808
X15.8167Y-2.2149
X16.0405Y-2.0651
X6.3061Y-5.1466
X6.5714Y-5.1008
X14.7301Y-4.7444
X14.9539Y-4.5946
X19.473Y-2.66
X19.723Y-2.56
X3.066Y-5.097
X3.316Y-4.997
X3.4425Y-3.408
X3.6925Y-3.308
T9
X9.7972Y-5.822
X2.7126Y-1.7275
X14.5216Y-3.6566
X12.4567Y-1.8062
X8.2224Y-3.6566
X10.2913Y-1.8062
X8.2244Y-1.9243
X2.7126Y-5.3692
X17.6739Y-3.154
X20.7244Y-1.7275
X5.0716Y-3.154
X20.7244Y-5.3692
X4.7795Y-5.3692
X12.9468Y-5.822
X14.5236Y-1.9243
X16.5905Y-5.3692
T10
X10.0551Y-3.2236
X11.0Y-3.0464
X9.2283Y-3.2236
X11.748Y-3.0464
T11
X6.7314Y-3.8074
X7.1226Y-3.8906
X4.422Y-3.508
X4.822Y-3.508
X7.4744Y-3.1984
X7.8656Y-3.2816
X11.173Y-5.196
X11.573Y-5.196
X5.4534Y-4.3024
X5.8446Y-4.3856
X4.424Y-2.759
X4.824Y-2.759
X18.673Y-2.759
X19.073Y-2.759
X8.9416Y-6.0706
X9.2244Y-6.3534
X17.1424Y-5.1766
X17.5336Y-5.0934
X10.422Y-4.446
X10.822Y-4.446
X5.9964Y-3.6514
X6.3876Y-3.7346
X11.174Y-3.696
X11.574Y-3.696
X7.5194Y-5.5084
X7.9106Y-5.5916
X7.2994Y-2.3934
X7.6906Y-2.4766
X16.3477Y-2.9697
X16.7389Y-2.8866
X3.486Y-2.009
X3.886Y-2.009
X17.0918Y-3.577
X17.483Y-3.4939
X7.4654Y-3.9644
X7.8566Y-4.0476
X6.1864Y-4.4584
X6.5776Y-4.5416
X5.8314Y-2.0824
X6.2226Y-2.1656
X16.1666Y-4.5416
X16.5578Y-4.4584
X11.923Y-3.695
X12.323Y-3.695
X18.7665Y-4.2598
X19.1665Y-4.2598
X8.0327Y-2.5504
X8.424Y-2.6336
X6.7404Y-3.0414
X7.1316Y-3.1246
X15.6233Y-3.892
X16.0145Y-3.8088
X15.6134Y-3.1252
X16.0047Y-3.0421
X6.5644Y-2.2394
X6.9556Y-2.3226
X15.1095Y-5.5337
X15.5007Y-5.4505
X16.3556Y-3.7345
X16.7468Y-3.6513
X6.9194Y-4.6139
X7.3106Y-4.6971
X16.5209Y-2.1676
X16.9122Y-2.0844
X16.8994Y-4.3856
X17.2906Y-4.3024
X11.175Y-4.446
X11.575Y-4.446
X4.61Y-4.26
X5.01Y-4.26
X6.0074Y-2.8864
X6.3986Y-2.9696
X14.891Y-4.0455
X15.2822Y-3.9624
X3.392Y-4.259
X3.792Y-4.259
X15.0554Y-2.4786
X15.4466Y-2.3954
X13.5236Y-6.3534
X13.8064Y-6.0706
X18.673Y-3.5098
X19.073Y-3.5098
X17.3591Y-1.9252
X17.7591Y-1.9252
X17.924Y-2.759
X18.324Y-2.759
X19.329Y-5.198
X19.729Y-5.198
X11.925Y-5.946
X12.325Y-5.946
X5.2734Y-2.7314
X5.6646Y-2.8146
X18.86Y-2.008
X19.26Y-2.008
X15.7886Y-2.3231
X16.1799Y-2.2399
X6.2364Y-5.234
X6.6276Y-5.3172
X14.702Y-4.8526
X15.0933Y-4.7694
X19.423Y-2.76
X19.823Y-2.76
X3.016Y-5.197
X3.416Y-5.197
X3.3925Y-3.508
X3.7925Y-3.508
X14.8792Y-3.2817
X15.2704Y-3.1986
X19.798Y-1.927
X20.198Y-1.927
X14.3211Y-2.6341
X14.7124Y-2.5509
X4.236Y-2.009
X4.636Y-2.009
X19.8915Y-3.5079
X19.8915Y-3.8829
X20.2915Y-3.5079
X20.2915Y-3.8829
X10.424Y-5.946
X10.824Y-5.946
X11.174Y-5.946
X11.574Y-5.946
X17.0809Y-2.8142
X17.4722Y-2.7311
X3.485Y-2.76
X3.885Y-2.76
X10.423Y-5.196
X10.823Y-5.196
X4.141Y-5.009
X4.541Y-5.009
X10.424Y-3.696
X10.824Y-3.696
X5.2644Y-3.4954
X5.6556Y-3.5786
X4.985Y-1.927
X5.385Y-1.927
X11.923Y-4.446
X12.323Y-4.446
X7.6534Y-4.7714
X8.0446Y-4.8546
X17.924Y-3.5089
X18.324Y-3.5089
X18.11Y-2.008
X18.51Y-2.008
X15.4343Y-4.6971
X15.8256Y-4.6139
X11.923Y-5.195
X12.323Y-5.195
X17.735Y-4.2598
X18.135Y-4.2598
X5.2114Y-5.0954
X5.6026Y-5.1786
T12
X9.2352Y-2.1054
X9.2352Y-3.011
X10.0423Y-2.1054
X10.0423Y-3.011
T13
X19.8169Y-3.4127
X19.8169Y-4.3527
T14
X14.7896Y-5.32
X15.7061Y-5.1252
X3.1235Y-3.9834
X4.0605Y-3.9834
X19.623Y-3.2323
X20.56Y-3.2323
X7.314Y-5.183
X8.2306Y-5.3778
T15
X20.4169Y-3.4127
X20.4169Y-4.3527
T16
X19.06Y-2.008
X15.9843Y-2.2815
X6.432Y-5.2756
X14.8976Y-4.811
X19.623Y-2.76
X3.216Y-5.197
X3.5925Y-3.508
X15.0748Y-3.2402
X19.998Y-1.927
X14.5167Y-2.5925
X4.436Y-2.009
X19.623Y-3.8323
X20.0915Y-3.5079
X20.0915Y-3.8829
X20.56Y-3.8323
X10.624Y-5.946
X11.374Y-5.946
X17.2766Y-2.7726
X3.685Y-2.76
X10.623Y-5.196
X4.341Y-5.009
X10.624Y-3.696
X5.46Y-3.537
X5.185Y-1.927
X12.123Y-4.446
X7.849Y-4.813
X18.124Y-3.5089
X18.31Y-2.008
X15.6299Y-4.6555
X12.123Y-5.195
X17.935Y-4.2598
X5.407Y-5.137
X6.927Y-3.849
X4.622Y-3.508
X7.67Y-3.24
X11.373Y-5.196
X5.649Y-4.344
X4.624Y-2.759
X18.873Y-2.759
X9.083Y-6.212
X17.338Y-5.135
X10.622Y-4.446
X6.192Y-3.693
X11.374Y-3.696
X7.1893Y-5.7699
X7.715Y-5.55
X8.1058Y-5.9647
X7.495Y-2.435
X16.5433Y-2.9281
X3.686Y-2.009
X17.2874Y-3.5354
X7.661Y-4.006
X6.382Y-4.5
X6.027Y-2.124
X16.3622Y-4.5
X12.123Y-3.695
X18.9665Y-4.2598
X8.2283Y-2.592
X6.936Y-3.083
X15.8189Y-3.8504
X15.8091Y-3.0837
X6.76Y-2.281
X14.9143Y-5.9069
X15.3051Y-5.4921
X15.8308Y-5.712
X16.5512Y-3.6929
X7.115Y-4.6555
X16.7165Y-2.126
X17.095Y-4.344
X11.375Y-4.446
X4.81Y-4.26
X6.203Y-2.928
X15.0866Y-4.0039
X3.1235Y-4.5834
X3.592Y-4.259
X4.0605Y-4.5834
X15.251Y-2.437
X13.665Y-6.212
X18.873Y-3.5098
X17.5591Y-1.9252
X18.124Y-2.759
X19.529Y-5.198
X12.125Y-5.946
X5.469Y-2.773
T0
M30
