G04 #@! TF.GenerationSoftware,KiCad,Pcbnew,(5.1.4)-1*
G04 #@! TF.CreationDate,2020-05-31T01:20:23+02:00*
G04 #@! TF.ProjectId,middle,6d696464-6c65-42e6-9b69-6361645f7063,rev?*
G04 #@! TF.SameCoordinates,Original*
G04 #@! TF.FileFunction,Soldermask,Top*
G04 #@! TF.FilePolarity,Negative*
%FSLAX46Y46*%
G04 Gerber Fmt 4.6, Leading zero omitted, Abs format (unit mm)*
G04 Created by KiCad (PCBNEW (5.1.4)-1) date 2020-05-31 01:20:23*
%MOMM*%
%LPD*%
G04 APERTURE LIST*
%ADD10C,2.305000*%
%ADD11R,2.305000X2.305000*%
%ADD12C,2.100000*%
%ADD13C,2.600000*%
%ADD14C,4.400000*%
%ADD15C,3.450000*%
%ADD16C,4.387800*%
%ADD17C,3.448000*%
%ADD18C,4.800000*%
%ADD19C,1.100000*%
%ADD20R,2.400000X3.650000*%
%ADD21R,3.650000X2.400000*%
%ADD22C,2.152600*%
%ADD23R,2.152600X2.152600*%
%ADD24C,0.100000*%
%ADD25R,1.800000X2.200000*%
%ADD26R,1.600000X1.800000*%
%ADD27O,2.000000X2.000000*%
%ADD28C,2.000000*%
%ADD29R,1.600000X2.000000*%
%ADD30R,2.000000X2.000000*%
%ADD31C,1.600000*%
%ADD32C,2.000000*%
%ADD33C,3.400000*%
%ADD34C,1.797000*%
%ADD35C,1.924000*%
%ADD36C,2.200000*%
%ADD37R,1.800000X1.600000*%
G04 APERTURE END LIST*
D10*
X511595000Y-93545000D03*
D11*
X509055000Y-93545000D03*
D12*
X505245000Y-98625000D03*
D13*
X507785000Y-103705000D03*
X514135000Y-101165000D03*
D12*
X515405000Y-98625000D03*
D14*
X510325000Y-98625000D03*
D13*
X506515000Y-86560000D03*
D10*
X511595000Y-94180000D03*
D14*
X510325000Y-89100000D03*
D12*
X515405000Y-89100000D03*
D13*
X512865000Y-84020000D03*
D11*
X509055000Y-94180000D03*
D12*
X505245000Y-89100000D03*
D15*
X498425000Y-82100000D03*
X522225000Y-82100000D03*
D14*
X522225000Y-97340000D03*
X498425000Y-97340000D03*
D16*
X518589400Y-86683000D03*
X518589400Y-110559000D03*
D17*
X503349400Y-86683000D03*
X503349400Y-110559000D03*
D18*
X368899600Y-48878400D03*
D19*
X370549600Y-48878400D03*
X370066326Y-50045126D03*
X368899600Y-50528400D03*
X367732874Y-50045126D03*
X367249600Y-48878400D03*
X367732874Y-47711674D03*
X368899600Y-47228400D03*
X370066326Y-47711674D03*
D18*
X208899600Y-48878400D03*
D19*
X210549600Y-48878400D03*
X210066326Y-50045126D03*
X208899600Y-50528400D03*
X207732874Y-50045126D03*
X207249600Y-48878400D03*
X207732874Y-47711674D03*
X208899600Y-47228400D03*
X210066326Y-47711674D03*
D14*
X255399600Y-81878400D03*
X234399600Y-81878400D03*
D20*
X293928800Y-73753400D03*
X291388800Y-73753400D03*
X288848800Y-73753400D03*
X286308800Y-73753400D03*
X283768800Y-73753400D03*
D21*
X298246800Y-43908400D03*
X298246800Y-46448400D03*
X298246800Y-48988400D03*
X298246800Y-51528400D03*
X298246800Y-54068400D03*
X298246800Y-56608400D03*
X298246800Y-59148400D03*
X298246800Y-61688400D03*
X298246800Y-64228400D03*
X298246800Y-66768400D03*
X298246800Y-69308400D03*
X298246800Y-71848400D03*
X279450800Y-71848400D03*
X279450800Y-69308400D03*
X279450800Y-66768400D03*
X279450800Y-64228400D03*
X279450800Y-61688400D03*
X279450800Y-59148400D03*
X279450800Y-56608400D03*
X279450800Y-54068400D03*
X279450800Y-51528400D03*
X279450800Y-48988400D03*
X279450800Y-46448400D03*
X279450800Y-43908400D03*
D22*
X283768800Y-71848400D03*
X286308800Y-71848400D03*
X288848800Y-71848400D03*
X291388800Y-71848400D03*
X293928800Y-71848400D03*
X296468800Y-43908400D03*
X281228800Y-71848400D03*
X296468800Y-46448400D03*
X296468800Y-48988400D03*
X296468800Y-51528400D03*
X296468800Y-54068400D03*
X296468800Y-56608400D03*
X296468800Y-59148400D03*
X296468800Y-61688400D03*
X296468800Y-64228400D03*
X296468800Y-66768400D03*
X296468800Y-69308400D03*
X296468800Y-71848400D03*
X281228800Y-69308400D03*
X281228800Y-66768400D03*
X281228800Y-64228400D03*
X281228800Y-61688400D03*
X281228800Y-59148400D03*
X281228800Y-56608400D03*
X281228800Y-54068400D03*
X281228800Y-51528400D03*
X281228800Y-48988400D03*
X281228800Y-46448400D03*
D23*
X281228800Y-43908400D03*
D14*
X279399600Y-77378400D03*
X298399600Y-77378400D03*
D19*
X422566326Y-135211674D03*
X421399600Y-134728400D03*
X420232874Y-135211674D03*
X419749600Y-136378400D03*
X420232874Y-137545126D03*
X421399600Y-138028400D03*
X422566326Y-137545126D03*
X423049600Y-136378400D03*
D18*
X421399600Y-136378400D03*
D19*
X122566326Y-135211674D03*
X121399600Y-134728400D03*
X120232874Y-135211674D03*
X119749600Y-136378400D03*
X120232874Y-137545126D03*
X121399600Y-138028400D03*
X122566326Y-137545126D03*
X123049600Y-136378400D03*
D18*
X121399600Y-136378400D03*
D19*
X450084726Y-78944674D03*
X448918000Y-78461400D03*
X447751274Y-78944674D03*
X447268000Y-80111400D03*
X447751274Y-81278126D03*
X448918000Y-81761400D03*
X450084726Y-81278126D03*
X450568000Y-80111400D03*
D18*
X448918000Y-80111400D03*
D19*
X129984726Y-78944674D03*
X128818000Y-78461400D03*
X127651274Y-78944674D03*
X127168000Y-80111400D03*
X127651274Y-81278126D03*
X128818000Y-81761400D03*
X129984726Y-81278126D03*
X130468000Y-80111400D03*
D18*
X128818000Y-80111400D03*
D19*
X370015526Y-91711674D03*
X368848800Y-91228400D03*
X367682074Y-91711674D03*
X367198800Y-92878400D03*
X367682074Y-94045126D03*
X368848800Y-94528400D03*
X370015526Y-94045126D03*
X370498800Y-92878400D03*
D18*
X368848800Y-92878400D03*
D19*
X210015526Y-91711674D03*
X208848800Y-91228400D03*
X207682074Y-91711674D03*
X207198800Y-92878400D03*
X207682074Y-94045126D03*
X208848800Y-94528400D03*
X210015526Y-94045126D03*
X210498800Y-92878400D03*
D18*
X208848800Y-92878400D03*
D19*
X317566326Y-44711674D03*
X316399600Y-44228400D03*
X315232874Y-44711674D03*
X314749600Y-45878400D03*
X315232874Y-47045126D03*
X316399600Y-47528400D03*
X317566326Y-47045126D03*
X318049600Y-45878400D03*
D18*
X316399600Y-45878400D03*
D19*
X262566326Y-44711674D03*
X261399600Y-44228400D03*
X260232874Y-44711674D03*
X259749600Y-45878400D03*
X260232874Y-47045126D03*
X261399600Y-47528400D03*
X262566326Y-47045126D03*
X263049600Y-45878400D03*
D18*
X261399600Y-45878400D03*
D19*
X250015526Y-146711674D03*
X248848800Y-146228400D03*
X247682074Y-146711674D03*
X247198800Y-147878400D03*
X247682074Y-149045126D03*
X248848800Y-149528400D03*
X250015526Y-149045126D03*
X250498800Y-147878400D03*
D18*
X248848800Y-147878400D03*
D19*
X330015526Y-146711674D03*
X328848800Y-146228400D03*
X327682074Y-146711674D03*
X327198800Y-147878400D03*
X327682074Y-149045126D03*
X328848800Y-149528400D03*
X330015526Y-149045126D03*
X330498800Y-147878400D03*
D18*
X328848800Y-147878400D03*
D19*
X527566326Y-135211674D03*
X526399600Y-134728400D03*
X525232874Y-135211674D03*
X524749600Y-136378400D03*
X525232874Y-137545126D03*
X526399600Y-138028400D03*
X527566326Y-137545126D03*
X528049600Y-136378400D03*
D18*
X526399600Y-136378400D03*
D19*
X527566326Y-42711674D03*
X526399600Y-42228400D03*
X525232874Y-42711674D03*
X524749600Y-43878400D03*
X525232874Y-45045126D03*
X526399600Y-45528400D03*
X527566326Y-45045126D03*
X528049600Y-43878400D03*
D18*
X526399600Y-43878400D03*
D19*
X70066326Y-135211674D03*
X68899600Y-134728400D03*
X67732874Y-135211674D03*
X67249600Y-136378400D03*
X67732874Y-137545126D03*
X68899600Y-138028400D03*
X70066326Y-137545126D03*
X70549600Y-136378400D03*
D18*
X68899600Y-136378400D03*
D19*
X70066326Y-42711674D03*
X68899600Y-42228400D03*
X67732874Y-42711674D03*
X67249600Y-43878400D03*
X67732874Y-45045126D03*
X68899600Y-45528400D03*
X70066326Y-45045126D03*
X70549600Y-43878400D03*
D18*
X68899600Y-43878400D03*
D10*
X444730000Y-53980000D03*
D11*
X447270000Y-53980000D03*
D12*
X451080000Y-48900000D03*
X440920000Y-48900000D03*
D14*
X446000000Y-48900000D03*
D13*
X442190000Y-46360000D03*
X448540000Y-43820000D03*
D10*
X192290961Y-106457342D03*
X194775456Y-106985438D03*
D24*
G36*
X193408523Y-107873135D02*
G01*
X193887759Y-105618505D01*
X196142389Y-106097741D01*
X195663153Y-108352371D01*
X193408523Y-107873135D01*
X193408523Y-107873135D01*
G37*
D12*
X199558390Y-102808591D03*
X189620410Y-100696209D03*
D14*
X194589400Y-101752400D03*
D13*
X191390753Y-98475762D03*
X198130086Y-97311506D03*
D25*
X340549600Y-98250400D03*
X337249600Y-98250400D03*
X337249600Y-103050400D03*
X340549600Y-103050400D03*
X340549600Y-126978400D03*
X337249600Y-126978400D03*
X337249600Y-131778400D03*
X340549600Y-131778400D03*
X240549600Y-126978400D03*
X237249600Y-126978400D03*
X237249600Y-131778400D03*
X240549600Y-131778400D03*
X240549600Y-98250400D03*
X237249600Y-98250400D03*
X237249600Y-103050400D03*
X240549600Y-103050400D03*
D26*
X130518000Y-107911400D03*
D27*
X130518000Y-114171400D03*
D28*
X130518000Y-104011400D03*
D26*
X130518000Y-110311400D03*
D10*
X116179600Y-75158600D03*
D11*
X118719600Y-75158600D03*
D12*
X122529600Y-70078600D03*
X112369600Y-70078600D03*
D14*
X117449600Y-70078600D03*
D13*
X113639600Y-67538600D03*
X119989600Y-64998600D03*
D10*
X150787361Y-58654542D03*
X153271856Y-59182638D03*
D24*
G36*
X151904923Y-60070335D02*
G01*
X152384159Y-57815705D01*
X154638789Y-58294941D01*
X154159553Y-60549571D01*
X151904923Y-60070335D01*
X151904923Y-60070335D01*
G37*
D12*
X158054790Y-55005791D03*
X148116810Y-52893409D03*
D14*
X153085800Y-53949600D03*
D13*
X149887153Y-50672962D03*
X156626486Y-49508706D03*
D10*
X197066161Y-126954942D03*
X199550656Y-127483038D03*
D24*
G36*
X198183723Y-128370735D02*
G01*
X198662959Y-126116105D01*
X200917589Y-126595341D01*
X200438353Y-128849971D01*
X198183723Y-128370735D01*
X198183723Y-128370735D01*
G37*
D12*
X204333590Y-123306191D03*
X194395610Y-121193809D03*
D14*
X199364600Y-122250000D03*
D13*
X196165953Y-118973362D03*
X202905286Y-117809106D03*
D29*
X261618000Y-96361400D03*
D27*
X261618000Y-89651400D03*
D30*
X261618000Y-99811400D03*
D29*
X261618000Y-93101400D03*
D10*
X287629600Y-156108400D03*
D11*
X290169600Y-156108400D03*
D12*
X293979600Y-151028400D03*
X283819600Y-151028400D03*
D14*
X288899600Y-151028400D03*
D13*
X285089600Y-148488400D03*
X291439600Y-145948400D03*
D10*
X388563944Y-144733038D03*
X391048439Y-144204942D03*
D24*
G36*
X390160742Y-145571875D02*
G01*
X389681506Y-143317245D01*
X391936136Y-142838009D01*
X392415372Y-145092639D01*
X390160742Y-145571875D01*
X390160742Y-145571875D01*
G37*
D13*
X390178304Y-134002914D03*
X384495162Y-137807649D03*
D14*
X388750000Y-139500000D03*
D12*
X383781010Y-140556191D03*
X393718990Y-138443809D03*
D14*
X402103149Y-145085787D03*
X378823236Y-150034085D03*
D15*
X375654662Y-135127116D03*
X398934575Y-130178818D03*
D31*
X447128856Y-87726176D03*
D24*
G36*
X446159217Y-87012173D02*
G01*
X447724254Y-86679514D01*
X448098495Y-88440179D01*
X446533458Y-88772838D01*
X446159217Y-87012173D01*
X446159217Y-87012173D01*
G37*
D28*
X448430383Y-93849380D03*
D32*
X448430383Y-93849380D02*
X448430383Y-93849380D01*
D28*
X446318000Y-83911400D03*
D31*
X447627844Y-90073730D03*
D24*
G36*
X446658205Y-89359727D02*
G01*
X448223242Y-89027068D01*
X448597483Y-90787733D01*
X447032446Y-91120392D01*
X446658205Y-89359727D01*
X446658205Y-89359727D01*
G37*
D10*
X420013944Y-79608038D03*
X422498439Y-79079942D03*
D24*
G36*
X421610742Y-80446875D02*
G01*
X421131506Y-78192245D01*
X423386136Y-77713009D01*
X423865372Y-79967639D01*
X421610742Y-80446875D01*
X421610742Y-80446875D01*
G37*
D12*
X425168990Y-73318809D03*
X415231010Y-75431191D03*
D14*
X420200000Y-74375000D03*
D13*
X415945162Y-72682649D03*
X421628304Y-68877914D03*
D10*
X494766600Y-137109200D03*
D11*
X497306600Y-137109200D03*
D13*
X498576600Y-126949200D03*
X492226600Y-129489200D03*
D14*
X496036600Y-132029200D03*
D12*
X490956600Y-132029200D03*
X501116600Y-132029200D03*
D10*
X424413944Y-59233038D03*
X426898439Y-58704942D03*
D24*
G36*
X426010742Y-60071875D02*
G01*
X425531506Y-57817245D01*
X427786136Y-57338009D01*
X428265372Y-59592639D01*
X426010742Y-60071875D01*
X426010742Y-60071875D01*
G37*
D12*
X429568990Y-52943809D03*
X419631010Y-55056191D03*
D14*
X424600000Y-54000000D03*
D13*
X420345162Y-52307649D03*
X426028304Y-48502914D03*
D10*
X497154200Y-75184000D03*
D11*
X499694200Y-75184000D03*
D12*
X503504200Y-70104000D03*
X493344200Y-70104000D03*
D14*
X498424200Y-70104000D03*
D13*
X494614200Y-67564000D03*
X500964200Y-65024000D03*
D10*
X463804000Y-56083200D03*
D11*
X466344000Y-56083200D03*
D12*
X470154000Y-51003200D03*
X459994000Y-51003200D03*
D14*
X465074000Y-51003200D03*
D13*
X461264000Y-48463200D03*
X467614000Y-45923200D03*
D33*
X234575000Y-53478400D03*
X234575000Y-76478400D03*
X255075000Y-53478400D03*
D34*
X248635000Y-76978400D03*
X241015000Y-76978400D03*
X243555000Y-76978400D03*
X246095000Y-76978400D03*
D33*
X255075000Y-76478400D03*
D10*
X287655000Y-118008400D03*
D11*
X290195000Y-118008400D03*
D12*
X294005000Y-112928400D03*
X283845000Y-112928400D03*
D14*
X288925000Y-112928400D03*
D13*
X285115000Y-110388400D03*
X291465000Y-107848400D03*
D10*
X206701561Y-70541742D03*
X209186056Y-71069838D03*
D24*
G36*
X207819123Y-71957535D02*
G01*
X208298359Y-69702905D01*
X210552989Y-70182141D01*
X210073753Y-72436771D01*
X207819123Y-71957535D01*
X207819123Y-71957535D01*
G37*
D12*
X213968990Y-66892991D03*
X204031010Y-64780609D03*
D14*
X209000000Y-65836800D03*
D13*
X205801353Y-62560162D03*
X212540686Y-61395906D03*
D31*
X217107144Y-67226176D03*
D24*
G36*
X216511746Y-66179514D02*
G01*
X218076783Y-66512173D01*
X217702542Y-68272838D01*
X216137505Y-67940179D01*
X216511746Y-66179514D01*
X216511746Y-66179514D01*
G37*
D28*
X215805617Y-73349380D03*
D32*
X215805617Y-73349380D02*
X215805617Y-73349380D01*
D28*
X217918000Y-63411400D03*
D31*
X216608156Y-69573730D03*
D24*
G36*
X216012758Y-68527068D02*
G01*
X217577795Y-68859727D01*
X217203554Y-70620392D01*
X215638517Y-70287733D01*
X216012758Y-68527068D01*
X216012758Y-68527068D01*
G37*
D31*
X161207144Y-55326176D03*
D24*
G36*
X160611746Y-54279514D02*
G01*
X162176783Y-54612173D01*
X161802542Y-56372838D01*
X160237505Y-56040179D01*
X160611746Y-54279514D01*
X160611746Y-54279514D01*
G37*
D28*
X159905617Y-61449380D03*
D32*
X159905617Y-61449380D02*
X159905617Y-61449380D01*
D28*
X162018000Y-51511400D03*
D31*
X160708156Y-57673730D03*
D24*
G36*
X160112758Y-56627068D02*
G01*
X161677795Y-56959727D01*
X161303554Y-58720392D01*
X159738517Y-58387733D01*
X160112758Y-56627068D01*
X160112758Y-56627068D01*
G37*
D10*
X440199144Y-135662038D03*
X442683639Y-135133942D03*
D24*
G36*
X441795942Y-136500875D02*
G01*
X441316706Y-134246245D01*
X443571336Y-133767009D01*
X444050572Y-136021639D01*
X441795942Y-136500875D01*
X441795942Y-136500875D01*
G37*
D13*
X441813504Y-124931914D03*
X436130362Y-128736649D03*
D14*
X440385200Y-130429000D03*
D12*
X435416210Y-131485191D03*
X445354190Y-129372809D03*
D10*
X349785077Y-162274928D03*
X351581128Y-160478877D03*
D24*
G36*
X351581128Y-162108758D02*
G01*
X349951247Y-160478877D01*
X351581128Y-158848996D01*
X353211009Y-160478877D01*
X351581128Y-162108758D01*
X351581128Y-162108758D01*
G37*
D13*
X345294949Y-152396646D03*
X342600872Y-158682826D03*
D14*
X347091000Y-157784800D03*
D12*
X343498898Y-161376902D03*
X350683102Y-154192698D03*
D10*
X480480000Y-113280000D03*
D11*
X483020000Y-113280000D03*
D13*
X484290000Y-103120000D03*
X477940000Y-105660000D03*
D14*
X481750000Y-108200000D03*
D12*
X476670000Y-108200000D03*
X486830000Y-108200000D03*
D10*
X226218072Y-160478877D03*
X228014123Y-162274928D03*
D24*
G36*
X226384242Y-162274928D02*
G01*
X228014123Y-160645047D01*
X229644004Y-162274928D01*
X228014123Y-163904809D01*
X226384242Y-162274928D01*
X226384242Y-162274928D01*
G37*
D13*
X236096354Y-155988749D03*
X229810174Y-153294672D03*
D14*
X230708200Y-157784800D03*
D12*
X227116098Y-154192698D03*
X234300302Y-161376902D03*
D10*
X193662561Y-145674942D03*
X196147056Y-146203038D03*
D24*
G36*
X194780123Y-147090735D02*
G01*
X195259359Y-144836105D01*
X197513989Y-145315341D01*
X197034753Y-147569971D01*
X194780123Y-147090735D01*
X194780123Y-147090735D01*
G37*
D13*
X199501686Y-136529106D03*
X192762353Y-137693362D03*
D14*
X195961000Y-140970000D03*
D12*
X190992010Y-139913809D03*
X200929990Y-142026191D03*
D14*
X205887764Y-151504085D03*
X182607851Y-146555787D03*
D15*
X185776425Y-131648818D03*
X209056338Y-136597116D03*
D10*
X135039361Y-135184742D03*
X137523856Y-135712838D03*
D24*
G36*
X136156923Y-136600535D02*
G01*
X136636159Y-134345905D01*
X138890789Y-134825141D01*
X138411553Y-137079771D01*
X136156923Y-136600535D01*
X136156923Y-136600535D01*
G37*
D13*
X140878486Y-126038906D03*
X134139153Y-127203162D03*
D14*
X137337800Y-130479800D03*
D12*
X132368810Y-129423609D03*
X142306790Y-131535991D03*
D10*
X108991400Y-132308600D03*
D11*
X111531400Y-132308600D03*
D13*
X112801400Y-122148600D03*
X106451400Y-124688600D03*
D14*
X110261400Y-127228600D03*
D12*
X105181400Y-127228600D03*
X115341400Y-127228600D03*
D10*
X80416400Y-137083800D03*
D11*
X82956400Y-137083800D03*
D13*
X84226400Y-126923800D03*
X77876400Y-129463800D03*
D14*
X81686400Y-132003800D03*
D12*
X76606400Y-132003800D03*
X86766400Y-132003800D03*
D10*
X89966800Y-113258600D03*
D11*
X92506800Y-113258600D03*
D13*
X93776800Y-103098600D03*
X87426800Y-105638600D03*
D14*
X91236800Y-108178600D03*
D12*
X86156800Y-108178600D03*
X96316800Y-108178600D03*
D14*
X103136800Y-116418600D03*
X79336800Y-116418600D03*
D15*
X79336800Y-101178600D03*
X103136800Y-101178600D03*
D10*
X89980000Y-94183200D03*
D11*
X92520000Y-94183200D03*
D13*
X93790000Y-84023200D03*
X87440000Y-86563200D03*
D14*
X91250000Y-89103200D03*
D12*
X86170000Y-89103200D03*
X96330000Y-89103200D03*
D10*
X92329000Y-75184000D03*
D11*
X94869000Y-75184000D03*
D13*
X96139000Y-65024000D03*
X89789000Y-67564000D03*
D14*
X93599000Y-70104000D03*
D12*
X88519000Y-70104000D03*
X98679000Y-70104000D03*
D10*
X306705000Y-156108400D03*
D11*
X309245000Y-156108400D03*
D12*
X313055000Y-151028400D03*
X302895000Y-151028400D03*
D14*
X307975000Y-151028400D03*
D13*
X304165000Y-148488400D03*
X310515000Y-145948400D03*
D10*
X454279000Y-113280000D03*
D11*
X456819000Y-113280000D03*
D12*
X460629000Y-108200000D03*
X450469000Y-108200000D03*
D14*
X455549000Y-108200000D03*
D13*
X451739000Y-105660000D03*
X458089000Y-103120000D03*
D10*
X434026944Y-115570638D03*
X436511439Y-115042542D03*
D24*
G36*
X435623742Y-116409475D02*
G01*
X435144506Y-114154845D01*
X437399136Y-113675609D01*
X437878372Y-115930239D01*
X435623742Y-116409475D01*
X435623742Y-116409475D01*
G37*
D12*
X439181990Y-109281409D03*
X429244010Y-111393791D03*
D14*
X434213000Y-110337600D03*
D13*
X429958162Y-108645249D03*
X435641304Y-104840514D03*
D10*
X415413944Y-119533038D03*
X417898439Y-119004942D03*
D24*
G36*
X417010742Y-120371875D02*
G01*
X416531506Y-118117245D01*
X418786136Y-117638009D01*
X419265372Y-119892639D01*
X417010742Y-120371875D01*
X417010742Y-120371875D01*
G37*
D12*
X420568990Y-113243809D03*
X410631010Y-115356191D03*
D14*
X415600000Y-114300000D03*
D13*
X411345162Y-112607649D03*
X417028304Y-108802914D03*
D10*
X396813944Y-123483038D03*
X399298439Y-122954942D03*
D24*
G36*
X398410742Y-124321875D02*
G01*
X397931506Y-122067245D01*
X400186136Y-121588009D01*
X400665372Y-123842639D01*
X398410742Y-124321875D01*
X398410742Y-124321875D01*
G37*
D12*
X401968990Y-117193809D03*
X392031010Y-119306191D03*
D14*
X397000000Y-118250000D03*
D13*
X392745162Y-116557649D03*
X398428304Y-112752914D03*
D10*
X478105000Y-94230000D03*
D11*
X480645000Y-94230000D03*
D12*
X484455000Y-89150000D03*
X474295000Y-89150000D03*
D14*
X479375000Y-89150000D03*
D13*
X475565000Y-86610000D03*
X481915000Y-84070000D03*
D10*
X459080000Y-94205000D03*
D11*
X461620000Y-94205000D03*
D12*
X465430000Y-89125000D03*
X455270000Y-89125000D03*
D14*
X460350000Y-89125000D03*
D13*
X456540000Y-86585000D03*
X462890000Y-84045000D03*
D10*
X438913944Y-95033038D03*
X441398439Y-94504942D03*
D24*
G36*
X440510742Y-95871875D02*
G01*
X440031506Y-93617245D01*
X442286136Y-93138009D01*
X442765372Y-95392639D01*
X440510742Y-95871875D01*
X440510742Y-95871875D01*
G37*
D12*
X444068990Y-88743809D03*
X434131010Y-90856191D03*
D14*
X439100000Y-89800000D03*
D13*
X434845162Y-88107649D03*
X440528304Y-84302914D03*
D10*
X420213944Y-99033038D03*
X422698439Y-98504942D03*
D24*
G36*
X421810742Y-99871875D02*
G01*
X421331506Y-97617245D01*
X423586136Y-97138009D01*
X424065372Y-99392639D01*
X421810742Y-99871875D01*
X421810742Y-99871875D01*
G37*
D12*
X425368990Y-92743809D03*
X415431010Y-94856191D03*
D14*
X420400000Y-93800000D03*
D13*
X416145162Y-92107649D03*
X421828304Y-88302914D03*
D10*
X478104200Y-75158600D03*
D11*
X480644200Y-75158600D03*
D12*
X484454200Y-70078600D03*
X474294200Y-70078600D03*
D14*
X479374200Y-70078600D03*
D13*
X475564200Y-67538600D03*
X481914200Y-64998600D03*
D10*
X459079600Y-75158600D03*
D11*
X461619600Y-75158600D03*
D12*
X465429600Y-70078600D03*
X455269600Y-70078600D03*
D14*
X460349600Y-70078600D03*
D13*
X456539600Y-67538600D03*
X462889600Y-64998600D03*
D10*
X438638944Y-75658038D03*
X441123439Y-75129942D03*
D24*
G36*
X440235742Y-76496875D02*
G01*
X439756506Y-74242245D01*
X442011136Y-73763009D01*
X442490372Y-76017639D01*
X440235742Y-76496875D01*
X440235742Y-76496875D01*
G37*
D12*
X443793990Y-69368809D03*
X433856010Y-71481191D03*
D14*
X438825000Y-70425000D03*
D13*
X434570162Y-68732649D03*
X440253304Y-64927914D03*
D10*
X306654200Y-137033000D03*
D11*
X309194200Y-137033000D03*
D12*
X313004200Y-131953000D03*
X302844200Y-131953000D03*
D14*
X307924200Y-131953000D03*
D13*
X304114200Y-129413000D03*
X310464200Y-126873000D03*
D10*
X306654200Y-118008400D03*
D11*
X309194200Y-118008400D03*
D12*
X313004200Y-112928400D03*
X302844200Y-112928400D03*
D14*
X307924200Y-112928400D03*
D13*
X304114200Y-110388400D03*
X310464200Y-107848400D03*
D10*
X268579600Y-156108400D03*
D11*
X271119600Y-156108400D03*
D12*
X274929600Y-151028400D03*
X264769600Y-151028400D03*
D14*
X269849600Y-151028400D03*
D13*
X266039600Y-148488400D03*
X272389600Y-145948400D03*
D10*
X161074361Y-138704942D03*
X163558856Y-139233038D03*
D24*
G36*
X162191923Y-140120735D02*
G01*
X162671159Y-137866105D01*
X164925789Y-138345341D01*
X164446553Y-140599971D01*
X162191923Y-140120735D01*
X162191923Y-140120735D01*
G37*
D12*
X168341790Y-135056191D03*
X158403810Y-132943809D03*
D14*
X163372800Y-134000000D03*
D13*
X160174153Y-130723362D03*
X166913486Y-129559106D03*
D10*
X378213944Y-127433038D03*
X380698439Y-126904942D03*
D24*
G36*
X379810742Y-128271875D02*
G01*
X379331506Y-126017245D01*
X381586136Y-125538009D01*
X382065372Y-127792639D01*
X379810742Y-128271875D01*
X379810742Y-128271875D01*
G37*
D12*
X383368990Y-121143809D03*
X373431010Y-123256191D03*
D14*
X378400000Y-122200000D03*
D13*
X374145162Y-120507649D03*
X379828304Y-116702914D03*
D10*
X306654200Y-98933000D03*
D11*
X309194200Y-98933000D03*
D12*
X313004200Y-93853000D03*
X302844200Y-93853000D03*
D14*
X307924200Y-93853000D03*
D13*
X304114200Y-91313000D03*
X310464200Y-88773000D03*
D10*
X287604200Y-137058400D03*
D11*
X290144200Y-137058400D03*
D12*
X293954200Y-131978400D03*
X283794200Y-131978400D03*
D14*
X288874200Y-131978400D03*
D13*
X285064200Y-129438400D03*
X291414200Y-126898400D03*
D10*
X268554200Y-137058400D03*
D11*
X271094200Y-137058400D03*
D12*
X274904200Y-131978400D03*
X264744200Y-131978400D03*
D14*
X269824200Y-131978400D03*
D13*
X266014200Y-129438400D03*
X272364200Y-126898400D03*
D10*
X178422561Y-122954942D03*
X180907056Y-123483038D03*
D24*
G36*
X179540123Y-124370735D02*
G01*
X180019359Y-122116105D01*
X182273989Y-122595341D01*
X181794753Y-124849971D01*
X179540123Y-124370735D01*
X179540123Y-124370735D01*
G37*
D12*
X185689990Y-119306191D03*
X175752010Y-117193809D03*
D14*
X180721000Y-118250000D03*
D13*
X177522353Y-114973362D03*
X184261686Y-113809106D03*
D10*
X159804361Y-119004942D03*
X162288856Y-119533038D03*
D24*
G36*
X160921923Y-120420735D02*
G01*
X161401159Y-118166105D01*
X163655789Y-118645341D01*
X163176553Y-120899971D01*
X160921923Y-120420735D01*
X160921923Y-120420735D01*
G37*
D12*
X167071790Y-115356191D03*
X157133810Y-113243809D03*
D14*
X162102800Y-114300000D03*
D13*
X158904153Y-111023362D03*
X165643486Y-109859106D03*
D10*
X141186161Y-115042542D03*
X143670656Y-115570638D03*
D24*
G36*
X142303723Y-116458335D02*
G01*
X142782959Y-114203705D01*
X145037589Y-114682941D01*
X144558353Y-116937571D01*
X142303723Y-116458335D01*
X142303723Y-116458335D01*
G37*
D12*
X148453590Y-111393791D03*
X138515610Y-109281409D03*
D14*
X143484600Y-110337600D03*
D13*
X140285953Y-107060962D03*
X147025286Y-105896706D03*
D10*
X120904000Y-113284000D03*
D11*
X123444000Y-113284000D03*
D12*
X127254000Y-108204000D03*
X117094000Y-108204000D03*
D14*
X122174000Y-108204000D03*
D13*
X118364000Y-105664000D03*
X124714000Y-103124000D03*
D10*
X401613944Y-103033038D03*
X404098439Y-102504942D03*
D24*
G36*
X403210742Y-103871875D02*
G01*
X402731506Y-101617245D01*
X404986136Y-101138009D01*
X405465372Y-103392639D01*
X403210742Y-103871875D01*
X403210742Y-103871875D01*
G37*
D12*
X406768990Y-96743809D03*
X396831010Y-98856191D03*
D14*
X401800000Y-97800000D03*
D13*
X397545162Y-96107649D03*
X403228304Y-92302914D03*
D10*
X383013944Y-106933038D03*
X385498439Y-106404942D03*
D24*
G36*
X384610742Y-107771875D02*
G01*
X384131506Y-105517245D01*
X386386136Y-105038009D01*
X386865372Y-107292639D01*
X384610742Y-107771875D01*
X384610742Y-107771875D01*
G37*
D12*
X388168990Y-100643809D03*
X378231010Y-102756191D03*
D14*
X383200000Y-101700000D03*
D13*
X378945162Y-100007649D03*
X384628304Y-96202914D03*
D10*
X268528800Y-118008400D03*
D11*
X271068800Y-118008400D03*
D12*
X274878800Y-112928400D03*
X264718800Y-112928400D03*
D14*
X269798800Y-112928400D03*
D13*
X265988800Y-110388400D03*
X272338800Y-107848400D03*
D10*
X173647361Y-102469542D03*
X176131856Y-102997638D03*
D24*
G36*
X174764923Y-103885335D02*
G01*
X175244159Y-101630705D01*
X177498789Y-102109941D01*
X177019553Y-104364571D01*
X174764923Y-103885335D01*
X174764923Y-103885335D01*
G37*
D12*
X180914790Y-98820791D03*
X170976810Y-96708409D03*
D14*
X175945800Y-97764600D03*
D13*
X172747153Y-94487962D03*
X179486486Y-93323706D03*
D10*
X154978361Y-98507142D03*
X157462856Y-99035238D03*
D24*
G36*
X156095923Y-99922935D02*
G01*
X156575159Y-97668305D01*
X158829789Y-98147541D01*
X158350553Y-100402171D01*
X156095923Y-99922935D01*
X156095923Y-99922935D01*
G37*
D12*
X162245790Y-94858391D03*
X152307810Y-92746009D03*
D14*
X157276800Y-93802200D03*
D13*
X154078153Y-90525562D03*
X160817486Y-89361306D03*
D10*
X136385561Y-94544742D03*
X138870056Y-95072838D03*
D24*
G36*
X137503123Y-95960535D02*
G01*
X137982359Y-93705905D01*
X140236989Y-94185141D01*
X139757753Y-96439771D01*
X137503123Y-95960535D01*
X137503123Y-95960535D01*
G37*
D12*
X143652990Y-90895991D03*
X133715010Y-88783609D03*
D14*
X138684000Y-89839800D03*
D13*
X135485353Y-86563162D03*
X142224686Y-85398906D03*
D10*
X116128800Y-94183200D03*
D11*
X118668800Y-94183200D03*
D12*
X122478800Y-89103200D03*
X112318800Y-89103200D03*
D14*
X117398800Y-89103200D03*
D13*
X113588800Y-86563200D03*
X119938800Y-84023200D03*
D10*
X401363944Y-83558038D03*
X403848439Y-83029942D03*
D24*
G36*
X402960742Y-84396875D02*
G01*
X402481506Y-82142245D01*
X404736136Y-81663009D01*
X405215372Y-83917639D01*
X402960742Y-84396875D01*
X402960742Y-84396875D01*
G37*
D12*
X406518990Y-77268809D03*
X396581010Y-79381191D03*
D14*
X401550000Y-78325000D03*
D13*
X397295162Y-76632649D03*
X402978304Y-72827914D03*
D10*
X382713944Y-87533038D03*
X385198439Y-87004942D03*
D24*
G36*
X384310742Y-88371875D02*
G01*
X383831506Y-86117245D01*
X386086136Y-85638009D01*
X386565372Y-87892639D01*
X384310742Y-88371875D01*
X384310742Y-88371875D01*
G37*
D12*
X387868990Y-81243809D03*
X377931010Y-83356191D03*
D14*
X382900000Y-82300000D03*
D13*
X378645162Y-80607649D03*
X384328304Y-76802914D03*
D10*
X287629600Y-98958400D03*
D11*
X290169600Y-98958400D03*
D12*
X293979600Y-93878400D03*
X283819600Y-93878400D03*
D14*
X288899600Y-93878400D03*
D13*
X285089600Y-91338400D03*
X291439600Y-88798400D03*
D10*
X268579600Y-98958400D03*
D11*
X271119600Y-98958400D03*
D12*
X274929600Y-93878400D03*
X264769600Y-93878400D03*
D14*
X269849600Y-93878400D03*
D13*
X266039600Y-91338400D03*
X272389600Y-88798400D03*
D10*
X192519561Y-87000942D03*
X195004056Y-87529038D03*
D24*
G36*
X193637123Y-88416735D02*
G01*
X194116359Y-86162105D01*
X196370989Y-86641341D01*
X195891753Y-88895971D01*
X193637123Y-88416735D01*
X193637123Y-88416735D01*
G37*
D12*
X199786990Y-83352191D03*
X189849010Y-81239809D03*
D14*
X194818000Y-82296000D03*
D13*
X191619353Y-79019362D03*
X198358686Y-77855106D03*
D10*
X506679200Y-54025800D03*
D11*
X509219200Y-54025800D03*
D12*
X513029200Y-48945800D03*
X502869200Y-48945800D03*
D14*
X507949200Y-48945800D03*
D13*
X504139200Y-46405800D03*
X510489200Y-43865800D03*
D10*
X173875961Y-83013142D03*
X176360456Y-83541238D03*
D24*
G36*
X174993523Y-84428935D02*
G01*
X175472759Y-82174305D01*
X177727389Y-82653541D01*
X177248153Y-84908171D01*
X174993523Y-84428935D01*
X174993523Y-84428935D01*
G37*
D12*
X181143390Y-79364391D03*
X171205410Y-77252009D03*
D14*
X176174400Y-78308200D03*
D13*
X172975753Y-75031562D03*
X179715086Y-73867306D03*
D10*
X482854000Y-56083200D03*
D11*
X485394000Y-56083200D03*
D12*
X489204000Y-51003200D03*
X479044000Y-51003200D03*
D14*
X484124000Y-51003200D03*
D13*
X480314000Y-48463200D03*
X486664000Y-45923200D03*
D10*
X155257761Y-79076142D03*
X157742256Y-79604238D03*
D24*
G36*
X156375323Y-80491935D02*
G01*
X156854559Y-78237305D01*
X159109189Y-78716541D01*
X158629953Y-80971171D01*
X156375323Y-80491935D01*
X156375323Y-80491935D01*
G37*
D12*
X162525190Y-75427391D03*
X152587210Y-73315009D03*
D14*
X157556200Y-74371200D03*
D13*
X154357553Y-71094562D03*
X161096886Y-69930306D03*
D10*
X136614161Y-75139142D03*
X139098656Y-75667238D03*
D24*
G36*
X137731723Y-76554935D02*
G01*
X138210959Y-74300305D01*
X140465589Y-74779541D01*
X139986353Y-77034171D01*
X137731723Y-76554935D01*
X137731723Y-76554935D01*
G37*
D12*
X143881590Y-71490391D03*
X133943610Y-69378009D03*
D14*
X138912600Y-70434200D03*
D13*
X135713953Y-67157562D03*
X142453286Y-65993306D03*
D10*
X405813944Y-63183038D03*
X408298439Y-62654942D03*
D24*
G36*
X407410742Y-64021875D02*
G01*
X406931506Y-61767245D01*
X409186136Y-61288009D01*
X409665372Y-63542639D01*
X407410742Y-64021875D01*
X407410742Y-64021875D01*
G37*
D12*
X410968990Y-56893809D03*
X401031010Y-59006191D03*
D14*
X406000000Y-57950000D03*
D13*
X401745162Y-56257649D03*
X407428304Y-52452914D03*
D10*
X387188944Y-67133038D03*
X389673439Y-66604942D03*
D24*
G36*
X388785742Y-67971875D02*
G01*
X388306506Y-65717245D01*
X390561136Y-65238009D01*
X391040372Y-67492639D01*
X388785742Y-67971875D01*
X388785742Y-67971875D01*
G37*
D12*
X392343990Y-60843809D03*
X382406010Y-62956191D03*
D14*
X387375000Y-61900000D03*
D13*
X383120162Y-60207649D03*
X388803304Y-56402914D03*
D10*
X368538944Y-71083038D03*
X371023439Y-70554942D03*
D24*
G36*
X370135742Y-71921875D02*
G01*
X369656506Y-69667245D01*
X371911136Y-69188009D01*
X372390372Y-71442639D01*
X370135742Y-71921875D01*
X370135742Y-71921875D01*
G37*
D12*
X373693990Y-64793809D03*
X363756010Y-66906191D03*
D14*
X368725000Y-65850000D03*
D13*
X364470162Y-64157649D03*
X370153304Y-60352914D03*
D10*
X188074561Y-66553942D03*
X190559056Y-67082038D03*
D24*
G36*
X189192123Y-67969735D02*
G01*
X189671359Y-65715105D01*
X191925989Y-66194341D01*
X191446753Y-68448971D01*
X189192123Y-67969735D01*
X189192123Y-67969735D01*
G37*
D12*
X195341990Y-62905191D03*
X185404010Y-60792809D03*
D14*
X190373000Y-61849000D03*
D13*
X187174353Y-58572362D03*
X193913686Y-57408106D03*
D10*
X169405561Y-62642342D03*
X171890056Y-63170438D03*
D24*
G36*
X170523123Y-64058135D02*
G01*
X171002359Y-61803505D01*
X173256989Y-62282741D01*
X172777753Y-64537371D01*
X170523123Y-64058135D01*
X170523123Y-64058135D01*
G37*
D12*
X176672990Y-58993591D03*
X166735010Y-56881209D03*
D14*
X171704000Y-57937400D03*
D13*
X168505353Y-54660762D03*
X175244686Y-53496506D03*
D10*
X130429000Y-54025800D03*
D11*
X132969000Y-54025800D03*
D12*
X136779000Y-48945800D03*
X126619000Y-48945800D03*
D14*
X131699000Y-48945800D03*
D13*
X127889000Y-46405800D03*
X134239000Y-43865800D03*
D10*
X111404400Y-56108600D03*
D11*
X113944400Y-56108600D03*
D12*
X117754400Y-51028600D03*
X107594400Y-51028600D03*
D14*
X112674400Y-51028600D03*
D13*
X108864400Y-48488600D03*
X115214400Y-45948600D03*
D10*
X92354400Y-56108600D03*
D11*
X94894400Y-56108600D03*
D12*
X98704400Y-51028600D03*
X88544400Y-51028600D03*
D14*
X93624400Y-51028600D03*
D13*
X89814400Y-48488600D03*
X96164400Y-45948600D03*
D35*
X326399600Y-40878400D03*
X331399600Y-40878400D03*
D36*
X325399600Y-43378400D03*
X332399600Y-43378400D03*
D26*
X504418000Y-131712800D03*
D27*
X504418000Y-137972800D03*
D28*
X504418000Y-127812800D03*
D26*
X504418000Y-134112800D03*
D31*
X448528856Y-128326176D03*
D24*
G36*
X447559217Y-127612173D02*
G01*
X449124254Y-127279514D01*
X449498495Y-129040179D01*
X447933458Y-129372838D01*
X447559217Y-127612173D01*
X447559217Y-127612173D01*
G37*
D28*
X449830383Y-134449380D03*
D32*
X449830383Y-134449380D02*
X449830383Y-134449380D01*
D28*
X447718000Y-124511400D03*
D31*
X449027844Y-130673730D03*
D24*
G36*
X448058205Y-129959727D02*
G01*
X449623242Y-129627068D01*
X449997483Y-131387733D01*
X448432446Y-131720392D01*
X448058205Y-129959727D01*
X448058205Y-129959727D01*
G37*
D31*
X396828856Y-137426176D03*
D24*
G36*
X395859217Y-136712173D02*
G01*
X397424254Y-136379514D01*
X397798495Y-138140179D01*
X396233458Y-138472838D01*
X395859217Y-136712173D01*
X395859217Y-136712173D01*
G37*
D28*
X398130383Y-143549380D03*
D32*
X398130383Y-143549380D02*
X398130383Y-143549380D01*
D28*
X396018000Y-133611400D03*
D31*
X397327844Y-139773730D03*
D24*
G36*
X396358205Y-139059727D02*
G01*
X397923242Y-138727068D01*
X398297483Y-140487733D01*
X396732446Y-140820392D01*
X396358205Y-139059727D01*
X396358205Y-139059727D01*
G37*
D31*
X352744316Y-151627116D03*
D24*
G36*
X351542234Y-151556405D02*
G01*
X352673605Y-150425034D01*
X353946398Y-151697827D01*
X352815027Y-152829198D01*
X351542234Y-151556405D01*
X351542234Y-151556405D01*
G37*
D28*
X357170805Y-156053605D03*
D32*
X357170805Y-156053605D02*
X357170805Y-156053605D01*
D28*
X349986600Y-148869400D03*
D31*
X354441373Y-153324173D03*
D24*
G36*
X353239291Y-153253462D02*
G01*
X354370662Y-152122091D01*
X355643455Y-153394884D01*
X354512084Y-154526255D01*
X353239291Y-153253462D01*
X353239291Y-153253462D01*
G37*
D26*
X316218000Y-150711400D03*
D27*
X316218000Y-156971400D03*
D28*
X316218000Y-146811400D03*
D26*
X316218000Y-153111400D03*
X490118000Y-107911400D03*
D27*
X490118000Y-114171400D03*
D28*
X490118000Y-104011400D03*
D26*
X490118000Y-110311400D03*
X463918000Y-107870298D03*
D27*
X463918000Y-114130298D03*
D28*
X463918000Y-103970298D03*
D26*
X463918000Y-110270298D03*
D31*
X442228856Y-108326176D03*
D24*
G36*
X441259217Y-107612173D02*
G01*
X442824254Y-107279514D01*
X443198495Y-109040179D01*
X441633458Y-109372838D01*
X441259217Y-107612173D01*
X441259217Y-107612173D01*
G37*
D28*
X443530383Y-114449380D03*
D32*
X443530383Y-114449380D02*
X443530383Y-114449380D01*
D28*
X441418000Y-104511400D03*
D31*
X442727844Y-110673730D03*
D24*
G36*
X441758205Y-109959727D02*
G01*
X443323242Y-109627068D01*
X443697483Y-111387733D01*
X442132446Y-111720392D01*
X441758205Y-109959727D01*
X441758205Y-109959727D01*
G37*
D31*
X423628856Y-112326176D03*
D24*
G36*
X422659217Y-111612173D02*
G01*
X424224254Y-111279514D01*
X424598495Y-113040179D01*
X423033458Y-113372838D01*
X422659217Y-111612173D01*
X422659217Y-111612173D01*
G37*
D28*
X424930383Y-118449380D03*
D32*
X424930383Y-118449380D02*
X424930383Y-118449380D01*
D28*
X422818000Y-108511400D03*
D31*
X424127844Y-114673730D03*
D24*
G36*
X423158205Y-113959727D02*
G01*
X424723242Y-113627068D01*
X425097483Y-115387733D01*
X423532446Y-115720392D01*
X423158205Y-113959727D01*
X423158205Y-113959727D01*
G37*
D31*
X405028856Y-116326176D03*
D24*
G36*
X404059217Y-115612173D02*
G01*
X405624254Y-115279514D01*
X405998495Y-117040179D01*
X404433458Y-117372838D01*
X404059217Y-115612173D01*
X404059217Y-115612173D01*
G37*
D28*
X406330383Y-122449380D03*
D32*
X406330383Y-122449380D02*
X406330383Y-122449380D01*
D28*
X404218000Y-112511400D03*
D31*
X405527844Y-118673730D03*
D24*
G36*
X404558205Y-117959727D02*
G01*
X406123242Y-117627068D01*
X406497483Y-119387733D01*
X404932446Y-119720392D01*
X404558205Y-117959727D01*
X404558205Y-117959727D01*
G37*
D26*
X518418000Y-95211400D03*
D27*
X518418000Y-101471400D03*
D28*
X518418000Y-91311400D03*
D26*
X518418000Y-97611400D03*
X487518000Y-88811400D03*
D27*
X487518000Y-95071400D03*
D28*
X487518000Y-84911400D03*
D26*
X487518000Y-91211400D03*
X468518000Y-88811400D03*
D27*
X468518000Y-95071400D03*
D28*
X468518000Y-84911400D03*
D26*
X468518000Y-91211400D03*
D31*
X428428856Y-91826176D03*
D24*
G36*
X427459217Y-91112173D02*
G01*
X429024254Y-90779514D01*
X429398495Y-92540179D01*
X427833458Y-92872838D01*
X427459217Y-91112173D01*
X427459217Y-91112173D01*
G37*
D28*
X429730383Y-97949380D03*
D32*
X429730383Y-97949380D02*
X429730383Y-97949380D01*
D28*
X427618000Y-88011400D03*
D31*
X428927844Y-94173730D03*
D24*
G36*
X427958205Y-93459727D02*
G01*
X429523242Y-93127068D01*
X429897483Y-94887733D01*
X428332446Y-95220392D01*
X427958205Y-93459727D01*
X427958205Y-93459727D01*
G37*
D26*
X506618000Y-69811400D03*
D27*
X506618000Y-76071400D03*
D28*
X506618000Y-65911400D03*
D26*
X506618000Y-72211400D03*
X487518000Y-69736800D03*
D27*
X487518000Y-75996800D03*
D28*
X487518000Y-65836800D03*
D26*
X487518000Y-72136800D03*
X468518000Y-69711400D03*
D27*
X468518000Y-75971400D03*
D28*
X468518000Y-65811400D03*
D26*
X468518000Y-72111400D03*
D31*
X446828856Y-68326176D03*
D24*
G36*
X445859217Y-67612173D02*
G01*
X447424254Y-67279514D01*
X447798495Y-69040179D01*
X446233458Y-69372838D01*
X445859217Y-67612173D01*
X445859217Y-67612173D01*
G37*
D28*
X448130383Y-74449380D03*
D32*
X448130383Y-74449380D02*
X448130383Y-74449380D01*
D28*
X446018000Y-64511400D03*
D31*
X447327844Y-70673730D03*
D24*
G36*
X446358205Y-69959727D02*
G01*
X447923242Y-69627068D01*
X448297483Y-71387733D01*
X446732446Y-71720392D01*
X446358205Y-69959727D01*
X446358205Y-69959727D01*
G37*
D31*
X428228856Y-72426176D03*
D24*
G36*
X427259217Y-71712173D02*
G01*
X428824254Y-71379514D01*
X429198495Y-73140179D01*
X427633458Y-73472838D01*
X427259217Y-71712173D01*
X427259217Y-71712173D01*
G37*
D28*
X429530383Y-78549380D03*
D32*
X429530383Y-78549380D02*
X429530383Y-78549380D01*
D28*
X427418000Y-68611400D03*
D31*
X428727844Y-74773730D03*
D24*
G36*
X427758205Y-74059727D02*
G01*
X429323242Y-73727068D01*
X429697483Y-75487733D01*
X428132446Y-75820392D01*
X427758205Y-74059727D01*
X427758205Y-74059727D01*
G37*
D26*
X316218000Y-131611400D03*
D27*
X316218000Y-137871400D03*
D28*
X316218000Y-127711400D03*
D26*
X316218000Y-134011400D03*
X316218000Y-112611400D03*
D27*
X316218000Y-118871400D03*
D28*
X316218000Y-108711400D03*
D26*
X316218000Y-115011400D03*
X297118000Y-150611400D03*
D27*
X297118000Y-156871400D03*
D28*
X297118000Y-146711400D03*
D26*
X297118000Y-153011400D03*
X278118000Y-150737400D03*
D27*
X278118000Y-156997400D03*
D28*
X278118000Y-146837400D03*
D26*
X278118000Y-153137400D03*
D31*
X236865884Y-163469116D03*
D24*
G36*
X236936595Y-162267034D02*
G01*
X238067966Y-163398405D01*
X236795173Y-164671198D01*
X235663802Y-163539827D01*
X236936595Y-162267034D01*
X236936595Y-162267034D01*
G37*
D28*
X232439395Y-167895605D03*
D32*
X232439395Y-167895605D02*
X232439395Y-167895605D01*
D28*
X239623600Y-160711400D03*
D31*
X235168827Y-165166173D03*
D24*
G36*
X235239538Y-163964091D02*
G01*
X236370909Y-165095462D01*
X235098116Y-166368255D01*
X233966745Y-165236884D01*
X235239538Y-163964091D01*
X235239538Y-163964091D01*
G37*
D31*
X204207144Y-142326176D03*
D24*
G36*
X203611746Y-141279514D02*
G01*
X205176783Y-141612173D01*
X204802542Y-143372838D01*
X203237505Y-143040179D01*
X203611746Y-141279514D01*
X203611746Y-141279514D01*
G37*
D28*
X202905617Y-148449380D03*
D32*
X202905617Y-148449380D02*
X202905617Y-148449380D01*
D28*
X205018000Y-138511400D03*
D31*
X203708156Y-144673730D03*
D24*
G36*
X203112758Y-143627068D02*
G01*
X204677795Y-143959727D01*
X204303554Y-145720392D01*
X202738517Y-145387733D01*
X203112758Y-143627068D01*
X203112758Y-143627068D01*
G37*
D31*
X171607144Y-135426176D03*
D24*
G36*
X171011746Y-134379514D02*
G01*
X172576783Y-134712173D01*
X172202542Y-136472838D01*
X170637505Y-136140179D01*
X171011746Y-134379514D01*
X171011746Y-134379514D01*
G37*
D28*
X170305617Y-141549380D03*
D32*
X170305617Y-141549380D02*
X170305617Y-141549380D01*
D28*
X172418000Y-131611400D03*
D31*
X171108156Y-137773730D03*
D24*
G36*
X170512758Y-136727068D02*
G01*
X172077795Y-137059727D01*
X171703554Y-138820392D01*
X170138517Y-138487733D01*
X170512758Y-136727068D01*
X170512758Y-136727068D01*
G37*
D31*
X145607144Y-131926176D03*
D24*
G36*
X145011746Y-130879514D02*
G01*
X146576783Y-131212173D01*
X146202542Y-132972838D01*
X144637505Y-132640179D01*
X145011746Y-130879514D01*
X145011746Y-130879514D01*
G37*
D28*
X144305617Y-138049380D03*
D32*
X144305617Y-138049380D02*
X144305617Y-138049380D01*
D28*
X146418000Y-128111400D03*
D31*
X145108156Y-134273730D03*
D24*
G36*
X144512758Y-133227068D02*
G01*
X146077795Y-133559727D01*
X145703554Y-135320392D01*
X144138517Y-134987733D01*
X144512758Y-133227068D01*
X144512758Y-133227068D01*
G37*
D26*
X118618000Y-126911400D03*
D27*
X118618000Y-133171400D03*
D28*
X118618000Y-123011400D03*
D26*
X118618000Y-129311400D03*
X90118000Y-131611400D03*
D27*
X90118000Y-137871400D03*
D28*
X90118000Y-127711400D03*
D26*
X90118000Y-134011400D03*
D31*
X386428856Y-120226176D03*
D24*
G36*
X385459217Y-119512173D02*
G01*
X387024254Y-119179514D01*
X387398495Y-120940179D01*
X385833458Y-121272838D01*
X385459217Y-119512173D01*
X385459217Y-119512173D01*
G37*
D28*
X387730383Y-126349380D03*
D32*
X387730383Y-126349380D02*
X387730383Y-126349380D01*
D28*
X385618000Y-116411400D03*
D31*
X386927844Y-122573730D03*
D24*
G36*
X385958205Y-121859727D02*
G01*
X387523242Y-121527068D01*
X387897483Y-123287733D01*
X386332446Y-123620392D01*
X385958205Y-121859727D01*
X385958205Y-121859727D01*
G37*
D26*
X316218000Y-93511400D03*
D27*
X316218000Y-99771400D03*
D28*
X316218000Y-89611400D03*
D26*
X316218000Y-95911400D03*
X297118000Y-131611400D03*
D27*
X297118000Y-137871400D03*
D28*
X297118000Y-127711400D03*
D26*
X297118000Y-134011400D03*
X278018000Y-131611400D03*
D27*
X278018000Y-137871400D03*
D28*
X278018000Y-127711400D03*
D26*
X278018000Y-134011400D03*
D31*
X207507144Y-123601176D03*
D24*
G36*
X206911746Y-122554514D02*
G01*
X208476783Y-122887173D01*
X208102542Y-124647838D01*
X206537505Y-124315179D01*
X206911746Y-122554514D01*
X206911746Y-122554514D01*
G37*
D28*
X206205617Y-129724380D03*
D32*
X206205617Y-129724380D02*
X206205617Y-129724380D01*
D28*
X208318000Y-119786400D03*
D31*
X207008156Y-125948730D03*
D24*
G36*
X206412758Y-124902068D02*
G01*
X207977795Y-125234727D01*
X207603554Y-126995392D01*
X206038517Y-126662733D01*
X206412758Y-124902068D01*
X206412758Y-124902068D01*
G37*
D31*
X188907144Y-119626176D03*
D24*
G36*
X188311746Y-118579514D02*
G01*
X189876783Y-118912173D01*
X189502542Y-120672838D01*
X187937505Y-120340179D01*
X188311746Y-118579514D01*
X188311746Y-118579514D01*
G37*
D28*
X187605617Y-125749380D03*
D32*
X187605617Y-125749380D02*
X187605617Y-125749380D01*
D28*
X189718000Y-115811400D03*
D31*
X188408156Y-121973730D03*
D24*
G36*
X187812758Y-120927068D02*
G01*
X189377795Y-121259727D01*
X189003554Y-123020392D01*
X187438517Y-122687733D01*
X187812758Y-120927068D01*
X187812758Y-120927068D01*
G37*
D31*
X170207144Y-115626176D03*
D24*
G36*
X169611746Y-114579514D02*
G01*
X171176783Y-114912173D01*
X170802542Y-116672838D01*
X169237505Y-116340179D01*
X169611746Y-114579514D01*
X169611746Y-114579514D01*
G37*
D28*
X168905617Y-121749380D03*
D32*
X168905617Y-121749380D02*
X168905617Y-121749380D01*
D28*
X171018000Y-111811400D03*
D31*
X169708156Y-117973730D03*
D24*
G36*
X169112758Y-116927068D02*
G01*
X170677795Y-117259727D01*
X170303554Y-119020392D01*
X168738517Y-118687733D01*
X169112758Y-116927068D01*
X169112758Y-116927068D01*
G37*
D31*
X151607144Y-111826176D03*
D24*
G36*
X151011746Y-110779514D02*
G01*
X152576783Y-111112173D01*
X152202542Y-112872838D01*
X150637505Y-112540179D01*
X151011746Y-110779514D01*
X151011746Y-110779514D01*
G37*
D28*
X150305617Y-117949380D03*
D32*
X150305617Y-117949380D02*
X150305617Y-117949380D01*
D28*
X152418000Y-108011400D03*
D31*
X151108156Y-114173730D03*
D24*
G36*
X150512758Y-113127068D02*
G01*
X152077795Y-113459727D01*
X151703554Y-115220392D01*
X150138517Y-114887733D01*
X150512758Y-113127068D01*
X150512758Y-113127068D01*
G37*
D26*
X99618000Y-107811400D03*
D27*
X99618000Y-114071400D03*
D28*
X99618000Y-103911400D03*
D26*
X99618000Y-110211400D03*
D31*
X409828856Y-95826176D03*
D24*
G36*
X408859217Y-95112173D02*
G01*
X410424254Y-94779514D01*
X410798495Y-96540179D01*
X409233458Y-96872838D01*
X408859217Y-95112173D01*
X408859217Y-95112173D01*
G37*
D28*
X411130383Y-101949380D03*
D32*
X411130383Y-101949380D02*
X411130383Y-101949380D01*
D28*
X409018000Y-92011400D03*
D31*
X410327844Y-98173730D03*
D24*
G36*
X409358205Y-97459727D02*
G01*
X410923242Y-97127068D01*
X411297483Y-98887733D01*
X409732446Y-99220392D01*
X409358205Y-97459727D01*
X409358205Y-97459727D01*
G37*
D31*
X391228856Y-99826176D03*
D24*
G36*
X390259217Y-99112173D02*
G01*
X391824254Y-98779514D01*
X392198495Y-100540179D01*
X390633458Y-100872838D01*
X390259217Y-99112173D01*
X390259217Y-99112173D01*
G37*
D28*
X392530383Y-105949380D03*
D32*
X392530383Y-105949380D02*
X392530383Y-105949380D01*
D28*
X390418000Y-96011400D03*
D31*
X391727844Y-102173730D03*
D24*
G36*
X390758205Y-101459727D02*
G01*
X392323242Y-101127068D01*
X392697483Y-102887733D01*
X391132446Y-103220392D01*
X390758205Y-101459727D01*
X390758205Y-101459727D01*
G37*
D26*
X297118000Y-112611400D03*
D27*
X297118000Y-118871400D03*
D28*
X297118000Y-108711400D03*
D26*
X297118000Y-115011400D03*
X278018000Y-112611400D03*
D27*
X278018000Y-118871400D03*
D28*
X278018000Y-108711400D03*
D26*
X278018000Y-115011400D03*
D31*
X202707144Y-103126176D03*
D24*
G36*
X202111746Y-102079514D02*
G01*
X203676783Y-102412173D01*
X203302542Y-104172838D01*
X201737505Y-103840179D01*
X202111746Y-102079514D01*
X202111746Y-102079514D01*
G37*
D28*
X201405617Y-109249380D03*
D32*
X201405617Y-109249380D02*
X201405617Y-109249380D01*
D28*
X203518000Y-99311400D03*
D31*
X202208156Y-105473730D03*
D24*
G36*
X201612758Y-104427068D02*
G01*
X203177795Y-104759727D01*
X202803554Y-106520392D01*
X201238517Y-106187733D01*
X201612758Y-104427068D01*
X201612758Y-104427068D01*
G37*
D31*
X184007144Y-99126176D03*
D24*
G36*
X183411746Y-98079514D02*
G01*
X184976783Y-98412173D01*
X184602542Y-100172838D01*
X183037505Y-99840179D01*
X183411746Y-98079514D01*
X183411746Y-98079514D01*
G37*
D28*
X182705617Y-105249380D03*
D32*
X182705617Y-105249380D02*
X182705617Y-105249380D01*
D28*
X184818000Y-95311400D03*
D31*
X183508156Y-101473730D03*
D24*
G36*
X182912758Y-100427068D02*
G01*
X184477795Y-100759727D01*
X184103554Y-102520392D01*
X182538517Y-102187733D01*
X182912758Y-100427068D01*
X182912758Y-100427068D01*
G37*
D31*
X165407144Y-95226176D03*
D24*
G36*
X164811746Y-94179514D02*
G01*
X166376783Y-94512173D01*
X166002542Y-96272838D01*
X164437505Y-95940179D01*
X164811746Y-94179514D01*
X164811746Y-94179514D01*
G37*
D28*
X164105617Y-101349380D03*
D32*
X164105617Y-101349380D02*
X164105617Y-101349380D01*
D28*
X166218000Y-91411400D03*
D31*
X164908156Y-97573730D03*
D24*
G36*
X164312758Y-96527068D02*
G01*
X165877795Y-96859727D01*
X165503554Y-98620392D01*
X163938517Y-98287733D01*
X164312758Y-96527068D01*
X164312758Y-96527068D01*
G37*
D31*
X146807144Y-91226176D03*
D24*
G36*
X146211746Y-90179514D02*
G01*
X147776783Y-90512173D01*
X147402542Y-92272838D01*
X145837505Y-91940179D01*
X146211746Y-90179514D01*
X146211746Y-90179514D01*
G37*
D28*
X145505617Y-97349380D03*
D32*
X145505617Y-97349380D02*
X145505617Y-97349380D01*
D28*
X147618000Y-87411400D03*
D31*
X146308156Y-93573730D03*
D24*
G36*
X145712758Y-92527068D02*
G01*
X147277795Y-92859727D01*
X146903554Y-94620392D01*
X145338517Y-94287733D01*
X145712758Y-92527068D01*
X145712758Y-92527068D01*
G37*
D26*
X125818000Y-88761400D03*
D27*
X125818000Y-95021400D03*
D28*
X125818000Y-84861400D03*
D26*
X125818000Y-91161400D03*
X99618000Y-88811400D03*
D27*
X99618000Y-95071400D03*
D28*
X99618000Y-84911400D03*
D26*
X99618000Y-91211400D03*
D31*
X409528856Y-76426176D03*
D24*
G36*
X408559217Y-75712173D02*
G01*
X410124254Y-75379514D01*
X410498495Y-77140179D01*
X408933458Y-77472838D01*
X408559217Y-75712173D01*
X408559217Y-75712173D01*
G37*
D28*
X410830383Y-82549380D03*
D32*
X410830383Y-82549380D02*
X410830383Y-82549380D01*
D28*
X408718000Y-72611400D03*
D31*
X410027844Y-78773730D03*
D24*
G36*
X409058205Y-78059727D02*
G01*
X410623242Y-77727068D01*
X410997483Y-79487733D01*
X409432446Y-79820392D01*
X409058205Y-78059727D01*
X409058205Y-78059727D01*
G37*
D31*
X390928856Y-80326176D03*
D24*
G36*
X389959217Y-79612173D02*
G01*
X391524254Y-79279514D01*
X391898495Y-81040179D01*
X390333458Y-81372838D01*
X389959217Y-79612173D01*
X389959217Y-79612173D01*
G37*
D28*
X392230383Y-86449380D03*
D32*
X392230383Y-86449380D02*
X392230383Y-86449380D01*
D28*
X390118000Y-76511400D03*
D31*
X391427844Y-82673730D03*
D24*
G36*
X390458205Y-81959727D02*
G01*
X392023242Y-81627068D01*
X392397483Y-83387733D01*
X390832446Y-83720392D01*
X390458205Y-81959727D01*
X390458205Y-81959727D01*
G37*
D26*
X297118000Y-93511400D03*
D27*
X297118000Y-99771400D03*
D28*
X297118000Y-89611400D03*
D26*
X297118000Y-95911400D03*
X278118000Y-93511400D03*
D27*
X278118000Y-99771400D03*
D28*
X278118000Y-89611400D03*
D26*
X278118000Y-95911400D03*
D31*
X203007144Y-83723176D03*
D24*
G36*
X202411746Y-82676514D02*
G01*
X203976783Y-83009173D01*
X203602542Y-84769838D01*
X202037505Y-84437179D01*
X202411746Y-82676514D01*
X202411746Y-82676514D01*
G37*
D28*
X201705617Y-89846380D03*
D32*
X201705617Y-89846380D02*
X201705617Y-89846380D01*
D28*
X203818000Y-79908400D03*
D31*
X202508156Y-86070730D03*
D24*
G36*
X201912758Y-85024068D02*
G01*
X203477795Y-85356727D01*
X203103554Y-87117392D01*
X201538517Y-86784733D01*
X201912758Y-85024068D01*
X201912758Y-85024068D01*
G37*
D26*
X516382000Y-48578600D03*
D27*
X516382000Y-54838600D03*
D28*
X516382000Y-44678600D03*
D26*
X516382000Y-50978600D03*
D31*
X184307144Y-79726176D03*
D24*
G36*
X183711746Y-78679514D02*
G01*
X185276783Y-79012173D01*
X184902542Y-80772838D01*
X183337505Y-80440179D01*
X183711746Y-78679514D01*
X183711746Y-78679514D01*
G37*
D28*
X183005617Y-85849380D03*
D32*
X183005617Y-85849380D02*
X183005617Y-85849380D01*
D28*
X185118000Y-75911400D03*
D31*
X183808156Y-82073730D03*
D24*
G36*
X183212758Y-81027068D02*
G01*
X184777795Y-81359727D01*
X184403554Y-83120392D01*
X182838517Y-82787733D01*
X183212758Y-81027068D01*
X183212758Y-81027068D01*
G37*
D31*
X165707144Y-75726176D03*
D24*
G36*
X165111746Y-74679514D02*
G01*
X166676783Y-75012173D01*
X166302542Y-76772838D01*
X164737505Y-76440179D01*
X165111746Y-74679514D01*
X165111746Y-74679514D01*
G37*
D28*
X164405617Y-81849380D03*
D32*
X164405617Y-81849380D02*
X164405617Y-81849380D01*
D28*
X166518000Y-71911400D03*
D31*
X165208156Y-78073730D03*
D24*
G36*
X164612758Y-77027068D02*
G01*
X166177795Y-77359727D01*
X165803554Y-79120392D01*
X164238517Y-78787733D01*
X164612758Y-77027068D01*
X164612758Y-77027068D01*
G37*
D26*
X492318000Y-50761400D03*
D27*
X492318000Y-57021400D03*
D28*
X492318000Y-46861400D03*
D26*
X492318000Y-53161400D03*
X473343000Y-50786400D03*
D27*
X473343000Y-57046400D03*
D28*
X473343000Y-46886400D03*
D26*
X473343000Y-53186400D03*
D31*
X147007144Y-71826176D03*
D24*
G36*
X146411746Y-70779514D02*
G01*
X147976783Y-71112173D01*
X147602542Y-72872838D01*
X146037505Y-72540179D01*
X146411746Y-70779514D01*
X146411746Y-70779514D01*
G37*
D28*
X145705617Y-77949380D03*
D32*
X145705617Y-77949380D02*
X145705617Y-77949380D01*
D28*
X147818000Y-68011400D03*
D31*
X146508156Y-74173730D03*
D24*
G36*
X145912758Y-73127068D02*
G01*
X147477795Y-73459727D01*
X147103554Y-75220392D01*
X145538517Y-74887733D01*
X145912758Y-73127068D01*
X145912758Y-73127068D01*
G37*
D26*
X125818000Y-69711400D03*
D27*
X125818000Y-75971400D03*
D28*
X125818000Y-65811400D03*
D26*
X125818000Y-72111400D03*
X454218000Y-48511400D03*
D27*
X454218000Y-54771400D03*
D28*
X454218000Y-44611400D03*
D26*
X454218000Y-50911400D03*
X102018000Y-69811400D03*
D27*
X102018000Y-76071400D03*
D28*
X102018000Y-65911400D03*
D26*
X102018000Y-72211400D03*
D31*
X432628856Y-51926176D03*
D24*
G36*
X431659217Y-51212173D02*
G01*
X433224254Y-50879514D01*
X433598495Y-52640179D01*
X432033458Y-52972838D01*
X431659217Y-51212173D01*
X431659217Y-51212173D01*
G37*
D28*
X433930383Y-58049380D03*
D32*
X433930383Y-58049380D02*
X433930383Y-58049380D01*
D28*
X431818000Y-48111400D03*
D31*
X433127844Y-54273730D03*
D24*
G36*
X432158205Y-53559727D02*
G01*
X433723242Y-53227068D01*
X434097483Y-54987733D01*
X432532446Y-55320392D01*
X432158205Y-53559727D01*
X432158205Y-53559727D01*
G37*
D31*
X413928856Y-55926176D03*
D24*
G36*
X412959217Y-55212173D02*
G01*
X414524254Y-54879514D01*
X414898495Y-56640179D01*
X413333458Y-56972838D01*
X412959217Y-55212173D01*
X412959217Y-55212173D01*
G37*
D28*
X415230383Y-62049380D03*
D32*
X415230383Y-62049380D02*
X415230383Y-62049380D01*
D28*
X413118000Y-52111400D03*
D31*
X414427844Y-58273730D03*
D24*
G36*
X413458205Y-57559727D02*
G01*
X415023242Y-57227068D01*
X415397483Y-58987733D01*
X413832446Y-59320392D01*
X413458205Y-57559727D01*
X413458205Y-57559727D01*
G37*
D31*
X395328856Y-59926176D03*
D24*
G36*
X394359217Y-59212173D02*
G01*
X395924254Y-58879514D01*
X396298495Y-60640179D01*
X394733458Y-60972838D01*
X394359217Y-59212173D01*
X394359217Y-59212173D01*
G37*
D28*
X396630383Y-66049380D03*
D32*
X396630383Y-66049380D02*
X396630383Y-66049380D01*
D28*
X394518000Y-56111400D03*
D31*
X395827844Y-62273730D03*
D24*
G36*
X394858205Y-61559727D02*
G01*
X396423242Y-61227068D01*
X396797483Y-62987733D01*
X395232446Y-63320392D01*
X394858205Y-61559727D01*
X394858205Y-61559727D01*
G37*
D31*
X376728856Y-63926176D03*
D24*
G36*
X375759217Y-63212173D02*
G01*
X377324254Y-62879514D01*
X377698495Y-64640179D01*
X376133458Y-64972838D01*
X375759217Y-63212173D01*
X375759217Y-63212173D01*
G37*
D28*
X378030383Y-70049380D03*
D32*
X378030383Y-70049380D02*
X378030383Y-70049380D01*
D28*
X375918000Y-60111400D03*
D31*
X377227844Y-66273730D03*
D24*
G36*
X376258205Y-65559727D02*
G01*
X377823242Y-65227068D01*
X378197483Y-66987733D01*
X376632446Y-67320392D01*
X376258205Y-65559727D01*
X376258205Y-65559727D01*
G37*
D31*
X198507144Y-63226176D03*
D24*
G36*
X197911746Y-62179514D02*
G01*
X199476783Y-62512173D01*
X199102542Y-64272838D01*
X197537505Y-63940179D01*
X197911746Y-62179514D01*
X197911746Y-62179514D01*
G37*
D28*
X197205617Y-69349380D03*
D32*
X197205617Y-69349380D02*
X197205617Y-69349380D01*
D28*
X199318000Y-59411400D03*
D31*
X198008156Y-65573730D03*
D24*
G36*
X197412758Y-64527068D02*
G01*
X198977795Y-64859727D01*
X198603554Y-66620392D01*
X197038517Y-66287733D01*
X197412758Y-64527068D01*
X197412758Y-64527068D01*
G37*
D31*
X179807144Y-59326176D03*
D24*
G36*
X179211746Y-58279514D02*
G01*
X180776783Y-58612173D01*
X180402542Y-60372838D01*
X178837505Y-60040179D01*
X179211746Y-58279514D01*
X179211746Y-58279514D01*
G37*
D28*
X178505617Y-65449380D03*
D32*
X178505617Y-65449380D02*
X178505617Y-65449380D01*
D28*
X180618000Y-55511400D03*
D31*
X179308156Y-61673730D03*
D24*
G36*
X178712758Y-60627068D02*
G01*
X180277795Y-60959727D01*
X179903554Y-62720392D01*
X178338517Y-62387733D01*
X178712758Y-60627068D01*
X178712758Y-60627068D01*
G37*
D37*
X269218000Y-71861400D03*
D27*
X275478000Y-71861400D03*
D28*
X265318000Y-71861400D03*
D37*
X271618000Y-71861400D03*
X267299600Y-56878400D03*
D27*
X273559600Y-56878400D03*
D28*
X263399600Y-56878400D03*
D37*
X269699600Y-56878400D03*
D26*
X139918000Y-48611400D03*
D27*
X139918000Y-54871400D03*
D28*
X139918000Y-44711400D03*
D26*
X139918000Y-51011400D03*
X120918000Y-50711400D03*
D27*
X120918000Y-56971400D03*
D28*
X120918000Y-46811400D03*
D26*
X120918000Y-53111400D03*
D37*
X267299600Y-53878400D03*
D27*
X273559600Y-53878400D03*
D28*
X263399600Y-53878400D03*
D37*
X269699600Y-53878400D03*
D26*
X101818000Y-50711400D03*
D27*
X101818000Y-56971400D03*
D28*
X101818000Y-46811400D03*
D26*
X101818000Y-53111400D03*
D35*
X254899600Y-43378400D03*
X254899600Y-48378400D03*
X254899600Y-45878400D03*
D29*
X487618000Y-134461400D03*
D27*
X487618000Y-127751400D03*
D30*
X487618000Y-137911400D03*
D29*
X487618000Y-131201400D03*
D31*
X432700705Y-134636791D03*
D24*
G36*
X433691135Y-135448609D02*
G01*
X432126099Y-135781268D01*
X431710275Y-133824973D01*
X433275311Y-133492314D01*
X433691135Y-135448609D01*
X433691135Y-135448609D01*
G37*
D28*
X431305617Y-128073420D03*
D32*
X431305617Y-128073420D02*
X431305617Y-128073420D01*
D28*
X433418000Y-138011400D03*
D24*
G36*
X434604059Y-138781636D02*
G01*
X432647764Y-139197459D01*
X432231941Y-137241164D01*
X434188236Y-136825341D01*
X434604059Y-138781636D01*
X434604059Y-138781636D01*
G37*
D31*
X432022913Y-131448030D03*
D24*
G36*
X433013343Y-132259848D02*
G01*
X431448307Y-132592507D01*
X431032483Y-130636212D01*
X432597519Y-130303553D01*
X433013343Y-132259848D01*
X433013343Y-132259848D01*
G37*
D31*
X381100705Y-143636791D03*
D24*
G36*
X382091135Y-144448609D02*
G01*
X380526099Y-144781268D01*
X380110275Y-142824973D01*
X381675311Y-142492314D01*
X382091135Y-144448609D01*
X382091135Y-144448609D01*
G37*
D28*
X379705617Y-137073420D03*
D32*
X379705617Y-137073420D02*
X379705617Y-137073420D01*
D28*
X381818000Y-147011400D03*
D24*
G36*
X383004059Y-147781636D02*
G01*
X381047764Y-148197459D01*
X380631941Y-146241164D01*
X382588236Y-145825341D01*
X383004059Y-147781636D01*
X383004059Y-147781636D01*
G37*
D31*
X380422913Y-140448030D03*
D24*
G36*
X381413343Y-141259848D02*
G01*
X379848307Y-141592507D01*
X379432483Y-139636212D01*
X380997519Y-139303553D01*
X381413343Y-141259848D01*
X381413343Y-141259848D01*
G37*
D31*
X342848082Y-165479882D03*
D24*
G36*
X344120874Y-165621303D02*
G01*
X342989503Y-166752674D01*
X341575290Y-165338461D01*
X342706661Y-164207090D01*
X344120874Y-165621303D01*
X344120874Y-165621303D01*
G37*
D28*
X338103395Y-160735195D03*
D32*
X338103395Y-160735195D02*
X338103395Y-160735195D01*
D28*
X345287600Y-167919400D03*
D24*
G36*
X346701814Y-167919400D02*
G01*
X345287600Y-169333614D01*
X343873386Y-167919400D01*
X345287600Y-166505186D01*
X346701814Y-167919400D01*
X346701814Y-167919400D01*
G37*
D31*
X340542913Y-163174713D03*
D24*
G36*
X341815705Y-163316134D02*
G01*
X340684334Y-164447505D01*
X339270121Y-163033292D01*
X340401492Y-161901921D01*
X341815705Y-163316134D01*
X341815705Y-163316134D01*
G37*
D29*
X299718000Y-153461400D03*
D27*
X299718000Y-146751400D03*
D30*
X299718000Y-156911400D03*
D29*
X299718000Y-150201400D03*
X473318000Y-110672200D03*
D27*
X473318000Y-103962200D03*
D30*
X473318000Y-114122200D03*
D29*
X473318000Y-107412200D03*
X447218000Y-110661400D03*
D27*
X447218000Y-103951400D03*
D30*
X447218000Y-114111400D03*
D29*
X447218000Y-107401400D03*
D31*
X426700705Y-114536791D03*
D24*
G36*
X427691135Y-115348609D02*
G01*
X426126099Y-115681268D01*
X425710275Y-113724973D01*
X427275311Y-113392314D01*
X427691135Y-115348609D01*
X427691135Y-115348609D01*
G37*
D28*
X425305617Y-107973420D03*
D32*
X425305617Y-107973420D02*
X425305617Y-107973420D01*
D28*
X427418000Y-117911400D03*
D24*
G36*
X428604059Y-118681636D02*
G01*
X426647764Y-119097459D01*
X426231941Y-117141164D01*
X428188236Y-116725341D01*
X428604059Y-118681636D01*
X428604059Y-118681636D01*
G37*
D31*
X426022913Y-111348030D03*
D24*
G36*
X427013343Y-112159848D02*
G01*
X425448307Y-112492507D01*
X425032483Y-110536212D01*
X426597519Y-110203553D01*
X427013343Y-112159848D01*
X427013343Y-112159848D01*
G37*
D31*
X408100705Y-118536791D03*
D24*
G36*
X409091135Y-119348609D02*
G01*
X407526099Y-119681268D01*
X407110275Y-117724973D01*
X408675311Y-117392314D01*
X409091135Y-119348609D01*
X409091135Y-119348609D01*
G37*
D28*
X406705617Y-111973420D03*
D32*
X406705617Y-111973420D02*
X406705617Y-111973420D01*
D28*
X408818000Y-121911400D03*
D24*
G36*
X410004059Y-122681636D02*
G01*
X408047764Y-123097459D01*
X407631941Y-121141164D01*
X409588236Y-120725341D01*
X410004059Y-122681636D01*
X410004059Y-122681636D01*
G37*
D31*
X407422913Y-115348030D03*
D24*
G36*
X408413343Y-116159848D02*
G01*
X406848307Y-116492507D01*
X406432483Y-114536212D01*
X407997519Y-114203553D01*
X408413343Y-116159848D01*
X408413343Y-116159848D01*
G37*
D31*
X389500705Y-122436791D03*
D24*
G36*
X390491135Y-123248609D02*
G01*
X388926099Y-123581268D01*
X388510275Y-121624973D01*
X390075311Y-121292314D01*
X390491135Y-123248609D01*
X390491135Y-123248609D01*
G37*
D28*
X388105617Y-115873420D03*
D32*
X388105617Y-115873420D02*
X388105617Y-115873420D01*
D28*
X390218000Y-125811400D03*
D24*
G36*
X391404059Y-126581636D02*
G01*
X389447764Y-126997459D01*
X389031941Y-125041164D01*
X390988236Y-124625341D01*
X391404059Y-126581636D01*
X391404059Y-126581636D01*
G37*
D31*
X388822913Y-119248030D03*
D24*
G36*
X389813343Y-120059848D02*
G01*
X388248307Y-120392507D01*
X387832483Y-118436212D01*
X389397519Y-118103553D01*
X389813343Y-120059848D01*
X389813343Y-120059848D01*
G37*
D29*
X502218000Y-98061400D03*
D27*
X502218000Y-91351400D03*
D30*
X502218000Y-101511400D03*
D29*
X502218000Y-94801400D03*
X471218000Y-91647600D03*
D27*
X471218000Y-84937600D03*
D30*
X471218000Y-95097600D03*
D29*
X471218000Y-88387600D03*
X452218000Y-91661400D03*
D27*
X452218000Y-84951400D03*
D30*
X452218000Y-95111400D03*
D29*
X452218000Y-88401400D03*
D31*
X431600705Y-94036791D03*
D24*
G36*
X432591135Y-94848609D02*
G01*
X431026099Y-95181268D01*
X430610275Y-93224973D01*
X432175311Y-92892314D01*
X432591135Y-94848609D01*
X432591135Y-94848609D01*
G37*
D28*
X430205617Y-87473420D03*
D32*
X430205617Y-87473420D02*
X430205617Y-87473420D01*
D28*
X432318000Y-97411400D03*
D24*
G36*
X433504059Y-98181636D02*
G01*
X431547764Y-98597459D01*
X431131941Y-96641164D01*
X433088236Y-96225341D01*
X433504059Y-98181636D01*
X433504059Y-98181636D01*
G37*
D31*
X430922913Y-90848030D03*
D24*
G36*
X431913343Y-91659848D02*
G01*
X430348307Y-91992507D01*
X429932483Y-90036212D01*
X431497519Y-89703553D01*
X431913343Y-91659848D01*
X431913343Y-91659848D01*
G37*
D31*
X412900705Y-98036791D03*
D24*
G36*
X413891135Y-98848609D02*
G01*
X412326099Y-99181268D01*
X411910275Y-97224973D01*
X413475311Y-96892314D01*
X413891135Y-98848609D01*
X413891135Y-98848609D01*
G37*
D28*
X411505617Y-91473420D03*
D32*
X411505617Y-91473420D02*
X411505617Y-91473420D01*
D28*
X413618000Y-101411400D03*
D24*
G36*
X414804059Y-102181636D02*
G01*
X412847764Y-102597459D01*
X412431941Y-100641164D01*
X414388236Y-100225341D01*
X414804059Y-102181636D01*
X414804059Y-102181636D01*
G37*
D31*
X412222913Y-94848030D03*
D24*
G36*
X413213343Y-95659848D02*
G01*
X411648307Y-95992507D01*
X411232483Y-94036212D01*
X412797519Y-93703553D01*
X413213343Y-95659848D01*
X413213343Y-95659848D01*
G37*
D29*
X490218000Y-72623000D03*
D27*
X490218000Y-65913000D03*
D30*
X490218000Y-76073000D03*
D29*
X490218000Y-69363000D03*
X471218000Y-72561400D03*
D27*
X471218000Y-65851400D03*
D30*
X471218000Y-76011400D03*
D29*
X471218000Y-69301400D03*
X452218000Y-72561400D03*
D27*
X452218000Y-65851400D03*
D30*
X452218000Y-76011400D03*
D29*
X452218000Y-69301400D03*
D31*
X431300705Y-74636791D03*
D24*
G36*
X432291135Y-75448609D02*
G01*
X430726099Y-75781268D01*
X430310275Y-73824973D01*
X431875311Y-73492314D01*
X432291135Y-75448609D01*
X432291135Y-75448609D01*
G37*
D28*
X429905617Y-68073420D03*
D32*
X429905617Y-68073420D02*
X429905617Y-68073420D01*
D28*
X432018000Y-78011400D03*
D24*
G36*
X433204059Y-78781636D02*
G01*
X431247764Y-79197459D01*
X430831941Y-77241164D01*
X432788236Y-76825341D01*
X433204059Y-78781636D01*
X433204059Y-78781636D01*
G37*
D31*
X430622913Y-71448030D03*
D24*
G36*
X431613343Y-72259848D02*
G01*
X430048307Y-72592507D01*
X429632483Y-70636212D01*
X431197519Y-70303553D01*
X431613343Y-72259848D01*
X431613343Y-72259848D01*
G37*
D31*
X412700705Y-78636791D03*
D24*
G36*
X413691135Y-79448609D02*
G01*
X412126099Y-79781268D01*
X411710275Y-77824973D01*
X413275311Y-77492314D01*
X413691135Y-79448609D01*
X413691135Y-79448609D01*
G37*
D28*
X411305617Y-72073420D03*
D32*
X411305617Y-72073420D02*
X411305617Y-72073420D01*
D28*
X413418000Y-82011400D03*
D24*
G36*
X414604059Y-82781636D02*
G01*
X412647764Y-83197459D01*
X412231941Y-81241164D01*
X414188236Y-80825341D01*
X414604059Y-82781636D01*
X414604059Y-82781636D01*
G37*
D31*
X412022913Y-75448030D03*
D24*
G36*
X413013343Y-76259848D02*
G01*
X411448307Y-76592507D01*
X411032483Y-74636212D01*
X412597519Y-74303553D01*
X413013343Y-76259848D01*
X413013343Y-76259848D01*
G37*
D29*
X299618000Y-134461400D03*
D27*
X299618000Y-127751400D03*
D30*
X299618000Y-137911400D03*
D29*
X299618000Y-131201400D03*
X299718000Y-115461400D03*
D27*
X299718000Y-108751400D03*
D30*
X299718000Y-118911400D03*
D29*
X299718000Y-112201400D03*
X280718000Y-153547400D03*
D27*
X280718000Y-146837400D03*
D30*
X280718000Y-156997400D03*
D29*
X280718000Y-150287400D03*
X261618000Y-153561400D03*
D27*
X261618000Y-146851400D03*
D30*
X261618000Y-157011400D03*
D29*
X261618000Y-150301400D03*
D31*
X223013118Y-153668882D03*
D24*
G36*
X222871697Y-154941674D02*
G01*
X221740326Y-153810303D01*
X223154539Y-152396090D01*
X224285910Y-153527461D01*
X222871697Y-154941674D01*
X222871697Y-154941674D01*
G37*
D28*
X227757805Y-148924195D03*
D32*
X227757805Y-148924195D02*
X227757805Y-148924195D01*
D28*
X220573600Y-156108400D03*
D24*
G36*
X220573600Y-157522614D02*
G01*
X219159386Y-156108400D01*
X220573600Y-154694186D01*
X221987814Y-156108400D01*
X220573600Y-157522614D01*
X220573600Y-157522614D01*
G37*
D31*
X225318287Y-151363713D03*
D24*
G36*
X225176866Y-152636505D02*
G01*
X224045495Y-151505134D01*
X225459708Y-150090921D01*
X226591079Y-151222292D01*
X225176866Y-152636505D01*
X225176866Y-152636505D01*
G37*
D31*
X187235295Y-141636791D03*
D24*
G36*
X187809901Y-142781268D02*
G01*
X186244865Y-142448609D01*
X186660689Y-140492314D01*
X188225725Y-140824973D01*
X187809901Y-142781268D01*
X187809901Y-142781268D01*
G37*
D28*
X188630383Y-135073420D03*
D32*
X188630383Y-135073420D02*
X188630383Y-135073420D01*
D28*
X186518000Y-145011400D03*
D24*
G36*
X187288236Y-146197459D02*
G01*
X185331941Y-145781636D01*
X185747764Y-143825341D01*
X187704059Y-144241164D01*
X187288236Y-146197459D01*
X187288236Y-146197459D01*
G37*
D31*
X187913087Y-138448030D03*
D24*
G36*
X188487693Y-139592507D02*
G01*
X186922657Y-139259848D01*
X187338481Y-137303553D01*
X188903517Y-137636212D01*
X188487693Y-139592507D01*
X188487693Y-139592507D01*
G37*
D31*
X154635295Y-134736791D03*
D24*
G36*
X155209901Y-135881268D02*
G01*
X153644865Y-135548609D01*
X154060689Y-133592314D01*
X155625725Y-133924973D01*
X155209901Y-135881268D01*
X155209901Y-135881268D01*
G37*
D28*
X156030383Y-128173420D03*
D32*
X156030383Y-128173420D02*
X156030383Y-128173420D01*
D28*
X153918000Y-138111400D03*
D24*
G36*
X154688236Y-139297459D02*
G01*
X152731941Y-138881636D01*
X153147764Y-136925341D01*
X155104059Y-137341164D01*
X154688236Y-139297459D01*
X154688236Y-139297459D01*
G37*
D31*
X155313087Y-131548030D03*
D24*
G36*
X155887693Y-132692507D02*
G01*
X154322657Y-132359848D01*
X154738481Y-130403553D01*
X156303517Y-130736212D01*
X155887693Y-132692507D01*
X155887693Y-132692507D01*
G37*
D31*
X128635295Y-131236791D03*
D24*
G36*
X129209901Y-132381268D02*
G01*
X127644865Y-132048609D01*
X128060689Y-130092314D01*
X129625725Y-130424973D01*
X129209901Y-132381268D01*
X129209901Y-132381268D01*
G37*
D28*
X130030383Y-124673420D03*
D32*
X130030383Y-124673420D02*
X130030383Y-124673420D01*
D28*
X127918000Y-134611400D03*
D24*
G36*
X128688236Y-135797459D02*
G01*
X126731941Y-135381636D01*
X127147764Y-133425341D01*
X129104059Y-133841164D01*
X128688236Y-135797459D01*
X128688236Y-135797459D01*
G37*
D31*
X129313087Y-128048030D03*
D24*
G36*
X129887693Y-129192507D02*
G01*
X128322657Y-128859848D01*
X128738481Y-126903553D01*
X130303517Y-127236212D01*
X129887693Y-129192507D01*
X129887693Y-129192507D01*
G37*
D29*
X101918000Y-129761400D03*
D27*
X101918000Y-123051400D03*
D30*
X101918000Y-133211400D03*
D29*
X101918000Y-126501400D03*
X73318000Y-134497400D03*
D27*
X73318000Y-127787400D03*
D30*
X73318000Y-137947400D03*
D29*
X73318000Y-131237400D03*
D31*
X370900705Y-126436791D03*
D24*
G36*
X371891135Y-127248609D02*
G01*
X370326099Y-127581268D01*
X369910275Y-125624973D01*
X371475311Y-125292314D01*
X371891135Y-127248609D01*
X371891135Y-127248609D01*
G37*
D28*
X369505617Y-119873420D03*
D32*
X369505617Y-119873420D02*
X369505617Y-119873420D01*
D28*
X371618000Y-129811400D03*
D24*
G36*
X372804059Y-130581636D02*
G01*
X370847764Y-130997459D01*
X370431941Y-129041164D01*
X372388236Y-128625341D01*
X372804059Y-130581636D01*
X372804059Y-130581636D01*
G37*
D31*
X370222913Y-123248030D03*
D24*
G36*
X371213343Y-124059848D02*
G01*
X369648307Y-124392507D01*
X369232483Y-122436212D01*
X370797519Y-122103553D01*
X371213343Y-124059848D01*
X371213343Y-124059848D01*
G37*
D29*
X299718000Y-96361400D03*
D27*
X299718000Y-89651400D03*
D30*
X299718000Y-99811400D03*
D29*
X299718000Y-93101400D03*
X280618000Y-134461400D03*
D27*
X280618000Y-127751400D03*
D30*
X280618000Y-137911400D03*
D29*
X280618000Y-131201400D03*
X261618000Y-134497400D03*
D27*
X261618000Y-127787400D03*
D30*
X261618000Y-137947400D03*
D29*
X261618000Y-131237400D03*
D31*
X190835295Y-122936791D03*
D24*
G36*
X191409901Y-124081268D02*
G01*
X189844865Y-123748609D01*
X190260689Y-121792314D01*
X191825725Y-122124973D01*
X191409901Y-124081268D01*
X191409901Y-124081268D01*
G37*
D28*
X192230383Y-116373420D03*
D32*
X192230383Y-116373420D02*
X192230383Y-116373420D01*
D28*
X190118000Y-126311400D03*
D24*
G36*
X190888236Y-127497459D02*
G01*
X188931941Y-127081636D01*
X189347764Y-125125341D01*
X191304059Y-125541164D01*
X190888236Y-127497459D01*
X190888236Y-127497459D01*
G37*
D31*
X191513087Y-119748030D03*
D24*
G36*
X192087693Y-120892507D02*
G01*
X190522657Y-120559848D01*
X190938481Y-118603553D01*
X192503517Y-118936212D01*
X192087693Y-120892507D01*
X192087693Y-120892507D01*
G37*
D31*
X172135295Y-118936791D03*
D24*
G36*
X172709901Y-120081268D02*
G01*
X171144865Y-119748609D01*
X171560689Y-117792314D01*
X173125725Y-118124973D01*
X172709901Y-120081268D01*
X172709901Y-120081268D01*
G37*
D28*
X173530383Y-112373420D03*
D32*
X173530383Y-112373420D02*
X173530383Y-112373420D01*
D28*
X171418000Y-122311400D03*
D24*
G36*
X172188236Y-123497459D02*
G01*
X170231941Y-123081636D01*
X170647764Y-121125341D01*
X172604059Y-121541164D01*
X172188236Y-123497459D01*
X172188236Y-123497459D01*
G37*
D31*
X172813087Y-115748030D03*
D24*
G36*
X173387693Y-116892507D02*
G01*
X171822657Y-116559848D01*
X172238481Y-114603553D01*
X173803517Y-114936212D01*
X173387693Y-116892507D01*
X173387693Y-116892507D01*
G37*
D31*
X153535295Y-115136791D03*
D24*
G36*
X154109901Y-116281268D02*
G01*
X152544865Y-115948609D01*
X152960689Y-113992314D01*
X154525725Y-114324973D01*
X154109901Y-116281268D01*
X154109901Y-116281268D01*
G37*
D28*
X154930383Y-108573420D03*
D32*
X154930383Y-108573420D02*
X154930383Y-108573420D01*
D28*
X152818000Y-118511400D03*
D24*
G36*
X153588236Y-119697459D02*
G01*
X151631941Y-119281636D01*
X152047764Y-117325341D01*
X154004059Y-117741164D01*
X153588236Y-119697459D01*
X153588236Y-119697459D01*
G37*
D31*
X154213087Y-111948030D03*
D24*
G36*
X154787693Y-113092507D02*
G01*
X153222657Y-112759848D01*
X153638481Y-110803553D01*
X155203517Y-111136212D01*
X154787693Y-113092507D01*
X154787693Y-113092507D01*
G37*
D31*
X134935295Y-111136791D03*
D24*
G36*
X135509901Y-112281268D02*
G01*
X133944865Y-111948609D01*
X134360689Y-109992314D01*
X135925725Y-110324973D01*
X135509901Y-112281268D01*
X135509901Y-112281268D01*
G37*
D28*
X136330383Y-104573420D03*
D32*
X136330383Y-104573420D02*
X136330383Y-104573420D01*
D28*
X134218000Y-114511400D03*
D24*
G36*
X134988236Y-115697459D02*
G01*
X133031941Y-115281636D01*
X133447764Y-113325341D01*
X135404059Y-113741164D01*
X134988236Y-115697459D01*
X134988236Y-115697459D01*
G37*
D31*
X135613087Y-107948030D03*
D24*
G36*
X136187693Y-109092507D02*
G01*
X134622657Y-108759848D01*
X135038481Y-106803553D01*
X136603517Y-107136212D01*
X136187693Y-109092507D01*
X136187693Y-109092507D01*
G37*
D29*
X113818000Y-110761400D03*
D27*
X113818000Y-104051400D03*
D30*
X113818000Y-114211400D03*
D29*
X113818000Y-107501400D03*
X82818000Y-110661400D03*
D27*
X82818000Y-103951400D03*
D30*
X82818000Y-114111400D03*
D29*
X82818000Y-107401400D03*
D31*
X394300705Y-102036791D03*
D24*
G36*
X395291135Y-102848609D02*
G01*
X393726099Y-103181268D01*
X393310275Y-101224973D01*
X394875311Y-100892314D01*
X395291135Y-102848609D01*
X395291135Y-102848609D01*
G37*
D28*
X392905617Y-95473420D03*
D32*
X392905617Y-95473420D02*
X392905617Y-95473420D01*
D28*
X395018000Y-105411400D03*
D24*
G36*
X396204059Y-106181636D02*
G01*
X394247764Y-106597459D01*
X393831941Y-104641164D01*
X395788236Y-104225341D01*
X396204059Y-106181636D01*
X396204059Y-106181636D01*
G37*
D31*
X393622913Y-98848030D03*
D24*
G36*
X394613343Y-99659848D02*
G01*
X393048307Y-99992507D01*
X392632483Y-98036212D01*
X394197519Y-97703553D01*
X394613343Y-99659848D01*
X394613343Y-99659848D01*
G37*
D31*
X375700705Y-105936791D03*
D24*
G36*
X376691135Y-106748609D02*
G01*
X375126099Y-107081268D01*
X374710275Y-105124973D01*
X376275311Y-104792314D01*
X376691135Y-106748609D01*
X376691135Y-106748609D01*
G37*
D28*
X374305617Y-99373420D03*
D32*
X374305617Y-99373420D02*
X374305617Y-99373420D01*
D28*
X376418000Y-109311400D03*
D24*
G36*
X377604059Y-110081636D02*
G01*
X375647764Y-110497459D01*
X375231941Y-108541164D01*
X377188236Y-108125341D01*
X377604059Y-110081636D01*
X377604059Y-110081636D01*
G37*
D31*
X375022913Y-102748030D03*
D24*
G36*
X376013343Y-103559848D02*
G01*
X374448307Y-103892507D01*
X374032483Y-101936212D01*
X375597519Y-101603553D01*
X376013343Y-103559848D01*
X376013343Y-103559848D01*
G37*
D29*
X280718000Y-115447400D03*
D27*
X280718000Y-108737400D03*
D30*
X280718000Y-118897400D03*
D29*
X280718000Y-112187400D03*
X261518000Y-115447400D03*
D27*
X261518000Y-108737400D03*
D30*
X261518000Y-118897400D03*
D29*
X261518000Y-112187400D03*
D31*
X186035295Y-102536791D03*
D24*
G36*
X186609901Y-103681268D02*
G01*
X185044865Y-103348609D01*
X185460689Y-101392314D01*
X187025725Y-101724973D01*
X186609901Y-103681268D01*
X186609901Y-103681268D01*
G37*
D28*
X187430383Y-95973420D03*
D32*
X187430383Y-95973420D02*
X187430383Y-95973420D01*
D28*
X185318000Y-105911400D03*
D24*
G36*
X186088236Y-107097459D02*
G01*
X184131941Y-106681636D01*
X184547764Y-104725341D01*
X186504059Y-105141164D01*
X186088236Y-107097459D01*
X186088236Y-107097459D01*
G37*
D31*
X186713087Y-99348030D03*
D24*
G36*
X187287693Y-100492507D02*
G01*
X185722657Y-100159848D01*
X186138481Y-98203553D01*
X187703517Y-98536212D01*
X187287693Y-100492507D01*
X187287693Y-100492507D01*
G37*
D31*
X167335295Y-98536791D03*
D24*
G36*
X167909901Y-99681268D02*
G01*
X166344865Y-99348609D01*
X166760689Y-97392314D01*
X168325725Y-97724973D01*
X167909901Y-99681268D01*
X167909901Y-99681268D01*
G37*
D28*
X168730383Y-91973420D03*
D32*
X168730383Y-91973420D02*
X168730383Y-91973420D01*
D28*
X166618000Y-101911400D03*
D24*
G36*
X167388236Y-103097459D02*
G01*
X165431941Y-102681636D01*
X165847764Y-100725341D01*
X167804059Y-101141164D01*
X167388236Y-103097459D01*
X167388236Y-103097459D01*
G37*
D31*
X168013087Y-95348030D03*
D24*
G36*
X168587693Y-96492507D02*
G01*
X167022657Y-96159848D01*
X167438481Y-94203553D01*
X169003517Y-94536212D01*
X168587693Y-96492507D01*
X168587693Y-96492507D01*
G37*
D31*
X148735295Y-94536791D03*
D24*
G36*
X149309901Y-95681268D02*
G01*
X147744865Y-95348609D01*
X148160689Y-93392314D01*
X149725725Y-93724973D01*
X149309901Y-95681268D01*
X149309901Y-95681268D01*
G37*
D28*
X150130383Y-87973420D03*
D32*
X150130383Y-87973420D02*
X150130383Y-87973420D01*
D28*
X148018000Y-97911400D03*
D24*
G36*
X148788236Y-99097459D02*
G01*
X146831941Y-98681636D01*
X147247764Y-96725341D01*
X149204059Y-97141164D01*
X148788236Y-99097459D01*
X148788236Y-99097459D01*
G37*
D31*
X149413087Y-91348030D03*
D24*
G36*
X149987693Y-92492507D02*
G01*
X148422657Y-92159848D01*
X148838481Y-90203553D01*
X150403517Y-90536212D01*
X149987693Y-92492507D01*
X149987693Y-92492507D01*
G37*
D31*
X130135295Y-90636791D03*
D24*
G36*
X130709901Y-91781268D02*
G01*
X129144865Y-91448609D01*
X129560689Y-89492314D01*
X131125725Y-89824973D01*
X130709901Y-91781268D01*
X130709901Y-91781268D01*
G37*
D28*
X131530383Y-84073420D03*
D32*
X131530383Y-84073420D02*
X131530383Y-84073420D01*
D28*
X129418000Y-94011400D03*
D24*
G36*
X130188236Y-95197459D02*
G01*
X128231941Y-94781636D01*
X128647764Y-92825341D01*
X130604059Y-93241164D01*
X130188236Y-95197459D01*
X130188236Y-95197459D01*
G37*
D31*
X130813087Y-87448030D03*
D24*
G36*
X131387693Y-88592507D02*
G01*
X129822657Y-88259848D01*
X130238481Y-86303553D01*
X131803517Y-86636212D01*
X131387693Y-88592507D01*
X131387693Y-88592507D01*
G37*
D29*
X109018000Y-91661400D03*
D27*
X109018000Y-84951400D03*
D30*
X109018000Y-95111400D03*
D29*
X109018000Y-88401400D03*
X82818000Y-91571400D03*
D27*
X82818000Y-84861400D03*
D30*
X82818000Y-95021400D03*
D29*
X82818000Y-88311400D03*
D31*
X394000705Y-82536791D03*
D24*
G36*
X394991135Y-83348609D02*
G01*
X393426099Y-83681268D01*
X393010275Y-81724973D01*
X394575311Y-81392314D01*
X394991135Y-83348609D01*
X394991135Y-83348609D01*
G37*
D28*
X392605617Y-75973420D03*
D32*
X392605617Y-75973420D02*
X392605617Y-75973420D01*
D28*
X394718000Y-85911400D03*
D24*
G36*
X395904059Y-86681636D02*
G01*
X393947764Y-87097459D01*
X393531941Y-85141164D01*
X395488236Y-84725341D01*
X395904059Y-86681636D01*
X395904059Y-86681636D01*
G37*
D31*
X393322913Y-79348030D03*
D24*
G36*
X394313343Y-80159848D02*
G01*
X392748307Y-80492507D01*
X392332483Y-78536212D01*
X393897519Y-78203553D01*
X394313343Y-80159848D01*
X394313343Y-80159848D01*
G37*
D31*
X375400705Y-86536791D03*
D24*
G36*
X376391135Y-87348609D02*
G01*
X374826099Y-87681268D01*
X374410275Y-85724973D01*
X375975311Y-85392314D01*
X376391135Y-87348609D01*
X376391135Y-87348609D01*
G37*
D28*
X374005617Y-79973420D03*
D32*
X374005617Y-79973420D02*
X374005617Y-79973420D01*
D28*
X376118000Y-89911400D03*
D24*
G36*
X377304059Y-90681636D02*
G01*
X375347764Y-91097459D01*
X374931941Y-89141164D01*
X376888236Y-88725341D01*
X377304059Y-90681636D01*
X377304059Y-90681636D01*
G37*
D31*
X374722913Y-83348030D03*
D24*
G36*
X375713343Y-84159848D02*
G01*
X374148307Y-84492507D01*
X373732483Y-82536212D01*
X375297519Y-82203553D01*
X375713343Y-84159848D01*
X375713343Y-84159848D01*
G37*
D29*
X280718000Y-96361400D03*
D27*
X280718000Y-89651400D03*
D30*
X280718000Y-99811400D03*
D29*
X280718000Y-93101400D03*
D31*
X186235295Y-83036791D03*
D24*
G36*
X186809901Y-84181268D02*
G01*
X185244865Y-83848609D01*
X185660689Y-81892314D01*
X187225725Y-82224973D01*
X186809901Y-84181268D01*
X186809901Y-84181268D01*
G37*
D28*
X187630383Y-76473420D03*
D32*
X187630383Y-76473420D02*
X187630383Y-76473420D01*
D28*
X185518000Y-86411400D03*
D24*
G36*
X186288236Y-87597459D02*
G01*
X184331941Y-87181636D01*
X184747764Y-85225341D01*
X186704059Y-85641164D01*
X186288236Y-87597459D01*
X186288236Y-87597459D01*
G37*
D31*
X186913087Y-79848030D03*
D24*
G36*
X187487693Y-80992507D02*
G01*
X185922657Y-80659848D01*
X186338481Y-78703553D01*
X187903517Y-79036212D01*
X187487693Y-80992507D01*
X187487693Y-80992507D01*
G37*
D31*
X167635295Y-79036791D03*
D24*
G36*
X168209901Y-80181268D02*
G01*
X166644865Y-79848609D01*
X167060689Y-77892314D01*
X168625725Y-78224973D01*
X168209901Y-80181268D01*
X168209901Y-80181268D01*
G37*
D28*
X169030383Y-72473420D03*
D32*
X169030383Y-72473420D02*
X169030383Y-72473420D01*
D28*
X166918000Y-82411400D03*
D24*
G36*
X167688236Y-83597459D02*
G01*
X165731941Y-83181636D01*
X166147764Y-81225341D01*
X168104059Y-81641164D01*
X167688236Y-83597459D01*
X167688236Y-83597459D01*
G37*
D31*
X168313087Y-75848030D03*
D24*
G36*
X168887693Y-76992507D02*
G01*
X167322657Y-76659848D01*
X167738481Y-74703553D01*
X169303517Y-75036212D01*
X168887693Y-76992507D01*
X168887693Y-76992507D01*
G37*
D29*
X499541800Y-51464800D03*
D27*
X499541800Y-44754800D03*
D30*
X499541800Y-54914800D03*
D29*
X499541800Y-48204800D03*
D31*
X149035295Y-75136791D03*
D24*
G36*
X149609901Y-76281268D02*
G01*
X148044865Y-75948609D01*
X148460689Y-73992314D01*
X150025725Y-74324973D01*
X149609901Y-76281268D01*
X149609901Y-76281268D01*
G37*
D28*
X150430383Y-68573420D03*
D32*
X150430383Y-68573420D02*
X150430383Y-68573420D01*
D28*
X148318000Y-78511400D03*
D24*
G36*
X149088236Y-79697459D02*
G01*
X147131941Y-79281636D01*
X147547764Y-77325341D01*
X149504059Y-77741164D01*
X149088236Y-79697459D01*
X149088236Y-79697459D01*
G37*
D31*
X149713087Y-71948030D03*
D24*
G36*
X150287693Y-73092507D02*
G01*
X148722657Y-72759848D01*
X149138481Y-70803553D01*
X150703517Y-71136212D01*
X150287693Y-73092507D01*
X150287693Y-73092507D01*
G37*
D29*
X475818000Y-53661400D03*
D27*
X475818000Y-46951400D03*
D30*
X475818000Y-57111400D03*
D29*
X475818000Y-50401400D03*
D31*
X130335295Y-71136791D03*
D24*
G36*
X130909901Y-72281268D02*
G01*
X129344865Y-71948609D01*
X129760689Y-69992314D01*
X131325725Y-70324973D01*
X130909901Y-72281268D01*
X130909901Y-72281268D01*
G37*
D28*
X131730383Y-64573420D03*
D32*
X131730383Y-64573420D02*
X131730383Y-64573420D01*
D28*
X129618000Y-74511400D03*
D24*
G36*
X130388236Y-75697459D02*
G01*
X128431941Y-75281636D01*
X128847764Y-73325341D01*
X130804059Y-73741164D01*
X130388236Y-75697459D01*
X130388236Y-75697459D01*
G37*
D31*
X131013087Y-67948030D03*
D24*
G36*
X131587693Y-69092507D02*
G01*
X130022657Y-68759848D01*
X130438481Y-66803553D01*
X132003517Y-67136212D01*
X131587693Y-69092507D01*
X131587693Y-69092507D01*
G37*
D29*
X456818000Y-53661400D03*
D27*
X456818000Y-46951400D03*
D30*
X456818000Y-57111400D03*
D29*
X456818000Y-50401400D03*
X109018000Y-72521400D03*
D27*
X109018000Y-65811400D03*
D30*
X109018000Y-75971400D03*
D29*
X109018000Y-69261400D03*
X437818000Y-51461400D03*
D27*
X437818000Y-44751400D03*
D30*
X437818000Y-54911400D03*
D29*
X437818000Y-48201400D03*
D31*
X417100705Y-58136791D03*
D24*
G36*
X418091135Y-58948609D02*
G01*
X416526099Y-59281268D01*
X416110275Y-57324973D01*
X417675311Y-56992314D01*
X418091135Y-58948609D01*
X418091135Y-58948609D01*
G37*
D28*
X415705617Y-51573420D03*
D32*
X415705617Y-51573420D02*
X415705617Y-51573420D01*
D28*
X417818000Y-61511400D03*
D24*
G36*
X419004059Y-62281636D02*
G01*
X417047764Y-62697459D01*
X416631941Y-60741164D01*
X418588236Y-60325341D01*
X419004059Y-62281636D01*
X419004059Y-62281636D01*
G37*
D31*
X416422913Y-54948030D03*
D24*
G36*
X417413343Y-55759848D02*
G01*
X415848307Y-56092507D01*
X415432483Y-54136212D01*
X416997519Y-53803553D01*
X417413343Y-55759848D01*
X417413343Y-55759848D01*
G37*
D29*
X85218000Y-72561400D03*
D27*
X85218000Y-65851400D03*
D30*
X85218000Y-76011400D03*
D29*
X85218000Y-69301400D03*
D31*
X398500705Y-62136791D03*
D24*
G36*
X399491135Y-62948609D02*
G01*
X397926099Y-63281268D01*
X397510275Y-61324973D01*
X399075311Y-60992314D01*
X399491135Y-62948609D01*
X399491135Y-62948609D01*
G37*
D28*
X397105617Y-55573420D03*
D32*
X397105617Y-55573420D02*
X397105617Y-55573420D01*
D28*
X399218000Y-65511400D03*
D24*
G36*
X400404059Y-66281636D02*
G01*
X398447764Y-66697459D01*
X398031941Y-64741164D01*
X399988236Y-64325341D01*
X400404059Y-66281636D01*
X400404059Y-66281636D01*
G37*
D31*
X397822913Y-58948030D03*
D24*
G36*
X398813343Y-59759848D02*
G01*
X397248307Y-60092507D01*
X396832483Y-58136212D01*
X398397519Y-57803553D01*
X398813343Y-59759848D01*
X398813343Y-59759848D01*
G37*
D31*
X379800705Y-66136791D03*
D24*
G36*
X380791135Y-66948609D02*
G01*
X379226099Y-67281268D01*
X378810275Y-65324973D01*
X380375311Y-64992314D01*
X380791135Y-66948609D01*
X380791135Y-66948609D01*
G37*
D28*
X378405617Y-59573420D03*
D32*
X378405617Y-59573420D02*
X378405617Y-59573420D01*
D28*
X380518000Y-69511400D03*
D24*
G36*
X381704059Y-70281636D02*
G01*
X379747764Y-70697459D01*
X379331941Y-68741164D01*
X381288236Y-68325341D01*
X381704059Y-70281636D01*
X381704059Y-70281636D01*
G37*
D31*
X379122913Y-62948030D03*
D24*
G36*
X380113343Y-63759848D02*
G01*
X378548307Y-64092507D01*
X378132483Y-62136212D01*
X379697519Y-61803553D01*
X380113343Y-63759848D01*
X380113343Y-63759848D01*
G37*
D31*
X361200705Y-70036791D03*
D24*
G36*
X362191135Y-70848609D02*
G01*
X360626099Y-71181268D01*
X360210275Y-69224973D01*
X361775311Y-68892314D01*
X362191135Y-70848609D01*
X362191135Y-70848609D01*
G37*
D28*
X359805617Y-63473420D03*
D32*
X359805617Y-63473420D02*
X359805617Y-63473420D01*
D28*
X361918000Y-73411400D03*
D24*
G36*
X363104059Y-74181636D02*
G01*
X361147764Y-74597459D01*
X360731941Y-72641164D01*
X362688236Y-72225341D01*
X363104059Y-74181636D01*
X363104059Y-74181636D01*
G37*
D31*
X360522913Y-66848030D03*
D24*
G36*
X361513343Y-67659848D02*
G01*
X359948307Y-67992507D01*
X359532483Y-66036212D01*
X361097519Y-65703553D01*
X361513343Y-67659848D01*
X361513343Y-67659848D01*
G37*
D31*
X200435295Y-66536791D03*
D24*
G36*
X201009901Y-67681268D02*
G01*
X199444865Y-67348609D01*
X199860689Y-65392314D01*
X201425725Y-65724973D01*
X201009901Y-67681268D01*
X201009901Y-67681268D01*
G37*
D28*
X201830383Y-59973420D03*
D32*
X201830383Y-59973420D02*
X201830383Y-59973420D01*
D28*
X199718000Y-69911400D03*
D24*
G36*
X200488236Y-71097459D02*
G01*
X198531941Y-70681636D01*
X198947764Y-68725341D01*
X200904059Y-69141164D01*
X200488236Y-71097459D01*
X200488236Y-71097459D01*
G37*
D31*
X201113087Y-63348030D03*
D24*
G36*
X201687693Y-64492507D02*
G01*
X200122657Y-64159848D01*
X200538481Y-62203553D01*
X202103517Y-62536212D01*
X201687693Y-64492507D01*
X201687693Y-64492507D01*
G37*
D31*
X181835295Y-62636791D03*
D24*
G36*
X182409901Y-63781268D02*
G01*
X180844865Y-63448609D01*
X181260689Y-61492314D01*
X182825725Y-61824973D01*
X182409901Y-63781268D01*
X182409901Y-63781268D01*
G37*
D28*
X183230383Y-56073420D03*
D32*
X183230383Y-56073420D02*
X183230383Y-56073420D01*
D28*
X181118000Y-66011400D03*
D24*
G36*
X181888236Y-67197459D02*
G01*
X179931941Y-66781636D01*
X180347764Y-64825341D01*
X182304059Y-65241164D01*
X181888236Y-67197459D01*
X181888236Y-67197459D01*
G37*
D31*
X182513087Y-59448030D03*
D24*
G36*
X183087693Y-60592507D02*
G01*
X181522657Y-60259848D01*
X181938481Y-58303553D01*
X183503517Y-58636212D01*
X183087693Y-60592507D01*
X183087693Y-60592507D01*
G37*
D31*
X163135295Y-58636791D03*
D24*
G36*
X163709901Y-59781268D02*
G01*
X162144865Y-59448609D01*
X162560689Y-57492314D01*
X164125725Y-57824973D01*
X163709901Y-59781268D01*
X163709901Y-59781268D01*
G37*
D28*
X164530383Y-52073420D03*
D32*
X164530383Y-52073420D02*
X164530383Y-52073420D01*
D28*
X162418000Y-62011400D03*
D24*
G36*
X163188236Y-63197459D02*
G01*
X161231941Y-62781636D01*
X161647764Y-60825341D01*
X163604059Y-61241164D01*
X163188236Y-63197459D01*
X163188236Y-63197459D01*
G37*
D31*
X163813087Y-55448030D03*
D24*
G36*
X164387693Y-56592507D02*
G01*
X162822657Y-56259848D01*
X163238481Y-54303553D01*
X164803517Y-54636212D01*
X164387693Y-56592507D01*
X164387693Y-56592507D01*
G37*
D31*
X144535295Y-54636791D03*
D24*
G36*
X145109901Y-55781268D02*
G01*
X143544865Y-55448609D01*
X143960689Y-53492314D01*
X145525725Y-53824973D01*
X145109901Y-55781268D01*
X145109901Y-55781268D01*
G37*
D28*
X145930383Y-48073420D03*
D32*
X145930383Y-48073420D02*
X145930383Y-48073420D01*
D28*
X143818000Y-58011400D03*
D24*
G36*
X144588236Y-59197459D02*
G01*
X142631941Y-58781636D01*
X143047764Y-56825341D01*
X145004059Y-57241164D01*
X144588236Y-59197459D01*
X144588236Y-59197459D01*
G37*
D31*
X145213087Y-51448030D03*
D24*
G36*
X145787693Y-52592507D02*
G01*
X144222657Y-52259848D01*
X144638481Y-50303553D01*
X146203517Y-50636212D01*
X145787693Y-52592507D01*
X145787693Y-52592507D01*
G37*
D29*
X123418000Y-51461400D03*
D27*
X123418000Y-44751400D03*
D30*
X123418000Y-54911400D03*
D29*
X123418000Y-48201400D03*
X104418000Y-53561400D03*
D27*
X104418000Y-46851400D03*
D30*
X104418000Y-57011400D03*
D29*
X104418000Y-50301400D03*
X85418000Y-53561400D03*
D27*
X85418000Y-46851400D03*
D30*
X85418000Y-57011400D03*
D29*
X85418000Y-50301400D03*
M02*
