0
SECTION
2
HEADER
9
$INSUNITS
70
4
9
$ACADVER
1
AC1014
9
$HANDSEED
5
FFFF
0
ENDSEC
0
SECTION
2
TABLES
0
TABLE
2
VPORT
5
8
100
AcDbSymbolTable
0
ENDTAB
0
TABLE
2
LTYPE
5
5
100
AcDbSymbolTable
0
LTYPE
5
14
100
AcDbSymbolTableRecord
100
AcDbLinetypeTableRecord
2
BYBLOCK
70
0
0
LTYPE
5
15
100
AcDbSymbolTableRecord
100
AcDbLinetypeTableRecord
2
BYLAYER
70
0
0
LTYPE
5
16
100
AcDbSymbolTableRecord
100
AcDbLinetypeTableRecord
2
DASHED
70
0
3
Dashed __ __ __ __ __ __ __ __ __ __ __ __ __ _
72
65
73
2
40
0.75
49
0.5
74
0
49
-0.25
74
0
0
ENDTAB
0
TABLE
2
LAYER
5
2
100
AcDbSymbolTable
70
3
0
LAYER
5
50
100
AcDbSymbolTableRecord
100
AcDbLayerTableRecord
2
1
70
0
62
7
6
DASHED
0
LAYER
5
51
100
AcDbSymbolTableRecord
100
AcDbLayerTableRecord
2
0
70
0
62
7
6
CONTINUOUS
0
ENDTAB
0
TABLE
2
STYLE
5
3
100
AcDbSymbolTable
70
1
0
STYLE
5
11
100
AcDbSymbolTableRecord
100
AcDbTextStyleTableRecord
2
STANDARD
70
0
0
ENDTAB
0
TABLE
2
VIEW
5
6
100
AcDbSymbolTable
70
0
0
ENDTAB
0
TABLE
2
UCS
5
7
100
AcDbSymbolTable
70
0
0
ENDTAB
0
TABLE
2
APPID
5
9
100
AcDbSymbolTable
70
2
0
APPID
5
12
100
AcDbSymbolTableRecord
100
AcDbRegAppTableRecord
2
ACAD
70
0
0
ENDTAB
0
TABLE
2
DIMSTYLE
5
A
100
AcDbSymbolTable
70
1
0
ENDTAB
0
TABLE
2
BLOCK_RECORD
5
1
100
AcDbSymbolTable
70
1
0
BLOCK_RECORD
5
1F
100
AcDbSymbolTableRecord
100
AcDbBlockTableRecord
2
*MODEL_SPACE
0
BLOCK_RECORD
5
1B
100
AcDbSymbolTableRecord
100
AcDbBlockTableRecord
2
*PAPER_SPACE
0
ENDTAB
0
ENDSEC
0
SECTION
2
BLOCKS
0
BLOCK
5
20
100
AcDbEntity
100
AcDbBlockBegin
2
*MODEL_SPACE
0
ENDBLK
5
21
100
AcDbEntity
100
AcDbBlockEnd
0
BLOCK
5
1C
100
AcDbEntity
100
AcDbBlockBegin
2
*PAPER_SPACE
0
ENDBLK
5
1D
100
AcDbEntity
100
AcDbBlockEnd
0
ENDSEC
0
SECTION
2
ENTITIES
0
POINT
5
100
100
AcDbEntity
8
0
100
AcDbPoint
10
70.269886838477419
20
189.34757571952139
30
2.6645352591003757e-14
0
POINT
5
101
100
AcDbEntity
8
0
100
AcDbPoint
10
72.719854745993842
20
197.17302505180501
30
3.5527136788005009e-14
0
POINT
5
102
100
AcDbEntity
8
0
100
AcDbPoint
10
72.719854745993842
20
197.17302505180501
30
0
0
POINT
5
103
100
AcDbEntity
8
0
100
AcDbPoint
10
71.793647366322929
20
194.21462347496615
30
8.4376949871511897e-14
0
POINT
5
104
100
AcDbEntity
8
0
100
AcDbPoint
10
73.646062125664628
20
200.13142662864399
30
7.9936057773011271e-14
0
POINT
5
105
100
AcDbEntity
8
0
100
AcDbPoint
10
79.021543550431915
20
189.85600938884392
30
7.9936057773011271e-14
0
POINT
5
106
100
AcDbEntity
8
0
100
AcDbPoint
10
78.095336170761044
20
186.89760781200502
30
3.5527136788005009e-14
0
POINT
5
107
100
AcDbEntity
8
0
100
AcDbPoint
10
78.095336170761044
20
186.89760781200502
30
0
0
POINT
5
108
100
AcDbEntity
8
0
100
AcDbPoint
10
77.169128791090202
20
183.93920623516604
30
8.4376949871511897e-14
0
POINT
5
109
100
AcDbEntity
8
0
100
AcDbPoint
10
68.746126310631837
20
184.4805279640766
30
7.9936057773011271e-14
0
POINT
5
110
100
AcDbEntity
8
0
100
AcDbPoint
10
67.819918930960966
20
181.52212638723762
30
3.5527136788005009e-14
0
POINT
5
111
100
AcDbEntity
8
0
100
AcDbPoint
10
67.819918930960966
20
181.52212638723762
30
0
0
POINT
5
112
100
AcDbEntity
8
0
100
AcDbPoint
10
66.89371155129011
20
178.56372481039864
30
8.4376949871511897e-14
0
POINT
5
113
100
AcDbEntity
8
0
100
AcDbPoint
10
63.370644885864522
20
194.75594520387713
30
7.9936057773011271e-14
0
POINT
5
114
100
AcDbEntity
8
0
100
AcDbPoint
10
62.444437506193538
20
191.79754362703804
30
3.5527136788005009e-14
0
POINT
5
115
100
AcDbEntity
8
0
100
AcDbPoint
10
62.444437506193538
20
191.79754362703804
30
0
0
POINT
5
116
100
AcDbEntity
8
0
100
AcDbPoint
10
61.518230126522823
20
188.83914205019889
30
8.4376949871511897e-14
0
POINT
5
117
100
AcDbEntity
8
0
100
AcDbPoint
10
49.279746754521923
20
195.93650729117439
30
8.8817841970012523e-15
0
POINT
5
118
100
AcDbEntity
8
0
100
AcDbPoint
10
50.205954134192964
20
198.8949088680134
30
7.9936057773011271e-14
0
POINT
5
119
100
AcDbEntity
8
0
100
AcDbPoint
10
49.279746754521923
20
195.93650729117439
30
3.5527136788005009e-14
0
POINT
5
120
100
AcDbEntity
8
0
100
AcDbPoint
10
48.353539374851252
20
192.97810571433519
30
8.4376949871511897e-14
0
POINT
5
121
100
AcDbEntity
8
0
100
AcDbPoint
10
49.279746754521923
20
195.93650729117439
30
0
0
LWPOLYLINE
5
122
100
AcDbEntity
8
0
100
AcDbPolyline
90
4
70
1
43
0.0
10
68.835245789483977
20
195.14083085463685
10
74.75204894316191
20
193.28841609529547
10
76.60446370250358
20
199.20521924897315
10
70.687660548825647
20
201.05763400831478
0
LINE
5
123
100
AcDbEntity
8
1
100
AcDbLine
10
68.835245789483977
20
195.14083085463685
30
9.7699626167013776e-14
11
76.60446370250358
21
199.20521924897315
31
5.3290705182007514e-14
0
LINE
5
124
100
AcDbEntity
8
1
100
AcDbLine
10
74.75204894316191
20
193.28841609529547
30
7.1054273576010019e-14
11
70.687660548825647
21
201.05763400831478
31
1.0658141036401503e-13
0
CIRCLE
5
125
100
AcDbEntity
8
0
100
AcDbCircle
10
72.719854745993842
20
197.17302505180501
30
3.5527136788005009e-14
40
1.5000000000000009
210
-5.221131272579117e-17
220
-1.4344940275419478e-16
230
1
0
LWPOLYLINE
5
126
100
AcDbEntity
8
0
100
AcDbPolyline
90
4
70
1
43
0.0
10
70.917101829150795
20
200.61904912612806
10
76.165878820316806
20
198.97577796864792
10
74.522607662836535
20
193.7270009774827
10
69.27383067167078
20
195.37027213496199
0
LINE
5
127
100
AcDbEntity
8
1
100
AcDbLine
10
70.917101829150795
20
200.61904912612806
30
3.5527136788005009e-14
11
74.522607662836535
21
193.7270009774827
31
2.6645352591003757e-14
0
LINE
5
128
100
AcDbEntity
8
1
100
AcDbLine
10
76.165878820316806
20
198.97577796864792
30
2.6645352591003757e-14
11
69.27383067167078
21
195.37027213496199
31
5.3290705182007514e-14
0
CIRCLE
5
129
100
AcDbEntity
8
0
100
AcDbCircle
10
71.972913310775354
20
194.7872173285478
30
0
40
0.625
210
0
220
0
230
1
0
CIRCLE
5
130
100
AcDbEntity
8
0
100
AcDbCircle
10
73.466796181212203
20
199.55883277506229
30
0
40
0.625
210
0
220
0
230
1
0
LINE
5
131
100
AcDbEntity
8
0
100
AcDbLine
10
74.210727214251222
20
184.86541361483688
30
9.7699626167013776e-14
11
80.127530367929211
21
183.0129988554952
31
7.1054273576010019e-14
0
CIRCLE
5
132
100
AcDbEntity
8
0
100
AcDbCircle
10
77.348394735542641
20
184.5118000887478
30
0
40
0.625
210
0
220
0
230
1
0
LINE
5
133
100
AcDbEntity
8
0
100
AcDbLine
10
76.063141973592934
20
190.78221676851479
30
1.0658141036401503e-13
11
74.210727214251222
21
184.86541361483688
31
9.7699626167013776e-14
0
LINE
5
134
100
AcDbEntity
8
0
100
AcDbLine
10
81.979945127270867
20
188.9298020091731
30
5.3290705182007514e-14
11
76.063141973592934
21
190.78221676851479
31
1.0658141036401503e-13
0
LINE
5
135
100
AcDbEntity
8
0
100
AcDbLine
10
80.127530367929211
20
183.0129988554952
30
7.1054273576010019e-14
11
81.979945127270867
21
188.9298020091731
31
5.3290705182007514e-14
0
LINE
5
136
100
AcDbEntity
8
0
100
AcDbLine
10
74.649312096439402
20
185.09485489516345
30
5.3290705182007514e-14
11
76.292583253919332
21
190.34363188632963
31
3.5527136788005009e-14
0
LINE
5
137
100
AcDbEntity
8
0
100
AcDbLine
10
76.292583253919332
20
190.34363188632963
30
3.5527136788005009e-14
11
81.541360245084874
21
188.70036072884773
31
2.6645352591003757e-14
0
LINE
5
138
100
AcDbEntity
8
1
100
AcDbLine
10
81.541360245084874
20
188.70036072884773
30
2.6645352591003757e-14
11
74.649312096439402
21
185.09485489516345
31
5.3290705182007514e-14
0
LINE
5
139
100
AcDbEntity
8
0
100
AcDbLine
10
81.541360245084874
20
188.70036072884773
30
2.6645352591003757e-14
11
79.898089087601591
21
183.45158373768268
31
2.6645352591003757e-14
0
LINE
5
140
100
AcDbEntity
8
1
100
AcDbLine
10
80.127530367929211
20
183.0129988554952
30
7.1054273576010019e-14
11
76.063141973592934
21
190.78221676851479
31
1.0658141036401503e-13
0
LINE
5
141
100
AcDbEntity
8
0
100
AcDbLine
10
79.898089087601591
20
183.45158373768268
30
2.6645352591003757e-14
11
74.649312096439402
21
185.09485489516345
31
5.3290705182007514e-14
0
CIRCLE
5
142
100
AcDbEntity
8
0
100
AcDbCircle
10
78.095336170761044
20
186.89760781200502
30
3.5527136788005009e-14
40
1.5000000000000009
210
-5.221131272579117e-17
220
-1.4344940275419478e-16
230
1
0
CIRCLE
5
143
100
AcDbEntity
8
0
100
AcDbCircle
10
78.84227760597949
20
189.28341553526224
30
0
40
0.625
210
0
220
0
230
1
0
LINE
5
144
100
AcDbEntity
8
1
100
AcDbLine
10
76.292583253919332
20
190.34363188632963
30
3.5527136788005009e-14
11
79.898089087601591
21
183.45158373768268
31
2.6645352591003757e-14
0
LINE
5
145
100
AcDbEntity
8
1
100
AcDbLine
10
74.210727214251222
20
184.86541361483688
30
9.7699626167013776e-14
11
81.979945127270867
21
188.9298020091731
31
5.3290705182007514e-14
0
LINE
5
146
100
AcDbEntity
8
0
100
AcDbLine
10
63.935309974451194
20
179.48993219006951
30
9.7699626167013776e-14
11
69.852113128129048
21
177.63751743072777
31
7.1054273576010019e-14
0
CIRCLE
5
147
100
AcDbEntity
8
0
100
AcDbCircle
10
67.072977495742535
20
179.13631866398035
30
0
40
0.625
210
0
220
0
230
1
0
LINE
5
148
100
AcDbEntity
8
0
100
AcDbLine
10
65.787724733792857
20
185.40673534374744
30
1.0658141036401503e-13
11
63.935309974451194
21
179.48993219006951
31
9.7699626167013776e-14
0
LINE
5
149
100
AcDbEntity
8
0
100
AcDbLine
10
71.704527887470789
20
183.55432058440579
30
5.3290705182007514e-14
11
65.787724733792857
21
185.40673534374744
31
1.0658141036401503e-13
0
LINE
5
150
100
AcDbEntity
8
0
100
AcDbLine
10
69.852113128129048
20
177.63751743072777
30
7.1054273576010019e-14
11
71.704527887470789
21
183.55432058440579
31
5.3290705182007514e-14
0
LINE
5
151
100
AcDbEntity
8
0
100
AcDbLine
10
64.373894856637946
20
179.71937347039511
30
5.3290705182007514e-14
11
66.017166014118246
21
184.96815046156118
31
3.5527136788005009e-14
0
LINE
5
152
100
AcDbEntity
8
0
100
AcDbLine
10
66.017166014118246
20
184.96815046156118
30
3.5527136788005009e-14
11
71.265943005284001
21
183.32487930408013
31
2.6645352591003757e-14
0
LINE
5
153
100
AcDbEntity
8
1
100
AcDbLine
10
71.265943005284001
20
183.32487930408013
30
2.6645352591003757e-14
11
64.373894856637946
21
179.71937347039511
31
5.3290705182007514e-14
0
LINE
5
154
100
AcDbEntity
8
0
100
AcDbLine
10
71.265943005284001
20
183.32487930408013
30
2.6645352591003757e-14
11
69.622671847803687
21
178.07610231291409
31
2.6645352591003757e-14
0
LINE
5
155
100
AcDbEntity
8
1
100
AcDbLine
10
69.852113128129048
20
177.63751743072777
30
7.1054273576010019e-14
11
65.787724733792857
21
185.40673534374744
31
1.0658141036401503e-13
0
LINE
5
156
100
AcDbEntity
8
0
100
AcDbLine
10
69.622671847803687
20
178.07610231291409
30
2.6645352591003757e-14
11
64.373894856637946
21
179.71937347039511
31
5.3290705182007514e-14
0
CIRCLE
5
157
100
AcDbEntity
8
0
100
AcDbCircle
10
67.819918930960966
20
181.52212638723762
30
3.5527136788005009e-14
40
1.5000000000000009
210
-5.221131272579117e-17
220
-1.4344940275419478e-16
230
1
0
CIRCLE
5
158
100
AcDbEntity
8
0
100
AcDbCircle
10
68.566860366179398
20
183.90793411049484
30
0
40
0.625
210
0
220
0
230
1
0
LINE
5
159
100
AcDbEntity
8
1
100
AcDbLine
10
66.017166014118246
20
184.96815046156118
30
3.5527136788005009e-14
11
69.622671847803687
21
178.07610231291409
31
2.6645352591003757e-14
0
LINE
5
160
100
AcDbEntity
8
1
100
AcDbLine
10
63.935309974451194
20
179.48993219006951
30
9.7699626167013776e-14
11
71.704527887470789
21
183.55432058440579
31
5.3290705182007514e-14
0
LINE
5
161
100
AcDbEntity
8
0
100
AcDbLine
10
58.559828549683829
20
189.76534942986973
30
9.7699626167013776e-14
11
64.476631703361775
21
187.91293467052805
31
7.1054274124033002e-14
0
CIRCLE
5
162
100
AcDbEntity
8
0
100
AcDbCircle
10
61.697496070975035
20
189.41173590378082
30
0
40
0.625
210
0
220
0
230
1
0
LINE
5
163
100
AcDbEntity
8
0
100
AcDbLine
10
60.41224330902547
20
195.68215258354769
30
1.0658141036401505e-13
11
58.559828549683829
21
189.76534942986973
31
9.7699626167013776e-14
0
LINE
5
164
100
AcDbEntity
8
0
100
AcDbLine
10
66.329046462703573
20
193.82973782420652
30
5.3290705182007514e-14
11
60.41224330902547
21
195.68215258354769
31
1.0658141036401505e-13
0
LINE
5
165
100
AcDbEntity
8
0
100
AcDbLine
10
64.476631703361775
20
187.91293467052805
30
7.1054274124033002e-14
11
66.329046462703573
21
193.82973782420652
31
5.3290705182007514e-14
0
LINE
5
166
100
AcDbEntity
8
0
100
AcDbLine
10
58.998413431871164
20
189.99479071019593
30
5.3290705182007514e-14
11
60.641684589351776
21
195.24356770136188
31
3.5527136788005009e-14
0
LINE
5
167
100
AcDbEntity
8
0
100
AcDbLine
10
60.641684589351776
20
195.24356770136188
30
3.5527136788005009e-14
11
65.890461580517609
21
193.60029654388103
31
2.6645352591003757e-14
0
LINE
5
168
100
AcDbEntity
8
1
100
AcDbLine
10
65.890461580517609
20
193.60029654388103
30
2.6645352591003757e-14
11
58.998413431871164
21
189.99479071019593
31
5.3290705182007514e-14
0
LINE
5
169
100
AcDbEntity
8
0
100
AcDbLine
10
65.890461580517609
20
193.60029654388103
30
2.6645352591003757e-14
11
64.247190423034453
21
188.35151955271573
31
2.6645352591003757e-14
0
LINE
5
170
100
AcDbEntity
8
1
100
AcDbLine
10
64.476631703361775
20
187.91293467052805
30
7.1054274124033002e-14
11
60.41224330902547
21
195.68215258354769
31
1.0658141036401505e-13
0
LINE
5
171
100
AcDbEntity
8
0
100
AcDbLine
10
64.247190423034453
20
188.35151955271573
30
2.6645352591003757e-14
11
58.998413431871164
21
189.99479071019593
31
5.3290705182007514e-14
0
CIRCLE
5
172
100
AcDbEntity
8
0
100
AcDbCircle
10
62.444437506193538
20
191.79754362703804
30
3.5527136788005009e-14
40
1.5000000000000009
210
-5.221131272579117e-17
220
-1.4344940275419478e-16
230
1
0
CIRCLE
5
173
100
AcDbEntity
8
0
100
AcDbCircle
10
63.191378941412026
20
194.18335135029523
30
0
40
0.625
210
0
220
0
230
1
0
LINE
5
174
100
AcDbEntity
8
1
100
AcDbLine
10
60.641684589351776
20
195.24356770136188
30
3.5527136788005009e-14
11
64.247190423034453
21
188.35151955271573
31
2.6645352591003757e-14
0
LINE
5
175
100
AcDbEntity
8
1
100
AcDbLine
10
58.559828549683829
20
189.76534942986973
30
9.7699626167013776e-14
11
66.329046462703573
21
193.82973782420652
31
5.3290705182007514e-14
0
LINE
5
176
100
AcDbEntity
8
0
100
AcDbLine
10
53.164355711031924
20
197.96870148834256
30
5.3290705182007514e-14
11
47.247552557354027
21
199.8211162476843
31
1.0658141036401503e-13
0
LINE
5
177
100
AcDbEntity
8
1
100
AcDbLine
10
51.31194095169009
20
192.05189833466403
30
7.1054273576010019e-14
11
47.247552557354027
21
199.8211162476843
31
1.0658141036401503e-13
0
LINE
5
178
100
AcDbEntity
8
0
100
AcDbLine
10
47.247552557354027
20
199.8211162476843
30
1.0658141036401503e-13
11
45.395137798012335
21
193.90431309400637
31
9.7699626167013776e-14
0
LINE
5
179
100
AcDbEntity
8
1
100
AcDbLine
10
52.725770828845135
20
197.73926020801719
30
2.6645352591003757e-14
11
45.833722680198711
21
194.13375437433166
31
5.3290705182007514e-14
0
LINE
5
180
100
AcDbEntity
8
0
100
AcDbLine
10
52.725770828845135
20
197.73926020801719
30
2.6645352591003757e-14
11
51.082499671364587
21
192.49048321685132
31
2.6645352591003757e-14
0
CIRCLE
5
181
100
AcDbEntity
8
0
100
AcDbCircle
10
48.532805319303677
20
193.55069956791706
30
0
40
0.625
210
0
220
0
230
1
0
CIRCLE
5
182
100
AcDbEntity
8
0
100
AcDbCircle
10
49.279746754521923
20
195.93650729117439
30
3.5527136788005009e-14
40
1.5000000000000009
210
-5.221131272579117e-17
220
-1.4344940275419478e-16
230
1
0
LINE
5
183
100
AcDbEntity
8
0
100
AcDbLine
10
51.31194095169009
20
192.05189833466403
30
7.1054273576010019e-14
11
53.164355711031924
21
197.96870148834256
31
5.3290705182007514e-14
0
CIRCLE
5
184
100
AcDbEntity
8
0
100
AcDbCircle
10
50.026688189740497
20
198.32231501443152
30
0
40
0.625
210
0
220
0
230
1
0
LINE
5
185
100
AcDbEntity
8
0
100
AcDbLine
10
45.833722680198711
20
194.13375437433166
30
5.3290705182007514e-14
11
47.476993837679196
21
199.3825313654975
31
3.5527136788005009e-14
0
LINE
5
186
100
AcDbEntity
8
0
100
AcDbLine
10
51.082499671364587
20
192.49048321685132
30
2.6645352591003757e-14
11
45.833722680198711
21
194.13375437433166
31
5.3290705182007514e-14
0
LINE
5
187
100
AcDbEntity
8
0
100
AcDbLine
10
47.476993837679196
20
199.3825313654975
30
3.5527136788005009e-14
11
52.725770828845135
21
197.73926020801719
31
2.6645352591003757e-14
0
LINE
5
188
100
AcDbEntity
8
1
100
AcDbLine
10
45.395137798012335
20
193.90431309400637
30
9.7699626167013776e-14
11
53.164355711031924
21
197.96870148834256
31
5.3290705182007514e-14
0
LINE
5
189
100
AcDbEntity
8
1
100
AcDbLine
10
47.476993837679196
20
199.3825313654975
30
3.5527136788005009e-14
11
51.082499671364587
21
192.49048321685132
31
2.6645352591003757e-14
0
LINE
5
190
100
AcDbEntity
8
0
100
AcDbLine
10
45.395137798012335
20
193.90431309400637
30
9.7699626167013776e-14
11
51.31194095169009
21
192.05189833466403
31
7.1054273576010019e-14
0
LINE
5
191
100
AcDbEntity
8
1
100
AcDbLine
10
61.9129525029145
20
179.38958151832355
30
8.8817841970012523e-15
11
69.08359028101134
21
202.29333566159295
31
1.1409059461064963e-14
0
LINE
5
192
100
AcDbEntity
8
1
100
AcDbLine
10
57.324126896405865
20
188.16127916205528
30
8.8817841970012523e-15
11
80.227881039675282
21
180.99064138395852
31
9.9920072216264089e-15
0
LINE
5
193
100
AcDbEntity
8
1
100
AcDbLine
10
71.456183395943427
20
176.40181577744988
30
1.7763568394002505e-14
11
78.626821174040231
21
199.30556992071928
31
1.9547080967741159e-14
0
LINE
5
194
100
AcDbEntity
8
1
100
AcDbLine
10
83.215646780548951
20
190.53387227698744
30
8.8817841970012523e-15
11
60.311892637279399
21
197.70451005508406
31
7.7715611723760958e-15
0
LINE
5
195
100
AcDbEntity
8
0
100
AcDbLine
10
61.255644039922331
20
177.29007072185706
30
8.6065323704614949e-15
11
46.066103342488809
21
192.78650792287348
31
0
0
LINE
5
196
100
AcDbEntity
8
0
100
AcDbLine
10
48.442134936819173
20
200.35786527745472
30
0
11
69.740898744003474
21
204.39284645805935
31
-1.7763568394002505e-14
0
CIRCLE
5
197
100
AcDbEntity
8
0
100
AcDbCircle
10
77.788484818818873
20
193.28085481081445
30
0
40
0.99999999999999023
210
0
220
0
230
1
0
CIRCLE
5
198
100
AcDbEntity
8
0
100
AcDbCircle
10
66.336607747184189
20
196.86617369986271
30
0
40
0.99999999999999023
210
0
220
0
230
1
0
CIRCLE
5
199
100
AcDbEntity
8
0
100
AcDbCircle
10
74.203165929770506
20
181.82897773917986
30
0
40
0.99999999999999023
210
0
220
0
230
1
0
CIRCLE
5
200
100
AcDbEntity
8
0
100
AcDbCircle
10
62.751288858135801
20
185.41429662822821
30
0
40
0.99999999999999023
210
0
220
0
230
1
0
CIRCLE
5
201
100
AcDbEntity
8
0
100
AcDbCircle
10
54.62194252958539
20
194.25692707035668
30
0
40
0.99999999999999023
210
0
220
0
230
1
0
CIRCLE
5
202
100
AcDbEntity
8
0
100
AcDbCircle
10
77.788484818818873
20
193.28085481081445
30
0
40
2.5
210
0
220
0
230
1
0
CIRCLE
5
203
100
AcDbEntity
8
0
100
AcDbCircle
10
62.751288858135801
20
185.41429662822821
30
0
40
2.5
210
0
220
0
230
1
0
CIRCLE
5
204
100
AcDbEntity
8
0
100
AcDbCircle
10
54.621942529585397
20
194.25692707035668
30
0
40
2.5
210
0
220
0
230
1
0
CIRCLE
5
205
100
AcDbEntity
8
0
100
AcDbCircle
10
74.203165929770506
20
181.82897773917986
30
0
40
2.5
210
0
220
0
230
1
0
CIRCLE
5
206
100
AcDbEntity
8
0
100
AcDbCircle
10
66.336607747184189
20
196.86617369986271
30
0
40
2.5
210
0
220
0
230
1
0
CIRCLE
5
207
100
AcDbEntity
8
0
100
AcDbCircle
10
77.788484818818873
20
193.28085481081445
30
0
40
0.94999999999999996
210
0
220
0
230
1
0
CIRCLE
5
208
100
AcDbEntity
8
0
100
AcDbCircle
10
66.336607747184189
20
196.86617369986271
30
0
40
0.94999999999999996
210
0
220
0
230
1
0
CIRCLE
5
209
100
AcDbEntity
8
0
100
AcDbCircle
10
54.621942529585397
20
194.25692707035665
30
0
40
0.94999999999999996
210
0
220
0
230
1
0
CIRCLE
5
210
100
AcDbEntity
8
0
100
AcDbCircle
10
74.203165929770506
20
181.82897773917986
30
0
40
0.94999999999999996
210
0
220
0
230
1
0
CIRCLE
5
211
100
AcDbEntity
8
0
100
AcDbCircle
10
62.751288858135801
20
185.41429662822821
30
0
40
0.94999999999999996
210
0
220
0
230
1
0
LINE
5
212
100
AcDbEntity
8
1
100
AcDbLine
10
49.279746754521923
20
195.93650729117439
30
0
11
62.444437506193538
21
191.79754362703804
31
3.5527136788005009e-14
0
LINE
5
213
100
AcDbEntity
8
0
100
AcDbLine
10
61.9129525029145
20
179.38958151832355
30
8.8817841970012523e-15
11
61.255644039922331
21
177.29007072185706
31
8.6065323704614949e-15
0
LINE
5
214
100
AcDbEntity
8
0
100
AcDbLine
10
61.255644039922331
20
177.29007072185706
30
8.6065323704614949e-15
11
70.798874932951179
21
174.30230498098356
31
2.7755575615628914e-14
0
LINE
5
215
100
AcDbEntity
8
0
100
AcDbLine
10
70.798874932951179
20
174.30230498098356
30
2.7755575615628914e-14
11
82.327391836141544
21
180.33333292096626
31
-1.609823385706477e-14
0
LINE
5
216
100
AcDbEntity
8
0
100
AcDbLine
10
80.227881039675282
20
180.99064138395852
30
9.9920072216264089e-15
11
82.327391836141544
21
180.33333292096626
31
-1.609823385706477e-14
0
LINE
5
217
100
AcDbEntity
8
0
100
AcDbLine
10
82.327391836141544
20
180.33333292096626
30
-1.609823385706477e-14
11
85.315157577015185
21
189.87656381399501
31
-1.7710984588636958e-14
0
LINE
5
218
100
AcDbEntity
8
0
100
AcDbLine
10
85.315157577015185
20
189.87656381399501
30
-1.7710984588636958e-14
11
83.215646780548951
21
190.53387227698744
31
8.8817841970012523e-15
0
LINE
5
219
100
AcDbEntity
8
0
100
AcDbLine
10
85.315157577015185
20
189.87656381399501
30
-1.7710984588636958e-14
11
79.284129637032365
21
201.40508071718597
31
-8.8817841970012523e-15
0
LINE
5
220
100
AcDbEntity
8
0
100
AcDbLine
10
69.740898744003474
20
204.39284645805935
30
-1.7763568394002505e-14
11
79.284129637032365
21
201.40508071718597
31
-8.8817841970012523e-15
0
LINE
5
221
100
AcDbEntity
8
0
100
AcDbLine
10
69.08359028101134
20
202.29333566159295
30
1.1409059461064963e-14
11
69.740898744003474
21
204.39284645805935
31
-1.7763568394002505e-14
0
LINE
5
222
100
AcDbEntity
8
0
100
AcDbLine
10
78.626821174040231
20
199.30556992071928
30
1.9547080967741159e-14
11
79.284129637032365
21
201.40508071718597
31
-8.8817841970012523e-15
0
LINE
5
223
100
AcDbEntity
8
0
100
AcDbLine
10
70.798874932951179
20
174.30230498098356
30
2.7755575615628914e-14
11
71.456183395943427
21
176.40181577744988
31
1.7763568394002505e-14
0
CIRCLE
5
224
100
AcDbEntity
8
0
100
AcDbCircle
10
70.269886838477419
20
189.34757571952139
30
-2.6645352591003757e-14
40
3.7499999999999982
210
5.0592689947035351e-17
220
1.1334822133152792e-16
230
1
0
CIRCLE
5
225
100
AcDbEntity
8
0
100
AcDbCircle
10
70.269886838477419
20
189.34757571952139
30
-2.6645352591003757e-14
40
3.4999999999999987
210
5.0592689947035345e-17
220
1.1334822133152792e-16
230
1
0
CIRCLE
5
226
100
AcDbEntity
8
0
100
AcDbCircle
10
70.269886838477419
20
189.34757571952139
30
2.6645352591003757e-14
40
1.7500000000000004
210
-5.4241566154224147e-17
220
-3.0161438790472114e-17
230
1
0
CIRCLE
5
227
100
AcDbEntity
8
0
100
AcDbCircle
10
49.279746754521923
20
195.93650729117439
30
8.8817841970012523e-15
40
4.5000000000000009
210
-5.5457828439568161e-17
220
-2.4325245706880284e-18
230
1
0
ENDSEC
0
SECTION
2
OBJECTS
0
DICTIONARY
5
C
100
AcDbDictionary
3
ACAD_GROUP
350
D
3
ACAD_MLINESTYLE
350
17
0
DICTIONARY
5
D
100
AcDbDictionary
0
DICTIONARY
5
1A
330
C
100
AcDbDictionary
0
DICTIONARY
5
17
100
AcDbDictionary
0
ENDSEC
0
EOF
