0
SECTION
2
HEADER
9
$INSUNITS
70
4
9
$ACADVER
1
AC1014
9
$HANDSEED
5
FFFF
0
ENDSEC
0
SECTION
2
TABLES
0
TABLE
2
VPORT
5
8
100
AcDbSymbolTable
0
ENDTAB
0
TABLE
2
LTYPE
5
5
100
AcDbSymbolTable
0
LTYPE
5
14
100
AcDbSymbolTableRecord
100
AcDbLinetypeTableRecord
2
BYBLOCK
70
0
0
LTYPE
5
15
100
AcDbSymbolTableRecord
100
AcDbLinetypeTableRecord
2
BYLAYER
70
0
0
LTYPE
5
16
100
AcDbSymbolTableRecord
100
AcDbLinetypeTableRecord
2
DASHED
70
0
3
Dashed __ __ __ __ __ __ __ __ __ __ __ __ __ _
72
65
73
2
40
0.75
49
0.5
74
0
49
-0.25
74
0
0
ENDTAB
0
TABLE
2
LAYER
5
2
100
AcDbSymbolTable
70
3
0
LAYER
5
50
100
AcDbSymbolTableRecord
100
AcDbLayerTableRecord
2
1
70
0
62
7
6
DASHED
0
LAYER
5
51
100
AcDbSymbolTableRecord
100
AcDbLayerTableRecord
2
0
70
0
62
7
6
CONTINUOUS
0
ENDTAB
0
TABLE
2
STYLE
5
3
100
AcDbSymbolTable
70
1
0
STYLE
5
11
100
AcDbSymbolTableRecord
100
AcDbTextStyleTableRecord
2
STANDARD
70
0
0
ENDTAB
0
TABLE
2
VIEW
5
6
100
AcDbSymbolTable
70
0
0
ENDTAB
0
TABLE
2
UCS
5
7
100
AcDbSymbolTable
70
0
0
ENDTAB
0
TABLE
2
APPID
5
9
100
AcDbSymbolTable
70
2
0
APPID
5
12
100
AcDbSymbolTableRecord
100
AcDbRegAppTableRecord
2
ACAD
70
0
0
ENDTAB
0
TABLE
2
DIMSTYLE
5
A
100
AcDbSymbolTable
70
1
0
ENDTAB
0
TABLE
2
BLOCK_RECORD
5
1
100
AcDbSymbolTable
70
1
0
BLOCK_RECORD
5
1F
100
AcDbSymbolTableRecord
100
AcDbBlockTableRecord
2
*MODEL_SPACE
0
BLOCK_RECORD
5
1B
100
AcDbSymbolTableRecord
100
AcDbBlockTableRecord
2
*PAPER_SPACE
0
ENDTAB
0
ENDSEC
0
SECTION
2
BLOCKS
0
BLOCK
5
20
100
AcDbEntity
100
AcDbBlockBegin
2
*MODEL_SPACE
0
ENDBLK
5
21
100
AcDbEntity
100
AcDbBlockEnd
0
BLOCK
5
1C
100
AcDbEntity
100
AcDbBlockBegin
2
*PAPER_SPACE
0
ENDBLK
5
1D
100
AcDbEntity
100
AcDbBlockEnd
0
ENDSEC
0
SECTION
2
ENTITIES
0
POINT
5
100
100
AcDbEntity
8
0
100
AcDbPoint
10
88.209838663299976
20
210.4286808071825
30
0
0
POINT
5
101
100
AcDbEntity
8
0
100
AcDbPoint
10
60.602031174029982
20
122.45239008697945
30
0
0
POINT
5
102
100
AcDbEntity
8
0
100
AcDbPoint
10
44.667789768608337
20
128.66909627015761
30
0
0
POINT
5
103
100
AcDbEntity
8
0
100
AcDbPoint
10
138.29544956458773
20
132.44758002800245
30
0
0
POINT
5
104
100
AcDbEntity
8
0
100
AcDbPoint
10
41.178865734158848
20
185.71249999999998
30
0
0
POINT
5
105
100
AcDbEntity
8
0
100
AcDbPoint
10
42.341840412302915
20
166.69803209004226
30
0
0
POINT
5
106
100
AcDbEntity
8
0
100
AcDbPoint
10
43.504815090449242
20
147.68356418010313
30
0
0
POINT
5
107
100
AcDbEntity
8
0
100
AcDbPoint
10
63.670814300094243
20
138.19409627019016
30
0
0
POINT
5
108
100
AcDbEntity
8
0
100
AcDbPoint
10
62.50783962195537
20
157.20856418012681
30
0
0
POINT
5
109
100
AcDbEntity
8
0
100
AcDbPoint
10
61.344864943816468
20
176.22303209006347
30
0
0
POINT
5
110
100
AcDbEntity
8
0
100
AcDbPoint
10
60.18189026567731
20
195.23750000000001
30
0
0
POINT
5
111
100
AcDbEntity
8
0
100
AcDbPoint
10
82.060337695730595
20
195.23750000000001
30
0
0
POINT
5
112
100
AcDbEntity
8
0
100
AcDbPoint
10
103.23483866330002
20
200
30
0
0
POINT
5
113
100
AcDbEntity
8
0
100
AcDbPoint
10
83.057679426218982
20
157.15055591843137
30
0
0
POINT
5
114
100
AcDbEntity
8
0
100
AcDbPoint
10
82.559008560967939
20
176.19402795921491
30
0
0
POINT
5
115
100
AcDbEntity
8
0
100
AcDbPoint
10
83.556350291470253
20
138.10708387764657
30
0
0
POINT
5
116
100
AcDbEntity
8
0
100
AcDbPoint
10
103.2348386632968
20
142.84999999999775
30
0
0
POINT
5
117
100
AcDbEntity
8
0
100
AcDbPoint
10
103.2348386632994
20
161.90000000000055
30
0
0
POINT
5
118
100
AcDbEntity
8
0
100
AcDbPoint
10
103.23483866330001
20
180.95000000000084
30
0
0
POINT
5
119
100
AcDbEntity
8
0
100
AcDbPoint
10
124.34698440532773
20
192.85624999999999
30
0
0
POINT
5
120
100
AcDbEntity
8
0
100
AcDbPoint
10
123.84831354001561
20
173.81277795921983
30
0
0
POINT
5
121
100
AcDbEntity
8
0
100
AcDbPoint
10
123.34964267470821
20
154.76930591844717
30
0
0
POINT
5
122
100
AcDbEntity
8
0
100
AcDbPoint
10
122.85097180934898
20
135.7258338776652
30
0
0
POINT
5
123
100
AcDbEntity
8
0
100
AcDbPoint
10
143.4951609615953
20
147.6835638856038
30
0
0
POINT
5
124
100
AcDbEntity
8
0
100
AcDbPoint
10
144.65813256113125
20
166.69803201285279
30
0
0
POINT
5
125
100
AcDbEntity
8
0
100
AcDbPoint
10
145.82110595766187
20
185.71250000000123
30
0
0
POINT
5
126
100
AcDbEntity
8
0
100
AcDbPoint
10
164.04582622403177
20
194.63824650550123
30
0
0
POINT
5
127
100
AcDbEntity
8
0
100
AcDbPoint
10
176.04582622403177
20
194.63824650550123
30
0
0
LINE
5
128
100
AcDbEntity
8
0
100
AcDbLine
10
50.09316897163945
20
207.66324661589914
30
0
11
84.439356196460622
21
213.52500000001595
31
0
0
LINE
5
129
100
AcDbEntity
8
0
100
AcDbLine
10
29.424340631640746
20
197.30328577843107
30
0
11
50.09316897163945
21
207.66324661589914
31
0
0
LINE
5
130
100
AcDbEntity
8
0
100
AcDbLine
10
34.330984052060757
20
117.08037497611224
30
0
11
29.424340631640746
21
197.30328577843107
31
0
0
LINE
5
131
100
AcDbEntity
8
0
100
AcDbLine
10
132.12337241509721
20
117.08037497611224
30
0
11
34.330984052060757
21
117.08037497611224
31
0
0
CIRCLE
5
132
100
AcDbEntity
8
0
100
AcDbCircle
10
60.602031174029982
20
122.45239008697945
30
0
40
1.5999999999999972
210
0
220
-0
230
1
0
LINE
5
133
100
AcDbEntity
8
0
100
AcDbLine
10
153.74614886242907
20
136.09693017026876
30
0
11
132.12337241509721
21
117.08037497611224
31
0
0
CIRCLE
5
134
100
AcDbEntity
8
0
100
AcDbCircle
10
138.29544956458773
20
132.44758002800245
30
0
40
1.5999999999999972
210
0
220
-0
230
1
0
CIRCLE
5
135
100
AcDbEntity
8
0
100
AcDbCircle
10
88.209838663299976
20
210.4286808071825
30
0
40
1.5999999999999972
210
0
220
-0
230
1
0
LWPOLYLINE
5
136
100
AcDbEntity
8
0
100
AcDbPolyline
90
4
70
1
43
0.0
10
53.593536384507097
20
138.75781756420378
10
52.430561706344498
20
157.77228547417769
10
33.416093796412611
20
156.60931079598376
10
34.579068474571535
20
137.59484288604841
0
LWPOLYLINE
5
137
100
AcDbEntity
8
0
100
AcDbPolyline
90
4
70
1
43
0.0
10
54.756511062652947
20
119.74334965426735
10
53.593536384499643
20
138.75781756420335
10
34.579068474563861
20
137.59484288604793
10
35.742043152717407
20
118.58037497611224
0
LWPOLYLINE
5
138
100
AcDbEntity
8
0
100
AcDbPolyline
90
4
70
1
43
0.0
10
52.430561706344477
20
157.77228547417761
10
51.267587028185616
20
176.78675338409076
10
32.253119118247909
20
175.62377870591874
10
33.416093796411282
20
156.60931079598367
0
LWPOLYLINE
5
139
100
AcDbEntity
8
0
100
AcDbPolyline
90
4
70
1
43
0.0
10
51.267587028185588
20
176.78675338409079
10
50.10461235001172
20
195.80122129401462
10
31.090144440187437
20
194.63824661586023
10
32.253119118247149
20
175.62377870591882
0
LWPOLYLINE
5
140
100
AcDbEntity
8
0
100
AcDbPolyline
90
4
70
1
43
0.0
10
70.270611559714553
20
186.31175338410088
10
69.107636881575615
20
205.32622129403694
10
50.09316897163945
20
204.16324661589911
10
51.256143649777954
20
185.14877870596254
0
LWPOLYLINE
5
141
100
AcDbEntity
8
0
100
AcDbPolyline
90
4
70
1
43
0.0
10
51.256143649778508
20
185.14877870596254
10
52.419118327917516
20
166.134310796026
10
71.433586237854115
20
167.29728547416437
10
70.270611559715363
20
186.31175338410091
0
LWPOLYLINE
5
142
100
AcDbEntity
8
0
100
AcDbPolyline
90
4
70
1
43
0.0
10
52.419118327917516
20
166.13431079602589
10
53.58209300605651
20
147.11984288608932
10
72.596560915993123
20
148.28281756422771
10
71.433586237854186
20
167.29728547416431
0
LWPOLYLINE
5
143
100
AcDbEntity
8
0
100
AcDbPolyline
90
4
70
1
43
0.0
10
53.582093006056454
20
147.11984288608932
10
54.745067684195419
20
128.10537497615275
10
73.759535594132032
20
129.26834965429097
10
72.596560915993095
20
148.28281756422763
0
LWPOLYLINE
5
144
100
AcDbEntity
8
0
100
AcDbPolyline
90
4
70
1
43
0.0
10
91.831409148733627
20
185.96509941223383
10
91.332738283479443
20
205.00857145300057
10
72.289266242712756
20
204.50990058776566
10
72.787937107948963
20
185.46642854698061
0
LWPOLYLINE
5
145
100
AcDbEntity
8
0
100
AcDbPolyline
90
4
70
1
43
0.0
10
92.330080013985807
20
166.92162737144923
10
91.831409148734821
20
185.96509941223385
10
72.787937107950071
20
185.46642854698064
10
73.286607973201143
20
166.42295650619587
0
LWPOLYLINE
5
146
100
AcDbEntity
8
0
100
AcDbPolyline
90
4
70
1
43
0.0
10
92.828750879236793
20
147.87815533066677
10
92.330080013990425
20
166.92162737144935
10
73.286607973201129
20
166.42295650619587
10
73.785278838452172
20
147.37948446541114
0
LWPOLYLINE
5
147
100
AcDbEntity
8
0
100
AcDbPolyline
90
4
70
1
43
0.0
10
92.82875087923712
20
147.8781553306668
10
73.785278838452285
20
147.37948446541114
10
74.283949703703385
20
128.3360124246264
10
93.327421744488163
20
128.8346832898763
0
LWPOLYLINE
5
148
100
AcDbEntity
8
0
100
AcDbPolyline
90
4
70
1
43
0.0
10
112.75983866329781
20
152.37500000000128
10
93.709838663297859
20
152.37499999999875
10
93.709838663296097
20
133.32499999999871
10
112.75983866329608
20
133.324999999997
0
LWPOLYLINE
5
149
100
AcDbEntity
8
0
100
AcDbPolyline
90
4
70
1
43
0.0
10
93.709838663298967
20
171.4250000000016
10
93.70983866329982
20
152.3750000000006
10
112.75983866329983
20
152.37500000000131
10
112.75983866329901
20
171.42500000000052
0
LWPOLYLINE
5
150
100
AcDbEntity
8
0
100
AcDbPolyline
90
4
70
1
43
0.0
10
93.709838663300147
20
190.47500000000025
10
93.709838663299905
20
171.42500000000072
10
112.75983866329989
20
171.42500000000052
10
112.75983866330014
20
190.47500000000099
0
LWPOLYLINE
5
151
100
AcDbEntity
8
0
100
AcDbPolyline
90
4
70
1
43
0.0
10
93.70983866329999
20
209.52500000000003
10
93.709838663299848
20
190.47500000000025
10
112.75983866329986
20
190.47500000000014
10
112.75983866329996
20
209.52499999999992
0
LWPOLYLINE
5
152
100
AcDbEntity
8
0
100
AcDbPolyline
90
4
70
1
43
0.0
10
114.57591295227681
20
183.58384941225583
10
133.61938499306311
20
183.08517854696697
10
134.11805585836055
20
202.12865058773195
10
115.0745838175861
20
202.62732145303897
0
LWPOLYLINE
5
153
100
AcDbEntity
8
0
100
AcDbPolyline
90
4
70
1
43
0.0
10
133.12071412775393
20
164.04170650619662
10
133.6193849930614
20
183.08517854696703
10
114.57591295227728
20
183.58384941225583
10
114.07724208696975
20
164.54037737147257
0
LWPOLYLINE
5
154
100
AcDbEntity
8
0
100
AcDbPolyline
90
4
70
1
43
0.0
10
132.6220432624466
20
144.99823446542169
10
133.12071412774446
20
164.04170650619687
10
114.07724208696978
20
164.54037737147263
10
113.57857122166229
20
145.49690533068937
0
LWPOLYLINE
5
155
100
AcDbEntity
8
0
100
AcDbPolyline
90
4
70
1
43
0.0
10
132.12337241509721
20
125.9547631104349
10
132.62204326234328
20
144.99823446542447
10
113.57857122166224
20
145.49690533068937
10
113.07990035635473
20
126.4534332899062
0
LWPOLYLINE
5
156
100
AcDbEntity
8
0
100
AcDbPolyline
90
4
70
1
43
0.0
10
152.42090859536893
20
137.59484146088727
10
153.58388123775805
20
156.60931163218106
10
134.56941318514862
20
157.77228418220096
10
133.40644068543239
20
138.7578161390264
0
LWPOLYLINE
5
157
100
AcDbEntity
8
0
100
AcDbPolyline
90
4
70
1
43
0.0
10
153.58388122529308
20
156.60931163294356
10
154.7468519371136
20
175.62377984350448
10
135.73238568486471
20
176.78675222537547
10
134.56941318514862
20
157.77228418220099
0
LWPOLYLINE
5
158
100
AcDbEntity
8
0
100
AcDbPolyline
90
4
70
1
43
0.0
10
135.73238568486482
20
176.78675222537547
10
154.74685372854552
20
175.62377973393609
10
155.90982622403175
20
194.63824776894063
10
136.89535818458103
20
195.80122026854986
0
LINE
5
159
100
AcDbEntity
8
0
100
AcDbLine
10
84.439356196460622
20
213.52500000001595
30
0
11
111.4229507401263
21
213.5249999999597
31
0
0
LINE
5
160
100
AcDbEntity
8
0
100
AcDbLine
10
111.4229507401263
20
213.5249999999597
30
0
11
158.90982622403175
21
200.41532854223507
31
0
0
LINE
5
161
100
AcDbEntity
8
0
100
AcDbLine
10
158.90982622403175
20
200.41532854223507
30
0
11
158.90982622403175
21
194.63824650550117
31
0
0
LINE
5
162
100
AcDbEntity
8
0
100
AcDbLine
10
160.04582622403177
20
194.63824650550117
30
0
11
180.04582622403177
21
194.63824650550117
31
0
0
LINE
5
163
100
AcDbEntity
8
0
100
AcDbLine
10
180.04582622403177
20
194.63824650550117
30
0
11
183.04582622403177
21
193.8100384170051
31
0
0
LINE
5
164
100
AcDbEntity
8
0
100
AcDbLine
10
183.04582622403177
20
193.8100384170051
30
0
11
183.04582622403228
21
152.13824650550126
31
0
0
LINE
5
165
100
AcDbEntity
8
0
100
AcDbLine
10
183.04582622403228
20
152.13824650550126
30
0
11
166.58359880601841
21
152.13824650550129
31
0
0
LINE
5
166
100
AcDbEntity
8
0
100
AcDbLine
10
166.58359880601841
20
152.13824650550129
30
0
11
153.74614886242907
21
136.09693017026876
31
0
0
LWPOLYLINE
5
167
100
AcDbEntity
8
0
100
AcDbPolyline
90
6
70
1
43
0.0
10
181.29582622403206
20
155.88824650550131
10
181.29582622403174
20
190.88824650550123
10
161.67727229872409
20
190.88824650550112
10
159.35309273306009
20
152.88824650550117
10
179.29582622403214
20
152.88824650550126
10
179.29582622403217
20
155.88824650550129
0
LINE
5
168
100
AcDbEntity
8
0
100
AcDbLine
10
147.82450040038549
20
203.47564737915422
30
0
11
156.01800209612398
21
201.21367258664878
31
0
0
LINE
5
169
100
AcDbEntity
8
0
100
AcDbLine
10
138.18508664069321
20
206.13679419386656
30
0
11
146.37858833643168
21
203.87481940136104
31
0
0
LINE
5
170
100
AcDbEntity
8
0
100
AcDbLine
10
156.01800209612398
20
201.21367258664878
30
0
11
155.75188741465271
21
200.24973121067956
31
0
0
LINE
5
171
100
AcDbEntity
8
0
100
AcDbLine
10
155.75188741465271
20
200.24973121067956
30
0
11
147.55838571891425
21
202.51170600318494
31
0
0
LINE
5
172
100
AcDbEntity
8
0
100
AcDbLine
10
147.55838571891425
20
202.51170600318494
30
0
11
147.82450040038549
21
203.47564737915422
31
0
0
LINE
5
173
100
AcDbEntity
8
0
100
AcDbLine
10
146.37858833643168
20
203.87481940136104
30
0
11
146.1124736549605
21
202.91087802539198
31
0
0
LINE
5
174
100
AcDbEntity
8
0
100
AcDbLine
10
146.1124736549605
20
202.91087802539198
30
0
11
137.91897195922201
21
205.17285281789754
31
0
0
LINE
5
175
100
AcDbEntity
8
0
100
AcDbLine
10
137.91897195922201
20
205.17285281789754
30
0
11
138.18508664069321
21
206.13679419386656
31
0
0
LINE
5
176
100
AcDbEntity
8
0
100
AcDbLine
10
160.04582622403177
20
194.63824650550117
30
0
11
158.90982622403175
21
194.63824650550117
31
0
0
LINE
5
177
100
AcDbEntity
8
0
100
AcDbLine
10
170.04582622403177
20
194.63824650550117
30
0
11
170.04582622403177
21
193.63824650550114
31
0
0
ENDSEC
0
SECTION
2
OBJECTS
0
DICTIONARY
5
C
100
AcDbDictionary
3
ACAD_GROUP
350
D
3
ACAD_MLINESTYLE
350
17
0
DICTIONARY
5
D
100
AcDbDictionary
0
DICTIONARY
5
1A
330
C
100
AcDbDictionary
0
DICTIONARY
5
17
100
AcDbDictionary
0
ENDSEC
0
EOF
