0
SECTION
2
HEADER
9
$INSUNITS
70
4
9
$ACADVER
1
AC1014
9
$HANDSEED
5
FFFF
0
ENDSEC
0
SECTION
2
TABLES
0
TABLE
2
VPORT
5
8
100
AcDbSymbolTable
0
ENDTAB
0
TABLE
2
LTYPE
5
5
100
AcDbSymbolTable
0
LTYPE
5
14
100
AcDbSymbolTableRecord
100
AcDbLinetypeTableRecord
2
BYBLOCK
70
0
0
LTYPE
5
15
100
AcDbSymbolTableRecord
100
AcDbLinetypeTableRecord
2
BYLAYER
70
0
0
ENDTAB
0
TABLE
2
LAYER
5
2
100
AcDbSymbolTable
70
2
0
LAYER
5
50
100
AcDbSymbolTableRecord
100
AcDbLayerTableRecord
2
0
70
0
6
CONTINUOUS
0
ENDTAB
0
TABLE
2
STYLE
5
3
100
AcDbSymbolTable
70
1
0
STYLE
5
11
100
AcDbSymbolTableRecord
100
AcDbTextStyleTableRecord
2
STANDARD
70
0
0
ENDTAB
0
TABLE
2
VIEW
5
6
100
AcDbSymbolTable
70
0
0
ENDTAB
0
TABLE
2
UCS
5
7
100
AcDbSymbolTable
70
0
0
ENDTAB
0
TABLE
2
APPID
5
9
100
AcDbSymbolTable
70
2
0
APPID
5
12
100
AcDbSymbolTableRecord
100
AcDbRegAppTableRecord
2
ACAD
70
0
0
ENDTAB
0
TABLE
2
DIMSTYLE
5
A
100
AcDbSymbolTable
70
1
0
ENDTAB
0
TABLE
2
BLOCK_RECORD
5
1
100
AcDbSymbolTable
70
1
0
BLOCK_RECORD
5
1F
100
AcDbSymbolTableRecord
100
AcDbBlockTableRecord
2
*MODEL_SPACE
0
BLOCK_RECORD
5
1B
100
AcDbSymbolTableRecord
100
AcDbBlockTableRecord
2
*PAPER_SPACE
0
ENDTAB
0
ENDSEC
0
SECTION
2
BLOCKS
0
BLOCK
5
20
100
AcDbEntity
100
AcDbBlockBegin
2
*MODEL_SPACE
0
ENDBLK
5
21
100
AcDbEntity
100
AcDbBlockEnd
0
BLOCK
5
1C
100
AcDbEntity
100
AcDbBlockBegin
2
*PAPER_SPACE
0
ENDBLK
5
1D
100
AcDbEntity
100
AcDbBlockEnd
0
ENDSEC
0
SECTION
2
ENTITIES
0
ARC
5
100
100
AcDbEntity
8
0
100
AcDbCircle
10
380.43000000000001
20
174.78000000000003
30
0
40
3.5699999999999932
210
-0
220
0
230
1
100
AcDbArc
50
0
51
90
0
LINE
5
101
100
AcDbEntity
8
0
100
AcDbLine
10
384
20
174.78000000000003
30
0
11
384.00000000000006
21
43.520000040098367
31
0
0
ARC
5
102
100
AcDbEntity
8
0
100
AcDbCircle
10
380.43000000000006
20
43.520000040098367
30
0
40
3.5700000000000021
210
0
220
0
230
1
100
AcDbArc
50
-90
51
0
0
LINE
5
103
100
AcDbEntity
8
0
100
AcDbLine
10
217.13854318279741
20
39.950000040098288
30
0
11
380.43000000000006
21
39.950000040098359
31
0
0
LINE
5
104
100
AcDbEntity
8
0
100
AcDbLine
10
185.41642981819308
20
31.450085381847526
30
0
11
217.13854318279741
21
39.950000040098288
31
0
0
LINE
5
105
100
AcDbEntity
8
0
100
AcDbLine
10
171.75857014583164
20
31.450085381848094
30
0
11
185.41642981819308
21
31.450085381847526
31
0
0
LINE
5
106
100
AcDbEntity
8
0
100
AcDbLine
10
140.03645684404574
20
39.950000042549561
30
0
11
171.75857014583164
21
31.450085381848094
31
0
0
LINE
5
107
100
AcDbEntity
8
0
100
AcDbLine
10
140.03645684338881
20
39.950000040098011
30
0
11
48.570000000000029
21
39.950000040098011
31
0
0
ARC
5
108
100
AcDbEntity
8
0
100
AcDbCircle
10
48.570000000000022
20
43.520000040098012
30
0
40
3.5700000000000021
210
0
220
0
230
1
100
AcDbArc
50
180
51
270
0
LINE
5
109
100
AcDbEntity
8
0
100
AcDbLine
10
45.000000000000014
20
43.520000040098012
30
0
11
45.000000000000007
21
174.77999999999997
31
0
0
ARC
5
110
100
AcDbEntity
8
0
100
AcDbCircle
10
48.57
20
174.77999999999997
30
0
40
3.5699999999999932
210
0
220
-0
230
1
100
AcDbArc
50
90
51
180
0
LINE
5
111
100
AcDbEntity
8
0
100
AcDbLine
10
48.57
20
178.34999999999997
30
0
11
380.43000000000001
21
178.35000000000002
31
0
0
LINE
5
112
100
AcDbEntity
8
0
100
AcDbLine
10
363.11300000000006
20
168.32500000000005
30
0
11
391.113
21
168.32500000000005
31
0
0
LINE
5
113
100
AcDbEntity
8
0
100
AcDbLine
10
363.11300000000006
20
166.82500000000005
30
0
11
363.11300000000006
21
168.32500000000005
31
0
0
LINE
5
114
100
AcDbEntity
8
0
100
AcDbLine
10
361.51300000000003
20
161.57500000000002
30
0
11
361.51300000000003
21
167.07500000000005
31
0
0
LINE
5
115
100
AcDbEntity
8
0
100
AcDbLine
10
361.51300000000003
20
167.07500000000005
30
0
11
363.11300000000006
21
167.07500000000005
31
0
0
LINE
5
116
100
AcDbEntity
8
0
100
AcDbLine
10
361.51300000000003
20
161.57500000000002
30
0
11
363.11300000000006
21
161.57500000000002
31
0
0
LINE
5
117
100
AcDbEntity
8
0
100
AcDbLine
10
361.51299999999992
20
154.07500000000002
30
0
11
363.11300000000006
21
154.07500000000002
31
0
0
LINE
5
118
100
AcDbEntity
8
0
100
AcDbLine
10
361.51299999999992
20
154.07500000000002
30
0
11
361.51300000000026
21
148.57500000000002
31
0
0
LINE
5
119
100
AcDbEntity
8
0
100
AcDbLine
10
363.11300000000006
20
148.57500000000002
30
0
11
361.51300000000026
21
148.57500000000002
31
0
0
LINE
5
120
100
AcDbEntity
8
0
100
AcDbLine
10
363.11300000000006
20
148.82500000000002
30
0
11
363.11300000000006
21
147.32500000000002
31
0
0
LINE
5
121
100
AcDbEntity
8
0
100
AcDbLine
10
363.11300000000006
20
147.32500000000002
30
0
11
391.113
21
147.32500000000002
31
0
0
LINE
5
122
100
AcDbEntity
8
0
100
AcDbLine
10
363.11300000000006
20
148.82500000000002
30
0
11
363.11300000000006
21
166.82500000000005
31
0
0
CIRCLE
5
123
100
AcDbEntity
8
0
100
AcDbCircle
10
380.43000000000001
20
174.78000000000003
30
0
40
1.5999999999999994
210
0
220
-0
230
1
0
CIRCLE
5
124
100
AcDbEntity
8
0
100
AcDbCircle
10
48.570000000000007
20
174.77999999999997
30
0
40
1.5999999999999994
210
0
220
-0
230
1
0
CIRCLE
5
125
100
AcDbEntity
8
0
100
AcDbCircle
10
48.570000000000007
20
43.520000040097919
30
0
40
1.5999999999999994
210
0
220
-0
230
1
0
CIRCLE
5
126
100
AcDbEntity
8
0
100
AcDbCircle
10
116.83101599999998
20
43.520000040097884
30
0
40
1.5999999999999994
210
0
220
-0
230
1
0
CIRCLE
5
127
100
AcDbEntity
8
0
100
AcDbCircle
10
240.34398400003315
20
43.520000040098303
30
0
40
1.5999999999999994
210
0
220
-0
230
1
0
CIRCLE
5
128
100
AcDbEntity
8
0
100
AcDbCircle
10
380.43000000000006
20
43.520000040098367
30
0
40
1.5999999999999994
210
0
220
-0
230
1
0
CIRCLE
5
129
100
AcDbEntity
8
0
100
AcDbCircle
10
169.65750000000654
20
174.77999999999997
30
0
40
1.6000000000000014
210
0
220
-0
230
1
0
CIRCLE
5
130
100
AcDbEntity
8
0
100
AcDbCircle
10
187.51750000000655
20
174.77999999999997
30
0
40
1.6000000000000014
210
0
220
-0
230
1
0
ENDSEC
0
SECTION
2
OBJECTS
0
DICTIONARY
5
C
100
AcDbDictionary
3
ACAD_GROUP
350
D
3
ACAD_MLINESTYLE
350
17
0
DICTIONARY
5
D
100
AcDbDictionary
0
DICTIONARY
5
1A
330
C
100
AcDbDictionary
0
DICTIONARY
5
17
100
AcDbDictionary
0
ENDSEC
0
EOF
