0
SECTION
2
HEADER
9
$INSUNITS
70
4
9
$ACADVER
1
AC1014
9
$HANDSEED
5
FFFF
0
ENDSEC
0
SECTION
2
TABLES
0
TABLE
2
VPORT
5
8
100
AcDbSymbolTable
0
ENDTAB
0
TABLE
2
LTYPE
5
5
100
AcDbSymbolTable
0
LTYPE
5
14
100
AcDbSymbolTableRecord
100
AcDbLinetypeTableRecord
2
BYBLOCK
70
0
0
LTYPE
5
15
100
AcDbSymbolTableRecord
100
AcDbLinetypeTableRecord
2
BYLAYER
70
0
0
ENDTAB
0
TABLE
2
LAYER
5
2
100
AcDbSymbolTable
70
2
0
LAYER
5
50
100
AcDbSymbolTableRecord
100
AcDbLayerTableRecord
2
0
70
0
6
CONTINUOUS
0
ENDTAB
0
TABLE
2
STYLE
5
3
100
AcDbSymbolTable
70
1
0
STYLE
5
11
100
AcDbSymbolTableRecord
100
AcDbTextStyleTableRecord
2
STANDARD
70
0
0
ENDTAB
0
TABLE
2
VIEW
5
6
100
AcDbSymbolTable
70
0
0
ENDTAB
0
TABLE
2
UCS
5
7
100
AcDbSymbolTable
70
0
0
ENDTAB
0
TABLE
2
APPID
5
9
100
AcDbSymbolTable
70
2
0
APPID
5
12
100
AcDbSymbolTableRecord
100
AcDbRegAppTableRecord
2
ACAD
70
0
0
ENDTAB
0
TABLE
2
DIMSTYLE
5
A
100
AcDbSymbolTable
70
1
0
ENDTAB
0
TABLE
2
BLOCK_RECORD
5
1
100
AcDbSymbolTable
70
1
0
BLOCK_RECORD
5
1F
100
AcDbSymbolTableRecord
100
AcDbBlockTableRecord
2
*MODEL_SPACE
0
BLOCK_RECORD
5
1B
100
AcDbSymbolTableRecord
100
AcDbBlockTableRecord
2
*PAPER_SPACE
0
ENDTAB
0
ENDSEC
0
SECTION
2
BLOCKS
0
BLOCK
5
20
100
AcDbEntity
100
AcDbBlockBegin
2
*MODEL_SPACE
0
ENDBLK
5
21
100
AcDbEntity
100
AcDbBlockEnd
0
BLOCK
5
1C
100
AcDbEntity
100
AcDbBlockBegin
2
*PAPER_SPACE
0
ENDBLK
5
1D
100
AcDbEntity
100
AcDbBlockEnd
0
ENDSEC
0
SECTION
2
ENTITIES
0
LINE
5
100
100
AcDbEntity
8
0
100
AcDbLine
10
166.82500000000005
20
40.500000000000007
30
0
11
148.82499999999999
21
40.500000000000007
31
0
0
LINE
5
101
100
AcDbEntity
8
0
100
AcDbLine
10
148.82499999999999
20
40.500000000000007
30
0
11
148.82499999999999
21
23.5
31
0
0
LINE
5
102
100
AcDbEntity
8
0
100
AcDbLine
10
166.82500000000005
20
23.5
30
0
11
166.82500000000005
21
40.500000000000007
31
0
0
LINE
5
103
100
AcDbEntity
8
0
100
AcDbLine
10
148.82499999999999
20
23.5
30
0
11
166.82500000000005
21
23.5
31
0
0
LINE
5
104
100
AcDbEntity
8
0
100
AcDbLine
10
153.82499999999999
20
31.800000000000001
30
0
11
153.82499999999999
21
29.800000000000001
31
0
0
LINE
5
105
100
AcDbEntity
8
0
100
AcDbLine
10
161.82500000000005
20
31.800000000000001
30
0
11
153.82499999999999
21
31.800000000000001
31
0
0
LINE
5
106
100
AcDbEntity
8
0
100
AcDbLine
10
153.82499999999999
20
29.800000000000001
30
0
11
161.82500000000005
21
29.800000000000001
31
0
0
LINE
5
107
100
AcDbEntity
8
0
100
AcDbLine
10
161.82500000000005
20
29.800000000000001
30
0
11
161.82500000000005
21
31.800000000000001
31
0
0
LINE
5
108
100
AcDbEntity
8
0
100
AcDbLine
10
147.32500000000002
20
31.600000000000001
30
0
11
148.57500000000002
21
31.600000000000001
31
0
0
LINE
5
109
100
AcDbEntity
8
0
100
AcDbLine
10
148.57500000000002
20
30
30
0
11
147.32500000000002
21
30
31
0
0
LINE
5
110
100
AcDbEntity
8
0
100
AcDbLine
10
167.07500000000005
20
31.600000000000001
30
0
11
168.32500000000005
21
31.600000000000001
31
0
0
LINE
5
111
100
AcDbEntity
8
0
100
AcDbLine
10
167.07500000000005
20
30
30
0
11
168.32500000000005
21
30
31
0
0
LINE
5
112
100
AcDbEntity
8
0
100
AcDbLine
10
167.07500000000005
20
30
30
0
11
167.07500000000005
21
31.600000000000001
31
0
0
LINE
5
113
100
AcDbEntity
8
0
100
AcDbLine
10
148.57500000000002
20
30
30
0
11
148.57500000000002
21
31.600000000000001
31
0
0
LINE
5
114
100
AcDbEntity
8
0
100
AcDbLine
10
147.32500000000002
20
36.300000000000004
30
0
11
148.57500000000002
21
36.300000000000004
31
0
0
LINE
5
115
100
AcDbEntity
8
0
100
AcDbLine
10
148.57500000000002
20
34.700000000000003
30
0
11
148.57500000000002
21
36.300000000000004
31
0
0
LINE
5
116
100
AcDbEntity
8
0
100
AcDbLine
10
147.32500000000002
20
34.700000000000003
30
0
11
148.57500000000002
21
34.700000000000003
31
0
0
LINE
5
117
100
AcDbEntity
8
0
100
AcDbLine
10
167.07500000000005
20
36.300000000000004
30
0
11
168.32500000000005
21
36.300000000000004
31
0
0
LINE
5
118
100
AcDbEntity
8
0
100
AcDbLine
10
167.07500000000005
20
34.700000000000003
30
0
11
167.07500000000005
21
36.300000000000004
31
0
0
LINE
5
119
100
AcDbEntity
8
0
100
AcDbLine
10
168.32500000000005
20
34.700000000000003
30
0
11
167.07500000000005
21
34.700000000000003
31
0
0
LWPOLYLINE
5
120
100
AcDbEntity
8
0
100
AcDbPolyline
90
4
70
1
43
0.0
10
159.42499999999993
20
26.779993742955583
10
156.22500000000002
20
26.780000000000008
10
156.22499999999997
20
28.780000000000005
10
159.42499999999998
20
28.780000000000015
0
LWPOLYLINE
5
121
100
AcDbEntity
8
0
100
AcDbPolyline
90
4
70
1
43
0.0
10
156.22499999999999
20
39.980000000000004
10
159.42500000000007
20
39.97999999999999
10
159.42500000000001
20
37.980000000000004
10
156.22499999999999
20
37.980000000000011
0
CIRCLE
5
122
100
AcDbEntity
8
0
100
AcDbCircle
10
157.82500000000002
20
33.380000000000003
30
0
40
9.0000000000000036
210
0
220
-0
230
1
0
CIRCLE
5
123
100
AcDbEntity
8
0
100
AcDbCircle
10
150.32499850027261
20
35.900001999999574
30
0
40
0.49999962863129327
210
0
220
0
230
1
0
CIRCLE
5
124
100
AcDbEntity
8
0
100
AcDbCircle
10
150.32500000000002
20
33.400002000000029
30
0
40
0.50000015472447146
210
0
220
0
230
1
0
CIRCLE
5
125
100
AcDbEntity
8
0
100
AcDbCircle
10
150.32500000000002
20
30.900000000000002
30
0
40
0.50000015472447146
210
0
220
0
230
1
0
CIRCLE
5
126
100
AcDbEntity
8
0
100
AcDbCircle
10
164.82500000000002
20
30.880000000000003
30
0
40
0.50000050827801634
210
0
220
0
230
1
0
CIRCLE
5
127
100
AcDbEntity
8
0
100
AcDbCircle
10
164.82500000000002
20
35.880000000000003
30
0
40
0.50000086183126091
210
0
220
0
230
1
0
CIRCLE
5
128
100
AcDbEntity
8
0
100
AcDbCircle
10
152.745
20
25.300000000000004
30
0
40
0.50000086183126091
210
0
220
0
230
1
0
CIRCLE
5
129
100
AcDbEntity
8
0
100
AcDbCircle
10
155.28500149999996
20
25.300000000000004
30
0
40
0.50000050827801634
210
0
220
0
230
1
0
CIRCLE
5
130
100
AcDbEntity
8
0
100
AcDbCircle
10
157.82500149999996
20
25.300000000000004
30
0
40
0.50000050827796605
210
0
220
0
230
1
0
CIRCLE
5
131
100
AcDbEntity
8
0
100
AcDbCircle
10
160.36500464097008
20
25.300000000000004
30
0
40
0.50000055190718862
210
0
220
0
230
1
0
CIRCLE
5
132
100
AcDbEntity
8
0
100
AcDbCircle
10
162.90499761409137
20
25.300000000000004
30
0
40
0.50000993944916206
210
0
220
0
230
1
0
ENDSEC
0
SECTION
2
OBJECTS
0
DICTIONARY
5
C
100
AcDbDictionary
3
ACAD_GROUP
350
D
3
ACAD_MLINESTYLE
350
17
0
DICTIONARY
5
D
100
AcDbDictionary
0
DICTIONARY
5
1A
330
C
100
AcDbDictionary
0
DICTIONARY
5
17
100
AcDbDictionary
0
ENDSEC
0
EOF
