%TF.GenerationSoftware,KiCad,Pcbnew,7.0.10*%
%TF.CreationDate,2024-01-28T02:24:09+01:00*%
%TF.ProjectId,Encoder,456e636f-6465-4722-9e6b-696361645f70,rev?*%
%TF.SameCoordinates,Original*%
%TF.FileFunction,Copper,L1,Top*%
%TF.FilePolarity,Positive*%
%FSLAX46Y46*%
G04 Gerber Fmt 4.6, Leading zero omitted, Abs format (unit mm)*
G04 Created by KiCad (PCBNEW 7.0.10) date 2024-01-28 02:24:09*
%MOMM*%
%LPD*%
G01*
G04 APERTURE LIST*
%TA.AperFunction,ComponentPad*%
%ADD10C,2.000000*%
%TD*%
%TA.AperFunction,ComponentPad*%
%ADD11R,1.800000X3.200000*%
%TD*%
%TA.AperFunction,ComponentPad*%
%ADD12R,1.700000X1.700000*%
%TD*%
%TA.AperFunction,ComponentPad*%
%ADD13O,1.700000X1.700000*%
%TD*%
%TA.AperFunction,ViaPad*%
%ADD14C,0.800000*%
%TD*%
%TA.AperFunction,Conductor*%
%ADD15C,0.254000*%
%TD*%
G04 APERTURE END LIST*
D10*
%TO.P,SWA13,A,A*%
%TO.N,ENCA*%
X142550001Y-36000001D03*
%TO.P,SWA13,B,B*%
%TO.N,ENCB*%
X137550001Y-36000001D03*
%TO.P,SWA13,C,C*%
%TO.N,GND*%
X140050001Y-36000001D03*
D11*
%TO.P,SWA13,MP*%
%TO.N,N/C*%
X134200001Y-37250001D03*
X145900001Y-37250001D03*
D10*
%TO.P,SWA13,S1,S1*%
%TO.N,/SW99B*%
X137550001Y-38500001D03*
%TO.P,SWA13,S2,S2*%
%TO.N,/SW99A*%
X142550001Y-38500001D03*
%TD*%
D12*
%TO.P,J2,1,Pin_1*%
%TO.N,/SW99A*%
X134040003Y-42500001D03*
D13*
%TO.P,J2,2,Pin_2*%
%TO.N,/SW99B*%
X131500003Y-42500001D03*
%TD*%
D12*
%TO.P,J1,1,Pin_1*%
%TO.N,ENCA*%
X149500000Y-42500000D03*
D13*
%TO.P,J1,2,Pin_2*%
%TO.N,ENCB*%
X146960000Y-42500000D03*
%TO.P,J1,3,Pin_3*%
%TO.N,GND*%
X144420000Y-42500000D03*
%TD*%
D14*
%TO.N,/SW99A*%
X139270000Y-39200000D03*
%TD*%
D15*
%TO.N,/SW99A*%
X134040003Y-41129997D02*
X134510000Y-40660000D01*
X138240000Y-40230000D02*
X139270000Y-39200000D01*
X134040003Y-42500001D02*
X134040003Y-41129997D01*
X134510000Y-40660000D02*
X134940000Y-40230000D01*
X136510000Y-40230000D02*
X138240000Y-40230000D01*
X134940000Y-40230000D02*
X136510000Y-40230000D01*
%TO.N,ENCB*%
X141960000Y-40410000D02*
X144870000Y-40410000D01*
X137550001Y-36000001D02*
X141960000Y-40410000D01*
X144870000Y-40410000D02*
X146960000Y-42500000D01*
%TO.N,ENCA*%
X145030000Y-39950000D02*
X146950000Y-39950000D01*
X142550001Y-36000001D02*
X144280000Y-37730000D01*
X144280000Y-39200000D02*
X145030000Y-39950000D01*
X144280000Y-37730000D02*
X144280000Y-39200000D01*
X146950000Y-39950000D02*
X149500000Y-42500000D01*
%TO.N,/SW99B*%
X131500003Y-41049997D02*
X132880000Y-39670000D01*
X132880000Y-39670000D02*
X136380002Y-39670000D01*
X131500003Y-42500001D02*
X131500003Y-41049997D01*
X136380002Y-39670000D02*
X137550001Y-38500001D01*
%TD*%
%TA.AperFunction,Conductor*%
%TO.N,GND*%
G36*
X141297000Y-36887789D02*
G01*
X141312975Y-36890495D01*
X141353599Y-36921936D01*
X141480032Y-37069970D01*
X141578641Y-37154190D01*
X141617450Y-37213641D01*
X141617956Y-37284635D01*
X141580000Y-37344634D01*
X141578641Y-37345812D01*
X141480029Y-37430034D01*
X141325827Y-37610581D01*
X141325826Y-37610583D01*
X141201760Y-37813039D01*
X141110895Y-38032408D01*
X141055465Y-38263296D01*
X141051851Y-38309206D01*
X141026565Y-38375547D01*
X140969426Y-38417685D01*
X140898576Y-38422243D01*
X140837145Y-38388412D01*
X140161124Y-37712391D01*
X140127098Y-37650079D01*
X140132163Y-37579264D01*
X140174710Y-37522428D01*
X140240334Y-37497684D01*
X140286632Y-37494040D01*
X140517438Y-37438629D01*
X140736739Y-37347792D01*
X140923891Y-37233103D01*
X140923892Y-37233102D01*
X140217625Y-36526835D01*
X140338459Y-36474350D01*
X140455740Y-36378935D01*
X140542929Y-36255416D01*
X140574839Y-36165628D01*
X141297000Y-36887789D01*
G37*
%TD.AperFunction*%
%TA.AperFunction,Conductor*%
G36*
X151716622Y-32695502D02*
G01*
X151763115Y-32749158D01*
X151774501Y-32801500D01*
X151774501Y-45048501D01*
X151754499Y-45116622D01*
X151700843Y-45163115D01*
X151648501Y-45174501D01*
X128351501Y-45174501D01*
X128283380Y-45154499D01*
X128236887Y-45100843D01*
X128225501Y-45048501D01*
X128225501Y-42500001D01*
X130136847Y-42500001D01*
X130154235Y-42709844D01*
X130155440Y-42724376D01*
X130210705Y-42942613D01*
X130210706Y-42942614D01*
X130210707Y-42942617D01*
X130239526Y-43008318D01*
X130301144Y-43148794D01*
X130424278Y-43337266D01*
X130424282Y-43337271D01*
X130576765Y-43502909D01*
X130631334Y-43545382D01*
X130754427Y-43641190D01*
X130952429Y-43748343D01*
X130952430Y-43748343D01*
X130952431Y-43748344D01*
X131064230Y-43786724D01*
X131165368Y-43821445D01*
X131387434Y-43858501D01*
X131387438Y-43858501D01*
X131612568Y-43858501D01*
X131612572Y-43858501D01*
X131834638Y-43821445D01*
X132047577Y-43748343D01*
X132245579Y-43641190D01*
X132423243Y-43502907D01*
X132484248Y-43436638D01*
X132545099Y-43400068D01*
X132616064Y-43402201D01*
X132674609Y-43442363D01*
X132695003Y-43477942D01*
X132739114Y-43596205D01*
X132739115Y-43596208D01*
X132826741Y-43713262D01*
X132943795Y-43800888D01*
X132943797Y-43800889D01*
X132943799Y-43800890D01*
X132998903Y-43821443D01*
X133080798Y-43851989D01*
X133080806Y-43851991D01*
X133141353Y-43858500D01*
X133141358Y-43858500D01*
X133141365Y-43858501D01*
X133141371Y-43858501D01*
X134938635Y-43858501D01*
X134938641Y-43858501D01*
X134938648Y-43858500D01*
X134938652Y-43858500D01*
X134999199Y-43851991D01*
X134999202Y-43851990D01*
X134999204Y-43851990D01*
X134999210Y-43851988D01*
X135046388Y-43834391D01*
X135136207Y-43800890D01*
X135206402Y-43748343D01*
X135253264Y-43713262D01*
X135340890Y-43596208D01*
X135340890Y-43596207D01*
X135340892Y-43596205D01*
X135391992Y-43459202D01*
X135392179Y-43457470D01*
X135398502Y-43398650D01*
X135398503Y-43398633D01*
X135398503Y-42600005D01*
X138869681Y-42600005D01*
X138888926Y-42807695D01*
X138946008Y-43008318D01*
X138946011Y-43008325D01*
X139038980Y-43195033D01*
X139038984Y-43195038D01*
X139164681Y-43361489D01*
X139164684Y-43361491D01*
X139164685Y-43361493D01*
X139318831Y-43502017D01*
X139496175Y-43611823D01*
X139690675Y-43687173D01*
X139895709Y-43725500D01*
X139895711Y-43725500D01*
X140104293Y-43725500D01*
X140104295Y-43725500D01*
X140309329Y-43687173D01*
X140503829Y-43611823D01*
X140681173Y-43502017D01*
X140835319Y-43361493D01*
X140961020Y-43195038D01*
X140961021Y-43195034D01*
X140961023Y-43195033D01*
X141007507Y-43101679D01*
X141053995Y-43008320D01*
X141111077Y-42807697D01*
X141118799Y-42724368D01*
X141130323Y-42600005D01*
X141130323Y-42599996D01*
X141111077Y-42392306D01*
X141105300Y-42372000D01*
X141053995Y-42191682D01*
X140995918Y-42075048D01*
X140961023Y-42004968D01*
X140961019Y-42004963D01*
X140835322Y-41838512D01*
X140730038Y-41742532D01*
X140681173Y-41697985D01*
X140503829Y-41588179D01*
X140503822Y-41588176D01*
X140309336Y-41512831D01*
X140309333Y-41512830D01*
X140309330Y-41512829D01*
X140309329Y-41512829D01*
X140104295Y-41474502D01*
X139895709Y-41474502D01*
X139690675Y-41512829D01*
X139690670Y-41512830D01*
X139690667Y-41512831D01*
X139496181Y-41588176D01*
X139496174Y-41588179D01*
X139318832Y-41697984D01*
X139164681Y-41838512D01*
X139038984Y-42004963D01*
X139038980Y-42004968D01*
X138946011Y-42191676D01*
X138946008Y-42191683D01*
X138888926Y-42392306D01*
X138869681Y-42599996D01*
X138869681Y-42600005D01*
X135398503Y-42600005D01*
X135398503Y-41601368D01*
X135398502Y-41601351D01*
X135391993Y-41540804D01*
X135391991Y-41540796D01*
X135340892Y-41403798D01*
X135340890Y-41403793D01*
X135253264Y-41286739D01*
X135136210Y-41199113D01*
X135136208Y-41199112D01*
X135131170Y-41197233D01*
X135125737Y-41195207D01*
X135068902Y-41152662D01*
X135044091Y-41086142D01*
X135059182Y-41016768D01*
X135080676Y-40988056D01*
X135166330Y-40902404D01*
X135228642Y-40868379D01*
X135255424Y-40865500D01*
X136429718Y-40865500D01*
X138155930Y-40865500D01*
X138171798Y-40867252D01*
X138171826Y-40866962D01*
X138179718Y-40867708D01*
X138179718Y-40867707D01*
X138179719Y-40867708D01*
X138248012Y-40865562D01*
X138251969Y-40865500D01*
X138279983Y-40865500D01*
X138284013Y-40864990D01*
X138295851Y-40864058D01*
X138340205Y-40862665D01*
X138359751Y-40856985D01*
X138379102Y-40852978D01*
X138399299Y-40850427D01*
X138440555Y-40834092D01*
X138451778Y-40830249D01*
X138494393Y-40817869D01*
X138511907Y-40807510D01*
X138529656Y-40798814D01*
X138548588Y-40791319D01*
X138584494Y-40765230D01*
X138594394Y-40758727D01*
X138632598Y-40736134D01*
X138646984Y-40721747D01*
X138662018Y-40708906D01*
X138678487Y-40696942D01*
X138706782Y-40662737D01*
X138714752Y-40653978D01*
X139223329Y-40145404D01*
X139285641Y-40111379D01*
X139312424Y-40108500D01*
X139365487Y-40108500D01*
X139552288Y-40068794D01*
X139726752Y-39991118D01*
X139881253Y-39878866D01*
X139881255Y-39878864D01*
X140009034Y-39736951D01*
X140009035Y-39736949D01*
X140009040Y-39736944D01*
X140065725Y-39638761D01*
X140117105Y-39589771D01*
X140186818Y-39576334D01*
X140252729Y-39602721D01*
X140263937Y-39612669D01*
X141451182Y-40799914D01*
X141461169Y-40812379D01*
X141461393Y-40812194D01*
X141466446Y-40818302D01*
X141466447Y-40818303D01*
X141515370Y-40864245D01*
X141516280Y-40865099D01*
X141519124Y-40867856D01*
X141538900Y-40887633D01*
X141538908Y-40887640D01*
X141542119Y-40890131D01*
X141551139Y-40897834D01*
X141583494Y-40928217D01*
X141601335Y-40938025D01*
X141617854Y-40948877D01*
X141633932Y-40961349D01*
X141674650Y-40978969D01*
X141685309Y-40984191D01*
X141724193Y-41005567D01*
X141724194Y-41005567D01*
X141724197Y-41005569D01*
X141743918Y-41010632D01*
X141762620Y-41017037D01*
X141781289Y-41025116D01*
X141781290Y-41025116D01*
X141781292Y-41025117D01*
X141825114Y-41032057D01*
X141836742Y-41034465D01*
X141879718Y-41045500D01*
X141900066Y-41045500D01*
X141919775Y-41047050D01*
X141939879Y-41050235D01*
X141984056Y-41046058D01*
X141995913Y-41045500D01*
X143756862Y-41045500D01*
X143824983Y-41065502D01*
X143871476Y-41119158D01*
X143881580Y-41189432D01*
X143852086Y-41254012D01*
X143816832Y-41282314D01*
X143674696Y-41359233D01*
X143497097Y-41497465D01*
X143344674Y-41663041D01*
X143221580Y-41851451D01*
X143131179Y-42057543D01*
X143131176Y-42057550D01*
X143083455Y-42245999D01*
X143083456Y-42246000D01*
X143988884Y-42246000D01*
X143960507Y-42290156D01*
X143920000Y-42428111D01*
X143920000Y-42571889D01*
X143960507Y-42709844D01*
X143988884Y-42754000D01*
X143083455Y-42754000D01*
X143131176Y-42942449D01*
X143131179Y-42942456D01*
X143221580Y-43148548D01*
X143344674Y-43336958D01*
X143497097Y-43502534D01*
X143674698Y-43640767D01*
X143674699Y-43640768D01*
X143872628Y-43747882D01*
X143872630Y-43747883D01*
X144085483Y-43820955D01*
X144085492Y-43820957D01*
X144166000Y-43834391D01*
X144166000Y-42933674D01*
X144277685Y-42984680D01*
X144384237Y-43000000D01*
X144455763Y-43000000D01*
X144562315Y-42984680D01*
X144674000Y-42933674D01*
X144674000Y-43834390D01*
X144754507Y-43820957D01*
X144754516Y-43820955D01*
X144967369Y-43747883D01*
X144967371Y-43747882D01*
X145165300Y-43640768D01*
X145165301Y-43640767D01*
X145342902Y-43502534D01*
X145495327Y-43336955D01*
X145584217Y-43200899D01*
X145638220Y-43154810D01*
X145708568Y-43145235D01*
X145772925Y-43175212D01*
X145795183Y-43200898D01*
X145884279Y-43337270D01*
X146036762Y-43502908D01*
X146091331Y-43545381D01*
X146214424Y-43641189D01*
X146412426Y-43748342D01*
X146412427Y-43748342D01*
X146412428Y-43748343D01*
X146524227Y-43786723D01*
X146625365Y-43821444D01*
X146847431Y-43858500D01*
X146847435Y-43858500D01*
X147072565Y-43858500D01*
X147072569Y-43858500D01*
X147294635Y-43821444D01*
X147507574Y-43748342D01*
X147705576Y-43641189D01*
X147883240Y-43502906D01*
X147944245Y-43436637D01*
X148005096Y-43400067D01*
X148076061Y-43402200D01*
X148134606Y-43442362D01*
X148155000Y-43477941D01*
X148199111Y-43596204D01*
X148199112Y-43596207D01*
X148286738Y-43713261D01*
X148403792Y-43800887D01*
X148403794Y-43800888D01*
X148403796Y-43800889D01*
X148457600Y-43820957D01*
X148540795Y-43851988D01*
X148540803Y-43851990D01*
X148601350Y-43858499D01*
X148601355Y-43858499D01*
X148601362Y-43858500D01*
X148601368Y-43858500D01*
X150398632Y-43858500D01*
X150398638Y-43858500D01*
X150398645Y-43858499D01*
X150398649Y-43858499D01*
X150459196Y-43851990D01*
X150459199Y-43851989D01*
X150459201Y-43851989D01*
X150596204Y-43800889D01*
X150666399Y-43748342D01*
X150713261Y-43713261D01*
X150800887Y-43596207D01*
X150800888Y-43596205D01*
X150800889Y-43596204D01*
X150851989Y-43459201D01*
X150851989Y-43459199D01*
X150851990Y-43459196D01*
X150858499Y-43398649D01*
X150858500Y-43398632D01*
X150858500Y-41601367D01*
X150858499Y-41601350D01*
X150851990Y-41540803D01*
X150851988Y-41540795D01*
X150822924Y-41462875D01*
X150800889Y-41403796D01*
X150800887Y-41403793D01*
X150800887Y-41403792D01*
X150713261Y-41286738D01*
X150596207Y-41199112D01*
X150596202Y-41199110D01*
X150459204Y-41148011D01*
X150459196Y-41148009D01*
X150398649Y-41141500D01*
X150398638Y-41141500D01*
X149092423Y-41141500D01*
X149024302Y-41121498D01*
X149003328Y-41104595D01*
X147458815Y-39560082D01*
X147448831Y-39547620D01*
X147448607Y-39547806D01*
X147443554Y-39541698D01*
X147393734Y-39494914D01*
X147390890Y-39492157D01*
X147371099Y-39472365D01*
X147371096Y-39472363D01*
X147371094Y-39472361D01*
X147367875Y-39469864D01*
X147358851Y-39462157D01*
X147326506Y-39431783D01*
X147326499Y-39431778D01*
X147308673Y-39421978D01*
X147292147Y-39411123D01*
X147276066Y-39398649D01*
X147235337Y-39381024D01*
X147224679Y-39375803D01*
X147222022Y-39374342D01*
X147171966Y-39323997D01*
X147157073Y-39254580D01*
X147181856Y-39188422D01*
X147250890Y-39096205D01*
X147301990Y-38959202D01*
X147306076Y-38921201D01*
X147308500Y-38898650D01*
X147308500Y-38898646D01*
X147308501Y-38898639D01*
X147308501Y-35601363D01*
X147308500Y-35601351D01*
X147301991Y-35540804D01*
X147301989Y-35540796D01*
X147250890Y-35403798D01*
X147250888Y-35403793D01*
X147163262Y-35286739D01*
X147114191Y-35250005D01*
X148069677Y-35250005D01*
X148088922Y-35457691D01*
X148088922Y-35457695D01*
X148146004Y-35658320D01*
X148146007Y-35658326D01*
X148238976Y-35845033D01*
X148238978Y-35845036D01*
X148238980Y-35845039D01*
X148356001Y-36000001D01*
X148364685Y-36011500D01*
X148518822Y-36152014D01*
X148518825Y-36152016D01*
X148518827Y-36152017D01*
X148518828Y-36152018D01*
X148696172Y-36261825D01*
X148696176Y-36261826D01*
X148696177Y-36261827D01*
X148846743Y-36320157D01*
X148890672Y-36337175D01*
X149095707Y-36375502D01*
X149095709Y-36375502D01*
X149304291Y-36375502D01*
X149304293Y-36375502D01*
X149509328Y-36337175D01*
X149703828Y-36261825D01*
X149881172Y-36152018D01*
X149881174Y-36152015D01*
X149881177Y-36152014D01*
X150035314Y-36011500D01*
X150035315Y-36011498D01*
X150035319Y-36011495D01*
X150161020Y-35845039D01*
X150253995Y-35658321D01*
X150311077Y-35457697D01*
X150330323Y-35250001D01*
X150325607Y-35199112D01*
X150317987Y-35116873D01*
X150311077Y-35042305D01*
X150253995Y-34841681D01*
X150251796Y-34837266D01*
X150161023Y-34654968D01*
X150161021Y-34654966D01*
X150161020Y-34654963D01*
X150035319Y-34488507D01*
X150035317Y-34488505D01*
X150035314Y-34488501D01*
X149881177Y-34347987D01*
X149881174Y-34347985D01*
X149703831Y-34238179D01*
X149703828Y-34238177D01*
X149703826Y-34238176D01*
X149703822Y-34238174D01*
X149509335Y-34162829D01*
X149509332Y-34162828D01*
X149509329Y-34162827D01*
X149509328Y-34162827D01*
X149304293Y-34124500D01*
X149095707Y-34124500D01*
X148890672Y-34162827D01*
X148890667Y-34162828D01*
X148890664Y-34162829D01*
X148696177Y-34238174D01*
X148696168Y-34238179D01*
X148518825Y-34347985D01*
X148518822Y-34347987D01*
X148364685Y-34488501D01*
X148238976Y-34654968D01*
X148146007Y-34841675D01*
X148146004Y-34841681D01*
X148088922Y-35042306D01*
X148088922Y-35042310D01*
X148069677Y-35249996D01*
X148069677Y-35250005D01*
X147114191Y-35250005D01*
X147046208Y-35199113D01*
X147046203Y-35199111D01*
X146909205Y-35148012D01*
X146909197Y-35148010D01*
X146848650Y-35141501D01*
X146848639Y-35141501D01*
X144951363Y-35141501D01*
X144951351Y-35141501D01*
X144890804Y-35148010D01*
X144890796Y-35148012D01*
X144753798Y-35199111D01*
X144753793Y-35199113D01*
X144636739Y-35286739D01*
X144549113Y-35403793D01*
X144549111Y-35403798D01*
X144498012Y-35540796D01*
X144498010Y-35540804D01*
X144491501Y-35601351D01*
X144491501Y-36738577D01*
X144471499Y-36806698D01*
X144417843Y-36853191D01*
X144347569Y-36863295D01*
X144282989Y-36833801D01*
X144276406Y-36827673D01*
X144024912Y-36576180D01*
X143990887Y-36513867D01*
X143991487Y-36457673D01*
X144044536Y-36236712D01*
X144063166Y-36000001D01*
X144044536Y-35763290D01*
X143989106Y-35532407D01*
X143898241Y-35313038D01*
X143774177Y-35110585D01*
X143773252Y-35109502D01*
X143619970Y-34930031D01*
X143439420Y-34775827D01*
X143439418Y-34775826D01*
X143439417Y-34775825D01*
X143236964Y-34651761D01*
X143018745Y-34561372D01*
X143017593Y-34560895D01*
X142859652Y-34522977D01*
X142786712Y-34505466D01*
X142550001Y-34486836D01*
X142313290Y-34505466D01*
X142082408Y-34560895D01*
X141863039Y-34651760D01*
X141660583Y-34775826D01*
X141660581Y-34775827D01*
X141480034Y-34930029D01*
X141353600Y-35078064D01*
X141294149Y-35116873D01*
X141292163Y-35117047D01*
X140576903Y-35832307D01*
X140573117Y-35814086D01*
X140503559Y-35679845D01*
X140400363Y-35569349D01*
X140271182Y-35490792D01*
X140215578Y-35475212D01*
X140923891Y-34766898D01*
X140923891Y-34766897D01*
X140736739Y-34652209D01*
X140517438Y-34561372D01*
X140286633Y-34505961D01*
X140050001Y-34487338D01*
X139813368Y-34505961D01*
X139582563Y-34561372D01*
X139363267Y-34652207D01*
X139176109Y-34766898D01*
X139176109Y-34766899D01*
X139882376Y-35473166D01*
X139761543Y-35525652D01*
X139644262Y-35621067D01*
X139557073Y-35744586D01*
X139525162Y-35834372D01*
X138802998Y-35112208D01*
X138787021Y-35109502D01*
X138746401Y-35078063D01*
X138619970Y-34930031D01*
X138439420Y-34775827D01*
X138439418Y-34775826D01*
X138439417Y-34775825D01*
X138236964Y-34651761D01*
X138018745Y-34561372D01*
X138017593Y-34560895D01*
X137859652Y-34522977D01*
X137786712Y-34505466D01*
X137550001Y-34486836D01*
X137313290Y-34505466D01*
X137082408Y-34560895D01*
X136863039Y-34651760D01*
X136660583Y-34775826D01*
X136660581Y-34775827D01*
X136480031Y-34930031D01*
X136325827Y-35110581D01*
X136325826Y-35110583D01*
X136201760Y-35313039D01*
X136110895Y-35532408D01*
X136075499Y-35679845D01*
X136055466Y-35763290D01*
X136036836Y-36000001D01*
X136055466Y-36236712D01*
X136061495Y-36261824D01*
X136110895Y-36467593D01*
X136110896Y-36467595D01*
X136201761Y-36686964D01*
X136324827Y-36887789D01*
X136325826Y-36889418D01*
X136325827Y-36889420D01*
X136456799Y-37042768D01*
X136480032Y-37069970D01*
X136578641Y-37154190D01*
X136617450Y-37213641D01*
X136617956Y-37284635D01*
X136580000Y-37344634D01*
X136578641Y-37345812D01*
X136480029Y-37430034D01*
X136325827Y-37610581D01*
X136325826Y-37610583D01*
X136201760Y-37813039D01*
X136110895Y-38032408D01*
X136055466Y-38263290D01*
X136036836Y-38500001D01*
X136055466Y-38736711D01*
X136089647Y-38879086D01*
X136086099Y-38949994D01*
X136044780Y-39007728D01*
X135978806Y-39033958D01*
X135967128Y-39034500D01*
X135734153Y-39034500D01*
X135666032Y-39014498D01*
X135619539Y-38960842D01*
X135608334Y-38901750D01*
X135608501Y-38898636D01*
X135608501Y-35601368D01*
X135608500Y-35601351D01*
X135601991Y-35540804D01*
X135601989Y-35540796D01*
X135550890Y-35403798D01*
X135550888Y-35403793D01*
X135463262Y-35286739D01*
X135346208Y-35199113D01*
X135346203Y-35199111D01*
X135209205Y-35148012D01*
X135209197Y-35148010D01*
X135148650Y-35141501D01*
X135148639Y-35141501D01*
X133251363Y-35141501D01*
X133251351Y-35141501D01*
X133190804Y-35148010D01*
X133190796Y-35148012D01*
X133053798Y-35199111D01*
X133053793Y-35199113D01*
X132936739Y-35286739D01*
X132849113Y-35403793D01*
X132849111Y-35403798D01*
X132798012Y-35540796D01*
X132798010Y-35540804D01*
X132791501Y-35601351D01*
X132791501Y-38898642D01*
X132793926Y-38921201D01*
X132781317Y-38991069D01*
X132732937Y-39043029D01*
X132715030Y-39051817D01*
X132679437Y-39065909D01*
X132668211Y-39069753D01*
X132625605Y-39082132D01*
X132608093Y-39092489D01*
X132590343Y-39101184D01*
X132571420Y-39108676D01*
X132571413Y-39108680D01*
X132535511Y-39134763D01*
X132525596Y-39141276D01*
X132487400Y-39163865D01*
X132473006Y-39178260D01*
X132457981Y-39191092D01*
X132441513Y-39203058D01*
X132441512Y-39203059D01*
X132413220Y-39237256D01*
X132405233Y-39246032D01*
X131110080Y-40541185D01*
X131097619Y-40551170D01*
X131097804Y-40551394D01*
X131091703Y-40556440D01*
X131044930Y-40606248D01*
X131042182Y-40609083D01*
X131022362Y-40628904D01*
X131022359Y-40628908D01*
X131019851Y-40632141D01*
X131012161Y-40641142D01*
X130981788Y-40673487D01*
X130981787Y-40673489D01*
X130971979Y-40691329D01*
X130961127Y-40707847D01*
X130948657Y-40723922D01*
X130948654Y-40723928D01*
X130931025Y-40764662D01*
X130925807Y-40775312D01*
X130904436Y-40814188D01*
X130904433Y-40814196D01*
X130899373Y-40833904D01*
X130892971Y-40852604D01*
X130884885Y-40871290D01*
X130884884Y-40871294D01*
X130877943Y-40915116D01*
X130875537Y-40926737D01*
X130864503Y-40969714D01*
X130864503Y-40990062D01*
X130862952Y-41009772D01*
X130859768Y-41029876D01*
X130863136Y-41065502D01*
X130863944Y-41074051D01*
X130864503Y-41085909D01*
X130864503Y-41224162D01*
X130844501Y-41292283D01*
X130798473Y-41334975D01*
X130754433Y-41358808D01*
X130754427Y-41358812D01*
X130576765Y-41497092D01*
X130424282Y-41662730D01*
X130424278Y-41662735D01*
X130301144Y-41851207D01*
X130210706Y-42057387D01*
X130210705Y-42057388D01*
X130155440Y-42275625D01*
X130155439Y-42275631D01*
X130155439Y-42275633D01*
X130136847Y-42500001D01*
X128225501Y-42500001D01*
X128225500Y-35250005D01*
X129669680Y-35250005D01*
X129688925Y-35457695D01*
X129740270Y-35638156D01*
X129746008Y-35658320D01*
X129838983Y-35845039D01*
X129838984Y-35845040D01*
X129964680Y-36011490D01*
X129964683Y-36011492D01*
X129964684Y-36011494D01*
X130118831Y-36152017D01*
X130296174Y-36261824D01*
X130490675Y-36337174D01*
X130695709Y-36375501D01*
X130695711Y-36375501D01*
X130904293Y-36375501D01*
X130904295Y-36375501D01*
X131109329Y-36337174D01*
X131303830Y-36261824D01*
X131481173Y-36152017D01*
X131635320Y-36011494D01*
X131761021Y-35845039D01*
X131853996Y-35658320D01*
X131911078Y-35457697D01*
X131930324Y-35250001D01*
X131925608Y-35199112D01*
X131911078Y-35042306D01*
X131879133Y-34930032D01*
X131853996Y-34841682D01*
X131761021Y-34654963D01*
X131710740Y-34588381D01*
X131635323Y-34488511D01*
X131634036Y-34487338D01*
X131481173Y-34347985D01*
X131303830Y-34238178D01*
X131109332Y-34162829D01*
X131109333Y-34162829D01*
X131109330Y-34162828D01*
X131109329Y-34162828D01*
X130904295Y-34124501D01*
X130695709Y-34124501D01*
X130490675Y-34162828D01*
X130490670Y-34162829D01*
X130296178Y-34238176D01*
X130296168Y-34238181D01*
X130118830Y-34347985D01*
X129964680Y-34488511D01*
X129838984Y-34654961D01*
X129838983Y-34654962D01*
X129838983Y-34654963D01*
X129783246Y-34766898D01*
X129746008Y-34841682D01*
X129746005Y-34841690D01*
X129688925Y-35042306D01*
X129669680Y-35249996D01*
X129669680Y-35250005D01*
X128225500Y-35250005D01*
X128225500Y-32801500D01*
X128245502Y-32733379D01*
X128299158Y-32686886D01*
X128351495Y-32675500D01*
X151648501Y-32675500D01*
X151716622Y-32695502D01*
G37*
%TD.AperFunction*%
%TD*%
M02*
