<?xml version="1.0" encoding="UTF-8" standalone="no"?>
<svg
   xmlns:dc="http://purl.org/dc/elements/1.1/"
   xmlns:cc="http://creativecommons.org/ns#"
   xmlns:rdf="http://www.w3.org/1999/02/22-rdf-syntax-ns#"
   xmlns:svg="http://www.w3.org/2000/svg"
   xmlns="http://www.w3.org/2000/svg"
   xmlns:sodipodi="http://sodipodi.sourceforge.net/DTD/sodipodi-0.dtd"
   xmlns:inkscape="http://www.inkscape.org/namespaces/inkscape"
   sodipodi:docname="dessin.svg"
   inkscape:version="1.0 (4035a4fb49, 2020-05-01)"
   id="svg593"
   version="1.1"
   viewBox="0 0 380.0 150.0"
   height="150.0mm"
   width="380.0mm">
  <defs
     id="defs587" />
  <sodipodi:namedview
     inkscape:window-maximized="1"
     inkscape:window-y="-8"
     inkscape:window-x="-8"
     inkscape:window-height="961"
     inkscape:window-width="1280"
     showgrid="false"
     inkscape:document-rotation="0"
     inkscape:current-layer="g603"
     inkscape:document-units="mm"
     inkscape:cy="68.234703"
     inkscape:cx="539.632"
     inkscape:zoom="0.49497475"
     inkscape:pageshadow="2"
     inkscape:pageopacity="0.0"
     borderopacity="1.0"
     bordercolor="#666666"
     pagecolor="#ffffff"
     id="base" />
  <metadata
     id="metadata590">
    <rdf:RDF>
      <cc:Work
         rdf:about="">
        <dc:format>image/svg+xml</dc:format>
        <dc:type
           rdf:resource="http://purl.org/dc/dcmitype/StillImage" />
        <dc:title></dc:title>
      </cc:Work>
    </rdf:RDF>
  </metadata>
  <g
     style="display:inline"
     inkscape:label="Dwgs.User"
     inkscape:groupmode="layer"
     id="g603">
    <polygon
       points="289.066,161.264 278.342,170.263 287.341,180.987 298.065,171.988 "
       style="fill:none;stroke:#000000;stroke-width:0.05mm"
       id="polygon8"
       transform="translate(-53.899918,-34.413394)" />
    <polygon
       points="198.133,161.264 189.134,171.988 199.858,180.987 208.857,170.263 "
       style="fill:none;stroke:#000000;stroke-width:0.05mm"
       id="polygon10"
       transform="translate(-53.899918,-34.413394)" />
    <polygon
       points="290.412,147.7 286.812,150.721 295.811,161.446 299.412,158.425 300.392,159.593 296.968,162.466 298.076,163.787 297.157,164.559 299.278,167.087 300.198,166.315 301.306,167.637 306.11,163.606 306.64,164.238 308.785,162.439 308.254,161.807 310.729,159.73 306.39,154.56 303.916,156.636 302.936,155.468 306.536,152.447 297.537,141.722 293.936,144.743 292.956,143.575 295.43,141.499 291.092,136.328 288.617,138.404 288.087,137.772 285.942,139.572 286.472,140.204 281.669,144.234 282.778,145.556 281.859,146.327 283.98,148.855 284.899,148.083 286.008,149.405 289.432,146.532 "
       style="fill:none;stroke:#000000;stroke-width:0.05mm"
       id="polygon12"
       transform="translate(-53.899918,-34.413394)" />
    <polygon
       points="180.559,164.238 181.089,163.606 185.893,167.637 187.001,166.315 187.921,167.087 190.042,164.559 189.123,163.787 190.231,162.466 186.807,159.593 187.787,158.425 191.388,161.446 200.387,150.721 196.787,147.7 197.767,146.532 201.191,149.405 202.3,148.083 203.219,148.855 205.34,146.327 204.421,145.556 205.53,144.234 200.727,140.204 201.257,139.572 199.112,137.772 198.582,138.404 196.107,136.328 191.769,141.499 194.243,143.575 193.263,144.743 189.662,141.722 180.663,152.447 184.263,155.468 183.283,156.636 180.809,154.56 176.47,159.73 178.945,161.807 178.414,162.439 "
       style="fill:none;stroke:#000000;stroke-width:0.05mm"
       id="polygon14"
       transform="translate(-53.899918,-34.413394)" />
    <polygon
       points="276.821,146.67 266.096,155.669 275.095,166.394 285.82,157.395 "
       style="fill:none;stroke:#000000;stroke-width:0.05mm"
       id="polygon16"
       transform="translate(-53.899918,-34.413394)" />
    <polygon
       points="210.378,146.67 201.379,157.395 212.104,166.394 221.103,155.669 "
       style="fill:none;stroke:#000000;stroke-width:0.05mm"
       id="polygon18"
       transform="translate(-53.899918,-34.413394)" />
    <polygon
       points="325.848,135.985 313.724,142.985 320.724,155.109 332.848,148.109 "
       style="fill:none;stroke:#000000;stroke-width:0.05mm"
       id="polygon20"
       transform="translate(-53.899918,-34.413394)" />
    <polygon
       points="161.351,135.985 154.351,148.109 166.475,155.109 173.475,142.985 "
       style="fill:none;stroke:#000000;stroke-width:0.05mm"
       id="polygon22"
       transform="translate(-53.899918,-34.413394)" />
    <polygon
       points="352.065,132.397 338.118,133.618 339.339,147.564 353.285,146.344 "
       style="fill:none;stroke:#000000;stroke-width:0.05mm"
       id="polygon24"
       transform="translate(-53.899918,-34.413394)" />
    <polygon
       points="135.152,131.982 133.932,145.929 147.879,147.149 149.099,133.203 "
       style="fill:none;stroke:#000000;stroke-width:0.05mm"
       id="polygon26"
       transform="translate(-53.899918,-34.413394)" />
    <polygon
       points="394.575,143.705 397.862,143.418 397.758,142.222 399.476,142.072 399.087,137.619 400.605,137.486 401.015,142.168 414.962,140.948 414.552,136.266 416.072,136.133 416.461,140.586 418.18,140.436 418.284,141.631 421.572,141.344 421.467,140.148 423.186,139.998 422.639,133.752 423.461,133.68 423.217,130.889 422.395,130.961 422.114,127.745 415.389,128.333 415.671,131.551 414.152,131.684 413.742,127.001 399.795,128.222 400.205,132.904 398.686,133.037 398.404,129.818 391.68,130.407 391.961,133.625 391.14,133.697 391.384,136.486 392.205,136.414 392.752,142.66 394.47,142.51 "
       style="fill:none;stroke:#000000;stroke-width:0.05mm"
       id="polygon28"
       transform="translate(-53.899918,-34.413394)" />
    <polygon
       points="86.202,141.753 86.612,137.071 88.131,137.204 87.849,140.422 94.573,141.01 94.855,137.792 95.677,137.864 95.921,135.075 95.099,135.003 95.645,128.757 93.927,128.606 94.031,127.411 90.744,127.123 90.639,128.318 88.921,128.169 88.531,132.622 87.012,132.489 87.422,127.806 73.475,126.586 73.065,131.269 71.546,131.136 71.936,126.683 70.217,126.532 70.322,125.337 67.035,125.049 66.93,126.245 65.212,126.094 64.665,132.34 63.843,132.268 63.599,135.058 64.421,135.13 64.14,138.347 70.864,138.936 71.145,135.718 72.665,135.851 72.255,140.533 "
       style="fill:none;stroke:#000000;stroke-width:0.05mm"
       id="polygon30"
       transform="translate(-53.899918,-34.413394)" />
    <polygon
       points="326.683,115.495 312.736,116.715 313.956,130.662 327.903,129.442 "
       style="fill:none;stroke:#000000;stroke-width:0.05mm"
       id="polygon32"
       transform="translate(-53.899918,-34.413394)" />
    <polygon
       points="160.534,115.08 159.314,129.026 173.261,130.247 174.481,116.3 "
       style="fill:none;stroke:#000000;stroke-width:0.05mm"
       id="polygon34"
       transform="translate(-53.899918,-34.413394)" />
    <polygon
       points="345.245,109.091 331.299,110.311 332.519,124.258 346.465,123.037 "
       style="fill:none;stroke:#000000;stroke-width:0.05mm"
       id="polygon36"
       transform="translate(-53.899918,-34.413394)" />
    <polygon
       points="402.593,108.854 388.646,110.074 389.866,124.021 403.813,122.801 "
       style="fill:none;stroke:#000000;stroke-width:0.05mm"
       id="polygon38"
       transform="translate(-53.899918,-34.413394)" />
    <polygon
       points="141.972,108.676 140.752,122.622 154.698,123.842 155.919,109.896 "
       style="fill:none;stroke:#000000;stroke-width:0.05mm"
       id="polygon40"
       transform="translate(-53.899918,-34.413394)" />
    <polygon
       points="84.624,108.439 83.404,122.386 97.351,123.606 98.571,109.659 "
       style="fill:none;stroke:#000000;stroke-width:0.05mm"
       id="polygon42"
       transform="translate(-53.899918,-34.413394)" />
    <polygon
       points="306.875,107.667 292.928,108.887 294.149,122.834 308.095,121.614 "
       style="fill:none;stroke:#000000;stroke-width:0.05mm"
       id="polygon44"
       transform="translate(-53.899918,-34.413394)" />
    <polygon
       points="180.342,107.252 179.122,121.199 193.068,122.419 194.289,108.472 "
       style="fill:none;stroke:#000000;stroke-width:0.05mm"
       id="polygon46"
       transform="translate(-53.899918,-34.413394)" />
    <polygon
       points="421.57,107.194 407.624,108.414 408.844,122.361 422.791,121.14 "
       style="fill:none;stroke:#000000;stroke-width:0.05mm"
       id="polygon48"
       transform="translate(-53.899918,-34.413394)" />
    <polygon
       points="65.647,106.779 64.427,120.725 78.373,121.946 79.593,107.999 "
       style="fill:none;stroke:#000000;stroke-width:0.05mm"
       id="polygon50"
       transform="translate(-53.899918,-34.413394)" />
    <polygon
       points="383.2,105.77 369.254,106.99 370.474,120.937 384.421,119.717 "
       style="fill:none;stroke:#000000;stroke-width:0.05mm"
       id="polygon52"
       transform="translate(-53.899918,-34.413394)" />
    <polygon
       points="104.017,105.355 102.797,119.302 116.743,120.522 117.964,106.575 "
       style="fill:none;stroke:#000000;stroke-width:0.05mm"
       id="polygon54"
       transform="translate(-53.899918,-34.413394)" />
    <polygon
       points="363.808,102.686 349.861,103.906 351.081,117.853 365.028,116.633 "
       style="fill:none;stroke:#000000;stroke-width:0.05mm"
       id="polygon56"
       transform="translate(-53.899918,-34.413394)" />
    <polygon
       points="123.409,102.271 122.189,116.218 136.136,117.438 137.356,103.491 "
       style="fill:none;stroke:#000000;stroke-width:0.05mm"
       id="polygon58"
       transform="translate(-53.899918,-34.413394)" />
    <polygon
       points="325.023,96.518 311.076,97.738 312.296,111.685 326.243,110.465 "
       style="fill:none;stroke:#000000;stroke-width:0.05mm"
       id="polygon60"
       transform="translate(-53.899918,-34.413394)" />
    <polygon
       points="162.195,96.103 160.974,110.049 174.921,111.27 176.141,97.323 "
       style="fill:none;stroke:#000000;stroke-width:0.05mm"
       id="polygon62"
       transform="translate(-53.899918,-34.413394)" />
    <polygon
       points="260.125,93.725 246.125,93.725 246.125,107.725 260.125,107.725 "
       style="fill:none;stroke:#000000;stroke-width:0.05mm"
       id="polygon64"
       transform="translate(-53.899918,-34.413394)" />
    <polygon
       points="241.075,93.725 227.075,93.725 227.075,107.725 241.075,107.725 "
       style="fill:none;stroke:#000000;stroke-width:0.05mm"
       id="polygon66"
       transform="translate(-53.899918,-34.413394)" />
    <polygon
       points="343.585,90.113 329.638,91.333 330.858,105.28 344.805,104.06 "
       style="fill:none;stroke:#000000;stroke-width:0.05mm"
       id="polygon68"
       transform="translate(-53.899918,-34.413394)" />
    <polygon
       points="400.933,89.877 386.986,91.097 388.206,105.043 402.153,103.823 "
       style="fill:none;stroke:#000000;stroke-width:0.05mm"
       id="polygon70"
       transform="translate(-53.899918,-34.413394)" />
    <polygon
       points="143.632,89.698 142.412,103.645 156.359,104.865 157.579,90.918 "
       style="fill:none;stroke:#000000;stroke-width:0.05mm"
       id="polygon72"
       transform="translate(-53.899918,-34.413394)" />
    <polygon
       points="86.285,89.461 85.064,103.408 99.011,104.628 100.231,90.682 "
       style="fill:none;stroke:#000000;stroke-width:0.05mm"
       id="polygon74"
       transform="translate(-53.899918,-34.413394)" />
    <polygon
       points="305.215,88.689 291.268,89.91 292.488,103.856 306.435,102.636 "
       style="fill:none;stroke:#000000;stroke-width:0.05mm"
       id="polygon76"
       transform="translate(-53.899918,-34.413394)" />
    <polygon
       points="182.002,88.274 180.782,102.221 194.729,103.441 195.949,89.494 "
       style="fill:none;stroke:#000000;stroke-width:0.05mm"
       id="polygon78"
       transform="translate(-53.899918,-34.413394)" />
    <polygon
       points="419.91,88.216 405.963,89.436 407.184,103.383 421.13,102.163 "
       style="fill:none;stroke:#000000;stroke-width:0.05mm"
       id="polygon80"
       transform="translate(-53.899918,-34.413394)" />
    <polygon
       points="67.307,87.801 66.087,101.748 80.034,102.968 81.254,89.021 "
       style="fill:none;stroke:#000000;stroke-width:0.05mm"
       id="polygon82"
       transform="translate(-53.899918,-34.413394)" />
    <polygon
       points="381.54,86.792 367.593,88.013 368.813,101.959 382.76,100.739 "
       style="fill:none;stroke:#000000;stroke-width:0.05mm"
       id="polygon84"
       transform="translate(-53.899918,-34.413394)" />
    <polygon
       points="105.677,86.377 104.457,100.324 118.404,101.544 119.624,87.598 "
       style="fill:none;stroke:#000000;stroke-width:0.05mm"
       id="polygon86"
       transform="translate(-53.899918,-34.413394)" />
    <polygon
       points="362.147,83.708 348.201,84.929 349.421,98.875 363.368,97.655 "
       style="fill:none;stroke:#000000;stroke-width:0.05mm"
       id="polygon88"
       transform="translate(-53.899918,-34.413394)" />
    <polygon
       points="125.07,83.293 123.85,97.24 137.796,98.46 139.016,84.514 "
       style="fill:none;stroke:#000000;stroke-width:0.05mm"
       id="polygon90"
       transform="translate(-53.899918,-34.413394)" />
    <polygon
       points="323.362,77.54 309.416,78.76 310.636,92.707 324.582,91.487 "
       style="fill:none;stroke:#000000;stroke-width:0.05mm"
       id="polygon92"
       transform="translate(-53.899918,-34.413394)" />
    <polygon
       points="163.855,77.125 162.635,91.072 176.581,92.292 177.802,78.345 "
       style="fill:none;stroke:#000000;stroke-width:0.05mm"
       id="polygon94"
       transform="translate(-53.899918,-34.413394)" />
    <polygon
       points="260.125,74.675 246.125,74.675 246.125,88.675 260.125,88.675 "
       style="fill:none;stroke:#000000;stroke-width:0.05mm"
       id="polygon96"
       transform="translate(-53.899918,-34.413394)" />
    <polygon
       points="241.075,74.675 227.075,74.675 227.075,88.675 241.075,88.675 "
       style="fill:none;stroke:#000000;stroke-width:0.05mm"
       id="polygon98"
       transform="translate(-53.899918,-34.413394)" />
    <polygon
       points="341.925,71.136 327.978,72.356 329.198,86.302 343.145,85.082 "
       style="fill:none;stroke:#000000;stroke-width:0.05mm"
       id="polygon100"
       transform="translate(-53.899918,-34.413394)" />
    <polygon
       points="399.272,70.899 385.326,72.119 386.546,86.066 400.492,84.846 "
       style="fill:none;stroke:#000000;stroke-width:0.05mm"
       id="polygon102"
       transform="translate(-53.899918,-34.413394)" />
    <polygon
       points="145.292,70.721 144.072,84.667 158.019,85.887 159.239,71.941 "
       style="fill:none;stroke:#000000;stroke-width:0.05mm"
       id="polygon104"
       transform="translate(-53.899918,-34.413394)" />
    <polygon
       points="87.945,70.484 86.725,84.431 100.671,85.651 101.892,71.704 "
       style="fill:none;stroke:#000000;stroke-width:0.05mm"
       id="polygon106"
       transform="translate(-53.899918,-34.413394)" />
    <polygon
       points="303.555,69.712 289.608,70.932 290.828,84.879 304.775,83.659 "
       style="fill:none;stroke:#000000;stroke-width:0.05mm"
       id="polygon108"
       transform="translate(-53.899918,-34.413394)" />
    <polygon
       points="183.663,69.297 182.442,83.243 196.389,84.464 197.609,70.517 "
       style="fill:none;stroke:#000000;stroke-width:0.05mm"
       id="polygon110"
       transform="translate(-53.899918,-34.413394)" />
    <polygon
       points="418.25,69.239 404.303,70.459 405.523,84.406 419.47,83.185 "
       style="fill:none;stroke:#000000;stroke-width:0.05mm"
       id="polygon112"
       transform="translate(-53.899918,-34.413394)" />
    <polygon
       points="68.967,68.824 67.747,82.77 81.694,83.991 82.914,70.044 "
       style="fill:none;stroke:#000000;stroke-width:0.05mm"
       id="polygon114"
       transform="translate(-53.899918,-34.413394)" />
    <polygon
       points="379.88,67.815 365.933,69.035 367.153,82.982 381.1,81.762 "
       style="fill:none;stroke:#000000;stroke-width:0.05mm"
       id="polygon116"
       transform="translate(-53.899918,-34.413394)" />
    <polygon
       points="107.337,67.4 106.117,81.347 120.064,82.567 121.284,68.62 "
       style="fill:none;stroke:#000000;stroke-width:0.05mm"
       id="polygon118"
       transform="translate(-53.899918,-34.413394)" />
    <polygon
       points="360.487,64.73 346.54,65.951 347.761,79.898 361.707,78.678 "
       style="fill:none;stroke:#000000;stroke-width:0.05mm"
       id="polygon120"
       transform="translate(-53.899918,-34.413394)" />
    <polygon
       points="126.73,64.316 125.51,78.263 139.457,79.483 140.677,65.536 "
       style="fill:none;stroke:#000000;stroke-width:0.05mm"
       id="polygon122"
       transform="translate(-53.899918,-34.413394)" />
    <polygon
       points="321.702,58.563 307.755,59.783 308.975,73.73 322.922,72.51 "
       style="fill:none;stroke:#000000;stroke-width:0.05mm"
       id="polygon124"
       transform="translate(-53.899918,-34.413394)" />
    <polygon
       points="165.515,58.148 164.295,72.094 178.242,73.315 179.462,59.368 "
       style="fill:none;stroke:#000000;stroke-width:0.05mm"
       id="polygon126"
       transform="translate(-53.899918,-34.413394)" />
    <polygon
       points="260.125,55.625 246.125,55.625 246.125,69.625 260.125,69.625 "
       style="fill:none;stroke:#000000;stroke-width:0.05mm"
       id="polygon128"
       transform="translate(-53.899918,-34.413394)" />
    <polygon
       points="241.075,55.625 227.075,55.625 227.075,69.625 241.075,69.625 "
       style="fill:none;stroke:#000000;stroke-width:0.05mm"
       id="polygon130"
       transform="translate(-53.899918,-34.413394)" />
    <polygon
       points="340.264,52.158 326.318,53.378 327.538,67.325 341.485,66.105 "
       style="fill:none;stroke:#000000;stroke-width:0.05mm"
       id="polygon132"
       transform="translate(-53.899918,-34.413394)" />
    <polygon
       points="397.612,51.922 383.665,53.142 384.885,67.088 398.832,65.868 "
       style="fill:none;stroke:#000000;stroke-width:0.05mm"
       id="polygon134"
       transform="translate(-53.899918,-34.413394)" />
    <polygon
       points="146.953,51.743 145.733,65.69 159.679,66.91 160.899,52.963 "
       style="fill:none;stroke:#000000;stroke-width:0.05mm"
       id="polygon136"
       transform="translate(-53.899918,-34.413394)" />
    <polygon
       points="89.605,51.506 88.385,65.453 102.332,66.673 103.552,52.727 "
       style="fill:none;stroke:#000000;stroke-width:0.05mm"
       id="polygon138"
       transform="translate(-53.899918,-34.413394)" />
    <polygon
       points="416.589,50.261 402.643,51.481 403.863,65.428 417.81,64.208 "
       style="fill:none;stroke:#000000;stroke-width:0.05mm"
       id="polygon140"
       transform="translate(-53.899918,-34.413394)" />
    <polygon
       points="70.628,49.846 69.407,63.793 83.354,65.013 84.574,51.066 "
       style="fill:none;stroke:#000000;stroke-width:0.05mm"
       id="polygon142"
       transform="translate(-53.899918,-34.413394)" />
    <polygon
       points="378.219,48.837 364.273,50.058 365.493,64.004 379.44,62.784 "
       style="fill:none;stroke:#000000;stroke-width:0.05mm"
       id="polygon144"
       transform="translate(-53.899918,-34.413394)" />
    <polygon
       points="108.998,48.422 107.778,62.369 121.724,63.589 122.944,49.643 "
       style="fill:none;stroke:#000000;stroke-width:0.05mm"
       id="polygon146"
       transform="translate(-53.899918,-34.413394)" />
    <polygon
       points="358.827,45.753 344.88,46.974 346.1,60.92 360.047,59.7 "
       style="fill:none;stroke:#000000;stroke-width:0.05mm"
       id="polygon148"
       transform="translate(-53.899918,-34.413394)" />
    <polygon
       points="128.389,45.338 127.17,59.285 141.117,60.505 142.337,46.558 "
       style="fill:none;stroke:#000000;stroke-width:0.05mm"
       id="polygon150"
       transform="translate(-53.899918,-34.413394)" />
  </g>
</svg>
