<?xml version="1.0" encoding="UTF-8"?>
<!-- Generated by SVGo -->
<svg width="329.089mm" height="143.369mm" viewBox="0.000 0.000 329.089 143.369" xmlns="http://www.w3.org/2000/svg" xmlns:xlink="http://www.w3.org/1999/xlink">
<polygon points="324.089,138.369 5.001,138.369 5.001,5.001 324.089,5.001" style="fill:none;stroke-width:0.050000mm;stroke:black"/>
<polygon points="163.400,115.354 163.638,116.242 161.972,116.689 162.808,119.809 161.335,120.204 160.119,115.664 146.596,119.287 147.812,123.827 146.339,124.222 145.503,121.102 143.837,121.548 143.599,120.659 140.411,121.514 140.649,122.402 138.983,122.849 139.819,125.969 139.022,126.182 139.747,128.887 140.544,128.673 142.167,134.730 143.833,134.283 144.086,135.230 147.274,134.376 147.020,133.429 148.687,132.982 147.530,128.664 149.003,128.270 150.219,132.810 163.742,129.186 162.526,124.647 163.999,124.252 165.156,128.569 166.822,128.123 167.075,129.069 170.263,128.216 170.009,127.269 171.676,126.823 170.053,120.766 170.850,120.553 170.125,117.848 169.328,118.062 168.492,114.942 166.826,115.388 166.588,114.500" style="fill:none;stroke-width:0.050000mm;stroke:black"/>
<polygon points="100.671,114.190 99.005,113.744 97.382,119.800 96.585,119.587 95.860,122.291 96.657,122.505 95.821,125.625 97.488,126.071 97.249,126.960 100.437,127.814 100.675,126.925 102.341,127.372 103.177,124.252 104.650,124.647 103.434,129.186 116.957,132.810 118.173,128.270 119.646,128.664 118.810,131.785 120.477,132.231 120.239,133.120 123.426,133.974 123.664,133.085 125.330,133.532 126.166,130.412 126.963,130.625 127.688,127.921 126.891,127.707 128.514,121.651 126.848,121.204 127.101,120.258 123.914,119.404 123.660,120.350 121.994,119.904 120.837,124.222 119.364,123.827 120.580,119.287 107.057,115.664 105.841,120.204 104.368,119.809 105.525,115.491 103.859,115.045 104.112,114.098 100.925,113.244" style="fill:none;stroke-width:0.050000mm;stroke:black"/>
<polygon points="307.563,112.301 307.563,126.301 321.563,126.301 321.563,112.301" style="fill:none;stroke-width:0.050000mm;stroke:black"/>
<polygon points="288.513,112.301 288.513,126.301 302.513,126.301 302.513,112.301" style="fill:none;stroke-width:0.050000mm;stroke:black"/>
<polygon points="269.463,112.301 269.463,126.301 283.463,126.301 283.463,112.301" style="fill:none;stroke-width:0.050000mm;stroke:black"/>
<polygon points="174.197,111.891 177.820,125.414 191.343,121.791 187.720,108.268" style="fill:none;stroke-width:0.050000mm;stroke:black"/>
<polygon points="75.833,121.791 89.356,125.414 92.979,111.891 79.456,108.268" style="fill:none;stroke-width:0.050000mm;stroke:black"/>
<polygon points="243.269,107.538 243.269,121.538 257.268,121.538 257.268,107.538" style="fill:none;stroke-width:0.050000mm;stroke:black"/>
<polygon points="221.838,107.538 221.838,121.538 235.838,121.538 235.838,107.538" style="fill:none;stroke-width:0.050000mm;stroke:black"/>
<polygon points="200.407,107.538 200.407,121.538 214.407,121.538 214.407,107.538" style="fill:none;stroke-width:0.050000mm;stroke:black"/>
<polygon points="52.769,107.538 52.769,121.538 66.769,121.538 66.769,107.538" style="fill:none;stroke-width:0.050000mm;stroke:black"/>
<polygon points="31.338,107.538 31.338,121.538 45.338,121.538 45.338,107.538" style="fill:none;stroke-width:0.050000mm;stroke:black"/>
<polygon points="9.907,107.538 9.907,121.538 23.907,121.538 23.907,107.538" style="fill:none;stroke-width:0.050000mm;stroke:black"/>
<polygon points="288.513,93.251 288.513,107.251 302.513,107.251 302.513,93.251" style="fill:none;stroke-width:0.050000mm;stroke:black"/>
<polygon points="252.794,88.488 252.794,93.188 251.269,93.188 251.269,89.958 249.544,89.958 249.544,89.038 246.244,89.038 246.244,89.958 244.519,89.958 244.519,93.188 243.694,93.188 243.694,95.988 244.519,95.988 244.519,102.258 246.244,102.258 246.244,103.238 249.544,103.238 249.544,102.258 251.269,102.258 251.269,97.788 252.794,97.788 252.794,102.488 266.794,102.488 266.794,97.788 268.319,97.788 268.319,102.258 270.044,102.258 270.044,103.238 273.344,103.238 273.344,102.258 275.069,102.258 275.069,95.988 275.894,95.988 275.894,93.188 275.069,93.188 275.069,89.958 273.344,89.958 273.344,89.038 270.044,89.038 270.044,89.958 268.319,89.958 268.319,93.188 266.794,93.188 266.794,88.488" style="fill:none;stroke-width:0.050000mm;stroke:black"/>
<polygon points="221.838,88.488 221.838,102.488 235.838,102.488 235.838,88.488" style="fill:none;stroke-width:0.050000mm;stroke:black"/>
<polygon points="202.788,88.488 202.788,102.488 216.788,102.488 216.788,88.488" style="fill:none;stroke-width:0.050000mm;stroke:black"/>
<polygon points="183.738,88.488 183.738,102.488 197.738,102.488 197.738,88.488" style="fill:none;stroke-width:0.050000mm;stroke:black"/>
<polygon points="164.688,88.488 164.688,102.488 178.688,102.488 178.688,88.488" style="fill:none;stroke-width:0.050000mm;stroke:black"/>
<polygon points="145.638,88.488 145.638,102.488 159.638,102.488 159.638,88.488" style="fill:none;stroke-width:0.050000mm;stroke:black"/>
<polygon points="126.588,88.488 126.588,102.488 140.588,102.488 140.588,88.488" style="fill:none;stroke-width:0.050000mm;stroke:black"/>
<polygon points="107.538,88.488 107.538,102.488 121.538,102.488 121.538,88.488" style="fill:none;stroke-width:0.050000mm;stroke:black"/>
<polygon points="88.488,88.488 88.488,102.488 102.488,102.488 102.488,88.488" style="fill:none;stroke-width:0.050000mm;stroke:black"/>
<polygon points="69.438,88.488 69.438,102.488 83.438,102.488 83.438,88.488" style="fill:none;stroke-width:0.050000mm;stroke:black"/>
<polygon points="50.388,88.488 50.388,102.488 64.388,102.488 64.388,88.488" style="fill:none;stroke-width:0.050000mm;stroke:black"/>
<polygon points="31.338,88.488 31.338,102.488 45.338,102.488 45.338,88.488" style="fill:none;stroke-width:0.050000mm;stroke:black"/>
<polygon points="9.907,88.488 9.907,102.488 23.907,102.488 23.907,88.488" style="fill:none;stroke-width:0.050000mm;stroke:black"/>
<polygon points="264.701,69.438 264.701,74.138 263.176,74.138 263.176,70.908 261.451,70.908 261.451,69.988 258.150,69.988 258.150,70.908 256.426,70.908 256.426,74.138 255.601,74.138 255.601,76.938 256.426,76.938 256.426,83.208 258.150,83.208 258.150,84.188 261.451,84.188 261.451,83.208 263.176,83.208 263.176,78.738 264.701,78.738 264.701,83.438 278.701,83.438 278.701,78.738 280.226,78.738 280.226,83.208 281.951,83.208 281.951,84.188 285.251,84.188 285.251,83.208 286.976,83.208 286.976,76.938 287.801,76.938 287.801,74.138 286.976,74.138 286.976,70.908 285.251,70.908 285.251,69.988 281.951,69.988 281.951,70.908 280.226,70.908 280.226,74.138 278.701,74.138 278.701,69.438" style="fill:none;stroke-width:0.050000mm;stroke:black"/>
<polygon points="300.419,69.438 300.419,83.438 314.419,83.438 314.419,69.438" style="fill:none;stroke-width:0.050000mm;stroke:black"/>
<polygon points="231.363,69.438 231.363,83.438 245.363,83.438 245.363,69.438" style="fill:none;stroke-width:0.050000mm;stroke:black"/>
<polygon points="212.313,69.438 212.313,83.438 226.313,83.438 226.313,69.438" style="fill:none;stroke-width:0.050000mm;stroke:black"/>
<polygon points="193.263,69.438 193.263,83.438 207.263,83.438 207.263,69.438" style="fill:none;stroke-width:0.050000mm;stroke:black"/>
<polygon points="174.213,69.438 174.213,83.438 188.213,83.438 188.213,69.438" style="fill:none;stroke-width:0.050000mm;stroke:black"/>
<polygon points="155.163,69.438 155.163,83.438 169.163,83.438 169.163,69.438" style="fill:none;stroke-width:0.050000mm;stroke:black"/>
<polygon points="136.113,69.438 136.113,83.438 150.113,83.438 150.113,69.438" style="fill:none;stroke-width:0.050000mm;stroke:black"/>
<polygon points="117.063,69.438 117.063,83.438 131.063,83.438 131.063,69.438" style="fill:none;stroke-width:0.050000mm;stroke:black"/>
<polygon points="98.013,69.438 98.013,83.438 112.013,83.438 112.013,69.438" style="fill:none;stroke-width:0.050000mm;stroke:black"/>
<polygon points="78.963,69.438 78.963,83.438 92.963,83.438 92.963,69.438" style="fill:none;stroke-width:0.050000mm;stroke:black"/>
<polygon points="59.913,69.438 59.913,83.438 73.913,83.438 73.913,69.438" style="fill:none;stroke-width:0.050000mm;stroke:black"/>
<polygon points="40.863,69.438 40.863,83.438 54.863,83.438 54.863,69.438" style="fill:none;stroke-width:0.050000mm;stroke:black"/>
<polygon points="14.669,69.438 14.669,83.438 28.669,83.438 28.669,69.438" style="fill:none;stroke-width:0.050000mm;stroke:black"/>
<polygon points="300.419,50.388 300.419,64.388 314.419,64.388 314.419,50.388" style="fill:none;stroke-width:0.050000mm;stroke:black"/>
<polygon points="269.463,50.388 269.463,64.388 283.463,64.388 283.463,50.388" style="fill:none;stroke-width:0.050000mm;stroke:black"/>
<polygon points="245.651,50.388 245.651,64.388 259.650,64.388 259.650,50.388" style="fill:none;stroke-width:0.050000mm;stroke:black"/>
<polygon points="226.601,50.388 226.601,64.388 240.601,64.388 240.601,50.388" style="fill:none;stroke-width:0.050000mm;stroke:black"/>
<polygon points="207.551,50.388 207.551,64.388 221.551,64.388 221.551,50.388" style="fill:none;stroke-width:0.050000mm;stroke:black"/>
<polygon points="188.501,50.388 188.501,64.388 202.501,64.388 202.501,50.388" style="fill:none;stroke-width:0.050000mm;stroke:black"/>
<polygon points="169.451,50.388 169.451,64.388 183.451,64.388 183.451,50.388" style="fill:none;stroke-width:0.050000mm;stroke:black"/>
<polygon points="150.401,50.388 150.401,64.388 164.401,64.388 164.401,50.388" style="fill:none;stroke-width:0.050000mm;stroke:black"/>
<polygon points="131.351,50.388 131.351,64.388 145.351,64.388 145.351,50.388" style="fill:none;stroke-width:0.050000mm;stroke:black"/>
<polygon points="112.301,50.388 112.301,64.388 126.301,64.388 126.301,50.388" style="fill:none;stroke-width:0.050000mm;stroke:black"/>
<polygon points="93.251,50.388 93.251,64.388 107.251,64.388 107.251,50.388" style="fill:none;stroke-width:0.050000mm;stroke:black"/>
<polygon points="74.201,50.388 74.201,64.388 88.201,64.388 88.201,50.388" style="fill:none;stroke-width:0.050000mm;stroke:black"/>
<polygon points="55.151,50.388 55.151,64.388 69.151,64.388 69.151,50.388" style="fill:none;stroke-width:0.050000mm;stroke:black"/>
<polygon points="36.101,50.388 36.101,64.388 50.101,64.388 50.101,50.388" style="fill:none;stroke-width:0.050000mm;stroke:black"/>
<polygon points="12.288,50.388 12.288,64.388 26.288,64.388 26.288,50.388" style="fill:none;stroke-width:0.050000mm;stroke:black"/>
<polygon points="264.701,31.338 264.701,36.038 263.176,36.038 263.176,32.808 261.451,32.808 261.451,31.888 258.150,31.888 258.150,32.808 256.426,32.808 256.426,36.038 255.601,36.038 255.601,38.838 256.426,38.838 256.426,45.108 258.150,45.108 258.150,46.088 261.451,46.088 261.451,45.108 263.176,45.108 263.176,40.638 264.701,40.638 264.701,45.338 278.701,45.338 278.701,40.638 280.226,40.638 280.226,45.108 281.951,45.108 281.951,46.088 285.251,46.088 285.251,45.108 286.976,45.108 286.976,38.838 287.801,38.838 287.801,36.038 286.976,36.038 286.976,32.808 285.251,32.808 285.251,31.888 281.951,31.888 281.951,32.808 280.226,32.808 280.226,36.038 278.701,36.038 278.701,31.338" style="fill:none;stroke-width:0.050000mm;stroke:black"/>
<polygon points="300.419,31.338 300.419,45.338 314.419,45.338 314.419,31.338" style="fill:none;stroke-width:0.050000mm;stroke:black"/>
<polygon points="236.126,31.338 236.126,45.338 250.126,45.338 250.126,31.338" style="fill:none;stroke-width:0.050000mm;stroke:black"/>
<polygon points="217.076,31.338 217.076,45.338 231.076,45.338 231.076,31.338" style="fill:none;stroke-width:0.050000mm;stroke:black"/>
<polygon points="198.026,31.338 198.026,45.338 212.026,45.338 212.026,31.338" style="fill:none;stroke-width:0.050000mm;stroke:black"/>
<polygon points="178.976,31.338 178.976,45.338 192.976,45.338 192.976,31.338" style="fill:none;stroke-width:0.050000mm;stroke:black"/>
<polygon points="159.926,31.338 159.926,45.338 173.926,45.338 173.926,31.338" style="fill:none;stroke-width:0.050000mm;stroke:black"/>
<polygon points="140.876,31.338 140.876,45.338 154.876,45.338 154.876,31.338" style="fill:none;stroke-width:0.050000mm;stroke:black"/>
<polygon points="121.825,31.338 121.825,45.338 135.826,45.338 135.826,31.338" style="fill:none;stroke-width:0.050000mm;stroke:black"/>
<polygon points="102.775,31.338 102.775,45.338 116.775,45.338 116.775,31.338" style="fill:none;stroke-width:0.050000mm;stroke:black"/>
<polygon points="83.726,31.338 83.726,45.338 97.726,45.338 97.726,31.338" style="fill:none;stroke-width:0.050000mm;stroke:black"/>
<polygon points="64.676,31.338 64.676,45.338 78.676,45.338 78.676,31.338" style="fill:none;stroke-width:0.050000mm;stroke:black"/>
<polygon points="45.626,31.338 45.626,45.338 59.626,45.338 59.626,31.338" style="fill:none;stroke-width:0.050000mm;stroke:black"/>
<polygon points="26.576,31.338 26.576,45.338 40.576,45.338 40.576,31.338" style="fill:none;stroke-width:0.050000mm;stroke:black"/>
<polygon points="7.526,31.338 7.526,45.338 21.526,45.338 21.526,31.338" style="fill:none;stroke-width:0.050000mm;stroke:black"/>
<polygon points="250.413,7.526 250.413,21.526 264.413,21.526 264.413,7.526" style="fill:none;stroke-width:0.050000mm;stroke:black"/>
<polygon points="231.363,7.526 231.363,21.526 245.363,21.526 245.363,7.526" style="fill:none;stroke-width:0.050000mm;stroke:black"/>
<polygon points="212.313,7.526 212.313,21.526 226.313,21.526 226.313,7.526" style="fill:none;stroke-width:0.050000mm;stroke:black"/>
<polygon points="193.263,7.526 193.263,21.526 207.263,21.526 207.263,7.526" style="fill:none;stroke-width:0.050000mm;stroke:black"/>
<polygon points="169.451,7.526 169.451,21.526 183.451,21.526 183.451,7.526" style="fill:none;stroke-width:0.050000mm;stroke:black"/>
<polygon points="150.401,7.526 150.401,21.526 164.401,21.526 164.401,7.526" style="fill:none;stroke-width:0.050000mm;stroke:black"/>
<polygon points="131.351,7.526 131.351,21.526 145.351,21.526 145.351,7.526" style="fill:none;stroke-width:0.050000mm;stroke:black"/>
<polygon points="112.301,7.526 112.301,21.526 126.301,21.526 126.301,7.526" style="fill:none;stroke-width:0.050000mm;stroke:black"/>
<polygon points="88.488,7.526 88.488,21.526 102.488,21.526 102.488,7.526" style="fill:none;stroke-width:0.050000mm;stroke:black"/>
<polygon points="69.438,7.526 69.438,21.526 83.438,21.526 83.438,7.526" style="fill:none;stroke-width:0.050000mm;stroke:black"/>
<polygon points="50.388,7.526 50.388,21.526 64.388,21.526 64.388,7.526" style="fill:none;stroke-width:0.050000mm;stroke:black"/>
<polygon points="31.338,7.526 31.338,21.526 45.338,21.526 45.338,7.526" style="fill:none;stroke-width:0.050000mm;stroke:black"/>
<polygon points="7.526,7.526 7.526,21.526 21.526,21.526 21.526,7.526" style="fill:none;stroke-width:0.050000mm;stroke:black"/>
</svg>