G04 #@! TF.GenerationSoftware,KiCad,Pcbnew,(5.1.6)-1*
G04 #@! TF.CreationDate,2021-02-05T14:28:55+01:00*
G04 #@! TF.ProjectId,top,746f702e-6b69-4636-9164-5f7063625858,rev?*
G04 #@! TF.SameCoordinates,Original*
G04 #@! TF.FileFunction,Copper,L2,Bot*
G04 #@! TF.FilePolarity,Positive*
%FSLAX46Y46*%
G04 Gerber Fmt 4.6, Leading zero omitted, Abs format (unit mm)*
G04 Created by KiCad (PCBNEW (5.1.6)-1) date 2021-02-05 14:28:55*
%MOMM*%
%LPD*%
G01*
G04 APERTURE LIST*
G04 #@! TA.AperFunction,WasherPad*
%ADD10C,2.400000*%
G04 #@! TD*
G04 #@! TA.AperFunction,ComponentPad*
%ADD11C,0.700000*%
G04 #@! TD*
G04 #@! TA.AperFunction,ComponentPad*
%ADD12C,4.400000*%
G04 #@! TD*
G04 APERTURE END LIST*
D10*
X338899600Y-110028400D03*
X347899600Y-114278400D03*
X356899600Y-110028400D03*
X338899600Y-119278400D03*
X329899600Y-114278400D03*
X329899600Y-124278400D03*
X329899600Y-134278400D03*
X338899600Y-139278400D03*
X347899600Y-134278400D03*
X347899600Y-124278400D03*
X356899600Y-119278400D03*
X356899600Y-100778400D03*
X347899600Y-105778400D03*
X329899600Y-105778400D03*
X329899600Y-95778400D03*
X347899600Y-95778400D03*
X338899600Y-90778400D03*
X323899600Y-105778400D03*
X359899600Y-105778400D03*
X353899600Y-105778400D03*
X362899600Y-100778400D03*
X359899600Y-95778400D03*
X362899600Y-110028400D03*
X326899600Y-110028400D03*
X350899600Y-110028400D03*
X344899600Y-110028400D03*
X332899600Y-110028400D03*
X350899600Y-90778400D03*
X359899600Y-114278400D03*
X359899600Y-124278400D03*
X362899600Y-119278400D03*
X350899600Y-100778400D03*
X353899600Y-95778400D03*
X323899600Y-114278400D03*
X350899600Y-119278400D03*
X353899600Y-114278400D03*
X350899600Y-129278400D03*
X353899600Y-124278400D03*
X350899600Y-139278400D03*
X353899600Y-134278400D03*
X326899600Y-119278400D03*
X323899600Y-124278400D03*
X323899600Y-134278400D03*
X326899600Y-129278400D03*
X326899600Y-139278400D03*
X323899600Y-95778400D03*
X326899600Y-90778400D03*
X326899600Y-100778400D03*
X332899600Y-139278400D03*
X344899600Y-139278400D03*
X341899600Y-144278400D03*
X335899600Y-144278400D03*
X344899600Y-119278400D03*
X332899600Y-119278400D03*
X335899600Y-114278400D03*
X341899600Y-114278400D03*
X344899600Y-90778400D03*
X332899600Y-90778400D03*
X335899600Y-134278400D03*
X341899600Y-134278400D03*
X332899600Y-129278400D03*
X344899600Y-129278400D03*
X341899600Y-95778400D03*
X335899600Y-95778400D03*
X344899600Y-100778400D03*
X332899600Y-100778400D03*
X335899600Y-124278400D03*
X341899600Y-124278400D03*
X335899600Y-105778400D03*
X341899600Y-105778400D03*
X235899600Y-105778400D03*
X241899600Y-105778400D03*
X235899600Y-124278400D03*
X241899600Y-124278400D03*
X244899600Y-100778400D03*
X232899600Y-100778400D03*
X241899600Y-95778400D03*
X235899600Y-95778400D03*
X232899600Y-129278400D03*
X244899600Y-129278400D03*
X235899600Y-134278400D03*
X241899600Y-134278400D03*
X244899600Y-90778400D03*
X232899600Y-90778400D03*
X235899600Y-114278400D03*
X241899600Y-114278400D03*
X244899600Y-119278400D03*
X232899600Y-119278400D03*
X241899600Y-144278400D03*
X235899600Y-144278400D03*
X232899600Y-139278400D03*
X244899600Y-139278400D03*
X250899600Y-100778400D03*
X250899600Y-90778400D03*
X253899600Y-95778400D03*
X250899600Y-139278400D03*
X250899600Y-129278400D03*
X253899600Y-134278400D03*
X253899600Y-124278400D03*
X250899600Y-119278400D03*
X223899600Y-134278400D03*
X226899600Y-139278400D03*
X223899600Y-124278400D03*
X226899600Y-129278400D03*
X223899600Y-114278400D03*
X226899600Y-119278400D03*
X253899600Y-114278400D03*
X223899600Y-95778400D03*
X226899600Y-100778400D03*
X214899600Y-119278400D03*
X217899600Y-124278400D03*
X217899600Y-114278400D03*
X226899600Y-90778400D03*
X244899600Y-110028400D03*
X232899600Y-110028400D03*
X226899600Y-110028400D03*
X250899600Y-110028400D03*
X214899600Y-110028400D03*
X217899600Y-95778400D03*
X214899600Y-100778400D03*
X223899600Y-105778400D03*
X217899600Y-105778400D03*
X253899600Y-105778400D03*
X238899600Y-90778400D03*
X229899600Y-95778400D03*
X247899600Y-95778400D03*
X247899600Y-105778400D03*
X229899600Y-105778400D03*
X220899600Y-100778400D03*
X220899600Y-119278400D03*
X229899600Y-124278400D03*
X229899600Y-134278400D03*
X238899600Y-139278400D03*
X247899600Y-134278400D03*
X247899600Y-124278400D03*
X247899600Y-114278400D03*
X238899600Y-119278400D03*
X220899600Y-110028400D03*
X229899600Y-114278400D03*
X238899600Y-110028400D03*
D11*
X370066326Y-47711674D03*
X368899600Y-47228400D03*
X367732874Y-47711674D03*
X367249600Y-48878400D03*
X367732874Y-50045126D03*
X368899600Y-50528400D03*
X370066326Y-50045126D03*
X370549600Y-48878400D03*
D12*
X368899600Y-48878400D03*
D11*
X210066326Y-47711674D03*
X208899600Y-47228400D03*
X207732874Y-47711674D03*
X207249600Y-48878400D03*
X207732874Y-50045126D03*
X208899600Y-50528400D03*
X210066326Y-50045126D03*
X210549600Y-48878400D03*
D12*
X208899600Y-48878400D03*
D11*
X422566326Y-135211674D03*
X421399600Y-134728400D03*
X420232874Y-135211674D03*
X419749600Y-136378400D03*
X420232874Y-137545126D03*
X421399600Y-138028400D03*
X422566326Y-137545126D03*
X423049600Y-136378400D03*
D12*
X421399600Y-136378400D03*
D11*
X122566326Y-135211674D03*
X121399600Y-134728400D03*
X120232874Y-135211674D03*
X119749600Y-136378400D03*
X120232874Y-137545126D03*
X121399600Y-138028400D03*
X122566326Y-137545126D03*
X123049600Y-136378400D03*
D12*
X121399600Y-136378400D03*
D11*
X450084726Y-78944674D03*
X448918000Y-78461400D03*
X447751274Y-78944674D03*
X447268000Y-80111400D03*
X447751274Y-81278126D03*
X448918000Y-81761400D03*
X450084726Y-81278126D03*
X450568000Y-80111400D03*
D12*
X448918000Y-80111400D03*
D11*
X129984726Y-78944674D03*
X128818000Y-78461400D03*
X127651274Y-78944674D03*
X127168000Y-80111400D03*
X127651274Y-81278126D03*
X128818000Y-81761400D03*
X129984726Y-81278126D03*
X130468000Y-80111400D03*
D12*
X128818000Y-80111400D03*
D11*
X370015526Y-91711674D03*
X368848800Y-91228400D03*
X367682074Y-91711674D03*
X367198800Y-92878400D03*
X367682074Y-94045126D03*
X368848800Y-94528400D03*
X370015526Y-94045126D03*
X370498800Y-92878400D03*
D12*
X368848800Y-92878400D03*
D11*
X210015526Y-91711674D03*
X208848800Y-91228400D03*
X207682074Y-91711674D03*
X207198800Y-92878400D03*
X207682074Y-94045126D03*
X208848800Y-94528400D03*
X210015526Y-94045126D03*
X210498800Y-92878400D03*
D12*
X208848800Y-92878400D03*
D11*
X317566326Y-44711674D03*
X316399600Y-44228400D03*
X315232874Y-44711674D03*
X314749600Y-45878400D03*
X315232874Y-47045126D03*
X316399600Y-47528400D03*
X317566326Y-47045126D03*
X318049600Y-45878400D03*
D12*
X316399600Y-45878400D03*
D11*
X262566326Y-44711674D03*
X261399600Y-44228400D03*
X260232874Y-44711674D03*
X259749600Y-45878400D03*
X260232874Y-47045126D03*
X261399600Y-47528400D03*
X262566326Y-47045126D03*
X263049600Y-45878400D03*
D12*
X261399600Y-45878400D03*
D11*
X250015526Y-146711674D03*
X248848800Y-146228400D03*
X247682074Y-146711674D03*
X247198800Y-147878400D03*
X247682074Y-149045126D03*
X248848800Y-149528400D03*
X250015526Y-149045126D03*
X250498800Y-147878400D03*
D12*
X248848800Y-147878400D03*
D11*
X330015526Y-146711674D03*
X328848800Y-146228400D03*
X327682074Y-146711674D03*
X327198800Y-147878400D03*
X327682074Y-149045126D03*
X328848800Y-149528400D03*
X330015526Y-149045126D03*
X330498800Y-147878400D03*
D12*
X328848800Y-147878400D03*
D11*
X527566326Y-135211674D03*
X526399600Y-134728400D03*
X525232874Y-135211674D03*
X524749600Y-136378400D03*
X525232874Y-137545126D03*
X526399600Y-138028400D03*
X527566326Y-137545126D03*
X528049600Y-136378400D03*
D12*
X526399600Y-136378400D03*
D11*
X527566326Y-42711674D03*
X526399600Y-42228400D03*
X525232874Y-42711674D03*
X524749600Y-43878400D03*
X525232874Y-45045126D03*
X526399600Y-45528400D03*
X527566326Y-45045126D03*
X528049600Y-43878400D03*
D12*
X526399600Y-43878400D03*
D11*
X70066326Y-135211674D03*
X68899600Y-134728400D03*
X67732874Y-135211674D03*
X67249600Y-136378400D03*
X67732874Y-137545126D03*
X68899600Y-138028400D03*
X70066326Y-137545126D03*
X70549600Y-136378400D03*
D12*
X68899600Y-136378400D03*
D11*
X70066326Y-42711674D03*
X68899600Y-42228400D03*
X67732874Y-42711674D03*
X67249600Y-43878400D03*
X67732874Y-45045126D03*
X68899600Y-45528400D03*
X70066326Y-45045126D03*
X70549600Y-43878400D03*
D12*
X68899600Y-43878400D03*
M02*
