M48
; DRILL file {KiCad (5.1.6)-1} date 02/05/21 14:28:59
; FORMAT={-:-/ absolute / inch / decimal}
; #@! TF.CreationDate,2021-02-05T14:28:59+01:00
; #@! TF.GenerationSoftware,Kicad,Pcbnew,(5.1.6)-1
FMAT,2
INCH
T1C0.0157
T2C0.0866
T3C0.0866
%
G90
G05
T1
X14.4566Y-3.6566
X14.4757Y-3.6107
X14.4757Y-3.7026
X14.5216Y-3.5917
X14.5216Y-3.7216
X14.5675Y-3.6107
X14.5675Y-3.7026
X14.5866Y-3.6566
X8.1594Y-1.9243
X8.1785Y-1.8784
X8.1785Y-1.9703
X8.2244Y-1.8594
X8.2244Y-1.9893
X8.2703Y-1.8784
X8.2703Y-1.9703
X8.2894Y-1.9243
X8.1574Y-3.6566
X8.1765Y-3.6107
X8.1765Y-3.7026
X8.2224Y-3.5917
X8.2224Y-3.7216
X8.2683Y-3.6107
X8.2683Y-3.7026
X8.2874Y-3.6566
X20.6594Y-5.3692
X20.6785Y-5.3233
X20.6785Y-5.4152
X20.7244Y-5.3043
X20.7244Y-5.4342
X20.7703Y-5.3233
X20.7703Y-5.4152
X20.7894Y-5.3692
X4.7146Y-5.3692
X4.7336Y-5.3233
X4.7336Y-5.4152
X4.7795Y-5.3043
X4.7795Y-5.4342
X4.8254Y-5.3233
X4.8254Y-5.4152
X4.8445Y-5.3692
X14.4586Y-1.9243
X14.4777Y-1.8784
X14.4777Y-1.9703
X14.5236Y-1.8594
X14.5236Y-1.9893
X14.5695Y-1.8784
X14.5695Y-1.9703
X14.5886Y-1.9243
X16.5256Y-5.3692
X16.5446Y-5.3233
X16.5446Y-5.4152
X16.5905Y-5.3043
X16.5905Y-5.4342
X16.6365Y-5.3233
X16.6365Y-5.4152
X16.6555Y-5.3692
X2.6476Y-1.7275
X2.6666Y-1.6816
X2.6666Y-1.7734
X2.7126Y-1.6625
X2.7126Y-1.7925
X2.7585Y-1.6816
X2.7585Y-1.7734
X2.7775Y-1.7275
X12.3917Y-1.8062
X12.4107Y-1.7603
X12.4107Y-1.8522
X12.4567Y-1.7413
X12.4567Y-1.8712
X12.5026Y-1.7603
X12.5026Y-1.8522
X12.5216Y-1.8062
X9.7322Y-5.822
X9.7513Y-5.7761
X9.7513Y-5.8679
X9.7972Y-5.757
X9.7972Y-5.8869
X9.8431Y-5.7761
X9.8431Y-5.8679
X9.8622Y-5.822
X20.6594Y-1.7275
X20.6785Y-1.6816
X20.6785Y-1.7734
X20.7244Y-1.6625
X20.7244Y-1.7925
X20.7703Y-1.6816
X20.7703Y-1.7734
X20.7894Y-1.7275
X2.6476Y-5.3692
X2.6666Y-5.3233
X2.6666Y-5.4152
X2.7126Y-5.3043
X2.7126Y-5.4342
X2.7585Y-5.3233
X2.7585Y-5.4152
X2.7775Y-5.3692
X10.2264Y-1.8062
X10.2454Y-1.7603
X10.2454Y-1.8522
X10.2913Y-1.7413
X10.2913Y-1.8712
X10.3373Y-1.7603
X10.3373Y-1.8522
X10.3563Y-1.8062
X17.609Y-3.154
X17.628Y-3.1081
X17.628Y-3.1999
X17.6739Y-3.089
X17.6739Y-3.219
X17.7199Y-3.1081
X17.7199Y-3.1999
X17.7389Y-3.154
X5.0066Y-3.154
X5.0256Y-3.1081
X5.0256Y-3.1999
X5.0716Y-3.089
X5.0716Y-3.219
X5.1175Y-3.1081
X5.1175Y-3.1999
X5.1365Y-3.154
X12.8818Y-5.822
X12.9009Y-5.7761
X12.9009Y-5.8679
X12.9468Y-5.757
X12.9468Y-5.8869
X12.9927Y-5.7761
X12.9927Y-5.8679
X13.0118Y-5.822
T2
X14.5216Y-3.6566
X8.2244Y-1.9243
X8.2224Y-3.6566
X20.7244Y-5.3692
X4.7795Y-5.3692
X14.5236Y-1.9243
X16.5905Y-5.3692
X2.7126Y-1.7275
X12.4567Y-1.8062
X9.7972Y-5.822
X20.7244Y-1.7275
X2.7126Y-5.3692
X10.2913Y-1.8062
X17.6739Y-3.154
X5.0716Y-3.154
X12.9468Y-5.822
T3
X12.752Y-3.7708
X12.752Y-4.1645
X12.752Y-4.4991
X12.752Y-4.8929
X12.752Y-5.2866
X12.8701Y-3.574
X12.8701Y-3.9677
X12.8701Y-4.3318
X12.8701Y-4.696
X12.8701Y-5.0897
X12.8701Y-5.4834
X12.9882Y-3.7708
X12.9882Y-4.1645
X12.9882Y-4.4991
X12.9882Y-4.8929
X12.9882Y-5.2866
X13.1063Y-3.574
X13.1063Y-3.9677
X13.1063Y-4.3318
X13.1063Y-4.696
X13.1063Y-5.0897
X13.1063Y-5.4834
X13.2244Y-3.7708
X13.2244Y-4.1645
X13.2244Y-4.4991
X13.2244Y-4.8929
X13.2244Y-5.2866
X13.2244Y-5.6803
X13.3425Y-3.574
X13.3425Y-4.3318
X13.3425Y-4.696
X13.3425Y-5.4834
X13.4606Y-3.7708
X13.4606Y-4.1645
X13.4606Y-4.4991
X13.4606Y-4.8929
X13.4606Y-5.2866
X13.4606Y-5.6803
X13.5787Y-3.574
X13.5787Y-3.9677
X13.5787Y-4.3318
X13.5787Y-4.696
X13.5787Y-5.0897
X13.5787Y-5.4834
X13.6968Y-3.7708
X13.6968Y-4.1645
X13.6968Y-4.4991
X13.6968Y-4.8929
X13.6968Y-5.2866
X13.8149Y-3.574
X13.8149Y-3.9677
X13.8149Y-4.3318
X13.8149Y-4.696
X13.8149Y-5.0897
X13.8149Y-5.4834
X13.9331Y-3.7708
X13.9331Y-4.1645
X13.9331Y-4.4991
X13.9331Y-4.8929
X13.9331Y-5.2866
X14.0512Y-3.9677
X14.0512Y-4.3318
X14.0512Y-4.696
X14.1693Y-3.7708
X14.1693Y-4.1645
X14.1693Y-4.4991
X14.1693Y-4.8929
X14.2874Y-3.9677
X14.2874Y-4.3318
X14.2874Y-4.696
X8.4606Y-3.9677
X8.4606Y-4.3318
X8.4606Y-4.696
X8.5787Y-3.7708
X8.5787Y-4.1645
X8.5787Y-4.4991
X8.5787Y-4.8929
X8.6968Y-3.9677
X8.6968Y-4.3318
X8.6968Y-4.696
X8.8149Y-3.7708
X8.8149Y-4.1645
X8.8149Y-4.4991
X8.8149Y-4.8929
X8.8149Y-5.2866
X8.9331Y-3.574
X8.9331Y-3.9677
X8.9331Y-4.3318
X8.9331Y-4.696
X8.9331Y-5.0897
X8.9331Y-5.4834
X9.0512Y-3.7708
X9.0512Y-4.1645
X9.0512Y-4.4991
X9.0512Y-4.8929
X9.0512Y-5.2866
X9.1693Y-3.574
X9.1693Y-3.9677
X9.1693Y-4.3318
X9.1693Y-4.696
X9.1693Y-5.0897
X9.1693Y-5.4834
X9.2874Y-3.7708
X9.2874Y-4.1645
X9.2874Y-4.4991
X9.2874Y-4.8929
X9.2874Y-5.2866
X9.2874Y-5.6803
X9.4055Y-3.574
X9.4055Y-4.3318
X9.4055Y-4.696
X9.4055Y-5.4834
X9.5236Y-3.7708
X9.5236Y-4.1645
X9.5236Y-4.4991
X9.5236Y-4.8929
X9.5236Y-5.2866
X9.5236Y-5.6803
X9.6417Y-3.574
X9.6417Y-3.9677
X9.6417Y-4.3318
X9.6417Y-4.696
X9.6417Y-5.0897
X9.6417Y-5.4834
X9.7598Y-3.7708
X9.7598Y-4.1645
X9.7598Y-4.4991
X9.7598Y-4.8929
X9.7598Y-5.2866
X9.8779Y-3.574
X9.8779Y-3.9677
X9.8779Y-4.3318
X9.8779Y-4.696
X9.8779Y-5.0897
X9.8779Y-5.4834
X9.996Y-3.7708
X9.996Y-4.1645
X9.996Y-4.4991
X9.996Y-4.8929
X9.996Y-5.2866
T0
M30
