M48
; DRILL file {KiCad (6.0.7)} date Sun Dec 11 22:06:57 2022
; FORMAT={-:-/ absolute / metric / decimal}
; #@! TF.CreationDate,2022-12-11T22:06:57+01:00
; #@! TF.GenerationSoftware,Kicad,Pcbnew,(6.0.7)
; #@! TF.FileFunction,MixedPlating,1,2
FMAT,2
METRIC
; #@! TA.AperFunction,Plated,PTH,ViaDrill
T1C0.400
; #@! TA.AperFunction,Plated,PTH,ComponentDrill
T2C0.400
; #@! TA.AperFunction,Plated,PTH,ComponentDrill
T3C0.600
; #@! TA.AperFunction,Plated,PTH,ComponentDrill
T4C0.762
; #@! TA.AperFunction,Plated,PTH,ComponentDrill
T5C0.800
; #@! TA.AperFunction,Plated,PTH,ComponentDrill
T6C0.813
; #@! TA.AperFunction,Plated,PTH,ComponentDrill
T7C1.000
; #@! TA.AperFunction,Plated,PTH,ComponentDrill
T8C1.020
; #@! TA.AperFunction,Plated,PTH,ComponentDrill
T9C1.100
; #@! TA.AperFunction,Plated,PTH,ComponentDrill
T10C1.300
; #@! TA.AperFunction,Plated,PTH,ComponentDrill
T11C1.400
; #@! TA.AperFunction,Plated,PTH,ComponentDrill
T12C2.200
; #@! TA.AperFunction,NonPlated,NPTH,ComponentDrill
T13C1.700
; #@! TA.AperFunction,NonPlated,NPTH,ComponentDrill
T14C3.000
; #@! TA.AperFunction,NonPlated,NPTH,ComponentDrill
T15C3.050
; #@! TA.AperFunction,NonPlated,NPTH,ComponentDrill
T16C4.000
; #@! TA.AperFunction,NonPlated,NPTH,ComponentDrill
T17C4.100
%
G90
G05
T1
X51.525Y-79.765
X53.61Y-119.52
X53.67Y-138.74
X56.71Y-98.81
X56.73Y-74.71
X58.75Y-106.85
X59.099Y-174.993
X61.48Y-117.83
X63.545Y-125.91
X63.84Y-136.9
X64.67Y-77.85
X65.925Y-144.95
X67.222Y-100.412
X68.63Y-155.95
X71.24Y-88.28
X71.865Y-176.645
X72.328Y-101.947
X73.41Y-164.26
X75.779Y-98.805
X76.68Y-76.295
X76.772Y-119.462
X76.96Y-178.17
X80.175Y-82.165
X80.559Y-175.001
X81.532Y-138.493
X81.785Y-77.83
X81.877Y-120.997
X85.329Y-117.835
X85.389Y-74.695
X86.26Y-100.47
X86.638Y-140.028
X90.059Y-136.905
X90.965Y-157.552
X91.075Y-176.675
X91.365Y-102.005
X94.809Y-98.805
X95.8Y-76.35
X95.8Y-119.51
X96.07Y-159.088
X96.18Y-178.21
X99.225Y-82.165
X99.6Y-155.96
X100.6Y-138.57
X100.905Y-77.885
X100.905Y-121.045
X101.989Y-175.001
X104.359Y-117.835
X104.419Y-74.695
X105.39Y-100.45
X105.705Y-140.105
X109.089Y-136.905
X110.055Y-157.595
X110.495Y-101.985
X111.82Y-176.67
X113.859Y-98.795
X114.745Y-119.485
X114.93Y-76.33
X115.16Y-159.13
X118.275Y-82.165
X118.63Y-155.96
X119.203Y-178.607
X119.535Y-138.55
X119.85Y-121.02
X120.035Y-77.865
X123.409Y-117.825
X123.469Y-74.685
X124.275Y-100.425
X124.64Y-140.085
X125.235Y-177.052
X128.139Y-136.895
X129.185Y-157.575
X129.38Y-101.96
X129.528Y-178.202
X132.929Y-98.805
X133.94Y-76.31
X133.955Y-119.485
X134.29Y-159.11
X136.925Y-82.565
X137.68Y-155.958
X138.038Y-180.482
X138.74Y-138.53
X139.045Y-77.845
X139.045Y-121.005
X142.479Y-117.835
X142.539Y-74.695
X143.41Y-100.43
X143.845Y-140.065
X147.209Y-136.905
X148.195Y-157.555
X148.515Y-101.965
X151.979Y-98.805
X152.917Y-184.431
X152.95Y-119.47
X153.3Y-159.09
X156.74Y-155.958
X157.75Y-138.53
X158.055Y-121.005
X158.06Y-76.315
X160.532Y-83.102
X161.539Y-117.835
X162.48Y-100.47
X162.855Y-140.065
X163.165Y-77.85
X166.279Y-136.905
X166.659Y-74.705
X166.79Y-164.26
X167.205Y-157.555
X167.585Y-102.005
X171.009Y-98.805
X172.07Y-119.5
X172.14Y-162.496
X172.31Y-159.09
X173.487Y-188.553
X174.2Y-76.35
X175.56Y-85.63
X175.8Y-155.958
X176.56Y-84.79
X176.74Y-138.58
X177.175Y-121.035
X177.28Y-84.073
X178.08Y-83.46
X178.2Y-73.983
X178.92Y-73.29
X179.105Y-83.585
X179.203Y-162.496
X179.76Y-73.983
X180.569Y-117.835
X181.395Y-100.45
X181.757Y-188.553
X181.845Y-140.115
X182.195Y-77.885
X182.66Y-164.26
X185.309Y-136.905
X185.689Y-74.705
X186.28Y-157.6
X186.5Y-101.985
X187.45Y-121.04
X190.059Y-98.795
X190.945Y-119.485
X191.385Y-159.135
X192.49Y-185.18
X194.84Y-155.958
X195.87Y-138.56
X196.022Y-76.347
X196.05Y-121.02
X197.64Y-84.09
X198.805Y-185.428
X199.619Y-117.825
X200.62Y-100.43
X200.975Y-140.095
X201.11Y-77.865
X204.359Y-136.895
X204.739Y-74.695
X205.215Y-157.575
X205.725Y-101.965
X209.129Y-98.805
X209.985Y-119.455
X210.32Y-159.11
X213.89Y-155.96
X214.49Y-179.52
X214.88Y-138.54
X215.09Y-120.99
X215.18Y-165.77
X215.23Y-76.31
X216.25Y-84.53
X218.689Y-117.835
X219.63Y-100.43
X219.985Y-140.075
X220.335Y-77.845
X223.429Y-136.905
X223.809Y-74.705
X224.42Y-157.56
X224.735Y-101.965
X224.76Y-165.77
X226.369Y-178.013
X228.199Y-98.795
X229.045Y-119.455
X229.525Y-159.095
X232.92Y-155.96
X233.75Y-138.54
X234.15Y-120.99
X236.03Y-165.23
X237.739Y-117.835
X238.6Y-100.43
X238.855Y-140.075
X238.97Y-177.81
X239.338Y-76.31
X241.305Y-84.825
X242.469Y-136.905
X243.44Y-157.57
X243.705Y-101.965
X244.443Y-77.845
X246.21Y-165.23
X247.21Y-175.0
X247.229Y-98.795
X247.939Y-74.695
X248.16Y-119.55
X248.535Y-159.095
X251.97Y-155.95
X252.855Y-138.485
X253.265Y-121.085
X256.769Y-117.835
X257.705Y-176.645
X257.73Y-100.41
X257.96Y-140.02
X258.31Y-76.37
X259.8Y-85.42
X260.72Y-165.24
X261.499Y-136.905
X261.55Y-178.18
X262.423Y-157.552
X262.835Y-101.945
X263.415Y-77.905
X266.269Y-175.001
X266.279Y-98.785
X266.969Y-74.695
X267.32Y-119.56
X267.527Y-159.088
X268.65Y-165.24
X271.04Y-155.96
X272.015Y-138.495
X272.395Y-121.065
X275.819Y-117.825
X276.75Y-100.41
X276.755Y-176.635
X277.12Y-140.03
X277.44Y-76.35
X277.73Y-165.08
X278.41Y-85.96
X280.36Y-178.17
X280.549Y-136.895
X281.845Y-101.925
X282.545Y-77.885
X285.339Y-174.991
X285.349Y-98.795
X285.63Y-165.08
X286.019Y-74.685
X286.32Y-119.53
X288.712Y-157.542
X291.405Y-121.045
X293.817Y-159.077
X294.238Y-138.502
X294.889Y-117.835
X296.45Y-76.33
X297.075Y-86.305
X297.219Y-155.951
X298.045Y-176.645
X298.54Y-182.05
X299.23Y-100.39
X301.555Y-77.865
X301.59Y-151.44
X304.59Y-183.19
X305.04Y-74.7
X305.26Y-169.53
X305.31Y-119.51
X308.067Y-140.037
X309.107Y-180.05
X310.016Y-136.906
X310.438Y-101.938
X312.416Y-98.816
X312.985Y-121.045
X313.25Y-77.85
X315.27Y-66.33
X315.88Y-132.46
X316.11Y-169.53
X317.166Y-117.856
X317.96Y-108.34
X318.25Y-99.58
X318.45Y-117.83
X319.595Y-181.695
X323.55Y-183.23
X326.681Y-161.001
X327.44Y-169.25
X327.44Y-171.15
X328.21Y-180.05
X331.32Y-122.74
X333.62Y-87.219
X334.34Y-87.93
X334.495Y-162.645
X335.14Y-170.2
X336.08Y-174.26
X338.275Y-162.645
X339.675Y-134.345
X341.34Y-159.67
X341.41Y-176.59
X342.15Y-169.56
X342.859Y-140.629
X342.86Y-139.6
X342.89Y-156.07
X343.9Y-141.67
X344.565Y-140.276
X344.78Y-95.17
X345.751Y-180.051
X345.95Y-98.96
X346.26Y-142.207
X351.93Y-102.44
X354.03Y-138.8
X354.62Y-142.94
X355.49Y-138.1
X356.502Y-138.149
X358.49Y-123.74
X358.63Y-104.74
X360.32Y-100.45
X360.32Y-119.49
X360.32Y-138.54
X361.54Y-98.85
X368.31Y-88.12
T2
X174.645Y-59.35
X174.645Y-60.7
X175.495Y-59.35
X175.495Y-60.7
X176.345Y-59.35
X176.345Y-60.7
X177.195Y-59.35
X177.195Y-60.7
X178.045Y-59.35
X178.045Y-60.7
X178.895Y-59.35
X178.895Y-60.7
X179.745Y-59.35
X179.745Y-60.7
X180.595Y-59.35
X180.595Y-60.7
T4
X58.43Y-183.09
X60.93Y-183.09
X63.43Y-183.09
X339.07Y-56.57
X344.07Y-56.57
X348.65Y-56.58
X353.65Y-56.58
T5
X66.775Y-69.097
X66.775Y-79.257
X66.787Y-94.46
X66.787Y-104.62
X71.55Y-170.66
X71.55Y-180.82
X76.312Y-113.51
X76.312Y-123.67
X81.075Y-132.56
X81.075Y-142.72
X85.837Y-94.46
X85.837Y-104.62
X90.6Y-151.61
X90.6Y-161.77
X90.6Y-170.66
X90.6Y-180.82
X95.362Y-113.51
X95.362Y-123.67
X95.425Y-69.097
X95.425Y-79.257
X100.125Y-132.56
X100.125Y-142.72
X104.887Y-94.46
X104.887Y-104.62
X109.65Y-151.61
X109.65Y-161.77
X114.412Y-113.51
X114.412Y-123.67
X114.412Y-170.66
X114.412Y-180.82
X114.475Y-69.097
X114.475Y-79.257
X119.175Y-132.56
X119.175Y-142.72
X123.937Y-94.46
X123.937Y-104.62
X128.7Y-151.61
X128.7Y-161.77
X133.462Y-113.51
X133.462Y-123.67
X133.525Y-69.097
X133.525Y-79.257
X134.165Y-183.031
X136.795Y-173.217
X138.225Y-132.56
X138.225Y-142.72
X142.987Y-94.46
X142.987Y-104.62
X147.75Y-151.61
X147.75Y-161.77
X152.512Y-113.51
X152.512Y-123.67
X152.575Y-69.097
X152.575Y-79.257
X157.275Y-132.56
X157.275Y-142.72
X162.037Y-94.46
X162.037Y-104.62
X166.8Y-151.61
X166.8Y-161.77
X171.218Y-191.83
X171.562Y-113.51
X171.562Y-123.67
X173.847Y-182.017
X176.325Y-132.56
X176.325Y-142.72
X176.675Y-69.097
X176.675Y-79.257
X181.087Y-94.46
X181.087Y-104.62
X185.85Y-151.61
X185.85Y-161.77
X190.612Y-113.51
X190.612Y-123.67
X195.375Y-132.56
X195.375Y-142.72
X195.725Y-69.097
X195.725Y-79.257
X200.137Y-94.46
X200.137Y-104.62
X204.9Y-151.61
X204.9Y-161.77
X209.662Y-113.51
X209.662Y-123.67
X214.425Y-132.56
X214.425Y-142.72
X214.775Y-69.097
X214.775Y-79.257
X215.716Y-172.756
X218.345Y-182.57
X219.187Y-94.46
X219.187Y-104.62
X223.95Y-151.61
X223.95Y-161.77
X228.712Y-113.51
X228.712Y-123.67
X233.475Y-132.56
X233.475Y-142.72
X233.825Y-69.097
X233.825Y-79.257
X234.596Y-168.85
X237.226Y-178.664
X238.237Y-94.46
X238.237Y-104.62
X243.0Y-151.61
X243.0Y-161.77
X247.762Y-113.51
X247.762Y-123.67
X252.525Y-132.56
X252.525Y-142.72
X257.287Y-94.46
X257.287Y-104.62
X257.287Y-170.66
X257.287Y-180.82
X257.925Y-69.097
X257.925Y-79.257
X262.05Y-151.61
X262.05Y-161.77
X266.812Y-113.51
X266.812Y-123.67
X271.575Y-132.56
X271.575Y-142.72
X276.337Y-94.46
X276.337Y-104.62
X276.337Y-170.66
X276.337Y-180.82
X276.975Y-69.097
X276.975Y-79.257
X281.1Y-151.61
X281.1Y-161.77
X285.862Y-113.51
X285.862Y-123.67
X290.625Y-132.56
X290.625Y-142.72
X295.387Y-94.46
X295.387Y-104.62
X295.387Y-170.66
X295.387Y-180.82
X296.025Y-69.097
X296.025Y-79.257
X304.912Y-113.51
X304.912Y-123.67
X307.343Y-151.61
X307.343Y-161.77
X315.075Y-69.097
X315.075Y-79.257
X319.195Y-173.507
X319.195Y-183.667
X333.487Y-94.46
X333.487Y-104.62
X333.487Y-113.51
X333.487Y-123.67
X333.487Y-132.56
X333.487Y-142.72
X338.245Y-173.507
X338.245Y-183.667
X338.25Y-156.66
X338.25Y-166.82
X345.113Y-69.075
X355.272Y-69.075
X357.295Y-173.507
X357.295Y-183.667
X360.652Y-104.735
X360.652Y-123.745
X360.652Y-142.785
X370.812Y-104.735
X370.812Y-123.745
X370.812Y-142.785
T6
X173.84Y-63.55
X176.38Y-63.55
X178.92Y-63.55
X181.46Y-63.55
X320.1Y-67.335
X320.1Y-69.875
X320.1Y-72.415
X320.1Y-74.955
T7
X344.01Y-88.42
X345.01Y-91.72
X346.01Y-88.42
X347.51Y-100.22
T8
X336.12Y-88.59
X336.12Y-91.13
X336.12Y-93.67
X336.12Y-96.21
X336.12Y-98.75
X336.12Y-101.29
X336.12Y-103.83
X336.12Y-106.37
X336.12Y-108.91
X336.12Y-111.45
X336.12Y-113.99
X336.12Y-116.53
X336.12Y-119.07
X336.12Y-121.61
X336.12Y-124.15
X336.12Y-126.69
X336.12Y-129.23
X336.12Y-131.77
X336.12Y-134.31
X336.12Y-136.85
X353.9Y-88.59
X353.9Y-91.13
X353.9Y-93.67
X353.9Y-96.21
X353.9Y-98.75
X353.9Y-101.29
X353.9Y-103.83
X353.9Y-106.37
X353.9Y-108.91
X353.9Y-111.45
X353.9Y-113.99
X353.9Y-116.53
X353.9Y-119.07
X353.9Y-121.61
X353.9Y-124.15
X353.9Y-126.69
X353.9Y-129.23
X353.9Y-131.77
X353.9Y-134.31
X353.9Y-136.85
T9
X361.525Y-68.57
X361.525Y-73.57
X364.025Y-68.57
X364.025Y-71.07
X364.025Y-73.57
T11
X338.07Y-59.07
X345.07Y-59.07
X347.65Y-59.08
X354.65Y-59.08
T12
X68.04Y-89.29
X70.42Y-165.09
X177.59Y-124.78
X177.62Y-185.07
X239.48Y-89.43
X286.22Y-151.44
X339.49Y-170.5
X344.27Y-81.67
T13
X53.445Y-72.095
X53.445Y-96.195
X55.826Y-172.395
X58.207Y-115.245
X60.589Y-134.295
X63.605Y-72.095
X63.605Y-96.195
X65.351Y-153.345
X65.986Y-172.395
X68.367Y-115.245
X70.749Y-134.295
X72.495Y-96.195
X75.511Y-153.345
X77.257Y-172.395
X82.02Y-115.245
X82.095Y-72.095
X82.655Y-96.195
X86.782Y-134.295
X87.417Y-172.395
X91.545Y-96.195
X92.18Y-115.245
X92.255Y-72.095
X96.307Y-153.345
X96.942Y-134.295
X98.689Y-172.395
X101.07Y-115.245
X101.145Y-72.095
X101.705Y-96.195
X105.832Y-134.295
X106.468Y-153.345
X108.849Y-172.395
X110.595Y-96.195
X111.23Y-115.245
X111.305Y-72.095
X115.358Y-153.345
X115.992Y-134.295
X120.12Y-115.245
X120.195Y-72.095
X120.755Y-96.195
X122.841Y-173.628
X124.882Y-134.295
X125.517Y-153.345
X129.645Y-96.195
X130.28Y-115.245
X130.355Y-72.095
X132.655Y-176.258
X134.407Y-153.345
X135.042Y-134.295
X139.17Y-115.245
X139.245Y-72.095
X139.805Y-96.195
X143.933Y-134.295
X144.567Y-153.345
X148.695Y-96.195
X149.33Y-115.245
X149.405Y-72.095
X150.443Y-181.024
X153.457Y-153.345
X154.093Y-134.295
X158.22Y-115.245
X158.855Y-96.195
X160.256Y-183.654
X162.982Y-134.295
X163.345Y-72.095
X163.617Y-153.345
X167.745Y-96.195
X168.38Y-115.245
X172.507Y-153.345
X173.142Y-134.295
X173.505Y-72.095
X177.27Y-115.245
X177.905Y-96.195
X182.032Y-134.295
X182.395Y-72.095
X182.667Y-153.345
X186.795Y-96.195
X187.43Y-115.245
X191.558Y-153.345
X192.192Y-134.295
X192.555Y-72.095
X194.919Y-183.654
X196.32Y-115.245
X196.955Y-96.195
X201.082Y-134.295
X201.445Y-72.095
X201.718Y-153.345
X204.732Y-181.024
X205.845Y-96.195
X206.48Y-115.245
X210.607Y-153.345
X211.242Y-134.295
X211.605Y-72.095
X215.37Y-115.245
X216.005Y-96.195
X220.132Y-134.295
X220.495Y-72.095
X220.767Y-153.345
X222.52Y-176.258
X224.895Y-96.195
X225.53Y-115.245
X229.657Y-153.345
X230.292Y-134.295
X230.655Y-72.095
X232.334Y-173.628
X234.42Y-115.245
X235.055Y-96.195
X239.182Y-134.295
X239.817Y-153.345
X243.945Y-96.195
X243.945Y-172.395
X244.58Y-115.245
X244.595Y-72.095
X248.707Y-153.345
X249.343Y-134.295
X253.47Y-115.245
X254.105Y-96.195
X254.105Y-172.395
X254.755Y-72.095
X258.233Y-134.295
X258.868Y-153.345
X262.995Y-96.195
X262.995Y-172.395
X263.63Y-115.245
X263.645Y-72.095
X267.757Y-153.345
X268.392Y-134.295
X272.52Y-115.245
X273.155Y-96.195
X273.155Y-172.395
X273.805Y-72.095
X277.282Y-134.295
X277.917Y-153.345
X282.045Y-96.195
X282.045Y-172.395
X282.68Y-115.245
X282.695Y-72.095
X287.442Y-134.295
X291.57Y-115.245
X292.205Y-96.195
X292.205Y-172.395
X292.855Y-72.095
X293.951Y-153.345
X301.73Y-115.245
X301.745Y-72.095
X304.111Y-153.345
X305.857Y-177.445
X308.239Y-134.295
X310.62Y-96.195
X311.905Y-72.095
X315.382Y-115.245
X316.017Y-177.445
X318.399Y-134.295
X320.78Y-96.195
X324.907Y-158.395
X324.907Y-177.445
X325.542Y-115.245
X335.067Y-158.395
X335.067Y-177.445
X343.957Y-177.445
X354.118Y-177.445
X359.62Y-96.195
X359.62Y-115.245
X359.62Y-134.295
X369.78Y-96.195
X369.78Y-115.245
X369.78Y-134.295
T14
X54.715Y-69.555
X54.715Y-93.655
X57.096Y-169.855
X59.477Y-112.705
X61.065Y-67.015
X61.065Y-91.115
X61.859Y-131.755
X63.446Y-167.315
X65.828Y-110.165
X66.621Y-150.805
X68.209Y-129.215
X72.971Y-148.265
X73.765Y-93.655
X78.528Y-169.855
X80.115Y-91.115
X83.29Y-112.705
X83.365Y-69.555
X84.877Y-167.315
X88.052Y-131.755
X89.64Y-110.165
X89.715Y-67.015
X92.815Y-93.655
X94.402Y-129.215
X97.578Y-150.805
X99.165Y-91.115
X99.959Y-169.855
X102.34Y-112.705
X102.415Y-69.555
X103.927Y-148.265
X106.309Y-167.315
X107.102Y-131.755
X108.69Y-110.165
X108.765Y-67.015
X111.865Y-93.655
X113.453Y-129.215
X116.627Y-150.805
X118.215Y-91.115
X121.39Y-112.705
X121.465Y-69.555
X122.977Y-148.265
X124.725Y-171.504
X126.152Y-131.755
X127.74Y-110.165
X127.815Y-67.015
X130.915Y-93.655
X131.516Y-170.694
X132.502Y-129.215
X135.677Y-150.805
X137.265Y-91.115
X140.44Y-112.705
X140.515Y-69.555
X142.028Y-148.265
X145.202Y-131.755
X146.79Y-110.165
X146.865Y-67.015
X149.965Y-93.655
X151.552Y-129.215
X152.327Y-178.899
X154.727Y-150.805
X156.315Y-91.115
X159.118Y-178.089
X159.49Y-112.705
X161.077Y-148.265
X164.252Y-131.755
X164.615Y-69.555
X165.84Y-110.165
X169.015Y-93.655
X170.602Y-129.215
X170.965Y-67.015
X173.778Y-150.805
X175.365Y-91.115
X178.54Y-112.705
X180.127Y-148.265
X183.302Y-131.755
X183.665Y-69.555
X184.89Y-110.165
X188.065Y-93.655
X189.653Y-129.215
X190.015Y-67.015
X192.827Y-150.805
X194.415Y-91.115
X195.488Y-180.872
X197.59Y-112.705
X199.177Y-148.265
X200.964Y-176.775
X202.352Y-131.755
X202.715Y-69.555
X203.94Y-110.165
X207.115Y-93.655
X208.702Y-129.215
X209.065Y-67.015
X211.877Y-150.805
X213.465Y-91.115
X216.64Y-112.705
X218.227Y-148.265
X221.403Y-131.755
X221.765Y-69.555
X222.99Y-110.165
X223.089Y-173.476
X226.165Y-93.655
X227.752Y-129.215
X228.115Y-67.015
X228.565Y-169.379
X230.927Y-150.805
X232.515Y-91.115
X235.69Y-112.705
X237.278Y-148.265
X240.452Y-131.755
X242.04Y-110.165
X245.215Y-93.655
X245.215Y-169.855
X245.865Y-69.555
X246.802Y-129.215
X249.977Y-150.805
X251.565Y-91.115
X251.565Y-167.315
X252.215Y-67.015
X254.74Y-112.705
X256.327Y-148.265
X259.502Y-131.755
X261.09Y-110.165
X264.265Y-93.655
X264.265Y-169.855
X264.915Y-69.555
X265.852Y-129.215
X269.027Y-150.805
X270.615Y-91.115
X270.615Y-167.315
X271.265Y-67.015
X273.79Y-112.705
X275.377Y-148.265
X278.553Y-131.755
X280.14Y-110.165
X283.315Y-93.655
X283.315Y-169.855
X283.965Y-69.555
X284.902Y-129.215
X289.665Y-91.115
X289.665Y-167.315
X290.315Y-67.015
X292.84Y-112.705
X295.221Y-150.805
X299.19Y-110.165
X301.571Y-148.265
X303.015Y-69.555
X307.127Y-174.905
X309.365Y-67.015
X309.509Y-131.755
X311.89Y-93.655
X313.477Y-172.365
X315.859Y-129.215
X316.652Y-112.705
X318.24Y-91.115
X323.002Y-110.165
X326.178Y-155.855
X326.178Y-174.905
X332.527Y-153.315
X332.527Y-172.365
X345.227Y-174.905
X351.577Y-172.365
X360.89Y-93.655
X360.89Y-112.705
X360.89Y-131.755
X367.24Y-91.115
X367.24Y-110.165
X367.24Y-129.215
T15
X58.531Y-146.345
X82.331Y-146.345
X142.042Y-186.025
X165.031Y-192.185
X190.144Y-192.185
X213.133Y-186.025
X301.419Y-127.295
X303.8Y-89.195
X325.219Y-127.295
X327.6Y-89.195
T16
X58.531Y-161.585
X82.331Y-161.585
X145.987Y-171.304
X168.976Y-177.464
X186.199Y-177.464
X209.188Y-171.304
X301.419Y-142.535
X303.8Y-104.435
X325.219Y-142.535
X327.6Y-104.435
T17
X58.525Y-72.095
X58.525Y-96.195
X60.906Y-172.395
X63.287Y-115.245
X65.669Y-134.295
X70.431Y-153.345
X77.575Y-96.195
X82.337Y-172.395
X87.1Y-115.245
X87.175Y-72.095
X91.862Y-134.295
X96.625Y-96.195
X101.387Y-153.345
X103.769Y-172.395
X106.15Y-115.245
X106.225Y-72.095
X110.912Y-134.295
X115.675Y-96.195
X120.438Y-153.345
X125.2Y-115.245
X125.275Y-72.095
X127.748Y-174.943
X129.963Y-134.295
X134.725Y-96.195
X139.487Y-153.345
X144.25Y-115.245
X144.325Y-72.095
X149.012Y-134.295
X153.775Y-96.195
X155.35Y-182.339
X158.537Y-153.345
X163.3Y-115.245
X168.062Y-134.295
X168.425Y-72.095
X172.825Y-96.195
X177.588Y-153.345
X182.35Y-115.245
X187.112Y-134.295
X187.475Y-72.095
X191.875Y-96.195
X196.637Y-153.345
X199.825Y-182.339
X201.4Y-115.245
X206.162Y-134.295
X206.525Y-72.095
X210.925Y-96.195
X215.688Y-153.345
X220.45Y-115.245
X225.212Y-134.295
X225.575Y-72.095
X227.427Y-174.943
X229.975Y-96.195
X234.737Y-153.345
X239.5Y-115.245
X244.262Y-134.295
X249.025Y-96.195
X249.025Y-172.395
X249.675Y-72.095
X253.787Y-153.345
X258.55Y-115.245
X263.312Y-134.295
X268.075Y-96.195
X268.075Y-172.395
X268.725Y-72.095
X272.837Y-153.345
X277.6Y-115.245
X282.363Y-134.295
X287.125Y-96.195
X287.125Y-172.395
X287.775Y-72.095
X296.65Y-115.245
X299.031Y-153.345
X306.825Y-72.095
X310.938Y-177.445
X313.319Y-134.295
X315.7Y-96.195
X320.462Y-115.245
X329.988Y-158.395
X329.988Y-177.445
X349.037Y-177.445
X364.7Y-96.195
X364.7Y-115.245
X364.7Y-134.295
T3
G00X173.295Y-55.94
M15
G01X173.295Y-56.74
M16
G05
G00X173.295Y-58.97
M15
G01X173.295Y-60.47
M16
G05
G00X181.945Y-55.94
M15
G01X181.945Y-56.74
M16
G05
G00X181.945Y-58.97
M15
G01X181.945Y-60.47
M16
G05
T10
G00X362.975Y-65.22
M15
G01X362.575Y-65.22
M16
G05
G00X363.025Y-76.92
M15
G01X362.525Y-76.92
M16
G05
T0
M30
