  0
SECTION
  2
HEADER
  9
$ACADVER
  1
AC1014
  9
$HANDSEED
  5
FFFF
  9
$MEASUREMENT
 70
     1
  0
ENDSEC
  0
SECTION
  2
TABLES
  0
TABLE
  2
VPORT
  5
8
330
0
100
AcDbSymbolTable
 70
     4
  0
VPORT
  5
2E
330
8
100
AcDbSymbolTableRecord
100
AcDbViewportTableRecord
  2
*ACTIVE
 70
     0
 10
0.0
 20
0.0
 11
1.0
 21
1.0
 12
210.0
 22
148.5
 13
0.0
 23
0.0
 14
10.0
 24
10.0
 15
10.0
 25
10.0
 16
0.0
 26
0.0
 36
1.0
 17
0.0
 27
0.0
 37
0.0
 40
341.0
 41
1.24
 42
50.0
 43
0.0
 44
0.0
 50
0.0
 51
0.0
 71
     0
 72
   100
 73
     1
 74
     3
 75
     0
 76
     0
 77
     0
 78
     0
  0
ENDTAB
  0
TABLE
  2
LTYPE
  5
5
330
0
100
AcDbSymbolTable
 70
     1
  0
LTYPE
  5
14
330
5
100
AcDbSymbolTableRecord
100
AcDbLinetypeTableRecord
  2
BYBLOCK
 70
     0
  3

 72
    65
 73
     0
 40
0.0
  0
LTYPE
  5
15
330
5
100
AcDbSymbolTableRecord
100
AcDbLinetypeTableRecord
  2
BYLAYER
 70
     0
  3

 72
    65
 73
     0
 40
0.0
  0
LTYPE
  5
16
330
5
100
AcDbSymbolTableRecord
100
AcDbLinetypeTableRecord
  2
CONTINUOUS
 70
     0
  3
Solid line
 72
    65
 73
     0
 40
0.0
  0
ENDTAB
  0
TABLE
  2
LAYER
  5
2
100
AcDbSymbolTable
 70
1
  0
LAYER
  5
50
100
AcDbSymbolTableRecord
100
AcDbLayerTableRecord
  2
0
 70
0
  6
CONTINUOUS
  0
ENDTAB
  0
TABLE
  2
STYLE
  5
3
330
0
100
AcDbSymbolTable
 70
     1
  0
STYLE
  5
11
330
3
100
AcDbSymbolTableRecord
100
AcDbTextStyleTableRecord
  2
STANDARD
 70
     0
 40
0.0
 41
1.0
 50
0.0
 71
     0
 42
2.5
  3
txt
  4

  0
ENDTAB
  0
TABLE
  2
VIEW
  5
6
330
0
100
AcDbSymbolTable
 70
     0
  0
ENDTAB
  0
TABLE
  2
UCS
  5
7
330
0
100
AcDbSymbolTable
 70
     0
  0
ENDTAB
  0
TABLE
  2
APPID
  5
9
330
0
100
AcDbSymbolTable
 70
     2
  0
APPID
  5
12
330
9
100
AcDbSymbolTableRecord
100
AcDbRegAppTableRecord
  2
ACAD
 70
     0
  0
ENDTAB
  0
TABLE
  2
DIMSTYLE
  5
A
330
0
100
AcDbSymbolTable
 70
     1
  0
DIMSTYLE
105
27
330
A
100
AcDbSymbolTableRecord
100
AcDbDimStyleTableRecord
  2
ISO-25
 70
     0
  3

  4

  5

  6

  7

 40
1.0
 41
2.5
 42
0.625
 43
3.75
 44
1.25
 45
0.0
 46
0.0
 47
0.0
 48
0.0
140
2.5
141
2.5
142
0.0
143
0.03937007874016
144
1.0
145
0.0
146
1.0
147
0.625
 71
     0
 72
     0
 73
     0
 74
     0
 75
     0
 76
     0
 77
     1
 78
     8
170
     0
171
     3
172
     1
173
     0
174
     0
175
     0
176
     0
177
     0
178
     0
270
     2
271
     2
272
     2
273
     2
274
     3
340
11
275
     0
280
     0
281
     0
282
     0
283
     0
284
     8
285
     0
286
     0
287
     3
288
     0
  0
ENDTAB
  0
TABLE
  2
BLOCK_RECORD
  5
1
330
0
100
AcDbSymbolTable
 70
     1
  0
BLOCK_RECORD
  5
1F
330
1
100
AcDbSymbolTableRecord
100
AcDbBlockTableRecord
  2
*MODEL_SPACE
  0
BLOCK_RECORD
  5
1B
330
1
100
AcDbSymbolTableRecord
100
AcDbBlockTableRecord
  2
*PAPER_SPACE
  0
ENDTAB
  0
ENDSEC
  0
SECTION
  2
BLOCKS
  0
BLOCK
  5
20
330
1F
100
AcDbEntity
  8
0
100
AcDbBlockBegin
  2
*MODEL_SPACE
 70
     0
 10
0.0
 20
0.0
 30
0.0
  3
*MODEL_SPACE
  1

  0
ENDBLK
  5
21
330
1F
100
AcDbEntity
  8
0
100
AcDbBlockEnd
  0
BLOCK
  5
1C
330
1B
100
AcDbEntity
 67
     1
  8
0
100
AcDbBlockBegin
  2
*PAPER_SPACE
  1

  0
ENDBLK
  5
1D
330
1B
100
AcDbEntity
 67
     1
  8
0
100
AcDbBlockEnd
  0
ENDSEC
  0
SECTION
  2
ENTITIES
  0
LINE
  5
100
100
AcDbEntity
  8
0
 62
7
100
AcDbLine
 10
383.989259
 20
-278.501265
 30
0.0
 11
383.989259
 21
-285.001269
 31
0.0
  0
SPLINE
  5
101
100
AcDbEntity
  8
0
 62
7
100
AcDbSpline
 70
8
 71
3
 72
8
 73
4
 74
0
 40
0
 40
0
 40
0
 40
0
 40
1
 40
1
 40
1
 40
1
 10
58.390039
 20
-79.830931
 30
0.0
 10
57.985577
 20
-79.830931
 30
0.0
 10
57.620940
 20
-80.074574
 30
0.0
 10
57.466159
 20
-80.448248
 30
0.0
  0
SPLINE
  5
102
100
AcDbEntity
  8
0
 62
7
100
AcDbSpline
 70
8
 71
3
 72
8
 73
4
 74
0
 40
0
 40
0
 40
0
 40
0
 40
1
 40
1
 40
1
 40
1
 10
57.466159
 20
-80.448248
 30
0.0
 10
57.311378
 20
-80.821923
 30
0.0
 10
57.396934
 20
-81.252041
 30
0.0
 10
57.682932
 20
-81.538039
 30
0.0
  0
SPLINE
  5
103
100
AcDbEntity
  8
0
 62
7
100
AcDbSpline
 70
8
 71
3
 72
8
 73
4
 74
0
 40
0
 40
0
 40
0
 40
0
 40
1
 40
1
 40
1
 40
1
 10
57.682932
 20
-81.538039
 30
0.0
 10
57.968930
 20
-81.824037
 30
0.0
 10
58.399048
 20
-81.909593
 30
0.0
 10
58.772723
 20
-81.754812
 30
0.0
  0
SPLINE
  5
104
100
AcDbEntity
  8
0
 62
7
100
AcDbSpline
 70
8
 71
3
 72
8
 73
4
 74
0
 40
0
 40
0
 40
0
 40
0
 40
1
 40
1
 40
1
 40
1
 10
58.772723
 20
-81.754812
 30
0.0
 10
59.146398
 20
-81.600031
 30
0.0
 10
59.390040
 20
-81.235394
 30
0.0
 10
59.390040
 20
-80.830932
 30
0.0
  0
SPLINE
  5
105
100
AcDbEntity
  8
0
 62
7
100
AcDbSpline
 70
8
 71
3
 72
8
 73
4
 74
0
 40
0
 40
0
 40
0
 40
0
 40
1
 40
1
 40
1
 40
1
 10
59.390040
 20
-80.830932
 30
0.0
 10
59.390040
 20
-80.565715
 30
0.0
 10
59.284683
 20
-80.311361
 30
0.0
 10
59.097147
 20
-80.123825
 30
0.0
  0
SPLINE
  5
106
100
AcDbEntity
  8
0
 62
7
100
AcDbSpline
 70
8
 71
3
 72
8
 73
4
 74
0
 40
0
 40
0
 40
0
 40
0
 40
1
 40
1
 40
1
 40
1
 10
59.097147
 20
-80.123825
 30
0.0
 10
58.909610
 20
-79.936288
 30
0.0
 10
58.655256
 20
-79.830931
 30
0.0
 10
58.390039
 20
-79.830931
 30
0.0
  0
LINE
  5
107
100
AcDbEntity
  8
0
 62
7
100
AcDbLine
 10
58.390039
 20
-79.830931
 30
0.0
 11
58.390039
 21
-79.830931
 31
0.0
  0
SPLINE
  5
108
100
AcDbEntity
  8
0
 62
7
100
AcDbSpline
 70
8
 71
3
 72
8
 73
4
 74
0
 40
0
 40
0
 40
0
 40
0
 40
1
 40
1
 40
1
 40
1
 10
58.390039
 20
-84.830935
 30
0.0
 10
57.985577
 20
-84.830935
 30
0.0
 10
57.620940
 20
-85.074577
 30
0.0
 10
57.466159
 20
-85.448252
 30
0.0
  0
SPLINE
  5
109
100
AcDbEntity
  8
0
 62
7
100
AcDbSpline
 70
8
 71
3
 72
8
 73
4
 74
0
 40
0
 40
0
 40
0
 40
0
 40
1
 40
1
 40
1
 40
1
 10
57.466159
 20
-85.448252
 30
0.0
 10
57.311378
 20
-85.821926
 30
0.0
 10
57.396934
 20
-86.252044
 30
0.0
 10
57.682932
 20
-86.538043
 30
0.0
  0
SPLINE
  5
10a
100
AcDbEntity
  8
0
 62
7
100
AcDbSpline
 70
8
 71
3
 72
8
 73
4
 74
0
 40
0
 40
0
 40
0
 40
0
 40
1
 40
1
 40
1
 40
1
 10
57.682932
 20
-86.538043
 30
0.0
 10
57.968930
 20
-86.824041
 30
0.0
 10
58.399048
 20
-86.909597
 30
0.0
 10
58.772723
 20
-86.754815
 30
0.0
  0
SPLINE
  5
10b
100
AcDbEntity
  8
0
 62
7
100
AcDbSpline
 70
8
 71
3
 72
8
 73
4
 74
0
 40
0
 40
0
 40
0
 40
0
 40
1
 40
1
 40
1
 40
1
 10
58.772723
 20
-86.754815
 30
0.0
 10
59.146398
 20
-86.600034
 30
0.0
 10
59.390040
 20
-86.235398
 30
0.0
 10
59.390040
 20
-85.830935
 30
0.0
  0
SPLINE
  5
10c
100
AcDbEntity
  8
0
 62
7
100
AcDbSpline
 70
8
 71
3
 72
8
 73
4
 74
0
 40
0
 40
0
 40
0
 40
0
 40
1
 40
1
 40
1
 40
1
 10
59.390040
 20
-85.830935
 30
0.0
 10
59.390040
 20
-85.565719
 30
0.0
 10
59.284683
 20
-85.311365
 30
0.0
 10
59.097147
 20
-85.123828
 30
0.0
  0
SPLINE
  5
10d
100
AcDbEntity
  8
0
 62
7
100
AcDbSpline
 70
8
 71
3
 72
8
 73
4
 74
0
 40
0
 40
0
 40
0
 40
0
 40
1
 40
1
 40
1
 40
1
 10
59.097147
 20
-85.123828
 30
0.0
 10
58.909610
 20
-84.936292
 30
0.0
 10
58.655256
 20
-84.830935
 30
0.0
 10
58.390039
 20
-84.830935
 30
0.0
  0
LINE
  5
10e
100
AcDbEntity
  8
0
 62
7
100
AcDbLine
 10
58.390039
 20
-84.830935
 30
0.0
 11
58.390039
 21
-84.830935
 31
0.0
  0
SPLINE
  5
10f
100
AcDbEntity
  8
0
 62
7
100
AcDbSpline
 70
8
 71
3
 72
8
 73
4
 74
0
 40
0
 40
0
 40
0
 40
0
 40
1
 40
1
 40
1
 40
1
 10
58.390039
 20
-82.330933
 30
0.0
 10
57.985577
 20
-82.330933
 30
0.0
 10
57.620940
 20
-82.574575
 30
0.0
 10
57.466159
 20
-82.948250
 30
0.0
  0
SPLINE
  5
110
100
AcDbEntity
  8
0
 62
7
100
AcDbSpline
 70
8
 71
3
 72
8
 73
4
 74
0
 40
0
 40
0
 40
0
 40
0
 40
1
 40
1
 40
1
 40
1
 10
57.466159
 20
-82.948250
 30
0.0
 10
57.311378
 20
-83.321925
 30
0.0
 10
57.396934
 20
-83.752043
 30
0.0
 10
57.682932
 20
-84.038041
 30
0.0
  0
SPLINE
  5
111
100
AcDbEntity
  8
0
 62
7
100
AcDbSpline
 70
8
 71
3
 72
8
 73
4
 74
0
 40
0
 40
0
 40
0
 40
0
 40
1
 40
1
 40
1
 40
1
 10
57.682932
 20
-84.038041
 30
0.0
 10
57.968930
 20
-84.324039
 30
0.0
 10
58.399048
 20
-84.409595
 30
0.0
 10
58.772723
 20
-84.254814
 30
0.0
  0
SPLINE
  5
112
100
AcDbEntity
  8
0
 62
7
100
AcDbSpline
 70
8
 71
3
 72
8
 73
4
 74
0
 40
0
 40
0
 40
0
 40
0
 40
1
 40
1
 40
1
 40
1
 10
58.772723
 20
-84.254814
 30
0.0
 10
59.146398
 20
-84.100033
 30
0.0
 10
59.390040
 20
-83.735396
 30
0.0
 10
59.390040
 20
-83.330934
 30
0.0
  0
SPLINE
  5
113
100
AcDbEntity
  8
0
 62
7
100
AcDbSpline
 70
8
 71
3
 72
8
 73
4
 74
0
 40
0
 40
0
 40
0
 40
0
 40
1
 40
1
 40
1
 40
1
 10
59.390040
 20
-83.330934
 30
0.0
 10
59.390040
 20
-83.065717
 30
0.0
 10
59.284683
 20
-82.811363
 30
0.0
 10
59.097147
 20
-82.623826
 30
0.0
  0
SPLINE
  5
114
100
AcDbEntity
  8
0
 62
7
100
AcDbSpline
 70
8
 71
3
 72
8
 73
4
 74
0
 40
0
 40
0
 40
0
 40
0
 40
1
 40
1
 40
1
 40
1
 10
59.097147
 20
-82.623826
 30
0.0
 10
58.909610
 20
-82.436290
 30
0.0
 10
58.655256
 20
-82.330933
 30
0.0
 10
58.390039
 20
-82.330933
 30
0.0
  0
LINE
  5
115
100
AcDbEntity
  8
0
 62
7
100
AcDbLine
 10
58.390039
 20
-82.330933
 30
0.0
 11
58.390039
 21
-82.330933
 31
0.0
  0
LINE
  5
116
100
AcDbEntity
  8
0
 62
7
100
AcDbLine
 10
64.290043
 20
-78.730930
 30
0.0
 11
64.290043
 21
-76.730929
 31
0.0
  0
LINE
  5
117
100
AcDbEntity
  8
0
 62
7
100
AcDbLine
 10
64.290043
 20
-76.730929
 30
0.0
 11
67.490045
 21
-76.730929
 31
0.0
  0
LINE
  5
118
100
AcDbEntity
  8
0
 62
7
100
AcDbLine
 10
67.490045
 20
-76.730929
 30
0.0
 11
67.490045
 21
-78.730930
 31
0.0
  0
LINE
  5
119
100
AcDbEntity
  8
0
 62
7
100
AcDbLine
 10
67.490045
 20
-78.730930
 30
0.0
 11
64.290043
 21
-78.730930
 31
0.0
  0
LINE
  5
11a
100
AcDbEntity
  8
0
 62
7
100
AcDbLine
 10
64.290043
 20
-89.930938
 30
0.0
 11
64.290043
 21
-87.930937
 31
0.0
  0
LINE
  5
11b
100
AcDbEntity
  8
0
 62
7
100
AcDbLine
 10
64.290043
 20
-87.930937
 30
0.0
 11
67.490045
 21
-87.930937
 31
0.0
  0
LINE
  5
11c
100
AcDbEntity
  8
0
 62
7
100
AcDbLine
 10
67.490045
 20
-87.930937
 30
0.0
 11
67.490045
 21
-89.930938
 31
0.0
  0
LINE
  5
11d
100
AcDbEntity
  8
0
 62
7
100
AcDbLine
 10
67.490045
 20
-89.930938
 30
0.0
 11
64.290043
 21
-89.930938
 31
0.0
  0
SPLINE
  5
11e
100
AcDbEntity
  8
0
 62
7
100
AcDbSpline
 70
8
 71
3
 72
8
 73
4
 74
0
 40
0
 40
0
 40
0
 40
0
 40
1
 40
1
 40
1
 40
1
 10
72.890049
 20
-84.830935
 30
0.0
 10
72.485587
 20
-84.830935
 30
0.0
 10
72.120950
 20
-85.074577
 30
0.0
 10
71.966169
 20
-85.448252
 30
0.0
  0
SPLINE
  5
11f
100
AcDbEntity
  8
0
 62
7
100
AcDbSpline
 70
8
 71
3
 72
8
 73
4
 74
0
 40
0
 40
0
 40
0
 40
0
 40
1
 40
1
 40
1
 40
1
 10
71.966169
 20
-85.448252
 30
0.0
 10
71.811388
 20
-85.821926
 30
0.0
 10
71.896944
 20
-86.252044
 30
0.0
 10
72.182942
 20
-86.538043
 30
0.0
  0
SPLINE
  5
120
100
AcDbEntity
  8
0
 62
7
100
AcDbSpline
 70
8
 71
3
 72
8
 73
4
 74
0
 40
0
 40
0
 40
0
 40
0
 40
1
 40
1
 40
1
 40
1
 10
72.182942
 20
-86.538043
 30
0.0
 10
72.468940
 20
-86.824041
 30
0.0
 10
72.899058
 20
-86.909597
 30
0.0
 10
73.272733
 20
-86.754815
 30
0.0
  0
SPLINE
  5
121
100
AcDbEntity
  8
0
 62
7
100
AcDbSpline
 70
8
 71
3
 72
8
 73
4
 74
0
 40
0
 40
0
 40
0
 40
0
 40
1
 40
1
 40
1
 40
1
 10
73.272733
 20
-86.754815
 30
0.0
 10
73.646407
 20
-86.600034
 30
0.0
 10
73.890050
 20
-86.235398
 30
0.0
 10
73.890050
 20
-85.830935
 30
0.0
  0
SPLINE
  5
122
100
AcDbEntity
  8
0
 62
7
100
AcDbSpline
 70
8
 71
3
 72
8
 73
4
 74
0
 40
0
 40
0
 40
0
 40
0
 40
1
 40
1
 40
1
 40
1
 10
73.890050
 20
-85.830935
 30
0.0
 10
73.890050
 20
-85.565719
 30
0.0
 10
73.784693
 20
-85.311365
 30
0.0
 10
73.597156
 20
-85.123828
 30
0.0
  0
SPLINE
  5
123
100
AcDbEntity
  8
0
 62
7
100
AcDbSpline
 70
8
 71
3
 72
8
 73
4
 74
0
 40
0
 40
0
 40
0
 40
0
 40
1
 40
1
 40
1
 40
1
 10
73.597156
 20
-85.123828
 30
0.0
 10
73.409620
 20
-84.936292
 30
0.0
 10
73.155266
 20
-84.830935
 30
0.0
 10
72.890049
 20
-84.830935
 30
0.0
  0
LINE
  5
124
100
AcDbEntity
  8
0
 62
7
100
AcDbLine
 10
72.890049
 20
-84.830935
 30
0.0
 11
72.890049
 21
-84.830935
 31
0.0
  0
SPLINE
  5
125
100
AcDbEntity
  8
0
 62
7
100
AcDbSpline
 70
8
 71
3
 72
8
 73
4
 74
0
 40
0
 40
0
 40
0
 40
0
 40
1
 40
1
 40
1
 40
1
 10
72.890049
 20
-79.830931
 30
0.0
 10
72.485587
 20
-79.830931
 30
0.0
 10
72.120950
 20
-80.074574
 30
0.0
 10
71.966169
 20
-80.448248
 30
0.0
  0
SPLINE
  5
126
100
AcDbEntity
  8
0
 62
7
100
AcDbSpline
 70
8
 71
3
 72
8
 73
4
 74
0
 40
0
 40
0
 40
0
 40
0
 40
1
 40
1
 40
1
 40
1
 10
71.966169
 20
-80.448248
 30
0.0
 10
71.811388
 20
-80.821923
 30
0.0
 10
71.896944
 20
-81.252041
 30
0.0
 10
72.182942
 20
-81.538039
 30
0.0
  0
SPLINE
  5
127
100
AcDbEntity
  8
0
 62
7
100
AcDbSpline
 70
8
 71
3
 72
8
 73
4
 74
0
 40
0
 40
0
 40
0
 40
0
 40
1
 40
1
 40
1
 40
1
 10
72.182942
 20
-81.538039
 30
0.0
 10
72.468940
 20
-81.824037
 30
0.0
 10
72.899058
 20
-81.909593
 30
0.0
 10
73.272733
 20
-81.754812
 30
0.0
  0
SPLINE
  5
128
100
AcDbEntity
  8
0
 62
7
100
AcDbSpline
 70
8
 71
3
 72
8
 73
4
 74
0
 40
0
 40
0
 40
0
 40
0
 40
1
 40
1
 40
1
 40
1
 10
73.272733
 20
-81.754812
 30
0.0
 10
73.646407
 20
-81.600031
 30
0.0
 10
73.890050
 20
-81.235394
 30
0.0
 10
73.890050
 20
-80.830932
 30
0.0
  0
SPLINE
  5
129
100
AcDbEntity
  8
0
 62
7
100
AcDbSpline
 70
8
 71
3
 72
8
 73
4
 74
0
 40
0
 40
0
 40
0
 40
0
 40
1
 40
1
 40
1
 40
1
 10
73.890050
 20
-80.830932
 30
0.0
 10
73.890050
 20
-80.565715
 30
0.0
 10
73.784693
 20
-80.311361
 30
0.0
 10
73.597156
 20
-80.123825
 30
0.0
  0
SPLINE
  5
12a
100
AcDbEntity
  8
0
 62
7
100
AcDbSpline
 70
8
 71
3
 72
8
 73
4
 74
0
 40
0
 40
0
 40
0
 40
0
 40
1
 40
1
 40
1
 40
1
 10
73.597156
 20
-80.123825
 30
0.0
 10
73.409620
 20
-79.936288
 30
0.0
 10
73.155266
 20
-79.830931
 30
0.0
 10
72.890049
 20
-79.830931
 30
0.0
  0
LINE
  5
12b
100
AcDbEntity
  8
0
 62
7
100
AcDbLine
 10
72.890049
 20
-79.830931
 30
0.0
 11
72.890049
 21
-79.830931
 31
0.0
  0
LINE
  5
12c
100
AcDbEntity
  8
0
 62
7
100
AcDbLine
 10
61.665042
 20
-92.260940
 30
0.0
 11
59.965040
 21
-92.260940
 31
0.0
  0
LINE
  5
12d
100
AcDbEntity
  8
0
 62
7
100
AcDbLine
 10
59.965040
 20
-92.260940
 30
0.0
 11
59.965040
 21
-90.560938
 31
0.0
  0
LINE
  5
12e
100
AcDbEntity
  8
0
 62
7
100
AcDbLine
 10
59.965040
 20
-90.560938
 30
0.0
 11
61.665042
 21
-90.560938
 31
0.0
  0
LINE
  5
12f
100
AcDbEntity
  8
0
 62
7
100
AcDbLine
 10
61.665042
 20
-90.560938
 30
0.0
 11
61.665042
 21
-92.260940
 31
0.0
  0
SPLINE
  5
130
100
AcDbEntity
  8
0
 62
7
100
AcDbSpline
 70
8
 71
3
 72
8
 73
4
 74
0
 40
0
 40
0
 40
0
 40
0
 40
1
 40
1
 40
1
 40
1
 10
63.355043
 20
-90.560938
 30
0.0
 10
63.011250
 20
-90.560938
 30
0.0
 10
62.701308
 20
-90.768034
 30
0.0
 10
62.569745
 20
-91.085658
 30
0.0
  0
SPLINE
  5
131
100
AcDbEntity
  8
0
 62
7
100
AcDbSpline
 70
8
 71
3
 72
8
 73
4
 74
0
 40
0
 40
0
 40
0
 40
0
 40
1
 40
1
 40
1
 40
1
 10
62.569745
 20
-91.085658
 30
0.0
 10
62.438181
 20
-91.403281
 30
0.0
 10
62.510903
 20
-91.768882
 30
0.0
 10
62.754001
 20
-92.011980
 30
0.0
  0
SPLINE
  5
132
100
AcDbEntity
  8
0
 62
7
100
AcDbSpline
 70
8
 71
3
 72
8
 73
4
 74
0
 40
0
 40
0
 40
0
 40
0
 40
1
 40
1
 40
1
 40
1
 10
62.754001
 20
-92.011980
 30
0.0
 10
62.997100
 20
-92.255079
 30
0.0
 10
63.362700
 20
-92.327801
 30
0.0
 10
63.680324
 20
-92.196237
 30
0.0
  0
SPLINE
  5
133
100
AcDbEntity
  8
0
 62
7
100
AcDbSpline
 70
8
 71
3
 72
8
 73
4
 74
0
 40
0
 40
0
 40
0
 40
0
 40
1
 40
1
 40
1
 40
1
 10
63.680324
 20
-92.196237
 30
0.0
 10
63.997947
 20
-92.064673
 30
0.0
 10
64.205043
 20
-91.754732
 30
0.0
 10
64.205043
 20
-91.410939
 30
0.0
  0
SPLINE
  5
134
100
AcDbEntity
  8
0
 62
7
100
AcDbSpline
 70
8
 71
3
 72
8
 73
4
 74
0
 40
0
 40
0
 40
0
 40
0
 40
1
 40
1
 40
1
 40
1
 10
64.205043
 20
-91.410939
 30
0.0
 10
64.205043
 20
-91.185505
 30
0.0
 10
64.115490
 20
-90.969304
 30
0.0
 10
63.956084
 20
-90.809898
 30
0.0
  0
SPLINE
  5
135
100
AcDbEntity
  8
0
 62
7
100
AcDbSpline
 70
8
 71
3
 72
8
 73
4
 74
0
 40
0
 40
0
 40
0
 40
0
 40
1
 40
1
 40
1
 40
1
 10
63.956084
 20
-90.809898
 30
0.0
 10
63.796678
 20
-90.650492
 30
0.0
 10
63.580477
 20
-90.560938
 30
0.0
 10
63.355043
 20
-90.560938
 30
0.0
  0
LINE
  5
136
100
AcDbEntity
  8
0
 62
7
100
AcDbLine
 10
63.355043
 20
-90.560938
 30
0.0
 11
63.355043
 21
-90.560938
 31
0.0
  0
SPLINE
  5
137
100
AcDbEntity
  8
0
 62
7
100
AcDbSpline
 70
8
 71
3
 72
8
 73
4
 74
0
 40
0
 40
0
 40
0
 40
0
 40
1
 40
1
 40
1
 40
1
 10
65.895044
 20
-90.560938
 30
0.0
 10
65.551251
 20
-90.560938
 30
0.0
 10
65.241310
 20
-90.768034
 30
0.0
 10
65.109746
 20
-91.085658
 30
0.0
  0
SPLINE
  5
138
100
AcDbEntity
  8
0
 62
7
100
AcDbSpline
 70
8
 71
3
 72
8
 73
4
 74
0
 40
0
 40
0
 40
0
 40
0
 40
1
 40
1
 40
1
 40
1
 10
65.109746
 20
-91.085658
 30
0.0
 10
64.978182
 20
-91.403281
 30
0.0
 10
65.050905
 20
-91.768882
 30
0.0
 10
65.294003
 20
-92.011980
 30
0.0
  0
SPLINE
  5
139
100
AcDbEntity
  8
0
 62
7
100
AcDbSpline
 70
8
 71
3
 72
8
 73
4
 74
0
 40
0
 40
0
 40
0
 40
0
 40
1
 40
1
 40
1
 40
1
 10
65.294003
 20
-92.011980
 30
0.0
 10
65.537102
 20
-92.255079
 30
0.0
 10
65.902702
 20
-92.327801
 30
0.0
 10
66.220326
 20
-92.196237
 30
0.0
  0
SPLINE
  5
13a
100
AcDbEntity
  8
0
 62
7
100
AcDbSpline
 70
8
 71
3
 72
8
 73
4
 74
0
 40
0
 40
0
 40
0
 40
0
 40
1
 40
1
 40
1
 40
1
 10
66.220326
 20
-92.196237
 30
0.0
 10
66.537949
 20
-92.064673
 30
0.0
 10
66.745045
 20
-91.754732
 30
0.0
 10
66.745045
 20
-91.410939
 30
0.0
  0
SPLINE
  5
13b
100
AcDbEntity
  8
0
 62
7
100
AcDbSpline
 70
8
 71
3
 72
8
 73
4
 74
0
 40
0
 40
0
 40
0
 40
0
 40
1
 40
1
 40
1
 40
1
 10
66.745045
 20
-91.410939
 30
0.0
 10
66.745045
 20
-90.941497
 30
0.0
 10
66.364487
 20
-90.560938
 30
0.0
 10
65.895044
 20
-90.560938
 30
0.0
  0
LINE
  5
13c
100
AcDbEntity
  8
0
 62
7
100
AcDbLine
 10
65.895044
 20
-90.560938
 30
0.0
 11
65.895044
 21
-90.560938
 31
0.0
  0
SPLINE
  5
13d
100
AcDbEntity
  8
0
 62
7
100
AcDbSpline
 70
8
 71
3
 72
8
 73
4
 74
0
 40
0
 40
0
 40
0
 40
0
 40
1
 40
1
 40
1
 40
1
 10
68.435046
 20
-90.560938
 30
0.0
 10
68.091253
 20
-90.560938
 30
0.0
 10
67.781312
 20
-90.768034
 30
0.0
 10
67.649748
 20
-91.085658
 30
0.0
  0
SPLINE
  5
13e
100
AcDbEntity
  8
0
 62
7
100
AcDbSpline
 70
8
 71
3
 72
8
 73
4
 74
0
 40
0
 40
0
 40
0
 40
0
 40
1
 40
1
 40
1
 40
1
 10
67.649748
 20
-91.085658
 30
0.0
 10
67.518184
 20
-91.403281
 30
0.0
 10
67.590906
 20
-91.768882
 30
0.0
 10
67.834005
 20
-92.011980
 30
0.0
  0
SPLINE
  5
13f
100
AcDbEntity
  8
0
 62
7
100
AcDbSpline
 70
8
 71
3
 72
8
 73
4
 74
0
 40
0
 40
0
 40
0
 40
0
 40
1
 40
1
 40
1
 40
1
 10
67.834005
 20
-92.011980
 30
0.0
 10
68.077103
 20
-92.255079
 30
0.0
 10
68.442704
 20
-92.327801
 30
0.0
 10
68.760327
 20
-92.196237
 30
0.0
  0
SPLINE
  5
140
100
AcDbEntity
  8
0
 62
7
100
AcDbSpline
 70
8
 71
3
 72
8
 73
4
 74
0
 40
0
 40
0
 40
0
 40
0
 40
1
 40
1
 40
1
 40
1
 10
68.760327
 20
-92.196237
 30
0.0
 10
69.077951
 20
-92.064673
 30
0.0
 10
69.285047
 20
-91.754732
 30
0.0
 10
69.285047
 20
-91.410939
 30
0.0
  0
SPLINE
  5
141
100
AcDbEntity
  8
0
 62
7
100
AcDbSpline
 70
8
 71
3
 72
8
 73
4
 74
0
 40
0
 40
0
 40
0
 40
0
 40
1
 40
1
 40
1
 40
1
 10
69.285047
 20
-91.410939
 30
0.0
 10
69.285047
 20
-91.185505
 30
0.0
 10
69.195493
 20
-90.969304
 30
0.0
 10
69.036087
 20
-90.809898
 30
0.0
  0
SPLINE
  5
142
100
AcDbEntity
  8
0
 62
7
100
AcDbSpline
 70
8
 71
3
 72
8
 73
4
 74
0
 40
0
 40
0
 40
0
 40
0
 40
1
 40
1
 40
1
 40
1
 10
69.036087
 20
-90.809898
 30
0.0
 10
68.876681
 20
-90.650492
 30
0.0
 10
68.660480
 20
-90.560938
 30
0.0
 10
68.435046
 20
-90.560938
 30
0.0
  0
LINE
  5
143
100
AcDbEntity
  8
0
 62
7
100
AcDbLine
 10
68.435046
 20
-90.560938
 30
0.0
 11
68.435046
 21
-90.560938
 31
0.0
  0
SPLINE
  5
144
100
AcDbEntity
  8
0
 62
7
100
AcDbSpline
 70
8
 71
3
 72
8
 73
4
 74
0
 40
0
 40
0
 40
0
 40
0
 40
1
 40
1
 40
1
 40
1
 10
70.975048
 20
-90.560938
 30
0.0
 10
70.631255
 20
-90.560938
 30
0.0
 10
70.321314
 20
-90.768034
 30
0.0
 10
70.189750
 20
-91.085658
 30
0.0
  0
SPLINE
  5
145
100
AcDbEntity
  8
0
 62
7
100
AcDbSpline
 70
8
 71
3
 72
8
 73
4
 74
0
 40
0
 40
0
 40
0
 40
0
 40
1
 40
1
 40
1
 40
1
 10
70.189750
 20
-91.085658
 30
0.0
 10
70.058186
 20
-91.403281
 30
0.0
 10
70.130908
 20
-91.768882
 30
0.0
 10
70.374007
 20
-92.011980
 30
0.0
  0
SPLINE
  5
146
100
AcDbEntity
  8
0
 62
7
100
AcDbSpline
 70
8
 71
3
 72
8
 73
4
 74
0
 40
0
 40
0
 40
0
 40
0
 40
1
 40
1
 40
1
 40
1
 10
70.374007
 20
-92.011980
 30
0.0
 10
70.617105
 20
-92.255079
 30
0.0
 10
70.982705
 20
-92.327801
 30
0.0
 10
71.300329
 20
-92.196237
 30
0.0
  0
SPLINE
  5
147
100
AcDbEntity
  8
0
 62
7
100
AcDbSpline
 70
8
 71
3
 72
8
 73
4
 74
0
 40
0
 40
0
 40
0
 40
0
 40
1
 40
1
 40
1
 40
1
 10
71.300329
 20
-92.196237
 30
0.0
 10
71.617952
 20
-92.064673
 30
0.0
 10
71.825048
 20
-91.754732
 30
0.0
 10
71.825048
 20
-91.410939
 30
0.0
  0
SPLINE
  5
148
100
AcDbEntity
  8
0
 62
7
100
AcDbSpline
 70
8
 71
3
 72
8
 73
4
 74
0
 40
0
 40
0
 40
0
 40
0
 40
1
 40
1
 40
1
 40
1
 10
71.825048
 20
-91.410939
 30
0.0
 10
71.825048
 20
-90.941497
 30
0.0
 10
71.444490
 20
-90.560938
 30
0.0
 10
70.975048
 20
-90.560938
 30
0.0
  0
LINE
  5
149
100
AcDbEntity
  8
0
 62
7
100
AcDbLine
 10
70.975048
 20
-90.560938
 30
0.0
 11
70.975048
 21
-90.560938
 31
0.0
  0
LINE
  5
14a
100
AcDbEntity
  8
0
 62
7
100
AcDbLine
 10
60.000040
 20
-89.160938
 30
0.0
 11
60.000040
 21
-85.600935
 31
0.0
  0
LINE
  5
14b
100
AcDbEntity
  8
0
 62
7
100
AcDbLine
 10
60.815041
 20
-91.410939
 30
0.0
 11
60.815041
 21
-89.975938
 31
0.0
  0
LINE
  5
14c
100
AcDbEntity
  8
0
 62
7
100
AcDbLine
 10
60.440041
 20
-89.600938
 30
0.0
 11
60.000040
 21
-89.160938
 31
0.0
  0
LINE
  5
14d
100
AcDbEntity
  8
0
 62
7
100
AcDbLine
 10
60.000040
 20
-85.600935
 30
0.0
 11
60.000040
 21
-84.940935
 31
0.0
  0
LINE
  5
14e
100
AcDbEntity
  8
0
 62
7
100
AcDbLine
 10
60.815041
 20
-89.975938
 30
0.0
 11
60.440041
 21
-89.600938
 31
0.0
  0
LINE
  5
14f
100
AcDbEntity
  8
0
 62
7
100
AcDbLine
 10
60.000040
 20
-84.940935
 30
0.0
 11
58.390039
 21
-83.330934
 31
0.0
  0
LINE
  5
150
100
AcDbEntity
  8
0
 62
7
100
AcDbLine
 10
60.449561
 20
-86.500936
 30
0.0
 11
60.449561
 21
-82.890453
 31
0.0
  0
LINE
  5
151
100
AcDbEntity
  8
0
 62
7
100
AcDbLine
 10
63.355043
 20
-91.410939
 30
0.0
 11
60.449561
 21
-88.505457
 31
0.0
  0
LINE
  5
152
100
AcDbEntity
  8
0
 62
7
100
AcDbLine
 10
60.449561
 20
-88.505457
 30
0.0
 11
60.449561
 21
-86.500936
 31
0.0
  0
LINE
  5
153
100
AcDbEntity
  8
0
 62
7
100
AcDbLine
 10
60.449561
 20
-82.890453
 30
0.0
 11
58.390039
 21
-80.830932
 31
0.0
  0
LINE
  5
154
100
AcDbEntity
  8
0
 62
7
100
AcDbLine
 10
70.975048
 20
-82.745933
 30
0.0
 11
72.890049
 21
-80.830932
 31
0.0
  0
LINE
  5
155
100
AcDbEntity
  8
0
 62
7
100
AcDbLine
 10
70.975048
 20
-91.410939
 30
0.0
 11
70.975048
 21
-82.745933
 31
0.0
  0
SPLINE
  5
156
100
AcDbEntity
  8
0
 62
7
100
AcDbSpline
 70
8
 71
3
 72
8
 73
4
 74
0
 40
0
 40
0
 40
0
 40
0
 40
1
 40
1
 40
1
 40
1
 10
58.390039
 20
-80.330932
 30
0.0
 10
58.187808
 20
-80.330932
 30
0.0
 10
58.005490
 20
-80.452753
 30
0.0
 10
57.928099
 20
-80.639590
 30
0.0
  0
SPLINE
  5
157
100
AcDbEntity
  8
0
 62
7
100
AcDbSpline
 70
8
 71
3
 72
8
 73
4
 74
0
 40
0
 40
0
 40
0
 40
0
 40
1
 40
1
 40
1
 40
1
 10
57.928099
 20
-80.639590
 30
0.0
 10
57.850709
 20
-80.826427
 30
0.0
 10
57.893487
 20
-81.041486
 30
0.0
 10
58.036486
 20
-81.184486
 30
0.0
  0
SPLINE
  5
158
100
AcDbEntity
  8
0
 62
7
100
AcDbSpline
 70
8
 71
3
 72
8
 73
4
 74
0
 40
0
 40
0
 40
0
 40
0
 40
1
 40
1
 40
1
 40
1
 10
58.036486
 20
-81.184486
 30
0.0
 10
58.179485
 20
-81.327485
 30
0.0
 10
58.394544
 20
-81.370263
 30
0.0
 10
58.581381
 20
-81.292872
 30
0.0
  0
SPLINE
  5
159
100
AcDbEntity
  8
0
 62
7
100
AcDbSpline
 70
8
 71
3
 72
8
 73
4
 74
0
 40
0
 40
0
 40
0
 40
0
 40
1
 40
1
 40
1
 40
1
 10
58.581381
 20
-81.292872
 30
0.0
 10
58.768218
 20
-81.215481
 30
0.0
 10
58.890040
 20
-81.033163
 30
0.0
 10
58.890040
 20
-80.830932
 30
0.0
  0
SPLINE
  5
15a
100
AcDbEntity
  8
0
 62
7
100
AcDbSpline
 70
8
 71
3
 72
8
 73
4
 74
0
 40
0
 40
0
 40
0
 40
0
 40
1
 40
1
 40
1
 40
1
 10
58.890040
 20
-80.830932
 30
0.0
 10
58.890040
 20
-80.698324
 30
0.0
 10
58.837361
 20
-80.571147
 30
0.0
 10
58.743593
 20
-80.477378
 30
0.0
  0
SPLINE
  5
15b
100
AcDbEntity
  8
0
 62
7
100
AcDbSpline
 70
8
 71
3
 72
8
 73
4
 74
0
 40
0
 40
0
 40
0
 40
0
 40
1
 40
1
 40
1
 40
1
 10
58.743593
 20
-80.477378
 30
0.0
 10
58.649825
 20
-80.383610
 30
0.0
 10
58.522648
 20
-80.330932
 30
0.0
 10
58.390039
 20
-80.330932
 30
0.0
  0
LINE
  5
15c
100
AcDbEntity
  8
0
 62
7
100
AcDbLine
 10
58.390039
 20
-80.330932
 30
0.0
 11
58.390039
 21
-80.330932
 31
0.0
  0
SPLINE
  5
15d
100
AcDbEntity
  8
0
 62
7
100
AcDbSpline
 70
8
 71
3
 72
8
 73
4
 74
0
 40
0
 40
0
 40
0
 40
0
 40
1
 40
1
 40
1
 40
1
 10
58.390039
 20
-85.330935
 30
0.0
 10
58.187808
 20
-85.330935
 30
0.0
 10
58.005490
 20
-85.452756
 30
0.0
 10
57.928099
 20
-85.639593
 30
0.0
  0
SPLINE
  5
15e
100
AcDbEntity
  8
0
 62
7
100
AcDbSpline
 70
8
 71
3
 72
8
 73
4
 74
0
 40
0
 40
0
 40
0
 40
0
 40
1
 40
1
 40
1
 40
1
 10
57.928099
 20
-85.639593
 30
0.0
 10
57.850709
 20
-85.826431
 30
0.0
 10
57.893487
 20
-86.041490
 30
0.0
 10
58.036486
 20
-86.184489
 30
0.0
  0
SPLINE
  5
15f
100
AcDbEntity
  8
0
 62
7
100
AcDbSpline
 70
8
 71
3
 72
8
 73
4
 74
0
 40
0
 40
0
 40
0
 40
0
 40
1
 40
1
 40
1
 40
1
 10
58.036486
 20
-86.184489
 30
0.0
 10
58.179485
 20
-86.327488
 30
0.0
 10
58.394544
 20
-86.370266
 30
0.0
 10
58.581381
 20
-86.292875
 30
0.0
  0
SPLINE
  5
160
100
AcDbEntity
  8
0
 62
7
100
AcDbSpline
 70
8
 71
3
 72
8
 73
4
 74
0
 40
0
 40
0
 40
0
 40
0
 40
1
 40
1
 40
1
 40
1
 10
58.581381
 20
-86.292875
 30
0.0
 10
58.768218
 20
-86.215485
 30
0.0
 10
58.890040
 20
-86.033167
 30
0.0
 10
58.890040
 20
-85.830935
 30
0.0
  0
SPLINE
  5
161
100
AcDbEntity
  8
0
 62
7
100
AcDbSpline
 70
8
 71
3
 72
8
 73
4
 74
0
 40
0
 40
0
 40
0
 40
0
 40
1
 40
1
 40
1
 40
1
 10
58.890040
 20
-85.830935
 30
0.0
 10
58.890040
 20
-85.698327
 30
0.0
 10
58.837361
 20
-85.571150
 30
0.0
 10
58.743593
 20
-85.477382
 30
0.0
  0
SPLINE
  5
162
100
AcDbEntity
  8
0
 62
7
100
AcDbSpline
 70
8
 71
3
 72
8
 73
4
 74
0
 40
0
 40
0
 40
0
 40
0
 40
1
 40
1
 40
1
 40
1
 10
58.743593
 20
-85.477382
 30
0.0
 10
58.649825
 20
-85.383613
 30
0.0
 10
58.522648
 20
-85.330935
 30
0.0
 10
58.390039
 20
-85.330935
 30
0.0
  0
LINE
  5
163
100
AcDbEntity
  8
0
 62
7
100
AcDbLine
 10
58.390039
 20
-85.330935
 30
0.0
 11
58.390039
 21
-85.330935
 31
0.0
  0
SPLINE
  5
164
100
AcDbEntity
  8
0
 62
7
100
AcDbSpline
 70
8
 71
3
 72
8
 73
4
 74
0
 40
0
 40
0
 40
0
 40
0
 40
1
 40
1
 40
1
 40
1
 10
58.390039
 20
-82.830933
 30
0.0
 10
58.187808
 20
-82.830933
 30
0.0
 10
58.005490
 20
-82.952754
 30
0.0
 10
57.928099
 20
-83.139592
 30
0.0
  0
SPLINE
  5
165
100
AcDbEntity
  8
0
 62
7
100
AcDbSpline
 70
8
 71
3
 72
8
 73
4
 74
0
 40
0
 40
0
 40
0
 40
0
 40
1
 40
1
 40
1
 40
1
 10
57.928099
 20
-83.139592
 30
0.0
 10
57.850709
 20
-83.326429
 30
0.0
 10
57.893487
 20
-83.541488
 30
0.0
 10
58.036486
 20
-83.684487
 30
0.0
  0
SPLINE
  5
166
100
AcDbEntity
  8
0
 62
7
100
AcDbSpline
 70
8
 71
3
 72
8
 73
4
 74
0
 40
0
 40
0
 40
0
 40
0
 40
1
 40
1
 40
1
 40
1
 10
58.036486
 20
-83.684487
 30
0.0
 10
58.179485
 20
-83.827486
 30
0.0
 10
58.394544
 20
-83.870264
 30
0.0
 10
58.581381
 20
-83.792874
 30
0.0
  0
SPLINE
  5
167
100
AcDbEntity
  8
0
 62
7
100
AcDbSpline
 70
8
 71
3
 72
8
 73
4
 74
0
 40
0
 40
0
 40
0
 40
0
 40
1
 40
1
 40
1
 40
1
 10
58.581381
 20
-83.792874
 30
0.0
 10
58.768218
 20
-83.715483
 30
0.0
 10
58.890040
 20
-83.533165
 30
0.0
 10
58.890040
 20
-83.330934
 30
0.0
  0
SPLINE
  5
168
100
AcDbEntity
  8
0
 62
7
100
AcDbSpline
 70
8
 71
3
 72
8
 73
4
 74
0
 40
0
 40
0
 40
0
 40
0
 40
1
 40
1
 40
1
 40
1
 10
58.890040
 20
-83.330934
 30
0.0
 10
58.890040
 20
-83.198325
 30
0.0
 10
58.837361
 20
-83.071148
 30
0.0
 10
58.743593
 20
-82.977380
 30
0.0
  0
SPLINE
  5
169
100
AcDbEntity
  8
0
 62
7
100
AcDbSpline
 70
8
 71
3
 72
8
 73
4
 74
0
 40
0
 40
0
 40
0
 40
0
 40
1
 40
1
 40
1
 40
1
 10
58.743593
 20
-82.977380
 30
0.0
 10
58.649825
 20
-82.883612
 30
0.0
 10
58.522648
 20
-82.830933
 30
0.0
 10
58.390039
 20
-82.830933
 30
0.0
  0
LINE
  5
16a
100
AcDbEntity
  8
0
 62
7
100
AcDbLine
 10
58.390039
 20
-82.830933
 30
0.0
 11
58.390039
 21
-82.830933
 31
0.0
  0
LINE
  5
16b
100
AcDbEntity
  8
0
 62
7
100
AcDbLine
 10
65.240044
 20
-77.730930
 30
0.0
 11
66.540045
 21
-77.730930
 31
0.0
  0
LINE
  5
16c
100
AcDbEntity
  8
0
 62
7
100
AcDbLine
 10
65.240044
 20
-88.930937
 30
0.0
 11
66.540045
 21
-88.930937
 31
0.0
  0
SPLINE
  5
16d
100
AcDbEntity
  8
0
 62
7
100
AcDbSpline
 70
8
 71
3
 72
8
 73
4
 74
0
 40
0
 40
0
 40
0
 40
0
 40
1
 40
1
 40
1
 40
1
 10
72.890049
 20
-85.330935
 30
0.0
 10
72.687818
 20
-85.330935
 30
0.0
 10
72.505500
 20
-85.452756
 30
0.0
 10
72.428109
 20
-85.639593
 30
0.0
  0
SPLINE
  5
16e
100
AcDbEntity
  8
0
 62
7
100
AcDbSpline
 70
8
 71
3
 72
8
 73
4
 74
0
 40
0
 40
0
 40
0
 40
0
 40
1
 40
1
 40
1
 40
1
 10
72.428109
 20
-85.639593
 30
0.0
 10
72.350718
 20
-85.826431
 30
0.0
 10
72.393496
 20
-86.041490
 30
0.0
 10
72.536495
 20
-86.184489
 30
0.0
  0
SPLINE
  5
16f
100
AcDbEntity
  8
0
 62
7
100
AcDbSpline
 70
8
 71
3
 72
8
 73
4
 74
0
 40
0
 40
0
 40
0
 40
0
 40
1
 40
1
 40
1
 40
1
 10
72.536495
 20
-86.184489
 30
0.0
 10
72.679495
 20
-86.327488
 30
0.0
 10
72.894554
 20
-86.370266
 30
0.0
 10
73.081391
 20
-86.292875
 30
0.0
  0
SPLINE
  5
170
100
AcDbEntity
  8
0
 62
7
100
AcDbSpline
 70
8
 71
3
 72
8
 73
4
 74
0
 40
0
 40
0
 40
0
 40
0
 40
1
 40
1
 40
1
 40
1
 10
73.081391
 20
-86.292875
 30
0.0
 10
73.268228
 20
-86.215485
 30
0.0
 10
73.390049
 20
-86.033167
 30
0.0
 10
73.390049
 20
-85.830935
 30
0.0
  0
SPLINE
  5
171
100
AcDbEntity
  8
0
 62
7
100
AcDbSpline
 70
8
 71
3
 72
8
 73
4
 74
0
 40
0
 40
0
 40
0
 40
0
 40
1
 40
1
 40
1
 40
1
 10
73.390049
 20
-85.830935
 30
0.0
 10
73.390049
 20
-85.698327
 30
0.0
 10
73.337371
 20
-85.571150
 30
0.0
 10
73.243603
 20
-85.477382
 30
0.0
  0
SPLINE
  5
172
100
AcDbEntity
  8
0
 62
7
100
AcDbSpline
 70
8
 71
3
 72
8
 73
4
 74
0
 40
0
 40
0
 40
0
 40
0
 40
1
 40
1
 40
1
 40
1
 10
73.243603
 20
-85.477382
 30
0.0
 10
73.149834
 20
-85.383613
 30
0.0
 10
73.022657
 20
-85.330935
 30
0.0
 10
72.890049
 20
-85.330935
 30
0.0
  0
LINE
  5
173
100
AcDbEntity
  8
0
 62
7
100
AcDbLine
 10
72.890049
 20
-85.330935
 30
0.0
 11
72.890049
 21
-85.330935
 31
0.0
  0
SPLINE
  5
174
100
AcDbEntity
  8
0
 62
7
100
AcDbSpline
 70
8
 71
3
 72
8
 73
4
 74
0
 40
0
 40
0
 40
0
 40
0
 40
1
 40
1
 40
1
 40
1
 10
72.890049
 20
-80.330932
 30
0.0
 10
72.687818
 20
-80.330932
 30
0.0
 10
72.505500
 20
-80.452753
 30
0.0
 10
72.428109
 20
-80.639590
 30
0.0
  0
SPLINE
  5
175
100
AcDbEntity
  8
0
 62
7
100
AcDbSpline
 70
8
 71
3
 72
8
 73
4
 74
0
 40
0
 40
0
 40
0
 40
0
 40
1
 40
1
 40
1
 40
1
 10
72.428109
 20
-80.639590
 30
0.0
 10
72.350718
 20
-80.826427
 30
0.0
 10
72.393496
 20
-81.041486
 30
0.0
 10
72.536495
 20
-81.184486
 30
0.0
  0
SPLINE
  5
176
100
AcDbEntity
  8
0
 62
7
100
AcDbSpline
 70
8
 71
3
 72
8
 73
4
 74
0
 40
0
 40
0
 40
0
 40
0
 40
1
 40
1
 40
1
 40
1
 10
72.536495
 20
-81.184486
 30
0.0
 10
72.679495
 20
-81.327485
 30
0.0
 10
72.894554
 20
-81.370263
 30
0.0
 10
73.081391
 20
-81.292872
 30
0.0
  0
SPLINE
  5
177
100
AcDbEntity
  8
0
 62
7
100
AcDbSpline
 70
8
 71
3
 72
8
 73
4
 74
0
 40
0
 40
0
 40
0
 40
0
 40
1
 40
1
 40
1
 40
1
 10
73.081391
 20
-81.292872
 30
0.0
 10
73.268228
 20
-81.215481
 30
0.0
 10
73.390049
 20
-81.033163
 30
0.0
 10
73.390049
 20
-80.830932
 30
0.0
  0
SPLINE
  5
178
100
AcDbEntity
  8
0
 62
7
100
AcDbSpline
 70
8
 71
3
 72
8
 73
4
 74
0
 40
0
 40
0
 40
0
 40
0
 40
1
 40
1
 40
1
 40
1
 10
73.390049
 20
-80.830932
 30
0.0
 10
73.390049
 20
-80.698324
 30
0.0
 10
73.337371
 20
-80.571147
 30
0.0
 10
73.243603
 20
-80.477378
 30
0.0
  0
SPLINE
  5
179
100
AcDbEntity
  8
0
 62
7
100
AcDbSpline
 70
8
 71
3
 72
8
 73
4
 74
0
 40
0
 40
0
 40
0
 40
0
 40
1
 40
1
 40
1
 40
1
 10
73.243603
 20
-80.477378
 30
0.0
 10
73.149834
 20
-80.383610
 30
0.0
 10
73.022657
 20
-80.330932
 30
0.0
 10
72.890049
 20
-80.330932
 30
0.0
  0
LINE
  5
17a
100
AcDbEntity
  8
0
 62
7
100
AcDbLine
 10
72.890049
 20
-80.330932
 30
0.0
 11
72.890049
 21
-80.330932
 31
0.0
  0
SPLINE
  5
17b
100
AcDbEntity
  8
0
 62
7
100
AcDbSpline
 70
8
 71
3
 72
8
 73
4
 74
0
 40
0
 40
0
 40
0
 40
0
 40
1
 40
1
 40
1
 40
1
 10
60.815041
 20
-90.910939
 30
0.0
 10
60.612810
 20
-90.910939
 30
0.0
 10
60.430491
 20
-91.032760
 30
0.0
 10
60.353101
 20
-91.219597
 30
0.0
  0
SPLINE
  5
17c
100
AcDbEntity
  8
0
 62
7
100
AcDbSpline
 70
8
 71
3
 72
8
 73
4
 74
0
 40
0
 40
0
 40
0
 40
0
 40
1
 40
1
 40
1
 40
1
 10
60.353101
 20
-91.219597
 30
0.0
 10
60.275710
 20
-91.406435
 30
0.0
 10
60.318488
 20
-91.621494
 30
0.0
 10
60.461487
 20
-91.764493
 30
0.0
  0
SPLINE
  5
17d
100
AcDbEntity
  8
0
 62
7
100
AcDbSpline
 70
8
 71
3
 72
8
 73
4
 74
0
 40
0
 40
0
 40
0
 40
0
 40
1
 40
1
 40
1
 40
1
 10
60.461487
 20
-91.764493
 30
0.0
 10
60.604486
 20
-91.907492
 30
0.0
 10
60.819545
 20
-91.950270
 30
0.0
 10
61.006383
 20
-91.872879
 30
0.0
  0
SPLINE
  5
17e
100
AcDbEntity
  8
0
 62
7
100
AcDbSpline
 70
8
 71
3
 72
8
 73
4
 74
0
 40
0
 40
0
 40
0
 40
0
 40
1
 40
1
 40
1
 40
1
 10
61.006383
 20
-91.872879
 30
0.0
 10
61.193220
 20
-91.795489
 30
0.0
 10
61.315041
 20
-91.613170
 30
0.0
 10
61.315041
 20
-91.410939
 30
0.0
  0
SPLINE
  5
17f
100
AcDbEntity
  8
0
 62
7
100
AcDbSpline
 70
8
 71
3
 72
8
 73
4
 74
0
 40
0
 40
0
 40
0
 40
0
 40
1
 40
1
 40
1
 40
1
 10
61.315041
 20
-91.410939
 30
0.0
 10
61.315041
 20
-91.278331
 30
0.0
 10
61.262363
 20
-91.151154
 30
0.0
 10
61.168595
 20
-91.057385
 30
0.0
  0
SPLINE
  5
180
100
AcDbEntity
  8
0
 62
7
100
AcDbSpline
 70
8
 71
3
 72
8
 73
4
 74
0
 40
0
 40
0
 40
0
 40
0
 40
1
 40
1
 40
1
 40
1
 10
61.168595
 20
-91.057385
 30
0.0
 10
61.074826
 20
-90.963617
 30
0.0
 10
60.947649
 20
-90.910939
 30
0.0
 10
60.815041
 20
-90.910939
 30
0.0
  0
LINE
  5
181
100
AcDbEntity
  8
0
 62
7
100
AcDbLine
 10
60.815041
 20
-90.910939
 30
0.0
 11
60.815041
 21
-90.910939
 31
0.0
  0
SPLINE
  5
182
100
AcDbEntity
  8
0
 62
7
100
AcDbSpline
 70
8
 71
3
 72
8
 73
4
 74
0
 40
0
 40
0
 40
0
 40
0
 40
1
 40
1
 40
1
 40
1
 10
63.355043
 20
-90.910939
 30
0.0
 10
63.152811
 20
-90.910939
 30
0.0
 10
62.970493
 20
-91.032760
 30
0.0
 10
62.893103
 20
-91.219597
 30
0.0
  0
SPLINE
  5
183
100
AcDbEntity
  8
0
 62
7
100
AcDbSpline
 70
8
 71
3
 72
8
 73
4
 74
0
 40
0
 40
0
 40
0
 40
0
 40
1
 40
1
 40
1
 40
1
 10
62.893103
 20
-91.219597
 30
0.0
 10
62.815712
 20
-91.406435
 30
0.0
 10
62.858490
 20
-91.621494
 30
0.0
 10
63.001489
 20
-91.764493
 30
0.0
  0
SPLINE
  5
184
100
AcDbEntity
  8
0
 62
7
100
AcDbSpline
 70
8
 71
3
 72
8
 73
4
 74
0
 40
0
 40
0
 40
0
 40
0
 40
1
 40
1
 40
1
 40
1
 10
63.001489
 20
-91.764493
 30
0.0
 10
63.144488
 20
-91.907492
 30
0.0
 10
63.359547
 20
-91.950270
 30
0.0
 10
63.546385
 20
-91.872879
 30
0.0
  0
SPLINE
  5
185
100
AcDbEntity
  8
0
 62
7
100
AcDbSpline
 70
8
 71
3
 72
8
 73
4
 74
0
 40
0
 40
0
 40
0
 40
0
 40
1
 40
1
 40
1
 40
1
 10
63.546385
 20
-91.872879
 30
0.0
 10
63.733222
 20
-91.795489
 30
0.0
 10
63.855043
 20
-91.613170
 30
0.0
 10
63.855043
 20
-91.410939
 30
0.0
  0
SPLINE
  5
186
100
AcDbEntity
  8
0
 62
7
100
AcDbSpline
 70
8
 71
3
 72
8
 73
4
 74
0
 40
0
 40
0
 40
0
 40
0
 40
1
 40
1
 40
1
 40
1
 10
63.855043
 20
-91.410939
 30
0.0
 10
63.855043
 20
-91.278331
 30
0.0
 10
63.802365
 20
-91.151154
 30
0.0
 10
63.708596
 20
-91.057385
 30
0.0
  0
SPLINE
  5
187
100
AcDbEntity
  8
0
 62
7
100
AcDbSpline
 70
8
 71
3
 72
8
 73
4
 74
0
 40
0
 40
0
 40
0
 40
0
 40
1
 40
1
 40
1
 40
1
 10
63.708596
 20
-91.057385
 30
0.0
 10
63.614828
 20
-90.963617
 30
0.0
 10
63.487651
 20
-90.910939
 30
0.0
 10
63.355043
 20
-90.910939
 30
0.0
  0
LINE
  5
188
100
AcDbEntity
  8
0
 62
7
100
AcDbLine
 10
63.355043
 20
-90.910939
 30
0.0
 11
63.355043
 21
-90.910939
 31
0.0
  0
SPLINE
  5
189
100
AcDbEntity
  8
0
 62
7
100
AcDbSpline
 70
8
 71
3
 72
8
 73
4
 74
0
 40
0
 40
0
 40
0
 40
0
 40
1
 40
1
 40
1
 40
1
 10
65.895044
 20
-90.910939
 30
0.0
 10
65.692813
 20
-90.910939
 30
0.0
 10
65.510495
 20
-91.032760
 30
0.0
 10
65.433104
 20
-91.219597
 30
0.0
  0
SPLINE
  5
18a
100
AcDbEntity
  8
0
 62
7
100
AcDbSpline
 70
8
 71
3
 72
8
 73
4
 74
0
 40
0
 40
0
 40
0
 40
0
 40
1
 40
1
 40
1
 40
1
 10
65.433104
 20
-91.219597
 30
0.0
 10
65.355714
 20
-91.406435
 30
0.0
 10
65.398492
 20
-91.621494
 30
0.0
 10
65.541491
 20
-91.764493
 30
0.0
  0
SPLINE
  5
18b
100
AcDbEntity
  8
0
 62
7
100
AcDbSpline
 70
8
 71
3
 72
8
 73
4
 74
0
 40
0
 40
0
 40
0
 40
0
 40
1
 40
1
 40
1
 40
1
 10
65.541491
 20
-91.764493
 30
0.0
 10
65.684490
 20
-91.907492
 30
0.0
 10
65.899549
 20
-91.950270
 30
0.0
 10
66.086386
 20
-91.872879
 30
0.0
  0
SPLINE
  5
18c
100
AcDbEntity
  8
0
 62
7
100
AcDbSpline
 70
8
 71
3
 72
8
 73
4
 74
0
 40
0
 40
0
 40
0
 40
0
 40
1
 40
1
 40
1
 40
1
 10
66.086386
 20
-91.872879
 30
0.0
 10
66.273224
 20
-91.795489
 30
0.0
 10
66.395045
 20
-91.613170
 30
0.0
 10
66.395045
 20
-91.410939
 30
0.0
  0
SPLINE
  5
18d
100
AcDbEntity
  8
0
 62
7
100
AcDbSpline
 70
8
 71
3
 72
8
 73
4
 74
0
 40
0
 40
0
 40
0
 40
0
 40
1
 40
1
 40
1
 40
1
 10
66.395045
 20
-91.410939
 30
0.0
 10
66.395045
 20
-91.278331
 30
0.0
 10
66.342366
 20
-91.151154
 30
0.0
 10
66.248598
 20
-91.057385
 30
0.0
  0
SPLINE
  5
18e
100
AcDbEntity
  8
0
 62
7
100
AcDbSpline
 70
8
 71
3
 72
8
 73
4
 74
0
 40
0
 40
0
 40
0
 40
0
 40
1
 40
1
 40
1
 40
1
 10
66.248598
 20
-91.057385
 30
0.0
 10
66.154830
 20
-90.963617
 30
0.0
 10
66.027653
 20
-90.910939
 30
0.0
 10
65.895044
 20
-90.910939
 30
0.0
  0
LINE
  5
18f
100
AcDbEntity
  8
0
 62
7
100
AcDbLine
 10
65.895044
 20
-90.910939
 30
0.0
 11
65.895044
 21
-90.910939
 31
0.0
  0
SPLINE
  5
190
100
AcDbEntity
  8
0
 62
7
100
AcDbSpline
 70
8
 71
3
 72
8
 73
4
 74
0
 40
0
 40
0
 40
0
 40
0
 40
1
 40
1
 40
1
 40
1
 10
68.435046
 20
-90.910939
 30
0.0
 10
68.232815
 20
-90.910939
 30
0.0
 10
68.050497
 20
-91.032760
 30
0.0
 10
67.973106
 20
-91.219597
 30
0.0
  0
SPLINE
  5
191
100
AcDbEntity
  8
0
 62
7
100
AcDbSpline
 70
8
 71
3
 72
8
 73
4
 74
0
 40
0
 40
0
 40
0
 40
0
 40
1
 40
1
 40
1
 40
1
 10
67.973106
 20
-91.219597
 30
0.0
 10
67.895715
 20
-91.406435
 30
0.0
 10
67.938493
 20
-91.621494
 30
0.0
 10
68.081492
 20
-91.764493
 30
0.0
  0
SPLINE
  5
192
100
AcDbEntity
  8
0
 62
7
100
AcDbSpline
 70
8
 71
3
 72
8
 73
4
 74
0
 40
0
 40
0
 40
0
 40
0
 40
1
 40
1
 40
1
 40
1
 10
68.081492
 20
-91.764493
 30
0.0
 10
68.224492
 20
-91.907492
 30
0.0
 10
68.439551
 20
-91.950270
 30
0.0
 10
68.626388
 20
-91.872879
 30
0.0
  0
SPLINE
  5
193
100
AcDbEntity
  8
0
 62
7
100
AcDbSpline
 70
8
 71
3
 72
8
 73
4
 74
0
 40
0
 40
0
 40
0
 40
0
 40
1
 40
1
 40
1
 40
1
 10
68.626388
 20
-91.872879
 30
0.0
 10
68.813225
 20
-91.795489
 30
0.0
 10
68.935046
 20
-91.613170
 30
0.0
 10
68.935046
 20
-91.410939
 30
0.0
  0
SPLINE
  5
194
100
AcDbEntity
  8
0
 62
7
100
AcDbSpline
 70
8
 71
3
 72
8
 73
4
 74
0
 40
0
 40
0
 40
0
 40
0
 40
1
 40
1
 40
1
 40
1
 10
68.935046
 20
-91.410939
 30
0.0
 10
68.935046
 20
-91.278331
 30
0.0
 10
68.882368
 20
-91.151154
 30
0.0
 10
68.788600
 20
-91.057385
 30
0.0
  0
SPLINE
  5
195
100
AcDbEntity
  8
0
 62
7
100
AcDbSpline
 70
8
 71
3
 72
8
 73
4
 74
0
 40
0
 40
0
 40
0
 40
0
 40
1
 40
1
 40
1
 40
1
 10
68.788600
 20
-91.057385
 30
0.0
 10
68.694831
 20
-90.963617
 30
0.0
 10
68.567654
 20
-90.910939
 30
0.0
 10
68.435046
 20
-90.910939
 30
0.0
  0
LINE
  5
196
100
AcDbEntity
  8
0
 62
7
100
AcDbLine
 10
68.435046
 20
-90.910939
 30
0.0
 11
68.435046
 21
-90.910939
 31
0.0
  0
SPLINE
  5
197
100
AcDbEntity
  8
0
 62
7
100
AcDbSpline
 70
8
 71
3
 72
8
 73
4
 74
0
 40
0
 40
0
 40
0
 40
0
 40
1
 40
1
 40
1
 40
1
 10
70.975048
 20
-90.910939
 30
0.0
 10
70.772817
 20
-90.910939
 30
0.0
 10
70.590498
 20
-91.032760
 30
0.0
 10
70.513108
 20
-91.219597
 30
0.0
  0
SPLINE
  5
198
100
AcDbEntity
  8
0
 62
7
100
AcDbSpline
 70
8
 71
3
 72
8
 73
4
 74
0
 40
0
 40
0
 40
0
 40
0
 40
1
 40
1
 40
1
 40
1
 10
70.513108
 20
-91.219597
 30
0.0
 10
70.435717
 20
-91.406435
 30
0.0
 10
70.478495
 20
-91.621494
 30
0.0
 10
70.621494
 20
-91.764493
 30
0.0
  0
SPLINE
  5
199
100
AcDbEntity
  8
0
 62
7
100
AcDbSpline
 70
8
 71
3
 72
8
 73
4
 74
0
 40
0
 40
0
 40
0
 40
0
 40
1
 40
1
 40
1
 40
1
 10
70.621494
 20
-91.764493
 30
0.0
 10
70.764493
 20
-91.907492
 30
0.0
 10
70.979552
 20
-91.950270
 30
0.0
 10
71.166390
 20
-91.872879
 30
0.0
  0
SPLINE
  5
19a
100
AcDbEntity
  8
0
 62
7
100
AcDbSpline
 70
8
 71
3
 72
8
 73
4
 74
0
 40
0
 40
0
 40
0
 40
0
 40
1
 40
1
 40
1
 40
1
 10
71.166390
 20
-91.872879
 30
0.0
 10
71.353227
 20
-91.795489
 30
0.0
 10
71.475048
 20
-91.613170
 30
0.0
 10
71.475048
 20
-91.410939
 30
0.0
  0
SPLINE
  5
19b
100
AcDbEntity
  8
0
 62
7
100
AcDbSpline
 70
8
 71
3
 72
8
 73
4
 74
0
 40
0
 40
0
 40
0
 40
0
 40
1
 40
1
 40
1
 40
1
 10
71.475048
 20
-91.410939
 30
0.0
 10
71.475048
 20
-91.278331
 30
0.0
 10
71.422370
 20
-91.151154
 30
0.0
 10
71.328601
 20
-91.057385
 30
0.0
  0
SPLINE
  5
19c
100
AcDbEntity
  8
0
 62
7
100
AcDbSpline
 70
8
 71
3
 72
8
 73
4
 74
0
 40
0
 40
0
 40
0
 40
0
 40
1
 40
1
 40
1
 40
1
 10
71.328601
 20
-91.057385
 30
0.0
 10
71.234833
 20
-90.963617
 30
0.0
 10
71.107656
 20
-90.910939
 30
0.0
 10
70.975048
 20
-90.910939
 30
0.0
  0
LINE
  5
19d
100
AcDbEntity
  8
0
 62
7
100
AcDbLine
 10
70.975048
 20
-90.910939
 30
0.0
 11
70.975048
 21
-90.910939
 31
0.0
  0
SPLINE
  5
19e
100
AcDbEntity
  8
0
 62
7
100
AcDbSpline
 70
8
 71
3
 72
8
 73
4
 74
0
 40
0
 40
0
 40
0
 40
0
 40
1
 40
1
 40
1
 40
1
 10
58.390039
 20
-79.780931
 30
0.0
 10
57.965354
 20
-79.780931
 30
0.0
 10
57.582485
 20
-80.036756
 30
0.0
 10
57.419965
 20
-80.429114
 30
0.0
  0
SPLINE
  5
19f
100
AcDbEntity
  8
0
 62
7
100
AcDbSpline
 70
8
 71
3
 72
8
 73
4
 74
0
 40
0
 40
0
 40
0
 40
0
 40
1
 40
1
 40
1
 40
1
 10
57.419965
 20
-80.429114
 30
0.0
 10
57.257445
 20
-80.821472
 30
0.0
 10
57.347279
 20
-81.273096
 30
0.0
 10
57.647577
 20
-81.573395
 30
0.0
  0
SPLINE
  5
1a0
100
AcDbEntity
  8
0
 62
7
100
AcDbSpline
 70
8
 71
3
 72
8
 73
4
 74
0
 40
0
 40
0
 40
0
 40
0
 40
1
 40
1
 40
1
 40
1
 10
57.647577
 20
-81.573395
 30
0.0
 10
57.947875
 20
-81.873693
 30
0.0
 10
58.399499
 20
-81.963526
 30
0.0
 10
58.791857
 20
-81.801006
 30
0.0
  0
SPLINE
  5
1a1
100
AcDbEntity
  8
0
 62
7
100
AcDbSpline
 70
8
 71
3
 72
8
 73
4
 74
0
 40
0
 40
0
 40
0
 40
0
 40
1
 40
1
 40
1
 40
1
 10
58.791857
 20
-81.801006
 30
0.0
 10
59.184216
 20
-81.638486
 30
0.0
 10
59.440040
 20
-81.255618
 30
0.0
 10
59.440040
 20
-80.830932
 30
0.0
  0
SPLINE
  5
1a2
100
AcDbEntity
  8
0
 62
7
100
AcDbSpline
 70
8
 71
3
 72
8
 73
4
 74
0
 40
0
 40
0
 40
0
 40
0
 40
1
 40
1
 40
1
 40
1
 10
59.440040
 20
-80.830932
 30
0.0
 10
59.440040
 20
-80.552454
 30
0.0
 10
59.329415
 20
-80.285383
 30
0.0
 10
59.132502
 20
-80.088469
 30
0.0
  0
SPLINE
  5
1a3
100
AcDbEntity
  8
0
 62
7
100
AcDbSpline
 70
8
 71
3
 72
8
 73
4
 74
0
 40
0
 40
0
 40
0
 40
0
 40
1
 40
1
 40
1
 40
1
 10
59.132502
 20
-80.088469
 30
0.0
 10
58.935589
 20
-79.891556
 30
0.0
 10
58.668517
 20
-79.780931
 30
0.0
 10
58.390039
 20
-79.780931
 30
0.0
  0
LINE
  5
1a4
100
AcDbEntity
  8
0
 62
7
100
AcDbLine
 10
58.390039
 20
-79.780931
 30
0.0
 11
58.390039
 21
-79.780931
 31
0.0
  0
SPLINE
  5
1a5
100
AcDbEntity
  8
0
 62
7
100
AcDbSpline
 70
8
 71
3
 72
8
 73
4
 74
0
 40
0
 40
0
 40
0
 40
0
 40
1
 40
1
 40
1
 40
1
 10
58.390039
 20
-84.780935
 30
0.0
 10
57.965354
 20
-84.780935
 30
0.0
 10
57.582485
 20
-85.036759
 30
0.0
 10
57.419965
 20
-85.429117
 30
0.0
  0
SPLINE
  5
1a6
100
AcDbEntity
  8
0
 62
7
100
AcDbSpline
 70
8
 71
3
 72
8
 73
4
 74
0
 40
0
 40
0
 40
0
 40
0
 40
1
 40
1
 40
1
 40
1
 10
57.419965
 20
-85.429117
 30
0.0
 10
57.257445
 20
-85.821476
 30
0.0
 10
57.347279
 20
-86.273100
 30
0.0
 10
57.647577
 20
-86.573398
 30
0.0
  0
SPLINE
  5
1a7
100
AcDbEntity
  8
0
 62
7
100
AcDbSpline
 70
8
 71
3
 72
8
 73
4
 74
0
 40
0
 40
0
 40
0
 40
0
 40
1
 40
1
 40
1
 40
1
 10
57.647577
 20
-86.573398
 30
0.0
 10
57.947875
 20
-86.873696
 30
0.0
 10
58.399499
 20
-86.963530
 30
0.0
 10
58.791857
 20
-86.801009
 30
0.0
  0
SPLINE
  5
1a8
100
AcDbEntity
  8
0
 62
7
100
AcDbSpline
 70
8
 71
3
 72
8
 73
4
 74
0
 40
0
 40
0
 40
0
 40
0
 40
1
 40
1
 40
1
 40
1
 10
58.791857
 20
-86.801009
 30
0.0
 10
59.184216
 20
-86.638489
 30
0.0
 10
59.440040
 20
-86.255621
 30
0.0
 10
59.440040
 20
-85.830935
 30
0.0
  0
SPLINE
  5
1a9
100
AcDbEntity
  8
0
 62
7
100
AcDbSpline
 70
8
 71
3
 72
8
 73
4
 74
0
 40
0
 40
0
 40
0
 40
0
 40
1
 40
1
 40
1
 40
1
 10
59.440040
 20
-85.830935
 30
0.0
 10
59.440040
 20
-85.552458
 30
0.0
 10
59.329415
 20
-85.285386
 30
0.0
 10
59.132502
 20
-85.088473
 30
0.0
  0
SPLINE
  5
1aa
100
AcDbEntity
  8
0
 62
7
100
AcDbSpline
 70
8
 71
3
 72
8
 73
4
 74
0
 40
0
 40
0
 40
0
 40
0
 40
1
 40
1
 40
1
 40
1
 10
59.132502
 20
-85.088473
 30
0.0
 10
58.935589
 20
-84.891559
 30
0.0
 10
58.668517
 20
-84.780935
 30
0.0
 10
58.390039
 20
-84.780935
 30
0.0
  0
LINE
  5
1ab
100
AcDbEntity
  8
0
 62
7
100
AcDbLine
 10
58.390039
 20
-84.780935
 30
0.0
 11
58.390039
 21
-84.780935
 31
0.0
  0
SPLINE
  5
1ac
100
AcDbEntity
  8
0
 62
7
100
AcDbSpline
 70
8
 71
3
 72
8
 73
4
 74
0
 40
0
 40
0
 40
0
 40
0
 40
1
 40
1
 40
1
 40
1
 10
58.390039
 20
-82.280933
 30
0.0
 10
57.965354
 20
-82.280933
 30
0.0
 10
57.582485
 20
-82.536757
 30
0.0
 10
57.419965
 20
-82.929116
 30
0.0
  0
SPLINE
  5
1ad
100
AcDbEntity
  8
0
 62
7
100
AcDbSpline
 70
8
 71
3
 72
8
 73
4
 74
0
 40
0
 40
0
 40
0
 40
0
 40
1
 40
1
 40
1
 40
1
 10
57.419965
 20
-82.929116
 30
0.0
 10
57.257445
 20
-83.321474
 30
0.0
 10
57.347279
 20
-83.773098
 30
0.0
 10
57.647577
 20
-84.073396
 30
0.0
  0
SPLINE
  5
1ae
100
AcDbEntity
  8
0
 62
7
100
AcDbSpline
 70
8
 71
3
 72
8
 73
4
 74
0
 40
0
 40
0
 40
0
 40
0
 40
1
 40
1
 40
1
 40
1
 10
57.647577
 20
-84.073396
 30
0.0
 10
57.947875
 20
-84.373694
 30
0.0
 10
58.399499
 20
-84.463528
 30
0.0
 10
58.791857
 20
-84.301008
 30
0.0
  0
SPLINE
  5
1af
100
AcDbEntity
  8
0
 62
7
100
AcDbSpline
 70
8
 71
3
 72
8
 73
4
 74
0
 40
0
 40
0
 40
0
 40
0
 40
1
 40
1
 40
1
 40
1
 10
58.791857
 20
-84.301008
 30
0.0
 10
59.184216
 20
-84.138488
 30
0.0
 10
59.440040
 20
-83.755619
 30
0.0
 10
59.440040
 20
-83.330934
 30
0.0
  0
SPLINE
  5
1b0
100
AcDbEntity
  8
0
 62
7
100
AcDbSpline
 70
8
 71
3
 72
8
 73
4
 74
0
 40
0
 40
0
 40
0
 40
0
 40
1
 40
1
 40
1
 40
1
 10
59.440040
 20
-83.330934
 30
0.0
 10
59.440040
 20
-83.052456
 30
0.0
 10
59.329415
 20
-82.785384
 30
0.0
 10
59.132502
 20
-82.588471
 30
0.0
  0
SPLINE
  5
1b1
100
AcDbEntity
  8
0
 62
7
100
AcDbSpline
 70
8
 71
3
 72
8
 73
4
 74
0
 40
0
 40
0
 40
0
 40
0
 40
1
 40
1
 40
1
 40
1
 10
59.132502
 20
-82.588471
 30
0.0
 10
58.935589
 20
-82.391558
 30
0.0
 10
58.668517
 20
-82.280933
 30
0.0
 10
58.390039
 20
-82.280933
 30
0.0
  0
LINE
  5
1b2
100
AcDbEntity
  8
0
 62
7
100
AcDbLine
 10
58.390039
 20
-82.280933
 30
0.0
 11
58.390039
 21
-82.280933
 31
0.0
  0
LINE
  5
1b3
100
AcDbEntity
  8
0
 62
7
100
AcDbLine
 10
64.240043
 20
-76.730929
 30
0.0
 11
64.243849
 21
-76.711795
 31
0.0
  0
LINE
  5
1b4
100
AcDbEntity
  8
0
 62
7
100
AcDbLine
 10
64.243849
 20
-76.711795
 30
0.0
 11
64.254688
 21
-76.695574
 31
0.0
  0
LINE
  5
1b5
100
AcDbEntity
  8
0
 62
7
100
AcDbLine
 10
64.254688
 20
-76.695574
 30
0.0
 11
64.270909
 21
-76.684735
 31
0.0
  0
LINE
  5
1b6
100
AcDbEntity
  8
0
 62
7
100
AcDbLine
 10
64.270909
 20
-76.684735
 30
0.0
 11
64.290043
 21
-76.680929
 31
0.0
  0
LINE
  5
1b7
100
AcDbEntity
  8
0
 62
7
100
AcDbLine
 10
64.290043
 20
-76.680929
 30
0.0
 11
67.490045
 21
-76.680929
 31
0.0
  0
LINE
  5
1b8
100
AcDbEntity
  8
0
 62
7
100
AcDbLine
 10
67.490045
 20
-76.680929
 30
0.0
 11
67.509179
 21
-76.684735
 31
0.0
  0
LINE
  5
1b9
100
AcDbEntity
  8
0
 62
7
100
AcDbLine
 10
67.509179
 20
-76.684735
 30
0.0
 11
67.525400
 21
-76.695574
 31
0.0
  0
LINE
  5
1ba
100
AcDbEntity
  8
0
 62
7
100
AcDbLine
 10
67.525400
 20
-76.695574
 30
0.0
 11
67.536239
 21
-76.711795
 31
0.0
  0
LINE
  5
1bb
100
AcDbEntity
  8
0
 62
7
100
AcDbLine
 10
67.536239
 20
-76.711795
 30
0.0
 11
67.540045
 21
-76.730929
 31
0.0
  0
LINE
  5
1bc
100
AcDbEntity
  8
0
 62
7
100
AcDbLine
 10
67.540045
 20
-76.730929
 30
0.0
 11
67.540045
 21
-78.730930
 31
0.0
  0
LINE
  5
1bd
100
AcDbEntity
  8
0
 62
7
100
AcDbLine
 10
67.540045
 20
-78.730930
 30
0.0
 11
67.536239
 21
-78.750065
 31
0.0
  0
LINE
  5
1be
100
AcDbEntity
  8
0
 62
7
100
AcDbLine
 10
67.536239
 20
-78.750065
 30
0.0
 11
67.525400
 21
-78.766286
 31
0.0
  0
LINE
  5
1bf
100
AcDbEntity
  8
0
 62
7
100
AcDbLine
 10
67.525400
 20
-78.766286
 30
0.0
 11
67.509179
 21
-78.777125
 31
0.0
  0
LINE
  5
1c0
100
AcDbEntity
  8
0
 62
7
100
AcDbLine
 10
67.509179
 20
-78.777125
 30
0.0
 11
67.490045
 21
-78.780931
 31
0.0
  0
LINE
  5
1c1
100
AcDbEntity
  8
0
 62
7
100
AcDbLine
 10
67.490045
 20
-78.780931
 30
0.0
 11
64.290043
 21
-78.780931
 31
0.0
  0
LINE
  5
1c2
100
AcDbEntity
  8
0
 62
7
100
AcDbLine
 10
64.290043
 20
-78.780931
 30
0.0
 11
64.270909
 21
-78.777125
 31
0.0
  0
LINE
  5
1c3
100
AcDbEntity
  8
0
 62
7
100
AcDbLine
 10
64.270909
 20
-78.777125
 30
0.0
 11
64.254688
 21
-78.766286
 31
0.0
  0
LINE
  5
1c4
100
AcDbEntity
  8
0
 62
7
100
AcDbLine
 10
64.254688
 20
-78.766286
 30
0.0
 11
64.243849
 21
-78.750065
 31
0.0
  0
LINE
  5
1c5
100
AcDbEntity
  8
0
 62
7
100
AcDbLine
 10
64.243849
 20
-78.750065
 30
0.0
 11
64.240043
 21
-78.730930
 31
0.0
  0
LINE
  5
1c6
100
AcDbEntity
  8
0
 62
7
100
AcDbLine
 10
64.240043
 20
-78.730930
 30
0.0
 11
64.240043
 21
-76.730929
 31
0.0
  0
LINE
  5
1c7
100
AcDbEntity
  8
0
 62
7
100
AcDbLine
 10
64.240043
 20
-87.930937
 30
0.0
 11
64.243849
 21
-87.911803
 31
0.0
  0
LINE
  5
1c8
100
AcDbEntity
  8
0
 62
7
100
AcDbLine
 10
64.243849
 20
-87.911803
 30
0.0
 11
64.254688
 21
-87.895582
 31
0.0
  0
LINE
  5
1c9
100
AcDbEntity
  8
0
 62
7
100
AcDbLine
 10
64.254688
 20
-87.895582
 30
0.0
 11
64.270909
 21
-87.884743
 31
0.0
  0
LINE
  5
1ca
100
AcDbEntity
  8
0
 62
7
100
AcDbLine
 10
64.270909
 20
-87.884743
 30
0.0
 11
64.290043
 21
-87.880937
 31
0.0
  0
LINE
  5
1cb
100
AcDbEntity
  8
0
 62
7
100
AcDbLine
 10
64.290043
 20
-87.880937
 30
0.0
 11
67.490045
 21
-87.880937
 31
0.0
  0
LINE
  5
1cc
100
AcDbEntity
  8
0
 62
7
100
AcDbLine
 10
67.490045
 20
-87.880937
 30
0.0
 11
67.509179
 21
-87.884743
 31
0.0
  0
LINE
  5
1cd
100
AcDbEntity
  8
0
 62
7
100
AcDbLine
 10
67.509179
 20
-87.884743
 30
0.0
 11
67.525400
 21
-87.895582
 31
0.0
  0
LINE
  5
1ce
100
AcDbEntity
  8
0
 62
7
100
AcDbLine
 10
67.525400
 20
-87.895582
 30
0.0
 11
67.536239
 21
-87.911803
 31
0.0
  0
LINE
  5
1cf
100
AcDbEntity
  8
0
 62
7
100
AcDbLine
 10
67.536239
 20
-87.911803
 30
0.0
 11
67.540045
 21
-87.930937
 31
0.0
  0
LINE
  5
1d0
100
AcDbEntity
  8
0
 62
7
100
AcDbLine
 10
67.540045
 20
-87.930937
 30
0.0
 11
67.540045
 21
-89.930938
 31
0.0
  0
LINE
  5
1d1
100
AcDbEntity
  8
0
 62
7
100
AcDbLine
 10
67.540045
 20
-89.930938
 30
0.0
 11
67.536239
 21
-89.950072
 31
0.0
  0
LINE
  5
1d2
100
AcDbEntity
  8
0
 62
7
100
AcDbLine
 10
67.536239
 20
-89.950072
 30
0.0
 11
67.525400
 21
-89.966293
 31
0.0
  0
LINE
  5
1d3
100
AcDbEntity
  8
0
 62
7
100
AcDbLine
 10
67.525400
 20
-89.966293
 30
0.0
 11
67.509179
 21
-89.977132
 31
0.0
  0
LINE
  5
1d4
100
AcDbEntity
  8
0
 62
7
100
AcDbLine
 10
67.509179
 20
-89.977132
 30
0.0
 11
67.490045
 21
-89.980938
 31
0.0
  0
LINE
  5
1d5
100
AcDbEntity
  8
0
 62
7
100
AcDbLine
 10
67.490045
 20
-89.980938
 30
0.0
 11
64.290043
 21
-89.980938
 31
0.0
  0
LINE
  5
1d6
100
AcDbEntity
  8
0
 62
7
100
AcDbLine
 10
64.290043
 20
-89.980938
 30
0.0
 11
64.270909
 21
-89.977132
 31
0.0
  0
LINE
  5
1d7
100
AcDbEntity
  8
0
 62
7
100
AcDbLine
 10
64.270909
 20
-89.977132
 30
0.0
 11
64.254688
 21
-89.966293
 31
0.0
  0
LINE
  5
1d8
100
AcDbEntity
  8
0
 62
7
100
AcDbLine
 10
64.254688
 20
-89.966293
 30
0.0
 11
64.243849
 21
-89.950072
 31
0.0
  0
LINE
  5
1d9
100
AcDbEntity
  8
0
 62
7
100
AcDbLine
 10
64.243849
 20
-89.950072
 30
0.0
 11
64.240043
 21
-89.930938
 31
0.0
  0
LINE
  5
1da
100
AcDbEntity
  8
0
 62
7
100
AcDbLine
 10
64.240043
 20
-89.930938
 30
0.0
 11
64.240043
 21
-87.930937
 31
0.0
  0
SPLINE
  5
1db
100
AcDbEntity
  8
0
 62
7
100
AcDbSpline
 70
8
 71
3
 72
8
 73
4
 74
0
 40
0
 40
0
 40
0
 40
0
 40
1
 40
1
 40
1
 40
1
 10
72.890049
 20
-84.780935
 30
0.0
 10
72.465363
 20
-84.780935
 30
0.0
 10
72.082495
 20
-85.036759
 30
0.0
 10
71.919975
 20
-85.429117
 30
0.0
  0
SPLINE
  5
1dc
100
AcDbEntity
  8
0
 62
7
100
AcDbSpline
 70
8
 71
3
 72
8
 73
4
 74
0
 40
0
 40
0
 40
0
 40
0
 40
1
 40
1
 40
1
 40
1
 10
71.919975
 20
-85.429117
 30
0.0
 10
71.757455
 20
-85.821476
 30
0.0
 10
71.847288
 20
-86.273100
 30
0.0
 10
72.147586
 20
-86.573398
 30
0.0
  0
SPLINE
  5
1dd
100
AcDbEntity
  8
0
 62
7
100
AcDbSpline
 70
8
 71
3
 72
8
 73
4
 74
0
 40
0
 40
0
 40
0
 40
0
 40
1
 40
1
 40
1
 40
1
 10
72.147586
 20
-86.573398
 30
0.0
 10
72.447885
 20
-86.873696
 30
0.0
 10
72.899509
 20
-86.963530
 30
0.0
 10
73.291867
 20
-86.801009
 30
0.0
  0
SPLINE
  5
1de
100
AcDbEntity
  8
0
 62
7
100
AcDbSpline
 70
8
 71
3
 72
8
 73
4
 74
0
 40
0
 40
0
 40
0
 40
0
 40
1
 40
1
 40
1
 40
1
 10
73.291867
 20
-86.801009
 30
0.0
 10
73.684225
 20
-86.638489
 30
0.0
 10
73.940050
 20
-86.255621
 30
0.0
 10
73.940050
 20
-85.830935
 30
0.0
  0
SPLINE
  5
1df
100
AcDbEntity
  8
0
 62
7
100
AcDbSpline
 70
8
 71
3
 72
8
 73
4
 74
0
 40
0
 40
0
 40
0
 40
0
 40
1
 40
1
 40
1
 40
1
 10
73.940050
 20
-85.830935
 30
0.0
 10
73.940050
 20
-85.552458
 30
0.0
 10
73.829425
 20
-85.285386
 30
0.0
 10
73.632512
 20
-85.088473
 30
0.0
  0
SPLINE
  5
1e0
100
AcDbEntity
  8
0
 62
7
100
AcDbSpline
 70
8
 71
3
 72
8
 73
4
 74
0
 40
0
 40
0
 40
0
 40
0
 40
1
 40
1
 40
1
 40
1
 10
73.632512
 20
-85.088473
 30
0.0
 10
73.435598
 20
-84.891559
 30
0.0
 10
73.168527
 20
-84.780935
 30
0.0
 10
72.890049
 20
-84.780935
 30
0.0
  0
LINE
  5
1e1
100
AcDbEntity
  8
0
 62
7
100
AcDbLine
 10
72.890049
 20
-84.780935
 30
0.0
 11
72.890049
 21
-84.780935
 31
0.0
  0
SPLINE
  5
1e2
100
AcDbEntity
  8
0
 62
7
100
AcDbSpline
 70
8
 71
3
 72
8
 73
4
 74
0
 40
0
 40
0
 40
0
 40
0
 40
1
 40
1
 40
1
 40
1
 10
72.890049
 20
-79.780931
 30
0.0
 10
72.465363
 20
-79.780931
 30
0.0
 10
72.082495
 20
-80.036756
 30
0.0
 10
71.919975
 20
-80.429114
 30
0.0
  0
SPLINE
  5
1e3
100
AcDbEntity
  8
0
 62
7
100
AcDbSpline
 70
8
 71
3
 72
8
 73
4
 74
0
 40
0
 40
0
 40
0
 40
0
 40
1
 40
1
 40
1
 40
1
 10
71.919975
 20
-80.429114
 30
0.0
 10
71.757455
 20
-80.821472
 30
0.0
 10
71.847288
 20
-81.273096
 30
0.0
 10
72.147586
 20
-81.573395
 30
0.0
  0
SPLINE
  5
1e4
100
AcDbEntity
  8
0
 62
7
100
AcDbSpline
 70
8
 71
3
 72
8
 73
4
 74
0
 40
0
 40
0
 40
0
 40
0
 40
1
 40
1
 40
1
 40
1
 10
72.147586
 20
-81.573395
 30
0.0
 10
72.447885
 20
-81.873693
 30
0.0
 10
72.899509
 20
-81.963526
 30
0.0
 10
73.291867
 20
-81.801006
 30
0.0
  0
SPLINE
  5
1e5
100
AcDbEntity
  8
0
 62
7
100
AcDbSpline
 70
8
 71
3
 72
8
 73
4
 74
0
 40
0
 40
0
 40
0
 40
0
 40
1
 40
1
 40
1
 40
1
 10
73.291867
 20
-81.801006
 30
0.0
 10
73.684225
 20
-81.638486
 30
0.0
 10
73.940050
 20
-81.255618
 30
0.0
 10
73.940050
 20
-80.830932
 30
0.0
  0
SPLINE
  5
1e6
100
AcDbEntity
  8
0
 62
7
100
AcDbSpline
 70
8
 71
3
 72
8
 73
4
 74
0
 40
0
 40
0
 40
0
 40
0
 40
1
 40
1
 40
1
 40
1
 10
73.940050
 20
-80.830932
 30
0.0
 10
73.940050
 20
-80.552454
 30
0.0
 10
73.829425
 20
-80.285383
 30
0.0
 10
73.632512
 20
-80.088469
 30
0.0
  0
SPLINE
  5
1e7
100
AcDbEntity
  8
0
 62
7
100
AcDbSpline
 70
8
 71
3
 72
8
 73
4
 74
0
 40
0
 40
0
 40
0
 40
0
 40
1
 40
1
 40
1
 40
1
 10
73.632512
 20
-80.088469
 30
0.0
 10
73.435598
 20
-79.891556
 30
0.0
 10
73.168527
 20
-79.780931
 30
0.0
 10
72.890049
 20
-79.780931
 30
0.0
  0
LINE
  5
1e8
100
AcDbEntity
  8
0
 62
7
100
AcDbLine
 10
72.890049
 20
-79.780931
 30
0.0
 11
72.890049
 21
-79.780931
 31
0.0
  0
LINE
  5
1e9
100
AcDbEntity
  8
0
 62
7
100
AcDbLine
 10
59.965040
 20
-92.310940
 30
0.0
 11
59.945906
 21
-92.307134
 31
0.0
  0
LINE
  5
1ea
100
AcDbEntity
  8
0
 62
7
100
AcDbLine
 10
59.945906
 20
-92.307134
 30
0.0
 11
59.929685
 21
-92.296295
 31
0.0
  0
LINE
  5
1eb
100
AcDbEntity
  8
0
 62
7
100
AcDbLine
 10
59.929685
 20
-92.296295
 30
0.0
 11
59.918846
 21
-92.280074
 31
0.0
  0
LINE
  5
1ec
100
AcDbEntity
  8
0
 62
7
100
AcDbLine
 10
59.918846
 20
-92.280074
 30
0.0
 11
59.915040
 21
-92.260940
 31
0.0
  0
LINE
  5
1ed
100
AcDbEntity
  8
0
 62
7
100
AcDbLine
 10
59.915040
 20
-92.260940
 30
0.0
 11
59.915040
 21
-90.560938
 31
0.0
  0
LINE
  5
1ee
100
AcDbEntity
  8
0
 62
7
100
AcDbLine
 10
59.915040
 20
-90.560938
 30
0.0
 11
59.918846
 21
-90.541804
 31
0.0
  0
LINE
  5
1ef
100
AcDbEntity
  8
0
 62
7
100
AcDbLine
 10
59.918846
 20
-90.541804
 30
0.0
 11
59.929685
 21
-90.525583
 31
0.0
  0
LINE
  5
1f0
100
AcDbEntity
  8
0
 62
7
100
AcDbLine
 10
59.929685
 20
-90.525583
 30
0.0
 11
59.945906
 21
-90.514744
 31
0.0
  0
LINE
  5
1f1
100
AcDbEntity
  8
0
 62
7
100
AcDbLine
 10
59.945906
 20
-90.514744
 30
0.0
 11
59.965040
 21
-90.510938
 31
0.0
  0
LINE
  5
1f2
100
AcDbEntity
  8
0
 62
7
100
AcDbLine
 10
59.965040
 20
-90.510938
 30
0.0
 11
61.665042
 21
-90.510938
 31
0.0
  0
LINE
  5
1f3
100
AcDbEntity
  8
0
 62
7
100
AcDbLine
 10
61.665042
 20
-90.510938
 30
0.0
 11
61.684176
 21
-90.514744
 31
0.0
  0
LINE
  5
1f4
100
AcDbEntity
  8
0
 62
7
100
AcDbLine
 10
61.684176
 20
-90.514744
 30
0.0
 11
61.700397
 21
-90.525583
 31
0.0
  0
LINE
  5
1f5
100
AcDbEntity
  8
0
 62
7
100
AcDbLine
 10
61.700397
 20
-90.525583
 30
0.0
 11
61.711236
 21
-90.541804
 31
0.0
  0
LINE
  5
1f6
100
AcDbEntity
  8
0
 62
7
100
AcDbLine
 10
61.711236
 20
-90.541804
 30
0.0
 11
61.715042
 21
-90.560938
 31
0.0
  0
LINE
  5
1f7
100
AcDbEntity
  8
0
 62
7
100
AcDbLine
 10
61.715042
 20
-90.560938
 30
0.0
 11
61.715042
 21
-92.260940
 31
0.0
  0
LINE
  5
1f8
100
AcDbEntity
  8
0
 62
7
100
AcDbLine
 10
61.715042
 20
-92.260940
 30
0.0
 11
61.711236
 21
-92.280074
 31
0.0
  0
LINE
  5
1f9
100
AcDbEntity
  8
0
 62
7
100
AcDbLine
 10
61.711236
 20
-92.280074
 30
0.0
 11
61.700397
 21
-92.296295
 31
0.0
  0
LINE
  5
1fa
100
AcDbEntity
  8
0
 62
7
100
AcDbLine
 10
61.700397
 20
-92.296295
 30
0.0
 11
61.684176
 21
-92.307134
 31
0.0
  0
LINE
  5
1fb
100
AcDbEntity
  8
0
 62
7
100
AcDbLine
 10
61.684176
 20
-92.307134
 30
0.0
 11
61.665042
 21
-92.310940
 31
0.0
  0
LINE
  5
1fc
100
AcDbEntity
  8
0
 62
7
100
AcDbLine
 10
61.665042
 20
-92.310940
 30
0.0
 11
59.965040
 21
-92.310940
 31
0.0
  0
SPLINE
  5
1fd
100
AcDbEntity
  8
0
 62
7
100
AcDbSpline
 70
8
 71
3
 72
8
 73
4
 74
0
 40
0
 40
0
 40
0
 40
0
 40
1
 40
1
 40
1
 40
1
 10
63.355043
 20
-90.510938
 30
0.0
 10
62.991026
 20
-90.510938
 30
0.0
 10
62.662854
 20
-90.730217
 30
0.0
 10
62.523551
 20
-91.066524
 30
0.0
  0
SPLINE
  5
1fe
100
AcDbEntity
  8
0
 62
7
100
AcDbSpline
 70
8
 71
3
 72
8
 73
4
 74
0
 40
0
 40
0
 40
0
 40
0
 40
1
 40
1
 40
1
 40
1
 10
62.523551
 20
-91.066524
 30
0.0
 10
62.384248
 20
-91.402831
 30
0.0
 10
62.461248
 20
-91.789937
 30
0.0
 10
62.718646
 20
-92.047336
 30
0.0
  0
SPLINE
  5
1ff
100
AcDbEntity
  8
0
 62
7
100
AcDbSpline
 70
8
 71
3
 72
8
 73
4
 74
0
 40
0
 40
0
 40
0
 40
0
 40
1
 40
1
 40
1
 40
1
 10
62.718646
 20
-92.047336
 30
0.0
 10
62.976045
 20
-92.304734
 30
0.0
 10
63.363151
 20
-92.381734
 30
0.0
 10
63.699458
 20
-92.242431
 30
0.0
  0
SPLINE
  5
200
100
AcDbEntity
  8
0
 62
7
100
AcDbSpline
 70
8
 71
3
 72
8
 73
4
 74
0
 40
0
 40
0
 40
0
 40
0
 40
1
 40
1
 40
1
 40
1
 10
63.699458
 20
-92.242431
 30
0.0
 10
64.035765
 20
-92.103128
 30
0.0
 10
64.255043
 20
-91.774955
 30
0.0
 10
64.255043
 20
-91.410939
 30
0.0
  0
SPLINE
  5
201
100
AcDbEntity
  8
0
 62
7
100
AcDbSpline
 70
8
 71
3
 72
8
 73
4
 74
0
 40
0
 40
0
 40
0
 40
0
 40
1
 40
1
 40
1
 40
1
 10
64.255043
 20
-91.410939
 30
0.0
 10
64.255043
 20
-91.172244
 30
0.0
 10
64.160222
 20
-90.943325
 30
0.0
 10
63.991439
 20
-90.774542
 30
0.0
  0
SPLINE
  5
202
100
AcDbEntity
  8
0
 62
7
100
AcDbSpline
 70
8
 71
3
 72
8
 73
4
 74
0
 40
0
 40
0
 40
0
 40
0
 40
1
 40
1
 40
1
 40
1
 10
63.991439
 20
-90.774542
 30
0.0
 10
63.822656
 20
-90.605760
 30
0.0
 10
63.593738
 20
-90.510938
 30
0.0
 10
63.355043
 20
-90.510938
 30
0.0
  0
LINE
  5
203
100
AcDbEntity
  8
0
 62
7
100
AcDbLine
 10
63.355043
 20
-90.510938
 30
0.0
 11
63.355043
 21
-90.510938
 31
0.0
  0
SPLINE
  5
204
100
AcDbEntity
  8
0
 62
7
100
AcDbSpline
 70
8
 71
3
 72
8
 73
4
 74
0
 40
0
 40
0
 40
0
 40
0
 40
1
 40
1
 40
1
 40
1
 10
65.895044
 20
-90.510938
 30
0.0
 10
65.531028
 20
-90.510938
 30
0.0
 10
65.202855
 20
-90.730217
 30
0.0
 10
65.063552
 20
-91.066524
 30
0.0
  0
SPLINE
  5
205
100
AcDbEntity
  8
0
 62
7
100
AcDbSpline
 70
8
 71
3
 72
8
 73
4
 74
0
 40
0
 40
0
 40
0
 40
0
 40
1
 40
1
 40
1
 40
1
 10
65.063552
 20
-91.066524
 30
0.0
 10
64.924249
 20
-91.402831
 30
0.0
 10
65.001249
 20
-91.789937
 30
0.0
 10
65.258648
 20
-92.047336
 30
0.0
  0
SPLINE
  5
206
100
AcDbEntity
  8
0
 62
7
100
AcDbSpline
 70
8
 71
3
 72
8
 73
4
 74
0
 40
0
 40
0
 40
0
 40
0
 40
1
 40
1
 40
1
 40
1
 10
65.258648
 20
-92.047336
 30
0.0
 10
65.516046
 20
-92.304734
 30
0.0
 10
65.903153
 20
-92.381734
 30
0.0
 10
66.239460
 20
-92.242431
 30
0.0
  0
SPLINE
  5
207
100
AcDbEntity
  8
0
 62
7
100
AcDbSpline
 70
8
 71
3
 72
8
 73
4
 74
0
 40
0
 40
0
 40
0
 40
0
 40
1
 40
1
 40
1
 40
1
 10
66.239460
 20
-92.242431
 30
0.0
 10
66.575767
 20
-92.103128
 30
0.0
 10
66.795045
 20
-91.774955
 30
0.0
 10
66.795045
 20
-91.410939
 30
0.0
  0
SPLINE
  5
208
100
AcDbEntity
  8
0
 62
7
100
AcDbSpline
 70
8
 71
3
 72
8
 73
4
 74
0
 40
0
 40
0
 40
0
 40
0
 40
1
 40
1
 40
1
 40
1
 10
66.795045
 20
-91.410939
 30
0.0
 10
66.795045
 20
-91.172244
 30
0.0
 10
66.700224
 20
-90.943325
 30
0.0
 10
66.531441
 20
-90.774542
 30
0.0
  0
SPLINE
  5
209
100
AcDbEntity
  8
0
 62
7
100
AcDbSpline
 70
8
 71
3
 72
8
 73
4
 74
0
 40
0
 40
0
 40
0
 40
0
 40
1
 40
1
 40
1
 40
1
 10
66.531441
 20
-90.774542
 30
0.0
 10
66.362658
 20
-90.605760
 30
0.0
 10
66.133739
 20
-90.510938
 30
0.0
 10
65.895044
 20
-90.510938
 30
0.0
  0
LINE
  5
20a
100
AcDbEntity
  8
0
 62
7
100
AcDbLine
 10
65.895044
 20
-90.510938
 30
0.0
 11
65.895044
 21
-90.510938
 31
0.0
  0
SPLINE
  5
20b
100
AcDbEntity
  8
0
 62
7
100
AcDbSpline
 70
8
 71
3
 72
8
 73
4
 74
0
 40
0
 40
0
 40
0
 40
0
 40
1
 40
1
 40
1
 40
1
 10
68.435046
 20
-90.510938
 30
0.0
 10
68.071030
 20
-90.510938
 30
0.0
 10
67.742857
 20
-90.730217
 30
0.0
 10
67.603554
 20
-91.066524
 30
0.0
  0
SPLINE
  5
20c
100
AcDbEntity
  8
0
 62
7
100
AcDbSpline
 70
8
 71
3
 72
8
 73
4
 74
0
 40
0
 40
0
 40
0
 40
0
 40
1
 40
1
 40
1
 40
1
 10
67.603554
 20
-91.066524
 30
0.0
 10
67.464251
 20
-91.402831
 30
0.0
 10
67.541251
 20
-91.789937
 30
0.0
 10
67.798650
 20
-92.047336
 30
0.0
  0
SPLINE
  5
20d
100
AcDbEntity
  8
0
 62
7
100
AcDbSpline
 70
8
 71
3
 72
8
 73
4
 74
0
 40
0
 40
0
 40
0
 40
0
 40
1
 40
1
 40
1
 40
1
 10
67.798650
 20
-92.047336
 30
0.0
 10
68.056048
 20
-92.304734
 30
0.0
 10
68.443154
 20
-92.381734
 30
0.0
 10
68.779461
 20
-92.242431
 30
0.0
  0
SPLINE
  5
20e
100
AcDbEntity
  8
0
 62
7
100
AcDbSpline
 70
8
 71
3
 72
8
 73
4
 74
0
 40
0
 40
0
 40
0
 40
0
 40
1
 40
1
 40
1
 40
1
 10
68.779461
 20
-92.242431
 30
0.0
 10
69.115769
 20
-92.103128
 30
0.0
 10
69.335047
 20
-91.774955
 30
0.0
 10
69.335047
 20
-91.410939
 30
0.0
  0
SPLINE
  5
20f
100
AcDbEntity
  8
0
 62
7
100
AcDbSpline
 70
8
 71
3
 72
8
 73
4
 74
0
 40
0
 40
0
 40
0
 40
0
 40
1
 40
1
 40
1
 40
1
 10
69.335047
 20
-91.410939
 30
0.0
 10
69.335047
 20
-90.913882
 30
0.0
 10
68.932103
 20
-90.510938
 30
0.0
 10
68.435046
 20
-90.510938
 30
0.0
  0
LINE
  5
210
100
AcDbEntity
  8
0
 62
7
100
AcDbLine
 10
68.435046
 20
-90.510938
 30
0.0
 11
68.435046
 21
-90.510938
 31
0.0
  0
SPLINE
  5
211
100
AcDbEntity
  8
0
 62
7
100
AcDbSpline
 70
8
 71
3
 72
8
 73
4
 74
0
 40
0
 40
0
 40
0
 40
0
 40
1
 40
1
 40
1
 40
1
 10
70.975048
 20
-90.510938
 30
0.0
 10
70.611032
 20
-90.510938
 30
0.0
 10
70.282859
 20
-90.730217
 30
0.0
 10
70.143556
 20
-91.066524
 30
0.0
  0
SPLINE
  5
212
100
AcDbEntity
  8
0
 62
7
100
AcDbSpline
 70
8
 71
3
 72
8
 73
4
 74
0
 40
0
 40
0
 40
0
 40
0
 40
1
 40
1
 40
1
 40
1
 10
70.143556
 20
-91.066524
 30
0.0
 10
70.004253
 20
-91.402831
 30
0.0
 10
70.081253
 20
-91.789937
 30
0.0
 10
70.338651
 20
-92.047336
 30
0.0
  0
SPLINE
  5
213
100
AcDbEntity
  8
0
 62
7
100
AcDbSpline
 70
8
 71
3
 72
8
 73
4
 74
0
 40
0
 40
0
 40
0
 40
0
 40
1
 40
1
 40
1
 40
1
 10
70.338651
 20
-92.047336
 30
0.0
 10
70.596050
 20
-92.304734
 30
0.0
 10
70.983156
 20
-92.381734
 30
0.0
 10
71.319463
 20
-92.242431
 30
0.0
  0
SPLINE
  5
214
100
AcDbEntity
  8
0
 62
7
100
AcDbSpline
 70
8
 71
3
 72
8
 73
4
 74
0
 40
0
 40
0
 40
0
 40
0
 40
1
 40
1
 40
1
 40
1
 10
71.319463
 20
-92.242431
 30
0.0
 10
71.655770
 20
-92.103128
 30
0.0
 10
71.875048
 20
-91.774955
 30
0.0
 10
71.875048
 20
-91.410939
 30
0.0
  0
SPLINE
  5
215
100
AcDbEntity
  8
0
 62
7
100
AcDbSpline
 70
8
 71
3
 72
8
 73
4
 74
0
 40
0
 40
0
 40
0
 40
0
 40
1
 40
1
 40
1
 40
1
 10
71.875048
 20
-91.410939
 30
0.0
 10
71.875048
 20
-90.913882
 30
0.0
 10
71.472104
 20
-90.510938
 30
0.0
 10
70.975048
 20
-90.510938
 30
0.0
  0
LINE
  5
216
100
AcDbEntity
  8
0
 62
7
100
AcDbLine
 10
70.975048
 20
-90.510938
 30
0.0
 11
70.975048
 21
-90.510938
 31
0.0
  0
SPLINE
  5
217
100
AcDbEntity
  8
0
 62
7
100
AcDbSpline
 70
8
 71
3
 72
8
 73
4
 74
0
 40
0
 40
0
 40
0
 40
0
 40
1
 40
1
 40
1
 40
1
 10
65.890044
 20
-74.330928
 30
0.0
 10
60.919478
 20
-74.330928
 30
0.0
 10
56.890038
 20
-78.360367
 30
0.0
 10
56.890038
 20
-83.330934
 30
0.0
  0
SPLINE
  5
218
100
AcDbEntity
  8
0
 62
7
100
AcDbSpline
 70
8
 71
3
 72
8
 73
4
 74
0
 40
0
 40
0
 40
0
 40
0
 40
1
 40
1
 40
1
 40
1
 10
56.890038
 20
-83.330934
 30
0.0
 10
56.890038
 20
-88.301500
 30
0.0
 10
60.919478
 20
-92.330940
 30
0.0
 10
65.890044
 20
-92.330940
 30
0.0
  0
SPLINE
  5
219
100
AcDbEntity
  8
0
 62
7
100
AcDbSpline
 70
8
 71
3
 72
8
 73
4
 74
0
 40
0
 40
0
 40
0
 40
0
 40
1
 40
1
 40
1
 40
1
 10
65.890044
 20
-92.330940
 30
0.0
 10
70.860610
 20
-92.330940
 30
0.0
 10
74.890050
 20
-88.301500
 30
0.0
 10
74.890050
 20
-83.330934
 30
0.0
  0
SPLINE
  5
21a
100
AcDbEntity
  8
0
 62
7
100
AcDbSpline
 70
8
 71
3
 72
8
 73
4
 74
0
 40
0
 40
0
 40
0
 40
0
 40
1
 40
1
 40
1
 40
1
 10
74.890050
 20
-83.330934
 30
0.0
 10
74.890050
 20
-80.943984
 30
0.0
 10
73.941838
 20
-78.654797
 30
0.0
 10
72.254010
 20
-76.966968
 30
0.0
  0
SPLINE
  5
21b
100
AcDbEntity
  8
0
 62
7
100
AcDbSpline
 70
8
 71
3
 72
8
 73
4
 74
0
 40
0
 40
0
 40
0
 40
0
 40
1
 40
1
 40
1
 40
1
 10
72.254010
 20
-76.966968
 30
0.0
 10
70.566181
 20
-75.279140
 30
0.0
 10
68.276994
 20
-74.330928
 30
0.0
 10
65.890044
 20
-74.330928
 30
0.0
  0
LINE
  5
21c
100
AcDbEntity
  8
0
 62
7
100
AcDbLine
 10
65.890044
 20
-74.330928
 30
0.0
 11
65.890044
 21
-74.330928
 31
0.0
  0
SPLINE
  5
21d
100
AcDbEntity
  8
0
 62
7
100
AcDbSpline
 70
8
 71
3
 72
8
 73
4
 74
0
 40
0
 40
0
 40
0
 40
0
 40
1
 40
1
 40
1
 40
1
 10
74.890051
 20
-78.230930
 30
0.0
 10
74.890051
 20
-77.126360
 30
0.0
 10
73.994620
 20
-76.230928
 30
0.0
 10
72.890050
 20
-76.230928
 30
0.0
  0
LINE
  5
21e
100
AcDbEntity
  8
0
 62
7
100
AcDbLine
 10
69.890047
 20
-86.910936
 30
0.0
 11
61.890042
 21
-86.910936
 31
0.0
  0
LINE
  5
21f
100
AcDbEntity
  8
0
 62
7
100
AcDbLine
 10
61.890042
 20
-86.910936
 30
0.0
 11
61.890042
 21
-84.910935
 31
0.0
  0
SPLINE
  5
220
100
AcDbEntity
  8
0
 62
7
100
AcDbSpline
 70
8
 71
3
 72
8
 73
4
 74
0
 40
0
 40
0
 40
0
 40
0
 40
1
 40
1
 40
1
 40
1
 10
56.890039
 20
-91.230939
 30
0.0
 10
56.890039
 20
-91.761372
 30
0.0
 10
57.100753
 20
-92.270080
 30
0.0
 10
57.475826
 20
-92.645153
 30
0.0
  0
SPLINE
  5
221
100
AcDbEntity
  8
0
 62
7
100
AcDbSpline
 70
8
 71
3
 72
8
 73
4
 74
0
 40
0
 40
0
 40
0
 40
0
 40
1
 40
1
 40
1
 40
1
 10
57.475826
 20
-92.645153
 30
0.0
 10
57.850899
 20
-93.020226
 30
0.0
 10
58.359607
 20
-93.230940
 30
0.0
 10
58.890041
 20
-93.230939
 30
0.0
  0
LINE
  5
222
100
AcDbEntity
  8
0
 62
7
100
AcDbLine
 10
74.890050
 20
-78.230930
 30
0.0
 11
74.890050
 21
-91.230939
 31
0.0
  0
LINE
  5
223
100
AcDbEntity
  8
0
 62
7
100
AcDbLine
 10
61.890042
 20
-84.910935
 30
0.0
 11
69.890047
 21
-84.910935
 31
0.0
  0
LINE
  5
224
100
AcDbEntity
  8
0
 62
7
100
AcDbLine
 10
58.890040
 20
-76.230929
 30
0.0
 11
72.890050
 21
-76.230928
 31
0.0
  0
LINE
  5
225
100
AcDbEntity
  8
0
 62
7
100
AcDbLine
 10
72.890050
 20
-93.230941
 30
0.0
 11
58.890040
 21
-93.230940
 31
0.0
  0
LINE
  5
226
100
AcDbEntity
  8
0
 62
7
100
AcDbLine
 10
56.890038
 20
-91.230939
 30
0.0
 11
56.890038
 21
-78.230930
 31
0.0
  0
SPLINE
  5
227
100
AcDbEntity
  8
0
 62
7
100
AcDbSpline
 70
8
 71
3
 72
8
 73
4
 74
0
 40
0
 40
0
 40
0
 40
0
 40
1
 40
1
 40
1
 40
1
 10
58.890040
 20
-76.230929
 30
0.0
 10
58.359606
 20
-76.230929
 30
0.0
 10
57.850898
 20
-76.441643
 30
0.0
 10
57.475825
 20
-76.816716
 30
0.0
  0
SPLINE
  5
228
100
AcDbEntity
  8
0
 62
7
100
AcDbSpline
 70
8
 71
3
 72
8
 73
4
 74
0
 40
0
 40
0
 40
0
 40
0
 40
1
 40
1
 40
1
 40
1
 10
57.475825
 20
-76.816716
 30
0.0
 10
57.100752
 20
-77.191789
 30
0.0
 10
56.890038
 20
-77.700497
 30
0.0
 10
56.890038
 20
-78.230930
 30
0.0
  0
SPLINE
  5
229
100
AcDbEntity
  8
0
 62
7
100
AcDbSpline
 70
8
 71
3
 72
8
 73
4
 74
0
 40
0
 40
0
 40
0
 40
0
 40
1
 40
1
 40
1
 40
1
 10
72.890050
 20
-93.230940
 30
0.0
 10
73.994620
 20
-93.230940
 30
0.0
 10
74.890050
 20
-92.335509
 30
0.0
 10
74.890050
 20
-91.230939
 30
0.0
  0
LINE
  5
22a
100
AcDbEntity
  8
0
 62
7
100
AcDbLine
 10
69.890047
 20
-84.910935
 30
0.0
 11
69.890047
 21
-86.910936
 31
0.0
  0
ENDSEC
  0
SECTION
  2
OBJECTS
  0
DICTIONARY
  5
C
330
0
100
AcDbDictionary
  3
ACAD_GROUP
350
D
  3
ACAD_MLINESTYLE
350
17
  0
DICTIONARY
  5
D
330
C
100
AcDbDictionary
  0
DICTIONARY
  5
1A
330
C
100
AcDbDictionary
  0
DICTIONARY
  5
17
330
C
100
AcDbDictionary
  3
STANDARD
350
18
  0
DICTIONARY
  5
19
330
C
100
AcDbDictionary
  0
ENDSEC
  0
EOF
