  0
SECTION
  2
HEADER
  9
$ACADVER
  1
AC1014
  9
$HANDSEED
  5
FFFF
  9
$MEASUREMENT
 70
     1
  0
ENDSEC
  0
SECTION
  2
TABLES
  0
TABLE
  2
VPORT
  5
8
330
0
100
AcDbSymbolTable
 70
     4
  0
VPORT
  5
2E
330
8
100
AcDbSymbolTableRecord
100
AcDbViewportTableRecord
  2
*ACTIVE
 70
     0
 10
0.0
 20
0.0
 11
1.0
 21
1.0
 12
210.0
 22
148.5
 13
0.0
 23
0.0
 14
10.0
 24
10.0
 15
10.0
 25
10.0
 16
0.0
 26
0.0
 36
1.0
 17
0.0
 27
0.0
 37
0.0
 40
341.0
 41
1.24
 42
50.0
 43
0.0
 44
0.0
 50
0.0
 51
0.0
 71
     0
 72
   100
 73
     1
 74
     3
 75
     0
 76
     0
 77
     0
 78
     0
  0
ENDTAB
  0
TABLE
  2
LTYPE
  5
5
330
0
100
AcDbSymbolTable
 70
     1
  0
LTYPE
  5
14
330
5
100
AcDbSymbolTableRecord
100
AcDbLinetypeTableRecord
  2
BYBLOCK
 70
     0
  3

 72
    65
 73
     0
 40
0.0
  0
LTYPE
  5
15
330
5
100
AcDbSymbolTableRecord
100
AcDbLinetypeTableRecord
  2
BYLAYER
 70
     0
  3

 72
    65
 73
     0
 40
0.0
  0
LTYPE
  5
16
330
5
100
AcDbSymbolTableRecord
100
AcDbLinetypeTableRecord
  2
CONTINUOUS
 70
     0
  3
Solid line
 72
    65
 73
     0
 40
0.0
  0
ENDTAB
  0
TABLE
  2
LAYER
  5
2
100
AcDbSymbolTable
 70
1
  0
LAYER
  5
50
100
AcDbSymbolTableRecord
100
AcDbLayerTableRecord
  2
0
 70
0
  6
CONTINUOUS
  0
ENDTAB
  0
TABLE
  2
STYLE
  5
3
330
0
100
AcDbSymbolTable
 70
     1
  0
STYLE
  5
11
330
3
100
AcDbSymbolTableRecord
100
AcDbTextStyleTableRecord
  2
STANDARD
 70
     0
 40
0.0
 41
1.0
 50
0.0
 71
     0
 42
2.5
  3
txt
  4

  0
ENDTAB
  0
TABLE
  2
VIEW
  5
6
330
0
100
AcDbSymbolTable
 70
     0
  0
ENDTAB
  0
TABLE
  2
UCS
  5
7
330
0
100
AcDbSymbolTable
 70
     0
  0
ENDTAB
  0
TABLE
  2
APPID
  5
9
330
0
100
AcDbSymbolTable
 70
     2
  0
APPID
  5
12
330
9
100
AcDbSymbolTableRecord
100
AcDbRegAppTableRecord
  2
ACAD
 70
     0
  0
ENDTAB
  0
TABLE
  2
DIMSTYLE
  5
A
330
0
100
AcDbSymbolTable
 70
     1
  0
DIMSTYLE
105
27
330
A
100
AcDbSymbolTableRecord
100
AcDbDimStyleTableRecord
  2
ISO-25
 70
     0
  3

  4

  5

  6

  7

 40
1.0
 41
2.5
 42
0.625
 43
3.75
 44
1.25
 45
0.0
 46
0.0
 47
0.0
 48
0.0
140
2.5
141
2.5
142
0.0
143
0.03937007874016
144
1.0
145
0.0
146
1.0
147
0.625
 71
     0
 72
     0
 73
     0
 74
     0
 75
     0
 76
     0
 77
     1
 78
     8
170
     0
171
     3
172
     1
173
     0
174
     0
175
     0
176
     0
177
     0
178
     0
270
     2
271
     2
272
     2
273
     2
274
     3
340
11
275
     0
280
     0
281
     0
282
     0
283
     0
284
     8
285
     0
286
     0
287
     3
288
     0
  0
ENDTAB
  0
TABLE
  2
BLOCK_RECORD
  5
1
330
0
100
AcDbSymbolTable
 70
     1
  0
BLOCK_RECORD
  5
1F
330
1
100
AcDbSymbolTableRecord
100
AcDbBlockTableRecord
  2
*MODEL_SPACE
  0
BLOCK_RECORD
  5
1B
330
1
100
AcDbSymbolTableRecord
100
AcDbBlockTableRecord
  2
*PAPER_SPACE
  0
ENDTAB
  0
ENDSEC
  0
SECTION
  2
BLOCKS
  0
BLOCK
  5
20
330
1F
100
AcDbEntity
  8
0
100
AcDbBlockBegin
  2
*MODEL_SPACE
 70
     0
 10
0.0
 20
0.0
 30
0.0
  3
*MODEL_SPACE
  1

  0
ENDBLK
  5
21
330
1F
100
AcDbEntity
  8
0
100
AcDbBlockEnd
  0
BLOCK
  5
1C
330
1B
100
AcDbEntity
 67
     1
  8
0
100
AcDbBlockBegin
  2
*PAPER_SPACE
  1

  0
ENDBLK
  5
1D
330
1B
100
AcDbEntity
 67
     1
  8
0
100
AcDbBlockEnd
  0
ENDSEC
  0
SECTION
  2
ENTITIES
  0
LWPOLYLINE
  5
100
100
AcDbEntity
  8
0
 62
7
100
AcDbPolyline
 90
2
 70
0
 10
328.048620
 20
-78.830099
 30
0.0
 10
328.048620
 20
-72.830619
 30
0.0
  0
LWPOLYLINE
  5
101
100
AcDbEntity
  8
0
 62
7
100
AcDbPolyline
 90
2
 70
0
 10
320.047620
 20
-78.830099
 30
0.0
 10
328.048620
 20
-78.830099
 30
0.0
  0
LWPOLYLINE
  5
102
100
AcDbEntity
  8
0
 62
7
100
AcDbPolyline
 90
2
 70
0
 10
320.047620
 20
-72.830619
 30
0.0
 10
320.047620
 20
-78.830099
 30
0.0
  0
SPLINE
  5
103
100
AcDbEntity
  8
0
 62
7
100
AcDbSpline
 70
8
 71
3
 72
8
 73
4
 74
0
 40
0
 40
0
 40
0
 40
0
 40
1
 40
1
 40
1
 40
1
 10
211.951824
 20
-75.332720
 30
0.0
 10
211.304685
 20
-75.332720
 30
0.0
 10
210.721267
 20
-75.722547
 30
0.0
 10
210.473617
 20
-76.320426
 30
0.0
  0
SPLINE
  5
104
100
AcDbEntity
  8
0
 62
7
100
AcDbSpline
 70
8
 71
3
 72
8
 73
4
 74
0
 40
0
 40
0
 40
0
 40
0
 40
1
 40
1
 40
1
 40
1
 10
210.473617
 20
-76.320426
 30
0.0
 10
210.225968
 20
-76.918304
 30
0.0
 10
210.362857
 20
-77.606493
 30
0.0
 10
210.820454
 20
-78.064089
 30
0.0
  0
SPLINE
  5
105
100
AcDbEntity
  8
0
 62
7
100
AcDbSpline
 70
8
 71
3
 72
8
 73
4
 74
0
 40
0
 40
0
 40
0
 40
0
 40
1
 40
1
 40
1
 40
1
 10
210.820454
 20
-78.064089
 30
0.0
 10
211.278050
 20
-78.521686
 30
0.0
 10
211.966238
 20
-78.658575
 30
0.0
 10
212.564117
 20
-78.410926
 30
0.0
  0
SPLINE
  5
106
100
AcDbEntity
  8
0
 62
7
100
AcDbSpline
 70
8
 71
3
 72
8
 73
4
 74
0
 40
0
 40
0
 40
0
 40
0
 40
1
 40
1
 40
1
 40
1
 10
212.564117
 20
-78.410926
 30
0.0
 10
213.161996
 20
-78.163276
 30
0.0
 10
213.551823
 20
-77.579858
 30
0.0
 10
213.551823
 20
-76.932719
 30
0.0
  0
SPLINE
  5
107
100
AcDbEntity
  8
0
 62
7
100
AcDbSpline
 70
8
 71
3
 72
8
 73
4
 74
0
 40
0
 40
0
 40
0
 40
0
 40
1
 40
1
 40
1
 40
1
 10
213.551823
 20
-76.932719
 30
0.0
 10
213.551823
 20
-76.508373
 30
0.0
 10
213.383252
 20
-76.101407
 30
0.0
 10
213.083194
 20
-75.801348
 30
0.0
  0
SPLINE
  5
108
100
AcDbEntity
  8
0
 62
7
100
AcDbSpline
 70
8
 71
3
 72
8
 73
4
 74
0
 40
0
 40
0
 40
0
 40
0
 40
1
 40
1
 40
1
 40
1
 10
213.083194
 20
-75.801348
 30
0.0
 10
212.783136
 20
-75.501290
 30
0.0
 10
212.376170
 20
-75.332720
 30
0.0
 10
211.951824
 20
-75.332720
 30
0.0
  0
LWPOLYLINE
  5
109
100
AcDbEntity
  8
0
 62
7
100
AcDbPolyline
 90
2
 70
0
 10
320.047620
 20
-72.830619
 30
0.0
 10
328.048620
 20
-72.830619
 30
0.0
  0
SPLINE
  5
10a
100
AcDbEntity
  8
0
 62
7
100
AcDbSpline
 70
8
 71
3
 72
8
 73
4
 74
0
 40
0
 40
0
 40
0
 40
0
 40
1
 40
1
 40
1
 40
1
 10
229.811326
 20
-75.332720
 30
0.0
 10
229.164187
 20
-75.332720
 30
0.0
 10
228.580769
 20
-75.722547
 30
0.0
 10
228.333119
 20
-76.320426
 30
0.0
  0
SPLINE
  5
10b
100
AcDbEntity
  8
0
 62
7
100
AcDbSpline
 70
8
 71
3
 72
8
 73
4
 74
0
 40
0
 40
0
 40
0
 40
0
 40
1
 40
1
 40
1
 40
1
 10
228.333119
 20
-76.320426
 30
0.0
 10
228.085470
 20
-76.918304
 30
0.0
 10
228.222359
 20
-77.606493
 30
0.0
 10
228.679956
 20
-78.064089
 30
0.0
  0
SPLINE
  5
10c
100
AcDbEntity
  8
0
 62
7
100
AcDbSpline
 70
8
 71
3
 72
8
 73
4
 74
0
 40
0
 40
0
 40
0
 40
0
 40
1
 40
1
 40
1
 40
1
 10
228.679956
 20
-78.064089
 30
0.0
 10
229.137552
 20
-78.521686
 30
0.0
 10
229.825740
 20
-78.658575
 30
0.0
 10
230.423619
 20
-78.410926
 30
0.0
  0
SPLINE
  5
10d
100
AcDbEntity
  8
0
 62
7
100
AcDbSpline
 70
8
 71
3
 72
8
 73
4
 74
0
 40
0
 40
0
 40
0
 40
0
 40
1
 40
1
 40
1
 40
1
 10
230.423619
 20
-78.410926
 30
0.0
 10
231.021498
 20
-78.163276
 30
0.0
 10
231.411325
 20
-77.579858
 30
0.0
 10
231.411325
 20
-76.932719
 30
0.0
  0
SPLINE
  5
10e
100
AcDbEntity
  8
0
 62
7
100
AcDbSpline
 70
8
 71
3
 72
8
 73
4
 74
0
 40
0
 40
0
 40
0
 40
0
 40
1
 40
1
 40
1
 40
1
 10
231.411325
 20
-76.932719
 30
0.0
 10
231.411325
 20
-76.508373
 30
0.0
 10
231.242754
 20
-76.101407
 30
0.0
 10
230.942696
 20
-75.801348
 30
0.0
  0
SPLINE
  5
10f
100
AcDbEntity
  8
0
 62
7
100
AcDbSpline
 70
8
 71
3
 72
8
 73
4
 74
0
 40
0
 40
0
 40
0
 40
0
 40
1
 40
1
 40
1
 40
1
 10
230.942696
 20
-75.801348
 30
0.0
 10
230.642638
 20
-75.501290
 30
0.0
 10
230.235672
 20
-75.332720
 30
0.0
 10
229.811326
 20
-75.332720
 30
0.0
  0
LWPOLYLINE
  5
110
100
AcDbEntity
  8
0
 62
7
100
AcDbPolyline
 90
1
 70
1
 10
211.951824
 20
-75.332720
 30
0.0
  0
LWPOLYLINE
  5
111
100
AcDbEntity
  8
0
 62
7
100
AcDbPolyline
 90
1
 70
1
 10
229.811326
 20
-75.332720
 30
0.0
  0
SPLINE
  5
112
100
AcDbEntity
  8
0
 62
7
100
AcDbSpline
 70
8
 71
3
 72
8
 73
4
 74
0
 40
0
 40
0
 40
0
 40
0
 40
1
 40
1
 40
1
 40
1
 10
60.999878
 20
-77.048871
 30
0.0
 10
60.554969
 20
-77.048871
 30
0.0
 10
60.153869
 20
-77.316877
 30
0.0
 10
59.983610
 20
-77.727919
 30
0.0
  0
SPLINE
  5
113
100
AcDbEntity
  8
0
 62
7
100
AcDbSpline
 70
8
 71
3
 72
8
 73
4
 74
0
 40
0
 40
0
 40
0
 40
0
 40
1
 40
1
 40
1
 40
1
 10
59.983610
 20
-77.727919
 30
0.0
 10
59.813351
 20
-78.138961
 30
0.0
 10
59.907462
 20
-78.612091
 30
0.0
 10
60.222060
 20
-78.926689
 30
0.0
  0
SPLINE
  5
114
100
AcDbEntity
  8
0
 62
7
100
AcDbSpline
 70
8
 71
3
 72
8
 73
4
 74
0
 40
0
 40
0
 40
0
 40
0
 40
1
 40
1
 40
1
 40
1
 10
60.222060
 20
-78.926689
 30
0.0
 10
60.536658
 20
-79.241286
 30
0.0
 10
61.009788
 20
-79.335398
 30
0.0
 10
61.420830
 20
-79.165139
 30
0.0
  0
SPLINE
  5
115
100
AcDbEntity
  8
0
 62
7
100
AcDbSpline
 70
8
 71
3
 72
8
 73
4
 74
0
 40
0
 40
0
 40
0
 40
0
 40
1
 40
1
 40
1
 40
1
 10
61.420830
 20
-79.165139
 30
0.0
 10
61.831872
 20
-78.994880
 30
0.0
 10
62.099878
 20
-78.593779
 30
0.0
 10
62.099878
 20
-78.148871
 30
0.0
  0
SPLINE
  5
116
100
AcDbEntity
  8
0
 62
7
100
AcDbSpline
 70
8
 71
3
 72
8
 73
4
 74
0
 40
0
 40
0
 40
0
 40
0
 40
1
 40
1
 40
1
 40
1
 10
62.099878
 20
-78.148871
 30
0.0
 10
62.099878
 20
-77.857133
 30
0.0
 10
61.983986
 20
-77.577343
 30
0.0
 10
61.777696
 20
-77.371053
 30
0.0
  0
SPLINE
  5
117
100
AcDbEntity
  8
0
 62
7
100
AcDbSpline
 70
8
 71
3
 72
8
 73
4
 74
0
 40
0
 40
0
 40
0
 40
0
 40
1
 40
1
 40
1
 40
1
 10
61.777696
 20
-77.371053
 30
0.0
 10
61.571406
 20
-77.164763
 30
0.0
 10
61.291616
 20
-77.048871
 30
0.0
 10
60.999878
 20
-77.048871
 30
0.0
  0
LWPOLYLINE
  5
118
100
AcDbEntity
  8
0
 62
7
100
AcDbPolyline
 90
2
 70
0
 10
217.197940
 20
-71.370119
 30
0.0
 10
224.563940
 20
-71.370119
 30
0.0
  0
SPLINE
  5
119
100
AcDbEntity
  8
0
 62
7
100
AcDbSpline
 70
8
 71
3
 72
8
 73
4
 74
0
 40
0
 40
0
 40
0
 40
0
 40
1
 40
1
 40
1
 40
1
 10
60.999878
 20
-203.048873
 30
0.0
 10
60.554969
 20
-203.048873
 30
0.0
 10
60.153869
 20
-203.316879
 30
0.0
 10
59.983610
 20
-203.727921
 30
0.0
  0
SPLINE
  5
11a
100
AcDbEntity
  8
0
 62
7
100
AcDbSpline
 70
8
 71
3
 72
8
 73
4
 74
0
 40
0
 40
0
 40
0
 40
0
 40
1
 40
1
 40
1
 40
1
 10
59.983610
 20
-203.727921
 30
0.0
 10
59.813351
 20
-204.138963
 30
0.0
 10
59.907462
 20
-204.612093
 30
0.0
 10
60.222060
 20
-204.926691
 30
0.0
  0
SPLINE
  5
11b
100
AcDbEntity
  8
0
 62
7
100
AcDbSpline
 70
8
 71
3
 72
8
 73
4
 74
0
 40
0
 40
0
 40
0
 40
0
 40
1
 40
1
 40
1
 40
1
 10
60.222060
 20
-204.926691
 30
0.0
 10
60.536658
 20
-205.241288
 30
0.0
 10
61.009788
 20
-205.335400
 30
0.0
 10
61.420830
 20
-205.165141
 30
0.0
  0
SPLINE
  5
11c
100
AcDbEntity
  8
0
 62
7
100
AcDbSpline
 70
8
 71
3
 72
8
 73
4
 74
0
 40
0
 40
0
 40
0
 40
0
 40
1
 40
1
 40
1
 40
1
 10
61.420830
 20
-205.165141
 30
0.0
 10
61.831872
 20
-204.994882
 30
0.0
 10
62.099878
 20
-204.593781
 30
0.0
 10
62.099878
 20
-204.148873
 30
0.0
  0
SPLINE
  5
11d
100
AcDbEntity
  8
0
 62
7
100
AcDbSpline
 70
8
 71
3
 72
8
 73
4
 74
0
 40
0
 40
0
 40
0
 40
0
 40
1
 40
1
 40
1
 40
1
 10
62.099878
 20
-204.148873
 30
0.0
 10
62.099878
 20
-203.857135
 30
0.0
 10
61.983986
 20
-203.577345
 30
0.0
 10
61.777696
 20
-203.371055
 30
0.0
  0
SPLINE
  5
11e
100
AcDbEntity
  8
0
 62
7
100
AcDbSpline
 70
8
 71
3
 72
8
 73
4
 74
0
 40
0
 40
0
 40
0
 40
0
 40
1
 40
1
 40
1
 40
1
 10
61.777696
 20
-203.371055
 30
0.0
 10
61.571406
 20
-203.164765
 30
0.0
 10
61.291616
 20
-203.048873
 30
0.0
 10
60.999878
 20
-203.048873
 30
0.0
  0
LWPOLYLINE
  5
11f
100
AcDbEntity
  8
0
 62
7
100
AcDbPolyline
 90
1
 70
1
 10
60.999878
 20
-77.048871
 30
0.0
  0
SPLINE
  5
120
100
AcDbEntity
  8
0
 62
7
100
AcDbSpline
 70
8
 71
3
 72
8
 73
4
 74
0
 40
0
 40
0
 40
0
 40
0
 40
1
 40
1
 40
1
 40
1
 10
244.890036
 20
-77.280773
 30
0.0
 10
244.445127
 20
-77.280773
 30
0.0
 10
244.044027
 20
-77.548779
 30
0.0
 10
243.873768
 20
-77.959821
 30
0.0
  0
SPLINE
  5
121
100
AcDbEntity
  8
0
 62
7
100
AcDbSpline
 70
8
 71
3
 72
8
 73
4
 74
0
 40
0
 40
0
 40
0
 40
0
 40
1
 40
1
 40
1
 40
1
 10
243.873768
 20
-77.959821
 30
0.0
 10
243.703509
 20
-78.370863
 30
0.0
 10
243.797620
 20
-78.843993
 30
0.0
 10
244.112218
 20
-79.158591
 30
0.0
  0
SPLINE
  5
122
100
AcDbEntity
  8
0
 62
7
100
AcDbSpline
 70
8
 71
3
 72
8
 73
4
 74
0
 40
0
 40
0
 40
0
 40
0
 40
1
 40
1
 40
1
 40
1
 10
244.112218
 20
-79.158591
 30
0.0
 10
244.426816
 20
-79.473188
 30
0.0
 10
244.899946
 20
-79.567300
 30
0.0
 10
245.310988
 20
-79.397041
 30
0.0
  0
SPLINE
  5
123
100
AcDbEntity
  8
0
 62
7
100
AcDbSpline
 70
8
 71
3
 72
8
 73
4
 74
0
 40
0
 40
0
 40
0
 40
0
 40
1
 40
1
 40
1
 40
1
 10
245.310988
 20
-79.397041
 30
0.0
 10
245.722030
 20
-79.226782
 30
0.0
 10
245.990036
 20
-78.825681
 30
0.0
 10
245.990036
 20
-78.380773
 30
0.0
  0
SPLINE
  5
124
100
AcDbEntity
  8
0
 62
7
100
AcDbSpline
 70
8
 71
3
 72
8
 73
4
 74
0
 40
0
 40
0
 40
0
 40
0
 40
1
 40
1
 40
1
 40
1
 10
245.990036
 20
-78.380773
 30
0.0
 10
245.990036
 20
-77.773259
 30
0.0
 10
245.497549
 20
-77.280773
 30
0.0
 10
244.890036
 20
-77.280773
 30
0.0
  0
LWPOLYLINE
  5
125
100
AcDbEntity
  8
0
 62
7
100
AcDbPolyline
 90
1
 70
1
 10
60.999878
 20
-203.048873
 30
0.0
  0
SPLINE
  5
126
100
AcDbEntity
  8
0
 62
7
100
AcDbSpline
 70
8
 71
3
 72
8
 73
4
 74
0
 40
0
 40
0
 40
0
 40
0
 40
1
 40
1
 40
1
 40
1
 10
244.000020
 20
-203.048873
 30
0.0
 10
243.555111
 20
-203.048873
 30
0.0
 10
243.154011
 20
-203.316879
 30
0.0
 10
242.983752
 20
-203.727921
 30
0.0
  0
SPLINE
  5
127
100
AcDbEntity
  8
0
 62
7
100
AcDbSpline
 70
8
 71
3
 72
8
 73
4
 74
0
 40
0
 40
0
 40
0
 40
0
 40
1
 40
1
 40
1
 40
1
 10
242.983752
 20
-203.727921
 30
0.0
 10
242.813493
 20
-204.138963
 30
0.0
 10
242.907604
 20
-204.612093
 30
0.0
 10
243.222202
 20
-204.926691
 30
0.0
  0
SPLINE
  5
128
100
AcDbEntity
  8
0
 62
7
100
AcDbSpline
 70
8
 71
3
 72
8
 73
4
 74
0
 40
0
 40
0
 40
0
 40
0
 40
1
 40
1
 40
1
 40
1
 10
243.222202
 20
-204.926691
 30
0.0
 10
243.536800
 20
-205.241288
 30
0.0
 10
244.009930
 20
-205.335400
 30
0.0
 10
244.420972
 20
-205.165141
 30
0.0
  0
SPLINE
  5
129
100
AcDbEntity
  8
0
 62
7
100
AcDbSpline
 70
8
 71
3
 72
8
 73
4
 74
0
 40
0
 40
0
 40
0
 40
0
 40
1
 40
1
 40
1
 40
1
 10
244.420972
 20
-205.165141
 30
0.0
 10
244.832014
 20
-204.994882
 30
0.0
 10
245.100020
 20
-204.593781
 30
0.0
 10
245.100020
 20
-204.148873
 30
0.0
  0
SPLINE
  5
12a
100
AcDbEntity
  8
0
 62
7
100
AcDbSpline
 70
8
 71
3
 72
8
 73
4
 74
0
 40
0
 40
0
 40
0
 40
0
 40
1
 40
1
 40
1
 40
1
 10
245.100020
 20
-204.148873
 30
0.0
 10
245.100020
 20
-203.541359
 30
0.0
 10
244.607533
 20
-203.048873
 30
0.0
 10
244.000020
 20
-203.048873
 30
0.0
  0
LWPOLYLINE
  5
12b
100
AcDbEntity
  8
0
 62
7
100
AcDbPolyline
 90
1
 70
1
 10
244.890036
 20
-77.280773
 30
0.0
  0
SPLINE
  5
12c
100
AcDbEntity
  8
0
 62
7
100
AcDbSpline
 70
8
 71
3
 72
8
 73
4
 74
0
 40
0
 40
0
 40
0
 40
0
 40
1
 40
1
 40
1
 40
1
 10
376.999500
 20
-77.048871
 30
0.0
 10
376.554591
 20
-77.048871
 30
0.0
 10
376.153491
 20
-77.316877
 30
0.0
 10
375.983232
 20
-77.727919
 30
0.0
  0
SPLINE
  5
12d
100
AcDbEntity
  8
0
 62
7
100
AcDbSpline
 70
8
 71
3
 72
8
 73
4
 74
0
 40
0
 40
0
 40
0
 40
0
 40
1
 40
1
 40
1
 40
1
 10
375.983232
 20
-77.727919
 30
0.0
 10
375.812973
 20
-78.138961
 30
0.0
 10
375.907084
 20
-78.612091
 30
0.0
 10
376.221682
 20
-78.926689
 30
0.0
  0
SPLINE
  5
12e
100
AcDbEntity
  8
0
 62
7
100
AcDbSpline
 70
8
 71
3
 72
8
 73
4
 74
0
 40
0
 40
0
 40
0
 40
0
 40
1
 40
1
 40
1
 40
1
 10
376.221682
 20
-78.926689
 30
0.0
 10
376.536280
 20
-79.241286
 30
0.0
 10
377.009410
 20
-79.335398
 30
0.0
 10
377.420452
 20
-79.165139
 30
0.0
  0
SPLINE
  5
12f
100
AcDbEntity
  8
0
 62
7
100
AcDbSpline
 70
8
 71
3
 72
8
 73
4
 74
0
 40
0
 40
0
 40
0
 40
0
 40
1
 40
1
 40
1
 40
1
 10
377.420452
 20
-79.165139
 30
0.0
 10
377.831494
 20
-78.994880
 30
0.0
 10
378.099500
 20
-78.593779
 30
0.0
 10
378.099500
 20
-78.148871
 30
0.0
  0
SPLINE
  5
130
100
AcDbEntity
  8
0
 62
7
100
AcDbSpline
 70
8
 71
3
 72
8
 73
4
 74
0
 40
0
 40
0
 40
0
 40
0
 40
1
 40
1
 40
1
 40
1
 10
378.099500
 20
-78.148871
 30
0.0
 10
378.099500
 20
-77.857133
 30
0.0
 10
377.983608
 20
-77.577343
 30
0.0
 10
377.777318
 20
-77.371053
 30
0.0
  0
SPLINE
  5
131
100
AcDbEntity
  8
0
 62
7
100
AcDbSpline
 70
8
 71
3
 72
8
 73
4
 74
0
 40
0
 40
0
 40
0
 40
0
 40
1
 40
1
 40
1
 40
1
 10
377.777318
 20
-77.371053
 30
0.0
 10
377.571028
 20
-77.164763
 30
0.0
 10
377.291238
 20
-77.048871
 30
0.0
 10
376.999500
 20
-77.048871
 30
0.0
  0
LWPOLYLINE
  5
132
100
AcDbEntity
  8
0
 62
7
100
AcDbPolyline
 90
1
 70
1
 10
244.000020
 20
-203.048873
 30
0.0
  0
SPLINE
  5
133
100
AcDbEntity
  8
0
 62
7
100
AcDbSpline
 70
8
 71
3
 72
8
 73
4
 74
0
 40
0
 40
0
 40
0
 40
0
 40
1
 40
1
 40
1
 40
1
 10
375.998740
 20
-203.048873
 30
0.0
 10
375.553831
 20
-203.048873
 30
0.0
 10
375.152731
 20
-203.316879
 30
0.0
 10
374.982472
 20
-203.727921
 30
0.0
  0
SPLINE
  5
134
100
AcDbEntity
  8
0
 62
7
100
AcDbSpline
 70
8
 71
3
 72
8
 73
4
 74
0
 40
0
 40
0
 40
0
 40
0
 40
1
 40
1
 40
1
 40
1
 10
374.982472
 20
-203.727921
 30
0.0
 10
374.812213
 20
-204.138963
 30
0.0
 10
374.906324
 20
-204.612093
 30
0.0
 10
375.220922
 20
-204.926691
 30
0.0
  0
SPLINE
  5
135
100
AcDbEntity
  8
0
 62
7
100
AcDbSpline
 70
8
 71
3
 72
8
 73
4
 74
0
 40
0
 40
0
 40
0
 40
0
 40
1
 40
1
 40
1
 40
1
 10
375.220922
 20
-204.926691
 30
0.0
 10
375.535520
 20
-205.241288
 30
0.0
 10
376.008650
 20
-205.335400
 30
0.0
 10
376.419692
 20
-205.165141
 30
0.0
  0
SPLINE
  5
136
100
AcDbEntity
  8
0
 62
7
100
AcDbSpline
 70
8
 71
3
 72
8
 73
4
 74
0
 40
0
 40
0
 40
0
 40
0
 40
1
 40
1
 40
1
 40
1
 10
376.419692
 20
-205.165141
 30
0.0
 10
376.830734
 20
-204.994882
 30
0.0
 10
377.098740
 20
-204.593781
 30
0.0
 10
377.098740
 20
-204.148873
 30
0.0
  0
SPLINE
  5
137
100
AcDbEntity
  8
0
 62
7
100
AcDbSpline
 70
8
 71
3
 72
8
 73
4
 74
0
 40
0
 40
0
 40
0
 40
0
 40
1
 40
1
 40
1
 40
1
 10
377.098740
 20
-204.148873
 30
0.0
 10
377.098740
 20
-203.857135
 30
0.0
 10
376.982848
 20
-203.577345
 30
0.0
 10
376.776558
 20
-203.371055
 30
0.0
  0
SPLINE
  5
138
100
AcDbEntity
  8
0
 62
7
100
AcDbSpline
 70
8
 71
3
 72
8
 73
4
 74
0
 40
0
 40
0
 40
0
 40
0
 40
1
 40
1
 40
1
 40
1
 10
376.776558
 20
-203.371055
 30
0.0
 10
376.570268
 20
-203.164765
 30
0.0
 10
376.290478
 20
-203.048873
 30
0.0
 10
375.998740
 20
-203.048873
 30
0.0
  0
LWPOLYLINE
  5
139
100
AcDbEntity
  8
0
 62
7
100
AcDbPolyline
 90
1
 70
1
 10
376.999500
 20
-77.048871
 30
0.0
  0
SPLINE
  5
13a
100
AcDbEntity
  8
0
 62
7
100
AcDbSpline
 70
8
 71
3
 72
8
 73
4
 74
0
 40
0
 40
0
 40
0
 40
0
 40
1
 40
1
 40
1
 40
1
 10
370.649500
 20
-100.610827
 30
0.0
 10
366.604875
 20
-100.610827
 30
0.0
 10
362.958511
 20
-103.047251
 30
0.0
 10
361.410700
 20
-106.783996
 30
0.0
  0
SPLINE
  5
13b
100
AcDbEntity
  8
0
 62
7
100
AcDbSpline
 70
8
 71
3
 72
8
 73
4
 74
0
 40
0
 40
0
 40
0
 40
0
 40
1
 40
1
 40
1
 40
1
 10
361.410700
 20
-106.783996
 30
0.0
 10
359.862889
 20
-110.520742
 30
0.0
 10
360.718447
 20
-114.821923
 30
0.0
 10
363.578428
 20
-117.681905
 30
0.0
  0
SPLINE
  5
13c
100
AcDbEntity
  8
0
 62
7
100
AcDbSpline
 70
8
 71
3
 72
8
 73
4
 74
0
 40
0
 40
0
 40
0
 40
0
 40
1
 40
1
 40
1
 40
1
 10
363.578428
 20
-117.681905
 30
0.0
 10
366.438410
 20
-120.541886
 30
0.0
 10
370.739590
 20
-121.397444
 30
0.0
 10
374.476336
 20
-119.849633
 30
0.0
  0
SPLINE
  5
13d
100
AcDbEntity
  8
0
 62
7
100
AcDbSpline
 70
8
 71
3
 72
8
 73
4
 74
0
 40
0
 40
0
 40
0
 40
0
 40
1
 40
1
 40
1
 40
1
 10
374.476336
 20
-119.849633
 30
0.0
 10
378.213082
 20
-118.301822
 30
0.0
 10
380.649505
 20
-114.655458
 30
0.0
 10
380.649505
 20
-110.610833
 30
0.0
  0
SPLINE
  5
13e
100
AcDbEntity
  8
0
 62
7
100
AcDbSpline
 70
8
 71
3
 72
8
 73
4
 74
0
 40
0
 40
0
 40
0
 40
0
 40
1
 40
1
 40
1
 40
1
 10
380.649505
 20
-110.610833
 30
0.0
 10
380.649505
 20
-107.958667
 30
0.0
 10
379.595936
 20
-105.415126
 30
0.0
 10
377.720572
 20
-103.539761
 30
0.0
  0
SPLINE
  5
13f
100
AcDbEntity
  8
0
 62
7
100
AcDbSpline
 70
8
 71
3
 72
8
 73
4
 74
0
 40
0
 40
0
 40
0
 40
0
 40
1
 40
1
 40
1
 40
1
 10
377.720572
 20
-103.539761
 30
0.0
 10
375.845207
 20
-101.664396
 30
0.0
 10
373.301666
 20
-100.610827
 30
0.0
 10
370.649500
 20
-100.610827
 30
0.0
  0
LWPOLYLINE
  5
140
100
AcDbEntity
  8
0
 62
7
100
AcDbPolyline
 90
1
 70
1
 10
375.998740
 20
-203.048873
 30
0.0
  0
LWPOLYLINE
  5
141
100
AcDbEntity
  8
0
 62
7
100
AcDbPolyline
 90
1
 70
1
 10
370.649500
 20
-100.610827
 30
0.0
  0
LWPOLYLINE
  5
142
100
AcDbEntity
  8
0
 62
7
100
AcDbPolyline
 90
2
 70
0
 10
330.098400
 20
-104.598399
 30
0.0
 10
330.098400
 20
-76.599979
 30
0.0
  0
LWPOLYLINE
  5
143
100
AcDbEntity
  8
0
 62
7
100
AcDbPolyline
 90
2
 70
0
 10
358.599740
 20
-106.099539
 30
0.0
 10
331.599540
 20
-106.099539
 30
0.0
  0
LWPOLYLINE
  5
144
100
AcDbEntity
  8
0
 62
7
100
AcDbPolyline
 90
2
 70
0
 10
360.098340
 20
-76.599979
 30
0.0
 10
360.098340
 20
-104.598399
 30
0.0
  0
SPLINE
  5
145
100
AcDbEntity
  8
0
 62
7
100
AcDbSpline
 70
8
 71
3
 72
8
 73
4
 74
0
 40
0
 40
0
 40
0
 40
0
 40
1
 40
1
 40
1
 40
1
 10
360.100880
 20
-76.600741
 30
0.0
 10
360.100846
 20
-76.202741
 30
0.0
 10
359.942639
 20
-75.821071
 30
0.0
 10
359.661091
 20
-75.539761
 30
0.0
  0
SPLINE
  5
146
100
AcDbEntity
  8
0
 62
7
100
AcDbSpline
 70
8
 71
3
 72
8
 73
4
 74
0
 40
0
 40
0
 40
0
 40
0
 40
1
 40
1
 40
1
 40
1
 10
359.661091
 20
-75.539761
 30
0.0
 10
359.379544
 20
-75.258452
 30
0.0
 10
358.997740
 20
-75.100568
 30
0.0
 10
358.599740
 20
-75.100871
 30
0.0
  0
SPLINE
  5
147
100
AcDbEntity
  8
0
 62
7
100
AcDbSpline
 70
8
 71
3
 72
8
 73
4
 74
0
 40
0
 40
0
 40
0
 40
0
 40
1
 40
1
 40
1
 40
1
 10
358.599740
 20
-106.100809
 30
0.0
 10
358.997784
 20
-106.101112
 30
0.0
 10
359.379626
 20
-105.943193
 30
0.0
 10
359.661181
 20
-105.661829
 30
0.0
  0
SPLINE
  5
148
100
AcDbEntity
  8
0
 62
7
100
AcDbSpline
 70
8
 71
3
 72
8
 73
4
 74
0
 40
0
 40
0
 40
0
 40
0
 40
1
 40
1
 40
1
 40
1
 10
359.661181
 20
-105.661829
 30
0.0
 10
359.942736
 20
-105.380464
 30
0.0
 10
360.100913
 20
-104.998729
 30
0.0
 10
360.100880
 20
-104.600685
 30
0.0
  0
SPLINE
  5
149
100
AcDbEntity
  8
0
 62
7
100
AcDbSpline
 70
8
 71
3
 72
8
 73
4
 74
0
 40
0
 40
0
 40
0
 40
0
 40
1
 40
1
 40
1
 40
1
 10
330.100940
 20
-104.600685
 30
0.0
 10
330.100871
 20
-105.428614
 30
0.0
 10
330.771611
 20
-106.100036
 30
0.0
 10
331.599540
 20
-106.100809
 30
0.0
  0
SPLINE
  5
14a
100
AcDbEntity
  8
0
 62
7
100
AcDbSpline
 70
8
 71
3
 72
8
 73
4
 74
0
 40
0
 40
0
 40
0
 40
0
 40
1
 40
1
 40
1
 40
1
 10
331.599540
 20
-75.100871
 30
0.0
 10
330.771710
 20
-75.101643
 30
0.0
 10
330.101011
 20
-75.772911
 30
0.0
 10
330.100940
 20
-76.600741
 30
0.0
  0
LWPOLYLINE
  5
14b
100
AcDbEntity
  8
0
 62
7
100
AcDbPolyline
 90
2
 70
0
 10
331.599540
 20
-75.098839
 30
0.0
 10
358.599740
 20
-75.098839
 30
0.0
  0
LWPOLYLINE
  5
14c
100
AcDbEntity
  8
0
 62
7
100
AcDbPolyline
 90
2
 70
0
 10
61.912500
 20
-198.832399
 30
0.0
 10
61.912500
 20
-184.862399
 30
0.0
  0
LWPOLYLINE
  5
14d
100
AcDbEntity
  8
0
 62
7
100
AcDbPolyline
 90
2
 70
0
 10
75.882500
 20
-198.832399
 30
0.0
 10
61.912500
 20
-198.832399
 30
0.0
  0
LWPOLYLINE
  5
14e
100
AcDbEntity
  8
0
 62
7
100
AcDbPolyline
 90
2
 70
0
 10
75.882500
 20
-184.862399
 30
0.0
 10
75.882500
 20
-198.832399
 30
0.0
  0
LWPOLYLINE
  5
14f
100
AcDbEntity
  8
0
 62
7
100
AcDbPolyline
 90
2
 70
0
 10
61.912500
 20
-184.862399
 30
0.0
 10
75.882500
 20
-184.862399
 30
0.0
  0
LWPOLYLINE
  5
150
100
AcDbEntity
  8
0
 62
7
100
AcDbPolyline
 90
2
 70
0
 10
104.813100
 20
-198.832399
 30
0.0
 10
104.813100
 20
-184.862399
 30
0.0
  0
LWPOLYLINE
  5
151
100
AcDbEntity
  8
0
 62
7
100
AcDbPolyline
 90
2
 70
0
 10
118.783100
 20
-198.832399
 30
0.0
 10
104.813100
 20
-198.832399
 30
0.0
  0
LWPOLYLINE
  5
152
100
AcDbEntity
  8
0
 62
7
100
AcDbPolyline
 90
2
 70
0
 10
118.783100
 20
-184.862399
 30
0.0
 10
118.783100
 20
-198.832399
 30
0.0
  0
LWPOLYLINE
  5
153
100
AcDbEntity
  8
0
 62
7
100
AcDbPolyline
 90
2
 70
0
 10
104.813100
 20
-184.862399
 30
0.0
 10
118.783100
 20
-184.862399
 30
0.0
  0
LWPOLYLINE
  5
154
100
AcDbEntity
  8
0
 62
7
100
AcDbPolyline
 90
4
 70
1
 10
66.664840
 20
-146.711599
 30
0.0
 10
80.634840
 20
-146.711599
 30
0.0
 10
80.634840
 20
-160.681599
 30
0.0
 10
66.664840
 20
-160.681599
 30
0.0
  0
LWPOLYLINE
  5
155
100
AcDbEntity
  8
0
 62
7
100
AcDbPolyline
 90
4
 70
1
 10
64.312800
 20
-127.712399
 30
0.0
 10
78.282800
 20
-127.712399
 30
0.0
 10
78.282800
 20
-141.682399
 30
0.0
 10
64.312800
 20
-141.682399
 30
0.0
  0
LWPOLYLINE
  5
156
100
AcDbEntity
  8
0
 62
7
100
AcDbPolyline
 90
4
 70
1
 10
321.513200
 20
-127.712399
 30
0.0
 10
335.483200
 20
-127.712399
 30
0.0
 10
335.483200
 20
-141.682399
 30
0.0
 10
321.513200
 20
-141.682399
 30
0.0
  0
LWPOLYLINE
  5
157
100
AcDbEntity
  8
0
 62
7
100
AcDbPolyline
 90
2
 70
0
 10
288.163000
 20
-98.781799
 30
0.0
 10
288.163000
 20
-84.811799
 30
0.0
  0
LWPOLYLINE
  5
158
100
AcDbEntity
  8
0
 62
7
100
AcDbPolyline
 90
2
 70
0
 10
302.133000
 20
-98.781799
 30
0.0
 10
288.163000
 20
-98.781799
 30
0.0
  0
LWPOLYLINE
  5
159
100
AcDbEntity
  8
0
 62
7
100
AcDbPolyline
 90
2
 70
0
 10
302.133000
 20
-84.811799
 30
0.0
 10
302.133000
 20
-98.781799
 30
0.0
  0
LWPOLYLINE
  5
15a
100
AcDbEntity
  8
0
 62
7
100
AcDbPolyline
 90
2
 70
0
 10
288.163000
 20
-84.811799
 30
0.0
 10
302.133000
 20
-84.811799
 30
0.0
  0
LWPOLYLINE
  5
15b
100
AcDbEntity
  8
0
 62
7
100
AcDbPolyline
 90
2
 70
0
 10
59.563000
 20
-98.781799
 30
0.0
 10
59.563000
 20
-84.811799
 30
0.0
  0
LWPOLYLINE
  5
15c
100
AcDbEntity
  8
0
 62
7
100
AcDbPolyline
 90
2
 70
0
 10
73.533000
 20
-98.781799
 30
0.0
 10
59.563000
 20
-98.781799
 30
0.0
  0
LWPOLYLINE
  5
15d
100
AcDbEntity
  8
0
 62
7
100
AcDbPolyline
 90
2
 70
0
 10
73.533000
 20
-84.811799
 30
0.0
 10
73.533000
 20
-98.781799
 30
0.0
  0
LWPOLYLINE
  5
15e
100
AcDbEntity
  8
0
 62
7
100
AcDbPolyline
 90
2
 70
0
 10
59.563000
 20
-84.811799
 30
0.0
 10
73.533000
 20
-84.811799
 30
0.0
  0
LWPOLYLINE
  5
15f
100
AcDbEntity
  8
0
 62
7
100
AcDbPolyline
 90
2
 70
0
 10
88.163400
 20
-98.781799
 30
0.0
 10
88.163400
 20
-84.811799
 30
0.0
  0
LWPOLYLINE
  5
160
100
AcDbEntity
  8
0
 62
7
100
AcDbPolyline
 90
2
 70
0
 10
102.133400
 20
-98.781799
 30
0.0
 10
88.163400
 20
-98.781799
 30
0.0
  0
LWPOLYLINE
  5
161
100
AcDbEntity
  8
0
 62
7
100
AcDbPolyline
 90
2
 70
0
 10
102.133400
 20
-84.811799
 30
0.0
 10
102.133400
 20
-98.781799
 30
0.0
  0
LWPOLYLINE
  5
162
100
AcDbEntity
  8
0
 62
7
100
AcDbPolyline
 90
2
 70
0
 10
88.163400
 20
-84.811799
 30
0.0
 10
102.133400
 20
-84.811799
 30
0.0
  0
LWPOLYLINE
  5
163
100
AcDbEntity
  8
0
 62
7
100
AcDbPolyline
 90
2
 70
0
 10
107.162600
 20
-98.781799
 30
0.0
 10
107.162600
 20
-84.811799
 30
0.0
  0
LWPOLYLINE
  5
164
100
AcDbEntity
  8
0
 62
7
100
AcDbPolyline
 90
2
 70
0
 10
121.132600
 20
-98.781799
 30
0.0
 10
107.162600
 20
-98.781799
 30
0.0
  0
LWPOLYLINE
  5
165
100
AcDbEntity
  8
0
 62
7
100
AcDbPolyline
 90
2
 70
0
 10
121.132600
 20
-84.811799
 30
0.0
 10
121.132600
 20
-98.781799
 30
0.0
  0
LWPOLYLINE
  5
166
100
AcDbEntity
  8
0
 62
7
100
AcDbPolyline
 90
2
 70
0
 10
107.162600
 20
-84.811799
 30
0.0
 10
121.132600
 20
-84.811799
 30
0.0
  0
LWPOLYLINE
  5
167
100
AcDbEntity
  8
0
 62
7
100
AcDbPolyline
 90
2
 70
0
 10
126.212600
 20
-98.781799
 30
0.0
 10
126.212600
 20
-84.811799
 30
0.0
  0
LWPOLYLINE
  5
168
100
AcDbEntity
  8
0
 62
7
100
AcDbPolyline
 90
2
 70
0
 10
140.182600
 20
-98.781799
 30
0.0
 10
126.212600
 20
-98.781799
 30
0.0
  0
LWPOLYLINE
  5
169
100
AcDbEntity
  8
0
 62
7
100
AcDbPolyline
 90
2
 70
0
 10
140.182600
 20
-84.811799
 30
0.0
 10
140.182600
 20
-98.781799
 30
0.0
  0
LWPOLYLINE
  5
16a
100
AcDbEntity
  8
0
 62
7
100
AcDbPolyline
 90
2
 70
0
 10
126.212600
 20
-84.811799
 30
0.0
 10
140.182600
 20
-84.811799
 30
0.0
  0
LWPOLYLINE
  5
16b
100
AcDbEntity
  8
0
 62
7
100
AcDbPolyline
 90
2
 70
0
 10
145.313400
 20
-98.781799
 30
0.0
 10
145.313400
 20
-84.811799
 30
0.0
  0
LWPOLYLINE
  5
16c
100
AcDbEntity
  8
0
 62
7
100
AcDbPolyline
 90
2
 70
0
 10
159.283400
 20
-98.781799
 30
0.0
 10
145.313400
 20
-98.781799
 30
0.0
  0
LWPOLYLINE
  5
16d
100
AcDbEntity
  8
0
 62
7
100
AcDbPolyline
 90
2
 70
0
 10
159.283400
 20
-84.811799
 30
0.0
 10
159.283400
 20
-98.781799
 30
0.0
  0
LWPOLYLINE
  5
16e
100
AcDbEntity
  8
0
 62
7
100
AcDbPolyline
 90
2
 70
0
 10
145.313400
 20
-84.811799
 30
0.0
 10
159.283400
 20
-84.811799
 30
0.0
  0
LWPOLYLINE
  5
16f
100
AcDbEntity
  8
0
 62
7
100
AcDbPolyline
 90
2
 70
0
 10
169.113200
 20
-98.781799
 30
0.0
 10
169.113200
 20
-84.811799
 30
0.0
  0
LWPOLYLINE
  5
170
100
AcDbEntity
  8
0
 62
7
100
AcDbPolyline
 90
2
 70
0
 10
183.083200
 20
-98.781799
 30
0.0
 10
169.113200
 20
-98.781799
 30
0.0
  0
LWPOLYLINE
  5
171
100
AcDbEntity
  8
0
 62
7
100
AcDbPolyline
 90
2
 70
0
 10
183.083200
 20
-84.811799
 30
0.0
 10
183.083200
 20
-98.781799
 30
0.0
  0
LWPOLYLINE
  5
172
100
AcDbEntity
  8
0
 62
7
100
AcDbPolyline
 90
2
 70
0
 10
169.113200
 20
-84.811799
 30
0.0
 10
183.083200
 20
-84.811799
 30
0.0
  0
LWPOLYLINE
  5
173
100
AcDbEntity
  8
0
 62
7
100
AcDbPolyline
 90
2
 70
0
 10
188.163200
 20
-98.781799
 30
0.0
 10
188.163200
 20
-84.811799
 30
0.0
  0
LWPOLYLINE
  5
174
100
AcDbEntity
  8
0
 62
7
100
AcDbPolyline
 90
2
 70
0
 10
202.133200
 20
-98.781799
 30
0.0
 10
188.163200
 20
-98.781799
 30
0.0
  0
LWPOLYLINE
  5
175
100
AcDbEntity
  8
0
 62
7
100
AcDbPolyline
 90
2
 70
0
 10
202.133200
 20
-84.811799
 30
0.0
 10
202.133200
 20
-98.781799
 30
0.0
  0
LWPOLYLINE
  5
176
100
AcDbEntity
  8
0
 62
7
100
AcDbPolyline
 90
2
 70
0
 10
188.163200
 20
-84.811799
 30
0.0
 10
202.133200
 20
-84.811799
 30
0.0
  0
LWPOLYLINE
  5
177
100
AcDbEntity
  8
0
 62
7
100
AcDbPolyline
 90
2
 70
0
 10
207.213200
 20
-98.781799
 30
0.0
 10
207.213200
 20
-84.811799
 30
0.0
  0
LWPOLYLINE
  5
178
100
AcDbEntity
  8
0
 62
7
100
AcDbPolyline
 90
2
 70
0
 10
221.183200
 20
-98.781799
 30
0.0
 10
207.213200
 20
-98.781799
 30
0.0
  0
LWPOLYLINE
  5
179
100
AcDbEntity
  8
0
 62
7
100
AcDbPolyline
 90
2
 70
0
 10
221.183200
 20
-84.811799
 30
0.0
 10
221.183200
 20
-98.781799
 30
0.0
  0
LWPOLYLINE
  5
17a
100
AcDbEntity
  8
0
 62
7
100
AcDbPolyline
 90
2
 70
0
 10
207.213200
 20
-84.811799
 30
0.0
 10
221.183200
 20
-84.811799
 30
0.0
  0
LWPOLYLINE
  5
17b
100
AcDbEntity
  8
0
 62
7
100
AcDbPolyline
 90
2
 70
0
 10
226.263200
 20
-98.784339
 30
0.0
 10
226.263200
 20
-84.814339
 30
0.0
  0
LWPOLYLINE
  5
17c
100
AcDbEntity
  8
0
 62
7
100
AcDbPolyline
 90
2
 70
0
 10
240.233200
 20
-98.784339
 30
0.0
 10
226.263200
 20
-98.784339
 30
0.0
  0
LWPOLYLINE
  5
17d
100
AcDbEntity
  8
0
 62
7
100
AcDbPolyline
 90
2
 70
0
 10
240.233200
 20
-84.814339
 30
0.0
 10
240.233200
 20
-98.784339
 30
0.0
  0
LWPOLYLINE
  5
17e
100
AcDbEntity
  8
0
 62
7
100
AcDbPolyline
 90
2
 70
0
 10
226.263200
 20
-84.814339
 30
0.0
 10
240.233200
 20
-84.814339
 30
0.0
  0
LWPOLYLINE
  5
17f
100
AcDbEntity
  8
0
 62
7
100
AcDbPolyline
 90
2
 70
0
 10
250.063000
 20
-98.781799
 30
0.0
 10
250.063000
 20
-84.811799
 30
0.0
  0
LWPOLYLINE
  5
180
100
AcDbEntity
  8
0
 62
7
100
AcDbPolyline
 90
2
 70
0
 10
264.033000
 20
-98.781799
 30
0.0
 10
250.063000
 20
-98.781799
 30
0.0
  0
LWPOLYLINE
  5
181
100
AcDbEntity
  8
0
 62
7
100
AcDbPolyline
 90
2
 70
0
 10
264.033000
 20
-84.811799
 30
0.0
 10
264.033000
 20
-98.781799
 30
0.0
  0
LWPOLYLINE
  5
182
100
AcDbEntity
  8
0
 62
7
100
AcDbPolyline
 90
2
 70
0
 10
250.063000
 20
-84.811799
 30
0.0
 10
264.033000
 20
-84.811799
 30
0.0
  0
LWPOLYLINE
  5
183
100
AcDbEntity
  8
0
 62
7
100
AcDbPolyline
 90
2
 70
0
 10
269.113000
 20
-98.781799
 30
0.0
 10
269.113000
 20
-84.811799
 30
0.0
  0
LWPOLYLINE
  5
184
100
AcDbEntity
  8
0
 62
7
100
AcDbPolyline
 90
2
 70
0
 10
283.083000
 20
-98.781799
 30
0.0
 10
269.113000
 20
-98.781799
 30
0.0
  0
LWPOLYLINE
  5
185
100
AcDbEntity
  8
0
 62
7
100
AcDbPolyline
 90
2
 70
0
 10
283.083000
 20
-84.811799
 30
0.0
 10
283.083000
 20
-98.781799
 30
0.0
  0
LWPOLYLINE
  5
186
100
AcDbEntity
  8
0
 62
7
100
AcDbPolyline
 90
2
 70
0
 10
269.113000
 20
-84.811799
 30
0.0
 10
283.083000
 20
-84.811799
 30
0.0
  0
LWPOLYLINE
  5
187
100
AcDbEntity
  8
0
 62
7
100
AcDbPolyline
 90
2
 70
0
 10
307.164740
 20
-98.781799
 30
0.0
 10
307.164740
 20
-84.811799
 30
0.0
  0
LWPOLYLINE
  5
188
100
AcDbEntity
  8
0
 62
7
100
AcDbPolyline
 90
2
 70
0
 10
321.134740
 20
-98.781799
 30
0.0
 10
307.164740
 20
-98.781799
 30
0.0
  0
LWPOLYLINE
  5
189
100
AcDbEntity
  8
0
 62
7
100
AcDbPolyline
 90
2
 70
0
 10
321.134740
 20
-84.811799
 30
0.0
 10
321.134740
 20
-98.781799
 30
0.0
  0
LWPOLYLINE
  5
18a
100
AcDbEntity
  8
0
 62
7
100
AcDbPolyline
 90
2
 70
0
 10
307.164740
 20
-84.811799
 30
0.0
 10
321.134740
 20
-84.811799
 30
0.0
  0
LWPOLYLINE
  5
18b
100
AcDbEntity
  8
0
 62
7
100
AcDbPolyline
 90
2
 70
0
 10
59.563000
 20
-122.581599
 30
0.0
 10
59.563000
 20
-108.611599
 30
0.0
  0
LWPOLYLINE
  5
18c
100
AcDbEntity
  8
0
 62
7
100
AcDbPolyline
 90
2
 70
0
 10
73.533000
 20
-122.581599
 30
0.0
 10
59.563000
 20
-122.581599
 30
0.0
  0
LWPOLYLINE
  5
18d
100
AcDbEntity
  8
0
 62
7
100
AcDbPolyline
 90
2
 70
0
 10
73.533000
 20
-108.611599
 30
0.0
 10
73.533000
 20
-122.581599
 30
0.0
  0
LWPOLYLINE
  5
18e
100
AcDbEntity
  8
0
 62
7
100
AcDbPolyline
 90
2
 70
0
 10
59.563000
 20
-108.611599
 30
0.0
 10
73.533000
 20
-108.611599
 30
0.0
  0
LWPOLYLINE
  5
18f
100
AcDbEntity
  8
0
 62
7
100
AcDbPolyline
 90
2
 70
0
 10
78.613000
 20
-122.581599
 30
0.0
 10
78.613000
 20
-108.611599
 30
0.0
  0
LWPOLYLINE
  5
190
100
AcDbEntity
  8
0
 62
7
100
AcDbPolyline
 90
2
 70
0
 10
92.583000
 20
-122.581599
 30
0.0
 10
78.613000
 20
-122.581599
 30
0.0
  0
LWPOLYLINE
  5
191
100
AcDbEntity
  8
0
 62
7
100
AcDbPolyline
 90
2
 70
0
 10
92.583000
 20
-108.611599
 30
0.0
 10
92.583000
 20
-122.581599
 30
0.0
  0
LWPOLYLINE
  5
192
100
AcDbEntity
  8
0
 62
7
100
AcDbPolyline
 90
2
 70
0
 10
78.613000
 20
-108.611599
 30
0.0
 10
92.583000
 20
-108.611599
 30
0.0
  0
LWPOLYLINE
  5
193
100
AcDbEntity
  8
0
 62
7
100
AcDbPolyline
 90
2
 70
0
 10
97.663000
 20
-122.581599
 30
0.0
 10
97.663000
 20
-108.611599
 30
0.0
  0
LWPOLYLINE
  5
194
100
AcDbEntity
  8
0
 62
7
100
AcDbPolyline
 90
2
 70
0
 10
111.633000
 20
-122.581599
 30
0.0
 10
97.663000
 20
-122.581599
 30
0.0
  0
LWPOLYLINE
  5
195
100
AcDbEntity
  8
0
 62
7
100
AcDbPolyline
 90
2
 70
0
 10
111.633000
 20
-108.611599
 30
0.0
 10
111.633000
 20
-122.581599
 30
0.0
  0
LWPOLYLINE
  5
196
100
AcDbEntity
  8
0
 62
7
100
AcDbPolyline
 90
2
 70
0
 10
97.663000
 20
-108.611599
 30
0.0
 10
111.633000
 20
-108.611599
 30
0.0
  0
LWPOLYLINE
  5
197
100
AcDbEntity
  8
0
 62
7
100
AcDbPolyline
 90
2
 70
0
 10
116.713000
 20
-122.581599
 30
0.0
 10
116.713000
 20
-108.611599
 30
0.0
  0
LWPOLYLINE
  5
198
100
AcDbEntity
  8
0
 62
7
100
AcDbPolyline
 90
2
 70
0
 10
130.683000
 20
-122.581599
 30
0.0
 10
116.713000
 20
-122.581599
 30
0.0
  0
LWPOLYLINE
  5
199
100
AcDbEntity
  8
0
 62
7
100
AcDbPolyline
 90
2
 70
0
 10
130.683000
 20
-108.611599
 30
0.0
 10
130.683000
 20
-122.581599
 30
0.0
  0
LWPOLYLINE
  5
19a
100
AcDbEntity
  8
0
 62
7
100
AcDbPolyline
 90
2
 70
0
 10
116.713000
 20
-108.611599
 30
0.0
 10
130.683000
 20
-108.611599
 30
0.0
  0
LWPOLYLINE
  5
19b
100
AcDbEntity
  8
0
 62
7
100
AcDbPolyline
 90
2
 70
0
 10
135.763000
 20
-122.581599
 30
0.0
 10
135.763000
 20
-108.611599
 30
0.0
  0
LWPOLYLINE
  5
19c
100
AcDbEntity
  8
0
 62
7
100
AcDbPolyline
 90
2
 70
0
 10
149.733000
 20
-122.581599
 30
0.0
 10
135.763000
 20
-122.581599
 30
0.0
  0
LWPOLYLINE
  5
19d
100
AcDbEntity
  8
0
 62
7
100
AcDbPolyline
 90
2
 70
0
 10
149.733000
 20
-108.611599
 30
0.0
 10
149.733000
 20
-122.581599
 30
0.0
  0
LWPOLYLINE
  5
19e
100
AcDbEntity
  8
0
 62
7
100
AcDbPolyline
 90
2
 70
0
 10
135.763000
 20
-108.611599
 30
0.0
 10
149.733000
 20
-108.611599
 30
0.0
  0
LWPOLYLINE
  5
19f
100
AcDbEntity
  8
0
 62
7
100
AcDbPolyline
 90
2
 70
0
 10
154.813000
 20
-122.581599
 30
0.0
 10
154.813000
 20
-108.611599
 30
0.0
  0
LWPOLYLINE
  5
1a0
100
AcDbEntity
  8
0
 62
7
100
AcDbPolyline
 90
2
 70
0
 10
168.783000
 20
-122.581599
 30
0.0
 10
154.813000
 20
-122.581599
 30
0.0
  0
LWPOLYLINE
  5
1a1
100
AcDbEntity
  8
0
 62
7
100
AcDbPolyline
 90
2
 70
0
 10
168.783000
 20
-108.611599
 30
0.0
 10
168.783000
 20
-122.581599
 30
0.0
  0
LWPOLYLINE
  5
1a2
100
AcDbEntity
  8
0
 62
7
100
AcDbPolyline
 90
2
 70
0
 10
154.813000
 20
-108.611599
 30
0.0
 10
168.783000
 20
-108.611599
 30
0.0
  0
LWPOLYLINE
  5
1a3
100
AcDbEntity
  8
0
 62
7
100
AcDbPolyline
 90
2
 70
0
 10
173.863000
 20
-122.581599
 30
0.0
 10
173.863000
 20
-108.611599
 30
0.0
  0
LWPOLYLINE
  5
1a4
100
AcDbEntity
  8
0
 62
7
100
AcDbPolyline
 90
2
 70
0
 10
187.833000
 20
-122.581599
 30
0.0
 10
173.863000
 20
-122.581599
 30
0.0
  0
LWPOLYLINE
  5
1a5
100
AcDbEntity
  8
0
 62
7
100
AcDbPolyline
 90
2
 70
0
 10
187.833000
 20
-108.611599
 30
0.0
 10
187.833000
 20
-122.581599
 30
0.0
  0
LWPOLYLINE
  5
1a6
100
AcDbEntity
  8
0
 62
7
100
AcDbPolyline
 90
2
 70
0
 10
173.863000
 20
-108.611599
 30
0.0
 10
187.833000
 20
-108.611599
 30
0.0
  0
LWPOLYLINE
  5
1a7
100
AcDbEntity
  8
0
 62
7
100
AcDbPolyline
 90
2
 70
0
 10
192.913000
 20
-122.581599
 30
0.0
 10
192.913000
 20
-108.611599
 30
0.0
  0
LWPOLYLINE
  5
1a8
100
AcDbEntity
  8
0
 62
7
100
AcDbPolyline
 90
2
 70
0
 10
206.883000
 20
-122.581599
 30
0.0
 10
192.913000
 20
-122.581599
 30
0.0
  0
LWPOLYLINE
  5
1a9
100
AcDbEntity
  8
0
 62
7
100
AcDbPolyline
 90
2
 70
0
 10
206.883000
 20
-108.611599
 30
0.0
 10
206.883000
 20
-122.581599
 30
0.0
  0
LWPOLYLINE
  5
1aa
100
AcDbEntity
  8
0
 62
7
100
AcDbPolyline
 90
2
 70
0
 10
192.913000
 20
-108.611599
 30
0.0
 10
206.883000
 20
-108.611599
 30
0.0
  0
LWPOLYLINE
  5
1ab
100
AcDbEntity
  8
0
 62
7
100
AcDbPolyline
 90
2
 70
0
 10
211.963000
 20
-122.581599
 30
0.0
 10
211.963000
 20
-108.611599
 30
0.0
  0
LWPOLYLINE
  5
1ac
100
AcDbEntity
  8
0
 62
7
100
AcDbPolyline
 90
2
 70
0
 10
225.933000
 20
-122.581599
 30
0.0
 10
211.963000
 20
-122.581599
 30
0.0
  0
LWPOLYLINE
  5
1ad
100
AcDbEntity
  8
0
 62
7
100
AcDbPolyline
 90
2
 70
0
 10
225.933000
 20
-108.611599
 30
0.0
 10
225.933000
 20
-122.581599
 30
0.0
  0
LWPOLYLINE
  5
1ae
100
AcDbEntity
  8
0
 62
7
100
AcDbPolyline
 90
2
 70
0
 10
211.963000
 20
-108.611599
 30
0.0
 10
225.933000
 20
-108.611599
 30
0.0
  0
LWPOLYLINE
  5
1af
100
AcDbEntity
  8
0
 62
7
100
AcDbPolyline
 90
2
 70
0
 10
231.013000
 20
-122.581599
 30
0.0
 10
231.013000
 20
-108.611599
 30
0.0
  0
LWPOLYLINE
  5
1b0
100
AcDbEntity
  8
0
 62
7
100
AcDbPolyline
 90
2
 70
0
 10
244.983000
 20
-122.581599
 30
0.0
 10
231.013000
 20
-122.581599
 30
0.0
  0
LWPOLYLINE
  5
1b1
100
AcDbEntity
  8
0
 62
7
100
AcDbPolyline
 90
2
 70
0
 10
244.983000
 20
-108.611599
 30
0.0
 10
244.983000
 20
-122.581599
 30
0.0
  0
LWPOLYLINE
  5
1b2
100
AcDbEntity
  8
0
 62
7
100
AcDbPolyline
 90
2
 70
0
 10
231.013000
 20
-108.611599
 30
0.0
 10
244.983000
 20
-108.611599
 30
0.0
  0
LWPOLYLINE
  5
1b3
100
AcDbEntity
  8
0
 62
7
100
AcDbPolyline
 90
2
 70
0
 10
250.063000
 20
-122.581599
 30
0.0
 10
250.063000
 20
-108.611599
 30
0.0
  0
LWPOLYLINE
  5
1b4
100
AcDbEntity
  8
0
 62
7
100
AcDbPolyline
 90
2
 70
0
 10
264.033000
 20
-122.581599
 30
0.0
 10
250.063000
 20
-122.581599
 30
0.0
  0
LWPOLYLINE
  5
1b5
100
AcDbEntity
  8
0
 62
7
100
AcDbPolyline
 90
2
 70
0
 10
264.033000
 20
-108.611599
 30
0.0
 10
264.033000
 20
-122.581599
 30
0.0
  0
LWPOLYLINE
  5
1b6
100
AcDbEntity
  8
0
 62
7
100
AcDbPolyline
 90
2
 70
0
 10
250.063000
 20
-108.611599
 30
0.0
 10
264.033000
 20
-108.611599
 30
0.0
  0
LWPOLYLINE
  5
1b7
100
AcDbEntity
  8
0
 62
7
100
AcDbPolyline
 90
2
 70
0
 10
269.113000
 20
-122.581599
 30
0.0
 10
269.113000
 20
-108.611599
 30
0.0
  0
LWPOLYLINE
  5
1b8
100
AcDbEntity
  8
0
 62
7
100
AcDbPolyline
 90
2
 70
0
 10
283.083000
 20
-122.581599
 30
0.0
 10
269.113000
 20
-122.581599
 30
0.0
  0
LWPOLYLINE
  5
1b9
100
AcDbEntity
  8
0
 62
7
100
AcDbPolyline
 90
2
 70
0
 10
283.083000
 20
-108.611599
 30
0.0
 10
283.083000
 20
-122.581599
 30
0.0
  0
LWPOLYLINE
  5
1ba
100
AcDbEntity
  8
0
 62
7
100
AcDbPolyline
 90
2
 70
0
 10
269.113000
 20
-108.611599
 30
0.0
 10
283.083000
 20
-108.611599
 30
0.0
  0
LWPOLYLINE
  5
1bb
100
AcDbEntity
  8
0
 62
7
100
AcDbPolyline
 90
2
 70
0
 10
288.163000
 20
-122.581599
 30
0.0
 10
288.163000
 20
-108.611599
 30
0.0
  0
LWPOLYLINE
  5
1bc
100
AcDbEntity
  8
0
 62
7
100
AcDbPolyline
 90
2
 70
0
 10
302.133000
 20
-122.581599
 30
0.0
 10
288.163000
 20
-122.581599
 30
0.0
  0
LWPOLYLINE
  5
1bd
100
AcDbEntity
  8
0
 62
7
100
AcDbPolyline
 90
2
 70
0
 10
302.133000
 20
-108.611599
 30
0.0
 10
302.133000
 20
-122.581599
 30
0.0
  0
LWPOLYLINE
  5
1be
100
AcDbEntity
  8
0
 62
7
100
AcDbPolyline
 90
2
 70
0
 10
288.163000
 20
-108.611599
 30
0.0
 10
302.133000
 20
-108.611599
 30
0.0
  0
LWPOLYLINE
  5
1bf
100
AcDbEntity
  8
0
 62
7
100
AcDbPolyline
 90
2
 70
0
 10
88.112600
 20
-141.682399
 30
0.0
 10
88.112600
 20
-127.712399
 30
0.0
  0
LWPOLYLINE
  5
1c0
100
AcDbEntity
  8
0
 62
7
100
AcDbPolyline
 90
2
 70
0
 10
102.082600
 20
-141.682399
 30
0.0
 10
88.112600
 20
-141.682399
 30
0.0
  0
LWPOLYLINE
  5
1c1
100
AcDbEntity
  8
0
 62
7
100
AcDbPolyline
 90
2
 70
0
 10
102.082600
 20
-127.712399
 30
0.0
 10
102.082600
 20
-141.682399
 30
0.0
  0
LWPOLYLINE
  5
1c2
100
AcDbEntity
  8
0
 62
7
100
AcDbPolyline
 90
2
 70
0
 10
88.112600
 20
-127.712399
 30
0.0
 10
102.082600
 20
-127.712399
 30
0.0
  0
LWPOLYLINE
  5
1c3
100
AcDbEntity
  8
0
 62
7
100
AcDbPolyline
 90
2
 70
0
 10
107.162600
 20
-141.682399
 30
0.0
 10
107.162600
 20
-127.712399
 30
0.0
  0
LWPOLYLINE
  5
1c4
100
AcDbEntity
  8
0
 62
7
100
AcDbPolyline
 90
2
 70
0
 10
121.132600
 20
-141.682399
 30
0.0
 10
107.162600
 20
-141.682399
 30
0.0
  0
LWPOLYLINE
  5
1c5
100
AcDbEntity
  8
0
 62
7
100
AcDbPolyline
 90
2
 70
0
 10
121.132600
 20
-127.712399
 30
0.0
 10
121.132600
 20
-141.682399
 30
0.0
  0
LWPOLYLINE
  5
1c6
100
AcDbEntity
  8
0
 62
7
100
AcDbPolyline
 90
2
 70
0
 10
107.162600
 20
-127.712399
 30
0.0
 10
121.132600
 20
-127.712399
 30
0.0
  0
LWPOLYLINE
  5
1c7
100
AcDbEntity
  8
0
 62
7
100
AcDbPolyline
 90
2
 70
0
 10
126.212600
 20
-141.682399
 30
0.0
 10
126.212600
 20
-127.712399
 30
0.0
  0
LWPOLYLINE
  5
1c8
100
AcDbEntity
  8
0
 62
7
100
AcDbPolyline
 90
2
 70
0
 10
140.182600
 20
-141.682399
 30
0.0
 10
126.212600
 20
-141.682399
 30
0.0
  0
LWPOLYLINE
  5
1c9
100
AcDbEntity
  8
0
 62
7
100
AcDbPolyline
 90
2
 70
0
 10
140.182600
 20
-127.712399
 30
0.0
 10
140.182600
 20
-141.682399
 30
0.0
  0
LWPOLYLINE
  5
1ca
100
AcDbEntity
  8
0
 62
7
100
AcDbPolyline
 90
2
 70
0
 10
126.212600
 20
-127.712399
 30
0.0
 10
140.182600
 20
-127.712399
 30
0.0
  0
LWPOLYLINE
  5
1cb
100
AcDbEntity
  8
0
 62
7
100
AcDbPolyline
 90
2
 70
0
 10
145.262600
 20
-141.682399
 30
0.0
 10
145.262600
 20
-127.712399
 30
0.0
  0
LWPOLYLINE
  5
1cc
100
AcDbEntity
  8
0
 62
7
100
AcDbPolyline
 90
2
 70
0
 10
159.232600
 20
-141.682399
 30
0.0
 10
145.262600
 20
-141.682399
 30
0.0
  0
LWPOLYLINE
  5
1cd
100
AcDbEntity
  8
0
 62
7
100
AcDbPolyline
 90
2
 70
0
 10
159.232600
 20
-127.712399
 30
0.0
 10
159.232600
 20
-141.682399
 30
0.0
  0
LWPOLYLINE
  5
1ce
100
AcDbEntity
  8
0
 62
7
100
AcDbPolyline
 90
2
 70
0
 10
145.262600
 20
-127.712399
 30
0.0
 10
159.232600
 20
-127.712399
 30
0.0
  0
LWPOLYLINE
  5
1cf
100
AcDbEntity
  8
0
 62
7
100
AcDbPolyline
 90
2
 70
0
 10
164.312600
 20
-141.682399
 30
0.0
 10
164.312600
 20
-127.712399
 30
0.0
  0
LWPOLYLINE
  5
1d0
100
AcDbEntity
  8
0
 62
7
100
AcDbPolyline
 90
2
 70
0
 10
178.282600
 20
-141.682399
 30
0.0
 10
164.312600
 20
-141.682399
 30
0.0
  0
LWPOLYLINE
  5
1d1
100
AcDbEntity
  8
0
 62
7
100
AcDbPolyline
 90
2
 70
0
 10
178.282600
 20
-127.712399
 30
0.0
 10
178.282600
 20
-141.682399
 30
0.0
  0
LWPOLYLINE
  5
1d2
100
AcDbEntity
  8
0
 62
7
100
AcDbPolyline
 90
2
 70
0
 10
164.312600
 20
-127.712399
 30
0.0
 10
178.282600
 20
-127.712399
 30
0.0
  0
LWPOLYLINE
  5
1d3
100
AcDbEntity
  8
0
 62
7
100
AcDbPolyline
 90
2
 70
0
 10
183.362600
 20
-141.682399
 30
0.0
 10
183.362600
 20
-127.712399
 30
0.0
  0
LWPOLYLINE
  5
1d4
100
AcDbEntity
  8
0
 62
7
100
AcDbPolyline
 90
2
 70
0
 10
197.332600
 20
-141.682399
 30
0.0
 10
183.362600
 20
-141.682399
 30
0.0
  0
LWPOLYLINE
  5
1d5
100
AcDbEntity
  8
0
 62
7
100
AcDbPolyline
 90
2
 70
0
 10
197.332600
 20
-127.712399
 30
0.0
 10
197.332600
 20
-141.682399
 30
0.0
  0
LWPOLYLINE
  5
1d6
100
AcDbEntity
  8
0
 62
7
100
AcDbPolyline
 90
2
 70
0
 10
183.362600
 20
-127.712399
 30
0.0
 10
197.332600
 20
-127.712399
 30
0.0
  0
LWPOLYLINE
  5
1d7
100
AcDbEntity
  8
0
 62
7
100
AcDbPolyline
 90
2
 70
0
 10
202.412600
 20
-141.682399
 30
0.0
 10
202.412600
 20
-127.712399
 30
0.0
  0
LWPOLYLINE
  5
1d8
100
AcDbEntity
  8
0
 62
7
100
AcDbPolyline
 90
2
 70
0
 10
216.382600
 20
-141.682399
 30
0.0
 10
202.412600
 20
-141.682399
 30
0.0
  0
LWPOLYLINE
  5
1d9
100
AcDbEntity
  8
0
 62
7
100
AcDbPolyline
 90
2
 70
0
 10
216.382600
 20
-127.712399
 30
0.0
 10
216.382600
 20
-141.682399
 30
0.0
  0
LWPOLYLINE
  5
1da
100
AcDbEntity
  8
0
 62
7
100
AcDbPolyline
 90
2
 70
0
 10
202.412600
 20
-127.712399
 30
0.0
 10
216.382600
 20
-127.712399
 30
0.0
  0
LWPOLYLINE
  5
1db
100
AcDbEntity
  8
0
 62
7
100
AcDbPolyline
 90
2
 70
0
 10
221.462600
 20
-141.682399
 30
0.0
 10
221.462600
 20
-127.712399
 30
0.0
  0
LWPOLYLINE
  5
1dc
100
AcDbEntity
  8
0
 62
7
100
AcDbPolyline
 90
2
 70
0
 10
235.432600
 20
-141.682399
 30
0.0
 10
221.462600
 20
-141.682399
 30
0.0
  0
LWPOLYLINE
  5
1dd
100
AcDbEntity
  8
0
 62
7
100
AcDbPolyline
 90
2
 70
0
 10
235.432600
 20
-127.712399
 30
0.0
 10
235.432600
 20
-141.682399
 30
0.0
  0
LWPOLYLINE
  5
1de
100
AcDbEntity
  8
0
 62
7
100
AcDbPolyline
 90
2
 70
0
 10
221.462600
 20
-127.712399
 30
0.0
 10
235.432600
 20
-127.712399
 30
0.0
  0
LWPOLYLINE
  5
1df
100
AcDbEntity
  8
0
 62
7
100
AcDbPolyline
 90
2
 70
0
 10
240.563400
 20
-141.682399
 30
0.0
 10
240.563400
 20
-127.712399
 30
0.0
  0
LWPOLYLINE
  5
1e0
100
AcDbEntity
  8
0
 62
7
100
AcDbPolyline
 90
2
 70
0
 10
254.533400
 20
-141.682399
 30
0.0
 10
240.563400
 20
-141.682399
 30
0.0
  0
LWPOLYLINE
  5
1e1
100
AcDbEntity
  8
0
 62
7
100
AcDbPolyline
 90
2
 70
0
 10
254.533400
 20
-127.712399
 30
0.0
 10
254.533400
 20
-141.682399
 30
0.0
  0
LWPOLYLINE
  5
1e2
100
AcDbEntity
  8
0
 62
7
100
AcDbPolyline
 90
2
 70
0
 10
240.563400
 20
-127.712399
 30
0.0
 10
254.533400
 20
-127.712399
 30
0.0
  0
LWPOLYLINE
  5
1e3
100
AcDbEntity
  8
0
 62
7
100
AcDbPolyline
 90
2
 70
0
 10
259.613400
 20
-141.682399
 30
0.0
 10
259.613400
 20
-127.712399
 30
0.0
  0
LWPOLYLINE
  5
1e4
100
AcDbEntity
  8
0
 62
7
100
AcDbPolyline
 90
2
 70
0
 10
273.583400
 20
-141.682399
 30
0.0
 10
259.613400
 20
-141.682399
 30
0.0
  0
LWPOLYLINE
  5
1e5
100
AcDbEntity
  8
0
 62
7
100
AcDbPolyline
 90
2
 70
0
 10
273.583400
 20
-127.712399
 30
0.0
 10
273.583400
 20
-141.682399
 30
0.0
  0
LWPOLYLINE
  5
1e6
100
AcDbEntity
  8
0
 62
7
100
AcDbPolyline
 90
2
 70
0
 10
259.613400
 20
-127.712399
 30
0.0
 10
273.583400
 20
-127.712399
 30
0.0
  0
LWPOLYLINE
  5
1e7
100
AcDbEntity
  8
0
 62
7
100
AcDbPolyline
 90
2
 70
0
 10
278.663400
 20
-141.682399
 30
0.0
 10
278.663400
 20
-127.712399
 30
0.0
  0
LWPOLYLINE
  5
1e8
100
AcDbEntity
  8
0
 62
7
100
AcDbPolyline
 90
2
 70
0
 10
292.633400
 20
-141.682399
 30
0.0
 10
278.663400
 20
-141.682399
 30
0.0
  0
LWPOLYLINE
  5
1e9
100
AcDbEntity
  8
0
 62
7
100
AcDbPolyline
 90
2
 70
0
 10
292.633400
 20
-127.712399
 30
0.0
 10
292.633400
 20
-141.682399
 30
0.0
  0
LWPOLYLINE
  5
1ea
100
AcDbEntity
  8
0
 62
7
100
AcDbPolyline
 90
2
 70
0
 10
278.663400
 20
-127.712399
 30
0.0
 10
292.633400
 20
-127.712399
 30
0.0
  0
LWPOLYLINE
  5
1eb
100
AcDbEntity
  8
0
 62
7
100
AcDbPolyline
 90
2
 70
0
 10
92.864940
 20
-160.681599
 30
0.0
 10
92.864940
 20
-146.711599
 30
0.0
  0
LWPOLYLINE
  5
1ec
100
AcDbEntity
  8
0
 62
7
100
AcDbPolyline
 90
2
 70
0
 10
106.834940
 20
-160.681599
 30
0.0
 10
92.864940
 20
-160.681599
 30
0.0
  0
LWPOLYLINE
  5
1ed
100
AcDbEntity
  8
0
 62
7
100
AcDbPolyline
 90
2
 70
0
 10
106.834940
 20
-146.711599
 30
0.0
 10
106.834940
 20
-160.681599
 30
0.0
  0
LWPOLYLINE
  5
1ee
100
AcDbEntity
  8
0
 62
7
100
AcDbPolyline
 90
2
 70
0
 10
92.864940
 20
-146.711599
 30
0.0
 10
106.834940
 20
-146.711599
 30
0.0
  0
LWPOLYLINE
  5
1ef
100
AcDbEntity
  8
0
 62
7
100
AcDbPolyline
 90
2
 70
0
 10
111.914940
 20
-160.681599
 30
0.0
 10
111.914940
 20
-146.711599
 30
0.0
  0
LWPOLYLINE
  5
1f0
100
AcDbEntity
  8
0
 62
7
100
AcDbPolyline
 90
2
 70
0
 10
125.884940
 20
-160.681599
 30
0.0
 10
111.914940
 20
-160.681599
 30
0.0
  0
LWPOLYLINE
  5
1f1
100
AcDbEntity
  8
0
 62
7
100
AcDbPolyline
 90
2
 70
0
 10
125.884940
 20
-146.711599
 30
0.0
 10
125.884940
 20
-160.681599
 30
0.0
  0
LWPOLYLINE
  5
1f2
100
AcDbEntity
  8
0
 62
7
100
AcDbPolyline
 90
2
 70
0
 10
111.914940
 20
-146.711599
 30
0.0
 10
125.884940
 20
-146.711599
 30
0.0
  0
LWPOLYLINE
  5
1f3
100
AcDbEntity
  8
0
 62
7
100
AcDbPolyline
 90
2
 70
0
 10
130.914140
 20
-160.681599
 30
0.0
 10
130.914140
 20
-146.711599
 30
0.0
  0
LWPOLYLINE
  5
1f4
100
AcDbEntity
  8
0
 62
7
100
AcDbPolyline
 90
2
 70
0
 10
144.884140
 20
-160.681599
 30
0.0
 10
130.914140
 20
-160.681599
 30
0.0
  0
LWPOLYLINE
  5
1f5
100
AcDbEntity
  8
0
 62
7
100
AcDbPolyline
 90
2
 70
0
 10
144.884140
 20
-146.711599
 30
0.0
 10
144.884140
 20
-160.681599
 30
0.0
  0
LWPOLYLINE
  5
1f6
100
AcDbEntity
  8
0
 62
7
100
AcDbPolyline
 90
2
 70
0
 10
130.914140
 20
-146.711599
 30
0.0
 10
144.884140
 20
-146.711599
 30
0.0
  0
LWPOLYLINE
  5
1f7
100
AcDbEntity
  8
0
 62
7
100
AcDbPolyline
 90
2
 70
0
 10
150.014940
 20
-160.681599
 30
0.0
 10
150.014940
 20
-146.711599
 30
0.0
  0
LWPOLYLINE
  5
1f8
100
AcDbEntity
  8
0
 62
7
100
AcDbPolyline
 90
2
 70
0
 10
163.984940
 20
-160.681599
 30
0.0
 10
150.014940
 20
-160.681599
 30
0.0
  0
LWPOLYLINE
  5
1f9
100
AcDbEntity
  8
0
 62
7
100
AcDbPolyline
 90
2
 70
0
 10
163.984940
 20
-146.711599
 30
0.0
 10
163.984940
 20
-160.681599
 30
0.0
  0
LWPOLYLINE
  5
1fa
100
AcDbEntity
  8
0
 62
7
100
AcDbPolyline
 90
2
 70
0
 10
150.014940
 20
-146.711599
 30
0.0
 10
163.984940
 20
-146.711599
 30
0.0
  0
LWPOLYLINE
  5
1fb
100
AcDbEntity
  8
0
 62
7
100
AcDbPolyline
 90
2
 70
0
 10
169.064940
 20
-160.681599
 30
0.0
 10
169.064940
 20
-146.711599
 30
0.0
  0
LWPOLYLINE
  5
1fc
100
AcDbEntity
  8
0
 62
7
100
AcDbPolyline
 90
2
 70
0
 10
183.034940
 20
-160.681599
 30
0.0
 10
169.064940
 20
-160.681599
 30
0.0
  0
LWPOLYLINE
  5
1fd
100
AcDbEntity
  8
0
 62
7
100
AcDbPolyline
 90
2
 70
0
 10
183.034940
 20
-146.711599
 30
0.0
 10
183.034940
 20
-160.681599
 30
0.0
  0
LWPOLYLINE
  5
1fe
100
AcDbEntity
  8
0
 62
7
100
AcDbPolyline
 90
2
 70
0
 10
169.064940
 20
-146.711599
 30
0.0
 10
183.034940
 20
-146.711599
 30
0.0
  0
LWPOLYLINE
  5
1ff
100
AcDbEntity
  8
0
 62
7
100
AcDbPolyline
 90
2
 70
0
 10
188.114940
 20
-160.681599
 30
0.0
 10
188.114940
 20
-146.711599
 30
0.0
  0
LWPOLYLINE
  5
200
100
AcDbEntity
  8
0
 62
7
100
AcDbPolyline
 90
2
 70
0
 10
202.084940
 20
-160.681599
 30
0.0
 10
188.114940
 20
-160.681599
 30
0.0
  0
LWPOLYLINE
  5
201
100
AcDbEntity
  8
0
 62
7
100
AcDbPolyline
 90
2
 70
0
 10
202.084940
 20
-146.711599
 30
0.0
 10
202.084940
 20
-160.681599
 30
0.0
  0
LWPOLYLINE
  5
202
100
AcDbEntity
  8
0
 62
7
100
AcDbPolyline
 90
2
 70
0
 10
188.114940
 20
-146.711599
 30
0.0
 10
202.084940
 20
-146.711599
 30
0.0
  0
LWPOLYLINE
  5
203
100
AcDbEntity
  8
0
 62
7
100
AcDbPolyline
 90
2
 70
0
 10
207.213200
 20
-160.681599
 30
0.0
 10
207.213200
 20
-146.711599
 30
0.0
  0
LWPOLYLINE
  5
204
100
AcDbEntity
  8
0
 62
7
100
AcDbPolyline
 90
2
 70
0
 10
221.183200
 20
-160.681599
 30
0.0
 10
207.213200
 20
-160.681599
 30
0.0
  0
LWPOLYLINE
  5
205
100
AcDbEntity
  8
0
 62
7
100
AcDbPolyline
 90
2
 70
0
 10
221.183200
 20
-146.711599
 30
0.0
 10
221.183200
 20
-160.681599
 30
0.0
  0
LWPOLYLINE
  5
206
100
AcDbEntity
  8
0
 62
7
100
AcDbPolyline
 90
2
 70
0
 10
207.213200
 20
-146.711599
 30
0.0
 10
221.183200
 20
-146.711599
 30
0.0
  0
LWPOLYLINE
  5
207
100
AcDbEntity
  8
0
 62
7
100
AcDbPolyline
 90
2
 70
0
 10
226.263200
 20
-160.681599
 30
0.0
 10
226.263200
 20
-146.711599
 30
0.0
  0
LWPOLYLINE
  5
208
100
AcDbEntity
  8
0
 62
7
100
AcDbPolyline
 90
2
 70
0
 10
240.233200
 20
-160.681599
 30
0.0
 10
226.263200
 20
-160.681599
 30
0.0
  0
LWPOLYLINE
  5
209
100
AcDbEntity
  8
0
 62
7
100
AcDbPolyline
 90
2
 70
0
 10
240.233200
 20
-146.711599
 30
0.0
 10
240.233200
 20
-160.681599
 30
0.0
  0
LWPOLYLINE
  5
20a
100
AcDbEntity
  8
0
 62
7
100
AcDbPolyline
 90
2
 70
0
 10
226.263200
 20
-146.711599
 30
0.0
 10
240.233200
 20
-146.711599
 30
0.0
  0
LWPOLYLINE
  5
20b
100
AcDbEntity
  8
0
 62
7
100
AcDbPolyline
 90
2
 70
0
 10
245.313200
 20
-160.681599
 30
0.0
 10
245.313200
 20
-146.711599
 30
0.0
  0
LWPOLYLINE
  5
20c
100
AcDbEntity
  8
0
 62
7
100
AcDbPolyline
 90
2
 70
0
 10
259.283200
 20
-160.681599
 30
0.0
 10
245.313200
 20
-160.681599
 30
0.0
  0
LWPOLYLINE
  5
20d
100
AcDbEntity
  8
0
 62
7
100
AcDbPolyline
 90
2
 70
0
 10
259.283200
 20
-146.711599
 30
0.0
 10
259.283200
 20
-160.681599
 30
0.0
  0
LWPOLYLINE
  5
20e
100
AcDbEntity
  8
0
 62
7
100
AcDbPolyline
 90
2
 70
0
 10
245.313200
 20
-146.711599
 30
0.0
 10
259.283200
 20
-146.711599
 30
0.0
  0
LWPOLYLINE
  5
20f
100
AcDbEntity
  8
0
 62
7
100
AcDbPolyline
 90
2
 70
0
 10
264.363200
 20
-160.681599
 30
0.0
 10
264.363200
 20
-146.711599
 30
0.0
  0
LWPOLYLINE
  5
210
100
AcDbEntity
  8
0
 62
7
100
AcDbPolyline
 90
2
 70
0
 10
278.333200
 20
-160.681599
 30
0.0
 10
264.363200
 20
-160.681599
 30
0.0
  0
LWPOLYLINE
  5
211
100
AcDbEntity
  8
0
 62
7
100
AcDbPolyline
 90
2
 70
0
 10
278.333200
 20
-146.711599
 30
0.0
 10
278.333200
 20
-160.681599
 30
0.0
  0
LWPOLYLINE
  5
212
100
AcDbEntity
  8
0
 62
7
100
AcDbPolyline
 90
2
 70
0
 10
264.363200
 20
-146.711599
 30
0.0
 10
278.333200
 20
-146.711599
 30
0.0
  0
LWPOLYLINE
  5
213
100
AcDbEntity
  8
0
 62
7
100
AcDbPolyline
 90
2
 70
0
 10
283.413200
 20
-160.681599
 30
0.0
 10
283.413200
 20
-146.711599
 30
0.0
  0
LWPOLYLINE
  5
214
100
AcDbEntity
  8
0
 62
7
100
AcDbPolyline
 90
2
 70
0
 10
297.383200
 20
-160.681599
 30
0.0
 10
283.413200
 20
-160.681599
 30
0.0
  0
LWPOLYLINE
  5
215
100
AcDbEntity
  8
0
 62
7
100
AcDbPolyline
 90
2
 70
0
 10
297.383200
 20
-146.711599
 30
0.0
 10
297.383200
 20
-160.681599
 30
0.0
  0
LWPOLYLINE
  5
216
100
AcDbEntity
  8
0
 62
7
100
AcDbPolyline
 90
2
 70
0
 10
283.413200
 20
-146.711599
 30
0.0
 10
297.383200
 20
-146.711599
 30
0.0
  0
LWPOLYLINE
  5
217
100
AcDbEntity
  8
0
 62
7
100
AcDbPolyline
 90
2
 70
0
 10
102.412800
 20
-179.782399
 30
0.0
 10
102.412800
 20
-165.812399
 30
0.0
  0
LWPOLYLINE
  5
218
100
AcDbEntity
  8
0
 62
7
100
AcDbPolyline
 90
2
 70
0
 10
116.382800
 20
-179.782399
 30
0.0
 10
102.412800
 20
-179.782399
 30
0.0
  0
LWPOLYLINE
  5
219
100
AcDbEntity
  8
0
 62
7
100
AcDbPolyline
 90
2
 70
0
 10
116.382800
 20
-165.812399
 30
0.0
 10
116.382800
 20
-179.782399
 30
0.0
  0
LWPOLYLINE
  5
21a
100
AcDbEntity
  8
0
 62
7
100
AcDbPolyline
 90
2
 70
0
 10
102.412800
 20
-165.812399
 30
0.0
 10
116.382800
 20
-165.812399
 30
0.0
  0
LWPOLYLINE
  5
21b
100
AcDbEntity
  8
0
 62
7
100
AcDbPolyline
 90
2
 70
0
 10
121.462800
 20
-179.782399
 30
0.0
 10
121.462800
 20
-165.812399
 30
0.0
  0
LWPOLYLINE
  5
21c
100
AcDbEntity
  8
0
 62
7
100
AcDbPolyline
 90
2
 70
0
 10
135.432800
 20
-179.782399
 30
0.0
 10
121.462800
 20
-179.782399
 30
0.0
  0
LWPOLYLINE
  5
21d
100
AcDbEntity
  8
0
 62
7
100
AcDbPolyline
 90
2
 70
0
 10
135.432800
 20
-165.812399
 30
0.0
 10
135.432800
 20
-179.782399
 30
0.0
  0
LWPOLYLINE
  5
21e
100
AcDbEntity
  8
0
 62
7
100
AcDbPolyline
 90
2
 70
0
 10
121.462800
 20
-165.812399
 30
0.0
 10
135.432800
 20
-165.812399
 30
0.0
  0
LWPOLYLINE
  5
21f
100
AcDbEntity
  8
0
 62
7
100
AcDbPolyline
 90
2
 70
0
 10
140.512800
 20
-179.782399
 30
0.0
 10
140.512800
 20
-165.812399
 30
0.0
  0
LWPOLYLINE
  5
220
100
AcDbEntity
  8
0
 62
7
100
AcDbPolyline
 90
2
 70
0
 10
154.482800
 20
-179.782399
 30
0.0
 10
140.512800
 20
-179.782399
 30
0.0
  0
LWPOLYLINE
  5
221
100
AcDbEntity
  8
0
 62
7
100
AcDbPolyline
 90
2
 70
0
 10
154.482800
 20
-165.812399
 30
0.0
 10
154.482800
 20
-179.782399
 30
0.0
  0
LWPOLYLINE
  5
222
100
AcDbEntity
  8
0
 62
7
100
AcDbPolyline
 90
2
 70
0
 10
140.512800
 20
-165.812399
 30
0.0
 10
154.482800
 20
-165.812399
 30
0.0
  0
LWPOLYLINE
  5
223
100
AcDbEntity
  8
0
 62
7
100
AcDbPolyline
 90
2
 70
0
 10
159.562800
 20
-179.782399
 30
0.0
 10
159.562800
 20
-165.812399
 30
0.0
  0
LWPOLYLINE
  5
224
100
AcDbEntity
  8
0
 62
7
100
AcDbPolyline
 90
2
 70
0
 10
173.532800
 20
-179.782399
 30
0.0
 10
159.562800
 20
-179.782399
 30
0.0
  0
LWPOLYLINE
  5
225
100
AcDbEntity
  8
0
 62
7
100
AcDbPolyline
 90
2
 70
0
 10
173.532800
 20
-165.812399
 30
0.0
 10
173.532800
 20
-179.782399
 30
0.0
  0
LWPOLYLINE
  5
226
100
AcDbEntity
  8
0
 62
7
100
AcDbPolyline
 90
2
 70
0
 10
159.562800
 20
-165.812399
 30
0.0
 10
173.532800
 20
-165.812399
 30
0.0
  0
LWPOLYLINE
  5
227
100
AcDbEntity
  8
0
 62
7
100
AcDbPolyline
 90
2
 70
0
 10
178.612800
 20
-179.782399
 30
0.0
 10
178.612800
 20
-165.812399
 30
0.0
  0
LWPOLYLINE
  5
228
100
AcDbEntity
  8
0
 62
7
100
AcDbPolyline
 90
2
 70
0
 10
192.582800
 20
-179.782399
 30
0.0
 10
178.612800
 20
-179.782399
 30
0.0
  0
LWPOLYLINE
  5
229
100
AcDbEntity
  8
0
 62
7
100
AcDbPolyline
 90
2
 70
0
 10
192.582800
 20
-165.812399
 30
0.0
 10
192.582800
 20
-179.782399
 30
0.0
  0
LWPOLYLINE
  5
22a
100
AcDbEntity
  8
0
 62
7
100
AcDbPolyline
 90
2
 70
0
 10
178.612800
 20
-165.812399
 30
0.0
 10
192.582800
 20
-165.812399
 30
0.0
  0
LWPOLYLINE
  5
22b
100
AcDbEntity
  8
0
 62
7
100
AcDbPolyline
 90
2
 70
0
 10
197.662800
 20
-179.782399
 30
0.0
 10
197.662800
 20
-165.812399
 30
0.0
  0
LWPOLYLINE
  5
22c
100
AcDbEntity
  8
0
 62
7
100
AcDbPolyline
 90
2
 70
0
 10
211.632800
 20
-179.782399
 30
0.0
 10
197.662800
 20
-179.782399
 30
0.0
  0
LWPOLYLINE
  5
22d
100
AcDbEntity
  8
0
 62
7
100
AcDbPolyline
 90
2
 70
0
 10
211.632800
 20
-165.812399
 30
0.0
 10
211.632800
 20
-179.782399
 30
0.0
  0
LWPOLYLINE
  5
22e
100
AcDbEntity
  8
0
 62
7
100
AcDbPolyline
 90
2
 70
0
 10
197.662800
 20
-165.812399
 30
0.0
 10
211.632800
 20
-165.812399
 30
0.0
  0
LWPOLYLINE
  5
22f
100
AcDbEntity
  8
0
 62
7
100
AcDbPolyline
 90
2
 70
0
 10
216.712800
 20
-179.782399
 30
0.0
 10
216.712800
 20
-165.812399
 30
0.0
  0
LWPOLYLINE
  5
230
100
AcDbEntity
  8
0
 62
7
100
AcDbPolyline
 90
2
 70
0
 10
230.682800
 20
-179.782399
 30
0.0
 10
216.712800
 20
-179.782399
 30
0.0
  0
LWPOLYLINE
  5
231
100
AcDbEntity
  8
0
 62
7
100
AcDbPolyline
 90
2
 70
0
 10
230.682800
 20
-165.812399
 30
0.0
 10
230.682800
 20
-179.782399
 30
0.0
  0
LWPOLYLINE
  5
232
100
AcDbEntity
  8
0
 62
7
100
AcDbPolyline
 90
2
 70
0
 10
216.712800
 20
-165.812399
 30
0.0
 10
230.682800
 20
-165.812399
 30
0.0
  0
LWPOLYLINE
  5
233
100
AcDbEntity
  8
0
 62
7
100
AcDbPolyline
 90
2
 70
0
 10
235.762800
 20
-179.782399
 30
0.0
 10
235.762800
 20
-165.812399
 30
0.0
  0
LWPOLYLINE
  5
234
100
AcDbEntity
  8
0
 62
7
100
AcDbPolyline
 90
2
 70
0
 10
249.732800
 20
-179.782399
 30
0.0
 10
235.762800
 20
-179.782399
 30
0.0
  0
LWPOLYLINE
  5
235
100
AcDbEntity
  8
0
 62
7
100
AcDbPolyline
 90
2
 70
0
 10
249.732800
 20
-165.812399
 30
0.0
 10
249.732800
 20
-179.782399
 30
0.0
  0
LWPOLYLINE
  5
236
100
AcDbEntity
  8
0
 62
7
100
AcDbPolyline
 90
2
 70
0
 10
235.762800
 20
-165.812399
 30
0.0
 10
249.732800
 20
-165.812399
 30
0.0
  0
LWPOLYLINE
  5
237
100
AcDbEntity
  8
0
 62
7
100
AcDbPolyline
 90
2
 70
0
 10
254.812800
 20
-179.782399
 30
0.0
 10
254.812800
 20
-165.812399
 30
0.0
  0
LWPOLYLINE
  5
238
100
AcDbEntity
  8
0
 62
7
100
AcDbPolyline
 90
2
 70
0
 10
268.782800
 20
-179.782399
 30
0.0
 10
254.812800
 20
-179.782399
 30
0.0
  0
LWPOLYLINE
  5
239
100
AcDbEntity
  8
0
 62
7
100
AcDbPolyline
 90
2
 70
0
 10
268.782800
 20
-165.812399
 30
0.0
 10
268.782800
 20
-179.782399
 30
0.0
  0
LWPOLYLINE
  5
23a
100
AcDbEntity
  8
0
 62
7
100
AcDbPolyline
 90
2
 70
0
 10
254.812800
 20
-165.812399
 30
0.0
 10
268.782800
 20
-165.812399
 30
0.0
  0
LWPOLYLINE
  5
23b
100
AcDbEntity
  8
0
 62
7
100
AcDbPolyline
 90
2
 70
0
 10
273.872960
 20
-179.774779
 30
0.0
 10
273.872960
 20
-165.804779
 30
0.0
  0
LWPOLYLINE
  5
23c
100
AcDbEntity
  8
0
 62
7
100
AcDbPolyline
 90
2
 70
0
 10
287.842960
 20
-179.774779
 30
0.0
 10
273.872960
 20
-179.774779
 30
0.0
  0
LWPOLYLINE
  5
23d
100
AcDbEntity
  8
0
 62
7
100
AcDbPolyline
 90
2
 70
0
 10
287.842960
 20
-165.804779
 30
0.0
 10
287.842960
 20
-179.774779
 30
0.0
  0
LWPOLYLINE
  5
23e
100
AcDbEntity
  8
0
 62
7
100
AcDbPolyline
 90
2
 70
0
 10
273.872960
 20
-165.804779
 30
0.0
 10
287.842960
 20
-165.804779
 30
0.0
  0
LWPOLYLINE
  5
23f
100
AcDbEntity
  8
0
 62
7
100
AcDbPolyline
 90
2
 70
0
 10
330.774040
 20
-184.532199
 30
0.0
 10
330.774040
 20
-170.562199
 30
0.0
  0
LWPOLYLINE
  5
240
100
AcDbEntity
  8
0
 62
7
100
AcDbPolyline
 90
2
 70
0
 10
344.744040
 20
-184.532199
 30
0.0
 10
330.774040
 20
-184.532199
 30
0.0
  0
LWPOLYLINE
  5
241
100
AcDbEntity
  8
0
 62
7
100
AcDbPolyline
 90
2
 70
0
 10
344.744040
 20
-170.562199
 30
0.0
 10
344.744040
 20
-184.532199
 30
0.0
  0
LWPOLYLINE
  5
242
100
AcDbEntity
  8
0
 62
7
100
AcDbPolyline
 90
2
 70
0
 10
330.774040
 20
-170.562199
 30
0.0
 10
344.744040
 20
-170.562199
 30
0.0
  0
LWPOLYLINE
  5
243
100
AcDbEntity
  8
0
 62
7
100
AcDbPolyline
 90
2
 70
0
 10
83.362800
 20
-198.832399
 30
0.0
 10
83.362800
 20
-184.862399
 30
0.0
  0
LWPOLYLINE
  5
244
100
AcDbEntity
  8
0
 62
7
100
AcDbPolyline
 90
2
 70
0
 10
97.332800
 20
-198.832399
 30
0.0
 10
83.362800
 20
-198.832399
 30
0.0
  0
LWPOLYLINE
  5
245
100
AcDbEntity
  8
0
 62
7
100
AcDbPolyline
 90
2
 70
0
 10
97.332800
 20
-184.862399
 30
0.0
 10
97.332800
 20
-198.832399
 30
0.0
  0
LWPOLYLINE
  5
246
100
AcDbEntity
  8
0
 62
7
100
AcDbPolyline
 90
2
 70
0
 10
83.362800
 20
-184.862399
 30
0.0
 10
97.332800
 20
-184.862399
 30
0.0
  0
LWPOLYLINE
  5
247
100
AcDbEntity
  8
0
 62
7
100
AcDbPolyline
 90
2
 70
0
 10
127.894080
 20
-199.086399
 30
0.0
 10
131.508500
 20
-185.593919
 30
0.0
  0
LWPOLYLINE
  5
248
100
AcDbEntity
  8
0
 62
7
100
AcDbPolyline
 90
2
 70
0
 10
141.389100
 20
-202.703359
 30
0.0
 10
127.894080
 20
-199.086399
 30
0.0
  0
LWPOLYLINE
  5
249
100
AcDbEntity
  8
0
 62
7
100
AcDbPolyline
 90
2
 70
0
 10
145.003520
 20
-189.208339
 30
0.0
 10
141.389100
 20
-202.703359
 30
0.0
  0
LWPOLYLINE
  5
24a
100
AcDbEntity
  8
0
 62
7
100
AcDbPolyline
 90
2
 70
0
 10
131.508500
 20
-185.593919
 30
0.0
 10
145.003520
 20
-189.208339
 30
0.0
  0
LWPOLYLINE
  5
24b
100
AcDbEntity
  8
0
 62
7
100
AcDbPolyline
 90
2
 70
0
 10
229.859840
 20
-202.751619
 30
0.0
 10
226.242880
 20
-189.259139
 30
0.0
  0
LWPOLYLINE
  5
24c
100
AcDbEntity
  8
0
 62
7
100
AcDbPolyline
 90
2
 70
0
 10
243.352320
 20
-199.137199
 30
0.0
 10
229.859840
 20
-202.751619
 30
0.0
  0
LWPOLYLINE
  5
24d
100
AcDbEntity
  8
0
 62
7
100
AcDbPolyline
 90
2
 70
0
 10
239.737900
 20
-185.642179
 30
0.0
 10
243.352320
 20
-199.137199
 30
0.0
  0
LWPOLYLINE
  5
24e
100
AcDbEntity
  8
0
 62
7
100
AcDbPolyline
 90
2
 70
0
 10
226.242880
 20
-189.259139
 30
0.0
 10
239.737900
 20
-185.642179
 30
0.0
  0
LWPOLYLINE
  5
24f
100
AcDbEntity
  8
0
 62
7
100
AcDbPolyline
 90
2
 70
0
 10
268.673580
 20
-198.832399
 30
0.0
 10
268.673580
 20
-184.862399
 30
0.0
  0
LWPOLYLINE
  5
250
100
AcDbEntity
  8
0
 62
7
100
AcDbPolyline
 90
2
 70
0
 10
282.643580
 20
-198.832399
 30
0.0
 10
268.673580
 20
-198.832399
 30
0.0
  0
LWPOLYLINE
  5
251
100
AcDbEntity
  8
0
 62
7
100
AcDbPolyline
 90
2
 70
0
 10
282.643580
 20
-184.862399
 30
0.0
 10
282.643580
 20
-198.832399
 30
0.0
  0
LWPOLYLINE
  5
252
100
AcDbEntity
  8
0
 62
7
100
AcDbPolyline
 90
2
 70
0
 10
268.673580
 20
-184.862399
 30
0.0
 10
282.643580
 20
-184.862399
 30
0.0
  0
LWPOLYLINE
  5
253
100
AcDbEntity
  8
0
 62
7
100
AcDbPolyline
 90
2
 70
0
 10
311.724040
 20
-203.582199
 30
0.0
 10
311.724040
 20
-189.612199
 30
0.0
  0
LWPOLYLINE
  5
254
100
AcDbEntity
  8
0
 62
7
100
AcDbPolyline
 90
2
 70
0
 10
325.694040
 20
-203.582199
 30
0.0
 10
311.724040
 20
-203.582199
 30
0.0
  0
LWPOLYLINE
  5
255
100
AcDbEntity
  8
0
 62
7
100
AcDbPolyline
 90
2
 70
0
 10
325.694040
 20
-189.612199
 30
0.0
 10
325.694040
 20
-203.582199
 30
0.0
  0
LWPOLYLINE
  5
256
100
AcDbEntity
  8
0
 62
7
100
AcDbPolyline
 90
2
 70
0
 10
311.724040
 20
-189.612199
 30
0.0
 10
325.694040
 20
-189.612199
 30
0.0
  0
LWPOLYLINE
  5
257
100
AcDbEntity
  8
0
 62
7
100
AcDbPolyline
 90
2
 70
0
 10
330.774040
 20
-203.582199
 30
0.0
 10
330.774040
 20
-189.612199
 30
0.0
  0
LWPOLYLINE
  5
258
100
AcDbEntity
  8
0
 62
7
100
AcDbPolyline
 90
2
 70
0
 10
344.744040
 20
-203.582199
 30
0.0
 10
330.774040
 20
-203.582199
 30
0.0
  0
LWPOLYLINE
  5
259
100
AcDbEntity
  8
0
 62
7
100
AcDbPolyline
 90
2
 70
0
 10
344.744040
 20
-189.612199
 30
0.0
 10
344.744040
 20
-203.582199
 30
0.0
  0
LWPOLYLINE
  5
25a
100
AcDbEntity
  8
0
 62
7
100
AcDbPolyline
 90
2
 70
0
 10
330.774040
 20
-189.612199
 30
0.0
 10
344.744040
 20
-189.612199
 30
0.0
  0
LWPOLYLINE
  5
25b
100
AcDbEntity
  8
0
 62
7
100
AcDbPolyline
 90
2
 70
0
 10
349.824040
 20
-203.582199
 30
0.0
 10
349.824040
 20
-189.612199
 30
0.0
  0
LWPOLYLINE
  5
25c
100
AcDbEntity
  8
0
 62
7
100
AcDbPolyline
 90
2
 70
0
 10
363.794040
 20
-203.582199
 30
0.0
 10
349.824040
 20
-203.582199
 30
0.0
  0
LWPOLYLINE
  5
25d
100
AcDbEntity
  8
0
 62
7
100
AcDbPolyline
 90
2
 70
0
 10
363.794040
 20
-189.612199
 30
0.0
 10
363.794040
 20
-203.582199
 30
0.0
  0
LWPOLYLINE
  5
25e
100
AcDbEntity
  8
0
 62
7
100
AcDbPolyline
 90
2
 70
0
 10
349.824040
 20
-189.612199
 30
0.0
 10
363.794040
 20
-189.612199
 30
0.0
  0
LWPOLYLINE
  5
25f
100
AcDbEntity
  8
0
 62
7
100
AcDbPolyline
 90
2
 70
0
 10
297.713400
 20
-141.682399
 30
0.0
 10
297.713400
 20
-127.712399
 30
0.0
  0
LWPOLYLINE
  5
260
100
AcDbEntity
  8
0
 62
7
100
AcDbPolyline
 90
2
 70
0
 10
311.683400
 20
-141.682399
 30
0.0
 10
297.713400
 20
-141.682399
 30
0.0
  0
LWPOLYLINE
  5
261
100
AcDbEntity
  8
0
 62
7
100
AcDbPolyline
 90
2
 70
0
 10
311.683400
 20
-127.712399
 30
0.0
 10
311.683400
 20
-141.682399
 30
0.0
  0
LWPOLYLINE
  5
262
100
AcDbEntity
  8
0
 62
7
100
AcDbPolyline
 90
2
 70
0
 10
297.713400
 20
-127.712399
 30
0.0
 10
311.683400
 20
-127.712399
 30
0.0
  0
LWPOLYLINE
  5
263
100
AcDbEntity
  8
0
 62
7
100
AcDbPolyline
 90
2
 70
0
 10
88.071960
 20
-180.569799
 30
0.0
 10
88.071960
 20
-179.401399
 30
0.0
  0
LWPOLYLINE
  5
264
100
AcDbEntity
  8
0
 62
7
100
AcDbPolyline
 90
2
 70
0
 10
94.548960
 20
-170.511399
 30
0.0
 10
94.548960
 20
-173.305399
 30
0.0
  0
LWPOLYLINE
  5
265
100
AcDbEntity
  8
0
 62
7
100
AcDbPolyline
 90
2
 70
0
 10
71.434960
 20
-178.613999
 30
0.0
 10
69.809360
 20
-178.613999
 30
0.0
  0
LWPOLYLINE
  5
266
100
AcDbEntity
  8
0
 62
7
100
AcDbPolyline
 90
2
 70
0
 10
92.643960
 20
-179.401399
 30
0.0
 10
92.643960
 20
-180.569799
 30
0.0
  0
LWPOLYLINE
  5
267
100
AcDbEntity
  8
0
 62
7
100
AcDbPolyline
 90
2
 70
0
 10
71.434960
 20
-179.782399
 30
0.0
 10
71.434960
 20
-178.613999
 30
0.0
  0
LWPOLYLINE
  5
268
100
AcDbEntity
  8
0
 62
7
100
AcDbPolyline
 90
2
 70
0
 10
93.685360
 20
-173.305399
 30
0.0
 10
93.685360
 20
-179.401399
 30
0.0
  0
LWPOLYLINE
  5
269
100
AcDbEntity
  8
0
 62
7
100
AcDbPolyline
 90
2
 70
0
 10
63.154560
 20
-170.511399
 30
0.0
 10
63.154560
 20
-167.107799
 30
0.0
  0
LWPOLYLINE
  5
26a
100
AcDbEntity
  8
0
 62
7
100
AcDbPolyline
 90
2
 70
0
 10
71.434960
 20
-165.812399
 30
0.0
 10
85.404960
 20
-165.812399
 30
0.0
  0
LWPOLYLINE
  5
26b
100
AcDbEntity
  8
0
 62
7
100
AcDbPolyline
 90
2
 70
0
 10
71.434960
 20
-167.920599
 30
0.0
 10
71.434960
 20
-165.812399
 30
0.0
  0
LWPOLYLINE
  5
26c
100
AcDbEntity
  8
0
 62
7
100
AcDbPolyline
 90
2
 70
0
 10
63.154560
 20
-167.107799
 30
0.0
 10
69.809360
 20
-167.107799
 30
0.0
  0
LWPOLYLINE
  5
26d
100
AcDbEntity
  8
0
 62
7
100
AcDbPolyline
 90
2
 70
0
 10
63.154560
 20
-179.401399
 30
0.0
 10
63.154560
 20
-173.305399
 30
0.0
  0
LWPOLYLINE
  5
26e
100
AcDbEntity
  8
0
 62
7
100
AcDbPolyline
 90
2
 70
0
 10
85.404960
 20
-165.812399
 30
0.0
 10
85.404960
 20
-167.920599
 30
0.0
  0
LWPOLYLINE
  5
26f
100
AcDbEntity
  8
0
 62
7
100
AcDbPolyline
 90
2
 70
0
 10
88.071960
 20
-179.401399
 30
0.0
 10
87.030560
 20
-179.401399
 30
0.0
  0
LWPOLYLINE
  5
270
100
AcDbEntity
  8
0
 62
7
100
AcDbPolyline
 90
2
 70
0
 10
68.767960
 20
-179.401399
 30
0.0
 10
68.767960
 20
-180.569799
 30
0.0
  0
LWPOLYLINE
  5
271
100
AcDbEntity
  8
0
 62
7
100
AcDbPolyline
 90
2
 70
0
 10
69.809360
 20
-167.920599
 30
0.0
 10
71.434960
 20
-167.920599
 30
0.0
  0
LWPOLYLINE
  5
272
100
AcDbEntity
  8
0
 62
7
100
AcDbPolyline
 90
2
 70
0
 10
85.404960
 20
-178.613999
 30
0.0
 10
85.404960
 20
-179.782399
 30
0.0
  0
LWPOLYLINE
  5
273
100
AcDbEntity
  8
0
 62
7
100
AcDbPolyline
 90
2
 70
0
 10
93.685360
 20
-167.107799
 30
0.0
 10
93.685360
 20
-170.511399
 30
0.0
  0
LWPOLYLINE
  5
274
100
AcDbEntity
  8
0
 62
7
100
AcDbPolyline
 90
2
 70
0
 10
87.030560
 20
-179.401399
 30
0.0
 10
87.030560
 20
-178.613999
 30
0.0
  0
LWPOLYLINE
  5
275
100
AcDbEntity
  8
0
 62
7
100
AcDbPolyline
 90
2
 70
0
 10
68.767960
 20
-180.569799
 30
0.0
 10
64.195960
 20
-180.569799
 30
0.0
  0
LWPOLYLINE
  5
276
100
AcDbEntity
  8
0
 62
7
100
AcDbPolyline
 90
2
 70
0
 10
93.685360
 20
-170.511399
 30
0.0
 10
94.548960
 20
-170.511399
 30
0.0
  0
LWPOLYLINE
  5
277
100
AcDbEntity
  8
0
 62
7
100
AcDbPolyline
 90
2
 70
0
 10
64.195960
 20
-179.401399
 30
0.0
 10
63.154560
 20
-179.401399
 30
0.0
  0
LWPOLYLINE
  5
278
100
AcDbEntity
  8
0
 62
7
100
AcDbPolyline
 90
2
 70
0
 10
93.685360
 20
-179.401399
 30
0.0
 10
92.643960
 20
-179.401399
 30
0.0
  0
LWPOLYLINE
  5
279
100
AcDbEntity
  8
0
 62
7
100
AcDbPolyline
 90
2
 70
0
 10
92.643960
 20
-180.569799
 30
0.0
 10
88.071960
 20
-180.569799
 30
0.0
  0
LWPOLYLINE
  5
27a
100
AcDbEntity
  8
0
 62
7
100
AcDbPolyline
 90
2
 70
0
 10
87.030560
 20
-167.107799
 30
0.0
 10
93.685360
 20
-167.107799
 30
0.0
  0
LWPOLYLINE
  5
27b
100
AcDbEntity
  8
0
 62
7
100
AcDbPolyline
 90
2
 70
0
 10
64.195960
 20
-180.569799
 30
0.0
 10
64.195960
 20
-179.401399
 30
0.0
  0
LWPOLYLINE
  5
27c
100
AcDbEntity
  8
0
 62
7
100
AcDbPolyline
 90
2
 70
0
 10
62.290960
 20
-170.511399
 30
0.0
 10
63.154560
 20
-170.511399
 30
0.0
  0
LWPOLYLINE
  5
27d
100
AcDbEntity
  8
0
 62
7
100
AcDbPolyline
 90
2
 70
0
 10
85.404960
 20
-179.782399
 30
0.0
 10
71.434960
 20
-179.782399
 30
0.0
  0
LWPOLYLINE
  5
27e
100
AcDbEntity
  8
0
 62
7
100
AcDbPolyline
 90
2
 70
0
 10
87.030560
 20
-178.613999
 30
0.0
 10
85.404960
 20
-178.613999
 30
0.0
  0
LWPOLYLINE
  5
27f
100
AcDbEntity
  8
0
 62
7
100
AcDbPolyline
 90
3
 70
0
 10
85.404960
 20
-167.920599
 30
0.0
 10
87.030560
 20
-167.920599
 30
0.0
 10
87.030560
 20
-167.107799
 30
0.0
  0
LWPOLYLINE
  5
280
100
AcDbEntity
  8
0
 62
7
100
AcDbPolyline
 90
2
 70
0
 10
69.809360
 20
-167.107799
 30
0.0
 10
69.809360
 20
-167.920599
 30
0.0
  0
LWPOLYLINE
  5
281
100
AcDbEntity
  8
0
 62
7
100
AcDbPolyline
 90
2
 70
0
 10
69.809360
 20
-179.401399
 30
0.0
 10
68.767960
 20
-179.401399
 30
0.0
  0
LWPOLYLINE
  5
282
100
AcDbEntity
  8
0
 62
7
100
AcDbPolyline
 90
2
 70
0
 10
69.809360
 20
-178.613999
 30
0.0
 10
69.809360
 20
-179.401399
 30
0.0
  0
LWPOLYLINE
  5
283
100
AcDbEntity
  8
0
 62
7
100
AcDbPolyline
 90
2
 70
0
 10
94.548960
 20
-173.305399
 30
0.0
 10
93.685360
 20
-173.305399
 30
0.0
  0
LWPOLYLINE
  5
284
100
AcDbEntity
  8
0
 62
7
100
AcDbPolyline
 90
3
 70
0
 10
63.154560
 20
-173.305399
 30
0.0
 10
62.290960
 20
-173.305399
 30
0.0
 10
62.290960
 20
-170.511399
 30
0.0
  0
LWPOLYLINE
  5
285
100
AcDbEntity
  8
0
 62
7
100
AcDbPolyline
 90
2
 70
0
 10
307.619400
 20
-116.104599
 30
0.0
 10
307.619400
 20
-113.310599
 30
0.0
  0
LWPOLYLINE
  5
286
100
AcDbEntity
  8
0
 62
7
100
AcDbPolyline
 90
2
 70
0
 10
308.483000
 20
-116.104599
 30
0.0
 10
307.619400
 20
-116.104599
 30
0.0
  0
LWPOLYLINE
  5
287
100
AcDbEntity
  8
0
 62
7
100
AcDbPolyline
 90
2
 70
0
 10
339.877400
 20
-116.104599
 30
0.0
 10
339.013800
 20
-116.104599
 30
0.0
  0
LWPOLYLINE
  5
288
100
AcDbEntity
  8
0
 62
7
100
AcDbPolyline
 90
3
 70
0
 10
315.137800
 20
-121.413199
 30
0.0
 10
315.137800
 20
-122.200599
 30
0.0
 10
314.096400
 20
-122.200599
 30
0.0
  0
LWPOLYLINE
  5
289
100
AcDbEntity
  8
0
 62
7
100
AcDbPolyline
 90
2
 70
0
 10
315.137800
 20
-109.906999
 30
0.0
 10
315.137800
 20
-110.719799
 30
0.0
  0
LWPOLYLINE
  5
28a
100
AcDbEntity
  8
0
 62
7
100
AcDbPolyline
 90
2
 70
0
 10
332.359000
 20
-110.719799
 30
0.0
 10
332.359000
 20
-109.906999
 30
0.0
  0
LWPOLYLINE
  5
28b
100
AcDbEntity
  8
0
 62
7
100
AcDbPolyline
 90
2
 70
0
 10
330.733400
 20
-110.719799
 30
0.0
 10
332.359000
 20
-110.719799
 30
0.0
  0
LWPOLYLINE
  5
28c
100
AcDbEntity
  8
0
 62
7
100
AcDbPolyline
 90
2
 70
0
 10
332.359000
 20
-121.413199
 30
0.0
 10
330.733400
 20
-121.413199
 30
0.0
  0
LWPOLYLINE
  5
28d
100
AcDbEntity
  8
0
 62
7
100
AcDbPolyline
 90
2
 70
0
 10
330.733400
 20
-122.581599
 30
0.0
 10
316.763400
 20
-122.581599
 30
0.0
  0
LWPOLYLINE
  5
28e
100
AcDbEntity
  8
0
 62
7
100
AcDbPolyline
 90
2
 70
0
 10
307.619400
 20
-113.310599
 30
0.0
 10
308.483000
 20
-113.310599
 30
0.0
  0
LWPOLYLINE
  5
28f
100
AcDbEntity
  8
0
 62
7
100
AcDbPolyline
 90
2
 70
0
 10
309.524400
 20
-123.368999
 30
0.0
 10
309.524400
 20
-122.200599
 30
0.0
  0
LWPOLYLINE
  5
290
100
AcDbEntity
  8
0
 62
7
100
AcDbPolyline
 90
2
 70
0
 10
332.359000
 20
-109.906999
 30
0.0
 10
339.013800
 20
-109.906999
 30
0.0
  0
LWPOLYLINE
  5
291
100
AcDbEntity
  8
0
 62
7
100
AcDbPolyline
 90
2
 70
0
 10
337.972400
 20
-123.368999
 30
0.0
 10
333.400400
 20
-123.368999
 30
0.0
  0
LWPOLYLINE
  5
292
100
AcDbEntity
  8
0
 62
7
100
AcDbPolyline
 90
2
 70
0
 10
339.013800
 20
-122.200599
 30
0.0
 10
337.972400
 20
-122.200599
 30
0.0
  0
LWPOLYLINE
  5
293
100
AcDbEntity
  8
0
 62
7
100
AcDbPolyline
 90
2
 70
0
 10
309.524400
 20
-122.200599
 30
0.0
 10
308.483000
 20
-122.200599
 30
0.0
  0
LWPOLYLINE
  5
294
100
AcDbEntity
  8
0
 62
7
100
AcDbPolyline
 90
2
 70
0
 10
339.013800
 20
-113.310599
 30
0.0
 10
339.877400
 20
-113.310599
 30
0.0
  0
LWPOLYLINE
  5
295
100
AcDbEntity
  8
0
 62
7
100
AcDbPolyline
 90
2
 70
0
 10
314.096400
 20
-123.368999
 30
0.0
 10
309.524400
 20
-123.368999
 30
0.0
  0
LWPOLYLINE
  5
296
100
AcDbEntity
  8
0
 62
7
100
AcDbPolyline
 90
2
 70
0
 10
332.359000
 20
-122.200599
 30
0.0
 10
332.359000
 20
-121.413199
 30
0.0
  0
LWPOLYLINE
  5
297
100
AcDbEntity
  8
0
 62
7
100
AcDbPolyline
 90
2
 70
0
 10
339.013800
 20
-109.906999
 30
0.0
 10
339.013800
 20
-113.310599
 30
0.0
  0
LWPOLYLINE
  5
298
100
AcDbEntity
  8
0
 62
7
100
AcDbPolyline
 90
2
 70
0
 10
330.733400
 20
-121.413199
 30
0.0
 10
330.733400
 20
-122.581599
 30
0.0
  0
LWPOLYLINE
  5
299
100
AcDbEntity
  8
0
 62
7
100
AcDbPolyline
 90
2
 70
0
 10
315.137800
 20
-110.719799
 30
0.0
 10
316.763400
 20
-110.719799
 30
0.0
  0
LWPOLYLINE
  5
29a
100
AcDbEntity
  8
0
 62
7
100
AcDbPolyline
 90
2
 70
0
 10
314.096400
 20
-122.200599
 30
0.0
 10
314.096400
 20
-123.368999
 30
0.0
  0
LWPOLYLINE
  5
29b
100
AcDbEntity
  8
0
 62
7
100
AcDbPolyline
 90
2
 70
0
 10
333.400400
 20
-122.200599
 30
0.0
 10
332.359000
 20
-122.200599
 30
0.0
  0
LWPOLYLINE
  5
29c
100
AcDbEntity
  8
0
 62
7
100
AcDbPolyline
 90
2
 70
0
 10
330.733400
 20
-108.611599
 30
0.0
 10
330.733400
 20
-110.719799
 30
0.0
  0
LWPOLYLINE
  5
29d
100
AcDbEntity
  8
0
 62
7
100
AcDbPolyline
 90
2
 70
0
 10
308.483000
 20
-122.200599
 30
0.0
 10
308.483000
 20
-116.104599
 30
0.0
  0
LWPOLYLINE
  5
29e
100
AcDbEntity
  8
0
 62
7
100
AcDbPolyline
 90
2
 70
0
 10
308.483000
 20
-109.906999
 30
0.0
 10
315.137800
 20
-109.906999
 30
0.0
  0
LWPOLYLINE
  5
29f
100
AcDbEntity
  8
0
 62
7
100
AcDbPolyline
 90
3
 70
0
 10
316.763400
 20
-110.719799
 30
0.0
 10
316.763400
 20
-108.611599
 30
0.0
 10
330.733400
 20
-108.611599
 30
0.0
  0
LWPOLYLINE
  5
2a0
100
AcDbEntity
  8
0
 62
7
100
AcDbPolyline
 90
2
 70
0
 10
308.483000
 20
-113.310599
 30
0.0
 10
308.483000
 20
-109.906999
 30
0.0
  0
LWPOLYLINE
  5
2a1
100
AcDbEntity
  8
0
 62
7
100
AcDbPolyline
 90
2
 70
0
 10
339.013800
 20
-116.104599
 30
0.0
 10
339.013800
 20
-122.200599
 30
0.0
  0
LWPOLYLINE
  5
2a2
100
AcDbEntity
  8
0
 62
7
100
AcDbPolyline
 90
2
 70
0
 10
316.763400
 20
-122.581599
 30
0.0
 10
316.763400
 20
-121.413199
 30
0.0
  0
LWPOLYLINE
  5
2a3
100
AcDbEntity
  8
0
 62
7
100
AcDbPolyline
 90
2
 70
0
 10
337.972400
 20
-122.200599
 30
0.0
 10
337.972400
 20
-123.368999
 30
0.0
  0
LWPOLYLINE
  5
2a4
100
AcDbEntity
  8
0
 62
7
100
AcDbPolyline
 90
2
 70
0
 10
316.763400
 20
-121.413199
 30
0.0
 10
315.137800
 20
-121.413199
 30
0.0
  0
LWPOLYLINE
  5
2a5
100
AcDbEntity
  8
0
 62
7
100
AcDbPolyline
 90
2
 70
0
 10
339.877400
 20
-113.310599
 30
0.0
 10
339.877400
 20
-116.104599
 30
0.0
  0
LWPOLYLINE
  5
2a6
100
AcDbEntity
  8
0
 62
7
100
AcDbPolyline
 90
2
 70
0
 10
333.400400
 20
-123.368999
 30
0.0
 10
333.400400
 20
-122.200599
 30
0.0
  0
LWPOLYLINE
  5
2a7
100
AcDbEntity
  8
0
 62
7
100
AcDbPolyline
 90
2
 70
0
 10
148.386800
 20
-197.912919
 30
0.0
 10
149.110700
 20
-195.215439
 30
0.0
  0
LWPOLYLINE
  5
2a8
100
AcDbEntity
  8
0
 62
7
100
AcDbPolyline
 90
2
 70
0
 10
149.222460
 20
-198.136439
 30
0.0
 10
148.386800
 20
-197.912919
 30
0.0
  0
LWPOLYLINE
  5
2a9
100
AcDbEntity
  8
0
 62
7
100
AcDbPolyline
 90
2
 70
0
 10
179.547520
 20
-206.261899
 30
0.0
 10
178.711860
 20
-206.038379
 30
0.0
  0
LWPOLYLINE
  5
2aa
100
AcDbEntity
  8
0
 62
7
100
AcDbPolyline
 90
3
 70
0
 10
154.277060
 20
-204.986819
 30
0.0
 10
154.071320
 20
-205.748819
 30
0.0
 10
153.065480
 20
-205.479579
 30
0.0
  0
LWPOLYLINE
  5
2ab
100
AcDbEntity
  8
0
 62
7
100
AcDbPolyline
 90
2
 70
0
 10
157.253940
 20
-193.874319
 30
0.0
 10
157.043120
 20
-194.659179
 30
0.0
  0
LWPOLYLINE
  5
2ac
100
AcDbEntity
  8
0
 62
7
100
AcDbPolyline
 90
2
 70
0
 10
173.677580
 20
-199.114339
 30
0.0
 10
173.888400
 20
-198.329479
 30
0.0
  0
LWPOLYLINE
  5
2ad
100
AcDbEntity
  8
0
 62
7
100
AcDbPolyline
 90
2
 70
0
 10
172.107860
 20
-198.695239
 30
0.0
 10
173.677580
 20
-199.114339
 30
0.0
  0
LWPOLYLINE
  5
2ae
100
AcDbEntity
  8
0
 62
7
100
AcDbPolyline
 90
2
 70
0
 10
170.911520
 20
-209.444519
 30
0.0
 10
169.339260
 20
-209.022879
 30
0.0
  0
LWPOLYLINE
  5
2af
100
AcDbEntity
  8
0
 62
7
100
AcDbPolyline
 90
2
 70
0
 10
169.037000
 20
-210.153179
 30
0.0
 10
155.544520
 20
-206.536219
 30
0.0
  0
LWPOLYLINE
  5
2b0
100
AcDbEntity
  8
0
 62
7
100
AcDbPolyline
 90
2
 70
0
 10
149.110700
 20
-195.215439
 30
0.0
 10
149.946360
 20
-195.438959
 30
0.0
  0
LWPOLYLINE
  5
2b1
100
AcDbEntity
  8
0
 62
7
100
AcDbPolyline
 90
2
 70
0
 10
148.348700
 20
-205.423699
 30
0.0
 10
148.650960
 20
-204.295939
 30
0.0
  0
LWPOLYLINE
  5
2b2
100
AcDbEntity
  8
0
 62
7
100
AcDbPolyline
 90
2
 70
0
 10
173.888400
 20
-198.329479
 30
0.0
 10
180.317140
 20
-200.051599
 30
0.0
  0
LWPOLYLINE
  5
2b3
100
AcDbEntity
  8
0
 62
7
100
AcDbPolyline
 90
2
 70
0
 10
175.826420
 20
-212.787159
 30
0.0
 10
171.409360
 20
-211.603519
 30
0.0
  0
LWPOLYLINE
  5
2b4
100
AcDbEntity
  8
0
 62
7
100
AcDbPolyline
 90
2
 70
0
 10
177.134520
 20
-211.928639
 30
0.0
 10
176.128680
 20
-211.656859
 30
0.0
  0
LWPOLYLINE
  5
2b5
100
AcDbEntity
  8
0
 62
7
100
AcDbPolyline
 90
2
 70
0
 10
148.650960
 20
-204.295939
 30
0.0
 10
147.645120
 20
-204.026699
 30
0.0
  0
LWPOLYLINE
  5
2b6
100
AcDbEntity
  8
0
 62
7
100
AcDbPolyline
 90
2
 70
0
 10
179.435760
 20
-203.340899
 30
0.0
 10
180.268880
 20
-203.564419
 30
0.0
  0
LWPOLYLINE
  5
2b7
100
AcDbEntity
  8
0
 62
7
100
AcDbPolyline
 90
2
 70
0
 10
152.763220
 20
-206.607339
 30
0.0
 10
148.348700
 20
-205.423699
 30
0.0
  0
LWPOLYLINE
  5
2b8
100
AcDbEntity
  8
0
 62
7
100
AcDbPolyline
 90
2
 70
0
 10
170.705780
 20
-210.203979
 30
0.0
 10
170.911520
 20
-209.444519
 30
0.0
  0
LWPOLYLINE
  5
2b9
100
AcDbEntity
  8
0
 62
7
100
AcDbPolyline
 90
2
 70
0
 10
180.317140
 20
-200.051599
 30
0.0
 10
179.435760
 20
-203.340899
 30
0.0
  0
LWPOLYLINE
  5
2ba
100
AcDbEntity
  8
0
 62
7
100
AcDbPolyline
 90
2
 70
0
 10
169.339260
 20
-209.022879
 30
0.0
 10
169.037000
 20
-210.153179
 30
0.0
  0
LWPOLYLINE
  5
2bb
100
AcDbEntity
  8
0
 62
7
100
AcDbPolyline
 90
2
 70
0
 10
157.043120
 20
-194.659179
 30
0.0
 10
158.612840
 20
-195.078279
 30
0.0
  0
LWPOLYLINE
  5
2bc
100
AcDbEntity
  8
0
 62
7
100
AcDbPolyline
 90
2
 70
0
 10
153.065480
 20
-205.479579
 30
0.0
 10
152.763220
 20
-206.607339
 30
0.0
  0
LWPOLYLINE
  5
2bd
100
AcDbEntity
  8
0
 62
7
100
AcDbPolyline
 90
2
 70
0
 10
171.711620
 20
-210.475759
 30
0.0
 10
170.705780
 20
-210.203979
 30
0.0
  0
LWPOLYLINE
  5
2be
100
AcDbEntity
  8
0
 62
7
100
AcDbPolyline
 90
2
 70
0
 10
172.653960
 20
-196.658159
 30
0.0
 10
172.107860
 20
-198.695239
 30
0.0
  0
LWPOLYLINE
  5
2bf
100
AcDbEntity
  8
0
 62
7
100
AcDbPolyline
 90
2
 70
0
 10
147.645120
 20
-204.026699
 30
0.0
 10
149.222460
 20
-198.136439
 30
0.0
  0
LWPOLYLINE
  5
2c0
100
AcDbEntity
  8
0
 62
7
100
AcDbPolyline
 90
2
 70
0
 10
150.825200
 20
-192.149659
 30
0.0
 10
157.253940
 20
-193.874319
 30
0.0
  0
LWPOLYLINE
  5
2c1
100
AcDbEntity
  8
0
 62
7
100
AcDbPolyline
 90
3
 70
0
 10
158.612840
 20
-195.078279
 30
0.0
 10
159.158940
 20
-193.043739
 30
0.0
 10
172.653960
 20
-196.658159
 30
0.0
  0
LWPOLYLINE
  5
2c2
100
AcDbEntity
  8
0
 62
7
100
AcDbPolyline
 90
2
 70
0
 10
149.946360
 20
-195.438959
 30
0.0
 10
150.825200
 20
-192.149659
 30
0.0
  0
LWPOLYLINE
  5
2c3
100
AcDbEntity
  8
0
 62
7
100
AcDbPolyline
 90
2
 70
0
 10
178.711860
 20
-206.038379
 30
0.0
 10
177.134520
 20
-211.928639
 30
0.0
  0
LWPOLYLINE
  5
2c4
100
AcDbEntity
  8
0
 62
7
100
AcDbPolyline
 90
2
 70
0
 10
155.544520
 20
-206.536219
 30
0.0
 10
155.846780
 20
-205.408459
 30
0.0
  0
LWPOLYLINE
  5
2c5
100
AcDbEntity
  8
0
 62
7
100
AcDbPolyline
 90
2
 70
0
 10
176.128680
 20
-211.656859
 30
0.0
 10
175.826420
 20
-212.787159
 30
0.0
  0
LWPOLYLINE
  5
2c6
100
AcDbEntity
  8
0
 62
7
100
AcDbPolyline
 90
2
 70
0
 10
155.846780
 20
-205.408459
 30
0.0
 10
154.277060
 20
-204.986819
 30
0.0
  0
LWPOLYLINE
  5
2c7
100
AcDbEntity
  8
0
 62
7
100
AcDbPolyline
 90
2
 70
0
 10
180.268880
 20
-203.564419
 30
0.0
 10
179.547520
 20
-206.261899
 30
0.0
  0
LWPOLYLINE
  5
2c8
100
AcDbEntity
  8
0
 62
7
100
AcDbPolyline
 90
2
 70
0
 10
171.409360
 20
-211.603519
 30
0.0
 10
171.711620
 20
-210.475759
 30
0.0
  0
LWPOLYLINE
  5
2c9
100
AcDbEntity
  8
0
 62
7
100
AcDbPolyline
 90
2
 70
0
 10
191.749680
 20
-206.261899
 30
0.0
 10
191.028320
 20
-203.564419
 30
0.0
  0
LWPOLYLINE
  5
2ca
100
AcDbEntity
  8
0
 62
7
100
AcDbPolyline
 90
2
 70
0
 10
192.585340
 20
-206.038379
 30
0.0
 10
191.749680
 20
-206.261899
 30
0.0
  0
LWPOLYLINE
  5
2cb
100
AcDbEntity
  8
0
 62
7
100
AcDbPolyline
 90
2
 70
0
 10
222.910400
 20
-197.912919
 30
0.0
 10
222.074740
 20
-198.136439
 30
0.0
  0
LWPOLYLINE
  5
2cc
100
AcDbEntity
  8
0
 62
7
100
AcDbPolyline
 90
3
 70
0
 10
200.388220
 20
-209.444519
 30
0.0
 10
200.591420
 20
-210.203979
 30
0.0
 10
199.585580
 20
-210.475759
 30
0.0
  0
LWPOLYLINE
  5
2cd
100
AcDbEntity
  8
0
 62
7
100
AcDbPolyline
 90
2
 70
0
 10
197.408800
 20
-198.329479
 30
0.0
 10
197.619620
 20
-199.114339
 30
0.0
  0
LWPOLYLINE
  5
2ce
100
AcDbEntity
  8
0
 62
7
100
AcDbPolyline
 90
2
 70
0
 10
214.254080
 20
-194.659179
 30
0.0
 10
214.043260
 20
-193.874319
 30
0.0
  0
LWPOLYLINE
  5
2cf
100
AcDbEntity
  8
0
 62
7
100
AcDbPolyline
 90
2
 70
0
 10
212.684360
 20
-195.078279
 30
0.0
 10
214.254080
 20
-194.659179
 30
0.0
  0
LWPOLYLINE
  5
2d0
100
AcDbEntity
  8
0
 62
7
100
AcDbPolyline
 90
2
 70
0
 10
217.020140
 20
-204.986819
 30
0.0
 10
215.450420
 20
-205.408459
 30
0.0
  0
LWPOLYLINE
  5
2d1
100
AcDbEntity
  8
0
 62
7
100
AcDbPolyline
 90
2
 70
0
 10
215.752680
 20
-206.536219
 30
0.0
 10
202.260200
 20
-210.153179
 30
0.0
  0
LWPOLYLINE
  5
2d2
100
AcDbEntity
  8
0
 62
7
100
AcDbPolyline
 90
2
 70
0
 10
191.028320
 20
-203.564419
 30
0.0
 10
191.861440
 20
-203.340899
 30
0.0
  0
LWPOLYLINE
  5
2d3
100
AcDbEntity
  8
0
 62
7
100
AcDbPolyline
 90
2
 70
0
 10
195.470780
 20
-212.787159
 30
0.0
 10
195.168520
 20
-211.656859
 30
0.0
  0
LWPOLYLINE
  5
2d4
100
AcDbEntity
  8
0
 62
7
100
AcDbPolyline
 90
2
 70
0
 10
214.043260
 20
-193.874319
 30
0.0
 10
220.472000
 20
-192.149659
 30
0.0
  0
LWPOLYLINE
  5
2d5
100
AcDbEntity
  8
0
 62
7
100
AcDbPolyline
 90
2
 70
0
 10
222.948500
 20
-205.423699
 30
0.0
 10
218.533980
 20
-206.607339
 30
0.0
  0
LWPOLYLINE
  5
2d6
100
AcDbEntity
  8
0
 62
7
100
AcDbPolyline
 90
2
 70
0
 10
223.652080
 20
-204.026699
 30
0.0
 10
222.646240
 20
-204.295939
 30
0.0
  0
LWPOLYLINE
  5
2d7
100
AcDbEntity
  8
0
 62
7
100
AcDbPolyline
 90
2
 70
0
 10
195.168520
 20
-211.656859
 30
0.0
 10
194.162680
 20
-211.928639
 30
0.0
  0
LWPOLYLINE
  5
2d8
100
AcDbEntity
  8
0
 62
7
100
AcDbPolyline
 90
2
 70
0
 10
221.353380
 20
-195.438959
 30
0.0
 10
222.186500
 20
-195.215439
 30
0.0
  0
LWPOLYLINE
  5
2d9
100
AcDbEntity
  8
0
 62
7
100
AcDbPolyline
 90
2
 70
0
 10
199.887840
 20
-211.603519
 30
0.0
 10
195.470780
 20
-212.787159
 30
0.0
  0
LWPOLYLINE
  5
2da
100
AcDbEntity
  8
0
 62
7
100
AcDbPolyline
 90
2
 70
0
 10
217.225880
 20
-205.748819
 30
0.0
 10
217.020140
 20
-204.986819
 30
0.0
  0
LWPOLYLINE
  5
2db
100
AcDbEntity
  8
0
 62
7
100
AcDbPolyline
 90
2
 70
0
 10
220.472000
 20
-192.149659
 30
0.0
 10
221.353380
 20
-195.438959
 30
0.0
  0
LWPOLYLINE
  5
2dc
100
AcDbEntity
  8
0
 62
7
100
AcDbPolyline
 90
2
 70
0
 10
215.450420
 20
-205.408459
 30
0.0
 10
215.752680
 20
-206.536219
 30
0.0
  0
LWPOLYLINE
  5
2dd
100
AcDbEntity
  8
0
 62
7
100
AcDbPolyline
 90
2
 70
0
 10
197.619620
 20
-199.114339
 30
0.0
 10
199.189340
 20
-198.695239
 30
0.0
  0
LWPOLYLINE
  5
2de
100
AcDbEntity
  8
0
 62
7
100
AcDbPolyline
 90
2
 70
0
 10
199.585580
 20
-210.475759
 30
0.0
 10
199.887840
 20
-211.603519
 30
0.0
  0
LWPOLYLINE
  5
2df
100
AcDbEntity
  8
0
 62
7
100
AcDbPolyline
 90
2
 70
0
 10
218.231720
 20
-205.479579
 30
0.0
 10
217.225880
 20
-205.748819
 30
0.0
  0
LWPOLYLINE
  5
2e0
100
AcDbEntity
  8
0
 62
7
100
AcDbPolyline
 90
2
 70
0
 10
212.138260
 20
-193.043739
 30
0.0
 10
212.684360
 20
-195.078279
 30
0.0
  0
LWPOLYLINE
  5
2e1
100
AcDbEntity
  8
0
 62
7
100
AcDbPolyline
 90
2
 70
0
 10
194.162680
 20
-211.928639
 30
0.0
 10
192.585340
 20
-206.038379
 30
0.0
  0
LWPOLYLINE
  5
2e2
100
AcDbEntity
  8
0
 62
7
100
AcDbPolyline
 90
2
 70
0
 10
190.980060
 20
-200.051599
 30
0.0
 10
197.408800
 20
-198.329479
 30
0.0
  0
LWPOLYLINE
  5
2e3
100
AcDbEntity
  8
0
 62
7
100
AcDbPolyline
 90
3
 70
0
 10
199.189340
 20
-198.695239
 30
0.0
 10
198.643240
 20
-196.658159
 30
0.0
 10
212.138260
 20
-193.043739
 30
0.0
  0
LWPOLYLINE
  5
2e4
100
AcDbEntity
  8
0
 62
7
100
AcDbPolyline
 90
2
 70
0
 10
191.861440
 20
-203.340899
 30
0.0
 10
190.980060
 20
-200.051599
 30
0.0
  0
LWPOLYLINE
  5
2e5
100
AcDbEntity
  8
0
 62
7
100
AcDbPolyline
 90
2
 70
0
 10
222.074740
 20
-198.136439
 30
0.0
 10
223.652080
 20
-204.026699
 30
0.0
  0
LWPOLYLINE
  5
2e6
100
AcDbEntity
  8
0
 62
7
100
AcDbPolyline
 90
2
 70
0
 10
202.260200
 20
-210.153179
 30
0.0
 10
201.957940
 20
-209.022879
 30
0.0
  0
LWPOLYLINE
  5
2e7
100
AcDbEntity
  8
0
 62
7
100
AcDbPolyline
 90
2
 70
0
 10
222.646240
 20
-204.295939
 30
0.0
 10
222.948500
 20
-205.423699
 30
0.0
  0
LWPOLYLINE
  5
2e8
100
AcDbEntity
  8
0
 62
7
100
AcDbPolyline
 90
2
 70
0
 10
201.957940
 20
-209.022879
 30
0.0
 10
200.388220
 20
-209.444519
 30
0.0
  0
LWPOLYLINE
  5
2e9
100
AcDbEntity
  8
0
 62
7
100
AcDbPolyline
 90
2
 70
0
 10
222.186500
 20
-195.215439
 30
0.0
 10
222.910400
 20
-197.912919
 30
0.0
  0
LWPOLYLINE
  5
2ea
100
AcDbEntity
  8
0
 62
7
100
AcDbPolyline
 90
2
 70
0
 10
218.533980
 20
-206.607339
 30
0.0
 10
218.231720
 20
-205.479579
 30
0.0
  0
LWPOLYLINE
  5
2eb
100
AcDbEntity
  8
0
 62
7
100
AcDbPolyline
 90
2
 70
0
 10
331.000100
 20
-161.502019
 30
0.0
 10
331.000100
 20
-160.333619
 30
0.0
  0
LWPOLYLINE
  5
2ec
100
AcDbEntity
  8
0
 62
7
100
AcDbPolyline
 90
2
 70
0
 10
337.477100
 20
-151.443619
 30
0.0
 10
337.477100
 20
-154.237619
 30
0.0
  0
LWPOLYLINE
  5
2ed
100
AcDbEntity
  8
0
 62
7
100
AcDbPolyline
 90
2
 70
0
 10
314.363100
 20
-159.546219
 30
0.0
 10
312.737500
 20
-159.546219
 30
0.0
  0
LWPOLYLINE
  5
2ee
100
AcDbEntity
  8
0
 62
7
100
AcDbPolyline
 90
2
 70
0
 10
335.572100
 20
-160.333619
 30
0.0
 10
335.572100
 20
-161.502019
 30
0.0
  0
LWPOLYLINE
  5
2ef
100
AcDbEntity
  8
0
 62
7
100
AcDbPolyline
 90
2
 70
0
 10
314.363100
 20
-160.714619
 30
0.0
 10
314.363100
 20
-159.546219
 30
0.0
  0
LWPOLYLINE
  5
2f0
100
AcDbEntity
  8
0
 62
7
100
AcDbPolyline
 90
2
 70
0
 10
336.613500
 20
-154.237619
 30
0.0
 10
336.613500
 20
-160.333619
 30
0.0
  0
LWPOLYLINE
  5
2f1
100
AcDbEntity
  8
0
 62
7
100
AcDbPolyline
 90
2
 70
0
 10
306.082700
 20
-151.443619
 30
0.0
 10
306.082700
 20
-148.040019
 30
0.0
  0
LWPOLYLINE
  5
2f2
100
AcDbEntity
  8
0
 62
7
100
AcDbPolyline
 90
2
 70
0
 10
314.363100
 20
-146.744619
 30
0.0
 10
328.333100
 20
-146.744619
 30
0.0
  0
LWPOLYLINE
  5
2f3
100
AcDbEntity
  8
0
 62
7
100
AcDbPolyline
 90
2
 70
0
 10
314.363100
 20
-148.852819
 30
0.0
 10
314.363100
 20
-146.744619
 30
0.0
  0
LWPOLYLINE
  5
2f4
100
AcDbEntity
  8
0
 62
7
100
AcDbPolyline
 90
2
 70
0
 10
306.082700
 20
-148.040019
 30
0.0
 10
312.737500
 20
-148.040019
 30
0.0
  0
LWPOLYLINE
  5
2f5
100
AcDbEntity
  8
0
 62
7
100
AcDbPolyline
 90
2
 70
0
 10
306.082700
 20
-160.333619
 30
0.0
 10
306.082700
 20
-154.237619
 30
0.0
  0
LWPOLYLINE
  5
2f6
100
AcDbEntity
  8
0
 62
7
100
AcDbPolyline
 90
2
 70
0
 10
328.333100
 20
-146.744619
 30
0.0
 10
328.333100
 20
-148.852819
 30
0.0
  0
LWPOLYLINE
  5
2f7
100
AcDbEntity
  8
0
 62
7
100
AcDbPolyline
 90
2
 70
0
 10
331.000100
 20
-160.333619
 30
0.0
 10
329.958700
 20
-160.333619
 30
0.0
  0
LWPOLYLINE
  5
2f8
100
AcDbEntity
  8
0
 62
7
100
AcDbPolyline
 90
2
 70
0
 10
311.696100
 20
-160.333619
 30
0.0
 10
311.696100
 20
-161.502019
 30
0.0
  0
LWPOLYLINE
  5
2f9
100
AcDbEntity
  8
0
 62
7
100
AcDbPolyline
 90
2
 70
0
 10
312.737500
 20
-148.852819
 30
0.0
 10
314.363100
 20
-148.852819
 30
0.0
  0
LWPOLYLINE
  5
2fa
100
AcDbEntity
  8
0
 62
7
100
AcDbPolyline
 90
2
 70
0
 10
328.333100
 20
-159.546219
 30
0.0
 10
328.333100
 20
-160.714619
 30
0.0
  0
LWPOLYLINE
  5
2fb
100
AcDbEntity
  8
0
 62
7
100
AcDbPolyline
 90
2
 70
0
 10
336.613500
 20
-148.040019
 30
0.0
 10
336.613500
 20
-151.443619
 30
0.0
  0
LWPOLYLINE
  5
2fc
100
AcDbEntity
  8
0
 62
7
100
AcDbPolyline
 90
2
 70
0
 10
329.958700
 20
-160.333619
 30
0.0
 10
329.958700
 20
-159.546219
 30
0.0
  0
LWPOLYLINE
  5
2fd
100
AcDbEntity
  8
0
 62
7
100
AcDbPolyline
 90
2
 70
0
 10
311.696100
 20
-161.502019
 30
0.0
 10
307.124100
 20
-161.502019
 30
0.0
  0
LWPOLYLINE
  5
2fe
100
AcDbEntity
  8
0
 62
7
100
AcDbPolyline
 90
2
 70
0
 10
336.613500
 20
-151.443619
 30
0.0
 10
337.477100
 20
-151.443619
 30
0.0
  0
LWPOLYLINE
  5
2ff
100
AcDbEntity
  8
0
 62
7
100
AcDbPolyline
 90
2
 70
0
 10
307.124100
 20
-160.333619
 30
0.0
 10
306.082700
 20
-160.333619
 30
0.0
  0
LWPOLYLINE
  5
300
100
AcDbEntity
  8
0
 62
7
100
AcDbPolyline
 90
2
 70
0
 10
336.613500
 20
-160.333619
 30
0.0
 10
335.572100
 20
-160.333619
 30
0.0
  0
LWPOLYLINE
  5
301
100
AcDbEntity
  8
0
 62
7
100
AcDbPolyline
 90
2
 70
0
 10
335.572100
 20
-161.502019
 30
0.0
 10
331.000100
 20
-161.502019
 30
0.0
  0
LWPOLYLINE
  5
302
100
AcDbEntity
  8
0
 62
7
100
AcDbPolyline
 90
2
 70
0
 10
329.958700
 20
-148.040019
 30
0.0
 10
336.613500
 20
-148.040019
 30
0.0
  0
LWPOLYLINE
  5
303
100
AcDbEntity
  8
0
 62
7
100
AcDbPolyline
 90
2
 70
0
 10
307.124100
 20
-161.502019
 30
0.0
 10
307.124100
 20
-160.333619
 30
0.0
  0
LWPOLYLINE
  5
304
100
AcDbEntity
  8
0
 62
7
100
AcDbPolyline
 90
2
 70
0
 10
305.219100
 20
-151.443619
 30
0.0
 10
306.082700
 20
-151.443619
 30
0.0
  0
LWPOLYLINE
  5
305
100
AcDbEntity
  8
0
 62
7
100
AcDbPolyline
 90
2
 70
0
 10
328.333100
 20
-160.714619
 30
0.0
 10
314.363100
 20
-160.714619
 30
0.0
  0
LWPOLYLINE
  5
306
100
AcDbEntity
  8
0
 62
7
100
AcDbPolyline
 90
2
 70
0
 10
329.958700
 20
-159.546219
 30
0.0
 10
328.333100
 20
-159.546219
 30
0.0
  0
LWPOLYLINE
  5
307
100
AcDbEntity
  8
0
 62
7
100
AcDbPolyline
 90
3
 70
0
 10
328.333100
 20
-148.852819
 30
0.0
 10
329.958700
 20
-148.852819
 30
0.0
 10
329.958700
 20
-148.040019
 30
0.0
  0
LWPOLYLINE
  5
308
100
AcDbEntity
  8
0
 62
7
100
AcDbPolyline
 90
2
 70
0
 10
312.737500
 20
-148.040019
 30
0.0
 10
312.737500
 20
-148.852819
 30
0.0
  0
LWPOLYLINE
  5
309
100
AcDbEntity
  8
0
 62
7
100
AcDbPolyline
 90
2
 70
0
 10
312.737500
 20
-160.333619
 30
0.0
 10
311.696100
 20
-160.333619
 30
0.0
  0
LWPOLYLINE
  5
30a
100
AcDbEntity
  8
0
 62
7
100
AcDbPolyline
 90
2
 70
0
 10
312.737500
 20
-159.546219
 30
0.0
 10
312.737500
 20
-160.333619
 30
0.0
  0
LWPOLYLINE
  5
30b
100
AcDbEntity
  8
0
 62
7
100
AcDbPolyline
 90
2
 70
0
 10
337.477100
 20
-154.237619
 30
0.0
 10
336.613500
 20
-154.237619
 30
0.0
  0
LWPOLYLINE
  5
30c
100
AcDbEntity
  8
0
 62
7
100
AcDbPolyline
 90
3
 70
0
 10
306.082700
 20
-154.237619
 30
0.0
 10
305.219100
 20
-154.237619
 30
0.0
 10
305.219100
 20
-151.443619
 30
0.0
  0
LWPOLYLINE
  5
30d
100
AcDbEntity
  8
0
 62
7
100
AcDbPolyline
 90
4
 70
1
 10
300.062900
 20
-165.814939
 30
0.0
 10
314.032900
 20
-165.814939
 30
0.0
 10
314.032900
 20
-179.784939
 30
0.0
 10
300.062900
 20
-179.784939
 30
0.0
  0
LWPOLYLINE
  5
30e
100
AcDbEntity
  8
0
 62
7
100
AcDbPolyline
 90
2
 70
0
 10
249.582940
 20
-198.832399
 30
0.0
 10
249.582940
 20
-184.862399
 30
0.0
  0
LWPOLYLINE
  5
30f
100
AcDbEntity
  8
0
 62
7
100
AcDbPolyline
 90
2
 70
0
 10
263.552940
 20
-198.832399
 30
0.0
 10
249.582940
 20
-198.832399
 30
0.0
  0
LWPOLYLINE
  5
310
100
AcDbEntity
  8
0
 62
7
100
AcDbPolyline
 90
2
 70
0
 10
263.552940
 20
-184.862399
 30
0.0
 10
263.552940
 20
-198.832399
 30
0.0
  0
LWPOLYLINE
  5
311
100
AcDbEntity
  8
0
 62
7
100
AcDbPolyline
 90
2
 70
0
 10
249.582940
 20
-184.862399
 30
0.0
 10
263.552940
 20
-184.862399
 30
0.0
  0
LWPOLYLINE
  5
312
100
AcDbEntity
  8
0
 62
7
100
AcDbPolyline
 90
2
 70
0
 10
287.764220
 20
-198.832399
 30
0.0
 10
287.764220
 20
-184.862399
 30
0.0
  0
LWPOLYLINE
  5
313
100
AcDbEntity
  8
0
 62
7
100
AcDbPolyline
 90
2
 70
0
 10
301.734220
 20
-198.832399
 30
0.0
 10
287.764220
 20
-198.832399
 30
0.0
  0
LWPOLYLINE
  5
314
100
AcDbEntity
  8
0
 62
7
100
AcDbPolyline
 90
2
 70
0
 10
301.734220
 20
-184.862399
 30
0.0
 10
301.734220
 20
-198.832399
 30
0.0
  0
LWPOLYLINE
  5
315
100
AcDbEntity
  8
0
 62
7
100
AcDbPolyline
 90
2
 70
0
 10
287.764220
 20
-184.862399
 30
0.0
 10
301.734220
 20
-184.862399
 30
0.0
  0
LWPOLYLINE
  5
316
100
AcDbEntity
  8
0
 62
7
100
AcDbPolyline
 90
2
 70
0
 10
364.843060
 20
-127.684459
 30
0.0
 10
378.813060
 20
-127.684459
 30
0.0
  0
LWPOLYLINE
  5
317
100
AcDbEntity
  8
0
 62
7
100
AcDbPolyline
 90
2
 70
0
 10
364.843060
 20
-141.654459
 30
0.0
 10
364.843060
 20
-127.684459
 30
0.0
  0
LWPOLYLINE
  5
318
100
AcDbEntity
  8
0
 62
7
100
AcDbPolyline
 90
2
 70
0
 10
378.813060
 20
-141.654459
 30
0.0
 10
364.843060
 20
-141.654459
 30
0.0
  0
LWPOLYLINE
  5
319
100
AcDbEntity
  8
0
 62
7
100
AcDbPolyline
 90
2
 70
0
 10
378.813060
 20
-127.684459
 30
0.0
 10
378.813060
 20
-141.654459
 30
0.0
  0
LWPOLYLINE
  5
31a
100
AcDbEntity
  8
0
 62
7
100
AcDbPolyline
 90
2
 70
0
 10
364.853220
 20
-146.724299
 30
0.0
 10
378.823220
 20
-146.724299
 30
0.0
  0
LWPOLYLINE
  5
31b
100
AcDbEntity
  8
0
 62
7
100
AcDbPolyline
 90
2
 70
0
 10
364.853220
 20
-160.694299
 30
0.0
 10
364.853220
 20
-146.724299
 30
0.0
  0
LWPOLYLINE
  5
31c
100
AcDbEntity
  8
0
 62
7
100
AcDbPolyline
 90
2
 70
0
 10
378.823220
 20
-160.694299
 30
0.0
 10
364.853220
 20
-160.694299
 30
0.0
  0
LWPOLYLINE
  5
31d
100
AcDbEntity
  8
0
 62
7
100
AcDbPolyline
 90
2
 70
0
 10
378.823220
 20
-146.724299
 30
0.0
 10
378.823220
 20
-160.694299
 30
0.0
  0
LWPOLYLINE
  5
31e
100
AcDbEntity
  8
0
 62
7
100
AcDbPolyline
 90
4
 70
1
 10
378.823220
 20
-165.774299
 30
0.0
 10
378.823220
 20
-179.744299
 30
0.0
 10
364.853220
 20
-179.744299
 30
0.0
 10
364.853220
 20
-165.774299
 30
0.0
  0
LWPOLYLINE
  5
31f
100
AcDbEntity
  8
0
 62
7
100
AcDbPolyline
 90
2
 70
0
 10
148.889720
 20
-209.378479
 30
0.0
 10
61.889640
 20
-209.378479
 30
0.0
  0
LWPOLYLINE
  5
320
100
AcDbEntity
  8
0
 62
7
100
AcDbPolyline
 90
2
 70
0
 10
175.889920
 20
-216.378719
 30
0.0
 10
148.889720
 20
-209.378479
 30
0.0
  0
LWPOLYLINE
  5
321
100
AcDbEntity
  8
0
 62
7
100
AcDbPolyline
 90
2
 70
0
 10
194.889120
 20
-216.378719
 30
0.0
 10
175.889920
 20
-216.378719
 30
0.0
  0
LWPOLYLINE
  5
322
100
AcDbEntity
  8
0
 62
7
100
AcDbPolyline
 90
2
 70
0
 10
221.889320
 20
-209.378479
 30
0.0
 10
194.889120
 20
-216.378719
 30
0.0
  0
SPLINE
  5
323
100
AcDbEntity
  8
0
 62
7
100
AcDbSpline
 70
8
 71
3
 72
8
 73
4
 74
0
 40
0
 40
0
 40
0
 40
0
 40
1
 40
1
 40
1
 40
1
 10
381.889000
 20
-78.380773
 30
0.0
 10
381.889000
 20
-75.619851
 30
0.0
 10
379.651202
 20
-73.381484
 30
0.0
 10
376.890280
 20
-73.380783
 30
0.0
  0
SPLINE
  5
324
100
AcDbEntity
  8
0
 62
7
100
AcDbSpline
 70
8
 71
3
 72
8
 73
4
 74
0
 40
0
 40
0
 40
0
 40
0
 40
1
 40
1
 40
1
 40
1
 10
61.889894
 20
-73.380783
 30
0.0
 10
60.563814
 20
-73.380783
 30
0.0
 10
59.292047
 20
-73.907566
 30
0.0
 10
58.354367
 20
-74.845246
 30
0.0
  0
SPLINE
  5
325
100
AcDbEntity
  8
0
 62
7
100
AcDbSpline
 70
8
 71
3
 72
8
 73
4
 74
0
 40
0
 40
0
 40
0
 40
0
 40
1
 40
1
 40
1
 40
1
 10
58.354367
 20
-74.845246
 30
0.0
 10
57.416687
 20
-75.782926
 30
0.0
 10
56.889904
 20
-77.054693
 30
0.0
 10
56.889904
 20
-78.380773
 30
0.0
  0
SPLINE
  5
326
100
AcDbEntity
  8
0
 62
7
100
AcDbSpline
 70
8
 71
3
 72
8
 73
4
 74
0
 40
0
 40
0
 40
0
 40
0
 40
1
 40
1
 40
1
 40
1
 10
56.889904
 20
-204.380775
 30
0.0
 10
56.889904
 20
-205.706855
 30
0.0
 10
57.416687
 20
-206.978622
 30
0.0
 10
58.354367
 20
-207.916302
 30
0.0
  0
SPLINE
  5
327
100
AcDbEntity
  8
0
 62
7
100
AcDbSpline
 70
8
 71
3
 72
8
 73
4
 74
0
 40
0
 40
0
 40
0
 40
0
 40
1
 40
1
 40
1
 40
1
 10
58.354367
 20
-207.916302
 30
0.0
 10
59.292047
 20
-208.853982
 30
0.0
 10
60.563814
 20
-209.380765
 30
0.0
 10
61.889894
 20
-209.380765
 30
0.0
  0
SPLINE
  5
328
100
AcDbEntity
  8
0
 62
7
100
AcDbSpline
 70
8
 71
3
 72
8
 73
4
 74
0
 40
0
 40
0
 40
0
 40
0
 40
1
 40
1
 40
1
 40
1
 10
376.890280
 20
-209.380765
 30
0.0
 10
379.651202
 20
-209.380064
 30
0.0
 10
381.889000
 20
-207.141697
 30
0.0
 10
381.889000
 20
-204.380775
 30
0.0
  0
LWPOLYLINE
  5
329
100
AcDbEntity
  8
0
 62
7
100
AcDbPolyline
 90
2
 70
0
 10
376.887740
 20
-209.378479
 30
0.0
 10
221.889320
 20
-209.378479
 30
0.0
  0
LWPOLYLINE
  5
32a
100
AcDbEntity
  8
0
 62
7
100
AcDbPolyline
 90
2
 70
0
 10
376.887740
 20
-73.379259
 30
0.0
 10
61.889640
 20
-73.379259
 30
0.0
  0
LWPOLYLINE
  5
32b
100
AcDbEntity
  8
0
 62
7
100
AcDbPolyline
 90
2
 70
0
 10
381.889000
 20
-204.379759
 30
0.0
 10
381.889000
 20
-78.380519
 30
0.0
  0
LWPOLYLINE
  5
32c
100
AcDbEntity
  8
0
 62
7
100
AcDbPolyline
 90
2
 70
0
 10
56.888380
 20
-78.380519
 30
0.0
 10
56.888380
 20
-204.379759
 30
0.0
  0
ENDSEC
  0
SECTION
  2
OBJECTS
  0
DICTIONARY
  5
C
330
0
100
AcDbDictionary
  3
ACAD_GROUP
350
D
  3
ACAD_MLINESTYLE
350
17
  0
DICTIONARY
  5
D
330
C
100
AcDbDictionary
  0
DICTIONARY
  5
1A
330
C
100
AcDbDictionary
  0
DICTIONARY
  5
17
330
C
100
AcDbDictionary
  3
STANDARD
350
18
  0
DICTIONARY
  5
19
330
C
100
AcDbDictionary
  0
ENDSEC
  0
EOF
