0
SECTION
2
HEADER
9
$INSUNITS
70
4
9
$ACADVER
1
AC1014
9
$HANDSEED
5
FFFF
0
ENDSEC
0
SECTION
2
TABLES
0
TABLE
2
VPORT
5
8
100
AcDbSymbolTable
0
ENDTAB
0
TABLE
2
LTYPE
5
5
100
AcDbSymbolTable
0
LTYPE
5
14
100
AcDbSymbolTableRecord
100
AcDbLinetypeTableRecord
2
BYBLOCK
70
0
0
LTYPE
5
15
100
AcDbSymbolTableRecord
100
AcDbLinetypeTableRecord
2
BYLAYER
70
0
0
ENDTAB
0
TABLE
2
LAYER
5
2
100
AcDbSymbolTable
70
2
0
LAYER
5
50
100
AcDbSymbolTableRecord
100
AcDbLayerTableRecord
2
0
70
0
6
CONTINUOUS
0
ENDTAB
0
TABLE
2
STYLE
5
3
100
AcDbSymbolTable
70
1
0
STYLE
5
11
100
AcDbSymbolTableRecord
100
AcDbTextStyleTableRecord
2
STANDARD
70
0
0
ENDTAB
0
TABLE
2
VIEW
5
6
100
AcDbSymbolTable
70
0
0
ENDTAB
0
TABLE
2
UCS
5
7
100
AcDbSymbolTable
70
0
0
ENDTAB
0
TABLE
2
APPID
5
9
100
AcDbSymbolTable
70
2
0
APPID
5
12
100
AcDbSymbolTableRecord
100
AcDbRegAppTableRecord
2
ACAD
70
0
0
ENDTAB
0
TABLE
2
DIMSTYLE
5
A
100
AcDbSymbolTable
70
1
0
ENDTAB
0
TABLE
2
BLOCK_RECORD
5
1
100
AcDbSymbolTable
70
1
0
BLOCK_RECORD
5
1F
100
AcDbSymbolTableRecord
100
AcDbBlockTableRecord
2
*MODEL_SPACE
0
BLOCK_RECORD
5
1B
100
AcDbSymbolTableRecord
100
AcDbBlockTableRecord
2
*PAPER_SPACE
0
ENDTAB
0
ENDSEC
0
SECTION
2
BLOCKS
0
BLOCK
5
20
100
AcDbEntity
100
AcDbBlockBegin
2
*MODEL_SPACE
0
ENDBLK
5
21
100
AcDbEntity
100
AcDbBlockEnd
0
BLOCK
5
1C
100
AcDbEntity
100
AcDbBlockBegin
2
*PAPER_SPACE
0
ENDBLK
5
1D
100
AcDbEntity
100
AcDbBlockEnd
0
ENDSEC
0
SECTION
2
ENTITIES
0
LWPOLYLINE
5
100
100
AcDbEntity
8
0
100
AcDbPolyline
90
4
70
1
43
0.0
10
141.11250000000007
20
-97.631999999999991
10
155.11250000000007
20
-97.631999999999991
10
155.11250000000007
20
-83.631999999999991
10
141.11250000000007
20
-83.631999999999991
0
LWPOLYLINE
5
101
100
AcDbEntity
8
0
100
AcDbPolyline
90
4
70
1
43
0.0
10
155.40000000000006
20
-64.581999999999979
10
155.40000000000006
20
-78.581999999999979
10
169.40000000000003
20
-78.581999999999979
10
169.40000000000003
20
-64.581999999999979
0
LWPOLYLINE
5
102
100
AcDbEntity
8
0
100
AcDbPolyline
90
4
70
1
43
0.0
10
174.16250000000005
20
-97.631999999999991
10
174.16250000000005
20
-83.631999999999991
10
160.16250000000008
20
-83.631999999999991
10
160.16250000000008
20
-97.631999999999991
0
LWPOLYLINE
5
103
100
AcDbEntity
8
0
100
AcDbPolyline
90
4
70
1
43
0.0
10
136.35000000000005
20
-64.581999999999979
10
136.35000000000005
20
-78.581999999999979
10
150.35000000000005
20
-78.581999999999979
10
150.35000000000005
20
-64.581999999999979
0
LWPOLYLINE
5
104
100
AcDbEntity
8
0
100
AcDbPolyline
90
4
70
1
43
0.0
10
131.30000000000004
20
-78.581999999999979
10
131.30000000000004
20
-64.581999999999979
10
117.30000000000004
20
-64.581999999999979
10
117.30000000000004
20
-78.581999999999979
0
LWPOLYLINE
5
105
100
AcDbEntity
8
0
100
AcDbPolyline
90
4
70
1
43
0.0
10
260.82499999999993
20
-35.431999999999981
10
274.82499999999993
20
-35.431999999999981
10
274.82499999999993
20
-21.431999999999974
10
260.82499999999993
20
-21.431999999999974
0
LWPOLYLINE
5
106
100
AcDbEntity
8
0
100
AcDbPolyline
90
4
70
1
43
0.0
10
97.96250000000002
20
-97.631999999999991
10
97.96250000000002
20
-83.631999999999991
10
83.96250000000002
20
-83.631999999999991
10
83.96250000000002
20
-97.631999999999991
0
LWPOLYLINE
5
107
100
AcDbEntity
8
0
100
AcDbPolyline
90
4
70
1
43
0.0
10
122.06250000000004
20
-83.631999999999991
10
122.06250000000004
20
-97.631999999999991
10
136.06250000000006
20
-97.631999999999991
10
136.06250000000006
20
-83.631999999999991
0
LWPOLYLINE
5
108
100
AcDbEntity
8
0
100
AcDbPolyline
90
4
70
1
43
0.0
10
183.68750000000006
20
-102.682
10
169.68750000000006
20
-102.682
10
169.68750000000006
20
-116.682
10
183.68750000000006
20
-116.682
0
LWPOLYLINE
5
109
100
AcDbEntity
8
0
100
AcDbPolyline
90
4
70
1
43
0.0
10
174.45000000000005
20
-64.581999999999979
10
174.45000000000005
20
-78.581999999999979
10
188.45000000000002
20
-78.581999999999979
10
188.45000000000002
20
-64.581999999999979
0
LWPOLYLINE
5
110
100
AcDbEntity
8
0
100
AcDbPolyline
90
4
70
1
43
0.0
10
179.21250000000003
20
-83.631999999999991
10
179.21250000000003
20
-97.631999999999991
10
193.21250000000003
20
-97.631999999999991
10
193.21250000000003
20
-83.631999999999991
0
LWPOLYLINE
5
111
100
AcDbEntity
8
0
100
AcDbPolyline
90
4
70
1
43
0.0
10
164.92500000000007
20
-59.531999999999982
10
178.92500000000007
20
-59.531999999999982
10
178.92500000000007
20
-45.531999999999975
10
164.92500000000007
20
-45.531999999999975
0
LWPOLYLINE
5
112
100
AcDbEntity
8
0
100
AcDbPolyline
90
4
70
1
43
0.0
10
145.87500000000006
20
-59.531999999999982
10
159.87500000000006
20
-59.531999999999982
10
159.87500000000006
20
-45.531999999999975
10
145.87500000000006
20
-45.531999999999975
0
LWPOLYLINE
5
113
100
AcDbEntity
8
0
100
AcDbPolyline
90
4
70
1
43
0.0
10
93.200000000000017
20
-78.581999999999979
10
93.200000000000017
20
-64.581999999999979
10
79.200000000000017
20
-64.581999999999979
10
79.200000000000017
20
-78.581999999999979
0
LWPOLYLINE
5
114
100
AcDbEntity
8
0
100
AcDbPolyline
90
4
70
1
43
0.0
10
126.53750000000004
20
-102.682
10
112.53750000000004
20
-102.682
10
112.53750000000004
20
-116.682
10
126.53750000000004
20
-116.682
0
LWPOLYLINE
5
115
100
AcDbEntity
8
0
100
AcDbPolyline
90
4
70
1
43
0.0
10
103.01250000000003
20
-97.631999999999991
10
117.01250000000003
20
-97.631999999999991
10
117.01250000000003
20
-83.631999999999991
10
103.01250000000003
20
-83.631999999999991
0
LWPOLYLINE
5
116
100
AcDbEntity
8
0
100
AcDbPolyline
90
4
70
1
43
0.0
10
107.77500000000003
20
-59.531999999999982
10
121.77500000000003
20
-59.531999999999982
10
121.77500000000003
20
-45.531999999999975
10
107.77500000000003
20
-45.531999999999975
0
LWPOLYLINE
5
117
100
AcDbEntity
8
0
100
AcDbPolyline
90
4
70
1
43
0.0
10
112.25000000000003
20
-64.581999999999979
10
98.250000000000028
20
-64.581999999999979
10
98.250000000000028
20
-78.581999999999979
10
112.25000000000003
20
-78.581999999999979
0
LWPOLYLINE
5
118
100
AcDbEntity
8
0
100
AcDbPolyline
90
4
70
1
43
0.0
10
174.52500000000001
20
-21.431999999999974
10
160.52500000000003
20
-21.431999999999974
10
160.52500000000003
20
-35.431999999999981
10
174.52500000000001
20
-35.431999999999981
0
LWPOLYLINE
5
119
100
AcDbEntity
8
0
100
AcDbPolyline
90
4
70
1
43
0.0
10
155.47500000000002
20
-35.431999999999981
10
155.47500000000002
20
-21.431999999999974
10
141.47500000000002
20
-21.431999999999974
10
141.47500000000002
20
-35.431999999999981
0
LWPOLYLINE
5
120
100
AcDbEntity
8
0
100
AcDbPolyline
90
4
70
1
43
0.0
10
93.275000000000006
20
-35.431999999999981
10
93.275000000000006
20
-21.431999999999974
10
79.275000000000006
20
-21.431999999999974
10
79.275000000000006
20
-35.431999999999981
0
LINE
5
121
100
AcDbEntity
8
0
100
AcDbLine
10
169.37970000000007
20
-8.0718999999999888
30
0
11
178.57970000000009
21
-8.071899999999987
31
0
0
LWPOLYLINE
5
122
100
AcDbEntity
8
0
100
AcDbPolyline
90
4
70
1
43
0.0
10
179.57499999999999
20
-21.431999999999974
10
179.57499999999999
20
-35.431999999999981
10
193.57499999999999
20
-35.431999999999981
10
193.57499999999999
20
-21.431999999999974
0
LWPOLYLINE
5
123
100
AcDbEntity
8
0
100
AcDbPolyline
90
4
70
1
43
0.0
10
122.42500000000001
20
-21.431999999999974
10
122.42500000000001
20
-35.431999999999981
10
136.42500000000001
20
-35.431999999999981
10
136.42500000000001
20
-21.431999999999974
0
LWPOLYLINE
5
124
100
AcDbEntity
8
0
100
AcDbPolyline
90
4
70
1
43
0.0
10
98.325000000000017
20
-21.431999999999974
10
98.325000000000017
20
-35.431999999999981
10
112.32500000000002
20
-35.431999999999981
10
112.32500000000002
20
-21.431999999999974
0
LWPOLYLINE
5
125
100
AcDbEntity
8
0
100
AcDbPolyline
90
4
70
1
43
0.0
10
164.63750000000007
20
-102.682
10
150.63750000000007
20
-102.682
10
150.63750000000007
20
-116.682
10
164.63750000000007
20
-116.682
0
LWPOLYLINE
5
126
100
AcDbEntity
8
0
100
AcDbPolyline
90
4
70
1
43
0.0
10
140.82500000000005
20
-45.531999999999975
10
126.82500000000005
20
-45.531999999999975
10
126.82500000000005
20
-59.531999999999982
10
140.82500000000005
20
-59.531999999999982
0
LWPOLYLINE
5
127
100
AcDbEntity
8
0
100
AcDbPolyline
90
4
70
1
43
0.0
10
102.72500000000002
20
-59.531999999999982
10
102.72500000000002
20
-45.531999999999975
10
88.725000000000023
20
-45.531999999999975
10
88.725000000000023
20
-59.531999999999982
0
LWPOLYLINE
5
128
100
AcDbEntity
8
0
100
AcDbPolyline
90
4
70
1
43
0.0
10
145.58750000000006
20
-102.682
10
131.58750000000006
20
-102.682
10
131.58750000000003
20
-116.682
10
145.58750000000006
20
-116.682
0
LWPOLYLINE
5
129
100
AcDbEntity
8
0
100
AcDbPolyline
90
4
70
1
43
0.0
10
183.97500000000005
20
-45.531999999999975
10
183.97500000000005
20
-59.531999999999982
10
197.97500000000002
20
-59.531999999999982
10
197.97500000000002
20
-45.531999999999975
0
LWPOLYLINE
5
130
100
AcDbEntity
8
0
100
AcDbPolyline
90
4
70
1
43
0.0
10
107.48750000000003
20
-102.682
10
93.487500000000026
20
-102.682
10
93.487500000000026
20
-116.682
10
107.48750000000003
20
-116.682
0
LWPOLYLINE
5
131
100
AcDbEntity
8
0
100
AcDbPolyline
90
4
70
1
43
0.0
10
55.174999999999997
20
-21.431999999999974
10
41.174999999999997
20
-21.431999999999974
10
41.174999999999997
20
-35.431999999999981
10
55.174999999999997
20
-35.431999999999981
0
LWPOLYLINE
5
132
100
AcDbEntity
8
0
100
AcDbPolyline
90
4
70
1
43
0.0
10
64.625
20
-45.531999999999975
10
50.625
20
-45.531999999999975
10
50.625
20
-59.531999999999982
10
64.625
20
-59.531999999999982
0
LWPOLYLINE
5
133
100
AcDbEntity
8
0
100
AcDbPolyline
90
4
70
1
43
0.0
10
74.225000000000009
20
-35.431999999999981
10
74.225000000000009
20
-21.431999999999974
10
60.225000000000001
20
-21.431999999999974
10
60.225000000000001
20
-35.431999999999981
0
LWPOLYLINE
5
134
100
AcDbEntity
8
0
100
AcDbPolyline
90
4
70
1
43
0.0
10
83.674999999999997
20
-45.531999999999975
10
69.674999999999997
20
-45.531999999999975
10
69.674999999999997
20
-59.531999999999982
10
83.674999999999997
20
-59.531999999999982
0
LWPOLYLINE
5
135
100
AcDbEntity
8
0
100
AcDbPolyline
90
4
70
1
43
0.0
10
332.47500000029913
20
-97.631999999999806
10
332.4750000002993
20
-83.632000000000133
10
318.47500000029919
20
-83.632000000000119
10
318.47500000030118
20
-97.63200000000019
0
LWPOLYLINE
5
136
100
AcDbEntity
8
0
100
AcDbPolyline
90
4
70
1
43
0.0
10
318.47500000029936
20
-78.581999999999937
10
332.47500000029925
20
-78.582000000000093
10
332.47500000029925
20
-64.581999999999923
10
318.47500000029936
20
-64.581999999999937
0
LWPOLYLINE
5
137
100
AcDbEntity
8
0
100
AcDbPolyline
90
4
70
1
43
0.0
10
269.69999999999993
20
-59.531999999999982
10
283.69999999999993
20
-59.531999999999982
10
283.69999999999993
20
-45.531999999999975
10
269.69999999999993
20
-45.531999999999975
0
LWPOLYLINE
5
138
100
AcDbEntity
8
0
100
AcDbPolyline
90
4
70
1
43
0.0
10
278.93750000000011
20
-140.7819999999999
10
278.93750000000006
20
-126.78199999999993
10
264.93750000000006
20
-126.7819999999999
10
264.93750000000006
20
-140.7819999999999
0
LWPOLYLINE
5
139
100
AcDbEntity
8
0
100
AcDbPolyline
90
4
70
1
43
0.0
10
274.46249999999992
20
-64.581999999999979
10
274.46249999999992
20
-78.581999999999979
10
288.46249999999992
20
-78.581999999999979
10
288.46249999999992
20
-64.581999999999979
0
LWPOLYLINE
5
140
100
AcDbEntity
8
0
100
AcDbPolyline
90
4
70
1
43
0.0
10
283.98750000000001
20
-121.73199999999994
10
297.9874999999999
20
-121.73199999999997
10
297.9874999999999
20
-107.7319999999999
10
283.98749999999995
20
-107.73199999999994
0
LWPOLYLINE
5
141
100
AcDbEntity
8
0
100
AcDbPolyline
90
4
70
1
43
0.0
10
283.98750000000001
20
-126.78199999999998
10
283.98750000000001
20
-140.78199999999998
10
297.9874999999999
20
-140.7820000000001
10
297.98749999999995
20
-126.78200000000005
0
LWPOLYLINE
5
142
100
AcDbEntity
8
0
100
AcDbPolyline
90
4
70
1
43
0.0
10
303.03749999999997
20
-126.78199999999993
10
303.03749999999997
20
-140.78199999999993
10
317.03749999999997
20
-140.78199999999993
10
317.03749999999997
20
-126.7819999999999
0
LWPOLYLINE
5
143
100
AcDbEntity
8
0
100
AcDbPolyline
90
4
70
1
43
0.0
10
318.47500000029896
20
-102.68200000000013
10
318.47500000029891
20
-116.68200000000013
10
332.47500000029896
20
-116.68200000000012
10
332.47500000029896
20
-102.68199999999943
0
LWPOLYLINE
5
144
100
AcDbEntity
8
0
100
AcDbPolyline
90
4
70
1
43
0.0
10
267.31874999999997
20
-97.631999999999962
10
281.31874999999985
20
-97.631999999999891
10
281.31874999999991
20
-83.63199999999992
10
267.31874999999997
20
-83.631999999999948
0
LWPOLYLINE
5
145
100
AcDbEntity
8
0
100
AcDbPolyline
90
12
70
1
43
0.0
10
15.000000000298819
20
-10
10
330.00000000029888
20
-10.000000000000007
42
-0.41421356237301438
10
335.000000000309
20
-15.000000000009077
10
335.000000000299
20
-140.99999999999906
42
-0.41425103529245721
10
329.99936030612611
20
-145.99999995898065
10
174.99936030612611
20
-145.99999995897878
10
148.87500465308989
20
-152.9999999589933
10
128.12435565309042
20
-152.99999995899009
10
102.0000000000035
20
-145.99999995897815
10
15.000000000003485
20
-145.99999995897815
42
-0.41421356237330026
10
10
20
-140.99999995897812
10
10.000000000000057
20
-14.999999958978119
42
-0.41421355998759674
0
LWPOLYLINE
5
146
100
AcDbEntity
8
0
100
AcDbPolyline
90
4
70
1
43
0.0
10
192.99528336856571
20
-122.70903843195279
10
179.4723218005183
20
-126.33250506338638
10
183.09578843195371
20
-139.85546663143572
10
196.61874999999995
20
-136.23200000000003
0
LINE
5
147
100
AcDbEntity
8
0
100
AcDbLine
10
273.15844700029862
20
-9.0000000000000053
30
0
11
281.15844700029874
21
-9.0000000000000053
31
0
0
LWPOLYLINE
5
148
100
AcDbEntity
8
0
100
AcDbPolyline
90
4
70
1
43
0.0
10
212.54999999999998
20
-78.581999999999979
10
226.54999999999998
20
-78.581999999999979
10
226.54999999999998
20
-64.581999999999979
10
212.54999999999998
20
-64.581999999999979
0
LWPOLYLINE
5
149
100
AcDbEntity
8
0
100
AcDbPolyline
90
4
70
1
43
0.0
10
231.31249999999997
20
-97.631999999999962
10
231.31249999999997
20
-83.631999999999991
10
217.3125
20
-83.631999999999991
10
217.3125
20
-97.631999999999991
0
LWPOLYLINE
5
150
100
AcDbEntity
8
0
100
AcDbPolyline
90
4
70
1
43
0.0
10
221.78749999999994
20
-102.682
10
207.78749999999997
20
-102.682
10
207.78749999999997
20
-116.682
10
221.78749999999994
20
-116.682
0
LWPOLYLINE
5
151
100
AcDbEntity
8
0
100
AcDbPolyline
90
4
70
1
43
0.0
10
226.83749999999992
20
-102.682
10
226.83749999999992
20
-116.682
10
240.83749999999992
20
-116.68200000000004
10
240.83749999999992
20
-102.682
0
LWPOLYLINE
5
152
100
AcDbEntity
8
0
100
AcDbPolyline
90
4
70
1
43
0.0
10
250.36249999999995
20
-97.631999999999991
10
250.36249999999995
20
-83.631999999999991
10
236.36249999999995
20
-83.631999999999991
10
236.36249999999995
20
-97.631999999999991
0
LWPOLYLINE
5
153
100
AcDbEntity
8
0
100
AcDbPolyline
90
4
70
1
43
0.0
10
235.78749999999971
20
-135.732
10
235.78750000000008
20
-121.7320000000001
10
221.78750000000008
20
-121.73200000000007
10
221.78749999999994
20
-135.73200000000008
0
LWPOLYLINE
5
154
100
AcDbEntity
8
0
100
AcDbPolyline
90
4
70
1
43
0.0
10
245.59999999999997
20
-78.581999999999979
10
245.59999999999997
20
-64.581999999999979
10
231.59999999999997
20
-64.581999999999979
10
231.59999999999997
20
-78.581999999999979
0
LWPOLYLINE
5
155
100
AcDbEntity
8
0
100
AcDbPolyline
90
4
70
1
43
0.0
10
198.26250000000002
20
-83.631999999999991
10
198.26250000000002
20
-97.631999999999991
10
212.26249999999999
20
-97.631999999999991
10
212.26249999999999
20
-83.631999999999991
0
LWPOLYLINE
5
156
100
AcDbEntity
8
0
100
AcDbPolyline
90
4
70
1
43
0.0
10
254.83750000000003
20
-121.73200000000016
10
240.83750000000006
20
-121.73200000000011
10
240.83750000000006
20
-135.73200000000011
10
254.83749999999998
20
-135.73200000000003
0
LWPOLYLINE
5
157
100
AcDbEntity
8
0
100
AcDbPolyline
90
4
70
1
43
0.0
10
253.03124999999991
20
-102.682
10
253.03124999999991
20
-116.682
10
267.03124999999989
20
-116.6819999999999
10
267.03124999999989
20
-102.682
0
LWPOLYLINE
5
158
100
AcDbEntity
8
0
100
AcDbPolyline
90
4
70
1
43
0.0
10
14.90625
20
-121.73200000000001
10
14.90625
20
-135.73200000000003
10
28.906250000000004
20
-135.73200000000003
10
28.90625
20
-121.73200000000001
0
LWPOLYLINE
5
159
100
AcDbEntity
8
0
100
AcDbPolyline
90
4
70
1
43
0.0
10
202.73749999999995
20
-135.73200000000003
10
216.73749999999987
20
-135.73199999999997
10
216.73749999999995
20
-121.73200000000006
10
202.73749999999995
20
-121.73200000000001
0
LWPOLYLINE
5
160
100
AcDbEntity
8
0
100
AcDbPolyline
90
4
70
1
43
0.0
10
250.64999999999995
20
-78.581999999999979
10
264.64999999999992
20
-78.581999999999979
10
264.64999999999992
20
-64.581999999999979
10
250.64999999999995
20
-64.581999999999979
0
LWPOLYLINE
5
161
100
AcDbEntity
8
0
100
AcDbPolyline
90
4
70
1
43
0.0
10
188.73749999999998
20
-102.682
10
188.73750000000004
20
-116.682
10
202.73749999999995
20
-116.682
10
202.73749999999995
20
-102.682
0
LWPOLYLINE
5
162
100
AcDbEntity
8
0
100
AcDbPolyline
90
4
70
1
43
0.0
10
236.07499999999999
20
-45.531999999999975
10
222.07499999999999
20
-45.531999999999975
10
222.07499999999999
20
-59.531999999999982
10
236.07499999999999
20
-59.531999999999982
0
LWPOLYLINE
5
163
100
AcDbEntity
8
0
100
AcDbPolyline
90
4
70
1
43
0.0
10
69.387500000000003
20
-116.682
10
69.387500000000003
20
-102.682
10
55.387500000000003
20
-102.682
10
55.387500000000003
20
-116.682
0
LWPOLYLINE
5
164
100
AcDbEntity
8
0
100
AcDbPolyline
90
4
70
1
43
0.0
10
222.72499999999997
20
-35.431999999999981
10
236.72499999999997
20
-35.431999999999981
10
236.72499999999997
20
-21.431999999999974
10
222.72499999999997
20
-21.431999999999974
0
LWPOLYLINE
5
165
100
AcDbEntity
8
0
100
AcDbPolyline
90
4
70
1
43
0.0
10
88.4375
20
-116.682
10
88.4375
20
-102.682
10
74.4375
20
-102.682
10
74.4375
20
-116.682
0
LWPOLYLINE
5
166
100
AcDbEntity
8
0
100
AcDbPolyline
90
4
70
1
43
0.0
10
193.5
20
-64.581999999999979
10
193.5
20
-78.581999999999979
10
207.5
20
-78.581999999999979
10
207.5
20
-64.581999999999979
0
LWPOLYLINE
5
167
100
AcDbEntity
8
0
100
AcDbPolyline
90
4
70
1
43
0.0
10
217.67499999999998
20
-35.431999999999981
10
217.67499999999998
20
-21.431999999999974
10
203.67500000000001
20
-21.431999999999974
10
203.67500000000001
20
-35.431999999999981
0
LWPOLYLINE
5
168
100
AcDbEntity
8
0
100
AcDbPolyline
90
4
70
1
43
0.0
10
217.02500000000001
20
-45.531999999999975
10
203.02500000000003
20
-45.531999999999975
10
203.02500000000003
20
-59.531999999999982
10
217.02500000000001
20
-59.531999999999982
0
LWPOLYLINE
5
169
100
AcDbEntity
8
0
100
AcDbPolyline
90
4
70
1
43
0.0
10
255.77499999999992
20
-35.431999999999981
10
255.77499999999992
20
-21.431999999999974
10
241.77499999999995
20
-21.431999999999974
10
241.77499999999995
20
-35.431999999999981
0
LWPOLYLINE
5
170
100
AcDbEntity
8
0
100
AcDbPolyline
90
4
70
1
43
0.0
10
50.337499999999991
20
-121.73200000000001
10
36.337500000000006
20
-121.73200000000001
10
36.337500000000006
20
-135.73200000000003
10
50.337499999999991
20
-135.73200000000003
0
LWPOLYLINE
5
171
100
AcDbEntity
8
0
100
AcDbPolyline
90
4
70
1
43
0.0
10
71.768749999999997
20
-135.73199999999997
10
71.768749999999997
20
-121.73200000000001
10
57.768749999999997
20
-121.73200000000001
10
57.768749999999997
20
-135.73200000000003
0
LWPOLYLINE
5
172
100
AcDbEntity
8
0
100
AcDbPolyline
90
4
70
1
43
0.0
10
255.12499999999994
20
-45.531999999999975
10
241.12499999999997
20
-45.531999999999975
10
241.12499999999997
20
-59.531999999999982
10
255.12499999999994
20
-59.531999999999982
0
LWPOLYLINE
5
173
100
AcDbEntity
8
0
100
AcDbPolyline
90
4
70
1
43
0.0
10
97.415178199483506
20
-126.33250506338847
10
83.892216631436511
20
-122.70903843195336
10
80.268750000000011
20
-136.232
10
93.791711568048612
20
-139.85546663143572
0
LWPOLYLINE
5
174
100
AcDbEntity
8
0
100
AcDbPolyline
90
4
70
1
43
0.0
10
24.431250000000006
20
-116.682
10
38.431250000000006
20
-116.682
10
38.431249999999999
20
-102.682
10
24.431250000000002
20
-102.682
0
LWPOLYLINE
5
175
100
AcDbEntity
8
0
100
AcDbPolyline
90
4
70
1
43
0.0
10
45.575000000000003
20
-59.531999999999982
10
45.575000000000003
20
-45.531999999999975
10
31.574999999999996
20
-45.531999999999975
10
31.574999999999996
20
-59.531999999999982
0
LWPOLYLINE
5
176
100
AcDbEntity
8
0
100
AcDbPolyline
90
4
70
1
43
0.0
10
12.524999999999999
20
-35.431999999999981
10
26.524999999999999
20
-35.431999999999981
10
26.524999999999999
20
-21.431999999999974
10
12.524999999999999
20
-21.431999999999974
0
LWPOLYLINE
5
177
100
AcDbEntity
8
0
100
AcDbPolyline
90
4
70
1
43
0.0
10
55.100000000000016
20
-78.581999999999979
10
55.100000000000016
20
-64.581999999999979
10
41.100000000000023
20
-64.581999999999979
10
41.100000000000009
20
-78.581999999999979
0
CIRCLE
5
178
100
AcDbEntity
8
0
100
AcDbCircle
10
15
20
-14.999999999999943
30
0
40
1.0999999999999983
210
0
220
0
230
1
0
LINE
5
179
100
AcDbEntity
8
0
100
AcDbLine
10
10
20
-10
30
0
11
15.00000079006478
21
-10
31
0
0
LWPOLYLINE
5
180
100
AcDbEntity
8
0
100
AcDbPolyline
90
4
70
1
43
0.0
10
17.287500000000001
20
-64.581999999999979
10
17.287500000000001
20
-78.581999999999979
10
31.287500000000001
20
-78.581999999999979
10
31.287500000000001
20
-64.581999999999979
0
LWPOLYLINE
5
181
100
AcDbEntity
8
0
100
AcDbPolyline
90
4
70
1
43
0.0
10
26.524999999999999
20
-45.531999999999975
10
12.524999999999999
20
-45.531999999999975
10
12.524999999999999
20
-59.531999999999982
10
26.524999999999999
20
-59.531999999999982
0
LWPOLYLINE
5
182
100
AcDbEntity
8
0
100
AcDbPolyline
90
4
70
1
43
0.0
10
19.668749999999996
20
-97.631999999999991
10
33.668750000000003
20
-97.631999999999991
10
33.668750000000003
20
-83.631999999999991
10
19.668750000000003
20
-83.631999999999991
0
LINE
5
183
100
AcDbEntity
8
0
100
AcDbLine
10
15
20
-10
30
0
11
10
21
-10
31
0
0
LINE
5
184
100
AcDbEntity
8
0
100
AcDbLine
10
10
20
-15
30
0
11
10
21
-10
31
0
0
LWPOLYLINE
5
185
100
AcDbEntity
8
0
100
AcDbPolyline
90
4
70
1
43
0.0
10
64.912500000000009
20
-97.631999999999991
10
78.912500000000009
20
-97.631999999999991
10
78.912500000000009
20
-83.631999999999991
10
64.912500000000009
20
-83.631999999999991
0
LWPOLYLINE
5
186
100
AcDbEntity
8
0
100
AcDbPolyline
90
4
70
1
43
0.0
10
74.15000000000002
20
-78.581999999999979
10
74.15000000000002
20
-64.581999999999979
10
60.150000000000013
20
-64.581999999999979
10
60.150000000000013
20
-78.581999999999979
0
LWPOLYLINE
5
187
100
AcDbEntity
8
0
100
AcDbPolyline
90
4
70
1
43
0.0
10
59.862500000000011
20
-97.631999999999991
10
59.862500000000011
20
-83.631999999999991
10
45.862500000000004
20
-83.631999999999991
10
45.862500000000004
20
-97.631999999999991
0
CIRCLE
5
188
100
AcDbEntity
8
0
100
AcDbCircle
10
330.00000000029871
20
-15.00000000001031
30
0
40
1.1000000000000134
210
0
220
0
230
1
0
CIRCLE
5
189
100
AcDbEntity
8
0
100
AcDbCircle
10
330.00000000039654
20
-140.99999999999906
30
0
40
1.1000000000000103
210
0
220
0
230
1
0
CIRCLE
5
190
100
AcDbEntity
8
0
100
AcDbCircle
10
15
20
-140.99999995897812
30
0
40
1.0999999999999917
210
0
220
0
230
1
0
LINE
5
191
100
AcDbEntity
8
0
100
AcDbLine
10
174.99936030612611
20
-145.99999995897878
30
0
11
197.15401146882769
21
-145.99999995898162
31
0
0
LWPOLYLINE
5
192
100
AcDbEntity
8
0
100
AcDbPolyline
90
4
70
1
43
0.0
10
313.21180000030864
20
-11.700000000000003
10
283.21180000030864
20
-11.700000000000003
10
283.21180000030864
20
-42.700000000000003
10
313.21180000030864
20
-42.700000000000003
0
CIRCLE
5
193
100
AcDbEntity
8
0
100
AcDbCircle
10
323.75999999999999
20
-47.229999999999997
30
0
40
10.000000000000002
210
0
220
0
230
1
0
CIRCLE
5
194
100
AcDbEntity
8
0
100
AcDbCircle
10
79.000000000008313
20
-14.999999999999968
30
0
40
1.1000000000000014
210
0
220
0
230
1
0
CIRCLE
5
195
100
AcDbEntity
8
0
100
AcDbCircle
10
197.99999999999997
20
-14.999999999999968
30
0
40
1.1000000000000048
210
0
220
0
230
1
0
CIRCLE
5
196
100
AcDbEntity
8
0
100
AcDbCircle
10
79
20
-140.99999995898014
30
0
40
1.0999999999999921
210
0
220
0
230
1
0
CIRCLE
5
197
100
AcDbEntity
8
0
100
AcDbCircle
10
198
20
-140.99999995898159
30
0
40
1.0999999999999983
210
0
220
0
230
1
0
LWPOLYLINE
5
198
100
AcDbEntity
8
0
100
AcDbPolyline
90
4
70
1
43
0.0
10
22.805650000000014
20
-117.43940000000002
10
22.805650000000014
20
-103.97740000000002
10
15.287250000000023
20
-103.97740000000002
10
15.287250000000023
20
-117.43940000000002
0
LWPOLYLINE
5
199
100
AcDbEntity
8
0
100
AcDbPolyline
90
4
70
1
43
0.0
10
40.056849999999997
20
-117.43940000000002
10
40.056849999999997
20
-103.97740000000002
10
47.575249999999997
20
-103.97740000000002
10
47.575249999999997
20
-117.43940000000002
0
LWPOLYLINE
5
200
100
AcDbEntity
8
0
100
AcDbPolyline
90
4
70
1
43
0.0
10
285.32559999999995
20
-60.289399999999972
10
285.32559999999995
20
-46.827399999999969
10
292.84399999999994
20
-46.827399999999969
10
292.84399999999994
20
-60.289399999999972
0
LWPOLYLINE
5
201
100
AcDbEntity
8
0
100
AcDbPolyline
90
4
70
1
43
0.0
10
268.07439999999997
20
-60.289399999999972
10
268.07439999999997
20
-46.827399999999969
10
260.55599999999993
20
-46.827399999999969
10
260.55599999999993
20
-60.289399999999972
0
LWPOLYLINE
5
202
100
AcDbEntity
8
0
100
AcDbPolyline
90
4
70
1
43
0.0
10
282.94434999999993
20
-98.389399999999952
10
282.94434999999993
20
-84.927399999999963
10
290.46274999999991
20
-84.927399999999963
10
290.46274999999991
20
-98.389399999999952
0
LWPOLYLINE
5
203
100
AcDbEntity
8
0
100
AcDbPolyline
90
4
70
1
43
0.0
10
258.17474999999985
20
-84.927399999999963
10
265.69314999999995
20
-84.927399999999963
10
265.69314999999995
20
-98.389399999999952
10
258.17474999999979
20
-98.389399999999952
0
LWPOLYLINE
5
204
100
AcDbEntity
8
0
100
AcDbPolyline
90
4
70
1
43
0.0
10
146.85806173488388
20
-150.34945441445123
10
143.37383974974676
20
-137.34616094096054
10
150.63605648211953
20
-135.40025583226549
10
154.12027846725596
20
-148.40354930576848
0
LWPOLYLINE
5
205
100
AcDbEntity
8
0
100
AcDbPolyline
90
4
70
1
43
0.0
10
165.39395288235309
20
-130.10479264575616
10
151.87099131430602
20
-133.728259277191
10
155.49445794572659
20
-147.25122084523701
10
169.01741951380458
20
-143.62775421379706
0
LWPOLYLINE
5
206
100
AcDbEntity
8
0
100
AcDbPolyline
90
4
70
1
43
0.0
10
174.56165282896603
20
-128.98941161270781
10
167.29943609659355
20
-130.9353167214029
10
170.78365808176204
20
-143.93861019490245
10
178.04587481413861
20
-141.99270508621296
0
LWPOLYLINE
5
207
100
AcDbEntity
8
0
100
AcDbPolyline
90
4
70
1
43
0.0
10
130.02943826508456
20
-150.34945441448909
10
133.51366025025496
20
-137.34616094098553
10
126.25144351788393
20
-135.40025583228632
10
122.76722153270197
20
-148.40354930578656
0
LWPOLYLINE
5
208
100
AcDbEntity
8
0
100
AcDbPolyline
90
4
70
1
43
0.0
10
121.39304205425377
20
-147.25122084523872
10
125.01650868569433
20
-133.72825927719046
10
111.49354711764714
20
-130.10479264575608
10
107.87008048621182
20
-143.62775421380303
0
LWPOLYLINE
5
209
100
AcDbEntity
8
0
100
AcDbPolyline
90
4
70
1
43
0.0
10
109.5880639034081
20
-130.9353167214129
10
106.10384191823572
20
-143.93861019491573
10
98.841625185862142
20
-141.99270508621279
10
102.32584717103605
20
-128.98941161271526
0
CIRCLE
5
210
100
AcDbEntity
8
0
100
AcDbCircle
10
165.05000000000001
20
-13.571899999999978
30
0
40
1.5999999999999979
210
0
220
0
230
1
0
CIRCLE
5
211
100
AcDbEntity
8
0
100
AcDbCircle
10
182.90940000000006
20
-13.571899999999978
30
0
40
1.6000000000000036
210
0
220
0
230
1
0
LWPOLYLINE
5
212
100
AcDbEntity
8
0
100
AcDbPolyline
90
4
70
1
43
0.0
10
29.049999999999997
20
-18.906999999999975
10
10
20
-18.906999999999975
10
10
20
-37.956999999999979
10
29.049999999999997
20
-37.956999999999979
0
LWPOLYLINE
5
213
100
AcDbEntity
8
0
100
AcDbPolyline
90
4
70
1
43
0.0
10
57.700000000000003
20
-18.906999999999975
10
38.649999999999999
20
-18.906999999999975
10
38.649999999999999
20
-37.956999999999979
10
57.700000000000003
20
-37.956999999999979
0
LWPOLYLINE
5
214
100
AcDbEntity
8
0
100
AcDbPolyline
90
4
70
1
43
0.0
10
76.75
20
-18.906999999999975
10
57.699999999999996
20
-18.906999999999975
10
57.699999999999996
20
-37.956999999999979
10
76.75
20
-37.956999999999979
0
LWPOLYLINE
5
215
100
AcDbEntity
8
0
100
AcDbPolyline
90
4
70
1
43
0.0
10
95.799999999999997
20
-18.906999999999975
10
76.75
20
-18.906999999999975
10
76.75
20
-37.956999999999979
10
95.799999999999997
20
-37.956999999999979
0
LWPOLYLINE
5
216
100
AcDbEntity
8
0
100
AcDbPolyline
90
4
70
1
43
0.0
10
114.85000000000001
20
-18.906999999999975
10
95.800000000000011
20
-18.906999999999975
10
95.800000000000011
20
-37.956999999999979
10
114.85000000000001
20
-37.956999999999979
0
LWPOLYLINE
5
217
100
AcDbEntity
8
0
100
AcDbPolyline
90
4
70
1
43
0.0
10
138.95000000000002
20
-18.906999999999975
10
119.90000000000002
20
-18.906999999999975
10
119.90000000000002
20
-37.956999999999979
10
138.95000000000002
20
-37.956999999999979
0
LWPOLYLINE
5
218
100
AcDbEntity
8
0
100
AcDbPolyline
90
4
70
1
43
0.0
10
158.00000000000003
20
-18.906999999999975
10
138.95000000000005
20
-18.906999999999975
10
138.95000000000005
20
-37.956999999999979
10
158.00000000000003
20
-37.956999999999979
0
LWPOLYLINE
5
219
100
AcDbEntity
8
0
100
AcDbPolyline
90
4
70
1
43
0.0
10
177.05000000000001
20
-18.906999999999975
10
158.00000000000003
20
-18.906999999999975
10
158.00000000000003
20
-37.956999999999979
10
177.05000000000001
20
-37.956999999999979
0
LWPOLYLINE
5
220
100
AcDbEntity
8
0
100
AcDbPolyline
90
4
70
1
43
0.0
10
196.09999999999999
20
-18.906999999999975
10
177.04999999999998
20
-18.906999999999975
10
177.04999999999998
20
-37.956999999999979
10
196.09999999999999
20
-37.956999999999979
0
LWPOLYLINE
5
221
100
AcDbEntity
8
0
100
AcDbPolyline
90
4
70
1
43
0.0
10
220.19999999999999
20
-18.906999999999975
10
201.14999999999998
20
-18.906999999999975
10
201.14999999999998
20
-37.956999999999979
10
220.19999999999999
20
-37.956999999999979
0
LWPOLYLINE
5
222
100
AcDbEntity
8
0
100
AcDbPolyline
90
4
70
1
43
0.0
10
239.24999999999997
20
-18.906999999999975
10
220.19999999999996
20
-18.906999999999975
10
220.19999999999996
20
-37.956999999999979
10
239.24999999999997
20
-37.956999999999979
0
LWPOLYLINE
5
223
100
AcDbEntity
8
0
100
AcDbPolyline
90
4
70
1
43
0.0
10
258.29999999999995
20
-18.906999999999975
10
239.24999999999994
20
-18.906999999999975
10
239.24999999999994
20
-37.956999999999979
10
258.29999999999995
20
-37.956999999999979
0
LWPOLYLINE
5
224
100
AcDbEntity
8
0
100
AcDbPolyline
90
4
70
1
43
0.0
10
277.34999999999991
20
-18.906999999999975
10
258.2999999999999
20
-18.906999999999975
10
258.2999999999999
20
-37.956999999999979
10
277.34999999999991
20
-37.956999999999979
0
LWPOLYLINE
5
225
100
AcDbEntity
8
0
100
AcDbPolyline
90
4
70
1
43
0.0
10
334.9999999999971
20
-62.056999999999903
10
315.94999999999709
20
-62.056999999999924
10
315.94999999999709
20
-81.107000000000014
10
334.9999999999971
20
-81.107000000000099
0
LWPOLYLINE
5
226
100
AcDbEntity
8
0
100
AcDbPolyline
90
4
70
1
43
0.0
10
334.99999999999704
20
-81.107000000000113
10
315.94999999999669
20
-81.107000000000113
10
315.94999999999936
20
-100.15700000000018
10
334.99999999999693
20
-100.15700000000018
0
LWPOLYLINE
5
227
100
AcDbEntity
8
0
100
AcDbPolyline
90
4
70
1
43
0.0
10
334.99999999999704
20
-100.15700000000002
10
315.94999999999715
20
-100.15700000000015
10
315.94999999999635
20
-119.20700000000012
10
334.99999999999704
20
-119.20700000000011
0
LWPOLYLINE
5
228
100
AcDbEntity
8
0
100
AcDbPolyline
90
4
70
1
43
0.0
10
300.51249999999993
20
-105.20699999999991
10
281.46249999999992
20
-105.20699999999994
10
281.46249999999998
20
-124.25699999999993
10
300.51249999999993
20
-124.25699999999998
0
LWPOLYLINE
5
229
100
AcDbEntity
8
0
100
AcDbPolyline
90
4
70
1
43
0.0
10
319.5625
20
-124.25699999999991
10
300.51249999999993
20
-124.25699999999993
10
300.51249999999993
20
-143.30699999999993
10
319.5625
20
-143.30699999999993
0
LWPOLYLINE
5
230
100
AcDbEntity
8
0
100
AcDbPolyline
90
4
70
1
43
0.0
10
300.51249999999999
20
-124.25700000000008
10
281.46249999999998
20
-124.25699999999998
10
281.46249999999998
20
-143.30699999999996
10
300.51249999999993
20
-143.3070000000001
0
LWPOLYLINE
5
231
100
AcDbEntity
8
0
100
AcDbPolyline
90
4
70
1
43
0.0
10
281.46250000000003
20
-124.25699999999993
10
262.41250000000002
20
-124.25699999999991
10
262.41250000000002
20
-143.3069999999999
10
281.46250000000015
20
-143.3069999999999
0
LWPOLYLINE
5
232
100
AcDbEntity
8
0
100
AcDbPolyline
90
4
70
1
43
0.0
10
257.36250000000007
20
-119.20700000000016
10
238.31250000000006
20
-119.20700000000012
10
238.31250000000006
20
-138.25700000000015
10
257.36249999999995
20
-138.25700000000001
0
LWPOLYLINE
5
233
100
AcDbEntity
8
0
100
AcDbPolyline
90
4
70
1
43
0.0
10
238.31250000000014
20
-119.20700000000011
10
219.2625000000001
20
-119.20700000000008
10
219.26249999999987
20
-138.25700000000009
10
238.31249999999966
20
-138.25699999999998
0
LWPOLYLINE
5
234
100
AcDbEntity
8
0
100
AcDbPolyline
90
4
70
1
43
0.0
10
219.26249999999999
20
-119.20699999999999
10
200.21249999999995
20
-119.20699999999999
10
200.21249999999995
20
-138.25699999999998
10
219.26249999999987
20
-138.25699999999998
0
LWPOLYLINE
5
235
100
AcDbEntity
8
0
100
AcDbPolyline
90
4
70
1
43
0.0
10
194.78072799106201
20
-119.61655763168929
10
176.37984100025454
20
-124.54706044089001
10
181.31034380945763
20
-142.94794743169962
10
199.71123080026348
20
-138.01744462249599
0
LWPOLYLINE
5
236
100
AcDbEntity
8
0
100
AcDbPolyline
90
4
70
1
43
0.0
10
276.69999999999987
20
-100.15700000000001
10
243.3624999999999
20
-100.15700000000001
10
243.3624999999999
20
-119.20699999999999
10
276.69999999999987
20
-119.20700000000217
0
LWPOLYLINE
5
237
100
AcDbEntity
8
0
100
AcDbPolyline
90
4
70
1
43
0.0
10
243.36249999999993
20
-100.15700000000001
10
224.31249999999991
20
-100.15700000000001
10
224.31249999999991
20
-119.20699999999999
10
243.36249999999993
20
-119.20700000000004
0
LWPOLYLINE
5
238
100
AcDbEntity
8
0
100
AcDbPolyline
90
4
70
1
43
0.0
10
257.64999999999998
20
-43.006999999999977
10
238.59999999999997
20
-43.006999999999977
10
238.59999999999997
20
-62.056999999999988
10
257.64999999999998
20
-62.056999999999988
0
LWPOLYLINE
5
239
100
AcDbEntity
8
0
100
AcDbPolyline
90
4
70
1
43
0.0
10
267.17499999999995
20
-62.056999999999974
10
248.12499999999994
20
-62.056999999999974
10
248.12499999999994
20
-81.106999999999971
10
267.17499999999995
20
-81.106999999999971
0
LWPOLYLINE
5
240
100
AcDbEntity
8
0
100
AcDbPolyline
90
4
70
1
43
0.0
10
248.12499999999997
20
-62.056999999999974
10
229.07499999999996
20
-62.056999999999974
10
229.07499999999996
20
-81.106999999999971
10
248.12499999999997
20
-81.106999999999971
0
LWPOLYLINE
5
241
100
AcDbEntity
8
0
100
AcDbPolyline
90
4
70
1
43
0.0
10
238.59999999999999
20
-43.006999999999977
10
219.54999999999998
20
-43.006999999999977
10
219.54999999999998
20
-62.056999999999988
10
238.59999999999999
20
-62.056999999999988
0
LWPOLYLINE
5
242
100
AcDbEntity
8
0
100
AcDbPolyline
90
4
70
1
43
0.0
10
219.55000000000001
20
-43.006999999999977
10
200.5
20
-43.006999999999977
10
200.5
20
-62.056999999999988
10
219.55000000000001
20
-62.056999999999988
0
LWPOLYLINE
5
243
100
AcDbEntity
8
0
100
AcDbPolyline
90
4
70
1
43
0.0
10
200.50000000000006
20
-43.006999999999977
10
181.45000000000005
20
-43.006999999999977
10
181.45000000000005
20
-62.056999999999988
10
200.50000000000006
20
-62.056999999999988
0
LWPOLYLINE
5
244
100
AcDbEntity
8
0
100
AcDbPolyline
90
4
70
1
43
0.0
10
181.45000000000007
20
-43.006999999999977
10
162.40000000000006
20
-43.006999999999977
10
162.40000000000006
20
-62.056999999999988
10
181.45000000000007
20
-62.056999999999988
0
LWPOLYLINE
5
245
100
AcDbEntity
8
0
100
AcDbPolyline
90
4
70
1
43
0.0
10
162.40000000000006
20
-43.006999999999977
10
143.35000000000005
20
-43.006999999999977
10
143.35000000000005
20
-62.056999999999988
10
162.40000000000006
20
-62.056999999999988
0
LWPOLYLINE
5
246
100
AcDbEntity
8
0
100
AcDbPolyline
90
4
70
1
43
0.0
10
143.35000000000005
20
-43.006999999999977
10
124.30000000000005
20
-43.006999999999977
10
124.30000000000005
20
-62.056999999999988
10
143.35000000000005
20
-62.056999999999988
0
LWPOLYLINE
5
247
100
AcDbEntity
8
0
100
AcDbPolyline
90
4
70
1
43
0.0
10
124.30000000000004
20
-43.006999999999977
10
105.25000000000004
20
-43.006999999999977
10
105.25000000000004
20
-62.056999999999988
10
124.30000000000004
20
-62.056999999999988
0
LWPOLYLINE
5
248
100
AcDbEntity
8
0
100
AcDbPolyline
90
4
70
1
43
0.0
10
105.25000000000003
20
-43.006999999999977
10
86.200000000000031
20
-43.006999999999977
10
86.200000000000031
20
-62.056999999999988
10
105.25000000000003
20
-62.056999999999988
0
LWPOLYLINE
5
249
100
AcDbEntity
8
0
100
AcDbPolyline
90
4
70
1
43
0.0
10
86.199999999999989
20
-43.006999999999977
10
67.150000000000006
20
-43.006999999999977
10
67.150000000000006
20
-62.056999999999988
10
86.199999999999989
20
-62.056999999999988
0
LWPOLYLINE
5
250
100
AcDbEntity
8
0
100
AcDbPolyline
90
4
70
1
43
0.0
10
67.150000000000006
20
-43.006999999999977
10
48.099999999999994
20
-43.006999999999977
10
48.099999999999994
20
-62.056999999999988
10
67.150000000000006
20
-62.056999999999988
0
LWPOLYLINE
5
251
100
AcDbEntity
8
0
100
AcDbPolyline
90
4
70
1
43
0.0
10
48.100000000000009
20
-43.006999999999977
10
29.049999999999997
20
-43.006999999999977
10
29.049999999999997
20
-62.056999999999988
10
48.100000000000009
20
-62.056999999999988
0
LWPOLYLINE
5
252
100
AcDbEntity
8
0
100
AcDbPolyline
90
4
70
1
43
0.0
10
29.049999999999997
20
-43.006999999999977
10
10
20
-43.006999999999977
10
10
20
-62.056999999999988
10
29.049999999999997
20
-62.056999999999988
0
LWPOLYLINE
5
253
100
AcDbEntity
8
0
100
AcDbPolyline
90
4
70
1
43
0.0
10
52.862499999999997
20
-119.20700000000002
10
33.812500000000007
20
-119.20700000000002
10
33.812500000000007
20
-138.25700000000001
10
52.862499999999997
20
-138.25700000000001
0
LWPOLYLINE
5
254
100
AcDbEntity
8
0
100
AcDbPolyline
90
4
70
1
43
0.0
10
71.912500000000009
20
-100.15700000000001
10
52.862499999999997
20
-100.15700000000001
10
52.862499999999997
20
-119.20699999999999
10
71.912500000000009
20
-119.20699999999999
0
LWPOLYLINE
5
255
100
AcDbEntity
8
0
100
AcDbPolyline
90
4
70
1
43
0.0
10
57.625000000000021
20
-62.056999999999974
10
38.575000000000024
20
-62.056999999999974
10
38.57500000000001
20
-81.106999999999971
10
57.625000000000021
20
-81.106999999999971
0
LWPOLYLINE
5
256
100
AcDbEntity
8
0
100
AcDbPolyline
90
4
70
1
43
0.0
10
76.675000000000026
20
-62.056999999999974
10
57.625000000000014
20
-62.056999999999974
10
57.625000000000014
20
-81.106999999999971
10
76.675000000000026
20
-81.106999999999971
0
LWPOLYLINE
5
257
100
AcDbEntity
8
0
100
AcDbPolyline
90
4
70
1
43
0.0
10
95.725000000000023
20
-62.056999999999974
10
76.675000000000011
20
-62.056999999999974
10
76.675000000000011
20
-81.106999999999971
10
95.725000000000023
20
-81.106999999999971
0
LWPOLYLINE
5
258
100
AcDbEntity
8
0
100
AcDbPolyline
90
4
70
1
43
0.0
10
114.77500000000003
20
-62.056999999999974
10
95.725000000000037
20
-62.056999999999974
10
95.725000000000037
20
-81.106999999999971
10
114.77500000000003
20
-81.106999999999971
0
LWPOLYLINE
5
259
100
AcDbEntity
8
0
100
AcDbPolyline
90
4
70
1
43
0.0
10
133.82500000000005
20
-62.056999999999974
10
114.77500000000005
20
-62.056999999999974
10
114.77500000000005
20
-81.106999999999971
10
133.82500000000005
20
-81.106999999999971
0
LWPOLYLINE
5
260
100
AcDbEntity
8
0
100
AcDbPolyline
90
4
70
1
43
0.0
10
152.87500000000006
20
-62.056999999999974
10
133.82500000000005
20
-62.056999999999974
10
133.82500000000005
20
-81.106999999999971
10
152.87500000000006
20
-81.106999999999971
0
LWPOLYLINE
5
261
100
AcDbEntity
8
0
100
AcDbPolyline
90
4
70
1
43
0.0
10
171.92500000000007
20
-62.056999999999974
10
152.87500000000006
20
-62.056999999999974
10
152.87500000000006
20
-81.106999999999971
10
171.92500000000007
20
-81.106999999999971
0
LWPOLYLINE
5
262
100
AcDbEntity
8
0
100
AcDbPolyline
90
4
70
1
43
0.0
10
190.97500000000002
20
-62.056999999999974
10
171.92500000000001
20
-62.056999999999974
10
171.92500000000001
20
-81.106999999999971
10
190.97500000000002
20
-81.106999999999971
0
LWPOLYLINE
5
263
100
AcDbEntity
8
0
100
AcDbPolyline
90
4
70
1
43
0.0
10
210.02500000000001
20
-62.056999999999974
10
190.97499999999999
20
-62.056999999999974
10
190.97499999999999
20
-81.106999999999971
10
210.02500000000001
20
-81.106999999999971
0
LWPOLYLINE
5
264
100
AcDbEntity
8
0
100
AcDbPolyline
90
4
70
1
43
0.0
10
229.07499999999999
20
-62.056999999999974
10
210.02499999999998
20
-62.056999999999974
10
210.02499999999998
20
-81.106999999999971
10
229.07499999999999
20
-81.106999999999971
0
LWPOLYLINE
5
265
100
AcDbEntity
8
0
100
AcDbPolyline
90
4
70
1
43
0.0
10
62.387500000000017
20
-81.106999999999999
10
43.337500000000006
20
-81.106999999999999
10
43.337500000000006
20
-100.15699999999998
10
62.387500000000017
20
-100.15699999999998
0
LWPOLYLINE
5
266
100
AcDbEntity
8
0
100
AcDbPolyline
90
4
70
1
43
0.0
10
81.4375
20
-81.106999999999999
10
62.387500000000003
20
-81.106999999999999
10
62.387500000000003
20
-100.15699999999998
10
81.4375
20
-100.15699999999998
0
LWPOLYLINE
5
267
100
AcDbEntity
8
0
100
AcDbPolyline
90
4
70
1
43
0.0
10
100.48750000000001
20
-81.106999999999999
10
81.437500000000028
20
-81.106999999999999
10
81.437500000000028
20
-100.15699999999998
10
100.48750000000001
20
-100.15699999999998
0
LWPOLYLINE
5
268
100
AcDbEntity
8
0
100
AcDbPolyline
90
4
70
1
43
0.0
10
119.53750000000002
20
-81.106999999999999
10
100.48750000000004
20
-81.106999999999999
10
100.48750000000004
20
-100.15699999999998
10
119.53750000000002
20
-100.15699999999998
0
LWPOLYLINE
5
269
100
AcDbEntity
8
0
100
AcDbPolyline
90
4
70
1
43
0.0
10
138.58750000000003
20
-81.106999999999999
10
119.53750000000005
20
-81.106999999999999
10
119.53750000000005
20
-100.15699999999998
10
138.58750000000003
20
-100.15699999999998
0
LWPOLYLINE
5
270
100
AcDbEntity
8
0
100
AcDbPolyline
90
4
70
1
43
0.0
10
157.63750000000005
20
-81.106999999999999
10
138.58750000000006
20
-81.106999999999999
10
138.58750000000006
20
-100.15699999999998
10
157.63750000000005
20
-100.15699999999998
0
LWPOLYLINE
5
271
100
AcDbEntity
8
0
100
AcDbPolyline
90
4
70
1
43
0.0
10
176.68750000000006
20
-81.106999999999999
10
157.63750000000007
20
-81.106999999999999
10
157.63750000000007
20
-100.15699999999998
10
176.68750000000006
20
-100.15699999999998
0
LWPOLYLINE
5
272
100
AcDbEntity
8
0
100
AcDbPolyline
90
4
70
1
43
0.0
10
195.73750000000004
20
-81.106999999999999
10
176.68750000000003
20
-81.106999999999999
10
176.68750000000003
20
-100.15699999999998
10
195.73750000000004
20
-100.15699999999998
0
LWPOLYLINE
5
273
100
AcDbEntity
8
0
100
AcDbPolyline
90
4
70
1
43
0.0
10
214.78750000000002
20
-81.106999999999999
10
195.73750000000001
20
-81.106999999999999
10
195.73750000000001
20
-100.15699999999998
10
214.78750000000002
20
-100.15699999999998
0
LWPOLYLINE
5
274
100
AcDbEntity
8
0
100
AcDbPolyline
90
4
70
1
43
0.0
10
233.83749999999998
20
-81.106999999999999
10
214.78749999999997
20
-81.106999999999999
10
214.78749999999997
20
-100.15699999999998
10
233.83749999999998
20
-100.15699999999995
0
LWPOLYLINE
5
275
100
AcDbEntity
8
0
100
AcDbPolyline
90
4
70
1
43
0.0
10
252.88749999999996
20
-81.106999999999999
10
233.83749999999995
20
-81.106999999999999
10
233.83749999999995
20
-100.15699999999998
10
252.88749999999996
20
-100.15699999999998
0
LWPOLYLINE
5
276
100
AcDbEntity
8
0
100
AcDbPolyline
90
4
70
1
43
0.0
10
90.962500000000006
20
-100.15700000000001
10
71.912499999999994
20
-100.15700000000001
10
71.912499999999994
20
-119.20699999999999
10
90.962500000000006
20
-119.20699999999999
0
LWPOLYLINE
5
277
100
AcDbEntity
8
0
100
AcDbPolyline
90
4
70
1
43
0.0
10
110.01250000000002
20
-100.15700000000001
10
90.962500000000034
20
-100.15700000000001
10
90.962500000000034
20
-119.20699999999999
10
110.01250000000002
20
-119.20699999999999
0
LWPOLYLINE
5
278
100
AcDbEntity
8
0
100
AcDbPolyline
90
4
70
1
43
0.0
10
129.06250000000003
20
-100.15700000000001
10
110.01250000000005
20
-100.15700000000001
10
110.01250000000005
20
-119.20699999999999
10
129.06250000000003
20
-119.20699999999999
0
LWPOLYLINE
5
279
100
AcDbEntity
8
0
100
AcDbPolyline
90
4
70
1
43
0.0
10
148.11250000000007
20
-100.15700000000001
10
129.06250000000006
20
-100.15700000000001
10
129.06250000000006
20
-119.20699999999999
10
148.11250000000007
20
-119.20699999999999
0
LWPOLYLINE
5
280
100
AcDbEntity
8
0
100
AcDbPolyline
90
4
70
1
43
0.0
10
167.16250000000008
20
-100.15700000000001
10
148.11250000000007
20
-100.15700000000001
10
148.11250000000007
20
-119.20699999999999
10
167.16250000000008
20
-119.20699999999999
0
LWPOLYLINE
5
281
100
AcDbEntity
8
0
100
AcDbPolyline
90
4
70
1
43
0.0
10
186.21250000000006
20
-100.15700000000001
10
167.16250000000005
20
-100.15700000000001
10
167.16250000000005
20
-119.20699999999999
10
186.21250000000006
20
-119.20699999999999
0
LWPOLYLINE
5
282
100
AcDbEntity
8
0
100
AcDbPolyline
90
4
70
1
43
0.0
10
205.26249999999999
20
-100.15700000000001
10
186.21250000000001
20
-100.15700000000001
10
186.21250000000006
20
-119.20699999999999
10
205.26249999999999
20
-119.20699999999999
0
LWPOLYLINE
5
283
100
AcDbEntity
8
0
100
AcDbPolyline
90
4
70
1
43
0.0
10
224.31249999999994
20
-100.15700000000001
10
205.26249999999993
20
-100.15700000000001
10
205.26249999999993
20
-119.20699999999999
10
224.31249999999994
20
-119.20699999999999
0
LWPOLYLINE
5
284
100
AcDbEntity
8
0
100
AcDbPolyline
90
4
70
1
43
0.0
10
52.862500000000011
20
-100.15700000000001
10
10
20
-100.15700000000001
10
10
20
-119.20699999999999
10
52.862500000000011
20
-119.20699999999999
0
LWPOLYLINE
5
285
100
AcDbEntity
8
0
100
AcDbPolyline
90
4
70
1
43
0.0
10
38.57500000000001
20
-62.056999999999974
10
10
20
-62.056999999999974
10
10
20
-81.106999999999971
10
38.57500000000001
20
-81.106999999999971
0
LWPOLYLINE
5
286
100
AcDbEntity
8
0
100
AcDbPolyline
90
4
70
1
43
0.0
10
43.337500000000006
20
-81.106999999999971
10
9.9999999999999982
20
-81.106999999999971
10
10
20
-100.15699999999998
10
43.337500000000006
20
-100.15700000000001
0
LWPOLYLINE
5
287
100
AcDbEntity
8
0
100
AcDbPolyline
90
4
70
1
43
0.0
10
33.812500000000007
20
-119.20700000000002
10
10
20
-119.20700000000002
10
10
20
-138.25700000000001
10
33.812500000000007
20
-138.25700000000001
0
LWPOLYLINE
5
288
100
AcDbEntity
8
0
100
AcDbPolyline
90
4
70
1
43
0.0
10
76.674999999999997
20
-119.20700000000002
10
52.86249999999999
20
-119.20700000000002
10
52.86249999999999
20
-138.25700000000003
10
76.674999999999997
20
-138.25700000000001
0
LWPOLYLINE
5
289
100
AcDbEntity
8
0
100
AcDbPolyline
90
4
70
1
43
0.0
10
137.30943298136083
20
-134.40806605929237
10
100.50765899974624
20
-124.54706044089039
10
95.577156190544713
20
-142.94794743169757
10
132.37893017215379
20
-152.80895305010014
0
LWPOLYLINE
5
290
100
AcDbEntity
8
0
100
AcDbPolyline
90
4
70
1
43
0.0
10
176.37984100025531
20
-124.54706044089909
10
139.57806701863902
20
-134.40806605929478
10
144.50856982787127
20
-152.80895305010259
10
181.31034380950928
20
-142.9479474318363
0
LWPOLYLINE
5
291
100
AcDbEntity
8
0
100
AcDbPolyline
90
4
70
1
43
0.0
10
295.74999999999994
20
-81.106999999999957
10
252.88749999999993
20
-81.106999999999957
10
252.88749999999993
20
-100.15699999999995
10
295.75
20
-100.15700000000297
0
LWPOLYLINE
5
292
100
AcDbEntity
8
0
100
AcDbPolyline
90
4
70
1
43
0.0
10
295.74999999999994
20
-43.006999999999977
10
257.64999999999998
20
-43.006999999999977
10
257.64999999999998
20
-62.056999999999974
10
295.74999999999994
20
-62.056999999999967
0
LWPOLYLINE
5
293
100
AcDbEntity
8
0
100
AcDbPolyline
90
4
70
1
43
0.0
10
295.74999999999989
20
-62.056999999999967
10
267.17499999999984
20
-62.056999999999974
10
267.1749999999999
20
-81.106999999999971
10
295.74999999999989
20
-81.106999999999971
0
LWPOLYLINE
5
294
100
AcDbEntity
8
0
100
AcDbPolyline
90
4
70
1
43
0.0
10
100.50765899974719
20
-124.54706044089237
10
82.106772008940695
20
-119.61655763168969
10
77.176269199736026
20
-138.01744462249596
10
95.577156190544741
20
-142.9479474316995
0
ENDSEC
0
SECTION
2
OBJECTS
0
DICTIONARY
5
C
100
AcDbDictionary
3
ACAD_GROUP
350
D
3
ACAD_MLINESTYLE
350
17
0
DICTIONARY
5
D
100
AcDbDictionary
0
DICTIONARY
5
1A
330
C
100
AcDbDictionary
0
DICTIONARY
5
17
100
AcDbDictionary
0
ENDSEC
0
EOF
