%TF.GenerationSoftware,KiCad,Pcbnew,7.0.10*%
%TF.CreationDate,2024-01-30T23:28:45+01:00*%
%TF.ProjectId,plate,706c6174-652e-46b6-9963-61645f706362,rev?*%
%TF.SameCoordinates,Original*%
%TF.FileFunction,Profile,NP*%
%FSLAX46Y46*%
G04 Gerber Fmt 4.6, Leading zero omitted, Abs format (unit mm)*
G04 Created by KiCad (PCBNEW 7.0.10) date 2024-01-30 23:28:45*
%MOMM*%
%LPD*%
G01*
G04 APERTURE LIST*
%TA.AperFunction,Profile*%
%ADD10C,0.050000*%
%TD*%
%TA.AperFunction,Profile*%
%ADD11C,0.250000*%
%TD*%
G04 APERTURE END LIST*
D10*
X199527585Y-186227303D02*
X199527585Y-200327303D01*
D11*
X417319751Y-243907303D02*
X417319751Y-246288553D01*
D10*
X413270985Y-219387303D02*
X413270985Y-205287303D01*
X255616957Y-234736105D02*
X263931212Y-236503355D01*
X346273387Y-207452712D02*
X332481506Y-210384267D01*
D11*
X145430000Y-158545000D02*
X148430000Y-158545000D01*
D10*
X396408485Y-145746003D02*
X396408485Y-159846003D01*
X401358485Y-162227303D02*
X401358485Y-148127303D01*
X455939785Y-226708503D02*
X455939785Y-240808503D01*
X206671285Y-159846003D02*
X192571285Y-159846003D01*
X264271868Y-197619469D02*
X278063749Y-200551024D01*
D11*
X148430000Y-158545000D02*
X148430000Y-161935000D01*
D10*
X240871493Y-229557179D02*
X237732026Y-244327208D01*
X173340085Y-186237303D02*
X173340085Y-200337303D01*
X316229106Y-194363267D02*
X313297551Y-180571386D01*
X441839785Y-207658503D02*
X455939785Y-207658503D01*
X257048749Y-176608624D02*
X254117194Y-190400505D01*
X453753485Y-167187303D02*
X467853485Y-167187303D01*
D11*
X146950000Y-172545000D02*
X149950000Y-172545000D01*
D10*
X359739845Y-142075287D02*
X357777505Y-128112508D01*
X197155085Y-238437303D02*
X183055085Y-238437303D01*
X208524607Y-239146441D02*
X211456161Y-225354560D01*
X328714492Y-235726311D02*
X337028747Y-233959062D01*
X192571285Y-159846003D02*
X192571285Y-145746003D01*
D11*
X145450000Y-148570000D02*
X148450000Y-148570000D01*
D10*
X170957535Y-205282303D02*
X170957535Y-206282303D01*
X284875949Y-163047824D02*
X281944394Y-176839705D01*
X201908785Y-219377303D02*
X187808785Y-219377303D01*
X242706613Y-207450651D02*
X245638168Y-193658769D01*
X156857535Y-205282303D02*
X170957535Y-205282303D01*
X154471285Y-162227303D02*
X154471285Y-148127303D01*
X355163333Y-152196931D02*
X358094887Y-165988812D01*
X290330160Y-150974620D02*
X276283815Y-149745724D01*
X362936706Y-164959667D02*
X360005151Y-151167786D01*
X340405706Y-145896267D02*
X337474151Y-132104386D01*
X185427585Y-186227303D02*
X199527585Y-186227303D01*
X247608549Y-155126424D02*
X244676994Y-168918305D01*
X359594333Y-209681931D02*
X362525887Y-223473812D01*
X159241285Y-167187303D02*
X173341285Y-167187303D01*
X197146285Y-181277303D02*
X183046285Y-181277303D01*
X336529633Y-156157631D02*
X339461187Y-169949512D01*
X474319751Y-221772928D02*
X477469751Y-221772928D01*
X330100306Y-230366067D02*
X327168751Y-216574186D01*
D11*
X148450000Y-148570000D02*
X148450000Y-151960000D01*
X148450000Y-151960000D02*
X145450000Y-151960000D01*
D10*
X382990533Y-165757731D02*
X385922087Y-179549612D01*
X229385668Y-209679769D02*
X243177549Y-212611324D01*
X301539885Y-210039803D02*
X301539885Y-224139803D01*
X353496506Y-186441867D02*
X350564951Y-172649986D01*
X224072913Y-203489951D02*
X227004468Y-189698069D01*
X427370985Y-219387303D02*
X413270985Y-219387303D01*
X203057913Y-179547451D02*
X205989468Y-165755569D01*
X405942285Y-238437303D02*
X391842285Y-238437303D01*
X156857535Y-205282303D02*
X156857535Y-206282303D01*
D11*
X139476285Y-243907303D02*
X204613333Y-243907303D01*
D10*
X240245994Y-226403205D02*
X226454113Y-223471651D01*
D11*
X149950000Y-172545000D02*
X149950000Y-175935000D01*
D10*
X439463535Y-186232303D02*
X439463535Y-187232303D01*
X322737751Y-159089186D02*
X336529633Y-156157631D01*
X221691613Y-183508251D02*
X224623168Y-169716369D01*
D11*
X373529254Y-120374991D02*
X354589160Y-123036847D01*
D10*
X248574294Y-145894205D02*
X234782413Y-142962651D01*
X287439885Y-224139803D02*
X287439885Y-210039803D01*
X243177549Y-212611324D02*
X240245994Y-226403205D01*
X351115206Y-206423567D02*
X348183651Y-192631686D01*
X172407535Y-221382303D02*
X179407535Y-221382303D01*
X268152513Y-173908151D02*
X271084068Y-160116269D01*
D11*
X333729291Y-127308199D02*
X332439451Y-127764227D01*
X384376454Y-243907303D02*
X417319751Y-243907303D01*
D10*
X324542195Y-250005822D02*
X316276848Y-251762676D01*
X367288387Y-183510312D02*
X353496506Y-186441867D01*
X318693349Y-149168975D02*
X316974991Y-135174075D01*
X381159587Y-219513012D02*
X367367706Y-222444567D01*
X366680658Y-242076439D02*
X363749103Y-228284558D01*
X467853485Y-181287303D02*
X453753485Y-181287303D01*
X422789785Y-226708503D02*
X436889785Y-226708503D01*
D11*
X274950872Y-130023528D02*
X256550336Y-127764227D01*
X194454149Y-118893864D02*
X192520589Y-118844803D01*
D10*
X276283815Y-149745724D02*
X277512711Y-135699379D01*
X360005151Y-151167786D02*
X373797033Y-148236231D01*
X173340085Y-200337303D02*
X159240085Y-200337303D01*
X168571285Y-124314803D02*
X168571285Y-138414803D01*
X445488485Y-164232303D02*
X452488485Y-164232303D01*
X401170985Y-205277303D02*
X401170985Y-219377303D01*
X403552285Y-200327303D02*
X389452285Y-200327303D01*
X369748906Y-202462867D02*
X366817351Y-188670986D01*
D11*
X256550336Y-127764227D02*
X255260495Y-127308199D01*
D10*
X398977285Y-138414803D02*
X398977285Y-124314803D01*
X427370985Y-205287303D02*
X427370985Y-219387303D01*
X211456161Y-225354560D02*
X225248043Y-228286115D01*
X373702625Y-140112947D02*
X359739845Y-142075287D01*
X277512711Y-135699379D02*
X291559056Y-136928275D01*
X382308485Y-145746003D02*
X396408485Y-145746003D01*
X245789462Y-247062209D02*
X245997374Y-246084061D01*
X474989785Y-124314803D02*
X474989785Y-138414803D01*
X467853485Y-167187303D02*
X467853485Y-181287303D01*
X310916251Y-200553186D02*
X324708133Y-197621631D01*
X278063749Y-200551024D02*
X275132194Y-214342905D01*
X420408485Y-138414803D02*
X420408485Y-124314803D01*
X362525887Y-223473812D02*
X348734006Y-226405367D01*
X187808785Y-219377303D02*
X187808785Y-205277303D01*
X173342585Y-224337303D02*
X173342585Y-238437303D01*
X261811249Y-216572124D02*
X258879694Y-230364005D01*
D11*
X352675743Y-123281006D02*
X333729291Y-127308199D01*
D10*
X208370768Y-185737369D02*
X222162649Y-188668924D01*
X225248043Y-228286115D02*
X222316488Y-242077996D01*
X264347035Y-234547059D02*
X271194068Y-236002441D01*
X206671285Y-145746003D02*
X206671285Y-159846003D01*
X401358485Y-148127303D02*
X415458485Y-148127303D01*
X183046285Y-167177303D02*
X197146285Y-167177303D01*
X474319751Y-221772928D02*
X474319751Y-205272928D01*
D11*
X139476285Y-118844803D02*
X139476285Y-243907303D01*
D10*
X271084068Y-160116269D02*
X284875949Y-163047824D01*
X415458485Y-162227303D02*
X401358485Y-162227303D01*
X266653168Y-217601269D02*
X280445049Y-220532824D01*
X387070985Y-205277303D02*
X401170985Y-205277303D01*
X325258487Y-231395212D02*
X311466606Y-234326767D01*
X237864794Y-206421505D02*
X224072913Y-203489951D01*
X371740284Y-126150167D02*
X373702625Y-140112947D01*
X237713968Y-129170769D02*
X251505849Y-132102324D01*
X311467106Y-135700233D02*
X312696002Y-149746578D01*
X245638168Y-193658769D02*
X259430049Y-196590324D01*
X271194068Y-236002441D02*
X268054602Y-250772470D01*
X312696002Y-149746578D02*
X298649657Y-150975474D01*
X209685157Y-139576704D02*
X195619503Y-138593138D01*
X159240085Y-186237303D02*
X173340085Y-186237303D01*
X291559056Y-136928275D02*
X290330160Y-150974620D01*
D11*
X213533697Y-120228036D02*
X194454149Y-118893864D01*
D10*
X392376720Y-124528221D02*
X393360286Y-138593875D01*
X212251413Y-162026051D02*
X215182968Y-148234169D01*
X410883485Y-167177303D02*
X424983485Y-167177303D01*
X183046285Y-181277303D02*
X183046285Y-167177303D01*
X380609233Y-185739431D02*
X383540787Y-199531312D01*
X227004468Y-189698069D02*
X240796349Y-192629624D01*
X233816668Y-152194869D02*
X247608549Y-155126424D01*
X408502285Y-200327303D02*
X408502285Y-186227303D01*
X331931251Y-176610686D02*
X345723133Y-173679131D01*
X234782413Y-142962651D02*
X237713968Y-129170769D01*
X396408485Y-159846003D02*
X382308485Y-159846003D01*
X387070985Y-219377303D02*
X387070985Y-205277303D01*
X313847806Y-214345067D02*
X310916251Y-200553186D01*
X429933485Y-181277303D02*
X429933485Y-167177303D01*
X474989785Y-138414803D02*
X460889785Y-138414803D01*
X441839785Y-226708503D02*
X455939785Y-226708503D01*
D11*
X375456089Y-120228036D02*
X373529254Y-120374991D01*
D10*
X304104051Y-163049986D02*
X317895933Y-160118431D01*
X345723133Y-173679131D02*
X348654687Y-187471012D01*
X173341285Y-181287303D02*
X159241285Y-181287303D01*
X383540787Y-199531312D02*
X369748906Y-202462867D01*
X452488485Y-164232303D02*
X452488485Y-149132303D01*
X413077285Y-124314803D02*
X413077285Y-138414803D01*
X317895933Y-160118431D02*
X320827487Y-173910312D01*
X455939785Y-124314803D02*
X455939785Y-138414803D01*
X343341833Y-193660831D02*
X346273387Y-207452712D01*
X453563535Y-186232303D02*
X453563535Y-187232303D01*
X444038485Y-148132303D02*
X444038485Y-149132303D01*
X405933485Y-167177303D02*
X405933485Y-181277303D01*
X258959113Y-191429651D02*
X261890668Y-177637769D01*
X183055085Y-224337303D02*
X197155085Y-224337303D01*
X378228033Y-205721131D02*
X381159587Y-219513012D01*
X249518813Y-169947451D02*
X252450368Y-156155569D01*
X322326933Y-217603331D02*
X325258487Y-231395212D01*
X255616957Y-234736105D02*
X247302703Y-232968856D01*
X472608485Y-162227303D02*
X458508485Y-162227303D01*
X377540985Y-225353003D02*
X380472539Y-239144885D01*
X372130206Y-182481167D02*
X369198651Y-168689286D01*
X172407535Y-221382303D02*
X172407535Y-219382303D01*
X415458485Y-148127303D02*
X415458485Y-162227303D01*
X173342585Y-238437303D02*
X159242585Y-238437303D01*
X439463535Y-186232303D02*
X453563535Y-186232303D01*
D11*
X275398367Y-130023528D02*
X274950872Y-130023528D01*
D10*
X391833485Y-167177303D02*
X405933485Y-167177303D01*
X187621285Y-148127303D02*
X187621285Y-162227303D01*
X373797033Y-148236231D02*
X376728587Y-162028112D01*
X277513494Y-234324705D02*
X263721613Y-231393151D01*
X378311067Y-125511788D02*
X392376720Y-124528221D01*
X154471285Y-148127303D02*
X168571285Y-148127303D01*
X401170985Y-219377303D02*
X387070985Y-219377303D01*
X287439885Y-229089803D02*
X301539885Y-229089803D01*
X421488485Y-149132303D02*
X429938485Y-149132303D01*
X422789785Y-240808503D02*
X422789785Y-226708503D01*
X438013535Y-200332303D02*
X438013535Y-202332303D01*
X263931212Y-236503355D02*
X264347035Y-234547059D01*
X173521285Y-162227303D02*
X173521285Y-148127303D01*
X332481506Y-210384267D02*
X329549951Y-196592386D01*
D11*
X288994893Y-131214803D02*
X275398367Y-130023528D01*
D10*
X287439885Y-210039803D02*
X301539885Y-210039803D01*
X420408485Y-124314803D02*
X434508485Y-124314803D01*
X364356833Y-169718431D02*
X367288387Y-183510312D01*
X281944394Y-176839705D02*
X268152513Y-173908151D01*
X446513535Y-200332303D02*
X455013535Y-200332303D01*
X405942285Y-224337303D02*
X405942285Y-238437303D01*
D11*
X277476816Y-259394914D02*
X311512971Y-259394914D01*
D10*
X393360286Y-138593875D02*
X379294633Y-139577441D01*
X313297551Y-180571386D02*
X327089433Y-177639831D01*
X472608485Y-148127303D02*
X472608485Y-162227303D01*
X405933485Y-181277303D02*
X391833485Y-181277303D01*
X272750994Y-194361205D02*
X258959113Y-191429651D01*
X431013535Y-202332303D02*
X431013535Y-187232303D01*
X339461187Y-169949512D02*
X325669306Y-172881067D01*
X308535051Y-220534886D02*
X322326933Y-217603331D01*
X441839785Y-221758503D02*
X441839785Y-207658503D01*
X455939785Y-221758503D02*
X441839785Y-221758503D01*
X159242585Y-224337303D02*
X173342585Y-224337303D01*
X168571285Y-138414803D02*
X154471285Y-138414803D01*
X348654687Y-187471012D02*
X334862806Y-190402567D01*
X254117194Y-190400505D02*
X240325313Y-187468951D01*
X173521285Y-148127303D02*
X187621285Y-148127303D01*
X316974991Y-135174075D02*
X330969892Y-133455717D01*
X455013535Y-202332303D02*
X455013535Y-200332303D01*
D11*
X234400626Y-123036847D02*
X215460533Y-120374991D01*
D10*
X240325313Y-187468951D02*
X243256868Y-173677069D01*
X219231094Y-202460805D02*
X205439213Y-199529251D01*
X367367706Y-222444567D02*
X364436151Y-208652686D01*
X256291599Y-147449410D02*
X258009957Y-133454509D01*
X460889785Y-138414803D02*
X460889785Y-124314803D01*
X301539885Y-224139803D02*
X287439885Y-224139803D01*
X251505849Y-132102324D02*
X248574294Y-145894205D01*
X207820413Y-219510951D02*
X210751968Y-205719069D01*
D11*
X480469751Y-118844803D02*
X396469197Y-118844803D01*
D10*
X351266033Y-129172831D02*
X354197587Y-142964712D01*
X330969892Y-133455717D02*
X332688250Y-147450618D01*
D11*
X314038914Y-130023528D02*
X313591419Y-130023528D01*
X480469751Y-246288553D02*
X480469751Y-221772928D01*
D10*
X320827487Y-173910312D02*
X307035606Y-176841867D01*
X446513535Y-200332303D02*
X438013535Y-200332303D01*
X201908785Y-205277303D02*
X201908785Y-219377303D01*
D11*
X215460533Y-120374991D02*
X213533697Y-120228036D01*
D10*
X243256868Y-173677069D02*
X257048749Y-176608624D01*
X199527585Y-200327303D02*
X185427585Y-200327303D01*
X197146285Y-167177303D02*
X197146285Y-181277303D01*
X391842285Y-224337303D02*
X405942285Y-224337303D01*
X336612923Y-232002766D02*
X343459957Y-230547384D01*
X391833485Y-181277303D02*
X391833485Y-167177303D01*
X215182968Y-148234169D02*
X228974849Y-151165724D01*
D11*
X204613333Y-243907303D02*
X277476816Y-259394914D01*
D10*
X313137381Y-236992647D02*
X316276848Y-251762676D01*
X148407535Y-206282303D02*
X156857535Y-206282303D01*
D11*
X299994893Y-129479169D02*
X299994893Y-131214803D01*
D10*
X229240029Y-142073943D02*
X215277249Y-140111602D01*
X205989468Y-165755569D02*
X219781349Y-168687124D01*
X301539885Y-229089803D02*
X301539885Y-243189803D01*
X224543849Y-208650624D02*
X221612294Y-222442505D01*
X297420761Y-136929129D02*
X311467106Y-135700233D01*
X474989785Y-226708503D02*
X474989785Y-240808503D01*
X354197587Y-142964712D02*
X340405706Y-145896267D01*
X398977285Y-124314803D02*
X413077285Y-124314803D01*
X348734006Y-226405367D02*
X345802451Y-212613486D01*
X424983485Y-181277303D02*
X410883485Y-181277303D01*
X444038485Y-149132303D02*
X452488485Y-149132303D01*
X330020987Y-191431712D02*
X316229106Y-194363267D01*
X288994893Y-129479169D02*
X299994893Y-129479169D01*
X385922087Y-179549612D02*
X372130206Y-182481167D01*
X369198651Y-168689286D02*
X382990533Y-165757731D01*
D11*
X145450000Y-151960000D02*
X145450000Y-148569999D01*
D10*
X453563535Y-187232303D02*
X462013535Y-187232303D01*
D11*
X480463217Y-205272928D02*
X480469751Y-118844803D01*
X148430000Y-161935000D02*
X145430000Y-161935000D01*
D10*
X474319751Y-205272928D02*
X477469751Y-205272928D01*
X324750106Y-250983969D02*
X324542195Y-250005822D01*
X148407535Y-221382303D02*
X148407535Y-206282303D01*
X226043294Y-164957605D02*
X212251413Y-162026051D01*
X222162649Y-188668924D02*
X219231094Y-202460805D01*
X413077285Y-138414803D02*
X398977285Y-138414803D01*
D11*
X149950000Y-175935000D02*
X146950000Y-175935000D01*
D10*
X235483494Y-186439805D02*
X221691613Y-183508251D01*
D11*
X311512971Y-259394914D02*
X384376454Y-243907303D01*
D10*
X230885113Y-165986751D02*
X233816668Y-152194869D01*
X270286500Y-149167768D02*
X256291599Y-147449410D01*
X408502285Y-186227303D02*
X422602285Y-186227303D01*
X263721613Y-231393151D02*
X266653168Y-217601269D01*
X436889785Y-240808503D02*
X422789785Y-240808503D01*
X168571285Y-162227303D02*
X154471285Y-162227303D01*
X266242249Y-159087124D02*
X263310694Y-172879005D01*
X413270985Y-205287303D02*
X427370985Y-205287303D01*
X190002585Y-138414803D02*
X175902585Y-138414803D01*
X195619503Y-138593138D02*
X196603070Y-124527485D01*
X259581343Y-249993764D02*
X259789255Y-249015616D01*
X441839785Y-138414803D02*
X441839785Y-124314803D01*
X431013535Y-187232303D02*
X439463535Y-187232303D01*
X159241285Y-181287303D02*
X159241285Y-167187303D01*
X444033485Y-181277303D02*
X429933485Y-181277303D01*
X210668723Y-125511051D02*
X209685157Y-139576704D01*
X436988485Y-162232303D02*
X445488485Y-162232303D01*
X434508485Y-138414803D02*
X420408485Y-138414803D01*
X311466606Y-234326767D02*
X308535051Y-220534886D01*
X436889785Y-226708503D02*
X436889785Y-240808503D01*
X340960633Y-213642631D02*
X343892187Y-227434512D01*
X327639687Y-211413512D02*
X313847806Y-214345067D01*
X458508485Y-148127303D02*
X472608485Y-148127303D01*
X155407535Y-221382303D02*
X148407535Y-221382303D01*
X261890668Y-177637769D02*
X275682549Y-180569324D01*
X183055085Y-238437303D02*
X183055085Y-224337303D01*
D11*
X332439451Y-127764227D02*
X314038914Y-130023528D01*
D10*
X248019368Y-213640569D02*
X261811249Y-216572124D01*
X159242585Y-238437303D02*
X159242585Y-224337303D01*
X434508485Y-124314803D02*
X434508485Y-138414803D01*
X455939785Y-207658503D02*
X455939785Y-221758503D01*
X380472539Y-239144885D02*
X366680658Y-242076439D01*
X358094887Y-165988812D02*
X344303006Y-168920367D01*
X438013535Y-202332303D02*
X431013535Y-202332303D01*
X224623168Y-169716369D02*
X238415049Y-172647924D01*
X168571285Y-148127303D02*
X168571285Y-162227303D01*
D11*
X477469751Y-205272928D02*
X480469751Y-205272928D01*
D10*
X231202369Y-128111163D02*
X229240029Y-142073943D01*
X187621285Y-162227303D02*
X173521285Y-162227303D01*
X154471285Y-138414803D02*
X154471285Y-124314803D01*
X332688250Y-147450618D02*
X318693349Y-149168975D01*
X175902585Y-124314803D02*
X190002585Y-124314803D01*
X261340313Y-211411351D02*
X264271868Y-197619469D01*
X170957535Y-206282303D02*
X179407535Y-206282303D01*
X338541988Y-248052415D02*
X338334076Y-247074267D01*
X258879694Y-230364005D02*
X245087813Y-227432451D01*
X319984414Y-235537265D02*
X313137381Y-236992647D01*
X256498494Y-210382205D02*
X242706613Y-207450651D01*
X458508485Y-162227303D02*
X458508485Y-148127303D01*
X343459957Y-230547384D02*
X346599423Y-245317413D01*
X159240085Y-200337303D02*
X159240085Y-186237303D01*
X187808785Y-205277303D02*
X201908785Y-205277303D01*
X287439885Y-243189803D02*
X287439885Y-229089803D01*
X441839785Y-124314803D02*
X455939785Y-124314803D01*
X337474151Y-132104386D02*
X351266033Y-129172831D01*
X343892187Y-227434512D02*
X330100306Y-230366067D01*
X263310694Y-172879005D02*
X249518813Y-169947451D01*
X346599423Y-245317413D02*
X338334076Y-247074267D01*
X460889785Y-226708503D02*
X474989785Y-226708503D01*
D11*
X288994893Y-129479169D02*
X288994893Y-131214803D01*
D10*
X190002585Y-124314803D02*
X190002585Y-138414803D01*
X338541988Y-248052415D02*
X324750106Y-250983969D01*
X244676994Y-168918305D02*
X230885113Y-165986751D01*
X422602285Y-186227303D02*
X422602285Y-200327303D01*
X216849794Y-182479005D02*
X203057913Y-179547451D01*
X215277249Y-140111602D02*
X217239590Y-126148823D01*
X474989785Y-240808503D02*
X460889785Y-240808503D01*
X389452285Y-186227303D02*
X403552285Y-186227303D01*
X173341285Y-167187303D02*
X173341285Y-181287303D01*
X445488485Y-164232303D02*
X445488485Y-162232303D01*
D11*
X396469197Y-118844803D02*
X394535637Y-118893864D01*
D10*
X382308485Y-159846003D02*
X382308485Y-145746003D01*
X154471285Y-124314803D02*
X168571285Y-124314803D01*
X185427585Y-200327303D02*
X185427585Y-186227303D01*
X403552285Y-186227303D02*
X403552285Y-200327303D01*
X462013535Y-202332303D02*
X462013535Y-187232303D01*
X455013535Y-202332303D02*
X462013535Y-202332303D01*
X422602285Y-200327303D02*
X408502285Y-200327303D01*
D11*
X394535637Y-118893864D02*
X375456089Y-120228036D01*
D10*
X275132194Y-214342905D02*
X261340313Y-211411351D01*
D11*
X145430000Y-161935000D02*
X145430000Y-158545000D01*
D10*
X307035606Y-176841867D02*
X304104051Y-163049986D01*
X252450368Y-156155569D02*
X266242249Y-159087124D01*
X192571285Y-145746003D02*
X206671285Y-145746003D01*
X455939785Y-138414803D02*
X441839785Y-138414803D01*
X324708133Y-197621631D02*
X327639687Y-211413512D01*
D11*
X354589160Y-123036847D02*
X352675743Y-123281006D01*
D10*
X205439213Y-199529251D02*
X208370768Y-185737369D01*
X389452285Y-200327303D02*
X389452285Y-186227303D01*
X155407535Y-219382303D02*
X155407535Y-221382303D01*
X429938485Y-148132303D02*
X429938485Y-149132303D01*
X421488485Y-164232303D02*
X421488485Y-149132303D01*
X210751968Y-205719069D02*
X224543849Y-208650624D01*
X221612294Y-222442505D02*
X207820413Y-219510951D01*
X379294633Y-139577441D02*
X378311067Y-125511788D01*
X319984414Y-235537265D02*
X320400238Y-237493560D01*
X240796349Y-192629624D02*
X237864794Y-206421505D01*
X344303006Y-168920367D02*
X341371451Y-155128486D01*
X245997374Y-246084061D02*
X237732026Y-244327208D01*
X357777505Y-128112508D02*
X371740284Y-126150167D01*
X441839785Y-240808503D02*
X441839785Y-226708503D01*
X259581343Y-249993764D02*
X245789462Y-247062209D01*
X436988485Y-162232303D02*
X428488485Y-162232303D01*
X301539885Y-243189803D02*
X287439885Y-243189803D01*
X428488485Y-162232303D02*
X428488485Y-164232303D01*
X363749103Y-228284558D02*
X377540985Y-225353003D01*
X329549951Y-196592386D02*
X343341833Y-193660831D01*
X196603070Y-124527485D02*
X210668723Y-125511051D01*
X247718526Y-231012561D02*
X240871493Y-229557179D01*
X298649657Y-150975474D02*
X297420761Y-136929129D01*
X328714492Y-235726311D02*
X320400238Y-237493560D01*
X428488485Y-164232303D02*
X421488485Y-164232303D01*
X238415049Y-172647924D02*
X235483494Y-186439805D01*
X258009957Y-133454509D02*
X272004857Y-135172867D01*
D11*
X417319751Y-246288553D02*
X480469751Y-246288553D01*
D10*
X348183651Y-192631686D02*
X361975533Y-189700131D01*
X350564951Y-172649986D02*
X364356833Y-169718431D01*
X222316488Y-242077996D02*
X208524607Y-239146441D01*
X429938485Y-148132303D02*
X444038485Y-148132303D01*
X376728587Y-162028112D02*
X362936706Y-164959667D01*
X280445049Y-220532824D02*
X277513494Y-234324705D01*
D11*
X299994893Y-131214803D02*
X313591419Y-130023528D01*
D10*
X325669306Y-172881067D02*
X322737751Y-159089186D01*
X259430049Y-196590324D02*
X256498494Y-210382205D01*
X327168751Y-216574186D02*
X340960633Y-213642631D01*
D11*
X146950000Y-175935000D02*
X146950000Y-172545000D01*
D10*
X217239590Y-126148823D02*
X231202369Y-128111163D01*
X226454113Y-223471651D02*
X229385668Y-209679769D01*
D11*
X192520589Y-118844803D02*
X139476285Y-118844803D01*
D10*
X219781349Y-168687124D02*
X216849794Y-182479005D01*
X345802451Y-212613486D02*
X359594333Y-209681931D01*
X245087813Y-227432451D02*
X248019368Y-213640569D01*
X410883485Y-181277303D02*
X410883485Y-167177303D01*
X341371451Y-155128486D02*
X355163333Y-152196931D01*
X247718526Y-231012561D02*
X247302703Y-232968856D01*
X364907087Y-203492012D02*
X351115206Y-206423567D01*
X444033485Y-167177303D02*
X444033485Y-181277303D01*
X337028747Y-233959062D02*
X336612923Y-232002766D01*
X163907535Y-219382303D02*
X172407535Y-219382303D01*
D11*
X236314043Y-123281006D02*
X234400626Y-123036847D01*
D10*
X460889785Y-240808503D02*
X460889785Y-226708503D01*
X429933485Y-167177303D02*
X444033485Y-167177303D01*
X391842285Y-238437303D02*
X391842285Y-224337303D01*
D11*
X255260495Y-127308199D02*
X236314043Y-123281006D01*
D10*
X272004857Y-135172867D02*
X270286500Y-149167768D01*
X175902585Y-138414803D02*
X175902585Y-124314803D01*
X460889785Y-124314803D02*
X474989785Y-124314803D01*
X179407535Y-221382303D02*
X179407535Y-206282303D01*
X455939785Y-240808503D02*
X441839785Y-240808503D01*
X327089433Y-177639831D02*
X330020987Y-191431712D01*
X453753485Y-181287303D02*
X453753485Y-167187303D01*
X268054602Y-250772470D02*
X259789255Y-249015616D01*
X424983485Y-167177303D02*
X424983485Y-181277303D01*
X364436151Y-208652686D02*
X378228033Y-205721131D01*
X275682549Y-180569324D02*
X272750994Y-194361205D01*
X334862806Y-190402567D02*
X331931251Y-176610686D01*
X197155085Y-224337303D02*
X197155085Y-238437303D01*
X366817351Y-188670986D02*
X380609233Y-185739431D01*
D11*
X477469751Y-221772928D02*
X480469751Y-221772928D01*
D10*
X163907535Y-219382303D02*
X155407535Y-219382303D01*
X361975533Y-189700131D02*
X364907087Y-203492012D01*
X228974849Y-151165724D02*
X226043294Y-164957605D01*
M02*
