%TF.GenerationSoftware,KiCad,Pcbnew,7.0.10*%
%TF.CreationDate,2024-04-03T00:19:03+02:00*%
%TF.ProjectId,plate,706c6174-652e-46b6-9963-61645f706362,rev?*%
%TF.SameCoordinates,Original*%
%TF.FileFunction,Profile,NP*%
%FSLAX46Y46*%
G04 Gerber Fmt 4.6, Leading zero omitted, Abs format (unit mm)*
G04 Created by KiCad (PCBNEW 7.0.10) date 2024-04-03 00:19:03*
%MOMM*%
%LPD*%
G01*
G04 APERTURE LIST*
%TA.AperFunction,Profile*%
%ADD10C,0.050000*%
%TD*%
%TA.AperFunction,Profile*%
%ADD11C,0.250000*%
%TD*%
G04 APERTURE END LIST*
D10*
X174498706Y-13329272D02*
X188493607Y-11610914D01*
X59432500Y-83432500D02*
X59432500Y-97532500D01*
X77305064Y-46842321D02*
X74373509Y-60634202D01*
D11*
X2953715Y-36700197D02*
X5953715Y-36700197D01*
D10*
X316032200Y-26282500D02*
X330132200Y-26282500D01*
X318413500Y-118963700D02*
X318413500Y-104863700D01*
D11*
X173200975Y-4804874D02*
X190050378Y-2547084D01*
D10*
X184692466Y-94729383D02*
X198484348Y-91797828D01*
X65344128Y-97666148D02*
X68275683Y-83874266D01*
X16765000Y-45342500D02*
X30865000Y-45342500D01*
X217263560Y-20230484D02*
X215301220Y-6267705D01*
X182273821Y-129139166D02*
X182065910Y-128161019D01*
D11*
X5953715Y-36700197D02*
X5953715Y-40090197D01*
D10*
X256501000Y-2470000D02*
X270601000Y-2470000D01*
D11*
X4473715Y-50700197D02*
X7473715Y-50700197D01*
D10*
X30863800Y-64392500D02*
X30863800Y-78492500D01*
X170821266Y-58726583D02*
X184613148Y-55795028D01*
X133807530Y-27900921D02*
X135036426Y-13854576D01*
X301557200Y-59432500D02*
X287457200Y-59432500D01*
X82146883Y-47871566D02*
X95938764Y-50803121D01*
X139468109Y-54994902D02*
X125676228Y-52063348D01*
X258882200Y-26282500D02*
X272982200Y-26282500D01*
X294413500Y-118963700D02*
X280313500Y-118963700D01*
D11*
X19500000Y6000018D02*
G75*
G03*
X18000000Y4500000I15J-1500015D01*
G01*
D10*
X114022209Y-88537402D02*
X100230328Y-85605848D01*
D11*
X2973715Y-26725197D02*
X5973715Y-26725197D01*
D10*
X270601000Y-2470000D02*
X270601000Y-16570000D01*
X198895166Y-33283683D02*
X212687048Y-30352128D01*
X239832200Y-38001200D02*
X239832200Y-23901200D01*
X299363500Y-85813700D02*
X313463500Y-85813700D01*
D11*
X294343466Y-127443750D02*
X277343466Y-127443750D01*
D10*
X299363500Y-2470000D02*
X313463500Y-2470000D01*
X221272818Y-106439755D02*
X235064700Y-103508200D01*
X175419648Y-38273628D02*
X178351202Y-52065509D01*
X144963600Y-107245000D02*
X159063600Y-107245000D01*
X249366000Y-116592500D02*
X249366000Y-102492500D01*
X68979876Y-103509757D02*
X82771758Y-106441312D01*
X74763305Y-4304020D02*
X88726084Y-6266360D01*
X237996254Y-117300082D02*
X224204373Y-120231636D01*
X65894483Y-63892566D02*
X79686364Y-66824121D01*
X31045000Y-26282500D02*
X45145000Y-26282500D01*
X170219717Y-27901775D02*
X156173372Y-29130671D01*
D11*
X203166747Y-129273202D02*
X203686527Y-131718571D01*
D10*
X31045000Y-40382500D02*
X31045000Y-26282500D01*
X83567009Y-43112802D02*
X69775128Y-40181248D01*
X176217064Y-27324172D02*
X174498706Y-13329272D01*
X197929421Y-24051464D02*
X194997866Y-10259583D01*
X239832200Y-23901200D02*
X253932200Y-23901200D01*
X125578317Y-128927667D02*
X117312970Y-127170813D01*
X171371521Y-92500264D02*
X168439966Y-78708383D01*
X116403409Y-108519202D02*
X102611528Y-105587648D01*
X91340383Y-30350066D02*
X105132264Y-33281621D01*
D11*
X5973715Y-26725197D02*
X5973715Y-30115197D01*
D10*
X198484348Y-91797828D02*
X201415902Y-105589709D01*
X215618602Y-44144009D02*
X201826721Y-47075564D01*
X204123138Y-123472610D02*
X195857791Y-125229464D01*
D11*
X5973715Y-30115197D02*
X2973715Y-30115197D01*
D10*
X14381250Y-83437500D02*
X28481250Y-83437500D01*
X117105058Y-128148961D02*
X103313177Y-125217406D01*
X330132200Y-26282500D02*
X330132200Y-40382500D01*
X187624021Y-108521264D02*
X184692466Y-94729383D01*
X30865000Y-59442500D02*
X16765000Y-59442500D01*
X88408828Y-44141948D02*
X91340383Y-30350066D01*
X287457200Y-59432500D02*
X287457200Y-45332500D01*
X212687048Y-30352128D02*
X215618602Y-44144009D01*
D11*
X-2000000Y2000000D02*
X-2000000Y-123443750D01*
D10*
X266026000Y-78482500D02*
X266026000Y-64382500D01*
D11*
X7473715Y-50700197D02*
X7473715Y-54090197D01*
D10*
X282507200Y-59432500D02*
X268407200Y-59432500D01*
X26095000Y-16570000D02*
X11995000Y-16570000D01*
X79686364Y-66824121D02*
X76754809Y-80616002D01*
X40578800Y-116592500D02*
X40578800Y-102492500D01*
X194552462Y-112114259D02*
X194136638Y-110157963D01*
D11*
X100350690Y-131718571D02*
X100870469Y-129273202D01*
X277343466Y6000000D02*
X294343466Y6000000D01*
D10*
X288537250Y-65387500D02*
X296987250Y-65387500D01*
X203797102Y-85607909D02*
X190005221Y-88539464D01*
X116953764Y-74745521D02*
X114022209Y-88537402D01*
D11*
X336993466Y2000000D02*
X295843466Y2000000D01*
X70984510Y619422D02*
X51930280Y1951824D01*
D10*
X154944476Y-15084326D02*
X168990821Y-13855430D01*
X236818348Y-17732638D02*
X235834782Y-3666985D01*
X69775128Y-40181248D02*
X72706683Y-26389366D01*
X192386521Y-68557764D02*
X189454966Y-54765883D01*
D11*
X111968881Y-6312433D02*
X93670229Y-2422934D01*
D10*
X286012200Y-42387500D02*
X279012200Y-42387500D01*
X277932200Y-16570000D02*
X277932200Y-2470000D01*
X117105058Y-128148961D02*
X117312970Y-127170813D01*
X28481250Y-83437500D02*
X28481250Y-84437500D01*
X258882200Y-40382500D02*
X258882200Y-26282500D01*
X263466000Y-116592500D02*
X249366000Y-116592500D01*
X183193021Y-51036264D02*
X180261466Y-37244383D01*
X86763744Y-20229140D02*
X72800964Y-18266799D01*
X263466000Y-102492500D02*
X263466000Y-116592500D01*
X98320064Y-70784821D02*
X95388509Y-84576702D01*
X224204373Y-120231636D02*
X221272818Y-106439755D01*
X68275683Y-83874266D02*
X82067564Y-86805821D01*
X311087250Y-64387500D02*
X311087250Y-65387500D01*
X312537250Y-80487500D02*
X312537250Y-78487500D01*
X111640909Y-68555702D02*
X97849028Y-65624148D01*
X168990821Y-13855430D02*
X170219717Y-27901775D01*
D11*
X38000000Y4500000D02*
X38000000Y2000000D01*
X18000000Y2000000D02*
X18000000Y4500000D01*
D10*
X159063600Y-107245000D02*
X159063600Y-121345000D01*
D11*
X-2000000Y-123443750D02*
X18000000Y-123443750D01*
D10*
X194136638Y-110157963D02*
X200983672Y-108702581D01*
X299363500Y-16570000D02*
X299363500Y-2470000D01*
X246976000Y-78482500D02*
X246976000Y-64382500D01*
X121795583Y-75774666D02*
X135587464Y-78706221D01*
X33426300Y-2470000D02*
X47526300Y-2470000D01*
X83977828Y-101626848D02*
X86909383Y-87834966D01*
D11*
X295843466Y-123443750D02*
X336993466Y-123443750D01*
D10*
X318413500Y-104863700D02*
X332513500Y-104863700D01*
D11*
X113986838Y-2547084D02*
X130836241Y-4804874D01*
X17999962Y-125943750D02*
G75*
G03*
X19500000Y-127443750I1500053J53D01*
G01*
X295843466Y4500000D02*
X295843466Y2000000D01*
D10*
X266026000Y-64382500D02*
X280126000Y-64382500D01*
D11*
X252106936Y1951824D02*
X233052706Y619422D01*
X118134558Y-137032134D02*
G75*
G03*
X119913641Y-135876805I311857J1467237D01*
G01*
D10*
X246976000Y-64382500D02*
X261076000Y-64382500D01*
X270601000Y-16570000D02*
X256501000Y-16570000D01*
D11*
X202531161Y-133497605D02*
G75*
G03*
X203686527Y-131718571I-311846J1467208D01*
G01*
D10*
X114572464Y-54763821D02*
X111640909Y-68555702D01*
X100701264Y-90766521D02*
X97769709Y-104558402D01*
X217528866Y-29322983D02*
X231320748Y-26391428D01*
X311277200Y-59442500D02*
X311277200Y-45342500D01*
X116482828Y-69584848D02*
X119414383Y-55792966D01*
X30866300Y-116592500D02*
X16766300Y-116592500D01*
D11*
X233052706Y619422D02*
X231160687Y475123D01*
D10*
X313463500Y-104863700D02*
X313463500Y-118963700D01*
D11*
X38000000Y-123443750D02*
X73445052Y-123443750D01*
D10*
X113815314Y-25604607D02*
X115533672Y-11609706D01*
X30865000Y-45342500D02*
X30865000Y-59442500D01*
X128717783Y-114157638D02*
X125578317Y-128927667D01*
D11*
X168931581Y-136550111D02*
X183603795Y-133431436D01*
D10*
X238132948Y-63894628D02*
X241064502Y-77686509D01*
X268407200Y-59432500D02*
X268407200Y-45332500D01*
X294512200Y-40387500D02*
X286012200Y-40387500D01*
D11*
X72876529Y475123D02*
X70984510Y619422D01*
D10*
X249366000Y-102492500D02*
X263466000Y-102492500D01*
X316032200Y-40382500D02*
X316032200Y-26282500D01*
X105242241Y-109167758D02*
X104826418Y-111124053D01*
X135037209Y-112479902D02*
X121245328Y-109548348D01*
X67208872Y-17731901D02*
X53143218Y-16748335D01*
X86909383Y-87834966D02*
X100701264Y-90766521D01*
D11*
X36500000Y-127443750D02*
X19500000Y-127443750D01*
X131791709Y-8968656D02*
X142018608Y-10339042D01*
D10*
X261076000Y-64382500D02*
X261076000Y-78482500D01*
D11*
X203166747Y-129273202D02*
X241795064Y-121062500D01*
D10*
X135587464Y-78706221D02*
X132655909Y-92498102D01*
X299363500Y-99913700D02*
X299363500Y-85813700D01*
X54678800Y-102492500D02*
X54678800Y-116592500D01*
X42951300Y-64382500D02*
X57051300Y-64382500D01*
X82771758Y-106441312D02*
X79840203Y-120233193D01*
X243445802Y-57704809D02*
X229653921Y-60636364D01*
X54670000Y-45332500D02*
X54670000Y-59432500D01*
D11*
X241795064Y-121062500D02*
X275843466Y-121062500D01*
D10*
X11995000Y-40382500D02*
X11995000Y-26282500D01*
D11*
X50031620Y2000000D02*
X38000000Y2000000D01*
D10*
X280313500Y-118963700D02*
X280313500Y-104863700D01*
X288537250Y-80487500D02*
X288537250Y-65387500D01*
D11*
X132123736Y-6490803D02*
X131791709Y-8968656D01*
D10*
X238683302Y-97668209D02*
X224891421Y-100599764D01*
X121454927Y-114658552D02*
X121870750Y-112702256D01*
X189454966Y-54765883D02*
X203246848Y-51834328D01*
X279012200Y-27287500D02*
X287462200Y-27287500D01*
X26095000Y-40382500D02*
X11995000Y-40382500D01*
X249900435Y-2683418D02*
X250884001Y-16749072D01*
X82067564Y-86805821D02*
X79136009Y-100597702D01*
X100780583Y-51832266D02*
X114572464Y-54763821D01*
X113140672Y-112891302D02*
X121454927Y-114658552D01*
D11*
X295843466Y-123443750D02*
X295843466Y-125943750D01*
D10*
X40570000Y-45332500D02*
X54670000Y-45332500D01*
X208088666Y-50805183D02*
X221880548Y-47873628D01*
X29931250Y-99537500D02*
X29931250Y-97537500D01*
X286012200Y-40387500D02*
X286012200Y-42387500D01*
X211020221Y-64597064D02*
X208088666Y-50805183D01*
D11*
X191736307Y-3834580D02*
X192068335Y-6312433D01*
D10*
X203246848Y-51834328D02*
X206178402Y-65626209D01*
X287457200Y-45332500D02*
X301557200Y-45332500D01*
X332513500Y-104863700D02*
X332513500Y-118963700D01*
X102611528Y-105587648D02*
X105543083Y-91795766D01*
X5931250Y-99537500D02*
X5931250Y-84437500D01*
X147853875Y-29129817D02*
X133807530Y-27900921D01*
X118864028Y-89566548D02*
X121795583Y-75774666D01*
X224341066Y-66826183D02*
X238132948Y-63894628D01*
X231320748Y-26391428D02*
X234252302Y-40183309D01*
X93007209Y-64595002D02*
X79215328Y-61663448D01*
X125676228Y-52063348D02*
X128607783Y-38271466D01*
X292032200Y-2470000D02*
X292032200Y-16570000D01*
D11*
X19500000Y6000000D02*
X36500000Y6000000D01*
D10*
X263457200Y-59432500D02*
X249357200Y-59432500D01*
X294413500Y-104863700D02*
X294413500Y-118963700D01*
X137968764Y-98688021D02*
X135037209Y-112479902D01*
X184613148Y-55795028D02*
X187544702Y-69586909D01*
D11*
X184123567Y-135876807D02*
G75*
G03*
X185902663Y-137032158I1467248J311910D01*
G01*
D10*
X190005221Y-88539464D02*
X187073666Y-74747583D01*
X26095000Y-26282500D02*
X26095000Y-40382500D01*
X135036426Y-13854576D02*
X149082771Y-15083472D01*
X203326166Y-90768683D02*
X217118048Y-87837128D01*
X103161883Y-71813966D02*
X116953764Y-74745521D01*
X287462200Y-26287500D02*
X301562200Y-26287500D01*
X253932200Y-38001200D02*
X239832200Y-38001200D01*
X88726084Y-6266360D02*
X86763744Y-20229140D01*
X187073666Y-74747583D02*
X200865548Y-71816028D01*
X249357200Y-45332500D02*
X263457200Y-45332500D01*
X219499248Y-67855328D02*
X222430802Y-81647209D01*
X287462200Y-26287500D02*
X287462200Y-27287500D01*
D11*
X184123575Y-135876805D02*
X183603795Y-133431436D01*
D10*
X128607783Y-38271466D02*
X142399664Y-41203021D01*
X119414383Y-55792966D02*
X133206264Y-58724521D01*
D11*
X132123741Y-6490804D02*
G75*
G03*
X130836241Y-4804874I-1486726J199207D01*
G01*
D10*
X217118048Y-87837128D02*
X220049602Y-101629009D01*
X53143218Y-16748335D02*
X54126785Y-2682682D01*
D11*
X275843466Y2000000D02*
X275843466Y4500000D01*
D10*
X64195000Y-23901200D02*
X64195000Y-38001200D01*
X159063600Y-88195000D02*
X159063600Y-102295000D01*
X258694700Y-97532500D02*
X244594700Y-97532500D01*
X301562200Y-27287500D02*
X310012200Y-27287500D01*
X161627766Y-41205183D02*
X175419648Y-38273628D01*
D11*
X120433421Y-133431436D02*
X119913642Y-135876805D01*
D10*
X256501000Y-16570000D02*
X256501000Y-2470000D01*
X186238207Y-113881508D02*
X194552462Y-112114259D01*
D11*
X73445052Y-123443750D02*
X100870469Y-129273202D01*
D10*
X159063600Y-102295000D02*
X144963600Y-102295000D01*
X318413500Y-2470000D02*
X332513500Y-2470000D01*
X296987250Y-64387500D02*
X296987250Y-65387500D01*
X270794700Y-97542500D02*
X270794700Y-83442500D01*
X296987250Y-64387500D02*
X311087250Y-64387500D01*
X186238207Y-113881508D02*
X177923953Y-115648757D01*
X313463500Y-118963700D02*
X299363500Y-118963700D01*
X62962928Y-77684448D02*
X65894483Y-63892566D01*
D11*
X162018608Y-10339042D02*
X172245508Y-8968656D01*
D10*
X211721302Y-21119909D02*
X197929421Y-24051464D01*
D11*
X336993466Y-123443750D02*
X336993466Y2000000D01*
D10*
X130274709Y-72516402D02*
X116482828Y-69584848D01*
X21431250Y-97537500D02*
X12931250Y-97537500D01*
X277932200Y-2470000D02*
X292032200Y-2470000D01*
X95388509Y-84576702D02*
X81596628Y-81645148D01*
X121870750Y-112702256D02*
X128717783Y-114157638D01*
D11*
X120433421Y-133431436D02*
X135105635Y-136550111D01*
D10*
X50095000Y-38001200D02*
X50095000Y-23901200D01*
X59432500Y-97532500D02*
X45332500Y-97532500D01*
X92306128Y-21117848D02*
X95237683Y-7325966D01*
X164559321Y-54997064D02*
X161627766Y-41205183D01*
X244594700Y-97532500D02*
X244594700Y-83432500D01*
X47526300Y-16570000D02*
X33426300Y-16570000D01*
X166058766Y-98690083D02*
X179850648Y-95758528D01*
X84528183Y-67853266D02*
X98320064Y-70784821D01*
X200983672Y-108702581D02*
X204123138Y-123472610D01*
X115533672Y-11609706D02*
X129528572Y-13328064D01*
D11*
X93670229Y-2422934D02*
X91791461Y-2183197D01*
D10*
X95237683Y-7325966D02*
X109029564Y-10257521D01*
X45145000Y-26282500D02*
X45145000Y-40382500D01*
X29931250Y-99537500D02*
X36931250Y-99537500D01*
X72706683Y-26389366D02*
X86498564Y-29320921D01*
X208638921Y-84578764D02*
X205707366Y-70786883D01*
D11*
X231160687Y475123D02*
X212245756Y-2183197D01*
D10*
X107042528Y-48102648D02*
X109974083Y-34310766D01*
X295537250Y-80487500D02*
X288537250Y-80487500D01*
D11*
X277343466Y6000052D02*
G75*
G03*
X275843466Y4500000I49J-1500049D01*
G01*
D10*
X188493607Y-11610914D02*
X190211965Y-25605815D01*
D11*
X275843466Y-121062500D02*
X275843466Y-123443750D01*
D10*
X47526300Y-2470000D02*
X47526300Y-16570000D01*
D11*
X36500000Y-127443682D02*
G75*
G03*
X38000000Y-125943750I15J1499985D01*
G01*
X2973715Y-30115197D02*
X2973715Y-26725196D01*
D10*
X304037250Y-78487500D02*
X312537250Y-78487500D01*
D11*
X5953715Y-40090197D02*
X2953715Y-40090197D01*
D10*
X303012200Y-42387500D02*
X310012200Y-42387500D01*
X97849028Y-65624148D02*
X100780583Y-51832266D01*
X313463500Y-85813700D02*
X313463500Y-99913700D01*
X98395208Y-107712376D02*
X95255741Y-122482405D01*
X33426300Y-16570000D02*
X33426300Y-2470000D01*
X76754809Y-80616002D02*
X62962928Y-77684448D01*
D11*
X7473715Y-54090197D02*
X4473715Y-54090197D01*
D10*
X284894700Y-97542500D02*
X270794700Y-97542500D01*
X224891421Y-100599764D02*
X221959866Y-86807883D01*
D11*
X135105635Y-136550111D02*
X168931581Y-136550111D01*
X275843462Y-125943750D02*
G75*
G03*
X277343466Y-127443750I1500053J53D01*
G01*
D10*
X28481250Y-84437500D02*
X36931250Y-84437500D01*
X30866300Y-102492500D02*
X30866300Y-116592500D01*
X170661096Y-115147844D02*
X173800563Y-129917873D01*
X113140672Y-112891302D02*
X104826418Y-111124053D01*
X123765964Y-37242321D02*
X120834409Y-51034202D01*
X284894700Y-83442500D02*
X284894700Y-97542500D01*
X280126000Y-78482500D02*
X266026000Y-78482500D01*
X312537250Y-80487500D02*
X319537250Y-80487500D01*
X100230328Y-85605848D02*
X103161883Y-71813966D01*
D11*
X51930280Y1951824D02*
X50031620Y2000000D01*
D10*
X201415902Y-105589709D02*
X187624021Y-108521264D01*
X63513183Y-43910766D02*
X77305064Y-46842321D01*
X301562200Y-26287500D02*
X301562200Y-27287500D01*
X16766300Y-116592500D02*
X16766300Y-102492500D01*
X168439966Y-78708383D02*
X182231848Y-75776828D01*
X295537250Y-78487500D02*
X295537250Y-80487500D01*
X221880548Y-47873628D02*
X224812102Y-61665509D01*
X190211965Y-25605815D02*
X176217064Y-27324172D01*
X325377200Y-59442500D02*
X311277200Y-59442500D01*
D11*
X254005597Y2000000D02*
X252106936Y1951824D01*
D10*
X294512200Y-40387500D02*
X303012200Y-40387500D01*
X54126785Y-2682682D02*
X68192438Y-3666248D01*
X332513500Y-16570000D02*
X318413500Y-16570000D01*
X280313500Y-104863700D02*
X294413500Y-104863700D01*
D11*
X275843466Y2000000D02*
X254005597Y2000000D01*
D10*
X241064502Y-77686509D02*
X227272621Y-80618064D01*
D11*
X210366988Y-2422934D02*
X192068335Y-6312433D01*
D10*
X177508129Y-113692462D02*
X170661096Y-115147844D01*
X11995000Y-2470000D02*
X26095000Y-2470000D01*
X66048322Y-117301638D02*
X68979876Y-103509757D01*
X229653921Y-60636364D02*
X226722366Y-46844483D01*
X149082771Y-15083472D02*
X147853875Y-29129817D01*
X16763800Y-64392500D02*
X30863800Y-64392500D01*
X196065703Y-126207612D02*
X182273821Y-129139166D01*
X303012200Y-42387500D02*
X303012200Y-40387500D01*
X206257721Y-104560564D02*
X203326166Y-90768683D01*
X106098009Y-24049402D02*
X92306128Y-21117848D01*
X21431250Y-97537500D02*
X29931250Y-97537500D01*
X105242241Y-109167758D02*
X98395208Y-107712376D01*
X5931250Y-84437500D02*
X14381250Y-84437500D01*
X36931250Y-99537500D02*
X36931250Y-84437500D01*
X301557200Y-45332500D02*
X301557200Y-59432500D01*
X206178402Y-65626209D02*
X192386521Y-68557764D01*
X109974083Y-34310766D02*
X123765964Y-37242321D01*
X311087250Y-65387500D02*
X319537250Y-65387500D01*
X272982200Y-40382500D02*
X258882200Y-40382500D01*
D11*
X118134553Y-137032159D02*
X101506044Y-133497660D01*
X38000000Y-123443750D02*
X38000000Y-125943750D01*
D10*
X54670000Y-59432500D02*
X40570000Y-59432500D01*
X187544702Y-69586909D02*
X173752821Y-72518464D01*
X235751748Y-83876328D02*
X238683302Y-97668209D01*
X299363500Y-118963700D02*
X299363500Y-104863700D01*
X226722366Y-46844483D02*
X240514248Y-43912928D01*
X299363500Y-104863700D02*
X313463500Y-104863700D01*
X97769709Y-104558402D02*
X83977828Y-101626848D01*
X144963600Y-102295000D02*
X144963600Y-88195000D01*
X16766300Y-102492500D02*
X30866300Y-102492500D01*
X124176883Y-95756466D02*
X137968764Y-98688021D01*
X325377200Y-45342500D02*
X325377200Y-59442500D01*
X173752821Y-72518464D02*
X170821266Y-58726583D01*
X156173372Y-29130671D02*
X154944476Y-15084326D01*
D11*
X18000000Y-125943750D02*
X18000000Y-123443750D01*
D10*
X304037250Y-78487500D02*
X295537250Y-78487500D01*
D11*
X295843512Y4500000D02*
G75*
G03*
X294343466Y6000000I-1499997J3D01*
G01*
D10*
X313463500Y-2470000D02*
X313463500Y-16570000D01*
X179850648Y-95758528D02*
X182782202Y-109550409D01*
X185163402Y-89568709D02*
X171371521Y-92500264D01*
X133206264Y-58724521D02*
X130274709Y-72516402D01*
X79840203Y-120233193D02*
X66048322Y-117301638D01*
X231226340Y-18268144D02*
X217263560Y-20230484D01*
X132655909Y-92498102D02*
X118864028Y-89566548D01*
X26095000Y-2470000D02*
X26095000Y-16570000D01*
X311277200Y-45342500D02*
X325377200Y-45342500D01*
X50095000Y-23901200D02*
X64195000Y-23901200D01*
X45332500Y-83432500D02*
X59432500Y-83432500D01*
X45145000Y-40382500D02*
X31045000Y-40382500D01*
X235064700Y-103508200D02*
X237996254Y-117300082D01*
X201826721Y-47075564D02*
X198895166Y-33283683D01*
X182782202Y-109550409D02*
X168990321Y-112481964D01*
X220460421Y-43114864D02*
X217528866Y-29322983D01*
X332513500Y-2470000D02*
X332513500Y-16570000D01*
D11*
X2953715Y-40090197D02*
X2953715Y-36700197D01*
D10*
X196065703Y-126207612D02*
X195857791Y-125229464D01*
X270794700Y-83442500D02*
X284894700Y-83442500D01*
X40578800Y-102492500D02*
X54678800Y-102492500D01*
X282507200Y-45332500D02*
X282507200Y-59432500D01*
X222430802Y-81647209D02*
X208638921Y-84578764D01*
X220049602Y-101629009D02*
X206257721Y-104560564D01*
X121245328Y-109548348D02*
X124176883Y-95756466D01*
X313463500Y-99913700D02*
X299363500Y-99913700D01*
X60581628Y-57702648D02*
X63513183Y-43910766D01*
X279012200Y-42387500D02*
X279012200Y-27287500D01*
X127810215Y-27322965D02*
X113815314Y-25604607D01*
D11*
X202531173Y-133497660D02*
X185902663Y-137032159D01*
D10*
X180261466Y-37244383D02*
X194053348Y-34312828D01*
D11*
X275843466Y-125943750D02*
X275843466Y-123443750D01*
X91791461Y-2183197D02*
X72876529Y475123D01*
D10*
X234252302Y-40183309D02*
X220460421Y-43114864D01*
X235834782Y-3666985D02*
X249900435Y-2683418D01*
D11*
X212245756Y-2183197D02*
X210366988Y-2422934D01*
D10*
X182065910Y-128161019D02*
X173800563Y-129917873D01*
X74373509Y-60634202D02*
X60581628Y-57702648D01*
X16765000Y-59442500D02*
X16765000Y-45342500D01*
X129528572Y-13328064D02*
X127810215Y-27322965D01*
D11*
X172245508Y-8968656D02*
X171913480Y-6490803D01*
X162018608Y-10339042D02*
X142018608Y-10339042D01*
D10*
X142399664Y-41203021D02*
X139468109Y-54994902D01*
X86498564Y-29320921D02*
X83567009Y-43112802D01*
X258694700Y-83432500D02*
X258694700Y-97532500D01*
X250884001Y-16749072D02*
X236818348Y-17732638D01*
D11*
X111968881Y-6312433D02*
X112300909Y-3834580D01*
D10*
X105543083Y-91795766D02*
X119334964Y-94727321D01*
X244594700Y-83432500D02*
X258694700Y-83432500D01*
X194997866Y-10259583D02*
X208789748Y-7328028D01*
X14381250Y-83437500D02*
X14381250Y-84437500D01*
X119334964Y-94727321D02*
X116403409Y-108519202D01*
X253932200Y-23901200D02*
X253932200Y-38001200D01*
X11995000Y-26282500D02*
X26095000Y-26282500D01*
D11*
X294343466Y-127443748D02*
G75*
G03*
X295843466Y-125943750I-51J1500051D01*
G01*
D10*
X144963600Y-88195000D02*
X159063600Y-88195000D01*
X102200709Y-47073502D02*
X88408828Y-44141948D01*
X196984902Y-48104709D02*
X183193021Y-51036264D01*
X168990321Y-112481964D02*
X166058766Y-98690083D01*
X249357200Y-59432500D02*
X249357200Y-45332500D01*
X224812102Y-61665509D02*
X211020221Y-64597064D01*
X318413500Y-16570000D02*
X318413500Y-2470000D01*
D11*
X173200974Y-4804867D02*
G75*
G03*
X171913480Y-6490803I199241J-1486730D01*
G01*
D10*
X240514248Y-43912928D02*
X243445802Y-57704809D01*
X79215328Y-61663448D02*
X82146883Y-47871566D01*
X42951300Y-78482500D02*
X42951300Y-64382500D01*
D11*
X191736330Y-3834577D02*
G75*
G03*
X190050378Y-2547085I-1486715J-199220D01*
G01*
D10*
X332513500Y-118963700D02*
X318413500Y-118963700D01*
X215301220Y-6267705D02*
X229263999Y-4305364D01*
X208789748Y-7328028D02*
X211721302Y-21119909D01*
X330132200Y-40382500D02*
X316032200Y-40382500D01*
X263457200Y-45332500D02*
X263457200Y-59432500D01*
X313463500Y-16570000D02*
X299363500Y-16570000D01*
D11*
X4473715Y-54090197D02*
X4473715Y-50700197D01*
X18000000Y2000000D02*
X-2000000Y2000000D01*
D10*
X81596628Y-81645148D02*
X84528183Y-67853266D01*
X194053348Y-34312828D02*
X196984902Y-48104709D01*
X40570000Y-59432500D02*
X40570000Y-45332500D01*
X72800964Y-18266799D02*
X74763305Y-4304020D01*
X178351202Y-52065509D02*
X164559321Y-54997064D01*
D11*
X38000012Y4500000D02*
G75*
G03*
X36500000Y6000000I-1499997J3D01*
G01*
D10*
X292032200Y-16570000D02*
X277932200Y-16570000D01*
X229263999Y-4305364D02*
X231226340Y-18268144D01*
X68192438Y-3666248D02*
X67208872Y-17731901D01*
X144963600Y-121345000D02*
X144963600Y-107245000D01*
X54678800Y-116592500D02*
X40578800Y-116592500D01*
X11995000Y-16570000D02*
X11995000Y-2470000D01*
X12931250Y-97537500D02*
X12931250Y-99537500D01*
X109029564Y-10257521D02*
X106098009Y-24049402D01*
X261076000Y-78482500D02*
X246976000Y-78482500D01*
X272982200Y-26282500D02*
X272982200Y-40382500D01*
X310012200Y-42387500D02*
X310012200Y-27287500D01*
X200865548Y-71816028D02*
X203797102Y-85607909D01*
X205707366Y-70786883D02*
X219499248Y-67855328D01*
X95938764Y-50803121D02*
X93007209Y-64595002D01*
X182231848Y-75776828D02*
X185163402Y-89568709D01*
X221959866Y-86807883D02*
X235751748Y-83876328D01*
X57051300Y-64382500D02*
X57051300Y-78482500D01*
X280126000Y-64382500D02*
X280126000Y-78482500D01*
X105132264Y-33281621D02*
X102200709Y-47073502D01*
D11*
X100350645Y-131718561D02*
G75*
G03*
X101506044Y-133497660I1467270J-311836D01*
G01*
D10*
X159063600Y-121345000D02*
X144963600Y-121345000D01*
X120834409Y-51034202D02*
X107042528Y-48102648D01*
X103521089Y-124239258D02*
X95255741Y-122482405D01*
X79136009Y-100597702D02*
X65344128Y-97666148D01*
X268407200Y-45332500D02*
X282507200Y-45332500D01*
X12931250Y-99537500D02*
X5931250Y-99537500D01*
X64195000Y-38001200D02*
X50095000Y-38001200D01*
X45332500Y-97532500D02*
X45332500Y-83432500D01*
X227272621Y-80618064D02*
X224341066Y-66826183D01*
X30863800Y-78492500D02*
X16763800Y-78492500D01*
X16763800Y-78492500D02*
X16763800Y-64392500D01*
X103313177Y-125217406D02*
X103521089Y-124239258D01*
X177508129Y-113692462D02*
X177923953Y-115648757D01*
X57051300Y-78482500D02*
X42951300Y-78482500D01*
D11*
X113986837Y-2547092D02*
G75*
G03*
X112300909Y-3834580I-199222J-1486705D01*
G01*
D10*
X319537250Y-80487500D02*
X319537250Y-65387500D01*
M02*
