%TF.GenerationSoftware,KiCad,Pcbnew,7.0.10*%
%TF.CreationDate,2024-01-30T23:28:45+01:00*%
%TF.ProjectId,plate,706c6174-652e-46b6-9963-61645f706362,rev?*%
%TF.SameCoordinates,Original*%
%TF.FileFunction,Copper,L2,Bot*%
%TF.FilePolarity,Positive*%
%FSLAX46Y46*%
G04 Gerber Fmt 4.6, Leading zero omitted, Abs format (unit mm)*
G04 Created by KiCad (PCBNEW 7.0.10) date 2024-01-30 23:28:45*
%MOMM*%
%LPD*%
G01*
G04 APERTURE LIST*
%TA.AperFunction,ComponentPad*%
%ADD10C,3.800000*%
%TD*%
G04 APERTURE END LIST*
D10*
%TO.P,MountTopMiddle6,1*%
%TO.N,N/C*%
X470866285Y-186384803D03*
%TD*%
%TO.P,MountTopMiddle4,1*%
%TO.N,N/C*%
X384676285Y-224324803D03*
%TD*%
%TO.P,MountTopMiddle1,1*%
%TO.N,N/C*%
X172256285Y-143174803D03*
%TD*%
%TO.P,MountTopMiddle3,1*%
%TO.N,N/C*%
X294475000Y-181015000D03*
%TD*%
%TO.P,MountTopMiddle5,1*%
%TO.N,N/C*%
X416676285Y-143254803D03*
%TD*%
%TO.P,MountTopMiddle2,1*%
%TO.N,N/C*%
X204266285Y-224354803D03*
%TD*%
%TA.AperFunction,Conductor*%
%TO.N,+3V3*%
G36*
X192522171Y-118845343D02*
G01*
X194451397Y-118894293D01*
X194456816Y-118894550D01*
X213533479Y-120228522D01*
X213533933Y-120228555D01*
X215456590Y-120375191D01*
X215464358Y-120376032D01*
X233715327Y-122941039D01*
X234391227Y-123036031D01*
X234393432Y-123036511D01*
X234398821Y-123037138D01*
X234402163Y-123037572D01*
X234416643Y-123039654D01*
X234418448Y-123039624D01*
X236308884Y-123280852D01*
X236308900Y-123280854D01*
X236318985Y-123282567D01*
X255252456Y-127307001D01*
X255267987Y-127311377D01*
X256540132Y-127761149D01*
X256542687Y-127762306D01*
X256548055Y-127764029D01*
X256550175Y-127764757D01*
X256552262Y-127765028D01*
X256558719Y-127765988D01*
X256561268Y-127766072D01*
X274945973Y-130023429D01*
X274950759Y-130024204D01*
X274955568Y-130024028D01*
X275392927Y-130024028D01*
X275403749Y-130024500D01*
X288975639Y-131213617D01*
X288982730Y-131215361D01*
X288994889Y-131215342D01*
X288994893Y-131215344D01*
X288994896Y-131215342D01*
X288995270Y-131215342D01*
X288995398Y-131215225D01*
X288996497Y-131203080D01*
X288995393Y-131195829D01*
X288995393Y-129603669D01*
X289015078Y-129536630D01*
X289067882Y-129490875D01*
X289119393Y-129479669D01*
X299870393Y-129479669D01*
X299937432Y-129499354D01*
X299983187Y-129552158D01*
X299994393Y-129603669D01*
X299994393Y-131195829D01*
X299993306Y-131202959D01*
X299994397Y-131215344D01*
X299994891Y-131215343D01*
X299994893Y-131215344D01*
X299994894Y-131215343D01*
X300007345Y-131215330D01*
X300014330Y-131213601D01*
X313586037Y-130024500D01*
X313596860Y-130024028D01*
X314034219Y-130024028D01*
X314039172Y-130024209D01*
X314044173Y-130023385D01*
X329606401Y-128112584D01*
X357776968Y-128112584D01*
X357780374Y-128136808D01*
X357780441Y-128137002D01*
X359735935Y-142051063D01*
X359735917Y-142051394D01*
X359739308Y-142075362D01*
X359739518Y-142075719D01*
X359739519Y-142075720D01*
X359739750Y-142075779D01*
X359739920Y-142075823D01*
X359739922Y-142075821D01*
X359752739Y-142073979D01*
X373686215Y-140115757D01*
X373702697Y-140113481D01*
X373702700Y-140113482D01*
X373703058Y-140113273D01*
X373703134Y-140112975D01*
X373703161Y-140112872D01*
X373703160Y-140112871D01*
X373703161Y-140112871D01*
X373699760Y-140088535D01*
X373699657Y-140088241D01*
X373627944Y-139577980D01*
X371742192Y-126160157D01*
X371742133Y-126159729D01*
X371740819Y-126150095D01*
X371740818Y-126150094D01*
X371740819Y-126150092D01*
X371740672Y-126149841D01*
X371740610Y-126149734D01*
X371740609Y-126149733D01*
X371740210Y-126149631D01*
X371740209Y-126149631D01*
X371740208Y-126149631D01*
X371716557Y-126152899D01*
X371716089Y-126153061D01*
X357801871Y-128108578D01*
X357801688Y-128108568D01*
X357777430Y-128111971D01*
X357777072Y-128112182D01*
X357777071Y-128112182D01*
X357776968Y-128112584D01*
X329606401Y-128112584D01*
X332428572Y-127766065D01*
X332431451Y-127765968D01*
X332437063Y-127765108D01*
X332439597Y-127764775D01*
X332442023Y-127763928D01*
X332447786Y-127762058D01*
X332450162Y-127760969D01*
X333721801Y-127311375D01*
X333737324Y-127307001D01*
X342182960Y-125511826D01*
X378310526Y-125511826D01*
X378312194Y-125536008D01*
X378312280Y-125536326D01*
X379292424Y-139553030D01*
X379292357Y-139553564D01*
X379294100Y-139577584D01*
X379294101Y-139577590D01*
X379294139Y-139577572D01*
X379294277Y-139577849D01*
X379294278Y-139577850D01*
X379294671Y-139577981D01*
X379294673Y-139577979D01*
X379307070Y-139577073D01*
X379307241Y-139577060D01*
X393342321Y-138595631D01*
X393360321Y-138594414D01*
X393360324Y-138594415D01*
X393360695Y-138594230D01*
X393360792Y-138593939D01*
X393360826Y-138593837D01*
X393360826Y-138593836D01*
X393359078Y-138569234D01*
X393359098Y-138569232D01*
X393359052Y-138569062D01*
X393346579Y-138390692D01*
X398976701Y-138390692D01*
X398976744Y-138414803D01*
X398976785Y-138414902D01*
X398976902Y-138415186D01*
X398976903Y-138415187D01*
X398977093Y-138415265D01*
X398977285Y-138415344D01*
X398977287Y-138415342D01*
X399001901Y-138415327D01*
X399001901Y-138415331D01*
X399002045Y-138415303D01*
X413052525Y-138415303D01*
X413052668Y-138415331D01*
X413052669Y-138415327D01*
X413077282Y-138415342D01*
X413077285Y-138415344D01*
X413077668Y-138415186D01*
X413077785Y-138414902D01*
X413077826Y-138414803D01*
X413077825Y-138414800D01*
X413077868Y-138390692D01*
X420407901Y-138390692D01*
X420407944Y-138414803D01*
X420407985Y-138414902D01*
X420408102Y-138415186D01*
X420408103Y-138415187D01*
X420408293Y-138415265D01*
X420408485Y-138415344D01*
X420408487Y-138415342D01*
X420433101Y-138415327D01*
X420433101Y-138415331D01*
X420433245Y-138415303D01*
X434483725Y-138415303D01*
X434483868Y-138415331D01*
X434483869Y-138415327D01*
X434508482Y-138415342D01*
X434508485Y-138415344D01*
X434508868Y-138415186D01*
X434508985Y-138414902D01*
X434509026Y-138414803D01*
X434509025Y-138414800D01*
X434509068Y-138390692D01*
X441839201Y-138390692D01*
X441839244Y-138414803D01*
X441839285Y-138414902D01*
X441839402Y-138415186D01*
X441839403Y-138415187D01*
X441839593Y-138415265D01*
X441839785Y-138415344D01*
X441839787Y-138415342D01*
X441864401Y-138415327D01*
X441864401Y-138415331D01*
X441864545Y-138415303D01*
X455915025Y-138415303D01*
X455915168Y-138415331D01*
X455915169Y-138415327D01*
X455939782Y-138415342D01*
X455939785Y-138415344D01*
X455940168Y-138415186D01*
X455940285Y-138414902D01*
X455940326Y-138414803D01*
X455940325Y-138414800D01*
X455940368Y-138390692D01*
X460889201Y-138390692D01*
X460889244Y-138414803D01*
X460889285Y-138414902D01*
X460889402Y-138415186D01*
X460889403Y-138415187D01*
X460889593Y-138415265D01*
X460889785Y-138415344D01*
X460889787Y-138415342D01*
X460914401Y-138415327D01*
X460914401Y-138415331D01*
X460914545Y-138415303D01*
X474965025Y-138415303D01*
X474965168Y-138415331D01*
X474965169Y-138415327D01*
X474989782Y-138415342D01*
X474989785Y-138415344D01*
X474990168Y-138415186D01*
X474990285Y-138414902D01*
X474990326Y-138414803D01*
X474990325Y-138414800D01*
X474990368Y-138390692D01*
X474990285Y-138390270D01*
X474990285Y-124339562D01*
X474990313Y-124339419D01*
X474990309Y-124339419D01*
X474990324Y-124314805D01*
X474990326Y-124314803D01*
X474990247Y-124314611D01*
X474990169Y-124314421D01*
X474990165Y-124314417D01*
X474989979Y-124314341D01*
X474989787Y-124314262D01*
X474965231Y-124314262D01*
X474965025Y-124314303D01*
X460914545Y-124314303D01*
X460914339Y-124314262D01*
X460889783Y-124314262D01*
X460889592Y-124314341D01*
X460889404Y-124314418D01*
X460889400Y-124314421D01*
X460889244Y-124314802D01*
X460889261Y-124339419D01*
X460889256Y-124339419D01*
X460889285Y-124339562D01*
X460889285Y-138390270D01*
X460889201Y-138390692D01*
X455940368Y-138390692D01*
X455940285Y-138390270D01*
X455940285Y-124339562D01*
X455940313Y-124339419D01*
X455940309Y-124339419D01*
X455940324Y-124314805D01*
X455940326Y-124314803D01*
X455940247Y-124314611D01*
X455940169Y-124314421D01*
X455940165Y-124314417D01*
X455939979Y-124314341D01*
X455939787Y-124314262D01*
X455915231Y-124314262D01*
X455915025Y-124314303D01*
X441864545Y-124314303D01*
X441864339Y-124314262D01*
X441839783Y-124314262D01*
X441839592Y-124314341D01*
X441839404Y-124314418D01*
X441839400Y-124314421D01*
X441839244Y-124314802D01*
X441839261Y-124339419D01*
X441839256Y-124339419D01*
X441839285Y-124339562D01*
X441839285Y-138390270D01*
X441839201Y-138390692D01*
X434509068Y-138390692D01*
X434508985Y-138390270D01*
X434508985Y-124339562D01*
X434509013Y-124339419D01*
X434509009Y-124339419D01*
X434509024Y-124314805D01*
X434509026Y-124314803D01*
X434508947Y-124314611D01*
X434508869Y-124314421D01*
X434508865Y-124314417D01*
X434508679Y-124314341D01*
X434508487Y-124314262D01*
X434483931Y-124314262D01*
X434483725Y-124314303D01*
X420433245Y-124314303D01*
X420433039Y-124314262D01*
X420408483Y-124314262D01*
X420408292Y-124314341D01*
X420408104Y-124314418D01*
X420408100Y-124314421D01*
X420407944Y-124314802D01*
X420407961Y-124339419D01*
X420407956Y-124339419D01*
X420407985Y-124339562D01*
X420407985Y-138390270D01*
X420407901Y-138390692D01*
X413077868Y-138390692D01*
X413077785Y-138390270D01*
X413077785Y-124339562D01*
X413077813Y-124339419D01*
X413077809Y-124339419D01*
X413077824Y-124314805D01*
X413077826Y-124314803D01*
X413077747Y-124314611D01*
X413077669Y-124314421D01*
X413077665Y-124314417D01*
X413077479Y-124314341D01*
X413077287Y-124314262D01*
X413052731Y-124314262D01*
X413052525Y-124314303D01*
X399002045Y-124314303D01*
X399001839Y-124314262D01*
X398977283Y-124314262D01*
X398977092Y-124314341D01*
X398976904Y-124314418D01*
X398976900Y-124314421D01*
X398976744Y-124314802D01*
X398976761Y-124339419D01*
X398976756Y-124339419D01*
X398976785Y-124339562D01*
X398976785Y-138390270D01*
X398976701Y-138390692D01*
X393346579Y-138390692D01*
X393246107Y-136953876D01*
X392377989Y-124539218D01*
X392377970Y-124538929D01*
X392377259Y-124528185D01*
X392377260Y-124528183D01*
X392377075Y-124527812D01*
X392377073Y-124527811D01*
X392376784Y-124527715D01*
X392376784Y-124527714D01*
X392376683Y-124527681D01*
X392376682Y-124527681D01*
X392376681Y-124527681D01*
X392353011Y-124529264D01*
X392352446Y-124529416D01*
X378335664Y-125509566D01*
X378335312Y-125509521D01*
X378311029Y-125511247D01*
X378310936Y-125511294D01*
X378310658Y-125511432D01*
X378310657Y-125511433D01*
X378310526Y-125511826D01*
X342182960Y-125511826D01*
X352670815Y-123282564D01*
X352680891Y-123280852D01*
X354574064Y-123039275D01*
X354576245Y-123039264D01*
X354586894Y-123037687D01*
X354591623Y-123037079D01*
X354605242Y-123035593D01*
X354608344Y-123034655D01*
X373525430Y-120376032D01*
X373533191Y-120375191D01*
X375455874Y-120228553D01*
X375456282Y-120228523D01*
X394532969Y-118894550D01*
X394538384Y-118894293D01*
X396467614Y-118845343D01*
X396470759Y-118845303D01*
X480345242Y-118845303D01*
X480412281Y-118864988D01*
X480458036Y-118917792D01*
X480469241Y-118969310D01*
X480466208Y-159094464D01*
X480462726Y-205148437D01*
X480443036Y-205215475D01*
X480390229Y-205261226D01*
X480338726Y-205272428D01*
X474344511Y-205272428D01*
X474344305Y-205272387D01*
X474319751Y-205272387D01*
X474319589Y-205272454D01*
X474319368Y-205272544D01*
X474319366Y-205272546D01*
X474319210Y-205272927D01*
X474319227Y-205297544D01*
X474319222Y-205297544D01*
X474319251Y-205297687D01*
X474319251Y-221748395D01*
X474319167Y-221748817D01*
X474319210Y-221772928D01*
X474319251Y-221773027D01*
X474319368Y-221773311D01*
X474319369Y-221773312D01*
X474319559Y-221773390D01*
X474319751Y-221773469D01*
X474319753Y-221773467D01*
X474344367Y-221773452D01*
X474344367Y-221773456D01*
X474344511Y-221773428D01*
X477469652Y-221773428D01*
X480345251Y-221773428D01*
X480412290Y-221793113D01*
X480458045Y-221845917D01*
X480469251Y-221897428D01*
X480469251Y-246164053D01*
X480449566Y-246231092D01*
X480396762Y-246276847D01*
X480345251Y-246288053D01*
X417444251Y-246288053D01*
X417377212Y-246268368D01*
X417331457Y-246215564D01*
X417320251Y-246164053D01*
X417320251Y-243932062D01*
X417320279Y-243931919D01*
X417320275Y-243931919D01*
X417320290Y-243907305D01*
X417320292Y-243907303D01*
X417320213Y-243907111D01*
X417320135Y-243906921D01*
X417320131Y-243906917D01*
X417319945Y-243906841D01*
X417319753Y-243906762D01*
X417295197Y-243906762D01*
X417294991Y-243906803D01*
X384387884Y-243906803D01*
X384386345Y-243906661D01*
X384376522Y-243906792D01*
X384376374Y-243906792D01*
X384375820Y-243906906D01*
X384367499Y-243908524D01*
X384365681Y-243909080D01*
X311525671Y-259391704D01*
X311499890Y-259394414D01*
X277489901Y-259394414D01*
X277464120Y-259391704D01*
X206590730Y-244327099D01*
X237731496Y-244327099D01*
X237731570Y-244327501D01*
X237731571Y-244327502D01*
X237731572Y-244327503D01*
X237731914Y-244327737D01*
X237731915Y-244327736D01*
X237747037Y-244330909D01*
X242390568Y-245317922D01*
X245875489Y-246058665D01*
X245936971Y-246091857D01*
X245970747Y-246153020D01*
X245970998Y-246205736D01*
X245793966Y-247038606D01*
X245793670Y-247039305D01*
X245788932Y-247062100D01*
X245789006Y-247062502D01*
X245789007Y-247062503D01*
X245789348Y-247062737D01*
X245789350Y-247062738D01*
X245789351Y-247062737D01*
X245804474Y-247065910D01*
X259557249Y-249989154D01*
X259558032Y-249989488D01*
X259575843Y-249993177D01*
X259580619Y-249994409D01*
X259580743Y-249994386D01*
X259581481Y-249994246D01*
X259581638Y-249994218D01*
X259581872Y-249993877D01*
X259581872Y-249993876D01*
X259586979Y-249969720D01*
X259586999Y-249969724D01*
X259586999Y-249969550D01*
X259763859Y-249137493D01*
X259797050Y-249076015D01*
X259858214Y-249042239D01*
X259910925Y-249041988D01*
X268030508Y-250767860D01*
X268031291Y-250768194D01*
X268049102Y-250771883D01*
X268053878Y-250773115D01*
X268054002Y-250773092D01*
X268054740Y-250772952D01*
X268054897Y-250772924D01*
X268055131Y-250772583D01*
X268055131Y-250772582D01*
X268060238Y-250748426D01*
X268060258Y-250748430D01*
X268060258Y-250748256D01*
X269671982Y-243165692D01*
X287439301Y-243165692D01*
X287439344Y-243189803D01*
X287439385Y-243189902D01*
X287439502Y-243190186D01*
X287439503Y-243190187D01*
X287439693Y-243190265D01*
X287439885Y-243190344D01*
X287439887Y-243190342D01*
X287464501Y-243190327D01*
X287464501Y-243190331D01*
X287464645Y-243190303D01*
X301515125Y-243190303D01*
X301515268Y-243190331D01*
X301515269Y-243190327D01*
X301539882Y-243190342D01*
X301539885Y-243190344D01*
X301540268Y-243190186D01*
X301540385Y-243189902D01*
X301540426Y-243189803D01*
X301540425Y-243189800D01*
X301540468Y-243165692D01*
X301540385Y-243165270D01*
X301540385Y-236992757D01*
X313136852Y-236992757D01*
X313141749Y-237016096D01*
X313141955Y-237016580D01*
X316271266Y-251738823D01*
X316271271Y-251739170D01*
X316276318Y-251762787D01*
X316276319Y-251762788D01*
X316276553Y-251763130D01*
X316276855Y-251763186D01*
X316276855Y-251763185D01*
X316277393Y-251763287D01*
X316288939Y-251765486D01*
X316306813Y-251756818D01*
X316391473Y-251738823D01*
X324420518Y-250032195D01*
X324490185Y-250037511D01*
X324545919Y-250079648D01*
X324567589Y-250127704D01*
X324744992Y-250962318D01*
X324745039Y-250962541D01*
X324749576Y-250984083D01*
X324749602Y-250984120D01*
X324749809Y-250984422D01*
X324749810Y-250984422D01*
X324749811Y-250984423D01*
X324750113Y-250984479D01*
X324750113Y-250984478D01*
X324750623Y-250984575D01*
X324762196Y-250986779D01*
X324780071Y-250978111D01*
X325744501Y-250773115D01*
X338517773Y-248058071D01*
X338518288Y-248058066D01*
X338542098Y-248052943D01*
X338542100Y-248052944D01*
X338542100Y-248052943D01*
X338542112Y-248052941D01*
X338542436Y-248052719D01*
X338542440Y-248052711D01*
X338542443Y-248052710D01*
X338542518Y-248052302D01*
X338542515Y-248052299D01*
X338540291Y-248042030D01*
X338360449Y-247195941D01*
X338365765Y-247126274D01*
X338407902Y-247070540D01*
X338455953Y-247048871D01*
X346577100Y-245322667D01*
X346599531Y-245317941D01*
X346599535Y-245317942D01*
X346599877Y-245317708D01*
X346599933Y-245317406D01*
X346600019Y-245316951D01*
X346599262Y-245312646D01*
X346598460Y-245306962D01*
X346596714Y-245301960D01*
X346594861Y-245293186D01*
X346594709Y-245292835D01*
X343464694Y-230567268D01*
X343460485Y-230547274D01*
X343460486Y-230547271D01*
X343460484Y-230547268D01*
X343460252Y-230546929D01*
X343460250Y-230546928D01*
X343459848Y-230546854D01*
X343437053Y-230551592D01*
X343436354Y-230551888D01*
X336636672Y-231997206D01*
X336636223Y-231997213D01*
X336612810Y-232002236D01*
X336612469Y-232002470D01*
X336612468Y-232002471D01*
X336612394Y-232002876D01*
X336617291Y-232026215D01*
X336617497Y-232026699D01*
X337002372Y-233837386D01*
X336997056Y-233907053D01*
X336954919Y-233962787D01*
X336906863Y-233984457D01*
X334150191Y-234570406D01*
X328714486Y-235725801D01*
X328714485Y-235725801D01*
X324657187Y-236588206D01*
X320521912Y-237467186D01*
X320452245Y-237461870D01*
X320396511Y-237419733D01*
X320374842Y-237371680D01*
X319989258Y-235557655D01*
X319984943Y-235537151D01*
X319984709Y-235536810D01*
X319984707Y-235536809D01*
X319984305Y-235536735D01*
X319961510Y-235541473D01*
X319960811Y-235541769D01*
X313161130Y-236987087D01*
X313160681Y-236987094D01*
X313137268Y-236992117D01*
X313136927Y-236992351D01*
X313136926Y-236992352D01*
X313136852Y-236992757D01*
X301540385Y-236992757D01*
X301540385Y-229114562D01*
X301540413Y-229114419D01*
X301540409Y-229114419D01*
X301540424Y-229089805D01*
X301540426Y-229089803D01*
X301540347Y-229089611D01*
X301540269Y-229089421D01*
X301540265Y-229089417D01*
X301540079Y-229089341D01*
X301539887Y-229089262D01*
X301515331Y-229089262D01*
X301515125Y-229089303D01*
X287464645Y-229089303D01*
X287464439Y-229089262D01*
X287439883Y-229089262D01*
X287439692Y-229089341D01*
X287439504Y-229089418D01*
X287439500Y-229089421D01*
X287439344Y-229089802D01*
X287439361Y-229114419D01*
X287439356Y-229114419D01*
X287439385Y-229114562D01*
X287439385Y-243165270D01*
X287439301Y-243165692D01*
X269671982Y-243165692D01*
X271192937Y-236010159D01*
X271193019Y-236009781D01*
X271194594Y-236002557D01*
X271194597Y-236002554D01*
X271194522Y-236002146D01*
X271194180Y-236001912D01*
X271170969Y-235996912D01*
X271170420Y-235996903D01*
X264357993Y-234548876D01*
X264357540Y-234548779D01*
X264347148Y-234546529D01*
X264346739Y-234546604D01*
X264346718Y-234546636D01*
X264346630Y-234546764D01*
X264346505Y-234546946D01*
X264341481Y-234570406D01*
X264341475Y-234570809D01*
X263956606Y-236381471D01*
X263923414Y-236442953D01*
X263862250Y-236476729D01*
X263809535Y-236476980D01*
X255616964Y-234735595D01*
X247424585Y-232994250D01*
X247363103Y-232961058D01*
X247329327Y-232899895D01*
X247329076Y-232847179D01*
X247638162Y-231393042D01*
X263721083Y-231393042D01*
X263721157Y-231393444D01*
X263721158Y-231393445D01*
X263721159Y-231393446D01*
X263721501Y-231393680D01*
X263721502Y-231393679D01*
X263736624Y-231396852D01*
X277489400Y-234320095D01*
X277490183Y-234320429D01*
X277507994Y-234324118D01*
X277512770Y-234325350D01*
X277512868Y-234325332D01*
X277513681Y-234325179D01*
X277513789Y-234325159D01*
X277514024Y-234324818D01*
X277514023Y-234324814D01*
X277518341Y-234304299D01*
X279683996Y-224115692D01*
X287439301Y-224115692D01*
X287439344Y-224139803D01*
X287439385Y-224139902D01*
X287439502Y-224140186D01*
X287439503Y-224140187D01*
X287439693Y-224140265D01*
X287439885Y-224140344D01*
X287439887Y-224140342D01*
X287464501Y-224140327D01*
X287464501Y-224140331D01*
X287464645Y-224140303D01*
X301515125Y-224140303D01*
X301515268Y-224140331D01*
X301515269Y-224140327D01*
X301539882Y-224140342D01*
X301539885Y-224140344D01*
X301540268Y-224140186D01*
X301540385Y-224139902D01*
X301540426Y-224139803D01*
X301540425Y-224139800D01*
X301540468Y-224115692D01*
X301540385Y-224115270D01*
X301540385Y-220534996D01*
X308534522Y-220534996D01*
X308539419Y-220558335D01*
X308539625Y-220558819D01*
X311461068Y-234303119D01*
X311461077Y-234303668D01*
X311466077Y-234326878D01*
X311466077Y-234326879D01*
X311466311Y-234327221D01*
X311466613Y-234327277D01*
X311466613Y-234327276D01*
X311467190Y-234327386D01*
X311467227Y-234327393D01*
X311471599Y-234326247D01*
X311484850Y-234323399D01*
X325238081Y-231400059D01*
X325258596Y-231395741D01*
X325258600Y-231395742D01*
X325258941Y-231395507D01*
X325258997Y-231395205D01*
X325258996Y-231395204D01*
X325259083Y-231394748D01*
X325258326Y-231390445D01*
X325257524Y-231384761D01*
X325255778Y-231379759D01*
X325253925Y-231370985D01*
X325253773Y-231370634D01*
X322331670Y-217623215D01*
X322327461Y-217603221D01*
X322327462Y-217603218D01*
X322327460Y-217603215D01*
X322327228Y-217602876D01*
X322327226Y-217602875D01*
X322326824Y-217602801D01*
X322304029Y-217607539D01*
X322303330Y-217607835D01*
X308558800Y-220529326D01*
X308558351Y-220529333D01*
X308534938Y-220534356D01*
X308534597Y-220534590D01*
X308534596Y-220534591D01*
X308534522Y-220534996D01*
X301540385Y-220534996D01*
X301540385Y-216574296D01*
X327168222Y-216574296D01*
X327173119Y-216597635D01*
X327173325Y-216598119D01*
X330094768Y-230342419D01*
X330094777Y-230342968D01*
X330099777Y-230366178D01*
X330099777Y-230366179D01*
X330100011Y-230366521D01*
X330100313Y-230366577D01*
X330100313Y-230366576D01*
X330100890Y-230366686D01*
X330100927Y-230366693D01*
X330105299Y-230365547D01*
X330118550Y-230362699D01*
X339894916Y-228284668D01*
X363748574Y-228284668D01*
X363753471Y-228308007D01*
X363753677Y-228308491D01*
X366675120Y-242052791D01*
X366675129Y-242053340D01*
X366680129Y-242076550D01*
X366680129Y-242076551D01*
X366680363Y-242076893D01*
X366680665Y-242076949D01*
X366680665Y-242076948D01*
X366681242Y-242077058D01*
X366681280Y-242077065D01*
X366685649Y-242075920D01*
X366699056Y-242073038D01*
X372761658Y-240784392D01*
X422789201Y-240784392D01*
X422789244Y-240808503D01*
X422789285Y-240808602D01*
X422789402Y-240808886D01*
X422789403Y-240808887D01*
X422789593Y-240808965D01*
X422789785Y-240809044D01*
X422789787Y-240809042D01*
X422814401Y-240809027D01*
X422814401Y-240809031D01*
X422814545Y-240809003D01*
X436865025Y-240809003D01*
X436865168Y-240809031D01*
X436865169Y-240809027D01*
X436889782Y-240809042D01*
X436889785Y-240809044D01*
X436890168Y-240808886D01*
X436890285Y-240808602D01*
X436890326Y-240808503D01*
X436890325Y-240808500D01*
X436890368Y-240784392D01*
X441839201Y-240784392D01*
X441839244Y-240808503D01*
X441839285Y-240808602D01*
X441839402Y-240808886D01*
X441839403Y-240808887D01*
X441839593Y-240808965D01*
X441839785Y-240809044D01*
X441839787Y-240809042D01*
X441864401Y-240809027D01*
X441864401Y-240809031D01*
X441864545Y-240809003D01*
X455915025Y-240809003D01*
X455915168Y-240809031D01*
X455915169Y-240809027D01*
X455939782Y-240809042D01*
X455939785Y-240809044D01*
X455940168Y-240808886D01*
X455940285Y-240808602D01*
X455940326Y-240808503D01*
X455940325Y-240808500D01*
X455940368Y-240784392D01*
X460889201Y-240784392D01*
X460889244Y-240808503D01*
X460889285Y-240808602D01*
X460889402Y-240808886D01*
X460889403Y-240808887D01*
X460889593Y-240808965D01*
X460889785Y-240809044D01*
X460889787Y-240809042D01*
X460914401Y-240809027D01*
X460914401Y-240809031D01*
X460914545Y-240809003D01*
X474965025Y-240809003D01*
X474965168Y-240809031D01*
X474965169Y-240809027D01*
X474989782Y-240809042D01*
X474989785Y-240809044D01*
X474990168Y-240808886D01*
X474990285Y-240808602D01*
X474990326Y-240808503D01*
X474990325Y-240808500D01*
X474990368Y-240784392D01*
X474990285Y-240783970D01*
X474990285Y-226733262D01*
X474990313Y-226733119D01*
X474990309Y-226733119D01*
X474990324Y-226708505D01*
X474990326Y-226708503D01*
X474990247Y-226708311D01*
X474990169Y-226708121D01*
X474990165Y-226708117D01*
X474989979Y-226708041D01*
X474989787Y-226707962D01*
X474965231Y-226707962D01*
X474965025Y-226708003D01*
X460914545Y-226708003D01*
X460914339Y-226707962D01*
X460889783Y-226707962D01*
X460889592Y-226708041D01*
X460889404Y-226708118D01*
X460889400Y-226708121D01*
X460889244Y-226708502D01*
X460889261Y-226733119D01*
X460889256Y-226733119D01*
X460889285Y-226733262D01*
X460889285Y-240783970D01*
X460889201Y-240784392D01*
X455940368Y-240784392D01*
X455940285Y-240783970D01*
X455940285Y-226733262D01*
X455940313Y-226733119D01*
X455940309Y-226733119D01*
X455940324Y-226708505D01*
X455940326Y-226708503D01*
X455940247Y-226708311D01*
X455940169Y-226708121D01*
X455940165Y-226708117D01*
X455939979Y-226708041D01*
X455939787Y-226707962D01*
X455915231Y-226707962D01*
X455915025Y-226708003D01*
X441864545Y-226708003D01*
X441864339Y-226707962D01*
X441839783Y-226707962D01*
X441839592Y-226708041D01*
X441839404Y-226708118D01*
X441839400Y-226708121D01*
X441839244Y-226708502D01*
X441839261Y-226733119D01*
X441839256Y-226733119D01*
X441839285Y-226733262D01*
X441839285Y-240783970D01*
X441839201Y-240784392D01*
X436890368Y-240784392D01*
X436890285Y-240783970D01*
X436890285Y-226733262D01*
X436890313Y-226733119D01*
X436890309Y-226733119D01*
X436890324Y-226708505D01*
X436890326Y-226708503D01*
X436890247Y-226708311D01*
X436890169Y-226708121D01*
X436890165Y-226708117D01*
X436889979Y-226708041D01*
X436889787Y-226707962D01*
X436865231Y-226707962D01*
X436865025Y-226708003D01*
X422814545Y-226708003D01*
X422814339Y-226707962D01*
X422789783Y-226707962D01*
X422789592Y-226708041D01*
X422789404Y-226708118D01*
X422789400Y-226708121D01*
X422789244Y-226708502D01*
X422789261Y-226733119D01*
X422789256Y-226733119D01*
X422789285Y-226733262D01*
X422789285Y-240783970D01*
X422789201Y-240784392D01*
X372761658Y-240784392D01*
X380448078Y-239150593D01*
X380448266Y-239150592D01*
X380448261Y-239150567D01*
X380472650Y-239145414D01*
X380472652Y-239145415D01*
X380472653Y-239145414D01*
X380472654Y-239145414D01*
X380472990Y-239145185D01*
X380472994Y-239145180D01*
X380473069Y-239144770D01*
X380467913Y-239120664D01*
X380467938Y-239120658D01*
X380467864Y-239120488D01*
X380317524Y-238413192D01*
X391841701Y-238413192D01*
X391841744Y-238437303D01*
X391841785Y-238437402D01*
X391841902Y-238437686D01*
X391841903Y-238437687D01*
X391842093Y-238437765D01*
X391842285Y-238437844D01*
X391842287Y-238437842D01*
X391866901Y-238437827D01*
X391866901Y-238437831D01*
X391867045Y-238437803D01*
X405917525Y-238437803D01*
X405917668Y-238437831D01*
X405917669Y-238437827D01*
X405942282Y-238437842D01*
X405942285Y-238437844D01*
X405942668Y-238437686D01*
X405942785Y-238437402D01*
X405942826Y-238437303D01*
X405942825Y-238437300D01*
X405942868Y-238413192D01*
X405942785Y-238412770D01*
X405942785Y-224362062D01*
X405942813Y-224361919D01*
X405942809Y-224361919D01*
X405942824Y-224337305D01*
X405942826Y-224337303D01*
X405942747Y-224337111D01*
X405942669Y-224336921D01*
X405942665Y-224336917D01*
X405942479Y-224336841D01*
X405942287Y-224336762D01*
X405917731Y-224336762D01*
X405917525Y-224336803D01*
X391867045Y-224336803D01*
X391866839Y-224336762D01*
X391842283Y-224336762D01*
X391842092Y-224336841D01*
X391841904Y-224336918D01*
X391841900Y-224336921D01*
X391841744Y-224337302D01*
X391841761Y-224361919D01*
X391841756Y-224361919D01*
X391841785Y-224362062D01*
X391841785Y-238412770D01*
X391841701Y-238413192D01*
X380317524Y-238413192D01*
X377545722Y-225372887D01*
X377541513Y-225352893D01*
X377541514Y-225352890D01*
X377541512Y-225352887D01*
X377541280Y-225352548D01*
X377541278Y-225352547D01*
X377540876Y-225352473D01*
X377518081Y-225357211D01*
X377517382Y-225357507D01*
X363772852Y-228278998D01*
X363772403Y-228279005D01*
X363748990Y-228284028D01*
X363748649Y-228284262D01*
X363748648Y-228284263D01*
X363748574Y-228284668D01*
X339894916Y-228284668D01*
X343871781Y-227439359D01*
X343892296Y-227435041D01*
X343892300Y-227435042D01*
X343892641Y-227434807D01*
X343892697Y-227434505D01*
X343892696Y-227434504D01*
X343892783Y-227434048D01*
X343892026Y-227429745D01*
X343891224Y-227424061D01*
X343889478Y-227419059D01*
X343887625Y-227410285D01*
X343887473Y-227409934D01*
X340965370Y-213662515D01*
X340961161Y-213642521D01*
X340961162Y-213642518D01*
X340961160Y-213642515D01*
X340960928Y-213642176D01*
X340960926Y-213642175D01*
X340960524Y-213642101D01*
X340937729Y-213646839D01*
X340937030Y-213647135D01*
X327192500Y-216568626D01*
X327192051Y-216568633D01*
X327168638Y-216573656D01*
X327168297Y-216573890D01*
X327168296Y-216573891D01*
X327168222Y-216574296D01*
X301540385Y-216574296D01*
X301540385Y-210064562D01*
X301540413Y-210064419D01*
X301540409Y-210064419D01*
X301540424Y-210039805D01*
X301540426Y-210039803D01*
X301540347Y-210039611D01*
X301540269Y-210039421D01*
X301540265Y-210039417D01*
X301540079Y-210039341D01*
X301539887Y-210039262D01*
X301515331Y-210039262D01*
X301515125Y-210039303D01*
X287464645Y-210039303D01*
X287464439Y-210039262D01*
X287439883Y-210039262D01*
X287439692Y-210039341D01*
X287439504Y-210039418D01*
X287439500Y-210039421D01*
X287439344Y-210039802D01*
X287439361Y-210064419D01*
X287439356Y-210064419D01*
X287439385Y-210064562D01*
X287439385Y-224115270D01*
X287439301Y-224115692D01*
X279683996Y-224115692D01*
X280443918Y-220540542D01*
X280444000Y-220540164D01*
X280445575Y-220532940D01*
X280445578Y-220532937D01*
X280445503Y-220532529D01*
X280445162Y-220532295D01*
X280445161Y-220532294D01*
X280422035Y-220527297D01*
X280421401Y-220527286D01*
X266666993Y-217603696D01*
X266666638Y-217603620D01*
X266653277Y-217600739D01*
X266652874Y-217600813D01*
X266652872Y-217600814D01*
X266652638Y-217601157D01*
X266647615Y-217624569D01*
X266647608Y-217625018D01*
X263726117Y-231369548D01*
X263725821Y-231370247D01*
X263721083Y-231393042D01*
X247638162Y-231393042D01*
X247717395Y-231020279D01*
X247717477Y-231019901D01*
X247719052Y-231012677D01*
X247719055Y-231012674D01*
X247718980Y-231012266D01*
X247718979Y-231012265D01*
X247718980Y-231012265D01*
X247718639Y-231012032D01*
X247695710Y-231007057D01*
X247694978Y-231007044D01*
X240895427Y-229561754D01*
X240895125Y-229561625D01*
X240871602Y-229556649D01*
X240871417Y-229556683D01*
X240871199Y-229556723D01*
X240871197Y-229556724D01*
X240870963Y-229557067D01*
X240865892Y-229580898D01*
X240865888Y-229581136D01*
X237736530Y-244303605D01*
X237736234Y-244304304D01*
X237731496Y-244327099D01*
X206590730Y-244327099D01*
X204624105Y-243909080D01*
X204622287Y-243908524D01*
X204613960Y-243906905D01*
X204613409Y-243906792D01*
X204613264Y-243906792D01*
X204603440Y-243906661D01*
X204601902Y-243906803D01*
X139600785Y-243906803D01*
X139533746Y-243887118D01*
X139487991Y-243834314D01*
X139476785Y-243782803D01*
X139476785Y-239146332D01*
X208524077Y-239146332D01*
X208524151Y-239146734D01*
X208524152Y-239146735D01*
X208524493Y-239146969D01*
X208524495Y-239146970D01*
X208524496Y-239146969D01*
X208539619Y-239150142D01*
X222292394Y-242073386D01*
X222293177Y-242073720D01*
X222310988Y-242077409D01*
X222315764Y-242078641D01*
X222315888Y-242078618D01*
X222316626Y-242078478D01*
X222316783Y-242078450D01*
X222317017Y-242078109D01*
X222317017Y-242078108D01*
X222322124Y-242053952D01*
X222322144Y-242053956D01*
X222322144Y-242053782D01*
X225246912Y-228293833D01*
X225246994Y-228293455D01*
X225248569Y-228286231D01*
X225248572Y-228286228D01*
X225248497Y-228285820D01*
X225248156Y-228285586D01*
X225248155Y-228285585D01*
X225225029Y-228280588D01*
X225224395Y-228280577D01*
X221233765Y-227432342D01*
X245087283Y-227432342D01*
X245087357Y-227432744D01*
X245087358Y-227432745D01*
X245087359Y-227432746D01*
X245087701Y-227432980D01*
X245087702Y-227432979D01*
X245102824Y-227436152D01*
X258855600Y-230359395D01*
X258856383Y-230359729D01*
X258874194Y-230363418D01*
X258878970Y-230364650D01*
X258879068Y-230364632D01*
X258879881Y-230364479D01*
X258879989Y-230364459D01*
X258880224Y-230364118D01*
X258880223Y-230364114D01*
X258884541Y-230343599D01*
X261810118Y-216579842D01*
X261810200Y-216579464D01*
X261811775Y-216572240D01*
X261811778Y-216572237D01*
X261811703Y-216571829D01*
X261811362Y-216571595D01*
X261811361Y-216571594D01*
X261788235Y-216566597D01*
X261787601Y-216566586D01*
X248033193Y-213642996D01*
X248032838Y-213642920D01*
X248019477Y-213640039D01*
X248019074Y-213640113D01*
X248019072Y-213640114D01*
X248018838Y-213640457D01*
X248013815Y-213663869D01*
X248013808Y-213664318D01*
X245092317Y-227408848D01*
X245092021Y-227409547D01*
X245087283Y-227432342D01*
X221233765Y-227432342D01*
X215480509Y-226209449D01*
X211480407Y-225359201D01*
X211480225Y-225359123D01*
X211456274Y-225354030D01*
X211455864Y-225354105D01*
X211455842Y-225354139D01*
X211455756Y-225354265D01*
X211455631Y-225354447D01*
X211450607Y-225377907D01*
X211450601Y-225378310D01*
X208529111Y-239122838D01*
X208528815Y-239123537D01*
X208524077Y-239146332D01*
X139476785Y-239146332D01*
X139476785Y-238413192D01*
X159242001Y-238413192D01*
X159242044Y-238437303D01*
X159242085Y-238437402D01*
X159242202Y-238437686D01*
X159242203Y-238437687D01*
X159242393Y-238437765D01*
X159242585Y-238437844D01*
X159242587Y-238437842D01*
X159267201Y-238437827D01*
X159267201Y-238437831D01*
X159267345Y-238437803D01*
X173317825Y-238437803D01*
X173317968Y-238437831D01*
X173317969Y-238437827D01*
X173342582Y-238437842D01*
X173342585Y-238437844D01*
X173342968Y-238437686D01*
X173343085Y-238437402D01*
X173343126Y-238437303D01*
X173343125Y-238437300D01*
X173343168Y-238413192D01*
X183054501Y-238413192D01*
X183054544Y-238437303D01*
X183054585Y-238437402D01*
X183054702Y-238437686D01*
X183054703Y-238437687D01*
X183054893Y-238437765D01*
X183055085Y-238437844D01*
X183055087Y-238437842D01*
X183079701Y-238437827D01*
X183079701Y-238437831D01*
X183079845Y-238437803D01*
X197130325Y-238437803D01*
X197130468Y-238437831D01*
X197130469Y-238437827D01*
X197155082Y-238437842D01*
X197155085Y-238437844D01*
X197155468Y-238437686D01*
X197155585Y-238437402D01*
X197155626Y-238437303D01*
X197155625Y-238437300D01*
X197155668Y-238413192D01*
X197155585Y-238412770D01*
X197155585Y-224362062D01*
X197155613Y-224361919D01*
X197155609Y-224361919D01*
X197155613Y-224354808D01*
X201853023Y-224354808D01*
X201872050Y-224657254D01*
X201872051Y-224657258D01*
X201872051Y-224657262D01*
X201872052Y-224657265D01*
X201928840Y-224954957D01*
X201928842Y-224954962D01*
X202022488Y-225243177D01*
X202022489Y-225243178D01*
X202022491Y-225243184D01*
X202151527Y-225517401D01*
X202151531Y-225517408D01*
X202151532Y-225517409D01*
X202313911Y-225773278D01*
X202313914Y-225773282D01*
X202313915Y-225773283D01*
X202507093Y-226006795D01*
X202696065Y-226184251D01*
X202728012Y-226214251D01*
X202728022Y-226214259D01*
X202973183Y-226392379D01*
X202973188Y-226392381D01*
X202973195Y-226392387D01*
X203238768Y-226538388D01*
X203238773Y-226538390D01*
X203238775Y-226538391D01*
X203238776Y-226538392D01*
X203520542Y-226649951D01*
X203520545Y-226649952D01*
X203618392Y-226675074D01*
X203814085Y-226725319D01*
X203961313Y-226743918D01*
X204114745Y-226763302D01*
X204114751Y-226763302D01*
X204114755Y-226763303D01*
X204114757Y-226763303D01*
X204417813Y-226763303D01*
X204417815Y-226763303D01*
X204417820Y-226763302D01*
X204417824Y-226763302D01*
X204497642Y-226753218D01*
X204718485Y-226725319D01*
X205012024Y-226649952D01*
X205012027Y-226649951D01*
X205293793Y-226538392D01*
X205293794Y-226538391D01*
X205293792Y-226538391D01*
X205293802Y-226538388D01*
X205559375Y-226392387D01*
X205804556Y-226214253D01*
X206025477Y-226006795D01*
X206218655Y-225773283D01*
X206381043Y-225517401D01*
X206510079Y-225243184D01*
X206603730Y-224954957D01*
X206660518Y-224657265D01*
X206660519Y-224657254D01*
X206679547Y-224354808D01*
X206679547Y-224354797D01*
X206660519Y-224052351D01*
X206660518Y-224052347D01*
X206660518Y-224052341D01*
X206603730Y-223754649D01*
X206511743Y-223471542D01*
X226453583Y-223471542D01*
X226453657Y-223471944D01*
X226453658Y-223471945D01*
X226453659Y-223471946D01*
X226454001Y-223472180D01*
X226454002Y-223472179D01*
X226469124Y-223475352D01*
X240221900Y-226398595D01*
X240222683Y-226398929D01*
X240240494Y-226402618D01*
X240245270Y-226403850D01*
X240245368Y-226403832D01*
X240246181Y-226403679D01*
X240246289Y-226403659D01*
X240246524Y-226403318D01*
X240246523Y-226403314D01*
X240250841Y-226382799D01*
X243176418Y-212619042D01*
X243176500Y-212618664D01*
X243178075Y-212611440D01*
X243178078Y-212611437D01*
X243178003Y-212611029D01*
X243177662Y-212610795D01*
X243177661Y-212610794D01*
X243154535Y-212605797D01*
X243153901Y-212605786D01*
X237534014Y-211411242D01*
X261339783Y-211411242D01*
X261339857Y-211411644D01*
X261339858Y-211411645D01*
X261339859Y-211411646D01*
X261340201Y-211411880D01*
X261340202Y-211411879D01*
X261355324Y-211415052D01*
X275108100Y-214338295D01*
X275108883Y-214338629D01*
X275126694Y-214342318D01*
X275131470Y-214343550D01*
X275131568Y-214343532D01*
X275132381Y-214343379D01*
X275132489Y-214343359D01*
X275132724Y-214343018D01*
X275132723Y-214343014D01*
X275137041Y-214322499D01*
X278062618Y-200558742D01*
X278062700Y-200558364D01*
X278063805Y-200553296D01*
X310915722Y-200553296D01*
X310920619Y-200576635D01*
X310920825Y-200577119D01*
X313842268Y-214321419D01*
X313842277Y-214321968D01*
X313847277Y-214345178D01*
X313847277Y-214345179D01*
X313847511Y-214345521D01*
X313847813Y-214345577D01*
X313847813Y-214345576D01*
X313848390Y-214345686D01*
X313848427Y-214345693D01*
X313852799Y-214344547D01*
X313866050Y-214341699D01*
X321996134Y-212613596D01*
X345801922Y-212613596D01*
X345806819Y-212636935D01*
X345807025Y-212637419D01*
X348728468Y-226381719D01*
X348728477Y-226382268D01*
X348733477Y-226405478D01*
X348733477Y-226405479D01*
X348733711Y-226405821D01*
X348734013Y-226405877D01*
X348734013Y-226405876D01*
X348734590Y-226405986D01*
X348734627Y-226405993D01*
X348738999Y-226404847D01*
X348752250Y-226401999D01*
X358524664Y-224324808D01*
X382263023Y-224324808D01*
X382282050Y-224627254D01*
X382282051Y-224627258D01*
X382282051Y-224627262D01*
X382282052Y-224627265D01*
X382338840Y-224924957D01*
X382370772Y-225023235D01*
X382432488Y-225213177D01*
X382432489Y-225213178D01*
X382432491Y-225213184D01*
X382561527Y-225487401D01*
X382561531Y-225487408D01*
X382561532Y-225487409D01*
X382723911Y-225743278D01*
X382723914Y-225743282D01*
X382723915Y-225743283D01*
X382917093Y-225976795D01*
X383138012Y-226184251D01*
X383138022Y-226184259D01*
X383383183Y-226362379D01*
X383383188Y-226362381D01*
X383383195Y-226362387D01*
X383648768Y-226508388D01*
X383648773Y-226508390D01*
X383648775Y-226508391D01*
X383648776Y-226508392D01*
X383930542Y-226619951D01*
X383930545Y-226619952D01*
X384028392Y-226645074D01*
X384224085Y-226695319D01*
X384371313Y-226713918D01*
X384524745Y-226733302D01*
X384524751Y-226733302D01*
X384524755Y-226733303D01*
X384524757Y-226733303D01*
X384827813Y-226733303D01*
X384827815Y-226733303D01*
X384827820Y-226733302D01*
X384827824Y-226733302D01*
X384907642Y-226723218D01*
X385128485Y-226695319D01*
X385422024Y-226619952D01*
X385422027Y-226619951D01*
X385703793Y-226508392D01*
X385703794Y-226508391D01*
X385703792Y-226508391D01*
X385703802Y-226508388D01*
X385969375Y-226362387D01*
X386214556Y-226184253D01*
X386435477Y-225976795D01*
X386628655Y-225743283D01*
X386791043Y-225487401D01*
X386920079Y-225213184D01*
X387013730Y-224924957D01*
X387070518Y-224627265D01*
X387087212Y-224361919D01*
X387089547Y-224324808D01*
X387089547Y-224324797D01*
X387070519Y-224022351D01*
X387070518Y-224022347D01*
X387070518Y-224022341D01*
X387013730Y-223724649D01*
X386920079Y-223436422D01*
X386791043Y-223162205D01*
X386728588Y-223063792D01*
X386628658Y-222906327D01*
X386628655Y-222906323D01*
X386435477Y-222672811D01*
X386214556Y-222465353D01*
X386214553Y-222465351D01*
X386214547Y-222465346D01*
X385969386Y-222287226D01*
X385969379Y-222287221D01*
X385969375Y-222287219D01*
X385703802Y-222141218D01*
X385703799Y-222141216D01*
X385703794Y-222141214D01*
X385703793Y-222141213D01*
X385422027Y-222029654D01*
X385422024Y-222029653D01*
X385128482Y-221954286D01*
X384827824Y-221916303D01*
X384827815Y-221916303D01*
X384524755Y-221916303D01*
X384524745Y-221916303D01*
X384224087Y-221954286D01*
X383930545Y-222029653D01*
X383930542Y-222029654D01*
X383648776Y-222141213D01*
X383648775Y-222141214D01*
X383383195Y-222287219D01*
X383383183Y-222287226D01*
X383138022Y-222465346D01*
X383138012Y-222465354D01*
X382917095Y-222672809D01*
X382917093Y-222672811D01*
X382892275Y-222702811D01*
X382723911Y-222906327D01*
X382561532Y-223162196D01*
X382561529Y-223162200D01*
X382561527Y-223162205D01*
X382432491Y-223436422D01*
X382432489Y-223436427D01*
X382432488Y-223436428D01*
X382343135Y-223711429D01*
X382338840Y-223724649D01*
X382282052Y-224022341D01*
X382282051Y-224022347D01*
X382282050Y-224022351D01*
X382263023Y-224324797D01*
X382263023Y-224324808D01*
X358524664Y-224324808D01*
X362505481Y-223478659D01*
X362525996Y-223474341D01*
X362526000Y-223474342D01*
X362526341Y-223474107D01*
X362526397Y-223473805D01*
X362526396Y-223473804D01*
X362526483Y-223473348D01*
X362525726Y-223469045D01*
X362524924Y-223463361D01*
X362523178Y-223458359D01*
X362521325Y-223449585D01*
X362521173Y-223449234D01*
X359599070Y-209701815D01*
X359594861Y-209681821D01*
X359594862Y-209681818D01*
X359594860Y-209681815D01*
X359594628Y-209681476D01*
X359594626Y-209681475D01*
X359594224Y-209681401D01*
X359571429Y-209686139D01*
X359570730Y-209686435D01*
X345826200Y-212607926D01*
X345825751Y-212607933D01*
X345802338Y-212612956D01*
X345801997Y-212613190D01*
X345801996Y-212613191D01*
X345801922Y-212613596D01*
X321996134Y-212613596D01*
X327619281Y-211418359D01*
X327639796Y-211414041D01*
X327639800Y-211414042D01*
X327640141Y-211413807D01*
X327640197Y-211413505D01*
X327640196Y-211413504D01*
X327640283Y-211413048D01*
X327639526Y-211408745D01*
X327638724Y-211403061D01*
X327636978Y-211398059D01*
X327635125Y-211389285D01*
X327634973Y-211388934D01*
X324712870Y-197641515D01*
X324708661Y-197621521D01*
X324708662Y-197621518D01*
X324708660Y-197621515D01*
X324708428Y-197621176D01*
X324708426Y-197621175D01*
X324708024Y-197621101D01*
X324685229Y-197625839D01*
X324684530Y-197626135D01*
X310940000Y-200547626D01*
X310939551Y-200547633D01*
X310916138Y-200552656D01*
X310915797Y-200552890D01*
X310915796Y-200552891D01*
X310915722Y-200553296D01*
X278063805Y-200553296D01*
X278064275Y-200551140D01*
X278064278Y-200551137D01*
X278064203Y-200550729D01*
X278063862Y-200550495D01*
X278063861Y-200550494D01*
X278040735Y-200545497D01*
X278040101Y-200545486D01*
X264285693Y-197621896D01*
X264285338Y-197621820D01*
X264271977Y-197618939D01*
X264271574Y-197619013D01*
X264271572Y-197619014D01*
X264271338Y-197619357D01*
X264266315Y-197642769D01*
X264266308Y-197643218D01*
X261344817Y-211387748D01*
X261344521Y-211388447D01*
X261339783Y-211411242D01*
X237534014Y-211411242D01*
X229399493Y-209682196D01*
X229399138Y-209682120D01*
X229385777Y-209679239D01*
X229385374Y-209679313D01*
X229385372Y-209679314D01*
X229385138Y-209679657D01*
X229380115Y-209703069D01*
X229380108Y-209703518D01*
X226458617Y-223448048D01*
X226458321Y-223448747D01*
X226453583Y-223471542D01*
X206511743Y-223471542D01*
X206510079Y-223466422D01*
X206381043Y-223192205D01*
X206218655Y-222936323D01*
X206025477Y-222702811D01*
X205804556Y-222495353D01*
X205804553Y-222495351D01*
X205804547Y-222495346D01*
X205559386Y-222317226D01*
X205559379Y-222317221D01*
X205559375Y-222317219D01*
X205293802Y-222171218D01*
X205293799Y-222171216D01*
X205293794Y-222171214D01*
X205293793Y-222171213D01*
X205012027Y-222059654D01*
X205012024Y-222059653D01*
X204718482Y-221984286D01*
X204417824Y-221946303D01*
X204417815Y-221946303D01*
X204114755Y-221946303D01*
X204114745Y-221946303D01*
X203814087Y-221984286D01*
X203520545Y-222059653D01*
X203520542Y-222059654D01*
X203238776Y-222171213D01*
X203238775Y-222171214D01*
X202973195Y-222317219D01*
X202973183Y-222317226D01*
X202728022Y-222495346D01*
X202728012Y-222495354D01*
X202507095Y-222702809D01*
X202313911Y-222936327D01*
X202151532Y-223192196D01*
X202151529Y-223192200D01*
X202151527Y-223192205D01*
X202022491Y-223466422D01*
X202022489Y-223466427D01*
X202022488Y-223466428D01*
X201938590Y-223724643D01*
X201928840Y-223754649D01*
X201877775Y-224022341D01*
X201872051Y-224052347D01*
X201872050Y-224052351D01*
X201853023Y-224354797D01*
X201853023Y-224354808D01*
X197155613Y-224354808D01*
X197155624Y-224337305D01*
X197155626Y-224337303D01*
X197155547Y-224337111D01*
X197155469Y-224336921D01*
X197155465Y-224336917D01*
X197155279Y-224336841D01*
X197155087Y-224336762D01*
X197130531Y-224336762D01*
X197130325Y-224336803D01*
X183079845Y-224336803D01*
X183079639Y-224336762D01*
X183055083Y-224336762D01*
X183054892Y-224336841D01*
X183054704Y-224336918D01*
X183054700Y-224336921D01*
X183054544Y-224337302D01*
X183054561Y-224361919D01*
X183054556Y-224361919D01*
X183054585Y-224362062D01*
X183054585Y-238412770D01*
X183054501Y-238413192D01*
X173343168Y-238413192D01*
X173343085Y-238412770D01*
X173343085Y-224362062D01*
X173343113Y-224361919D01*
X173343109Y-224361919D01*
X173343124Y-224337305D01*
X173343126Y-224337303D01*
X173343047Y-224337111D01*
X173342969Y-224336921D01*
X173342965Y-224336917D01*
X173342779Y-224336841D01*
X173342587Y-224336762D01*
X173318031Y-224336762D01*
X173317825Y-224336803D01*
X159267345Y-224336803D01*
X159267139Y-224336762D01*
X159242583Y-224336762D01*
X159242392Y-224336841D01*
X159242204Y-224336918D01*
X159242200Y-224336921D01*
X159242044Y-224337302D01*
X159242061Y-224361919D01*
X159242056Y-224361919D01*
X159242085Y-224362062D01*
X159242085Y-238412770D01*
X159242001Y-238413192D01*
X139476785Y-238413192D01*
X139476785Y-221358192D01*
X148406951Y-221358192D01*
X148406994Y-221382303D01*
X148407035Y-221382402D01*
X148407152Y-221382686D01*
X148407153Y-221382687D01*
X148407343Y-221382765D01*
X148407535Y-221382844D01*
X148407537Y-221382842D01*
X148432151Y-221382827D01*
X148432151Y-221382831D01*
X148432295Y-221382803D01*
X155382775Y-221382803D01*
X155382918Y-221382831D01*
X155382919Y-221382827D01*
X155407532Y-221382842D01*
X155407535Y-221382844D01*
X155407918Y-221382686D01*
X155408035Y-221382402D01*
X155408076Y-221382303D01*
X155408075Y-221382300D01*
X155408118Y-221358192D01*
X155408035Y-221357770D01*
X155408035Y-219506803D01*
X155427720Y-219439764D01*
X155480524Y-219394009D01*
X155532035Y-219382803D01*
X163907436Y-219382803D01*
X172283035Y-219382803D01*
X172350074Y-219402488D01*
X172395829Y-219455292D01*
X172407035Y-219506803D01*
X172407035Y-221357770D01*
X172406951Y-221358192D01*
X172406994Y-221382303D01*
X172407035Y-221382402D01*
X172407152Y-221382686D01*
X172407153Y-221382687D01*
X172407343Y-221382765D01*
X172407535Y-221382844D01*
X172407537Y-221382842D01*
X172432151Y-221382827D01*
X172432151Y-221382831D01*
X172432295Y-221382803D01*
X179382775Y-221382803D01*
X179382918Y-221382831D01*
X179382919Y-221382827D01*
X179407532Y-221382842D01*
X179407535Y-221382844D01*
X179407918Y-221382686D01*
X179408035Y-221382402D01*
X179408076Y-221382303D01*
X179408075Y-221382300D01*
X179408118Y-221358192D01*
X179408035Y-221357770D01*
X179408035Y-219510842D01*
X207819883Y-219510842D01*
X207819957Y-219511244D01*
X207819958Y-219511245D01*
X207819959Y-219511246D01*
X207820301Y-219511480D01*
X207820302Y-219511479D01*
X207835424Y-219514652D01*
X221588200Y-222437895D01*
X221588983Y-222438229D01*
X221606794Y-222441918D01*
X221611570Y-222443150D01*
X221611668Y-222443132D01*
X221612481Y-222442979D01*
X221612589Y-222442959D01*
X221612824Y-222442618D01*
X221612823Y-222442614D01*
X221617141Y-222422099D01*
X224542718Y-208658342D01*
X224542800Y-208657964D01*
X224544375Y-208650740D01*
X224544378Y-208650737D01*
X224544303Y-208650329D01*
X224543962Y-208650095D01*
X224543961Y-208650094D01*
X224520835Y-208645097D01*
X224520201Y-208645086D01*
X218900314Y-207450542D01*
X242706083Y-207450542D01*
X242706157Y-207450944D01*
X242706158Y-207450945D01*
X242706159Y-207450946D01*
X242706501Y-207451180D01*
X242706502Y-207451179D01*
X242721624Y-207454352D01*
X256474400Y-210377595D01*
X256475183Y-210377929D01*
X256492994Y-210381618D01*
X256497770Y-210382850D01*
X256497868Y-210382832D01*
X256498681Y-210382679D01*
X256498789Y-210382659D01*
X256499024Y-210382318D01*
X256499023Y-210382314D01*
X256503341Y-210361799D01*
X259428918Y-196598042D01*
X259429000Y-196597664D01*
X259430127Y-196592496D01*
X329549422Y-196592496D01*
X329554319Y-196615835D01*
X329554525Y-196616319D01*
X332475968Y-210360619D01*
X332475977Y-210361168D01*
X332480977Y-210384378D01*
X332480977Y-210384379D01*
X332481211Y-210384721D01*
X332481513Y-210384777D01*
X332481513Y-210384776D01*
X332482090Y-210384886D01*
X332482127Y-210384893D01*
X332486499Y-210383747D01*
X332499750Y-210380899D01*
X340629834Y-208652796D01*
X364435622Y-208652796D01*
X364440519Y-208676135D01*
X364440725Y-208676619D01*
X367362168Y-222420919D01*
X367362177Y-222421468D01*
X367367177Y-222444678D01*
X367367177Y-222444679D01*
X367367411Y-222445021D01*
X367367713Y-222445077D01*
X367367713Y-222445076D01*
X367368290Y-222445186D01*
X367368327Y-222445193D01*
X367372699Y-222444047D01*
X367385950Y-222441199D01*
X370711215Y-221734392D01*
X441839201Y-221734392D01*
X441839244Y-221758503D01*
X441839285Y-221758602D01*
X441839402Y-221758886D01*
X441839403Y-221758887D01*
X441839593Y-221758965D01*
X441839785Y-221759044D01*
X441839787Y-221759042D01*
X441864401Y-221759027D01*
X441864401Y-221759031D01*
X441864545Y-221759003D01*
X455915025Y-221759003D01*
X455915168Y-221759031D01*
X455915169Y-221759027D01*
X455939782Y-221759042D01*
X455939785Y-221759044D01*
X455940168Y-221758886D01*
X455940285Y-221758602D01*
X455940326Y-221758503D01*
X455940325Y-221758500D01*
X455940368Y-221734392D01*
X455940285Y-221733970D01*
X455940285Y-207683262D01*
X455940313Y-207683119D01*
X455940309Y-207683119D01*
X455940324Y-207658505D01*
X455940326Y-207658503D01*
X455940247Y-207658311D01*
X455940169Y-207658121D01*
X455940165Y-207658117D01*
X455939979Y-207658041D01*
X455939787Y-207657962D01*
X455915231Y-207657962D01*
X455915025Y-207658003D01*
X441864545Y-207658003D01*
X441864339Y-207657962D01*
X441839783Y-207657962D01*
X441839592Y-207658041D01*
X441839404Y-207658118D01*
X441839400Y-207658121D01*
X441839244Y-207658502D01*
X441839261Y-207683119D01*
X441839256Y-207683119D01*
X441839285Y-207683262D01*
X441839285Y-221733970D01*
X441839201Y-221734392D01*
X370711215Y-221734392D01*
X381139181Y-219517859D01*
X381159696Y-219513541D01*
X381159700Y-219513542D01*
X381160041Y-219513307D01*
X381160097Y-219513005D01*
X381160096Y-219513004D01*
X381160183Y-219512548D01*
X381159426Y-219508245D01*
X381158624Y-219502561D01*
X381156878Y-219497559D01*
X381155025Y-219488785D01*
X381154873Y-219488434D01*
X381126126Y-219353192D01*
X387070401Y-219353192D01*
X387070444Y-219377303D01*
X387070485Y-219377402D01*
X387070602Y-219377686D01*
X387070603Y-219377687D01*
X387070793Y-219377765D01*
X387070985Y-219377844D01*
X387070987Y-219377842D01*
X387095601Y-219377827D01*
X387095601Y-219377831D01*
X387095745Y-219377803D01*
X401146225Y-219377803D01*
X401146368Y-219377831D01*
X401146369Y-219377827D01*
X401170982Y-219377842D01*
X401170985Y-219377844D01*
X401171368Y-219377686D01*
X401171485Y-219377402D01*
X401171526Y-219377303D01*
X401171525Y-219377300D01*
X401171550Y-219363192D01*
X413270401Y-219363192D01*
X413270444Y-219387303D01*
X413270485Y-219387402D01*
X413270602Y-219387686D01*
X413270603Y-219387687D01*
X413270793Y-219387765D01*
X413270985Y-219387844D01*
X413270987Y-219387842D01*
X413295601Y-219387827D01*
X413295601Y-219387831D01*
X413295745Y-219387803D01*
X427346225Y-219387803D01*
X427346368Y-219387831D01*
X427346369Y-219387827D01*
X427370982Y-219387842D01*
X427370985Y-219387844D01*
X427371368Y-219387686D01*
X427371485Y-219387402D01*
X427371526Y-219387303D01*
X427371525Y-219387300D01*
X427371568Y-219363192D01*
X427371485Y-219362770D01*
X427371485Y-205312062D01*
X427371513Y-205311919D01*
X427371509Y-205311919D01*
X427371524Y-205287305D01*
X427371526Y-205287303D01*
X427371447Y-205287111D01*
X427371369Y-205286921D01*
X427371365Y-205286917D01*
X427371179Y-205286841D01*
X427370987Y-205286762D01*
X427346431Y-205286762D01*
X427346225Y-205286803D01*
X413295745Y-205286803D01*
X413295539Y-205286762D01*
X413270983Y-205286762D01*
X413270792Y-205286841D01*
X413270604Y-205286918D01*
X413270600Y-205286921D01*
X413270444Y-205287302D01*
X413270461Y-205311919D01*
X413270456Y-205311919D01*
X413270485Y-205312062D01*
X413270485Y-219362770D01*
X413270401Y-219363192D01*
X401171550Y-219363192D01*
X401171568Y-219353192D01*
X401171485Y-219352770D01*
X401171485Y-205302062D01*
X401171513Y-205301919D01*
X401171509Y-205301919D01*
X401171524Y-205277305D01*
X401171526Y-205277303D01*
X401171447Y-205277111D01*
X401171369Y-205276921D01*
X401171365Y-205276917D01*
X401171179Y-205276841D01*
X401170987Y-205276762D01*
X401146431Y-205276762D01*
X401146225Y-205276803D01*
X387095745Y-205276803D01*
X387095539Y-205276762D01*
X387070983Y-205276762D01*
X387070792Y-205276841D01*
X387070604Y-205276918D01*
X387070600Y-205276921D01*
X387070444Y-205277302D01*
X387070461Y-205301919D01*
X387070456Y-205301919D01*
X387070485Y-205302062D01*
X387070485Y-219352770D01*
X387070401Y-219353192D01*
X381126126Y-219353192D01*
X378232770Y-205741015D01*
X378228561Y-205721021D01*
X378228562Y-205721018D01*
X378228560Y-205721015D01*
X378228328Y-205720676D01*
X378228326Y-205720675D01*
X378227924Y-205720601D01*
X378205129Y-205725339D01*
X378204430Y-205725635D01*
X364459900Y-208647126D01*
X364459451Y-208647133D01*
X364436038Y-208652156D01*
X364435697Y-208652390D01*
X364435696Y-208652391D01*
X364435622Y-208652796D01*
X340629834Y-208652796D01*
X346252981Y-207457559D01*
X346273496Y-207453241D01*
X346273500Y-207453242D01*
X346273841Y-207453007D01*
X346273897Y-207452705D01*
X346273896Y-207452704D01*
X346273983Y-207452248D01*
X346273226Y-207447945D01*
X346272424Y-207442261D01*
X346270678Y-207437259D01*
X346268825Y-207428485D01*
X346268673Y-207428134D01*
X343346570Y-193680715D01*
X343342361Y-193660721D01*
X343342362Y-193660718D01*
X343342360Y-193660715D01*
X343342128Y-193660376D01*
X343342126Y-193660375D01*
X343341724Y-193660301D01*
X343318929Y-193665039D01*
X343318230Y-193665335D01*
X329573700Y-196586826D01*
X329573251Y-196586833D01*
X329549838Y-196591856D01*
X329549497Y-196592090D01*
X329549496Y-196592091D01*
X329549422Y-196592496D01*
X259430127Y-196592496D01*
X259430575Y-196590440D01*
X259430578Y-196590437D01*
X259430503Y-196590029D01*
X259430162Y-196589795D01*
X259430161Y-196589794D01*
X259407035Y-196584797D01*
X259406401Y-196584786D01*
X245651993Y-193661196D01*
X245651638Y-193661120D01*
X245638277Y-193658239D01*
X245637874Y-193658313D01*
X245637872Y-193658314D01*
X245637638Y-193658657D01*
X245632615Y-193682069D01*
X245632608Y-193682518D01*
X242711117Y-207427048D01*
X242710821Y-207427747D01*
X242706083Y-207450542D01*
X218900314Y-207450542D01*
X210765793Y-205721496D01*
X210765438Y-205721420D01*
X210752077Y-205718539D01*
X210751674Y-205718613D01*
X210751672Y-205718614D01*
X210751438Y-205718957D01*
X210746415Y-205742369D01*
X210746408Y-205742818D01*
X207824917Y-219487348D01*
X207824621Y-219488047D01*
X207819883Y-219510842D01*
X179408035Y-219510842D01*
X179408035Y-219353192D01*
X187808201Y-219353192D01*
X187808244Y-219377303D01*
X187808285Y-219377402D01*
X187808402Y-219377686D01*
X187808403Y-219377687D01*
X187808593Y-219377765D01*
X187808785Y-219377844D01*
X187808787Y-219377842D01*
X187833401Y-219377827D01*
X187833401Y-219377831D01*
X187833545Y-219377803D01*
X201884025Y-219377803D01*
X201884168Y-219377831D01*
X201884169Y-219377827D01*
X201908782Y-219377842D01*
X201908785Y-219377844D01*
X201909168Y-219377686D01*
X201909285Y-219377402D01*
X201909326Y-219377303D01*
X201909325Y-219377300D01*
X201909368Y-219353192D01*
X201909285Y-219352770D01*
X201909285Y-205302062D01*
X201909313Y-205301919D01*
X201909309Y-205301919D01*
X201909324Y-205277305D01*
X201909326Y-205277303D01*
X201909247Y-205277111D01*
X201909169Y-205276921D01*
X201909165Y-205276917D01*
X201908979Y-205276841D01*
X201908787Y-205276762D01*
X201884231Y-205276762D01*
X201884025Y-205276803D01*
X187833545Y-205276803D01*
X187833339Y-205276762D01*
X187808783Y-205276762D01*
X187808592Y-205276841D01*
X187808404Y-205276918D01*
X187808400Y-205276921D01*
X187808244Y-205277302D01*
X187808261Y-205301919D01*
X187808256Y-205301919D01*
X187808285Y-205302062D01*
X187808285Y-219352770D01*
X187808201Y-219353192D01*
X179408035Y-219353192D01*
X179408035Y-206307062D01*
X179408063Y-206306919D01*
X179408059Y-206306919D01*
X179408074Y-206282305D01*
X179408076Y-206282303D01*
X179407997Y-206282111D01*
X179407919Y-206281921D01*
X179407915Y-206281917D01*
X179407729Y-206281841D01*
X179407537Y-206281762D01*
X179382981Y-206281762D01*
X179382775Y-206281803D01*
X171082035Y-206281803D01*
X171014996Y-206262118D01*
X170969241Y-206209314D01*
X170958035Y-206157803D01*
X170958035Y-205307062D01*
X170958063Y-205306919D01*
X170958059Y-205306919D01*
X170958074Y-205282305D01*
X170958076Y-205282303D01*
X170957997Y-205282111D01*
X170957919Y-205281921D01*
X170957915Y-205281917D01*
X170957729Y-205281841D01*
X170957537Y-205281762D01*
X170932981Y-205281762D01*
X170932775Y-205281803D01*
X156882295Y-205281803D01*
X156882089Y-205281762D01*
X156857533Y-205281762D01*
X156857342Y-205281841D01*
X156857154Y-205281918D01*
X156857150Y-205281921D01*
X156856994Y-205282302D01*
X156857011Y-205306919D01*
X156857006Y-205306919D01*
X156857035Y-205307062D01*
X156857035Y-206157803D01*
X156837350Y-206224842D01*
X156784546Y-206270597D01*
X156733035Y-206281803D01*
X148432295Y-206281803D01*
X148432089Y-206281762D01*
X148407533Y-206281762D01*
X148407342Y-206281841D01*
X148407154Y-206281918D01*
X148407150Y-206281921D01*
X148406994Y-206282302D01*
X148407011Y-206306919D01*
X148407006Y-206306919D01*
X148407035Y-206307062D01*
X148407035Y-221357770D01*
X148406951Y-221358192D01*
X139476785Y-221358192D01*
X139476785Y-203489842D01*
X224072383Y-203489842D01*
X224072457Y-203490244D01*
X224072458Y-203490245D01*
X224072459Y-203490246D01*
X224072801Y-203490480D01*
X224072802Y-203490479D01*
X224087924Y-203493652D01*
X237840700Y-206416895D01*
X237841483Y-206417229D01*
X237859294Y-206420918D01*
X237864070Y-206422150D01*
X237864168Y-206422132D01*
X237864981Y-206421979D01*
X237865089Y-206421959D01*
X237865324Y-206421618D01*
X237865323Y-206421614D01*
X237869641Y-206401099D01*
X240795218Y-192637342D01*
X240795300Y-192636964D01*
X240796875Y-192629740D01*
X240796878Y-192629737D01*
X240796803Y-192629329D01*
X240796462Y-192629095D01*
X240796461Y-192629094D01*
X240773335Y-192624097D01*
X240772701Y-192624086D01*
X235152814Y-191429542D01*
X258958583Y-191429542D01*
X258958657Y-191429944D01*
X258958658Y-191429945D01*
X258958659Y-191429946D01*
X258959001Y-191430180D01*
X258959002Y-191430179D01*
X258974124Y-191433352D01*
X272726900Y-194356595D01*
X272727683Y-194356929D01*
X272745494Y-194360618D01*
X272750270Y-194361850D01*
X272750368Y-194361832D01*
X272751181Y-194361679D01*
X272751289Y-194361659D01*
X272751524Y-194361318D01*
X272751523Y-194361314D01*
X272755841Y-194340799D01*
X275588326Y-181015005D01*
X292061738Y-181015005D01*
X292080765Y-181317451D01*
X292080766Y-181317455D01*
X292080766Y-181317459D01*
X292080767Y-181317462D01*
X292137555Y-181615154D01*
X292137557Y-181615159D01*
X292231203Y-181903374D01*
X292231204Y-181903375D01*
X292231206Y-181903381D01*
X292360242Y-182177598D01*
X292360246Y-182177605D01*
X292360247Y-182177606D01*
X292522626Y-182433475D01*
X292522629Y-182433479D01*
X292522630Y-182433480D01*
X292715808Y-182666992D01*
X292936727Y-182874448D01*
X292936737Y-182874456D01*
X293181898Y-183052576D01*
X293181903Y-183052578D01*
X293181910Y-183052584D01*
X293447483Y-183198585D01*
X293447488Y-183198587D01*
X293447490Y-183198588D01*
X293447491Y-183198589D01*
X293729257Y-183310148D01*
X293729260Y-183310149D01*
X293827107Y-183335271D01*
X294022800Y-183385516D01*
X294170028Y-183404115D01*
X294323460Y-183423499D01*
X294323466Y-183423499D01*
X294323470Y-183423500D01*
X294323472Y-183423500D01*
X294626528Y-183423500D01*
X294626530Y-183423500D01*
X294626535Y-183423499D01*
X294626539Y-183423499D01*
X294706357Y-183413415D01*
X294927200Y-183385516D01*
X295220739Y-183310149D01*
X295220742Y-183310148D01*
X295502508Y-183198589D01*
X295502509Y-183198588D01*
X295502507Y-183198588D01*
X295502517Y-183198585D01*
X295768090Y-183052584D01*
X296013271Y-182874450D01*
X296234192Y-182666992D01*
X296427370Y-182433480D01*
X296589758Y-182177598D01*
X296718794Y-181903381D01*
X296812445Y-181615154D01*
X296869233Y-181317462D01*
X296869234Y-181317451D01*
X296888262Y-181015005D01*
X296888262Y-181014994D01*
X296869234Y-180712548D01*
X296869233Y-180712544D01*
X296869233Y-180712538D01*
X296842328Y-180571496D01*
X313297022Y-180571496D01*
X313301919Y-180594835D01*
X313302125Y-180595319D01*
X316223568Y-194339619D01*
X316223577Y-194340168D01*
X316228577Y-194363378D01*
X316228577Y-194363379D01*
X316228811Y-194363721D01*
X316229113Y-194363777D01*
X316229113Y-194363776D01*
X316229690Y-194363886D01*
X316229727Y-194363893D01*
X316234099Y-194362747D01*
X316247350Y-194359899D01*
X324377434Y-192631796D01*
X348183122Y-192631796D01*
X348188019Y-192655135D01*
X348188225Y-192655619D01*
X351109668Y-206399919D01*
X351109677Y-206400468D01*
X351114677Y-206423678D01*
X351114677Y-206423679D01*
X351114911Y-206424021D01*
X351115213Y-206424077D01*
X351115213Y-206424076D01*
X351115790Y-206424186D01*
X351115827Y-206424193D01*
X351120199Y-206423047D01*
X351133450Y-206420199D01*
X364886681Y-203496859D01*
X364907196Y-203492541D01*
X364907200Y-203492542D01*
X364907541Y-203492307D01*
X364907597Y-203492005D01*
X364907596Y-203492004D01*
X364907683Y-203491548D01*
X364906926Y-203487245D01*
X364906124Y-203481561D01*
X364904378Y-203476559D01*
X364902525Y-203467785D01*
X364902373Y-203467434D01*
X361980270Y-189720015D01*
X361976061Y-189700021D01*
X361976062Y-189700018D01*
X361976060Y-189700015D01*
X361975828Y-189699676D01*
X361975826Y-189699675D01*
X361975424Y-189699601D01*
X361952629Y-189704339D01*
X361951930Y-189704635D01*
X348207400Y-192626126D01*
X348206951Y-192626133D01*
X348183538Y-192631156D01*
X348183197Y-192631390D01*
X348183196Y-192631391D01*
X348183122Y-192631796D01*
X324377434Y-192631796D01*
X330000581Y-191436559D01*
X330021096Y-191432241D01*
X330021100Y-191432242D01*
X330021441Y-191432007D01*
X330021497Y-191431705D01*
X330021496Y-191431704D01*
X330021583Y-191431248D01*
X330020826Y-191426945D01*
X330020024Y-191421261D01*
X330018278Y-191416259D01*
X330016425Y-191407485D01*
X330016273Y-191407134D01*
X327094170Y-177659715D01*
X327089961Y-177639721D01*
X327089962Y-177639718D01*
X327089960Y-177639715D01*
X327089728Y-177639376D01*
X327089726Y-177639375D01*
X327089324Y-177639301D01*
X327066529Y-177644039D01*
X327065830Y-177644335D01*
X313321300Y-180565826D01*
X313320851Y-180565833D01*
X313297438Y-180570856D01*
X313297097Y-180571090D01*
X313297096Y-180571091D01*
X313297022Y-180571496D01*
X296842328Y-180571496D01*
X296812445Y-180414846D01*
X296718794Y-180126619D01*
X296589758Y-179852402D01*
X296427370Y-179596520D01*
X296234192Y-179363008D01*
X296013271Y-179155550D01*
X296013268Y-179155548D01*
X296013262Y-179155543D01*
X295768101Y-178977423D01*
X295768094Y-178977418D01*
X295768090Y-178977416D01*
X295502517Y-178831415D01*
X295502514Y-178831413D01*
X295502509Y-178831411D01*
X295502508Y-178831410D01*
X295220742Y-178719851D01*
X295220739Y-178719850D01*
X294927197Y-178644483D01*
X294626539Y-178606500D01*
X294626530Y-178606500D01*
X294323470Y-178606500D01*
X294323460Y-178606500D01*
X294022802Y-178644483D01*
X293729260Y-178719850D01*
X293729257Y-178719851D01*
X293447491Y-178831410D01*
X293447490Y-178831411D01*
X293181910Y-178977416D01*
X293181898Y-178977423D01*
X292936737Y-179155543D01*
X292936727Y-179155551D01*
X292715810Y-179363006D01*
X292522626Y-179596524D01*
X292360247Y-179852393D01*
X292360244Y-179852397D01*
X292360242Y-179852402D01*
X292231206Y-180126619D01*
X292231204Y-180126624D01*
X292231203Y-180126625D01*
X292141850Y-180401626D01*
X292137555Y-180414846D01*
X292103128Y-180595319D01*
X292080766Y-180712544D01*
X292080765Y-180712548D01*
X292061738Y-181014994D01*
X292061738Y-181015005D01*
X275588326Y-181015005D01*
X275681418Y-180577042D01*
X275681500Y-180576664D01*
X275683075Y-180569440D01*
X275683078Y-180569437D01*
X275683003Y-180569029D01*
X275682662Y-180568795D01*
X275682661Y-180568794D01*
X275659535Y-180563797D01*
X275658901Y-180563786D01*
X261904493Y-177640196D01*
X261904138Y-177640120D01*
X261890777Y-177637239D01*
X261890374Y-177637313D01*
X261890372Y-177637314D01*
X261890138Y-177637657D01*
X261885115Y-177661069D01*
X261885108Y-177661518D01*
X258963617Y-191406048D01*
X258963321Y-191406747D01*
X258958583Y-191429542D01*
X235152814Y-191429542D01*
X227018293Y-189700496D01*
X227017938Y-189700420D01*
X227004577Y-189697539D01*
X227004174Y-189697613D01*
X227004172Y-189697614D01*
X227003938Y-189697957D01*
X226998915Y-189721369D01*
X226998908Y-189721818D01*
X224077417Y-203466348D01*
X224077121Y-203467047D01*
X224072383Y-203489842D01*
X139476785Y-203489842D01*
X139476785Y-200313192D01*
X159239501Y-200313192D01*
X159239544Y-200337303D01*
X159239585Y-200337402D01*
X159239702Y-200337686D01*
X159239703Y-200337687D01*
X159239893Y-200337765D01*
X159240085Y-200337844D01*
X159240087Y-200337842D01*
X159264701Y-200337827D01*
X159264701Y-200337831D01*
X159264845Y-200337803D01*
X173315325Y-200337803D01*
X173315468Y-200337831D01*
X173315469Y-200337827D01*
X173340082Y-200337842D01*
X173340085Y-200337844D01*
X173340468Y-200337686D01*
X173340585Y-200337402D01*
X173340626Y-200337303D01*
X173340625Y-200337300D01*
X173340668Y-200313192D01*
X173340585Y-200312770D01*
X173340585Y-200303192D01*
X185427001Y-200303192D01*
X185427044Y-200327303D01*
X185427085Y-200327402D01*
X185427202Y-200327686D01*
X185427203Y-200327687D01*
X185427393Y-200327765D01*
X185427585Y-200327844D01*
X185427587Y-200327842D01*
X185452201Y-200327827D01*
X185452201Y-200327831D01*
X185452345Y-200327803D01*
X199502825Y-200327803D01*
X199502968Y-200327831D01*
X199502969Y-200327827D01*
X199527582Y-200327842D01*
X199527585Y-200327844D01*
X199527968Y-200327686D01*
X199528085Y-200327402D01*
X199528126Y-200327303D01*
X199528125Y-200327300D01*
X199528168Y-200303192D01*
X199528085Y-200302770D01*
X199528085Y-199529142D01*
X205438683Y-199529142D01*
X205438757Y-199529544D01*
X205438758Y-199529545D01*
X205438759Y-199529546D01*
X205439101Y-199529780D01*
X205439102Y-199529779D01*
X205454224Y-199532952D01*
X219207000Y-202456195D01*
X219207783Y-202456529D01*
X219225594Y-202460218D01*
X219230370Y-202461450D01*
X219230468Y-202461432D01*
X219231281Y-202461279D01*
X219231389Y-202461259D01*
X219231624Y-202460918D01*
X219231623Y-202460914D01*
X219235941Y-202440399D01*
X222161518Y-188676642D01*
X222161600Y-188676264D01*
X222163175Y-188669040D01*
X222163178Y-188669037D01*
X222163103Y-188668629D01*
X222162762Y-188668395D01*
X222162761Y-188668394D01*
X222139635Y-188663397D01*
X222139001Y-188663386D01*
X216519114Y-187468842D01*
X240324783Y-187468842D01*
X240324857Y-187469244D01*
X240324858Y-187469245D01*
X240324859Y-187469246D01*
X240325201Y-187469480D01*
X240325202Y-187469479D01*
X240340324Y-187472652D01*
X254093100Y-190395895D01*
X254093883Y-190396229D01*
X254111694Y-190399918D01*
X254116470Y-190401150D01*
X254116568Y-190401132D01*
X254117381Y-190400979D01*
X254117489Y-190400959D01*
X254117724Y-190400618D01*
X254117723Y-190400614D01*
X254122041Y-190380099D01*
X257047618Y-176616342D01*
X257047700Y-176615964D01*
X257049275Y-176608740D01*
X257049278Y-176608737D01*
X257049203Y-176608329D01*
X257048862Y-176608095D01*
X257048861Y-176608094D01*
X257025735Y-176603097D01*
X257025101Y-176603086D01*
X244345917Y-173908042D01*
X268151983Y-173908042D01*
X268152057Y-173908444D01*
X268152058Y-173908445D01*
X268152059Y-173908446D01*
X268152401Y-173908680D01*
X268152402Y-173908679D01*
X268167524Y-173911852D01*
X281920300Y-176835095D01*
X281921083Y-176835429D01*
X281938894Y-176839118D01*
X281943670Y-176840350D01*
X281943768Y-176840332D01*
X281944581Y-176840179D01*
X281944689Y-176840159D01*
X281944924Y-176839818D01*
X281944923Y-176839814D01*
X281949241Y-176819299D01*
X284874818Y-163055542D01*
X284874900Y-163055164D01*
X284876005Y-163050096D01*
X304103522Y-163050096D01*
X304108419Y-163073435D01*
X304108625Y-163073919D01*
X307030068Y-176818219D01*
X307030077Y-176818768D01*
X307035077Y-176841978D01*
X307035077Y-176841979D01*
X307035311Y-176842321D01*
X307035613Y-176842377D01*
X307035613Y-176842376D01*
X307036190Y-176842486D01*
X307036227Y-176842493D01*
X307040599Y-176841347D01*
X307053850Y-176838499D01*
X308125108Y-176610796D01*
X331930722Y-176610796D01*
X331935619Y-176634135D01*
X331935825Y-176634619D01*
X334857268Y-190378919D01*
X334857277Y-190379468D01*
X334862277Y-190402678D01*
X334862277Y-190402679D01*
X334862511Y-190403021D01*
X334862813Y-190403077D01*
X334862813Y-190403076D01*
X334863390Y-190403186D01*
X334863427Y-190403193D01*
X334867799Y-190402047D01*
X334881050Y-190399199D01*
X343011134Y-188671096D01*
X366816822Y-188671096D01*
X366821719Y-188694435D01*
X366821925Y-188694919D01*
X369743368Y-202439219D01*
X369743377Y-202439768D01*
X369748377Y-202462978D01*
X369748377Y-202462979D01*
X369748611Y-202463321D01*
X369748913Y-202463377D01*
X369748913Y-202463376D01*
X369749490Y-202463486D01*
X369749527Y-202463493D01*
X369753899Y-202462347D01*
X369767150Y-202459499D01*
X370478993Y-202308192D01*
X431012951Y-202308192D01*
X431012994Y-202332303D01*
X431013035Y-202332402D01*
X431013152Y-202332686D01*
X431013153Y-202332687D01*
X431013343Y-202332765D01*
X431013535Y-202332844D01*
X431013537Y-202332842D01*
X431038151Y-202332827D01*
X431038151Y-202332831D01*
X431038295Y-202332803D01*
X437988775Y-202332803D01*
X437988918Y-202332831D01*
X437988919Y-202332827D01*
X438013532Y-202332842D01*
X438013535Y-202332844D01*
X438013918Y-202332686D01*
X438014035Y-202332402D01*
X438014076Y-202332303D01*
X438014075Y-202332300D01*
X438014118Y-202308192D01*
X438014035Y-202307770D01*
X438014035Y-200456803D01*
X438033720Y-200389764D01*
X438086524Y-200344009D01*
X438138035Y-200332803D01*
X446513436Y-200332803D01*
X454889035Y-200332803D01*
X454956074Y-200352488D01*
X455001829Y-200405292D01*
X455013035Y-200456803D01*
X455013035Y-202307770D01*
X455012951Y-202308192D01*
X455012994Y-202332303D01*
X455013035Y-202332402D01*
X455013152Y-202332686D01*
X455013153Y-202332687D01*
X455013343Y-202332765D01*
X455013535Y-202332844D01*
X455013537Y-202332842D01*
X455038151Y-202332827D01*
X455038151Y-202332831D01*
X455038295Y-202332803D01*
X461988775Y-202332803D01*
X461988918Y-202332831D01*
X461988919Y-202332827D01*
X462013532Y-202332842D01*
X462013535Y-202332844D01*
X462013918Y-202332686D01*
X462014035Y-202332402D01*
X462014076Y-202332303D01*
X462014075Y-202332300D01*
X462014118Y-202308192D01*
X462014035Y-202307770D01*
X462014035Y-187257062D01*
X462014063Y-187256919D01*
X462014059Y-187256919D01*
X462014074Y-187232305D01*
X462014076Y-187232303D01*
X462013997Y-187232111D01*
X462013919Y-187231921D01*
X462013915Y-187231917D01*
X462013729Y-187231841D01*
X462013537Y-187231762D01*
X461988981Y-187231762D01*
X461988775Y-187231803D01*
X453688035Y-187231803D01*
X453620996Y-187212118D01*
X453575241Y-187159314D01*
X453564035Y-187107803D01*
X453564035Y-186384808D01*
X468453023Y-186384808D01*
X468472050Y-186687254D01*
X468472051Y-186687258D01*
X468472051Y-186687262D01*
X468472052Y-186687265D01*
X468528840Y-186984957D01*
X468528842Y-186984962D01*
X468622488Y-187273177D01*
X468622489Y-187273178D01*
X468622491Y-187273184D01*
X468751527Y-187547401D01*
X468751531Y-187547408D01*
X468751532Y-187547409D01*
X468913911Y-187803278D01*
X468913914Y-187803282D01*
X468913915Y-187803283D01*
X469107093Y-188036795D01*
X469328012Y-188244251D01*
X469328022Y-188244259D01*
X469573183Y-188422379D01*
X469573188Y-188422381D01*
X469573195Y-188422387D01*
X469838768Y-188568388D01*
X469838773Y-188568390D01*
X469838775Y-188568391D01*
X469838776Y-188568392D01*
X470120542Y-188679951D01*
X470120545Y-188679952D01*
X470176954Y-188694435D01*
X470414085Y-188755319D01*
X470561313Y-188773918D01*
X470714745Y-188793302D01*
X470714751Y-188793302D01*
X470714755Y-188793303D01*
X470714757Y-188793303D01*
X471017813Y-188793303D01*
X471017815Y-188793303D01*
X471017820Y-188793302D01*
X471017824Y-188793302D01*
X471097642Y-188783218D01*
X471318485Y-188755319D01*
X471612024Y-188679952D01*
X471621339Y-188676264D01*
X471893793Y-188568392D01*
X471893794Y-188568391D01*
X471893792Y-188568391D01*
X471893802Y-188568388D01*
X472159375Y-188422387D01*
X472404556Y-188244253D01*
X472625477Y-188036795D01*
X472818655Y-187803283D01*
X472981043Y-187547401D01*
X473110079Y-187273184D01*
X473203730Y-186984957D01*
X473260518Y-186687265D01*
X473275925Y-186442373D01*
X473279547Y-186384808D01*
X473279547Y-186384797D01*
X473260519Y-186082351D01*
X473260518Y-186082347D01*
X473260518Y-186082341D01*
X473203730Y-185784649D01*
X473110079Y-185496422D01*
X472981043Y-185222205D01*
X472818655Y-184966323D01*
X472625477Y-184732811D01*
X472404556Y-184525353D01*
X472404553Y-184525351D01*
X472404547Y-184525346D01*
X472159386Y-184347226D01*
X472159379Y-184347221D01*
X472159375Y-184347219D01*
X471893802Y-184201218D01*
X471893799Y-184201216D01*
X471893794Y-184201214D01*
X471893793Y-184201213D01*
X471612027Y-184089654D01*
X471612024Y-184089653D01*
X471318482Y-184014286D01*
X471017824Y-183976303D01*
X471017815Y-183976303D01*
X470714755Y-183976303D01*
X470714745Y-183976303D01*
X470414087Y-184014286D01*
X470120545Y-184089653D01*
X470120542Y-184089654D01*
X469838776Y-184201213D01*
X469838775Y-184201214D01*
X469573195Y-184347219D01*
X469573183Y-184347226D01*
X469328022Y-184525346D01*
X469328012Y-184525354D01*
X469107095Y-184732809D01*
X468913911Y-184966327D01*
X468751532Y-185222196D01*
X468751529Y-185222200D01*
X468751527Y-185222205D01*
X468622491Y-185496422D01*
X468622489Y-185496427D01*
X468622488Y-185496428D01*
X468543438Y-185739720D01*
X468528840Y-185784649D01*
X468472052Y-186082341D01*
X468472051Y-186082347D01*
X468472050Y-186082351D01*
X468453023Y-186384797D01*
X468453023Y-186384808D01*
X453564035Y-186384808D01*
X453564035Y-186257062D01*
X453564063Y-186256919D01*
X453564059Y-186256919D01*
X453564074Y-186232305D01*
X453564076Y-186232303D01*
X453563997Y-186232111D01*
X453563919Y-186231921D01*
X453563915Y-186231917D01*
X453563729Y-186231841D01*
X453563537Y-186231762D01*
X453538981Y-186231762D01*
X453538775Y-186231803D01*
X439488295Y-186231803D01*
X439488089Y-186231762D01*
X439463533Y-186231762D01*
X439463342Y-186231841D01*
X439463154Y-186231918D01*
X439463150Y-186231921D01*
X439462994Y-186232302D01*
X439463011Y-186256919D01*
X439463006Y-186256919D01*
X439463035Y-186257062D01*
X439463035Y-187107803D01*
X439443350Y-187174842D01*
X439390546Y-187220597D01*
X439339035Y-187231803D01*
X431038295Y-187231803D01*
X431038089Y-187231762D01*
X431013533Y-187231762D01*
X431013342Y-187231841D01*
X431013154Y-187231918D01*
X431013150Y-187231921D01*
X431012994Y-187232302D01*
X431013011Y-187256919D01*
X431013006Y-187256919D01*
X431013035Y-187257062D01*
X431013035Y-202307770D01*
X431012951Y-202308192D01*
X370478993Y-202308192D01*
X379911775Y-200303192D01*
X389451701Y-200303192D01*
X389451744Y-200327303D01*
X389451785Y-200327402D01*
X389451902Y-200327686D01*
X389451903Y-200327687D01*
X389452093Y-200327765D01*
X389452285Y-200327844D01*
X389452287Y-200327842D01*
X389476901Y-200327827D01*
X389476901Y-200327831D01*
X389477045Y-200327803D01*
X403527525Y-200327803D01*
X403527668Y-200327831D01*
X403527669Y-200327827D01*
X403552282Y-200327842D01*
X403552285Y-200327844D01*
X403552668Y-200327686D01*
X403552785Y-200327402D01*
X403552826Y-200327303D01*
X403552825Y-200327300D01*
X403552868Y-200303192D01*
X408501701Y-200303192D01*
X408501744Y-200327303D01*
X408501785Y-200327402D01*
X408501902Y-200327686D01*
X408501903Y-200327687D01*
X408502093Y-200327765D01*
X408502285Y-200327844D01*
X408502287Y-200327842D01*
X408526901Y-200327827D01*
X408526901Y-200327831D01*
X408527045Y-200327803D01*
X422577525Y-200327803D01*
X422577668Y-200327831D01*
X422577669Y-200327827D01*
X422602282Y-200327842D01*
X422602285Y-200327844D01*
X422602668Y-200327686D01*
X422602785Y-200327402D01*
X422602826Y-200327303D01*
X422602825Y-200327300D01*
X422602868Y-200303192D01*
X422602785Y-200302770D01*
X422602785Y-186252062D01*
X422602813Y-186251919D01*
X422602809Y-186251919D01*
X422602824Y-186227305D01*
X422602826Y-186227303D01*
X422602747Y-186227111D01*
X422602669Y-186226921D01*
X422602665Y-186226917D01*
X422602479Y-186226841D01*
X422602287Y-186226762D01*
X422577731Y-186226762D01*
X422577525Y-186226803D01*
X408527045Y-186226803D01*
X408526839Y-186226762D01*
X408502283Y-186226762D01*
X408502092Y-186226841D01*
X408501904Y-186226918D01*
X408501900Y-186226921D01*
X408501744Y-186227302D01*
X408501761Y-186251919D01*
X408501756Y-186251919D01*
X408501785Y-186252062D01*
X408501785Y-200302770D01*
X408501701Y-200303192D01*
X403552868Y-200303192D01*
X403552785Y-200302770D01*
X403552785Y-186252062D01*
X403552813Y-186251919D01*
X403552809Y-186251919D01*
X403552824Y-186227305D01*
X403552826Y-186227303D01*
X403552747Y-186227111D01*
X403552669Y-186226921D01*
X403552665Y-186226917D01*
X403552479Y-186226841D01*
X403552287Y-186226762D01*
X403527731Y-186226762D01*
X403527525Y-186226803D01*
X389477045Y-186226803D01*
X389476839Y-186226762D01*
X389452283Y-186226762D01*
X389452092Y-186226841D01*
X389451904Y-186226918D01*
X389451900Y-186226921D01*
X389451744Y-186227302D01*
X389451761Y-186251919D01*
X389451756Y-186251919D01*
X389451785Y-186252062D01*
X389451785Y-200302770D01*
X389451701Y-200303192D01*
X379911775Y-200303192D01*
X383520381Y-199536159D01*
X383540896Y-199531841D01*
X383540900Y-199531842D01*
X383541241Y-199531607D01*
X383541297Y-199531305D01*
X383541296Y-199531304D01*
X383541383Y-199530848D01*
X383540626Y-199526545D01*
X383539824Y-199520861D01*
X383538078Y-199515859D01*
X383536225Y-199507085D01*
X383536073Y-199506734D01*
X380613970Y-185759315D01*
X380609761Y-185739321D01*
X380609762Y-185739318D01*
X380609760Y-185739315D01*
X380609528Y-185738976D01*
X380609526Y-185738975D01*
X380609124Y-185738901D01*
X380586329Y-185743639D01*
X380585630Y-185743935D01*
X366841100Y-188665426D01*
X366840651Y-188665433D01*
X366817238Y-188670456D01*
X366816897Y-188670690D01*
X366816896Y-188670691D01*
X366816822Y-188671096D01*
X343011134Y-188671096D01*
X348634281Y-187475859D01*
X348654796Y-187471541D01*
X348654800Y-187471542D01*
X348655141Y-187471307D01*
X348655197Y-187471005D01*
X348655196Y-187471004D01*
X348655283Y-187470548D01*
X348654526Y-187466245D01*
X348653724Y-187460561D01*
X348651978Y-187455559D01*
X348650125Y-187446785D01*
X348649973Y-187446434D01*
X345727870Y-173699015D01*
X345723661Y-173679021D01*
X345723662Y-173679018D01*
X345723660Y-173679015D01*
X345723428Y-173678676D01*
X345723426Y-173678675D01*
X345723024Y-173678601D01*
X345700229Y-173683339D01*
X345699530Y-173683635D01*
X331955000Y-176605126D01*
X331954551Y-176605133D01*
X331931138Y-176610156D01*
X331930797Y-176610390D01*
X331930796Y-176610391D01*
X331930722Y-176610796D01*
X308125108Y-176610796D01*
X320807081Y-173915159D01*
X320827596Y-173910841D01*
X320827600Y-173910842D01*
X320827941Y-173910607D01*
X320827997Y-173910305D01*
X320827996Y-173910304D01*
X320828083Y-173909848D01*
X320827326Y-173905545D01*
X320826524Y-173899861D01*
X320824778Y-173894859D01*
X320822925Y-173886085D01*
X320822773Y-173885734D01*
X317900670Y-160138315D01*
X317896461Y-160118321D01*
X317896462Y-160118318D01*
X317896460Y-160118315D01*
X317896228Y-160117976D01*
X317896226Y-160117975D01*
X317895824Y-160117901D01*
X317873029Y-160122639D01*
X317872330Y-160122935D01*
X304127800Y-163044426D01*
X304127351Y-163044433D01*
X304103938Y-163049456D01*
X304103597Y-163049690D01*
X304103596Y-163049691D01*
X304103522Y-163050096D01*
X284876005Y-163050096D01*
X284876475Y-163047940D01*
X284876478Y-163047937D01*
X284876403Y-163047529D01*
X284876062Y-163047295D01*
X284876061Y-163047294D01*
X284852935Y-163042297D01*
X284852301Y-163042286D01*
X271097893Y-160118696D01*
X271097538Y-160118620D01*
X271084177Y-160115739D01*
X271083774Y-160115813D01*
X271083772Y-160115814D01*
X271083538Y-160116157D01*
X271078515Y-160139569D01*
X271078508Y-160140018D01*
X268157017Y-173884548D01*
X268156721Y-173885247D01*
X268151983Y-173908042D01*
X244345917Y-173908042D01*
X243270693Y-173679496D01*
X243270338Y-173679420D01*
X243256977Y-173676539D01*
X243256574Y-173676613D01*
X243256572Y-173676614D01*
X243256338Y-173676957D01*
X243251315Y-173700369D01*
X243251308Y-173700818D01*
X240329817Y-187445348D01*
X240329521Y-187446047D01*
X240324783Y-187468842D01*
X216519114Y-187468842D01*
X208384593Y-185739796D01*
X208384238Y-185739720D01*
X208370877Y-185736839D01*
X208370474Y-185736913D01*
X208370472Y-185736914D01*
X208370238Y-185737257D01*
X208365215Y-185760669D01*
X208365208Y-185761118D01*
X205443717Y-199505648D01*
X205443421Y-199506347D01*
X205438683Y-199529142D01*
X199528085Y-199529142D01*
X199528085Y-186252062D01*
X199528113Y-186251919D01*
X199528109Y-186251919D01*
X199528124Y-186227305D01*
X199528126Y-186227303D01*
X199528047Y-186227111D01*
X199527969Y-186226921D01*
X199527965Y-186226917D01*
X199527779Y-186226841D01*
X199527587Y-186226762D01*
X199503031Y-186226762D01*
X199502825Y-186226803D01*
X185452345Y-186226803D01*
X185452139Y-186226762D01*
X185427583Y-186226762D01*
X185427392Y-186226841D01*
X185427204Y-186226918D01*
X185427200Y-186226921D01*
X185427044Y-186227302D01*
X185427061Y-186251919D01*
X185427056Y-186251919D01*
X185427085Y-186252062D01*
X185427085Y-200302770D01*
X185427001Y-200303192D01*
X173340585Y-200303192D01*
X173340585Y-186262062D01*
X173340613Y-186261919D01*
X173340609Y-186261919D01*
X173340624Y-186237305D01*
X173340626Y-186237303D01*
X173340547Y-186237111D01*
X173340469Y-186236921D01*
X173340465Y-186236917D01*
X173340279Y-186236841D01*
X173340087Y-186236762D01*
X173315531Y-186236762D01*
X173315325Y-186236803D01*
X159264845Y-186236803D01*
X159264639Y-186236762D01*
X159240083Y-186236762D01*
X159239892Y-186236841D01*
X159239704Y-186236918D01*
X159239700Y-186236921D01*
X159239544Y-186237302D01*
X159239561Y-186261919D01*
X159239556Y-186261919D01*
X159239585Y-186262062D01*
X159239585Y-200312770D01*
X159239501Y-200313192D01*
X139476785Y-200313192D01*
X139476785Y-183508142D01*
X221691083Y-183508142D01*
X221691157Y-183508544D01*
X221691158Y-183508545D01*
X221691159Y-183508546D01*
X221691501Y-183508780D01*
X221691502Y-183508779D01*
X221706624Y-183511952D01*
X235459400Y-186435195D01*
X235460183Y-186435529D01*
X235477994Y-186439218D01*
X235482770Y-186440450D01*
X235482868Y-186440432D01*
X235483681Y-186440279D01*
X235483789Y-186440259D01*
X235484024Y-186439918D01*
X235484023Y-186439914D01*
X235488341Y-186419399D01*
X238413918Y-172655642D01*
X238414000Y-172655264D01*
X238415575Y-172648040D01*
X238415578Y-172648037D01*
X238415503Y-172647629D01*
X238415162Y-172647395D01*
X238415161Y-172647394D01*
X238392035Y-172642397D01*
X238391401Y-172642386D01*
X225712217Y-169947342D01*
X249518283Y-169947342D01*
X249518357Y-169947744D01*
X249518358Y-169947745D01*
X249518359Y-169947746D01*
X249518701Y-169947980D01*
X249518702Y-169947979D01*
X249533824Y-169951152D01*
X263286600Y-172874395D01*
X263287383Y-172874729D01*
X263305194Y-172878418D01*
X263309970Y-172879650D01*
X263310068Y-172879632D01*
X263310881Y-172879479D01*
X263310989Y-172879459D01*
X263311224Y-172879118D01*
X263311223Y-172879114D01*
X263315541Y-172858599D01*
X266241118Y-159094842D01*
X266241200Y-159094464D01*
X266242327Y-159089296D01*
X322737222Y-159089296D01*
X322742119Y-159112635D01*
X322742325Y-159113119D01*
X325663768Y-172857419D01*
X325663777Y-172857968D01*
X325668777Y-172881178D01*
X325668777Y-172881179D01*
X325669011Y-172881521D01*
X325669313Y-172881577D01*
X325669313Y-172881576D01*
X325669890Y-172881686D01*
X325669927Y-172881693D01*
X325674299Y-172880547D01*
X325687550Y-172877699D01*
X326758338Y-172650096D01*
X350564422Y-172650096D01*
X350569319Y-172673435D01*
X350569525Y-172673919D01*
X353490968Y-186418219D01*
X353490977Y-186418768D01*
X353495977Y-186441978D01*
X353495977Y-186441979D01*
X353496211Y-186442321D01*
X353496513Y-186442377D01*
X353496513Y-186442376D01*
X353497090Y-186442486D01*
X353497127Y-186442493D01*
X353501499Y-186441347D01*
X353514750Y-186438499D01*
X367267981Y-183515159D01*
X367288496Y-183510841D01*
X367288500Y-183510842D01*
X367288841Y-183510607D01*
X367288897Y-183510305D01*
X367288896Y-183510304D01*
X367288983Y-183509848D01*
X367288226Y-183505545D01*
X367287424Y-183499861D01*
X367285678Y-183494859D01*
X367283825Y-183486085D01*
X367283673Y-183485734D01*
X364361570Y-169738315D01*
X364357361Y-169718321D01*
X364357362Y-169718318D01*
X364357360Y-169718315D01*
X364357128Y-169717976D01*
X364357126Y-169717975D01*
X364356724Y-169717901D01*
X364333929Y-169722639D01*
X364333230Y-169722935D01*
X350588700Y-172644426D01*
X350588251Y-172644433D01*
X350564838Y-172649456D01*
X350564497Y-172649690D01*
X350564496Y-172649691D01*
X350564422Y-172650096D01*
X326758338Y-172650096D01*
X339440781Y-169954359D01*
X339461296Y-169950041D01*
X339461300Y-169950042D01*
X339461641Y-169949807D01*
X339461697Y-169949505D01*
X339461696Y-169949504D01*
X339461783Y-169949048D01*
X339461026Y-169944745D01*
X339460224Y-169939061D01*
X339458478Y-169934059D01*
X339456625Y-169925285D01*
X339456473Y-169924934D01*
X336534370Y-156177515D01*
X336530161Y-156157521D01*
X336530162Y-156157518D01*
X336530160Y-156157515D01*
X336529928Y-156157176D01*
X336529926Y-156157175D01*
X336529524Y-156157101D01*
X336506729Y-156161839D01*
X336506030Y-156162135D01*
X322761500Y-159083626D01*
X322761051Y-159083633D01*
X322737638Y-159088656D01*
X322737297Y-159088890D01*
X322737296Y-159088891D01*
X322737222Y-159089296D01*
X266242327Y-159089296D01*
X266242775Y-159087240D01*
X266242778Y-159087237D01*
X266242703Y-159086829D01*
X266242362Y-159086595D01*
X266242361Y-159086594D01*
X266219235Y-159081597D01*
X266218601Y-159081586D01*
X252464193Y-156157996D01*
X252463838Y-156157920D01*
X252450477Y-156155039D01*
X252450074Y-156155113D01*
X252450072Y-156155114D01*
X252449838Y-156155457D01*
X252444815Y-156178869D01*
X252444808Y-156179318D01*
X249523317Y-169923848D01*
X249523021Y-169924547D01*
X249518283Y-169947342D01*
X225712217Y-169947342D01*
X224636993Y-169718796D01*
X224636638Y-169718720D01*
X224623277Y-169715839D01*
X224622874Y-169715913D01*
X224622872Y-169715914D01*
X224622638Y-169716257D01*
X224617615Y-169739669D01*
X224617608Y-169740118D01*
X221696117Y-183484648D01*
X221695821Y-183485347D01*
X221691083Y-183508142D01*
X139476785Y-183508142D01*
X139476785Y-181263192D01*
X159240701Y-181263192D01*
X159240744Y-181287303D01*
X159240785Y-181287402D01*
X159240902Y-181287686D01*
X159240903Y-181287687D01*
X159241093Y-181287765D01*
X159241285Y-181287844D01*
X159241287Y-181287842D01*
X159265901Y-181287827D01*
X159265901Y-181287831D01*
X159266045Y-181287803D01*
X173316525Y-181287803D01*
X173316668Y-181287831D01*
X173316669Y-181287827D01*
X173341282Y-181287842D01*
X173341285Y-181287844D01*
X173341668Y-181287686D01*
X173341785Y-181287402D01*
X173341826Y-181287303D01*
X173341825Y-181287300D01*
X173341868Y-181263192D01*
X173341785Y-181262770D01*
X173341785Y-181253192D01*
X183045701Y-181253192D01*
X183045744Y-181277303D01*
X183045785Y-181277402D01*
X183045902Y-181277686D01*
X183045903Y-181277687D01*
X183046093Y-181277765D01*
X183046285Y-181277844D01*
X183046287Y-181277842D01*
X183070901Y-181277827D01*
X183070901Y-181277831D01*
X183071045Y-181277803D01*
X197121525Y-181277803D01*
X197121668Y-181277831D01*
X197121669Y-181277827D01*
X197146282Y-181277842D01*
X197146285Y-181277844D01*
X197146668Y-181277686D01*
X197146785Y-181277402D01*
X197146826Y-181277303D01*
X197146825Y-181277300D01*
X197146868Y-181253192D01*
X197146785Y-181252770D01*
X197146785Y-179547342D01*
X203057383Y-179547342D01*
X203057457Y-179547744D01*
X203057458Y-179547745D01*
X203057459Y-179547746D01*
X203057801Y-179547980D01*
X203057802Y-179547979D01*
X203072924Y-179551152D01*
X216825700Y-182474395D01*
X216826483Y-182474729D01*
X216844294Y-182478418D01*
X216849070Y-182479650D01*
X216849168Y-182479632D01*
X216849981Y-182479479D01*
X216850089Y-182479459D01*
X216850324Y-182479118D01*
X216850323Y-182479114D01*
X216854641Y-182458599D01*
X219780218Y-168694842D01*
X219780300Y-168694464D01*
X219781875Y-168687240D01*
X219781878Y-168687237D01*
X219781803Y-168686829D01*
X219781462Y-168686595D01*
X219781461Y-168686594D01*
X219758335Y-168681597D01*
X219757701Y-168681586D01*
X207078988Y-165986642D01*
X230884583Y-165986642D01*
X230884657Y-165987044D01*
X230884658Y-165987045D01*
X230884659Y-165987046D01*
X230885001Y-165987280D01*
X230885002Y-165987279D01*
X230900124Y-165990452D01*
X244652900Y-168913695D01*
X244653683Y-168914029D01*
X244671494Y-168917718D01*
X244676270Y-168918950D01*
X244676368Y-168918932D01*
X244677181Y-168918779D01*
X244677289Y-168918759D01*
X244677524Y-168918418D01*
X244677523Y-168918414D01*
X244681841Y-168897899D01*
X247607418Y-155134142D01*
X247607500Y-155133764D01*
X247608627Y-155128596D01*
X341370922Y-155128596D01*
X341375819Y-155151935D01*
X341376025Y-155152419D01*
X344297468Y-168896719D01*
X344297477Y-168897268D01*
X344302477Y-168920478D01*
X344302477Y-168920479D01*
X344302711Y-168920821D01*
X344303013Y-168920877D01*
X344303013Y-168920876D01*
X344303590Y-168920986D01*
X344303627Y-168920993D01*
X344307999Y-168919847D01*
X344321250Y-168916999D01*
X345392038Y-168689396D01*
X369198122Y-168689396D01*
X369203019Y-168712735D01*
X369203225Y-168713219D01*
X372124668Y-182457519D01*
X372124677Y-182458068D01*
X372129677Y-182481278D01*
X372129677Y-182481279D01*
X372129911Y-182481621D01*
X372130213Y-182481677D01*
X372130213Y-182481676D01*
X372130790Y-182481786D01*
X372130827Y-182481793D01*
X372135199Y-182480647D01*
X372148450Y-182477799D01*
X377909772Y-181253192D01*
X391832901Y-181253192D01*
X391832944Y-181277303D01*
X391832985Y-181277402D01*
X391833102Y-181277686D01*
X391833103Y-181277687D01*
X391833293Y-181277765D01*
X391833485Y-181277844D01*
X391833487Y-181277842D01*
X391858101Y-181277827D01*
X391858101Y-181277831D01*
X391858245Y-181277803D01*
X405908725Y-181277803D01*
X405908868Y-181277831D01*
X405908869Y-181277827D01*
X405933482Y-181277842D01*
X405933485Y-181277844D01*
X405933868Y-181277686D01*
X405933985Y-181277402D01*
X405934026Y-181277303D01*
X405934025Y-181277300D01*
X405934068Y-181253192D01*
X410882901Y-181253192D01*
X410882944Y-181277303D01*
X410882985Y-181277402D01*
X410883102Y-181277686D01*
X410883103Y-181277687D01*
X410883293Y-181277765D01*
X410883485Y-181277844D01*
X410883487Y-181277842D01*
X410908101Y-181277827D01*
X410908101Y-181277831D01*
X410908245Y-181277803D01*
X424958725Y-181277803D01*
X424958868Y-181277831D01*
X424958869Y-181277827D01*
X424983482Y-181277842D01*
X424983485Y-181277844D01*
X424983868Y-181277686D01*
X424983985Y-181277402D01*
X424984026Y-181277303D01*
X424984025Y-181277300D01*
X424984068Y-181253192D01*
X429932901Y-181253192D01*
X429932944Y-181277303D01*
X429932985Y-181277402D01*
X429933102Y-181277686D01*
X429933103Y-181277687D01*
X429933293Y-181277765D01*
X429933485Y-181277844D01*
X429933487Y-181277842D01*
X429958101Y-181277827D01*
X429958101Y-181277831D01*
X429958245Y-181277803D01*
X444008725Y-181277803D01*
X444008868Y-181277831D01*
X444008869Y-181277827D01*
X444033482Y-181277842D01*
X444033485Y-181277844D01*
X444033868Y-181277686D01*
X444033985Y-181277402D01*
X444034026Y-181277303D01*
X444034025Y-181277300D01*
X444034050Y-181263192D01*
X453752901Y-181263192D01*
X453752944Y-181287303D01*
X453752985Y-181287402D01*
X453753102Y-181287686D01*
X453753103Y-181287687D01*
X453753293Y-181287765D01*
X453753485Y-181287844D01*
X453753487Y-181287842D01*
X453778101Y-181287827D01*
X453778101Y-181287831D01*
X453778245Y-181287803D01*
X467828725Y-181287803D01*
X467828868Y-181287831D01*
X467828869Y-181287827D01*
X467853482Y-181287842D01*
X467853485Y-181287844D01*
X467853868Y-181287686D01*
X467853985Y-181287402D01*
X467854026Y-181287303D01*
X467854025Y-181287300D01*
X467854068Y-181263192D01*
X467853985Y-181262770D01*
X467853985Y-167212062D01*
X467854013Y-167211919D01*
X467854009Y-167211919D01*
X467854024Y-167187305D01*
X467854026Y-167187303D01*
X467853947Y-167187111D01*
X467853869Y-167186921D01*
X467853865Y-167186917D01*
X467853679Y-167186841D01*
X467853487Y-167186762D01*
X467828931Y-167186762D01*
X467828725Y-167186803D01*
X453778245Y-167186803D01*
X453778039Y-167186762D01*
X453753483Y-167186762D01*
X453753292Y-167186841D01*
X453753104Y-167186918D01*
X453753100Y-167186921D01*
X453752944Y-167187302D01*
X453752961Y-167211919D01*
X453752956Y-167211919D01*
X453752985Y-167212062D01*
X453752985Y-181262770D01*
X453752901Y-181263192D01*
X444034050Y-181263192D01*
X444034068Y-181253192D01*
X444033985Y-181252770D01*
X444033985Y-167202062D01*
X444034013Y-167201919D01*
X444034009Y-167201919D01*
X444034024Y-167177305D01*
X444034026Y-167177303D01*
X444033947Y-167177111D01*
X444033869Y-167176921D01*
X444033865Y-167176917D01*
X444033679Y-167176841D01*
X444033487Y-167176762D01*
X444008931Y-167176762D01*
X444008725Y-167176803D01*
X429958245Y-167176803D01*
X429958039Y-167176762D01*
X429933483Y-167176762D01*
X429933292Y-167176841D01*
X429933104Y-167176918D01*
X429933100Y-167176921D01*
X429932944Y-167177302D01*
X429932961Y-167201919D01*
X429932956Y-167201919D01*
X429932985Y-167202062D01*
X429932985Y-181252770D01*
X429932901Y-181253192D01*
X424984068Y-181253192D01*
X424983985Y-181252770D01*
X424983985Y-167202062D01*
X424984013Y-167201919D01*
X424984009Y-167201919D01*
X424984024Y-167177305D01*
X424984026Y-167177303D01*
X424983947Y-167177111D01*
X424983869Y-167176921D01*
X424983865Y-167176917D01*
X424983679Y-167176841D01*
X424983487Y-167176762D01*
X424958931Y-167176762D01*
X424958725Y-167176803D01*
X410908245Y-167176803D01*
X410908039Y-167176762D01*
X410883483Y-167176762D01*
X410883292Y-167176841D01*
X410883104Y-167176918D01*
X410883100Y-167176921D01*
X410882944Y-167177302D01*
X410882961Y-167201919D01*
X410882956Y-167201919D01*
X410882985Y-167202062D01*
X410882985Y-181252770D01*
X410882901Y-181253192D01*
X405934068Y-181253192D01*
X405933985Y-181252770D01*
X405933985Y-167202062D01*
X405934013Y-167201919D01*
X405934009Y-167201919D01*
X405934024Y-167177305D01*
X405934026Y-167177303D01*
X405933947Y-167177111D01*
X405933869Y-167176921D01*
X405933865Y-167176917D01*
X405933679Y-167176841D01*
X405933487Y-167176762D01*
X405908931Y-167176762D01*
X405908725Y-167176803D01*
X391858245Y-167176803D01*
X391858039Y-167176762D01*
X391833483Y-167176762D01*
X391833292Y-167176841D01*
X391833104Y-167176918D01*
X391833100Y-167176921D01*
X391832944Y-167177302D01*
X391832961Y-167201919D01*
X391832956Y-167201919D01*
X391832985Y-167202062D01*
X391832985Y-181252770D01*
X391832901Y-181253192D01*
X377909772Y-181253192D01*
X385901681Y-179554459D01*
X385922196Y-179550141D01*
X385922200Y-179550142D01*
X385922541Y-179549907D01*
X385922597Y-179549605D01*
X385922596Y-179549604D01*
X385922683Y-179549148D01*
X385921926Y-179544845D01*
X385921124Y-179539161D01*
X385919378Y-179534159D01*
X385917525Y-179525385D01*
X385917373Y-179525034D01*
X382995270Y-165777615D01*
X382991061Y-165757621D01*
X382991062Y-165757618D01*
X382991060Y-165757615D01*
X382990828Y-165757276D01*
X382990826Y-165757275D01*
X382990424Y-165757201D01*
X382967629Y-165761939D01*
X382966930Y-165762235D01*
X369222400Y-168683726D01*
X369221951Y-168683733D01*
X369198538Y-168688756D01*
X369198197Y-168688990D01*
X369198196Y-168688991D01*
X369198122Y-168689396D01*
X345392038Y-168689396D01*
X358074481Y-165993659D01*
X358094996Y-165989341D01*
X358095000Y-165989342D01*
X358095341Y-165989107D01*
X358095397Y-165988805D01*
X358095396Y-165988804D01*
X358095483Y-165988348D01*
X358094726Y-165984045D01*
X358093924Y-165978361D01*
X358092178Y-165973359D01*
X358090325Y-165964585D01*
X358090173Y-165964234D01*
X355168070Y-152216815D01*
X355163861Y-152196821D01*
X355163862Y-152196818D01*
X355163860Y-152196815D01*
X355163628Y-152196476D01*
X355163626Y-152196475D01*
X355163224Y-152196401D01*
X355140429Y-152201139D01*
X355139730Y-152201435D01*
X341395200Y-155122926D01*
X341394751Y-155122933D01*
X341371338Y-155127956D01*
X341370997Y-155128190D01*
X341370996Y-155128191D01*
X341370922Y-155128596D01*
X247608627Y-155128596D01*
X247609075Y-155126540D01*
X247609078Y-155126537D01*
X247609003Y-155126129D01*
X247608662Y-155125895D01*
X247608661Y-155125894D01*
X247585535Y-155120897D01*
X247584901Y-155120886D01*
X233830493Y-152197296D01*
X233830138Y-152197220D01*
X233816777Y-152194339D01*
X233816374Y-152194413D01*
X233816372Y-152194414D01*
X233816138Y-152194757D01*
X233811115Y-152218169D01*
X233811108Y-152218618D01*
X230889617Y-165963148D01*
X230889321Y-165963847D01*
X230884583Y-165986642D01*
X207078988Y-165986642D01*
X206003293Y-165757996D01*
X206002938Y-165757920D01*
X205989577Y-165755039D01*
X205989174Y-165755113D01*
X205989172Y-165755114D01*
X205988938Y-165755457D01*
X205983915Y-165778869D01*
X205983908Y-165779318D01*
X203062417Y-179523848D01*
X203062121Y-179524547D01*
X203057383Y-179547342D01*
X197146785Y-179547342D01*
X197146785Y-167202062D01*
X197146813Y-167201919D01*
X197146809Y-167201919D01*
X197146824Y-167177305D01*
X197146826Y-167177303D01*
X197146747Y-167177111D01*
X197146669Y-167176921D01*
X197146665Y-167176917D01*
X197146479Y-167176841D01*
X197146287Y-167176762D01*
X197121731Y-167176762D01*
X197121525Y-167176803D01*
X183071045Y-167176803D01*
X183070839Y-167176762D01*
X183046283Y-167176762D01*
X183046092Y-167176841D01*
X183045904Y-167176918D01*
X183045900Y-167176921D01*
X183045744Y-167177302D01*
X183045761Y-167201919D01*
X183045756Y-167201919D01*
X183045785Y-167202062D01*
X183045785Y-181252770D01*
X183045701Y-181253192D01*
X173341785Y-181253192D01*
X173341785Y-167212062D01*
X173341813Y-167211919D01*
X173341809Y-167211919D01*
X173341824Y-167187305D01*
X173341826Y-167187303D01*
X173341747Y-167187111D01*
X173341669Y-167186921D01*
X173341665Y-167186917D01*
X173341479Y-167186841D01*
X173341287Y-167186762D01*
X173316731Y-167186762D01*
X173316525Y-167186803D01*
X159266045Y-167186803D01*
X159265839Y-167186762D01*
X159241283Y-167186762D01*
X159241092Y-167186841D01*
X159240904Y-167186918D01*
X159240900Y-167186921D01*
X159240744Y-167187302D01*
X159240761Y-167211919D01*
X159240756Y-167211919D01*
X159240785Y-167212062D01*
X159240785Y-181262770D01*
X159240701Y-181263192D01*
X139476785Y-181263192D01*
X139476785Y-175910889D01*
X146949416Y-175910889D01*
X146949459Y-175935000D01*
X146949500Y-175935099D01*
X146949617Y-175935383D01*
X146949618Y-175935384D01*
X146949808Y-175935462D01*
X146950000Y-175935541D01*
X146950002Y-175935539D01*
X146974616Y-175935524D01*
X146974616Y-175935528D01*
X146974760Y-175935500D01*
X149925240Y-175935500D01*
X149925383Y-175935528D01*
X149925384Y-175935524D01*
X149949997Y-175935539D01*
X149950000Y-175935541D01*
X149950383Y-175935383D01*
X149950500Y-175935099D01*
X149950541Y-175935000D01*
X149950540Y-175934997D01*
X149950583Y-175910889D01*
X149950500Y-175910467D01*
X149950500Y-172569759D01*
X149950528Y-172569616D01*
X149950524Y-172569616D01*
X149950539Y-172545002D01*
X149950541Y-172545000D01*
X149950462Y-172544808D01*
X149950384Y-172544618D01*
X149950380Y-172544614D01*
X149950194Y-172544538D01*
X149950002Y-172544459D01*
X149925446Y-172544459D01*
X149925240Y-172544500D01*
X146974760Y-172544500D01*
X146974554Y-172544459D01*
X146949998Y-172544459D01*
X146949807Y-172544538D01*
X146949619Y-172544615D01*
X146949615Y-172544618D01*
X146949459Y-172544999D01*
X146949476Y-172569616D01*
X146949471Y-172569616D01*
X146949500Y-172569759D01*
X146949500Y-175910467D01*
X146949416Y-175910889D01*
X139476785Y-175910889D01*
X139476785Y-162203192D01*
X154470701Y-162203192D01*
X154470744Y-162227303D01*
X154470785Y-162227402D01*
X154470902Y-162227686D01*
X154470903Y-162227687D01*
X154471093Y-162227765D01*
X154471285Y-162227844D01*
X154471287Y-162227842D01*
X154495901Y-162227827D01*
X154495901Y-162227831D01*
X154496045Y-162227803D01*
X168546525Y-162227803D01*
X168546668Y-162227831D01*
X168546669Y-162227827D01*
X168571282Y-162227842D01*
X168571285Y-162227844D01*
X168571668Y-162227686D01*
X168571785Y-162227402D01*
X168571826Y-162227303D01*
X168571825Y-162227300D01*
X168571868Y-162203192D01*
X173520701Y-162203192D01*
X173520744Y-162227303D01*
X173520785Y-162227402D01*
X173520902Y-162227686D01*
X173520903Y-162227687D01*
X173521093Y-162227765D01*
X173521285Y-162227844D01*
X173521287Y-162227842D01*
X173545901Y-162227827D01*
X173545901Y-162227831D01*
X173546045Y-162227803D01*
X187596525Y-162227803D01*
X187596668Y-162227831D01*
X187596669Y-162227827D01*
X187621282Y-162227842D01*
X187621285Y-162227844D01*
X187621668Y-162227686D01*
X187621785Y-162227402D01*
X187621826Y-162227303D01*
X187621825Y-162227300D01*
X187621868Y-162203192D01*
X187621785Y-162202770D01*
X187621785Y-162025942D01*
X212250883Y-162025942D01*
X212250957Y-162026344D01*
X212250958Y-162026345D01*
X212250959Y-162026346D01*
X212251301Y-162026580D01*
X212251302Y-162026579D01*
X212266424Y-162029752D01*
X226019200Y-164952995D01*
X226019983Y-164953329D01*
X226037794Y-164957018D01*
X226042570Y-164958250D01*
X226042668Y-164958232D01*
X226043481Y-164958079D01*
X226043589Y-164958059D01*
X226043824Y-164957718D01*
X226043823Y-164957714D01*
X226048141Y-164937199D01*
X228973718Y-151173442D01*
X228973800Y-151173064D01*
X228974927Y-151167896D01*
X360004622Y-151167896D01*
X360009519Y-151191235D01*
X360009725Y-151191719D01*
X362931168Y-164936019D01*
X362931177Y-164936568D01*
X362936177Y-164959778D01*
X362936177Y-164959779D01*
X362936411Y-164960121D01*
X362936713Y-164960177D01*
X362936713Y-164960176D01*
X362937290Y-164960286D01*
X362937327Y-164960293D01*
X362941699Y-164959147D01*
X362954950Y-164956299D01*
X366474516Y-164208192D01*
X421487901Y-164208192D01*
X421487944Y-164232303D01*
X421487985Y-164232402D01*
X421488102Y-164232686D01*
X421488103Y-164232687D01*
X421488293Y-164232765D01*
X421488485Y-164232844D01*
X421488487Y-164232842D01*
X421513101Y-164232827D01*
X421513101Y-164232831D01*
X421513245Y-164232803D01*
X428463725Y-164232803D01*
X428463868Y-164232831D01*
X428463869Y-164232827D01*
X428488482Y-164232842D01*
X428488485Y-164232844D01*
X428488868Y-164232686D01*
X428488985Y-164232402D01*
X428489026Y-164232303D01*
X428489025Y-164232300D01*
X428489068Y-164208192D01*
X428488985Y-164207770D01*
X428488985Y-162356803D01*
X428508670Y-162289764D01*
X428561474Y-162244009D01*
X428612985Y-162232803D01*
X436988386Y-162232803D01*
X445363985Y-162232803D01*
X445431024Y-162252488D01*
X445476779Y-162305292D01*
X445487985Y-162356803D01*
X445487985Y-164207770D01*
X445487901Y-164208192D01*
X445487944Y-164232303D01*
X445487985Y-164232402D01*
X445488102Y-164232686D01*
X445488103Y-164232687D01*
X445488293Y-164232765D01*
X445488485Y-164232844D01*
X445488487Y-164232842D01*
X445513101Y-164232827D01*
X445513101Y-164232831D01*
X445513245Y-164232803D01*
X452463725Y-164232803D01*
X452463868Y-164232831D01*
X452463869Y-164232827D01*
X452488482Y-164232842D01*
X452488485Y-164232844D01*
X452488868Y-164232686D01*
X452488985Y-164232402D01*
X452489026Y-164232303D01*
X452489025Y-164232300D01*
X452489068Y-164208192D01*
X452488985Y-164207770D01*
X452488985Y-162203192D01*
X458507901Y-162203192D01*
X458507944Y-162227303D01*
X458507985Y-162227402D01*
X458508102Y-162227686D01*
X458508103Y-162227687D01*
X458508293Y-162227765D01*
X458508485Y-162227844D01*
X458508487Y-162227842D01*
X458533101Y-162227827D01*
X458533101Y-162227831D01*
X458533245Y-162227803D01*
X472583725Y-162227803D01*
X472583868Y-162227831D01*
X472583869Y-162227827D01*
X472608482Y-162227842D01*
X472608485Y-162227844D01*
X472608868Y-162227686D01*
X472608985Y-162227402D01*
X472609026Y-162227303D01*
X472609025Y-162227300D01*
X472609068Y-162203192D01*
X472608985Y-162202770D01*
X472608985Y-148152062D01*
X472609013Y-148151919D01*
X472609009Y-148151919D01*
X472609024Y-148127305D01*
X472609026Y-148127303D01*
X472608947Y-148127111D01*
X472608869Y-148126921D01*
X472608865Y-148126917D01*
X472608679Y-148126841D01*
X472608487Y-148126762D01*
X472583931Y-148126762D01*
X472583725Y-148126803D01*
X458533245Y-148126803D01*
X458533039Y-148126762D01*
X458508483Y-148126762D01*
X458508292Y-148126841D01*
X458508104Y-148126918D01*
X458508100Y-148126921D01*
X458507944Y-148127302D01*
X458507961Y-148151919D01*
X458507956Y-148151919D01*
X458507985Y-148152062D01*
X458507985Y-162202770D01*
X458507901Y-162203192D01*
X452488985Y-162203192D01*
X452488985Y-149157062D01*
X452489013Y-149156919D01*
X452489009Y-149156919D01*
X452489024Y-149132305D01*
X452489026Y-149132303D01*
X452488947Y-149132111D01*
X452488869Y-149131921D01*
X452488865Y-149131917D01*
X452488679Y-149131841D01*
X452488487Y-149131762D01*
X452463931Y-149131762D01*
X452463725Y-149131803D01*
X444162985Y-149131803D01*
X444095946Y-149112118D01*
X444050191Y-149059314D01*
X444038985Y-149007803D01*
X444038985Y-148157062D01*
X444039013Y-148156919D01*
X444039009Y-148156919D01*
X444039024Y-148132305D01*
X444039026Y-148132303D01*
X444038947Y-148132111D01*
X444038869Y-148131921D01*
X444038865Y-148131917D01*
X444038679Y-148131841D01*
X444038487Y-148131762D01*
X444013931Y-148131762D01*
X444013725Y-148131803D01*
X429963245Y-148131803D01*
X429963039Y-148131762D01*
X429938483Y-148131762D01*
X429938292Y-148131841D01*
X429938104Y-148131918D01*
X429938100Y-148131921D01*
X429937944Y-148132302D01*
X429937961Y-148156919D01*
X429937956Y-148156919D01*
X429937985Y-148157062D01*
X429937985Y-149007803D01*
X429918300Y-149074842D01*
X429865496Y-149120597D01*
X429813985Y-149131803D01*
X421513245Y-149131803D01*
X421513039Y-149131762D01*
X421488483Y-149131762D01*
X421488292Y-149131841D01*
X421488104Y-149131918D01*
X421488100Y-149131921D01*
X421487944Y-149132302D01*
X421487961Y-149156919D01*
X421487956Y-149156919D01*
X421487985Y-149157062D01*
X421487985Y-164207770D01*
X421487901Y-164208192D01*
X366474516Y-164208192D01*
X375907298Y-162203192D01*
X401357901Y-162203192D01*
X401357944Y-162227303D01*
X401357985Y-162227402D01*
X401358102Y-162227686D01*
X401358103Y-162227687D01*
X401358293Y-162227765D01*
X401358485Y-162227844D01*
X401358487Y-162227842D01*
X401383101Y-162227827D01*
X401383101Y-162227831D01*
X401383245Y-162227803D01*
X415433725Y-162227803D01*
X415433868Y-162227831D01*
X415433869Y-162227827D01*
X415458482Y-162227842D01*
X415458485Y-162227844D01*
X415458868Y-162227686D01*
X415458985Y-162227402D01*
X415459026Y-162227303D01*
X415459025Y-162227300D01*
X415459068Y-162203192D01*
X415458985Y-162202770D01*
X415458985Y-148152062D01*
X415459013Y-148151919D01*
X415459009Y-148151919D01*
X415459024Y-148127305D01*
X415459026Y-148127303D01*
X415458947Y-148127111D01*
X415458869Y-148126921D01*
X415458865Y-148126917D01*
X415458679Y-148126841D01*
X415458487Y-148126762D01*
X415433931Y-148126762D01*
X415433725Y-148126803D01*
X401383245Y-148126803D01*
X401383039Y-148126762D01*
X401358483Y-148126762D01*
X401358292Y-148126841D01*
X401358104Y-148126918D01*
X401358100Y-148126921D01*
X401357944Y-148127302D01*
X401357961Y-148151919D01*
X401357956Y-148151919D01*
X401357985Y-148152062D01*
X401357985Y-162202770D01*
X401357901Y-162203192D01*
X375907298Y-162203192D01*
X376708181Y-162032959D01*
X376728696Y-162028641D01*
X376728700Y-162028642D01*
X376729041Y-162028407D01*
X376729097Y-162028105D01*
X376729096Y-162028104D01*
X376729183Y-162027648D01*
X376728426Y-162023345D01*
X376727624Y-162017661D01*
X376725878Y-162012659D01*
X376724025Y-162003885D01*
X376723873Y-162003534D01*
X376260151Y-159821892D01*
X382307901Y-159821892D01*
X382307944Y-159846003D01*
X382307985Y-159846102D01*
X382308102Y-159846386D01*
X382308103Y-159846387D01*
X382308293Y-159846465D01*
X382308485Y-159846544D01*
X382308487Y-159846542D01*
X382333101Y-159846527D01*
X382333101Y-159846531D01*
X382333245Y-159846503D01*
X396383725Y-159846503D01*
X396383868Y-159846531D01*
X396383869Y-159846527D01*
X396408482Y-159846542D01*
X396408485Y-159846544D01*
X396408868Y-159846386D01*
X396408985Y-159846102D01*
X396409026Y-159846003D01*
X396409025Y-159846000D01*
X396409068Y-159821892D01*
X396408985Y-159821470D01*
X396408985Y-145770762D01*
X396409013Y-145770619D01*
X396409009Y-145770619D01*
X396409024Y-145746005D01*
X396409026Y-145746003D01*
X396408947Y-145745811D01*
X396408869Y-145745621D01*
X396408865Y-145745617D01*
X396408679Y-145745541D01*
X396408487Y-145745462D01*
X396383931Y-145745462D01*
X396383725Y-145745503D01*
X382333245Y-145745503D01*
X382333039Y-145745462D01*
X382308483Y-145745462D01*
X382308292Y-145745541D01*
X382308104Y-145745618D01*
X382308100Y-145745621D01*
X382307944Y-145746002D01*
X382307961Y-145770619D01*
X382307956Y-145770619D01*
X382307985Y-145770762D01*
X382307985Y-159821470D01*
X382307901Y-159821892D01*
X376260151Y-159821892D01*
X373801770Y-148256115D01*
X373797561Y-148236121D01*
X373797562Y-148236118D01*
X373797560Y-148236115D01*
X373797328Y-148235776D01*
X373797326Y-148235775D01*
X373796924Y-148235701D01*
X373774129Y-148240439D01*
X373773430Y-148240735D01*
X360028900Y-151162226D01*
X360028451Y-151162233D01*
X360005038Y-151167256D01*
X360004697Y-151167490D01*
X360004696Y-151167491D01*
X360004622Y-151167896D01*
X228974927Y-151167896D01*
X228975375Y-151165840D01*
X228975378Y-151165837D01*
X228975303Y-151165429D01*
X228974962Y-151165195D01*
X228974961Y-151165194D01*
X228951835Y-151160197D01*
X228951201Y-151160186D01*
X222296479Y-149745681D01*
X276283276Y-149745681D01*
X276283334Y-149745865D01*
X276283398Y-149746070D01*
X276283400Y-149746072D01*
X276283768Y-149746263D01*
X276283770Y-149746262D01*
X276297832Y-149747452D01*
X276298184Y-149747482D01*
X290315732Y-150973859D01*
X290315775Y-150973863D01*
X290330113Y-150975159D01*
X290330508Y-150975035D01*
X290330543Y-150974968D01*
X290330699Y-150974667D01*
X290330698Y-150974664D01*
X290332639Y-150952007D01*
X291558827Y-136936621D01*
X291558860Y-136936258D01*
X291559516Y-136929177D01*
X297420222Y-136929177D01*
X297422392Y-136953723D01*
X297422379Y-136953724D01*
X297422423Y-136953876D01*
X298647039Y-150951291D01*
X298646983Y-150951820D01*
X298649117Y-150975519D01*
X298649259Y-150975793D01*
X298649310Y-150975890D01*
X298649701Y-150976013D01*
X298649703Y-150976012D01*
X298649704Y-150976013D01*
X298649704Y-150976012D01*
X298657640Y-150975278D01*
X298658003Y-150975245D01*
X312671260Y-149749243D01*
X312671458Y-149749272D01*
X312671455Y-149749231D01*
X312696048Y-149747117D01*
X312696048Y-149747116D01*
X312696049Y-149747117D01*
X312696417Y-149746926D01*
X312696418Y-149746924D01*
X312696766Y-149745840D01*
X312697032Y-149745023D01*
X312695752Y-149737210D01*
X312694477Y-149722124D01*
X312694316Y-149721578D01*
X311468864Y-135714602D01*
X311468834Y-135714250D01*
X311467644Y-135700188D01*
X311467645Y-135700186D01*
X311467454Y-135699818D01*
X311467452Y-135699816D01*
X311467179Y-135699730D01*
X311467179Y-135699731D01*
X311467061Y-135699694D01*
X311467059Y-135699694D01*
X311467058Y-135699694D01*
X311442974Y-135701773D01*
X311442633Y-135701871D01*
X297445118Y-136926495D01*
X297444723Y-136926453D01*
X297420712Y-136928590D01*
X297420347Y-136928779D01*
X297420346Y-136928780D01*
X297420222Y-136929177D01*
X291559516Y-136929177D01*
X291559595Y-136928321D01*
X291559471Y-136927927D01*
X291559470Y-136927926D01*
X291559104Y-136927736D01*
X291535436Y-136925597D01*
X291534872Y-136925657D01*
X277537460Y-135701041D01*
X277537301Y-135700996D01*
X277537300Y-135701011D01*
X277512758Y-135698839D01*
X277512639Y-135698877D01*
X277512638Y-135698876D01*
X277512364Y-135698962D01*
X277512363Y-135698963D01*
X277512172Y-135699331D01*
X277510035Y-135723341D01*
X277510077Y-135723736D01*
X276285453Y-149721251D01*
X276285306Y-149721760D01*
X276283276Y-149745681D01*
X222296479Y-149745681D01*
X215196793Y-148236596D01*
X215196438Y-148236520D01*
X215183077Y-148233639D01*
X215182674Y-148233713D01*
X215182672Y-148233714D01*
X215182438Y-148234057D01*
X215177415Y-148257469D01*
X215177408Y-148257918D01*
X212255917Y-162002448D01*
X212255621Y-162003147D01*
X212250883Y-162025942D01*
X187621785Y-162025942D01*
X187621785Y-159821892D01*
X192570701Y-159821892D01*
X192570744Y-159846003D01*
X192570785Y-159846102D01*
X192570902Y-159846386D01*
X192570903Y-159846387D01*
X192571093Y-159846465D01*
X192571285Y-159846544D01*
X192571287Y-159846542D01*
X192595901Y-159846527D01*
X192595901Y-159846531D01*
X192596045Y-159846503D01*
X206646525Y-159846503D01*
X206646668Y-159846531D01*
X206646669Y-159846527D01*
X206671282Y-159846542D01*
X206671285Y-159846544D01*
X206671668Y-159846386D01*
X206671785Y-159846102D01*
X206671826Y-159846003D01*
X206671825Y-159846000D01*
X206671868Y-159821892D01*
X206671785Y-159821470D01*
X206671785Y-147449343D01*
X256291061Y-147449343D01*
X256291119Y-147449551D01*
X256291124Y-147449569D01*
X256291172Y-147449743D01*
X256291533Y-147449947D01*
X256291533Y-147449946D01*
X256291534Y-147449947D01*
X256316047Y-147452933D01*
X256316045Y-147452947D01*
X256316203Y-147452934D01*
X270263185Y-149165408D01*
X270286431Y-149168303D01*
X270286434Y-149168305D01*
X270286833Y-149168195D01*
X270286984Y-149167927D01*
X270287037Y-149167834D01*
X270287036Y-149167832D01*
X270287037Y-149167832D01*
X270290040Y-149143788D01*
X270290005Y-149143318D01*
X272004167Y-135182577D01*
X272004221Y-135182153D01*
X272005240Y-135174140D01*
X316974454Y-135174140D01*
X316977436Y-135198424D01*
X316977501Y-135198621D01*
X318689911Y-149145089D01*
X318689842Y-149146095D01*
X318692811Y-149169042D01*
X318693014Y-149169401D01*
X318693015Y-149169402D01*
X318693415Y-149169512D01*
X318693417Y-149169510D01*
X318702635Y-149168339D01*
X318703059Y-149168285D01*
X332663800Y-147454123D01*
X332664043Y-147454141D01*
X332688313Y-147451154D01*
X332688316Y-147451155D01*
X332688677Y-147450951D01*
X332688725Y-147450777D01*
X332688787Y-147450552D01*
X332688785Y-147450549D01*
X332686002Y-147428222D01*
X330973416Y-133480321D01*
X330973429Y-133480163D01*
X330973415Y-133480165D01*
X330970428Y-133455653D01*
X330970429Y-133455651D01*
X330970225Y-133455290D01*
X330969825Y-133455179D01*
X330946102Y-133458038D01*
X330945632Y-133458191D01*
X316999027Y-135170619D01*
X316998385Y-135170573D01*
X316974926Y-135173537D01*
X316974564Y-135173742D01*
X316974454Y-135174140D01*
X272005240Y-135174140D01*
X272005393Y-135172934D01*
X272005394Y-135172933D01*
X272005284Y-135172533D01*
X272005283Y-135172532D01*
X272005282Y-135172530D01*
X272004939Y-135172338D01*
X272004924Y-135172330D01*
X271981791Y-135169373D01*
X271980970Y-135169429D01*
X258034504Y-133457019D01*
X258034344Y-133456966D01*
X258010022Y-133453971D01*
X258009622Y-133454082D01*
X258009519Y-133454266D01*
X258009503Y-133454295D01*
X258009419Y-133454443D01*
X258006464Y-133478021D01*
X258006501Y-133478546D01*
X256294073Y-147425151D01*
X256293923Y-147425612D01*
X256291061Y-147449343D01*
X206671785Y-147449343D01*
X206671785Y-145770762D01*
X206671813Y-145770619D01*
X206671809Y-145770619D01*
X206671824Y-145746005D01*
X206671826Y-145746003D01*
X206671747Y-145745811D01*
X206671669Y-145745621D01*
X206671665Y-145745617D01*
X206671479Y-145745541D01*
X206671287Y-145745462D01*
X206646731Y-145745462D01*
X206646525Y-145745503D01*
X192596045Y-145745503D01*
X192595839Y-145745462D01*
X192571283Y-145745462D01*
X192571092Y-145745541D01*
X192570904Y-145745618D01*
X192570900Y-145745621D01*
X192570744Y-145746002D01*
X192570761Y-145770619D01*
X192570756Y-145770619D01*
X192570785Y-145770762D01*
X192570785Y-159821470D01*
X192570701Y-159821892D01*
X187621785Y-159821892D01*
X187621785Y-148152062D01*
X187621813Y-148151919D01*
X187621809Y-148151919D01*
X187621824Y-148127305D01*
X187621826Y-148127303D01*
X187621747Y-148127111D01*
X187621669Y-148126921D01*
X187621665Y-148126917D01*
X187621479Y-148126841D01*
X187621287Y-148126762D01*
X187596731Y-148126762D01*
X187596525Y-148126803D01*
X173546045Y-148126803D01*
X173545839Y-148126762D01*
X173521283Y-148126762D01*
X173521092Y-148126841D01*
X173520904Y-148126918D01*
X173520900Y-148126921D01*
X173520744Y-148127302D01*
X173520761Y-148151919D01*
X173520756Y-148151919D01*
X173520785Y-148152062D01*
X173520785Y-162202770D01*
X173520701Y-162203192D01*
X168571868Y-162203192D01*
X168571785Y-162202770D01*
X168571785Y-148152062D01*
X168571813Y-148151919D01*
X168571809Y-148151919D01*
X168571824Y-148127305D01*
X168571826Y-148127303D01*
X168571747Y-148127111D01*
X168571669Y-148126921D01*
X168571665Y-148126917D01*
X168571479Y-148126841D01*
X168571287Y-148126762D01*
X168546731Y-148126762D01*
X168546525Y-148126803D01*
X154496045Y-148126803D01*
X154495839Y-148126762D01*
X154471283Y-148126762D01*
X154471092Y-148126841D01*
X154470904Y-148126918D01*
X154470900Y-148126921D01*
X154470744Y-148127302D01*
X154470761Y-148151919D01*
X154470756Y-148151919D01*
X154470785Y-148152062D01*
X154470785Y-162202770D01*
X154470701Y-162203192D01*
X139476785Y-162203192D01*
X139476785Y-161910889D01*
X145429416Y-161910889D01*
X145429459Y-161935000D01*
X145429500Y-161935099D01*
X145429617Y-161935383D01*
X145429618Y-161935384D01*
X145429808Y-161935462D01*
X145430000Y-161935541D01*
X145430002Y-161935539D01*
X145454616Y-161935524D01*
X145454616Y-161935528D01*
X145454760Y-161935500D01*
X148405240Y-161935500D01*
X148405383Y-161935528D01*
X148405384Y-161935524D01*
X148429997Y-161935539D01*
X148430000Y-161935541D01*
X148430383Y-161935383D01*
X148430500Y-161935099D01*
X148430541Y-161935000D01*
X148430540Y-161934997D01*
X148430583Y-161910889D01*
X148430500Y-161910467D01*
X148430500Y-158569759D01*
X148430528Y-158569616D01*
X148430524Y-158569616D01*
X148430539Y-158545002D01*
X148430541Y-158545000D01*
X148430462Y-158544808D01*
X148430384Y-158544618D01*
X148430380Y-158544614D01*
X148430194Y-158544538D01*
X148430002Y-158544459D01*
X148405446Y-158544459D01*
X148405240Y-158544500D01*
X145454760Y-158544500D01*
X145454554Y-158544459D01*
X145429998Y-158544459D01*
X145429807Y-158544538D01*
X145429619Y-158544615D01*
X145429615Y-158544618D01*
X145429459Y-158544999D01*
X145429476Y-158569616D01*
X145429471Y-158569616D01*
X145429500Y-158569759D01*
X145429500Y-161910467D01*
X145429416Y-161910889D01*
X139476785Y-161910889D01*
X139476785Y-151935889D01*
X145449416Y-151935889D01*
X145449459Y-151960000D01*
X145449500Y-151960099D01*
X145449617Y-151960383D01*
X145449618Y-151960384D01*
X145449808Y-151960462D01*
X145450000Y-151960541D01*
X145450002Y-151960539D01*
X145474616Y-151960524D01*
X145474616Y-151960528D01*
X145474760Y-151960500D01*
X148425240Y-151960500D01*
X148425383Y-151960528D01*
X148425384Y-151960524D01*
X148449997Y-151960539D01*
X148450000Y-151960541D01*
X148450383Y-151960383D01*
X148450500Y-151960099D01*
X148450541Y-151960000D01*
X148450540Y-151959997D01*
X148450583Y-151935889D01*
X148450500Y-151935467D01*
X148450500Y-148594759D01*
X148450528Y-148594616D01*
X148450524Y-148594616D01*
X148450539Y-148570002D01*
X148450541Y-148570000D01*
X148450462Y-148569808D01*
X148450384Y-148569618D01*
X148450380Y-148569614D01*
X148450194Y-148569538D01*
X148450002Y-148569459D01*
X148425446Y-148569459D01*
X148425240Y-148569500D01*
X145474632Y-148569500D01*
X145474380Y-148569450D01*
X145449999Y-148569458D01*
X145449616Y-148569615D01*
X145449458Y-148569851D01*
X145449476Y-148594616D01*
X145449471Y-148594616D01*
X145449500Y-148594759D01*
X145449500Y-151935467D01*
X145449416Y-151935889D01*
X139476785Y-151935889D01*
X139476785Y-143174808D01*
X169843023Y-143174808D01*
X169862050Y-143477254D01*
X169862051Y-143477258D01*
X169862051Y-143477262D01*
X169862052Y-143477265D01*
X169918840Y-143774957D01*
X169918842Y-143774962D01*
X170012488Y-144063177D01*
X170012489Y-144063178D01*
X170012491Y-144063184D01*
X170141527Y-144337401D01*
X170141531Y-144337408D01*
X170141532Y-144337409D01*
X170303911Y-144593278D01*
X170303914Y-144593282D01*
X170303915Y-144593283D01*
X170497093Y-144826795D01*
X170582285Y-144906795D01*
X170718012Y-145034251D01*
X170718022Y-145034259D01*
X170963183Y-145212379D01*
X170963188Y-145212381D01*
X170963195Y-145212387D01*
X171228768Y-145358388D01*
X171228773Y-145358390D01*
X171228775Y-145358391D01*
X171228776Y-145358392D01*
X171510542Y-145469951D01*
X171510545Y-145469952D01*
X171608392Y-145495074D01*
X171804085Y-145545319D01*
X171951313Y-145563918D01*
X172104745Y-145583302D01*
X172104751Y-145583302D01*
X172104755Y-145583303D01*
X172104757Y-145583303D01*
X172407813Y-145583303D01*
X172407815Y-145583303D01*
X172407820Y-145583302D01*
X172407824Y-145583302D01*
X172487642Y-145573218D01*
X172708485Y-145545319D01*
X173002024Y-145469952D01*
X173002027Y-145469951D01*
X173283793Y-145358392D01*
X173283794Y-145358391D01*
X173283792Y-145358391D01*
X173283802Y-145358388D01*
X173549375Y-145212387D01*
X173794556Y-145034253D01*
X174015477Y-144826795D01*
X174208655Y-144593283D01*
X174371043Y-144337401D01*
X174500079Y-144063184D01*
X174593730Y-143774957D01*
X174650518Y-143477265D01*
X174664514Y-143254803D01*
X174669547Y-143174808D01*
X174669547Y-143174797D01*
X174656193Y-142962542D01*
X234781883Y-142962542D01*
X234781957Y-142962944D01*
X234781958Y-142962945D01*
X234781959Y-142962946D01*
X234782301Y-142963180D01*
X234782302Y-142963179D01*
X234797424Y-142966352D01*
X248550200Y-145889595D01*
X248550983Y-145889929D01*
X248568794Y-145893618D01*
X248573570Y-145894850D01*
X248573668Y-145894832D01*
X248574481Y-145894679D01*
X248574589Y-145894659D01*
X248574824Y-145894318D01*
X248574823Y-145894314D01*
X248579141Y-145873799D01*
X251504718Y-132110042D01*
X251504800Y-132109664D01*
X251505927Y-132104496D01*
X337473622Y-132104496D01*
X337478519Y-132127835D01*
X337478725Y-132128319D01*
X340400168Y-145872619D01*
X340400177Y-145873168D01*
X340405177Y-145896378D01*
X340405177Y-145896379D01*
X340405411Y-145896721D01*
X340405713Y-145896777D01*
X340405713Y-145896776D01*
X340406290Y-145896886D01*
X340406327Y-145896893D01*
X340410699Y-145895747D01*
X340423950Y-145892899D01*
X352835190Y-143254808D01*
X414263023Y-143254808D01*
X414282050Y-143557254D01*
X414282051Y-143557258D01*
X414282051Y-143557262D01*
X414282052Y-143557265D01*
X414338840Y-143854957D01*
X414338842Y-143854962D01*
X414432488Y-144143177D01*
X414432489Y-144143178D01*
X414432491Y-144143184D01*
X414561527Y-144417401D01*
X414561531Y-144417408D01*
X414561532Y-144417409D01*
X414723911Y-144673278D01*
X414723914Y-144673282D01*
X414723915Y-144673283D01*
X414917093Y-144906795D01*
X415052829Y-145034259D01*
X415138012Y-145114251D01*
X415138022Y-145114259D01*
X415383183Y-145292379D01*
X415383188Y-145292381D01*
X415383195Y-145292387D01*
X415648768Y-145438388D01*
X415648773Y-145438390D01*
X415648775Y-145438391D01*
X415648776Y-145438392D01*
X415930542Y-145549951D01*
X415930545Y-145549952D01*
X416028392Y-145575074D01*
X416224085Y-145625319D01*
X416371313Y-145643918D01*
X416524745Y-145663302D01*
X416524751Y-145663302D01*
X416524755Y-145663303D01*
X416524757Y-145663303D01*
X416827813Y-145663303D01*
X416827815Y-145663303D01*
X416827820Y-145663302D01*
X416827824Y-145663302D01*
X416907642Y-145653218D01*
X417128485Y-145625319D01*
X417422024Y-145549952D01*
X417433726Y-145545319D01*
X417703793Y-145438392D01*
X417703794Y-145438391D01*
X417703792Y-145438391D01*
X417703802Y-145438388D01*
X417969375Y-145292387D01*
X418214556Y-145114253D01*
X418435477Y-144906795D01*
X418628655Y-144673283D01*
X418791043Y-144417401D01*
X418920079Y-144143184D01*
X419013730Y-143854957D01*
X419070518Y-143557265D01*
X419089547Y-143254803D01*
X419084514Y-143174808D01*
X419070519Y-142952351D01*
X419070518Y-142952347D01*
X419070518Y-142952341D01*
X419013730Y-142654649D01*
X418920079Y-142366422D01*
X418791043Y-142092205D01*
X418628655Y-141836323D01*
X418435477Y-141602811D01*
X418214556Y-141395353D01*
X418214553Y-141395351D01*
X418214547Y-141395346D01*
X417969386Y-141217226D01*
X417969379Y-141217221D01*
X417969375Y-141217219D01*
X417703802Y-141071218D01*
X417703799Y-141071216D01*
X417703794Y-141071214D01*
X417703793Y-141071213D01*
X417422027Y-140959654D01*
X417422024Y-140959653D01*
X417128482Y-140884286D01*
X416827824Y-140846303D01*
X416827815Y-140846303D01*
X416524755Y-140846303D01*
X416524745Y-140846303D01*
X416224087Y-140884286D01*
X415930545Y-140959653D01*
X415930542Y-140959654D01*
X415648776Y-141071213D01*
X415648775Y-141071214D01*
X415383195Y-141217219D01*
X415383183Y-141217226D01*
X415138022Y-141395346D01*
X415138012Y-141395354D01*
X414917095Y-141602809D01*
X414723911Y-141836327D01*
X414561532Y-142092196D01*
X414561529Y-142092200D01*
X414561527Y-142092205D01*
X414432491Y-142366422D01*
X414432489Y-142366427D01*
X414432488Y-142366428D01*
X414343135Y-142641429D01*
X414338840Y-142654649D01*
X414284381Y-142940131D01*
X414282051Y-142952347D01*
X414282050Y-142952351D01*
X414263023Y-143254797D01*
X414263023Y-143254808D01*
X352835190Y-143254808D01*
X354177181Y-142969559D01*
X354197696Y-142965241D01*
X354197700Y-142965242D01*
X354198041Y-142965007D01*
X354198097Y-142964705D01*
X354198096Y-142964704D01*
X354198183Y-142964248D01*
X354197426Y-142959945D01*
X354196624Y-142954261D01*
X354194878Y-142949259D01*
X354193025Y-142940485D01*
X354192873Y-142940134D01*
X351270770Y-129192715D01*
X351266561Y-129172721D01*
X351266562Y-129172718D01*
X351266560Y-129172715D01*
X351266328Y-129172376D01*
X351266326Y-129172375D01*
X351265924Y-129172301D01*
X351243129Y-129177039D01*
X351242430Y-129177335D01*
X337497900Y-132098826D01*
X337497451Y-132098833D01*
X337474038Y-132103856D01*
X337473697Y-132104090D01*
X337473696Y-132104091D01*
X337473622Y-132104496D01*
X251505927Y-132104496D01*
X251506375Y-132102440D01*
X251506378Y-132102437D01*
X251506303Y-132102029D01*
X251505962Y-132101795D01*
X251505961Y-132101794D01*
X251482835Y-132096797D01*
X251482201Y-132096786D01*
X237727793Y-129173196D01*
X237727438Y-129173120D01*
X237714077Y-129170239D01*
X237713674Y-129170313D01*
X237713672Y-129170314D01*
X237713438Y-129170657D01*
X237708415Y-129194069D01*
X237708408Y-129194518D01*
X234786917Y-142939048D01*
X234786621Y-142939747D01*
X234781883Y-142962542D01*
X174656193Y-142962542D01*
X174650519Y-142872351D01*
X174650518Y-142872347D01*
X174650518Y-142872341D01*
X174593730Y-142574649D01*
X174500079Y-142286422D01*
X174371043Y-142012205D01*
X174208655Y-141756323D01*
X174015477Y-141522811D01*
X173794556Y-141315353D01*
X173794553Y-141315351D01*
X173794547Y-141315346D01*
X173549386Y-141137226D01*
X173549379Y-141137221D01*
X173549375Y-141137219D01*
X173283802Y-140991218D01*
X173283799Y-140991216D01*
X173283794Y-140991214D01*
X173283793Y-140991213D01*
X173002027Y-140879654D01*
X173002024Y-140879653D01*
X172708482Y-140804286D01*
X172407824Y-140766303D01*
X172407815Y-140766303D01*
X172104755Y-140766303D01*
X172104745Y-140766303D01*
X171804087Y-140804286D01*
X171510545Y-140879653D01*
X171510542Y-140879654D01*
X171228776Y-140991213D01*
X171228775Y-140991214D01*
X170963195Y-141137219D01*
X170963183Y-141137226D01*
X170718022Y-141315346D01*
X170718012Y-141315354D01*
X170497095Y-141522809D01*
X170303911Y-141756327D01*
X170141532Y-142012196D01*
X170141529Y-142012200D01*
X170141527Y-142012205D01*
X170012491Y-142286422D01*
X170012489Y-142286427D01*
X170012488Y-142286428D01*
X169986495Y-142366428D01*
X169918840Y-142574649D01*
X169862052Y-142872341D01*
X169862051Y-142872347D01*
X169862050Y-142872351D01*
X169843023Y-143174797D01*
X169843023Y-143174808D01*
X139476785Y-143174808D01*
X139476785Y-140111527D01*
X215276713Y-140111527D01*
X215276816Y-140111928D01*
X215277174Y-140112138D01*
X215277176Y-140112137D01*
X215285923Y-140113325D01*
X215286063Y-140113344D01*
X229216319Y-142071115D01*
X229239951Y-142074477D01*
X229239954Y-142074479D01*
X229240355Y-142074376D01*
X229240510Y-142074111D01*
X229240510Y-142074110D01*
X229240564Y-142074018D01*
X229241196Y-142072941D01*
X229241676Y-142065961D01*
X229242889Y-142057178D01*
X231201061Y-128124057D01*
X231202903Y-128111240D01*
X231202905Y-128111238D01*
X231202861Y-128111068D01*
X231202802Y-128110837D01*
X231202801Y-128110836D01*
X231202444Y-128110626D01*
X231178476Y-128107235D01*
X231178145Y-128107253D01*
X217263866Y-126151729D01*
X217263588Y-126151633D01*
X217239666Y-126148288D01*
X217239665Y-126148288D01*
X217239663Y-126148288D01*
X217239661Y-126148288D01*
X217239643Y-126148293D01*
X217239602Y-126148303D01*
X217239563Y-126148314D01*
X217239562Y-126148314D01*
X217239264Y-126148390D01*
X217239262Y-126148391D01*
X217239054Y-126148747D01*
X217235650Y-126173006D01*
X217235660Y-126173189D01*
X215280143Y-140087407D01*
X215279981Y-140087875D01*
X215276713Y-140111526D01*
X215276713Y-140111527D01*
X139476785Y-140111527D01*
X139476785Y-138593100D01*
X195618963Y-138593100D01*
X195618997Y-138593202D01*
X195619094Y-138593493D01*
X195619465Y-138593678D01*
X195619467Y-138593677D01*
X195630211Y-138594388D01*
X195630500Y-138594407D01*
X209660345Y-139575470D01*
X209660514Y-139575516D01*
X209660516Y-139575496D01*
X209685118Y-139577244D01*
X209685118Y-139577243D01*
X209685119Y-139577244D01*
X209685512Y-139577113D01*
X209685615Y-139576907D01*
X209685953Y-139576237D01*
X209693240Y-139561959D01*
X209688154Y-139543486D01*
X209688436Y-139536955D01*
X210668355Y-125523488D01*
X210669261Y-125511091D01*
X210669263Y-125511089D01*
X210669132Y-125510696D01*
X210669131Y-125510695D01*
X210668854Y-125510557D01*
X210668872Y-125510519D01*
X210668866Y-125510518D01*
X210644846Y-125508775D01*
X210644312Y-125508842D01*
X196627608Y-124528698D01*
X196627290Y-124528612D01*
X196603108Y-124526944D01*
X196603008Y-124526978D01*
X196603006Y-124526979D01*
X196602716Y-124527075D01*
X196602714Y-124527077D01*
X196602530Y-124527446D01*
X196600812Y-124551798D01*
X196600848Y-124552082D01*
X195620698Y-138568864D01*
X195620546Y-138569429D01*
X195618963Y-138593099D01*
X195618963Y-138593100D01*
X139476785Y-138593100D01*
X139476785Y-138390692D01*
X154470701Y-138390692D01*
X154470744Y-138414803D01*
X154470785Y-138414902D01*
X154470902Y-138415186D01*
X154470903Y-138415187D01*
X154471093Y-138415265D01*
X154471285Y-138415344D01*
X154471287Y-138415342D01*
X154495901Y-138415327D01*
X154495901Y-138415331D01*
X154496045Y-138415303D01*
X168546525Y-138415303D01*
X168546668Y-138415331D01*
X168546669Y-138415327D01*
X168571282Y-138415342D01*
X168571285Y-138415344D01*
X168571668Y-138415186D01*
X168571785Y-138414902D01*
X168571826Y-138414803D01*
X168571825Y-138414800D01*
X168571868Y-138390692D01*
X175902001Y-138390692D01*
X175902044Y-138414803D01*
X175902085Y-138414902D01*
X175902202Y-138415186D01*
X175902203Y-138415187D01*
X175902393Y-138415265D01*
X175902585Y-138415344D01*
X175902587Y-138415342D01*
X175927201Y-138415327D01*
X175927201Y-138415331D01*
X175927345Y-138415303D01*
X189977825Y-138415303D01*
X189977968Y-138415331D01*
X189977969Y-138415327D01*
X190002582Y-138415342D01*
X190002585Y-138415344D01*
X190002968Y-138415186D01*
X190003085Y-138414902D01*
X190003126Y-138414803D01*
X190003125Y-138414800D01*
X190003168Y-138390692D01*
X190003085Y-138390270D01*
X190003085Y-124339562D01*
X190003113Y-124339419D01*
X190003109Y-124339419D01*
X190003124Y-124314805D01*
X190003126Y-124314803D01*
X190003047Y-124314611D01*
X190002969Y-124314421D01*
X190002965Y-124314417D01*
X190002779Y-124314341D01*
X190002587Y-124314262D01*
X189978031Y-124314262D01*
X189977825Y-124314303D01*
X175927345Y-124314303D01*
X175927139Y-124314262D01*
X175902583Y-124314262D01*
X175902392Y-124314341D01*
X175902204Y-124314418D01*
X175902200Y-124314421D01*
X175902044Y-124314802D01*
X175902061Y-124339419D01*
X175902056Y-124339419D01*
X175902085Y-124339562D01*
X175902085Y-138390270D01*
X175902001Y-138390692D01*
X168571868Y-138390692D01*
X168571785Y-138390270D01*
X168571785Y-124339562D01*
X168571813Y-124339419D01*
X168571809Y-124339419D01*
X168571824Y-124314805D01*
X168571826Y-124314803D01*
X168571747Y-124314611D01*
X168571669Y-124314421D01*
X168571665Y-124314417D01*
X168571479Y-124314341D01*
X168571287Y-124314262D01*
X168546731Y-124314262D01*
X168546525Y-124314303D01*
X154496045Y-124314303D01*
X154495839Y-124314262D01*
X154471283Y-124314262D01*
X154471092Y-124314341D01*
X154470904Y-124314418D01*
X154470900Y-124314421D01*
X154470744Y-124314802D01*
X154470761Y-124339419D01*
X154470756Y-124339419D01*
X154470785Y-124339562D01*
X154470785Y-138390270D01*
X154470701Y-138390692D01*
X139476785Y-138390692D01*
X139476785Y-118969303D01*
X139496470Y-118902264D01*
X139549274Y-118856509D01*
X139600785Y-118845303D01*
X192519026Y-118845303D01*
X192522171Y-118845343D01*
G37*
%TD.AperFunction*%
%TD*%
M02*
