M48
; DRILL file {KiCad 7.0.10} date Sun Jan 21 02:34:59 2024
; FORMAT={-:-/ absolute / inch / decimal}
; #@! TF.CreationDate,2024-01-21T02:34:59+01:00
; #@! TF.GenerationSoftware,Kicad,Pcbnew,7.0.10
; #@! TF.FileFunction,Plated,1,2,PTH
FMAT,2
INCH
; #@! TA.AperFunction,Plated,PTH,ViaDrill
T1C0.0118
; #@! TA.AperFunction,Plated,PTH,ViaDrill
T2C0.0138
; #@! TA.AperFunction,Plated,PTH,ComponentDrill
T3C0.0138
; #@! TA.AperFunction,Plated,PTH,ViaDrill
T4C0.0157
; #@! TA.AperFunction,Plated,PTH,ComponentDrill
T5C0.0157
; #@! TA.AperFunction,Plated,PTH,ComponentDrill
T6C0.0236
; #@! TA.AperFunction,Plated,PTH,ComponentDrill
T7C0.0300
; #@! TA.AperFunction,Plated,PTH,ComponentDrill
T8C0.0394
; #@! TA.AperFunction,Plated,PTH,ComponentDrill
T9C0.0551
; #@! TA.AperFunction,Plated,PTH,ComponentDrill
T10C0.0866
%
G90
G05
T1
X6.9586Y-2.8094
T2
X7.0636Y-2.6127
T3
X7.0373Y-2.4798
X7.0373Y-2.53
X7.0373Y-2.5802
X7.0875Y-2.4798
X7.0875Y-2.53
X7.0875Y-2.5802
X7.1377Y-2.4798
X7.1377Y-2.53
X7.1377Y-2.5802
T4
X1.578Y-1.6343
X1.9772Y-1.572
X1.9772Y-2.5102
X2.0713Y-4.7598
X2.165Y-3.2598
X2.165Y-4.0094
X2.1654Y-5.5091
X2.2772Y-2.3405
X2.2772Y-2.5008
X2.3154Y-1.9579
X2.3709Y-1.4031
X2.3709Y-1.5488
X2.4004Y-1.663
X2.4055Y-1.9579
X2.4815Y-2.7071
X2.5854Y-2.7071
X2.611Y-4.9591
X2.652Y-3.087
X2.652Y-3.2339
X2.7Y-4.9591
X2.7051Y-3.4587
X2.7059Y-1.0213
X2.7276Y-2.5091
X2.7457Y-3.8421
X2.7457Y-3.9898
X2.7878Y-4.6955
X2.7882Y-3.4587
X2.7898Y-4.2079
X2.8217Y-1.5724
X2.8339Y-1.0213
X2.8398Y-4.5882
X2.8906Y-4.2079
X2.9898Y-1.9587
X3.0272Y-2.3386
X3.063Y-1.9587
X3.0792Y-2.4476
X3.1028Y-3.2598
X3.1028Y-5.5094
X3.1481Y-1.4173
X3.1481Y-1.5276
X3.1762Y-1.6905
X3.1965Y-4.0098
X3.2906Y-4.7598
X3.4783Y-2.4161
X3.4791Y-2.6654
X3.5189Y-3.1197
X3.5189Y-3.2839
X3.5699Y-3.4567
X3.5768Y-3.8764
X3.5768Y-4.0323
X3.5988Y-1.6098
X3.6074Y-2.6654
X3.6489Y-4.974
X3.6684Y-4.2116
X3.6725Y-4.6697
X3.6725Y-4.8173
X3.6981Y-3.4567
X3.7741Y-5.0006
X3.7936Y-4.2382
X3.8552Y-2.4067
X3.8552Y-2.561
X3.8682Y-1.9517
X3.8909Y-3.2866
X3.9386Y-1.4756
X3.9386Y-1.661
X3.9677Y-1.7717
X3.985Y-4.0732
X3.9933Y-1.9783
X4.0787Y-4.8598
X4.1059Y-5.6323
X4.2051Y-2.7898
X4.2174Y-3.1858
X4.2174Y-3.3504
X4.2535Y-2.5961
X4.2945Y-3.5769
X4.304Y-3.9709
X4.304Y-4.1394
X4.3303Y-2.8165
X4.352Y-4.3556
X4.3732Y-1.702
X4.4091Y-4.7634
X4.4091Y-4.9153
X4.4197Y-3.6035
X4.4771Y-4.3822
X4.6142Y-2.4988
X4.6142Y-2.7039
X4.6244Y-3.4433
X4.6382Y-2.1127
X4.7181Y-4.2287
X4.7225Y-1.5901
X4.7225Y-1.7905
X4.7511Y-1.9132
X4.7634Y-2.1393
X4.7882Y-5.2122
X4.8118Y-5.0161
X4.9055Y-5.2122
X4.9138Y-2.9395
X4.9477Y-3.3441
X4.9477Y-3.4929
X4.987Y-2.7528
X5.0264Y-3.7406
X5.039Y-2.9661
X5.0441Y-4.124
X5.0441Y-4.2878
X5.1166Y-4.5127
X5.1394Y-1.8461
X5.1516Y-3.7672
X5.2417Y-4.5393
X5.3134Y-2.6539
X5.3134Y-2.8035
X5.3579Y-3.5988
X5.3886Y-2.2706
X5.4524Y-4.3843
X5.5138Y-2.2972
X5.5457Y-5.172
X5.5461Y-1.7563
X5.5461Y-1.9362
X5.5732Y-5.9445
X5.5755Y-2.0875
X5.6154Y-3.7394
X5.6614Y-3.0985
X5.6843Y-3.5035
X5.6843Y-3.6504
X5.7205Y-2.9083
X5.7555Y-3.8863
X5.7796Y-4.2858
X5.7796Y-4.4413
X5.7866Y-3.1251
X5.8426Y-3.8177
X5.8429Y-4.6706
X5.8807Y-3.9129
X5.9681Y-4.6972
X5.9882Y-1.9831
X6.0426Y-2.8122
X6.0426Y-2.9547
X6.0917Y-3.7547
X6.1272Y-2.428
X6.1858Y-4.5409
X6.2523Y-2.4546
X6.2787Y-5.3283
X6.313Y-1.8638
X6.313Y-2.0177
X6.3272Y-1.4693
X6.3493Y-2.2138
X6.4539Y-3.0642
X6.4673Y-1.4811
X6.6901Y-2.5009
X6.6902Y-2.5516
X6.6903Y-2.4615
X6.7115Y-4.4992
X6.7205Y-4.8012
X6.7291Y-2.4189
X6.7296Y-2.4584
X6.7623Y-5.1626
X6.7623Y-5.2299
X6.7681Y-2.3744
X6.7681Y-2.4138
X6.7764Y-2.0583
X6.7768Y-1.9531
X6.7913Y-2.5694
X6.8662Y-4.9468
X6.9311Y-2.2366
X6.9638Y-2.1752
X6.972Y-1.7024
X7.0303Y-2.4374
X7.0538Y-1.5862
X7.1138Y-2.2417
X7.1146Y-1.8909
X7.1398Y-2.2794
X7.1543Y-1.6469
X7.1732Y-1.5835
X7.2126Y-4.9472
X7.2126Y-5.6969
X7.3051Y-2.2197
X7.3758Y-2.443
X7.3844Y-2.5693
X7.4548Y-2.9287
X7.5052Y-3.0252
X7.6288Y-4.6535
X7.648Y-2.0264
X7.648Y-2.3697
X7.691Y-5.1638
X7.7178Y-5.5173
X7.7229Y-4.3681
X7.9272Y-3.1114
X7.9465Y-1.8358
X7.9465Y-1.9425
X7.9638Y-2.9921
X8.1386Y-5.2543
X8.1693Y-2.9146
X8.1886Y-2.7776
X8.2319Y-4.4681
X8.2386Y-2.8724
X8.326Y-3.6811
X8.4331Y-1.9402
X8.4867Y-4.2362
X8.4867Y-4.3689
X8.661Y-5.9102
X8.6976Y-2.835
X8.7686Y-1.722
X8.8107Y-1.8181
X8.8713Y-5.0996
X8.8772Y-5.6953
X8.9241Y-2.623
X8.965Y-4.3122
X8.9741Y-2.7178
X9.0591Y-3.5256
X9.1312Y-4.8787
X9.1607Y-4.9941
X9.1906Y-4.0953
X9.1906Y-4.2079
X9.278Y-1.7732
X9.3886Y-5.6953
X9.4315Y-2.6795
X9.556Y-1.5524
X9.556Y-1.6653
X9.5752Y-5.0346
X9.6047Y-4.9429
X9.6563Y-2.4655
X9.6984Y-4.1563
X9.7063Y-2.5604
X9.7638Y-3.4653
X9.7929Y-3.3697
X9.8812Y-4.9161
X9.9283Y-3.9377
X9.9283Y-4.0503
X9.9918Y-1.7445
X9.9997Y-3.3575
X10.0472Y-1.6531
X10.0532Y-3.1524
X10.0532Y-3.2539
X10.165Y-2.5232
X10.2288Y-1.6744
X10.2792Y-5.6484
X10.3063Y-4.8776
X10.3118Y-5.5594
X10.3386Y-4.787
X10.352Y-1.4598
X10.352Y-1.5898
X10.4331Y-4.0
X10.4335Y-1.7157
X10.4894Y-5.5602
X10.4926Y-3.3051
X10.4973Y-2.322
X10.4973Y-2.5331
X10.5075Y-1.6917
X10.5256Y-3.2142
X10.5434Y-4.774
X10.7508Y-1.6752
X10.7784Y-3.8339
X10.7788Y-4.0008
X10.7941Y-2.8299
X10.7941Y-3.1335
X10.8236Y-1.5866
X10.8721Y-3.0661
X10.9476Y-2.4161
X11.0063Y-1.6209
X11.0945Y-4.8377
X11.135Y-4.7598
X11.1536Y-1.4098
X11.1536Y-1.5744
X11.206Y-1.6748
X11.2287Y-4.0098
X11.2473Y-2.3303
X11.2473Y-2.4803
X11.2721Y-3.3398
X11.2729Y-5.5865
X11.2792Y-1.6547
X11.3224Y-3.2594
X11.3228Y-5.5098
X11.3406Y-4.7929
X11.5008Y-5.5527
X11.5284Y-3.8453
X11.5284Y-3.9646
X11.5327Y-1.6547
X11.6035Y-1.572
X11.6225Y-3.0756
X11.6571Y-2.5905
X11.698Y-2.5098
X11.8067Y-1.6059
X11.9319Y-5.5114
X11.9787Y-4.0091
X11.9973Y-1.4079
X11.9973Y-1.5575
X12.004Y-5.4394
X12.0536Y-3.3527
X12.0697Y-1.6768
X12.0728Y-3.2598
X12.0819Y-4.8713
X12.115Y-4.8386
X12.1418Y-1.6512
X12.1665Y-4.7598
X12.2524Y-3.2996
X12.3461Y-4.8228
X12.3662Y-1.6512
X12.3725Y-2.3453
X12.3725Y-2.4811
X12.3725Y-3.0949
X12.3725Y-3.2142
X12.3749Y-4.7905
X12.4488Y-1.5724
X12.5413Y-5.6035
X12.7473Y-3.8378
X12.7473Y-3.9634
X12.7812Y-2.5905
X12.8012Y-3.3543
X12.8228Y-2.5094
X12.8228Y-3.2598
X12.841Y-1.3752
X12.9961Y-3.302
X12.9981Y-2.5783
X13.0426Y-2.6968
X13.0524Y-2.4295
X13.1705Y-2.3513
X13.1969Y-2.3205
X13.1976Y-4.0094
X13.2894Y-3.2075
X13.2913Y-1.572
X13.2913Y-4.8535
X13.2913Y-5.6031
X13.3099Y-3.0953
X13.4307Y-5.0917
X13.4666Y-1.6968
X13.5575Y-5.0315
X13.5902Y-1.4063
X13.7602Y-3.2594
X13.9118Y-1.0209
X13.9476Y-2.5098
X14.0413Y-1.5724
X14.0413Y-5.6035
X14.0465Y-1.0209
T5
X6.9199Y-1.4581
X6.9199Y-1.5112
X6.9534Y-1.4581
X6.9534Y-1.5112
X6.9869Y-1.4581
X6.9869Y-1.5112
X7.0203Y-1.4581
X7.0203Y-1.5112
X7.0538Y-1.4581
X7.0538Y-1.5112
X7.0873Y-1.4581
X7.0873Y-1.5112
X7.1207Y-1.4581
X7.1207Y-1.5112
X7.1542Y-1.4581
X7.1542Y-1.5112
T7
X1.3394Y-5.1153
X1.3394Y-5.2138
X1.3394Y-5.3122
X6.7406Y-6.1827
X6.9374Y-6.1827
X7.1343Y-6.1827
X7.3311Y-6.1827
T8
X13.7297Y-4.2456
X13.7297Y-4.3456
X13.7297Y-4.7542
X13.7297Y-4.8542
X13.7297Y-4.9542
T9
X6.7012Y-6.0843
X6.9768Y-6.0843
X7.0949Y-6.0843
X7.3705Y-6.0843
T10
X2.2252Y-1.8106
X3.4855Y-5.0067
X7.037Y-3.3004
X10.5882Y-5.0055
X11.8481Y-1.8138
X13.9815Y-3.5118
T6
G00X6.8668Y-1.3238
M15
G01X6.8668Y-1.3553
M16
G05
G00X6.8668Y-1.4431
M15
G01X6.8668Y-1.5022
M16
G05
G00X7.2073Y-1.3238
M15
G01X7.2073Y-1.3553
M16
G05
G00X7.2073Y-1.4431
M15
G01X7.2073Y-1.5022
M16
G05
M30
