M48
; DRILL file {KiCad 7.0.10} date Tue Jan 30 23:25:51 2024
; FORMAT={-:-/ absolute / inch / decimal}
; #@! TF.CreationDate,2024-01-30T23:25:51+01:00
; #@! TF.GenerationSoftware,Kicad,Pcbnew,7.0.10
; #@! TF.FileFunction,Plated,1,2,PTH
FMAT,2
INCH
; #@! TA.AperFunction,Plated,PTH,ViaDrill
T1C0.0118
; #@! TA.AperFunction,Plated,PTH,ComponentDrill
T2C0.0138
; #@! TA.AperFunction,Plated,PTH,ViaDrill
T3C0.0157
; #@! TA.AperFunction,Plated,PTH,ComponentDrill
T4C0.0157
; #@! TA.AperFunction,Plated,PTH,ComponentDrill
T5C0.0236
; #@! TA.AperFunction,Plated,PTH,ComponentDrill
T6C0.0300
; #@! TA.AperFunction,Plated,PTH,ComponentDrill
T7C0.0394
; #@! TA.AperFunction,Plated,PTH,ComponentDrill
T8C0.0551
; #@! TA.AperFunction,Plated,PTH,ComponentDrill
T9C0.0866
%
G90
G05
T1
X5.7555Y-6.0906
X5.7555Y-6.4835
X5.8146Y-7.0343
X5.9496Y-7.4327
X5.9781Y-6.4976
X6.0067Y-5.5185
X6.062Y-7.8774
X6.0675Y-7.8348
X6.0715Y-7.7923
X6.1803Y-5.3984
X6.2409Y-6.4004
X6.3839Y-7.8902
X6.4123Y-7.9187
X6.428Y-7.148
X6.439Y-7.9488
X6.5337Y-5.3982
X6.5337Y-6.3364
X6.6278Y-8.586
X6.7215Y-7.086
X6.7215Y-7.8356
X6.7219Y-9.3352
X6.8337Y-6.1667
X6.8337Y-6.327
X6.8636Y-9.0774
X6.8719Y-5.7841
X6.9274Y-5.425
X6.9274Y-5.5214
X6.9275Y-5.1687
X6.962Y-5.7841
X7.038Y-6.5333
X7.1283Y-8.7852
X7.1419Y-6.5333
X7.2087Y-6.8447
X7.2087Y-8.6311
X7.2089Y-7.1018
X7.2173Y-7.2848
X7.2624Y-4.8474
X7.2841Y-6.3352
X7.2965Y-8.7852
X7.3025Y-7.6215
X7.3207Y-9.2061
X7.3781Y-5.3986
X7.3902Y-7.2848
X7.3904Y-4.8474
X7.3962Y-8.0798
X7.3962Y-8.3596
X7.4407Y-5.7415
X7.5837Y-6.1648
X7.6535Y-6.2917
X7.6593Y-7.086
X7.6593Y-9.3356
X7.663Y-5.7413
X7.7081Y-5.3925
X7.7081Y-5.5319
X7.7213Y-5.2051
X7.753Y-7.836
X7.847Y-8.586
X7.9673Y-6.4906
X7.9963Y-7.0657
X8.0073Y-9.2061
X8.0348Y-6.2423
X8.0453Y-6.837
X8.0614Y-7.2354
X8.0663Y-4.8797
X8.0681Y-8.7187
X8.1394Y-7.6232
X8.1553Y-5.436
X8.1815Y-8.6496
X8.2067Y-4.8891
X8.229Y-8.4323
X8.2996Y-8.102
X8.3083Y-7.2354
X8.3468Y-8.7775
X8.3661Y-6.337
X8.3681Y-5.7145
X8.386Y-9.2866
X8.4071Y-6.1492
X8.4106Y-6.4906
X8.4474Y-7.1128
X8.4819Y-5.4886
X8.4819Y-5.6339
X8.5122Y-5.2673
X8.5415Y-7.8994
X8.5807Y-5.7597
X8.6352Y-8.686
X8.6624Y-9.4585
X8.6787Y-6.5475
X8.7423Y-7.168
X8.7594Y-7.3313
X8.7823Y-6.9791
X8.81Y-6.4222
X8.8744Y-7.774
X8.8809Y-4.9659
X8.902Y-6.5948
X8.9297Y-5.5281
X8.9656Y-8.572
X8.9657Y-8.9972
X9.0165Y-7.386
X9.0203Y-4.9851
X9.0323Y-8.2567
X9.1075Y-6.4626
X9.1303Y-5.8765
X9.1394Y-6.3134
X9.1809Y-7.2695
X9.2512Y-5.602
X9.2512Y-5.7933
X9.2746Y-8.0549
X9.3039Y-5.3543
X9.3594Y-5.9252
X9.361Y-8.9925
X9.3683Y-8.8423
X9.4067Y-6.702
X9.4756Y-7.3232
X9.4933Y-7.4873
X9.5134Y-7.1461
X9.5435Y-6.5789
X9.5636Y-9.5369
X9.6066Y-7.9358
X9.6228Y-6.7479
X9.6689Y-8.8706
X9.6844Y-5.1073
X9.6959Y-5.6722
X9.7008Y-8.7213
X9.728Y-8.9925
X9.7287Y-7.5373
X9.7661Y-8.4138
X9.8221Y-5.1361
X9.8382Y-6.6319
X9.8751Y-6.4563
X9.8961Y-9.6076
X9.9144Y-7.425
X9.9346Y-6.0475
X10.0089Y-8.2104
X10.0961Y-5.7744
X10.0961Y-5.9598
X10.1022Y-8.9982
X10.122Y-5.5646
X10.1297Y-9.7707
X10.1339Y-6.8563
X10.1819Y-6.1001
X10.2093Y-7.4785
X10.2307Y-7.644
X10.248Y-7.2976
X10.277Y-6.7344
X10.3425Y-8.0819
X10.3697Y-6.9064
X10.4026Y-9.0266
X10.4363Y-8.8681
X10.4851Y-5.2481
X10.4925Y-7.6997
X10.4996Y-8.5693
X10.5447Y-5.8093
X10.5713Y-6.7921
X10.6113Y-6.5971
X10.6248Y-5.2648
X10.6482Y-7.5809
X10.6697Y-6.2038
X10.7423Y-8.3671
X10.8352Y-9.1545
X10.8823Y-5.861
X10.8823Y-6.0508
X10.8837Y-5.2955
X10.9024Y-6.2533
X10.9028Y-5.6331
X11.0104Y-6.8904
X11.0238Y-5.3073
X11.024Y-7.0453
X11.1396Y-6.2002
X11.1417Y-6.9748
X11.1703Y-6.2002
X11.1994Y-8.4041
X11.201Y-6.2002
X11.2317Y-6.2002
X11.2329Y-6.4002
X11.2624Y-6.2002
X11.2931Y-6.2002
X11.3008Y-6.5929
X11.3187Y-8.3761
X11.3187Y-9.1126
X11.3187Y-8.7358
X11.3213Y-5.8244
X11.3238Y-6.2002
X11.3259Y-6.3952
X11.3329Y-5.8844
X11.3443Y-5.3404
X11.3535Y-5.7421
X11.3541Y-9.349
X11.3814Y-6.204
X11.388Y-6.6341
X11.4227Y-8.773
X11.4583Y-6.6744
X11.4825Y-6.1018
X11.4829Y-6.2067
X11.4998Y-6.7014
X11.5195Y-5.9793
X11.5223Y-6.1016
X11.5285Y-5.5285
X11.5407Y-6.7014
X11.5612Y-6.1016
X11.5659Y-8.1289
X11.5892Y-6.6352
X11.6184Y-6.2519
X11.6593Y-6.0927
X11.6711Y-5.7171
X11.6793Y-6.2565
X11.6833Y-6.4557
X11.6955Y-6.0003
X11.7102Y-6.1189
X11.7108Y-5.473
X11.7392Y-6.3797
X11.76Y-6.027
X11.7609Y-6.0657
X11.7691Y-8.7734
X11.7691Y-9.523
X11.8011Y-6.6476
X11.8405Y-5.8854
X11.8407Y-6.2372
X11.8512Y-6.3949
X11.8606Y-9.5326
X11.8703Y-6.0179
X11.8736Y-6.7586
X11.8797Y-6.8415
X11.894Y-9.4738
X11.9011Y-6.7577
X11.9175Y-9.3604
X11.9281Y-6.2372
X11.9287Y-6.7573
X11.9415Y-6.3955
X11.9562Y-6.7565
X11.9829Y-6.2482
X11.9838Y-6.7565
X12.0297Y-6.2632
X12.0297Y-6.4819
X12.0453Y-6.7514
X12.0559Y-9.387
X12.0571Y-9.3528
X12.0604Y-6.2632
X12.0633Y-6.1779
X12.0764Y-9.2914
X12.0774Y-6.073
X12.0837Y-6.8415
X12.0911Y-6.2632
X12.0996Y-7.0593
X12.1219Y-6.1179
X12.1219Y-6.2632
X12.1526Y-6.2632
X12.1631Y-8.5866
X12.169Y-5.3036
X12.1697Y-8.7764
X12.1837Y-6.2632
X12.1839Y-7.2165
X12.1904Y-6.46
X12.2045Y-5.8526
X12.2159Y-6.2632
X12.2185Y-9.0067
X12.2726Y-7.8514
X12.2801Y-5.5593
X12.297Y-7.0868
X12.297Y-7.8785
X12.3118Y-8.2126
X12.3148Y-5.7366
X12.4043Y-7.424
X12.4469Y-7.6256
X12.5203Y-6.8183
X12.5232Y-5.6608
X12.5441Y-5.8327
X12.5487Y-9.47
X12.5787Y-6.6035
X12.6165Y-6.1832
X12.6319Y-9.7415
X12.6811Y-9.2736
X12.6951Y-9.0805
X12.7127Y-9.274
X12.7307Y-5.2444
X12.7309Y-6.8417
X12.7697Y-6.5516
X12.7884Y-8.2943
X12.8327Y-6.1372
X12.8825Y-7.5073
X12.9331Y-5.2192
X12.9465Y-8.822
X12.9575Y-9.6724
X12.962Y-8.5404
X12.9877Y-9.0217
X12.9896Y-5.7663
X13.0138Y-5.7044
X13.0432Y-8.0624
X13.0518Y-7.7006
X13.053Y-6.7881
X13.2175Y-9.7364
X13.2541Y-6.6612
X13.276Y-7.474
X13.2862Y-5.671
X13.2862Y-6.0408
X13.2978Y-9.0846
X13.3225Y-9.4102
X13.3615Y-5.5444
X13.3984Y-5.7177
X13.4278Y-8.9258
X13.4561Y-9.2467
X13.4667Y-9.2774
X13.511Y-5.993
X13.513Y-5.1045
X13.5173Y-6.465
X13.5215Y-8.1384
X13.5222Y-9.0262
X13.5511Y-8.9911
X13.6156Y-7.3518
X13.6396Y-6.6663
X13.653Y-8.4244
X13.664Y-9.6144
X13.6876Y-8.7049
X13.7181Y-8.8496
X13.7306Y-5.0579
X13.7738Y-7.8819
X13.7746Y-6.6364
X13.7945Y-9.0262
X13.7986Y-6.7676
X13.8055Y-7.3615
X13.8344Y-5.5994
X13.8677Y-7.0933
X13.988Y-6.5057
X14.0091Y-5.887
X14.1348Y-5.377
X14.1604Y-5.5591
X14.1612Y-8.7691
X14.2236Y-5.8414
X14.248Y-6.2961
X14.2549Y-7.9825
X14.3201Y-4.9638
X14.3494Y-7.1959
X14.3512Y-9.3765
X14.3758Y-6.512
X14.3908Y-8.2642
X14.5146Y-7.7567
X14.5335Y-6.6165
X14.5339Y-7.2071
X14.5406Y-4.9325
X14.551Y-6.4699
X14.6037Y-5.4793
X14.6097Y-6.9785
X14.6157Y-9.3203
X14.619Y-8.8449
X14.6352Y-8.8222
X14.7215Y-6.3494
X14.7736Y-8.7587
X14.7921Y-5.7205
X14.8172Y-5.5109
X14.8683Y-9.3856
X14.8746Y-9.4357
X14.8951Y-8.6132
X14.9177Y-8.7587
X14.9203Y-5.2856
X14.9618Y-8.6921
X14.9892Y-8.7107
X14.9896Y-7.8262
X14.99Y-5.5419
X14.9927Y-7.1099
X15.0538Y-6.1482
X15.064Y-5.5179
X15.0821Y-7.0404
X15.087Y-6.4847
X15.1374Y-4.8773
X15.1518Y-5.6927
X15.2346Y-7.2721
X15.3073Y-5.5014
X15.315Y-8.1228
X15.3349Y-7.6081
X15.3506Y-6.6561
X15.3506Y-7.0457
X15.3543Y-4.862
X15.3705Y-6.4585
X15.3801Y-5.4128
X15.3982Y-6.4856
X15.4002Y-7.2722
X15.4286Y-6.8923
X15.5041Y-6.2423
X15.5628Y-5.447
X15.6582Y-5.4776
X15.6748Y-5.6911
X15.6915Y-8.586
X15.7101Y-5.236
X15.7852Y-7.836
X15.8038Y-6.1565
X15.8038Y-6.3065
X15.8789Y-7.0856
X15.8793Y-9.336
X15.9024Y-5.737
X15.9614Y-4.8466
X15.9844Y-6.388
X16.0849Y-7.5929
X16.16Y-5.3982
X16.1735Y-4.8462
X16.1787Y-6.6187
X16.2132Y-6.4585
X16.2545Y-6.336
X16.2724Y-8.0366
X16.3581Y-6.5612
X16.4903Y-5.4793
X16.5352Y-7.8352
X16.5537Y-5.5376
X16.5538Y-5.234
X16.6138Y-9.2122
X16.6293Y-7.086
X16.6553Y-9.2852
X16.723Y-8.586
X16.7268Y-7.8106
X16.7587Y-7.8106
X16.7882Y-7.8102
X16.7886Y-5.737
X16.7957Y-4.8467
X16.8669Y-9.3154
X16.9285Y-8.0699
X16.9287Y-6.1037
X16.9287Y-6.876
X16.929Y-6.3073
X17.0053Y-5.3986
X17.013Y-5.737
X17.0171Y-4.8467
X17.0559Y-7.6622
X17.0978Y-9.4297
X17.1248Y-6.9703
X17.1916Y-5.4321
X17.2274Y-8.8281
X17.3037Y-7.4105
X17.3037Y-7.6012
X17.3154Y-7.9146
X17.3376Y-6.4167
X17.3567Y-9.3156
X17.3584Y-8.6801
X17.3747Y-8.6574
X17.3793Y-6.3356
X17.3793Y-7.086
X17.3975Y-5.2262
X17.4201Y-8.6754
X17.4211Y-8.7029
X17.4984Y-8.8281
X17.5039Y-6.9374
X17.5211Y-8.0699
X17.5546Y-6.4463
X17.5626Y-6.302
X17.6004Y-9.3156
X17.704Y-6.6279
X17.7541Y-7.8356
X17.7567Y-6.9087
X17.8478Y-5.3982
X17.8478Y-8.6797
X17.8478Y-9.4293
X17.8662Y-6.8646
X17.8739Y-6.1466
X17.8843Y-6.1774
X17.9099Y-8.7834
X17.9235Y-8.8074
X17.9766Y-5.5695
X17.9888Y-8.877
X18.1039Y-9.3156
X18.114Y-8.8577
X18.1474Y-5.211
X18.1478Y-8.7128
X18.1699Y-8.0944
X18.1717Y-6.3984
X18.223Y-7.7864
X18.2512Y-6.3984
X18.3167Y-7.0856
X18.3618Y-9.3156
X18.3988Y-4.847
X18.5041Y-6.336
X18.5978Y-5.3986
X18.5978Y-9.4297
X18.603Y-4.847
X18.7136Y-5.2965
X18.7136Y-5.79
T2
X11.5938Y-6.306
X11.5938Y-6.3562
X11.5938Y-6.4064
X11.644Y-6.306
X11.644Y-6.3562
X11.644Y-6.4064
X11.6942Y-6.306
X11.6942Y-6.3562
X11.6942Y-6.4064
T3
X6.1344Y-5.4604
X11.6103Y-5.4124
X11.699Y-5.2423
X13.7441Y-7.5776
X14.0012Y-7.3205
X14.4689Y-7.4047
X14.7031Y-7.1705
X15.4264Y-9.2961
X15.6295Y-9.2224
X15.913Y-9.3854
X16.163Y-7.2752
X16.502Y-9.324
T4
X11.4764Y-5.2842
X11.4764Y-5.3374
X11.5099Y-5.2842
X11.5099Y-5.3374
X11.5434Y-5.2842
X11.5434Y-5.3374
X11.5768Y-5.2842
X11.5768Y-5.3374
X11.6103Y-5.2842
X11.6103Y-5.3374
X11.6438Y-5.2842
X11.6438Y-5.3374
X11.6772Y-5.2842
X11.6772Y-5.3374
X11.7107Y-5.2842
X11.7107Y-5.3374
T6
X5.698Y-5.0528
X5.698Y-5.2496
X5.698Y-5.4465
X5.698Y-5.6433
X5.7266Y-7.1531
X5.7266Y-7.2516
X5.7266Y-7.35
T7
X18.2862Y-8.0718
X18.2862Y-8.1718
X18.2862Y-8.5804
X18.2862Y-8.6804
X18.2862Y-8.7804
T8
X5.7965Y-5.0134
X5.7965Y-5.289
X5.7965Y-5.4071
X5.7965Y-5.6827
T9
X6.7817Y-5.6368
X8.042Y-8.8329
X11.5935Y-7.1266
X15.1447Y-8.8317
X16.4046Y-5.64
X18.538Y-7.338
T5
G00X11.4233Y-5.15
M15
G01X11.4233Y-5.1815
M16
G05
G00X11.4233Y-5.2693
M15
G01X11.4233Y-5.3283
M16
G05
G00X11.7638Y-5.15
M15
G01X11.7638Y-5.1815
M16
G05
G00X11.7638Y-5.2693
M15
G01X11.7638Y-5.3283
M16
G05
M30
