%TF.GenerationSoftware,KiCad,Pcbnew,7.0.10*%
%TF.CreationDate,2024-01-30T23:25:51+01:00*%
%TF.ProjectId,Wonderland,576f6e64-6572-46c6-916e-642e6b696361,rev?*%
%TF.SameCoordinates,Original*%
%TF.FileFunction,Profile,NP*%
%FSLAX46Y46*%
G04 Gerber Fmt 4.6, Leading zero omitted, Abs format (unit mm)*
G04 Created by KiCad (PCBNEW 7.0.10) date 2024-01-30 23:25:51*
%MOMM*%
%LPD*%
G01*
G04 APERTURE LIST*
%TA.AperFunction,Profile*%
%ADD10C,0.200000*%
%TD*%
%TA.AperFunction,Profile*%
%ADD11C,0.050000*%
%TD*%
%TA.AperFunction,Profile*%
%ADD12C,0.120000*%
%TD*%
G04 APERTURE END LIST*
D10*
X274767384Y-133023528D02*
X275267384Y-133023528D01*
X213314991Y-123220069D02*
X215137378Y-123359057D01*
X386982251Y-240907303D02*
X384061141Y-240907303D01*
X202007535Y-240907303D02*
X178195035Y-240907303D01*
X396507251Y-121844803D02*
X415557251Y-121844803D01*
X354987802Y-126010305D02*
X373852409Y-123359057D01*
D11*
X474319751Y-221772928D02*
X477469751Y-221772928D01*
D10*
X173432535Y-121844803D02*
X192482535Y-121844803D01*
X234001984Y-126010305D02*
X235811455Y-126241200D01*
X458419751Y-121844803D02*
X477469751Y-121844803D01*
X410794751Y-240907303D02*
X386982251Y-240907303D01*
X204928645Y-240907303D02*
X226549421Y-245502941D01*
X288994893Y-129479169D02*
X288994893Y-134224530D01*
X142476285Y-240907303D02*
X154382535Y-240907303D01*
X334544620Y-130201917D02*
X353178332Y-126241200D01*
X353178332Y-126241200D02*
X354987802Y-126010305D01*
D11*
X474319751Y-221772928D02*
X474319751Y-205272928D01*
D10*
X353123509Y-247483300D02*
X362440365Y-245502941D01*
X142476285Y-221857303D02*
X142476285Y-240907303D01*
X439369751Y-243288553D02*
X420319751Y-243288553D01*
X472819753Y-204322929D02*
G75*
G03*
X470619751Y-204322929I-1100001J0D01*
G01*
X470619751Y-204322929D02*
G75*
G03*
X472819753Y-204322929I1100001J0D01*
G01*
X275267384Y-133023528D02*
X288994893Y-134224530D01*
X254445166Y-130201917D02*
X255859380Y-130701917D01*
X472819752Y-222722926D02*
G75*
G03*
X470619750Y-222722926I-1100001J0D01*
G01*
X470619750Y-222722926D02*
G75*
G03*
X472819752Y-222722926I1100001J0D01*
G01*
X277792128Y-256394914D02*
X226549421Y-245502941D01*
X333130406Y-130701917D02*
X334544620Y-130201917D01*
X235811455Y-126241200D02*
X254445166Y-130201917D01*
X477469751Y-121844803D02*
X477469751Y-140894803D01*
X314222402Y-133023528D02*
X333130406Y-130701917D01*
X194311396Y-121891208D02*
X213314991Y-123220069D01*
X477469751Y-221772928D02*
X477469751Y-243288553D01*
X394678390Y-121891208D02*
X396507251Y-121844803D01*
X255859380Y-130701917D02*
X274767384Y-133023528D01*
X477469751Y-205272928D02*
X477469751Y-140894803D01*
X477469751Y-243288553D02*
X458419751Y-243288553D01*
D11*
X288994893Y-129479169D02*
X299994893Y-129479169D01*
D10*
X171051285Y-121844803D02*
X173432535Y-121844803D01*
D11*
X474319751Y-205272928D02*
X477469751Y-205272928D01*
D10*
X439369751Y-121844803D02*
X458419751Y-121844803D01*
X465469751Y-213522928D02*
G75*
G03*
X463269751Y-213522928I-1100000J0D01*
G01*
X463269751Y-213522928D02*
G75*
G03*
X465469751Y-213522928I1100000J0D01*
G01*
X202007535Y-240907303D02*
X204928645Y-240907303D01*
X417938501Y-121844803D02*
X436988501Y-121844803D01*
X142476285Y-121844803D02*
X142476285Y-202807303D01*
X299994893Y-134224530D02*
X313722402Y-133023528D01*
X420319751Y-240907303D02*
X420319751Y-243288553D01*
X192482535Y-121844803D02*
X194311396Y-121891208D01*
X142476285Y-221857303D02*
X142476285Y-202807303D01*
X353123509Y-247483300D02*
X311197658Y-256394914D01*
X458419751Y-243288553D02*
X439369751Y-243288553D01*
X313722402Y-133023528D02*
X314222402Y-133023528D01*
X436988501Y-121844803D02*
X439369751Y-121844803D01*
X373852409Y-123359057D02*
X375674795Y-123220069D01*
X375674795Y-123220069D02*
X394678390Y-121891208D01*
X277792128Y-256394914D02*
X311197658Y-256394914D01*
X152001285Y-121844803D02*
X142476285Y-121844803D01*
X410794751Y-240907303D02*
X420319751Y-240907303D01*
X362440365Y-245502941D02*
X384061141Y-240907303D01*
X152001285Y-121844803D02*
X171051285Y-121844803D01*
X415557251Y-121844803D02*
X417938501Y-121844803D01*
X299994893Y-129479169D02*
X299994893Y-134224530D01*
X178195035Y-240907303D02*
X154382535Y-240907303D01*
X215137378Y-123359057D02*
X234001984Y-126010305D01*
D12*
%TO.C,RGBF7*%
X428145000Y-237265000D02*
X431545000Y-237265000D01*
X428145000Y-240265000D02*
X428145000Y-237265000D01*
X431545000Y-237265000D02*
X431545000Y-240265000D01*
X431545000Y-240265000D02*
X428145000Y-240265000D01*
%TO.C,RGBE8*%
X334600282Y-225791228D02*
X337925983Y-225084329D01*
X335224017Y-228725671D02*
X334600282Y-225791228D01*
X337925983Y-225084329D02*
X338549718Y-228018772D01*
X338549718Y-228018772D02*
X335224017Y-228725671D01*
%TO.C,RGBA3*%
X221075971Y-137344448D02*
X224442882Y-137817636D01*
X220658452Y-140315252D02*
X221075971Y-137344448D01*
X224442882Y-137817636D02*
X224025363Y-140788440D01*
X224025363Y-140788440D02*
X220658452Y-140315252D01*
%TO.C,RGBC6*%
X320731939Y-189785014D02*
X324057640Y-189078115D01*
X321355674Y-192719457D02*
X320731939Y-189785014D01*
X324057640Y-189078115D02*
X324681375Y-192012558D01*
X324681375Y-192012558D02*
X321355674Y-192719457D01*
%TO.C,RGBF1*%
X188405000Y-234875000D02*
X191805000Y-234875000D01*
X188405000Y-237875000D02*
X188405000Y-234875000D01*
X191805000Y-234875000D02*
X191805000Y-237875000D01*
X191805000Y-237875000D02*
X188405000Y-237875000D01*
%TO.C,RGBD11*%
X394805000Y-196785000D02*
X398205000Y-196785000D01*
X394805000Y-199785000D02*
X394805000Y-196785000D01*
X398205000Y-196785000D02*
X398205000Y-199785000D01*
X398205000Y-199785000D02*
X394805000Y-199785000D01*
%TO.C,RGBA10*%
X364552785Y-137816192D02*
X367919696Y-137343004D01*
X364970304Y-140786996D02*
X364552785Y-137816192D01*
X367919696Y-137343004D02*
X368337215Y-140313808D01*
X368337215Y-140313808D02*
X364970304Y-140786996D01*
%TO.C,RGBF3*%
X251763807Y-244697765D02*
X255089508Y-245404664D01*
X251140072Y-247632208D02*
X251763807Y-244697765D01*
X255089508Y-245404664D02*
X254465773Y-248339107D01*
X254465773Y-248339107D02*
X251140072Y-247632208D01*
%TO.C,RGBA5*%
X262030476Y-144579003D02*
X265405132Y-144993359D01*
X261664868Y-147556641D02*
X262030476Y-144579003D01*
X265405132Y-144993359D02*
X265039524Y-147970997D01*
X265039524Y-147970997D02*
X261664868Y-147556641D01*
%TO.C,RGBF10*%
X447195000Y-134865000D02*
X450595000Y-134865000D01*
X447195000Y-137865000D02*
X447195000Y-134865000D01*
X450595000Y-134865000D02*
X450595000Y-137865000D01*
X450595000Y-137865000D02*
X447195000Y-137865000D01*
%TO.C,RGBA11*%
X384394506Y-135667240D02*
X387786224Y-135430068D01*
X384603776Y-138659932D02*
X384394506Y-135667240D01*
X387786224Y-135430068D02*
X387995494Y-138422760D01*
X387995494Y-138422760D02*
X384603776Y-138659932D01*
%TO.C,RGBB8*%
X330171939Y-168295014D02*
X333497640Y-167588115D01*
X330795674Y-171229457D02*
X330171939Y-168295014D01*
X333497640Y-167588115D02*
X334121375Y-170522558D01*
X334121375Y-170522558D02*
X330795674Y-171229457D01*
%TO.C,RGBA9*%
X344911939Y-141315013D02*
X348237640Y-140608114D01*
X345535674Y-144249456D02*
X344911939Y-141315013D01*
X348237640Y-140608114D02*
X348861375Y-143542557D01*
X348861375Y-143542557D02*
X345535674Y-144249456D01*
%TO.C,RGBB13*%
X435295000Y-158675000D02*
X438695000Y-158675000D01*
X435295000Y-161675000D02*
X435295000Y-158675000D01*
X438695000Y-158675000D02*
X438695000Y-161675000D01*
X438695000Y-161675000D02*
X435295000Y-161675000D01*
%TO.C,RGBB10*%
X367441939Y-160375014D02*
X370767640Y-159668115D01*
X368065674Y-163309457D02*
X367441939Y-160375014D01*
X370767640Y-159668115D02*
X371391375Y-162602558D01*
X371391375Y-162602558D02*
X368065674Y-163309457D01*
%TO.C,RGBC1*%
X188405000Y-177735000D02*
X191805000Y-177735000D01*
X188405000Y-180735000D02*
X188405000Y-177735000D01*
X191805000Y-177735000D02*
X191805000Y-180735000D01*
X191805000Y-180735000D02*
X188405000Y-180735000D01*
%TO.C,RGBD12*%
X413855000Y-196765000D02*
X417255000Y-196765000D01*
X413855000Y-199765000D02*
X413855000Y-196765000D01*
X417255000Y-196765000D02*
X417255000Y-199765000D01*
X417255000Y-199765000D02*
X413855000Y-199765000D01*
%TO.C,RGBB1*%
X178875000Y-158665000D02*
X182275000Y-158665000D01*
X178875000Y-161665000D02*
X178875000Y-158665000D01*
X182275000Y-158665000D02*
X182275000Y-161665000D01*
X182275000Y-161665000D02*
X178875000Y-161665000D01*
%TO.C,RGBB0*%
X159825000Y-158685000D02*
X163225000Y-158685000D01*
X159825000Y-161685000D02*
X159825000Y-158685000D01*
X163225000Y-158685000D02*
X163225000Y-161685000D01*
X163225000Y-161685000D02*
X159825000Y-161685000D01*
%TO.C,RGBD4*%
X248683807Y-205087765D02*
X252009508Y-205794664D01*
X248060072Y-208022208D02*
X248683807Y-205087765D01*
X252009508Y-205794664D02*
X251385773Y-208729107D01*
X251385773Y-208729107D02*
X248060072Y-208022208D01*
%TO.C,RGBE5*%
X269693807Y-229047765D02*
X273019508Y-229754664D01*
X269070072Y-231982208D02*
X269693807Y-229047765D01*
X273019508Y-229754664D02*
X272395773Y-232689107D01*
X272395773Y-232689107D02*
X269070072Y-231982208D01*
%TO.C,RGBF6*%
X397195000Y-234885000D02*
X400595000Y-234885000D01*
X397195000Y-237885000D02*
X397195000Y-234885000D01*
X400595000Y-234885000D02*
X400595000Y-237885000D01*
X400595000Y-237885000D02*
X397195000Y-237885000D01*
%TO.C,RGBD7*%
X318351939Y-209765014D02*
X321677640Y-209058115D01*
X318975674Y-212699457D02*
X318351939Y-209765014D01*
X321677640Y-209058115D02*
X322301375Y-211992558D01*
X322301375Y-211992558D02*
X318975674Y-212699457D01*
%TO.C,RGBB6*%
X274124017Y-171554329D02*
X277449718Y-172261228D01*
X273500282Y-174488772D02*
X274124017Y-171554329D01*
X277449718Y-172261228D02*
X276825983Y-175195671D01*
X276825983Y-175195671D02*
X273500282Y-174488772D01*
%TO.C,RGBF11*%
X466245000Y-134875000D02*
X469645000Y-134875000D01*
X466245000Y-137875000D02*
X466245000Y-134875000D01*
X469645000Y-134875000D02*
X469645000Y-137875000D01*
X469645000Y-137875000D02*
X466245000Y-137875000D01*
%TO.C,RGBF8*%
X447195000Y-237255000D02*
X450595000Y-237255000D01*
X447195000Y-240255000D02*
X447195000Y-237255000D01*
X450595000Y-237255000D02*
X450595000Y-240255000D01*
X450595000Y-240255000D02*
X447195000Y-240255000D01*
%TO.C,RGBE3*%
X232424017Y-221114329D02*
X235749718Y-221821228D01*
X231800282Y-224048772D02*
X232424017Y-221114329D01*
X235749718Y-221821228D02*
X235125983Y-224755671D01*
X235125983Y-224755671D02*
X231800282Y-224048772D01*
%TO.C,RGBD1*%
X190785000Y-196785000D02*
X194185000Y-196785000D01*
X190785000Y-199785000D02*
X190785000Y-196785000D01*
X194185000Y-196785000D02*
X194185000Y-199785000D01*
X194185000Y-199785000D02*
X190785000Y-199785000D01*
%TO.C,RGBF5*%
X371171939Y-237485014D02*
X374497640Y-236778115D01*
X371795674Y-240419457D02*
X371171939Y-237485014D01*
X374497640Y-236778115D02*
X375121375Y-239712558D01*
X375121375Y-239712558D02*
X371795674Y-240419457D01*
%TO.C,RGBB11*%
X387665000Y-156305000D02*
X391065000Y-156305000D01*
X387665000Y-159305000D02*
X387665000Y-156305000D01*
X391065000Y-156305000D02*
X391065000Y-159305000D01*
X391065000Y-159305000D02*
X387665000Y-159305000D01*
%TO.C,RGBE11*%
X392425000Y-215835000D02*
X395825000Y-215835000D01*
X392425000Y-218835000D02*
X392425000Y-215835000D01*
X395825000Y-215835000D02*
X395825000Y-218835000D01*
X395825000Y-218835000D02*
X392425000Y-218835000D01*
%TO.C,RGBB7*%
X311541939Y-172265014D02*
X314867640Y-171558115D01*
X312165674Y-175199457D02*
X311541939Y-172265014D01*
X314867640Y-171558115D02*
X315491375Y-174492558D01*
X315491375Y-174492558D02*
X312165674Y-175199457D01*
%TO.C,RGBE12*%
X418625000Y-215835000D02*
X422025000Y-215835000D01*
X418625000Y-218835000D02*
X418625000Y-215835000D01*
X422025000Y-215835000D02*
X422025000Y-218835000D01*
X422025000Y-218835000D02*
X418625000Y-218835000D01*
%TO.C,RGBA13*%
X425765000Y-134865000D02*
X429165000Y-134865000D01*
X425765000Y-137865000D02*
X425765000Y-134865000D01*
X429165000Y-134865000D02*
X429165000Y-137865000D01*
X429165000Y-137865000D02*
X425765000Y-137865000D01*
%TO.C,RGBB9*%
X348810282Y-164341228D02*
X352135983Y-163634329D01*
X349434017Y-167275671D02*
X348810282Y-164341228D01*
X352135983Y-163634329D02*
X352759718Y-166568772D01*
X352759718Y-166568772D02*
X349434017Y-167275671D01*
%TO.C,RGBE13*%
X447195000Y-218215000D02*
X450595000Y-218215000D01*
X447195000Y-221215000D02*
X447195000Y-218215000D01*
X450595000Y-218215000D02*
X450595000Y-221215000D01*
X450595000Y-221215000D02*
X447195000Y-221215000D01*
%TO.C,RGBC10*%
X397185000Y-177725000D02*
X400585000Y-177725000D01*
X397185000Y-180725000D02*
X397185000Y-177725000D01*
X400585000Y-177725000D02*
X400585000Y-180725000D01*
X400585000Y-180725000D02*
X397185000Y-180725000D01*
%TO.C,RGBF4*%
X329241939Y-246395014D02*
X332567640Y-245688115D01*
X329865674Y-249329457D02*
X329241939Y-246395014D01*
X332567640Y-245688115D02*
X333191375Y-248622558D01*
X333191375Y-248622558D02*
X329865674Y-249329457D01*
%TO.C,RGBD9*%
X355611939Y-201835014D02*
X358937640Y-201128115D01*
X356235674Y-204769457D02*
X355611939Y-201835014D01*
X358937640Y-201128115D02*
X359561375Y-204062558D01*
X359561375Y-204062558D02*
X356235674Y-204769457D01*
%TO.C,RGBC0*%
X164585000Y-177735000D02*
X167985000Y-177735000D01*
X164585000Y-180735000D02*
X164585000Y-177735000D01*
X167985000Y-177735000D02*
X167985000Y-180735000D01*
X167985000Y-180735000D02*
X164585000Y-180735000D01*
%TO.C,RGBC11*%
X416245000Y-177735000D02*
X419645000Y-177735000D01*
X416245000Y-180735000D02*
X416245000Y-177735000D01*
X419645000Y-177735000D02*
X419645000Y-180735000D01*
X419645000Y-180735000D02*
X416245000Y-180735000D01*
%TO.C,RGBA8*%
X323574868Y-144993359D02*
X326949524Y-144579003D01*
X323940476Y-147970997D02*
X323574868Y-144993359D01*
X326949524Y-144579003D02*
X327315132Y-147556641D01*
X327315132Y-147556641D02*
X323940476Y-147970997D01*
%TO.C,RGBI0*%
X149940000Y-172532303D02*
X149940000Y-175932303D01*
X146940000Y-172532303D02*
X149940000Y-172532303D01*
X149940000Y-175932303D02*
X146940000Y-175932303D01*
X146940000Y-175932303D02*
X146940000Y-172532303D01*
%TO.C,RGBI2*%
X148440000Y-148560000D02*
X148440000Y-151960000D01*
X145440000Y-148560000D02*
X148440000Y-148560000D01*
X148440000Y-151960000D02*
X145440000Y-151960000D01*
X145440000Y-151960000D02*
X145440000Y-148560000D01*
%TO.C,RGBA1*%
X181255000Y-134865000D02*
X184655000Y-134865000D01*
X181255000Y-137865000D02*
X181255000Y-134865000D01*
X184655000Y-134865000D02*
X184655000Y-137865000D01*
X184655000Y-137865000D02*
X181255000Y-137865000D01*
%TO.C,RGBC13*%
X459105000Y-177725000D02*
X462505000Y-177725000D01*
X459105000Y-180725000D02*
X459105000Y-177725000D01*
X462505000Y-177725000D02*
X462505000Y-180725000D01*
X462505000Y-180725000D02*
X459105000Y-180725000D01*
%TO.C,RGBD10*%
X374251939Y-197875014D02*
X377577640Y-197168115D01*
X374875674Y-200809457D02*
X374251939Y-197875014D01*
X377577640Y-197168115D02*
X378201375Y-200102558D01*
X378201375Y-200102558D02*
X374875674Y-200809457D01*
%TO.C,RGBF12*%
X463865000Y-158685000D02*
X467265000Y-158685000D01*
X463865000Y-161685000D02*
X463865000Y-158685000D01*
X467265000Y-158685000D02*
X467265000Y-161685000D01*
X467265000Y-161685000D02*
X463865000Y-161685000D01*
%TO.C,RGBA7*%
X303675805Y-146978265D02*
X307062867Y-146681935D01*
X303937273Y-149966849D02*
X303675805Y-146978265D01*
X307062867Y-146681935D02*
X307324335Y-149670519D01*
X307324335Y-149670519D02*
X303937273Y-149966849D01*
%TO.C,RGBE9*%
X353230282Y-221821228D02*
X356555983Y-221114329D01*
X353854017Y-224755671D02*
X353230282Y-221821228D01*
X356555983Y-221114329D02*
X357179718Y-224048772D01*
X357179718Y-224048772D02*
X353854017Y-224755671D01*
%TO.C,RGBE1*%
X193175000Y-215835000D02*
X196575000Y-215835000D01*
X193175000Y-218835000D02*
X193175000Y-215835000D01*
X196575000Y-215835000D02*
X196575000Y-218835000D01*
X196575000Y-218835000D02*
X193175000Y-218835000D01*
%TO.C,RGBC2*%
X209034017Y-177194329D02*
X212359718Y-177901228D01*
X208410282Y-180128772D02*
X209034017Y-177194329D01*
X212359718Y-177901228D02*
X211735983Y-180835671D01*
X211735983Y-180835671D02*
X208410282Y-180128772D01*
%TO.C,RGBC5*%
X264934017Y-189074329D02*
X268259718Y-189781228D01*
X264310282Y-192008772D02*
X264934017Y-189074329D01*
X268259718Y-189781228D02*
X267635983Y-192715671D01*
X267635983Y-192715671D02*
X264310282Y-192008772D01*
%TO.C,RGBD8*%
X336980282Y-205801228D02*
X340305983Y-205094329D01*
X337604017Y-208735671D02*
X336980282Y-205801228D01*
X340305983Y-205094329D02*
X340929718Y-208028772D01*
X340929718Y-208028772D02*
X337604017Y-208735671D01*
%TO.C,RGBB3*%
X218224017Y-159664329D02*
X221549718Y-160371228D01*
X217600282Y-162598772D02*
X218224017Y-159664329D01*
X221549718Y-160371228D02*
X220925983Y-163305671D01*
X220925983Y-163305671D02*
X217600282Y-162598772D01*
%TO.C,RGBF0*%
X164595000Y-234865000D02*
X167995000Y-234865000D01*
X164595000Y-237865000D02*
X164595000Y-234865000D01*
X167995000Y-234865000D02*
X167995000Y-237865000D01*
X167995000Y-237865000D02*
X164595000Y-237865000D01*
%TO.C,RGBA0*%
X159815000Y-134865000D02*
X163215000Y-134865000D01*
X159815000Y-137865000D02*
X159815000Y-134865000D01*
X163215000Y-134865000D02*
X163215000Y-137865000D01*
X163215000Y-137865000D02*
X159815000Y-137865000D01*
%TO.C,RGBE0*%
X162205000Y-215835000D02*
X165605000Y-215835000D01*
X162205000Y-218835000D02*
X162205000Y-215835000D01*
X165605000Y-215835000D02*
X165605000Y-218835000D01*
X165605000Y-218835000D02*
X162205000Y-218835000D01*
%TO.C,RGBC3*%
X227663807Y-181157765D02*
X230989508Y-181864664D01*
X227040072Y-184092208D02*
X227663807Y-181157765D01*
X230989508Y-181864664D02*
X230365773Y-184799107D01*
X230365773Y-184799107D02*
X227040072Y-184092208D01*
%TO.C,RGBE4*%
X251064017Y-225074329D02*
X254389718Y-225781228D01*
X250440282Y-228008772D02*
X251064017Y-225074329D01*
X254389718Y-225781228D02*
X253765983Y-228715671D01*
X253765983Y-228715671D02*
X250440282Y-228008772D01*
%TO.C,RGBC12*%
X435295000Y-177735000D02*
X438695000Y-177735000D01*
X435295000Y-180735000D02*
X435295000Y-177735000D01*
X438695000Y-177735000D02*
X438695000Y-180735000D01*
X438695000Y-180735000D02*
X435295000Y-180735000D01*
%TO.C,RGBF9*%
X466245000Y-237265000D02*
X469645000Y-237265000D01*
X466245000Y-240265000D02*
X466245000Y-237265000D01*
X469645000Y-237265000D02*
X469645000Y-240265000D01*
X469645000Y-240265000D02*
X466245000Y-240265000D01*
%TO.C,RGBD0*%
X164585000Y-196785000D02*
X167985000Y-196785000D01*
X164585000Y-199785000D02*
X164585000Y-196785000D01*
X167985000Y-196785000D02*
X167985000Y-199785000D01*
X167985000Y-199785000D02*
X164585000Y-199785000D01*
%TO.C,RGBC7*%
X339360282Y-185821228D02*
X342685983Y-185114329D01*
X339984017Y-188755671D02*
X339360282Y-185821228D01*
X342685983Y-185114329D02*
X343309718Y-188048772D01*
X343309718Y-188048772D02*
X339984017Y-188755671D01*
%TO.C,RGBE10*%
X371870282Y-217861228D02*
X375195983Y-217154329D01*
X372494017Y-220795671D02*
X371870282Y-217861228D01*
X375195983Y-217154329D02*
X375819718Y-220088772D01*
X375819718Y-220088772D02*
X372494017Y-220795671D01*
%TO.C,RGBA12*%
X404325000Y-134865000D02*
X407725000Y-134865000D01*
X404325000Y-137865000D02*
X404325000Y-134865000D01*
X407725000Y-134865000D02*
X407725000Y-137865000D01*
X407725000Y-137865000D02*
X404325000Y-137865000D01*
%TO.C,RGBC9*%
X376630282Y-177901228D02*
X379955983Y-177194329D01*
X377254017Y-180835671D02*
X376630282Y-177901228D01*
X379955983Y-177194329D02*
X380579718Y-180128772D01*
X380579718Y-180128772D02*
X377254017Y-180835671D01*
%TO.C,RGBA2*%
X201194135Y-135420254D02*
X204585853Y-135657426D01*
X200984865Y-138412946D02*
X201194135Y-135420254D01*
X204585853Y-135657426D02*
X204376583Y-138650118D01*
X204376583Y-138650118D02*
X200984865Y-138412946D01*
%TO.C,RGBB4*%
X236863807Y-163637765D02*
X240189508Y-164344664D01*
X236240072Y-166572208D02*
X236863807Y-163637765D01*
X240189508Y-164344664D02*
X239565773Y-167279107D01*
X239565773Y-167279107D02*
X236240072Y-166572208D01*
%TO.C,RGBC8*%
X358001939Y-181855014D02*
X361327640Y-181148115D01*
X358625674Y-184789457D02*
X358001939Y-181855014D01*
X361327640Y-181148115D02*
X361951375Y-184082558D01*
X361951375Y-184082558D02*
X358625674Y-184789457D01*
%TO.C,RGBB5*%
X255493807Y-167597765D02*
X258819508Y-168304664D01*
X254870072Y-170532208D02*
X255493807Y-167597765D01*
X258819508Y-168304664D02*
X258195773Y-171239107D01*
X258195773Y-171239107D02*
X254870072Y-170532208D01*
%TO.C,RGBB2*%
X197925000Y-156295000D02*
X201325000Y-156295000D01*
X197925000Y-159295000D02*
X197925000Y-156295000D01*
X201325000Y-156295000D02*
X201325000Y-159295000D01*
X201325000Y-159295000D02*
X197925000Y-159295000D01*
%TO.C,RGBF2*%
X214493807Y-236777765D02*
X217819508Y-237484664D01*
X213870072Y-239712208D02*
X214493807Y-236777765D01*
X217819508Y-237484664D02*
X217195773Y-240419107D01*
X217195773Y-240419107D02*
X213870072Y-239712208D01*
%TO.C,RGBE7*%
X315970282Y-229741228D02*
X319295983Y-229034329D01*
X316594017Y-232675671D02*
X315970282Y-229741228D01*
X319295983Y-229034329D02*
X319919718Y-231968772D01*
X319919718Y-231968772D02*
X316594017Y-232675671D01*
%TO.C,RGBD5*%
X267313807Y-209057765D02*
X270639508Y-209764664D01*
X266690072Y-211992208D02*
X267313807Y-209057765D01*
X270639508Y-209764664D02*
X270015773Y-212699107D01*
X270015773Y-212699107D02*
X266690072Y-211992208D01*
%TO.C,RGBB12*%
X406725000Y-158685000D02*
X410125000Y-158685000D01*
X406725000Y-161685000D02*
X406725000Y-158685000D01*
X410125000Y-158685000D02*
X410125000Y-161685000D01*
X410125000Y-161685000D02*
X406725000Y-161685000D01*
%TO.C,RGBA6*%
X281932203Y-146682543D02*
X285319265Y-146978873D01*
X281670735Y-149671127D02*
X281932203Y-146682543D01*
X285319265Y-146978873D02*
X285057797Y-149967457D01*
X285057797Y-149967457D02*
X281670735Y-149671127D01*
%TO.C,RGBD13*%
X444815000Y-196775000D02*
X448215000Y-196775000D01*
X444815000Y-199775000D02*
X444815000Y-196775000D01*
X448215000Y-196775000D02*
X448215000Y-199775000D01*
X448215000Y-199775000D02*
X444815000Y-199775000D01*
%TO.C,RGBD2*%
X211423807Y-197177765D02*
X214749508Y-197884664D01*
X210800072Y-200112208D02*
X211423807Y-197177765D01*
X214749508Y-197884664D02*
X214125773Y-200819107D01*
X214125773Y-200819107D02*
X210800072Y-200112208D01*
%TO.C,RGBE6*%
X292790000Y-239635000D02*
X296190000Y-239635000D01*
X292790000Y-242635000D02*
X292790000Y-239635000D01*
X296190000Y-239635000D02*
X296190000Y-242635000D01*
X296190000Y-242635000D02*
X292790000Y-242635000D01*
%TO.C,RGBD6*%
X292795000Y-220595000D02*
X296195000Y-220595000D01*
X292795000Y-223595000D02*
X292795000Y-220595000D01*
X296195000Y-220595000D02*
X296195000Y-223595000D01*
X296195000Y-223595000D02*
X292795000Y-223595000D01*
%TO.C,RGBI1*%
X148440000Y-158540000D02*
X148440000Y-161940000D01*
X145440000Y-158540000D02*
X148440000Y-158540000D01*
X148440000Y-161940000D02*
X145440000Y-161940000D01*
X145440000Y-161940000D02*
X145440000Y-158540000D01*
%TO.C,RGBA4*%
X240764017Y-140604329D02*
X244089718Y-141311228D01*
X240140282Y-143538772D02*
X240764017Y-140604329D01*
X244089718Y-141311228D02*
X243465983Y-144245671D01*
X243465983Y-144245671D02*
X240140282Y-143538772D01*
%TO.C,RGBD3*%
X230043807Y-201127765D02*
X233369508Y-201834664D01*
X229420072Y-204062208D02*
X230043807Y-201127765D01*
X233369508Y-201834664D02*
X232745773Y-204769107D01*
X232745773Y-204769107D02*
X229420072Y-204062208D01*
%TO.C,RGBE2*%
X213794017Y-217154329D02*
X217119718Y-217861228D01*
X213170282Y-220088772D02*
X213794017Y-217154329D01*
X217119718Y-217861228D02*
X216495983Y-220795671D01*
X216495983Y-220795671D02*
X213170282Y-220088772D01*
%TO.C,RGBC4*%
X246304017Y-185114329D02*
X249629718Y-185821228D01*
X245680282Y-188048772D02*
X246304017Y-185114329D01*
X249629718Y-185821228D02*
X249005983Y-188755671D01*
X249005983Y-188755671D02*
X245680282Y-188048772D01*
%TD*%
M02*
