M48
; DRILL file {KiCad 7.0.10} date Tue Jan 30 23:25:51 2024
; FORMAT={-:-/ absolute / inch / decimal}
; #@! TF.CreationDate,2024-01-30T23:25:51+01:00
; #@! TF.GenerationSoftware,Kicad,Pcbnew,7.0.10
; #@! TF.FileFunction,NonPlated,1,2,NPTH
FMAT,2
INCH
; #@! TA.AperFunction,NonPlated,NPTH,ComponentDrill
T1C0.0669
; #@! TA.AperFunction,NonPlated,NPTH,ComponentDrill
T2C0.1181
; #@! TA.AperFunction,NonPlated,NPTH,ComponentDrill
T3C0.1201
; #@! TA.AperFunction,NonPlated,NPTH,ComponentDrill
T4C0.1575
; #@! TA.AperFunction,NonPlated,NPTH,ComponentDrill
T5C0.1614
%
G90
G05
T1
X6.1593Y-5.172
X6.1593Y-6.1095
X6.2531Y-8.3595
X6.3468Y-6.8595
X6.3468Y-7.6095
X6.3468Y-9.1095
X6.5593Y-5.172
X6.5593Y-6.1095
X6.6531Y-8.3595
X6.7468Y-6.8595
X6.7468Y-7.6095
X6.7468Y-9.1095
X6.9093Y-6.1095
X7.0031Y-5.172
X7.2843Y-6.8595
X7.2843Y-9.1095
X7.3093Y-6.1095
X7.3781Y-7.6095
X7.4031Y-5.172
X7.4718Y-8.3595
X7.6593Y-6.0158
X7.6843Y-6.8595
X7.6843Y-9.1095
X7.7781Y-7.6095
X7.7985Y-5.1852
X7.8718Y-8.3595
X8.0593Y-6.0158
X8.1281Y-6.8137
X8.1975Y-5.2131
X8.2219Y-7.6003
X8.3156Y-8.387
X8.3431Y-9.1596
X8.4901Y-6.1238
X8.5194Y-6.8968
X8.5911Y-5.2524
X8.6131Y-7.6835
X8.7069Y-8.4702
X8.7344Y-9.2428
X8.8617Y-6.9696
X8.8813Y-6.207
X8.9555Y-7.7563
X8.9872Y-5.308
X9.0492Y-8.543
X9.2237Y-6.2798
X9.253Y-7.0528
X9.3468Y-7.8394
X9.3771Y-5.3733
X9.4405Y-8.6261
X9.5954Y-7.1255
X9.6149Y-6.3629
X9.6891Y-7.9122
X9.7684Y-5.4565
X9.7829Y-8.6989
X9.8103Y-9.4715
X9.9573Y-6.4357
X9.9866Y-7.2087
X10.0804Y-7.9954
X10.1741Y-8.7821
X10.2012Y-5.5393
X10.2016Y-9.5547
X10.329Y-7.2815
X10.3486Y-6.5189
X10.4227Y-8.0681
X10.5165Y-8.8548
X10.5982Y-5.588
X10.6909Y-6.5916
X10.7202Y-7.3646
X10.814Y-8.1513
X10.9077Y-8.938
X10.9789Y-5.626
X11.0822Y-6.6748
X11.3774Y-5.6608
X11.3943Y-8.547
X11.3943Y-9.297
X11.7943Y-8.547
X11.7943Y-9.297
X11.8111Y-5.6608
X12.1064Y-6.6748
X12.2096Y-5.626
X12.2809Y-8.938
X12.3746Y-8.1513
X12.4684Y-7.3646
X12.4977Y-6.5916
X12.5904Y-5.588
X12.6721Y-8.8548
X12.7659Y-8.0681
X12.8036Y-9.5936
X12.84Y-6.5189
X12.8596Y-7.2815
X12.9874Y-5.5393
X13.0145Y-8.7821
X13.1082Y-7.9954
X13.1949Y-9.5105
X13.202Y-7.2087
X13.2313Y-6.4357
X13.4057Y-8.6989
X13.4202Y-5.4565
X13.4995Y-7.9122
X13.5736Y-6.3629
X13.5932Y-7.1255
X13.7481Y-8.6261
X13.8114Y-5.3733
X13.8418Y-7.8394
X13.9356Y-7.0528
X13.9649Y-6.2798
X14.1393Y-8.543
X14.2014Y-5.308
X14.2331Y-7.7563
X14.3072Y-6.207
X14.3268Y-6.9696
X14.4542Y-9.2428
X14.4817Y-8.4702
X14.5754Y-7.6835
X14.5975Y-5.2524
X14.6692Y-6.8968
X14.6985Y-6.1238
X14.8455Y-9.1596
X14.8729Y-8.387
X14.9667Y-7.6003
X14.9911Y-5.2131
X15.0604Y-6.8137
X15.1293Y-6.0158
X15.3168Y-8.3595
X15.3901Y-5.1852
X15.4105Y-7.6095
X15.5043Y-6.8595
X15.5043Y-9.1095
X15.5293Y-6.0158
X15.7168Y-8.3595
X15.7855Y-5.172
X15.8105Y-7.6095
X15.8793Y-6.1095
X15.9043Y-6.8595
X15.9043Y-9.1095
X16.1605Y-7.6095
X16.1855Y-5.172
X16.2543Y-6.8595
X16.2793Y-6.1095
X16.348Y-8.3595
X16.5605Y-7.6095
X16.6293Y-5.172
X16.6543Y-6.8595
X16.723Y-9.2033
X16.748Y-8.3595
X17.0043Y-6.1095
X17.0043Y-6.8595
X17.0293Y-5.172
X17.123Y-9.2033
X17.3793Y-7.6095
X17.4043Y-6.1095
X17.4043Y-6.8595
X17.473Y-5.172
X17.473Y-8.4533
X17.473Y-9.2033
X17.7793Y-7.6095
X17.873Y-5.172
X17.873Y-8.4533
X17.873Y-9.2033
X17.9418Y-6.8595
X18.1293Y-6.1095
X18.223Y-5.172
X18.223Y-9.2033
X18.3418Y-6.8595
X18.5293Y-6.1095
X18.623Y-5.172
X18.623Y-9.2033
T2
X6.2093Y-5.072
X6.2093Y-6.0095
X6.3031Y-8.2595
X6.3968Y-6.7595
X6.3968Y-7.5095
X6.3968Y-9.0095
X6.4593Y-4.972
X6.4593Y-5.9095
X6.5531Y-8.1595
X6.6468Y-6.6595
X6.6468Y-7.4095
X6.6468Y-8.9095
X6.9593Y-6.0095
X7.0531Y-5.072
X7.2093Y-5.9095
X7.3031Y-4.972
X7.3343Y-6.7595
X7.3343Y-9.0095
X7.4281Y-7.5095
X7.5218Y-8.2595
X7.5843Y-6.6595
X7.5843Y-8.9095
X7.6781Y-7.4095
X7.7093Y-5.9158
X7.7718Y-8.1595
X7.8553Y-5.0889
X7.9593Y-5.8158
X8.1117Y-5.0066
X8.1978Y-6.7262
X8.2916Y-7.5129
X8.3853Y-8.2996
X8.4128Y-9.0722
X8.4632Y-6.6804
X8.5569Y-7.4671
X8.5598Y-6.0364
X8.6507Y-8.2538
X8.6545Y-5.1603
X8.6781Y-9.0264
X8.8251Y-5.9906
X8.916Y-5.0961
X8.9314Y-6.8822
X9.0252Y-7.6689
X9.1189Y-8.4555
X9.1968Y-6.8363
X9.2905Y-7.623
X9.2934Y-6.1924
X9.3843Y-8.4097
X9.4468Y-5.2859
X9.5587Y-6.1465
X9.665Y-7.0381
X9.7122Y-5.2401
X9.7588Y-7.8248
X9.8525Y-8.6115
X9.88Y-9.3841
X9.9304Y-6.9923
X10.0241Y-7.779
X10.027Y-6.3483
X10.1179Y-8.5656
X10.1453Y-9.3382
X10.263Y-5.4461
X10.2923Y-6.3025
X10.3987Y-7.194
X10.4924Y-7.9807
X10.5233Y-5.3773
X10.5862Y-8.7674
X10.664Y-7.1482
X10.7577Y-7.9349
X10.7606Y-6.5042
X10.8515Y-8.7216
X11.0259Y-6.4584
X11.0375Y-5.5307
X11.2952Y-5.4529
X11.4443Y-8.447
X11.4443Y-9.197
X11.6943Y-8.347
X11.6943Y-9.097
X11.8522Y-5.5569
X12.0926Y-5.4354
X12.1345Y-6.5666
X12.309Y-8.8298
X12.3583Y-6.4168
X12.4027Y-8.0431
X12.4965Y-7.2564
X12.5327Y-8.68
X12.6265Y-7.8933
X12.6278Y-5.4827
X12.7202Y-7.1066
X12.8317Y-9.4854
X12.8637Y-5.353
X12.8681Y-6.4107
X13.0426Y-8.6739
X13.0555Y-9.3356
X13.0919Y-6.2609
X13.1363Y-7.8872
X13.2301Y-7.1005
X13.2663Y-8.5241
X13.3601Y-7.7374
X13.4483Y-5.3483
X13.4538Y-6.9507
X13.6017Y-6.2547
X13.6721Y-5.1985
X13.7762Y-8.5179
X13.8255Y-6.1049
X13.8699Y-7.7312
X13.9637Y-6.9446
X13.9999Y-8.3681
X14.0937Y-7.5814
X14.1874Y-6.7948
X14.237Y-5.202
X14.3354Y-6.0988
X14.4706Y-5.0682
X14.4823Y-9.1346
X14.5098Y-8.362
X14.5591Y-5.949
X14.6035Y-7.5753
X14.6973Y-6.7886
X14.7061Y-8.9848
X14.7335Y-8.2122
X14.8273Y-7.4255
X14.921Y-6.6388
X15.034Y-5.1098
X15.1793Y-5.9158
X15.2764Y-4.9926
X15.3668Y-8.2595
X15.4293Y-5.8158
X15.4605Y-7.5095
X15.5543Y-6.7595
X15.5543Y-9.0095
X15.6168Y-8.1595
X15.7105Y-7.4095
X15.8043Y-6.6595
X15.8043Y-8.9095
X15.8355Y-5.072
X15.9293Y-6.0095
X16.0855Y-4.972
X16.1793Y-5.9095
X16.2105Y-7.5095
X16.3043Y-6.7595
X16.398Y-8.2595
X16.4605Y-7.4095
X16.5543Y-6.6595
X16.648Y-8.1595
X16.6793Y-5.072
X16.773Y-9.1033
X16.9293Y-4.972
X17.023Y-9.0033
X17.0543Y-6.0095
X17.0543Y-6.7595
X17.3043Y-5.9095
X17.3043Y-6.6595
X17.4293Y-7.5095
X17.523Y-5.072
X17.523Y-8.3533
X17.523Y-9.1033
X17.6793Y-7.4095
X17.773Y-4.972
X17.773Y-8.2533
X17.773Y-9.0033
X17.9918Y-6.7595
X18.1793Y-6.0095
X18.2418Y-6.6595
X18.273Y-5.072
X18.273Y-9.1033
X18.4293Y-5.9095
X18.523Y-4.972
X18.523Y-9.0033
T3
X5.9845Y-8.0839
X6.9216Y-8.0839
X9.4904Y-9.6854
X10.4069Y-9.8802
X12.5983Y-9.919
X13.5148Y-9.7242
X16.7358Y-5.8339
X17.1108Y-7.3339
X17.6728Y-5.8339
X18.0478Y-7.3339
T4
X5.9845Y-8.6839
X6.9216Y-8.6839
X9.6151Y-9.0985
X10.5316Y-9.2933
X12.4735Y-9.3321
X13.39Y-9.1373
X16.7358Y-6.4339
X17.1108Y-7.9339
X17.6728Y-6.4339
X18.0478Y-7.9339
T5
X6.3593Y-5.172
X6.3593Y-6.1095
X6.4531Y-8.3595
X6.5468Y-6.8595
X6.5468Y-7.6095
X6.5468Y-9.1095
X7.1093Y-6.1095
X7.2031Y-5.172
X7.4843Y-6.8595
X7.4843Y-9.1095
X7.5781Y-7.6095
X7.6718Y-8.3595
X7.8593Y-6.0158
X7.998Y-5.1991
X8.3238Y-6.8552
X8.4175Y-7.6419
X8.5113Y-8.4286
X8.5387Y-9.2012
X8.6857Y-6.1654
X8.7891Y-5.2802
X9.0574Y-7.0112
X9.1511Y-7.7979
X9.2449Y-8.5845
X9.4193Y-6.3214
X9.5728Y-5.4149
X9.791Y-7.1671
X9.8847Y-7.9538
X9.9785Y-8.7405
X10.006Y-9.5131
X10.1529Y-6.4773
X10.3997Y-5.5637
X10.5246Y-7.323
X10.6183Y-8.1097
X10.7121Y-8.8964
X10.8865Y-6.6332
X11.1782Y-5.6434
X11.5943Y-8.547
X11.5943Y-9.297
X12.0104Y-5.6434
X12.302Y-6.6332
X12.4765Y-8.8964
X12.5702Y-8.1097
X12.664Y-7.323
X12.7889Y-5.5636
X12.9992Y-9.5521
X13.0356Y-6.4773
X13.2101Y-8.7405
X13.3038Y-7.9538
X13.3976Y-7.1671
X13.6158Y-5.4149
X13.7693Y-6.3214
X13.9437Y-8.5845
X14.0375Y-7.7979
X14.1312Y-7.0112
X14.3994Y-5.2802
X14.5029Y-6.1654
X14.6498Y-9.2012
X14.6773Y-8.4286
X14.7711Y-7.6419
X14.8648Y-6.8552
X15.1906Y-5.1991
X15.3293Y-6.0158
X15.5168Y-8.3595
X15.6105Y-7.6095
X15.7043Y-6.8595
X15.7043Y-9.1095
X15.9855Y-5.172
X16.0793Y-6.1095
X16.3605Y-7.6095
X16.4543Y-6.8595
X16.548Y-8.3595
X16.8293Y-5.172
X16.923Y-9.2033
X17.2043Y-6.1095
X17.2043Y-6.8595
X17.5793Y-7.6095
X17.673Y-5.172
X17.673Y-8.4533
X17.673Y-9.2033
X18.1418Y-6.8595
X18.3293Y-6.1095
X18.423Y-5.172
X18.423Y-9.2033
M30
