%TF.GenerationSoftware,KiCad,Pcbnew,7.0.10*%
%TF.CreationDate,2024-01-21T02:34:59+01:00*%
%TF.ProjectId,Wonderland,576f6e64-6572-46c6-916e-642e6b696361,rev?*%
%TF.SameCoordinates,Original*%
%TF.FileFunction,Legend,Top*%
%TF.FilePolarity,Positive*%
%FSLAX46Y46*%
G04 Gerber Fmt 4.6, Leading zero omitted, Abs format (unit mm)*
G04 Created by KiCad (PCBNEW 7.0.10) date 2024-01-21 02:34:59*
%MOMM*%
%LPD*%
G01*
G04 APERTURE LIST*
%ADD10C,0.150000*%
%ADD11C,0.100000*%
%ADD12C,0.120000*%
%ADD13C,0.650000*%
%ADD14O,1.108000X2.216000*%
%ADD15C,1.700000*%
%ADD16C,3.000000*%
%ADD17C,4.100000*%
%ADD18C,3.050000*%
%ADD19C,4.000000*%
%ADD20C,3.800000*%
%ADD21C,1.524000*%
%ADD22C,1.900000*%
%ADD23R,1.700000X1.700000*%
%ADD24O,1.700000X1.700000*%
G04 APERTURE END LIST*
D10*
%TO.C,KD1*%
X67222585Y-86572303D02*
X86272585Y-86572303D01*
X67222585Y-105622303D02*
X67222585Y-86572303D01*
X86272585Y-86572303D02*
X86272585Y-105622303D01*
X86272585Y-105622303D02*
X67222585Y-105622303D01*
%TO.C,KB11*%
X264103485Y-46091003D02*
X283153485Y-46091003D01*
X264103485Y-65141003D02*
X264103485Y-46091003D01*
X283153485Y-46091003D02*
X283153485Y-65141003D01*
X283153485Y-65141003D02*
X264103485Y-65141003D01*
%TO.C,KD11*%
X271247285Y-86572303D02*
X290297285Y-86572303D01*
X271247285Y-105622303D02*
X271247285Y-86572303D01*
X290297285Y-86572303D02*
X290297285Y-105622303D01*
X290297285Y-105622303D02*
X271247285Y-105622303D01*
%TO.C,KC12*%
X311728485Y-67522303D02*
X330778485Y-67522303D01*
X311728485Y-86572303D02*
X311728485Y-67522303D01*
X330778485Y-67522303D02*
X330778485Y-86572303D01*
X330778485Y-86572303D02*
X311728485Y-86572303D01*
%TO.C,KC4*%
X125619385Y-73562503D02*
X144253097Y-77523221D01*
X121658667Y-92196215D02*
X125619385Y-73562503D01*
X144253097Y-77523221D02*
X140292379Y-96156933D01*
X140292379Y-96156933D02*
X121658667Y-92196215D01*
%TO.C,KB10*%
X241340585Y-52080303D02*
X259974297Y-48119585D01*
X245301303Y-70714015D02*
X241340585Y-52080303D01*
X259974297Y-48119585D02*
X263935015Y-66753297D01*
X263935015Y-66753297D02*
X245301303Y-70714015D01*
%TO.C,KE3*%
X111748185Y-109565203D02*
X130381897Y-113525921D01*
X107787467Y-128198915D02*
X111748185Y-109565203D01*
X130381897Y-113525921D02*
X126421179Y-132159633D01*
X126421179Y-132159633D02*
X107787467Y-128198915D01*
%TO.C,KB9*%
X222706885Y-56041003D02*
X241340597Y-52080285D01*
X226667603Y-74674715D02*
X222706885Y-56041003D01*
X241340597Y-52080285D02*
X245301315Y-70713997D01*
X245301315Y-70713997D02*
X226667603Y-74674715D01*
%TO.C,KC1*%
X64841285Y-67522303D02*
X83891285Y-67522303D01*
X64841285Y-86572303D02*
X64841285Y-67522303D01*
X83891285Y-67522303D02*
X83891285Y-86572303D01*
X83891285Y-86572303D02*
X64841285Y-86572303D01*
%TO.C,KA2*%
X78576385Y-24706203D02*
X97579980Y-26035064D01*
X77247524Y-43709798D02*
X78576385Y-24706203D01*
X97579980Y-26035064D02*
X96251119Y-45038659D01*
X96251119Y-45038659D02*
X77247524Y-43709798D01*
%TO.C,KF8*%
X323634785Y-127053503D02*
X342684785Y-127053503D01*
X323634785Y-146103503D02*
X323634785Y-127053503D01*
X342684785Y-127053503D02*
X342684785Y-146103503D01*
X342684785Y-146103503D02*
X323634785Y-146103503D01*
%TO.C,KA9*%
X218809585Y-33016903D02*
X237443297Y-29056185D01*
X222770303Y-51650615D02*
X218809585Y-33016903D01*
X237443297Y-29056185D02*
X241404015Y-47689897D01*
X241404015Y-47689897D02*
X222770303Y-51650615D01*
%TO.C,KA12*%
X280772285Y-24659803D02*
X299822285Y-24659803D01*
X280772285Y-43709803D02*
X280772285Y-24659803D01*
X299822285Y-24659803D02*
X299822285Y-43709803D01*
X299822285Y-43709803D02*
X280772285Y-43709803D01*
%TO.C,KE8*%
X208504185Y-117486703D02*
X227137897Y-113525985D01*
X212464903Y-136120415D02*
X208504185Y-117486703D01*
X227137897Y-113525985D02*
X231098615Y-132159697D01*
X231098615Y-132159697D02*
X212464903Y-136120415D01*
%TO.C,KF0*%
X38647585Y-124672303D02*
X62460085Y-124672303D01*
X38647585Y-143722303D02*
X38647585Y-124672303D01*
X38647585Y-143722303D02*
X62460085Y-143722303D01*
X62460085Y-124672303D02*
X62460085Y-143722303D01*
%TO.C,KD13*%
X309347285Y-86572303D02*
X352209785Y-86572303D01*
X309347285Y-105622303D02*
X309347285Y-86572303D01*
X352209785Y-86572303D02*
X352209785Y-105622303D01*
X352209785Y-105622303D02*
X309347285Y-105622303D01*
%TO.C,KC11*%
X292678485Y-67522303D02*
X311728485Y-67522303D01*
X292678485Y-86572303D02*
X292678485Y-67522303D01*
X311728485Y-67522303D02*
X311728485Y-86572303D01*
X311728485Y-86572303D02*
X292678485Y-86572303D01*
%TO.C,KA11*%
X259939785Y-26035103D02*
X278943380Y-24706242D01*
X261268646Y-45038698D02*
X259939785Y-26035103D01*
X278943380Y-24706242D02*
X280272241Y-43709837D01*
X280272241Y-43709837D02*
X261268646Y-45038698D01*
%TO.C,KD9*%
X229519085Y-93544203D02*
X248152797Y-89583485D01*
X233479803Y-112177915D02*
X229519085Y-93544203D01*
X248152797Y-89583485D02*
X252113515Y-108217197D01*
X252113515Y-108217197D02*
X233479803Y-112177915D01*
%TO.C,KA13*%
X302203485Y-24659803D02*
X321253485Y-24659803D01*
X302203485Y-43709803D02*
X302203485Y-24659803D01*
X321253485Y-24659803D02*
X321253485Y-43709803D01*
X321253485Y-43709803D02*
X302203485Y-43709803D01*
%TO.C,KD4*%
X128000685Y-93544203D02*
X146634397Y-97504921D01*
X124039967Y-112177915D02*
X128000685Y-93544203D01*
X146634397Y-97504921D02*
X142673679Y-116138633D01*
X142673679Y-116138633D02*
X124039967Y-112177915D01*
%TO.C,KA3*%
X99402385Y-26174103D02*
X118266992Y-28825351D01*
X96751137Y-45038710D02*
X99402385Y-26174103D01*
X118266992Y-28825351D02*
X115615744Y-47689957D01*
X115615744Y-47689957D02*
X96751137Y-45038710D01*
%TO.C,KF4*%
X191501985Y-140576203D02*
X233427837Y-131664588D01*
X195462703Y-159209915D02*
X191501985Y-140576203D01*
X233427837Y-131664588D02*
X237388554Y-150298300D01*
X237388554Y-150298300D02*
X195462703Y-159209915D01*
%TO.C,KF10*%
X323634785Y-24659803D02*
X342684785Y-24659803D01*
X323634785Y-43709803D02*
X323634785Y-24659803D01*
X342684785Y-24659803D02*
X342684785Y-43709803D01*
X342684785Y-43709803D02*
X323634785Y-43709803D01*
%TO.C,KB2*%
X74366285Y-46091003D02*
X93416285Y-46091003D01*
X74366285Y-65141003D02*
X74366285Y-46091003D01*
X93416285Y-46091003D02*
X93416285Y-65141003D01*
X93416285Y-65141003D02*
X74366285Y-65141003D01*
%TO.C,KA10*%
X239252785Y-28825303D02*
X258117392Y-26174055D01*
X241904033Y-47689910D02*
X239252785Y-28825303D01*
X258117392Y-26174055D02*
X260768639Y-45038662D01*
X260768639Y-45038662D02*
X241904033Y-47689910D01*
%TO.C,KB0*%
X36266285Y-48472303D02*
X55316285Y-48472303D01*
X36266285Y-67522303D02*
X36266285Y-48472303D01*
X55316285Y-48472303D02*
X55316285Y-67522303D01*
X55316285Y-67522303D02*
X36266285Y-67522303D01*
%TO.C,KB6*%
X153446585Y-60001703D02*
X172080297Y-63962421D01*
X149485867Y-78635415D02*
X153446585Y-60001703D01*
X172080297Y-63962421D02*
X168119579Y-82596133D01*
X168119579Y-82596133D02*
X149485867Y-78635415D01*
%TO.C,KA5*%
X140124385Y-33516903D02*
X159032389Y-35838514D01*
X137802774Y-52424907D02*
X140124385Y-33516903D01*
X159032389Y-35838514D02*
X156710778Y-54746518D01*
X156710778Y-54746518D02*
X137802774Y-52424907D01*
%TO.C,KB4*%
X116179185Y-52080303D02*
X134812897Y-56041021D01*
X112218467Y-70714015D02*
X116179185Y-52080303D01*
X134812897Y-56041021D02*
X130852179Y-74674733D01*
X130852179Y-74674733D02*
X112218467Y-70714015D01*
%TO.C,KE6*%
X169234885Y-129434803D02*
X188284885Y-129434803D01*
X169234885Y-148484803D02*
X169234885Y-129434803D01*
X188284885Y-129434803D02*
X188284885Y-148484803D01*
X188284885Y-148484803D02*
X169234885Y-148484803D01*
%TO.C,KC7*%
X213266685Y-77523203D02*
X231900397Y-73562485D01*
X217227403Y-96156915D02*
X213266685Y-77523203D01*
X231900397Y-73562485D02*
X235861115Y-92196197D01*
X235861115Y-92196197D02*
X217227403Y-96156915D01*
%TO.C,KC6*%
X194632985Y-81483903D02*
X213266697Y-77523185D01*
X198593703Y-100117615D02*
X194632985Y-81483903D01*
X213266697Y-77523185D02*
X217227415Y-96156897D01*
X217227415Y-96156897D02*
X198593703Y-100117615D01*
%TO.C,KE11*%
X268865985Y-105622303D02*
X287915985Y-105622303D01*
X268865985Y-124672303D02*
X268865985Y-105622303D01*
X287915985Y-105622303D02*
X287915985Y-124672303D01*
X287915985Y-124672303D02*
X268865985Y-124672303D01*
%TO.C,KA8*%
X198487385Y-35838503D02*
X217395389Y-33516892D01*
X200808996Y-54746507D02*
X198487385Y-35838503D01*
X217395389Y-33516892D02*
X219717000Y-52424896D01*
X219717000Y-52424896D02*
X200808996Y-54746507D01*
%TO.C,KE4*%
X130381885Y-113526003D02*
X149015597Y-117486721D01*
X126421167Y-132159715D02*
X130381885Y-113526003D01*
X149015597Y-117486721D02*
X145054879Y-136120433D01*
X145054879Y-136120433D02*
X126421167Y-132159715D01*
%TO.C,KF11*%
X342684785Y-24659803D02*
X361734785Y-24659803D01*
X342684785Y-43709803D02*
X342684785Y-24659803D01*
X361734785Y-24659803D02*
X361734785Y-43709803D01*
X361734785Y-43709803D02*
X342684785Y-43709803D01*
%TO.C,KC3*%
X106985685Y-69601803D02*
X125619397Y-73562521D01*
X103024967Y-88235515D02*
X106985685Y-69601803D01*
X125619397Y-73562521D02*
X121658679Y-92196233D01*
X121658679Y-92196233D02*
X103024967Y-88235515D01*
%TO.C,KB3*%
X97545485Y-48119603D02*
X116179197Y-52080321D01*
X93584767Y-66753315D02*
X97545485Y-48119603D01*
X116179197Y-52080321D02*
X112218479Y-70714033D01*
X112218479Y-70714033D02*
X93584767Y-66753315D01*
%TO.C,KD7*%
X192251685Y-101465703D02*
X210885397Y-97504985D01*
X196212403Y-120099415D02*
X192251685Y-101465703D01*
X210885397Y-97504985D02*
X214846115Y-116138697D01*
X214846115Y-116138697D02*
X196212403Y-120099415D01*
%TO.C,KD2*%
X90733285Y-85622803D02*
X109366997Y-89583521D01*
X86772567Y-104256515D02*
X90733285Y-85622803D01*
X109366997Y-89583521D02*
X105406279Y-108217233D01*
X105406279Y-108217233D02*
X86772567Y-104256515D01*
%TO.C,KD6*%
X169234885Y-110384803D02*
X188284885Y-110384803D01*
X169234885Y-129434803D02*
X169234885Y-110384803D01*
X188284885Y-110384803D02*
X188284885Y-129434803D01*
X188284885Y-129434803D02*
X169234885Y-129434803D01*
%TO.C,KF7*%
X304584785Y-127053503D02*
X323634785Y-127053503D01*
X304584785Y-146103503D02*
X304584785Y-127053503D01*
X323634785Y-127053503D02*
X323634785Y-146103503D01*
X323634785Y-146103503D02*
X304584785Y-146103503D01*
%TO.C,KC2*%
X88351985Y-65641003D02*
X106985697Y-69601721D01*
X84391267Y-84274715D02*
X88351985Y-65641003D01*
X106985697Y-69601721D02*
X103024979Y-88235433D01*
X103024979Y-88235433D02*
X84391267Y-84274715D01*
%TO.C,KE12*%
X287915985Y-105622303D02*
X321253485Y-105622303D01*
X287915985Y-124672303D02*
X287915985Y-105622303D01*
X321253485Y-105622303D02*
X321253485Y-124672303D01*
X321253485Y-124672303D02*
X287915985Y-124672303D01*
%TO.C,KC13*%
X330778485Y-67522303D02*
X359353485Y-67522303D01*
X330778485Y-86572303D02*
X330778485Y-67522303D01*
X359353485Y-67522303D02*
X359353485Y-86572303D01*
X359353485Y-86572303D02*
X330778485Y-86572303D01*
%TO.C,KE5*%
X149015685Y-117486703D02*
X167649397Y-121447421D01*
X145054967Y-136120415D02*
X149015685Y-117486703D01*
X167649397Y-121447421D02*
X163688679Y-140081133D01*
X163688679Y-140081133D02*
X145054967Y-136120415D01*
%TO.C,KC5*%
X144253185Y-77523203D02*
X162886897Y-81483921D01*
X140292467Y-96156915D02*
X144253185Y-77523203D01*
X162886897Y-81483921D02*
X158926179Y-100117633D01*
X158926179Y-100117633D02*
X140292467Y-96156915D01*
%TO.C,KC8*%
X231900385Y-73562503D02*
X250534097Y-69601785D01*
X235861103Y-92196215D02*
X231900385Y-73562503D01*
X250534097Y-69601785D02*
X254494815Y-88235497D01*
X254494815Y-88235497D02*
X235861103Y-92196215D01*
%TO.C,KA4*%
X120076485Y-29056203D02*
X138710197Y-33016921D01*
X116115767Y-47689915D02*
X120076485Y-29056203D01*
X138710197Y-33016921D02*
X134749479Y-51650633D01*
X134749479Y-51650633D02*
X116115767Y-47689915D01*
%TO.C,KD0*%
X33885085Y-86572303D02*
X67222585Y-86572303D01*
X33885085Y-105622303D02*
X33885085Y-86572303D01*
X67222585Y-86572303D02*
X67222585Y-105622303D01*
X67222585Y-105622303D02*
X33885085Y-105622303D01*
%TO.C,KA6*%
X159532385Y-35838503D02*
X178509894Y-37498820D01*
X157872068Y-54816012D02*
X159532385Y-35838503D01*
X178509894Y-37498820D02*
X176849577Y-56476329D01*
X176849577Y-56476329D02*
X157872068Y-54816012D01*
%TO.C,KD12*%
X290297285Y-86572303D02*
X309347285Y-86572303D01*
X290297285Y-105622303D02*
X290297285Y-86572303D01*
X309347285Y-86572303D02*
X309347285Y-105622303D01*
X309347285Y-105622303D02*
X290297285Y-105622303D01*
%TO.C,KB12*%
X283153485Y-48472303D02*
X302203485Y-48472303D01*
X283153485Y-67522303D02*
X283153485Y-48472303D01*
X302203485Y-48472303D02*
X302203485Y-67522303D01*
X302203485Y-67522303D02*
X283153485Y-67522303D01*
%TO.C,KF2*%
X91482985Y-124733303D02*
X114775125Y-129684200D01*
X87522267Y-143367015D02*
X91482985Y-124733303D01*
X87522267Y-143367015D02*
X110814407Y-148317912D01*
X114775125Y-129684200D02*
X110814407Y-148317912D01*
%TO.C,KA0*%
X36266285Y-24659803D02*
X55316285Y-24659803D01*
X36266285Y-43709803D02*
X36266285Y-24659803D01*
X55316285Y-24659803D02*
X55316285Y-43709803D01*
X55316285Y-43709803D02*
X36266285Y-43709803D01*
%TO.C,KF12*%
X340303485Y-48472303D02*
X359353485Y-48472303D01*
X340303485Y-67522303D02*
X340303485Y-48472303D01*
X359353485Y-48472303D02*
X359353485Y-67522303D01*
X359353485Y-67522303D02*
X340303485Y-67522303D01*
%TO.C,KB7*%
X185439485Y-63962503D02*
X204073197Y-60001785D01*
X189400203Y-82596215D02*
X185439485Y-63962503D01*
X204073197Y-60001785D02*
X208033915Y-78635497D01*
X208033915Y-78635497D02*
X189400203Y-82596215D01*
%TO.C,KE0*%
X26741285Y-105622303D02*
X69603785Y-105622303D01*
X26741285Y-124672303D02*
X26741285Y-105622303D01*
X69603785Y-105622303D02*
X69603785Y-124672303D01*
X69603785Y-124672303D02*
X26741285Y-124672303D01*
%TO.C,KB8*%
X204073185Y-60001703D02*
X222706897Y-56040985D01*
X208033903Y-78635415D02*
X204073185Y-60001703D01*
X222706897Y-56040985D02*
X226667615Y-74674697D01*
X226667615Y-74674697D02*
X208033903Y-78635415D01*
%TO.C,KC9*%
X250534085Y-69601803D02*
X269167797Y-65641085D01*
X254494803Y-88235515D02*
X250534085Y-69601803D01*
X269167797Y-65641085D02*
X273128515Y-84274797D01*
X273128515Y-84274797D02*
X254494803Y-88235515D01*
%TO.C,KB13*%
X302203485Y-48472303D02*
X340303485Y-48472303D01*
X302203485Y-67522303D02*
X302203485Y-48472303D01*
X340303485Y-48472303D02*
X340303485Y-67522303D01*
X340303485Y-67522303D02*
X302203485Y-67522303D01*
%TO.C,KB5*%
X134812885Y-56041003D02*
X153446597Y-60001721D01*
X130852167Y-74674715D02*
X134812885Y-56041003D01*
X153446597Y-60001721D02*
X149485879Y-78635433D01*
X149485879Y-78635433D02*
X130852167Y-74674715D01*
%TO.C,KE1*%
X69603785Y-105622303D02*
X88653785Y-105622303D01*
X69603785Y-124672303D02*
X69603785Y-105622303D01*
X88653785Y-105622303D02*
X88653785Y-124672303D01*
X88653785Y-124672303D02*
X69603785Y-124672303D01*
%TO.C,KC0*%
X36266285Y-67522303D02*
X64841285Y-67522303D01*
X36266285Y-86572303D02*
X36266285Y-67522303D01*
X64841285Y-67522303D02*
X64841285Y-86572303D01*
X64841285Y-86572303D02*
X36266285Y-86572303D01*
%TO.C,KA7*%
X179009885Y-37498803D02*
X197987394Y-35838486D01*
X180670202Y-56476312D02*
X179009885Y-37498803D01*
X197987394Y-35838486D02*
X199647711Y-54815995D01*
X199647711Y-54815995D02*
X180670202Y-56476312D01*
D11*
%TO.C,KF3*%
X114775185Y-129684203D02*
X166017892Y-140576177D01*
X110814467Y-148317915D02*
X114775185Y-129684203D01*
X166017892Y-140576177D02*
X162057175Y-159209888D01*
X162057175Y-159209888D02*
X110814467Y-148317915D01*
D10*
%TO.C,KF9*%
X342684785Y-127053503D02*
X361734785Y-127053503D01*
X342684785Y-146103503D02*
X342684785Y-127053503D01*
X361734785Y-127053503D02*
X361734785Y-146103503D01*
X361734785Y-146103503D02*
X342684785Y-146103503D01*
%TO.C,KD3*%
X109366985Y-89583503D02*
X128000697Y-93544221D01*
X105406267Y-108217215D02*
X109366985Y-89583503D01*
X128000697Y-93544221D02*
X124039979Y-112177933D01*
X124039979Y-112177933D02*
X105406267Y-108217215D01*
%TO.C,KE2*%
X93114485Y-105604503D02*
X111748197Y-109565221D01*
X89153767Y-124238215D02*
X93114485Y-105604503D01*
X111748197Y-109565221D02*
X107787479Y-128198933D01*
X107787479Y-128198933D02*
X89153767Y-124238215D01*
%TO.C,KF5*%
X242744685Y-129684203D02*
X266036825Y-124733306D01*
X246705403Y-148317915D02*
X242744685Y-129684203D01*
X246705403Y-148317915D02*
X269997542Y-143367018D01*
X266036825Y-124733306D02*
X269997542Y-143367018D01*
%TO.C,KD8*%
X210885385Y-97504903D02*
X229519097Y-93544185D01*
X214846103Y-116138615D02*
X210885385Y-97504903D01*
X229519097Y-93544185D02*
X233479815Y-112177897D01*
X233479815Y-112177897D02*
X214846103Y-116138615D01*
%TO.C,KD5*%
X146634385Y-97504903D02*
X165268097Y-101465621D01*
X142673667Y-116138615D02*
X146634385Y-97504903D01*
X165268097Y-101465621D02*
X161307379Y-120099333D01*
X161307379Y-120099333D02*
X142673667Y-116138615D01*
%TO.C,KC10*%
X273628485Y-67522303D02*
X292678485Y-67522303D01*
X273628485Y-86572303D02*
X273628485Y-67522303D01*
X292678485Y-67522303D02*
X292678485Y-86572303D01*
X292678485Y-86572303D02*
X273628485Y-86572303D01*
%TO.C,KA1*%
X57697585Y-24659803D02*
X76747585Y-24659803D01*
X57697585Y-43709803D02*
X57697585Y-24659803D01*
X76747585Y-24659803D02*
X76747585Y-43709803D01*
X76747585Y-43709803D02*
X57697585Y-43709803D01*
%TO.C,KE9*%
X227137885Y-113526003D02*
X245771597Y-109565285D01*
X231098603Y-132159715D02*
X227137885Y-113526003D01*
X245771597Y-109565285D02*
X249732315Y-128198997D01*
X249732315Y-128198997D02*
X231098603Y-132159715D01*
%TO.C,KE10*%
X245771585Y-109565203D02*
X264405297Y-105604485D01*
X249732303Y-128198915D02*
X245771585Y-109565203D01*
X264405297Y-105604485D02*
X268366015Y-124238197D01*
X268366015Y-124238197D02*
X249732303Y-128198915D01*
D12*
%TO.C,J1*%
X350064785Y-127167903D02*
X348734785Y-127167903D01*
X350064785Y-125837903D02*
X350064785Y-127167903D01*
X350064785Y-124567903D02*
X350064785Y-119337903D01*
X350064785Y-124567903D02*
X347404785Y-124567903D01*
X350064785Y-119337903D02*
X347404785Y-119337903D01*
X347404785Y-124567903D02*
X347404785Y-119337903D01*
D10*
%TO.C,KF6*%
X271247285Y-124672303D02*
X295059785Y-124672303D01*
X271247285Y-143722303D02*
X271247285Y-124672303D01*
X271247285Y-143722303D02*
X295059785Y-143722303D01*
X295059785Y-124672303D02*
X295059785Y-143722303D01*
%TO.C,KB1*%
X55316285Y-48472303D02*
X74366285Y-48472303D01*
X55316285Y-67522303D02*
X55316285Y-48472303D01*
X74366285Y-48472303D02*
X74366285Y-67522303D01*
X74366285Y-67522303D02*
X55316285Y-67522303D01*
%TO.C,KD10*%
X248152785Y-89583503D02*
X266786497Y-85622785D01*
X252113503Y-108217215D02*
X248152785Y-89583503D01*
X266786497Y-85622785D02*
X270747215Y-104256497D01*
X270747215Y-104256497D02*
X252113503Y-108217215D01*
%TO.C,KF1*%
X62460085Y-124672303D02*
X86272585Y-124672303D01*
X62460085Y-143722303D02*
X62460085Y-124672303D01*
X62460085Y-143722303D02*
X86272585Y-143722303D01*
X86272585Y-124672303D02*
X86272585Y-143722303D01*
D12*
%TO.C,J2*%
X350064785Y-111707903D02*
X348734785Y-111707903D01*
X350064785Y-110377903D02*
X350064785Y-111707903D01*
X350064785Y-109107903D02*
X350064785Y-106377903D01*
X350064785Y-109107903D02*
X347404785Y-109107903D01*
X350064785Y-106377903D02*
X347404785Y-106377903D01*
X347404785Y-109107903D02*
X347404785Y-106377903D01*
D10*
%TO.C,KE13*%
X323634785Y-108003503D02*
X342684785Y-108003503D01*
X323634785Y-127053503D02*
X323634785Y-108003503D01*
X342684785Y-108003503D02*
X342684785Y-127053503D01*
X342684785Y-127053503D02*
X323634785Y-127053503D01*
%TO.C,KE7*%
X189870485Y-121447403D02*
X208504197Y-117486685D01*
X193831203Y-140081115D02*
X189870485Y-121447403D01*
X208504197Y-117486685D02*
X212464915Y-136120397D01*
X212464915Y-136120397D02*
X193831203Y-140081115D01*
%TD*%
%LPC*%
D13*
%TO.C,JUSB1*%
X175766285Y-38384803D03*
X176616285Y-38384803D03*
X177466285Y-38384803D03*
X178316285Y-38384803D03*
X179166285Y-38384803D03*
X180016285Y-38384803D03*
X180866285Y-38384803D03*
X181716285Y-38384803D03*
X181716285Y-37034803D03*
X180866285Y-37034803D03*
X180016285Y-37034803D03*
X179166285Y-37034803D03*
X178316285Y-37034803D03*
X177466285Y-37034803D03*
X176616285Y-37034803D03*
X175766285Y-37034803D03*
D14*
X174416285Y-37404803D03*
X183066285Y-37404803D03*
X183066285Y-34024803D03*
X174416285Y-34024803D03*
%TD*%
D15*
%TO.C,KD1*%
X71667585Y-96097303D03*
D16*
X72937585Y-93557303D03*
D17*
X76747585Y-96097303D03*
D16*
X79287585Y-91017303D03*
D15*
X81827585Y-96097303D03*
%TD*%
%TO.C,KB11*%
X268548485Y-55616003D03*
D16*
X269818485Y-53076003D03*
D17*
X273628485Y-55616003D03*
D16*
X276168485Y-50536003D03*
D15*
X278708485Y-55616003D03*
%TD*%
%TO.C,KD11*%
X275692285Y-96097303D03*
D16*
X276962285Y-93557303D03*
D17*
X280772285Y-96097303D03*
D16*
X283312285Y-91017303D03*
D15*
X285852285Y-96097303D03*
%TD*%
%TO.C,KC12*%
X316173485Y-77047303D03*
D16*
X317443485Y-74507303D03*
D17*
X321253485Y-77047303D03*
D16*
X323793485Y-71967303D03*
D15*
X326333485Y-77047303D03*
%TD*%
%TO.C,KC4*%
X127986892Y-83803526D03*
D16*
X129757235Y-81583079D03*
D17*
X132955882Y-84859718D03*
D16*
X136496568Y-80418824D03*
D15*
X137924872Y-85915909D03*
%TD*%
%TO.C,KB10*%
X247668810Y-60472991D03*
D16*
X248382962Y-57724449D03*
D17*
X252637800Y-59416800D03*
D16*
X254066103Y-53919715D03*
D15*
X257606790Y-58360609D03*
%TD*%
%TO.C,KE3*%
X114115692Y-119806226D03*
D16*
X115886035Y-117585779D03*
D17*
X119084682Y-120862418D03*
D16*
X122625368Y-116421524D03*
D15*
X124053672Y-121918609D03*
%TD*%
%TO.C,KB9*%
X229035110Y-64433691D03*
D16*
X229749262Y-61685149D03*
D17*
X234004100Y-63377500D03*
D16*
X235432403Y-57880415D03*
D15*
X238973090Y-62321309D03*
%TD*%
%TO.C,KC1*%
X69286285Y-77047303D03*
D16*
X70556285Y-74507303D03*
D17*
X74366285Y-77047303D03*
D16*
X76906285Y-71967303D03*
D15*
X79446285Y-77047303D03*
%TD*%
%TO.C,KA2*%
X82346127Y-34518068D03*
D16*
X83790215Y-32072846D03*
D17*
X87413752Y-34872431D03*
D16*
X90301928Y-29981987D03*
D15*
X92481378Y-35226794D03*
%TD*%
%TO.C,KF8*%
X328079785Y-136578503D03*
D16*
X329349785Y-134038503D03*
D17*
X333159785Y-136578503D03*
D16*
X335699785Y-131498503D03*
D15*
X338239785Y-136578503D03*
%TD*%
%TO.C,KA9*%
X225137810Y-41409591D03*
D16*
X225851962Y-38661049D03*
D17*
X230106800Y-40353400D03*
D16*
X231535103Y-34856315D03*
D15*
X235075790Y-39297209D03*
%TD*%
%TO.C,KA12*%
X285217285Y-34184803D03*
D16*
X286487285Y-31644803D03*
D17*
X290297285Y-34184803D03*
D16*
X292837285Y-29104803D03*
D15*
X295377285Y-34184803D03*
%TD*%
%TO.C,KE8*%
X214832410Y-125879391D03*
D16*
X215546562Y-123130849D03*
D17*
X219801400Y-124823200D03*
D16*
X221229703Y-119326115D03*
D15*
X224770390Y-123767009D03*
%TD*%
%TO.C,KF0*%
X45473835Y-134197303D03*
D16*
X46743835Y-131657303D03*
D17*
X50553835Y-134197303D03*
D16*
X53093835Y-129117303D03*
D15*
X55633835Y-134197303D03*
%TD*%
D18*
%TO.C,KD13*%
X318878535Y-89097303D03*
D19*
X318878535Y-104337303D03*
D15*
X325698535Y-96097303D03*
D16*
X326968535Y-93557303D03*
D17*
X330778535Y-96097303D03*
D16*
X333318535Y-91017303D03*
D15*
X335858535Y-96097303D03*
D18*
X342678535Y-89097303D03*
D19*
X342678535Y-104337303D03*
%TD*%
D15*
%TO.C,KC11*%
X297123485Y-77047303D03*
D16*
X298393485Y-74507303D03*
D17*
X302203485Y-77047303D03*
D16*
X304743485Y-71967303D03*
D15*
X307283485Y-77047303D03*
%TD*%
D20*
%TO.C,MountTopMiddle6*%
X355131285Y-89199803D03*
%TD*%
D21*
%TO.C,RSW2*%
X176210000Y-157040000D03*
X171210000Y-157040000D03*
D22*
X177210000Y-154540000D03*
X170210000Y-154540000D03*
%TD*%
D15*
%TO.C,KA11*%
X265038388Y-35226833D03*
D16*
X266128113Y-32604430D03*
D17*
X270106013Y-34872470D03*
D16*
X272285463Y-29627663D03*
D15*
X275173638Y-34518107D03*
%TD*%
%TO.C,KD9*%
X235847310Y-101936891D03*
D16*
X236561462Y-99188349D03*
D17*
X240816300Y-100880700D03*
D16*
X242244603Y-95383615D03*
D15*
X245785290Y-99824509D03*
%TD*%
%TO.C,KA13*%
X306648485Y-34184803D03*
D16*
X307918485Y-31644803D03*
D17*
X311728485Y-34184803D03*
D16*
X314268485Y-29104803D03*
D15*
X316808485Y-34184803D03*
%TD*%
%TO.C,KD4*%
X130368192Y-103785226D03*
D16*
X132138535Y-101564779D03*
D17*
X135337182Y-104841418D03*
D16*
X138877868Y-100400524D03*
D15*
X140306172Y-105897609D03*
%TD*%
%TO.C,KA3*%
X102478503Y-36225031D03*
D16*
X104089643Y-33886500D03*
D17*
X107509065Y-36932030D03*
D16*
X110731345Y-32254968D03*
D15*
X112539626Y-37639029D03*
%TD*%
D19*
%TO.C,KF4*%
X201092121Y-139851464D03*
D18*
X204260695Y-154758434D03*
D15*
X209476280Y-146493443D03*
D16*
X210190432Y-143744900D03*
D17*
X214445270Y-145437251D03*
D16*
X215873573Y-139940166D03*
D15*
X219414259Y-144381060D03*
D19*
X224372034Y-134903166D03*
D18*
X227540608Y-149810136D03*
%TD*%
D15*
%TO.C,KF10*%
X328079785Y-34184803D03*
D16*
X329349785Y-31644803D03*
D17*
X333159785Y-34184803D03*
D16*
X335699785Y-29104803D03*
D15*
X338239785Y-34184803D03*
%TD*%
%TO.C,KB2*%
X78811285Y-55616003D03*
D16*
X80081285Y-53076003D03*
D17*
X83891285Y-55616003D03*
D16*
X86431285Y-50536003D03*
D15*
X88971285Y-55616003D03*
%TD*%
%TO.C,KA10*%
X244980150Y-37638982D03*
D16*
X245884291Y-34946951D03*
D17*
X250010712Y-36931983D03*
D16*
X251818994Y-31547921D03*
D15*
X255041274Y-36224983D03*
%TD*%
%TO.C,KB0*%
X40711285Y-57997303D03*
D16*
X41981285Y-55457303D03*
D17*
X45791285Y-57997303D03*
D16*
X48331285Y-52917303D03*
D15*
X50871285Y-57997303D03*
%TD*%
%TO.C,KB6*%
X155814092Y-70242726D03*
D16*
X157584435Y-68022279D03*
D17*
X160783082Y-71298918D03*
D16*
X164323768Y-66858024D03*
D15*
X165752072Y-72355109D03*
%TD*%
D20*
%TO.C,MountTopMiddle4*%
X268941285Y-127139803D03*
%TD*%
D15*
%TO.C,KA5*%
X143375447Y-43512614D03*
D16*
X144945529Y-41146321D03*
D17*
X148417582Y-44131711D03*
D16*
X151557745Y-39399124D03*
D15*
X153459716Y-44750807D03*
%TD*%
%TO.C,KB4*%
X118546692Y-62321326D03*
D16*
X120317035Y-60100879D03*
D17*
X123515682Y-63377518D03*
D16*
X127056368Y-58936624D03*
D15*
X128484672Y-64433709D03*
%TD*%
%TO.C,KE6*%
X173679885Y-138959803D03*
D16*
X174949885Y-136419803D03*
D17*
X178759885Y-138959803D03*
D16*
X181299885Y-133879803D03*
D15*
X183839885Y-138959803D03*
%TD*%
%TO.C,KC7*%
X219594910Y-85915891D03*
D16*
X220309062Y-83167349D03*
D17*
X224563900Y-84859700D03*
D16*
X225992203Y-79362615D03*
D15*
X229532890Y-83803509D03*
%TD*%
%TO.C,KC6*%
X200961210Y-89876591D03*
D16*
X201675362Y-87128049D03*
D17*
X205930200Y-88820400D03*
D16*
X207358503Y-83323315D03*
D15*
X210899190Y-87764209D03*
%TD*%
%TO.C,KE11*%
X273310985Y-115147303D03*
D16*
X274580985Y-112607303D03*
D17*
X278390985Y-115147303D03*
D16*
X280930985Y-110067303D03*
D15*
X283470985Y-115147303D03*
%TD*%
%TO.C,KA8*%
X204060058Y-44750796D03*
D16*
X205011044Y-42074955D03*
D17*
X209102193Y-44131700D03*
D16*
X211004164Y-38780017D03*
D15*
X214144327Y-43512603D03*
%TD*%
%TO.C,KE4*%
X132749392Y-123767026D03*
D16*
X134519735Y-121546579D03*
D17*
X137718382Y-124823218D03*
D16*
X141259068Y-120382324D03*
D15*
X142687372Y-125879409D03*
%TD*%
%TO.C,KF11*%
X347129785Y-34184803D03*
D16*
X348399785Y-31644803D03*
D17*
X352209785Y-34184803D03*
D16*
X354749785Y-29104803D03*
D15*
X357289785Y-34184803D03*
%TD*%
%TO.C,KC3*%
X109353192Y-79842826D03*
D16*
X111123535Y-77622379D03*
D17*
X114322182Y-80899018D03*
D16*
X117862868Y-76458124D03*
D15*
X119291172Y-81955209D03*
%TD*%
%TO.C,KB3*%
X99912992Y-58360626D03*
D16*
X101683335Y-56140179D03*
D17*
X104881982Y-59416818D03*
D16*
X108422668Y-54975924D03*
D15*
X109850972Y-60473009D03*
%TD*%
%TO.C,KD7*%
X198579910Y-109858391D03*
D16*
X199294062Y-107109849D03*
D17*
X203548900Y-108802200D03*
D16*
X204977203Y-103305115D03*
D15*
X208517890Y-107746009D03*
%TD*%
D20*
%TO.C,MountTopMiddle1*%
X56521285Y-45989803D03*
%TD*%
D21*
%TO.C,RSW1*%
X186210000Y-157040000D03*
X181210000Y-157040000D03*
D22*
X187210000Y-154540000D03*
X180210000Y-154540000D03*
%TD*%
D15*
%TO.C,KD2*%
X93100792Y-95863826D03*
D16*
X94871135Y-93643379D03*
D17*
X98069782Y-96920018D03*
D16*
X101610468Y-92479124D03*
D15*
X103038772Y-97976209D03*
%TD*%
%TO.C,KD6*%
X173679885Y-119909803D03*
D16*
X174949885Y-117369803D03*
D17*
X178759885Y-119909803D03*
D16*
X181299885Y-114829803D03*
D15*
X183839885Y-119909803D03*
%TD*%
%TO.C,KF7*%
X309029785Y-136578503D03*
D16*
X310299785Y-134038503D03*
D17*
X314109785Y-136578503D03*
D16*
X316649785Y-131498503D03*
D15*
X319189785Y-136578503D03*
%TD*%
%TO.C,KC2*%
X90719492Y-75882026D03*
D16*
X92489835Y-73661579D03*
D17*
X95688482Y-76938218D03*
D16*
X99229168Y-72497324D03*
D15*
X100657472Y-77994409D03*
%TD*%
D20*
%TO.C,MountTopMiddle3*%
X178740000Y-83830000D03*
%TD*%
D15*
%TO.C,KE12*%
X299504735Y-115147303D03*
D16*
X300774735Y-112607303D03*
D17*
X304584735Y-115147303D03*
D16*
X307124735Y-110067303D03*
D15*
X309664735Y-115147303D03*
%TD*%
%TO.C,KC13*%
X339985985Y-77047303D03*
D16*
X341255985Y-74507303D03*
D17*
X345065985Y-77047303D03*
D16*
X347605985Y-71967303D03*
D15*
X350145985Y-77047303D03*
%TD*%
%TO.C,KE5*%
X151383192Y-127727726D03*
D16*
X153153535Y-125507279D03*
D17*
X156352182Y-128783918D03*
D16*
X159892868Y-124343024D03*
D15*
X161321172Y-129840109D03*
%TD*%
%TO.C,KC5*%
X146620692Y-87764226D03*
D16*
X148391035Y-85543779D03*
D17*
X151589682Y-88820418D03*
D16*
X155130368Y-84379524D03*
D15*
X156558672Y-89876609D03*
%TD*%
%TO.C,KC8*%
X238228610Y-81955191D03*
D16*
X238942762Y-79206649D03*
D17*
X243197600Y-80899000D03*
D16*
X244625903Y-75401915D03*
D15*
X248166590Y-79842809D03*
%TD*%
%TO.C,KA4*%
X122443992Y-39297226D03*
D16*
X124214335Y-37076779D03*
D17*
X127412982Y-40353418D03*
D16*
X130953668Y-35912524D03*
D15*
X132381972Y-41409609D03*
%TD*%
%TO.C,KD0*%
X45473835Y-96097303D03*
D16*
X46743835Y-93557303D03*
D17*
X50553835Y-96097303D03*
D16*
X53093835Y-91017303D03*
D15*
X55633835Y-96097303D03*
%TD*%
%TO.C,KA6*%
X163130312Y-45714665D03*
D16*
X164616855Y-43295018D03*
D17*
X168190981Y-46157416D03*
D16*
X171164067Y-41318122D03*
D15*
X173251650Y-46600167D03*
%TD*%
%TO.C,KD12*%
X294742285Y-96097303D03*
D16*
X296012285Y-93557303D03*
D17*
X299822285Y-96097303D03*
D16*
X302362285Y-91017303D03*
D15*
X304902285Y-96097303D03*
%TD*%
%TO.C,KB12*%
X287598485Y-57997303D03*
D16*
X288868485Y-55457303D03*
D17*
X292678485Y-57997303D03*
D16*
X295218485Y-52917303D03*
D15*
X297758485Y-57997303D03*
%TD*%
%TO.C,KF2*%
X96179706Y-135469416D03*
D16*
X97950049Y-133248969D03*
D17*
X101148696Y-136525607D03*
D16*
X104689382Y-132084713D03*
D15*
X106117686Y-137581799D03*
%TD*%
D21*
%TO.C,J3*%
X34021285Y-134929803D03*
X34021285Y-132429803D03*
X34021285Y-129929803D03*
%TD*%
D15*
%TO.C,KA0*%
X40711285Y-34184803D03*
D16*
X41981285Y-31644803D03*
D17*
X45791285Y-34184803D03*
D16*
X48331285Y-29104803D03*
D15*
X50871285Y-34184803D03*
%TD*%
%TO.C,KF12*%
X344748485Y-57997303D03*
D16*
X346018485Y-55457303D03*
D17*
X349828485Y-57997303D03*
D16*
X352368485Y-52917303D03*
D15*
X354908485Y-57997303D03*
%TD*%
%TO.C,KB7*%
X191767710Y-72355191D03*
D16*
X192481862Y-69606649D03*
D17*
X196736700Y-71299000D03*
D16*
X198165003Y-65801915D03*
D15*
X201705690Y-70242809D03*
%TD*%
D18*
%TO.C,KE0*%
X36272535Y-108147303D03*
D19*
X36272535Y-123387303D03*
D15*
X43092535Y-115147303D03*
D16*
X44362535Y-112607303D03*
D17*
X48172535Y-115147303D03*
D16*
X50712535Y-110067303D03*
D15*
X53252535Y-115147303D03*
D18*
X60072535Y-108147303D03*
D19*
X60072535Y-123387303D03*
%TD*%
D15*
%TO.C,KB8*%
X210401410Y-68394391D03*
D16*
X211115562Y-65645849D03*
D17*
X215370400Y-67338200D03*
D16*
X216798703Y-61841115D03*
D15*
X220339390Y-66282009D03*
%TD*%
%TO.C,KC9*%
X256862310Y-77994491D03*
D16*
X257576462Y-75245949D03*
D17*
X261831300Y-76938300D03*
D16*
X263259603Y-71441215D03*
D15*
X266800290Y-75882109D03*
%TD*%
D18*
%TO.C,KB13*%
X309353485Y-50997303D03*
D19*
X309353485Y-66237303D03*
D15*
X316173485Y-57997303D03*
D16*
X317443485Y-55457303D03*
D17*
X321253485Y-57997303D03*
D16*
X323793485Y-52917303D03*
D15*
X326333485Y-57997303D03*
D18*
X333153485Y-50997303D03*
D19*
X333153485Y-66237303D03*
%TD*%
D15*
%TO.C,KB5*%
X137180392Y-66282026D03*
D16*
X138950735Y-64061579D03*
D17*
X142149382Y-67338218D03*
D16*
X145690068Y-62897324D03*
D15*
X147118372Y-68394409D03*
%TD*%
%TO.C,KE1*%
X74048785Y-115147303D03*
D16*
X75318785Y-112607303D03*
D17*
X79128785Y-115147303D03*
D16*
X81668785Y-110067303D03*
D15*
X84208785Y-115147303D03*
%TD*%
%TO.C,KC0*%
X45473785Y-77047303D03*
D16*
X46743785Y-74507303D03*
D17*
X50553785Y-77047303D03*
D16*
X53093785Y-71967303D03*
D15*
X55633785Y-77047303D03*
%TD*%
%TO.C,KA7*%
X184268129Y-46600150D03*
D16*
X185311921Y-43959128D03*
D17*
X189328798Y-46157399D03*
D16*
X191416381Y-40875354D03*
D15*
X194389467Y-45714648D03*
%TD*%
D19*
%TO.C,KF3*%
X128488480Y-133917362D03*
D18*
X125319906Y-148824331D03*
D15*
X133447190Y-143390854D03*
D16*
X135217533Y-141170407D03*
D17*
X138416180Y-144447046D03*
D16*
X141956866Y-140006152D03*
D15*
X143385170Y-145503237D03*
D19*
X151768393Y-138865660D03*
D18*
X148599819Y-153772630D03*
%TD*%
D20*
%TO.C,MountTopMiddle5*%
X300941285Y-46069803D03*
%TD*%
D15*
%TO.C,KF9*%
X347129785Y-136578503D03*
D16*
X348399785Y-134038503D03*
D17*
X352209785Y-136578503D03*
D16*
X354749785Y-131498503D03*
D15*
X357289785Y-136578503D03*
%TD*%
%TO.C,KD3*%
X111734492Y-99824526D03*
D16*
X113504835Y-97604079D03*
D17*
X116703482Y-100880718D03*
D16*
X120244168Y-96439824D03*
D15*
X121672472Y-101936909D03*
%TD*%
%TO.C,KE2*%
X95481992Y-115845526D03*
D16*
X97252335Y-113625079D03*
D17*
X100450982Y-116901718D03*
D16*
X103991668Y-112460824D03*
D15*
X105419972Y-117957909D03*
%TD*%
%TO.C,KF5*%
X251402124Y-137581802D03*
D16*
X252116276Y-134833259D03*
D17*
X256371114Y-136525610D03*
D16*
X257799417Y-131028525D03*
D15*
X261340104Y-135469419D03*
%TD*%
%TO.C,KD8*%
X217213610Y-105897591D03*
D16*
X217927762Y-103149049D03*
D17*
X222182600Y-104841400D03*
D16*
X223610903Y-99344315D03*
D15*
X227151590Y-103785209D03*
%TD*%
%TO.C,KD5*%
X149001892Y-107745926D03*
D16*
X150772235Y-105525479D03*
D17*
X153970882Y-108802118D03*
D16*
X157511568Y-104361224D03*
D15*
X158939872Y-109858309D03*
%TD*%
%TO.C,KC10*%
X278073485Y-77047303D03*
D16*
X279343485Y-74507303D03*
D17*
X283153485Y-77047303D03*
D16*
X285693485Y-71967303D03*
D15*
X288233485Y-77047303D03*
%TD*%
%TO.C,KA1*%
X62142585Y-34184803D03*
D16*
X63412585Y-31644803D03*
D17*
X67222585Y-34184803D03*
D16*
X69762585Y-29104803D03*
D15*
X72302585Y-34184803D03*
%TD*%
D20*
%TO.C,MountTopMiddle2*%
X88531285Y-127169803D03*
%TD*%
D15*
%TO.C,KE9*%
X233466110Y-121918691D03*
D16*
X234180262Y-119170149D03*
D17*
X238435100Y-120862500D03*
D16*
X239863403Y-115365415D03*
D15*
X243404090Y-119806309D03*
%TD*%
%TO.C,KE10*%
X252099810Y-117957891D03*
D16*
X252813962Y-115209349D03*
D17*
X257068800Y-116901700D03*
D16*
X258497103Y-111404615D03*
D15*
X262037790Y-115845509D03*
%TD*%
D23*
%TO.C,J1*%
X348734785Y-125837903D03*
D24*
X348734785Y-123297903D03*
X348734785Y-120757903D03*
%TD*%
D15*
%TO.C,KF6*%
X278073535Y-134197303D03*
D16*
X279343535Y-131657303D03*
D17*
X283153535Y-134197303D03*
D16*
X285693535Y-129117303D03*
D15*
X288233535Y-134197303D03*
%TD*%
%TO.C,KB1*%
X59761285Y-57997303D03*
D16*
X61031285Y-55457303D03*
D17*
X64841285Y-57997303D03*
D16*
X67381285Y-52917303D03*
D15*
X69921285Y-57997303D03*
%TD*%
%TO.C,KD10*%
X254481010Y-97976191D03*
D16*
X255195162Y-95227649D03*
D17*
X259450000Y-96920000D03*
D16*
X260878303Y-91422915D03*
D15*
X264418990Y-95863809D03*
%TD*%
%TO.C,KF1*%
X69286335Y-134197303D03*
D16*
X70556335Y-131657303D03*
D17*
X74366335Y-134197303D03*
D16*
X76906335Y-129117303D03*
D15*
X79446335Y-134197303D03*
%TD*%
D23*
%TO.C,J2*%
X348734785Y-110377903D03*
D24*
X348734785Y-107837903D03*
%TD*%
D15*
%TO.C,KE13*%
X328079785Y-117528503D03*
D16*
X329349785Y-114988503D03*
D17*
X333159785Y-117528503D03*
D16*
X335699785Y-112448503D03*
D15*
X338239785Y-117528503D03*
%TD*%
%TO.C,KE7*%
X196198710Y-129840091D03*
D16*
X196912862Y-127091549D03*
D17*
X201167700Y-128783900D03*
D16*
X202596003Y-123286815D03*
D15*
X206136690Y-127727709D03*
%TD*%
%LPD*%
M02*
