%TF.GenerationSoftware,KiCad,Pcbnew,7.0.10*%
%TF.CreationDate,2024-01-25T00:58:59+01:00*%
%TF.ProjectId,Wonderland,576f6e64-6572-46c6-916e-642e6b696361,rev?*%
%TF.SameCoordinates,Original*%
%TF.FileFunction,Profile,NP*%
%FSLAX46Y46*%
G04 Gerber Fmt 4.6, Leading zero omitted, Abs format (unit mm)*
G04 Created by KiCad (PCBNEW 7.0.10) date 2024-01-25 00:58:59*
%MOMM*%
%LPD*%
G01*
G04 APERTURE LIST*
%TA.AperFunction,Profile*%
%ADD10C,0.200000*%
%TD*%
%TA.AperFunction,Profile*%
%ADD11C,0.120000*%
%TD*%
G04 APERTURE END LIST*
D10*
X159032384Y-35838528D02*
X159532384Y-35838528D01*
X97579991Y-26035069D02*
X99402378Y-26174057D01*
X271247251Y-143722303D02*
X268326141Y-143722303D01*
X86272535Y-143722303D02*
X62460035Y-143722303D01*
X280772251Y-24659803D02*
X299822251Y-24659803D01*
X239252802Y-28825305D02*
X258117409Y-26174057D01*
X358584751Y-124587928D02*
X361734751Y-124587928D01*
X57697535Y-24659803D02*
X76747535Y-24659803D01*
X118266984Y-28825305D02*
X120076455Y-29056200D01*
X342684751Y-24659803D02*
X361734751Y-24659803D01*
X295059751Y-143722303D02*
X271247251Y-143722303D01*
X89193645Y-143722303D02*
X110814421Y-148317941D01*
X173259893Y-32294169D02*
X173259893Y-37039530D01*
X26741285Y-143722303D02*
X38647535Y-143722303D01*
X218809620Y-33016917D02*
X237443332Y-29056200D01*
X237443332Y-29056200D02*
X239252802Y-28825305D01*
X358584751Y-124587928D02*
X358584751Y-108087928D01*
X237388509Y-150298300D02*
X246705365Y-148317941D01*
X26741285Y-124672303D02*
X26741285Y-143722303D01*
X323634751Y-146103553D02*
X304584751Y-146103553D01*
X357084753Y-107137929D02*
G75*
G03*
X354884751Y-107137929I-1100001J0D01*
G01*
X354884751Y-107137929D02*
G75*
G03*
X357084753Y-107137929I1100001J0D01*
G01*
X159532384Y-35838528D02*
X173259893Y-37039530D01*
X138710166Y-33016917D02*
X140124380Y-33516917D01*
X357084752Y-125537926D02*
G75*
G03*
X354884750Y-125537926I-1100001J0D01*
G01*
X354884750Y-125537926D02*
G75*
G03*
X357084752Y-125537926I1100001J0D01*
G01*
X162057128Y-159209914D02*
X110814421Y-148317941D01*
X217395406Y-33516917D02*
X218809620Y-33016917D01*
X120076455Y-29056200D02*
X138710166Y-33016917D01*
X361734751Y-24659803D02*
X361734751Y-43709803D01*
X198487402Y-35838528D02*
X217395406Y-33516917D01*
X78576396Y-24706208D02*
X97579991Y-26035069D01*
X361734751Y-124587928D02*
X361734751Y-146103553D01*
X278943390Y-24706208D02*
X280772251Y-24659803D01*
X140124380Y-33516917D02*
X159032384Y-35838528D01*
X361734751Y-108087928D02*
X361734751Y-43709803D01*
X361734751Y-146103553D02*
X342684751Y-146103553D01*
X173259893Y-32294169D02*
X184259893Y-32294169D01*
X55316285Y-24659803D02*
X57697535Y-24659803D01*
X358584751Y-108087928D02*
X361734751Y-108087928D01*
X323634751Y-24659803D02*
X342684751Y-24659803D01*
X349734751Y-116337928D02*
G75*
G03*
X347534751Y-116337928I-1100000J0D01*
G01*
X347534751Y-116337928D02*
G75*
G03*
X349734751Y-116337928I1100000J0D01*
G01*
X86272535Y-143722303D02*
X89193645Y-143722303D01*
X302203501Y-24659803D02*
X321253501Y-24659803D01*
X26741285Y-24659803D02*
X26741285Y-105622303D01*
X184259893Y-37039530D02*
X197987402Y-35838528D01*
X304584751Y-143722303D02*
X304584751Y-146103553D01*
X76747535Y-24659803D02*
X78576396Y-24706208D01*
X26741285Y-124672303D02*
X26741285Y-105622303D01*
X237388509Y-150298300D02*
X195462658Y-159209914D01*
X342684751Y-146103553D02*
X323634751Y-146103553D01*
X197987402Y-35838528D02*
X198487402Y-35838528D01*
X321253501Y-24659803D02*
X323634751Y-24659803D01*
X258117409Y-26174057D02*
X259939795Y-26035069D01*
X259939795Y-26035069D02*
X278943390Y-24706208D01*
X162057128Y-159209914D02*
X195462658Y-159209914D01*
X36266285Y-24659803D02*
X26741285Y-24659803D01*
X295059751Y-143722303D02*
X304584751Y-143722303D01*
X246705365Y-148317941D02*
X268326141Y-143722303D01*
X36266285Y-24659803D02*
X55316285Y-24659803D01*
X299822251Y-24659803D02*
X302203501Y-24659803D01*
X184259893Y-32294169D02*
X184259893Y-37039530D01*
X62460035Y-143722303D02*
X38647535Y-143722303D01*
X99402378Y-26174057D02*
X118266984Y-28825305D01*
D11*
%TO.C,RGBF7*%
X312410000Y-140080000D02*
X315810000Y-140080000D01*
X312410000Y-143080000D02*
X312410000Y-140080000D01*
X315810000Y-140080000D02*
X315810000Y-143080000D01*
X315810000Y-143080000D02*
X312410000Y-143080000D01*
%TO.C,RGBE8*%
X218865282Y-128606228D02*
X222190983Y-127899329D01*
X219489017Y-131540671D02*
X218865282Y-128606228D01*
X222190983Y-127899329D02*
X222814718Y-130833772D01*
X222814718Y-130833772D02*
X219489017Y-131540671D01*
%TO.C,RGBA3*%
X105340971Y-40159448D02*
X108707882Y-40632636D01*
X104923452Y-43130252D02*
X105340971Y-40159448D01*
X108707882Y-40632636D02*
X108290363Y-43603440D01*
X108290363Y-43603440D02*
X104923452Y-43130252D01*
%TO.C,RGBC6*%
X204996939Y-92600014D02*
X208322640Y-91893115D01*
X205620674Y-95534457D02*
X204996939Y-92600014D01*
X208322640Y-91893115D02*
X208946375Y-94827558D01*
X208946375Y-94827558D02*
X205620674Y-95534457D01*
%TO.C,RGBF1*%
X72670000Y-137690000D02*
X76070000Y-137690000D01*
X72670000Y-140690000D02*
X72670000Y-137690000D01*
X76070000Y-137690000D02*
X76070000Y-140690000D01*
X76070000Y-140690000D02*
X72670000Y-140690000D01*
%TO.C,RGBD11*%
X279070000Y-99600000D02*
X282470000Y-99600000D01*
X279070000Y-102600000D02*
X279070000Y-99600000D01*
X282470000Y-99600000D02*
X282470000Y-102600000D01*
X282470000Y-102600000D02*
X279070000Y-102600000D01*
%TO.C,RGBA10*%
X248817785Y-40631192D02*
X252184696Y-40158004D01*
X249235304Y-43601996D02*
X248817785Y-40631192D01*
X252184696Y-40158004D02*
X252602215Y-43128808D01*
X252602215Y-43128808D02*
X249235304Y-43601996D01*
%TO.C,RGBF3*%
X136028807Y-147512765D02*
X139354508Y-148219664D01*
X135405072Y-150447208D02*
X136028807Y-147512765D01*
X139354508Y-148219664D02*
X138730773Y-151154107D01*
X138730773Y-151154107D02*
X135405072Y-150447208D01*
%TO.C,RGBA5*%
X146295476Y-47394003D02*
X149670132Y-47808359D01*
X145929868Y-50371641D02*
X146295476Y-47394003D01*
X149670132Y-47808359D02*
X149304524Y-50785997D01*
X149304524Y-50785997D02*
X145929868Y-50371641D01*
%TO.C,RGBF10*%
X331460000Y-37680000D02*
X334860000Y-37680000D01*
X331460000Y-40680000D02*
X331460000Y-37680000D01*
X334860000Y-37680000D02*
X334860000Y-40680000D01*
X334860000Y-40680000D02*
X331460000Y-40680000D01*
%TO.C,RGBA11*%
X268659506Y-38482240D02*
X272051224Y-38245068D01*
X268868776Y-41474932D02*
X268659506Y-38482240D01*
X272051224Y-38245068D02*
X272260494Y-41237760D01*
X272260494Y-41237760D02*
X268868776Y-41474932D01*
%TO.C,RGBB8*%
X214436939Y-71110014D02*
X217762640Y-70403115D01*
X215060674Y-74044457D02*
X214436939Y-71110014D01*
X217762640Y-70403115D02*
X218386375Y-73337558D01*
X218386375Y-73337558D02*
X215060674Y-74044457D01*
%TO.C,RGBA9*%
X229176939Y-44130013D02*
X232502640Y-43423114D01*
X229800674Y-47064456D02*
X229176939Y-44130013D01*
X232502640Y-43423114D02*
X233126375Y-46357557D01*
X233126375Y-46357557D02*
X229800674Y-47064456D01*
%TO.C,RGBB13*%
X319560000Y-61490000D02*
X322960000Y-61490000D01*
X319560000Y-64490000D02*
X319560000Y-61490000D01*
X322960000Y-61490000D02*
X322960000Y-64490000D01*
X322960000Y-64490000D02*
X319560000Y-64490000D01*
%TO.C,RGBB10*%
X251706939Y-63190014D02*
X255032640Y-62483115D01*
X252330674Y-66124457D02*
X251706939Y-63190014D01*
X255032640Y-62483115D02*
X255656375Y-65417558D01*
X255656375Y-65417558D02*
X252330674Y-66124457D01*
%TO.C,RGBC1*%
X72670000Y-80550000D02*
X76070000Y-80550000D01*
X72670000Y-83550000D02*
X72670000Y-80550000D01*
X76070000Y-80550000D02*
X76070000Y-83550000D01*
X76070000Y-83550000D02*
X72670000Y-83550000D01*
%TO.C,RGBD12*%
X298120000Y-99580000D02*
X301520000Y-99580000D01*
X298120000Y-102580000D02*
X298120000Y-99580000D01*
X301520000Y-99580000D02*
X301520000Y-102580000D01*
X301520000Y-102580000D02*
X298120000Y-102580000D01*
%TO.C,RGBB1*%
X63140000Y-61480000D02*
X66540000Y-61480000D01*
X63140000Y-64480000D02*
X63140000Y-61480000D01*
X66540000Y-61480000D02*
X66540000Y-64480000D01*
X66540000Y-64480000D02*
X63140000Y-64480000D01*
%TO.C,RGBB0*%
X44090000Y-61500000D02*
X47490000Y-61500000D01*
X44090000Y-64500000D02*
X44090000Y-61500000D01*
X47490000Y-61500000D02*
X47490000Y-64500000D01*
X47490000Y-64500000D02*
X44090000Y-64500000D01*
%TO.C,RGBD4*%
X132948807Y-107902765D02*
X136274508Y-108609664D01*
X132325072Y-110837208D02*
X132948807Y-107902765D01*
X136274508Y-108609664D02*
X135650773Y-111544107D01*
X135650773Y-111544107D02*
X132325072Y-110837208D01*
%TO.C,RGBE5*%
X153958807Y-131862765D02*
X157284508Y-132569664D01*
X153335072Y-134797208D02*
X153958807Y-131862765D01*
X157284508Y-132569664D02*
X156660773Y-135504107D01*
X156660773Y-135504107D02*
X153335072Y-134797208D01*
%TO.C,RGBF6*%
X281460000Y-137700000D02*
X284860000Y-137700000D01*
X281460000Y-140700000D02*
X281460000Y-137700000D01*
X284860000Y-137700000D02*
X284860000Y-140700000D01*
X284860000Y-140700000D02*
X281460000Y-140700000D01*
%TO.C,RGBD7*%
X202616939Y-112580014D02*
X205942640Y-111873115D01*
X203240674Y-115514457D02*
X202616939Y-112580014D01*
X205942640Y-111873115D02*
X206566375Y-114807558D01*
X206566375Y-114807558D02*
X203240674Y-115514457D01*
%TO.C,RGBB6*%
X158389017Y-74369329D02*
X161714718Y-75076228D01*
X157765282Y-77303772D02*
X158389017Y-74369329D01*
X161714718Y-75076228D02*
X161090983Y-78010671D01*
X161090983Y-78010671D02*
X157765282Y-77303772D01*
%TO.C,RGBF11*%
X350510000Y-37690000D02*
X353910000Y-37690000D01*
X350510000Y-40690000D02*
X350510000Y-37690000D01*
X353910000Y-37690000D02*
X353910000Y-40690000D01*
X353910000Y-40690000D02*
X350510000Y-40690000D01*
%TO.C,RGBF8*%
X331460000Y-140070000D02*
X334860000Y-140070000D01*
X331460000Y-143070000D02*
X331460000Y-140070000D01*
X334860000Y-140070000D02*
X334860000Y-143070000D01*
X334860000Y-143070000D02*
X331460000Y-143070000D01*
%TO.C,RGBE3*%
X116689017Y-123929329D02*
X120014718Y-124636228D01*
X116065282Y-126863772D02*
X116689017Y-123929329D01*
X120014718Y-124636228D02*
X119390983Y-127570671D01*
X119390983Y-127570671D02*
X116065282Y-126863772D01*
%TO.C,RGBD1*%
X75050000Y-99600000D02*
X78450000Y-99600000D01*
X75050000Y-102600000D02*
X75050000Y-99600000D01*
X78450000Y-99600000D02*
X78450000Y-102600000D01*
X78450000Y-102600000D02*
X75050000Y-102600000D01*
%TO.C,RGBF5*%
X255436939Y-140300014D02*
X258762640Y-139593115D01*
X256060674Y-143234457D02*
X255436939Y-140300014D01*
X258762640Y-139593115D02*
X259386375Y-142527558D01*
X259386375Y-142527558D02*
X256060674Y-143234457D01*
%TO.C,RGBB11*%
X271930000Y-59120000D02*
X275330000Y-59120000D01*
X271930000Y-62120000D02*
X271930000Y-59120000D01*
X275330000Y-59120000D02*
X275330000Y-62120000D01*
X275330000Y-62120000D02*
X271930000Y-62120000D01*
%TO.C,RGBE11*%
X276690000Y-118650000D02*
X280090000Y-118650000D01*
X276690000Y-121650000D02*
X276690000Y-118650000D01*
X280090000Y-118650000D02*
X280090000Y-121650000D01*
X280090000Y-121650000D02*
X276690000Y-121650000D01*
%TO.C,RGBB7*%
X195806939Y-75080014D02*
X199132640Y-74373115D01*
X196430674Y-78014457D02*
X195806939Y-75080014D01*
X199132640Y-74373115D02*
X199756375Y-77307558D01*
X199756375Y-77307558D02*
X196430674Y-78014457D01*
%TO.C,RGBE12*%
X302890000Y-118650000D02*
X306290000Y-118650000D01*
X302890000Y-121650000D02*
X302890000Y-118650000D01*
X306290000Y-118650000D02*
X306290000Y-121650000D01*
X306290000Y-121650000D02*
X302890000Y-121650000D01*
%TO.C,RGBA13*%
X310030000Y-37680000D02*
X313430000Y-37680000D01*
X310030000Y-40680000D02*
X310030000Y-37680000D01*
X313430000Y-37680000D02*
X313430000Y-40680000D01*
X313430000Y-40680000D02*
X310030000Y-40680000D01*
%TO.C,RGBB9*%
X233075282Y-67156228D02*
X236400983Y-66449329D01*
X233699017Y-70090671D02*
X233075282Y-67156228D01*
X236400983Y-66449329D02*
X237024718Y-69383772D01*
X237024718Y-69383772D02*
X233699017Y-70090671D01*
%TO.C,RGBE13*%
X331460000Y-121030000D02*
X334860000Y-121030000D01*
X331460000Y-124030000D02*
X331460000Y-121030000D01*
X334860000Y-121030000D02*
X334860000Y-124030000D01*
X334860000Y-124030000D02*
X331460000Y-124030000D01*
%TO.C,RGBC10*%
X281450000Y-80540000D02*
X284850000Y-80540000D01*
X281450000Y-83540000D02*
X281450000Y-80540000D01*
X284850000Y-80540000D02*
X284850000Y-83540000D01*
X284850000Y-83540000D02*
X281450000Y-83540000D01*
%TO.C,RGBF4*%
X213506939Y-149210014D02*
X216832640Y-148503115D01*
X214130674Y-152144457D02*
X213506939Y-149210014D01*
X216832640Y-148503115D02*
X217456375Y-151437558D01*
X217456375Y-151437558D02*
X214130674Y-152144457D01*
%TO.C,RGBD9*%
X239876939Y-104650014D02*
X243202640Y-103943115D01*
X240500674Y-107584457D02*
X239876939Y-104650014D01*
X243202640Y-103943115D02*
X243826375Y-106877558D01*
X243826375Y-106877558D02*
X240500674Y-107584457D01*
%TO.C,RGBC0*%
X48850000Y-80550000D02*
X52250000Y-80550000D01*
X48850000Y-83550000D02*
X48850000Y-80550000D01*
X52250000Y-80550000D02*
X52250000Y-83550000D01*
X52250000Y-83550000D02*
X48850000Y-83550000D01*
%TO.C,RGBC11*%
X300510000Y-80550000D02*
X303910000Y-80550000D01*
X300510000Y-83550000D02*
X300510000Y-80550000D01*
X303910000Y-80550000D02*
X303910000Y-83550000D01*
X303910000Y-83550000D02*
X300510000Y-83550000D01*
%TO.C,RGBA8*%
X207839868Y-47808359D02*
X211214524Y-47394003D01*
X208205476Y-50785997D02*
X207839868Y-47808359D01*
X211214524Y-47394003D02*
X211580132Y-50371641D01*
X211580132Y-50371641D02*
X208205476Y-50785997D01*
%TO.C,RGBA1*%
X65520000Y-37680000D02*
X68920000Y-37680000D01*
X65520000Y-40680000D02*
X65520000Y-37680000D01*
X68920000Y-37680000D02*
X68920000Y-40680000D01*
X68920000Y-40680000D02*
X65520000Y-40680000D01*
%TO.C,RGBC13*%
X343370000Y-80540000D02*
X346770000Y-80540000D01*
X343370000Y-83540000D02*
X343370000Y-80540000D01*
X346770000Y-80540000D02*
X346770000Y-83540000D01*
X346770000Y-83540000D02*
X343370000Y-83540000D01*
%TO.C,RGBD10*%
X258516939Y-100690014D02*
X261842640Y-99983115D01*
X259140674Y-103624457D02*
X258516939Y-100690014D01*
X261842640Y-99983115D02*
X262466375Y-102917558D01*
X262466375Y-102917558D02*
X259140674Y-103624457D01*
%TO.C,RGBF12*%
X348130000Y-61500000D02*
X351530000Y-61500000D01*
X348130000Y-64500000D02*
X348130000Y-61500000D01*
X351530000Y-61500000D02*
X351530000Y-64500000D01*
X351530000Y-64500000D02*
X348130000Y-64500000D01*
%TO.C,RGBA7*%
X187940805Y-49793265D02*
X191327867Y-49496935D01*
X188202273Y-52781849D02*
X187940805Y-49793265D01*
X191327867Y-49496935D02*
X191589335Y-52485519D01*
X191589335Y-52485519D02*
X188202273Y-52781849D01*
%TO.C,RGBE9*%
X237495282Y-124636228D02*
X240820983Y-123929329D01*
X238119017Y-127570671D02*
X237495282Y-124636228D01*
X240820983Y-123929329D02*
X241444718Y-126863772D01*
X241444718Y-126863772D02*
X238119017Y-127570671D01*
%TO.C,RGBE1*%
X77440000Y-118650000D02*
X80840000Y-118650000D01*
X77440000Y-121650000D02*
X77440000Y-118650000D01*
X80840000Y-118650000D02*
X80840000Y-121650000D01*
X80840000Y-121650000D02*
X77440000Y-121650000D01*
%TO.C,RGBC2*%
X93299017Y-80009329D02*
X96624718Y-80716228D01*
X92675282Y-82943772D02*
X93299017Y-80009329D01*
X96624718Y-80716228D02*
X96000983Y-83650671D01*
X96000983Y-83650671D02*
X92675282Y-82943772D01*
%TO.C,RGBC5*%
X149199017Y-91889329D02*
X152524718Y-92596228D01*
X148575282Y-94823772D02*
X149199017Y-91889329D01*
X152524718Y-92596228D02*
X151900983Y-95530671D01*
X151900983Y-95530671D02*
X148575282Y-94823772D01*
%TO.C,RGBD8*%
X221245282Y-108616228D02*
X224570983Y-107909329D01*
X221869017Y-111550671D02*
X221245282Y-108616228D01*
X224570983Y-107909329D02*
X225194718Y-110843772D01*
X225194718Y-110843772D02*
X221869017Y-111550671D01*
%TO.C,RGBB3*%
X102489017Y-62479329D02*
X105814718Y-63186228D01*
X101865282Y-65413772D02*
X102489017Y-62479329D01*
X105814718Y-63186228D02*
X105190983Y-66120671D01*
X105190983Y-66120671D02*
X101865282Y-65413772D01*
%TO.C,RGBF0*%
X48860000Y-137680000D02*
X52260000Y-137680000D01*
X48860000Y-140680000D02*
X48860000Y-137680000D01*
X52260000Y-137680000D02*
X52260000Y-140680000D01*
X52260000Y-140680000D02*
X48860000Y-140680000D01*
%TO.C,RGBA0*%
X44080000Y-37680000D02*
X47480000Y-37680000D01*
X44080000Y-40680000D02*
X44080000Y-37680000D01*
X47480000Y-37680000D02*
X47480000Y-40680000D01*
X47480000Y-40680000D02*
X44080000Y-40680000D01*
%TO.C,RGBE0*%
X46470000Y-118650000D02*
X49870000Y-118650000D01*
X46470000Y-121650000D02*
X46470000Y-118650000D01*
X49870000Y-118650000D02*
X49870000Y-121650000D01*
X49870000Y-121650000D02*
X46470000Y-121650000D01*
%TO.C,RGBC3*%
X111928807Y-83972765D02*
X115254508Y-84679664D01*
X111305072Y-86907208D02*
X111928807Y-83972765D01*
X115254508Y-84679664D02*
X114630773Y-87614107D01*
X114630773Y-87614107D02*
X111305072Y-86907208D01*
%TO.C,RGBE4*%
X135329017Y-127889329D02*
X138654718Y-128596228D01*
X134705282Y-130823772D02*
X135329017Y-127889329D01*
X138654718Y-128596228D02*
X138030983Y-131530671D01*
X138030983Y-131530671D02*
X134705282Y-130823772D01*
%TO.C,RGBC12*%
X319560000Y-80550000D02*
X322960000Y-80550000D01*
X319560000Y-83550000D02*
X319560000Y-80550000D01*
X322960000Y-80550000D02*
X322960000Y-83550000D01*
X322960000Y-83550000D02*
X319560000Y-83550000D01*
%TO.C,RGBF9*%
X350510000Y-140080000D02*
X353910000Y-140080000D01*
X350510000Y-143080000D02*
X350510000Y-140080000D01*
X353910000Y-140080000D02*
X353910000Y-143080000D01*
X353910000Y-143080000D02*
X350510000Y-143080000D01*
%TO.C,RGBD0*%
X48850000Y-99600000D02*
X52250000Y-99600000D01*
X48850000Y-102600000D02*
X48850000Y-99600000D01*
X52250000Y-99600000D02*
X52250000Y-102600000D01*
X52250000Y-102600000D02*
X48850000Y-102600000D01*
%TO.C,RGBC7*%
X223625282Y-88636228D02*
X226950983Y-87929329D01*
X224249017Y-91570671D02*
X223625282Y-88636228D01*
X226950983Y-87929329D02*
X227574718Y-90863772D01*
X227574718Y-90863772D02*
X224249017Y-91570671D01*
%TO.C,RGBE10*%
X256135282Y-120676228D02*
X259460983Y-119969329D01*
X256759017Y-123610671D02*
X256135282Y-120676228D01*
X259460983Y-119969329D02*
X260084718Y-122903772D01*
X260084718Y-122903772D02*
X256759017Y-123610671D01*
%TO.C,RGBA12*%
X288590000Y-37680000D02*
X291990000Y-37680000D01*
X288590000Y-40680000D02*
X288590000Y-37680000D01*
X291990000Y-37680000D02*
X291990000Y-40680000D01*
X291990000Y-40680000D02*
X288590000Y-40680000D01*
%TO.C,RGBC9*%
X260895282Y-80716228D02*
X264220983Y-80009329D01*
X261519017Y-83650671D02*
X260895282Y-80716228D01*
X264220983Y-80009329D02*
X264844718Y-82943772D01*
X264844718Y-82943772D02*
X261519017Y-83650671D01*
%TO.C,RGBA2*%
X85459135Y-38235254D02*
X88850853Y-38472426D01*
X85249865Y-41227946D02*
X85459135Y-38235254D01*
X88850853Y-38472426D02*
X88641583Y-41465118D01*
X88641583Y-41465118D02*
X85249865Y-41227946D01*
%TO.C,RGBB4*%
X121128807Y-66452765D02*
X124454508Y-67159664D01*
X120505072Y-69387208D02*
X121128807Y-66452765D01*
X124454508Y-67159664D02*
X123830773Y-70094107D01*
X123830773Y-70094107D02*
X120505072Y-69387208D01*
%TO.C,RGBC8*%
X242266939Y-84670014D02*
X245592640Y-83963115D01*
X242890674Y-87604457D02*
X242266939Y-84670014D01*
X245592640Y-83963115D02*
X246216375Y-86897558D01*
X246216375Y-86897558D02*
X242890674Y-87604457D01*
%TO.C,RGBB5*%
X139758807Y-70412765D02*
X143084508Y-71119664D01*
X139135072Y-73347208D02*
X139758807Y-70412765D01*
X143084508Y-71119664D02*
X142460773Y-74054107D01*
X142460773Y-74054107D02*
X139135072Y-73347208D01*
%TO.C,RGBB2*%
X82190000Y-59110000D02*
X85590000Y-59110000D01*
X82190000Y-62110000D02*
X82190000Y-59110000D01*
X85590000Y-59110000D02*
X85590000Y-62110000D01*
X85590000Y-62110000D02*
X82190000Y-62110000D01*
%TO.C,RGBF2*%
X98758807Y-139592765D02*
X102084508Y-140299664D01*
X98135072Y-142527208D02*
X98758807Y-139592765D01*
X102084508Y-140299664D02*
X101460773Y-143234107D01*
X101460773Y-143234107D02*
X98135072Y-142527208D01*
%TO.C,RGBE7*%
X200235282Y-132556228D02*
X203560983Y-131849329D01*
X200859017Y-135490671D02*
X200235282Y-132556228D01*
X203560983Y-131849329D02*
X204184718Y-134783772D01*
X204184718Y-134783772D02*
X200859017Y-135490671D01*
%TO.C,RGBD5*%
X151578807Y-111872765D02*
X154904508Y-112579664D01*
X150955072Y-114807208D02*
X151578807Y-111872765D01*
X154904508Y-112579664D02*
X154280773Y-115514107D01*
X154280773Y-115514107D02*
X150955072Y-114807208D01*
%TO.C,RGBB12*%
X290990000Y-61500000D02*
X294390000Y-61500000D01*
X290990000Y-64500000D02*
X290990000Y-61500000D01*
X294390000Y-61500000D02*
X294390000Y-64500000D01*
X294390000Y-64500000D02*
X290990000Y-64500000D01*
%TO.C,RGBA6*%
X166197203Y-49497543D02*
X169584265Y-49793873D01*
X165935735Y-52486127D02*
X166197203Y-49497543D01*
X169584265Y-49793873D02*
X169322797Y-52782457D01*
X169322797Y-52782457D02*
X165935735Y-52486127D01*
%TO.C,RGBD13*%
X329080000Y-99590000D02*
X332480000Y-99590000D01*
X329080000Y-102590000D02*
X329080000Y-99590000D01*
X332480000Y-99590000D02*
X332480000Y-102590000D01*
X332480000Y-102590000D02*
X329080000Y-102590000D01*
%TO.C,RGBD2*%
X95688807Y-99992765D02*
X99014508Y-100699664D01*
X95065072Y-102927208D02*
X95688807Y-99992765D01*
X99014508Y-100699664D02*
X98390773Y-103634107D01*
X98390773Y-103634107D02*
X95065072Y-102927208D01*
%TO.C,RGBE6*%
X177055000Y-142450000D02*
X180455000Y-142450000D01*
X177055000Y-145450000D02*
X177055000Y-142450000D01*
X180455000Y-142450000D02*
X180455000Y-145450000D01*
X180455000Y-145450000D02*
X177055000Y-145450000D01*
%TO.C,RGBD6*%
X177060000Y-123410000D02*
X180460000Y-123410000D01*
X177060000Y-126410000D02*
X177060000Y-123410000D01*
X180460000Y-123410000D02*
X180460000Y-126410000D01*
X180460000Y-126410000D02*
X177060000Y-126410000D01*
%TO.C,RGBA4*%
X125029017Y-43419329D02*
X128354718Y-44126228D01*
X124405282Y-46353772D02*
X125029017Y-43419329D01*
X128354718Y-44126228D02*
X127730983Y-47060671D01*
X127730983Y-47060671D02*
X124405282Y-46353772D01*
%TO.C,RGBD3*%
X114308807Y-103942765D02*
X117634508Y-104649664D01*
X113685072Y-106877208D02*
X114308807Y-103942765D01*
X117634508Y-104649664D02*
X117010773Y-107584107D01*
X117010773Y-107584107D02*
X113685072Y-106877208D01*
%TO.C,RGBE2*%
X98059017Y-119969329D02*
X101384718Y-120676228D01*
X97435282Y-122903772D02*
X98059017Y-119969329D01*
X101384718Y-120676228D02*
X100760983Y-123610671D01*
X100760983Y-123610671D02*
X97435282Y-122903772D01*
%TO.C,RGBC4*%
X130569017Y-87929329D02*
X133894718Y-88636228D01*
X129945282Y-90863772D02*
X130569017Y-87929329D01*
X133894718Y-88636228D02*
X133270983Y-91570671D01*
X133270983Y-91570671D02*
X129945282Y-90863772D01*
%TD*%
M02*
