M48
; DRILL file {KiCad 7.0.10} date Thu Jan 25 00:58:59 2024
; FORMAT={-:-/ absolute / inch / decimal}
; #@! TF.CreationDate,2024-01-25T00:58:59+01:00
; #@! TF.GenerationSoftware,Kicad,Pcbnew,7.0.10
; #@! TF.FileFunction,NonPlated,1,2,NPTH
FMAT,2
INCH
; #@! TA.AperFunction,NonPlated,NPTH,ComponentDrill
T1C0.0669
; #@! TA.AperFunction,NonPlated,NPTH,ComponentDrill
T2C0.1181
; #@! TA.AperFunction,NonPlated,NPTH,ComponentDrill
T3C0.1201
; #@! TA.AperFunction,NonPlated,NPTH,ComponentDrill
T4C0.1575
; #@! TA.AperFunction,NonPlated,NPTH,ComponentDrill
T5C0.1614
%
G90
G05
T1
X1.6028Y-1.3459
X1.6028Y-2.2834
X1.6966Y-4.5334
X1.7903Y-3.0334
X1.7903Y-3.7834
X1.7903Y-5.2834
X2.0028Y-1.3459
X2.0028Y-2.2834
X2.0966Y-4.5334
X2.1903Y-3.0334
X2.1903Y-3.7834
X2.1903Y-5.2834
X2.3528Y-2.2834
X2.4466Y-1.3459
X2.7278Y-3.0334
X2.7278Y-5.2834
X2.7528Y-2.2834
X2.8216Y-3.7834
X2.8466Y-1.3459
X2.9153Y-4.5334
X3.1028Y-2.1896
X3.1278Y-3.0334
X3.1278Y-5.2834
X3.2216Y-3.7834
X3.242Y-1.359
X3.3153Y-4.5334
X3.5028Y-2.1896
X3.5716Y-2.9875
X3.641Y-1.3869
X3.6654Y-3.7742
X3.7591Y-4.5608
X3.7866Y-5.3334
X3.9336Y-2.2977
X3.9629Y-3.0706
X4.0346Y-1.4262
X4.0566Y-3.8573
X4.1504Y-4.644
X4.1779Y-5.4166
X4.3052Y-3.1434
X4.3248Y-2.3808
X4.399Y-3.9301
X4.4307Y-1.4819
X4.4927Y-4.7168
X4.6672Y-2.4536
X4.6965Y-3.2266
X4.7903Y-4.0133
X4.8206Y-1.5471
X4.884Y-4.7999
X5.0389Y-3.2994
X5.0585Y-2.5368
X5.1326Y-4.086
X5.2119Y-1.6303
X5.2264Y-4.8727
X5.2538Y-5.6453
X5.4008Y-2.6095
X5.4301Y-3.3825
X5.5239Y-4.1692
X5.6176Y-4.9559
X5.6447Y-1.7131
X5.6451Y-5.7285
X5.7725Y-3.4553
X5.7921Y-2.6927
X5.8662Y-4.242
X5.96Y-5.0287
X6.0417Y-1.7618
X6.1344Y-2.7655
X6.1637Y-3.5384
X6.2575Y-4.3251
X6.3512Y-5.1118
X6.4225Y-1.7998
X6.5257Y-2.8486
X6.8209Y-1.8347
X6.8378Y-4.7209
X6.8378Y-5.4709
X7.2378Y-4.7209
X7.2378Y-5.4709
X7.2547Y-1.8347
X7.5499Y-2.8486
X7.6531Y-1.7998
X7.7244Y-5.1118
X7.8181Y-4.3251
X7.9119Y-3.5384
X7.9412Y-2.7655
X8.0339Y-1.7618
X8.1156Y-5.0286
X8.2094Y-4.242
X8.2471Y-5.7675
X8.2835Y-2.6927
X8.3031Y-3.4553
X8.4309Y-1.7131
X8.458Y-4.9559
X8.5517Y-4.1692
X8.6384Y-5.6843
X8.6455Y-3.3825
X8.6748Y-2.6095
X8.8492Y-4.8727
X8.8637Y-1.6303
X8.943Y-4.086
X9.0171Y-2.5368
X9.0367Y-3.2994
X9.1916Y-4.7999
X9.255Y-1.5471
X9.2853Y-4.0133
X9.3791Y-3.2266
X9.4084Y-2.4536
X9.5828Y-4.7168
X9.6449Y-1.4818
X9.6766Y-3.9301
X9.7507Y-2.3808
X9.7703Y-3.1434
X9.8977Y-5.4166
X9.9252Y-4.644
X10.0189Y-3.8573
X10.041Y-1.4262
X10.1127Y-3.0706
X10.142Y-2.2977
X10.289Y-5.3334
X10.3164Y-4.5608
X10.4102Y-3.7742
X10.4346Y-1.3869
X10.5039Y-2.9875
X10.5728Y-2.1896
X10.7603Y-4.5334
X10.8336Y-1.359
X10.854Y-3.7834
X10.9478Y-3.0334
X10.9478Y-5.2834
X10.9728Y-2.1896
X11.1603Y-4.5334
X11.229Y-1.3459
X11.254Y-3.7834
X11.3228Y-2.2834
X11.3478Y-3.0334
X11.3478Y-5.2834
X11.604Y-3.7834
X11.629Y-1.3459
X11.6978Y-3.0334
X11.7228Y-2.2834
X11.7915Y-4.5334
X12.004Y-3.7834
X12.0728Y-1.3459
X12.0978Y-3.0334
X12.1665Y-5.3771
X12.1915Y-4.5334
X12.4478Y-2.2834
X12.4478Y-3.0334
X12.4728Y-1.3459
X12.5665Y-5.3771
X12.8228Y-3.7834
X12.8478Y-2.2834
X12.8478Y-3.0334
X12.9165Y-1.3459
X12.9165Y-4.6271
X12.9165Y-5.3771
X13.2228Y-3.7834
X13.3165Y-1.3459
X13.3165Y-4.6271
X13.3165Y-5.3771
X13.3853Y-3.0334
X13.5728Y-2.2834
X13.6665Y-1.3459
X13.6665Y-5.3771
X13.7853Y-3.0334
X13.9728Y-2.2834
X14.0665Y-1.3459
X14.0665Y-5.3771
T2
X1.6528Y-1.2459
X1.6528Y-2.1834
X1.7466Y-4.4334
X1.8403Y-2.9334
X1.8403Y-3.6834
X1.8403Y-5.1834
X1.9028Y-1.1459
X1.9028Y-2.0834
X1.9966Y-4.3334
X2.0903Y-2.8334
X2.0903Y-3.5834
X2.0903Y-5.0834
X2.4028Y-2.1834
X2.4966Y-1.2459
X2.6528Y-2.0834
X2.7466Y-1.1459
X2.7778Y-2.9334
X2.7778Y-5.1834
X2.8716Y-3.6834
X2.9653Y-4.4334
X3.0278Y-2.8334
X3.0278Y-5.0834
X3.1216Y-3.5834
X3.1528Y-2.0896
X3.2153Y-4.3334
X3.2988Y-1.2627
X3.4028Y-1.9896
X3.5552Y-1.1804
X3.6413Y-2.9001
X3.7351Y-3.6867
X3.8288Y-4.4734
X3.8563Y-5.246
X3.9067Y-2.8542
X4.0004Y-3.6409
X4.0033Y-2.2102
X4.0942Y-4.4276
X4.098Y-1.3341
X4.1216Y-5.2002
X4.2686Y-2.1644
X4.3595Y-1.2699
X4.3749Y-3.056
X4.4687Y-3.8427
X4.5624Y-4.6294
X4.6403Y-3.0102
X4.734Y-3.7968
X4.7369Y-2.3662
X4.8278Y-4.5835
X4.8903Y-1.4597
X5.0022Y-2.3203
X5.1086Y-3.2119
X5.1557Y-1.4139
X5.2023Y-3.9986
X5.2961Y-4.7853
X5.3235Y-5.5579
X5.3739Y-3.1661
X5.4676Y-3.9528
X5.4705Y-2.5221
X5.5614Y-4.7395
X5.5889Y-5.5121
X5.7065Y-1.6199
X5.7358Y-2.4763
X5.8422Y-3.3679
X5.9359Y-4.1545
X5.9668Y-1.5511
X6.0297Y-4.9412
X6.1075Y-3.322
X6.2012Y-4.1087
X6.2041Y-2.678
X6.295Y-4.8954
X6.4694Y-2.6322
X6.481Y-1.7045
X6.7387Y-1.6267
X6.8878Y-4.6209
X6.8878Y-5.3709
X7.1378Y-4.5209
X7.1378Y-5.2709
X7.2957Y-1.7307
X7.5361Y-1.6093
X7.578Y-2.7404
X7.7525Y-5.0036
X7.8018Y-2.5906
X7.8462Y-4.2169
X7.94Y-3.4302
X7.9762Y-4.8538
X8.07Y-4.0671
X8.0713Y-1.6565
X8.1637Y-3.2804
X8.2752Y-5.6592
X8.3073Y-1.5268
X8.3116Y-2.5845
X8.4861Y-4.8477
X8.499Y-5.5095
X8.5354Y-2.4347
X8.5798Y-4.061
X8.6736Y-3.2743
X8.7098Y-4.6979
X8.8036Y-3.9112
X8.8918Y-1.5221
X8.8973Y-3.1245
X9.0452Y-2.4285
X9.1156Y-1.3723
X9.2197Y-4.6917
X9.269Y-2.2788
X9.3134Y-3.9051
X9.4072Y-3.1184
X9.4434Y-4.5419
X9.5372Y-3.7553
X9.6309Y-2.9686
X9.6805Y-1.3759
X9.7789Y-2.2726
X9.9141Y-1.242
X9.9258Y-5.3084
X9.9533Y-4.5358
X10.0026Y-2.1228
X10.0471Y-3.7491
X10.1408Y-2.9624
X10.1496Y-5.1586
X10.1771Y-4.386
X10.2708Y-3.5993
X10.3646Y-2.8126
X10.4775Y-1.2836
X10.6228Y-2.0896
X10.7199Y-1.1664
X10.8103Y-4.4334
X10.8728Y-1.9896
X10.904Y-3.6834
X10.9978Y-2.9334
X10.9978Y-5.1834
X11.0603Y-4.3334
X11.154Y-3.5834
X11.2478Y-2.8334
X11.2478Y-5.0834
X11.279Y-1.2459
X11.3728Y-2.1834
X11.529Y-1.1459
X11.6228Y-2.0834
X11.654Y-3.6834
X11.7478Y-2.9334
X11.8415Y-4.4334
X11.904Y-3.5834
X11.9978Y-2.8334
X12.0915Y-4.3334
X12.1228Y-1.2459
X12.2165Y-5.2771
X12.3728Y-1.1459
X12.4665Y-5.1771
X12.4978Y-2.1834
X12.4978Y-2.9334
X12.7478Y-2.0834
X12.7478Y-2.8334
X12.8728Y-3.6834
X12.9665Y-1.2459
X12.9665Y-4.5271
X12.9665Y-5.2771
X13.1228Y-3.5834
X13.2165Y-1.1459
X13.2165Y-4.4271
X13.2165Y-5.1771
X13.4353Y-2.9334
X13.6228Y-2.1834
X13.6853Y-2.8334
X13.7165Y-1.2459
X13.7165Y-5.2771
X13.8728Y-2.0834
X13.9665Y-1.1459
X13.9665Y-5.1771
T3
X1.4281Y-4.2578
X2.3651Y-4.2578
X4.9339Y-5.8592
X5.8504Y-6.054
X8.0418Y-6.0929
X8.9583Y-5.898
X12.1793Y-2.0078
X12.5543Y-3.5078
X13.1163Y-2.0078
X13.4913Y-3.5078
T4
X1.4281Y-4.8578
X2.3651Y-4.8578
X5.0586Y-5.2723
X5.9751Y-5.4672
X7.917Y-5.506
X8.8335Y-5.3111
X12.1793Y-2.6078
X12.5543Y-4.1078
X13.1163Y-2.6078
X13.4913Y-4.1078
T5
X1.8028Y-1.3459
X1.8028Y-2.2834
X1.8966Y-4.5334
X1.9903Y-3.0334
X1.9903Y-3.7834
X1.9903Y-5.2834
X2.5528Y-2.2834
X2.6466Y-1.3459
X2.9278Y-3.0334
X2.9278Y-5.2834
X3.0216Y-3.7834
X3.1153Y-4.5334
X3.3028Y-2.1896
X3.4415Y-1.3729
X3.7673Y-3.0291
X3.861Y-3.8157
X3.9548Y-4.6024
X3.9822Y-5.375
X4.1292Y-2.3392
X4.2326Y-1.454
X4.5009Y-3.185
X4.5946Y-3.9717
X4.6884Y-4.7584
X4.8628Y-2.4952
X5.0163Y-1.5887
X5.2345Y-3.3409
X5.3282Y-4.1276
X5.422Y-4.9143
X5.4495Y-5.6869
X5.5964Y-2.6511
X5.8432Y-1.7375
X5.9681Y-3.4969
X6.0618Y-4.2835
X6.1556Y-5.0702
X6.33Y-2.807
X6.6217Y-1.8172
X7.0378Y-4.7209
X7.0378Y-5.4709
X7.4539Y-1.8172
X7.7455Y-2.807
X7.92Y-5.0702
X8.0137Y-4.2836
X8.1075Y-3.4969
X8.2324Y-1.7375
X8.4427Y-5.7259
X8.4791Y-2.6511
X8.6536Y-4.9143
X8.7473Y-4.1276
X8.8411Y-3.3409
X9.0593Y-1.5887
X9.2128Y-2.4952
X9.3872Y-4.7584
X9.481Y-3.9717
X9.5747Y-3.185
X9.8429Y-1.454
X9.9464Y-2.3392
X10.0934Y-5.375
X10.1208Y-4.6024
X10.2146Y-3.8157
X10.3083Y-3.0291
X10.6341Y-1.3729
X10.7728Y-2.1896
X10.9603Y-4.5334
X11.054Y-3.7834
X11.1478Y-3.0334
X11.1478Y-5.2834
X11.429Y-1.3459
X11.5228Y-2.2834
X11.804Y-3.7834
X11.8978Y-3.0334
X11.9915Y-4.5334
X12.2728Y-1.3459
X12.3665Y-5.3771
X12.6478Y-2.2834
X12.6478Y-3.0334
X13.0228Y-3.7834
X13.1165Y-1.3459
X13.1165Y-4.6271
X13.1165Y-5.3771
X13.5853Y-3.0334
X13.7728Y-2.2834
X13.8665Y-1.3459
X13.8665Y-5.3771
M30
