M48
; DRILL file {KiCad 7.0.10} date Thu Jan 25 00:58:59 2024
; FORMAT={-:-/ absolute / inch / decimal}
; #@! TF.CreationDate,2024-01-25T00:58:59+01:00
; #@! TF.GenerationSoftware,Kicad,Pcbnew,7.0.10
; #@! TF.FileFunction,Plated,1,2,PTH
FMAT,2
INCH
; #@! TA.AperFunction,Plated,PTH,ViaDrill
T1C0.0118
; #@! TA.AperFunction,Plated,PTH,ComponentDrill
T2C0.0138
; #@! TA.AperFunction,Plated,PTH,ViaDrill
T3C0.0157
; #@! TA.AperFunction,Plated,PTH,ComponentDrill
T4C0.0157
; #@! TA.AperFunction,Plated,PTH,ComponentDrill
T5C0.0236
; #@! TA.AperFunction,Plated,PTH,ComponentDrill
T6C0.0300
; #@! TA.AperFunction,Plated,PTH,ComponentDrill
T7C0.0394
; #@! TA.AperFunction,Plated,PTH,ComponentDrill
T8C0.0551
; #@! TA.AperFunction,Plated,PTH,ComponentDrill
T9C0.0866
%
G90
G05
T1
X1.9772Y-1.572
X1.9772Y-2.5102
X2.0713Y-4.7598
X2.165Y-3.2598
X2.165Y-4.0094
X2.1654Y-5.5091
X2.3154Y-1.9579
X2.3709Y-1.6952
X2.4055Y-1.9579
X2.436Y-5.3801
X2.611Y-4.9591
X2.7Y-4.9591
X2.7276Y-2.5091
X2.7642Y-5.3799
X2.8217Y-1.5724
X2.9276Y-1.9587
X3.063Y-1.9587
X3.1028Y-3.2598
X3.1028Y-5.5094
X3.1481Y-1.7087
X3.1965Y-4.0098
X3.2906Y-4.7598
X3.4508Y-5.3799
X3.4783Y-2.4161
X3.5988Y-1.6098
X3.6489Y-4.974
X3.7741Y-5.0006
X3.8295Y-5.4604
X3.8417Y-1.9444
X3.8909Y-3.2866
X3.9386Y-1.7944
X3.985Y-4.0732
X3.9933Y-1.9783
X4.0787Y-4.8598
X4.1059Y-5.6323
X4.2535Y-2.5961
X4.3732Y-1.702
X4.565Y-5.1659
X4.5835Y-2.1019
X4.6142Y-2.4988
X4.6142Y-2.7039
X4.6244Y-3.4433
X4.7181Y-4.2287
X4.7225Y-1.5228
X4.7225Y-1.7905
X4.7225Y-1.9393
X4.7634Y-2.1393
X4.8118Y-5.0161
X4.852Y-5.1665
X4.9477Y-3.2846
X4.9477Y-3.4929
X4.987Y-2.7528
X5.0071Y-5.7107
X5.0441Y-4.0685
X5.1124Y-5.0445
X5.1223Y-4.9984
X5.1394Y-1.8461
X5.1735Y-4.4499
X5.287Y-5.7702
X5.3579Y-3.5988
X5.3886Y-2.2706
X5.4524Y-4.3843
X5.5457Y-5.172
X5.5461Y-2.1272
X5.5732Y-5.9445
X5.5807Y-2.3115
X5.7205Y-2.9083
X5.8461Y-5.2004
X5.8559Y-5.1543
X5.9882Y-1.9831
X6.0917Y-3.7547
X6.1272Y-2.428
X6.1858Y-4.5409
X6.2523Y-2.4546
X6.2787Y-5.3283
X6.313Y-2.2374
X6.4539Y-3.0642
X6.5295Y-2.9929
X6.5831Y-2.374
X6.6138Y-2.374
X6.6445Y-2.374
X6.6752Y-2.374
X6.6764Y-2.574
X6.6795Y-2.9665
X6.6883Y-5.5979
X6.7016Y-2.9929
X6.7059Y-2.374
X6.7366Y-2.374
X6.7443Y-2.6419
X6.7622Y-4.5499
X6.7673Y-2.374
X6.7694Y-2.569
X6.7764Y-2.0583
X6.7894Y-2.9547
X6.797Y-1.9159
X6.8249Y-2.3778
X6.8315Y-2.8079
X6.8322Y-5.7926
X6.926Y-2.2757
X6.9433Y-2.8752
X6.963Y-2.1531
X6.9658Y-2.2754
X6.972Y-1.7024
X6.9843Y-2.8752
X7.0047Y-2.2754
X7.0094Y-4.3028
X7.1028Y-2.2665
X7.1128Y-2.2003
X7.1146Y-1.8909
X7.1228Y-2.4303
X7.1268Y-2.6295
X7.1537Y-2.2927
X7.1543Y-1.6469
X7.1827Y-2.5535
X7.2035Y-2.2008
X7.2044Y-2.2395
X7.2075Y-5.5764
X7.2126Y-4.9472
X7.2126Y-5.6969
X7.2446Y-2.8214
X7.2843Y-2.411
X7.2949Y-2.5689
X7.3041Y-5.7065
X7.3138Y-2.1917
X7.3375Y-5.6477
X7.361Y-5.5343
X7.3716Y-2.411
X7.3722Y-2.9311
X7.385Y-2.5693
X7.3997Y-2.9303
X7.4264Y-2.422
X7.4273Y-2.9303
X7.4548Y-2.9287
X7.4654Y-2.6878
X7.4732Y-2.437
X7.5039Y-2.437
X7.5068Y-2.3517
X7.5199Y-5.4653
X7.5209Y-2.2469
X7.5346Y-2.437
X7.5654Y-2.2917
X7.5654Y-2.437
X7.5961Y-2.437
X7.6066Y-4.848
X7.6222Y-3.1422
X7.6272Y-2.437
X7.6293Y-4.7165
X7.6339Y-2.6339
X7.648Y-2.0264
X7.6551Y-4.7995
X7.6594Y-2.437
X7.691Y-5.1638
X7.7161Y-4.0252
X7.7178Y-5.5173
X7.7229Y-4.3681
X7.7236Y-1.7331
X7.7406Y-3.2602
X7.7406Y-4.0524
X7.7939Y-3.9849
X7.8169Y-3.5953
X7.9638Y-2.9921
X8.0724Y-2.4066
X8.1386Y-5.2543
X8.1961Y-3.1033
X8.2319Y-4.4681
X8.2913Y-2.3594
X8.326Y-3.6811
X8.3632Y-5.0872
X8.4181Y-4.6334
X8.4331Y-1.9402
X8.4378Y-5.1618
X8.4953Y-3.8744
X8.5433Y-4.6068
X8.661Y-5.9102
X8.6976Y-2.835
X8.7134Y-3.6563
X8.7413Y-5.2584
X8.7685Y-1.9029
X8.7686Y-1.722
X8.8703Y-2.2346
X8.8713Y-5.0996
X8.8772Y-5.6953
X8.9241Y-2.623
X8.965Y-4.3122
X8.9946Y-5.1649
X8.9955Y-2.208
X9.0432Y-4.4987
X9.0591Y-3.5256
X9.1075Y-5.7882
X9.1093Y-2.8029
X9.1312Y-4.8787
X9.1607Y-3.5249
X9.165Y-5.0272
X9.1684Y-4.4721
X9.1906Y-4.0953
X9.1906Y-4.2699
X9.2657Y-3.3008
X9.278Y-1.7732
X9.4315Y-2.6795
X9.5008Y-2.1015
X9.556Y-1.5524
X9.556Y-1.776
X9.6047Y-4.9429
X9.626Y-2.0749
X9.6563Y-2.4655
X9.6984Y-4.1563
X9.7638Y-3.4653
X9.7929Y-3.3697
X9.8447Y-2.6474
X9.9283Y-3.9377
X9.9283Y-4.1123
X10.0472Y-1.6531
X10.0532Y-3.1524
X10.165Y-2.5232
X10.2004Y-4.9693
X10.2607Y-1.6847
X10.2792Y-5.6484
X10.3118Y-5.5594
X10.3386Y-4.787
X10.352Y-1.4598
X10.3697Y-4.9331
X10.3882Y-1.9339
X10.4331Y-4.0
X10.4335Y-1.7157
X10.4894Y-5.5602
X10.4973Y-2.322
X10.4973Y-2.5331
X10.5075Y-1.6917
X10.5256Y-3.2142
X10.5325Y-3.2975
X10.5488Y-2.6953
X10.5953Y-1.8665
X10.678Y-2.6594
X10.7437Y-4.1591
X10.748Y-3.4461
X10.7508Y-1.6752
X10.7784Y-3.8339
X10.7788Y-4.0008
X10.7941Y-2.8299
X10.7941Y-3.174
X10.8138Y-4.1591
X10.8236Y-1.5866
X10.8437Y-3.4461
X10.8721Y-3.0661
X10.9476Y-2.4161
X11.0063Y-1.6209
X11.0954Y-1.645
X11.135Y-4.7598
X11.1536Y-1.4098
X11.1957Y-1.865
X11.2287Y-4.0098
X11.2473Y-2.3303
X11.2473Y-2.4803
X11.2721Y-3.3398
X11.2729Y-5.5865
X11.2945Y-1.865
X11.3224Y-3.2594
X11.3228Y-5.5098
X11.5008Y-5.5527
X11.5284Y-3.8453
X11.5284Y-3.9646
X11.5831Y-3.4067
X11.6035Y-1.572
X11.6222Y-2.7925
X11.6225Y-3.0756
X11.6567Y-2.6323
X11.6571Y-2.5905
X11.6622Y-4.1591
X11.698Y-2.5098
X11.711Y-3.4067
X11.7508Y-4.1591
X11.8016Y-2.735
X11.9319Y-5.5114
X11.9787Y-4.0091
X11.9972Y-1.7114
X11.9973Y-1.4079
X12.0536Y-3.3527
X12.0573Y-5.386
X12.0728Y-3.2598
X12.1665Y-4.7598
X12.2524Y-3.2996
X12.3354Y-1.9587
X12.3722Y-2.2776
X12.3725Y-2.4811
X12.3725Y-3.0949
X12.3725Y-3.2142
X12.4091Y-1.9587
X12.4488Y-1.5724
X12.5413Y-5.6035
X12.6351Y-1.6059
X12.6709Y-5.002
X12.7472Y-3.4084
X12.7472Y-4.0823
X12.7473Y-3.8378
X12.7812Y-2.5905
X12.7992Y-4.2437
X12.8167Y-4.8822
X12.8182Y-4.8531
X12.8228Y-2.5094
X12.8228Y-3.2598
X12.841Y-1.3752
X12.876Y-4.2437
X12.878Y-5.002
X12.9961Y-3.302
X12.9981Y-2.6201
X13.0061Y-2.4758
X13.1475Y-2.8017
X13.1976Y-4.0094
X13.2894Y-3.2075
X13.2913Y-1.572
X13.2913Y-4.8535
X13.2913Y-5.6031
X13.3099Y-3.0953
X13.3174Y-2.3205
X13.3278Y-2.3512
X13.4307Y-5.0917
X13.4666Y-1.6968
X13.5575Y-5.0315
X13.5902Y-1.4063
X13.5913Y-4.8866
X13.6134Y-4.2682
X13.6665Y-3.9602
X13.7602Y-3.2594
X13.9118Y-1.0209
X13.9476Y-2.5098
X14.0413Y-1.5724
X14.0413Y-5.6035
X14.0465Y-1.0209
X14.1071Y-1.572
T2
X7.0373Y-2.4798
X7.0373Y-2.53
X7.0373Y-2.5802
X7.0875Y-2.4798
X7.0875Y-2.53
X7.0875Y-2.5802
X7.1377Y-2.4798
X7.1377Y-2.53
X7.1377Y-2.5802
T3
X1.578Y-1.6343
X2.2772Y-2.3405
X2.2772Y-2.5008
X2.3709Y-1.5988
X2.371Y-1.3425
X2.4815Y-2.7071
X2.5854Y-2.7071
X2.6522Y-3.0185
X2.6524Y-3.2756
X2.7051Y-3.4587
X2.7059Y-1.0213
X2.7457Y-3.9898
X2.746Y-3.7953
X2.7878Y-4.6955
X2.7882Y-3.4587
X2.7898Y-4.2079
X2.8339Y-1.0213
X2.8397Y-4.5335
X2.9752Y-4.2079
X3.0272Y-2.3386
X3.0792Y-2.4476
X3.1432Y-1.361
X3.1481Y-1.5846
X3.411Y-2.665
X3.5098Y-1.0535
X3.5188Y-3.0496
X3.5189Y-3.2839
X3.5699Y-3.4567
X3.5768Y-3.7984
X3.5768Y-4.0323
X3.6074Y-2.6654
X3.6502Y-1.0629
X3.6684Y-4.2116
X3.6725Y-4.5748
X3.6725Y-4.8173
X3.6981Y-3.4567
X3.7936Y-4.2382
X3.8552Y-2.4067
X3.8552Y-2.561
X3.9386Y-1.4268
X3.9386Y-1.661
X4.2051Y-2.7898
X4.2174Y-3.1114
X4.2174Y-3.3504
X4.2945Y-3.5769
X4.304Y-3.9075
X4.304Y-4.1394
X4.3244Y-1.1398
X4.3303Y-2.8165
X4.352Y-4.3556
X4.4091Y-4.7634
X4.4091Y-4.9153
X4.4197Y-3.6035
X4.4638Y-1.1589
X4.4771Y-4.3822
X4.9138Y-2.9395
X5.0264Y-3.7406
X5.039Y-2.9661
X5.1166Y-4.5127
X5.128Y-1.2811
X5.1516Y-3.7672
X5.2417Y-4.5393
X5.2656Y-1.3099
X5.3134Y-2.6539
X5.3134Y-2.8035
X5.5461Y-1.7114
X5.5461Y-1.9524
X5.6134Y-3.0883
X5.6843Y-3.4402
X5.6843Y-3.6504
X5.7555Y-3.8863
X5.7796Y-4.2157
X5.8346Y-3.1353
X5.8429Y-4.6706
X5.8807Y-3.9129
X5.9071Y-4.6079
X5.9286Y-1.422
X5.9681Y-4.6972
X6.0683Y-1.4387
X6.313Y-1.8004
X6.313Y-2.0402
X6.3272Y-1.4693
X6.4673Y-1.4811
X6.5165Y-3.4398
X6.5994Y-3.5227
X6.6063Y-4.687
X6.7623Y-5.1626
X6.7623Y-5.2299
X6.7878Y-1.5142
X6.8662Y-4.9468
X7.0538Y-1.5862
X7.1425Y-1.4161
X7.6125Y-1.4775
X7.7583Y-1.8535
X7.9465Y-1.8358
X7.9465Y-2.0327
X8.1885Y-2.7264
X8.237Y-1.4106
X8.3687Y-2.9518
X8.3766Y-1.393
X8.4359Y-3.0943
X8.4867Y-4.2362
X8.4867Y-4.4374
X8.561Y-3.0677
X9.0366Y-1.2614
X9.1626Y-2.9389
X9.1741Y-1.2317
X9.2878Y-2.9123
X9.3138Y-3.6743
X9.439Y-3.6477
X9.7776Y-4.3436
X9.8449Y-1.1264
X9.8607Y-2.7912
X9.9027Y-4.317
X9.9841Y-1.1064
X9.9858Y-2.7646
X10.0284Y-3.5231
X10.1535Y-3.4965
X10.6575Y-1.0461
X10.7978Y-1.0358
X11.4764Y-1.0205
X11.617Y-1.02
X12.3138Y-1.0205
X12.4606Y-1.0205
T4
X6.9199Y-1.4581
X6.9199Y-1.5112
X6.9534Y-1.4581
X6.9534Y-1.5112
X6.9869Y-1.4581
X6.9869Y-1.5112
X7.0203Y-1.4581
X7.0203Y-1.5112
X7.0538Y-1.4581
X7.0538Y-1.5112
X7.0873Y-1.4581
X7.0873Y-1.5112
X7.1207Y-1.4581
X7.1207Y-1.5112
X7.1542Y-1.4581
X7.1542Y-1.5112
T6
X1.3394Y-5.1153
X1.3394Y-5.2138
X1.3394Y-5.3122
X6.7406Y-6.1827
X6.9374Y-6.1827
X7.1343Y-6.1827
X7.3311Y-6.1827
T7
X13.7297Y-4.2456
X13.7297Y-4.3456
X13.7297Y-4.7542
X13.7297Y-4.8542
X13.7297Y-4.9542
T8
X6.7012Y-6.0843
X6.9768Y-6.0843
X7.0949Y-6.0843
X7.3705Y-6.0843
T9
X2.2252Y-1.8106
X3.4855Y-5.0067
X7.037Y-3.3004
X10.5882Y-5.0055
X11.8481Y-1.8138
X13.9815Y-3.5118
T5
G00X6.8668Y-1.3238
M15
G01X6.8668Y-1.3553
M16
G05
G00X6.8668Y-1.4431
M15
G01X6.8668Y-1.5022
M16
G05
G00X7.2073Y-1.3238
M15
G01X7.2073Y-1.3553
M16
G05
G00X7.2073Y-1.4431
M15
G01X7.2073Y-1.5022
M16
G05
M30
