%TF.GenerationSoftware,KiCad,Pcbnew,7.0.10*%
%TF.CreationDate,2024-01-30T23:25:51+01:00*%
%TF.ProjectId,Wonderland,576f6e64-6572-46c6-916e-642e6b696361,rev?*%
%TF.SameCoordinates,Original*%
%TF.FileFunction,Other,Comment*%
%FSLAX46Y46*%
G04 Gerber Fmt 4.6, Leading zero omitted, Abs format (unit mm)*
G04 Created by KiCad (PCBNEW 7.0.10) date 2024-01-30 23:25:51*
%MOMM*%
%LPD*%
G01*
G04 APERTURE LIST*
%ADD10C,0.200000*%
%ADD11C,0.150000*%
G04 APERTURE END LIST*
D10*
X173288785Y-167232303D02*
X173288785Y-181232303D01*
X359788064Y-142023072D02*
X357839641Y-128159319D01*
X439369751Y-205188553D02*
X458419751Y-205188553D01*
X199626285Y-183757303D02*
X180576285Y-183757303D01*
X185338785Y-202807303D02*
X185338785Y-221857303D01*
X351233486Y-129235999D02*
X354144250Y-142930066D01*
X436988501Y-202807303D02*
X436988501Y-221857303D01*
X427319751Y-205332303D02*
X427319751Y-219332303D01*
X271953485Y-135221987D02*
X270247314Y-149117633D01*
X415413501Y-148182303D02*
X415413501Y-162182303D01*
X171051285Y-140894803D02*
X152001285Y-140894803D01*
X403651001Y-202807303D02*
X436988501Y-202807303D01*
X301494893Y-229144803D02*
X301494893Y-243144803D01*
X311427079Y-135758988D02*
X312647259Y-149705714D01*
X384101001Y-221423242D02*
X365467289Y-225383960D01*
X262369388Y-194689945D02*
X281003100Y-198650662D01*
X250547901Y-153226033D02*
X246587183Y-171859745D01*
X291509433Y-136979169D02*
X290289253Y-150925894D01*
X332638118Y-147411463D02*
X318742472Y-149117633D01*
X281909761Y-176786381D02*
X268215695Y-173875617D01*
X467944751Y-202807303D02*
X425082251Y-202807303D01*
X424938501Y-181232303D02*
X410938501Y-181232303D01*
X436988501Y-221857303D02*
X403651001Y-221857303D01*
X455894751Y-207713553D02*
X455894751Y-221713553D01*
X185338785Y-221857303D02*
X185338785Y-202807303D01*
X386482251Y-201441503D02*
X367848539Y-205402221D01*
X328199866Y-233305395D02*
X309566154Y-237266113D01*
X439369751Y-224238553D02*
X458419751Y-224238553D01*
X284969893Y-207569803D02*
X304019893Y-207569803D01*
X256027420Y-193341918D02*
X237393709Y-189381200D01*
X475088501Y-164707303D02*
X475088501Y-183757303D01*
X149620035Y-183757303D02*
X182957535Y-183757303D01*
X327586316Y-211378811D02*
X313892250Y-214289575D01*
X250547901Y-153226033D02*
X269181613Y-157186751D01*
X338441885Y-153226033D02*
X342402603Y-171859745D01*
X237756300Y-129235999D02*
X251450367Y-132146763D01*
X284969893Y-226619803D02*
X304019893Y-226619803D01*
X148120035Y-202307335D02*
G75*
G03*
X149120035Y-201307303I-35J1000035D01*
G01*
X180576285Y-164707303D02*
X180576285Y-183757303D01*
X391888501Y-181232303D02*
X391888501Y-167232303D01*
X152001285Y-164707303D02*
X180576285Y-164707303D01*
X319808174Y-157186751D02*
X338441885Y-153226033D01*
X458563501Y-162182303D02*
X458563501Y-148182303D01*
X467944751Y-183757303D02*
X467944751Y-202807303D01*
X405888501Y-167232303D02*
X405888501Y-181232303D01*
X429988501Y-162182303D02*
X429988501Y-148182303D01*
X396007251Y-140894803D02*
X377003656Y-142223664D01*
X326620398Y-194689945D02*
X330581116Y-213323657D01*
X279423632Y-237266113D02*
X260789920Y-233305395D01*
X455894751Y-138369803D02*
X441894751Y-138369803D01*
X458419751Y-140894803D02*
X458419751Y-121844803D01*
X357139049Y-144874911D02*
X338505338Y-148835629D01*
X287494893Y-229144803D02*
X301494893Y-229144803D01*
X221754797Y-183475637D02*
X224665560Y-169781570D01*
X192982535Y-140894803D02*
X194311396Y-121891208D01*
X417938501Y-140894803D02*
X417938501Y-121844803D01*
X178195035Y-221857303D02*
X202007535Y-221857303D01*
X425082251Y-183757303D02*
X425082251Y-202807303D01*
X340450183Y-145840829D02*
X337539420Y-132146763D01*
X399032251Y-124369803D02*
X413032251Y-124369803D01*
X391888501Y-167232303D02*
X405888501Y-167232303D01*
X173288785Y-238382303D02*
X159288785Y-238382303D01*
X461769751Y-201722928D02*
X461769751Y-225322928D01*
X371703394Y-126210896D02*
X373651817Y-140074649D01*
X369793385Y-202407421D02*
X366882621Y-188713355D01*
X227046810Y-189763309D02*
X240740877Y-192674073D01*
X248759482Y-233329657D02*
X262453549Y-236240420D01*
X338505338Y-148835629D02*
X334544620Y-130201917D01*
X218759997Y-185420483D02*
X200126285Y-181459765D01*
X170907535Y-219332303D02*
X156907535Y-219332303D01*
X192626285Y-145801053D02*
X206626285Y-145801053D01*
X405888501Y-224382303D02*
X405888501Y-238382303D01*
X316544013Y-151931532D02*
X314222402Y-133023528D01*
X195677519Y-138552089D02*
X196654110Y-124586192D01*
X226517297Y-223439114D02*
X229428060Y-209745048D01*
X396363501Y-159801053D02*
X382363501Y-159801053D01*
X173288785Y-224382303D02*
X173288785Y-238382303D01*
X427463501Y-164707303D02*
X446513501Y-164707303D01*
X171051285Y-121844803D02*
X171051285Y-140894803D01*
X474944751Y-226763553D02*
X474944751Y-240763553D01*
X349214828Y-209362939D02*
X345254110Y-190729227D01*
X256351668Y-147411463D02*
X258057839Y-133515816D01*
X472563501Y-148182303D02*
X472563501Y-162182303D01*
X319808174Y-157186751D02*
X323768891Y-175820463D01*
X329967566Y-191397072D02*
X316273500Y-194307836D01*
X366269072Y-166786771D02*
X384902784Y-162826053D01*
X401126001Y-205332303D02*
X401126001Y-219332303D01*
X345254110Y-190729227D02*
X363887822Y-186768509D01*
X222720715Y-166786771D02*
X241354426Y-170747488D01*
X441894751Y-207713553D02*
X455894751Y-207713553D01*
X149620035Y-202807303D02*
X149620035Y-183757303D01*
X453801001Y-167232303D02*
X467801001Y-167232303D01*
X260789920Y-233305395D02*
X264750638Y-214671683D01*
X183101285Y-167232303D02*
X197101285Y-167232303D01*
X304019893Y-245669803D02*
X284969893Y-245669803D01*
X363887822Y-186768509D02*
X367848539Y-205402221D01*
X221577651Y-222389160D02*
X207883585Y-219478396D01*
X204087003Y-162826053D02*
X222720715Y-166786771D01*
X219725915Y-168731616D02*
X216815151Y-182425683D01*
X149620035Y-183257335D02*
G75*
G03*
X149120035Y-183757303I-35J-499965D01*
G01*
X239774959Y-209362939D02*
X243735676Y-190729227D01*
X446513501Y-183757303D02*
X446513501Y-164707303D01*
X246116926Y-210710966D02*
X242156209Y-229344678D01*
X382363501Y-159801053D02*
X382363501Y-145801053D01*
X367412135Y-222389160D02*
X364501371Y-208695094D01*
X206031848Y-165820853D02*
X219725915Y-168731616D01*
X227953471Y-167899028D02*
X209319760Y-163938310D01*
X417938501Y-145657303D02*
X456038501Y-145657303D01*
X190101285Y-143276053D02*
X209151285Y-143276053D01*
X339407803Y-169914900D02*
X325713737Y-172825663D01*
X243735676Y-190729227D02*
X239774959Y-209362939D01*
X251450367Y-132146763D02*
X248539603Y-145840829D01*
X329001648Y-174708206D02*
X347635360Y-170747488D01*
X469019751Y-216022929D02*
G75*
G03*
X467919755Y-216022929I-549998J0D01*
G01*
X467919755Y-216022929D02*
G75*
G03*
X469019751Y-216022929I549998J0D01*
G01*
X477469751Y-140894803D02*
X458419751Y-140894803D01*
X354144250Y-142930066D02*
X340450183Y-145840829D01*
X471519751Y-213522927D02*
G75*
G03*
X470419749Y-213522927I-550001J0D01*
G01*
X470419749Y-213522927D02*
G75*
G03*
X471519751Y-213522927I550001J0D01*
G01*
X329001648Y-174708206D02*
X332962366Y-193341918D01*
X237393709Y-189381200D02*
X218759997Y-185420483D01*
X209319760Y-163938310D02*
X213280477Y-145304598D01*
X168526285Y-148182303D02*
X168526285Y-162182303D01*
X149120035Y-201307303D02*
X149120035Y-183757303D01*
X403651001Y-221857303D02*
X403651001Y-202807303D01*
X471519751Y-211022928D02*
G75*
G03*
X470419751Y-211022928I-550000J0D01*
G01*
X470419751Y-211022928D02*
G75*
G03*
X471519751Y-211022928I550000J0D01*
G01*
X403651001Y-202807303D02*
X403651001Y-221857303D01*
X197101285Y-238382303D02*
X183101285Y-238382303D01*
X413319751Y-219332303D02*
X413319751Y-205332303D01*
X261403470Y-211378811D02*
X264314234Y-197684744D01*
X314328654Y-197302636D02*
X310367936Y-178668924D01*
X348778423Y-226349878D02*
X345867660Y-212655811D01*
X456038501Y-164707303D02*
X456038501Y-145657303D01*
X175957535Y-124369803D02*
X189957535Y-124369803D01*
X370229789Y-185420483D02*
X366269072Y-166786771D01*
X332525962Y-210328857D02*
X329615198Y-196634790D01*
X460944751Y-124369803D02*
X474944751Y-124369803D01*
X364324226Y-169781570D02*
X367234990Y-183475637D01*
X441894751Y-124369803D02*
X455894751Y-124369803D01*
X380140284Y-202789530D02*
X384101001Y-221423242D01*
X245151008Y-227399832D02*
X248061772Y-213705765D01*
X427463501Y-164707303D02*
X427463501Y-183757303D01*
X292584576Y-153661354D02*
X273607067Y-152001037D01*
X224488415Y-208695094D02*
X221577651Y-222389160D01*
X237393709Y-189381200D02*
X241354426Y-170747488D01*
X403651001Y-221857303D02*
X384601001Y-221857303D01*
X453513501Y-200282303D02*
X439513501Y-200282303D01*
X159288785Y-238382303D02*
X159288785Y-224382303D01*
X336497040Y-156220833D02*
X339407803Y-169914900D01*
X283854607Y-179781181D02*
X265220895Y-175820463D01*
X422844751Y-240763553D02*
X422844751Y-226763553D01*
X231914189Y-149265316D02*
X227953471Y-167899028D01*
X258408670Y-213323657D02*
X239774959Y-209362939D01*
X455894751Y-226763553D02*
X455894751Y-240763553D01*
X446513501Y-164707303D02*
X475088501Y-164707303D01*
X377003656Y-142223664D02*
X375674795Y-123220069D01*
X396507251Y-140894803D02*
X396507251Y-121844803D01*
X199482535Y-200282303D02*
X185482535Y-200282303D01*
X388863501Y-181459765D02*
X370229789Y-185420483D01*
X321877810Y-237230600D02*
X324788574Y-250924666D01*
X231150145Y-128159319D02*
X229201722Y-142023072D01*
X406032251Y-202807303D02*
X406032251Y-183757303D01*
X355130752Y-152260115D02*
X358041515Y-165954182D01*
X453801001Y-181232303D02*
X453801001Y-167232303D01*
X373651817Y-140074649D02*
X359788064Y-142023072D01*
X386982251Y-183757303D02*
X406032251Y-183757303D01*
X183101285Y-181232303D02*
X183101285Y-167232303D01*
X159288785Y-167232303D02*
X173288785Y-167232303D01*
X239774959Y-209362939D02*
X221141247Y-205402221D01*
X287494893Y-243144803D02*
X287494893Y-229144803D01*
X187576285Y-148182303D02*
X187576285Y-162182303D01*
X182957535Y-202807303D02*
X149620035Y-202807303D01*
X330931947Y-133515816D02*
X332638118Y-147411463D01*
X364501371Y-208695094D02*
X378195438Y-205784330D01*
X210620007Y-125562783D02*
X209643416Y-139528680D01*
X327233948Y-216616529D02*
X340928014Y-213705765D01*
X362472490Y-223439114D02*
X348778423Y-226349878D01*
X304019893Y-226619803D02*
X304019893Y-245669803D01*
X200126285Y-181459765D02*
X204087003Y-162826053D01*
X436844751Y-226763553D02*
X436844751Y-240763553D01*
X273607067Y-152001037D02*
X275267384Y-133023528D01*
X211492059Y-225408221D02*
X225186125Y-228318985D01*
X401126001Y-219332303D02*
X387126001Y-219332303D01*
X192482535Y-121844803D02*
X192482535Y-140894803D01*
X205502335Y-199496658D02*
X208413098Y-185802591D01*
X238359627Y-172692334D02*
X235448863Y-186386401D01*
X237830113Y-206368139D02*
X224136047Y-203457375D01*
X441894751Y-138369803D02*
X441894751Y-124369803D01*
X422557251Y-200282303D02*
X408557251Y-200282303D01*
X446513501Y-164707303D02*
X446513501Y-183757303D01*
X277042382Y-217284374D02*
X258408670Y-213323657D01*
X460944751Y-240763553D02*
X460944751Y-226763553D01*
X225101965Y-186768509D02*
X221141247Y-205402221D01*
X366882621Y-188713355D02*
X380576688Y-185802591D01*
X378195438Y-205784330D02*
X381106202Y-219478396D01*
X213314991Y-123220069D02*
X211986130Y-142223664D01*
X357075597Y-149265316D02*
X361036315Y-167899028D01*
X384601001Y-202807303D02*
X403651001Y-202807303D01*
X216815151Y-182425683D02*
X203121085Y-179514919D01*
X366269072Y-166786771D02*
X370229789Y-185420483D01*
X389363501Y-183757303D02*
X389363501Y-164707303D01*
X332962366Y-193341918D02*
X314328654Y-197302636D01*
X173432535Y-140894803D02*
X173432535Y-121844803D01*
X274767384Y-133023528D02*
X272445773Y-151931532D01*
X229428060Y-209745048D02*
X243122127Y-212655811D01*
X262453549Y-236240420D02*
X259542785Y-249934487D01*
X263276049Y-172825663D02*
X249581983Y-169914900D01*
X180576285Y-164707303D02*
X199626285Y-164707303D01*
X183101285Y-224382303D02*
X197101285Y-224382303D01*
X386982251Y-221857303D02*
X410794751Y-221857303D01*
X425082251Y-183757303D02*
X467944751Y-183757303D01*
X471519751Y-216022927D02*
G75*
G03*
X470419753Y-216022927I-549999J0D01*
G01*
X470419753Y-216022927D02*
G75*
G03*
X471519751Y-216022927I549999J0D01*
G01*
X209151285Y-162326053D02*
X190101285Y-162326053D01*
X458419751Y-121844803D02*
X458419751Y-140894803D01*
X474319751Y-225322928D02*
X474319751Y-201722928D01*
X262369388Y-194689945D02*
X258408670Y-213323657D01*
X283384350Y-218632401D02*
X279423632Y-237266113D01*
X154526285Y-124369803D02*
X168526285Y-124369803D01*
X224665560Y-169781570D02*
X238359627Y-172692334D01*
X246116926Y-210710966D02*
X264750638Y-214671683D01*
X242156209Y-229344678D02*
X246116926Y-210710966D01*
X171051285Y-164707303D02*
X152001285Y-164707303D01*
X173288785Y-181232303D02*
X159288785Y-181232303D01*
X408413501Y-183757303D02*
X389363501Y-183757303D01*
X277562707Y-135758988D02*
X291509433Y-136979169D01*
X256993338Y-176653052D02*
X254082575Y-190347118D01*
X410794751Y-221857303D02*
X410794751Y-240907303D01*
X301174462Y-161147469D02*
X319808174Y-157186751D01*
X321877810Y-237230600D02*
X335571876Y-234319836D01*
X439369751Y-140894803D02*
X439369751Y-121844803D01*
X391888501Y-238382303D02*
X391888501Y-224382303D01*
X281003100Y-198650662D02*
X277042382Y-217284374D01*
X213280477Y-145304598D02*
X231914189Y-149265316D01*
X335571876Y-234319836D02*
X338482640Y-248013902D01*
X256463825Y-210328857D02*
X242769758Y-207418093D01*
X406032251Y-183757303D02*
X425082251Y-183757303D01*
X316273500Y-194307836D02*
X313362736Y-180613770D01*
X347635360Y-170747488D02*
X351596078Y-189381200D01*
X246587183Y-171859745D02*
X250547901Y-153226033D01*
X406032251Y-202807303D02*
X386982251Y-202807303D01*
X296405210Y-153661354D02*
X294744893Y-134683845D01*
X266186813Y-159131597D02*
X263276049Y-172825663D01*
X287494893Y-210094803D02*
X301494893Y-210094803D01*
X353178332Y-126241200D02*
X357139049Y-144874911D01*
X471519751Y-216022928D02*
G75*
G03*
X470419751Y-216022928I-550000J0D01*
G01*
X470419751Y-216022928D02*
G75*
G03*
X471519751Y-216022928I550000J0D01*
G01*
X244642337Y-168864946D02*
X230948271Y-165954182D01*
X242769758Y-207418093D02*
X245680522Y-193724027D01*
X349162792Y-228849588D02*
X353123509Y-247483300D01*
X358479648Y-226869229D02*
X381771787Y-221918332D01*
X410938501Y-167232303D02*
X424938501Y-167232303D01*
X241354426Y-170747488D02*
X259988138Y-174708206D01*
X197101285Y-181232303D02*
X183101285Y-181232303D01*
X253537769Y-149609922D02*
X255859380Y-130701917D01*
X284969893Y-245669803D02*
X284969893Y-226619803D01*
X385868702Y-179514919D02*
X372174635Y-182425683D01*
X382363501Y-145801053D02*
X396363501Y-145801053D01*
X261932984Y-177703006D02*
X275627050Y-180613770D01*
X350630160Y-172692334D02*
X364324226Y-169781570D01*
X189957535Y-138369803D02*
X175957535Y-138369803D01*
X275627050Y-180613770D02*
X272716287Y-194307836D01*
X348601278Y-187436355D02*
X334907212Y-190347118D01*
X391888501Y-224382303D02*
X405888501Y-224382303D01*
X287494893Y-224094803D02*
X287494893Y-210094803D01*
X381106202Y-219478396D02*
X367412135Y-222389160D01*
X376675227Y-161993464D02*
X362981161Y-164904228D01*
X398888501Y-164707303D02*
X398888501Y-145657303D01*
X151501285Y-182257303D02*
X151501285Y-121944803D01*
X241354426Y-170747488D02*
X237393709Y-189381200D01*
X467801001Y-181232303D02*
X453801001Y-181232303D01*
X469019751Y-216022928D02*
G75*
G03*
X467919751Y-216022928I-550000J0D01*
G01*
X467919751Y-216022928D02*
G75*
G03*
X469019751Y-216022928I550000J0D01*
G01*
X323768891Y-175820463D02*
X319808174Y-157186751D01*
X345690514Y-173742288D02*
X348601278Y-187436355D01*
X413319751Y-205332303D02*
X427319751Y-205332303D01*
X206626285Y-145801053D02*
X206626285Y-159801053D01*
X260789920Y-233305395D02*
X242156209Y-229344678D01*
X434463501Y-124369803D02*
X434463501Y-138369803D01*
X187863785Y-205332303D02*
X201863785Y-205332303D01*
X245680522Y-193724027D02*
X259374588Y-196634790D01*
X325205066Y-231360550D02*
X311511000Y-234271313D01*
X342872860Y-210710966D02*
X361506572Y-206750248D01*
X427463501Y-183757303D02*
X408413501Y-183757303D01*
X370229789Y-185420483D02*
X351596078Y-189381200D01*
X159288785Y-181232303D02*
X159288785Y-167232303D01*
X413032251Y-124369803D02*
X413032251Y-138369803D01*
X152001285Y-140894803D02*
X152001285Y-121844803D01*
X420463501Y-138369803D02*
X420463501Y-124369803D01*
X173576285Y-148182303D02*
X187576285Y-148182303D01*
X171051285Y-164707303D02*
X171051285Y-145657303D01*
X420319751Y-243288553D02*
X420319751Y-224238553D01*
X427319751Y-219332303D02*
X413319751Y-219332303D01*
X351596078Y-189381200D02*
X332962366Y-193341918D01*
X217286393Y-126210896D02*
X231150145Y-128159319D01*
X171051285Y-145657303D02*
X171051285Y-164707303D01*
X183101285Y-238382303D02*
X183101285Y-224382303D01*
X207883585Y-219478396D02*
X210794348Y-205784330D01*
X349214828Y-209362939D02*
X330581116Y-213323657D01*
X249581983Y-169914900D02*
X252492747Y-156220833D01*
X382957938Y-165820853D02*
X385868702Y-179514919D01*
X443988501Y-148182303D02*
X443988501Y-162182303D01*
X247553101Y-155170879D02*
X244642337Y-168864946D01*
X434463501Y-138369803D02*
X420463501Y-138369803D01*
X298700533Y-150925894D02*
X297480353Y-136979169D01*
X456038501Y-145657303D02*
X456038501Y-164707303D01*
X342402603Y-171859745D02*
X338441885Y-153226033D01*
X270247314Y-149117633D02*
X256351668Y-147411463D01*
X243122127Y-212655811D02*
X240211363Y-226349878D01*
X276342527Y-149705714D02*
X277562707Y-135758988D01*
X331996448Y-176653052D02*
X345690514Y-173742288D01*
X230510139Y-226869229D02*
X281752846Y-237761203D01*
X324239148Y-214671683D02*
X328199866Y-233305395D01*
X159288785Y-200282303D02*
X159288785Y-186282303D01*
X305135180Y-179781181D02*
X301174462Y-161147469D01*
X202507535Y-201441503D02*
X206468253Y-182807792D01*
X234845537Y-142930066D02*
X237756300Y-129235999D01*
X202007535Y-202807303D02*
X182957535Y-202807303D01*
X379670027Y-163938310D02*
X361036315Y-167899028D01*
X357075597Y-149265316D02*
X375709309Y-145304598D01*
X215225323Y-148299398D02*
X228919389Y-151210161D01*
X408413501Y-164707303D02*
X427463501Y-164707303D01*
X324675552Y-197684744D02*
X327586316Y-211378811D01*
X287815324Y-161147469D02*
X283854607Y-179781181D01*
X152001285Y-183757303D02*
X152001285Y-164707303D01*
X467801001Y-167232303D02*
X467801001Y-181232303D01*
X192626285Y-159801053D02*
X192626285Y-145801053D01*
X446513501Y-183757303D02*
X427463501Y-183757303D01*
X408413501Y-183757303D02*
X408413501Y-164707303D01*
X379838501Y-143276053D02*
X398888501Y-143276053D01*
X284820525Y-163092315D02*
X281909761Y-176786381D01*
X398888501Y-143276053D02*
X398888501Y-162326053D01*
X341436685Y-155170879D02*
X355130752Y-152260115D01*
X272716287Y-194307836D02*
X259022220Y-191397072D01*
X235448863Y-186386401D02*
X221754797Y-183475637D01*
X474944751Y-138369803D02*
X460944751Y-138369803D01*
X182957535Y-183757303D02*
X202007535Y-183757303D01*
X403507251Y-186282303D02*
X403507251Y-200282303D01*
X203257281Y-240552044D02*
X207217999Y-221918332D01*
X226008626Y-164904228D02*
X212314559Y-161993464D01*
X441894751Y-221713553D02*
X441894751Y-207713553D01*
X208581295Y-239102288D02*
X211492059Y-225408221D01*
X182957535Y-202807303D02*
X182957535Y-183757303D01*
X185338785Y-202807303D02*
X204388785Y-202807303D01*
X381771787Y-221918332D02*
X385732505Y-240552044D01*
X322802973Y-159131597D02*
X336497040Y-156220833D01*
X475088501Y-164707303D02*
X456038501Y-164707303D01*
X312647259Y-149705714D02*
X298700533Y-150925894D01*
X209643416Y-139528680D02*
X195677519Y-138552089D01*
X307986686Y-198650662D02*
X326620398Y-194689945D01*
X471519749Y-211022929D02*
G75*
G03*
X470419755Y-211022929I-549997J0D01*
G01*
X470419755Y-211022929D02*
G75*
G03*
X471519749Y-211022929I549997J0D01*
G01*
X367234990Y-183475637D02*
X353540923Y-186386401D01*
X338482640Y-248013902D02*
X324788573Y-250924666D01*
X393312267Y-138552089D02*
X379346370Y-139528680D01*
X207217999Y-221918332D02*
X230510139Y-226869229D01*
X243299272Y-173742288D02*
X256993338Y-176653052D01*
X344347449Y-168864946D02*
X341436685Y-155170879D01*
X361506572Y-206750248D02*
X365467289Y-225383960D01*
X230948271Y-165954182D02*
X233859035Y-152260115D01*
X301494893Y-243144803D02*
X287494893Y-243144803D01*
X439369751Y-224238553D02*
X439369751Y-205188553D01*
X275097537Y-214289575D02*
X261403470Y-211378811D01*
X351159673Y-206368139D02*
X348248910Y-192674073D01*
X171051285Y-145657303D02*
X190101285Y-145657303D01*
X460944751Y-138369803D02*
X460944751Y-124369803D01*
X455894751Y-240763553D02*
X441894751Y-240763553D01*
X337539420Y-132146763D02*
X351233486Y-129235999D01*
X375709309Y-145304598D02*
X379670027Y-163938310D01*
X223522497Y-225383960D02*
X227483215Y-206750248D01*
X469019751Y-211022928D02*
G75*
G03*
X467919751Y-211022928I-550000J0D01*
G01*
X467919751Y-211022928D02*
G75*
G03*
X469019751Y-211022928I550000J0D01*
G01*
X422844751Y-226763553D02*
X436844751Y-226763553D01*
X175957535Y-138369803D02*
X175957535Y-124369803D01*
X417938501Y-145657303D02*
X417938501Y-164707303D01*
X408557251Y-186282303D02*
X422557251Y-186282303D01*
X269181613Y-157186751D02*
X287815324Y-161147469D01*
X326620398Y-194689945D02*
X345254110Y-190729227D01*
X366714425Y-242013051D02*
X363803661Y-228318985D01*
X334907212Y-190347118D02*
X331996448Y-176653052D01*
X277478787Y-234271313D02*
X263784720Y-231360550D01*
X271126458Y-160181551D02*
X284820525Y-163092315D01*
X408413501Y-164707303D02*
X408413501Y-183757303D01*
X394678390Y-121891208D02*
X396007251Y-140894803D01*
X221141247Y-205402221D02*
X225101965Y-186768509D01*
X231914189Y-149265316D02*
X250547901Y-153226033D01*
X361036315Y-167899028D02*
X357075597Y-149265316D01*
X173576285Y-162182303D02*
X173576285Y-148182303D01*
X420319751Y-224238553D02*
X439369751Y-224238553D01*
X311947404Y-217284374D02*
X307986686Y-198650662D01*
X185338785Y-221857303D02*
X142476285Y-221857303D01*
X387126001Y-205332303D02*
X401126001Y-205332303D01*
X379838501Y-162326053D02*
X379838501Y-143276053D01*
X243735676Y-190729227D02*
X262369388Y-194689945D01*
X475088501Y-145657303D02*
X475088501Y-164707303D01*
X378369780Y-125562783D02*
X392335676Y-124586192D01*
X399032251Y-138369803D02*
X399032251Y-124369803D01*
X351596078Y-189381200D02*
X347635360Y-170747488D01*
X258845075Y-230310596D02*
X245151008Y-227399832D01*
X405888501Y-181232303D02*
X391888501Y-181232303D01*
X197101285Y-167232303D02*
X197101285Y-181232303D01*
X152882535Y-222357303D02*
X142576285Y-222357303D01*
X357839641Y-128159319D02*
X371703394Y-126210896D01*
X259988138Y-174708206D02*
X278621850Y-178668924D01*
X359561726Y-209745048D02*
X362472490Y-223439114D01*
X227953471Y-167899028D02*
X231914189Y-149265316D01*
X202007535Y-221857303D02*
X202007535Y-240907303D01*
X415557251Y-140894803D02*
X396507251Y-140894803D01*
X152001285Y-164707303D02*
X152001285Y-145657303D01*
X458419751Y-224238553D02*
X477469751Y-224238553D01*
X361506572Y-206750248D02*
X380140284Y-202789530D01*
X367848539Y-205402221D02*
X349214828Y-209362939D01*
X313362736Y-180613770D02*
X327056802Y-177703006D01*
X159288785Y-224382303D02*
X173288785Y-224382303D01*
X173288785Y-186282303D02*
X173288785Y-200282303D01*
X439513501Y-186282303D02*
X453513501Y-186282303D01*
X265220895Y-175820463D02*
X246587183Y-171859745D01*
X208413098Y-185802591D02*
X222107165Y-188713355D01*
X460944751Y-226763553D02*
X474944751Y-226763553D01*
X346220028Y-207418093D02*
X332525962Y-210328857D01*
X343838778Y-227399832D02*
X330144712Y-230310596D01*
X333130406Y-130701917D02*
X335452017Y-149609922D01*
X221141247Y-205402221D02*
X202507535Y-201441503D01*
X307236940Y-237761203D02*
X349162792Y-228849588D01*
X373852409Y-123359057D02*
X376503656Y-142223664D01*
X234001984Y-126010305D02*
X231350737Y-144874911D01*
X187863785Y-219332303D02*
X187863785Y-205332303D01*
X154382535Y-240907303D02*
X154382535Y-221857303D01*
X453513501Y-186282303D02*
X453513501Y-200282303D01*
X301494893Y-224094803D02*
X287494893Y-224094803D01*
X199482535Y-186282303D02*
X199482535Y-200282303D01*
X330144712Y-230310596D02*
X327233948Y-216616529D01*
X240740877Y-192674073D02*
X237830113Y-206368139D01*
X304019893Y-226619803D02*
X284969893Y-226619803D01*
X305605436Y-218632401D02*
X324239148Y-214671683D01*
X173288785Y-200282303D02*
X159288785Y-200282303D01*
X380408491Y-239102288D02*
X366714425Y-242013051D01*
X474944751Y-240763553D02*
X460944751Y-240763553D01*
X343309264Y-193724027D02*
X346220028Y-207418093D01*
X180576285Y-183757303D02*
X180576285Y-164707303D01*
X330581116Y-213323657D02*
X311947404Y-217284374D01*
X405888501Y-238382303D02*
X391888501Y-238382303D01*
X274661132Y-197302636D02*
X256027420Y-193341918D01*
X153882597Y-223357303D02*
G75*
G03*
X152882535Y-222357303I-1000097J-97D01*
G01*
X332962366Y-193341918D02*
X329001648Y-174708206D01*
X443988501Y-181232303D02*
X429988501Y-181232303D01*
X226549421Y-245502941D02*
X230510139Y-226869229D01*
X401413501Y-162182303D02*
X401413501Y-148182303D01*
X272445773Y-151931532D02*
X253537769Y-149609922D01*
X187576285Y-162182303D02*
X173576285Y-162182303D01*
X458419751Y-205188553D02*
X458419751Y-224238553D01*
X439369751Y-243288553D02*
X439369751Y-224238553D01*
X196654110Y-124586192D02*
X210620007Y-125562783D01*
X385732505Y-240552044D02*
X362440365Y-245502941D01*
X455894751Y-221713553D02*
X441894751Y-221713553D01*
X313892250Y-214289575D02*
X310981486Y-200595508D01*
X256027420Y-193341918D02*
X259988138Y-174708206D01*
X230510139Y-226869229D02*
X226549421Y-245502941D01*
X265220895Y-175820463D02*
X269181613Y-157186751D01*
X301494893Y-210094803D02*
X301494893Y-224094803D01*
X325713737Y-172825663D02*
X322802973Y-159131597D01*
X342402603Y-171859745D02*
X323768891Y-175820463D01*
X338441885Y-153226033D02*
X357075597Y-149265316D01*
X362440365Y-245502941D02*
X358479648Y-226869229D01*
X347635360Y-170747488D02*
X366269072Y-166786771D01*
X201863785Y-219332303D02*
X187863785Y-219332303D01*
X413032251Y-138369803D02*
X399032251Y-138369803D01*
X250484449Y-148835629D02*
X231850737Y-144874911D01*
X372174635Y-182425683D02*
X369263871Y-168731616D01*
X212486130Y-142223664D02*
X215137378Y-123359057D01*
X340928014Y-213705765D02*
X343838778Y-227399832D01*
X425082251Y-202807303D02*
X406032251Y-202807303D01*
X322294302Y-217666483D02*
X325205066Y-231360550D01*
X461769751Y-225322928D02*
X474319751Y-225322928D01*
X168526285Y-124369803D02*
X168526285Y-138369803D01*
X204388785Y-221857303D02*
X185338785Y-221857303D01*
X210794348Y-205784330D02*
X224488415Y-208695094D01*
X386982251Y-202807303D02*
X386982251Y-183757303D01*
X211986130Y-142223664D02*
X192982535Y-140894803D01*
X367848539Y-205402221D02*
X363887822Y-186768509D01*
X369263871Y-168731616D02*
X382957938Y-165820853D01*
X264314234Y-197684744D02*
X278008300Y-200595508D01*
X346833578Y-229344678D02*
X342872860Y-210710966D01*
X441894751Y-240763553D02*
X441894751Y-226763553D01*
X315382719Y-152001037D02*
X296405210Y-153661354D01*
X436988501Y-140894803D02*
X417938501Y-140894803D01*
X246587183Y-171859745D02*
X227953471Y-167899028D01*
X357639049Y-144874911D02*
X354987802Y-126010305D01*
X396363501Y-145801053D02*
X396363501Y-159801053D01*
X268215695Y-173875617D02*
X271126458Y-160181551D01*
X240388508Y-187436355D02*
X243299272Y-173742288D01*
X429988501Y-148182303D02*
X443988501Y-148182303D01*
X258408670Y-213323657D02*
X262369388Y-194689945D01*
X156907535Y-219332303D02*
X156907535Y-205332303D01*
X222275361Y-242013051D02*
X208581295Y-239102288D01*
X311511000Y-234271313D02*
X308600236Y-220577247D01*
X439513501Y-200282303D02*
X439513501Y-186282303D01*
X178195035Y-221857303D02*
X178195035Y-240907303D01*
X208849503Y-202789530D02*
X227483215Y-206750248D01*
X259374588Y-196634790D02*
X256463825Y-210328857D01*
X212314559Y-161993464D02*
X215225323Y-148299398D01*
X313722402Y-133023528D02*
X315382719Y-152001037D01*
X224136047Y-203457375D02*
X227046810Y-189763309D01*
X297480353Y-136979169D02*
X311427079Y-135758988D01*
X223522497Y-225383960D02*
X204888785Y-221423242D01*
X379346370Y-139528680D02*
X378369780Y-125562783D01*
X201863785Y-205332303D02*
X201863785Y-219332303D01*
X197101285Y-224382303D02*
X197101285Y-238382303D01*
X363887822Y-186768509D02*
X382521534Y-182807792D01*
X380576688Y-185802591D02*
X383487452Y-199496658D01*
X427463501Y-183757303D02*
X427463501Y-164707303D01*
X360070397Y-151210161D02*
X373764463Y-148299398D01*
X225186125Y-228318985D02*
X222275361Y-242013051D01*
X248539603Y-145840829D02*
X234845537Y-142930066D01*
X206626285Y-159801053D02*
X192626285Y-159801053D01*
X259542785Y-249934487D02*
X245848719Y-247023723D01*
X240211363Y-226349878D02*
X226517297Y-223439114D01*
X363803661Y-228318985D02*
X377497728Y-225408221D01*
X408557251Y-200282303D02*
X408557251Y-186282303D01*
X190101285Y-162326053D02*
X190101285Y-143276053D01*
X182957535Y-183757303D02*
X182957535Y-202807303D01*
X159288785Y-186282303D02*
X173288785Y-186282303D01*
X281752846Y-237761203D02*
X277792128Y-256394914D01*
X222107165Y-188713355D02*
X219196401Y-202407421D01*
X403507251Y-200282303D02*
X389507251Y-200282303D01*
X429988501Y-181232303D02*
X429988501Y-167232303D01*
X320774092Y-173875617D02*
X307080025Y-176786381D01*
X361942976Y-189763309D02*
X364853740Y-203457375D01*
X154526285Y-138369803D02*
X154526285Y-124369803D01*
X254445166Y-130201917D02*
X250484449Y-148835629D01*
X304169262Y-163092315D02*
X317863328Y-160181551D01*
X376503656Y-142223664D02*
X357639049Y-144874911D01*
X264750638Y-214671683D02*
X283384350Y-218632401D01*
X475088501Y-183757303D02*
X446513501Y-183757303D01*
X153882535Y-240807303D02*
X153882535Y-223357303D01*
X424938501Y-167232303D02*
X424938501Y-181232303D01*
X439369751Y-224238553D02*
X439369751Y-243288553D01*
X294244893Y-134683845D02*
X292584576Y-153661354D01*
X389363501Y-164707303D02*
X408413501Y-164707303D01*
X323768891Y-175820463D02*
X305135180Y-179781181D01*
X231850737Y-144874911D02*
X235811455Y-126241200D01*
X387126001Y-219332303D02*
X387126001Y-205332303D01*
X377497728Y-225408221D02*
X380408491Y-239102288D01*
X189957535Y-124369803D02*
X189957535Y-138369803D01*
X185482535Y-186282303D02*
X199482535Y-186282303D01*
X392335676Y-124586192D02*
X393312267Y-138552089D01*
X348248910Y-192674073D02*
X361942976Y-189763309D01*
X252492747Y-156220833D02*
X266186813Y-159131597D01*
X373764463Y-148299398D02*
X376675227Y-161993464D01*
X233859035Y-152260115D02*
X247553101Y-155170879D01*
X190101285Y-145657303D02*
X190101285Y-164707303D01*
X154382535Y-221857303D02*
X178195035Y-221857303D01*
X429988501Y-167232303D02*
X443988501Y-167232303D01*
X443988501Y-162182303D02*
X429988501Y-162182303D01*
X264750638Y-214671683D02*
X260789920Y-233305395D01*
X422557251Y-186282303D02*
X422557251Y-200282303D01*
X149620035Y-183257303D02*
X150501285Y-183257303D01*
X406032251Y-183757303D02*
X406032251Y-202807303D01*
X227483215Y-206750248D02*
X246116926Y-210710966D01*
X154526285Y-148182303D02*
X168526285Y-148182303D01*
X199626285Y-164707303D02*
X199626285Y-183757303D01*
X317036301Y-135221987D02*
X330931947Y-133515816D01*
X318742472Y-149117633D02*
X317036301Y-135221987D01*
X278008300Y-200595508D02*
X275097537Y-214289575D01*
X436844751Y-240763553D02*
X422844751Y-240763553D01*
X290289253Y-150925894D02*
X276342527Y-149705714D01*
X204388785Y-202807303D02*
X204388785Y-221857303D01*
X202007535Y-183757303D02*
X202007535Y-202807303D01*
X219196401Y-202407421D02*
X205502335Y-199496658D01*
X215337969Y-140074649D02*
X217286393Y-126210896D01*
X410938501Y-181232303D02*
X410938501Y-167232303D01*
X345254110Y-190729227D02*
X349214828Y-209362939D01*
X398888501Y-145657303D02*
X417938501Y-145657303D01*
X168526285Y-138369803D02*
X154526285Y-138369803D01*
X309566154Y-237266113D02*
X305605436Y-218632401D01*
X417938501Y-164707303D02*
X398888501Y-164707303D01*
X361036315Y-167899028D02*
X342402603Y-171859745D01*
X327056802Y-177703006D02*
X329967566Y-191397072D01*
X386982251Y-240907303D02*
X386982251Y-221857303D01*
X254082575Y-190347118D02*
X240388508Y-187436355D01*
X365467289Y-225383960D02*
X346833578Y-229344678D01*
X458419751Y-140894803D02*
X439369751Y-140894803D01*
X458563501Y-148182303D02*
X472563501Y-148182303D01*
X280389550Y-220577247D02*
X277478787Y-234271313D01*
X311197658Y-256394914D02*
X307236940Y-237761203D01*
X455894751Y-124369803D02*
X455894751Y-138369803D01*
X209151285Y-143276053D02*
X209151285Y-162326053D01*
X228919389Y-151210161D02*
X226008626Y-164904228D01*
X335452017Y-149609922D02*
X316544013Y-151931532D01*
X353540923Y-186386401D02*
X350630160Y-172692334D01*
X417938501Y-164707303D02*
X417938501Y-145657303D01*
X365467289Y-225383960D02*
X361506572Y-206750248D01*
X329615198Y-196634790D02*
X343309264Y-193724027D01*
X401413501Y-148182303D02*
X415413501Y-148182303D01*
X384601001Y-221857303D02*
X384601001Y-202807303D01*
X142576285Y-202307303D02*
X148120035Y-202307303D01*
X472563501Y-162182303D02*
X458563501Y-162182303D01*
X345867660Y-212655811D02*
X359561726Y-209745048D01*
X190101285Y-164707303D02*
X171051285Y-164707303D01*
X308600236Y-220577247D02*
X322294302Y-217666483D01*
X258057839Y-133515816D02*
X271953485Y-135221987D01*
X269181613Y-157186751D02*
X265220895Y-175820463D01*
X458419751Y-243288553D02*
X458419751Y-224238553D01*
X425082251Y-202807303D02*
X425082251Y-183757303D01*
X192482535Y-140894803D02*
X173432535Y-140894803D01*
X204888785Y-221423242D02*
X208849503Y-202789530D01*
X474944751Y-124369803D02*
X474944751Y-138369803D01*
X259988138Y-174708206D02*
X256027420Y-193341918D01*
X226549421Y-245502941D02*
X203257281Y-240552044D01*
X384902784Y-162826053D02*
X388863501Y-181459765D01*
X263784720Y-231360550D02*
X266695484Y-217666483D01*
X458419751Y-224238553D02*
X458419751Y-243288553D01*
X222720715Y-166786771D02*
X218759997Y-185420483D01*
X229201722Y-142023072D02*
X215337969Y-140074649D01*
X389507251Y-200282303D02*
X389507251Y-186282303D01*
X304019893Y-207569803D02*
X304019893Y-226619803D01*
X398888501Y-162326053D02*
X379838501Y-162326053D01*
X153882597Y-240807303D02*
G75*
G03*
X154382535Y-241307303I499903J-97D01*
G01*
X150501285Y-183257285D02*
G75*
G03*
X151501285Y-182257303I15J999985D01*
G01*
X245848719Y-247023723D02*
X248759482Y-233329657D01*
X441894751Y-226763553D02*
X455894751Y-226763553D01*
X218759997Y-185420483D02*
X222720715Y-166786771D01*
X415557251Y-121844803D02*
X415557251Y-140894803D01*
X469019752Y-211022928D02*
G75*
G03*
X467919748Y-211022928I-550002J0D01*
G01*
X467919748Y-211022928D02*
G75*
G03*
X469019752Y-211022928I550002J0D01*
G01*
X383487452Y-199496658D02*
X369793385Y-202407421D01*
X206468253Y-182807792D02*
X225101965Y-186768509D01*
X156907535Y-205332303D02*
X170907535Y-205332303D01*
X458419751Y-224238553D02*
X439369751Y-224238553D01*
X152001285Y-145657303D02*
X171051285Y-145657303D01*
X170907535Y-205332303D02*
X170907535Y-219332303D01*
X142476285Y-202807303D02*
X185338785Y-202807303D01*
X474319751Y-201722928D02*
X461769751Y-201722928D01*
X389507251Y-186282303D02*
X403507251Y-186282303D01*
X259022220Y-191397072D02*
X261932984Y-177703006D01*
X203121085Y-179514919D02*
X206031848Y-165820853D01*
X471519751Y-213522928D02*
G75*
G03*
X470419751Y-213522928I-550000J0D01*
G01*
X470419751Y-213522928D02*
G75*
G03*
X471519751Y-213522928I550000J0D01*
G01*
X310981486Y-200595508D02*
X324675552Y-197684744D01*
X180576285Y-183757303D02*
X152001285Y-183757303D01*
X266695484Y-217666483D02*
X280389550Y-220577247D01*
X415413501Y-162182303D02*
X401413501Y-162182303D01*
X317863328Y-160181551D02*
X320774092Y-173875617D01*
X310367936Y-178668924D02*
X329001648Y-174708206D01*
X436988501Y-121844803D02*
X436988501Y-140894803D01*
X185482535Y-200282303D02*
X185482535Y-186282303D01*
X178195035Y-240907303D02*
X178195035Y-221857303D01*
X420463501Y-124369803D02*
X434463501Y-124369803D01*
X307080025Y-176786381D02*
X304169262Y-163092315D01*
X278621850Y-178668924D02*
X274661132Y-197302636D01*
X443988501Y-167232303D02*
X443988501Y-181232303D01*
X261755838Y-216616529D02*
X258845075Y-230310596D01*
X358041515Y-165954182D02*
X344347449Y-168864946D01*
X242156209Y-229344678D02*
X223522497Y-225383960D01*
X225101965Y-186768509D02*
X243735676Y-190729227D01*
X382521534Y-182807792D02*
X386482251Y-201441503D01*
X154526285Y-162182303D02*
X154526285Y-148182303D01*
X456038501Y-145657303D02*
X475088501Y-145657303D01*
X330581116Y-213323657D02*
X326620398Y-194689945D01*
X362981161Y-164904228D02*
X360070397Y-151210161D01*
X364853740Y-203457375D02*
X351159673Y-206368139D01*
X248061772Y-213705765D02*
X261755838Y-216616529D01*
X284969893Y-226619803D02*
X284969893Y-207569803D01*
X168526285Y-162182303D02*
X154526285Y-162182303D01*
X456038501Y-164707303D02*
X417938501Y-164707303D01*
D11*
%TO.C,MountTopMiddle6*%
X472766285Y-186384803D02*
G75*
G03*
X468966285Y-186384803I-1900000J0D01*
G01*
X468966285Y-186384803D02*
G75*
G03*
X472766285Y-186384803I1900000J0D01*
G01*
%TO.C,MountTopMiddle4*%
X386576285Y-224324803D02*
G75*
G03*
X382776285Y-224324803I-1900000J0D01*
G01*
X382776285Y-224324803D02*
G75*
G03*
X386576285Y-224324803I1900000J0D01*
G01*
%TO.C,MountTopMiddle1*%
X174156285Y-143174803D02*
G75*
G03*
X170356285Y-143174803I-1900000J0D01*
G01*
X170356285Y-143174803D02*
G75*
G03*
X174156285Y-143174803I1900000J0D01*
G01*
%TO.C,MountTopMiddle3*%
X296375000Y-181015000D02*
G75*
G03*
X292575000Y-181015000I-1900000J0D01*
G01*
X292575000Y-181015000D02*
G75*
G03*
X296375000Y-181015000I1900000J0D01*
G01*
%TO.C,MountTopMiddle5*%
X418576285Y-143254803D02*
G75*
G03*
X414776285Y-143254803I-1900000J0D01*
G01*
X414776285Y-143254803D02*
G75*
G03*
X418576285Y-143254803I1900000J0D01*
G01*
%TO.C,MountTopMiddle2*%
X206166285Y-224354803D02*
G75*
G03*
X202366285Y-224354803I-1900000J0D01*
G01*
X202366285Y-224354803D02*
G75*
G03*
X206166285Y-224354803I1900000J0D01*
G01*
%TD*%
M02*
