%TF.GenerationSoftware,KiCad,Pcbnew,7.0.10*%
%TF.CreationDate,2024-01-21T02:34:59+01:00*%
%TF.ProjectId,Wonderland,576f6e64-6572-46c6-916e-642e6b696361,rev?*%
%TF.SameCoordinates,Original*%
%TF.FileFunction,Other,Comment*%
%FSLAX46Y46*%
G04 Gerber Fmt 4.6, Leading zero omitted, Abs format (unit mm)*
G04 Created by KiCad (PCBNEW 7.0.10) date 2024-01-21 02:34:59*
%MOMM*%
%LPD*%
G01*
G04 APERTURE LIST*
%ADD10C,0.200000*%
%ADD11C,0.150000*%
G04 APERTURE END LIST*
D10*
X57553785Y-70047303D02*
X57553785Y-84047303D01*
X244053064Y-44838072D02*
X242104641Y-30974319D01*
X323634751Y-108003553D02*
X342684751Y-108003553D01*
X83891285Y-86572303D02*
X64841285Y-86572303D01*
X69603785Y-105622303D02*
X69603785Y-124672303D01*
X235498486Y-32050999D02*
X238409250Y-45745066D01*
X321253501Y-105622303D02*
X321253501Y-124672303D01*
X311584751Y-108147303D02*
X311584751Y-122147303D01*
X156218485Y-38036987D02*
X154512314Y-51932633D01*
X299678501Y-50997303D02*
X299678501Y-64997303D01*
X55316285Y-43709803D02*
X36266285Y-43709803D01*
X209053573Y-153739666D02*
X206142810Y-140045600D01*
X287916001Y-105622303D02*
X321253501Y-105622303D01*
X185759893Y-131959803D02*
X185759893Y-145959803D01*
X195692079Y-38573988D02*
X196912259Y-52520714D01*
X268366001Y-124238242D02*
X249732289Y-128198960D01*
X146634388Y-97504945D02*
X165268100Y-101465662D01*
X134812901Y-56041033D02*
X130852183Y-74674745D01*
X175774433Y-39794169D02*
X174554253Y-53740894D01*
X216903118Y-50226463D02*
X203007472Y-51932633D01*
X166174761Y-79601381D02*
X152480695Y-76690617D01*
X352209751Y-105622303D02*
X309347251Y-105622303D01*
X309203501Y-84047303D02*
X295203501Y-84047303D01*
X321253501Y-124672303D02*
X287916001Y-124672303D01*
X340159751Y-110528553D02*
X340159751Y-124528553D01*
X69603785Y-124672303D02*
X69603785Y-105622303D01*
X270747251Y-104256503D02*
X252113539Y-108217221D01*
X212464866Y-136120395D02*
X193831154Y-140081113D01*
X323634751Y-127053553D02*
X342684751Y-127053553D01*
X169234893Y-110384803D02*
X188284893Y-110384803D01*
X140292420Y-96156918D02*
X121658709Y-92196200D01*
X359353501Y-67522303D02*
X359353501Y-86572303D01*
X33885035Y-86572303D02*
X67222535Y-86572303D01*
X211851316Y-114193811D02*
X198157250Y-117104575D01*
X134812901Y-56041033D02*
X153446613Y-60001751D01*
X222706885Y-56041033D02*
X226667603Y-74674745D01*
X122021300Y-32050999D02*
X135715367Y-34961763D01*
X169234893Y-129434803D02*
X188284893Y-129434803D01*
X32385035Y-105122235D02*
G75*
G03*
X33385035Y-104122303I65J999935D01*
G01*
X64841285Y-67522303D02*
X64841285Y-86572303D01*
X276153501Y-84047303D02*
X276153501Y-70047303D01*
X36266285Y-67522303D02*
X64841285Y-67522303D01*
X204073174Y-60001751D02*
X222706885Y-56041033D01*
X342828501Y-64997303D02*
X342828501Y-50997303D01*
X352209751Y-86572303D02*
X352209751Y-105622303D01*
X290153501Y-70047303D02*
X290153501Y-84047303D01*
X314253501Y-64997303D02*
X314253501Y-50997303D01*
X280272251Y-43709803D02*
X261268656Y-45038664D01*
X210885398Y-97504945D02*
X214846116Y-116138657D01*
X163688632Y-140081113D02*
X145054920Y-136120395D01*
X340159751Y-41184803D02*
X326159751Y-41184803D01*
X342684751Y-43709803D02*
X342684751Y-24659803D01*
X241404049Y-47689911D02*
X222770338Y-51650629D01*
X171759893Y-131959803D02*
X185759893Y-131959803D01*
X106019797Y-86290637D02*
X108930560Y-72596570D01*
X77247535Y-43709803D02*
X78576396Y-24706208D01*
X302203501Y-43709803D02*
X302203501Y-24659803D01*
X62460035Y-124672303D02*
X86272535Y-124672303D01*
X309347251Y-86572303D02*
X309347251Y-105622303D01*
X224715183Y-48655829D02*
X221804420Y-34961763D01*
X283297251Y-27184803D02*
X297297251Y-27184803D01*
X276153501Y-70047303D02*
X290153501Y-70047303D01*
X57553785Y-141197303D02*
X43553785Y-141197303D01*
X346034751Y-104537928D02*
X346034751Y-128137928D01*
X255968394Y-29025896D02*
X257916817Y-42889649D01*
X254058385Y-105222421D02*
X251147621Y-91528355D01*
X111311810Y-92578309D02*
X125005877Y-95489073D01*
X133024482Y-136144657D02*
X146718549Y-139055420D01*
X222770338Y-51650629D02*
X218809620Y-33016917D01*
X103024997Y-88235483D02*
X84391285Y-84274765D01*
X55172535Y-122147303D02*
X41172535Y-122147303D01*
X76891285Y-48616053D02*
X90891285Y-48616053D01*
X290153501Y-127197303D02*
X290153501Y-141197303D01*
X200809013Y-54746532D02*
X198487402Y-35838528D01*
X79942519Y-41367089D02*
X80919110Y-27401192D01*
X110782297Y-126254114D02*
X113693060Y-112560048D01*
X280628501Y-62616053D02*
X266628501Y-62616053D01*
X57553785Y-127197303D02*
X57553785Y-141197303D01*
X311728501Y-67522303D02*
X330778501Y-67522303D01*
X55316285Y-24659803D02*
X55316285Y-43709803D01*
X359209751Y-129578553D02*
X359209751Y-143578553D01*
X233479828Y-112177939D02*
X229519110Y-93544227D01*
X140616668Y-50226463D02*
X142322839Y-36330816D01*
X115615737Y-47689911D02*
X96751130Y-45038664D01*
X356828501Y-50997303D02*
X356828501Y-64997303D01*
X204073174Y-60001751D02*
X208033891Y-78635463D01*
X214232566Y-94212072D02*
X200538500Y-97122836D01*
X250534072Y-69601771D02*
X269167784Y-65641053D01*
X285391001Y-108147303D02*
X285391001Y-122147303D01*
X229519110Y-93544227D02*
X248152822Y-89583509D01*
X106985715Y-69601771D02*
X125619426Y-73562488D01*
X326159751Y-110528553D02*
X340159751Y-110528553D01*
X33885035Y-105622303D02*
X33885035Y-86572303D01*
X338066001Y-70047303D02*
X352066001Y-70047303D01*
X145054920Y-136120395D02*
X149015638Y-117486683D01*
X67366285Y-70047303D02*
X81366285Y-70047303D01*
X188284893Y-148484803D02*
X169234893Y-148484803D01*
X248152822Y-89583509D02*
X252113539Y-108217221D01*
X105842651Y-125204160D02*
X92148585Y-122293396D01*
X88352003Y-65641053D02*
X106985715Y-69601771D01*
X103990915Y-71546616D02*
X101080151Y-85240683D01*
X33885035Y-86072235D02*
G75*
G03*
X33385035Y-86572303I65J-500065D01*
G01*
X124039959Y-112177939D02*
X128000676Y-93544227D01*
X330778501Y-86572303D02*
X330778501Y-67522303D01*
X130381926Y-113525966D02*
X126421209Y-132159678D01*
X266628501Y-62616053D02*
X266628501Y-48616053D01*
X251677135Y-125204160D02*
X248766371Y-111510094D01*
X90296848Y-68635853D02*
X103990915Y-71546616D01*
X112218471Y-70714028D02*
X93584760Y-66753310D01*
X302203501Y-48472303D02*
X340303501Y-48472303D01*
X74366285Y-46091053D02*
X93416285Y-46091053D01*
X223672803Y-72729900D02*
X209978737Y-75640663D01*
X128000676Y-93544227D02*
X124039959Y-112177939D01*
X135715367Y-34961763D02*
X132804603Y-48655829D01*
X213266648Y-77523206D02*
X231900360Y-73562488D01*
X353284751Y-118837929D02*
G75*
G03*
X352184755Y-118837929I-549998J0D01*
G01*
X352184755Y-118837929D02*
G75*
G03*
X353284751Y-118837929I549998J0D01*
G01*
X361734751Y-43709803D02*
X342684751Y-43709803D01*
X238409250Y-45745066D02*
X224715183Y-48655829D01*
X355784751Y-116337927D02*
G75*
G03*
X354684749Y-116337927I-550001J0D01*
G01*
X354684749Y-116337927D02*
G75*
G03*
X355784751Y-116337927I550001J0D01*
G01*
X213266648Y-77523206D02*
X217227366Y-96156918D01*
X121658709Y-92196200D02*
X103024997Y-88235483D01*
X93584760Y-66753310D02*
X97545477Y-48119598D01*
X52791285Y-50997303D02*
X52791285Y-64997303D01*
X33385035Y-104122303D02*
X33385035Y-86572303D01*
X287916001Y-124672303D02*
X287916001Y-105622303D01*
X355784751Y-113837928D02*
G75*
G03*
X354684751Y-113837928I-550000J0D01*
G01*
X354684751Y-113837928D02*
G75*
G03*
X355784751Y-113837928I550000J0D01*
G01*
X287916001Y-105622303D02*
X287916001Y-124672303D01*
X81366285Y-141197303D02*
X67366285Y-141197303D01*
X297584751Y-122147303D02*
X297584751Y-108147303D01*
X145668470Y-114193811D02*
X148579234Y-100499744D01*
X198593654Y-100117636D02*
X194632936Y-81483924D01*
X233043423Y-129164878D02*
X230132660Y-115470811D01*
X340303501Y-67522303D02*
X340303501Y-48472303D01*
X60222535Y-27184803D02*
X74222535Y-27184803D01*
X254494789Y-88235483D02*
X250534072Y-69601771D01*
X216790962Y-113143857D02*
X213880198Y-99449790D01*
X345209751Y-27184803D02*
X359209751Y-27184803D01*
X248589226Y-72596570D02*
X251499990Y-86290637D01*
X326159751Y-27184803D02*
X340159751Y-27184803D01*
X264405284Y-105604530D02*
X268366001Y-124238242D01*
X129416008Y-130214832D02*
X132326772Y-116520765D01*
X311728501Y-67522303D02*
X311728501Y-86572303D01*
X176849576Y-56476354D02*
X157872067Y-54816037D01*
X108753415Y-111510094D02*
X105842651Y-125204160D01*
X121658709Y-92196200D02*
X125619426Y-73562488D01*
X287916001Y-124672303D02*
X268866001Y-124672303D01*
X337778501Y-103097303D02*
X323778501Y-103097303D01*
X43553785Y-141197303D02*
X43553785Y-127197303D01*
X220762040Y-59035833D02*
X223672803Y-72729900D01*
X168119607Y-82596181D02*
X149485895Y-78635463D01*
X307109751Y-143578553D02*
X307109751Y-129578553D01*
X116179189Y-52080316D02*
X112218471Y-70714028D01*
X142673670Y-116138657D02*
X124039959Y-112177939D01*
X340159751Y-129578553D02*
X340159751Y-143578553D01*
X330778501Y-67522303D02*
X359353501Y-67522303D01*
X261268656Y-45038664D02*
X259939795Y-26035069D01*
X280772251Y-43709803D02*
X280772251Y-24659803D01*
X83747535Y-103097303D02*
X69747535Y-103097303D01*
X273128501Y-84274765D02*
X254494789Y-88235483D01*
X115415145Y-30974319D02*
X113466722Y-44838072D01*
X290297251Y-105622303D02*
X290297251Y-86572303D01*
X239395752Y-55075115D02*
X242306515Y-68769182D01*
X338066001Y-84047303D02*
X338066001Y-70047303D01*
X257916817Y-42889649D02*
X244053064Y-44838072D01*
X271247251Y-86572303D02*
X290297251Y-86572303D01*
X67366285Y-84047303D02*
X67366285Y-70047303D01*
X43553785Y-70047303D02*
X57553785Y-70047303D01*
X124039959Y-112177939D02*
X105406247Y-108217221D01*
X171759893Y-145959803D02*
X171759893Y-131959803D01*
X71841285Y-50997303D02*
X71841285Y-64997303D01*
X67222535Y-105622303D02*
X33885035Y-105622303D01*
X215196947Y-36330816D02*
X216903118Y-50226463D01*
X248766371Y-111510094D02*
X262460438Y-108599330D01*
X94885007Y-28377783D02*
X93908416Y-42343680D01*
X211498948Y-119431529D02*
X225193014Y-116520765D01*
X246737490Y-126254114D02*
X233043423Y-129164878D01*
X188284893Y-129434803D02*
X188284893Y-148484803D01*
X84391285Y-84274765D02*
X88352003Y-65641053D01*
X321109751Y-129578553D02*
X321109751Y-143578553D01*
X157872067Y-54816037D02*
X159532384Y-35838528D01*
X95757059Y-128223221D02*
X109451125Y-131133985D01*
X285391001Y-122147303D02*
X271391001Y-122147303D01*
X76747535Y-24659803D02*
X76747535Y-43709803D01*
X89767335Y-102311658D02*
X92678098Y-88617591D01*
X122624627Y-75507334D02*
X119713863Y-89201401D01*
X122095113Y-109183139D02*
X108401047Y-106272375D01*
X326159751Y-41184803D02*
X326159751Y-27184803D01*
X306822251Y-103097303D02*
X292822251Y-103097303D01*
X330778501Y-67522303D02*
X330778501Y-86572303D01*
X161307382Y-120099374D02*
X142673670Y-116138657D01*
X345209751Y-143578553D02*
X345209751Y-129578553D01*
X109366965Y-89583509D02*
X105406247Y-108217221D01*
X251147621Y-91528355D02*
X264841688Y-88617591D01*
X262460438Y-108599330D02*
X265371202Y-122293396D01*
X97579991Y-26035069D02*
X96251130Y-45038664D01*
X241340597Y-52080316D02*
X245301315Y-70714028D01*
X268866001Y-105622303D02*
X287916001Y-105622303D01*
X101080151Y-85240683D02*
X87386085Y-82329919D01*
X250534072Y-69601771D02*
X254494789Y-88235483D01*
X273628501Y-86572303D02*
X273628501Y-67522303D01*
X217227366Y-96156918D02*
X198593654Y-100117636D01*
X57697535Y-43709803D02*
X57697535Y-24659803D01*
X159032384Y-35838528D02*
X156710773Y-54746532D01*
X113693060Y-112560048D02*
X127387127Y-115470811D01*
X146718549Y-139055420D02*
X143807785Y-152749487D01*
X147541049Y-75640663D02*
X133846983Y-72729900D01*
X64841285Y-67522303D02*
X83891285Y-67522303D01*
X67366285Y-127197303D02*
X81366285Y-127197303D01*
X271247251Y-124672303D02*
X295059751Y-124672303D01*
X309347251Y-86572303D02*
X352209751Y-86572303D01*
X355784751Y-118837927D02*
G75*
G03*
X354684753Y-118837927I-549999J0D01*
G01*
X354684753Y-118837927D02*
G75*
G03*
X355784751Y-118837927I549999J0D01*
G01*
X93416285Y-65141053D02*
X74366285Y-65141053D01*
X342684751Y-24659803D02*
X342684751Y-43709803D01*
X358584751Y-128137928D02*
X358584751Y-104537928D01*
X146634388Y-97504945D02*
X142673670Y-116138657D01*
X167649350Y-121447401D02*
X163688632Y-140081113D01*
X38791285Y-27184803D02*
X52791285Y-27184803D01*
X108930560Y-72596570D02*
X122624627Y-75507334D01*
X130381926Y-113525966D02*
X149015638Y-117486683D01*
X126421209Y-132159678D02*
X130381926Y-113525966D01*
X55316285Y-67522303D02*
X36266285Y-67522303D01*
X57553785Y-84047303D02*
X43553785Y-84047303D01*
X292678501Y-86572303D02*
X273628501Y-86572303D01*
X161827707Y-38573988D02*
X175774433Y-39794169D01*
X141258338Y-79468052D02*
X138347575Y-93162118D01*
X295059751Y-124672303D02*
X295059751Y-143722303D01*
X185439462Y-63962469D02*
X204073174Y-60001751D01*
X206142810Y-140045600D02*
X219836876Y-137134836D01*
X323634751Y-43709803D02*
X323634751Y-24659803D01*
X276153501Y-141197303D02*
X276153501Y-127197303D01*
X165268100Y-101465662D02*
X161307382Y-120099374D01*
X97545477Y-48119598D02*
X116179189Y-52080316D01*
X219836876Y-137134836D02*
X222747640Y-150828902D01*
X140728825Y-113143857D02*
X127034758Y-110233093D01*
X290297251Y-86572303D02*
X309347251Y-86572303D01*
X200538500Y-97122836D02*
X197627736Y-83428770D01*
X231900360Y-73562488D02*
X235861078Y-92196200D01*
X130852183Y-74674745D02*
X134812901Y-56041033D01*
X290297251Y-105622303D02*
X271247251Y-105622303D01*
X180670210Y-56476354D02*
X179009893Y-37498845D01*
X150451813Y-61946597D02*
X147541049Y-75640663D01*
X171759893Y-112909803D02*
X185759893Y-112909803D01*
X237443332Y-29056200D02*
X241404049Y-47689911D01*
X355784751Y-118837928D02*
G75*
G03*
X354684751Y-118837928I-550000J0D01*
G01*
X354684751Y-118837928D02*
G75*
G03*
X355784751Y-118837928I550000J0D01*
G01*
X128907337Y-71679946D02*
X115213271Y-68769182D01*
X127034758Y-110233093D02*
X129945522Y-96539027D01*
X233427792Y-131664588D02*
X237388509Y-150298300D01*
X242744648Y-129684229D02*
X266036787Y-124733332D01*
X295203501Y-70047303D02*
X309203501Y-70047303D01*
X125619426Y-73562488D02*
X144253138Y-77523206D01*
X81366285Y-84047303D02*
X67366285Y-84047303D01*
X137802769Y-52424922D02*
X140124380Y-33516917D01*
X169234893Y-148484803D02*
X169234893Y-129434803D01*
X270133702Y-82329919D02*
X256439635Y-85240683D01*
X266628501Y-48616053D02*
X280628501Y-48616053D01*
X146197984Y-80518006D02*
X159892050Y-83428770D01*
X234895160Y-75507334D02*
X248589226Y-72596570D01*
X74222535Y-41184803D02*
X60222535Y-41184803D01*
X159892050Y-83428770D02*
X156981287Y-97122836D01*
X232866278Y-90251355D02*
X219172212Y-93162118D01*
X276153501Y-127197303D02*
X290153501Y-127197303D01*
X171759893Y-126909803D02*
X171759893Y-112909803D01*
X265371202Y-122293396D02*
X251677135Y-125204160D01*
X260940227Y-64808464D02*
X247246161Y-67719228D01*
X283153501Y-67522303D02*
X283153501Y-48472303D01*
X35766285Y-85072303D02*
X35766285Y-24759803D01*
X125619426Y-73562488D02*
X121658709Y-92196200D01*
X352066001Y-84047303D02*
X338066001Y-84047303D01*
X353284751Y-118837928D02*
G75*
G03*
X352184751Y-118837928I-550000J0D01*
G01*
X352184751Y-118837928D02*
G75*
G03*
X353284751Y-118837928I550000J0D01*
G01*
X208033891Y-78635463D02*
X204073174Y-60001751D01*
X229955514Y-76557288D02*
X232866278Y-90251355D01*
X297584751Y-108147303D02*
X311584751Y-108147303D01*
X90891285Y-48616053D02*
X90891285Y-62616053D01*
X145054920Y-136120395D02*
X126421209Y-132159678D01*
X318728501Y-27184803D02*
X318728501Y-41184803D01*
X72128785Y-108147303D02*
X86128785Y-108147303D01*
X129945522Y-96539027D02*
X143639588Y-99449790D01*
X209470066Y-134175550D02*
X195776000Y-137086313D01*
X227137860Y-113525966D02*
X245771572Y-109565248D01*
X311728501Y-86572303D02*
X292678501Y-86572303D01*
X254494789Y-88235483D02*
X235861078Y-92196200D01*
X43553785Y-84047303D02*
X43553785Y-70047303D01*
X297297251Y-27184803D02*
X297297251Y-41184803D01*
X36266285Y-43709803D02*
X36266285Y-24659803D01*
X304728501Y-41184803D02*
X304728501Y-27184803D01*
X57841285Y-50997303D02*
X71841285Y-50997303D01*
X55316285Y-67522303D02*
X55316285Y-48472303D01*
X304584751Y-146103553D02*
X304584751Y-127053553D01*
X311584751Y-122147303D02*
X297584751Y-122147303D01*
X235861078Y-92196200D02*
X217227366Y-96156918D01*
X101551393Y-29025896D02*
X115415145Y-30974319D01*
X55316285Y-48472303D02*
X55316285Y-67522303D01*
X67366285Y-141197303D02*
X67366285Y-127197303D01*
X92148585Y-122293396D02*
X95059348Y-108599330D01*
X233479828Y-112177939D02*
X214846116Y-116138657D01*
X133846983Y-72729900D02*
X136757747Y-59035833D01*
X267222938Y-68635853D02*
X270133702Y-82329919D01*
X328253501Y-50997303D02*
X328253501Y-64997303D01*
X131818101Y-57985879D02*
X128907337Y-71679946D01*
X318728501Y-41184803D02*
X304728501Y-41184803D01*
X182965533Y-53740894D02*
X181745353Y-39794169D01*
X340303501Y-48472303D02*
X340303501Y-67522303D01*
X226667603Y-74674745D02*
X222706885Y-56041033D01*
X154512314Y-51932633D02*
X140616668Y-50226463D01*
X127387127Y-115470811D02*
X124476363Y-129164878D01*
X160607527Y-52520714D02*
X161827707Y-38573988D01*
X216261448Y-79468052D02*
X229955514Y-76557288D01*
X114775139Y-129684229D02*
X166017846Y-140576203D01*
X208504148Y-117486683D02*
X212464866Y-136120395D01*
X43553785Y-103097303D02*
X43553785Y-89097303D01*
X189400180Y-82596181D02*
X185439462Y-63962469D01*
X86772535Y-104256503D02*
X90733253Y-85622792D01*
X119110537Y-45745066D02*
X122021300Y-32050999D01*
X86272535Y-105622303D02*
X67222535Y-105622303D01*
X263935027Y-66753310D02*
X245301315Y-70714028D01*
X241340597Y-52080316D02*
X259974309Y-48119598D01*
X99490323Y-51114398D02*
X113184389Y-54025161D01*
X292678501Y-67522303D02*
X311728501Y-67522303D01*
X208940552Y-100499744D02*
X211851316Y-114193811D01*
X172080324Y-63962469D02*
X168119607Y-82596181D01*
X36266285Y-86572303D02*
X36266285Y-67522303D01*
X352066001Y-70047303D02*
X352066001Y-84047303D01*
X76891285Y-62616053D02*
X76891285Y-48616053D01*
X330778501Y-86572303D02*
X311728501Y-86572303D01*
X292678501Y-86572303D02*
X292678501Y-67522303D01*
X264103501Y-46091053D02*
X283153501Y-46091053D01*
X169085525Y-65907315D02*
X166174761Y-79601381D01*
X283153501Y-46091053D02*
X283153501Y-65141053D01*
X225701685Y-57985879D02*
X239395752Y-55075115D01*
X156981287Y-97122836D02*
X143287220Y-94212072D01*
X119713863Y-89201401D02*
X106019797Y-86290637D01*
X359209751Y-41184803D02*
X345209751Y-41184803D01*
X67222535Y-86572303D02*
X86272535Y-86572303D01*
X287772251Y-89097303D02*
X287772251Y-103097303D01*
X87522281Y-143367044D02*
X91482999Y-124733332D01*
X110273626Y-67719228D02*
X96579559Y-64808464D01*
X326159751Y-124528553D02*
X326159751Y-110528553D01*
X92846295Y-141917288D02*
X95757059Y-128223221D01*
X67222535Y-105622303D02*
X67222535Y-86572303D01*
X69603785Y-105622303D02*
X88653785Y-105622303D01*
X266036787Y-124733332D02*
X269997505Y-143367044D01*
X207067973Y-61946597D02*
X220762040Y-59035833D01*
X359353501Y-67522303D02*
X340303501Y-67522303D01*
X196912259Y-52520714D02*
X182965533Y-53740894D01*
X93908416Y-42343680D02*
X79942519Y-41367089D01*
X192251686Y-101465662D02*
X210885398Y-97504945D01*
X355784749Y-113837929D02*
G75*
G03*
X354684755Y-113837929I-549997J0D01*
G01*
X354684755Y-113837929D02*
G75*
G03*
X355784749Y-113837929I549997J0D01*
G01*
X251499990Y-86290637D02*
X237805923Y-89201401D01*
X222747640Y-150828902D02*
X209053573Y-153739666D01*
X277577267Y-41367089D02*
X263611370Y-42343680D01*
X91482999Y-124733332D02*
X114775139Y-129684229D01*
X127564272Y-76557288D02*
X141258338Y-79468052D01*
X228612449Y-71679946D02*
X225701685Y-57985879D01*
X245771572Y-109565248D02*
X249732289Y-128198960D01*
X115213271Y-68769182D02*
X118124035Y-55075115D01*
X185759893Y-145959803D02*
X171759893Y-145959803D01*
X323634751Y-127053553D02*
X323634751Y-108003553D01*
X159362537Y-117104575D02*
X145668470Y-114193811D01*
X235424673Y-109183139D02*
X232513910Y-95489073D01*
X55316285Y-48472303D02*
X74366285Y-48472303D01*
X345209751Y-41184803D02*
X345209751Y-27184803D01*
X340159751Y-143578553D02*
X326159751Y-143578553D01*
X221804420Y-34961763D02*
X235498486Y-32050999D01*
X259974309Y-48119598D02*
X263935027Y-66753310D01*
X107787497Y-128198960D02*
X111748215Y-109565248D01*
X353284751Y-113837928D02*
G75*
G03*
X352184751Y-113837928I-550000J0D01*
G01*
X352184751Y-113837928D02*
G75*
G03*
X353284751Y-113837928I550000J0D01*
G01*
X307109751Y-129578553D02*
X321109751Y-129578553D01*
X60222535Y-41184803D02*
X60222535Y-27184803D01*
X302203501Y-48472303D02*
X302203501Y-67522303D01*
X292822251Y-89097303D02*
X306822251Y-89097303D01*
X153446613Y-60001751D02*
X172080324Y-63962469D01*
X210885398Y-97504945D02*
X229519110Y-93544227D01*
X250979425Y-144828051D02*
X248068661Y-131133985D01*
X219172212Y-93162118D02*
X216261448Y-79468052D01*
X161743787Y-137086313D02*
X148049720Y-134175550D01*
X155391458Y-62996551D02*
X169085525Y-65907315D01*
X292678501Y-67522303D02*
X292678501Y-86572303D01*
X278943390Y-24706208D02*
X280272251Y-43709803D01*
X105406247Y-108217221D02*
X109366965Y-89583509D01*
X116179189Y-52080316D02*
X134812901Y-56041033D01*
X245301315Y-70714028D02*
X241340597Y-52080316D01*
X57841285Y-64997303D02*
X57841285Y-50997303D01*
X304584751Y-127053553D02*
X323634751Y-127053553D01*
X196212404Y-120099374D02*
X192251686Y-101465662D01*
X69603785Y-124672303D02*
X26741285Y-124672303D01*
X271391001Y-108147303D02*
X285391001Y-108147303D01*
X264103501Y-65141053D02*
X264103501Y-46091053D01*
X128000676Y-93544227D02*
X146634388Y-97504945D01*
X359353501Y-48472303D02*
X359353501Y-67522303D01*
X262634780Y-28377783D02*
X276600676Y-27401192D01*
X283297251Y-41184803D02*
X283297251Y-27184803D01*
X235861078Y-92196200D02*
X231900360Y-73562488D01*
X143110075Y-133125596D02*
X129416008Y-130214832D01*
X290153501Y-84047303D02*
X276153501Y-84047303D01*
X81366285Y-70047303D02*
X81366285Y-84047303D01*
X37147535Y-125172303D02*
X26841285Y-125172303D01*
X242104641Y-30974319D02*
X255968394Y-29025896D01*
X144253138Y-77523206D02*
X162886850Y-81483924D01*
X243826726Y-112560048D02*
X246737490Y-126254114D01*
X112218471Y-70714028D02*
X116179189Y-52080316D01*
X86272535Y-124672303D02*
X86272535Y-143722303D01*
X299822251Y-43709803D02*
X280772251Y-43709803D01*
X36266285Y-67522303D02*
X36266285Y-48472303D01*
X342684751Y-127053553D02*
X361734751Y-127053553D01*
X245771572Y-109565248D02*
X264405284Y-105604530D01*
X252113539Y-108217221D02*
X233479828Y-112177939D01*
X197627736Y-83428770D02*
X211321802Y-80518006D01*
X43553785Y-127197303D02*
X57553785Y-127197303D01*
X57553785Y-89097303D02*
X57553785Y-103097303D01*
X323778501Y-89097303D02*
X337778501Y-89097303D01*
X149485895Y-78635463D02*
X130852183Y-74674745D01*
X92678098Y-88617591D02*
X106372165Y-91528355D01*
X345209751Y-129578553D02*
X359209751Y-129578553D01*
X230485028Y-110233093D02*
X216790962Y-113143857D01*
X228103778Y-130214832D02*
X214409712Y-133125596D01*
X217395406Y-33516917D02*
X219717017Y-52424922D01*
X105406247Y-108217221D02*
X86772535Y-104256503D01*
X191501940Y-140576203D02*
X233427792Y-131664588D01*
X258117409Y-26174057D02*
X260768656Y-45038664D01*
X118266984Y-28825305D02*
X115615737Y-47689911D01*
X72128785Y-122147303D02*
X72128785Y-108147303D01*
X38647535Y-143722303D02*
X38647535Y-124672303D01*
X337778501Y-89097303D02*
X337778501Y-103097303D01*
X185759893Y-126909803D02*
X171759893Y-126909803D01*
X83747535Y-89097303D02*
X83747535Y-103097303D01*
X214409712Y-133125596D02*
X211498948Y-119431529D01*
X125005877Y-95489073D02*
X122095113Y-109183139D01*
X188284893Y-129434803D02*
X169234893Y-129434803D01*
X189870436Y-121447401D02*
X208504148Y-117486683D01*
X57553785Y-103097303D02*
X43553785Y-103097303D01*
X264673491Y-141917288D02*
X250979425Y-144828051D01*
X359209751Y-143578553D02*
X345209751Y-143578553D01*
X227574264Y-96539027D02*
X230485028Y-110233093D01*
X64841285Y-86572303D02*
X64841285Y-67522303D01*
X214846116Y-116138657D02*
X196212404Y-120099374D01*
X290153501Y-141197303D02*
X276153501Y-141197303D01*
X158926132Y-100117636D02*
X140292420Y-96156918D01*
X38147497Y-126172303D02*
G75*
G03*
X37147535Y-125172303I-999997J3D01*
G01*
X217227366Y-96156918D02*
X213266648Y-77523206D01*
X328253501Y-84047303D02*
X314253501Y-84047303D01*
X110814421Y-148317941D02*
X114775139Y-129684229D01*
X285678501Y-64997303D02*
X285678501Y-50997303D01*
X156710773Y-54746532D02*
X137802769Y-52424922D01*
X71841285Y-64997303D02*
X57841285Y-64997303D01*
X342684751Y-108003553D02*
X342684751Y-127053553D01*
X323634751Y-146103553D02*
X323634751Y-127053553D01*
X80919110Y-27401192D02*
X94885007Y-28377783D01*
X269997505Y-143367044D02*
X246705365Y-148317941D01*
X340159751Y-124528553D02*
X326159751Y-124528553D01*
X198157250Y-117104575D02*
X195246486Y-103410508D01*
X140292420Y-96156918D02*
X144253138Y-77523206D01*
X114775139Y-129684229D02*
X110814421Y-148317941D01*
X149485895Y-78635463D02*
X153446613Y-60001751D01*
X185759893Y-112909803D02*
X185759893Y-126909803D01*
X209978737Y-75640663D02*
X207067973Y-61946597D01*
X226667603Y-74674745D02*
X208033891Y-78635463D01*
X222706885Y-56041033D02*
X241340597Y-52080316D01*
X246705365Y-148317941D02*
X242744648Y-129684229D01*
X231900360Y-73562488D02*
X250534072Y-69601771D01*
X86128785Y-122147303D02*
X72128785Y-122147303D01*
X297297251Y-41184803D02*
X283297251Y-41184803D01*
X134749449Y-51650629D02*
X116115737Y-47689911D01*
X256439635Y-85240683D02*
X253528871Y-71546616D01*
X96751130Y-45038664D02*
X99402378Y-26174057D01*
X225193014Y-116520765D02*
X228103778Y-130214832D01*
X309347251Y-105622303D02*
X290297251Y-105622303D01*
X206559302Y-120481483D02*
X209470066Y-134175550D01*
X346034751Y-128137928D02*
X358584751Y-128137928D01*
X52791285Y-27184803D02*
X52791285Y-41184803D01*
X88653785Y-124672303D02*
X69603785Y-124672303D01*
X95059348Y-108599330D02*
X108753415Y-111510094D01*
X271247251Y-105622303D02*
X271247251Y-86572303D01*
X96251130Y-45038664D02*
X77247535Y-43709803D01*
X252113539Y-108217221D02*
X248152822Y-89583509D01*
X253528871Y-71546616D02*
X267222938Y-68635853D01*
X148579234Y-100499744D02*
X162273300Y-103410508D01*
X231098578Y-132159678D02*
X227137860Y-113525966D01*
X326159751Y-143578553D02*
X326159751Y-129578553D01*
X199647719Y-54816037D02*
X180670210Y-56476354D01*
X321253501Y-43709803D02*
X302203501Y-43709803D01*
X130852183Y-74674745D02*
X112218471Y-70714028D01*
X241904049Y-47689911D02*
X239252802Y-28825305D01*
X280628501Y-48616053D02*
X280628501Y-62616053D01*
X152480695Y-76690617D02*
X155391458Y-62996551D01*
X124653508Y-90251355D02*
X127564272Y-76557288D01*
X314253501Y-50997303D02*
X328253501Y-50997303D01*
X142673670Y-116138657D02*
X146634388Y-97504945D01*
X41172535Y-122147303D02*
X41172535Y-108147303D01*
X106540361Y-144828051D02*
X92846295Y-141917288D01*
X195776000Y-137086313D02*
X192865236Y-123392247D01*
X323778501Y-103097303D02*
X323778501Y-89097303D01*
X62460035Y-124672303D02*
X62460035Y-143722303D01*
X93114503Y-105604530D02*
X111748215Y-109565248D01*
X143639588Y-99449790D02*
X140728825Y-113143857D01*
X96579559Y-64808464D02*
X99490323Y-51114398D01*
X197987402Y-35838528D02*
X199647719Y-54816037D01*
X108401047Y-106272375D02*
X111311810Y-92578309D01*
X181745353Y-39794169D02*
X195692079Y-38573988D01*
X107787497Y-128198960D02*
X89153785Y-124238242D01*
X263611370Y-42343680D02*
X262634780Y-28377783D01*
X86128785Y-108147303D02*
X86128785Y-122147303D01*
X81366285Y-127197303D02*
X81366285Y-141197303D01*
X248152822Y-89583509D02*
X266786534Y-85622792D01*
X264841688Y-88617591D02*
X267752452Y-102311658D01*
X311728501Y-86572303D02*
X311728501Y-67522303D01*
X244335397Y-54025161D02*
X258029463Y-51114398D01*
X109451125Y-131133985D02*
X106540361Y-144828051D01*
X132804603Y-48655829D02*
X119110537Y-45745066D01*
X90891285Y-62616053D02*
X76891285Y-62616053D01*
X143807785Y-152749487D02*
X130113719Y-149838723D01*
X124476363Y-129164878D02*
X110782297Y-126254114D01*
X248068661Y-131133985D02*
X261762728Y-128223221D01*
X292822251Y-103097303D02*
X292822251Y-89097303D01*
X74366285Y-65141053D02*
X74366285Y-46091053D01*
X67222535Y-86572303D02*
X67222535Y-105622303D01*
X43553785Y-89097303D02*
X57553785Y-89097303D01*
X166017846Y-140576203D02*
X162057128Y-159209914D01*
X106372165Y-91528355D02*
X103461401Y-105222421D01*
X287772251Y-103097303D02*
X273772251Y-103097303D01*
X314253501Y-84047303D02*
X314253501Y-70047303D01*
X205039092Y-76690617D02*
X191345025Y-79601381D01*
X246207976Y-92578309D02*
X249118740Y-106272375D01*
X38791285Y-41184803D02*
X38791285Y-27184803D01*
X138710166Y-33016917D02*
X134749449Y-51650629D01*
X188434262Y-65907315D02*
X202128328Y-62996551D01*
X260768656Y-45038664D02*
X241904049Y-47689911D01*
X149015638Y-117486683D02*
X167649350Y-121447401D01*
X359353501Y-86572303D02*
X330778501Y-86572303D01*
X38147535Y-143622303D02*
X38147535Y-126172303D01*
X309203501Y-70047303D02*
X309203501Y-84047303D01*
X323634751Y-127053553D02*
X323634751Y-146103553D01*
X178509893Y-37498845D02*
X176849576Y-56476354D01*
X273628501Y-67522303D02*
X292678501Y-67522303D01*
X208033891Y-78635463D02*
X189400180Y-82596181D01*
X116115737Y-47689911D02*
X120076455Y-29056200D01*
X271391001Y-122147303D02*
X271391001Y-108147303D01*
X261762728Y-128223221D02*
X264673491Y-141917288D01*
X74222535Y-27184803D02*
X74222535Y-41184803D01*
X69747535Y-89097303D02*
X83747535Y-89097303D01*
X276600676Y-27401192D02*
X277577267Y-41367089D01*
X232513910Y-95489073D02*
X246207976Y-92578309D01*
X136757747Y-59035833D02*
X150451813Y-61946597D01*
X258029463Y-51114398D02*
X260940227Y-64808464D01*
X118124035Y-55075115D02*
X131818101Y-57985879D01*
X74366285Y-48472303D02*
X74366285Y-67522303D01*
X38647535Y-124672303D02*
X62460035Y-124672303D01*
X314253501Y-70047303D02*
X328253501Y-70047303D01*
X328253501Y-64997303D02*
X314253501Y-64997303D01*
X149015638Y-117486683D02*
X145054920Y-136120395D01*
X306822251Y-89097303D02*
X306822251Y-103097303D01*
X33885035Y-86072303D02*
X34766285Y-86072303D01*
X290297251Y-86572303D02*
X290297251Y-105622303D01*
X111748215Y-109565248D02*
X130381926Y-113525966D01*
X38791285Y-50997303D02*
X52791285Y-50997303D01*
X83891285Y-67522303D02*
X83891285Y-86572303D01*
X201301301Y-38036987D02*
X215196947Y-36330816D01*
X203007472Y-51932633D02*
X201301301Y-38036987D01*
X162273300Y-103410508D02*
X159362537Y-117104575D01*
X321109751Y-143578553D02*
X307109751Y-143578553D01*
X174554253Y-53740894D02*
X160607527Y-52520714D01*
X88653785Y-105622303D02*
X88653785Y-124672303D01*
X86272535Y-86572303D02*
X86272535Y-105622303D01*
X103461401Y-105222421D02*
X89767335Y-102311658D01*
X99602969Y-42889649D02*
X101551393Y-29025896D01*
X295203501Y-84047303D02*
X295203501Y-70047303D01*
X229519110Y-93544227D02*
X233479828Y-112177939D01*
X283153501Y-48472303D02*
X302203501Y-48472303D01*
X52791285Y-41184803D02*
X38791285Y-41184803D01*
X193831154Y-140081113D02*
X189870436Y-121447401D01*
X302203501Y-67522303D02*
X283153501Y-67522303D01*
X245301315Y-70714028D02*
X226667603Y-74674745D01*
X211321802Y-80518006D02*
X214232566Y-94212072D01*
X271247251Y-143722303D02*
X271247251Y-124672303D01*
X138347575Y-93162118D02*
X124653508Y-90251355D01*
X249732289Y-128198960D02*
X231098578Y-132159678D01*
X342684751Y-43709803D02*
X323634751Y-43709803D01*
X342828501Y-50997303D02*
X356828501Y-50997303D01*
X164654550Y-123392247D02*
X161743787Y-137086313D01*
X195462658Y-159209914D02*
X191501940Y-140576203D01*
X340159751Y-27184803D02*
X340159751Y-41184803D01*
X93416285Y-46091053D02*
X93416285Y-65141053D01*
X113184389Y-54025161D02*
X110273626Y-67719228D01*
X219717017Y-52424922D02*
X200809013Y-54746532D01*
X237805923Y-89201401D02*
X234895160Y-75507334D01*
X302203501Y-67522303D02*
X302203501Y-48472303D01*
X249732289Y-128198960D02*
X245771572Y-109565248D01*
X213880198Y-99449790D02*
X227574264Y-96539027D01*
X285678501Y-50997303D02*
X299678501Y-50997303D01*
X268866001Y-124672303D02*
X268866001Y-105622303D01*
X26841285Y-105122303D02*
X32385035Y-105122303D01*
X356828501Y-64997303D02*
X342828501Y-64997303D01*
X230132660Y-115470811D02*
X243826726Y-112560048D01*
X74366285Y-67522303D02*
X55316285Y-67522303D01*
X192865236Y-123392247D02*
X206559302Y-120481483D01*
X142322839Y-36330816D02*
X156218485Y-38036987D01*
X153446613Y-60001751D02*
X149485895Y-78635463D01*
X342684751Y-146103553D02*
X342684751Y-127053553D01*
X309347251Y-105622303D02*
X309347251Y-86572303D01*
X76747535Y-43709803D02*
X57697535Y-43709803D01*
X89153785Y-124238242D02*
X93114503Y-105604530D01*
X359209751Y-27184803D02*
X359209751Y-41184803D01*
X144253138Y-77523206D02*
X140292420Y-96156918D01*
X110814421Y-148317941D02*
X87522281Y-143367044D01*
X269167784Y-65641053D02*
X273128501Y-84274765D01*
X148049720Y-134175550D02*
X150960484Y-120481483D01*
X342684751Y-127053553D02*
X342684751Y-146103553D01*
X106985715Y-69601771D02*
X103024997Y-88235483D01*
X113466722Y-44838072D02*
X99602969Y-42889649D01*
X273772251Y-103097303D02*
X273772251Y-89097303D01*
X188284893Y-110384803D02*
X188284893Y-129434803D01*
X283153501Y-65141053D02*
X264103501Y-65141053D01*
X38147497Y-143622303D02*
G75*
G03*
X38647535Y-144122303I500003J3D01*
G01*
X34766285Y-86072285D02*
G75*
G03*
X35766285Y-85072303I15J999985D01*
G01*
X130113719Y-149838723D02*
X133024482Y-136144657D01*
X326159751Y-129578553D02*
X340159751Y-129578553D01*
X103024997Y-88235483D02*
X106985715Y-69601771D01*
X299822251Y-24659803D02*
X299822251Y-43709803D01*
X353284752Y-113837928D02*
G75*
G03*
X352184748Y-113837928I-550002J0D01*
G01*
X352184748Y-113837928D02*
G75*
G03*
X353284752Y-113837928I550002J0D01*
G01*
X267752452Y-102311658D02*
X254058385Y-105222421D01*
X90733253Y-85622792D02*
X109366965Y-89583509D01*
X41172535Y-108147303D02*
X55172535Y-108147303D01*
X342684751Y-127053553D02*
X323634751Y-127053553D01*
X36266285Y-48472303D02*
X55316285Y-48472303D01*
X55172535Y-108147303D02*
X55172535Y-122147303D01*
X26741285Y-105622303D02*
X69603785Y-105622303D01*
X358584751Y-104537928D02*
X346034751Y-104537928D01*
X273772251Y-89097303D02*
X287772251Y-89097303D01*
X143287220Y-94212072D02*
X146197984Y-80518006D01*
X87386085Y-82329919D02*
X90296848Y-68635853D01*
X355784751Y-116337928D02*
G75*
G03*
X354684751Y-116337928I-550000J0D01*
G01*
X354684751Y-116337928D02*
G75*
G03*
X355784751Y-116337928I550000J0D01*
G01*
X195246486Y-103410508D02*
X208940552Y-100499744D01*
X64841285Y-86572303D02*
X36266285Y-86572303D01*
X150960484Y-120481483D02*
X164654550Y-123392247D01*
X299678501Y-64997303D02*
X285678501Y-64997303D01*
X202128328Y-62996551D02*
X205039092Y-76690617D01*
X194632936Y-81483924D02*
X213266648Y-77523206D01*
X321253501Y-24659803D02*
X321253501Y-43709803D01*
X69747535Y-103097303D02*
X69747535Y-89097303D01*
X62460035Y-143722303D02*
X62460035Y-124672303D01*
X304728501Y-27184803D02*
X318728501Y-27184803D01*
X191345025Y-79601381D02*
X188434262Y-65907315D01*
X162886850Y-81483924D02*
X158926132Y-100117636D01*
X328253501Y-70047303D02*
X328253501Y-84047303D01*
X146020838Y-119431529D02*
X143110075Y-133125596D01*
X242306515Y-68769182D02*
X228612449Y-71679946D01*
X126421209Y-132159678D02*
X107787497Y-128198960D01*
X109366965Y-89583509D02*
X128000676Y-93544227D01*
X266786534Y-85622792D02*
X270747251Y-104256503D01*
X38791285Y-64997303D02*
X38791285Y-50997303D01*
X340303501Y-48472303D02*
X359353501Y-48472303D01*
X214846116Y-116138657D02*
X210885398Y-97504945D01*
X247246161Y-67719228D02*
X244335397Y-54025161D01*
X249118740Y-106272375D02*
X235424673Y-109183139D01*
X132326772Y-116520765D02*
X146020838Y-119431529D01*
X169234893Y-129434803D02*
X169234893Y-110384803D01*
X52791285Y-64997303D02*
X38791285Y-64997303D01*
X340303501Y-67522303D02*
X302203501Y-67522303D01*
D11*
%TO.C,MountTopMiddle6*%
X357031285Y-89199803D02*
G75*
G03*
X353231285Y-89199803I-1900000J0D01*
G01*
X353231285Y-89199803D02*
G75*
G03*
X357031285Y-89199803I1900000J0D01*
G01*
%TO.C,MountTopMiddle4*%
X270841285Y-127139803D02*
G75*
G03*
X267041285Y-127139803I-1900000J0D01*
G01*
X267041285Y-127139803D02*
G75*
G03*
X270841285Y-127139803I1900000J0D01*
G01*
%TO.C,MountTopMiddle1*%
X58421285Y-45989803D02*
G75*
G03*
X54621285Y-45989803I-1900000J0D01*
G01*
X54621285Y-45989803D02*
G75*
G03*
X58421285Y-45989803I1900000J0D01*
G01*
%TO.C,MountTopMiddle3*%
X180640000Y-83830000D02*
G75*
G03*
X176840000Y-83830000I-1900000J0D01*
G01*
X176840000Y-83830000D02*
G75*
G03*
X180640000Y-83830000I1900000J0D01*
G01*
%TO.C,MountTopMiddle5*%
X302841285Y-46069803D02*
G75*
G03*
X299041285Y-46069803I-1900000J0D01*
G01*
X299041285Y-46069803D02*
G75*
G03*
X302841285Y-46069803I1900000J0D01*
G01*
%TO.C,MountTopMiddle2*%
X90431285Y-127169803D02*
G75*
G03*
X86631285Y-127169803I-1900000J0D01*
G01*
X86631285Y-127169803D02*
G75*
G03*
X90431285Y-127169803I1900000J0D01*
G01*
%TD*%
M02*
