%TF.GenerationSoftware,KiCad,Pcbnew,7.0.10*%
%TF.CreationDate,2024-01-21T02:34:59+01:00*%
%TF.ProjectId,Wonderland,576f6e64-6572-46c6-916e-642e6b696361,rev?*%
%TF.SameCoordinates,Original*%
%TF.FileFunction,Paste,Bot*%
%TF.FilePolarity,Positive*%
%FSLAX46Y46*%
G04 Gerber Fmt 4.6, Leading zero omitted, Abs format (unit mm)*
G04 Created by KiCad (PCBNEW 7.0.10) date 2024-01-21 02:34:59*
%MOMM*%
%LPD*%
G01*
G04 APERTURE LIST*
G04 Aperture macros list*
%AMRoundRect*
0 Rectangle with rounded corners*
0 $1 Rounding radius*
0 $2 $3 $4 $5 $6 $7 $8 $9 X,Y pos of 4 corners*
0 Add a 4 corners polygon primitive as box body*
4,1,4,$2,$3,$4,$5,$6,$7,$8,$9,$2,$3,0*
0 Add four circle primitives for the rounded corners*
1,1,$1+$1,$2,$3*
1,1,$1+$1,$4,$5*
1,1,$1+$1,$6,$7*
1,1,$1+$1,$8,$9*
0 Add four rect primitives between the rounded corners*
20,1,$1+$1,$2,$3,$4,$5,0*
20,1,$1+$1,$4,$5,$6,$7,0*
20,1,$1+$1,$6,$7,$8,$9,0*
20,1,$1+$1,$8,$9,$2,$3,0*%
%AMRotRect*
0 Rectangle, with rotation*
0 The origin of the aperture is its center*
0 $1 length*
0 $2 width*
0 $3 Rotation angle, in degrees counterclockwise*
0 Add horizontal line*
21,1,$1,$2,0,0,$3*%
G04 Aperture macros list end*
%ADD10R,2.300000X2.000000*%
%ADD11R,1.700000X0.820000*%
%ADD12RoundRect,0.205000X-0.645000X-0.205000X0.645000X-0.205000X0.645000X0.205000X-0.645000X0.205000X0*%
%ADD13RotRect,1.700000X0.820000X12.000000*%
%ADD14RoundRect,0.205000X-0.588283X-0.334623X0.673527X-0.066417X0.588283X0.334623X-0.673527X0.066417X0*%
%ADD15RotRect,1.700000X0.820000X352.000000*%
%ADD16RoundRect,0.205000X-0.667253X-0.113238X0.610192X-0.292772X0.667253X0.113238X-0.610192X0.292772X0*%
%ADD17RotRect,1.700000X0.820000X8.000000*%
%ADD18RoundRect,0.205000X-0.610192X-0.292772X0.667253X-0.113238X0.610192X0.292772X-0.667253X0.113238X0*%
%ADD19RotRect,1.700000X0.820000X348.000000*%
%ADD20RoundRect,0.205000X-0.673527X-0.066417X0.588283X-0.334623X0.673527X0.066417X-0.588283X0.334623X0*%
%ADD21RotRect,1.700000X0.820000X353.000000*%
%ADD22RoundRect,0.205000X-0.665175X-0.124866X0.615209X-0.282078X0.665175X0.124866X-0.615209X0.282078X0*%
%ADD23RotRect,2.300000X2.000000X168.000000*%
%ADD24RotRect,2.300000X2.000000X192.000000*%
%ADD25RotRect,1.700000X0.820000X4.000000*%
%ADD26RoundRect,0.205000X-0.629129X-0.249494X0.657729X-0.159508X0.629129X0.249494X-0.657729X0.159508X0*%
%ADD27RotRect,2.300000X2.000000X176.000000*%
%ADD28RotRect,2.300000X2.000000X184.000000*%
%ADD29RotRect,2.300000X2.000000X172.000000*%
%ADD30RotRect,2.300000X2.000000X188.000000*%
%ADD31RotRect,2.300000X2.000000X173.000000*%
%ADD32RotRect,2.300000X2.000000X187.000000*%
%ADD33RotRect,1.700000X0.820000X7.000000*%
%ADD34RoundRect,0.205000X-0.615209X-0.282078X0.665175X-0.124866X0.615209X0.282078X-0.665175X0.124866X0*%
%ADD35RotRect,2.300000X2.000000X175.000000*%
%ADD36RotRect,1.700000X0.820000X5.000000*%
%ADD37RoundRect,0.205000X-0.624679X-0.260435X0.660413X-0.148004X0.624679X0.260435X-0.660413X0.148004X0*%
%ADD38RotRect,2.300000X2.000000X185.000000*%
%ADD39RotRect,1.700000X0.820000X356.000000*%
%ADD40RoundRect,0.205000X-0.657729X-0.159508X0.629129X-0.249494X0.657729X0.159508X-0.629129X0.249494X0*%
%ADD41RotRect,1.700000X0.820000X355.000000*%
%ADD42RoundRect,0.205000X-0.660413X-0.148004X0.624679X-0.260435X0.660413X0.148004X-0.624679X0.260435X0*%
%ADD43RoundRect,0.225000X0.225000X0.375000X-0.225000X0.375000X-0.225000X-0.375000X0.225000X-0.375000X0*%
%ADD44RoundRect,0.225000X0.142116X0.413585X-0.298050X0.320025X-0.142116X-0.413585X0.298050X-0.320025X0*%
%ADD45RoundRect,0.225000X0.375000X-0.225000X0.375000X0.225000X-0.375000X0.225000X-0.375000X-0.225000X0*%
%ADD46RoundRect,0.140000X0.170000X-0.140000X0.170000X0.140000X-0.170000X0.140000X-0.170000X-0.140000X0*%
%ADD47RoundRect,0.225000X0.298050X0.320025X-0.142116X0.413585X-0.298050X-0.320025X0.142116X-0.413585X0*%
%ADD48RoundRect,0.150000X0.150000X-0.587500X0.150000X0.587500X-0.150000X0.587500X-0.150000X-0.587500X0*%
%ADD49RoundRect,0.200000X-0.275000X0.200000X-0.275000X-0.200000X0.275000X-0.200000X0.275000X0.200000X0*%
%ADD50RoundRect,0.250000X-0.625000X0.375000X-0.625000X-0.375000X0.625000X-0.375000X0.625000X0.375000X0*%
%ADD51RoundRect,0.135000X0.185000X-0.135000X0.185000X0.135000X-0.185000X0.135000X-0.185000X-0.135000X0*%
%ADD52RoundRect,0.225000X0.250611X0.358391X-0.198293X0.389782X-0.250611X-0.358391X0.198293X-0.389782X0*%
%ADD53RoundRect,0.140000X0.140000X0.170000X-0.140000X0.170000X-0.140000X-0.170000X0.140000X-0.170000X0*%
%ADD54RoundRect,0.140000X-0.140000X-0.170000X0.140000X-0.170000X0.140000X0.170000X-0.140000X0.170000X0*%
%ADD55RoundRect,0.140000X-0.170000X0.140000X-0.170000X-0.140000X0.170000X-0.140000X0.170000X0.140000X0*%
%ADD56RoundRect,0.150000X0.150000X-0.512500X0.150000X0.512500X-0.150000X0.512500X-0.150000X-0.512500X0*%
%ADD57RoundRect,0.135000X-0.185000X0.135000X-0.185000X-0.135000X0.185000X-0.135000X0.185000X0.135000X0*%
%ADD58RoundRect,0.225000X0.256827X0.353963X-0.191460X0.393183X-0.256827X-0.353963X0.191460X-0.393183X0*%
%ADD59RoundRect,0.225000X0.269024X0.344784X-0.177622X0.399625X-0.269024X-0.344784X0.177622X-0.399625X0*%
%ADD60RoundRect,0.225000X0.170620X0.402664X-0.275000X0.340037X-0.170620X-0.402664X0.275000X-0.340037X0*%
%ADD61RoundRect,0.250000X0.292217X0.292217X-0.292217X0.292217X-0.292217X-0.292217X0.292217X-0.292217X0*%
%ADD62RoundRect,0.050000X0.387500X0.050000X-0.387500X0.050000X-0.387500X-0.050000X0.387500X-0.050000X0*%
%ADD63RoundRect,0.050000X0.050000X0.387500X-0.050000X0.387500X-0.050000X-0.387500X0.050000X-0.387500X0*%
%ADD64RoundRect,0.225000X0.198293X0.389782X-0.250611X0.358391X-0.198293X-0.389782X0.250611X-0.358391X0*%
%ADD65R,1.400000X1.200000*%
%ADD66RoundRect,0.150000X0.650000X0.150000X-0.650000X0.150000X-0.650000X-0.150000X0.650000X-0.150000X0*%
%ADD67RoundRect,0.135000X0.135000X0.185000X-0.135000X0.185000X-0.135000X-0.185000X0.135000X-0.185000X0*%
%ADD68RoundRect,0.225000X0.275000X0.340037X-0.170620X0.402664X-0.275000X-0.340037X0.170620X-0.402664X0*%
%ADD69RoundRect,0.225000X0.191460X0.393183X-0.256827X0.353963X-0.191460X-0.393183X0.256827X-0.353963X0*%
%ADD70RoundRect,0.225000X0.177622X0.399625X-0.269024X0.344784X-0.177622X-0.399625X0.269024X-0.344784X0*%
G04 APERTURE END LIST*
D10*
%TO.C,KD1*%
X69747585Y-93517303D03*
X82447585Y-90977303D03*
%TD*%
D11*
%TO.C,RGBF7*%
X311560000Y-140830000D03*
X311560000Y-142330000D03*
D12*
X316660000Y-142330000D03*
D11*
X316660000Y-140830000D03*
%TD*%
D10*
%TO.C,KB11*%
X266628485Y-53036003D03*
X279328485Y-50496003D03*
%TD*%
D13*
%TO.C,RGBE8*%
X218189790Y-129516564D03*
X218501657Y-130983786D03*
D14*
X223490210Y-129923436D03*
D13*
X223178343Y-128456214D03*
%TD*%
D15*
%TO.C,RGBA3*%
X104394863Y-40783852D03*
X104186104Y-42269254D03*
D16*
X109236471Y-42979036D03*
D15*
X109445230Y-41493634D03*
%TD*%
D13*
%TO.C,RGBC6*%
X204321447Y-93510350D03*
X204633314Y-94977572D03*
D14*
X209621867Y-93917222D03*
D13*
X209310000Y-92450000D03*
%TD*%
D11*
%TO.C,RGBF1*%
X71820000Y-138440000D03*
X71820000Y-139940000D03*
D12*
X76920000Y-139940000D03*
D11*
X76920000Y-138440000D03*
%TD*%
D10*
%TO.C,KD11*%
X273772285Y-93517303D03*
X286472285Y-90977303D03*
%TD*%
D11*
%TO.C,RGBD11*%
X278220000Y-100350000D03*
X278220000Y-101850000D03*
D12*
X283320000Y-101850000D03*
D11*
X283320000Y-100350000D03*
%TD*%
D17*
%TO.C,RGBA10*%
X248080437Y-41492190D03*
X248289196Y-42977592D03*
D18*
X253339563Y-42267810D03*
D17*
X253130804Y-40782408D03*
%TD*%
D10*
%TO.C,KC12*%
X314253485Y-74467303D03*
X326953485Y-71927303D03*
%TD*%
D19*
%TO.C,RGBF3*%
X135041447Y-148069650D03*
X134729580Y-149536872D03*
D20*
X139718133Y-150597222D03*
D19*
X140030000Y-149130000D03*
%TD*%
D21*
%TO.C,RGBA5*%
X145360409Y-48034824D03*
X145177605Y-49523643D03*
D22*
X150239591Y-50145176D03*
D21*
X150422395Y-48656357D03*
%TD*%
D23*
%TO.C,KC4*%
X126645261Y-80880715D03*
X139595831Y-81036699D03*
%TD*%
D24*
%TO.C,KB10*%
X245254354Y-58348561D03*
X257148733Y-53223588D03*
%TD*%
D23*
%TO.C,KE3*%
X112774061Y-116883415D03*
X125724631Y-117039399D03*
%TD*%
D11*
%TO.C,RGBF10*%
X330610000Y-38430000D03*
X330610000Y-39930000D03*
D12*
X335710000Y-39930000D03*
D11*
X335710000Y-38430000D03*
%TD*%
D25*
%TO.C,RGBA11*%
X267863894Y-39289706D03*
X267968529Y-40786052D03*
D26*
X273056106Y-40430294D03*
D25*
X272951471Y-38933948D03*
%TD*%
D13*
%TO.C,RGBB8*%
X213761447Y-72020350D03*
X214073314Y-73487572D03*
D14*
X219061867Y-72427222D03*
D13*
X218750000Y-70960000D03*
%TD*%
D24*
%TO.C,KB9*%
X226620654Y-62309261D03*
X238515033Y-57184288D03*
%TD*%
D13*
%TO.C,RGBA9*%
X228501447Y-45040349D03*
X228813314Y-46507571D03*
D14*
X233801867Y-45447221D03*
D13*
X233490000Y-43979999D03*
%TD*%
D10*
%TO.C,KC1*%
X67366285Y-74467303D03*
X80066285Y-71927303D03*
%TD*%
D27*
%TO.C,KA2*%
X80610776Y-31810420D03*
X93457020Y-30162515D03*
%TD*%
D10*
%TO.C,KF8*%
X326159785Y-133998503D03*
X338859785Y-131458503D03*
%TD*%
D11*
%TO.C,RGBB13*%
X318710000Y-62240000D03*
X318710000Y-63740000D03*
D12*
X323810000Y-63740000D03*
D11*
X323810000Y-62240000D03*
%TD*%
D24*
%TO.C,KA9*%
X222723354Y-39285161D03*
X234617733Y-34160188D03*
%TD*%
D10*
%TO.C,KA12*%
X283297285Y-31604803D03*
X295997285Y-29064803D03*
%TD*%
D24*
%TO.C,KE8*%
X212417954Y-123754961D03*
X224312333Y-118629988D03*
%TD*%
D10*
%TO.C,KF0*%
X43553835Y-131617303D03*
X56253835Y-129077303D03*
%TD*%
%TO.C,KD13*%
X323778535Y-93517303D03*
X336478535Y-90977303D03*
%TD*%
D13*
%TO.C,RGBB10*%
X251031447Y-64100350D03*
X251343314Y-65567572D03*
D14*
X256331867Y-64507222D03*
D13*
X256020000Y-63040000D03*
%TD*%
D10*
%TO.C,KC11*%
X295203485Y-74467303D03*
X307903485Y-71927303D03*
%TD*%
D11*
%TO.C,RGBC1*%
X71820000Y-81300000D03*
X71820000Y-82800000D03*
D12*
X76920000Y-82800000D03*
D11*
X76920000Y-81300000D03*
%TD*%
D28*
%TO.C,KA11*%
X262943093Y-32787050D03*
X275434975Y-29367330D03*
%TD*%
D24*
%TO.C,KD9*%
X233432854Y-99812461D03*
X245327233Y-94687488D03*
%TD*%
D10*
%TO.C,KA13*%
X304728485Y-31604803D03*
X317428485Y-29064803D03*
%TD*%
D23*
%TO.C,KD4*%
X129026561Y-100862415D03*
X141977131Y-101018399D03*
%TD*%
D29*
%TO.C,KA3*%
X100936255Y-33402927D03*
X113866159Y-32655144D03*
%TD*%
D24*
%TO.C,KF4*%
X207061824Y-144369012D03*
X218956203Y-139244039D03*
%TD*%
D11*
%TO.C,RGBD12*%
X297270000Y-100330000D03*
X297270000Y-101830000D03*
D12*
X302370000Y-101830000D03*
D11*
X302370000Y-100330000D03*
%TD*%
%TO.C,RGBB1*%
X62290000Y-62230000D03*
X62290000Y-63730000D03*
D12*
X67390000Y-63730000D03*
D11*
X67390000Y-62230000D03*
%TD*%
D10*
%TO.C,KF10*%
X326159785Y-31604803D03*
X338859785Y-29064803D03*
%TD*%
%TO.C,KB2*%
X76891285Y-53036003D03*
X89591285Y-50496003D03*
%TD*%
D30*
%TO.C,KA10*%
X242719769Y-35351303D03*
X254942674Y-31068523D03*
%TD*%
D11*
%TO.C,RGBB0*%
X43240000Y-62250000D03*
X43240000Y-63750000D03*
D12*
X48340000Y-63750000D03*
D11*
X48340000Y-62250000D03*
%TD*%
D10*
%TO.C,KB0*%
X38791285Y-55417303D03*
X51491285Y-52877303D03*
%TD*%
D23*
%TO.C,KB6*%
X154472461Y-67319915D03*
X167423031Y-67475899D03*
%TD*%
D31*
%TO.C,KA5*%
X141784181Y-40717856D03*
X154699066Y-39744530D03*
%TD*%
D19*
%TO.C,RGBD4*%
X131961447Y-108459650D03*
X131649580Y-109926872D03*
D20*
X136638133Y-110987222D03*
D19*
X136950000Y-109520000D03*
%TD*%
D23*
%TO.C,KB4*%
X117205061Y-59398515D03*
X130155631Y-59554499D03*
%TD*%
D10*
%TO.C,KE6*%
X171759885Y-136379803D03*
X184459885Y-133839803D03*
%TD*%
D24*
%TO.C,KC7*%
X217180454Y-83791461D03*
X229074833Y-78666488D03*
%TD*%
%TO.C,KC6*%
X198546754Y-87752161D03*
X210441133Y-82627188D03*
%TD*%
D19*
%TO.C,RGBE5*%
X152971447Y-132419650D03*
X152659580Y-133886872D03*
D20*
X157648133Y-134947222D03*
D19*
X157960000Y-133480000D03*
%TD*%
D10*
%TO.C,KE11*%
X271390985Y-112567303D03*
X284090985Y-110027303D03*
%TD*%
D11*
%TO.C,RGBF6*%
X280610000Y-138450000D03*
X280610000Y-139950000D03*
D12*
X285710000Y-139950000D03*
D11*
X285710000Y-138450000D03*
%TD*%
D32*
%TO.C,KA8*%
X201839947Y-42424016D03*
X214135735Y-38355208D03*
%TD*%
D13*
%TO.C,RGBD7*%
X201941447Y-113490350D03*
X202253314Y-114957572D03*
D14*
X207241867Y-113897222D03*
D13*
X206930000Y-112430000D03*
%TD*%
D19*
%TO.C,RGBB6*%
X157401657Y-74926214D03*
X157089790Y-76393436D03*
D20*
X162078343Y-77453786D03*
D19*
X162390210Y-75986564D03*
%TD*%
D23*
%TO.C,KE4*%
X131407761Y-120844215D03*
X144358331Y-121000199D03*
%TD*%
D10*
%TO.C,KF11*%
X345209785Y-31604803D03*
X357909785Y-29064803D03*
%TD*%
D23*
%TO.C,KC3*%
X108011561Y-76920015D03*
X120962131Y-77075999D03*
%TD*%
%TO.C,KB3*%
X98571361Y-55437815D03*
X111521931Y-55593799D03*
%TD*%
D11*
%TO.C,RGBF11*%
X349660000Y-38440000D03*
X349660000Y-39940000D03*
D12*
X354760000Y-39940000D03*
D11*
X354760000Y-38440000D03*
%TD*%
D24*
%TO.C,KD7*%
X196165454Y-107733961D03*
X208059833Y-102608988D03*
%TD*%
D11*
%TO.C,RGBF8*%
X330610000Y-140820000D03*
X330610000Y-142320000D03*
D12*
X335710000Y-142320000D03*
D11*
X335710000Y-140820000D03*
%TD*%
D19*
%TO.C,RGBE3*%
X115701657Y-124486214D03*
X115389790Y-125953436D03*
D20*
X120378343Y-127013786D03*
D19*
X120690210Y-125546564D03*
%TD*%
D11*
%TO.C,RGBD1*%
X74200000Y-100350000D03*
X74200000Y-101850000D03*
D12*
X79300000Y-101850000D03*
D11*
X79300000Y-100350000D03*
%TD*%
D13*
%TO.C,RGBF5*%
X254761447Y-141210350D03*
X255073314Y-142677572D03*
D14*
X260061867Y-141617222D03*
D13*
X259750000Y-140150000D03*
%TD*%
D11*
%TO.C,RGBB11*%
X271080000Y-59870000D03*
X271080000Y-61370000D03*
D12*
X276180000Y-61370000D03*
D11*
X276180000Y-59870000D03*
%TD*%
%TO.C,RGBE11*%
X275840000Y-119400000D03*
X275840000Y-120900000D03*
D12*
X280940000Y-120900000D03*
D11*
X280940000Y-119400000D03*
%TD*%
D13*
%TO.C,RGBB7*%
X195131447Y-75990350D03*
X195443314Y-77457572D03*
D14*
X200431867Y-76397222D03*
D13*
X200120000Y-74930000D03*
%TD*%
D23*
%TO.C,KD2*%
X91759161Y-92941015D03*
X104709731Y-93096999D03*
%TD*%
D10*
%TO.C,KD6*%
X171759885Y-117329803D03*
X184459885Y-114789803D03*
%TD*%
%TO.C,KF7*%
X307109785Y-133998503D03*
X319809785Y-131458503D03*
%TD*%
D11*
%TO.C,RGBE12*%
X302040000Y-119400000D03*
X302040000Y-120900000D03*
D12*
X307140000Y-120900000D03*
D11*
X307140000Y-119400000D03*
%TD*%
%TO.C,RGBA13*%
X309180000Y-38430000D03*
X309180000Y-39930000D03*
D12*
X314280000Y-39930000D03*
D11*
X314280000Y-38430000D03*
%TD*%
D13*
%TO.C,RGBB9*%
X232399790Y-68066564D03*
X232711657Y-69533786D03*
D14*
X237700210Y-68473436D03*
D13*
X237388343Y-67006214D03*
%TD*%
D11*
%TO.C,RGBE13*%
X330610000Y-121780000D03*
X330610000Y-123280000D03*
D12*
X335710000Y-123280000D03*
D11*
X335710000Y-121780000D03*
%TD*%
D23*
%TO.C,KC2*%
X89377861Y-72959215D03*
X102328431Y-73115199D03*
%TD*%
D10*
%TO.C,KE12*%
X297584735Y-112567303D03*
X310284735Y-110027303D03*
%TD*%
%TO.C,KC13*%
X338065985Y-74467303D03*
X350765985Y-71927303D03*
%TD*%
D11*
%TO.C,RGBC10*%
X280600000Y-81290000D03*
X280600000Y-82790000D03*
D12*
X285700000Y-82790000D03*
D11*
X285700000Y-81290000D03*
%TD*%
D13*
%TO.C,RGBF4*%
X212831447Y-150120350D03*
X213143314Y-151587572D03*
D14*
X218131867Y-150527222D03*
D13*
X217820000Y-149060000D03*
%TD*%
%TO.C,RGBD9*%
X239201447Y-105560350D03*
X239513314Y-107027572D03*
D14*
X244501867Y-105967222D03*
D13*
X244190000Y-104500000D03*
%TD*%
D23*
%TO.C,KE5*%
X150041561Y-124804915D03*
X162992131Y-124960899D03*
%TD*%
D11*
%TO.C,RGBC0*%
X48000000Y-81300000D03*
X48000000Y-82800000D03*
D12*
X53100000Y-82800000D03*
D11*
X53100000Y-81300000D03*
%TD*%
%TO.C,RGBC11*%
X299660000Y-81300000D03*
X299660000Y-82800000D03*
D12*
X304760000Y-82800000D03*
D11*
X304760000Y-81300000D03*
%TD*%
D33*
%TO.C,RGBA8*%
X207087605Y-48656357D03*
X207270409Y-50145176D03*
D34*
X212332395Y-49523643D03*
D33*
X212149591Y-48034824D03*
%TD*%
D23*
%TO.C,KC5*%
X145279061Y-84841415D03*
X158229631Y-84997399D03*
%TD*%
D24*
%TO.C,KC8*%
X235814154Y-79830761D03*
X247708533Y-74705788D03*
%TD*%
D23*
%TO.C,KA4*%
X121102361Y-36374415D03*
X134052931Y-36530399D03*
%TD*%
D11*
%TO.C,RGBA1*%
X64670000Y-38430000D03*
X64670000Y-39930000D03*
D12*
X69770000Y-39930000D03*
D11*
X69770000Y-38430000D03*
%TD*%
%TO.C,RGBC13*%
X342520000Y-81290000D03*
X342520000Y-82790000D03*
D12*
X347620000Y-82790000D03*
D11*
X347620000Y-81290000D03*
%TD*%
D13*
%TO.C,RGBD10*%
X257841447Y-101600350D03*
X258153314Y-103067572D03*
D14*
X263141867Y-102007222D03*
D13*
X262830000Y-100540000D03*
%TD*%
D10*
%TO.C,KD0*%
X43553835Y-93517303D03*
X56253835Y-90977303D03*
%TD*%
D35*
%TO.C,KA6*%
X161442480Y-42977143D03*
X174315528Y-41553687D03*
%TD*%
D11*
%TO.C,RGBF12*%
X347280000Y-62250000D03*
X347280000Y-63750000D03*
D12*
X352380000Y-63750000D03*
D11*
X352380000Y-62250000D03*
%TD*%
D10*
%TO.C,KD12*%
X292822285Y-93517303D03*
X305522285Y-90977303D03*
%TD*%
D36*
%TO.C,RGBA7*%
X187159407Y-50614493D03*
X187290140Y-52108785D03*
D37*
X192370733Y-51664291D03*
D36*
X192240000Y-50169999D03*
%TD*%
D10*
%TO.C,KB12*%
X285678485Y-55417303D03*
X298378485Y-52877303D03*
%TD*%
D23*
%TO.C,KF2*%
X94838075Y-132546605D03*
X107788645Y-132702588D03*
%TD*%
D10*
%TO.C,KA0*%
X38791285Y-31604803D03*
X51491285Y-29064803D03*
%TD*%
%TO.C,KF12*%
X342828485Y-55417303D03*
X355528485Y-52877303D03*
%TD*%
D13*
%TO.C,RGBE9*%
X236819790Y-125546564D03*
X237131657Y-127013786D03*
D14*
X242120210Y-125953436D03*
D13*
X241808343Y-124486214D03*
%TD*%
D24*
%TO.C,KB7*%
X189353254Y-70230761D03*
X201247633Y-65105788D03*
%TD*%
D10*
%TO.C,KE0*%
X41172535Y-112567303D03*
X53872535Y-110027303D03*
%TD*%
D24*
%TO.C,KB8*%
X207986954Y-66269961D03*
X219881333Y-61144988D03*
%TD*%
D11*
%TO.C,RGBE1*%
X76590000Y-119400000D03*
X76590000Y-120900000D03*
D12*
X81690000Y-120900000D03*
D11*
X81690000Y-119400000D03*
%TD*%
D24*
%TO.C,KC9*%
X254447854Y-75870061D03*
X266342233Y-70745088D03*
%TD*%
D19*
%TO.C,RGBC2*%
X92311657Y-80566214D03*
X91999790Y-82033436D03*
D20*
X96988343Y-83093786D03*
D19*
X97300210Y-81626564D03*
%TD*%
D10*
%TO.C,KB13*%
X314253485Y-55417303D03*
X326953485Y-52877303D03*
%TD*%
D23*
%TO.C,KB5*%
X135838761Y-63359215D03*
X148789331Y-63515199D03*
%TD*%
D10*
%TO.C,KE1*%
X72128785Y-112567303D03*
X84828785Y-110027303D03*
%TD*%
D19*
%TO.C,RGBC5*%
X148211657Y-92446214D03*
X147899790Y-93913436D03*
D20*
X152888343Y-94973786D03*
D19*
X153200210Y-93506564D03*
%TD*%
D10*
%TO.C,KC0*%
X43553785Y-74467303D03*
X56253785Y-71927303D03*
%TD*%
D38*
%TO.C,KA7*%
X182130573Y-44197307D03*
X194560870Y-40560094D03*
%TD*%
D13*
%TO.C,RGBD8*%
X220569790Y-109526564D03*
X220881657Y-110993786D03*
D14*
X225870210Y-109933436D03*
D13*
X225558343Y-108466214D03*
%TD*%
D23*
%TO.C,KF3*%
X132105559Y-140468043D03*
X145056129Y-140624027D03*
%TD*%
D19*
%TO.C,RGBB3*%
X101501657Y-63036214D03*
X101189790Y-64503436D03*
D20*
X106178343Y-65563786D03*
D19*
X106490210Y-64096564D03*
%TD*%
D11*
%TO.C,RGBF0*%
X48010000Y-138430000D03*
X48010000Y-139930000D03*
D12*
X53110000Y-139930000D03*
D11*
X53110000Y-138430000D03*
%TD*%
%TO.C,RGBA0*%
X43230000Y-38430000D03*
X43230000Y-39930000D03*
D12*
X48330000Y-39930000D03*
D11*
X48330000Y-38430000D03*
%TD*%
D10*
%TO.C,KF9*%
X345209785Y-133998503D03*
X357909785Y-131458503D03*
%TD*%
D11*
%TO.C,RGBE0*%
X45620000Y-119400000D03*
X45620000Y-120900000D03*
D12*
X50720000Y-120900000D03*
D11*
X50720000Y-119400000D03*
%TD*%
D19*
%TO.C,RGBC3*%
X110941447Y-84529650D03*
X110629580Y-85996872D03*
D20*
X115618133Y-87057222D03*
D19*
X115930000Y-85590000D03*
%TD*%
D23*
%TO.C,KD3*%
X110392861Y-96901715D03*
X123343431Y-97057699D03*
%TD*%
%TO.C,KE2*%
X94140361Y-112922715D03*
X107090931Y-113078699D03*
%TD*%
D24*
%TO.C,KF5*%
X248987668Y-135457371D03*
X260882047Y-130332398D03*
%TD*%
D19*
%TO.C,RGBE4*%
X134341657Y-128446214D03*
X134029790Y-129913436D03*
D20*
X139018343Y-130973786D03*
D19*
X139330210Y-129506564D03*
%TD*%
D24*
%TO.C,KD8*%
X214799154Y-103773161D03*
X226693533Y-98648188D03*
%TD*%
D23*
%TO.C,KD5*%
X147660261Y-104823115D03*
X160610831Y-104979099D03*
%TD*%
D11*
%TO.C,RGBC12*%
X318710000Y-81300000D03*
X318710000Y-82800000D03*
D12*
X323810000Y-82800000D03*
D11*
X323810000Y-81300000D03*
%TD*%
%TO.C,RGBF9*%
X349660000Y-140830000D03*
X349660000Y-142330000D03*
D12*
X354760000Y-142330000D03*
D11*
X354760000Y-140830000D03*
%TD*%
%TO.C,RGBD0*%
X48000000Y-100350000D03*
X48000000Y-101850000D03*
D12*
X53100000Y-101850000D03*
D11*
X53100000Y-100350000D03*
%TD*%
D13*
%TO.C,RGBC7*%
X222949790Y-89546564D03*
X223261657Y-91013786D03*
D14*
X228250210Y-89953436D03*
D13*
X227938343Y-88486214D03*
%TD*%
%TO.C,RGBE10*%
X255459790Y-121586564D03*
X255771657Y-123053786D03*
D14*
X260760210Y-121993436D03*
D13*
X260448343Y-120526214D03*
%TD*%
D10*
%TO.C,KC10*%
X276153485Y-74467303D03*
X288853485Y-71927303D03*
%TD*%
D11*
%TO.C,RGBA12*%
X287740000Y-38430000D03*
X287740000Y-39930000D03*
D12*
X292840000Y-39930000D03*
D11*
X292840000Y-38430000D03*
%TD*%
D13*
%TO.C,RGBC9*%
X260219790Y-81626564D03*
X260531657Y-83093786D03*
D14*
X265520210Y-82033436D03*
D13*
X265208343Y-80566214D03*
%TD*%
D39*
%TO.C,RGBA2*%
X84558888Y-38924134D03*
X84454253Y-40420480D03*
D40*
X89541830Y-40776238D03*
D39*
X89646465Y-39279892D03*
%TD*%
D19*
%TO.C,RGBB4*%
X120141447Y-67009650D03*
X119829580Y-68476872D03*
D20*
X124818133Y-69537222D03*
D19*
X125130000Y-68070000D03*
%TD*%
D13*
%TO.C,RGBC8*%
X241591447Y-85580350D03*
X241903314Y-87047572D03*
D14*
X246891867Y-85987222D03*
D13*
X246580000Y-84520000D03*
%TD*%
D19*
%TO.C,RGBB5*%
X138771447Y-70969650D03*
X138459580Y-72436872D03*
D20*
X143448133Y-73497222D03*
D19*
X143760000Y-72030000D03*
%TD*%
D11*
%TO.C,RGBB2*%
X81340000Y-59860000D03*
X81340000Y-61360000D03*
D12*
X86440000Y-61360000D03*
D11*
X86440000Y-59860000D03*
%TD*%
D10*
%TO.C,KA1*%
X60222585Y-31604803D03*
X72922585Y-29064803D03*
%TD*%
D19*
%TO.C,RGBF2*%
X97771447Y-140149650D03*
X97459580Y-141616872D03*
D20*
X102448133Y-142677222D03*
D19*
X102760000Y-141210000D03*
%TD*%
D24*
%TO.C,KE9*%
X231051654Y-119794261D03*
X242946033Y-114669288D03*
%TD*%
D13*
%TO.C,RGBE7*%
X199559790Y-133466564D03*
X199871657Y-134933786D03*
D14*
X204860210Y-133873436D03*
D13*
X204548343Y-132406214D03*
%TD*%
D19*
%TO.C,RGBD5*%
X150591447Y-112429650D03*
X150279580Y-113896872D03*
D20*
X155268133Y-114957222D03*
D19*
X155580000Y-113490000D03*
%TD*%
D11*
%TO.C,RGBB12*%
X290140000Y-62250000D03*
X290140000Y-63750000D03*
D12*
X295240000Y-63750000D03*
D11*
X295240000Y-62250000D03*
%TD*%
D41*
%TO.C,RGBA6*%
X165285070Y-50170607D03*
X165154337Y-51664899D03*
D42*
X170234930Y-52109393D03*
D41*
X170365663Y-50615101D03*
%TD*%
D11*
%TO.C,RGBD13*%
X328230000Y-100340000D03*
X328230000Y-101840000D03*
D12*
X333330000Y-101840000D03*
D11*
X333330000Y-100340000D03*
%TD*%
D19*
%TO.C,RGBD2*%
X94701447Y-100549650D03*
X94389580Y-102016872D03*
D20*
X99378133Y-103077222D03*
D19*
X99690000Y-101610000D03*
%TD*%
D11*
%TO.C,RGBE6*%
X176205000Y-143200000D03*
X176205000Y-144700000D03*
D12*
X181305000Y-144700000D03*
D11*
X181305000Y-143200000D03*
%TD*%
%TO.C,RGBD6*%
X176210000Y-124160000D03*
X176210000Y-125660000D03*
D12*
X181310000Y-125660000D03*
D11*
X181310000Y-124160000D03*
%TD*%
D24*
%TO.C,KE10*%
X249685354Y-115833461D03*
X261579733Y-110708488D03*
%TD*%
D19*
%TO.C,RGBA4*%
X124041657Y-43976214D03*
X123729790Y-45443436D03*
D20*
X128718343Y-46503786D03*
D19*
X129030210Y-45036564D03*
%TD*%
%TO.C,RGBD3*%
X113321447Y-104499650D03*
X113009580Y-105966872D03*
D20*
X117998133Y-107027222D03*
D19*
X118310000Y-105560000D03*
%TD*%
D10*
%TO.C,KF6*%
X276153535Y-131617303D03*
X288853535Y-129077303D03*
%TD*%
%TO.C,KB1*%
X57841285Y-55417303D03*
X70541285Y-52877303D03*
%TD*%
D24*
%TO.C,KD10*%
X252066554Y-95851761D03*
X263960933Y-90726788D03*
%TD*%
D10*
%TO.C,KF1*%
X67366335Y-131617303D03*
X80066335Y-129077303D03*
%TD*%
D19*
%TO.C,RGBE2*%
X97071657Y-120526214D03*
X96759790Y-121993436D03*
D20*
X101748343Y-123053786D03*
D19*
X102060210Y-121586564D03*
%TD*%
D10*
%TO.C,KE13*%
X326159785Y-114948503D03*
X338859785Y-112408503D03*
%TD*%
D24*
%TO.C,KE7*%
X193784254Y-127715661D03*
X205678633Y-122590688D03*
%TD*%
D19*
%TO.C,RGBC4*%
X129581657Y-88486214D03*
X129269790Y-89953436D03*
D20*
X134258343Y-91013786D03*
D19*
X134570210Y-89546564D03*
%TD*%
D43*
%TO.C,DC0*%
X56930000Y-68760000D03*
X53630000Y-68760000D03*
%TD*%
%TO.C,DC11*%
X306387500Y-68790000D03*
X303087500Y-68790000D03*
%TD*%
%TO.C,DE1*%
X85500000Y-106880000D03*
X82200000Y-106880000D03*
%TD*%
%TO.C,DC10*%
X289490000Y-68790000D03*
X286190000Y-68790000D03*
%TD*%
D44*
%TO.C,DD10*%
X263933944Y-87526946D03*
X260706056Y-88213054D03*
%TD*%
D43*
%TO.C,DE11*%
X284780000Y-106880000D03*
X281480000Y-106880000D03*
%TD*%
D45*
%TO.C,DF12*%
X358080000Y-56220000D03*
X358080000Y-52920000D03*
%TD*%
D43*
%TO.C,DB11*%
X280020000Y-47370000D03*
X276720000Y-47370000D03*
%TD*%
%TO.C,DA13*%
X318097500Y-25930000D03*
X314797500Y-25930000D03*
%TD*%
D46*
%TO.C,C8*%
X177330000Y-58770000D03*
X177330000Y-57810000D03*
%TD*%
D47*
%TO.C,DC5*%
X159543944Y-82043054D03*
X156316056Y-81356946D03*
%TD*%
D48*
%TO.C,U1*%
X176870000Y-53130000D03*
X174970000Y-53130000D03*
X175920000Y-51255000D03*
%TD*%
D43*
%TO.C,DB0*%
X52150000Y-49730000D03*
X48850000Y-49730000D03*
%TD*%
D44*
%TO.C,DC9*%
X266303944Y-67526946D03*
X263076056Y-68213054D03*
%TD*%
%TO.C,DD8*%
X226673944Y-95446946D03*
X223446056Y-96133054D03*
%TD*%
D43*
%TO.C,DF7*%
X320477500Y-128320000D03*
X317177500Y-128320000D03*
%TD*%
D44*
%TO.C,DD9*%
X245273944Y-91486946D03*
X242046056Y-92173054D03*
%TD*%
D49*
%TO.C,R4*%
X178090000Y-54915000D03*
X178090000Y-56565000D03*
%TD*%
D50*
%TO.C,F1*%
X175910000Y-46680000D03*
X175910000Y-49480000D03*
%TD*%
D43*
%TO.C,DF9*%
X345220000Y-125770000D03*
X341920000Y-125770000D03*
%TD*%
D51*
%TO.C,R1*%
X176890000Y-42170000D03*
X176890000Y-41150000D03*
%TD*%
D52*
%TO.C,DA2*%
X94340000Y-27110000D03*
X91048038Y-26879804D03*
%TD*%
D44*
%TO.C,DB7*%
X201243944Y-61876946D03*
X198016056Y-62563054D03*
%TD*%
D51*
%TO.C,R2*%
X180620000Y-42190000D03*
X180620000Y-41170000D03*
%TD*%
D43*
%TO.C,DE12*%
X310920000Y-106900000D03*
X307620000Y-106900000D03*
%TD*%
D53*
%TO.C,C12*%
X174520000Y-65262500D03*
X173560000Y-65262500D03*
%TD*%
D46*
%TO.C,C10*%
X176314000Y-58770000D03*
X176314000Y-57810000D03*
%TD*%
D47*
%TO.C,DD5*%
X161893944Y-102043054D03*
X158666056Y-101356946D03*
%TD*%
D44*
%TO.C,DE8*%
X224323944Y-115436946D03*
X221096056Y-116123054D03*
%TD*%
%TO.C,DB9*%
X238483944Y-53936946D03*
X235256056Y-54623054D03*
%TD*%
D53*
%TO.C,C4*%
X175930000Y-55711000D03*
X174970000Y-55711000D03*
%TD*%
D46*
%TO.C,C9*%
X179612000Y-58770000D03*
X179612000Y-57810000D03*
%TD*%
D47*
%TO.C,DE4*%
X145657888Y-118056108D03*
X142430000Y-117370000D03*
%TD*%
D54*
%TO.C,C1*%
X173230000Y-49610000D03*
X174190000Y-49610000D03*
%TD*%
D43*
%TO.C,DD12*%
X306197500Y-87810000D03*
X302897500Y-87810000D03*
%TD*%
D55*
%TO.C,C14*%
X179133500Y-71370750D03*
X179133500Y-72330750D03*
%TD*%
D43*
%TO.C,DB2*%
X90270000Y-47360000D03*
X86970000Y-47360000D03*
%TD*%
D47*
%TO.C,DC3*%
X122243944Y-74133054D03*
X119016056Y-73446946D03*
%TD*%
D54*
%TO.C,C11*%
X185520000Y-61660000D03*
X186480000Y-61660000D03*
%TD*%
D56*
%TO.C,U4*%
X179700000Y-49187500D03*
X178750000Y-49187500D03*
X177800000Y-49187500D03*
X177800000Y-46912500D03*
X178750000Y-46912500D03*
X179700000Y-46912500D03*
%TD*%
D47*
%TO.C,DA4*%
X135367888Y-33616108D03*
X132140000Y-32930000D03*
%TD*%
D44*
%TO.C,DC7*%
X229053944Y-75466946D03*
X225826056Y-76153054D03*
%TD*%
D55*
%TO.C,C7*%
X177609500Y-71370750D03*
X177609500Y-72330750D03*
%TD*%
D47*
%TO.C,DE2*%
X108393944Y-110153054D03*
X105166056Y-109466946D03*
%TD*%
D43*
%TO.C,DC13*%
X351447500Y-68740000D03*
X348147500Y-68740000D03*
%TD*%
%TO.C,DF6*%
X289520000Y-125930000D03*
X286220000Y-125930000D03*
%TD*%
%TO.C,DB12*%
X299057500Y-49730000D03*
X295757500Y-49730000D03*
%TD*%
D57*
%TO.C,R0*%
X197939999Y-55369999D03*
X197939999Y-56389999D03*
%TD*%
D43*
%TO.C,DD11*%
X287100000Y-87820000D03*
X283800000Y-87820000D03*
%TD*%
%TO.C,DB13*%
X327610000Y-49749999D03*
X324310000Y-49749999D03*
%TD*%
D44*
%TO.C,DE9*%
X242933944Y-111456946D03*
X239706056Y-112143054D03*
%TD*%
D47*
%TO.C,DD2*%
X106023944Y-90173054D03*
X102796056Y-89486946D03*
%TD*%
D43*
%TO.C,DD6*%
X185117500Y-111650000D03*
X181817500Y-111650000D03*
%TD*%
%TO.C,DF0*%
X56900000Y-125960000D03*
X53600000Y-125960000D03*
%TD*%
%TO.C,DA0*%
X52177500Y-25940000D03*
X48877500Y-25940000D03*
%TD*%
D47*
%TO.C,DC2*%
X103623944Y-70213054D03*
X100396056Y-69526946D03*
%TD*%
%TO.C,DB4*%
X131463944Y-56603054D03*
X128236056Y-55916946D03*
%TD*%
%TO.C,DB3*%
X112833944Y-52683054D03*
X109606056Y-51996946D03*
%TD*%
%TO.C,DD3*%
X124683944Y-94133054D03*
X121456056Y-93446946D03*
%TD*%
D46*
%TO.C,C6*%
X180442000Y-58770000D03*
X180442000Y-57810000D03*
%TD*%
D44*
%TO.C,DA9*%
X234623944Y-30966946D03*
X231396056Y-31653054D03*
%TD*%
D43*
%TO.C,DD0*%
X56867500Y-87850000D03*
X53567500Y-87850000D03*
%TD*%
D44*
%TO.C,DD7*%
X208047888Y-99383892D03*
X204820000Y-100070000D03*
%TD*%
D47*
%TO.C,DB5*%
X150093944Y-60563054D03*
X146866056Y-59876946D03*
%TD*%
D44*
%TO.C,DF5*%
X260853944Y-127126946D03*
X257626056Y-127813054D03*
%TD*%
D47*
%TO.C,DE3*%
X127033944Y-114113054D03*
X123806056Y-113426946D03*
%TD*%
%TO.C,DE5*%
X164313944Y-121993054D03*
X161086056Y-121306946D03*
%TD*%
D43*
%TO.C,DF13*%
X345117500Y-109280000D03*
X341817500Y-109280000D03*
%TD*%
D44*
%TO.C,DB8*%
X219843944Y-57926946D03*
X216616056Y-58613054D03*
%TD*%
D58*
%TO.C,DA6*%
X165907777Y-37763807D03*
X162620335Y-37476193D03*
%TD*%
D53*
%TO.C,C5*%
X187390001Y-56379998D03*
X186430001Y-56379998D03*
%TD*%
D43*
%TO.C,DF1*%
X80710000Y-125940000D03*
X77410000Y-125940000D03*
%TD*%
D55*
%TO.C,C2*%
X185737500Y-75196518D03*
X185737500Y-76156518D03*
%TD*%
D43*
%TO.C,DE13*%
X339510000Y-109250000D03*
X336210000Y-109250000D03*
%TD*%
D53*
%TO.C,C15*%
X174520000Y-61020000D03*
X173560000Y-61020000D03*
%TD*%
D43*
%TO.C,DA12*%
X296717500Y-25920000D03*
X293417500Y-25920000D03*
%TD*%
D54*
%TO.C,C17*%
X174970000Y-54695000D03*
X175930000Y-54695000D03*
%TD*%
D46*
%TO.C,C3*%
X179034750Y-75902518D03*
X179034750Y-74942518D03*
%TD*%
D43*
%TO.C,DE6*%
X185120000Y-130710000D03*
X181820000Y-130710000D03*
%TD*%
D59*
%TO.C,DA5*%
X155757701Y-36741084D03*
X152482299Y-36338916D03*
%TD*%
D49*
%TO.C,R3*%
X179540000Y-54920000D03*
X179540000Y-56570000D03*
%TD*%
D47*
%TO.C,DC4*%
X140893944Y-78083054D03*
X137666056Y-77396946D03*
%TD*%
%TO.C,DB6*%
X168713944Y-64513054D03*
X165486056Y-63826946D03*
%TD*%
D43*
%TO.C,DD13*%
X337170000Y-87840000D03*
X333870000Y-87840000D03*
%TD*%
D44*
%TO.C,DE7*%
X205663944Y-119356946D03*
X202436056Y-120043054D03*
%TD*%
D60*
%TO.C,DA10*%
X255173942Y-27880364D03*
X251906058Y-28339636D03*
%TD*%
D61*
%TO.C,U3*%
X180660000Y-64900000D03*
X180660000Y-63625000D03*
X179385000Y-64900000D03*
X179385000Y-63625000D03*
D62*
X183460000Y-61662500D03*
X183460000Y-62062500D03*
X183460000Y-62462500D03*
X183460000Y-62862500D03*
X183460000Y-63262500D03*
X183460000Y-63662500D03*
X183460000Y-64062500D03*
X183460000Y-64462500D03*
X183460000Y-64862500D03*
X183460000Y-65262500D03*
X183460000Y-65662500D03*
X183460000Y-66062500D03*
X183460000Y-66462500D03*
X183460000Y-66862500D03*
D63*
X182622500Y-67700000D03*
X182222500Y-67700000D03*
X181822500Y-67700000D03*
X181422500Y-67700000D03*
X181022500Y-67700000D03*
X180622500Y-67700000D03*
X180222500Y-67700000D03*
X179822500Y-67700000D03*
X179422500Y-67700000D03*
X179022500Y-67700000D03*
X178622500Y-67700000D03*
X178222500Y-67700000D03*
X177822500Y-67700000D03*
X177422500Y-67700000D03*
D62*
X176585000Y-66862500D03*
X176585000Y-66462500D03*
X176585000Y-66062500D03*
X176585000Y-65662500D03*
X176585000Y-65262500D03*
X176585000Y-64862500D03*
X176585000Y-64462500D03*
X176585000Y-64062500D03*
X176585000Y-63662500D03*
X176585000Y-63262500D03*
X176585000Y-62862500D03*
X176585000Y-62462500D03*
X176585000Y-62062500D03*
X176585000Y-61662500D03*
D63*
X177422500Y-60825000D03*
X177822500Y-60825000D03*
X178222500Y-60825000D03*
X178622500Y-60825000D03*
X179022500Y-60825000D03*
X179422500Y-60825000D03*
X179822500Y-60825000D03*
X180222500Y-60825000D03*
X180622500Y-60825000D03*
X181022500Y-60825000D03*
X181422500Y-60825000D03*
X181822500Y-60825000D03*
X182222500Y-60825000D03*
X182622500Y-60825000D03*
%TD*%
D43*
%TO.C,DD1*%
X83110000Y-87830000D03*
X79810000Y-87830000D03*
%TD*%
D64*
%TO.C,DA11*%
X275888725Y-26204902D03*
X272596763Y-26435098D03*
%TD*%
D65*
%TO.C,Y1*%
X181208500Y-74556750D03*
X183408500Y-74556750D03*
X183408500Y-76256750D03*
X181208500Y-76256750D03*
%TD*%
D44*
%TO.C,DC8*%
X247693944Y-71506946D03*
X244466056Y-72193054D03*
%TD*%
D66*
%TO.C,U2*%
X196240000Y-56375000D03*
X196240000Y-57645000D03*
X196240000Y-58915000D03*
X196240000Y-60185000D03*
X189040000Y-60185000D03*
X189040000Y-58915000D03*
X189040000Y-57645000D03*
X189040000Y-56375000D03*
%TD*%
D67*
%TO.C,R6*%
X173960000Y-70680000D03*
X172940000Y-70680000D03*
%TD*%
D44*
%TO.C,DC6*%
X210433944Y-79426946D03*
X207206056Y-80113054D03*
%TD*%
D43*
%TO.C,DC12*%
X327660000Y-68770000D03*
X324360000Y-68770000D03*
%TD*%
%TO.C,DB1*%
X71220000Y-49750000D03*
X67920000Y-49750000D03*
%TD*%
D47*
%TO.C,DD4*%
X143313944Y-98083054D03*
X140086056Y-97396946D03*
%TD*%
D54*
%TO.C,C13*%
X185520000Y-65260000D03*
X186480000Y-65260000D03*
%TD*%
D43*
%TO.C,DA1*%
X73607500Y-25950000D03*
X70307500Y-25950000D03*
%TD*%
D47*
%TO.C,DF2*%
X109103944Y-129793054D03*
X105876056Y-129106946D03*
%TD*%
D43*
%TO.C,DE0*%
X54540000Y-106900000D03*
X51240000Y-106900000D03*
%TD*%
%TO.C,DF11*%
X358600000Y-25940000D03*
X355300000Y-25940000D03*
%TD*%
D68*
%TO.C,DA3*%
X114993942Y-29659636D03*
X111726058Y-29200364D03*
%TD*%
D44*
%TO.C,DF4*%
X218933944Y-136036946D03*
X215706056Y-136723054D03*
%TD*%
D69*
%TO.C,DA7*%
X194977777Y-37386193D03*
X191690335Y-37673807D03*
%TD*%
D44*
%TO.C,DB10*%
X257143944Y-49986946D03*
X253916056Y-50673054D03*
%TD*%
D47*
%TO.C,DF3*%
X146343944Y-137693054D03*
X143116056Y-137006946D03*
%TD*%
D43*
%TO.C,DF8*%
X339490000Y-128290000D03*
X336190000Y-128290000D03*
%TD*%
D51*
%TO.C,R5*%
X181165500Y-72360750D03*
X181165500Y-71340750D03*
%TD*%
D70*
%TO.C,DA8*%
X214397701Y-35188916D03*
X211122299Y-35591084D03*
%TD*%
D43*
%TO.C,DC1*%
X80730000Y-68780000D03*
X77430000Y-68780000D03*
%TD*%
D53*
%TO.C,C16*%
X174520000Y-59496000D03*
X173560000Y-59496000D03*
%TD*%
D43*
%TO.C,DF10*%
X339557500Y-25930000D03*
X336257500Y-25930000D03*
%TD*%
D44*
%TO.C,DE10*%
X261543944Y-107496946D03*
X258316056Y-108183054D03*
%TD*%
M02*
