0
SECTION
2
HEADER
9
$INSUNITS
70
4
9
$ACADVER
1
AC1014
9
$HANDSEED
5
FFFF
0
ENDSEC
0
SECTION
2
TABLES
0
TABLE
2
VPORT
5
8
100
AcDbSymbolTable
0
ENDTAB
0
TABLE
2
LTYPE
5
5
100
AcDbSymbolTable
0
LTYPE
5
14
100
AcDbSymbolTableRecord
100
AcDbLinetypeTableRecord
2
BYBLOCK
70
0
0
LTYPE
5
15
100
AcDbSymbolTableRecord
100
AcDbLinetypeTableRecord
2
BYLAYER
70
0
0
ENDTAB
0
TABLE
2
LAYER
5
2
100
AcDbSymbolTable
70
2
0
LAYER
5
50
100
AcDbSymbolTableRecord
100
AcDbLayerTableRecord
2
0
70
0
6
CONTINUOUS
0
ENDTAB
0
TABLE
2
STYLE
5
3
100
AcDbSymbolTable
70
1
0
STYLE
5
11
100
AcDbSymbolTableRecord
100
AcDbTextStyleTableRecord
2
STANDARD
70
0
0
ENDTAB
0
TABLE
2
VIEW
5
6
100
AcDbSymbolTable
70
0
0
ENDTAB
0
TABLE
2
UCS
5
7
100
AcDbSymbolTable
70
0
0
ENDTAB
0
TABLE
2
APPID
5
9
100
AcDbSymbolTable
70
2
0
APPID
5
12
100
AcDbSymbolTableRecord
100
AcDbRegAppTableRecord
2
ACAD
70
0
0
ENDTAB
0
TABLE
2
DIMSTYLE
5
A
100
AcDbSymbolTable
70
1
0
ENDTAB
0
TABLE
2
BLOCK_RECORD
5
1
100
AcDbSymbolTable
70
1
0
BLOCK_RECORD
5
1F
100
AcDbSymbolTableRecord
100
AcDbBlockTableRecord
2
*MODEL_SPACE
0
BLOCK_RECORD
5
1B
100
AcDbSymbolTableRecord
100
AcDbBlockTableRecord
2
*PAPER_SPACE
0
ENDTAB
0
ENDSEC
0
SECTION
2
BLOCKS
0
BLOCK
5
20
100
AcDbEntity
100
AcDbBlockBegin
2
*MODEL_SPACE
0
ENDBLK
5
21
100
AcDbEntity
100
AcDbBlockEnd
0
BLOCK
5
1C
100
AcDbEntity
100
AcDbBlockBegin
2
*PAPER_SPACE
0
ENDBLK
5
1D
100
AcDbEntity
100
AcDbBlockEnd
0
ENDSEC
0
SECTION
2
ENTITIES
0
LINE
5
100
100
AcDbEntity
8
0
100
AcDbLine
10
48.000000000000043
20
177.34999999999999
30
0
11
377.22499999999997
21
177.35000000000002
31
0
0
ARC
5
101
100
AcDbEntity
8
0
100
AcDbCircle
10
377.22499999999997
20
174.35000000000005
30
0
40
2.9999999999999716
210
0
220
-0
230
1
100
AcDbArc
50
0
51
90
0
LINE
5
102
100
AcDbEntity
8
0
100
AcDbLine
10
380.22499999999991
20
174.35000000000005
30
0
11
380.22500000000002
21
39.95000000000001
31
0
0
CIRCLE
5
103
100
AcDbEntity
8
0
100
AcDbCircle
10
377.22499999999997
20
174.35000000000002
30
0
40
1.1000000000000001
210
0
220
-0
230
1
0
LINE
5
104
100
AcDbEntity
8
0
100
AcDbLine
10
368.22499999999991
20
166.85000000000002
30
0
11
380.22499999999991
21
166.85000000000002
31
0
0
LINE
5
105
100
AcDbEntity
8
0
100
AcDbLine
10
368.22499999999991
20
154.85000000000002
30
0
11
368.22499999999991
21
166.85000000000002
31
0
0
LINE
5
106
100
AcDbEntity
8
0
100
AcDbLine
10
368.22499999999991
20
154.85000000000002
30
0
11
380.22499999999991
21
154.85000000000002
31
0
0
CIRCLE
5
107
100
AcDbEntity
8
0
100
AcDbCircle
10
377.22500000000002
20
39.950000000000003
30
0
40
1.1000000000000001
210
0
220
-0
230
1
0
ARC
5
108
100
AcDbEntity
8
0
100
AcDbCircle
10
377.22500000000002
20
39.950000000000003
30
0
40
2.9999999999999938
210
-0
220
0
230
1
100
AcDbArc
50
-90
51
0
0
LINE
5
109
100
AcDbEntity
8
0
100
AcDbLine
10
205.94239061157447
20
36.949999999999925
30
0
11
377.22500000000002
21
36.95000000000001
31
0
0
LINE
5
110
100
AcDbEntity
8
0
100
AcDbLine
10
185.4164298154441
20
31.450085381847583
30
0
11
205.94239061157447
21
36.949999999999925
31
0
0
CIRCLE
5
111
100
AcDbEntity
8
0
100
AcDbCircle
10
240.34398403599999
20
39.949999999999939
30
0
40
1.1000000000000001
210
0
220
-0
230
1
0
LINE
5
112
100
AcDbEntity
8
0
100
AcDbLine
10
171.7585701614905
20
31.450085381848094
30
0
11
185.4164298154441
21
31.450085381847583
31
0
0
LINE
5
113
100
AcDbEntity
8
0
100
AcDbLine
10
151.23260940989456
20
36.949999999999925
30
0
11
171.7585701614905
21
31.450085381848094
31
0
0
LINE
5
114
100
AcDbEntity
8
0
100
AcDbLine
10
151.23260940989456
20
36.949999999999925
30
0
11
48.000000000000078
21
36.949999999999903
31
0
0
CIRCLE
5
115
100
AcDbEntity
8
0
100
AcDbCircle
10
116.83101599830009
20
39.949999999999896
30
0
40
1.1000000000000001
210
0
220
-0
230
1
0
CIRCLE
5
116
100
AcDbEntity
8
0
100
AcDbCircle
10
48.000000000000085
20
39.949999999999896
30
0
40
1.1000000000000001
210
0
220
-0
230
1
0
ARC
5
117
100
AcDbEntity
8
0
100
AcDbCircle
10
48.000000000000085
20
39.949999999999896
30
0
40
2.9999999999999982
210
0
220
0
230
1
100
AcDbArc
50
180
51
270
0
LINE
5
118
100
AcDbEntity
8
0
100
AcDbLine
10
45.000000000000085
20
39.949999999999896
30
0
11
45.000000000000036
21
174.34999999999999
31
0
0
ARC
5
119
100
AcDbEntity
8
0
100
AcDbCircle
10
48.000000000000043
20
174.34999999999999
30
0
40
3.0000000000000071
210
0
220
-0
230
1
100
AcDbArc
50
90
51
180
0
CIRCLE
5
120
100
AcDbEntity
8
0
100
AcDbCircle
10
48.000000000000036
20
174.34999999999999
30
0
40
1.1000000000000001
210
0
220
-0
230
1
0
LINE
5
121
100
AcDbEntity
8
0
100
AcDbLine
10
318.35000000000002
20
153.32499999999987
30
0
11
318.35000000000002
21
168.32499999999996
31
0
0
LINE
5
122
100
AcDbEntity
8
0
100
AcDbLine
10
318.35000000000002
20
168.32499999999996
30
0
11
359.35000000000008
21
168.32500000000005
31
0
0
LINE
5
123
100
AcDbEntity
8
0
100
AcDbLine
10
359.35000000000008
20
168.32500000000005
30
0
11
359.35000000000008
21
153.32500000000005
31
0
0
LINE
5
124
100
AcDbEntity
8
0
100
AcDbLine
10
359.35000000000008
20
153.32500000000005
30
0
11
318.35000000000002
21
153.32499999999987
31
0
0
LINE
5
125
100
AcDbEntity
8
0
100
AcDbLine
10
319.85000000000008
20
154.82499999999993
30
0
11
319.85000000000008
21
166.82499999999999
31
0
0
LINE
5
126
100
AcDbEntity
8
0
100
AcDbLine
10
319.85000000000008
20
166.82499999999999
30
0
11
357.85000000000002
21
166.8250000000001
31
0
0
LINE
5
127
100
AcDbEntity
8
0
100
AcDbLine
10
357.85000000000014
20
154.82500000000002
30
0
11
319.85000000000008
21
154.82499999999993
31
0
0
LINE
5
128
100
AcDbEntity
8
0
100
AcDbLine
10
357.85000000000002
20
166.8250000000001
30
0
11
357.85000000000014
21
154.82500000000002
31
0
0
LINE
5
129
100
AcDbEntity
8
0
100
AcDbLine
10
307.17499999999984
20
107.15000000000003
30
0
11
335.74999999999983
21
107.15000000000003
31
0
0
LINE
5
130
100
AcDbEntity
8
0
100
AcDbLine
10
335.74999999999983
20
107.15000000000003
30
0
11
335.74999999999983
21
126.20000000000003
31
0
0
LINE
5
131
100
AcDbEntity
8
0
100
AcDbLine
10
335.74999999999983
20
126.20000000000003
30
0
11
307.17499999999984
21
126.20000000000003
31
0
0
LINE
5
132
100
AcDbEntity
8
0
100
AcDbLine
10
307.17499999999984
20
126.20000000000003
30
0
11
307.17499999999984
21
107.15000000000003
31
0
0
LINE
5
133
100
AcDbEntity
8
0
100
AcDbLine
10
292.88749999999987
20
88.099999999999966
30
0
11
335.74999999999989
21
88.099999999999966
31
0
0
LINE
5
134
100
AcDbEntity
8
0
100
AcDbLine
10
335.74999999999989
20
88.099999999999966
30
0
11
335.74999999999989
21
107.14999999999998
31
0
0
LINE
5
135
100
AcDbEntity
8
0
100
AcDbLine
10
292.88749999999987
20
107.14999999999998
30
0
11
292.88749999999987
21
88.099999999999966
31
0
0
LINE
5
136
100
AcDbEntity
8
0
100
AcDbLine
10
335.74999999999989
20
107.14999999999998
30
0
11
292.88749999999987
21
107.14999999999998
31
0
0
LINE
5
137
100
AcDbEntity
8
0
100
AcDbLine
10
305.72374999999988
20
89.84899999999999
30
0
11
298.12374999999986
21
89.84899999999999
31
0
0
LINE
5
138
100
AcDbEntity
8
0
100
AcDbLine
10
298.12374999999986
20
89.84899999999999
30
0
11
298.12374999999986
21
103.34900000000002
31
0
0
LINE
5
139
100
AcDbEntity
8
0
100
AcDbLine
10
305.72374999999988
20
103.34900000000002
30
0
11
305.72374999999988
21
89.84899999999999
31
0
0
LINE
5
140
100
AcDbEntity
8
0
100
AcDbLine
10
298.12374999999986
20
103.34900000000002
30
0
11
305.72374999999988
21
103.34900000000002
31
0
0
LINE
5
141
100
AcDbEntity
8
0
100
AcDbLine
10
330.51374999999985
20
89.849000000000018
30
0
11
322.91374999999988
21
89.849000000000018
31
0
0
LINE
5
142
100
AcDbEntity
8
0
100
AcDbLine
10
322.91374999999988
20
89.849000000000018
30
0
11
322.91374999999988
21
103.34900000000002
31
0
0
LINE
5
143
100
AcDbEntity
8
0
100
AcDbLine
10
330.51374999999985
20
103.34900000000002
30
0
11
330.51374999999985
21
89.849000000000018
31
0
0
LINE
5
144
100
AcDbEntity
8
0
100
AcDbLine
10
322.91374999999988
20
103.34900000000002
30
0
11
330.51374999999985
21
103.34900000000002
31
0
0
LINE
5
145
100
AcDbEntity
8
0
100
AcDbLine
10
50
20
69.049999999999969
30
0
11
92.862500000000011
21
69.049999999999969
31
0
0
LINE
5
146
100
AcDbEntity
8
0
100
AcDbLine
10
92.862500000000011
20
69.049999999999969
30
0
11
92.862500000000011
21
88.099999999999966
31
0
0
LINE
5
147
100
AcDbEntity
8
0
100
AcDbLine
10
50
20
88.099999999999966
30
0
11
50
21
69.049999999999969
31
0
0
LINE
5
148
100
AcDbEntity
8
0
100
AcDbLine
10
92.862500000000011
20
88.099999999999966
30
0
11
50
21
88.099999999999966
31
0
0
LINE
5
149
100
AcDbEntity
8
0
100
AcDbLine
10
62.836250000000007
20
70.798999999999978
30
0
11
55.236249999999998
21
70.798999999999992
31
0
0
LINE
5
150
100
AcDbEntity
8
0
100
AcDbLine
10
55.236249999999998
20
70.798999999999992
30
0
11
55.236249999999998
21
84.299000000000007
31
0
0
LINE
5
151
100
AcDbEntity
8
0
100
AcDbLine
10
62.83625
20
84.299000000000007
30
0
11
62.836250000000007
21
70.798999999999978
31
0
0
LINE
5
152
100
AcDbEntity
8
0
100
AcDbLine
10
55.236249999999998
20
84.299000000000007
30
0
11
62.83625
21
84.299000000000007
31
0
0
LINE
5
153
100
AcDbEntity
8
0
100
AcDbLine
10
87.626249999999999
20
70.799000000000007
30
0
11
80.026250000000005
21
70.799000000000007
31
0
0
LINE
5
154
100
AcDbEntity
8
0
100
AcDbLine
10
80.026250000000005
20
70.799000000000007
30
0
11
80.026250000000005
21
84.299000000000007
31
0
0
LINE
5
155
100
AcDbEntity
8
0
100
AcDbLine
10
87.626249999999999
20
84.299000000000007
30
0
11
87.626249999999999
21
70.799000000000007
31
0
0
LINE
5
156
100
AcDbEntity
8
0
100
AcDbLine
10
80.026250000000005
20
84.299000000000007
30
0
11
87.626249999999999
21
84.299000000000007
31
0
0
LINE
5
157
100
AcDbEntity
8
0
100
AcDbLine
10
92.862499999999983
20
69.050000000000011
30
0
11
92.862499999999983
21
88.100000000000023
31
0
0
LINE
5
158
100
AcDbEntity
8
0
100
AcDbLine
10
92.862499999999983
20
88.100000000000023
30
0
11
73.8125
21
88.100000000000023
31
0
0
LINE
5
159
100
AcDbEntity
8
0
100
AcDbLine
10
73.8125
20
69.050000000000011
30
0
11
92.862499999999983
21
69.050000000000011
31
0
0
LINE
5
160
100
AcDbEntity
8
0
100
AcDbLine
10
73.8125
20
88.100000000000023
30
0
11
73.8125
21
69.050000000000011
31
0
0
LINE
5
161
100
AcDbEntity
8
0
100
AcDbLine
10
307.17499999999984
20
107.14999999999998
30
0
11
307.17499999999984
21
126.19999999999999
31
0
0
LINE
5
162
100
AcDbEntity
8
0
100
AcDbLine
10
307.17499999999984
20
126.19999999999999
30
0
11
335.74999999999989
21
126.19999999999999
31
0
0
LINE
5
163
100
AcDbEntity
8
0
100
AcDbLine
10
335.74999999999989
20
88.099999999999994
30
0
11
335.74999999999989
21
126.19999999999999
31
0
0
LINE
5
164
100
AcDbEntity
8
0
100
AcDbLine
10
311.93749999999983
20
88.099999999999994
30
0
11
335.74999999999989
21
88.099999999999994
31
0
0
LINE
5
165
100
AcDbEntity
8
0
100
AcDbLine
10
311.93749999999983
20
107.14999999999998
30
0
11
307.17499999999984
21
107.14999999999998
31
0
0
LINE
5
166
100
AcDbEntity
8
0
100
AcDbLine
10
311.93749999999983
20
88.099999999999994
30
0
11
311.93749999999983
21
107.14999999999998
31
0
0
LINE
5
167
100
AcDbEntity
8
0
100
AcDbLine
10
292.88749999999987
20
88.100000000000023
30
0
11
311.93749999999989
21
88.100000000000023
31
0
0
LINE
5
168
100
AcDbEntity
8
0
100
AcDbLine
10
311.93749999999989
20
88.100000000000023
30
0
11
311.93749999999989
21
107.15000000000003
31
0
0
LINE
5
169
100
AcDbEntity
8
0
100
AcDbLine
10
292.88749999999987
20
107.15000000000003
30
0
11
292.88749999999987
21
88.100000000000023
31
0
0
LINE
5
170
100
AcDbEntity
8
0
100
AcDbLine
10
311.93749999999989
20
107.15000000000003
30
0
11
292.88749999999987
21
107.15000000000003
31
0
0
LINE
5
171
100
AcDbEntity
8
0
100
AcDbLine
10
331.61974999999984
20
90.955000000000013
30
0
11
318.11974999999984
21
90.955000000000013
31
0
0
LINE
5
172
100
AcDbEntity
8
0
100
AcDbLine
10
318.11974999999984
20
90.955000000000013
30
0
11
318.11974999999984
21
98.554999999999993
31
0
0
LINE
5
173
100
AcDbEntity
8
0
100
AcDbLine
10
331.61974999999984
20
98.554999999999993
30
0
11
331.61974999999984
21
90.955000000000013
31
0
0
LINE
5
174
100
AcDbEntity
8
0
100
AcDbLine
10
318.11974999999984
20
98.554999999999993
30
0
11
331.61974999999984
21
98.554999999999993
31
0
0
LINE
5
175
100
AcDbEntity
8
0
100
AcDbLine
10
331.61974999999984
20
123.34499999999997
30
0
11
331.61974999999984
21
115.745
31
0
0
LINE
5
176
100
AcDbEntity
8
0
100
AcDbLine
10
331.61974999999984
20
115.745
30
0
11
318.11974999999984
21
115.74499999999999
31
0
0
LINE
5
177
100
AcDbEntity
8
0
100
AcDbLine
10
318.11974999999984
20
123.34499999999998
30
0
11
331.61974999999984
21
123.34499999999997
31
0
0
LINE
5
178
100
AcDbEntity
8
0
100
AcDbLine
10
318.11974999999984
20
115.74499999999999
30
0
11
318.11974999999984
21
123.34499999999998
31
0
0
LINE
5
179
100
AcDbEntity
8
0
100
AcDbLine
10
298.29999999999995
20
150.29999999999998
30
0
11
317.35000000000002
21
150.29999999999998
31
0
0
LINE
5
180
100
AcDbEntity
8
0
100
AcDbLine
10
317.35000000000002
20
150.29999999999998
30
0
11
317.35000000000002
21
169.34999999999999
31
0
0
LINE
5
181
100
AcDbEntity
8
0
100
AcDbLine
10
317.35000000000002
20
169.34999999999999
30
0
11
298.29999999999995
21
169.34999999999999
31
0
0
LINE
5
182
100
AcDbEntity
8
0
100
AcDbLine
10
298.29999999999995
20
169.34999999999999
30
0
11
298.29999999999995
21
150.29999999999998
31
0
0
LINE
5
183
100
AcDbEntity
8
0
100
AcDbLine
10
279.25
20
150.29999999999998
30
0
11
298.29999999999995
21
150.29999999999998
31
0
0
LINE
5
184
100
AcDbEntity
8
0
100
AcDbLine
10
298.29999999999995
20
150.29999999999998
30
0
11
298.29999999999995
21
169.34999999999999
31
0
0
LINE
5
185
100
AcDbEntity
8
0
100
AcDbLine
10
279.25
20
169.34999999999999
30
0
11
279.25
21
150.29999999999998
31
0
0
LINE
5
186
100
AcDbEntity
8
0
100
AcDbLine
10
298.29999999999995
20
169.34999999999999
30
0
11
279.25
21
169.34999999999999
31
0
0
LINE
5
187
100
AcDbEntity
8
0
100
AcDbLine
10
260.20000000000005
20
150.29999999999998
30
0
11
279.25
21
150.29999999999998
31
0
0
LINE
5
188
100
AcDbEntity
8
0
100
AcDbLine
10
279.25
20
150.29999999999998
30
0
11
279.25
21
169.34999999999999
31
0
0
LINE
5
189
100
AcDbEntity
8
0
100
AcDbLine
10
260.20000000000005
20
169.34999999999999
30
0
11
260.20000000000005
21
150.29999999999998
31
0
0
LINE
5
190
100
AcDbEntity
8
0
100
AcDbLine
10
279.25
20
169.34999999999999
30
0
11
260.20000000000005
21
169.34999999999999
31
0
0
LINE
5
191
100
AcDbEntity
8
0
100
AcDbLine
10
241.15000000000006
20
150.29999999999998
30
0
11
260.20000000000005
21
150.29999999999998
31
0
0
LINE
5
192
100
AcDbEntity
8
0
100
AcDbLine
10
260.20000000000005
20
150.29999999999998
30
0
11
260.20000000000005
21
169.34999999999999
31
0
0
LINE
5
193
100
AcDbEntity
8
0
100
AcDbLine
10
241.15000000000006
20
169.34999999999999
30
0
11
241.15000000000006
21
150.29999999999998
31
0
0
LINE
5
194
100
AcDbEntity
8
0
100
AcDbLine
10
260.20000000000005
20
169.34999999999999
30
0
11
241.15000000000006
21
169.34999999999999
31
0
0
LINE
5
195
100
AcDbEntity
8
0
100
AcDbLine
10
217.05000000000007
20
150.29999999999998
30
0
11
236.10000000000002
21
150.29999999999998
31
0
0
LINE
5
196
100
AcDbEntity
8
0
100
AcDbLine
10
236.10000000000002
20
150.29999999999998
30
0
11
236.10000000000002
21
169.34999999999999
31
0
0
LINE
5
197
100
AcDbEntity
8
0
100
AcDbLine
10
217.05000000000007
20
169.34999999999999
30
0
11
217.05000000000007
21
150.29999999999998
31
0
0
LINE
5
198
100
AcDbEntity
8
0
100
AcDbLine
10
236.10000000000002
20
169.34999999999999
30
0
11
217.05000000000007
21
169.34999999999999
31
0
0
LINE
5
199
100
AcDbEntity
8
0
100
AcDbLine
10
198.00000000000009
20
150.29999999999998
30
0
11
217.05000000000007
21
150.29999999999998
31
0
0
LINE
5
200
100
AcDbEntity
8
0
100
AcDbLine
10
217.05000000000007
20
150.29999999999998
30
0
11
217.05000000000007
21
169.34999999999999
31
0
0
LINE
5
201
100
AcDbEntity
8
0
100
AcDbLine
10
198.00000000000009
20
169.34999999999999
30
0
11
198.00000000000009
21
150.29999999999998
31
0
0
LINE
5
202
100
AcDbEntity
8
0
100
AcDbLine
10
217.05000000000007
20
169.34999999999999
30
0
11
198.00000000000009
21
169.34999999999999
31
0
0
LINE
5
203
100
AcDbEntity
8
0
100
AcDbLine
10
178.95000000000007
20
150.29999999999998
30
0
11
198.00000000000006
21
150.29999999999998
31
0
0
LINE
5
204
100
AcDbEntity
8
0
100
AcDbLine
10
198.00000000000006
20
150.29999999999998
30
0
11
198.00000000000006
21
169.34999999999999
31
0
0
LINE
5
205
100
AcDbEntity
8
0
100
AcDbLine
10
178.95000000000007
20
169.34999999999999
30
0
11
178.95000000000007
21
150.29999999999998
31
0
0
LINE
5
206
100
AcDbEntity
8
0
100
AcDbLine
10
198.00000000000006
20
169.34999999999999
30
0
11
178.95000000000007
21
169.34999999999999
31
0
0
LINE
5
207
100
AcDbEntity
8
0
100
AcDbLine
10
159.90000000000003
20
150.29999999999998
30
0
11
178.95000000000005
21
150.29999999999998
31
0
0
LINE
5
208
100
AcDbEntity
8
0
100
AcDbLine
10
178.95000000000005
20
150.29999999999998
30
0
11
178.95000000000005
21
169.34999999999999
31
0
0
LINE
5
209
100
AcDbEntity
8
0
100
AcDbLine
10
159.90000000000003
20
169.34999999999999
30
0
11
159.90000000000003
21
150.29999999999998
31
0
0
LINE
5
210
100
AcDbEntity
8
0
100
AcDbLine
10
178.95000000000005
20
169.34999999999999
30
0
11
159.90000000000003
21
169.34999999999999
31
0
0
LINE
5
211
100
AcDbEntity
8
0
100
AcDbLine
10
50
20
150.29999999999998
30
0
11
69.049999999999997
21
150.29999999999998
31
0
0
LINE
5
212
100
AcDbEntity
8
0
100
AcDbLine
10
69.049999999999997
20
150.29999999999998
30
0
11
69.049999999999997
21
169.34999999999999
31
0
0
LINE
5
213
100
AcDbEntity
8
0
100
AcDbLine
10
50
20
169.34999999999999
30
0
11
50
21
150.29999999999998
31
0
0
LINE
5
214
100
AcDbEntity
8
0
100
AcDbLine
10
69.049999999999997
20
169.34999999999999
30
0
11
50
21
169.34999999999999
31
0
0
LINE
5
215
100
AcDbEntity
8
0
100
AcDbLine
10
78.650000000000006
20
150.29999999999998
30
0
11
97.699999999999989
21
150.29999999999998
31
0
0
LINE
5
216
100
AcDbEntity
8
0
100
AcDbLine
10
97.699999999999989
20
150.29999999999998
30
0
11
97.699999999999989
21
169.34999999999999
31
0
0
LINE
5
217
100
AcDbEntity
8
0
100
AcDbLine
10
78.650000000000006
20
169.34999999999999
30
0
11
78.650000000000006
21
150.29999999999998
31
0
0
LINE
5
218
100
AcDbEntity
8
0
100
AcDbLine
10
97.699999999999989
20
169.34999999999999
30
0
11
78.650000000000006
21
169.34999999999999
31
0
0
LINE
5
219
100
AcDbEntity
8
0
100
AcDbLine
10
97.699999999999989
20
150.29999999999998
30
0
11
116.75
21
150.29999999999998
31
0
0
LINE
5
220
100
AcDbEntity
8
0
100
AcDbLine
10
116.75
20
150.29999999999998
30
0
11
116.75
21
169.34999999999999
31
0
0
LINE
5
221
100
AcDbEntity
8
0
100
AcDbLine
10
97.699999999999989
20
169.34999999999999
30
0
11
97.699999999999989
21
150.29999999999998
31
0
0
LINE
5
222
100
AcDbEntity
8
0
100
AcDbLine
10
116.75
20
169.34999999999999
30
0
11
97.699999999999989
21
169.34999999999999
31
0
0
LINE
5
223
100
AcDbEntity
8
0
100
AcDbLine
10
116.75
20
150.29999999999998
30
0
11
135.80000000000001
21
150.29999999999998
31
0
0
LINE
5
224
100
AcDbEntity
8
0
100
AcDbLine
10
135.80000000000001
20
150.29999999999998
30
0
11
135.80000000000001
21
169.34999999999999
31
0
0
LINE
5
225
100
AcDbEntity
8
0
100
AcDbLine
10
116.75
20
169.34999999999999
30
0
11
116.75
21
150.29999999999998
31
0
0
LINE
5
226
100
AcDbEntity
8
0
100
AcDbLine
10
135.80000000000001
20
169.34999999999999
30
0
11
116.75
21
169.34999999999999
31
0
0
LINE
5
227
100
AcDbEntity
8
0
100
AcDbLine
10
135.80000000000001
20
150.29999999999998
30
0
11
154.85000000000002
21
150.29999999999998
31
0
0
LINE
5
228
100
AcDbEntity
8
0
100
AcDbLine
10
154.85000000000002
20
150.29999999999998
30
0
11
154.85000000000002
21
169.34999999999999
31
0
0
LINE
5
229
100
AcDbEntity
8
0
100
AcDbLine
10
135.80000000000001
20
169.34999999999999
30
0
11
135.80000000000001
21
150.29999999999998
31
0
0
LINE
5
230
100
AcDbEntity
8
0
100
AcDbLine
10
154.85000000000002
20
169.34999999999999
30
0
11
135.80000000000001
21
169.34999999999999
31
0
0
LINE
5
231
100
AcDbEntity
8
0
100
AcDbLine
10
50
20
126.20000000000002
30
0
11
69.049999999999997
21
126.20000000000002
31
0
0
LINE
5
232
100
AcDbEntity
8
0
100
AcDbLine
10
69.049999999999997
20
126.20000000000002
30
0
11
69.049999999999997
21
145.25000000000003
31
0
0
LINE
5
233
100
AcDbEntity
8
0
100
AcDbLine
10
50
20
145.25000000000003
30
0
11
50
21
126.20000000000002
31
0
0
LINE
5
234
100
AcDbEntity
8
0
100
AcDbLine
10
69.049999999999997
20
145.25000000000003
30
0
11
50
21
145.25000000000003
31
0
0
LINE
5
235
100
AcDbEntity
8
0
100
AcDbLine
10
69.049999999999997
20
126.20000000000002
30
0
11
88.099999999999994
21
126.20000000000002
31
0
0
LINE
5
236
100
AcDbEntity
8
0
100
AcDbLine
10
88.099999999999994
20
126.20000000000002
30
0
11
88.099999999999994
21
145.25000000000003
31
0
0
LINE
5
237
100
AcDbEntity
8
0
100
AcDbLine
10
69.049999999999997
20
145.25000000000003
30
0
11
69.049999999999997
21
126.20000000000002
31
0
0
LINE
5
238
100
AcDbEntity
8
0
100
AcDbLine
10
88.099999999999994
20
145.25000000000003
30
0
11
69.049999999999997
21
145.25000000000003
31
0
0
LINE
5
239
100
AcDbEntity
8
0
100
AcDbLine
10
88.099999999999994
20
126.20000000000002
30
0
11
107.15000000000001
21
126.20000000000002
31
0
0
LINE
5
240
100
AcDbEntity
8
0
100
AcDbLine
10
107.15000000000001
20
126.20000000000002
30
0
11
107.15000000000001
21
145.25000000000003
31
0
0
LINE
5
241
100
AcDbEntity
8
0
100
AcDbLine
10
88.099999999999994
20
145.25000000000003
30
0
11
88.099999999999994
21
126.20000000000002
31
0
0
LINE
5
242
100
AcDbEntity
8
0
100
AcDbLine
10
107.15000000000001
20
145.25000000000003
30
0
11
88.099999999999994
21
145.25000000000003
31
0
0
LINE
5
243
100
AcDbEntity
8
0
100
AcDbLine
10
107.15000000000001
20
126.20000000000002
30
0
11
126.20000000000002
21
126.20000000000002
31
0
0
LINE
5
244
100
AcDbEntity
8
0
100
AcDbLine
10
126.20000000000002
20
126.20000000000002
30
0
11
126.20000000000002
21
145.25000000000003
31
0
0
LINE
5
245
100
AcDbEntity
8
0
100
AcDbLine
10
107.15000000000001
20
145.25000000000003
30
0
11
107.15000000000001
21
126.20000000000002
31
0
0
LINE
5
246
100
AcDbEntity
8
0
100
AcDbLine
10
126.20000000000002
20
145.25000000000003
30
0
11
107.15000000000001
21
145.25000000000003
31
0
0
LINE
5
247
100
AcDbEntity
8
0
100
AcDbLine
10
126.20000000000002
20
126.20000000000002
30
0
11
145.25000000000003
21
126.20000000000002
31
0
0
LINE
5
248
100
AcDbEntity
8
0
100
AcDbLine
10
145.25000000000003
20
126.20000000000002
30
0
11
145.25000000000003
21
145.25000000000003
31
0
0
LINE
5
249
100
AcDbEntity
8
0
100
AcDbLine
10
126.20000000000002
20
145.25000000000003
30
0
11
126.20000000000002
21
126.20000000000002
31
0
0
LINE
5
250
100
AcDbEntity
8
0
100
AcDbLine
10
145.25000000000003
20
145.25000000000003
30
0
11
126.20000000000002
21
145.25000000000003
31
0
0
LINE
5
251
100
AcDbEntity
8
0
100
AcDbLine
10
145.25000000000003
20
126.20000000000002
30
0
11
164.30000000000004
21
126.20000000000002
31
0
0
LINE
5
252
100
AcDbEntity
8
0
100
AcDbLine
10
164.30000000000004
20
126.20000000000002
30
0
11
164.30000000000004
21
145.25000000000003
31
0
0
LINE
5
253
100
AcDbEntity
8
0
100
AcDbLine
10
145.25000000000003
20
145.25000000000003
30
0
11
145.25000000000003
21
126.20000000000002
31
0
0
LINE
5
254
100
AcDbEntity
8
0
100
AcDbLine
10
164.30000000000004
20
145.25000000000003
30
0
11
145.25000000000003
21
145.25000000000003
31
0
0
LINE
5
255
100
AcDbEntity
8
0
100
AcDbLine
10
164.30000000000007
20
126.20000000000002
30
0
11
183.35000000000005
21
126.20000000000002
31
0
0
LINE
5
256
100
AcDbEntity
8
0
100
AcDbLine
10
183.35000000000005
20
126.20000000000002
30
0
11
183.35000000000005
21
145.25000000000003
31
0
0
LINE
5
257
100
AcDbEntity
8
0
100
AcDbLine
10
164.30000000000007
20
145.25000000000003
30
0
11
164.30000000000007
21
126.20000000000002
31
0
0
LINE
5
258
100
AcDbEntity
8
0
100
AcDbLine
10
183.35000000000005
20
145.25000000000003
30
0
11
164.30000000000007
21
145.25000000000003
31
0
0
LINE
5
259
100
AcDbEntity
8
0
100
AcDbLine
10
183.35000000000008
20
126.20000000000002
30
0
11
202.40000000000006
21
126.20000000000002
31
0
0
LINE
5
260
100
AcDbEntity
8
0
100
AcDbLine
10
202.40000000000006
20
126.20000000000002
30
0
11
202.40000000000006
21
145.25000000000003
31
0
0
LINE
5
261
100
AcDbEntity
8
0
100
AcDbLine
10
183.35000000000008
20
145.25000000000003
30
0
11
183.35000000000008
21
126.20000000000002
31
0
0
LINE
5
262
100
AcDbEntity
8
0
100
AcDbLine
10
202.40000000000006
20
145.25000000000003
30
0
11
183.35000000000008
21
145.25000000000003
31
0
0
LINE
5
263
100
AcDbEntity
8
0
100
AcDbLine
10
202.40000000000006
20
126.20000000000002
30
0
11
221.45000000000005
21
126.20000000000002
31
0
0
LINE
5
264
100
AcDbEntity
8
0
100
AcDbLine
10
221.45000000000005
20
126.20000000000002
30
0
11
221.45000000000005
21
145.25000000000003
31
0
0
LINE
5
265
100
AcDbEntity
8
0
100
AcDbLine
10
202.40000000000006
20
145.25000000000003
30
0
11
202.40000000000006
21
126.20000000000002
31
0
0
LINE
5
266
100
AcDbEntity
8
0
100
AcDbLine
10
221.45000000000005
20
145.25000000000003
30
0
11
202.40000000000006
21
145.25000000000003
31
0
0
LINE
5
267
100
AcDbEntity
8
0
100
AcDbLine
10
221.45000000000005
20
126.20000000000002
30
0
11
240.5
21
126.20000000000002
31
0
0
LINE
5
268
100
AcDbEntity
8
0
100
AcDbLine
10
240.5
20
126.20000000000002
30
0
11
240.5
21
145.25000000000003
31
0
0
LINE
5
269
100
AcDbEntity
8
0
100
AcDbLine
10
221.45000000000005
20
145.25000000000003
30
0
11
221.45000000000005
21
126.20000000000002
31
0
0
LINE
5
270
100
AcDbEntity
8
0
100
AcDbLine
10
240.5
20
145.25000000000003
30
0
11
221.45000000000005
21
145.25000000000003
31
0
0
LINE
5
271
100
AcDbEntity
8
0
100
AcDbLine
10
240.5
20
126.20000000000002
30
0
11
259.54999999999995
21
126.20000000000002
31
0
0
LINE
5
272
100
AcDbEntity
8
0
100
AcDbLine
10
259.54999999999995
20
126.20000000000002
30
0
11
259.54999999999995
21
145.25000000000003
31
0
0
LINE
5
273
100
AcDbEntity
8
0
100
AcDbLine
10
240.5
20
145.25000000000003
30
0
11
240.5
21
126.20000000000002
31
0
0
LINE
5
274
100
AcDbEntity
8
0
100
AcDbLine
10
259.54999999999995
20
145.25000000000003
30
0
11
240.5
21
145.25000000000003
31
0
0
LINE
5
275
100
AcDbEntity
8
0
100
AcDbLine
10
259.54999999999995
20
126.20000000000002
30
0
11
278.59999999999997
21
126.20000000000002
31
0
0
LINE
5
276
100
AcDbEntity
8
0
100
AcDbLine
10
278.59999999999997
20
126.20000000000002
30
0
11
278.59999999999997
21
145.25000000000003
31
0
0
LINE
5
277
100
AcDbEntity
8
0
100
AcDbLine
10
259.54999999999995
20
145.25000000000003
30
0
11
259.54999999999995
21
126.20000000000002
31
0
0
LINE
5
278
100
AcDbEntity
8
0
100
AcDbLine
10
278.59999999999997
20
145.25000000000003
30
0
11
259.54999999999995
21
145.25000000000003
31
0
0
LINE
5
279
100
AcDbEntity
8
0
100
AcDbLine
10
278.59999999999997
20
126.20000000000002
30
0
11
297.64999999999998
21
126.20000000000002
31
0
0
LINE
5
280
100
AcDbEntity
8
0
100
AcDbLine
10
297.64999999999998
20
126.20000000000002
30
0
11
297.64999999999998
21
145.25000000000003
31
0
0
LINE
5
281
100
AcDbEntity
8
0
100
AcDbLine
10
278.59999999999997
20
145.25000000000003
30
0
11
278.59999999999997
21
126.20000000000002
31
0
0
LINE
5
282
100
AcDbEntity
8
0
100
AcDbLine
10
297.64999999999998
20
145.25000000000003
30
0
11
278.59999999999997
21
145.25000000000003
31
0
0
LINE
5
283
100
AcDbEntity
8
0
100
AcDbLine
10
297.64999999999992
20
126.19999999999997
30
0
11
335.74999999999989
21
126.19999999999997
31
0
0
LINE
5
284
100
AcDbEntity
8
0
100
AcDbLine
10
335.74999999999989
20
126.19999999999997
30
0
11
335.74999999999989
21
145.25
31
0
0
LINE
5
285
100
AcDbEntity
8
0
100
AcDbLine
10
297.64999999999992
20
145.25
30
0
11
297.64999999999992
21
126.19999999999997
31
0
0
LINE
5
286
100
AcDbEntity
8
0
100
AcDbLine
10
335.74999999999989
20
145.25
30
0
11
297.64999999999992
21
145.25
31
0
0
LINE
5
287
100
AcDbEntity
8
0
100
AcDbLine
10
375.22499999999991
20
126.20000000000002
30
0
11
375.22499999999991
21
145.25000000000003
31
0
0
LINE
5
288
100
AcDbEntity
8
0
100
AcDbLine
10
375.22499999999991
20
145.25000000000003
30
0
11
356.17499999999995
21
145.25000000000003
31
0
0
LINE
5
289
100
AcDbEntity
8
0
100
AcDbLine
10
356.17499999999995
20
126.20000000000002
30
0
11
375.22499999999991
21
126.20000000000002
31
0
0
LINE
5
290
100
AcDbEntity
8
0
100
AcDbLine
10
356.17499999999995
20
145.25000000000003
30
0
11
356.17499999999995
21
126.20000000000002
31
0
0
LINE
5
291
100
AcDbEntity
8
0
100
AcDbLine
10
375.22499999999991
20
107.15000000000002
30
0
11
375.22499999999991
21
126.20000000000003
31
0
0
LINE
5
292
100
AcDbEntity
8
0
100
AcDbLine
10
375.22499999999991
20
126.20000000000003
30
0
11
356.17499999999995
21
126.20000000000003
31
0
0
LINE
5
293
100
AcDbEntity
8
0
100
AcDbLine
10
356.17499999999995
20
107.15000000000002
30
0
11
375.22499999999991
21
107.15000000000002
31
0
0
LINE
5
294
100
AcDbEntity
8
0
100
AcDbLine
10
356.17499999999995
20
126.20000000000003
30
0
11
356.17499999999995
21
107.15000000000002
31
0
0
LINE
5
295
100
AcDbEntity
8
0
100
AcDbLine
10
375.22499999999991
20
88.100000000000023
30
0
11
375.22499999999991
21
107.15000000000003
31
0
0
LINE
5
296
100
AcDbEntity
8
0
100
AcDbLine
10
375.22499999999991
20
107.15000000000003
30
0
11
356.17499999999995
21
107.15000000000003
31
0
0
LINE
5
297
100
AcDbEntity
8
0
100
AcDbLine
10
356.17499999999995
20
88.100000000000023
30
0
11
375.22499999999991
21
88.100000000000023
31
0
0
LINE
5
298
100
AcDbEntity
8
0
100
AcDbLine
10
356.17499999999995
20
107.15000000000003
30
0
11
356.17499999999995
21
88.100000000000023
31
0
0
LINE
5
299
100
AcDbEntity
8
0
100
AcDbLine
10
321.46249999999986
20
64.000000000000014
30
0
11
340.51249999999982
21
64.000000000000014
31
0
0
LINE
5
300
100
AcDbEntity
8
0
100
AcDbLine
10
340.51249999999982
20
64.000000000000014
30
0
11
340.51249999999982
21
83.050000000000011
31
0
0
LINE
5
301
100
AcDbEntity
8
0
100
AcDbLine
10
321.46249999999986
20
83.050000000000011
30
0
11
321.46249999999986
21
64.000000000000014
31
0
0
LINE
5
302
100
AcDbEntity
8
0
100
AcDbLine
10
340.51249999999982
20
83.050000000000011
30
0
11
321.46249999999986
21
83.050000000000011
31
0
0
LINE
5
303
100
AcDbEntity
8
0
100
AcDbLine
10
283.36249999999984
20
88.100000000000009
30
0
11
283.36249999999984
21
69.049999999999997
31
0
0
LINE
5
304
100
AcDbEntity
8
0
100
AcDbLine
10
283.36249999999984
20
69.049999999999997
30
0
11
316.69999999999987
21
69.049999999999997
31
0
0
LINE
5
305
100
AcDbEntity
8
0
100
AcDbLine
10
316.69999999999987
20
88.100000000000009
30
0
11
283.36249999999984
21
88.100000000000009
31
0
0
LINE
5
306
100
AcDbEntity
8
0
100
AcDbLine
10
316.69999999999987
20
69.049999999999997
30
0
11
316.69999999999987
21
88.100000000000009
31
0
0
LINE
5
307
100
AcDbEntity
8
0
100
AcDbLine
10
302.41249999999985
20
44.95000000000001
30
0
11
321.46249999999986
21
44.95000000000001
31
0
0
LINE
5
308
100
AcDbEntity
8
0
100
AcDbLine
10
321.46249999999986
20
44.95000000000001
30
0
11
321.46249999999986
21
64.000000000000028
31
0
0
LINE
5
309
100
AcDbEntity
8
0
100
AcDbLine
10
302.41249999999985
20
64.000000000000028
30
0
11
302.41249999999985
21
44.95000000000001
31
0
0
LINE
5
310
100
AcDbEntity
8
0
100
AcDbLine
10
321.46249999999986
20
64.000000000000028
30
0
11
302.41249999999985
21
64.000000000000028
31
0
0
LINE
5
311
100
AcDbEntity
8
0
100
AcDbLine
10
340.51249999999982
20
64.000000000000028
30
0
11
321.46249999999986
21
64.000000000000028
31
0
0
LINE
5
312
100
AcDbEntity
8
0
100
AcDbLine
10
321.46249999999986
20
64.000000000000028
30
0
11
321.46249999999986
21
44.95000000000001
31
0
0
LINE
5
313
100
AcDbEntity
8
0
100
AcDbLine
10
340.51249999999982
20
44.95000000000001
30
0
11
340.51249999999982
21
64.000000000000028
31
0
0
LINE
5
314
100
AcDbEntity
8
0
100
AcDbLine
10
321.46249999999986
20
44.95000000000001
30
0
11
340.51249999999982
21
44.95000000000001
31
0
0
LINE
5
315
100
AcDbEntity
8
0
100
AcDbLine
10
359.56249999999983
20
64.000000000000028
30
0
11
340.51249999999987
21
64.000000000000028
31
0
0
LINE
5
316
100
AcDbEntity
8
0
100
AcDbLine
10
340.51249999999987
20
64.000000000000028
30
0
11
340.51249999999987
21
44.95000000000001
31
0
0
LINE
5
317
100
AcDbEntity
8
0
100
AcDbLine
10
359.56249999999983
20
44.95000000000001
30
0
11
359.56249999999983
21
64.000000000000028
31
0
0
LINE
5
318
100
AcDbEntity
8
0
100
AcDbLine
10
340.51249999999987
20
44.95000000000001
30
0
11
359.56249999999983
21
44.95000000000001
31
0
0
LINE
5
319
100
AcDbEntity
8
0
100
AcDbLine
10
297.64999999999992
20
69.050000000000011
30
0
11
278.59999999999991
21
69.050000000000011
31
0
0
LINE
5
320
100
AcDbEntity
8
0
100
AcDbLine
10
278.59999999999991
20
69.050000000000011
30
0
11
278.59999999999991
21
50
31
0
0
LINE
5
321
100
AcDbEntity
8
0
100
AcDbLine
10
297.64999999999992
20
50
30
0
11
297.64999999999992
21
69.050000000000011
31
0
0
LINE
5
322
100
AcDbEntity
8
0
100
AcDbLine
10
278.59999999999991
20
50
30
0
11
297.64999999999992
21
50
31
0
0
LINE
5
323
100
AcDbEntity
8
0
100
AcDbLine
10
278.59999999999991
20
69.050000000000011
30
0
11
259.5499999999999
21
69.050000000000011
31
0
0
LINE
5
324
100
AcDbEntity
8
0
100
AcDbLine
10
259.5499999999999
20
69.050000000000011
30
0
11
259.5499999999999
21
50
31
0
0
LINE
5
325
100
AcDbEntity
8
0
100
AcDbLine
10
278.59999999999991
20
50
30
0
11
278.59999999999991
21
69.050000000000011
31
0
0
LINE
5
326
100
AcDbEntity
8
0
100
AcDbLine
10
259.5499999999999
20
50
30
0
11
278.59999999999991
21
50
31
0
0
LINE
5
327
100
AcDbEntity
8
0
100
AcDbLine
10
259.54999999999995
20
69.050000000000011
30
0
11
240.49999999999994
21
69.050000000000011
31
0
0
LINE
5
328
100
AcDbEntity
8
0
100
AcDbLine
10
240.49999999999994
20
69.050000000000011
30
0
11
240.49999999999994
21
50
31
0
0
LINE
5
329
100
AcDbEntity
8
0
100
AcDbLine
10
259.54999999999995
20
50
30
0
11
259.54999999999995
21
69.050000000000011
31
0
0
LINE
5
330
100
AcDbEntity
8
0
100
AcDbLine
10
240.49999999999994
20
50
30
0
11
259.54999999999995
21
50
31
0
0
LINE
5
331
100
AcDbEntity
8
0
100
AcDbLine
10
221.69159380945695
20
45.31109100025391
30
0
11
240.09248080026367
21
50.241593809456973
31
0
0
LINE
5
332
100
AcDbEntity
8
0
100
AcDbLine
10
240.09248080026367
20
50.241593809456973
30
0
11
235.16197799106072
21
68.642480800263783
31
0
0
LINE
5
333
100
AcDbEntity
8
0
100
AcDbLine
10
216.76109100025394
20
63.711977991060671
30
0
11
221.69159380945695
21
45.31109100025391
31
0
0
LINE
5
334
100
AcDbEntity
8
0
100
AcDbLine
10
235.16197799106072
20
68.642480800263783
30
0
11
216.76109100025394
21
63.711977991060671
31
0
0
LINE
5
335
100
AcDbEntity
8
0
100
AcDbLine
10
184.88981982784364
20
35.4500853818477
30
0
11
221.69159380945703
21
45.311091000253739
31
0
0
LINE
5
336
100
AcDbEntity
8
0
100
AcDbLine
10
221.69159380945703
20
45.311091000253739
30
0
11
216.76109100025397
21
63.711977991060564
31
0
0
LINE
5
337
100
AcDbEntity
8
0
100
AcDbLine
10
179.95931701864066
20
53.850972372654546
30
0
11
184.88981982784364
21
35.4500853818477
31
0
0
LINE
5
338
100
AcDbEntity
8
0
100
AcDbLine
10
216.76109100025397
20
63.711977991060564
30
0
11
179.95931701864066
21
53.850972372654546
31
0
0
LINE
5
339
100
AcDbEntity
8
0
100
AcDbLine
10
135.48340619054304
20
45.311091000254066
30
0
11
172.28518017215652
21
35.450085381848083
31
0
0
LINE
5
340
100
AcDbEntity
8
0
100
AcDbLine
10
172.28518017215652
20
35.450085381848083
30
0
11
177.21568298135952
21
53.85097237265483
31
0
0
LINE
5
341
100
AcDbEntity
8
0
100
AcDbLine
10
140.41390899974601
20
63.71197799106082
30
0
11
135.48340619054304
21
45.311091000254066
31
0
0
LINE
5
342
100
AcDbEntity
8
0
100
AcDbLine
10
177.21568298135952
20
53.85097237265483
30
0
11
140.41390899974601
21
63.71197799106082
31
0
0
LINE
5
343
100
AcDbEntity
8
0
100
AcDbLine
10
117.08251919973625
20
50.241593809457036
30
0
11
135.48340619054304
21
45.311091000254081
31
0
0
LINE
5
344
100
AcDbEntity
8
0
100
AcDbLine
10
135.48340619054304
20
45.311091000254081
30
0
11
140.41390899974601
21
63.711977991060778
31
0
0
LINE
5
345
100
AcDbEntity
8
0
100
AcDbLine
10
122.01302200893929
20
68.642480800263769
30
0
11
117.08251919973625
21
50.241593809457036
31
0
0
LINE
5
346
100
AcDbEntity
8
0
100
AcDbLine
10
140.41390899974601
20
63.711977991060778
30
0
11
122.01302200893929
21
68.642480800263769
31
0
0
LINE
5
347
100
AcDbEntity
8
0
100
AcDbLine
10
92.862500000000026
20
69.050000000000011
30
0
11
92.862500000000026
21
50
31
0
0
LINE
5
348
100
AcDbEntity
8
0
100
AcDbLine
10
92.862500000000026
20
50
30
0
11
116.67500000000003
21
50
31
0
0
LINE
5
349
100
AcDbEntity
8
0
100
AcDbLine
10
116.67500000000003
20
69.050000000000011
30
0
11
92.862500000000026
21
69.050000000000011
31
0
0
LINE
5
350
100
AcDbEntity
8
0
100
AcDbLine
10
116.67500000000003
20
50
30
0
11
116.67500000000003
21
69.050000000000011
31
0
0
LINE
5
351
100
AcDbEntity
8
0
100
AcDbLine
10
92.862500000000011
20
69.050000000000011
30
0
11
73.8125
21
69.050000000000011
31
0
0
LINE
5
352
100
AcDbEntity
8
0
100
AcDbLine
10
73.8125
20
69.050000000000011
30
0
11
73.8125
21
50
31
0
0
LINE
5
353
100
AcDbEntity
8
0
100
AcDbLine
10
92.862500000000011
20
50
30
0
11
92.862500000000011
21
69.050000000000011
31
0
0
LINE
5
354
100
AcDbEntity
8
0
100
AcDbLine
10
73.8125
20
50
30
0
11
92.862500000000011
21
50
31
0
0
LINE
5
355
100
AcDbEntity
8
0
100
AcDbLine
10
73.812500000000014
20
69.050000000000011
30
0
11
50
21
69.049999999999997
31
0
0
LINE
5
356
100
AcDbEntity
8
0
100
AcDbLine
10
50
20
69.049999999999997
30
0
11
50
21
50
31
0
0
LINE
5
357
100
AcDbEntity
8
0
100
AcDbLine
10
73.812500000000014
20
50
30
0
11
73.812500000000014
21
69.050000000000011
31
0
0
LINE
5
358
100
AcDbEntity
8
0
100
AcDbLine
10
50
20
50
30
0
11
73.812500000000014
21
50
31
0
0
LINE
5
359
100
AcDbEntity
8
0
100
AcDbLine
10
83.337500000000006
20
88.100000000000023
30
0
11
83.337500000000006
21
107.15000000000002
31
0
0
LINE
5
360
100
AcDbEntity
8
0
100
AcDbLine
10
83.337500000000006
20
107.15000000000002
30
0
11
50
21
107.15000000000002
31
0
0
LINE
5
361
100
AcDbEntity
8
0
100
AcDbLine
10
50
20
88.099999999999994
30
0
11
83.337500000000006
21
88.100000000000023
31
0
0
LINE
5
362
100
AcDbEntity
8
0
100
AcDbLine
10
50
20
107.15000000000002
30
0
11
50
21
88.099999999999994
31
0
0
LINE
5
363
100
AcDbEntity
8
0
100
AcDbLine
10
78.575000000000003
20
107.15000000000003
30
0
11
78.575000000000003
21
126.20000000000003
31
0
0
LINE
5
364
100
AcDbEntity
8
0
100
AcDbLine
10
78.575000000000003
20
126.20000000000003
30
0
11
50
21
126.20000000000002
31
0
0
LINE
5
365
100
AcDbEntity
8
0
100
AcDbLine
10
50
20
107.15000000000002
30
0
11
78.575000000000003
21
107.15000000000003
31
0
0
LINE
5
366
100
AcDbEntity
8
0
100
AcDbLine
10
50
20
126.20000000000002
30
0
11
50
21
107.15000000000002
31
0
0
LINE
5
367
100
AcDbEntity
8
0
100
AcDbLine
10
130.96250000000001
20
88.100000000000009
30
0
11
111.91250000000002
21
88.100000000000009
31
0
0
LINE
5
368
100
AcDbEntity
8
0
100
AcDbLine
10
111.91250000000002
20
88.100000000000009
30
0
11
111.91250000000002
21
69.050000000000011
31
0
0
LINE
5
369
100
AcDbEntity
8
0
100
AcDbLine
10
130.96250000000001
20
69.050000000000011
30
0
11
130.96250000000001
21
88.100000000000009
31
0
0
LINE
5
370
100
AcDbEntity
8
0
100
AcDbLine
10
111.91250000000002
20
69.050000000000011
30
0
11
130.96250000000001
21
69.050000000000011
31
0
0
LINE
5
371
100
AcDbEntity
8
0
100
AcDbLine
10
150.01250000000002
20
88.100000000000009
30
0
11
130.96250000000003
21
88.100000000000009
31
0
0
LINE
5
372
100
AcDbEntity
8
0
100
AcDbLine
10
130.96250000000003
20
88.100000000000009
30
0
11
130.96250000000003
21
69.050000000000011
31
0
0
LINE
5
373
100
AcDbEntity
8
0
100
AcDbLine
10
150.01250000000002
20
69.050000000000011
30
0
11
150.01250000000002
21
88.100000000000009
31
0
0
LINE
5
374
100
AcDbEntity
8
0
100
AcDbLine
10
130.96250000000003
20
69.050000000000011
30
0
11
150.01250000000002
21
69.050000000000011
31
0
0
LINE
5
375
100
AcDbEntity
8
0
100
AcDbLine
10
169.06250000000003
20
88.100000000000009
30
0
11
150.01250000000005
21
88.100000000000009
31
0
0
LINE
5
376
100
AcDbEntity
8
0
100
AcDbLine
10
150.01250000000005
20
88.100000000000009
30
0
11
150.01250000000005
21
69.049999999999997
31
0
0
LINE
5
377
100
AcDbEntity
8
0
100
AcDbLine
10
169.06250000000003
20
69.049999999999997
30
0
11
169.06250000000003
21
88.100000000000009
31
0
0
LINE
5
378
100
AcDbEntity
8
0
100
AcDbLine
10
150.01250000000005
20
69.049999999999997
30
0
11
169.06250000000003
21
69.049999999999997
31
0
0
LINE
5
379
100
AcDbEntity
8
0
100
AcDbLine
10
188.11250000000001
20
88.100000000000009
30
0
11
169.0625
21
88.100000000000009
31
0
0
LINE
5
380
100
AcDbEntity
8
0
100
AcDbLine
10
169.0625
20
88.100000000000009
30
0
11
169.0625
21
69.049999999999997
31
0
0
LINE
5
381
100
AcDbEntity
8
0
100
AcDbLine
10
188.11250000000001
20
69.049999999999997
30
0
11
188.11250000000001
21
88.100000000000009
31
0
0
LINE
5
382
100
AcDbEntity
8
0
100
AcDbLine
10
169.0625
20
69.049999999999997
30
0
11
188.11250000000001
21
69.049999999999997
31
0
0
LINE
5
383
100
AcDbEntity
8
0
100
AcDbLine
10
207.16249999999999
20
88.100000000000009
30
0
11
188.11249999999998
21
88.100000000000009
31
0
0
LINE
5
384
100
AcDbEntity
8
0
100
AcDbLine
10
188.11249999999998
20
88.100000000000009
30
0
11
188.11249999999998
21
69.049999999999997
31
0
0
LINE
5
385
100
AcDbEntity
8
0
100
AcDbLine
10
207.16249999999999
20
69.049999999999997
30
0
11
207.16249999999999
21
88.100000000000009
31
0
0
LINE
5
386
100
AcDbEntity
8
0
100
AcDbLine
10
188.11249999999998
20
69.049999999999997
30
0
11
207.16249999999999
21
69.049999999999997
31
0
0
LINE
5
387
100
AcDbEntity
8
0
100
AcDbLine
10
226.21249999999998
20
88.100000000000009
30
0
11
207.16249999999997
21
88.100000000000009
31
0
0
LINE
5
388
100
AcDbEntity
8
0
100
AcDbLine
10
207.16249999999997
20
88.100000000000009
30
0
11
207.16249999999997
21
69.049999999999997
31
0
0
LINE
5
389
100
AcDbEntity
8
0
100
AcDbLine
10
226.21249999999998
20
69.049999999999997
30
0
11
226.21249999999998
21
88.100000000000009
31
0
0
LINE
5
390
100
AcDbEntity
8
0
100
AcDbLine
10
207.16249999999997
20
69.049999999999997
30
0
11
226.21249999999998
21
69.049999999999997
31
0
0
LINE
5
391
100
AcDbEntity
8
0
100
AcDbLine
10
245.26249999999993
20
88.100000000000009
30
0
11
226.21249999999992
21
88.100000000000009
31
0
0
LINE
5
392
100
AcDbEntity
8
0
100
AcDbLine
10
226.21249999999992
20
88.100000000000009
30
0
11
226.21249999999992
21
69.049999999999997
31
0
0
LINE
5
393
100
AcDbEntity
8
0
100
AcDbLine
10
245.26249999999993
20
69.049999999999997
30
0
11
245.26249999999993
21
88.100000000000009
31
0
0
LINE
5
394
100
AcDbEntity
8
0
100
AcDbLine
10
226.21249999999992
20
69.049999999999997
30
0
11
245.26249999999993
21
69.049999999999997
31
0
0
LINE
5
395
100
AcDbEntity
8
0
100
AcDbLine
10
97.625
20
126.20000000000003
30
0
11
78.574999999999989
21
126.20000000000003
31
0
0
LINE
5
396
100
AcDbEntity
8
0
100
AcDbLine
10
78.574999999999989
20
126.20000000000003
30
0
11
78.574999999999989
21
107.15000000000003
31
0
0
LINE
5
397
100
AcDbEntity
8
0
100
AcDbLine
10
78.574999999999989
20
107.15000000000003
30
0
11
97.625
21
107.15000000000003
31
0
0
LINE
5
398
100
AcDbEntity
8
0
100
AcDbLine
10
97.625
20
107.15000000000003
30
0
11
97.625
21
126.20000000000003
31
0
0
LINE
5
399
100
AcDbEntity
8
0
100
AcDbLine
10
116.67500000000001
20
126.20000000000003
30
0
11
97.625000000000014
21
126.20000000000003
31
0
0
LINE
5
400
100
AcDbEntity
8
0
100
AcDbLine
10
97.625000000000014
20
126.20000000000003
30
0
11
97.625000000000014
21
107.15000000000003
31
0
0
LINE
5
401
100
AcDbEntity
8
0
100
AcDbLine
10
116.67500000000001
20
107.15000000000003
30
0
11
116.67500000000001
21
126.20000000000003
31
0
0
LINE
5
402
100
AcDbEntity
8
0
100
AcDbLine
10
97.625000000000014
20
107.15000000000003
30
0
11
116.67500000000001
21
107.15000000000003
31
0
0
LINE
5
403
100
AcDbEntity
8
0
100
AcDbLine
10
135.72500000000002
20
126.20000000000003
30
0
11
116.67500000000003
21
126.20000000000003
31
0
0
LINE
5
404
100
AcDbEntity
8
0
100
AcDbLine
10
116.67500000000003
20
126.20000000000003
30
0
11
116.67500000000003
21
107.15000000000003
31
0
0
LINE
5
405
100
AcDbEntity
8
0
100
AcDbLine
10
135.72500000000002
20
107.15000000000003
30
0
11
135.72500000000002
21
126.20000000000003
31
0
0
LINE
5
406
100
AcDbEntity
8
0
100
AcDbLine
10
116.67500000000003
20
107.15000000000003
30
0
11
135.72500000000002
21
107.15000000000003
31
0
0
LINE
5
407
100
AcDbEntity
8
0
100
AcDbLine
10
154.77500000000003
20
126.20000000000003
30
0
11
135.72500000000002
21
126.20000000000003
31
0
0
LINE
5
408
100
AcDbEntity
8
0
100
AcDbLine
10
135.72500000000002
20
126.20000000000003
30
0
11
135.72500000000002
21
107.15000000000003
31
0
0
LINE
5
409
100
AcDbEntity
8
0
100
AcDbLine
10
154.77500000000003
20
107.15000000000003
30
0
11
154.77500000000003
21
126.20000000000003
31
0
0
LINE
5
410
100
AcDbEntity
8
0
100
AcDbLine
10
135.72500000000002
20
107.15000000000003
30
0
11
154.77500000000003
21
107.15000000000003
31
0
0
LINE
5
411
100
AcDbEntity
8
0
100
AcDbLine
10
173.82500000000005
20
126.20000000000003
30
0
11
154.77500000000003
21
126.20000000000003
31
0
0
LINE
5
412
100
AcDbEntity
8
0
100
AcDbLine
10
154.77500000000003
20
126.20000000000003
30
0
11
154.77500000000003
21
107.15000000000003
31
0
0
LINE
5
413
100
AcDbEntity
8
0
100
AcDbLine
10
173.82500000000005
20
107.15000000000003
30
0
11
173.82500000000005
21
126.20000000000003
31
0
0
LINE
5
414
100
AcDbEntity
8
0
100
AcDbLine
10
154.77500000000003
20
107.15000000000003
30
0
11
173.82500000000005
21
107.15000000000003
31
0
0
LINE
5
415
100
AcDbEntity
8
0
100
AcDbLine
10
192.875
20
126.20000000000003
30
0
11
173.82499999999999
21
126.20000000000003
31
0
0
LINE
5
416
100
AcDbEntity
8
0
100
AcDbLine
10
173.82499999999999
20
126.20000000000003
30
0
11
173.82499999999999
21
107.15000000000003
31
0
0
LINE
5
417
100
AcDbEntity
8
0
100
AcDbLine
10
192.875
20
107.15000000000003
30
0
11
192.875
21
126.20000000000003
31
0
0
LINE
5
418
100
AcDbEntity
8
0
100
AcDbLine
10
173.82499999999999
20
107.15000000000003
30
0
11
192.875
21
107.15000000000003
31
0
0
LINE
5
419
100
AcDbEntity
8
0
100
AcDbLine
10
211.92499999999998
20
126.20000000000003
30
0
11
192.87499999999997
21
126.20000000000003
31
0
0
LINE
5
420
100
AcDbEntity
8
0
100
AcDbLine
10
192.87499999999997
20
126.20000000000003
30
0
11
192.87499999999997
21
107.15000000000003
31
0
0
LINE
5
421
100
AcDbEntity
8
0
100
AcDbLine
10
211.92499999999998
20
107.15000000000003
30
0
11
211.92499999999998
21
126.20000000000003
31
0
0
LINE
5
422
100
AcDbEntity
8
0
100
AcDbLine
10
192.87499999999997
20
107.15000000000003
30
0
11
211.92499999999998
21
107.15000000000003
31
0
0
LINE
5
423
100
AcDbEntity
8
0
100
AcDbLine
10
230.97499999999997
20
126.20000000000003
30
0
11
211.92499999999995
21
126.20000000000003
31
0
0
LINE
5
424
100
AcDbEntity
8
0
100
AcDbLine
10
211.92499999999995
20
126.20000000000003
30
0
11
211.92499999999995
21
107.15000000000003
31
0
0
LINE
5
425
100
AcDbEntity
8
0
100
AcDbLine
10
230.97499999999997
20
107.15000000000003
30
0
11
230.97499999999997
21
126.20000000000003
31
0
0
LINE
5
426
100
AcDbEntity
8
0
100
AcDbLine
10
211.92499999999995
20
107.15000000000003
30
0
11
230.97499999999997
21
107.15000000000003
31
0
0
LINE
5
427
100
AcDbEntity
8
0
100
AcDbLine
10
250.02499999999995
20
126.20000000000003
30
0
11
230.97499999999994
21
126.20000000000003
31
0
0
LINE
5
428
100
AcDbEntity
8
0
100
AcDbLine
10
230.97499999999994
20
126.20000000000003
30
0
11
230.97499999999994
21
107.15000000000003
31
0
0
LINE
5
429
100
AcDbEntity
8
0
100
AcDbLine
10
250.02499999999995
20
107.15000000000003
30
0
11
250.02499999999995
21
126.20000000000003
31
0
0
LINE
5
430
100
AcDbEntity
8
0
100
AcDbLine
10
230.97499999999994
20
107.15000000000003
30
0
11
250.02499999999995
21
107.15000000000003
31
0
0
LINE
5
431
100
AcDbEntity
8
0
100
AcDbLine
10
269.07499999999993
20
126.20000000000003
30
0
11
250.02499999999992
21
126.20000000000003
31
0
0
LINE
5
432
100
AcDbEntity
8
0
100
AcDbLine
10
250.02499999999992
20
126.20000000000003
30
0
11
250.02499999999992
21
107.15000000000003
31
0
0
LINE
5
433
100
AcDbEntity
8
0
100
AcDbLine
10
269.07499999999993
20
107.15000000000003
30
0
11
269.07499999999993
21
126.20000000000003
31
0
0
LINE
5
434
100
AcDbEntity
8
0
100
AcDbLine
10
250.02499999999992
20
107.15000000000003
30
0
11
269.07499999999993
21
107.15000000000003
31
0
0
LINE
5
435
100
AcDbEntity
8
0
100
AcDbLine
10
288.12499999999989
20
126.20000000000003
30
0
11
269.07499999999987
21
126.20000000000003
31
0
0
LINE
5
436
100
AcDbEntity
8
0
100
AcDbLine
10
269.07499999999987
20
126.20000000000003
30
0
11
269.07499999999987
21
107.15000000000003
31
0
0
LINE
5
437
100
AcDbEntity
8
0
100
AcDbLine
10
288.12499999999989
20
107.15000000000003
30
0
11
288.12499999999989
21
126.20000000000003
31
0
0
LINE
5
438
100
AcDbEntity
8
0
100
AcDbLine
10
269.07499999999987
20
107.15000000000003
30
0
11
288.12499999999989
21
107.15000000000003
31
0
0
LINE
5
439
100
AcDbEntity
8
0
100
AcDbLine
10
307.17499999999984
20
126.20000000000003
30
0
11
288.12499999999989
21
126.20000000000003
31
0
0
LINE
5
440
100
AcDbEntity
8
0
100
AcDbLine
10
288.12499999999989
20
126.20000000000003
30
0
11
288.12499999999989
21
107.15000000000003
31
0
0
LINE
5
441
100
AcDbEntity
8
0
100
AcDbLine
10
307.17499999999984
20
107.15000000000003
30
0
11
307.17499999999984
21
126.20000000000003
31
0
0
LINE
5
442
100
AcDbEntity
8
0
100
AcDbLine
10
288.12499999999989
20
107.15000000000003
30
0
11
307.17499999999984
21
107.15000000000003
31
0
0
LINE
5
443
100
AcDbEntity
8
0
100
AcDbLine
10
92.862500000000011
20
69.050000000000011
30
0
11
111.91249999999999
21
69.050000000000011
31
0
0
LINE
5
444
100
AcDbEntity
8
0
100
AcDbLine
10
111.91249999999999
20
69.050000000000011
30
0
11
111.91249999999999
21
88.100000000000009
31
0
0
LINE
5
445
100
AcDbEntity
8
0
100
AcDbLine
10
92.862500000000011
20
88.100000000000009
30
0
11
92.862500000000011
21
69.050000000000011
31
0
0
LINE
5
446
100
AcDbEntity
8
0
100
AcDbLine
10
111.91249999999999
20
88.100000000000009
30
0
11
92.862500000000011
21
88.100000000000009
31
0
0
LINE
5
447
100
AcDbEntity
8
0
100
AcDbLine
10
264.31249999999989
20
88.100000000000009
30
0
11
245.2624999999999
21
88.100000000000009
31
0
0
LINE
5
448
100
AcDbEntity
8
0
100
AcDbLine
10
245.2624999999999
20
88.100000000000009
30
0
11
245.2624999999999
21
69.049999999999997
31
0
0
LINE
5
449
100
AcDbEntity
8
0
100
AcDbLine
10
264.31249999999989
20
69.049999999999997
30
0
11
264.31249999999989
21
88.100000000000009
31
0
0
LINE
5
450
100
AcDbEntity
8
0
100
AcDbLine
10
245.2624999999999
20
69.049999999999997
30
0
11
264.31249999999989
21
69.049999999999997
31
0
0
LINE
5
451
100
AcDbEntity
8
0
100
AcDbLine
10
283.3624999999999
20
88.100000000000009
30
0
11
264.31249999999989
21
88.100000000000009
31
0
0
LINE
5
452
100
AcDbEntity
8
0
100
AcDbLine
10
264.31249999999989
20
88.100000000000009
30
0
11
264.31249999999989
21
69.049999999999997
31
0
0
LINE
5
453
100
AcDbEntity
8
0
100
AcDbLine
10
283.3624999999999
20
69.049999999999997
30
0
11
283.3624999999999
21
88.100000000000009
31
0
0
LINE
5
454
100
AcDbEntity
8
0
100
AcDbLine
10
264.31249999999989
20
69.049999999999997
30
0
11
283.3624999999999
21
69.049999999999997
31
0
0
LINE
5
455
100
AcDbEntity
8
0
100
AcDbLine
10
102.38749999999999
20
107.15000000000002
30
0
11
83.337500000000006
21
107.15000000000002
31
0
0
LINE
5
456
100
AcDbEntity
8
0
100
AcDbLine
10
83.337500000000006
20
107.15000000000002
30
0
11
83.337500000000006
21
88.100000000000023
31
0
0
LINE
5
457
100
AcDbEntity
8
0
100
AcDbLine
10
102.38749999999999
20
88.100000000000023
30
0
11
102.38749999999999
21
107.15000000000002
31
0
0
LINE
5
458
100
AcDbEntity
8
0
100
AcDbLine
10
83.337500000000006
20
88.100000000000023
30
0
11
102.38749999999999
21
88.100000000000023
31
0
0
LINE
5
459
100
AcDbEntity
8
0
100
AcDbLine
10
121.4375
20
107.15000000000002
30
0
11
102.38750000000002
21
107.15000000000002
31
0
0
LINE
5
460
100
AcDbEntity
8
0
100
AcDbLine
10
102.38750000000002
20
107.15000000000002
30
0
11
102.38750000000002
21
88.100000000000023
31
0
0
LINE
5
461
100
AcDbEntity
8
0
100
AcDbLine
10
121.4375
20
88.100000000000023
30
0
11
121.4375
21
107.15000000000002
31
0
0
LINE
5
462
100
AcDbEntity
8
0
100
AcDbLine
10
102.38750000000002
20
88.100000000000023
30
0
11
121.4375
21
88.100000000000023
31
0
0
LINE
5
463
100
AcDbEntity
8
0
100
AcDbLine
10
140.48750000000001
20
107.15000000000002
30
0
11
121.43750000000003
21
107.15000000000002
31
0
0
LINE
5
464
100
AcDbEntity
8
0
100
AcDbLine
10
121.43750000000003
20
107.15000000000002
30
0
11
121.43750000000003
21
88.100000000000023
31
0
0
LINE
5
465
100
AcDbEntity
8
0
100
AcDbLine
10
140.48750000000001
20
88.100000000000023
30
0
11
140.48750000000001
21
107.15000000000002
31
0
0
LINE
5
466
100
AcDbEntity
8
0
100
AcDbLine
10
121.43750000000003
20
88.100000000000023
30
0
11
140.48750000000001
21
88.100000000000023
31
0
0
LINE
5
467
100
AcDbEntity
8
0
100
AcDbLine
10
159.53750000000002
20
107.15000000000002
30
0
11
140.48750000000004
21
107.15000000000002
31
0
0
LINE
5
468
100
AcDbEntity
8
0
100
AcDbLine
10
140.48750000000004
20
107.15000000000002
30
0
11
140.48750000000004
21
88.100000000000023
31
0
0
LINE
5
469
100
AcDbEntity
8
0
100
AcDbLine
10
159.53750000000002
20
88.100000000000023
30
0
11
159.53750000000002
21
107.15000000000002
31
0
0
LINE
5
470
100
AcDbEntity
8
0
100
AcDbLine
10
140.48750000000004
20
88.100000000000023
30
0
11
159.53750000000002
21
88.100000000000023
31
0
0
LINE
5
471
100
AcDbEntity
8
0
100
AcDbLine
10
178.58750000000003
20
107.15000000000002
30
0
11
159.53750000000005
21
107.15000000000002
31
0
0
LINE
5
472
100
AcDbEntity
8
0
100
AcDbLine
10
159.53750000000005
20
107.15000000000002
30
0
11
159.53750000000005
21
88.100000000000023
31
0
0
LINE
5
473
100
AcDbEntity
8
0
100
AcDbLine
10
178.58750000000003
20
88.100000000000023
30
0
11
178.58750000000003
21
107.15000000000002
31
0
0
LINE
5
474
100
AcDbEntity
8
0
100
AcDbLine
10
159.53750000000005
20
88.100000000000023
30
0
11
178.58750000000003
21
88.100000000000023
31
0
0
LINE
5
475
100
AcDbEntity
8
0
100
AcDbLine
10
197.63750000000002
20
107.15000000000002
30
0
11
178.58750000000001
21
107.15000000000002
31
0
0
LINE
5
476
100
AcDbEntity
8
0
100
AcDbLine
10
178.58750000000001
20
107.15000000000002
30
0
11
178.58750000000001
21
88.100000000000023
31
0
0
LINE
5
477
100
AcDbEntity
8
0
100
AcDbLine
10
197.63750000000002
20
88.100000000000023
30
0
11
197.63750000000002
21
107.15000000000002
31
0
0
LINE
5
478
100
AcDbEntity
8
0
100
AcDbLine
10
178.58750000000001
20
88.100000000000023
30
0
11
197.63750000000002
21
88.100000000000023
31
0
0
LINE
5
479
100
AcDbEntity
8
0
100
AcDbLine
10
216.6875
20
107.15000000000002
30
0
11
197.63749999999999
21
107.15000000000002
31
0
0
LINE
5
480
100
AcDbEntity
8
0
100
AcDbLine
10
197.63749999999999
20
107.15000000000002
30
0
11
197.63749999999999
21
88.100000000000023
31
0
0
LINE
5
481
100
AcDbEntity
8
0
100
AcDbLine
10
216.6875
20
88.100000000000023
30
0
11
216.6875
21
107.15000000000002
31
0
0
LINE
5
482
100
AcDbEntity
8
0
100
AcDbLine
10
197.63749999999999
20
88.100000000000023
30
0
11
216.6875
21
88.100000000000023
31
0
0
LINE
5
483
100
AcDbEntity
8
0
100
AcDbLine
10
235.73749999999995
20
107.15000000000002
30
0
11
216.68749999999994
21
107.15000000000002
31
0
0
LINE
5
484
100
AcDbEntity
8
0
100
AcDbLine
10
216.68749999999994
20
107.15000000000002
30
0
11
216.68749999999994
21
88.100000000000023
31
0
0
LINE
5
485
100
AcDbEntity
8
0
100
AcDbLine
10
235.73749999999995
20
88.100000000000023
30
0
11
235.73749999999995
21
107.15000000000002
31
0
0
LINE
5
486
100
AcDbEntity
8
0
100
AcDbLine
10
216.68749999999994
20
88.100000000000023
30
0
11
235.73749999999995
21
88.100000000000023
31
0
0
LINE
5
487
100
AcDbEntity
8
0
100
AcDbLine
10
254.78749999999994
20
107.15000000000002
30
0
11
235.73749999999993
21
107.15000000000002
31
0
0
LINE
5
488
100
AcDbEntity
8
0
100
AcDbLine
10
235.73749999999993
20
107.15000000000002
30
0
11
235.73749999999993
21
88.100000000000023
31
0
0
LINE
5
489
100
AcDbEntity
8
0
100
AcDbLine
10
254.78749999999994
20
88.100000000000023
30
0
11
254.78749999999994
21
107.15000000000002
31
0
0
LINE
5
490
100
AcDbEntity
8
0
100
AcDbLine
10
235.73749999999993
20
88.100000000000023
30
0
11
254.78749999999994
21
88.100000000000023
31
0
0
LINE
5
491
100
AcDbEntity
8
0
100
AcDbLine
10
273.83749999999992
20
107.15000000000002
30
0
11
254.78749999999991
21
107.15000000000002
31
0
0
LINE
5
492
100
AcDbEntity
8
0
100
AcDbLine
10
254.78749999999991
20
107.15000000000002
30
0
11
254.78749999999991
21
88.100000000000023
31
0
0
LINE
5
493
100
AcDbEntity
8
0
100
AcDbLine
10
273.83749999999992
20
88.100000000000023
30
0
11
273.83749999999992
21
107.15000000000002
31
0
0
LINE
5
494
100
AcDbEntity
8
0
100
AcDbLine
10
254.78749999999991
20
88.100000000000023
30
0
11
273.83749999999992
21
88.100000000000023
31
0
0
LINE
5
495
100
AcDbEntity
8
0
100
AcDbLine
10
292.88749999999987
20
107.15000000000002
30
0
11
273.83749999999986
21
107.15000000000002
31
0
0
LINE
5
496
100
AcDbEntity
8
0
100
AcDbLine
10
273.83749999999986
20
107.15000000000002
30
0
11
273.83749999999986
21
88.100000000000023
31
0
0
LINE
5
497
100
AcDbEntity
8
0
100
AcDbLine
10
292.88749999999987
20
88.100000000000023
30
0
11
292.88749999999987
21
107.15000000000002
31
0
0
LINE
5
498
100
AcDbEntity
8
0
100
AcDbLine
10
273.83749999999986
20
88.100000000000023
30
0
11
292.88749999999987
21
88.100000000000023
31
0
0
LINE
5
499
100
AcDbEntity
8
0
100
AcDbLine
10
356.35000000000002
20
176.35000000000002
30
0
11
347.85000000000002
21
176.35000000000002
31
0
0
CIRCLE
5
500
100
AcDbEntity
8
0
100
AcDbCircle
10
116.83101599830007
20
174.34999999999999
30
0
40
1.1000000000000001
210
0
220
-0
230
1
0
CIRCLE
5
501
100
AcDbEntity
8
0
100
AcDbCircle
10
240.34398403599994
20
174.35000000000002
30
0
40
1.1000000000000001
210
0
220
-0
230
1
0
LINE
5
502
100
AcDbEntity
8
0
100
AcDbLine
10
48.000000000000043
20
177.34999999999999
30
0
11
45.000000000000036
21
177.34999999999999
31
0
0
LINE
5
503
100
AcDbEntity
8
0
100
AcDbLine
10
45.000000000000036
20
174.34999999999999
30
0
11
45.000000000000036
21
177.34999999999999
31
0
0
LINE
5
504
100
AcDbEntity
8
0
100
AcDbLine
10
346.85000000000002
20
176.35000000000002
30
0
11
338.35000000000002
21
176.35000000000002
31
0
0
LINE
5
505
100
AcDbEntity
8
0
100
AcDbLine
10
174.58750063026386
20
179.35003808396002
30
0
11
182.58750063026366
21
179.35003982905408
31
0
0
LINE
5
506
100
AcDbEntity
8
0
100
AcDbLine
10
182.58750063026366
20
179.35003982905408
30
0
11
182.58750106653719
21
177.35003982905411
31
0
0
LINE
5
507
100
AcDbEntity
8
0
100
AcDbLine
10
174.58750063026386
20
179.35003808396002
30
0
11
174.58750106653736
21
177.35003808396004
31
0
0
LINE
5
508
100
AcDbEntity
8
0
100
AcDbLine
10
174.58750106653736
20
177.35003808396004
30
0
11
182.58750106653719
21
177.35003982905411
31
0
0
LINE
5
509
100
AcDbEntity
8
0
100
AcDbLine
10
173.08750000000657
20
169.35000000000002
30
0
11
173.08750000000657
21
177.35000000000002
31
0
0
LINE
5
510
100
AcDbEntity
8
0
100
AcDbLine
10
184.08750000000654
20
177.35000000000002
30
0
11
184.08750000000654
21
169.35000000000002
31
0
0
LINE
5
511
100
AcDbEntity
8
0
100
AcDbLine
10
50
20
169.34999999999999
30
0
11
375.22499999999991
21
169.35000000000014
31
0
0
LINE
5
512
100
AcDbEntity
8
0
100
AcDbLine
10
375.22499999999991
20
169.35000000000014
30
0
11
375.22499999999991
21
44.950000000000152
31
0
0
LINE
5
513
100
AcDbEntity
8
0
100
AcDbLine
10
50.000000000000064
20
44.949999999999662
30
0
11
50
21
169.34999999999999
31
0
0
LINE
5
514
100
AcDbEntity
8
0
100
AcDbLine
10
136.83101614965045
20
44.949999999999697
30
0
11
50.000000000000071
21
44.949999999999662
31
0
0
LINE
5
515
100
AcDbEntity
8
0
100
AcDbLine
10
172.28518017215652
20
35.450085381848083
30
0
11
184.88981982784364
21
35.4500853818477
31
0
0
LINE
5
516
100
AcDbEntity
8
0
100
AcDbLine
10
136.83101614965045
20
44.949999999999697
30
0
11
172.28518017215652
21
35.450085381848083
31
0
0
LINE
5
517
100
AcDbEntity
8
0
100
AcDbLine
10
184.88981982784364
20
35.4500853818477
30
0
11
220.34398385047862
21
44.949999999999775
31
0
0
LINE
5
518
100
AcDbEntity
8
0
100
AcDbLine
10
220.34398385047862
20
44.949999999999775
30
0
11
302.41249999999985
21
44.950000000000344
31
0
0
LINE
5
519
100
AcDbEntity
8
0
100
AcDbLine
10
302.41249999999985
20
44.949999999999896
30
0
11
359.56249999999983
21
44.95000000000001
31
0
0
LINE
5
520
100
AcDbEntity
8
0
100
AcDbLine
10
359.56249999999983
20
44.95000000000001
30
0
11
375.22499999999991
21
44.950000000000145
31
0
0
LINE
5
521
100
AcDbEntity
8
0
100
AcDbLine
10
45.000000000000085
20
39.949999999999896
30
0
11
45.000000000000036
21
174.34999999999999
31
0
0
LINE
5
522
100
AcDbEntity
8
0
100
AcDbLine
10
48.000000000000043
20
177.34999999999999
30
0
11
377.22499999999997
21
177.35000000000002
31
0
0
LINE
5
523
100
AcDbEntity
8
0
100
AcDbLine
10
358.35000000000008
20
177.35000000000002
30
0
11
358.35000000000008
21
169.35000000000014
31
0
0
LINE
5
524
100
AcDbEntity
8
0
100
AcDbLine
10
356.35000000000002
20
177.35000000000002
30
0
11
356.35000000000002
21
169.35000000000014
31
0
0
LINE
5
525
100
AcDbEntity
8
0
100
AcDbLine
10
347.85000000000002
20
177.35000000000002
30
0
11
347.85000000000002
21
169.35000000000014
31
0
0
LINE
5
526
100
AcDbEntity
8
0
100
AcDbLine
10
336.34999999999997
20
177.35000000000002
30
0
11
336.34999999999997
21
169.35000000000014
31
0
0
LINE
5
527
100
AcDbEntity
8
0
100
AcDbLine
10
346.85000000000002
20
177.35000000000002
30
0
11
346.85000000000002
21
169.35000000000014
31
0
0
LINE
5
528
100
AcDbEntity
8
0
100
AcDbLine
10
338.35000000000002
20
179.35000000000014
30
0
11
338.35000000000002
21
169.35000000000014
31
0
0
CIRCLE
5
529
100
AcDbEntity
8
0
100
AcDbCircle
10
377.22499999999997
20
174.35000000000002
30
0
40
3.0000000000000071
210
0
220
-0
230
1
0
CIRCLE
5
530
100
AcDbEntity
8
0
100
AcDbCircle
10
240.34398403599994
20
174.35000000000002
30
0
40
3.0000000000000071
210
0
220
-0
230
1
0
CIRCLE
5
531
100
AcDbEntity
8
0
100
AcDbCircle
10
116.83101599830007
20
174.34999999999999
30
0
40
3.0000000000000071
210
0
220
-0
230
1
0
CIRCLE
5
532
100
AcDbEntity
8
0
100
AcDbCircle
10
48.000000000000043
20
174.34999999999999
30
0
40
3.0000000000000071
210
0
220
-0
230
1
0
CIRCLE
5
533
100
AcDbEntity
8
0
100
AcDbCircle
10
48.000000000000085
20
39.949999999999896
30
0
40
2.9999999999999938
210
0
220
-0
230
1
0
CIRCLE
5
534
100
AcDbEntity
8
0
100
AcDbCircle
10
116.83101599830009
20
39.949999999999896
30
0
40
2.9999999999999938
210
0
220
-0
230
1
0
CIRCLE
5
535
100
AcDbEntity
8
0
100
AcDbCircle
10
240.34398403599999
20
39.949999999999939
30
0
40
2.9999999999999982
210
0
220
-0
230
1
0
CIRCLE
5
536
100
AcDbEntity
8
0
100
AcDbCircle
10
377.22500000000002
20
39.950000000000003
30
0
40
2.9999999999999982
210
0
220
-0
230
1
0
LINE
5
537
100
AcDbEntity
8
0
100
AcDbLine
10
363.77499999999992
20
165.80000000000001
30
0
11
363.77499999999992
21
155.90000000000001
31
0
0
LINE
5
538
100
AcDbEntity
8
0
100
AcDbLine
10
363.27499999999986
20
160.85000000000002
30
0
11
364.27499999999986
21
160.85000000000002
31
0
0
LINE
5
539
100
AcDbEntity
8
0
100
AcDbLine
10
366.22499999999991
20
170.85000000000002
30
0
11
380.22499999999991
21
170.85000000000002
31
0
0
LINE
5
540
100
AcDbEntity
8
0
100
AcDbLine
10
366.22499999999991
20
166.85000000000002
30
0
11
366.22499999999991
21
170.85000000000002
31
0
0
LINE
5
541
100
AcDbEntity
8
0
100
AcDbLine
10
380.22499999999991
20
166.85000000000002
30
0
11
361.02499999999992
21
166.85000000000002
31
0
0
LINE
5
542
100
AcDbEntity
8
0
100
AcDbLine
10
361.02499999999992
20
154.85000000000002
30
0
11
361.02499999999992
21
166.85000000000002
31
0
0
LINE
5
543
100
AcDbEntity
8
0
100
AcDbLine
10
380.22499999999991
20
154.85000000000002
30
0
11
361.02499999999992
21
154.85000000000002
31
0
0
LINE
5
544
100
AcDbEntity
8
0
100
AcDbLine
10
366.22499999999991
20
154.85000000000002
30
0
11
366.22499999999991
21
150.85000000000002
31
0
0
LINE
5
545
100
AcDbEntity
8
0
100
AcDbLine
10
380.22499999999991
20
150.85000000000005
30
0
11
366.22499999999991
21
150.85000000000002
31
0
0
LINE
5
546
100
AcDbEntity
8
0
100
AcDbLine
10
368.22499999999991
20
166.85000000000002
30
0
11
368.22499999999991
21
154.85000000000002
31
0
0
ENDSEC
0
SECTION
2
OBJECTS
0
DICTIONARY
5
C
100
AcDbDictionary
3
ACAD_GROUP
350
D
3
ACAD_MLINESTYLE
350
17
0
DICTIONARY
5
D
100
AcDbDictionary
0
DICTIONARY
5
1A
330
C
100
AcDbDictionary
0
DICTIONARY
5
17
100
AcDbDictionary
0
ENDSEC
0
EOF
