%TF.GenerationSoftware,KiCad,Pcbnew,(6.0.6)*%
%TF.CreationDate,2022-07-23T00:41:05+02:00*%
%TF.ProjectId,middle,6d696464-6c65-42e6-9b69-6361645f7063,rev?*%
%TF.SameCoordinates,Original*%
%TF.FileFunction,Paste,Bot*%
%TF.FilePolarity,Positive*%
%FSLAX46Y46*%
G04 Gerber Fmt 4.6, Leading zero omitted, Abs format (unit mm)*
G04 Created by KiCad (PCBNEW (6.0.6)) date 2022-07-23 00:41:05*
%MOMM*%
%LPD*%
G01*
G04 APERTURE LIST*
G04 Aperture macros list*
%AMRoundRect*
0 Rectangle with rounded corners*
0 $1 Rounding radius*
0 $2 $3 $4 $5 $6 $7 $8 $9 X,Y pos of 4 corners*
0 Add a 4 corners polygon primitive as box body*
4,1,4,$2,$3,$4,$5,$6,$7,$8,$9,$2,$3,0*
0 Add four circle primitives for the rounded corners*
1,1,$1+$1,$2,$3*
1,1,$1+$1,$4,$5*
1,1,$1+$1,$6,$7*
1,1,$1+$1,$8,$9*
0 Add four rect primitives between the rounded corners*
20,1,$1+$1,$2,$3,$4,$5,0*
20,1,$1+$1,$4,$5,$6,$7,0*
20,1,$1+$1,$6,$7,$8,$9,0*
20,1,$1+$1,$8,$9,$2,$3,0*%
%AMRotRect*
0 Rectangle, with rotation*
0 The origin of the aperture is its center*
0 $1 length*
0 $2 width*
0 $3 Rotation angle, in degrees counterclockwise*
0 Add horizontal line*
21,1,$1,$2,0,0,$3*%
G04 Aperture macros list end*
%ADD10R,2.300000X2.000000*%
%ADD11R,1.700000X0.820000*%
%ADD12RoundRect,0.205000X-0.645000X-0.205000X0.645000X-0.205000X0.645000X0.205000X-0.645000X0.205000X0*%
%ADD13RotRect,2.300000X2.000000X165.000000*%
%ADD14RotRect,1.700000X0.820000X345.000000*%
%ADD15RoundRect,0.205000X-0.676080X-0.031077X0.569964X-0.364953X0.676080X0.031077X-0.569964X0.364953X0*%
%ADD16RotRect,2.300000X2.000000X195.000000*%
%ADD17RotRect,1.700000X0.820000X15.000000*%
%ADD18RoundRect,0.205000X-0.569964X-0.364953X0.676080X-0.031077X0.569964X0.364953X-0.676080X0.031077X0*%
G04 APERTURE END LIST*
D10*
%TO.C,KD13*%
X361087500Y-93615000D03*
X373787500Y-91075000D03*
D11*
X365537500Y-100445000D03*
X365537500Y-101945000D03*
D12*
X370637500Y-101945000D03*
D11*
X370637500Y-100445000D03*
%TD*%
D10*
%TO.C,KA5*%
X161425000Y-69515000D03*
X174125000Y-66975000D03*
D11*
X165875000Y-76345000D03*
X165875000Y-77845000D03*
D12*
X170975000Y-77845000D03*
D11*
X170975000Y-76345000D03*
%TD*%
D10*
%TO.C,KF9*%
X280125000Y-169815000D03*
X292825000Y-167275000D03*
D11*
X284575000Y-176645000D03*
X284575000Y-178145000D03*
D12*
X289675000Y-178145000D03*
D11*
X289675000Y-176645000D03*
%TD*%
D10*
%TO.C,KC7*%
X194400000Y-112665000D03*
X207100000Y-110125000D03*
D11*
X198850000Y-119495000D03*
X198850000Y-120995000D03*
D12*
X203950000Y-120995000D03*
D11*
X203950000Y-119495000D03*
%TD*%
D10*
%TO.C,KE11*%
X292031250Y-150765000D03*
X304731250Y-148225000D03*
D11*
X296481250Y-157595000D03*
X296481250Y-159095000D03*
D12*
X301581250Y-159095000D03*
D11*
X301581250Y-157595000D03*
%TD*%
D10*
%TO.C,KC9*%
X232500000Y-112665000D03*
X245200000Y-110125000D03*
D11*
X236950000Y-119495000D03*
X236950000Y-120995000D03*
D12*
X242050000Y-120995000D03*
D11*
X242050000Y-119495000D03*
%TD*%
D10*
%TO.C,KB9*%
X222975000Y-93615000D03*
X235675000Y-91075000D03*
D11*
X227425000Y-100445000D03*
X227425000Y-101945000D03*
D12*
X232525000Y-101945000D03*
D11*
X232525000Y-100445000D03*
%TD*%
D13*
%TO.C,KF3*%
X121654486Y-170639392D03*
X134579145Y-171472942D03*
D14*
X124185122Y-178388410D03*
X123796894Y-179837299D03*
D15*
X128723115Y-181157276D03*
D14*
X129111344Y-179708387D03*
%TD*%
D10*
%TO.C,KB0*%
X51525000Y-93615000D03*
X64225000Y-91075000D03*
D11*
X55975000Y-100445000D03*
X55975000Y-101945000D03*
D12*
X61075000Y-101945000D03*
D11*
X61075000Y-100445000D03*
%TD*%
D10*
%TO.C,KC2*%
X99150000Y-112665000D03*
X111850000Y-110125000D03*
D11*
X103600000Y-119495000D03*
X103600000Y-120995000D03*
D12*
X108700000Y-120995000D03*
D11*
X108700000Y-119495000D03*
%TD*%
D10*
%TO.C,KD7*%
X199162500Y-131715000D03*
X211862500Y-129175000D03*
D11*
X203612500Y-138545000D03*
X203612500Y-140045000D03*
D12*
X208712500Y-140045000D03*
D11*
X208712500Y-138545000D03*
%TD*%
D10*
%TO.C,KA7*%
X199525000Y-69515000D03*
X212225000Y-66975000D03*
D11*
X203975000Y-76345000D03*
X203975000Y-77845000D03*
D12*
X209075000Y-77845000D03*
D11*
X209075000Y-76345000D03*
%TD*%
D10*
%TO.C,KC3*%
X118200000Y-112665000D03*
X130900000Y-110125000D03*
D11*
X122650000Y-119495000D03*
X122650000Y-120995000D03*
D12*
X127750000Y-120995000D03*
D11*
X127750000Y-119495000D03*
%TD*%
D10*
%TO.C,KA10*%
X261725000Y-69515000D03*
X274425000Y-66975000D03*
D11*
X266175000Y-76345000D03*
X266175000Y-77845000D03*
D12*
X271275000Y-77845000D03*
D11*
X271275000Y-76345000D03*
%TD*%
D10*
%TO.C,KC5*%
X156300000Y-112665000D03*
X169000000Y-110125000D03*
D11*
X160750000Y-119495000D03*
X160750000Y-120995000D03*
D12*
X165850000Y-120995000D03*
D11*
X165850000Y-119495000D03*
%TD*%
D10*
%TO.C,KF11*%
X322987500Y-174865000D03*
X335687500Y-172325000D03*
D11*
X327437500Y-181695000D03*
X327437500Y-183195000D03*
D12*
X332537500Y-183195000D03*
D11*
X332537500Y-181695000D03*
%TD*%
D10*
%TO.C,KE7*%
X208687500Y-150765000D03*
X221387500Y-148225000D03*
D11*
X213137500Y-157595000D03*
X213137500Y-159095000D03*
D12*
X218237500Y-159095000D03*
D11*
X218237500Y-157595000D03*
%TD*%
D10*
%TO.C,KF12*%
X342037500Y-174865000D03*
X354737500Y-172325000D03*
D11*
X346487500Y-181695000D03*
X346487500Y-183195000D03*
D12*
X351587500Y-183195000D03*
D11*
X351587500Y-181695000D03*
%TD*%
D10*
%TO.C,KE5*%
X170587500Y-150765000D03*
X183287500Y-148225000D03*
D11*
X175037500Y-157595000D03*
X175037500Y-159095000D03*
D12*
X180137500Y-159095000D03*
D11*
X180137500Y-157595000D03*
%TD*%
D10*
%TO.C,KB5*%
X146775000Y-93615000D03*
X159475000Y-91075000D03*
D11*
X151225000Y-100445000D03*
X151225000Y-101945000D03*
D12*
X156325000Y-101945000D03*
D11*
X156325000Y-100445000D03*
%TD*%
D10*
%TO.C,KD10*%
X256312500Y-131715000D03*
X269012500Y-129175000D03*
D11*
X260762500Y-138545000D03*
X260762500Y-140045000D03*
D12*
X265862500Y-140045000D03*
D11*
X265862500Y-138545000D03*
%TD*%
D10*
%TO.C,KA0*%
X51525000Y-69515000D03*
X64225000Y-66975000D03*
D11*
X55975000Y-76345000D03*
X55975000Y-77845000D03*
D12*
X61075000Y-77845000D03*
D11*
X61075000Y-76345000D03*
%TD*%
D10*
%TO.C,KD1*%
X84862500Y-131715000D03*
X97562500Y-129175000D03*
D11*
X89312500Y-138545000D03*
X89312500Y-140045000D03*
D12*
X94412500Y-140045000D03*
D11*
X94412500Y-138545000D03*
%TD*%
D10*
%TO.C,KB10*%
X242025000Y-93615000D03*
X254725000Y-91075000D03*
D11*
X246475000Y-100445000D03*
X246475000Y-101945000D03*
D12*
X251575000Y-101945000D03*
D11*
X251575000Y-100445000D03*
%TD*%
D10*
%TO.C,KC11*%
X270600000Y-112665000D03*
X283300000Y-110125000D03*
D11*
X275050000Y-119495000D03*
X275050000Y-120995000D03*
D12*
X280150000Y-120995000D03*
D11*
X280150000Y-119495000D03*
%TD*%
D10*
%TO.C,KF1*%
X75337500Y-169815000D03*
X88037500Y-167275000D03*
D11*
X79787500Y-176645000D03*
X79787500Y-178145000D03*
D12*
X84887500Y-178145000D03*
D11*
X84887500Y-176645000D03*
%TD*%
D10*
%TO.C,KE6*%
X189637500Y-150765000D03*
X202337500Y-148225000D03*
D11*
X194087500Y-157595000D03*
X194087500Y-159095000D03*
D12*
X199187500Y-159095000D03*
D11*
X199187500Y-157595000D03*
%TD*%
D10*
%TO.C,KA3*%
X118275000Y-69515000D03*
X130975000Y-66975000D03*
D11*
X122725000Y-76345000D03*
X122725000Y-77845000D03*
D12*
X127825000Y-77845000D03*
D11*
X127825000Y-76345000D03*
%TD*%
D10*
%TO.C,KE4*%
X151537500Y-150765000D03*
X164237500Y-148225000D03*
D11*
X155987500Y-157595000D03*
X155987500Y-159095000D03*
D12*
X161087500Y-159095000D03*
D11*
X161087500Y-157595000D03*
%TD*%
D10*
%TO.C,KD11*%
X275362500Y-131715000D03*
X288062500Y-129175000D03*
D11*
X279812500Y-138545000D03*
X279812500Y-140045000D03*
D12*
X284912500Y-140045000D03*
D11*
X284912500Y-138545000D03*
%TD*%
D10*
%TO.C,KD8*%
X218212500Y-131715000D03*
X230912500Y-129175000D03*
D11*
X222662500Y-138545000D03*
X222662500Y-140045000D03*
D12*
X227762500Y-140045000D03*
D11*
X227762500Y-138545000D03*
%TD*%
D10*
%TO.C,KF0*%
X53906250Y-169815000D03*
X66606250Y-167275000D03*
D11*
X58356250Y-176645000D03*
X58356250Y-178145000D03*
D12*
X63456250Y-178145000D03*
D11*
X63456250Y-176645000D03*
%TD*%
D10*
%TO.C,KE3*%
X132487500Y-150765000D03*
X145187500Y-148225000D03*
D11*
X136937500Y-157595000D03*
X136937500Y-159095000D03*
D12*
X142037500Y-159095000D03*
D11*
X142037500Y-157595000D03*
%TD*%
D10*
%TO.C,KF10*%
X303937500Y-174865000D03*
X316637500Y-172325000D03*
D11*
X308387500Y-181695000D03*
X308387500Y-183195000D03*
D12*
X313487500Y-183195000D03*
D11*
X313487500Y-181695000D03*
%TD*%
D10*
%TO.C,KC0*%
X56287500Y-112665000D03*
X68987500Y-110125000D03*
D11*
X60737500Y-119495000D03*
X60737500Y-120995000D03*
D12*
X65837500Y-120995000D03*
D11*
X65837500Y-119495000D03*
%TD*%
D10*
%TO.C,KD6*%
X180112500Y-131715000D03*
X192812500Y-129175000D03*
D11*
X184562500Y-138545000D03*
X184562500Y-140045000D03*
D12*
X189662500Y-140045000D03*
D11*
X189662500Y-138545000D03*
%TD*%
D10*
%TO.C,KB2*%
X89625000Y-93615000D03*
X102325000Y-91075000D03*
D11*
X94075000Y-100445000D03*
X94075000Y-101945000D03*
D12*
X99175000Y-101945000D03*
D11*
X99175000Y-100445000D03*
%TD*%
D10*
%TO.C,KC4*%
X137250000Y-112665000D03*
X149950000Y-110125000D03*
D11*
X141700000Y-119495000D03*
X141700000Y-120995000D03*
D12*
X146800000Y-120995000D03*
D11*
X146800000Y-119495000D03*
%TD*%
D10*
%TO.C,KD0*%
X58668750Y-131715000D03*
X71368750Y-129175000D03*
D11*
X63118750Y-138545000D03*
X63118750Y-140045000D03*
D12*
X68218750Y-140045000D03*
D11*
X68218750Y-138545000D03*
%TD*%
D10*
%TO.C,KD3*%
X122962500Y-131715000D03*
X135662500Y-129175000D03*
D11*
X127412500Y-138545000D03*
X127412500Y-140045000D03*
D12*
X132512500Y-140045000D03*
D11*
X132512500Y-138545000D03*
%TD*%
D16*
%TO.C,KF5*%
X192396221Y-181658613D03*
X204006079Y-175918160D03*
D17*
X198462325Y-187104142D03*
X198850554Y-188553031D03*
D18*
X203776776Y-187233054D03*
D17*
X203388547Y-185784165D03*
%TD*%
D10*
%TO.C,KF8*%
X261075000Y-169815000D03*
X273775000Y-167275000D03*
D11*
X265525000Y-176645000D03*
X265525000Y-178145000D03*
D12*
X270625000Y-178145000D03*
D11*
X270625000Y-176645000D03*
%TD*%
D10*
%TO.C,KA11*%
X280775000Y-69515000D03*
X293475000Y-66975000D03*
D11*
X285225000Y-76345000D03*
X285225000Y-77845000D03*
D12*
X290325000Y-77845000D03*
D11*
X290325000Y-76345000D03*
%TD*%
D10*
%TO.C,KD5*%
X161062500Y-131715000D03*
X173762500Y-129175000D03*
D11*
X165512500Y-138545000D03*
X165512500Y-140045000D03*
D12*
X170612500Y-140045000D03*
D11*
X170612500Y-138545000D03*
%TD*%
D10*
%TO.C,KA9*%
X242675000Y-69515000D03*
X255375000Y-66975000D03*
D11*
X247125000Y-76345000D03*
X247125000Y-77845000D03*
D12*
X252225000Y-77845000D03*
D11*
X252225000Y-76345000D03*
%TD*%
D10*
%TO.C,KE8*%
X227737500Y-150765000D03*
X240437500Y-148225000D03*
D11*
X232187500Y-157595000D03*
X232187500Y-159095000D03*
D12*
X237287500Y-159095000D03*
D11*
X237287500Y-157595000D03*
%TD*%
D10*
%TO.C,KB3*%
X108675000Y-93615000D03*
X121375000Y-91075000D03*
D11*
X113125000Y-100445000D03*
X113125000Y-101945000D03*
D12*
X118225000Y-101945000D03*
D11*
X118225000Y-100445000D03*
%TD*%
D10*
%TO.C,KC6*%
X175350000Y-112665000D03*
X188050000Y-110125000D03*
D11*
X179800000Y-119495000D03*
X179800000Y-120995000D03*
D12*
X184900000Y-120995000D03*
D11*
X184900000Y-119495000D03*
%TD*%
D10*
%TO.C,KB8*%
X203925000Y-93615000D03*
X216625000Y-91075000D03*
D11*
X208375000Y-100445000D03*
X208375000Y-101945000D03*
D12*
X213475000Y-101945000D03*
D11*
X213475000Y-100445000D03*
%TD*%
D10*
%TO.C,KA1*%
X80175000Y-69515000D03*
X92875000Y-66975000D03*
D11*
X84625000Y-76345000D03*
X84625000Y-77845000D03*
D12*
X89725000Y-77845000D03*
D11*
X89725000Y-76345000D03*
%TD*%
D10*
%TO.C,KA12*%
X299825000Y-69515000D03*
X312525000Y-66975000D03*
D11*
X304275000Y-76345000D03*
X304275000Y-77845000D03*
D12*
X309375000Y-77845000D03*
D11*
X309375000Y-76345000D03*
%TD*%
D10*
%TO.C,KA8*%
X218575000Y-69515000D03*
X231275000Y-66975000D03*
D11*
X223025000Y-76345000D03*
X223025000Y-77845000D03*
D12*
X228125000Y-77845000D03*
D11*
X228125000Y-76345000D03*
%TD*%
D10*
%TO.C,KE2*%
X113437500Y-150765000D03*
X126137500Y-148225000D03*
D11*
X117887500Y-157595000D03*
X117887500Y-159095000D03*
D12*
X122987500Y-159095000D03*
D11*
X122987500Y-157595000D03*
%TD*%
D10*
%TO.C,KE13*%
X361087500Y-112665000D03*
X373787500Y-110125000D03*
D11*
X365537500Y-119495000D03*
X365537500Y-120995000D03*
D12*
X370637500Y-120995000D03*
D11*
X370637500Y-119495000D03*
%TD*%
D10*
%TO.C,KC8*%
X213450000Y-112665000D03*
X226150000Y-110125000D03*
D11*
X217900000Y-119495000D03*
X217900000Y-120995000D03*
D12*
X223000000Y-120995000D03*
D11*
X223000000Y-119495000D03*
%TD*%
D10*
%TO.C,KD4*%
X142012500Y-131715000D03*
X154712500Y-129175000D03*
D11*
X146462500Y-138545000D03*
X146462500Y-140045000D03*
D12*
X151562500Y-140045000D03*
D11*
X151562500Y-138545000D03*
%TD*%
D10*
%TO.C,KB11*%
X261075000Y-93615000D03*
X273775000Y-91075000D03*
D11*
X265525000Y-100445000D03*
X265525000Y-101945000D03*
D12*
X270625000Y-101945000D03*
D11*
X270625000Y-100445000D03*
%TD*%
D10*
%TO.C,KF7*%
X242025000Y-169815000D03*
X254725000Y-167275000D03*
D11*
X246475000Y-176645000D03*
X246475000Y-178145000D03*
D12*
X251575000Y-178145000D03*
D11*
X251575000Y-176645000D03*
%TD*%
D10*
%TO.C,KE0*%
X63431250Y-150765000D03*
X76131250Y-148225000D03*
D11*
X67881250Y-157595000D03*
X67881250Y-159095000D03*
D12*
X72981250Y-159095000D03*
D11*
X72981250Y-157595000D03*
%TD*%
D10*
%TO.C,KC1*%
X80100000Y-112665000D03*
X92800000Y-110125000D03*
D11*
X84550000Y-119495000D03*
X84550000Y-120995000D03*
D12*
X89650000Y-120995000D03*
D11*
X89650000Y-119495000D03*
%TD*%
D10*
%TO.C,KE1*%
X94387500Y-150765000D03*
X107087500Y-148225000D03*
D11*
X98837500Y-157595000D03*
X98837500Y-159095000D03*
D12*
X103937500Y-159095000D03*
D11*
X103937500Y-157595000D03*
%TD*%
D10*
%TO.C,KC13*%
X313462500Y-112665000D03*
X326162500Y-110125000D03*
D11*
X317912500Y-119495000D03*
X317912500Y-120995000D03*
D12*
X323012500Y-120995000D03*
D11*
X323012500Y-119495000D03*
%TD*%
D10*
%TO.C,KB13*%
X308700000Y-93615000D03*
X321400000Y-91075000D03*
D11*
X313150000Y-100445000D03*
X313150000Y-101945000D03*
D12*
X318250000Y-101945000D03*
D11*
X318250000Y-100445000D03*
%TD*%
D13*
%TO.C,KF4*%
X149255817Y-178035146D03*
X162180475Y-178868697D03*
D14*
X151786453Y-185784165D03*
X151398224Y-187233053D03*
D15*
X156324446Y-188553030D03*
D14*
X156712675Y-187104142D03*
%TD*%
D10*
%TO.C,KA4*%
X137325000Y-69515000D03*
X150025000Y-66975000D03*
D11*
X141775000Y-76345000D03*
X141775000Y-77845000D03*
D12*
X146875000Y-77845000D03*
D11*
X146875000Y-76345000D03*
%TD*%
D10*
%TO.C,KC12*%
X289650000Y-112665000D03*
X302350000Y-110125000D03*
D11*
X294100000Y-119495000D03*
X294100000Y-120995000D03*
D12*
X299200000Y-120995000D03*
D11*
X299200000Y-119495000D03*
%TD*%
D10*
%TO.C,KB12*%
X280125000Y-93615000D03*
X292825000Y-91075000D03*
D11*
X284575000Y-100445000D03*
X284575000Y-101945000D03*
D12*
X289675000Y-101945000D03*
D11*
X289675000Y-100445000D03*
%TD*%
D10*
%TO.C,KB4*%
X127725000Y-93615000D03*
X140425000Y-91075000D03*
D11*
X132175000Y-100445000D03*
X132175000Y-101945000D03*
D12*
X137275000Y-101945000D03*
D11*
X137275000Y-100445000D03*
%TD*%
D10*
%TO.C,KB6*%
X165825000Y-93615000D03*
X178525000Y-91075000D03*
D11*
X170275000Y-100445000D03*
X170275000Y-101945000D03*
D12*
X175375000Y-101945000D03*
D11*
X175375000Y-100445000D03*
%TD*%
D10*
%TO.C,KA6*%
X180475000Y-69515000D03*
X193175000Y-66975000D03*
D11*
X184925000Y-76345000D03*
X184925000Y-77845000D03*
D12*
X190025000Y-77845000D03*
D11*
X190025000Y-76345000D03*
%TD*%
D10*
%TO.C,KA2*%
X99225000Y-69515000D03*
X111925000Y-66975000D03*
D11*
X103675000Y-76345000D03*
X103675000Y-77845000D03*
D12*
X108775000Y-77845000D03*
D11*
X108775000Y-76345000D03*
%TD*%
D10*
%TO.C,KF2*%
X96768750Y-169815000D03*
X109468750Y-167275000D03*
D11*
X101218750Y-176645000D03*
X101218750Y-178145000D03*
D12*
X106318750Y-178145000D03*
D11*
X106318750Y-176645000D03*
%TD*%
D10*
%TO.C,KD2*%
X103912500Y-131715000D03*
X116612500Y-129175000D03*
D11*
X108362500Y-138545000D03*
X108362500Y-140045000D03*
D12*
X113462500Y-140045000D03*
D11*
X113462500Y-138545000D03*
%TD*%
D10*
%TO.C,KF13*%
X361087500Y-131715000D03*
X373787500Y-129175000D03*
D11*
X365537500Y-138545000D03*
X365537500Y-140045000D03*
D12*
X370637500Y-140045000D03*
D11*
X370637500Y-138545000D03*
%TD*%
D10*
%TO.C,KB7*%
X184875000Y-93615000D03*
X197575000Y-91075000D03*
D11*
X189325000Y-100445000D03*
X189325000Y-101945000D03*
D12*
X194425000Y-101945000D03*
D11*
X194425000Y-100445000D03*
%TD*%
D10*
%TO.C,KE10*%
X265837500Y-150765000D03*
X278537500Y-148225000D03*
D11*
X270287500Y-157595000D03*
X270287500Y-159095000D03*
D12*
X275387500Y-159095000D03*
D11*
X275387500Y-157595000D03*
%TD*%
D10*
%TO.C,KB1*%
X70575000Y-93615000D03*
X83275000Y-91075000D03*
D11*
X75025000Y-100445000D03*
X75025000Y-101945000D03*
D12*
X80125000Y-101945000D03*
D11*
X80125000Y-100445000D03*
%TD*%
D10*
%TO.C,KD12*%
X306318750Y-131715000D03*
X319018750Y-129175000D03*
D11*
X310768750Y-138545000D03*
X310768750Y-140045000D03*
D12*
X315868750Y-140045000D03*
D11*
X315868750Y-138545000D03*
%TD*%
D10*
%TO.C,KE9*%
X246787500Y-150765000D03*
X259487500Y-148225000D03*
D11*
X251237500Y-157595000D03*
X251237500Y-159095000D03*
D12*
X256337500Y-159095000D03*
D11*
X256337500Y-157595000D03*
%TD*%
D10*
%TO.C,KC10*%
X251550000Y-112665000D03*
X264250000Y-110125000D03*
D11*
X256000000Y-119495000D03*
X256000000Y-120995000D03*
D12*
X261100000Y-120995000D03*
D11*
X261100000Y-119495000D03*
%TD*%
D10*
%TO.C,KE12*%
X322987500Y-155815000D03*
X335687500Y-153275000D03*
D11*
X327437500Y-162645000D03*
X327437500Y-164145000D03*
D12*
X332537500Y-164145000D03*
D11*
X332537500Y-162645000D03*
%TD*%
D10*
%TO.C,KD9*%
X237262500Y-131715000D03*
X249962500Y-129175000D03*
D11*
X241712500Y-138545000D03*
X241712500Y-140045000D03*
D12*
X246812500Y-140045000D03*
D11*
X246812500Y-138545000D03*
%TD*%
D16*
%TO.C,KF6*%
X219997552Y-174262859D03*
X231607410Y-168522405D03*
D17*
X226063656Y-179708387D03*
X226451885Y-181157276D03*
D18*
X231378106Y-179837299D03*
D17*
X230989878Y-178388410D03*
%TD*%
M02*
